<?xml version="1.0" encoding="utf-8"?>
<!-- Generator: Adobe Illustrator 21.1.0, SVG Export Plug-In . SVG Version: 6.00 Build 0)  -->
<svg version="1.1" id="Layer_1" xmlns="http://www.w3.org/2000/svg" xmlns:xlink="http://www.w3.org/1999/xlink" x="0px" y="0px"
	 viewBox="0 0 36 36" style="enable-background:new 0 0 36 36;" xml:space="preserve">
<style type="text/css">
	.st0{fill:#FFFFFF;}
</style>
<g>
	<path class="st0" d="M17.8,31.5c-1.3,0.8-2.7,1.3-4.3,1.3c-2.2,0-4.1-0.8-5.6-2.3S5.6,27.2,5.6,25c0-1.6,0.4-3,1.3-4.3L9,22.8
		c-0.4,0.7-0.6,1.4-0.6,2.1c0,1.4,0.5,2.5,1.5,3.5s2.1,1.4,3.5,1.5c0.8,0,1.6-0.1,2.1-0.5L17.8,31.5z M26.2,16.6l-5.9,0.3l3.3-3.7
		c0.3-0.5,0.4-1.1,0.3-1.9c-0.1-0.4-0.3-0.8-0.7-1.1l-7.7-4.6c-0.3-0.2-0.7-0.3-1-0.3c-0.4,0-0.7,0.2-1,0.4L9.6,9.3
		C9.2,9.7,9,10.1,9,10.5s0.1,0.8,0.4,1.2c0.3,0.4,0.7,0.5,1.2,0.6s0.9-0.1,1.2-0.4l2.9-2.6l2.7,1.6l-6,6.1c-0.1,0.2-0.2,0.3-0.3,0.3
		c-0.8,0.2-1.4,0.6-2,1l2.1,2.1c0.7-0.4,1.4-0.6,2.1-0.6c1.4,0,2.5,0.5,3.5,1.5s1.4,2.1,1.5,3.5c0,0.8-0.1,1.6-0.5,2.1l2.1,2.1
		c0.8-1.3,1.3-2.7,1.3-4.3c0-0.9-0.1-1.7-0.4-2.5s-0.6-1.5-1.1-2.2l4.7-0.4l-0.3,6.8c-0.1,0.5,0,1,0.3,1.3s0.7,0.5,1.2,0.6h0.1
		c0.4,0,0.8-0.2,1.1-0.5s0.5-0.7,0.6-1.1l0.3-8.4c0-0.2,0-0.5-0.1-0.7s-0.2-0.5-0.3-0.6C27,16.7,26.6,16.6,26.2,16.6z M25.6,8.4
		c0.8,0,1.5-0.3,2-0.8s0.8-1.2,0.8-2s-0.3-1.5-0.8-2c-0.5-0.6-1.2-0.8-2-0.8s-1.5,0.3-2,0.8c-0.5,0.6-0.8,1.2-0.8,2s0.3,1.5,0.8,2
		C24.1,8.2,24.8,8.4,25.6,8.4z"/>
</g>
</svg>
