<?xml version="1.0" encoding="utf-8"?>
<!-- Generator: Adobe Illustrator 21.1.0, SVG Export Plug-In . SVG Version: 6.00 Build 0)  -->
<svg version="1.1" id="Layer_1" xmlns="http://www.w3.org/2000/svg" xmlns:xlink="http://www.w3.org/1999/xlink" x="0px" y="0px"
	 viewBox="0 0 36 36" style="enable-background:new 0 0 36 36;" xml:space="preserve">
<style type="text/css">
	.st0{fill:#FFFFFF;}
</style>
<g>
	<path class="st0" d="M17.7,0c2.5,0,4.8,0.4,7,1.3s4.1,2.2,5.8,3.8c1.6,1.6,2.9,3.5,3.9,5.7c1,2.2,1.5,4.5,1.5,7
		c0,2.5-0.4,4.8-1.3,7c-0.9,2.2-2.2,4.1-3.8,5.8c-1.6,1.7-3.5,3-5.7,3.9s-4.5,1.5-7,1.5c-2.5,0-4.8-0.4-7-1.3
		c-2.2-0.9-4.1-2.2-5.8-3.8c-1.6-1.6-2.9-3.5-3.9-5.6S0,20.7,0,18.2c0-2.5,0.4-4.8,1.3-7s2.2-4.1,3.8-5.8c1.6-1.6,3.5-2.9,5.7-3.9
		S15.3,0,17.7,0z M18.2,34c2.2,0,4.3-0.5,6.2-1.3s3.6-2,5-3.5c1.4-1.5,2.6-3.2,3.4-5.2s1.2-4,1.2-6.2s-0.5-4.3-1.3-6.2
		s-2-3.6-3.5-5.1C27.7,5,26,3.9,24,3.1s-4-1.2-6.2-1.2c-2.2,0-4.3,0.5-6.2,1.3s-3.6,2-5,3.5C5,8.3,3.9,10,3.1,11.9s-1.2,4-1.2,6.2
		c0,2.2,0.5,4.3,1.3,6.2s2,3.6,3.5,5c1.5,1.4,3.2,2.6,5.2,3.4S16,34.1,18.2,34z M13.6,21.1c0.2,0,0.5,0,0.7-0.1
		c0.2-0.1,0.4-0.2,0.6-0.3c0.2-0.1,0.3-0.3,0.5-0.5c0.1-0.2,0.3-0.4,0.4-0.6l2.1,1.1c-0.1,0.2-0.3,0.4-0.4,0.6
		c-0.1,0.2-0.3,0.4-0.4,0.5c-0.2,0.2-0.3,0.3-0.5,0.5s-0.4,0.3-0.6,0.4c-0.2,0.1-0.4,0.2-0.6,0.3c-0.2,0.1-0.4,0.2-0.6,0.2
		c-0.2,0-0.4,0.1-0.7,0.1c-0.2,0-0.5,0.1-0.7,0.1c-0.4,0-0.8,0-1.1-0.1c-0.3-0.1-0.7-0.2-1-0.3c-0.3-0.1-0.6-0.3-0.9-0.4
		s-0.5-0.4-0.8-0.6c-0.2-0.2-0.4-0.5-0.6-0.8s-0.3-0.6-0.5-0.9c-0.1-0.3-0.2-0.7-0.3-1.1c0-0.4-0.1-0.8-0.1-1.2c0-0.4,0-0.8,0.1-1.2
		s0.1-0.7,0.2-1c0.1-0.3,0.3-0.7,0.5-0.9c0.2-0.3,0.4-0.5,0.6-0.8c0.2-0.2,0.5-0.5,0.8-0.6s0.5-0.3,0.8-0.4c0.3-0.1,0.6-0.2,1-0.3
		s0.7-0.1,1.1-0.1c0.5,0,1,0,1.5,0.1s0.9,0.3,1.3,0.5c0.4,0.2,0.7,0.5,1,0.8c0.3,0.3,0.6,0.7,0.8,1.1l-2.3,1.2
		c-0.1-0.1-0.1-0.2-0.2-0.3c-0.1-0.1-0.1-0.2-0.2-0.3c-0.1-0.1-0.2-0.2-0.2-0.3s-0.2-0.1-0.3-0.2c-0.1,0-0.2-0.1-0.3-0.1
		c-0.1,0-0.2-0.1-0.2-0.1c-0.1,0-0.2,0-0.3-0.1s-0.1,0-0.2,0c-0.4,0-0.7,0.1-1,0.2c-0.3,0.1-0.5,0.3-0.7,0.6
		c-0.2,0.2-0.3,0.6-0.4,0.9c-0.1,0.4-0.1,0.8-0.1,1.3c0,0.2,0,0.5,0,0.7c0,0.2,0.1,0.4,0.1,0.6c0,0.2,0.1,0.4,0.2,0.5
		s0.2,0.3,0.3,0.5c0.1,0.1,0.2,0.2,0.3,0.3c0.1,0.1,0.2,0.2,0.4,0.3c0.1,0.1,0.3,0.1,0.5,0.2S13.4,21.1,13.6,21.1z M23.5,21.1
		c0.3,0,0.5,0,0.7-0.1c0.2-0.1,0.4-0.2,0.6-0.3c0.2-0.1,0.3-0.3,0.5-0.5c0.1-0.2,0.3-0.4,0.3-0.6l2.2,1.1c-0.1,0.2-0.3,0.4-0.4,0.6
		s-0.3,0.4-0.4,0.5c-0.2,0.2-0.3,0.3-0.5,0.5c-0.2,0.1-0.4,0.3-0.6,0.4c-0.2,0.1-0.4,0.2-0.6,0.3c-0.2,0.1-0.4,0.2-0.6,0.2
		c-0.2,0-0.4,0.1-0.7,0.1c-0.2,0-0.5,0.1-0.7,0.1c-0.4,0-0.8,0-1.1-0.1c-0.4-0.1-0.7-0.2-1-0.3c-0.3-0.1-0.6-0.3-0.9-0.4
		c-0.3-0.2-0.5-0.4-0.8-0.6c-0.2-0.2-0.4-0.5-0.6-0.8s-0.3-0.6-0.4-0.9c-0.1-0.3-0.2-0.7-0.3-1.1c-0.1-0.4-0.1-0.8-0.1-1.2
		c0-0.4,0-0.8,0.1-1.2c0.1-0.4,0.2-0.7,0.3-1c0.1-0.3,0.3-0.7,0.5-0.9c0.2-0.3,0.4-0.5,0.6-0.8c0.2-0.2,0.5-0.5,0.8-0.6
		c0.3-0.2,0.6-0.3,0.9-0.4c0.3-0.1,0.6-0.2,0.9-0.3c0.3-0.1,0.7-0.1,1-0.1c0.5,0,1,0,1.5,0.1s0.9,0.3,1.3,0.5c0.4,0.2,0.7,0.5,1,0.8
		c0.3,0.3,0.6,0.7,0.8,1.1l-2.3,1.2c0-0.1-0.1-0.2-0.2-0.3c-0.1-0.1-0.1-0.2-0.2-0.3c-0.1-0.1-0.2-0.2-0.2-0.3s-0.2-0.1-0.2-0.2
		c-0.1,0-0.2-0.1-0.3-0.1c-0.1,0-0.2-0.1-0.3-0.1c-0.1,0-0.2,0-0.2-0.1s-0.2,0-0.3,0c-0.4,0-0.7,0.1-1,0.2c-0.3,0.1-0.5,0.3-0.7,0.6
		c-0.2,0.2-0.3,0.6-0.4,0.9c-0.1,0.4-0.1,0.8-0.1,1.3c0,0.2,0,0.5,0,0.7s0.1,0.4,0.1,0.6c0,0.2,0.1,0.4,0.2,0.5
		c0.1,0.2,0.2,0.3,0.3,0.5c0.1,0.1,0.2,0.2,0.3,0.3c0.1,0.1,0.3,0.2,0.4,0.3c0.1,0.1,0.3,0.1,0.5,0.2S23.3,21.1,23.5,21.1z"/>
</g>
</svg>
