<svg xmlns="http://www.w3.org/2000/svg" viewBox="734 5248 35.9 35.04">
  <defs>
    <style>
      .cls-1 {
        fill: #fff;
      }
    </style>
  </defs>
  <path id="github" class="cls-1" d="M25.1,1.6a17.466,17.466,0,0,1,9.5,9.5,18.219,18.219,0,0,1,1.4,7,17.906,17.906,0,0,1-.9,5.7,18.836,18.836,0,0,1-2.5,4.9,18.025,18.025,0,0,1-3.9,3.9,19.256,19.256,0,0,1-4.9,2.6c-.4.1-.8,0-.9-.2a2.118,2.118,0,0,1-.3-.7V29.4a4.638,4.638,0,0,0-.4-2.1c-.3-.6-.5-1-.9-1.2a15.944,15.944,0,0,0,3-.6,7.222,7.222,0,0,0,2.6-1.4,7.625,7.625,0,0,0,1.9-2.6,10.441,10.441,0,0,0,.7-4.3,7.635,7.635,0,0,0-.5-2.7,5.957,5.957,0,0,0-1.4-2.1c.1-.2.2-.8.4-1.6a5.283,5.283,0,0,0-.5-3.1,10.079,10.079,0,0,0-5,1.9,14.191,14.191,0,0,0-2.2-.5A17.7,17.7,0,0,0,18,9a17.7,17.7,0,0,0-2.3.1,7.85,7.85,0,0,0-2.2.5,9.75,9.75,0,0,0-5-1.9,9.383,9.383,0,0,0-.4,3.1,5.825,5.825,0,0,0,.4,1.6,7.706,7.706,0,0,0-1.4,2.1,5.923,5.923,0,0,0-.5,2.7,10.754,10.754,0,0,0,.7,4.3,6.518,6.518,0,0,0,1.9,2.6,9.386,9.386,0,0,0,2.6,1.4,14.5,14.5,0,0,0,3,.6,3.114,3.114,0,0,0-.7.9,4.365,4.365,0,0,0-.5,1.5,8.865,8.865,0,0,1-2.4.5c-1.1.1-2-.6-2.8-2a3.8,3.8,0,0,0-2.7-1.8c-.9.2-1,.5-.1,1.1a6.3,6.3,0,0,1,2,2.6,5.737,5.737,0,0,0,6,2.1v3.4a1.08,1.08,0,0,1-.3.7.9.9,0,0,1-.9.2,17.723,17.723,0,0,1-4.9-2.6,18.031,18.031,0,0,1-3.9-3.9A17.723,17.723,0,0,1,1,23.9a17.907,17.907,0,0,1-.9-5.7,18.219,18.219,0,0,1,1.4-7A17.466,17.466,0,0,1,11,1.7,18.219,18.219,0,0,1,18,.3,18.661,18.661,0,0,1,25.1,1.6Z" transform="translate(733.9 5247.7)"/>
</svg>
