<svg fill="#FFFFFF" xmlns:dc="http://purl.org/dc/elements/1.1/" xmlns:cc="http://creativecommons.org/ns#" xmlns:rdf="http://www.w3.org/1999/02/22-rdf-syntax-ns#" xmlns:svg="http://www.w3.org/2000/svg" xmlns="http://www.w3.org/2000/svg" xmlns:sodipodi="http://sodipodi.sourceforge.net/DTD/sodipodi-0.dtd" xmlns:inkscape="http://www.inkscape.org/namespaces/inkscape" version="1.1" x="0px" y="0px" viewBox="0 0 763.22583 494.11099" enable-background="new 0 0 2000 2000" xml:space="preserve"><path style="" d="M 306.47303,0 C 139.082,0 2.656,134.888 0.06,301.63998 c -0.02,1.611 -0.06,3.218 -0.06,4.833 0,103.461 84.172,187.638 187.664,187.638 103.43003,0 187.60503,-84.177 187.60503,-187.638 0,-103.46 -84.175,-187.63198 -187.60503,-187.63198 -14.662,0 -28.934,1.692 -42.637,4.888 43.043,-38.069 99.57803,-61.213 161.44503,-61.213 17.285,0 31.258,-13.974 31.258,-31.26 0,-17.285 -13.973,-31.256 -31.258,-31.256 z m 387.9298,0 c -166.9698,0 -303.0768,134.208 -306.3338,300.38098 -0.07,2.025 -0.113,4.052 -0.113,6.092 0,103.461 84.112,187.638 187.604,187.638 103.4908,0 187.6658,-84.177 187.6658,-187.638 0,-103.46 -84.175,-187.63198 -187.6658,-187.63198 -14.622,0 -28.857,1.683 -42.522,4.861 43.03,-38.052 99.537,-61.186 161.3598,-61.186 17.285,0 31.258,-13.974 31.258,-31.26 0,-17.285 -13.973,-31.256 -31.258,-31.256 z M 187.665,181.35598 c 68.98403,0 125.09103,56.133 125.09103,125.117 0,68.984 -56.107,125.126 -125.09103,125.126 -69.047,0 -125.152,-56.142 -125.152,-125.126 0,-1.077 0.02,-2.148 0.03,-3.222 1.716,-67.502 57.144,-121.895 125.112,-121.895 z m 387.89903,0 c 68.984,0 125.1528,56.133 125.1528,125.117 0,68.984 -56.1688,125.126 -125.1528,125.126 -68.692,0 -124.608,-55.67 -125.08,-124.252 0,-0.292 0.02,-0.581 0.02,-0.874 0,-1.493 0.03,-2.979 0.06,-4.467 2.362,-66.922 57.515,-120.65 125.001,-120.65 z" fill="#FFFFFF"/></svg>