<svg width="172" height="46" viewBox="0 0 172 46" fill="none" xmlns="http://www.w3.org/2000/svg">
<path d="M45.9432 19.6649H46.115C46.2863 19.6462 46.4521 19.5928 46.6022 19.5078C46.7524 19.4229 46.8838 19.3082 46.9885 19.1707C47.0932 19.0332 47.1691 18.8758 47.2114 18.708C47.2538 18.5401 47.2618 18.3654 47.2349 18.1944C46.6221 13.5145 44.3367 9.21817 40.8047 6.1058C37.2727 2.99342 32.7348 1.27734 28.0368 1.27734C23.3387 1.27734 18.8009 2.99342 15.2689 6.1058C11.7368 9.21817 9.45148 13.5145 8.83866 18.1944C8.81609 18.3648 8.82717 18.5381 8.87124 18.7042C8.91531 18.8703 8.99152 19.0261 9.09552 19.1627C9.19951 19.2992 9.32925 19.4139 9.47734 19.5C9.62543 19.5862 9.78895 19.6422 9.95859 19.6649C10.1282 19.6875 10.3007 19.6764 10.466 19.6321C10.6314 19.5878 10.7864 19.5113 10.9223 19.4068C11.0582 19.3023 11.1723 19.1719 11.2581 19.0232C11.3439 18.8744 11.3996 18.7101 11.4222 18.5396C11.9471 14.4854 13.9227 10.7616 16.98 8.06359C20.0374 5.36554 23.9675 3.87763 28.0368 3.87763C32.106 3.87763 36.0362 5.36554 39.0936 8.06359C42.1509 10.7616 44.1265 14.4854 44.6514 18.5396C44.6971 18.8515 44.8526 19.1365 45.0896 19.343C45.3266 19.5494 45.6295 19.6636 45.9432 19.6649Z" fill="#00CD85"/>
<path fill-rule="evenodd" clip-rule="evenodd" d="M44.5454 19.8056C41.8695 19.8056 39.4703 20.9883 37.8353 22.8659C36.4651 24.4393 35.6363 26.4959 35.6363 28.75C35.6363 29.4557 35.0665 30.0278 34.3635 30.0278C33.6606 30.0278 33.0908 29.4557 33.0908 28.75C33.0908 25.854 34.1587 23.2052 35.919 21.1838C38.0168 18.7748 41.1045 17.25 44.5454 17.25C50.8715 17.25 55.9999 22.3987 55.9999 28.75C55.9999 35.1013 50.8715 40.25 44.5454 40.25C43.8425 40.25 43.2726 39.6779 43.2726 38.9722C43.2726 38.2665 43.8425 37.6944 44.5454 37.6944C49.4657 37.6944 53.4545 33.6899 53.4545 28.75C53.4545 23.8101 49.4657 19.8056 44.5454 19.8056Z" fill="#00CD85"/>
<path d="M11.6577 40.4299C14.5433 40.424 17.323 39.3366 19.4527 37.3803C19.7059 37.1464 19.8561 36.8209 19.8705 36.4756C19.8848 36.1303 19.762 35.7934 19.5291 35.5391C19.2962 35.2847 18.9723 35.1338 18.6286 35.1194C18.2849 35.105 17.9496 35.2284 17.6964 35.4624C16.0485 36.9815 13.8941 37.8254 11.6577 37.8279C9.3777 37.8028 7.19019 36.9187 5.52809 35.3505C3.86598 33.7823 2.8504 31.6443 2.68238 29.3597C2.51436 27.0751 3.20613 24.8104 4.62078 23.0138C6.03542 21.2172 8.06983 20.0196 10.3214 19.6581C10.7633 19.5862 11.21 19.5478 11.6577 19.543C12.0019 19.543 12.3321 19.4056 12.5756 19.161C12.819 18.9165 12.9558 18.5847 12.9558 18.2388C12.9558 17.8929 12.819 17.5612 12.5756 17.3166C12.3321 17.072 12.0019 16.9346 11.6577 16.9346C11.0801 16.938 10.5037 16.985 9.9332 17.0752C7.0212 17.5212 4.38392 19.0548 2.54837 21.3694C0.712809 23.6841 -0.185854 26.6094 0.0319538 29.5608C0.24976 32.5122 1.56801 35.2724 3.72326 37.2897C5.8785 39.3071 8.71203 40.4331 11.6577 40.4427V40.4299Z" fill="#00CD85"/>
<path d="M35.7937 45.9997C36.1807 45.9885 36.551 45.8386 36.8377 45.5771C37.1243 45.3157 37.3085 44.9598 37.3569 44.5739C37.4053 44.1879 37.3147 43.7973 37.1016 43.4725C36.8884 43.1478 36.5667 42.9103 36.1946 42.803C33.305 42.0485 30.67 40.5284 28.5646 38.4016C26.4592 36.2747 24.9606 33.6191 24.2254 30.7118C23.4901 27.8045 23.5451 24.7522 24.3845 21.8736C25.2239 18.9949 26.8171 16.3954 28.9977 14.3465C29.1646 14.2025 29.3008 14.0261 29.398 13.8278C29.4953 13.6295 29.5515 13.4135 29.5634 13.1928C29.5752 12.972 29.5425 12.7512 29.4671 12.5435C29.3917 12.3359 29.2752 12.1457 29.1247 11.9845C28.9741 11.8233 28.7927 11.6945 28.5912 11.6057C28.3897 11.5169 28.1724 11.47 27.9524 11.4678C27.7324 11.4657 27.5143 11.5084 27.3112 11.5933C27.108 11.6782 26.9241 11.8035 26.7705 11.9617C23.562 14.9802 21.4348 18.9782 20.719 23.3354C20.5461 24.4093 20.4588 25.4954 20.4581 26.5832C20.4467 31.0216 21.9094 35.3369 24.6146 38.8457C27.3197 42.3546 31.1127 44.8564 35.3928 45.9549C35.5237 45.9886 35.6586 46.0037 35.7937 45.9997Z" fill="#19185E"/>
<path d="M39.2683 40.7571C39.4903 40.7711 39.7129 40.7392 39.9222 40.6634C40.1315 40.5876 40.3232 40.4696 40.4853 40.3165C40.6475 40.1635 40.7767 39.9787 40.8651 39.7735C40.9534 39.5683 40.999 39.3472 40.999 39.1236C40.999 38.9001 40.9534 38.6789 40.8651 38.4737C40.7767 38.2686 40.6475 38.0838 40.4853 37.9307C40.3232 37.7777 40.1315 37.6596 39.9222 37.5838C39.7129 37.5081 39.4903 37.4762 39.2683 37.4901C37.6325 37.4699 36.0224 37.079 34.5579 36.3464C33.0935 35.6139 31.8126 34.5587 30.8106 33.2594C29.8086 31.9602 29.1115 30.4505 28.7712 28.8429C28.4309 27.2352 28.4562 25.5712 28.8451 23.9747C28.8965 23.7648 28.9063 23.5468 28.8738 23.3331C28.8413 23.1195 28.7673 22.9143 28.6559 22.7293C28.5445 22.5444 28.398 22.3834 28.2246 22.2553C28.0513 22.1273 27.8546 22.0348 27.6456 21.9832C27.4367 21.9316 27.2198 21.9218 27.0071 21.9544C26.7944 21.987 26.5902 22.0614 26.4061 22.1733C26.2221 22.2852 26.0617 22.4324 25.9343 22.6066C25.8069 22.7808 25.7149 22.9784 25.6635 23.1883C25.1506 25.2666 25.1135 27.4346 25.5548 29.5293C25.9962 31.624 26.9046 33.5909 28.2117 35.282C29.5188 36.9731 31.1906 38.3444 33.1012 39.2927C35.0119 40.2411 37.1118 40.7417 39.2428 40.7571H39.2683Z" fill="#19185E"/>
<path d="M23.8247 45.8654C24.1456 45.8659 24.4594 45.7708 24.7265 45.592C24.9936 45.4133 25.2019 45.1591 25.3252 44.8614C25.4485 44.5637 25.4811 44.236 25.4191 43.9197C25.357 43.6034 25.2029 43.3127 24.9764 43.0843C22.8172 40.9083 21.1065 38.3255 19.9425 35.4841C18.7785 32.6427 18.184 29.5984 18.1931 26.5257C18.195 25.6049 18.2481 24.685 18.3522 23.7702C18.5482 22.1072 18.9193 20.4699 19.4594 18.8857C19.5821 18.48 19.5432 18.0423 19.351 17.6648C19.1588 17.2874 18.8284 16.9995 18.4292 16.862C18.03 16.7244 17.5933 16.7479 17.211 16.9274C16.8287 17.1069 16.5306 17.4285 16.3796 17.8244C14.7735 22.5504 14.511 27.6328 15.6216 32.5005C16.7322 37.3682 19.1719 41.8282 22.6665 45.3795C22.8182 45.5331 22.9986 45.6551 23.1974 45.7385C23.3961 45.8219 23.6093 45.865 23.8247 45.8654Z" fill="#19185E"/>
<path d="M85.0149 10.6947H91.1078L102.144 41.0882H96.5286L94.5771 35.7042H81.5674L79.6159 41.0882H74L85.0149 10.6947ZM83.4971 30.407H92.6257L88.0506 17.8806L83.4971 30.407Z" fill="#19185E"/>
<path d="M104.039 19.3786H109.33V41.0882H104.039V19.3786ZM106.728 16.578C105.947 16.578 105.289 16.3247 104.755 15.8182C104.22 15.2971 103.952 14.6459 103.952 13.8643C103.952 13.0972 104.22 12.4532 104.755 11.9322C105.289 11.4111 105.94 11.1506 106.706 11.1506C107.472 11.1506 108.115 11.4111 108.636 11.9322C109.171 12.4532 109.438 13.0972 109.438 13.8643C109.438 14.6459 109.178 15.2971 108.657 15.8182C108.137 16.3247 107.494 16.578 106.728 16.578Z" fill="#19185E"/>
<path d="M113.159 41.0882L113.137 19.3786H118.428L118.449 21.3107C119.187 20.5292 120.068 19.9141 121.095 19.4654C122.121 19.0023 123.227 18.7707 124.412 18.7707C125.207 18.7707 126.002 18.8865 126.797 19.118L124.716 24.4586C124.166 24.2415 123.617 24.133 123.068 24.133C122.215 24.133 121.434 24.3428 120.726 24.7625C120.032 25.1678 119.476 25.725 119.056 26.4342C118.652 27.1289 118.449 27.9032 118.449 28.7571V41.0882H113.159Z" fill="#19185E"/>
<path d="M158.103 42L154.72 38.6567C153.535 39.554 152.212 40.256 150.752 40.7625C149.307 41.2691 147.782 41.5224 146.177 41.5224C144.124 41.5224 142.195 41.1171 140.388 40.3066C138.581 39.4817 136.991 38.3528 135.618 36.9199C134.244 35.4726 133.167 33.7937 132.387 31.8833C131.606 29.9728 131.216 27.9321 131.216 25.7612C131.216 23.5902 131.606 21.5568 132.387 19.6608C133.167 17.7503 134.244 16.0715 135.618 14.6241C136.991 13.1768 138.581 12.0479 140.388 11.2374C142.195 10.4125 144.124 10 146.177 10C148.244 10 150.181 10.4125 151.988 11.2374C153.795 12.0479 155.385 13.1768 156.758 14.6241C158.132 16.0715 159.201 17.7503 159.967 19.6608C160.748 21.5568 161.138 23.5902 161.138 25.7612C161.138 27.4545 160.893 29.0683 160.401 30.6024C159.91 32.1221 159.238 33.526 158.385 34.8141L161.832 38.2659L158.103 42ZM146.177 36.2252C147.016 36.2252 147.839 36.1022 148.649 35.8562C149.458 35.5956 150.203 35.2338 150.882 34.7707L148.129 32.0135L151.858 28.2578L154.438 30.8629C154.901 30.1103 155.248 29.2998 155.479 28.4315C155.725 27.5631 155.848 26.673 155.848 25.7612C155.848 24.3139 155.595 22.9606 155.089 21.7015C154.583 20.4423 153.882 19.3351 152.986 18.3799C152.104 17.4102 151.077 16.6576 149.907 16.1221C148.75 15.5721 147.507 15.2971 146.177 15.2971C144.847 15.2971 143.597 15.5721 142.426 16.1221C141.255 16.6721 140.222 17.4319 139.325 18.4016C138.444 19.3568 137.75 20.464 137.244 21.7232C136.752 22.9824 136.507 24.3283 136.507 25.7612C136.507 27.194 136.76 28.5472 137.265 29.8209C137.771 31.08 138.465 32.1945 139.347 33.1642C140.243 34.1194 141.27 34.872 142.426 35.422C143.597 35.9575 144.847 36.2252 146.177 36.2252Z" fill="#19185E"/>
<path d="M164.709 41.0882V10.6947H170V41.0882H164.709Z" fill="#19185E"/>
</svg>
