<svg width="86" height="24" viewBox="0 0 86 24" fill="none" xmlns="http://www.w3.org/2000/svg">
<path d="M16.4367 10.5783H16.4982C16.5594 10.5716 16.6188 10.5525 16.6725 10.5221C16.7262 10.4917 16.7732 10.4507 16.8107 10.4015C16.8481 10.3523 16.8753 10.296 16.8904 10.2359C16.9056 10.1759 16.9084 10.1134 16.8988 10.0522C16.6796 8.37794 15.862 6.84089 14.5984 5.72742C13.3348 4.61394 11.7113 4 10.0306 4C8.34977 4 6.72634 4.61394 5.46274 5.72742C4.19911 6.84089 3.38152 8.37794 3.16227 10.0522C3.1542 10.1132 3.15816 10.1752 3.17393 10.2346C3.1897 10.294 3.21696 10.3498 3.25417 10.3986C3.29137 10.4475 3.33779 10.4885 3.39077 10.5193C3.44375 10.5501 3.50225 10.5702 3.56294 10.5783C3.62362 10.5864 3.68533 10.5824 3.74447 10.5666C3.80364 10.5507 3.85909 10.5233 3.90771 10.486C3.95633 10.4486 3.99715 10.4019 4.02785 10.3487C4.05854 10.2955 4.07847 10.2367 4.08655 10.1757C4.27434 8.72528 4.98113 7.39307 6.0749 6.42783C7.16871 5.46258 8.57473 4.93027 10.0306 4.93027C11.4863 4.93027 12.8924 5.46258 13.9862 6.42783C15.08 7.39307 15.7868 8.72528 15.9746 10.1757C15.9909 10.2873 16.0465 10.3892 16.1313 10.4631C16.2161 10.537 16.3245 10.5778 16.4367 10.5783Z" fill="#00CD85"/>
<path fill-rule="evenodd" clip-rule="evenodd" d="M15.9363 10.6291C14.979 10.6291 14.1207 11.0522 13.5358 11.724C13.0456 12.2869 12.749 13.0226 12.749 13.8291C12.749 14.0815 12.5452 14.2862 12.2937 14.2862C12.0422 14.2862 11.8384 14.0815 11.8384 13.8291C11.8384 12.793 12.2204 11.8454 12.8502 11.1222C13.6007 10.2604 14.7053 9.71484 15.9363 9.71484C18.1996 9.71484 20.0343 11.5568 20.0343 13.8291C20.0343 16.1013 18.1996 17.9433 15.9363 17.9433C15.6849 17.9433 15.481 17.7386 15.481 17.4861C15.481 17.2337 15.6849 17.029 15.9363 17.029C17.6966 17.029 19.1236 15.5963 19.1236 13.8291C19.1236 12.0618 17.6966 10.6291 15.9363 10.6291Z" fill="#00CD85"/>
<path d="M4.17066 18.0072C5.203 18.0051 6.19746 17.616 6.95938 16.9162C7.04996 16.8325 7.1037 16.716 7.10885 16.5925C7.11397 16.469 7.07003 16.3484 6.98671 16.2575C6.90339 16.1664 6.78751 16.1125 6.66455 16.1073C6.54159 16.1022 6.42163 16.1463 6.33105 16.23C5.7415 16.7735 4.97075 17.0754 4.17066 17.0763C3.35497 17.0673 2.57237 16.751 1.97775 16.19C1.38311 15.629 1.01978 14.8641 0.959671 14.0467C0.899561 13.2294 1.14705 12.4192 1.65315 11.7764C2.15925 11.1337 2.88707 10.7052 3.69259 10.5759C3.85068 10.5502 4.01049 10.5365 4.17066 10.5347C4.2938 10.5347 4.41193 10.4856 4.49905 10.3981C4.58612 10.3106 4.63506 10.1919 4.63506 10.0681C4.63506 9.9444 4.58612 9.82573 4.49905 9.73823C4.41193 9.65072 4.2938 9.60156 4.17066 9.60156C3.96402 9.60278 3.75781 9.61959 3.55371 9.65186C2.51192 9.81142 1.56841 10.3601 0.911728 11.1881C0.255043 12.0162 -0.0664609 13.0628 0.0114615 14.1187C0.0893833 15.1746 0.560997 16.162 1.33205 16.8838C2.10311 17.6055 3.11682 18.0083 4.17066 18.0118V18.0072Z" fill="#00CD85"/>
<path d="M12.8053 19.9996C12.9438 19.9956 13.0762 19.9419 13.1788 19.8484C13.2813 19.7549 13.3472 19.6275 13.3645 19.4895C13.3819 19.3514 13.3494 19.2117 13.2732 19.0955C13.1969 18.9793 13.0818 18.8943 12.9487 18.8559C11.9149 18.586 10.9723 18.0422 10.219 17.2813C9.46581 16.5204 8.92968 15.5703 8.66665 14.5302C8.40359 13.4901 8.42327 12.3981 8.72357 11.3683C9.02387 10.3384 9.59385 9.40842 10.374 8.67541C10.4337 8.62389 10.4824 8.56079 10.5172 8.48984C10.552 8.4189 10.5721 8.34162 10.5764 8.26267C10.5806 8.18367 10.5689 8.10468 10.5419 8.03037C10.5149 7.9561 10.4733 7.88806 10.4194 7.83039C10.3655 7.77272 10.3006 7.72664 10.2285 7.69487C10.1565 7.6631 10.0787 7.64632 10 7.64553C9.92131 7.64478 9.84328 7.66006 9.77062 7.69043C9.69792 7.72081 9.63213 7.76563 9.57718 7.82223C8.42932 8.90212 7.66829 10.3324 7.41221 11.8913C7.35035 12.2755 7.31912 12.664 7.31887 13.0532C7.31479 14.6411 7.83808 16.1849 8.80589 17.4402C9.77366 18.6955 11.1306 19.5906 12.6619 19.9836C12.7087 19.9956 12.757 20.001 12.8053 19.9996Z" fill="white"/>
<path d="M14.0486 18.1242C14.1281 18.1292 14.2077 18.1178 14.2826 18.0906C14.3574 18.0635 14.426 18.0213 14.484 17.9665C14.542 17.9118 14.5883 17.8457 14.6199 17.7723C14.6515 17.6989 14.6678 17.6198 14.6678 17.5398C14.6678 17.4598 14.6515 17.3807 14.6199 17.3073C14.5883 17.2339 14.542 17.1678 14.484 17.113C14.426 17.0583 14.3574 17.016 14.2826 16.9889C14.2077 16.9618 14.1281 16.9504 14.0486 16.9554C13.4634 16.9481 12.8874 16.8083 12.3634 16.5462C11.8395 16.2842 11.3813 15.9066 11.0228 15.4418C10.6643 14.977 10.415 14.4369 10.2932 13.8618C10.1715 13.2866 10.1805 12.6913 10.3197 12.1201C10.338 12.045 10.3415 11.9671 10.3299 11.8906C10.3183 11.8142 10.2918 11.7408 10.252 11.6746C10.2121 11.6084 10.1597 11.5508 10.0977 11.505C10.0357 11.4592 9.96529 11.4261 9.89052 11.4077C9.81578 11.3892 9.73819 11.3857 9.66209 11.3974C9.586 11.409 9.51294 11.4356 9.44708 11.4757C9.38125 11.5157 9.32387 11.5684 9.27829 11.6307C9.23271 11.693 9.1998 11.7637 9.18141 11.8388C8.99792 12.5823 8.98464 13.3579 9.14252 14.1073C9.30043 14.8567 9.62542 15.5604 10.093 16.1654C10.5607 16.7704 11.1588 17.261 11.8423 17.6003C12.5259 17.9396 13.2771 18.1187 14.0395 18.1242H14.0486Z" fill="white"/>
<path d="M8.52337 19.9513C8.63818 19.9515 8.75044 19.9175 8.846 19.8535C8.94156 19.7896 9.01608 19.6986 9.06019 19.5921C9.1043 19.4856 9.11596 19.3684 9.09378 19.2552C9.07156 19.1421 9.01643 19.0381 8.9354 18.9564C8.16293 18.1779 7.55092 17.2539 7.13449 16.2373C6.71806 15.2208 6.50537 14.1317 6.50863 13.0324C6.50931 12.703 6.5283 12.3739 6.56554 12.0466C6.63567 11.4516 6.76843 10.8659 6.96165 10.2991C7.00555 10.154 6.99163 9.9974 6.92287 9.86234C6.85411 9.72733 6.73591 9.62433 6.59309 9.57514C6.45027 9.52591 6.29404 9.53432 6.15727 9.59853C6.0205 9.66275 5.91385 9.77781 5.85983 9.91944C5.28524 11.6102 5.19133 13.4285 5.58865 15.1699C5.98598 16.9114 6.8588 18.507 8.10902 19.7775C8.16329 19.8324 8.22783 19.8761 8.29895 19.9059C8.37004 19.9358 8.44631 19.9512 8.52337 19.9513Z" fill="white"/>
<path d="M30.4148 7.36914H32.5946L36.5428 18.2426H34.5339L33.8357 16.3165H29.1814L28.4833 18.2426H26.4741L30.4148 7.36914ZM29.8718 14.4214H33.1376L31.5008 9.93995L29.8718 14.4214Z" fill="white"/>
<path d="M37.2206 10.4759H39.1135V18.2426H37.2206V10.4759ZM38.1826 9.47392C37.9032 9.47392 37.6678 9.3833 37.4767 9.2021C37.2853 9.01567 37.1895 8.7827 37.1895 8.50307C37.1895 8.22864 37.2853 7.99824 37.4767 7.81185C37.6678 7.62542 37.9007 7.53223 38.1747 7.53223C38.4488 7.53223 38.6788 7.62542 38.8652 7.81185C39.0566 7.99824 39.1521 8.22864 39.1521 8.50307C39.1521 8.7827 39.0591 9.01567 38.8727 9.2021C38.6867 9.3833 38.4566 9.47392 38.1826 9.47392Z" fill="white"/>
<path d="M40.4835 18.2426L40.4756 10.4758H42.3685L42.376 11.167C42.64 10.8874 42.9552 10.6674 43.3226 10.5068C43.6897 10.3412 44.0854 10.2583 44.5093 10.2583C44.7937 10.2583 45.0781 10.2997 45.3626 10.3825L44.6181 12.2932C44.4213 12.2155 44.2249 12.1767 44.0285 12.1767C43.7233 12.1767 43.4439 12.2518 43.1906 12.4019C42.9423 12.5469 42.7434 12.7463 42.5932 13C42.4486 13.2485 42.376 13.5255 42.376 13.831V18.2426H40.4835Z" fill="white"/>
<path d="M56.5624 18.5693L55.3521 17.3732C54.9281 17.6943 54.4548 17.9454 53.9325 18.1266C53.4155 18.3078 52.87 18.3985 52.2958 18.3985C51.5613 18.3985 50.8712 18.2535 50.2247 17.9635C49.5782 17.6684 49.0094 17.2645 48.5182 16.7519C48.0266 16.2341 47.6413 15.6335 47.3623 14.95C47.0829 14.2665 46.9434 13.5364 46.9434 12.7598C46.9434 11.9831 47.0829 11.2556 47.3623 10.5773C47.6413 9.89382 48.0266 9.29322 48.5182 8.7754C49.0094 8.25762 49.5782 7.85375 50.2247 7.56378C50.8712 7.26867 51.5613 7.12109 52.2958 7.12109C53.0353 7.12109 53.7282 7.26867 54.3747 7.56378C55.0212 7.85375 55.59 8.25762 56.0812 8.7754C56.5728 9.29322 56.9552 9.89382 57.2292 10.5773C57.5087 11.2556 57.6482 11.9831 57.6482 12.7598C57.6482 13.3656 57.5605 13.9429 57.3845 14.4918C57.2089 15.0354 56.9684 15.5377 56.6633 15.9985L57.8965 17.2334L56.5624 18.5693ZM52.2958 16.5034C52.5959 16.5034 52.8904 16.4594 53.1801 16.3713C53.4696 16.2781 53.7361 16.1487 53.979 15.983L52.9941 14.9966L54.3282 13.653L55.2512 14.585C55.4168 14.3157 55.541 14.0257 55.6236 13.7151C55.7116 13.4044 55.7556 13.086 55.7556 12.7598C55.7556 12.242 55.6651 11.7578 55.4841 11.3074C55.3031 10.8569 55.0523 10.4608 54.7317 10.1191C54.4162 9.77215 54.0488 9.5029 53.6302 9.31132C53.2163 9.11455 52.7716 9.01617 52.2958 9.01617C51.82 9.01617 51.3728 9.11455 50.9538 9.31132C50.5349 9.50809 50.1653 9.77991 49.8444 10.1268C49.5292 10.4686 49.2809 10.8647 49.0999 11.3152C48.9239 11.7656 48.8363 12.2472 48.8363 12.7598C48.8363 13.2724 48.9268 13.7565 49.1074 14.2122C49.2885 14.6626 49.5367 15.0613 49.8523 15.4083C50.1728 15.75 50.5403 16.0192 50.9538 16.216C51.3728 16.4076 51.82 16.5034 52.2958 16.5034Z" fill="white"/>
<path d="M58.9258 18.2426V7.36914H60.8187V18.2426H58.9258Z" fill="white"/>
</svg>
