<svg width="96" height="32" viewBox="0 0 96 32" fill="none" xmlns="http://www.w3.org/2000/svg">
<g clip-path="url(#clip0)">
<path fill-rule="evenodd" clip-rule="evenodd" d="M0 15.9998V28L6.43023 27.9962C13.4451 27.9921 14.7712 27.8253 16.6873 26.7058C17.2989 26.3484 18.0847 25.6258 18.4339 25.0997L19.0688 24.1432L20.0842 25.3006C20.6744 25.9734 21.6895 26.7539 22.5087 27.1652C23.8003 27.8135 24.1291 27.873 26.4421 27.8763C28.7264 27.8799 29.0969 27.8162 30.3421 27.2064C31.0991 26.8359 32.0915 26.0977 32.5478 25.5664L33.3776 24.5998L33.7473 25.3125C34.7002 27.1501 37.072 28.128 40.1453 27.9507C41.5641 27.8687 42.2561 27.6959 43.1407 27.2031C43.7731 26.8506 44.3314 26.5619 44.3809 26.5619C44.4304 26.5619 44.4708 26.8855 44.4708 27.281V28H46.6441H48.8173L48.7474 20.5872C48.6806 13.4989 48.6554 13.1449 48.1746 12.4983C46.9263 10.8199 45.1833 10.1948 41.7064 10.1785C37.7014 10.16 35.1992 11.3165 34.136 13.6779L33.7322 14.5748L32.9444 13.3626C30.3711 9.4034 24.2335 8.91422 20.5842 12.3775C19.6457 13.2684 18.2696 15.7638 18.2693 16.5756C18.2691 17.0674 18.2588 17.065 17.0141 16.2927L16.1196 15.7376L17.116 14.9781C19.003 13.5399 19.6972 11.1108 18.9688 8.49504C18.5893 7.13179 16.8152 5.35822 15.1785 4.70559C13.9013 4.19629 13.4182 4.15986 6.911 4.08221L0 4V15.9998ZM74.7405 4.73339C74.2203 5.25204 74.0378 5.66141 74.0378 6.30971C74.0378 7.52749 75.0998 8.58659 76.3215 8.58659C77.5425 8.58659 78.6052 7.52749 78.6052 6.30971C78.6052 5.66141 78.423 5.25204 77.9025 4.73339C76.9328 3.76656 75.7102 3.76656 74.7405 4.73339ZM79.5667 16.0164V28H81.8505H84.1343V24.933V21.8658L85.0718 20.9525L86.01 20.0388L87.1087 21.9224C87.7125 22.9583 88.7235 24.7469 89.355 25.8971L90.504 27.9885L93.3367 27.9942C95.9662 27.9996 96.153 27.9698 95.9325 27.5806C95.802 27.35 94.2368 24.8424 92.454 22.0082L89.2132 16.8553L92.379 13.6797L95.5455 10.504L92.784 10.497L90.0232 10.4903L87.0885 13.5528L84.153 16.6156L84.1433 10.3242L84.1343 4.03283H81.8505H79.5667V16.0164ZM50.24 7.98742V10.504H48.8899H47.5397L48.403 11.4567C48.8777 11.9806 49.3347 12.6816 49.4186 13.0145C49.5025 13.3474 49.7123 13.6197 49.8851 13.6197C50.1316 13.6197 50.2172 14.7428 50.282 18.8325C50.3578 23.6198 50.4067 24.1238 50.8813 25.0041C51.1654 25.5314 51.7053 26.2538 52.0808 26.6092C53.3359 27.7967 54.2226 28 58.1497 28H61.7478L61.8232 22.0568C61.8889 16.8632 61.9519 16.0325 62.3225 15.4692C63.6891 13.3923 66.792 13.4304 67.8475 15.5371C68.2131 16.2664 68.2679 17.1348 68.2682 22.188L68.2687 28H70.566H72.8633L72.7895 21.2099L72.7157 14.4195L71.9876 13.2408C71.5816 12.5836 70.7566 11.7246 70.123 11.2999C68.0537 9.91246 64.8163 9.99059 62.7577 11.4773L61.7783 12.1848V11.3443V10.504H58.413H55.0476V7.98742V5.47086H52.6438H50.24V7.98742ZM11.5208 8.36561C14.2689 8.95329 14.8828 12.0316 12.4973 13.2616C11.9812 13.5277 10.9651 13.6197 8.54558 13.6197H5.28841V11.0233C5.28841 9.59514 5.36053 8.35483 5.44875 8.26712C5.7062 8.01042 10.2006 8.08328 11.5208 8.36561ZM74.0378 19.252V28H76.3215H78.6052V19.252V10.504H76.3215H74.0378V19.252ZM43.0845 13.7724C43.7402 14.1065 44.4708 15.2056 44.4708 15.8582C44.4708 16.0478 44.2642 16.4576 44.0119 16.7687C43.5816 17.2994 43.352 17.3423 40.3376 17.4583C37.5297 17.5664 36.9665 17.6589 35.8932 18.1886L34.6641 18.795L34.5107 17.6426C34.4264 17.0087 34.2956 16.3294 34.2202 16.1333C34.1052 15.8348 34.4185 15.7767 36.1473 15.7767C38.1271 15.7767 38.2177 15.753 38.3569 15.2003C38.7935 13.4656 41.1093 12.7662 43.0845 13.7724ZM27.9981 13.961C28.8514 14.3167 29.8075 15.7773 29.8075 16.7259C29.8075 17.1963 29.6709 17.2148 26.1716 17.2148H22.5359L22.6842 16.4756C23.144 14.1829 25.6661 12.9896 27.9981 13.961ZM57.2111 18.7727C57.2111 23.708 57.1913 23.9255 56.7459 23.9255C56.4902 23.9255 56.0034 23.8204 55.6642 23.6919L55.0476 23.4582V18.539V13.6197H56.1293H57.2111V18.7727ZM12.7402 18.3537C13.8179 18.8903 14.533 20.2699 14.32 21.4011C14.2268 21.8972 13.8494 22.49 13.347 22.9298C12.3746 23.7808 11.1148 23.9927 7.69222 23.8806L5.40861 23.8058L5.34106 20.8698L5.27351 17.9338L8.58623 17.9343C11.2586 17.9345 12.0616 18.0155 12.7402 18.3537ZM33.3242 20.6301C33.2447 20.9266 33.1778 21.4121 33.1762 21.7086C33.173 22.2057 33.0634 22.2479 31.7757 22.2479C30.519 22.2479 30.3279 22.3164 29.8728 22.93C28.8166 24.3543 26.2197 24.8574 24.5152 23.9678C23.5791 23.4791 22.5959 21.8357 22.5959 20.759V20.0908H28.0327H33.4692L33.3242 20.6301ZM44.2304 21.4965C44.2304 23.5759 42.829 24.567 40.1963 24.3493C39.1196 24.2604 38.7518 24.113 38.3004 23.5896C37.6499 22.8356 37.5871 22.0928 38.1115 21.3464C38.6148 20.6298 39.6328 20.3777 42.127 20.3521L44.2304 20.3305V21.4965Z" fill="black"/>
</g>
<defs>
<clipPath id="clip0">
<rect width="96" height="32" fill="white"/>
</clipPath>
</defs>
</svg>
