<svg width="80" height="32" viewBox="0 0 80 32" fill="none" xmlns="http://www.w3.org/2000/svg">
<g clip-path="url(#clip0)">
<path fill-rule="evenodd" clip-rule="evenodd" d="M0 15.9999V26L5.35852 25.9968C11.2042 25.9934 12.3094 25.8544 13.9061 24.9215C14.4157 24.6237 15.0706 24.0215 15.3616 23.5831L15.8907 22.786L16.7368 23.7505C17.2286 24.3111 18.0746 24.9616 18.7573 25.3044C19.8336 25.8446 20.1076 25.8941 22.0351 25.8969C23.9387 25.8999 24.2474 25.8468 25.2851 25.3387C25.9159 25.0299 26.7429 24.4147 27.1232 23.972L27.8147 23.1665L28.1227 23.7604C28.9168 25.2918 30.8934 26.1066 33.4544 25.9589C34.6367 25.8906 35.2134 25.7466 35.9506 25.3359C36.4776 25.0421 36.9428 24.8016 36.9841 24.8016C37.0253 24.8016 37.059 25.0712 37.059 25.4008V26H38.8701H40.6811L40.6229 19.8227C40.5672 13.9158 40.5461 13.6208 40.1455 13.0819C39.1053 11.6832 37.6528 11.1623 34.7553 11.1487C31.4178 11.1334 29.3327 12.0971 28.4467 14.0649L28.1101 14.8123L27.4537 13.8021C25.3092 10.5028 20.1946 10.0952 17.1535 12.9813C16.3714 13.7236 15.2246 15.8032 15.2244 16.4796C15.2243 16.8895 15.2156 16.8875 14.1784 16.2439L13.433 15.7814L14.2633 15.1484C15.8358 13.9499 16.4143 11.9257 15.8074 9.74587C15.4911 8.60983 14.0127 7.13185 12.6488 6.58799C11.5844 6.16358 11.1818 6.13322 5.75917 6.06851L0 6V15.9999ZM62.2837 6.61116C61.8502 7.04337 61.6982 7.38451 61.6982 7.92476C61.6982 8.93957 62.5831 9.82216 63.6013 9.82216C64.6188 9.82216 65.5044 8.93957 65.5044 7.92476C65.5044 7.38451 65.3525 7.04337 64.9188 6.61116C64.1106 5.80547 63.0919 5.80547 62.2837 6.61116ZM66.3056 16.0137V26H68.2088H70.1119V23.4441V20.8882L70.8931 20.1271L71.675 19.3657L72.5906 20.9353C73.0937 21.7986 73.9362 23.2891 74.4625 24.2476L75.42 25.9904L77.7806 25.9952C79.9719 25.9996 80.1275 25.9748 79.9438 25.6505C79.835 25.4583 78.5306 23.3686 77.045 21.0068L74.3444 16.7127L76.9825 14.0664L79.6212 11.42L77.32 11.4142L75.0194 11.4086L72.5737 13.9607L70.1275 16.513L70.1194 11.2702L70.1119 6.02736H68.2088H66.3056V16.0137ZM41.8666 9.32285V11.42H40.7416H39.6164L40.3358 12.2139C40.7314 12.6505 41.1123 13.2347 41.1821 13.5121C41.2521 13.7895 41.4269 14.0164 41.5709 14.0164C41.7763 14.0164 41.8476 14.9523 41.9017 18.3604C41.9648 22.3498 42.0056 22.7698 42.4011 23.5034C42.6379 23.9428 43.0878 24.5448 43.4007 24.841C44.4466 25.8306 45.1855 26 48.4581 26H51.4565L51.5194 21.0474C51.5741 16.7193 51.6266 16.0271 51.9354 15.5577C53.0743 13.8269 55.66 13.8586 56.5396 15.6143C56.8443 16.222 56.8899 16.9456 56.8901 21.1566L56.8906 26H58.805H60.7194L60.6579 20.3416L60.5964 14.6829L59.9897 13.7006C59.6513 13.153 58.9638 12.4372 58.4358 12.0833C56.7114 10.9271 54.0136 10.9922 52.2981 12.2311L51.4819 12.8206V12.1202V11.42H48.6775H45.873V9.32285V7.22572H43.8698H41.8666V9.32285ZM9.60069 9.63801C11.8908 10.1277 12.4023 12.693 10.4144 13.718C9.98431 13.9397 9.13756 14.0164 7.12131 14.0164H4.40701V11.8528C4.40701 10.6626 4.46711 9.62902 4.54062 9.55593C4.75517 9.34202 8.5005 9.40274 9.60069 9.63801ZM61.6982 18.71V26H63.6013H65.5044V18.71V11.42H63.6013H61.6982V18.71ZM35.9037 14.1436C36.4502 14.4221 37.059 15.338 37.059 15.8819C37.059 16.0399 36.8869 16.3814 36.6766 16.6406C36.318 17.0828 36.1267 17.1186 33.6147 17.2153C31.2748 17.3053 30.8054 17.3824 29.911 17.8238L28.8867 18.3291L28.7589 17.3688C28.6887 16.8406 28.5797 16.2745 28.5168 16.1111C28.421 15.8623 28.6821 15.8139 30.1227 15.8139C31.7726 15.8139 31.8481 15.7942 31.9641 15.3336C32.3279 13.888 34.2577 13.3052 35.9037 14.1436ZM23.3317 14.3008C24.0429 14.5972 24.8396 15.8144 24.8396 16.6049C24.8396 16.9969 24.7258 17.0123 21.8097 17.0123H18.7799L18.9035 16.3964C19.2867 14.4857 21.3884 13.4913 23.3317 14.3008ZM47.6759 18.3106C47.6759 22.4233 47.6594 22.6046 47.2883 22.6046C47.0751 22.6046 46.6695 22.517 46.3868 22.4099L45.873 22.2152V18.1158V14.0164H46.7744H47.6759V18.3106ZM10.6169 17.9614C11.5149 18.4086 12.1109 19.5582 11.9334 20.5009C11.8557 20.9144 11.5412 21.4083 11.1225 21.7748C10.3122 22.484 9.26231 22.6606 6.41019 22.5671L4.50718 22.5048L4.45088 20.0581L4.39459 17.6115L7.15519 17.6119C9.38213 17.6121 10.0514 17.6796 10.6169 17.9614ZM27.7702 19.8584C27.7039 20.1055 27.6482 20.5101 27.6468 20.7572C27.6442 21.1714 27.5529 21.2066 26.4797 21.2066C25.4325 21.2066 25.2732 21.2637 24.894 21.775C24.0138 22.9619 21.8498 23.3812 20.4293 22.6398C19.6493 22.2326 18.8299 20.8631 18.8299 19.9659V19.409H23.3606H27.891L27.7702 19.8584ZM36.8587 20.5804C36.8587 22.3132 35.6908 23.1391 33.4969 22.9578C32.5997 22.8837 32.2932 22.7608 31.917 22.3246C31.3749 21.6963 31.3226 21.0774 31.7596 20.4554C32.179 19.8582 33.0274 19.6481 35.1059 19.6267L36.8587 19.6088V20.5804Z" fill="black"/>
</g>
<defs>
<clipPath id="clip0">
<rect width="80" height="32" fill="white"/>
</clipPath>
</defs>
</svg>
