<svg width="50" height="20" viewBox="0 0 50 20" fill="none" xmlns="http://www.w3.org/2000/svg">
<path fill-rule="evenodd" clip-rule="evenodd" d="M0 9.99992V16L3.21511 15.9981C6.72255 15.9961 7.38562 15.9126 8.34367 15.3529C8.64945 15.1742 9.04234 14.8129 9.21698 14.5499L9.53441 14.0716L10.0421 14.6503C10.3372 14.9867 10.8447 15.377 11.2544 15.5826C11.9001 15.9068 12.0646 15.9365 13.221 15.9382C14.3632 15.94 14.5484 15.9081 15.171 15.6032C15.5495 15.418 16.0458 15.0488 16.2739 14.7832L16.6888 14.2999L16.8736 14.6563C17.3501 15.575 18.536 16.064 20.0727 15.9753C20.782 15.9343 21.1281 15.8479 21.5704 15.6016C21.8866 15.4253 22.1657 15.281 22.1904 15.281C22.2152 15.281 22.2354 15.4427 22.2354 15.6405V16H23.322H24.4087L24.3737 12.2936C24.3403 8.74945 24.3277 8.57245 24.0873 8.24912C23.4632 7.40993 22.5916 7.09739 20.8532 7.08925C18.8507 7.08002 17.5996 7.65823 17.068 8.83896L16.8661 9.28739L16.4722 8.68128C15.1855 6.7017 12.1167 6.45711 10.2921 8.18875C9.82286 8.63417 9.13478 9.88191 9.13466 10.2878C9.13455 10.5337 9.12937 10.5325 8.50702 10.1464L8.0598 9.86882L8.55799 9.48906C9.50149 8.76996 9.84859 7.55541 9.48442 6.24752C9.29464 5.56589 8.40761 4.67911 7.58925 4.3528C6.95066 4.09815 6.70909 4.07993 3.4555 4.0411L0 4V9.99992ZM37.3703 4.3667C37.1102 4.62602 37.0189 4.8307 37.0189 5.15486C37.0189 5.76374 37.5499 6.2933 38.1607 6.2933C38.7712 6.2933 39.3026 5.76374 39.3026 5.15486C39.3026 4.8307 39.2115 4.62602 38.9512 4.3667C38.4664 3.88328 37.8551 3.88328 37.3703 4.3667ZM39.7834 10.0082V16H40.9253H42.0671V14.4665V12.9329L42.5359 12.4762L43.005 12.0194L43.5544 12.9612C43.8562 13.4791 44.3617 14.3735 44.6775 14.9486L45.252 15.9943L46.6684 15.9971C47.9831 15.9998 48.0765 15.9849 47.9662 15.7903C47.901 15.675 47.1184 14.4212 46.227 13.0041L44.6066 10.4277L46.1895 8.83982L47.7727 7.25198L46.392 7.24851L45.0116 7.24515L43.5442 8.77641L42.0765 10.3078L42.0716 7.16211L42.0671 4.01642H40.9253H39.7834V10.0082ZM25.12 5.99371V7.25198H24.445H23.7699L24.2015 7.72833C24.4389 7.9903 24.6673 8.34081 24.7093 8.50727C24.7512 8.6737 24.8562 8.80986 24.9426 8.80986C25.0658 8.80986 25.1086 9.37139 25.141 11.4163C25.1789 13.8099 25.2034 14.0619 25.4406 14.5021C25.5827 14.7657 25.8527 15.1269 26.0404 15.3046C26.6679 15.8984 27.1113 16 29.0749 16H30.8739L30.9116 13.0284C30.9444 10.4316 30.9759 10.0162 31.1613 9.73461C31.8445 8.69612 33.396 8.71518 33.9237 9.76855C34.1065 10.1332 34.134 10.5674 34.1341 13.094L34.1343 16H35.283H36.4317L36.3948 12.6049L36.3579 9.20972L35.9938 8.62037C35.7908 8.2918 35.3783 7.86231 35.0615 7.64996C34.0269 6.95623 32.4081 6.9953 31.3788 7.73864L30.8892 8.09238V7.67213V7.25198H29.2065H27.5238V5.99371V4.73543H26.3219H25.12V5.99371ZM5.76041 6.18281C7.13445 6.47665 7.44139 8.0158 6.24863 8.6308C5.99059 8.76385 5.48254 8.80986 4.27279 8.80986H2.64421V7.51167C2.64421 6.79757 2.68026 6.17741 2.72437 6.13356C2.8531 6.00521 5.1003 6.04164 5.76041 6.18281ZM37.0189 11.626V16H38.1607H39.3026V11.626V7.25198H38.1607H37.0189V11.626ZM21.5422 8.88617C21.8701 9.05324 22.2354 9.6028 22.2354 9.92912C22.2354 10.0239 22.1321 10.2288 22.0059 10.3844C21.7908 10.6497 21.676 10.6711 20.1688 10.7292C18.7648 10.7832 18.4833 10.8294 17.9466 11.0943L17.332 11.3975L17.2554 10.8213C17.2132 10.5043 17.1478 10.1647 17.1101 10.0667C17.0526 9.91739 17.2092 9.88836 18.0737 9.88836C19.0635 9.88836 19.1088 9.87651 19.1784 9.60017C19.3967 8.7328 20.5546 8.38311 21.5422 8.88617ZM13.999 8.98049C14.4257 9.15835 14.9037 9.88862 14.9037 10.3629C14.9037 10.5982 14.8354 10.6074 13.0858 10.6074H11.2679L11.3421 10.2378C11.572 9.09145 12.8331 8.49479 13.999 8.98049ZM28.6055 11.3863C28.6055 13.854 28.5957 13.9628 28.3729 13.9628C28.2451 13.9628 28.0017 13.9102 27.8321 13.846L27.5238 13.7291V11.2695V8.80986H28.0647H28.6055V11.3863ZM6.37012 11.1769C6.90896 11.4452 7.26652 12.1349 7.16002 12.7006C7.11341 12.9486 6.92471 13.245 6.6735 13.4649C6.18731 13.8904 5.55739 13.9963 3.84611 13.9403L2.7043 13.9029L2.67053 12.4349L2.63676 10.9669L4.29311 10.9671C5.62928 10.9672 6.03082 11.0078 6.37012 11.1769ZM16.6621 12.3151C16.6223 12.4633 16.5889 12.7061 16.5881 12.8543C16.5865 13.1029 16.5317 13.1239 15.8878 13.1239C15.2595 13.1239 15.1639 13.1582 14.9364 13.465C14.4083 14.1772 13.1099 14.4287 12.2576 13.9839C11.7896 13.7395 11.298 12.9178 11.298 12.3795V12.0454H14.0163H16.7346L16.6621 12.3151ZM22.1152 12.7483C22.1152 13.7879 21.4145 14.2835 20.0982 14.1746C19.5598 14.1302 19.3759 14.0565 19.1502 13.7948C18.825 13.4178 18.7936 13.0464 19.0557 12.6732C19.3074 12.3149 19.8164 12.1889 21.0635 12.176L22.1152 12.1652V12.7483Z" fill="white"/>
</svg>
