<svg width="64" height="48" viewBox="0 0 64 48" fill="none" xmlns="http://www.w3.org/2000/svg">
<path d="M3.24866 14.6333C3.24717 14.6139 6.26009 11.3134 9.94399 7.29901C13.6279 3.28455 16.6561 0 16.6733 0C16.6893 0 16.7001 2.18025 16.7035 5.95033L6.16581 17.3206C3.93119 15.2909 3.25084 14.6625 3.24866 14.6333Z" fill="#FFCB05"/>
<path d="M16.7046 11.851V17.493L12.0292 22.6577L9.14923 20.0328L16.7046 11.851Z" fill="#7F4098"/>
<path d="M9.14925 20.0328L16.7046 11.8509L16.7035 5.95032L6.1658 17.3206L9.14925 20.0328Z" fill="#ED1D25"/>
<path fill-rule="evenodd" clip-rule="evenodd" d="M2.0474 15.8539C0.597216 17.372 0.44201 17.5675 0.264363 18.0996C0.203832 18.281 0.194285 18.3729 0.204229 18.6798C0.215202 19.0184 0.22455 19.0621 0.335667 19.293C0.492398 19.6188 0.587271 19.7295 1.16023 20.2548C2.03113 21.0534 2.42107 21.4519 2.50599 21.63C2.60982 21.8479 2.61012 22.0734 2.50682 22.2952C2.36508 22.5996 2.26745 22.6762 1.46629 23.1113C1.05286 23.3358 0.647073 23.5734 0.564498 23.6392C0.381181 23.7853 0.218915 24.0498 0.150561 24.3138C0.049289 24.7052 0.107201 25.3803 0.269468 25.6999C0.308584 25.7769 0.461635 25.9607 0.609548 26.1083C1.16275 26.6602 1.80744 26.8133 2.49128 26.5549C3.00191 26.362 3.22215 26.054 3.66622 24.9118C3.96649 24.1396 4.2364 23.8666 4.69787 23.8684C4.9444 23.8693 5.12364 23.951 5.36739 24.1738C5.47244 24.2698 5.84795 24.6158 6.20186 24.9427C6.9932 25.6736 7.22031 25.8632 7.47519 26.0055C7.77884 26.175 8.015 26.2313 8.35462 26.215C8.75151 26.1961 9.0125 26.0687 9.32198 25.7428C9.7156 25.3284 11.4697 23.3914 11.4697 23.3712C11.4697 23.3568 4.27611 16.7492 2.8166 15.4229L2.6252 15.249L2.0474 15.8539Z" fill="#232020"/>
<path fill-rule="evenodd" clip-rule="evenodd" d="M35.6854 29.2735C35.0088 29.3915 34.2984 29.6319 33.713 29.9412C32.0251 30.8328 31.0234 32.3235 30.745 34.3578C30.6284 35.2107 30.6726 35.7018 30.9349 36.4625C31.2737 37.4454 31.7966 38.2663 32.5427 38.9865C33.2727 39.6911 34.1625 40.1571 35.1988 40.3776C35.7975 40.5049 36.9066 40.4973 37.6844 40.3606C38.2466 40.2617 38.4793 40.1793 38.7914 39.9684C38.9528 39.8593 39.09 39.7759 39.0962 39.783C39.1023 39.7901 39.1479 39.919 39.1974 40.0694L39.2875 40.3428H40.3787H41.47V37.2434V34.1439H39.2158H36.9616V35.387V36.6301H37.5252C38.1761 36.6301 38.1516 36.6131 37.9905 36.9536C37.7991 37.3582 37.4182 37.6292 36.8884 37.7379C36.5499 37.8074 36.3633 37.804 36.072 37.7233C35.0256 37.4334 34.3322 36.5953 34.0639 35.2963C33.9933 34.9545 33.9977 34.6355 34.0785 34.2393C34.226 33.5151 34.5024 32.9334 34.895 32.5205C35.2634 32.1331 35.6084 31.9564 36.1344 31.8856C36.7468 31.8031 37.3894 32.0832 38.081 32.7339L38.3466 32.9837H39.9083H41.47V32.9045C41.47 32.8609 41.4321 32.6948 41.3859 32.5352C40.9045 30.8739 39.5756 29.7345 37.6763 29.3545C36.8609 29.1914 36.29 29.1682 35.6854 29.2735ZM20.619 34.8281V40.2765H22.259H23.899L23.9081 38.6059C23.917 36.9992 23.9198 36.9326 23.9824 36.8635C24.0469 36.7922 24.0567 36.7917 25.0432 36.803C26.1295 36.8155 26.1214 36.8142 26.4114 37.0251C26.4887 37.0812 26.6043 37.2061 26.6684 37.3026C26.8785 37.6191 26.9122 37.7736 27.0311 38.9662C27.0931 39.5879 27.1594 40.1008 27.1836 40.1463C27.2716 40.3115 27.2262 40.3075 29.0306 40.3086C29.965 40.3092 30.7295 40.3006 30.7295 40.2896C30.7295 40.2786 30.6926 40.2257 30.6475 40.1721C30.4541 39.9422 30.3729 39.4597 30.3331 38.3042C30.3019 37.4015 30.2595 37.1049 30.0943 36.6363C29.9109 36.1163 29.6934 35.7573 29.3666 35.4356L29.1723 35.2443L29.3384 35.1376C30.2697 34.54 30.702 32.8198 30.2522 31.5011C29.8799 30.4096 29.0002 29.7244 27.6632 29.4848C27.4126 29.4399 26.9853 29.4291 24.9947 29.4173C23.6911 29.4096 22.1733 29.3979 21.6217 29.3915L20.619 29.3797V34.8281ZM52.8402 34.8312V40.2765H54.4811H56.122V38.6572C56.122 36.949 56.1303 36.8448 56.2694 36.8099C56.3104 36.7996 56.775 36.796 57.302 36.8019C58.2433 36.8123 58.2631 36.8139 58.4259 36.8943C58.7742 37.0661 59.048 37.4514 59.1335 37.8898C59.153 37.9901 59.2075 38.4823 59.2545 38.9837C59.3608 40.1179 59.3559 40.0882 59.4578 40.2093L59.5423 40.3097H61.2465C62.1839 40.3097 62.9508 40.2971 62.9508 40.2817C62.9508 40.2663 62.9213 40.227 62.8852 40.1943C62.6923 40.0197 62.5923 39.4552 62.5535 38.3207C62.5205 37.3611 62.4774 37.0715 62.2926 36.5693C62.1154 36.0878 61.83 35.6467 61.5157 35.3688L61.3827 35.2512L61.5502 35.1437C61.9895 34.8618 62.3446 34.3072 62.5452 33.5897C62.6289 33.2904 62.6358 33.2194 62.6349 32.6687C62.6337 31.9498 62.5737 31.657 62.3227 31.1439C61.8959 30.2717 61.1269 29.7325 59.9785 29.5001C59.5893 29.4213 59.5718 29.421 54.5225 29.3946L52.8402 29.3859V34.8312ZM3.00831 29.4269L0.132599 29.437V34.8568V40.2765H3.6421C7.48584 40.2765 7.44427 40.2784 7.98842 40.0798C8.85544 39.7634 9.42336 39.0793 9.68706 38.0337C9.74998 37.7842 9.76095 37.6519 9.76075 37.1439C9.76052 36.5609 9.75807 36.54 9.65458 36.2323C9.46105 35.657 9.14109 35.1187 8.82478 34.8364L8.66464 34.6934L8.78616 34.4933C9.18876 33.83 9.39734 32.9573 9.31602 32.2759C9.2667 31.8623 9.17265 31.5333 8.99858 31.1654C8.47449 30.0576 7.54253 29.476 6.21552 29.4286C6.0332 29.4221 4.58997 29.4214 3.00831 29.4269ZM10.3426 34.84V40.2765H15.0167H19.6908V39.0169V37.7572H16.7239H13.757V37.0113V36.2655H16.2598H18.7626V34.8566V33.4478H16.2267H13.6907V32.8511V32.2544H16.6907H19.6908V30.829V29.4035H15.0167H10.3426V34.84ZM42.5639 34.84V40.2765H47.238H51.912V39.0169V37.7572H48.9451H45.9783V37.0113V36.2655H48.4811H50.9838V34.8566V33.4478H48.4479H45.912V32.8511V32.2544H48.912H51.912V30.829V29.4035H47.238H42.5639V34.84ZM6.15098 32.2387C6.48629 32.446 6.61716 32.8527 6.46351 33.2098C6.37653 33.4121 6.22112 33.5587 5.97386 33.6719L5.79548 33.7536L4.47236 33.7291L3.1492 33.7046V32.9122V32.1197L4.56899 32.129L5.98878 32.1384L6.15098 32.2387ZM26.072 32.2668C26.421 32.2764 26.5404 32.293 26.6999 32.3542C27.1118 32.512 27.3702 32.9135 27.3398 33.3483C27.3104 33.7685 27.1104 34.0569 26.7224 34.2389L26.5361 34.3262L25.2184 34.3363L23.9007 34.3463V33.2893V32.2323L24.7709 32.2436C25.2495 32.2499 25.835 32.2603 26.072 32.2668ZM58.6744 32.291C59.2329 32.3803 59.598 32.8158 59.5612 33.3488C59.5327 33.7629 59.3294 34.0619 58.9605 34.2324L58.7574 34.3262L57.4397 34.3359L56.122 34.3456V33.2906V32.2356L57.2905 32.2461C57.9332 32.2519 58.556 32.2721 58.6744 32.291ZM6.04255 36.277C6.32697 36.3962 6.53097 36.6998 6.52971 37.0019C6.52839 37.3199 6.34593 37.5791 6.01662 37.7306C5.8535 37.8057 5.82956 37.8071 4.50004 37.8166L3.1492 37.8263V37.0293V36.2323H4.54254C5.63663 36.2323 5.95878 36.2419 6.04255 36.277Z" fill="#00AEEF"/>
<path fill-rule="evenodd" clip-rule="evenodd" d="M24.0173 42.2363C23.4848 42.3775 23.3704 42.4417 23.3704 42.5993C23.3704 42.6709 23.4035 42.7108 23.5308 42.7925C23.619 42.8491 23.7085 42.9334 23.7297 42.9799C23.7542 43.0336 23.7681 43.2754 23.7681 43.6463C23.7681 44.1878 23.7641 44.2267 23.7101 44.2043C23.38 44.0671 22.9986 44.042 22.6411 44.1339C21.8032 44.3493 21.3148 44.9959 21.2588 45.964C21.2112 46.7868 21.5924 47.5086 22.2345 47.8115C22.4397 47.9083 22.4855 47.9171 22.7737 47.9145C23.1343 47.9114 23.4627 47.839 23.7456 47.7002L23.9385 47.6056L24.0419 47.7232L24.1452 47.841L24.5665 47.8295C24.9241 47.8198 24.9983 47.8085 25.0575 47.7549C25.1739 47.6495 25.1491 47.5131 24.9864 47.3628L24.8455 47.2328L24.8391 44.8071C24.8356 43.4731 24.8318 42.3547 24.8308 42.3219C24.8282 42.2406 24.6693 42.0992 24.5838 42.1022C24.5454 42.1035 24.2905 42.1638 24.0173 42.2363ZM46.6081 42.2312C46.0179 42.3853 46.0203 42.3843 45.9595 42.5019C45.8997 42.6174 45.9354 42.7056 46.0704 42.7759C46.12 42.8016 46.1979 42.8626 46.2435 42.9114C46.3248 42.9983 46.3265 43.0114 46.3367 43.615C46.3466 44.1981 46.344 44.2288 46.287 44.2051C45.9561 44.068 45.5432 44.0426 45.1827 44.1372C44.3406 44.3583 43.8308 45.0826 43.8168 46.0777C43.8062 46.8418 44.164 47.4895 44.7594 47.7837C44.9092 47.8578 45.0732 47.9114 45.1842 47.9227C45.5149 47.9563 46.2233 47.793 46.4129 47.6394C46.4842 47.5817 46.4879 47.583 46.6005 47.7076L46.7153 47.8346L47.0843 47.8346C47.5392 47.8345 47.6793 47.7826 47.6961 47.6079C47.7051 47.5143 47.6857 47.4778 47.5706 47.3716C47.4958 47.3025 47.4201 47.1958 47.4025 47.1344C47.3563 46.9732 47.3602 42.9245 47.4069 42.6924C47.4334 42.5603 47.4332 42.4745 47.4061 42.3737C47.3678 42.2315 47.2373 42.0974 47.1423 42.1028C47.1129 42.1044 46.8725 42.1623 46.6081 42.2312ZM58.3762 42.2296C57.8132 42.3745 57.7696 42.3945 57.7116 42.5345C57.6702 42.6345 57.6728 42.6441 57.7584 42.7098C57.8082 42.748 57.9042 42.8266 57.9717 42.8844L58.0944 42.9895L58.1053 43.4638C58.1113 43.7246 58.1071 43.9993 58.0958 44.0741L58.0754 44.2102L57.886 44.1454C57.6465 44.0633 57.2455 44.0598 56.9507 44.1372C56.3387 44.2978 55.9014 44.7152 55.7043 45.3266C55.5876 45.6888 55.5574 46.2882 55.6399 46.6081C55.7247 46.9368 55.9091 47.2827 56.1067 47.4835C56.305 47.685 56.6707 47.8847 56.9059 47.9199C57.2123 47.9659 57.9135 47.8179 58.15 47.6574L58.265 47.5793L58.3722 47.707L58.4794 47.8346L58.8504 47.8346C59.3074 47.8345 59.4474 47.7828 59.4641 47.6079C59.4731 47.5143 59.4537 47.4778 59.3387 47.3716C59.2638 47.3025 59.1882 47.1958 59.1706 47.1344C59.1227 46.9673 59.1285 42.9412 59.1771 42.6776C59.2101 42.4985 59.2076 42.4479 59.1597 42.3223C59.1069 42.1842 59.0001 42.095 58.8967 42.1028C58.8748 42.1044 58.6405 42.1615 58.3762 42.2296ZM42.2655 42.2946C41.6297 42.5194 41.6191 42.5254 41.6191 42.6616C41.6191 42.7609 41.6376 42.7857 41.7683 42.8622C41.8503 42.9101 41.9359 42.9857 41.9584 43.0301C41.9896 43.0916 41.9995 43.6032 41.9998 45.1744C42.0003 47.0988 41.9964 47.2413 41.9423 47.2882C41.9104 47.3159 41.8284 47.3845 41.76 47.4408C41.6696 47.5153 41.6357 47.5688 41.6357 47.6373C41.6357 47.8198 41.7023 47.8346 42.5215 47.8346C43.2158 47.8346 43.264 47.8306 43.3263 47.7683C43.4281 47.6665 43.4126 47.5199 43.2904 47.4295C43.2342 47.388 43.1733 47.354 43.1551 47.354C43.1369 47.354 43.1009 47.325 43.075 47.2896C43.0354 47.2354 43.028 46.8329 43.028 44.7312C43.028 41.9744 43.0406 42.1311 42.8184 42.1346C42.7605 42.1355 42.5117 42.2075 42.2655 42.2946ZM30.0544 42.3674C29.9208 42.4725 29.938 42.5932 30.1116 42.7694C30.3094 42.97 30.3491 43.1018 30.3442 43.5418C30.3378 44.1098 30.0366 45.4969 29.7655 46.207C29.6521 46.5039 29.5949 46.5947 29.542 46.562C29.4874 46.5282 29.22 45.6792 29.0711 45.0666C28.9269 44.4731 28.8239 43.9236 28.7584 43.3976C28.7084 42.9969 28.7265 42.9185 28.8897 42.8289C29.0797 42.7245 29.1268 42.5123 28.9847 42.4005C28.9024 42.3358 28.8557 42.3318 28.1709 42.3318C27.414 42.3318 27.2862 42.3524 27.2363 42.4825C27.1876 42.6093 27.2185 42.6933 27.3597 42.818C27.4994 42.9414 27.5053 42.9547 27.5619 43.2766C27.7388 44.2823 28.0316 45.5646 28.2157 46.1395C28.3502 46.5593 28.8283 47.6664 28.9174 47.7643C29.0718 47.9339 29.4033 47.9885 29.5783 47.8731C29.8219 47.7124 30.1165 47.1117 30.4342 46.1274C30.5637 45.7263 30.6794 45.372 30.6913 45.3401C30.7055 45.3018 30.8488 45.6308 31.1099 46.3014C31.3282 46.8621 31.5445 47.3953 31.5906 47.4863C31.7447 47.7911 32.0849 47.9733 32.3609 47.899C32.6054 47.8332 32.7162 47.6819 32.9427 47.1053C33.4827 45.7301 33.8827 44.2656 34.0137 43.1841C34.0508 42.8778 34.0583 42.8567 34.1476 42.8106C34.2425 42.7615 34.3428 42.6107 34.3428 42.5171C34.3428 42.4895 34.3102 42.4366 34.2703 42.3994C34.2027 42.3364 34.1558 42.3318 33.5815 42.3318C32.8905 42.3318 32.8179 42.351 32.8179 42.5342C32.8179 42.6459 32.9275 42.7655 33.1198 42.8639C33.3571 42.9852 33.3613 43.1029 33.1642 44.0887C32.9757 45.0307 32.6562 46.1793 32.4968 46.4876C32.455 46.5683 32.4404 46.5761 32.4028 46.5376C32.3475 46.4811 31.8798 45.1022 31.6958 44.4534C31.5532 43.9504 31.4485 43.4732 31.4107 43.1544C31.3913 42.9916 31.3971 42.9583 31.4532 42.9105C31.705 42.6959 31.724 42.6694 31.724 42.5352C31.724 42.3084 31.6882 42.2987 30.8592 42.2987C30.1836 42.2987 30.1367 42.3027 30.0544 42.3674ZM0.228101 42.3983C0.125272 42.4584 0 42.9313 0 43.2593C0 43.5142 0.0199228 43.5583 0.135051 43.5583C0.205725 43.5583 0.308091 43.491 0.537584 43.2937C0.724183 43.1332 0.90309 43.0092 0.992096 42.9788C1.14269 42.9272 1.64123 42.9085 1.66888 42.9534C1.6773 42.967 1.68906 43.9532 1.695 45.1447L1.70577 47.3112L1.62823 47.374C1.58557 47.4086 1.51589 47.4368 1.47336 47.4368C1.38591 47.4368 1.29283 47.5491 1.29283 47.6546C1.29283 47.6932 1.32419 47.7533 1.36254 47.788C1.42682 47.8463 1.50011 47.8519 2.29901 47.8598C3.20648 47.8689 3.3172 47.8545 3.34226 47.7244C3.36066 47.6289 3.25474 47.5034 3.09967 47.4369C3.02008 47.4028 2.939 47.345 2.91947 47.3086C2.89531 47.2634 2.884 46.5534 2.884 45.082V42.9217L3.15748 42.9341C3.51013 42.95 3.75706 43.0589 3.96497 43.2902C4.05587 43.3912 4.16897 43.4757 4.25997 43.5105C4.39737 43.563 4.41332 43.5631 4.49109 43.5121C4.59425 43.4445 4.60111 43.2876 4.52016 42.8466C4.4763 42.6076 4.44749 42.5311 4.37347 42.4571L4.28138 42.365L2.28158 42.366C1.08654 42.3666 0.26019 42.3796 0.228101 42.3983ZM54.0039 42.7211C53.7021 42.8418 53.5535 43.1926 53.686 43.4719C53.8201 43.7545 54.2499 43.8597 54.5786 43.6904C54.794 43.5795 54.8705 43.439 54.8539 43.185C54.8408 42.9841 54.78 42.8695 54.625 42.7538C54.5039 42.6634 54.1897 42.6468 54.0039 42.7211ZM16.1939 43.0743C16.1502 43.118 16.0909 43.241 16.0621 43.3477C15.9274 43.8471 15.9059 43.8974 15.768 44.0351C15.6304 44.1725 15.4432 44.2545 15.2672 44.2545C15.2114 44.2545 15.1393 44.2925 15.0771 44.3548C14.9962 44.4356 14.9811 44.4726 14.9988 44.5454C15.0383 44.707 15.127 44.7637 15.3641 44.7788L15.5802 44.7926V46.1902C15.5802 47.4287 15.5864 47.5966 15.6343 47.665C15.7377 47.8126 15.8599 47.8346 16.5747 47.8346C17.3817 47.8346 17.4698 47.8123 17.4698 47.6079C17.4698 47.5295 17.4449 47.4466 17.4075 47.4005C17.3524 47.3324 17.3083 47.3215 17.0236 47.3056C16.7562 47.2907 16.694 47.2768 16.6549 47.2233C16.6164 47.1706 16.6079 46.9445 16.6079 45.9719V44.7849H16.9515C17.2489 44.7849 17.3068 44.7756 17.3824 44.7162C17.5021 44.622 17.505 44.4193 17.3884 44.3027C17.3138 44.2281 17.2815 44.2213 16.9989 44.2208C16.8294 44.2205 16.6732 44.2092 16.6518 44.1955C16.6253 44.1787 16.6093 44.0015 16.602 43.6461C16.5917 43.1409 16.5884 43.119 16.513 43.0581C16.4072 42.9725 16.2897 42.9785 16.1939 43.0743ZM40.517 44.2051C40.3803 44.2735 40.2269 44.3838 40.145 44.4727C40.0683 44.5559 39.9877 44.6171 39.9659 44.6087C39.9441 44.6004 39.8902 44.5236 39.8463 44.4381C39.8023 44.3525 39.7212 44.2446 39.6662 44.1983C39.5757 44.1222 39.545 44.1155 39.3492 44.1295C39.1003 44.1473 38.9527 44.2121 38.7766 44.3809C38.6823 44.4712 38.6522 44.5263 38.6522 44.6089C38.6522 44.7044 38.6751 44.7331 38.837 44.8405C38.9386 44.908 39.043 45.0044 39.069 45.0547C39.1072 45.1285 39.1163 45.3545 39.1163 46.2194V47.2927L39.0396 47.3648C38.9974 47.4044 38.9452 47.4368 38.9236 47.4368C38.7798 47.4368 38.6917 47.7339 38.8158 47.8003C38.8551 47.8213 39.1995 47.8346 39.7045 47.8346C40.6275 47.8346 40.654 47.8289 40.6355 47.6343C40.6258 47.5322 40.6051 47.5102 40.4452 47.4323C40.1701 47.2982 40.1703 47.2991 40.1838 46.3319C40.1944 45.5722 40.202 45.4802 40.2679 45.3035C40.4067 44.9315 40.5748 44.8031 40.7581 44.9293C40.9369 45.0524 41.2931 45.0059 41.4143 44.8436C41.5012 44.7272 41.5023 44.499 41.4167 44.3499C41.3331 44.2043 41.1062 44.0887 40.9038 44.0887C40.7937 44.0887 40.683 44.122 40.517 44.2051ZM6.50359 44.2393C6.35355 44.3143 6.21595 44.4156 6.12207 44.52C5.98596 44.6714 5.97164 44.6792 5.92559 44.6264C5.89825 44.595 5.85025 44.5141 5.81885 44.4465C5.78746 44.3789 5.72385 44.2857 5.6775 44.2393C5.6055 44.1673 5.56367 44.1551 5.39056 44.1554C5.24822 44.1556 5.13853 44.1787 5.02214 44.233C4.85712 44.31 4.60777 44.548 4.60777 44.6284C4.60777 44.7021 4.69718 44.802 4.84854 44.8977C5.10995 45.063 5.10501 45.0369 5.10501 46.2511V47.3258L5.02831 47.3979C4.98611 47.4376 4.9339 47.47 4.91228 47.47C4.84048 47.47 4.74037 47.6013 4.74037 47.6954C4.74037 47.8649 4.75582 47.8678 5.66885 47.8678C6.61825 47.8678 6.64278 47.8626 6.62422 47.6674C6.61451 47.5653 6.59376 47.5433 6.43388 47.4654C6.1597 47.3318 6.15999 47.3331 6.17236 46.3659C6.18207 45.6066 6.18953 45.5135 6.25454 45.3408C6.39864 44.9581 6.53982 44.854 6.75685 44.9706C6.91332 45.0547 7.20059 45.0491 7.32122 44.9596C7.44125 44.8706 7.50185 44.6801 7.45975 44.5244C7.41238 44.3492 7.33531 44.2555 7.18073 44.1853C6.96649 44.088 6.77551 44.1033 6.50359 44.2393ZM18.9687 44.1699C18.3437 44.3212 17.7928 44.8249 17.607 45.4147C17.4637 45.8696 17.5126 46.5464 17.719 46.964C17.9519 47.4353 18.3928 47.7738 18.9188 47.8852C19.1812 47.9408 19.6429 47.9472 19.8565 47.8982C20.132 47.8351 20.4739 47.6443 20.701 47.4271C20.8981 47.2385 20.9173 47.2081 20.9173 47.085C20.9173 46.9962 20.8965 46.9311 20.8567 46.895C20.7474 46.7961 20.6306 46.8315 20.4076 47.0309C20.3369 47.0942 20.1803 47.1925 20.0595 47.2495C19.8647 47.3415 19.8064 47.3532 19.5416 47.3535C19.2985 47.3539 19.2187 47.3407 19.1107 47.2824C18.8632 47.1489 18.6942 46.8966 18.6446 46.587L18.6232 46.4526L18.9829 46.4326C19.64 46.3959 20.2027 46.1991 20.557 45.8819C20.7658 45.695 20.8421 45.5423 20.8726 45.2511C20.9229 44.77 20.5518 44.321 19.9775 44.1681C19.7663 44.1119 19.2042 44.1129 18.9687 44.1699ZM54.1828 44.2231C54.0369 44.2755 53.8093 44.3494 53.677 44.3873C53.3849 44.4711 53.2928 44.5697 53.3731 44.7128C53.4051 44.7698 53.4716 44.8133 53.57 44.8416C53.6518 44.8652 53.7373 44.9096 53.7601 44.9404C53.7914 44.9827 53.8015 45.2786 53.8015 46.1472V47.298L53.6358 47.4171C53.4917 47.5206 53.47 47.5512 53.47 47.6511C53.47 47.7308 53.4897 47.7765 53.5342 47.8003C53.5726 47.8209 53.8815 47.8346 54.3058 47.8346C55.0947 47.8346 55.1607 47.8191 55.1607 47.6338C55.1607 47.5222 55.0589 47.4037 54.9629 47.4037C54.9271 47.4037 54.8824 47.3748 54.8635 47.3396C54.8413 47.2982 54.8292 46.7629 54.8292 45.8296C54.8292 44.2559 54.8255 44.223 54.6431 44.1536C54.5256 44.1089 54.4818 44.1155 54.1828 44.2231ZM36.0118 44.1913C35.6025 44.2597 35.1628 44.5063 34.9339 44.7959C34.63 45.1804 34.5084 45.5796 34.509 46.1907C34.5096 46.8103 34.6275 47.1316 34.9852 47.4879C35.3264 47.8278 35.7097 47.9676 36.2973 47.9667C36.9108 47.9656 37.3073 47.8349 37.6533 47.5197C37.9937 47.2095 38.1962 46.7919 38.2844 46.2186C38.3883 45.5428 37.9248 44.6553 37.3097 44.3521C36.9547 44.1771 36.4621 44.1161 36.0118 44.1913ZM61.2204 44.2395C60.5925 44.3918 60.0627 44.8589 59.8635 45.436C59.7953 45.6335 59.7851 45.7242 59.7858 46.1274C59.7863 46.4894 59.8 46.6316 59.8478 46.7738C60.0499 47.3753 60.4992 47.7941 61.1097 47.9499C61.3747 48.0176 61.9247 48.016 62.1575 47.9469C62.4521 47.8594 62.7024 47.7151 62.9327 47.4996C63.135 47.3104 63.1497 47.287 63.1497 47.1536C63.1497 46.8535 62.9745 46.8368 62.6431 47.1053C62.3503 47.3425 62.1433 47.4171 61.774 47.4186C61.4527 47.4199 61.2915 47.3644 61.1378 47.1996C61.053 47.1087 60.9113 46.8033 60.8842 46.653C60.8622 46.5309 60.9057 46.5098 61.1819 46.5091C61.3792 46.5086 61.8323 46.4296 62.0723 46.3539C62.3488 46.2667 62.675 46.0793 62.8496 45.9074C63.0384 45.7215 63.1167 45.5191 63.1162 45.2181C63.1154 44.7775 62.7485 44.3778 62.2146 44.2357C61.9945 44.1771 61.4695 44.1791 61.2204 44.2395ZM12.8756 44.2684C12.6036 44.3304 12.2911 44.4931 12.1351 44.6537C11.7774 45.0224 11.702 45.6912 11.9777 46.0504C12.2093 46.3521 12.4427 46.4664 13.0132 46.5574C13.5353 46.6408 13.7636 46.7924 13.7636 47.0556C13.7636 47.3149 13.5206 47.4874 13.1603 47.4838C12.8238 47.4804 12.744 47.4269 12.2783 46.8921C12.1387 46.7319 12.004 46.7301 11.8476 46.8865C11.7527 46.9814 11.7349 47.0229 11.7349 47.1488C11.7349 47.2725 11.7572 47.3265 11.8643 47.4619C12.0576 47.7066 12.2146 47.8205 12.4766 47.9064C12.6861 47.975 12.7747 47.9837 13.2598 47.9829C13.7516 47.9821 13.826 47.9744 13.9974 47.9059C14.2901 47.7891 14.4966 47.6078 14.6153 47.3637C14.9289 46.7181 14.7422 46.1003 14.1518 45.8308C14.0499 45.7843 13.774 45.7075 13.5386 45.6601C12.9635 45.5444 12.8288 45.4529 12.8288 45.1778C12.8288 44.9062 13.0345 44.718 13.33 44.7194C13.6143 44.7206 13.7622 44.7684 13.873 44.8947C14.2661 45.3428 14.2723 45.3484 14.3748 45.3484C14.5568 45.3484 14.592 45.2682 14.5657 44.9132C14.5438 44.6177 14.5373 44.5975 14.4329 44.4983C14.2545 44.3287 13.9728 44.2499 13.4918 44.2352C13.2143 44.2266 13.0108 44.2376 12.8756 44.2684ZM8.11405 44.3179C7.67091 44.4061 7.57932 44.5431 7.81498 44.7653L7.93929 44.8825L7.95722 45.9856C7.97416 47.0279 7.97924 47.0991 8.04948 47.276C8.22988 47.7302 8.65466 47.9989 9.1942 48C9.53434 48.0007 9.94722 47.8594 10.1916 47.6588L10.2893 47.5786L10.3408 47.6818C10.4296 47.8595 10.5654 47.9008 11.0599 47.9009C11.4384 47.9009 11.5057 47.8927 11.5732 47.838C11.6496 47.7762 11.6499 47.773 11.5945 47.6566C11.5634 47.5915 11.486 47.5042 11.4226 47.4627C11.3591 47.4211 11.2915 47.3528 11.2724 47.311C11.2513 47.2646 11.2377 46.9257 11.2377 46.4461C11.2377 46.0123 11.2277 45.3829 11.2155 45.0473C11.1935 44.4384 11.1933 44.4371 11.1021 44.3458C11.0355 44.2793 10.9776 44.2545 10.8891 44.2545C10.7202 44.2545 10.1213 44.3799 10.0064 44.4393C9.88251 44.5033 9.88244 44.6163 10.0063 44.7588C10.1772 44.9556 10.1769 44.9534 10.1769 45.9701V46.9277L10.0857 47.1054C9.96558 47.3397 9.83567 47.4118 9.56219 47.3963C9.33362 47.3832 9.18392 47.2979 9.09074 47.1276C9.03975 47.0344 9.03133 46.8728 9.01665 45.7018L9.00007 44.3811L8.92181 44.3178C8.82173 44.2368 8.52096 44.2368 8.11405 44.3179ZM47.7562 44.3232C47.6886 44.3764 47.6689 44.421 47.6689 44.5212C47.6689 44.6311 47.6837 44.6582 47.7673 44.7015C47.896 44.768 47.9212 44.8223 47.9496 45.0953C48.0189 45.7595 48.2954 46.6972 48.6303 47.4037C48.8705 47.9101 48.8997 47.9336 49.2893 47.9339C49.6182 47.9341 49.7338 47.8792 49.8936 47.6469C49.9818 47.5187 50.1853 47.1086 50.317 46.7937C50.3405 46.7373 50.3693 46.7098 50.3864 46.7274C50.4097 46.7512 50.6833 47.3584 50.8525 47.7618C50.8701 47.8037 50.9362 47.8597 50.9994 47.8861C51.1509 47.9494 51.5874 47.9493 51.7097 47.8861C51.9913 47.7405 52.4642 46.6701 52.8225 45.3675C52.9394 44.9424 52.9857 44.8213 53.0514 44.7684C53.1444 44.6935 53.1886 44.5584 53.1589 44.4401C53.1292 44.3217 52.9836 44.2876 52.5082 44.2876C52.132 44.2876 52.0773 44.295 51.9994 44.3563C51.8819 44.4487 51.8821 44.5946 51.9997 44.7036C52.048 44.7483 52.0998 44.7849 52.1149 44.7849C52.1691 44.7849 52.2435 44.9833 52.2435 45.1276C52.2435 45.4851 52.0209 46.2714 51.7592 46.8382C51.6595 47.0541 51.6393 47.0788 51.597 47.0366C51.4654 46.9049 51.1462 45.8707 51.0225 45.175L50.9593 44.8193L51.071 44.7043C51.1959 44.5757 51.2191 44.4282 51.1286 44.3377C51.0818 44.2908 50.9952 44.2849 50.4856 44.2939C49.9616 44.3031 49.889 44.3112 49.827 44.3674C49.75 44.4372 49.7342 44.592 49.7987 44.645C49.8216 44.6637 49.8775 44.6842 49.9231 44.6905C50.0002 44.7012 50.0092 44.7225 50.0531 45.0001C50.091 45.2402 50.0928 45.3565 50.0623 45.598C50.0136 45.9836 49.887 46.418 49.7197 46.7737L49.5871 47.0556L49.5263 46.9814C49.3875 46.8119 49.144 46.0027 49.0265 45.3203C48.9363 44.7963 48.9387 44.7563 49.0635 44.7128C49.2511 44.6474 49.2687 44.3944 49.0921 44.303C49.0201 44.2659 48.8631 44.2545 48.4209 44.2545C47.8871 44.2545 47.837 44.2597 47.7562 44.3232ZM23.4794 44.6876C23.5877 44.7594 23.6581 44.8409 23.7185 44.9644C23.8021 45.1352 23.8043 45.1576 23.811 45.8821C23.8148 46.2905 23.8058 46.6815 23.7911 46.751C23.7588 46.9035 23.5728 47.1184 23.3941 47.2096C23.2746 47.2705 23.2456 47.2726 23.0349 47.2349C22.8255 47.1975 22.7929 47.1802 22.6561 47.0339C22.3759 46.7344 22.2672 46.3054 22.3355 45.7683C22.4106 45.1771 22.6028 44.8128 22.9167 44.6667C23.151 44.5576 23.2908 44.5628 23.4794 44.6876ZM46.0698 44.7084C46.2335 44.841 46.3087 44.9488 46.3443 45.1023C46.3863 45.2832 46.3836 46.6296 46.3409 46.783C46.297 46.9413 46.1388 47.1229 45.9697 47.2091C45.8495 47.2704 45.8204 47.2726 45.6117 47.2353C45.3323 47.1854 45.2008 47.0858 45.0601 46.8178C44.9104 46.5327 44.8719 46.323 44.8941 45.9146C44.9157 45.5182 44.998 45.2112 45.1449 44.9798C45.3836 44.6036 45.7921 44.4837 46.0698 44.7084ZM57.7322 44.6391C57.8856 44.7119 58.0661 44.9198 58.1086 45.0726C58.1286 45.1447 58.1438 45.5244 58.1439 45.9544C58.1442 46.8927 58.1162 46.9818 57.7548 47.1944C57.6188 47.2744 57.6064 47.2758 57.3833 47.2359C57.1001 47.1853 56.9697 47.0871 56.8277 46.8178C56.6488 46.4785 56.6027 46.0039 56.7025 45.5307C56.8468 44.8462 57.3148 44.441 57.7322 44.6391ZM19.6836 44.6709C19.8679 44.8 19.907 45.0895 19.7776 45.3673C19.6368 45.6696 19.3343 45.846 18.8388 45.915C18.7021 45.934 18.5852 45.9445 18.5791 45.9384C18.5564 45.9157 18.6319 45.4261 18.6809 45.2786C18.817 44.8686 19.0984 44.6191 19.4247 44.6191C19.5387 44.6191 19.6381 44.639 19.6836 44.6709ZM36.6229 44.6705C37.0192 44.8358 37.2257 45.3121 37.2257 46.0611C37.2257 46.6803 37.0907 47.1105 36.8176 47.3623C36.6584 47.509 36.4061 47.5907 36.2203 47.5559C35.9674 47.5084 35.7401 47.1923 35.6206 46.7219C35.4927 46.2184 35.4965 45.8359 35.634 45.3816C35.8088 44.8038 36.225 44.5046 36.6229 44.6705ZM61.9087 44.7335C62.0408 44.8201 62.0984 44.9392 62.0984 45.1264C62.0984 45.5618 61.7194 45.892 61.1169 45.9816C60.9755 46.0026 60.8506 46.0107 60.8394 45.9995C60.7935 45.9535 60.8321 45.4455 60.8978 45.2329C60.9761 44.9792 61.1646 44.7594 61.3599 44.6939C61.5079 44.6444 61.8054 44.6658 61.9087 44.7335Z" fill="#231F20"/>
</svg>
