<svg width="64" height="48" viewBox="0 0 64 48" fill="none" xmlns="http://www.w3.org/2000/svg">
<g clip-path="url(#clip0_405_38)">
<path d="M3.24878 14.6333C3.24729 14.6139 6.26021 11.3134 9.94411 7.29901C13.628 3.28455 16.6562 0 16.6734 0C16.6894 0 16.7002 2.18025 16.7036 5.95033L6.16593 17.3206C3.93131 15.2909 3.25096 14.6625 3.24878 14.6333Z" fill="#FFCB05"/>
<path d="M16.7045 11.8511V17.4931L12.0291 22.6578L9.14917 20.0329L16.7045 11.8511Z" fill="#7F4098"/>
<path d="M9.14922 20.0327L16.7046 11.8508L16.7035 5.9502L6.16577 17.3205L9.14922 20.0327Z" fill="#ED1D25"/>
<path fill-rule="evenodd" clip-rule="evenodd" d="M2.04743 15.8539C0.597246 17.372 0.44204 17.5675 0.264393 18.0996C0.203862 18.281 0.194315 18.3729 0.204259 18.6798C0.215232 19.0184 0.22458 19.0621 0.335697 19.293C0.492428 19.6188 0.587301 19.7295 1.16026 20.2548C2.03116 21.0534 2.4211 21.4519 2.50602 21.63C2.60985 21.8479 2.61015 22.0734 2.50685 22.2952C2.36511 22.5996 2.26748 22.6762 1.46632 23.1113C1.05289 23.3358 0.647103 23.5734 0.564528 23.6392C0.381211 23.7853 0.218945 24.0498 0.150591 24.3138C0.0493194 24.7052 0.107231 25.3803 0.269498 25.6999C0.308614 25.7769 0.461665 25.9607 0.609578 26.1083C1.16278 26.6602 1.80747 26.8133 2.49131 26.5549C3.00194 26.362 3.22218 26.054 3.66625 24.9118C3.96652 24.1396 4.23643 23.8666 4.6979 23.8684C4.94443 23.8693 5.12367 23.951 5.36742 24.1738C5.47247 24.2698 5.84798 24.6158 6.20189 24.9427C6.99323 25.6736 7.22034 25.8632 7.47522 26.0055C7.77887 26.175 8.01503 26.2313 8.35465 26.215C8.75154 26.1961 9.01253 26.0687 9.32201 25.7428C9.71563 25.3284 11.4697 23.3914 11.4697 23.3712C11.4697 23.3568 4.27614 16.7492 2.81663 15.4229L2.62523 15.249L2.04743 15.8539Z" fill="white"/>
<path fill-rule="evenodd" clip-rule="evenodd" d="M35.6854 29.2734C35.0088 29.3914 34.2984 29.6318 33.713 29.9411C32.0251 30.8327 31.0234 32.3234 30.745 34.3577C30.6284 35.2106 30.6726 35.7017 30.9349 36.4624C31.2737 37.4453 31.7966 38.2662 32.5427 38.9864C33.2727 39.691 34.1625 40.157 35.1988 40.3775C35.7975 40.5048 36.9066 40.4972 37.6844 40.3605C38.2466 40.2616 38.4793 40.1792 38.7914 39.9683C38.9528 39.8592 39.09 39.7758 39.0962 39.7829C39.1023 39.79 39.1479 39.9189 39.1974 40.0693L39.2875 40.3427H40.3787H41.47V37.2433V34.1438H39.2158H36.9616V35.3869V36.63H37.5252C38.1761 36.63 38.1516 36.613 37.9905 36.9535C37.7991 37.3581 37.4182 37.6291 36.8884 37.7378C36.5499 37.8073 36.3633 37.8039 36.072 37.7232C35.0256 37.4333 34.3322 36.5952 34.0639 35.2962C33.9933 34.9544 33.9977 34.6354 34.0785 34.2392C34.226 33.515 34.5024 32.9333 34.895 32.5204C35.2634 32.133 35.6084 31.9563 36.1344 31.8855C36.7468 31.803 37.3894 32.0831 38.081 32.7338L38.3466 32.9836H39.9083H41.47V32.9044C41.47 32.8608 41.4321 32.6947 41.3859 32.5351C40.9045 30.8738 39.5756 29.7344 37.6763 29.3544C36.8609 29.1913 36.29 29.1681 35.6854 29.2734ZM20.619 34.828V40.2764H22.259H23.899L23.9081 38.6058C23.917 36.9991 23.9198 36.9325 23.9824 36.8634C24.0469 36.7921 24.0567 36.7916 25.0432 36.8029C26.1295 36.8154 26.1214 36.8141 26.4114 37.025C26.4887 37.0811 26.6043 37.206 26.6684 37.3025C26.8785 37.619 26.9122 37.7735 27.0311 38.9661C27.0931 39.5878 27.1594 40.1007 27.1836 40.1462C27.2716 40.3114 27.2262 40.3074 29.0306 40.3085C29.965 40.3091 30.7295 40.3005 30.7295 40.2895C30.7295 40.2785 30.6926 40.2256 30.6475 40.172C30.4541 39.9421 30.3729 39.4596 30.3331 38.3041C30.3019 37.4014 30.2595 37.1048 30.0943 36.6362C29.9109 36.1162 29.6934 35.7572 29.3666 35.4355L29.1723 35.2442L29.3384 35.1375C30.2697 34.5399 30.702 32.8197 30.2522 31.501C29.8799 30.4095 29.0002 29.7243 27.6632 29.4847C27.4126 29.4398 26.9853 29.429 24.9947 29.4172C23.6911 29.4095 22.1733 29.3978 21.6217 29.3914L20.619 29.3796V34.828ZM52.8402 34.8311V40.2764H54.4811H56.122V38.6571C56.122 36.9489 56.1303 36.8447 56.2694 36.8098C56.3104 36.7995 56.775 36.7959 57.302 36.8018C58.2433 36.8122 58.2631 36.8138 58.4259 36.8942C58.7742 37.066 59.048 37.4513 59.1335 37.8897C59.153 37.99 59.2075 38.4822 59.2545 38.9836C59.3608 40.1178 59.3559 40.0881 59.4578 40.2092L59.5423 40.3096H61.2465C62.1839 40.3096 62.9508 40.297 62.9508 40.2816C62.9508 40.2662 62.9213 40.2269 62.8852 40.1942C62.6923 40.0196 62.5923 39.4551 62.5535 38.3206C62.5205 37.361 62.4774 37.0714 62.2926 36.5692C62.1154 36.0877 61.83 35.6466 61.5157 35.3687L61.3827 35.2511L61.5502 35.1436C61.9895 34.8617 62.3446 34.3071 62.5452 33.5896C62.6289 33.2903 62.6358 33.2193 62.6349 32.6686C62.6337 31.9497 62.5737 31.6569 62.3227 31.1438C61.8959 30.2716 61.1269 29.7324 59.9785 29.5C59.5893 29.4212 59.5718 29.4209 54.5225 29.3945L52.8402 29.3858V34.8311ZM3.00828 29.4268L0.132568 29.4369V34.8567V40.2764H3.64207C7.48581 40.2764 7.44424 40.2783 7.98839 40.0797C8.85541 39.7633 9.42333 39.0792 9.68703 38.0336C9.74995 37.7841 9.76092 37.6518 9.76072 37.1438C9.76049 36.5608 9.75804 36.5399 9.65455 36.2322C9.46102 35.6569 9.14106 35.1186 8.82475 34.8363L8.66461 34.6933L8.78613 34.4932C9.18873 33.8299 9.39731 32.9572 9.31599 32.2758C9.26667 31.8622 9.17262 31.5332 8.99855 31.1653C8.47446 30.0575 7.5425 29.4759 6.21549 29.4285C6.03317 29.422 4.58994 29.4213 3.00828 29.4268ZM10.3426 34.8399V40.2764H15.0167H19.6908V39.0168V37.7571H16.7239H13.757V37.0112V36.2654H16.2598H18.7626V34.8565V33.4477H16.2267H13.6907V32.851V32.2543H16.6907H19.6908V30.8289V29.4034H15.0167H10.3426V34.8399ZM42.5639 34.8399V40.2764H47.238H51.912V39.0168V37.7571H48.9451H45.9783V37.0112V36.2654H48.4811H50.9838V34.8565V33.4477H48.4479H45.912V32.851V32.2543H48.912H51.912V30.8289V29.4034H47.238H42.5639V34.8399ZM6.15095 32.2386C6.48626 32.4459 6.61713 32.8526 6.46348 33.2097C6.3765 33.412 6.22109 33.5586 5.97383 33.6718L5.79545 33.7535L4.47233 33.729L3.14917 33.7045V32.9121V32.1196L4.56896 32.1289L5.98875 32.1383L6.15095 32.2386ZM26.072 32.2667C26.421 32.2763 26.5404 32.2929 26.6999 32.3541C27.1118 32.5119 27.3702 32.9134 27.3398 33.3482C27.3104 33.7684 27.1104 34.0568 26.7224 34.2388L26.5361 34.3261L25.2184 34.3362L23.9007 34.3462V33.2892V32.2322L24.7709 32.2435C25.2495 32.2498 25.835 32.2602 26.072 32.2667ZM58.6744 32.2909C59.2329 32.3802 59.598 32.8157 59.5612 33.3487C59.5327 33.7628 59.3294 34.0618 58.9605 34.2323L58.7574 34.3261L57.4397 34.3358L56.122 34.3455V33.2905V32.2355L57.2905 32.246C57.9332 32.2518 58.556 32.272 58.6744 32.2909ZM6.04252 36.2769C6.32694 36.3961 6.53094 36.6997 6.52968 37.0018C6.52836 37.3198 6.3459 37.579 6.01659 37.7305C5.85347 37.8056 5.82953 37.807 4.50001 37.8165L3.14917 37.8262V37.0292V36.2322H4.54251C5.6366 36.2322 5.95875 36.2418 6.04252 36.2769Z" fill="#00AEEF"/>
<path fill-rule="evenodd" clip-rule="evenodd" d="M24.0173 42.2362C23.4848 42.3774 23.3704 42.4416 23.3704 42.5992C23.3704 42.6708 23.4035 42.7107 23.5308 42.7924C23.619 42.849 23.7085 42.9333 23.7297 42.9798C23.7542 43.0335 23.7681 43.2753 23.7681 43.6462C23.7681 44.1877 23.7641 44.2266 23.7101 44.2042C23.38 44.067 22.9986 44.0419 22.6411 44.1338C21.8032 44.3492 21.3148 44.9958 21.2588 45.9639C21.2112 46.7867 21.5924 47.5085 22.2345 47.8114C22.4397 47.9082 22.4855 47.917 22.7737 47.9144C23.1343 47.9113 23.4627 47.8389 23.7456 47.7001L23.9385 47.6055L24.0419 47.7231L24.1452 47.8409L24.5665 47.8294C24.9241 47.8197 24.9983 47.8084 25.0575 47.7548C25.1739 47.6494 25.1491 47.513 24.9864 47.3627L24.8455 47.2327L24.8391 44.807C24.8356 43.473 24.8318 42.3546 24.8308 42.3218C24.8282 42.2405 24.6693 42.0991 24.5838 42.1021C24.5454 42.1034 24.2905 42.1637 24.0173 42.2362ZM46.6081 42.2311C46.0179 42.3852 46.0203 42.3842 45.9595 42.5018C45.8997 42.6173 45.9354 42.7055 46.0704 42.7758C46.12 42.8015 46.1979 42.8625 46.2435 42.9113C46.3248 42.9982 46.3265 43.0113 46.3367 43.6149C46.3466 44.198 46.344 44.2287 46.287 44.205C45.9561 44.0679 45.5432 44.0425 45.1827 44.1371C44.3406 44.3582 43.8308 45.0825 43.8168 46.0776C43.8062 46.8417 44.164 47.4894 44.7594 47.7836C44.9092 47.8577 45.0732 47.9113 45.1842 47.9226C45.5149 47.9562 46.2233 47.7929 46.4129 47.6393C46.4842 47.5816 46.4879 47.5829 46.6005 47.7075L46.7153 47.8345H47.0843C47.5392 47.8344 47.6793 47.7825 47.6961 47.6078C47.7051 47.5142 47.6857 47.4777 47.5706 47.3715C47.4958 47.3024 47.4201 47.1957 47.4025 47.1343C47.3563 46.9731 47.3602 42.9244 47.4069 42.6923C47.4334 42.5602 47.4332 42.4744 47.4061 42.3736C47.3678 42.2314 47.2373 42.0973 47.1423 42.1027C47.1129 42.1043 46.8725 42.1622 46.6081 42.2311ZM58.3762 42.2295C57.8132 42.3744 57.7696 42.3944 57.7116 42.5344C57.6702 42.6344 57.6728 42.644 57.7584 42.7097C57.8082 42.7479 57.9042 42.8265 57.9717 42.8843L58.0944 42.9894L58.1053 43.4637C58.1113 43.7245 58.1071 43.9992 58.0958 44.074L58.0754 44.2101L57.886 44.1453C57.6465 44.0632 57.2455 44.0597 56.9507 44.1371C56.3387 44.2977 55.9014 44.7151 55.7043 45.3265C55.5876 45.6887 55.5574 46.2881 55.6399 46.608C55.7247 46.9367 55.9091 47.2826 56.1067 47.4834C56.305 47.6849 56.6707 47.8846 56.9059 47.9198C57.2123 47.9658 57.9135 47.8178 58.15 47.6573L58.265 47.5792L58.3722 47.7069L58.4794 47.8345H58.8504C59.3074 47.8344 59.4474 47.7827 59.4641 47.6078C59.4731 47.5142 59.4537 47.4777 59.3387 47.3715C59.2638 47.3024 59.1882 47.1957 59.1706 47.1343C59.1227 46.9672 59.1285 42.9411 59.1771 42.6775C59.2101 42.4984 59.2076 42.4478 59.1597 42.3222C59.1069 42.1841 59.0001 42.0949 58.8967 42.1027C58.8748 42.1043 58.6405 42.1614 58.3762 42.2295ZM42.2655 42.2945C41.6297 42.5193 41.6191 42.5253 41.6191 42.6615C41.6191 42.7608 41.6376 42.7856 41.7683 42.8621C41.8503 42.91 41.9359 42.9856 41.9584 43.03C41.9896 43.0915 41.9995 43.6031 41.9998 45.1743C42.0003 47.0987 41.9964 47.2412 41.9423 47.2881C41.9104 47.3158 41.8284 47.3844 41.76 47.4407C41.6696 47.5152 41.6357 47.5687 41.6357 47.6372C41.6357 47.8197 41.7023 47.8345 42.5215 47.8345C43.2158 47.8345 43.264 47.8305 43.3263 47.7682C43.4281 47.6664 43.4126 47.5198 43.2904 47.4294C43.2342 47.3879 43.1733 47.3539 43.1551 47.3539C43.1369 47.3539 43.1009 47.3249 43.075 47.2895C43.0354 47.2353 43.028 46.8328 43.028 44.7311C43.028 41.9743 43.0406 42.131 42.8184 42.1345C42.7605 42.1354 42.5117 42.2074 42.2655 42.2945ZM30.0544 42.3673C29.9208 42.4724 29.938 42.5931 30.1116 42.7693C30.3094 42.9699 30.3491 43.1017 30.3442 43.5417C30.3378 44.1097 30.0366 45.4968 29.7655 46.2069C29.6521 46.5038 29.5949 46.5946 29.542 46.5619C29.4874 46.5281 29.22 45.6791 29.0711 45.0665C28.9269 44.473 28.8239 43.9235 28.7584 43.3975C28.7084 42.9968 28.7265 42.9184 28.8897 42.8288C29.0797 42.7244 29.1268 42.5122 28.9847 42.4004C28.9024 42.3357 28.8557 42.3317 28.1709 42.3317C27.414 42.3317 27.2862 42.3523 27.2363 42.4824C27.1876 42.6092 27.2185 42.6932 27.3597 42.8179C27.4994 42.9413 27.5053 42.9546 27.5619 43.2765C27.7388 44.2822 28.0316 45.5645 28.2157 46.1394C28.3502 46.5592 28.8283 47.6663 28.9174 47.7642C29.0718 47.9338 29.4033 47.9884 29.5783 47.873C29.8219 47.7123 30.1165 47.1116 30.4342 46.1273C30.5637 45.7262 30.6794 45.3719 30.6913 45.34C30.7055 45.3017 30.8488 45.6307 31.1099 46.3013C31.3282 46.862 31.5445 47.3952 31.5906 47.4862C31.7447 47.791 32.0849 47.9732 32.3609 47.8989C32.6054 47.8331 32.7162 47.6818 32.9427 47.1052C33.4827 45.73 33.8827 44.2655 34.0137 43.184C34.0508 42.8777 34.0583 42.8566 34.1476 42.8105C34.2425 42.7614 34.3428 42.6106 34.3428 42.517C34.3428 42.4894 34.3102 42.4365 34.2703 42.3993C34.2027 42.3363 34.1558 42.3317 33.5815 42.3317C32.8905 42.3317 32.8179 42.3509 32.8179 42.5341C32.8179 42.6458 32.9275 42.7654 33.1198 42.8638C33.3571 42.9851 33.3613 43.1028 33.1642 44.0886C32.9757 45.0306 32.6562 46.1792 32.4968 46.4875C32.455 46.5682 32.4404 46.576 32.4028 46.5375C32.3475 46.481 31.8798 45.1021 31.6958 44.4533C31.5532 43.9503 31.4485 43.4731 31.4107 43.1543C31.3913 42.9915 31.3971 42.9582 31.4532 42.9104C31.705 42.6958 31.724 42.6693 31.724 42.5351C31.724 42.3083 31.6882 42.2986 30.8592 42.2986C30.1836 42.2986 30.1367 42.3026 30.0544 42.3673ZM0.228101 42.3982C0.125272 42.4583 0 42.9312 0 43.2592C0 43.5141 0.0199228 43.5582 0.135051 43.5582C0.205725 43.5582 0.308091 43.4909 0.537584 43.2936C0.724183 43.1331 0.90309 43.0091 0.992096 42.9787C1.14269 42.9271 1.64123 42.9084 1.66888 42.9533C1.6773 42.9669 1.68906 43.9531 1.695 45.1446L1.70577 47.3111L1.62823 47.3739C1.58557 47.4085 1.51589 47.4367 1.47336 47.4367C1.38591 47.4367 1.29283 47.549 1.29283 47.6545C1.29283 47.6931 1.32419 47.7532 1.36254 47.7879C1.42682 47.8462 1.50011 47.8518 2.29901 47.8597C3.20648 47.8688 3.3172 47.8544 3.34226 47.7243C3.36066 47.6288 3.25474 47.5033 3.09967 47.4368C3.02008 47.4027 2.939 47.3449 2.91947 47.3085C2.89531 47.2633 2.884 46.5533 2.884 45.0819V42.9216L3.15748 42.934C3.51013 42.9499 3.75706 43.0588 3.96497 43.2901C4.05587 43.3911 4.16897 43.4756 4.25997 43.5104C4.39737 43.5629 4.41332 43.563 4.49109 43.512C4.59425 43.4444 4.60111 43.2875 4.52016 42.8465C4.4763 42.6075 4.44749 42.531 4.37347 42.457L4.28138 42.3649L2.28158 42.3659C1.08654 42.3665 0.26019 42.3795 0.228101 42.3982ZM54.0039 42.721C53.7021 42.8417 53.5535 43.1925 53.686 43.4718C53.8201 43.7544 54.2499 43.8596 54.5786 43.6903C54.794 43.5794 54.8705 43.4389 54.8539 43.1849C54.8408 42.984 54.78 42.8694 54.625 42.7537C54.5039 42.6633 54.1897 42.6467 54.0039 42.721ZM16.1939 43.0742C16.1502 43.1179 16.0909 43.2409 16.0621 43.3476C15.9274 43.847 15.9059 43.8973 15.768 44.035C15.6304 44.1724 15.4432 44.2544 15.2672 44.2544C15.2114 44.2544 15.1393 44.2924 15.0771 44.3547C14.9962 44.4355 14.9811 44.4725 14.9988 44.5453C15.0383 44.7069 15.127 44.7636 15.3641 44.7787L15.5802 44.7925V46.1901C15.5802 47.4286 15.5864 47.5965 15.6343 47.6649C15.7377 47.8125 15.8599 47.8345 16.5747 47.8345C17.3817 47.8345 17.4698 47.8122 17.4698 47.6078C17.4698 47.5294 17.4449 47.4465 17.4075 47.4004C17.3524 47.3323 17.3083 47.3214 17.0236 47.3055C16.7562 47.2906 16.694 47.2767 16.6549 47.2232C16.6164 47.1705 16.6079 46.9444 16.6079 45.9718V44.7848H16.9515C17.2489 44.7848 17.3068 44.7755 17.3824 44.7161C17.5021 44.6219 17.505 44.4192 17.3884 44.3026C17.3138 44.228 17.2815 44.2212 16.9989 44.2207C16.8294 44.2204 16.6732 44.2091 16.6518 44.1954C16.6253 44.1786 16.6093 44.0014 16.602 43.646C16.5917 43.1408 16.5884 43.1189 16.513 43.058C16.4072 42.9724 16.2897 42.9784 16.1939 43.0742ZM40.517 44.205C40.3803 44.2734 40.2269 44.3837 40.145 44.4726C40.0683 44.5558 39.9877 44.617 39.9659 44.6086C39.9441 44.6003 39.8902 44.5235 39.8463 44.438C39.8023 44.3524 39.7212 44.2445 39.6662 44.1982C39.5757 44.1221 39.545 44.1154 39.3492 44.1294C39.1003 44.1472 38.9527 44.212 38.7766 44.3808C38.6823 44.4711 38.6522 44.5262 38.6522 44.6088C38.6522 44.7043 38.6751 44.733 38.837 44.8404C38.9386 44.9079 39.043 45.0043 39.069 45.0546C39.1072 45.1284 39.1163 45.3544 39.1163 46.2193V47.2926L39.0396 47.3647C38.9974 47.4043 38.9452 47.4367 38.9236 47.4367C38.7798 47.4367 38.6917 47.7338 38.8158 47.8002C38.8551 47.8212 39.1995 47.8345 39.7045 47.8345C40.6275 47.8345 40.654 47.8288 40.6355 47.6342C40.6258 47.5321 40.6051 47.5101 40.4452 47.4322C40.1701 47.2981 40.1703 47.299 40.1838 46.3318C40.1944 45.5721 40.202 45.4801 40.2679 45.3034C40.4067 44.9314 40.5748 44.803 40.7581 44.9292C40.9369 45.0523 41.2931 45.0058 41.4143 44.8435C41.5012 44.7271 41.5023 44.4989 41.4167 44.3498C41.3331 44.2042 41.1062 44.0886 40.9038 44.0886C40.7937 44.0886 40.683 44.1219 40.517 44.205ZM6.50359 44.2392C6.35355 44.3142 6.21595 44.4155 6.12207 44.5199C5.98596 44.6713 5.97164 44.6791 5.92559 44.6263C5.89825 44.5949 5.85025 44.514 5.81885 44.4464C5.78746 44.3788 5.72385 44.2856 5.6775 44.2392C5.6055 44.1672 5.56367 44.155 5.39056 44.1553C5.24822 44.1555 5.13853 44.1786 5.02214 44.2329C4.85712 44.3099 4.60777 44.5479 4.60777 44.6283C4.60777 44.702 4.69718 44.8019 4.84854 44.8976C5.10995 45.0629 5.10501 45.0368 5.10501 46.251V47.3257L5.02831 47.3978C4.98611 47.4375 4.9339 47.4699 4.91228 47.4699C4.84048 47.4699 4.74037 47.6012 4.74037 47.6953C4.74037 47.8648 4.75582 47.8677 5.66885 47.8677C6.61825 47.8677 6.64278 47.8625 6.62422 47.6673C6.61451 47.5652 6.59376 47.5432 6.43388 47.4653C6.1597 47.3317 6.15999 47.333 6.17236 46.3658C6.18207 45.6065 6.18953 45.5134 6.25454 45.3407C6.39864 44.958 6.53982 44.8539 6.75685 44.9705C6.91332 45.0546 7.20059 45.049 7.32122 44.9595C7.44125 44.8705 7.50185 44.68 7.45975 44.5243C7.41238 44.3491 7.33531 44.2554 7.18073 44.1852C6.96649 44.0879 6.77551 44.1032 6.50359 44.2392ZM18.9687 44.1698C18.3437 44.3211 17.7928 44.8248 17.607 45.4146C17.4637 45.8695 17.5126 46.5463 17.719 46.9639C17.9519 47.4352 18.3928 47.7737 18.9188 47.8851C19.1812 47.9407 19.6429 47.9471 19.8565 47.8981C20.132 47.835 20.4739 47.6442 20.701 47.427C20.8981 47.2384 20.9173 47.208 20.9173 47.0849C20.9173 46.9961 20.8965 46.931 20.8567 46.8949C20.7474 46.796 20.6306 46.8314 20.4076 47.0308C20.3369 47.0941 20.1803 47.1924 20.0595 47.2494C19.8647 47.3414 19.8064 47.3531 19.5416 47.3534C19.2985 47.3538 19.2187 47.3406 19.1107 47.2823C18.8632 47.1488 18.6942 46.8965 18.6446 46.5869L18.6232 46.4525L18.9829 46.4325C19.64 46.3958 20.2027 46.199 20.557 45.8818C20.7658 45.6949 20.8421 45.5422 20.8726 45.251C20.9229 44.7699 20.5518 44.3209 19.9775 44.168C19.7663 44.1118 19.2042 44.1128 18.9687 44.1698ZM54.1828 44.223C54.0369 44.2754 53.8093 44.3493 53.677 44.3872C53.3849 44.471 53.2928 44.5696 53.3731 44.7127C53.4051 44.7697 53.4716 44.8132 53.57 44.8415C53.6518 44.8651 53.7373 44.9095 53.7601 44.9403C53.7914 44.9826 53.8015 45.2785 53.8015 46.1471V47.2979L53.6358 47.417C53.4917 47.5205 53.47 47.5511 53.47 47.651C53.47 47.7307 53.4897 47.7764 53.5342 47.8002C53.5726 47.8208 53.8815 47.8345 54.3058 47.8345C55.0947 47.8345 55.1607 47.819 55.1607 47.6337C55.1607 47.5221 55.0589 47.4036 54.9629 47.4036C54.9271 47.4036 54.8824 47.3747 54.8635 47.3395C54.8413 47.2981 54.8292 46.7628 54.8292 45.8295C54.8292 44.2558 54.8255 44.2229 54.6431 44.1535C54.5256 44.1088 54.4818 44.1154 54.1828 44.223ZM36.0118 44.1912C35.6025 44.2596 35.1628 44.5062 34.9339 44.7958C34.63 45.1803 34.5084 45.5795 34.509 46.1906C34.5096 46.8102 34.6275 47.1315 34.9852 47.4878C35.3264 47.8277 35.7097 47.9675 36.2973 47.9666C36.9108 47.9655 37.3073 47.8348 37.6533 47.5196C37.9937 47.2094 38.1962 46.7918 38.2844 46.2185C38.3883 45.5427 37.9248 44.6552 37.3097 44.352C36.9547 44.177 36.4621 44.116 36.0118 44.1912ZM61.2204 44.2394C60.5925 44.3917 60.0627 44.8588 59.8635 45.4359C59.7953 45.6334 59.7851 45.7241 59.7858 46.1273C59.7863 46.4893 59.8 46.6315 59.8478 46.7737C60.0499 47.3752 60.4992 47.794 61.1097 47.9498C61.3747 48.0175 61.9247 48.0159 62.1575 47.9468C62.4521 47.8593 62.7024 47.715 62.9327 47.4995C63.135 47.3103 63.1497 47.2869 63.1497 47.1535C63.1497 46.8534 62.9745 46.8367 62.6431 47.1052C62.3503 47.3424 62.1433 47.417 61.774 47.4185C61.4527 47.4198 61.2915 47.3643 61.1378 47.1995C61.053 47.1086 60.9113 46.8032 60.8842 46.6529C60.8622 46.5308 60.9057 46.5097 61.1819 46.509C61.3792 46.5085 61.8323 46.4295 62.0723 46.3538C62.3488 46.2666 62.675 46.0792 62.8496 45.9073C63.0384 45.7214 63.1167 45.519 63.1162 45.218C63.1154 44.7774 62.7485 44.3777 62.2146 44.2356C61.9945 44.177 61.4695 44.179 61.2204 44.2394ZM12.8756 44.2683C12.6036 44.3303 12.2911 44.493 12.1351 44.6536C11.7774 45.0223 11.702 45.6911 11.9777 46.0503C12.2093 46.352 12.4427 46.4663 13.0132 46.5573C13.5353 46.6407 13.7636 46.7923 13.7636 47.0555C13.7636 47.3148 13.5206 47.4873 13.1603 47.4837C12.8238 47.4803 12.744 47.4268 12.2783 46.892C12.1387 46.7318 12.004 46.73 11.8476 46.8864C11.7527 46.9813 11.7349 47.0228 11.7349 47.1487C11.7349 47.2724 11.7572 47.3264 11.8643 47.4618C12.0576 47.7065 12.2146 47.8204 12.4766 47.9063C12.6861 47.9749 12.7747 47.9836 13.2598 47.9828C13.7516 47.982 13.826 47.9743 13.9974 47.9058C14.2901 47.789 14.4966 47.6077 14.6153 47.3636C14.9289 46.718 14.7422 46.1002 14.1518 45.8307C14.0499 45.7842 13.774 45.7074 13.5386 45.66C12.9635 45.5443 12.8288 45.4528 12.8288 45.1777C12.8288 44.9061 13.0345 44.7179 13.33 44.7193C13.6143 44.7205 13.7622 44.7683 13.873 44.8946C14.2661 45.3427 14.2723 45.3483 14.3748 45.3483C14.5568 45.3483 14.592 45.2681 14.5657 44.9131C14.5438 44.6176 14.5373 44.5974 14.4329 44.4982C14.2545 44.3286 13.9728 44.2498 13.4918 44.2351C13.2143 44.2265 13.0108 44.2375 12.8756 44.2683ZM8.11405 44.3178C7.67091 44.406 7.57932 44.543 7.81498 44.7652L7.93929 44.8824L7.95722 45.9855C7.97416 47.0278 7.97924 47.099 8.04948 47.2759C8.22988 47.7301 8.65466 47.9988 9.1942 47.9999C9.53434 48.0006 9.94722 47.8593 10.1916 47.6587L10.2893 47.5785L10.3408 47.6817C10.4296 47.8594 10.5654 47.9007 11.0599 47.9008C11.4384 47.9008 11.5057 47.8926 11.5732 47.8379C11.6496 47.7761 11.6499 47.7729 11.5945 47.6565C11.5634 47.5914 11.486 47.5041 11.4226 47.4626C11.3591 47.421 11.2915 47.3527 11.2724 47.3109C11.2513 47.2645 11.2377 46.9256 11.2377 46.446C11.2377 46.0122 11.2277 45.3828 11.2155 45.0472C11.1935 44.4383 11.1933 44.437 11.1021 44.3457C11.0355 44.2792 10.9776 44.2544 10.8891 44.2544C10.7202 44.2544 10.1213 44.3798 10.0064 44.4392C9.88251 44.5032 9.88244 44.6162 10.0063 44.7587C10.1772 44.9555 10.1769 44.9533 10.1769 45.97V46.9276L10.0857 47.1053C9.96558 47.3396 9.83567 47.4117 9.56219 47.3962C9.33362 47.3831 9.18392 47.2978 9.09074 47.1275C9.03975 47.0343 9.03133 46.8727 9.01665 45.7017L9.00007 44.381L8.92181 44.3177C8.82173 44.2367 8.52096 44.2367 8.11405 44.3178ZM47.7562 44.3231C47.6886 44.3763 47.6689 44.4209 47.6689 44.5211C47.6689 44.631 47.6837 44.6581 47.7673 44.7014C47.896 44.7679 47.9212 44.8222 47.9496 45.0952C48.0189 45.7594 48.2954 46.6971 48.6303 47.4036C48.8705 47.91 48.8997 47.9335 49.2893 47.9338C49.6182 47.934 49.7338 47.8791 49.8936 47.6468C49.9818 47.5186 50.1853 47.1085 50.317 46.7936C50.3405 46.7372 50.3693 46.7097 50.3864 46.7273C50.4097 46.7511 50.6833 47.3583 50.8525 47.7617C50.8701 47.8036 50.9362 47.8596 50.9994 47.886C51.1509 47.9493 51.5874 47.9492 51.7097 47.886C51.9913 47.7404 52.4642 46.67 52.8225 45.3674C52.9394 44.9423 52.9857 44.8212 53.0514 44.7683C53.1444 44.6934 53.1886 44.5583 53.1589 44.44C53.1292 44.3216 52.9836 44.2875 52.5082 44.2875C52.132 44.2875 52.0773 44.2949 51.9994 44.3562C51.8819 44.4486 51.8821 44.5945 51.9997 44.7035C52.048 44.7482 52.0998 44.7848 52.1149 44.7848C52.1691 44.7848 52.2435 44.9832 52.2435 45.1275C52.2435 45.485 52.0209 46.2713 51.7592 46.8381C51.6595 47.054 51.6393 47.0787 51.597 47.0365C51.4654 46.9048 51.1462 45.8706 51.0225 45.1749L50.9593 44.8192L51.071 44.7042C51.1959 44.5756 51.2191 44.4281 51.1286 44.3376C51.0818 44.2907 50.9952 44.2848 50.4856 44.2938C49.9616 44.303 49.889 44.3111 49.827 44.3673C49.75 44.4371 49.7342 44.5919 49.7987 44.6449C49.8216 44.6636 49.8775 44.6841 49.9231 44.6904C50.0002 44.7011 50.0092 44.7224 50.0531 45C50.091 45.2401 50.0928 45.3564 50.0623 45.5979C50.0136 45.9835 49.887 46.4179 49.7197 46.7736L49.5871 47.0555L49.5263 46.9813C49.3875 46.8118 49.144 46.0026 49.0265 45.3202C48.9363 44.7962 48.9387 44.7562 49.0635 44.7127C49.2511 44.6473 49.2687 44.3943 49.0921 44.3029C49.0201 44.2658 48.8631 44.2544 48.4209 44.2544C47.8871 44.2544 47.837 44.2596 47.7562 44.3231ZM23.4794 44.6875C23.5877 44.7593 23.6581 44.8408 23.7185 44.9643C23.8021 45.1351 23.8043 45.1575 23.811 45.882C23.8148 46.2904 23.8058 46.6814 23.7911 46.7509C23.7588 46.9034 23.5728 47.1183 23.3941 47.2095C23.2746 47.2704 23.2456 47.2725 23.0349 47.2348C22.8255 47.1974 22.7929 47.1801 22.6561 47.0338C22.3759 46.7343 22.2672 46.3053 22.3355 45.7682C22.4106 45.177 22.6028 44.8127 22.9167 44.6666C23.151 44.5575 23.2908 44.5627 23.4794 44.6875ZM46.0698 44.7083C46.2335 44.8409 46.3087 44.9487 46.3443 45.1022C46.3863 45.2831 46.3836 46.6295 46.3409 46.7829C46.297 46.9412 46.1388 47.1228 45.9697 47.209C45.8495 47.2703 45.8204 47.2725 45.6117 47.2352C45.3323 47.1853 45.2008 47.0857 45.0601 46.8177C44.9104 46.5326 44.8719 46.3229 44.8941 45.9145C44.9157 45.5181 44.998 45.2111 45.1449 44.9797C45.3836 44.6035 45.7921 44.4836 46.0698 44.7083ZM57.7322 44.639C57.8856 44.7118 58.0661 44.9197 58.1086 45.0725C58.1286 45.1446 58.1438 45.5243 58.1439 45.9543C58.1442 46.8926 58.1162 46.9817 57.7548 47.1943C57.6188 47.2743 57.6064 47.2757 57.3833 47.2358C57.1001 47.1852 56.9697 47.087 56.8277 46.8177C56.6488 46.4784 56.6027 46.0038 56.7025 45.5306C56.8468 44.8461 57.3148 44.4409 57.7322 44.639ZM19.6836 44.6708C19.8679 44.7999 19.907 45.0894 19.7776 45.3672C19.6368 45.6695 19.3343 45.8459 18.8388 45.9149C18.7021 45.9339 18.5852 45.9444 18.5791 45.9383C18.5564 45.9156 18.6319 45.426 18.6809 45.2785C18.817 44.8685 19.0984 44.619 19.4247 44.619C19.5387 44.619 19.6381 44.6389 19.6836 44.6708ZM36.6229 44.6704C37.0192 44.8357 37.2257 45.312 37.2257 46.061C37.2257 46.6802 37.0907 47.1104 36.8176 47.3622C36.6584 47.5089 36.4061 47.5906 36.2203 47.5558C35.9674 47.5083 35.7401 47.1922 35.6206 46.7218C35.4927 46.2183 35.4965 45.8358 35.634 45.3815C35.8088 44.8037 36.225 44.5045 36.6229 44.6704ZM61.9087 44.7334C62.0408 44.82 62.0984 44.9391 62.0984 45.1263C62.0984 45.5617 61.7194 45.8919 61.1169 45.9815C60.9755 46.0025 60.8506 46.0106 60.8394 45.9994C60.7935 45.9534 60.8321 45.4454 60.8978 45.2328C60.9761 44.9791 61.1646 44.7593 61.3599 44.6938C61.5079 44.6443 61.8054 44.6657 61.9087 44.7334Z" fill="white"/>
</g>
<defs>
<clipPath id="clip0_405_38">
<rect width="64" height="48" fill="white"/>
</clipPath>
</defs>
</svg>
