<svg width="24" height="24" viewBox="0 0 24 24" fill="none" xmlns="http://www.w3.org/2000/svg">
<path opacity="0.24" d="M16.1898 2H7.81976C4.17976 2 2.00977 4.17 2.00977 7.81V16.18C2.00977 19.82 4.17976 21.99 7.81976 21.99H16.1898C19.8298 21.99 21.9998 19.82 21.9998 16.18V7.81C21.9998 4.17 19.8298 2 16.1898 2Z" fill="white"/>
<path opacity="0.6" d="M10.1098 11.15H7.45981C6.82981 11.15 6.31982 11.66 6.31982 12.29V17.41H10.1098V11.15V11.15Z" fill="white"/>
<path d="M12.7596 6.59998H11.2396C10.6096 6.59998 10.0996 7.10999 10.0996 7.73999V17.4H13.8896V7.73999C13.8896 7.10999 13.3896 6.59998 12.7596 6.59998Z" fill="white"/>
<path opacity="0.8" d="M16.5499 12.85H13.8999V17.4H17.6899V13.99C17.6799 13.36 17.1699 12.85 16.5499 12.85Z" fill="white"/>
</svg>
