<svg width="24" height="24" viewBox="0 0 24 24" fill="none" xmlns="http://www.w3.org/2000/svg">
<path opacity="0.4" d="M21 2V14.1C21 16 20 17 18.1 17H5.89999C3.99999 17 3 16 3 14.1V2H21Z" fill="white"/>
<path d="M22 2.75H2C1.59 2.75 1.25 2.41 1.25 2C1.25 1.59 1.59 1.25 2 1.25H22C22.41 1.25 22.75 1.59 22.75 2C22.75 2.41 22.41 2.75 22 2.75Z" fill="white"/>
<path d="M16.6698 22.34C16.5398 22.6 16.2698 22.75 15.9998 22.75C15.8898 22.75 15.7698 22.72 15.6698 22.67L11.9998 20.84L8.32976 22.67C8.22976 22.72 8.10978 22.75 7.99978 22.75C7.72978 22.75 7.45976 22.6 7.32976 22.34C7.13976 21.96 7.28979 21.51 7.66979 21.33L11.2498 19.54V17H12.7498V19.54L16.3298 21.33C16.7098 21.51 16.8598 21.96 16.6698 22.34Z" fill="white"/>
<path d="M7.49993 11.75C7.28993 11.75 7.06994 11.66 6.91994 11.48C6.64994 11.16 6.69992 10.69 7.01992 10.42L10.1699 7.79C10.4599 7.55 10.8299 7.45 11.1799 7.51C11.5399 7.57 11.8499 7.78997 12.0399 8.10997L13.0899 9.85997L16.0199 7.42C16.3399 7.15 16.8099 7.19998 17.0799 7.51998C17.3499 7.83998 17.2999 8.30997 16.9799 8.57997L13.8299 11.21C13.5399 11.45 13.1699 11.55 12.8199 11.49C12.4599 11.43 12.1499 11.21 11.9599 10.89L10.9099 9.14L7.97994 11.58C7.83994 11.69 7.66993 11.75 7.49993 11.75Z" fill="white"/>
</svg>
