<svg width="24" height="24" viewBox="0 0 24 24" fill="none" xmlns="http://www.w3.org/2000/svg">
<path opacity="0.32" fill-rule="evenodd" clip-rule="evenodd" d="M7.60622 19.713C7.91387 19.4356 8.3881 19.4602 8.66546 19.7678C9.48796 20.6802 10.6767 21.252 12.0001 21.252C13.3234 21.252 14.5122 20.6802 15.3347 19.7678C15.612 19.4602 16.0863 19.4356 16.3939 19.713C16.7016 19.9903 16.7261 20.4645 16.4488 20.7722C15.3539 21.9867 13.7658 22.752 12.0001 22.752C10.2343 22.752 8.64628 21.9867 7.55135 20.7722C7.274 20.4645 7.29856 19.9903 7.60622 19.713Z" fill="white"/>
<path opacity="0.48" fill-rule="evenodd" clip-rule="evenodd" d="M9.66772 17.5724C9.99223 17.315 10.464 17.3694 10.7214 17.6939C11.0214 18.0721 11.4825 18.3124 12.0002 18.3124C12.5179 18.3124 12.979 18.0721 13.279 17.6939C13.5364 17.3694 14.0082 17.315 14.3327 17.5724C14.6572 17.8298 14.7116 18.3016 14.4541 18.6261C13.8819 19.3475 12.9951 19.8124 12.0002 19.8124C11.0053 19.8124 10.1185 19.3475 9.54624 18.6261C9.28882 18.3016 9.34321 17.8298 9.66772 17.5724Z" fill="white"/>
<path d="M17.1517 6.28572H17.5952C20.0279 6.28572 22 8.2578 22 10.6905C22 13.1232 20.0279 15.0952 17.5952 15.0952H6.40476C3.97208 15.0952 2 13.1232 2 10.6905C2 8.2578 3.97208 6.28572 6.40476 6.28572H6.84827C7.29613 3.84751 9.43231 2 12 2C14.5677 2 16.7039 3.84751 17.1517 6.28572Z" fill="white"/>
</svg>
