<svg width="24" height="24" viewBox="0 0 24 24" fill="none" xmlns="http://www.w3.org/2000/svg">
<g clip-path="url(#clip0_405_45)">
<mask id="mask0_405_45" style="mask-type:luminance" maskUnits="userSpaceOnUse" x="0" y="0" width="24" height="24">
<path d="M24 0H0V24H24V0Z" fill="white"/>
</mask>
<g mask="url(#mask0_405_45)">
<path fill-rule="evenodd" clip-rule="evenodd" d="M12.8805 11.3496H23.7766C23.9001 11.3496 24.0001 11.2495 24.0001 11.126V10.7916C24.0001 10.6896 23.9313 10.6007 23.8325 10.5751C18.7227 9.26139 14.7132 5.27304 13.368 0.166844C13.342 0.068664 13.2531 0 13.1518 0H12.8805C12.7571 0 12.657 0.100111 12.657 0.223639V11.126C12.657 11.2495 12.7571 11.3496 12.8805 11.3496Z" fill="white"/>
<path fill-rule="evenodd" clip-rule="evenodd" d="M12.8805 23.9997H13.2147C13.3167 23.9997 13.4058 23.9306 13.4311 23.8319C14.744 18.7196 18.7301 14.7074 23.8338 13.3614C23.9319 13.3355 24.0001 13.2465 24.0001 13.1452V12.8737C24.0001 12.7505 23.9001 12.6504 23.7766 12.6504H12.8805C12.7571 12.6504 12.657 12.7505 12.657 12.8737V23.776C12.657 23.8996 12.7571 23.9997 12.8805 23.9997Z" fill="white"/>
<path fill-rule="evenodd" clip-rule="evenodd" d="M10.8484 24H11.1193C11.2428 24 11.3429 23.8998 11.3429 23.776V12.874C11.3429 12.7505 11.2428 12.6504 11.1193 12.6504H0.223512C0.100046 12.6504 0 12.7505 0 12.874V13.2081C0 13.3104 0.0689382 13.3992 0.167714 13.4249C5.27716 14.7386 9.28691 18.7266 10.6322 23.8331C10.6582 23.9313 10.7467 24 10.8484 24Z" fill="white"/>
<path fill-rule="evenodd" clip-rule="evenodd" d="M0.223512 11.3496H11.1193C11.2428 11.3496 11.3429 11.2495 11.3429 11.126V0.223639C11.3429 0.100111 11.2428 0 11.1193 0H10.7855C10.6835 0 10.5944 0.069308 10.569 0.168132C9.25586 5.28043 5.27011 9.29254 0.166427 10.6386C0.0683032 10.6643 0 10.7531 0 10.8548V11.126C0 11.2495 0.100046 11.3496 0.223512 11.3496Z" fill="white"/>
</g>
</g>
<defs>
<clipPath id="clip0_405_45">
<rect width="24" height="24" fill="white"/>
</clipPath>
</defs>
</svg>
