<svg width="96" height="28" viewBox="0 0 96 28" fill="none" xmlns="http://www.w3.org/2000/svg">
<path d="M11.659 16.1353C11.8178 16.1353 11.9585 16.1966 12.0812 16.3193L13.2287 17.5643C12.5936 18.3509 11.8105 18.9536 10.8795 19.3721C9.9558 19.7907 8.8444 20 7.54535 20C6.3834 20 5.33695 19.8016 4.40595 19.4046C3.48218 19.0077 2.69193 18.4556 2.03519 17.7483C1.37844 17.0411 0.87325 16.1966 0.51962 15.2151C0.173207 14.2336 0 13.1619 0 12C0 10.8237 0.187641 9.7483 0.562925 8.774C0.938205 7.7925 1.46504 6.94815 2.14344 6.24085C2.82905 5.5336 3.64456 4.98511 4.58998 4.5954C5.5354 4.19846 6.58185 4 7.72935 4C8.86965 4 9.88 4.18764 10.7605 4.56292C11.6481 4.93821 12.4023 5.42895 13.023 6.0352L12.0487 7.38835C11.991 7.47495 11.9152 7.55075 11.8214 7.6157C11.7348 7.68065 11.6121 7.71315 11.4533 7.71315C11.3451 7.71315 11.2332 7.68425 11.1178 7.6265C11.0023 7.56155 10.8759 7.4858 10.7388 7.3992C10.6017 7.30535 10.4429 7.20435 10.2625 7.0961C10.0821 6.9878 9.8728 6.8904 9.63465 6.8038C9.3965 6.70995 9.11865 6.6342 8.8011 6.57645C8.49075 6.5115 8.1299 6.47905 7.71855 6.47905C7.0185 6.47905 6.3762 6.6053 5.7916 6.8579C5.21425 7.1033 4.71628 7.46415 4.2977 7.94045C3.87911 8.40955 3.55436 8.9869 3.32341 9.67255C3.09247 10.3509 2.97699 11.1267 2.97699 12C2.97699 12.8805 3.09969 13.6635 3.34506 14.3491C3.59766 15.0348 3.93685 15.6121 4.36266 16.0812C4.78846 16.5503 5.29005 16.9111 5.8674 17.1637C6.44475 17.4091 7.0654 17.5318 7.72935 17.5318C8.1263 17.5318 8.48355 17.5102 8.8011 17.4669C9.12585 17.4236 9.42175 17.355 9.68875 17.2612C9.963 17.1674 10.2192 17.0483 10.4574 16.9039C10.7028 16.7524 10.9445 16.5684 11.1827 16.3519C11.2549 16.2869 11.3306 16.2364 11.41 16.2003C11.4894 16.157 11.5724 16.1353 11.659 16.1353Z" fill="white"/>
<path d="M24.8493 8.22388V20.3115H23.0554C22.6673 20.3115 22.4218 20.1348 22.3189 19.7814L22.1169 18.8153C21.6179 19.318 21.0675 19.7264 20.4656 20.0406C19.8637 20.3469 19.1548 20.5 18.3391 20.5C17.6738 20.5 17.0838 20.3901 16.569 20.1701C16.0621 19.9424 15.6344 19.6243 15.2859 19.2159C14.9374 18.8074 14.6721 18.3244 14.49 17.7668C14.3157 17.2013 14.2286 16.5808 14.2286 15.9053V8.22388H17.163V15.9053C17.163 16.6436 17.3332 17.217 17.6738 17.6254C18.0223 18.0259 18.541 18.2262 19.2301 18.2262C19.7369 18.2262 20.2121 18.1163 20.6557 17.8963C21.0992 17.6686 21.5189 17.3583 21.9149 16.9656V8.22388H24.8493Z" fill="white"/>
<path d="M30.0516 10.3209C30.4317 9.59835 30.8832 9.03285 31.4059 8.6244C31.9286 8.20815 32.5464 8 33.2592 8C33.8215 8 34.2729 8.12175 34.6135 8.3652L34.4234 10.5448C34.3838 10.6862 34.3244 10.7882 34.2452 10.8511C34.1739 10.906 34.0749 10.9335 33.9482 10.9335C33.8294 10.9335 33.6512 10.9139 33.4136 10.8747C33.1839 10.8354 32.9582 10.8158 32.7365 10.8158C32.4117 10.8158 32.1227 10.8628 31.8692 10.9571C31.6158 11.0513 31.3861 11.1888 31.1802 11.3694C30.9822 11.5422 30.804 11.7543 30.6456 12.0056C30.4951 12.257 30.3525 12.5436 30.2179 12.8657V20.3115H27.2836V8.22385H29.0062C29.3071 8.22385 29.517 8.27885 29.6358 8.3888C29.7546 8.4909 29.8338 8.6794 29.8734 8.9543L30.0516 10.3209Z" fill="white"/>
<path d="M41.2174 8.0354C42.1203 8.0354 42.94 8.1807 43.6766 8.4713C44.421 8.7619 45.0546 9.17425 45.5773 9.70835C46.108 10.2425 46.5159 10.8944 46.801 11.6641C47.0861 12.4338 47.2287 13.2938 47.2287 14.2442C47.2287 15.2024 47.0861 16.0664 46.801 16.8361C46.5159 17.6058 46.108 18.2616 45.5773 18.8035C45.0546 19.3455 44.421 19.7618 43.6766 20.0524C42.94 20.343 42.1203 20.4882 41.2174 20.4882C40.3066 20.4882 39.479 20.343 38.7345 20.0524C37.99 19.7618 37.3525 19.3455 36.8218 18.8035C36.2991 18.2616 35.8912 17.6058 35.5982 16.8361C35.3131 16.0664 35.1705 15.2024 35.1705 14.2442C35.1705 13.2938 35.3131 12.4338 35.5982 11.6641C35.8912 10.8944 36.2991 10.2425 36.8218 9.70835C37.3525 9.17425 37.99 8.7619 38.7345 8.4713C39.479 8.1807 40.3066 8.0354 41.2174 8.0354ZM41.2174 18.2498C42.2312 18.2498 42.9796 17.9121 43.4627 17.2366C43.9538 16.5611 44.1993 15.5716 44.1993 14.2677C44.1993 12.9639 43.9538 11.9704 43.4627 11.2871C42.9796 10.6038 42.2312 10.2621 41.2174 10.2621C40.1878 10.2621 39.4235 10.6077 38.9246 11.2988C38.4335 11.9822 38.188 12.9718 38.188 14.2677C38.188 15.5637 38.4335 16.5533 38.9246 17.2366C39.4235 17.9121 40.1878 18.2498 41.2174 18.2498Z" fill="white"/>
<path d="M53.0645 13.7623C53.4115 13.7623 53.713 13.7167 53.969 13.6256C54.2255 13.5269 54.4365 13.394 54.6025 13.227C54.7755 13.06 54.9035 12.8588 54.9865 12.6235C55.077 12.3881 55.1225 12.13 55.1225 11.8491C55.1225 11.2721 54.949 10.8166 54.6025 10.4825C54.263 10.1409 53.7505 9.9701 53.0645 9.9701C52.379 9.9701 51.8625 10.1409 51.516 10.4825C51.177 10.8166 51.007 11.2721 51.007 11.8491C51.007 12.1224 51.0485 12.3767 51.1315 12.6121C51.222 12.8474 51.35 13.0524 51.516 13.227C51.6895 13.394 51.904 13.5269 52.1605 13.6256C52.424 13.7167 52.7255 13.7623 53.0645 13.7623ZM56.219 20.4128C56.219 20.185 56.151 19.999 56.0155 19.8548C55.88 19.7105 55.695 19.6004 55.4615 19.5245C55.228 19.441 54.9525 19.3803 54.636 19.3424C54.327 19.3044 53.9955 19.2778 53.6415 19.2626C53.2945 19.2398 52.933 19.2209 52.556 19.2057C52.1865 19.1905 51.825 19.1601 51.4705 19.1146C51.1615 19.2892 50.909 19.4942 50.7135 19.7295C50.525 19.9649 50.4305 20.2382 50.4305 20.5494C50.4305 20.7544 50.4795 20.9443 50.5775 21.1189C50.683 21.3011 50.845 21.4567 51.0635 21.5858C51.29 21.7149 51.58 21.8135 51.934 21.8818C52.2885 21.9577 52.722 21.9958 53.2345 21.9958C53.7545 21.9958 54.203 21.9539 54.5795 21.8704C54.9565 21.7945 55.2655 21.6844 55.5065 21.5402C55.7555 21.4035 55.9365 21.2366 56.0495 21.0392C56.1625 20.8494 56.219 20.6405 56.219 20.4128ZM59 8.60355V9.65125C59 9.9853 58.8005 10.1903 58.401 10.2662L57.3605 10.4598C57.519 10.8621 57.598 11.3025 57.598 11.7808C57.598 12.3577 57.4815 12.8816 57.2475 13.3523C57.0215 13.8154 56.705 14.2102 56.298 14.5366C55.891 14.8631 55.4085 15.1175 54.851 15.2997C54.301 15.4743 53.7055 15.5616 53.0645 15.5616C52.8385 15.5616 52.62 15.5502 52.409 15.5274C52.198 15.5047 51.9905 15.4743 51.7875 15.4363C51.4255 15.6565 51.2445 15.9032 51.2445 16.1765C51.2445 16.4119 51.35 16.5865 51.561 16.7003C51.7795 16.8066 52.066 16.8826 52.4205 16.9281C52.7745 16.9737 53.178 17.004 53.63 17.0192C54.082 17.0268 54.5455 17.0496 55.0205 17.0875C55.4955 17.1255 55.959 17.1938 56.411 17.2925C56.8635 17.3836 57.2665 17.5317 57.621 17.7367C57.975 17.9417 58.2575 18.2225 58.4685 18.5793C58.687 18.9286 58.7965 19.3803 58.7965 19.9345C58.7965 20.4507 58.6685 20.9519 58.412 21.4377C58.1635 21.9236 57.798 22.3564 57.3155 22.736C56.8405 23.1156 56.253 23.4192 55.552 23.6469C54.8585 23.8823 54.067 24 53.178 24C52.3035 24 51.5425 23.9127 50.894 23.7381C50.246 23.5711 49.7071 23.3433 49.2775 23.0548C48.8479 22.7739 48.5276 22.4475 48.3166 22.0755C48.1055 21.7035 48 21.3163 48 20.9139C48 20.3673 48.162 19.9117 48.4861 19.5473C48.8177 19.1753 49.27 18.8792 49.8428 18.659C49.5338 18.4996 49.2888 18.2871 49.1079 18.0214C48.927 17.7557 48.8366 17.4064 48.8366 16.9736C48.8366 16.799 48.8668 16.6206 48.9271 16.4384C48.9949 16.2486 49.089 16.0627 49.2096 15.8805C49.3378 15.6982 49.4961 15.5274 49.6845 15.368C49.8729 15.201 50.095 15.0529 50.3515 14.9239C49.7636 14.605 49.3001 14.1799 48.9609 13.6484C48.6293 13.117 48.4635 12.4944 48.4635 11.7808C48.4635 11.2038 48.5766 10.6837 48.8027 10.2206C49.0363 9.74995 49.3566 9.35135 49.7636 9.0249C50.178 8.69085 50.6645 8.43655 51.222 8.2619C51.7875 8.0873 52.4015 8 53.0645 8C53.562 8 54.0295 8.05315 54.4665 8.15945C54.9035 8.25815 55.303 8.40615 55.665 8.60355H59Z" fill="white"/>
<path d="M62.97 10.2281C63.332 9.5344 63.762 8.9915 64.2595 8.59945C64.757 8.1998 65.3455 8 66.024 8C66.5595 8 66.989 8.11685 67.3135 8.3506L67.1325 10.443C67.0945 10.5787 67.038 10.6767 66.9625 10.7371C66.895 10.7898 66.8005 10.8162 66.68 10.8162C66.567 10.8162 66.397 10.7974 66.171 10.7597C65.9525 10.722 65.7375 10.7031 65.5265 10.7031C65.217 10.7031 64.942 10.7484 64.7005 10.8389C64.4595 10.9293 64.2405 11.0613 64.0445 11.2347C63.856 11.4006 63.6865 11.6042 63.5355 11.8455C63.3925 12.0867 63.2565 12.3619 63.1285 12.6711V19.819H60.335V8.2149H61.975C62.2615 8.2149 62.4615 8.26765 62.5745 8.37325C62.6875 8.47125 62.763 8.6522 62.8005 8.9161L62.97 10.2281Z" fill="white"/>
<path d="M74.7965 14.8652C73.9895 14.9029 73.311 14.9746 72.7605 15.0801C72.21 15.1782 71.769 15.3063 71.4375 15.4647C71.1055 15.623 70.868 15.8078 70.7245 16.0189C70.5815 16.23 70.51 16.4599 70.51 16.7087C70.51 17.1988 70.653 17.5495 70.9395 17.7606C71.2335 17.9717 71.6145 18.0773 72.082 18.0773C72.655 18.0773 73.149 17.9755 73.5635 17.7719C73.986 17.5608 74.397 17.2441 74.7965 16.8218V14.8652ZM68.395 9.83225C69.7295 8.61075 71.3355 8 73.213 8C73.8915 8 74.4985 8.1131 75.034 8.3393C75.569 8.55795 76.0215 8.8671 76.391 9.26675C76.7605 9.6588 77.0395 10.1301 77.228 10.6805C77.424 11.2309 77.522 11.8341 77.522 12.4901V19.819H76.2555C75.9915 19.819 75.788 19.7813 75.6445 19.7059C75.5015 19.623 75.3885 19.4609 75.3055 19.2196L75.0565 18.3827C74.7625 18.6466 74.476 18.8803 74.197 19.0839C73.918 19.2799 73.6275 19.4458 73.326 19.5816C73.0245 19.7173 72.7 19.819 72.3535 19.8869C72.014 19.9623 71.637 20 71.2225 20C70.7325 20 70.28 19.9359 69.865 19.8078C69.4505 19.672 69.0925 19.4722 68.7905 19.2083C68.489 18.9444 68.2555 18.6164 68.0895 18.2243C67.9235 17.8323 67.8405 17.3761 67.8405 16.8558C67.8405 16.5618 67.8895 16.2715 67.9875 15.9849C68.0855 15.6909 68.244 15.4119 68.4625 15.148C68.689 14.8841 68.979 14.6352 69.3335 14.4015C69.688 14.1677 70.1215 13.9642 70.6345 13.7907C71.1545 13.6173 71.7575 13.4779 72.444 13.3723C73.13 13.2592 73.914 13.1914 74.7965 13.1687V12.4901C74.7965 11.7135 74.6305 11.1405 74.2985 10.771C73.967 10.394 73.488 10.2055 72.8625 10.2055C72.41 10.2055 72.033 10.2583 71.7315 10.3638C71.4375 10.4694 71.177 10.59 70.951 10.7257C70.7245 10.8539 70.5175 10.9708 70.329 11.0764C70.148 11.1819 69.9445 11.2347 69.718 11.2347C69.522 11.2347 69.356 11.1857 69.2205 11.0877C69.085 10.9821 68.9755 10.8614 68.8925 10.7257L68.395 9.83225Z" fill="white"/>
<path d="M79.7005 19.819V8.21489H81.4085C81.7705 8.21489 82.008 8.38454 82.121 8.72384L82.302 9.58339C82.5055 9.35719 82.7165 9.14984 82.9355 8.96134C83.1615 8.77284 83.399 8.61074 83.648 8.47499C83.9045 8.33929 84.1755 8.23374 84.4625 8.15834C84.7565 8.07539 85.077 8.03394 85.4235 8.03394C86.155 8.03394 86.7545 8.23374 87.222 8.63334C87.697 9.02544 88.0515 9.54949 88.285 10.2054C88.466 9.82089 88.692 9.49294 88.9635 9.22149C89.235 8.94249 89.533 8.71629 89.857 8.54289C90.1815 8.36944 90.5245 8.24129 90.8865 8.15834C91.256 8.07539 91.6255 8.03394 91.995 8.03394C92.6355 8.03394 93.205 8.13194 93.7025 8.32799C94.2 8.52404 94.6185 8.81054 94.958 9.18754C95.2975 9.56454 95.5535 10.0245 95.727 10.5674C95.908 11.1102 95.9985 11.7323 95.9985 12.4335V19.819H93.205V12.4335C93.205 11.6946 93.043 11.1404 92.7185 10.7709C92.3945 10.3939 91.9195 10.2054 91.2935 10.2054C91.007 10.2054 90.7395 10.2545 90.4905 10.3525C90.2495 10.4505 90.0345 10.5938 89.846 10.7823C89.665 10.9632 89.5215 11.1932 89.416 11.4722C89.3105 11.7512 89.2575 12.0716 89.2575 12.4335V19.819H86.453V12.4335C86.453 11.6569 86.2945 11.0914 85.978 10.737C85.6685 10.3826 85.2125 10.2054 84.6095 10.2054C84.202 10.2054 83.8215 10.3072 83.467 10.5108C83.12 10.7069 82.796 10.9783 82.4945 11.3251V19.819H79.7005Z" fill="white"/>
</svg>
