<svg width="192" height="56" viewBox="0 0 192 56" fill="none" xmlns="http://www.w3.org/2000/svg">
<path d="M23.318 32.2706C23.6355 32.2706 23.917 32.3933 24.1624 32.6387L26.4574 35.1286C25.1872 36.7018 23.6211 37.9071 21.7591 38.7442C19.9116 39.5814 17.6888 40 15.0907 40C12.7668 40 10.6739 39.6031 8.81191 38.8092C6.96437 38.0153 5.38385 36.9111 4.07037 35.4966C2.75688 34.0821 1.7465 32.3933 1.03924 30.4303C0.346414 28.4673 0 26.3239 0 24C0 21.6473 0.375282 19.4966 1.12585 17.548C1.87641 15.585 2.93009 13.8963 4.28687 12.4817C5.6581 11.0672 7.28913 9.97023 9.17997 9.1908C11.0708 8.39693 13.1637 8 15.4587 8C17.7393 8 19.76 8.37528 21.521 9.12584C23.2963 9.87641 24.8047 10.8579 26.046 12.0704L24.0974 14.7767C23.982 14.9499 23.8304 15.1015 23.6428 15.2314C23.4696 15.3613 23.2242 15.4263 22.9066 15.4263C22.6901 15.4263 22.4664 15.3685 22.2355 15.253C22.0045 15.1231 21.7519 14.9716 21.4777 14.7984C21.2034 14.6107 20.8859 14.4087 20.525 14.1922C20.1642 13.9756 19.7456 13.7808 19.2693 13.6076C18.793 13.4199 18.2373 13.2684 17.6022 13.1529C16.9815 13.023 16.2598 12.9581 15.4371 12.9581C14.037 12.9581 12.7524 13.2106 11.5832 13.7158C10.4285 14.2066 9.43257 14.9283 8.5954 15.8809C7.75823 16.8191 7.10871 17.9738 6.64682 19.3451C6.18493 20.7018 5.95399 22.2535 5.95399 24C5.95399 25.7609 6.19937 27.327 6.69012 28.6982C7.19531 30.0695 7.8737 31.2242 8.72531 32.1624C9.57691 33.1006 10.5801 33.8223 11.7348 34.3275C12.8895 34.8182 14.1308 35.0636 15.4587 35.0636C16.2526 35.0636 16.9671 35.0203 17.6022 34.9337C18.2517 34.8471 18.8435 34.71 19.3775 34.5223C19.926 34.3347 20.4384 34.0965 20.9148 33.8078C21.4055 33.5047 21.889 33.1367 22.3654 32.7037C22.5097 32.5737 22.6613 32.4727 22.82 32.4005C22.9788 32.3139 23.1448 32.2706 23.318 32.2706Z" fill="#3498DB"/>
<path d="M49.6986 16.4477V40.623H46.1109C45.3347 40.623 44.8437 40.2696 44.6378 39.5627L44.2338 37.6305C43.2359 38.6359 42.1351 39.4527 40.9312 40.0811C39.7274 40.6937 38.3097 41 36.6782 41C35.3476 41 34.1676 40.7801 33.138 40.3402C32.1242 39.8847 31.2689 39.2485 30.5719 38.4317C29.8749 37.6148 29.3443 36.6488 28.98 35.5335C28.6315 34.4025 28.4573 33.1615 28.4573 31.8106V16.4477H34.326V31.8106C34.326 33.2872 34.6665 34.4339 35.3476 35.2507C36.0446 36.0518 37.0821 36.4524 38.4602 36.4524C39.4739 36.4524 40.4243 36.2325 41.3114 35.7926C42.1984 35.3371 43.0379 34.7166 43.8299 33.9312V16.4477H49.6986Z" fill="#3498DB"/>
<path d="M60.1032 20.6418C60.8635 19.1967 61.7664 18.0657 62.8119 17.2488C63.8573 16.4163 65.0928 16 66.5184 16C67.643 16 68.5459 16.2435 69.227 16.7304L68.8469 21.0895C68.7677 21.3723 68.6489 21.5765 68.4905 21.7022C68.3479 21.8121 68.1499 21.8671 67.8965 21.8671C67.6589 21.8671 67.3025 21.8278 66.8273 21.7493C66.3679 21.6708 65.9165 21.6315 65.473 21.6315C64.8235 21.6315 64.2454 21.7257 63.7385 21.9142C63.2316 22.1027 62.7723 22.3776 62.3604 22.7389C61.9644 23.0845 61.608 23.5086 61.2912 24.0113C60.9903 24.514 60.7051 25.0873 60.4359 25.7314V40.623H54.5672V16.4477H58.0124C58.6143 16.4477 59.034 16.5577 59.2716 16.7776C59.5092 16.9818 59.6676 17.3588 59.7468 17.9086L60.1032 20.6418Z" fill="#3498DB"/>
<path d="M82.4348 16.0707C84.2405 16.0707 85.88 16.3613 87.3531 16.9425C88.842 17.5237 90.1092 18.3484 91.1546 19.4166C92.2159 20.4848 93.0317 21.7886 93.6019 23.328C94.1722 24.8674 94.4573 26.5875 94.4573 28.4882C94.4573 30.4046 94.1722 32.1326 93.6019 33.672C93.0317 35.2114 92.2159 36.5231 91.1546 37.607C90.1092 38.6909 88.842 39.5234 87.3531 40.1046C85.88 40.6858 84.2405 40.9764 82.4348 40.9764C80.6132 40.9764 78.9579 40.6858 77.469 40.1046C75.98 39.5234 74.7049 38.6909 73.6436 37.607C72.5982 36.5231 71.7824 35.2114 71.1964 33.672C70.6261 32.1326 70.341 30.4046 70.341 28.4882C70.341 26.5875 70.6261 24.8674 71.1964 23.328C71.7824 21.7886 72.5982 20.4848 73.6436 19.4166C74.7049 18.3484 75.98 17.5237 77.469 16.9425C78.9579 16.3613 80.6132 16.0707 82.4348 16.0707ZM82.4348 36.4995C84.4623 36.4995 85.9592 35.8241 86.9254 34.4731C87.9075 33.1222 88.3985 31.143 88.3985 28.5353C88.3985 25.9277 87.9075 23.9406 86.9254 22.574C85.9592 21.2074 84.4623 20.524 82.4348 20.524C80.3756 20.524 78.847 21.2152 77.8491 22.5975C76.867 23.9642 76.376 25.9435 76.376 28.5353C76.376 31.1272 76.867 33.1065 77.8491 34.4731C78.847 35.8241 80.3756 36.4995 82.4348 36.4995Z" fill="#3498DB"/>
<path d="M106.129 27.5246C106.823 27.5246 107.426 27.4334 107.938 27.2512C108.451 27.0539 108.873 26.7881 109.205 26.4541C109.551 26.12 109.807 25.7177 109.973 25.247C110.154 24.7763 110.245 24.26 110.245 23.6982C110.245 22.5442 109.898 21.6332 109.205 20.9651C108.526 20.2818 107.501 19.9402 106.129 19.9402C104.758 19.9402 103.725 20.2818 103.032 20.9651C102.354 21.6332 102.014 22.5442 102.014 23.6982C102.014 24.2448 102.097 24.7535 102.263 25.2242C102.444 25.6949 102.7 26.1049 103.032 26.4541C103.379 26.7881 103.808 27.0539 104.321 27.2512C104.848 27.4334 105.451 27.5246 106.129 27.5246ZM112.438 40.8256C112.438 40.3701 112.302 39.9981 112.031 39.7096C111.76 39.4211 111.39 39.2009 110.923 39.0491C110.456 38.8821 109.905 38.7606 109.272 38.6847C108.654 38.6088 107.991 38.5556 107.283 38.5253C106.589 38.4797 105.866 38.4418 105.112 38.4114C104.373 38.381 103.65 38.3203 102.941 38.2292C102.323 38.5784 101.818 38.9884 101.427 39.4591C101.05 39.9298 100.861 40.4764 100.861 41.0989C100.861 41.5089 100.959 41.8885 101.155 42.2377C101.366 42.6021 101.69 42.9134 102.127 43.1715C102.58 43.4297 103.16 43.627 103.868 43.7637C104.577 43.9155 105.444 43.9915 106.469 43.9915C107.509 43.9915 108.406 43.9079 109.159 43.7409C109.913 43.5891 110.531 43.3689 111.013 43.0804C111.511 42.8071 111.873 42.4731 112.099 42.0783C112.325 41.6987 112.438 41.2811 112.438 40.8256ZM118 17.2071V19.3025C118 19.9706 117.601 20.3805 116.802 20.5324L114.721 20.9196C115.038 21.7243 115.196 22.605 115.196 23.5616C115.196 24.7155 114.963 25.7632 114.495 26.7046C114.043 27.6308 113.41 28.4204 112.596 29.0733C111.782 29.7262 110.817 30.2349 109.702 30.5993C108.602 30.9485 107.411 31.1231 106.129 31.1231C105.677 31.1231 105.24 31.1004 104.818 31.0548C104.396 31.0093 103.981 30.9485 103.575 30.8726C102.851 31.3129 102.489 31.8064 102.489 32.353C102.489 32.8237 102.7 33.173 103.122 33.4007C103.559 33.6133 104.132 33.7651 104.841 33.8562C105.549 33.9473 106.356 34.0081 107.26 34.0384C108.164 34.0536 109.091 34.0992 110.041 34.1751C110.991 34.251 111.918 34.3877 112.822 34.5851C113.727 34.7673 114.533 35.0633 115.242 35.4733C115.95 35.8833 116.515 36.4451 116.937 37.1587C117.374 37.8572 117.593 38.7606 117.593 39.869C117.593 40.9015 117.337 41.9037 116.824 42.8754C116.327 43.8472 115.596 44.7127 114.631 45.4719C113.681 46.2311 112.506 46.8384 111.104 47.2939C109.717 47.7646 108.134 48 106.356 48C104.607 48 103.085 47.8254 101.788 47.4762C100.492 47.1421 99.4142 46.6866 98.555 46.1096C97.6958 45.5478 97.0552 44.8949 96.6331 44.1509C96.211 43.4069 96 42.6325 96 41.8278C96 40.7345 96.3241 39.8235 96.9723 39.0947C97.6355 38.3507 98.5399 37.7585 99.6855 37.3181C99.0675 36.9993 98.5776 36.5741 98.2158 36.0427C97.8541 35.5113 97.6732 34.8128 97.6732 33.9473C97.6732 33.5981 97.7335 33.2413 97.8541 32.8769C97.9897 32.4973 98.1781 32.1253 98.4193 31.7609C98.6756 31.3964 98.9921 31.0548 99.369 30.7359C99.7458 30.4019 100.19 30.1058 100.703 29.8477C99.5272 29.21 98.6002 28.3597 97.9219 27.2968C97.2586 26.2339 96.927 24.9888 96.927 23.5616C96.927 22.4076 97.1531 21.3675 97.6053 20.4413C98.0726 19.4999 98.7133 18.7027 99.5272 18.0498C100.356 17.3817 101.329 16.8731 102.444 16.5238C103.575 16.1746 104.803 16 106.129 16C107.124 16 108.059 16.1063 108.933 16.3189C109.807 16.5163 110.606 16.8123 111.33 17.2071H118Z" fill="#3498DB"/>
<path d="M125.94 20.4562C126.664 19.0688 127.524 17.983 128.519 17.1989C129.514 16.3996 130.691 16 132.048 16C133.119 16 133.978 16.2337 134.627 16.7012L134.265 20.886C134.189 21.1574 134.076 21.3534 133.925 21.4741C133.79 21.5796 133.601 21.6324 133.36 21.6324C133.134 21.6324 132.794 21.5947 132.342 21.5193C131.905 21.4439 131.475 21.4062 131.053 21.4062C130.434 21.4062 129.884 21.4967 129.401 21.6777C128.919 21.8586 128.481 22.1225 128.089 22.4694C127.712 22.8011 127.373 23.2083 127.071 23.6909C126.785 24.1734 126.513 24.7238 126.257 25.3421V39.6381H120.67V16.4298H123.95C124.523 16.4298 124.923 16.5353 125.149 16.7465C125.375 16.9425 125.526 17.3044 125.601 17.8322L125.94 20.4562Z" fill="#3498DB"/>
<path d="M149.593 29.7304C147.979 29.8058 146.622 29.9491 145.521 30.1602C144.42 30.3563 143.538 30.6126 142.875 30.9293C142.211 31.246 141.736 31.6155 141.449 32.0377C141.163 32.4599 141.02 32.9199 141.02 33.4175C141.02 34.3977 141.306 35.099 141.879 35.5212C142.467 35.9434 143.229 36.1546 144.164 36.1546C145.31 36.1546 146.298 35.951 147.127 35.5438C147.972 35.1216 148.794 34.4882 149.593 33.6437V29.7304ZM136.79 19.6645C139.459 17.2215 142.671 16 146.426 16C147.783 16 148.997 16.2262 150.068 16.6786C151.138 17.1159 152.043 17.7342 152.782 18.5335C153.521 19.3176 154.079 20.2601 154.456 21.361C154.848 22.4618 155.044 23.6682 155.044 24.9802V39.6381H152.511C151.983 39.6381 151.576 39.5627 151.289 39.4119C151.003 39.246 150.777 38.9218 150.611 38.4392L150.113 36.7653C149.525 37.2931 148.952 37.7606 148.394 38.1678C147.836 38.5598 147.255 38.8916 146.652 39.1631C146.049 39.4345 145.4 39.6381 144.707 39.7738C144.028 39.9246 143.274 40 142.445 40C141.465 40 140.56 39.8718 139.73 39.6155C138.901 39.344 138.185 38.9444 137.581 38.4166C136.978 37.8888 136.511 37.2328 136.179 36.4486C135.847 35.6645 135.681 34.7521 135.681 33.7116C135.681 33.1235 135.779 32.5429 135.975 31.9698C136.171 31.3817 136.488 30.8238 136.925 30.2959C137.378 29.7681 137.958 29.2705 138.667 28.803C139.376 28.3355 140.243 27.9284 141.269 27.5815C142.309 27.2347 143.515 26.9557 144.888 26.7446C146.26 26.5184 147.828 26.3827 149.593 26.3374V24.9802C149.593 23.427 149.261 22.2809 148.597 21.5419C147.934 20.7879 146.976 20.4109 145.725 20.4109C144.82 20.4109 144.066 20.5165 143.463 20.7276C142.875 20.9387 142.354 21.18 141.902 21.4515C141.449 21.7078 141.035 21.9416 140.658 22.1527C140.296 22.3638 139.889 22.4694 139.436 22.4694C139.044 22.4694 138.712 22.3713 138.441 22.1753C138.17 21.9642 137.951 21.7229 137.785 21.4515L136.79 19.6645Z" fill="#3498DB"/>
<path d="M159.401 39.6381V16.4298H162.817C163.541 16.4298 164.016 16.7691 164.242 17.4477L164.604 19.1668C165.011 18.7144 165.433 18.2997 165.871 17.9227C166.323 17.5457 166.798 17.2215 167.296 16.95C167.809 16.6786 168.351 16.4675 168.925 16.3167C169.513 16.1508 170.154 16.0679 170.847 16.0679C172.31 16.0679 173.509 16.4675 174.444 17.2667C175.394 18.0509 176.103 19.099 176.57 20.4109C176.932 19.6418 177.384 18.9859 177.927 18.443C178.47 17.885 179.066 17.4326 179.714 17.0858C180.363 16.7389 181.049 16.4826 181.773 16.3167C182.512 16.1508 183.251 16.0679 183.99 16.0679C185.271 16.0679 186.41 16.2639 187.405 16.656C188.4 17.0481 189.237 17.6211 189.916 18.3751C190.595 19.1291 191.107 20.049 191.454 21.1348C191.816 22.2205 191.997 23.4647 191.997 24.8671V39.6381H186.41V24.8671C186.41 23.3893 186.086 22.2809 185.437 21.5419C184.789 20.7879 183.839 20.4109 182.587 20.4109C182.014 20.4109 181.479 20.509 180.981 20.705C180.499 20.901 180.069 21.1876 179.692 21.5646C179.33 21.9265 179.043 22.3864 178.832 22.9444C178.621 23.5024 178.515 24.1433 178.515 24.8671V39.6381H172.906V24.8671C172.906 23.3139 172.589 22.1828 171.956 21.4741C171.337 20.7653 170.425 20.4109 169.219 20.4109C168.404 20.4109 167.643 20.6145 166.934 21.0217C166.24 21.4138 165.592 21.9566 164.989 22.6503V39.6381H159.401Z" fill="#3498DB"/>
</svg>
