<svg width="56" height="56" viewBox="0 0 56 56" fill="none" xmlns="http://www.w3.org/2000/svg">
<path d="M56 42.8287H0V42.8567H56V42.8287Z" fill="#EFEFEF"/>
<path d="M13.4008 44.0148H9.62192V44.0428H13.4008V44.0148Z" fill="#EFEFEF"/>
<path d="M8.79983 44.0283H6.55759V44.0563H8.79983V44.0283Z" fill="#EFEFEF"/>
<path d="M33.9494 43.428H23.333V43.456H33.9494V43.428Z" fill="#EFEFEF"/>
<path d="M18.7914 44.809H15.4067V44.837H18.7914V44.809Z" fill="#EFEFEF"/>
<path d="M46.331 43.8132H37.52V43.8412H46.331V43.8132Z" fill="#EFEFEF"/>
<path d="M26.544 37.8336H4.91794C4.74852 37.8333 4.58615 37.7658 4.46646 37.6459C4.34676 37.526 4.27954 37.3635 4.27954 37.1941V6.79389C4.28102 6.62545 4.34889 6.46439 4.46842 6.34569C4.58795 6.227 4.74949 6.16026 4.91794 6.15997H26.544C26.7136 6.15997 26.8763 6.22735 26.9962 6.34728C27.1162 6.46722 27.1835 6.62988 27.1835 6.79949V37.1941C27.1835 37.3637 27.1162 37.5263 26.9962 37.6463C26.8763 37.7662 26.7136 37.8336 26.544 37.8336V37.8336ZM4.91794 6.18237C4.75595 6.18267 4.6007 6.24723 4.48626 6.36188C4.37181 6.47653 4.30754 6.6319 4.30754 6.79389V37.1941C4.30754 37.356 4.37181 37.5114 4.48626 37.6261C4.6007 37.7407 4.75595 37.8053 4.91794 37.8056H26.544C26.7061 37.8053 26.8615 37.7408 26.9761 37.6261C27.0907 37.5115 27.1552 37.3561 27.1555 37.1941V6.79389C27.1552 6.6318 27.0907 6.47643 26.9761 6.36181C26.8615 6.24719 26.7061 6.18267 26.544 6.18237H4.91794Z" fill="#EFEFEF"/>
<path d="M50.7707 37.8336H29.1435C28.974 37.8333 28.8115 37.7658 28.6916 37.6459C28.5718 37.5261 28.5043 37.3636 28.504 37.1941V6.79389C28.5058 6.62535 28.5739 6.46429 28.6936 6.34562C28.8133 6.22696 28.975 6.16026 29.1435 6.15997H50.7707C50.939 6.16056 51.1002 6.22743 51.2195 6.34609C51.3388 6.46475 51.4065 6.62564 51.408 6.79389V37.1941C51.408 37.3633 51.3409 37.5256 51.2215 37.6455C51.102 37.7653 50.9399 37.833 50.7707 37.8336V37.8336ZM29.1435 6.18237C28.9814 6.18267 28.8261 6.24719 28.7114 6.36181C28.5968 6.47643 28.5323 6.6318 28.532 6.79389V37.1941C28.5323 37.3561 28.5968 37.5115 28.7114 37.6261C28.8261 37.7408 28.9814 37.8053 29.1435 37.8056H50.7707C50.9328 37.8053 51.0882 37.7408 51.2028 37.6261C51.3174 37.5115 51.3819 37.3561 51.3822 37.1941V6.79389C51.3819 6.6318 51.3174 6.47643 51.2028 6.36181C51.0882 6.24719 50.9328 6.18267 50.7707 6.18237H29.1435Z" fill="#EFEFEF"/>
<path d="M47.1766 29.7673H44.3229V42.8288H47.1766V29.7673Z" fill="#EFEFEF"/>
<path d="M46.6346 42.8288H47.1766V41.2866H46.0667L46.6346 42.8288Z" fill="#FAFAFA"/>
<path d="M36.512 29.7673H33.6582V42.8288H36.512V29.7673Z" fill="#EFEFEF"/>
<path d="M47.1766 29.7673H36.0382V41.8824H47.1766V29.7673Z" fill="#FAFAFA"/>
<path d="M41.7894 35.9497V39.9548H46.7566V35.9497H41.7894Z" fill="#EFEFEF"/>
<path d="M36.4594 35.9497V39.9548H41.4265V35.9497H36.4594Z" fill="#EFEFEF"/>
<path d="M39.4341 36.382H38.4507C38.2395 36.382 38.0306 36.3388 37.8367 36.2553C37.6428 36.1717 37.4679 36.0494 37.3229 35.8959H40.5619C40.4169 36.0494 40.242 36.1717 40.0481 36.2553C39.8542 36.3388 39.6452 36.382 39.4341 36.382V36.382Z" fill="#FAFAFA"/>
<path d="M44.8146 36.382H43.8323C43.621 36.382 43.4119 36.3389 43.2178 36.2553C43.0236 36.1717 42.8486 36.0494 42.7034 35.8959H45.9435C45.7982 36.0493 45.6231 36.1715 45.429 36.2551C45.2349 36.3387 45.0259 36.3819 44.8146 36.382V36.382Z" fill="#FAFAFA"/>
<path d="M41.7894 30.679V34.6841H46.7566V30.679H41.7894Z" fill="#EFEFEF"/>
<path d="M36.4582 30.6801V34.6852H41.4254V30.6801H36.4582Z" fill="#EFEFEF"/>
<path d="M39.4341 31.1114H38.4507C38.2397 31.1113 38.0308 31.0682 37.8369 30.9848C37.643 30.9015 37.4681 30.7795 37.3229 30.6264H40.5619C40.4167 30.7795 40.2418 30.9015 40.0479 30.9848C39.854 31.0682 39.6451 31.1113 39.4341 31.1114V31.1114Z" fill="#FAFAFA"/>
<path d="M44.8146 31.1114H43.8323C43.6211 31.1113 43.4121 31.0683 43.218 30.9849C43.0239 30.9015 42.8488 30.7796 42.7034 30.6264H45.9435C45.798 30.7794 45.6228 30.9013 45.4288 30.9847C45.2347 31.0681 45.0258 31.1112 44.8146 31.1114V31.1114Z" fill="#FAFAFA"/>
<path d="M36.5803 42.8288H36.0382V41.2866H37.1493L36.5803 42.8288Z" fill="#FAFAFA"/>
<path d="M38.7935 27.7211C38.7935 28.2206 39.1407 28.5678 38.6411 28.5678C38.1416 28.5678 36.9858 28.2206 36.9858 27.7211C36.9858 27.4814 37.081 27.2515 37.2505 27.082C37.42 26.9125 37.6499 26.8173 37.8896 26.8173C38.1293 26.8173 38.3592 26.9125 38.5287 27.082C38.6982 27.2515 38.7935 27.4814 38.7935 27.7211V27.7211Z" fill="#EFEFEF"/>
<path d="M40.3402 28.1523C40.3402 28.6506 40.6874 28.999 40.1878 28.999C39.6883 28.999 38.528 28.6506 38.528 28.1523C38.528 27.9125 38.6232 27.6826 38.7927 27.5131C38.9622 27.3436 39.1921 27.2484 39.4318 27.2484C39.6716 27.2484 39.9015 27.3436 40.071 27.5131C40.2405 27.6826 40.3357 27.9125 40.3357 28.1523H40.3402Z" fill="#EFEFEF"/>
<path d="M41.8219 27.888C41.8219 28.3864 42.1691 28.7347 41.6696 28.7347C41.1701 28.7347 40.0142 28.3864 40.0142 27.888C40.0142 27.6483 40.1094 27.4184 40.2789 27.2489C40.4485 27.0794 40.6783 26.9841 40.9181 26.9841C41.1578 26.9841 41.3877 27.0794 41.5572 27.2489C41.7267 27.4184 41.8219 27.6483 41.8219 27.888V27.888Z" fill="#EFEFEF"/>
<path d="M36.4325 28C36.4325 28 36.5064 29.7629 39.3389 29.7629C42.1713 29.7629 42.2441 28 42.2441 28H36.4325Z" fill="#F2F2F2"/>
<path d="M47.2954 8.28687H32.9336V24.1797H47.2954V8.28687Z" fill="#EFEFEF"/>
<path d="M48.832 7.79627H32.004C31.9852 7.79612 31.9666 7.79969 31.9492 7.80677C31.9319 7.81386 31.916 7.82431 31.9027 7.83753C31.8894 7.85076 31.8788 7.86649 31.8716 7.88382C31.8644 7.90115 31.8607 7.91974 31.8607 7.93851V7.93851C31.8607 7.97653 31.8758 8.01299 31.9026 8.03988C31.9295 8.06677 31.966 8.08187 32.004 8.08187H48.832C48.8508 8.08187 48.8694 8.07815 48.8867 8.07094C48.904 8.06372 48.9198 8.05314 48.933 8.03981C48.9462 8.02649 48.9567 8.01067 48.9637 7.99329C48.9708 7.9759 48.9744 7.95728 48.9742 7.93851V7.93851C48.9742 7.90078 48.9593 7.86461 48.9326 7.83793C48.9059 7.81125 48.8697 7.79627 48.832 7.79627V7.79627Z" fill="#EFEFEF"/>
<path d="M47.9047 8.28687H33.2181V24.1797H47.9047V8.28687Z" fill="#F2F2F2"/>
<path d="M47.2954 24.1797H32.9336V25.312H47.2954V24.1797Z" fill="#EFEFEF"/>
<path d="M48.9193 24.1797H34.2328V25.312H48.9193V24.1797Z" fill="#F2F2F2"/>
<path d="M47.0512 23.3251V9.13916H34.0715V23.3251H47.0512Z" fill="#EFEFEF"/>
<path d="M37.0182 23.3262L42.0258 9.14026H44.389L39.3814 23.3262H37.0182Z" fill="#FAFAFA"/>
<path d="M39.8888 23.3262L44.8963 9.14026H45.8181L40.8106 23.3262H39.8888Z" fill="#FAFAFA"/>
<path d="M47.0512 23.3262V9.14032H46.9426V23.3262H47.0512Z" fill="#EFEFEF"/>
<path d="M34.0816 7.54095H32.6133V21.2296H34.0816V7.54095Z" fill="#F2F2F2"/>
<path d="M34.6528 7.54095H33.5093V21.2296H34.6528V7.54095Z" fill="#EFEFEF"/>
<path d="M35.5499 7.54095H34.0816V21.2296H35.5499V7.54095Z" fill="#F2F2F2"/>
<path d="M36.1211 7.54095H34.9776V21.2296H36.1211V7.54095Z" fill="#EFEFEF"/>
<path d="M37.0182 7.54095H35.5499V21.2296H37.0182V7.54095Z" fill="#F2F2F2"/>
<path d="M46.5046 7.54095H45.659V21.2296H46.5046V7.54095Z" fill="#F2F2F2"/>
<path d="M46.835 7.54095H46.1754V21.2296H46.835V7.54095Z" fill="#EFEFEF"/>
<path d="M47.3503 7.54095H46.5047V21.2296H47.3503V7.54095Z" fill="#F2F2F2"/>
<path d="M47.6806 7.54095H47.021V21.2296H47.6806V7.54095Z" fill="#EFEFEF"/>
<path d="M48.1969 7.54095H47.3513V21.2296H48.1969V7.54095Z" fill="#F2F2F2"/>
<path d="M12.3614 11.8317H10.8315V16.0059H12.3614V11.8317Z" fill="#F2F2F2"/>
<path d="M8.74049 16.9613L8.25441 18.2874H8.74049L11.7152 16.9613H8.74049Z" fill="#FAFAFA"/>
<path d="M8.25441 16.9613V18.2874L11.2302 16.9613H8.25441Z" fill="#EFEFEF"/>
<path d="M20.4064 16.9613L19.9214 18.2874H20.4064L23.3822 16.9613H20.4064Z" fill="#FAFAFA"/>
<path d="M19.9214 16.9613V18.2874L22.8962 16.9613H19.9214Z" fill="#EFEFEF"/>
<path d="M6.07153 17.024H9.30721V16.0149H6.07153V17.024Z" fill="#EFEFEF"/>
<path d="M25.3927 16.0148H9.30609V17.024H25.3927V16.0148Z" fill="#FAFAFA"/>
<path d="M14.9094 16.0059H11.1854L10.7251 10.9468H14.4491L14.9094 16.0059Z" fill="#EFEFEF"/>
<path d="M15.1021 16.0059H11.3792L10.9178 10.9468H14.6418L15.1021 16.0059Z" fill="#FAFAFA"/>
<path d="M11.8877 15.4459L11.5293 11.5068H14.1333L14.4917 15.4459H11.8877Z" fill="#FAFAFA"/>
<path d="M16.6051 14.3629C16.6051 14.3629 16.6734 16.0059 19.3133 16.0059C21.9531 16.0059 22.0214 14.3629 22.0214 14.3629H16.6051Z" fill="#F2F2F2"/>
<path d="M13.8611 42.4659H9.78096C9.68858 42.4678 9.59805 42.4399 9.52271 42.3864C9.44736 42.333 9.39118 42.2567 9.36245 42.1689C9.33372 42.0811 9.33396 41.9863 9.36313 41.8987C9.39231 41.811 9.44887 41.735 9.52448 41.6819L9.59056 41.7715C9.53681 41.8117 9.49705 41.8678 9.4769 41.9319C9.45675 41.9959 9.45723 42.0647 9.47827 42.1284C9.49932 42.1922 9.53986 42.2477 9.59417 42.2872C9.64849 42.3266 9.71383 42.348 9.78096 42.3483H13.8611C14.1111 42.348 14.3508 42.2486 14.5276 42.0718C14.7044 41.895 14.8039 41.6553 14.8042 41.4053V29.3306C14.8045 29.0585 14.9126 28.7976 15.1049 28.6051C15.2972 28.4126 15.558 28.3041 15.8301 28.3035H17.0509V28.4155H15.8301C15.5877 28.4161 15.3554 28.5127 15.1841 28.6843C15.0128 28.8558 14.9165 29.0882 14.9162 29.3306V41.4109C14.9156 41.6905 14.8042 41.9585 14.6065 42.1563C14.4088 42.354 14.1408 42.4653 13.8611 42.4659V42.4659Z" fill="#EFEFEF"/>
<path d="M27.4904 28.5342H20.1421V42.8288H27.4904V28.5342Z" fill="#EFEFEF"/>
<path d="M27.767 28.5342H27.1611V42.8288H27.767V28.5342Z" fill="#F2F2F2"/>
<path d="M13.3426 29.6061L27.9541 29.6061V28.5342H13.3426V29.6061Z" fill="#F2F2F2"/>
<path d="M13.2552 28.5342H5.90689V42.8288H13.2552V28.5342Z" fill="#EFEFEF"/>
<path d="M13.5307 28.5342H12.9248V42.8288H13.5307V28.5342Z" fill="#F2F2F2"/>
<path d="M10.9794 24.267H17.827L18.8194 28.3102H11.9717L10.9794 24.267Z" fill="#EFEFEF"/>
<path d="M11.9717 28.3102L11.9997 28.5342H18.8474L18.8205 28.3102H11.9717Z" fill="#EFEFEF"/>
<path d="M11.191 24.267H18.0387L19.031 28.3102H12.1833L11.191 24.267Z" fill="#FAFAFA"/>
<path d="M12.3278 28.1254L11.4262 24.4518H17.8931L18.7947 28.1254H12.3278Z" fill="#FAFAFA"/>
<path d="M13.9675 28.3102L13.9944 28.5342H21.5354L21.5074 28.3102H13.9675Z" fill="#FAFAFA"/>
<path d="M8.63183 27.515C8.63183 27.515 7.62383 25.7779 9.02271 24.3947C9.02271 24.3947 9.38671 24.6332 9.38111 24.9547C9.37551 25.2761 8.99135 25.3556 9.07311 25.6267C9.15487 25.8977 9.52111 26.1553 9.28143 26.3759C9.04175 26.5966 9.31951 26.7926 9.30383 27.0636C9.28815 27.3347 8.63183 27.515 8.63183 27.515Z" fill="#FAFAFA"/>
<path d="M8.70799 27.6741C8.70799 27.6741 9.11679 25.7074 7.35391 24.836C7.35391 24.836 7.08287 25.1776 7.18927 25.4789C7.29567 25.7802 7.68655 25.7354 7.69215 26.0154C7.69775 26.2954 7.43455 26.6571 7.73135 26.7915C8.02815 26.9259 7.82543 27.1992 7.92623 27.4501C8.02703 27.701 8.70799 27.6741 8.70799 27.6741Z" fill="#FAFAFA"/>
<path d="M7.168 27.2383C7.168 27.2383 7.2016 28.5342 8.48624 28.5342C9.77088 28.5342 9.80112 27.2383 9.80112 27.2383H7.168Z" fill="#EFEFEF"/>
<path d="M25.2829 42.8288H25.0275L24.2962 39.2268L24.1685 38.5963L23.371 34.6763H20.3146L18.6581 42.8288H18.4027L20.0906 34.5206C20.0961 34.4923 20.1113 34.4669 20.1336 34.4487C20.1559 34.4305 20.1839 34.4206 20.2126 34.4209H23.473C23.5018 34.4206 23.5297 34.4305 23.552 34.4487C23.5743 34.4669 23.5896 34.4923 23.595 34.5206L24.295 37.9679L24.4238 38.5985L25.2829 42.8288Z" fill="#F2F2F2"/>
<path d="M30.1896 42.8288H29.9331L28.2766 34.6718H25.2213L24.4238 38.5985L24.2962 39.2268L23.5648 42.8288H23.3094L24.1685 38.5963L24.295 37.9679L24.9962 34.5206C25.0016 34.4923 25.0169 34.4669 25.0392 34.4487C25.0615 34.4305 25.0894 34.4206 25.1182 34.4209H28.3786C28.4074 34.4208 28.4354 34.4307 28.4579 34.4488C28.4803 34.467 28.4958 34.4923 28.5018 34.5206L30.1896 42.8288Z" fill="#F2F2F2"/>
<path d="M22.6565 34.5464H28.2722C28.7874 34.5459 29.2819 34.3436 29.6497 33.9829C30.0176 33.6222 30.2295 33.1317 30.24 32.6166L30.4494 24.0822C30.4524 23.892 30.4175 23.703 30.3468 23.5264C30.2762 23.3497 30.1711 23.1889 30.0377 23.0532C29.9043 22.9175 29.7453 22.8097 29.5698 22.736C29.3944 22.6623 29.2061 22.6242 29.0158 22.624H25.4957C25.1433 22.6241 24.8033 22.7539 24.5404 22.9885C24.2775 23.2231 24.11 23.5462 24.0699 23.8963L22.6565 34.5464Z" fill="#F2F2F2"/>
<path d="M25.7186 34.5464H19.7344C19.6601 34.5464 19.5889 34.5169 19.5364 34.4644C19.4839 34.4119 19.4544 34.3406 19.4544 34.2664V34.2395C19.4544 34.0354 19.5355 33.8397 19.6798 33.6954C19.8241 33.5511 20.0198 33.4701 20.2238 33.4701H25.7186V34.5464Z" fill="#F2F2F2"/>
<path d="M11.6948 24.1664C15.8948 21.2835 22.0772 24.5965 25.7956 21.3306C28.086 19.3146 28.2461 16.2391 29.6976 13.8389C30.9778 11.7221 33.4407 10.7556 35.8128 10.6503C40.7162 10.4341 46.9893 13.6463 46.8695 19.2239C46.7575 24.5013 40.0375 25.5496 39.8224 31.0488C39.632 36.0093 44.3887 40.169 38.6106 43.8359C34.237 46.6123 28.348 45.2919 26.0576 40.5072C24.8391 37.9626 24.4168 36.1112 21.4802 34.9072C18.9524 33.8757 16.4402 34.7045 13.8564 34.2016C8.73459 33.2048 7.27859 27.1904 11.6948 24.1664Z" fill="#0064FF"/>
<path opacity="0.9" d="M11.6948 24.1664C15.8948 21.2835 22.0772 24.5965 25.7956 21.3306C28.086 19.3146 28.2461 16.2391 29.6976 13.8389C30.9778 11.7221 33.4407 10.7556 35.8128 10.6503C40.7162 10.4341 46.9893 13.6463 46.8695 19.2239C46.7575 24.5013 40.0375 25.5496 39.8224 31.0488C39.632 36.0093 44.3887 40.169 38.6106 43.8359C34.237 46.6123 28.348 45.2919 26.0576 40.5072C24.8391 37.9626 24.4168 36.1112 21.4802 34.9072C18.9524 33.8757 16.4402 34.7045 13.8564 34.2016C8.73459 33.2048 7.27859 27.1904 11.6948 24.1664Z" fill="white"/>
<path d="M28 47.8867C39.9932 47.8867 49.7157 47.3191 49.7157 46.6189C49.7157 45.9186 39.9932 45.351 28 45.351C16.0068 45.351 6.28432 45.9186 6.28432 46.6189C6.28432 47.3191 16.0068 47.8867 28 47.8867Z" fill="#EFEFEF"/>
<mask id="mask0" style="mask-type:alpha" maskUnits="userSpaceOnUse" x="24" y="18" width="10" height="10">
<path d="M28.8389 27.16C28.6075 27.1598 28.3765 27.1418 28.1478 27.1063C26.9988 26.927 25.9639 26.3097 25.2602 25.3839C24.5565 24.4581 24.2388 23.2957 24.3736 22.1406C24.5084 20.9856 25.0854 19.9276 25.9834 19.1888C26.8814 18.4499 28.0307 18.0875 29.19 18.1777C30.3494 18.2679 31.4288 18.8037 32.2018 19.6725C32.9747 20.5414 33.3811 21.6758 33.3357 22.8378C33.2902 23.9998 32.7965 25.0991 31.9581 25.905C31.1197 26.7108 30.0018 27.1606 28.8389 27.16Z" fill="black"/>
</mask>
<g mask="url(#mask0)">
<path d="M28.8389 27.16C28.6075 27.1598 28.3765 27.1418 28.1478 27.1063C26.9988 26.927 25.9639 26.3097 25.2602 25.3839C24.5565 24.4581 24.2388 23.2957 24.3736 22.1406C24.5084 20.9856 25.0854 19.9276 25.9834 19.1888C26.8814 18.4499 28.0307 18.0875 29.19 18.1777C30.3494 18.2679 31.4288 18.8037 32.2018 19.6725C32.9747 20.5414 33.3811 21.6758 33.3357 22.8378C33.2902 23.9998 32.7965 25.0991 31.9581 25.905C31.1197 26.7108 30.0018 27.1606 28.8389 27.16Z" fill="#E2F4FF"/>
<path d="M29.542 23.5382C28.6522 23.2847 27.3036 22.9589 26.1174 22.9081C26.1174 22.9081 26.037 23.77 25.8833 24.9291C25.826 25.3608 25.7606 25.8275 25.6824 26.3172C25.6702 26.3896 25.6591 26.4622 25.6453 26.5399L25.6262 26.6511C25.6014 26.7968 25.5764 26.9436 25.5506 27.089C25.5413 27.1201 25.5396 27.1535 25.5335 27.1856C26.0491 27.7273 26.6926 28.1309 27.4048 28.3592C28.117 28.5876 28.8751 28.6334 29.6096 28.4924C30.027 27.0601 30.4798 25.2189 30.5181 23.8548C30.5227 23.8433 30.1342 23.7076 29.542 23.5382Z" fill="#407BFF"/>
<path opacity="0.6" d="M29.542 23.5382C28.6522 23.2847 27.3036 22.9589 26.1174 22.9081C26.1174 22.9081 26.037 23.77 25.8833 24.9291C25.826 25.3608 25.7606 25.8275 25.6824 26.3172C25.6702 26.3896 25.6591 26.4622 25.6453 26.5399L25.6262 26.6511C25.6014 26.7968 25.5764 26.9436 25.5506 27.089C25.5413 27.1201 25.5396 27.1535 25.5335 27.1856C26.0491 27.7273 26.6926 28.1309 27.4048 28.3592C28.117 28.5876 28.8751 28.6334 29.6096 28.4924C30.027 27.0601 30.4798 25.2189 30.5181 23.8548C30.5227 23.8433 30.1342 23.7076 29.542 23.5382Z" fill="white"/>
<path d="M27.6146 23.1544C27.8729 23.582 28.7746 23.7209 28.7746 23.7209C28.7746 23.7209 29.3554 23.7327 29.2999 23.5268C28.9936 23.3783 28.8867 23.184 28.88 22.9752C28.8808 22.8469 28.9067 22.72 28.9562 22.6017C28.9763 22.5341 29.0118 22.4698 29.0438 22.4057L28.2068 21.2927C28.19 21.8627 28.0746 22.8778 27.6146 23.1544Z" fill="#EBB376"/>
<path opacity="0.2" d="M28.302 21.8751C28.1531 22.5319 28.6287 22.8653 28.8759 22.981C28.8768 22.8527 28.9027 22.7259 28.9521 22.6075L28.302 21.8751Z" fill="black"/>
<path d="M30.2766 20.1156C30.2766 20.1156 30.3626 21.1684 29.7814 21.5305C29.2002 21.8926 29.3352 19.9531 29.3352 19.9531L30.2766 20.1156Z" fill="#263238"/>
<path d="M28.1177 22.2467C28.222 22.4262 28.3823 22.5666 28.5739 22.6465C28.7656 22.7264 28.9781 22.7414 29.179 22.6891C29.4397 22.6257 29.6666 22.4657 29.8138 22.2414C29.8348 22.2102 29.8525 22.1781 29.8716 22.1417C30.1879 21.5231 30.3521 20.415 29.7064 19.9503C29.5646 19.847 29.3987 19.7816 29.2244 19.7606C29.0502 19.7395 28.8735 19.7633 28.7111 19.8299C28.5487 19.8964 28.406 20.0034 28.2967 20.1407C28.1873 20.278 28.1149 20.4409 28.0864 20.6141C27.953 21.3562 27.8435 21.7863 28.1177 22.2467Z" fill="#EBB376"/>
<path d="M29.1457 21.091C29.1281 21.1501 29.1491 21.2089 29.1878 21.2204C29.2264 21.2319 29.2694 21.1898 29.2842 21.1323C29.299 21.0748 29.2797 21.0141 29.2394 21.0079C29.1992 21.0018 29.1601 21.031 29.1457 21.091Z" fill="#263238"/>
<path d="M29.8168 21.2548C29.7995 21.3127 29.8213 21.373 29.86 21.3845C29.8986 21.396 29.9419 21.3528 29.9553 21.296C29.9687 21.2393 29.9508 21.1778 29.9105 21.1717C29.8703 21.1655 29.8302 21.198 29.8168 21.2548Z" fill="#263238"/>
<path d="M29.5957 21.2321C29.6224 21.4311 29.6766 21.6254 29.7567 21.8095C29.7087 21.8288 29.6571 21.8373 29.6054 21.8345C29.5537 21.8316 29.5034 21.8174 29.4578 21.7929L29.5957 21.2321Z" fill="#D58745"/>
<path d="M28.9893 20.8236C28.9957 20.8259 29.0025 20.8265 29.0092 20.8255C29.0158 20.8244 29.0221 20.8216 29.0274 20.8174C29.0617 20.7881 29.1023 20.7672 29.1461 20.7565C29.1899 20.7458 29.2356 20.7456 29.2795 20.7557C29.284 20.7571 29.2887 20.7575 29.2934 20.757C29.2981 20.7566 29.3026 20.7552 29.3068 20.7529C29.3109 20.7507 29.3146 20.7477 29.3175 20.744C29.3205 20.7403 29.3227 20.7361 29.3241 20.7316C29.3254 20.7271 29.3259 20.7224 29.3254 20.7177C29.3249 20.713 29.3235 20.7085 29.3212 20.7043C29.319 20.7002 29.316 20.6965 29.3123 20.6936C29.3087 20.6906 29.3045 20.6884 29.3 20.687V20.687C29.2448 20.6734 29.1873 20.6731 29.132 20.6861C29.0767 20.6991 29.0253 20.725 28.982 20.7618C28.9746 20.7677 28.9697 20.7763 28.9685 20.7857C28.9672 20.7951 28.9696 20.8046 28.9751 20.8123V20.8123C28.9793 20.8167 28.9841 20.8205 28.9893 20.8236V20.8236Z" fill="#263238"/>
<path d="M30.1617 21.0934C30.1677 21.0975 30.1749 21.0997 30.1821 21.0995C30.1913 21.0975 30.1994 21.092 30.2046 21.0842C30.2098 21.0763 30.2116 21.0667 30.2098 21.0575V21.0575C30.199 21.0014 30.1749 20.9487 30.1394 20.904C30.1039 20.8592 30.0581 20.8237 30.0059 20.8004C30.0016 20.7985 29.997 20.7975 29.9923 20.7974C29.9875 20.7974 29.9829 20.7984 29.9785 20.8003C29.9742 20.8022 29.9704 20.805 29.9672 20.8085C29.964 20.812 29.9616 20.8162 29.9602 20.8207V20.8207C29.9572 20.8294 29.9576 20.839 29.9614 20.8475C29.9651 20.856 29.9719 20.8627 29.9804 20.8664V20.8664C30.0211 20.886 30.0566 20.9149 30.0841 20.9507C30.1115 20.9865 30.1303 21.0282 30.1387 21.0725C30.1406 21.0776 30.1437 21.0822 30.1477 21.0858C30.1517 21.0894 30.1565 21.092 30.1617 21.0934V21.0934Z" fill="#263238"/>
<path d="M28.8446 19.8385L28.8216 20.1705C28.7616 20.1861 28.7096 20.2237 28.6761 20.2759C28.6425 20.3281 28.6299 20.391 28.6407 20.4521C28.6923 20.7456 28.4556 21.1402 28.213 21.2677C28.213 21.2677 28.2298 21.1488 28.1287 21.1585C28.0277 21.1681 27.9315 21.7892 28.0697 22.1214C27.8715 21.7979 27.7605 21.4287 27.7475 21.0495C27.7092 20.4211 27.8296 19.9895 27.9915 19.7795L28.8446 19.8385Z" fill="#263238"/>
<path d="M27.6239 21.1389C27.6656 21.3224 27.7781 21.4819 27.9369 21.5828C28.1484 21.716 28.3258 21.5444 28.3277 21.3066C28.3273 21.0961 28.2189 20.7658 27.9747 20.7339C27.922 20.7266 27.8682 20.7325 27.8184 20.7512C27.7685 20.7699 27.7241 20.8008 27.6892 20.841C27.6543 20.8813 27.6301 20.9296 27.6186 20.9817C27.6072 21.0337 27.609 21.0878 27.6239 21.1389V21.1389Z" fill="#EBB376"/>
<path d="M28.8223 20.1684C28.8223 20.1684 29.5172 20.6758 30.0816 20.3975C30.646 20.1193 30.3007 19.411 30.3007 19.411C30.1607 19.4897 29.9971 19.5156 29.8396 19.484C29.5865 19.4273 29.0589 19.1076 28.5271 19.2098C27.9953 19.3119 27.6261 19.9195 27.9551 20.3447L28.8223 20.1684Z" fill="#263238"/>
<path d="M29.0455 22C29.0674 22.0735 29.1126 22.1379 29.1744 22.1833C29.2362 22.2287 29.3111 22.2527 29.3878 22.2516" fill="#263238"/>
<path fill-rule="evenodd" clip-rule="evenodd" d="M29.0242 21.9281C29.0639 21.9163 29.1057 21.9389 29.1175 21.9786C29.1346 22.0365 29.1702 22.0871 29.2188 22.1228C29.2674 22.1586 29.3264 22.1774 29.3867 22.1766C29.4281 22.176 29.4622 22.209 29.4628 22.2505C29.4634 22.2919 29.4303 22.3259 29.3889 22.3265C29.2959 22.3279 29.205 22.2988 29.13 22.2437C29.055 22.1886 29.0001 22.1105 28.9737 22.0213C28.9619 21.9816 28.9845 21.9399 29.0242 21.9281Z" fill="#263238"/>
<path d="M29.1444 23.7704L28.8851 24.2482C28.8851 24.2482 28.7409 26.9014 28.4871 28.2199L28.2084 28.3706L27.9321 28.0546C27.9321 28.0546 28.6815 25.4298 28.7084 24.2412L28.3032 23.6401L28.7732 23.6317L29.1444 23.7704Z" fill="#407BFF"/>
<path d="M27.8805 22.7054L28.7717 23.4758L28.9425 23.1223L29.2817 23.3683C29.3401 23.4109 29.3826 23.4717 29.4026 23.5412C29.4225 23.6106 29.4187 23.6847 29.3918 23.7518L29.2271 24.1479L28.7898 23.7091L28.4193 23.9996L27.3603 23.0354L27.8805 22.7054Z" fill="#407BFF"/>
<path opacity="0.7" d="M27.8805 22.7054L28.7717 23.4758L28.9425 23.1223L29.2817 23.3683C29.3401 23.4109 29.3826 23.4717 29.4026 23.5412C29.4225 23.6106 29.4187 23.6847 29.3918 23.7518L29.2271 24.1479L28.7898 23.7091L28.4193 23.9996L27.3603 23.0354L27.8805 22.7054Z" fill="white"/>
<path d="M30.5249 23.8439L29.341 23.4281C29.2604 24.4558 28.4873 26.9052 28.4873 26.9052C28.1399 24.0589 27.4038 22.9794 27.4038 22.9794L26.117 22.9092C25.9715 23.5858 25.6451 25.6306 25.4231 27.058C25.9515 27.6573 26.631 28.1037 27.3908 28.3507C28.1507 28.5976 28.9628 28.6361 29.7426 28.4619C30.7408 25.4567 30.5249 23.8439 30.5249 23.8439Z" fill="#263238"/>
<path opacity="0.1" d="M30.0599 27.4323C30.6943 25.0911 30.5239 23.8472 30.5239 23.8472L29.341 23.4281C29.2712 24.3095 28.6913 26.2403 28.529 26.7692C28.5031 26.8562 28.4887 26.9045 28.4887 26.9045L28.469 26.7432C28.1123 24.018 27.4063 22.979 27.4063 22.979L27.3176 22.9748L26.1203 22.9102C26.0376 23.2934 25.8968 24.1151 25.7477 25.0196C25.702 25.3064 25.6543 25.5995 25.6055 25.8888C25.5567 26.1781 25.52 26.4348 25.4826 26.6936C25.4622 26.8208 25.4432 26.9437 25.425 27.0633C25.9536 27.663 26.6335 28.1097 27.3937 28.3567C28.1539 28.6038 28.9665 28.6422 29.7466 28.4678C29.7617 28.4174 29.7786 28.3605 29.7977 28.316C29.8975 28.0021 29.9849 27.7075 30.0599 27.4323Z" fill="white"/>
<path opacity="0.2" d="M29.6174 24.7364L29.7495 25.3087C29.7495 25.3087 28.8992 27.1075 28.2411 27.6254L28.3572 27.2358L27.1777 24.6288L27.6481 24.2267L26.7904 24.1441C26.7904 24.1441 26.9391 23.3704 27.3187 22.9751L27.4071 22.9804C27.4071 22.9804 28.1428 24.0609 28.4894 26.9059C28.4894 26.9059 29.2639 24.4558 29.3442 23.4291C29.3442 23.4291 29.8239 23.9097 29.9887 24.847L29.6174 24.7364Z" fill="white"/>
<path opacity="0.2" d="M29.8003 28.3074C29.8978 27.9983 29.985 27.7056 30.0619 27.4294L28.5333 26.7705L28.4711 26.7438L27.5038 26.3271L26.6566 24.3146L25.6104 25.8844C25.5682 26.1594 25.5248 26.4304 25.4874 26.6892C25.4671 26.8164 25.448 26.9393 25.4299 27.0589C25.8144 27.4956 26.2811 27.8523 26.8035 28.1086C27.4282 28.0075 28.0463 27.8689 28.6544 27.6936C29.1233 27.9713 29.5103 28.1707 29.8003 28.3074Z" fill="black"/>
<path d="M30.5245 23.845C30.533 24.3288 30.5134 24.8126 30.4656 25.2941C30.4241 25.7157 30.3601 26.1347 30.2738 26.5494L27.5985 26.6404L27.3534 27.0711C27.3534 27.0711 29.463 27.9883 30.7251 28.1178C31.0739 27.9472 31.3991 27.7322 31.6928 27.4782C31.7493 26.3276 30.961 24.0943 30.5245 23.845Z" fill="#263238"/>
<path opacity="0.1" d="M30.5249 23.8439C30.5339 24.2875 30.5188 24.7313 30.4794 25.1732C30.4765 25.2144 30.4728 25.2542 30.4688 25.2951C30.4267 25.7166 30.3627 26.1355 30.2771 26.5504L28.5334 26.6093L27.601 26.64L27.3558 27.0707C27.3558 27.0707 27.6782 27.2123 28.1475 27.3907C28.4327 27.5002 28.7715 27.6222 29.1253 27.737C29.6451 27.9162 30.1812 28.0442 30.7259 28.1192C31.075 27.9487 31.4006 27.7339 31.6947 27.4799C31.7494 26.3276 30.961 24.0943 30.5249 23.8439Z" fill="white"/>
<path opacity="0.2" d="M30.9791 26.7513C30.4073 27.1617 29.783 27.4933 29.1228 27.7374C28.769 27.6226 28.4303 27.5006 28.145 27.3911C28.1435 27.2014 28.1721 27.0127 28.2298 26.832L28.5289 26.6126L30.2726 26.5537C30.3582 26.1388 30.4222 25.7198 30.4643 25.2984C30.4683 25.2575 30.472 25.2177 30.4749 25.1765L30.4864 25.1694C30.4864 25.1694 31.0345 25.9182 30.9791 26.7513Z" fill="black"/>
<path d="M27.9165 26.4559C27.9165 26.4559 27.5485 25.922 27.3772 25.8067C27.2058 25.6914 26.7543 25.8654 26.7543 25.8654L27.0258 26.6802L27.9165 26.4559Z" fill="#EBB376"/>
<path d="M30.1147 27.0209L30.9791 26.7514C30.9791 26.7514 30.5521 26.1999 30.4848 26.167C30.4175 26.1341 29.9358 26.4405 29.9358 26.4405L30.1147 27.0209Z" fill="#EBB376"/>
<path d="M26.1213 22.9105C25.3181 23.0452 25.3295 26.6703 25.9974 27.6055C26.6653 28.5408 30.3138 27.0744 30.3138 27.0744L30.0545 26.317C30.0545 26.317 27.5091 26.4385 27.2301 26.2689C26.9511 26.0993 26.6514 24.132 26.5053 23.6537C26.4062 23.3488 26.247 23.0669 26.0371 22.8247" fill="#263238"/>
<path opacity="0.1" d="M26.1213 22.9105C25.3181 23.0452 25.3295 26.6703 25.9974 27.6055C26.6653 28.5408 30.3138 27.0744 30.3138 27.0744L30.0545 26.317C30.0545 26.317 27.5091 26.4385 27.2301 26.2689C26.9511 26.0993 26.6514 24.132 26.5053 23.6537C26.4062 23.3488 26.247 23.0669 26.0371 22.8247" fill="white"/>
</g>
<path opacity="0.6" d="M20.5845 14.8702L17.3017 36.0909L35.7728 38.9446L39.0555 17.7229L20.5845 14.8702ZM28.1736 26.9405C27.3258 26.8093 26.5359 26.4295 25.904 25.8493C25.272 25.2691 24.8263 24.5145 24.6234 23.6809C24.4204 22.8474 24.4692 21.9724 24.7636 21.1666C25.058 20.3608 25.5849 19.6604 26.2774 19.154C26.97 18.6477 27.7972 18.3582 28.6543 18.3221C29.5115 18.286 30.3601 18.5049 31.0928 18.9512C31.8255 19.3974 32.4093 20.051 32.7705 20.8292C33.1317 21.6074 33.2539 22.4752 33.1217 23.3229C32.9447 24.4585 32.3241 25.4774 31.3963 26.1557C30.4685 26.834 29.3094 27.1163 28.1736 26.9405Z" fill="#0064FF"/>
<g style="mix-blend-mode:multiply" opacity="0.3">
<path d="M35.215 38.1394H35.187L16.688 35.2733V35.2453L19.9797 14H20.0065L38.5056 16.8661V16.8941L35.215 38.1394ZM16.7518 35.2274L35.168 38.0755L38.4417 16.9075L20.0256 14.0638L16.7518 35.2274Z" fill="#0064FF"/>
</g>
<path d="M28.8389 27.16C28.6075 27.1597 28.3765 27.1417 28.1478 27.1062V27.1062C26.9988 26.927 25.9639 26.3097 25.2602 25.3838C24.5565 24.458 24.2388 23.2956 24.3736 22.1406C24.5084 20.9855 25.0854 19.9276 25.9834 19.1887C26.8814 18.4498 28.0307 18.0875 29.19 18.1777C30.3494 18.2679 31.4288 18.8036 32.2018 19.6725C32.9747 20.5413 33.3811 21.6758 33.3357 22.8378C33.2902 23.9998 32.7965 25.099 31.9581 25.9049C31.1197 26.7108 30.0018 27.1606 28.8389 27.16ZM28.1994 26.7747C29.0139 26.9005 29.8474 26.782 30.5946 26.4342C31.3418 26.0863 31.9691 25.5247 32.3971 24.8204C32.8251 24.1161 33.0347 23.3007 32.9994 22.4773C32.964 21.6538 32.6853 20.8594 32.1984 20.1943C31.7116 19.5293 31.0385 19.0235 30.2643 18.741C29.49 18.4585 28.6494 18.4119 27.8486 18.6071C27.0479 18.8023 26.323 19.2305 25.7657 19.8377C25.2083 20.4448 24.8434 21.2036 24.7173 22.0181C24.5496 23.1104 24.822 24.2246 25.4748 25.1164C26.1276 26.0081 27.1074 26.6045 28.1994 26.7747V26.7747Z" fill="#FAFAFA"/>
<path d="M24.6056 28.2534L20.5369 27.6242L20.3955 28.5385L24.4643 29.1676L24.6056 28.2534Z" fill="#0064FF"/>
<path opacity="0.6" d="M24.6056 28.2534L20.5369 27.6242L20.3955 28.5385L24.4643 29.1676L24.6056 28.2534Z" fill="#FAFAFA"/>
<path d="M27.8943 28.762L25.1416 28.3364L25.0002 29.2506L27.753 29.6763L27.8943 28.762Z" fill="#0064FF"/>
<path opacity="0.6" d="M27.8943 28.762L25.1416 28.3364L25.0002 29.2506L27.753 29.6763L27.8943 28.762Z" fill="#FAFAFA"/>
<path d="M34.963 31.7519L20.2497 29.4768L20.1083 30.3911L34.8216 32.6662L34.963 31.7519Z" fill="#FAFAFA"/>
<path d="M27.3855 32.5202L20.0563 31.4097L19.9175 32.3256L27.2467 33.4361L27.3855 32.5202Z" fill="#FAFAFA"/>
<path d="M33.4123 33.5026L28.5178 32.7458L28.3765 33.66L33.2709 34.4169L33.4123 33.5026Z" fill="#FAFAFA"/>
<path d="M31.4115 35.1843L19.6491 33.3655L19.5077 34.2797L31.2702 36.0986L31.4115 35.1843Z" fill="#FAFAFA"/>
<path d="M39.2526 38.9447H39.1406C39.141 38.6667 39.1068 38.3898 39.0387 38.1203L39.1507 38.0935C39.22 38.3719 39.2542 38.6578 39.2526 38.9447V38.9447ZM38.8136 37.4976C38.5671 36.9819 38.1946 36.5366 37.7305 36.2029L37.7955 36.1122C38.2748 36.4563 38.6599 36.9154 38.9155 37.4472L38.8136 37.4976Z" fill="#0064FF"/>
<path opacity="0.6" d="M39.2526 38.9447H39.1406C39.141 38.6667 39.1068 38.3898 39.0387 38.1203L39.1507 38.0935C39.22 38.3719 39.2542 38.6578 39.2526 38.9447V38.9447ZM38.8136 37.4976C38.5671 36.9819 38.1946 36.5366 37.7305 36.2029L37.7955 36.1122C38.2748 36.4563 38.6599 36.9154 38.9155 37.4472L38.8136 37.4976Z" fill="#FAFAFA"/>
<path d="M35.7728 35.8568C35.1621 35.8568 34.5651 36.0379 34.0573 36.3772C33.5495 36.7165 33.1537 37.1988 32.92 37.763C32.6863 38.3272 32.6251 38.9481 32.7443 39.5471C32.8634 40.146 33.1575 40.6962 33.5893 41.1281C34.0212 41.5599 34.5714 41.854 35.1704 41.9732C35.7693 42.0923 36.3902 42.0312 36.9544 41.7974C37.5187 41.5637 38.0009 41.168 38.3402 40.6602C38.6795 40.1524 38.8606 39.5554 38.8606 38.9447C38.8606 38.1257 38.5353 37.3403 37.9562 36.7612C37.3771 36.1821 36.5917 35.8568 35.7728 35.8568ZM35.7728 41.6327C35.2411 41.6327 34.7214 41.475 34.2794 41.1796C33.8374 40.8843 33.4928 40.4645 33.2894 39.9733C33.0859 39.4821 33.0327 38.9417 33.1364 38.4202C33.2401 37.8988 33.4961 37.4199 33.8721 37.0439C34.248 36.668 34.727 36.412 35.2484 36.3083C35.7698 36.2046 36.3103 36.2578 36.8014 36.4613C37.2926 36.6647 37.7124 37.0092 38.0078 37.4513C38.3031 37.8933 38.4608 38.413 38.4608 38.9447C38.4608 39.6576 38.1776 40.3413 37.6735 40.8454C37.1694 41.3495 36.4857 41.6327 35.7728 41.6327Z" fill="#0064FF"/>
<path opacity="0.6" d="M35.7728 35.8568C35.1621 35.8568 34.5651 36.0379 34.0573 36.3772C33.5495 36.7165 33.1537 37.1988 32.92 37.763C32.6863 38.3272 32.6251 38.9481 32.7443 39.5471C32.8634 40.146 33.1575 40.6962 33.5893 41.1281C34.0212 41.5599 34.5714 41.854 35.1704 41.9732C35.7693 42.0923 36.3902 42.0312 36.9544 41.7974C37.5187 41.5637 38.0009 41.168 38.3402 40.6602C38.6795 40.1524 38.8606 39.5554 38.8606 38.9447C38.8606 38.1257 38.5353 37.3403 37.9562 36.7612C37.3771 36.1821 36.5917 35.8568 35.7728 35.8568ZM35.7728 41.6327C35.2411 41.6327 34.7214 41.475 34.2794 41.1796C33.8374 40.8843 33.4928 40.4645 33.2894 39.9733C33.0859 39.4821 33.0327 38.9417 33.1364 38.4202C33.2401 37.8988 33.4961 37.4199 33.8721 37.0439C34.248 36.668 34.727 36.412 35.2484 36.3083C35.7698 36.2046 36.3103 36.2578 36.8014 36.4613C37.2926 36.6647 37.7124 37.0092 38.0078 37.4513C38.3031 37.8933 38.4608 38.413 38.4608 38.9447C38.4608 39.6576 38.1776 40.3413 37.6735 40.8454C37.1694 41.3495 36.4857 41.6327 35.7728 41.6327Z" fill="#FAFAFA"/>
<path d="M35.7728 41.6315C37.2567 41.6315 38.4597 40.4286 38.4597 38.9446C38.4597 37.4607 37.2567 36.2578 35.7728 36.2578C34.2889 36.2578 33.0859 37.4607 33.0859 38.9446C33.0859 40.4286 34.2889 41.6315 35.7728 41.6315Z" fill="#0064FF"/>
<path opacity="0.2" d="M35.7728 41.6315C37.2567 41.6315 38.4597 40.4286 38.4597 38.9446C38.4597 37.4607 37.2567 36.2578 35.7728 36.2578C34.2889 36.2578 33.0859 37.4607 33.0859 38.9446C33.0859 40.4286 34.2889 41.6315 35.7728 41.6315Z" fill="black"/>
<path d="M35.355 40.6448L33.7781 39.0678L34.1745 38.6725L35.355 39.8529L37.3721 37.8358L37.7675 38.2323L35.355 40.6448Z" fill="#FAFAFA"/>
</svg>
