<svg width="128" height="128" viewBox="0 0 128 128" fill="none" xmlns="http://www.w3.org/2000/svg">
<g clip-path="url(#clip0)">
<g filter="url(#filter0_d)">
<path d="M57.3911 104V96.5564C55.5015 98.1189 52.8473 99.4316 51.2901 100.52C39.5225 106.273 23.1961 103.712 13.8525 92.3713C3.147 79.3916 3.42713 57.2551 14.4519 44.5187C24.2256 33.1847 41.0929 29.9396 54.4655 36.3201C54.8102 36.534 55.1693 36.7244 55.5405 36.89C55.6513 35.2763 55.749 33.8954 55.8728 32H77.2381V104H57.3911ZM55.7099 68.7941C55.7099 65.8101 55.7881 62.8261 55.6577 59.8293C55.6187 58.8752 55.319 57.5625 54.6414 57.0566C49.5656 53.3042 43.8511 52.2284 37.7654 54.0214C32.3182 55.6287 29.5685 59.682 28.5 64.952C26.7211 73.7439 30.611 81.3895 38.0651 83.6179C43.3364 85.1931 48.3014 84.1942 53.0514 81.6072C54.941 80.5763 55.938 79.3597 55.7491 77.0736C55.534 74.3394 55.7034 71.5539 55.7034 68.7876L55.7099 68.7941Z" fill="#0064FF"/>
<path opacity="0.8" d="M118.004 32.0007V53.0809C114.173 53.0809 110.518 53.0809 106.862 53.0809C96.4695 53.119 90.2078 59.1782 90.1882 69.2197C90.1882 77.8957 90.1882 91.6211 90.1882 100.316V104H68.7903C68.6415 103.39 68.5413 102.77 68.4906 102.145C68.4906 92.3071 68.3082 77.4004 68.5297 67.5875C68.9923 47.5743 85.3079 32.115 105.813 32.0198C109.801 31.9944 113.788 32.0007 118.004 32.0007Z" fill="#0064FF"/>
</g>
</g>
<defs>
<filter id="filter0_d" x="-10" y="16" width="144.004" height="104" filterUnits="userSpaceOnUse" color-interpolation-filters="sRGB">
<feFlood flood-opacity="0" result="BackgroundImageFix"/>
<feColorMatrix in="SourceAlpha" type="matrix" values="0 0 0 0 0 0 0 0 0 0 0 0 0 0 0 0 0 0 127 0" result="hardAlpha"/>
<feOffset/>
<feGaussianBlur stdDeviation="8"/>
<feComposite in2="hardAlpha" operator="out"/>
<feColorMatrix type="matrix" values="0 0 0 0 0 0 0 0 0 0 0 0 0 0 0 0 0 0 0.08 0"/>
<feBlend mode="normal" in2="BackgroundImageFix" result="effect1_dropShadow"/>
<feBlend mode="normal" in="SourceGraphic" in2="effect1_dropShadow" result="shape"/>
</filter>
<clipPath id="clip0">
<rect width="128" height="128" rx="4" fill="white"/>
</clipPath>
</defs>
</svg>
