<svg width="60" height="20" viewBox="0 0 60 20" fill="none" xmlns="http://www.w3.org/2000/svg">
<path opacity="0.88" fill-rule="evenodd" clip-rule="evenodd" d="M5.16498 15.4C5.16498 14.9692 5.5142 14.62 5.94498 14.62H17.45C17.8808 14.62 18.23 14.9692 18.23 15.4C18.23 15.8308 17.8808 16.18 17.45 16.18H5.94498C5.5142 16.18 5.16498 15.8308 5.16498 15.4Z" fill="#003FFF" stroke="#003FFF" stroke-width="0.5" stroke-linecap="round"/>
<path fill-rule="evenodd" clip-rule="evenodd" d="M11.6 8.77002C9.98456 8.77002 8.67499 10.0796 8.67499 11.695C8.67499 13.3105 9.98456 14.62 11.6 14.62C12.0308 14.62 12.38 14.9692 12.38 15.4C12.38 15.8308 12.0308 16.18 11.6 16.18C9.12299 16.18 7.11499 14.172 7.11499 11.695C7.11499 9.21803 9.12299 7.21002 11.6 7.21002C14.077 7.21002 16.085 9.21803 16.085 11.695C16.085 12.1258 15.7358 12.475 15.305 12.475C14.8742 12.475 14.525 12.1258 14.525 11.695C14.525 10.0796 13.2154 8.77002 11.6 8.77002Z" fill="#003FFF" stroke="#003FFF" stroke-width="0.5" stroke-linecap="round"/>
<path opacity="0.72" fill-rule="evenodd" clip-rule="evenodd" d="M11.6 5.26001C8.15373 5.26001 5.35999 8.05376 5.35999 11.5C5.35999 11.9308 5.01077 12.28 4.57999 12.28C4.14921 12.28 3.79999 11.9308 3.79999 11.5C3.79999 7.19219 7.29217 3.70001 11.6 3.70001C15.9078 3.70001 19.4 7.19219 19.4 11.5C19.4 11.9308 19.0508 12.28 18.62 12.28C18.1892 12.28 17.84 11.9308 17.84 11.5C17.84 8.05376 15.0462 5.26001 11.6 5.26001Z" fill="#003FFF" stroke="#003FFF" stroke-width="0.5" stroke-linecap="round"/>
<path fill-rule="evenodd" clip-rule="evenodd" d="M32.1566 14.1813H33.1546C33.3729 14.1813 33.5601 14.0265 33.5957 13.8098L34.0234 11.214C34.2952 9.5513 33.7472 8.3529 32.9987 7.75591C32.5977 7.44636 32.1076 7.22525 31.5729 7.13681C29.6571 6.82726 27.6521 8.10968 27.0729 10.0554C26.4937 12.0012 27.563 13.8143 29.4789 14.1238C30.3031 14.2565 31.2076 14.168 32.0096 13.7745C32.0318 13.7656 32.0452 13.7745 32.0408 13.801L32.0051 14.0088C31.9917 14.1282 32.0497 14.1813 32.1566 14.1813ZM29.9244 12.5318C30.9492 12.7087 31.9294 12.0012 32.2412 10.9399C32.5977 9.87854 32.1521 8.86145 31.1274 8.68456C30.1026 8.50768 29.1224 9.21522 28.8106 10.2765C28.4541 11.3379 28.8997 12.3549 29.9244 12.5318Z" fill="white"/>
<path d="M35.7015 14.1857C35.9154 14.1857 36.1059 14.0265 36.1415 13.8187C36.6456 11.0397 37.0483 8.30027 37.5292 5.51802C37.5515 5.38536 37.4444 5.26154 37.3108 5.26154L36.2462 5.26154C36.0323 5.26154 35.8449 5.42073 35.8092 5.62858C35.3051 8.40758 34.9025 11.147 34.4215 13.9292C34.3993 14.0619 34.5063 14.1857 34.64 14.1857H35.7015Z" fill="white"/>
<path fill-rule="evenodd" clip-rule="evenodd" d="M42.5701 14.1813H43.5681C43.7864 14.1813 43.9735 14.0265 44.0092 13.8098L44.4369 11.214C44.7087 9.5513 44.1607 8.3529 43.4122 7.75591C43.0112 7.44636 42.5211 7.22525 41.9864 7.13681C40.0706 6.82726 38.0656 8.10968 37.4864 10.0554C36.9072 12.0012 37.9765 13.8143 39.8924 14.1238C40.7166 14.2565 41.6211 14.168 42.423 13.7745C42.4453 13.7656 42.4587 13.7745 42.4542 13.801L42.4186 14.0088C42.4052 14.1282 42.4631 14.1813 42.5701 14.1813ZM40.3379 12.5318C41.3627 12.7087 42.3428 12.0012 42.6547 10.9399C43.0112 9.87854 42.5656 8.86145 41.5409 8.68456C40.5161 8.50768 39.5359 9.21522 39.224 10.2765C38.8676 11.3379 39.3132 12.3549 40.3379 12.5318Z" fill="white"/>
<path fill-rule="evenodd" clip-rule="evenodd" d="M50.1231 16.3385H51.0903C51.3086 16.3385 51.4958 16.1828 51.5314 15.9662L52.3293 11.214C52.6011 9.5513 52.0531 8.3529 51.3045 7.75591C50.9036 7.44636 50.4135 7.22525 49.8788 7.13681C47.963 6.82726 45.958 8.10968 45.3788 10.0554C44.7996 12.0012 45.8689 13.8143 47.7848 14.1238C48.609 14.2565 49.5135 14.168 50.3154 13.7745C50.3377 13.7656 50.3511 13.7745 50.3466 13.801L49.9692 16.1203C49.9559 16.2397 50.0161 16.3385 50.1231 16.3385ZM48.2303 12.5318C49.255 12.7087 50.2352 12.0012 50.5471 10.9399C50.9036 9.87854 50.458 8.86145 49.4333 8.68456C48.4085 8.50768 47.4283 9.21522 47.1164 10.2765C46.76 11.3379 47.2055 12.3549 48.2303 12.5318Z" fill="white"/>
<path d="M24.2805 14.1813C24.4944 14.1813 24.6815 14.0265 24.7172 13.8187C24.8782 12.9312 25.062 11.7596 25.2169 10.7938H25.7345C25.946 10.7938 26.1311 10.6451 26.1663 10.4352L26.2765 9.82727C26.3029 9.69169 26.1972 9.56923 26.0606 9.56923H25.4196C25.4407 9.45013 25.4599 9.34652 25.4769 9.26154C25.7846 7.72307 26.5354 7.18431 27.8907 7.18431C28.0867 7.18431 28.256 7.05164 28.3095 6.86591L28.5902 5.5554C28.6259 5.42716 28.5367 5.28565 28.4031 5.2768C26.6565 5.11318 24.5756 6.28063 23.9385 8.0097C23.8496 8.23009 23.0258 12.9962 22.866 13.9204L22.8645 13.9292C22.8422 14.0619 22.9491 14.1857 23.0828 14.1857H24.2761L24.2805 14.1813Z" fill="white"/>
</svg>
