<svg width="60" height="20" viewBox="0 0 60 20" fill="none" xmlns="http://www.w3.org/2000/svg">
<path opacity="0.88" fill-rule="evenodd" clip-rule="evenodd" d="M5.16498 15.4001C5.16498 14.9693 5.5142 14.6201 5.94498 14.6201H17.45C17.8808 14.6201 18.23 14.9693 18.23 15.4001C18.23 15.8309 17.8808 16.1801 17.45 16.1801H5.94498C5.5142 16.1801 5.16498 15.8309 5.16498 15.4001Z" fill="white" stroke="white" stroke-width="0.5" stroke-linecap="round"/>
<path fill-rule="evenodd" clip-rule="evenodd" d="M11.6 8.76996C9.98456 8.76996 8.67499 10.0795 8.67499 11.6949C8.67499 13.3104 9.98456 14.6199 11.6 14.6199C12.0308 14.6199 12.38 14.9691 12.38 15.3999C12.38 15.8307 12.0308 16.1799 11.6 16.1799C9.12299 16.1799 7.11499 14.1719 7.11499 11.6949C7.11499 9.21797 9.12299 7.20996 11.6 7.20996C14.077 7.20996 16.085 9.21797 16.085 11.6949C16.085 12.1257 15.7358 12.4749 15.305 12.4749C14.8742 12.4749 14.525 12.1257 14.525 11.6949C14.525 10.0795 13.2154 8.76996 11.6 8.76996Z" fill="white" stroke="white" stroke-width="0.5" stroke-linecap="round"/>
<path opacity="0.72" fill-rule="evenodd" clip-rule="evenodd" d="M11.6 5.25995C8.15373 5.25995 5.35999 8.0537 5.35999 11.4999C5.35999 11.9307 5.01077 12.2799 4.57999 12.2799C4.14921 12.2799 3.79999 11.9307 3.79999 11.4999C3.79999 7.19213 7.29217 3.69995 11.6 3.69995C15.9078 3.69995 19.4 7.19213 19.4 11.4999C19.4 11.9307 19.0508 12.2799 18.62 12.2799C18.1892 12.2799 17.84 11.9307 17.84 11.4999C17.84 8.0537 15.0462 5.25995 11.6 5.25995Z" fill="white" stroke="white" stroke-width="0.5" stroke-linecap="round"/>
<path fill-rule="evenodd" clip-rule="evenodd" d="M32.1566 14.1813H33.1546C33.3729 14.1813 33.5601 14.0265 33.5957 13.8098L34.0234 11.214C34.2952 9.55134 33.7472 8.35295 32.9987 7.75596C32.5977 7.44641 32.1076 7.22529 31.5729 7.13685C29.6571 6.8273 27.6521 8.10972 27.0729 10.0554C26.4937 12.0012 27.563 13.8143 29.4789 14.1238C30.3031 14.2565 31.2076 14.168 32.0096 13.7745C32.0318 13.7656 32.0452 13.7745 32.0408 13.801L32.0051 14.0088C31.9917 14.1282 32.0497 14.1813 32.1566 14.1813ZM29.9244 12.5318C30.9492 12.7087 31.9294 12.0012 32.2412 10.9399C32.5977 9.87859 32.1521 8.8615 31.1274 8.68461C30.1026 8.50773 29.1224 9.21526 28.8106 10.2765C28.4541 11.3379 28.8997 12.3549 29.9244 12.5318Z" fill="white"/>
<path d="M35.7015 14.1856C35.9154 14.1856 36.1059 14.0264 36.1415 13.8186C36.6456 11.0396 37.0483 8.3002 37.5292 5.51795C37.5515 5.38529 37.4444 5.26147 37.3108 5.26147H36.2462C36.0323 5.26147 35.8449 5.42066 35.8092 5.62851C35.3051 8.40751 34.9025 11.1469 34.4215 13.9291C34.3993 14.0618 34.5063 14.1856 34.64 14.1856H35.7015Z" fill="white"/>
<path fill-rule="evenodd" clip-rule="evenodd" d="M42.5701 14.1813H43.5681C43.7864 14.1813 43.9735 14.0265 44.0092 13.8098L44.4369 11.214C44.7087 9.55134 44.1607 8.35295 43.4122 7.75596C43.0112 7.44641 42.5211 7.22529 41.9864 7.13685C40.0706 6.8273 38.0656 8.10972 37.4864 10.0554C36.9072 12.0012 37.9765 13.8143 39.8924 14.1238C40.7166 14.2565 41.6211 14.168 42.423 13.7745C42.4453 13.7656 42.4587 13.7745 42.4542 13.801L42.4186 14.0088C42.4052 14.1282 42.4631 14.1813 42.5701 14.1813ZM40.3379 12.5318C41.3627 12.7087 42.3428 12.0012 42.6547 10.9399C43.0112 9.87859 42.5656 8.8615 41.5409 8.68461C40.5161 8.50773 39.5359 9.21526 39.224 10.2765C38.8676 11.3379 39.3132 12.3549 40.3379 12.5318Z" fill="white"/>
<path fill-rule="evenodd" clip-rule="evenodd" d="M50.1231 16.3385H51.0903C51.3086 16.3385 51.4958 16.1828 51.5314 15.9662L52.3293 11.214C52.6011 9.55134 52.0531 8.35295 51.3045 7.75596C50.9036 7.44641 50.4135 7.22529 49.8788 7.13685C47.963 6.8273 45.958 8.10972 45.3788 10.0554C44.7996 12.0012 45.8689 13.8143 47.7848 14.1238C48.609 14.2565 49.5135 14.168 50.3154 13.7745C50.3377 13.7656 50.3511 13.7745 50.3466 13.801L49.9692 16.1203C49.9559 16.2397 50.0161 16.3385 50.1231 16.3385ZM48.2303 12.5318C49.255 12.7087 50.2352 12.0012 50.5471 10.9399C50.9036 9.87859 50.458 8.8615 49.4333 8.68461C48.4085 8.50773 47.4283 9.21526 47.1164 10.2765C46.76 11.3379 47.2055 12.3549 48.2303 12.5318Z" fill="white"/>
<path d="M24.2805 14.1812C24.4944 14.1812 24.6815 14.0264 24.7172 13.8186C24.8782 12.9311 25.062 11.7595 25.2169 10.7937H25.7345C25.946 10.7937 26.1311 10.645 26.1663 10.4351L26.2765 9.82721C26.3029 9.69163 26.1972 9.56917 26.0606 9.56917H25.4196C25.4407 9.45007 25.4599 9.34646 25.4769 9.26148C25.7846 7.72301 26.5354 7.18425 27.8907 7.18425C28.0867 7.18425 28.256 7.05158 28.3095 6.86585L28.5902 5.55534C28.6259 5.4271 28.5367 5.28559 28.4031 5.27674C26.6565 5.11312 24.5756 6.28057 23.9385 8.00964C23.8496 8.23003 23.0258 12.9961 22.866 13.9203L22.8645 13.9291C22.8422 14.0618 22.9491 14.1856 23.0828 14.1856H24.2761L24.2805 14.1812Z" fill="white"/>
</svg>
