<svg width="92" height="92" viewBox="0 0 92 92" fill="none" xmlns="http://www.w3.org/2000/svg">
<path d="M15.9961 64.7198L27.4361 27.2798H37.9921L49.4321 64.7198H42.1521L31.9601 31.6998H33.3121L23.2761 64.7198H15.9961ZM22.8601 56.9198V50.3158H42.6201V56.9198H22.8601Z" fill="#5EFF9E"/>
<path d="M49.4319 64.7198V27.2798H63.5499C63.9139 27.2798 64.3039 27.2972 64.7199 27.3318C65.1532 27.3492 65.6039 27.4012 66.0719 27.4878C67.9439 27.7825 69.5472 28.4585 70.8819 29.5158C72.2339 30.5558 73.2652 31.8732 73.9759 33.4678C74.6866 35.0452 75.0419 36.7872 75.0419 38.6938C75.0419 41.4498 74.3052 43.8505 72.8319 45.8958C71.3586 47.9412 69.3046 49.2412 66.6699 49.7958L65.8119 50.1338H52.4219V64.7198H49.4319ZM72.4939 64.7198L65.1099 49.4838L67.8919 48.0798L76.0039 64.7198H72.4939ZM52.4219 47.1958H63.4979C63.8099 47.1958 64.1652 47.1785 64.5639 47.1438C64.9799 47.1092 65.3959 47.0572 65.8119 46.9878C67.1639 46.7105 68.2906 46.1645 69.1919 45.3498C70.0932 44.5178 70.7692 43.5212 71.2199 42.3598C71.6706 41.1985 71.8959 39.9765 71.8959 38.6938C71.8959 37.4112 71.6706 36.1978 71.2199 35.0538C70.7692 33.8925 70.0932 32.9045 69.1919 32.0898C68.2906 31.2578 67.1639 30.7032 65.8119 30.4258C65.3959 30.3392 64.9799 30.2785 64.5639 30.2438C64.1652 30.2092 63.8099 30.1918 63.4979 30.1918H52.4219V47.1958Z" fill="#5EFF9E"/>
</svg>
