<svg width="92" height="92" viewBox="0 0 92 92" fill="none" xmlns="http://www.w3.org/2000/svg">
<path d="M15.996 64.72L27.436 27.28H37.992L49.432 64.72H42.152L31.96 31.7H33.312L23.276 64.72H15.996ZM22.86 56.92V50.316H42.62V56.92H22.86Z" fill="black"/>
<path d="M49.432 64.72V27.28H63.55C63.914 27.28 64.304 27.2974 64.72 27.332C65.1533 27.3494 65.604 27.4014 66.072 27.488C67.944 27.7827 69.5473 28.4587 70.882 29.516C72.234 30.556 73.2653 31.8734 73.976 33.468C74.6867 35.0454 75.042 36.7874 75.042 38.694C75.042 41.45 74.3053 43.8507 72.832 45.896C71.3587 47.9414 69.3047 49.2414 66.67 49.796L65.812 50.134H52.422V64.72H49.432ZM72.494 64.72L65.11 49.484L67.892 48.08L76.004 64.72H72.494ZM52.422 47.196H63.498C63.81 47.196 64.1653 47.1787 64.564 47.144C64.98 47.1094 65.396 47.0574 65.812 46.988C67.164 46.7107 68.2907 46.1647 69.192 45.35C70.0933 44.518 70.7693 43.5214 71.22 42.36C71.6707 41.1987 71.896 39.9767 71.896 38.694C71.896 37.4114 71.6707 36.198 71.22 35.054C70.7693 33.8927 70.0933 32.9047 69.192 32.09C68.2907 31.258 67.164 30.7034 65.812 30.426C65.396 30.3394 64.98 30.2787 64.564 30.244C64.1653 30.2094 63.81 30.192 63.498 30.192H52.422V47.196Z" fill="#7D7D7D"/>
</svg>
