<svg width="80" height="80" viewBox="0 0 80 80" fill="none" xmlns="http://www.w3.org/2000/svg">
<path opacity="0.04" d="M45.1568 23.466L49.682 31.9829C50.2991 33.1685 51.9446 34.3057 53.333 34.5234L61.535 35.8058C66.7801 36.6285 68.0142 40.2094 64.2347 43.742L57.8582 49.7425C56.7783 50.7587 56.187 52.7186 56.5212 54.1219L58.3467 61.55C59.7866 67.4295 56.4698 69.7039 50.9419 66.6311L43.2541 62.3484C41.8657 61.5742 39.5774 61.5742 38.1633 62.3484L30.4755 66.6311C24.9733 69.7039 21.6308 67.4053 23.0706 61.55L24.8962 54.1219C25.2304 52.7186 24.639 50.7587 23.5592 49.7425L17.1827 43.742C13.4289 40.2094 14.6373 36.6285 19.8824 35.8058L28.0844 34.5234C29.4471 34.3057 31.0926 33.1685 31.7097 31.9829L36.2349 23.466C38.7032 18.8447 42.7142 18.8447 45.1568 23.466Z" fill="#04FFE1"/>
<path opacity="0.32" d="M47.3086 24.9477C45.0289 24.5628 29.6294 20.0658 22.2318 34.7113C19.5531 39.9889 15.8372 53.4799 23.8845 61.0995C30.0512 66.9819 39.5804 69.7856 47.035 66.784C73.2403 56.2067 62.6966 27.5315 47.3086 24.9477Z" fill="#04FFE1"/>
<path fill-rule="evenodd" clip-rule="evenodd" d="M44.3874 32.4333C43.5916 30.8213 42.2818 29.5 40.5274 29.5C38.7749 29.5 37.4612 30.819 36.6582 32.4296L36.6568 32.4325L34.0992 37.5899L34.0938 37.6009C34.0524 37.6862 33.9187 37.8643 33.6785 38.0439C33.4393 38.2227 33.2322 38.3001 33.1427 38.3159L33.1411 38.3162L28.5107 39.0919C26.7624 39.3856 25.1778 40.2657 24.6583 41.9058C24.1407 43.5402 24.9203 45.1756 26.1676 46.4333L29.7715 50.0669C30.1631 50.5402 30.1727 51.1087 30.1286 51.3338L29.0984 55.8254C28.6615 57.7292 28.7651 59.811 30.2928 60.9349C31.828 62.0643 33.843 61.5257 35.5157 60.5247L39.8528 57.9362C39.9707 57.8682 40.2144 57.7926 40.5346 57.7926C40.8591 57.7926 41.0956 57.8704 41.1991 57.9323L45.5452 60.5263C47.2179 61.5226 49.2347 62.0696 50.7705 60.9407C52.3001 59.8164 52.3952 57.7297 51.9603 55.8266L50.9297 51.3339C50.9028 51.2087 50.9015 50.9603 50.9872 50.6585C51.074 50.3529 51.2052 50.1493 51.2869 50.0669L54.887 46.4369L54.889 46.4349C56.1442 45.1772 56.9265 43.5402 56.4047 41.9032C55.8822 40.2642 54.2945 39.3854 52.5477 39.0919L47.9124 38.3153C47.8149 38.2989 47.6038 38.2199 47.3643 38.0418C47.1243 37.8632 46.9913 37.6857 46.9501 37.6009C46.4001 36.7018 45 33.7625 44.3874 32.4333ZM39.3438 33.7667L39.3431 33.7681L36.7892 38.918C36.4817 39.5477 35.9777 40.0707 35.4748 40.4466C34.9707 40.8236 34.3287 41.1566 33.6472 41.2732L33.642 41.2741L29.0071 42.0505C27.7915 42.2549 27.5511 42.7082 27.5183 42.8117C27.4837 42.9208 27.4234 43.4393 28.2977 44.3207C29.1797 45.255 30.4803 46.754 31.499 47.9828C32.1825 48.8072 32.739 49.5101 32.9571 49.8391C33.1431 50.4943 33.2178 51.2626 33.0564 51.9883L33.0542 51.998L32.0225 56.4961C31.8488 57.2528 31.846 57.7878 31.9086 58.1256C31.939 58.2894 31.9813 58.3893 32.0125 58.4443C32.0418 58.4961 32.0635 58.5132 32.0705 58.5184C32.0774 58.5234 32.0987 58.5381 32.1535 58.5498C32.2121 58.5623 32.3164 58.5725 32.4778 58.5522C32.8112 58.5102 33.313 58.3467 33.9754 57.9504L38.3315 55.3505C39.014 54.95 39.8151 54.7926 40.5346 54.7926C41.2529 54.7926 42.0561 54.9496 42.7373 55.3566L47.0803 57.9488C47.7481 58.3465 48.2533 58.5117 48.5892 58.5546C48.7517 58.5754 48.8562 58.5652 48.9144 58.5529C48.9686 58.5415 48.9885 58.5273 48.9937 58.5235C48.9991 58.5195 49.0197 58.5038 49.0484 58.453C49.0789 58.3988 49.1211 58.2992 49.1512 58.1347C49.2135 57.7953 49.2099 57.2574 49.0357 56.495L48.0019 51.9882C47.8406 51.2626 47.9153 50.4943 48.1013 49.8391C48.287 49.1849 48.6281 48.4874 49.1569 47.9543L52.7606 44.3207L52.7643 44.317C53.6442 43.4359 53.5801 42.92 53.5464 42.8143C53.513 42.7097 53.2691 42.2553 52.052 42.0507L47.4164 41.2741C46.7291 41.1586 46.0824 40.8272 45.5737 40.4487C45.0671 40.0719 44.5624 39.5483 44.2546 38.9181L42.2923 34.961L41.6993 33.7653L41.6979 33.7625C41.1131 32.5769 40.5996 32.5 40.5274 32.5C40.4525 32.5 39.9357 32.5802 39.3438 33.7667Z" fill="#003FFF"/>
<path fill-rule="evenodd" clip-rule="evenodd" d="M40.5274 29.5C42.2818 29.5 43.5916 30.8213 44.3874 32.4333L42.2923 34.961L41.6993 33.7653L41.6979 33.7625C41.1131 32.5769 40.5996 32.5 40.5274 32.5C40.4525 32.5 39.9357 32.5802 39.3438 33.7667L39.3431 33.7681L36.7892 38.918C36.4817 39.5477 35.9777 40.0707 35.4748 40.4466C34.9707 40.8236 34.3287 41.1566 33.6472 41.2732L33.642 41.2741L29.0071 42.0505C27.7915 42.2549 27.5511 42.7082 27.5183 42.8117C27.4837 42.9208 27.4234 43.4393 28.2977 44.3207C29.1797 45.255 30.4803 46.754 31.499 47.9828L29.7715 50.0669L26.1676 46.4333C24.9203 45.1756 24.1407 43.5402 24.6583 41.9058C25.1778 40.2657 26.7624 39.3856 28.5107 39.0919L33.1411 38.3162L33.1427 38.3159C33.2322 38.3001 33.4393 38.2227 33.6785 38.0439C33.9187 37.8643 34.0524 37.6862 34.0938 37.6009L34.0992 37.5899L36.6568 32.4325L36.6582 32.4296C37.4612 30.819 38.7749 29.5 40.5274 29.5Z" fill="#003FFF"/>
<path d="M8 45.0016L15.4286 42.7148" stroke="#15006A" stroke-width="3" stroke-linecap="round" stroke-linejoin="round"/>
<path d="M63.4277 42.7148L71.9991 45.0016" stroke="#15006A" stroke-width="3" stroke-linecap="round" stroke-linejoin="round"/>
<path d="M40 21.2281V13" stroke="#15006A" stroke-width="3" stroke-linecap="round" stroke-linejoin="round"/>
<path d="M13.7949 20.584L19.6082 26.3973" stroke="#15006A" stroke-width="3" stroke-linecap="round" stroke-linejoin="round"/>
<path d="M60.373 26.3973L66.2043 20.584" stroke="#15006A" stroke-width="3" stroke-linecap="round" stroke-linejoin="round"/>
</svg>
