<svg width="25" height="24" viewBox="0 0 25 24" fill="none" xmlns="http://www.w3.org/2000/svg">
<path d="M12.496 0H8.49795C6.28884 0 4.5 1.78888 4.5 3.99798C4.5 6.20709 6.28884 7.99601 8.49795 7.99601H12.496V0Z" fill="white"/>
<path d="M12.496 8.00802H8.49795C6.28884 8.00802 4.5 9.7969 4.5 12.006C4.5 14.2151 6.28884 16.004 8.49795 16.004H12.496V8.00802Z" fill="white"/>
<path d="M12.496 16.004H8.49795C6.28884 16.004 4.5 17.7929 4.5 20.002C4.5 22.2111 6.28884 24 8.49795 24C10.7071 24 12.496 22.2111 12.496 20.002V16.004Z" fill="white"/>
<path d="M12.496 0H16.494C18.7031 0 20.4919 1.78888 20.4919 3.99798C20.4919 6.20709 18.7031 7.99601 16.494 7.99601H12.496V0Z" fill="white"/>
<path d="M16.494 8.00802C18.7031 8.00802 20.4919 9.7969 20.4919 12.006C20.4919 14.2151 18.7031 16.004 16.494 16.004C14.2849 16.004 12.496 14.2151 12.496 12.006C12.496 9.7969 14.2849 8.00802 16.494 8.00802Z" fill="white"/>
</svg>
