<svg width="24" height="24" viewBox="0 0 24 24" fill="none" xmlns="http://www.w3.org/2000/svg">
<path d="M12.2847 11.9999C12.2847 10.9391 12.7061 9.92165 13.4562 9.17151C14.2064 8.42137 15.2238 7.99994 16.2847 7.99994C17.3455 7.99994 18.3629 8.42137 19.1131 9.17151C19.8632 9.92165 20.2847 10.9391 20.2847 11.9999C20.2847 13.0608 19.8632 14.0782 19.1131 14.8284C18.3629 15.5785 17.3455 15.9999 16.2847 15.9999C15.2238 15.9999 14.2064 15.5785 13.4562 14.8284C12.7061 14.0782 12.2847 13.0608 12.2847 11.9999V11.9999Z" fill="#1ABCFE"/>
<path d="M4.28564 20C4.28564 18.9392 4.70707 17.9217 5.45722 17.1716C6.20736 16.4215 7.22477 16 8.28564 16H12.2856V20C12.2856 21.0609 11.8642 22.0783 11.1141 22.8284C10.3639 23.5786 9.3465 24 8.28564 24C7.22477 24 6.20736 23.5786 5.45722 22.8284C4.70707 22.0783 4.28564 21.0609 4.28564 20V20Z" fill="#0ACF83"/>
<path d="M12.2847 0V7.99999H16.2847C17.3455 7.99999 18.3629 7.57856 19.1131 6.82842C19.8632 6.07827 20.2847 5.06086 20.2847 3.99999C20.2847 2.93913 19.8632 1.92172 19.1131 1.17157C18.3629 0.421427 17.3455 0 16.2847 0L12.2847 0Z" fill="#FF7262"/>
<path d="M4.28564 3.99999C4.28564 5.06086 4.70707 6.07827 5.45722 6.82842C6.20736 7.57856 7.22477 7.99999 8.28564 7.99999H12.2856V0H8.28564C7.22477 0 6.20736 0.421427 5.45722 1.17157C4.70707 1.92172 4.28564 2.93913 4.28564 3.99999H4.28564Z" fill="#F24E1E"/>
<path d="M4.28564 11.9999C4.28564 13.0608 4.70707 14.0782 5.45722 14.8284C6.20736 15.5785 7.22477 15.9999 8.28564 15.9999H12.2856V7.99994H8.28564C7.22477 7.99994 6.20736 8.42137 5.45722 9.17151C4.70707 9.92165 4.28564 10.9391 4.28564 11.9999H4.28564Z" fill="#A259FF"/>
</svg>
