<svg width="57" height="28" viewBox="0 0 57 28" fill="none" xmlns="http://www.w3.org/2000/svg">
<path d="M13.0665 13.5332H5.13318C4.8765 13.5332 4.6665 13.3232 4.6665 13.0665V5.13317C4.6665 4.8765 4.8765 4.6665 5.13318 4.6665H13.0665C13.3232 4.6665 13.5332 4.8765 13.5332 5.13317V13.0665C13.5332 13.3232 13.3232 13.5332 13.0665 13.5332Z" fill="white"/>
<path d="M22.8666 13.5332H14.9333C14.6766 13.5332 14.4666 13.3232 14.4666 13.0665V5.13317C14.4666 4.8765 14.6766 4.6665 14.9333 4.6665H22.8666C23.1233 4.6665 23.3333 4.8765 23.3333 5.13317V13.0665C23.3333 13.3232 23.1233 13.5332 22.8666 13.5332Z" fill="#72BF44"/>
<path d="M13.0665 23.3335H5.13318C4.8765 23.3335 4.6665 23.1235 4.6665 22.8668V14.9335C4.6665 14.6768 4.8765 14.4668 5.13318 14.4668H13.0665C13.3232 14.4668 13.5332 14.6768 13.5332 14.9335V22.8668C13.5332 23.1235 13.3232 23.3335 13.0665 23.3335Z" fill="#ED1C24"/>
<path d="M35.8223 14.6738V13.7187H32.2598V15.0078H34.0996L34.0938 15.1426C34.0586 16.1914 33.2559 16.9004 32.1016 16.9004C30.6953 16.9004 29.8047 15.7812 29.8047 13.9472C29.8047 12.1484 30.6426 11.0879 32.0371 11.0879C32.9922 11.0879 33.7129 11.6152 33.9707 12.5H35.7461C35.4942 10.789 34.0058 9.62305 32.0312 9.62305C29.5469 9.62305 28 11.2636 28 13.9707C28 16.7187 29.5469 18.3711 32.0723 18.3711C34.4278 18.3711 35.8223 16.9765 35.8223 14.6738Z" fill="white"/>
<path d="M42.9063 18.2246H44.8223L43.2461 16.5781C43.7031 15.9453 43.961 15.0547 43.961 14.0235V13.4785H42.5371V13.9239C42.5371 14.6504 42.4375 15.1602 42.2324 15.5235L40.627 13.7891C41.7989 13.1504 42.3379 12.459 42.3379 11.5918C42.3379 10.4551 41.3653 9.6582 39.9824 9.6582C38.6055 9.6582 37.586 10.4903 37.586 11.6211C37.586 12.2422 37.8731 12.7696 38.6348 13.5547C38.6114 13.5664 38.3418 13.7129 38.2539 13.7598C37.1758 14.3516 36.6895 15.0489 36.6895 16.0098C36.6895 17.4453 37.8438 18.377 39.6367 18.377C40.6621 18.377 41.6289 18.0606 42.2559 17.5215L42.9063 18.2246ZM39.1856 14.5742C39.2383 14.5449 39.3555 14.4805 39.4199 14.4512L41.3594 16.5489C41.0313 16.9063 40.4219 17.1348 39.8125 17.1348C38.9043 17.1348 38.2891 16.6309 38.2891 15.875C38.2891 15.3535 38.5469 14.9785 39.1856 14.5742ZM39.836 12.9922C39.2617 12.4356 39.0508 12.1016 39.0508 11.709C39.0508 11.1817 39.4434 10.7949 39.9883 10.7949C40.5391 10.7949 40.9141 11.1699 40.9141 11.709C40.9141 12.2188 40.6035 12.5938 39.836 12.9922Z" fill="white"/>
<path d="M47.3418 11.1523H48.8477C49.7266 11.1523 50.2775 11.6797 50.2775 12.5C50.2775 13.3379 49.7559 13.8476 48.8653 13.8476H47.3418V11.1523ZM47.3418 15.1308H48.7598L50.336 18.2246H52.34L50.5585 14.8672C51.531 14.4863 52.094 13.5488 52.094 12.4648C52.094 10.7949 50.9805 9.76953 49.0352 9.76953H45.5723V18.2246H47.3418V15.1308Z" fill="white"/>
</svg>
