<svg width="113" height="56" viewBox="0 0 113 56" fill="none" xmlns="http://www.w3.org/2000/svg">
<path d="M26.1332 27.0667H10.2666C9.75325 27.0667 9.33325 26.6467 9.33325 26.1334V10.2667C9.33325 9.75337 9.75325 9.33337 10.2666 9.33337H26.1332C26.6466 9.33337 27.0666 9.75337 27.0666 10.2667V26.1334C27.0666 26.6467 26.6466 27.0667 26.1332 27.0667Z" fill="#475364"/>
<path d="M45.7333 27.0667H29.8667C29.3533 27.0667 28.9333 26.6467 28.9333 26.1334V10.2667C28.9333 9.75337 29.3533 9.33337 29.8667 9.33337H45.7333C46.2467 9.33337 46.6667 9.75337 46.6667 10.2667V26.1334C46.6667 26.6467 46.2467 27.0667 45.7333 27.0667Z" fill="#72BF44"/>
<path d="M26.1332 46.6667H10.2666C9.75325 46.6667 9.33325 46.2467 9.33325 45.7333V29.8667C9.33325 29.3533 9.75325 28.9333 10.2666 28.9333H26.1332C26.6466 28.9333 27.0666 29.3533 27.0666 29.8667V45.7333C27.0666 46.2467 26.6466 46.6667 26.1332 46.6667Z" fill="#ED1C24"/>
<path d="M71.6445 29.3477V27.4375H64.5195V30.0156H68.1992L68.1875 30.2852C68.1172 32.3828 66.5117 33.8008 64.2031 33.8008C61.3906 33.8008 59.6094 31.5625 59.6094 27.8945C59.6094 24.2969 61.2852 22.1758 64.0742 22.1758C65.9844 22.1758 67.4258 23.2305 67.9414 25H71.4922C70.9883 21.5781 68.0117 19.2461 64.0625 19.2461C59.0938 19.2461 56 22.5273 56 27.9414C56 33.4375 59.0938 36.7422 64.1445 36.7422C68.8555 36.7422 71.6445 33.9531 71.6445 29.3477Z" fill="#475364"/>
<path d="M85.8125 36.4492H89.6445L86.4922 33.1562C87.4062 31.8906 87.9219 30.1094 87.9219 28.0469V26.957H85.0742V27.8477C85.0742 29.3008 84.875 30.3203 84.4648 31.0469L81.2539 27.5781C83.5977 26.3008 84.6758 24.918 84.6758 23.1836C84.6758 20.9102 82.7305 19.3164 79.9648 19.3164C77.2109 19.3164 75.1719 20.9805 75.1719 23.2422C75.1719 24.4844 75.7461 25.5391 77.2695 27.1094C77.2227 27.1328 76.6836 27.4258 76.5078 27.5195C74.3516 28.7031 73.3789 30.0977 73.3789 32.0195C73.3789 34.8906 75.6875 36.7539 79.2734 36.7539C81.3242 36.7539 83.2578 36.1211 84.5117 35.043L85.8125 36.4492ZM78.3711 29.1484C78.4766 29.0898 78.7109 28.9609 78.8398 28.9023L82.7188 33.0977C82.0625 33.8125 80.8438 34.2695 79.625 34.2695C77.8086 34.2695 76.5781 33.2617 76.5781 31.75C76.5781 30.707 77.0938 29.957 78.3711 29.1484ZM79.6719 25.9844C78.5234 24.8711 78.1016 24.2031 78.1016 23.418C78.1016 22.3633 78.8867 21.5898 79.9766 21.5898C81.0781 21.5898 81.8281 22.3398 81.8281 23.418C81.8281 24.4375 81.207 25.1875 79.6719 25.9844Z" fill="#475364"/>
<path d="M94.6836 22.3047H97.6953C99.4531 22.3047 100.555 23.3594 100.555 25C100.555 26.6758 99.5117 27.6953 97.7305 27.6953H94.6836V22.3047ZM94.6836 30.2617H97.5195L100.672 36.4492H104.68L101.117 29.7344C103.062 28.9727 104.188 27.0977 104.188 24.9297C104.188 21.5898 101.961 19.5391 98.0703 19.5391H91.1445V36.4492H94.6836V30.2617Z" fill="#475364"/>
</svg>
