<svg width="200" height="201" viewBox="0 0 200 201" fill="none" xmlns="http://www.w3.org/2000/svg">
<path d="M111.998 12.0023C129.805 11.9876 145.964 12.0464 147.906 12.12C149.849 12.1936 151.968 12.326 152.615 12.4143C153.263 12.5173 154.322 12.7087 154.97 12.8705C155.618 13.0177 156.515 13.2679 156.957 13.4151C157.398 13.5769 158.119 13.8713 158.546 14.092C158.958 14.298 159.782 14.9161 160.356 15.4754C161.063 16.1376 161.534 16.741 161.828 17.3443C162.063 17.83 162.358 18.6247 162.505 19.1103C162.711 19.8609 162.755 20.8322 162.799 25.8063C162.814 28.9998 162.784 42.951 162.726 56.8139C162.667 70.6621 162.593 81.9791 162.549 81.9496C162.505 81.9202 162.505 87.174 162.534 93.6198C162.564 101.331 162.534 106.511 162.417 108.734C162.314 110.676 162.225 117.814 162.181 138.829V173.839C162.181 176.749 160.922 176.279 159.512 176.279C159.512 176.279 153.781 176.279 150.109 176.279L146.905 175.075L161.077 175.031C161.077 155.017 161.136 145.598 161.224 141.183C161.298 136.768 161.401 125.142 161.445 115.356C161.504 105.57 161.607 82.6119 161.695 64.3635C161.784 46.1151 161.872 29.0293 161.916 26.395C161.945 23.7608 161.916 21.0529 161.842 20.3613C161.754 19.4488 161.592 18.8307 161.239 18.0802C160.901 17.3738 160.474 16.7852 159.885 16.2112C159.311 15.6373 158.605 15.1663 157.81 14.769C157.133 14.4452 156.059 14.0479 155.411 13.886C154.764 13.7241 153.542 13.4887 152.689 13.3562C151.467 13.1649 149.098 13.0913 141.431 13.003C136.089 12.9294 119.827 12.8853 105.302 12.8853C90.4087 12.8853 78.5326 12.9442 78.0763 13.0177C77.6349 13.0913 76.8402 13.2973 76.3104 13.4739C75.7806 13.6358 75.0889 13.9449 74.7651 14.1509C74.4414 14.3422 73.8969 14.7837 73.5437 15.1222C73.1905 15.446 72.646 16.1229 72.3369 16.6086C72.0132 17.0942 71.5717 17.9919 71.3509 18.5953L70.9389 19.699C70.9683 54.4887 71.0272 68.1309 71.0713 72.4575C71.1302 76.7842 71.2185 80.375 71.2773 80.4191L70.4239 80.5516L70.4092 74.2676C70.4092 70.7945 70.3356 61.9058 70.262 54.5034C70.1884 47.101 70.0707 37.1969 69.9971 32.5023C69.9088 27.1161 69.9088 23.2898 69.9971 22.1272C70.0854 21.1118 70.2767 19.7578 70.4239 19.1103C70.5858 18.4628 70.9684 17.4326 71.2627 16.8293C71.6012 16.1523 72.1605 15.3576 72.7197 14.769C73.3525 14.092 73.9559 13.6505 74.7064 13.2679C75.3098 12.9736 76.1928 12.6204 76.6784 12.5026C77.1641 12.3702 78.0176 12.2083 78.5915 12.1347C79.1655 12.0759 94.1027 12.0023 111.998 12.0023Z" fill="#003FFF"/>
<path d="M96.3984 171.75L106.847 171.838C112.586 171.897 125.831 171.985 136.28 172.044C146.729 172.088 155.441 172.088 156.074 171.941L156 153.766C155.956 143.774 155.897 135.547 155.868 135.488C155.823 135.415 155.794 129.204 155.779 121.684C155.779 114.164 155.72 99.8743 155.662 89.9407C155.603 78.9622 155.5 71.9277 155.426 71.9866C155.338 72.0455 155.308 69.058 155.323 64.3635C155.353 60.1104 155.294 49.4851 155.22 40.7436C155.132 32.002 155.014 24.2317 154.823 22.1272L154.381 22.0536C154.131 22.0095 142.093 21.9212 127.597 21.8329C113.102 21.7593 95.692 21.6857 88.893 21.671C82.0939 21.6563 76.5017 21.6857 76.4575 21.7446C76.4134 21.8035 76.3692 27.0131 76.3398 33.3265C76.3251 40.8907 76.3545 44.7906 76.4575 44.7906C76.5605 44.7906 76.59 50.8979 76.5753 62.8477C76.5605 72.796 76.59 80.9931 76.6341 81.0667L77.4877 81.5817L77.4435 22.4657L89.0548 22.5246C93.5694 22.5454 103.496 22.5956 114.099 22.6492L114.101 22.6492C118.498 22.6715 123.011 22.6943 127.303 22.7159C141.946 22.8042 153.969 22.8925 154.013 22.9514C154.057 22.9955 154.131 26.0565 154.19 29.7504C154.234 33.4442 154.352 44.1283 154.425 53.4733C154.514 62.8183 154.587 80.1542 154.587 92.001C154.602 103.833 154.646 113.487 154.72 113.458C154.779 113.428 154.867 120.992 154.94 130.264C154.999 139.55 155.088 152.574 155.235 171.279L147.965 171.146C143.962 171.073 134.234 171.014 126.346 171.028C118.458 171.043 108.422 170.999 96.1335 170.837L96.3984 171.75Z" fill="#003FFF"/>
<path d="M133.999 187.099L128.142 187.172C124.934 187.217 114.912 187.29 89.4817 187.423L90.2174 186.687C112.233 186.54 121.093 186.437 124.095 186.348C127.112 186.275 130.555 186.216 131.747 186.216H133.925L133.999 187.099Z" fill="#003FFF"/>
<path d="M179.62 178.813C179.09 178.843 178.266 178.843 177.78 178.813C177.295 178.784 177.721 178.769 178.737 178.769C179.752 178.769 180.15 178.784 179.62 178.813Z" fill="#15006A"/>
<path fill-rule="evenodd" clip-rule="evenodd" d="M161.224 138.844H169.392L169.995 139.462C170.422 139.888 170.628 140.256 170.702 140.668C170.775 141.154 170.731 141.375 170.422 141.89C170.187 142.272 169.863 142.596 169.539 142.729C169.26 142.846 168.73 142.949 167.7 142.949L168.068 143.656C168.288 144.083 168.436 144.583 168.436 144.98C168.436 145.319 168.303 145.952 168.141 146.378C167.979 146.79 167.876 147.173 167.935 147.217C167.979 147.261 168.892 147.32 171.894 147.453L171.305 147.732C170.982 147.879 170.672 147.997 170.614 147.982C170.54 147.968 170.54 148.071 170.599 148.218C170.672 148.365 170.658 148.424 170.569 148.365C170.481 148.306 170.422 148.777 170.422 149.616C170.422 150.749 170.481 151.088 171.158 152.53L171.938 152.515C172.35 152.515 172.747 152.589 172.821 152.677C172.88 152.765 172.821 152.898 172.703 152.971C172.586 153.045 171.732 153.104 169.171 153.104L169.745 153.81C170.069 154.193 170.437 154.752 170.555 155.061C170.687 155.355 170.79 155.797 170.79 156.047C170.79 156.297 170.672 156.798 170.525 157.195C170.378 157.578 170.054 158.196 169.789 158.593C169.525 158.976 169.319 159.314 169.319 159.358C169.319 159.402 170.363 159.432 171.644 159.432C173.837 159.417 173.984 159.447 174.381 159.756C174.616 159.947 174.999 160.491 175.235 160.977C175.573 161.713 175.647 162.051 175.647 163.037C175.647 164.023 175.588 164.347 174.837 165.907L178.59 165.819C180.65 165.775 182.416 165.701 182.49 165.672C182.563 165.642 186.11 165.627 198.089 165.686L197.162 166.687C196.662 167.232 196.147 167.909 196.029 168.188C195.911 168.468 195.808 168.895 195.808 169.145C195.808 169.395 195.882 169.748 195.955 169.954C196.029 170.16 196.456 170.661 196.882 171.073C197.295 171.499 197.795 171.897 197.986 171.956C198.163 172.029 198.31 172.162 198.31 172.235C198.31 172.309 198.148 172.456 197.942 172.529C197.736 172.618 196.176 172.677 191.246 172.677L190.54 173.383C190.157 173.766 189.73 174.325 189.583 174.634C189.451 174.928 189.333 175.473 189.333 175.841C189.333 176.209 189.465 176.856 189.613 177.283C189.774 177.695 190.025 178.195 190.172 178.387C190.378 178.652 190.76 178.769 192.129 179.019C193.056 179.181 194.189 179.476 194.631 179.682C195.072 179.888 195.617 180.256 195.838 180.491C196.25 180.918 196.25 180.918 196.25 183.096C196.25 184.891 196.191 185.362 195.97 185.848C195.823 186.172 195.426 186.701 195.087 187.025C194.763 187.349 194.498 187.658 194.484 187.732C194.484 187.79 194.999 187.835 195.617 187.835C196.25 187.835 196.868 187.893 196.986 187.967C197.162 188.07 197.147 188.129 196.838 188.291C196.632 188.394 196.323 188.644 196.147 188.85C195.955 189.056 195.587 189.659 195.337 190.189C194.955 190.955 194.852 191.322 194.852 192.029C194.852 192.779 194.925 193.015 195.337 193.618C195.676 194.119 196.029 194.413 196.647 194.707C197.324 195.031 197.795 195.134 198.899 195.208C199.664 195.252 200.15 195.296 199.958 195.311C199.782 195.325 199.664 195.384 199.693 195.458C199.737 195.517 199.414 195.605 199.002 195.664C198.575 195.723 194.999 195.855 191.025 195.958C187.052 196.046 183.579 196.12 183.299 196.105C183.02 196.105 182.534 196.076 182.24 196.046C181.916 196.017 181.68 195.929 181.68 195.826C181.68 195.723 181.548 195.634 181.386 195.634C181.224 195.634 180.856 195.399 180.577 195.119C180.297 194.84 179.914 194.325 179.738 193.986C179.517 193.545 179.414 193.088 179.399 192.47C179.399 191.808 179.502 191.381 179.797 190.778C180.032 190.278 180.474 189.704 180.959 189.277C181.401 188.894 181.725 188.556 181.68 188.512C181.636 188.482 177.604 188.379 172.703 188.291C166.758 188.188 163.756 188.085 163.653 187.982C163.55 187.879 163.947 187.82 164.977 187.805C165.533 187.805 166.736 187.798 169.138 187.784C170.232 187.778 171.574 187.77 173.218 187.761L174.175 187.305C174.705 187.069 175.396 186.628 175.72 186.334C176.044 186.054 176.456 185.48 176.647 185.068C176.824 184.641 177.015 184.023 177.059 183.685C177.118 183.331 177.074 182.699 176.971 182.242C176.809 181.58 176.633 181.301 176.015 180.697C175.602 180.3 174.94 179.785 173.807 179.167L166.846 179.343L166.666 179.348C159.987 179.52 159.886 179.522 159.988 179.814C160.047 179.976 160.121 180.476 160.15 180.918C160.209 181.551 160.135 181.889 159.885 182.463C159.694 182.875 159.532 183.243 159.503 183.317C159.473 183.376 160.4 183.42 161.548 183.42C162.711 183.42 163.756 183.493 163.873 183.567C164.035 183.67 164.05 183.758 163.947 183.905C163.905 183.973 163.818 184.095 163.721 184.231C163.65 184.331 163.574 184.438 163.506 184.538C163.285 184.847 163.197 185.245 163.167 186.069C163.123 186.878 163.182 187.305 163.358 187.687C163.491 187.967 163.932 188.467 164.33 188.791C164.962 189.292 165.036 189.395 164.801 189.483C164.653 189.542 164.094 189.586 163.535 189.586C162.99 189.601 162.461 189.63 162.358 189.689C162.24 189.733 162.387 189.969 162.784 190.381C163.167 190.763 163.461 191.249 163.579 191.661C163.697 192.044 163.756 193.03 163.726 195.634H169.171C172.703 195.634 174.616 195.693 174.616 195.782C174.616 195.87 173.527 195.943 171.703 195.973C170.113 195.988 167.626 195.988 163.579 195.929L163.3 196.488C163.152 196.782 162.755 197.283 161.813 198.136H154.116C149.893 198.151 144.374 198.18 141.872 198.224C139.371 198.269 136.78 198.254 134.956 198.063L137.163 197.974L137.559 197.96L137.802 197.951L137.804 197.951L137.808 197.95L137.812 197.95L137.816 197.95C139.23 197.898 141.788 197.803 146.434 197.665L146.846 197.209C147.082 196.944 147.45 196.37 147.685 195.929C147.906 195.487 148.156 194.751 148.245 194.31C148.318 193.824 148.333 193.25 148.259 192.882C148.186 192.529 148.024 192.029 147.891 191.779C147.759 191.514 147.479 191.028 147.259 190.69C147.053 190.351 146.714 190.013 146.508 189.924C146.273 189.821 144.021 189.718 140.357 189.645C136.53 189.571 134.588 189.571 134.588 189.674C134.588 189.748 134.794 190.116 135.029 190.484C135.309 190.91 135.515 191.484 135.618 192.102C135.706 192.632 135.736 193.353 135.677 193.721C135.618 194.089 135.441 194.781 135.265 195.266C135.088 195.752 134.72 196.532 134.441 197.003C134.161 197.459 133.852 197.857 133.778 197.857C133.705 197.871 133.822 197.93 134.514 198.107L134.028 198.121C133.778 198.121 133.528 198.063 133.484 197.989C133.44 197.915 133.675 197.297 133.984 196.635C134.308 195.958 134.676 195.09 134.823 194.678C134.97 194.236 135.088 193.471 135.088 192.765C135.103 191.837 135.029 191.455 134.779 190.925C134.602 190.557 134.205 190.013 133.337 189.144H134.22C134.705 189.13 135.176 189.144 135.25 189.159C135.324 189.174 135.191 188.938 134.941 188.629C134.691 188.306 134.367 187.835 133.999 187.099L133.925 186.216C134.279 184.965 134.529 184.509 134.808 184.244C135.044 184.008 135.441 183.729 135.691 183.611C135.941 183.479 136.457 183.361 136.869 183.317C137.266 183.273 137.796 183.184 138.046 183.111C138.311 183.037 138.605 182.787 138.767 182.507C138.958 182.169 139.032 181.757 139.017 181.139C139.017 180.624 138.914 180.123 138.782 179.932C138.576 179.623 138.429 179.593 137.192 179.564C136.457 179.549 135.735 179.535 135.618 179.505C135.505 179.491 135.052 179.477 134.599 179.463L134.543 179.461C134.087 179.446 133.705 179.373 133.705 179.299C133.705 179.226 133.808 179.152 133.925 179.152C134.043 179.152 134.131 179.108 134.117 179.049C134.087 178.975 134.264 178.666 134.514 178.343C134.764 178.004 134.97 177.504 135.014 177.165C135.058 176.738 134.985 176.429 134.764 176.032C134.485 175.546 134.337 175.443 133.587 175.296C132.895 175.134 135.161 175.105 146.905 175.075L161.077 175.031C161.077 155.017 161.136 145.598 161.224 141.183V138.844ZM166.817 142.949H162.107V147.217L166.89 147.232C167.449 146.143 167.641 145.525 167.67 145.157C167.729 144.612 167.655 144.362 167.273 143.729L166.817 142.949ZM170.04 147.953H162.093V152.515C163.182 152.662 164.712 152.662 166.213 152.603C167.714 152.559 169.289 152.515 169.716 152.515H170.481C169.995 151.279 169.848 150.602 169.848 150.087C169.833 149.601 169.878 148.91 169.937 148.571L170.04 147.953ZM168.597 153.81L167.994 153.251C163.653 153.192 162.313 153.207 162.225 153.222C162.093 153.266 162.048 154.09 162.078 156.43L162.107 159.579L168.068 159.564C168.936 158.608 169.363 158.004 169.569 157.592C169.789 157.18 169.951 156.606 169.951 156.268C169.966 155.9 169.819 155.444 169.583 155.017C169.363 154.649 168.921 154.105 168.597 153.81ZM197.118 166.128C197.118 166.084 197.015 166.054 196.868 166.069C196.72 166.084 193.556 166.201 189.833 166.334L183.064 166.569C181.96 167.32 181.504 167.82 181.268 168.218C180.959 168.747 180.871 169.115 180.871 169.733C180.856 170.44 180.93 170.646 181.415 171.308C181.813 171.867 182.092 172.103 182.401 172.162C182.652 172.191 182.813 172.294 182.769 172.382C182.74 172.456 182.769 172.53 182.843 172.53C182.931 172.53 182.99 172.471 182.99 172.412C182.99 172.353 183.24 172.309 183.549 172.309C183.738 172.309 184.835 172.287 186.36 172.256C187.336 172.237 188.486 172.214 189.686 172.191C192.762 172.117 195.573 172.044 195.911 172L196.529 171.941C195.764 170.97 195.44 170.469 195.308 170.204C195.175 169.939 195.058 169.513 195.058 169.248C195.058 168.983 195.249 168.379 195.484 167.894C195.779 167.246 196.073 166.893 196.514 166.599C196.853 166.378 197.118 166.157 197.118 166.128ZM163.093 166.717C163.196 166.525 163.137 166.496 162.77 166.511C162.519 166.511 162.181 166.555 162.034 166.584C161.784 166.643 161.739 166.761 161.769 167.232L161.798 167.82C162.696 167.143 163.005 166.834 163.093 166.717ZM181.533 166.569C181.533 166.525 178.737 166.51 175.308 166.525C171.894 166.54 167.935 166.569 166.508 166.599L166.502 166.599C163.947 166.643 163.932 166.643 163.52 167.04C163.299 167.261 162.887 167.85 162.608 168.335C162.21 169.042 162.107 169.38 162.107 170.028C162.107 170.528 162.21 171.058 162.387 171.426C162.549 171.75 162.828 172.162 163.005 172.338L163.344 172.677L181.636 172.456C180.871 171.588 180.547 171.146 180.415 170.911C180.297 170.661 180.194 170.072 180.194 169.586C180.194 169.101 180.267 168.512 180.356 168.291C180.444 168.07 180.738 167.6 181.018 167.261C181.298 166.923 181.533 166.599 181.533 166.569ZM162.343 172.544L161.931 172.162L161.975 174.016C162.019 175.532 162.078 175.929 162.284 176.15C162.461 176.341 162.534 176.68 162.534 177.312C162.549 178.019 162.49 178.254 162.24 178.49C162.078 178.652 161.945 178.828 161.945 178.887C161.945 178.946 162.814 179.005 163.859 179.005C165.036 179.005 165.772 178.946 165.772 178.858C165.772 178.769 165.639 178.637 165.477 178.563C165.316 178.475 165.006 178.063 164.786 177.636C164.506 177.077 164.388 176.635 164.388 176.061C164.388 175.443 164.477 175.075 164.771 174.59C164.977 174.222 165.345 173.78 165.566 173.589L165.992 173.265C164.006 173.265 163.27 173.177 163.093 173.089C162.917 173 162.578 172.75 162.343 172.544ZM189.745 173.383C190.098 173 190.348 172.677 190.319 172.677C190.289 172.677 190.231 172.706 190.201 172.75C190.157 172.78 187.243 172.883 183.696 172.971C179.532 173.059 177.148 173.177 176.927 173.28C176.75 173.368 176.412 173.619 176.176 173.839C175.956 174.045 175.676 174.399 175.558 174.634C175.44 174.855 175.352 175.385 175.352 175.811C175.352 176.223 175.44 176.827 175.529 177.151C175.632 177.46 175.838 177.842 175.97 177.989C176.117 178.151 176.191 178.298 176.132 178.343C176.073 178.387 176.103 178.416 176.176 178.416C176.25 178.416 176.471 178.549 176.677 178.725C177.03 179.049 177.103 179.049 181.975 179.034C185.109 179.034 187.42 178.946 188.317 178.828L189.745 178.637C189.23 178.063 189.009 177.548 188.921 177.136C188.818 176.709 188.744 176.165 188.744 175.914C188.744 175.679 188.818 175.164 188.921 174.781C189.038 174.34 189.348 173.825 189.745 173.383ZM168.656 172.927C169.142 172.897 168.671 172.883 167.626 172.883C166.566 172.883 166.169 172.912 166.743 172.927C167.302 172.956 168.171 172.956 168.656 172.927ZM137.752 175.414L135.103 175.326L135.441 176.032C135.691 176.547 135.75 176.856 135.677 177.239C135.632 177.518 135.456 178.048 135.294 178.416L135.014 179.078L146.729 178.887C147.111 178.357 147.273 177.93 147.317 177.607C147.391 177.209 147.332 176.841 147.185 176.474C146.964 175.944 146.905 175.914 146.243 175.9L145.551 175.87C146.611 175.708 145.772 175.649 144.006 175.62C142.417 175.605 140.96 175.576 140.768 175.546C140.562 175.532 139.209 175.473 137.752 175.414ZM175.72 179.211L175.131 179.093L176.014 179.902C176.5 180.344 177.089 181.08 177.339 181.507C177.707 182.184 177.78 182.463 177.766 183.331C177.766 184.156 177.692 184.523 177.383 185.097C177.177 185.509 176.736 186.128 176.397 186.466C176.059 186.804 175.44 187.261 175.014 187.452L174.248 187.82L193.969 187.805C195.116 186.466 195.514 185.818 195.631 185.451C195.734 185.097 195.852 184.082 195.896 183.184C195.955 181.801 195.941 181.492 195.705 181.065C195.514 180.697 195.19 180.418 194.631 180.138C194.189 179.917 193.453 179.652 193.012 179.564C192.482 179.461 189.465 179.387 184.256 179.373C179.885 179.358 176.044 179.284 175.72 179.211ZM159.179 179.844C159.046 179.549 158.914 179.461 158.678 179.476C158.502 179.505 154.087 179.535 148.892 179.549C139.959 179.593 139.444 179.608 139.532 179.844C139.576 179.991 139.65 180.506 139.694 180.992C139.738 181.595 139.694 182.051 139.532 182.463C139.4 182.787 139.312 183.052 139.326 183.067C139.338 183.078 141.404 183.109 144.233 183.151C144.923 183.162 145.658 183.173 146.42 183.184C150.305 183.228 154.514 183.317 155.765 183.361L158.046 183.464C158.826 182.684 159.135 182.228 159.252 181.948C159.385 181.654 159.444 181.183 159.4 180.844C159.37 180.521 159.267 180.064 159.179 179.844ZM148.421 183.788C148.215 183.758 146.199 183.699 143.933 183.655C141.666 183.611 139.238 183.64 138.561 183.699C137.869 183.773 136.972 183.92 136.574 184.053C136.162 184.185 135.662 184.479 135.441 184.7C135.235 184.921 134.985 185.259 134.897 185.436C134.808 185.627 134.735 186.025 134.735 186.319C134.735 186.628 134.882 187.202 135.073 187.614C135.265 188.011 135.574 188.482 135.765 188.644C136.118 188.938 136.368 188.953 141.872 189.056C145.022 189.115 148.23 189.189 149.01 189.218L150.408 189.292C149.333 188.217 148.951 187.717 148.863 187.496C148.774 187.275 148.715 186.849 148.715 186.54C148.715 186.245 148.833 185.73 148.98 185.406C149.127 185.083 149.422 184.597 149.643 184.332L150.04 183.861C149.069 183.846 148.612 183.817 148.421 183.788ZM162.946 184.229C159.841 184.053 157.31 183.964 155.338 183.92C152.144 183.861 151.673 183.876 151.291 184.097C151.041 184.229 150.599 184.568 150.29 184.862C149.981 185.156 149.657 185.642 149.569 185.922C149.481 186.201 149.451 186.643 149.495 186.908C149.554 187.217 149.893 187.717 150.437 188.276L151.291 189.159C160.179 189.027 162.931 188.953 163.137 188.924L163.505 188.85C163.005 188.35 162.784 188.011 162.696 187.791C162.608 187.57 162.549 186.893 162.549 186.289C162.549 185.686 162.637 184.965 162.74 184.7L162.946 184.229ZM195.072 188.894L195.367 188.423C187.199 188.467 184.403 188.497 183.888 188.526C183.358 188.556 182.769 188.6 182.593 188.644C182.416 188.688 181.886 189.056 181.43 189.483C180.989 189.91 180.459 190.557 180.267 190.925C180.091 191.293 179.885 191.852 179.841 192.176C179.752 192.647 179.811 192.912 180.106 193.5C180.297 193.898 180.783 194.516 181.18 194.869C181.577 195.222 182.166 195.576 182.49 195.664C182.872 195.762 184.418 195.782 187.125 195.723C189.348 195.679 192.291 195.59 193.674 195.531L196.176 195.428C195.367 194.825 194.955 194.442 194.734 194.192C194.513 193.927 194.292 193.5 194.248 193.236C194.189 192.971 194.175 192.235 194.204 191.587C194.248 190.837 194.351 190.219 194.528 189.895L194.594 189.77C194.739 189.493 194.933 189.122 195.072 188.894ZM153.719 189.409C154.16 189.38 153.822 189.365 152.983 189.365C152.13 189.365 151.762 189.38 152.174 189.409C152.571 189.439 153.263 189.439 153.719 189.409Z" fill="#15006A"/>
<path fill-rule="evenodd" clip-rule="evenodd" d="M13.6919 167.85L6.87818 167.761C2.58097 167.703 0.0497382 167.614 0.00558877 167.526C-0.0385606 167.438 0.182186 167.379 0.550098 167.379C0.903293 167.379 1.49195 167.335 1.87458 167.276C2.55154 167.158 2.59569 167.129 2.93417 166.349C3.12548 165.907 3.36094 165.274 3.46396 164.951C3.56697 164.627 3.62584 163.935 3.59641 163.405C3.55226 162.772 3.40509 162.199 2.80172 160.977L1.87458 160.948C1.30064 160.918 0.87386 160.815 0.741412 160.683C0.62368 160.565 0.564815 160.433 0.62368 160.388C0.66783 160.344 1.13876 160.315 1.65383 160.315C2.16891 160.315 2.58097 160.271 2.58097 160.212C2.58097 160.138 2.41909 159.859 2.22778 159.579C2.03646 159.299 1.72742 158.637 1.55082 158.107C1.30064 157.357 1.24177 156.915 1.28592 156.047C1.33007 155.238 1.46252 154.693 1.78628 154.001C2.05118 153.413 2.43381 152.868 2.80172 152.559C3.12548 152.28 3.62584 152 3.90545 151.926C4.18507 151.838 4.97975 151.779 6.92233 151.779L7.12836 150.646C7.26081 149.94 7.30496 149.071 7.24609 148.395C7.20194 147.791 7.09893 147.099 6.84875 146.408L5.25937 146.29C4.3911 146.231 3.15491 146.187 2.50739 146.187C1.85986 146.187 1.07989 146.113 0.770845 146.04C0.476516 145.952 0.226336 145.819 0.226336 145.746C0.226336 145.672 0.505949 145.598 0.844428 145.598C1.19762 145.598 1.55082 145.54 1.63912 145.481C1.72742 145.422 2.02174 144.907 2.30136 144.347C2.65455 143.626 2.81643 143.052 2.86058 142.434C2.89002 141.816 2.84587 141.404 2.66927 141.08C2.51229 140.757 2.21306 140.497 1.77156 140.3C1.40365 140.139 1.07989 139.933 1.03574 139.859C0.991592 139.756 3.18435 139.741 7.54042 139.785C10.1116 139.817 14.1847 139.855 17.9371 139.891L17.9591 139.891L18.0517 139.892L18.3649 139.895L18.4456 139.896C19.8159 139.909 21.1314 139.921 22.301 139.933C26.7896 139.977 30.6158 140.036 30.7924 140.08C30.9838 140.124 31.3958 140.403 31.7343 140.712C32.1758 141.11 32.3965 141.463 32.5584 142.066C32.7056 142.596 32.7497 143.141 32.6909 143.656C32.6467 144.068 32.4848 144.671 32.3229 144.98C32.1758 145.275 31.8079 145.746 31.5135 146.01C31.0426 146.437 30.8955 146.481 29.2178 146.481L29.3061 146.893C29.3502 147.114 29.4238 147.718 29.468 148.247C29.5121 148.821 29.468 149.469 29.3502 149.866C29.2472 150.234 29.0117 150.837 28.482 151.926L29.1736 151.941C29.571 151.956 30.66 152 31.6018 152.059C33.0882 152.132 33.309 152.177 33.1912 152.368C33.1176 152.486 32.941 152.589 32.7939 152.603C32.6467 152.603 32.3818 152.692 32.1905 152.78C32.0139 152.883 31.749 153.177 31.6166 153.442C31.4547 153.751 31.3664 154.281 31.3664 154.987C31.3517 155.812 31.4105 156.106 31.5871 156.238C31.7049 156.341 32.5437 156.606 33.4267 156.842L33.6326 157.533C32.6907 157.298 31.0131 156.974 29.8799 156.798C28.7467 156.636 27.4517 156.474 27.0102 156.444C26.554 156.415 25.7004 156.444 25.097 156.518C24.4789 156.592 23.3605 156.827 22.5952 157.018C21.8153 157.21 20.7557 157.578 20.2406 157.828C19.7108 158.078 18.8131 158.622 18.2539 159.035C17.6947 159.461 16.8853 160.227 16.4438 160.756C16.017 161.286 15.3989 162.243 15.0898 162.89C14.7808 163.538 14.4423 164.465 14.354 164.951C14.251 165.436 14.1627 166.334 14.1627 166.937C14.1627 167.261 14.1819 167.563 14.2214 167.85H13.6919ZM15.0898 140.595C9.3357 140.565 6.58372 140.521 5.25924 140.477C3.94947 140.418 2.87517 140.374 2.87517 140.374C2.87517 140.374 2.97819 140.61 3.12535 140.889C3.30195 141.228 3.39025 141.728 3.37553 142.361C3.37553 143.155 3.28723 143.509 2.83102 144.465L2.28651 145.598H15.0898C15.5313 144.627 15.7079 144.053 15.7668 143.685C15.8257 143.303 15.7962 142.699 15.6932 142.287C15.5902 141.89 15.4283 141.331 15.3106 141.08L15.0898 140.595ZM19.8433 146.599C19.7697 146.54 16.9883 146.481 13.6329 146.452C10.2923 146.423 7.52558 146.437 7.49614 146.481C7.48143 146.526 7.52558 146.79 7.61388 147.07C7.70217 147.35 7.77576 148.188 7.77576 148.91C7.77576 149.748 7.68746 150.528 7.52558 151.043L7.48558 151.177C7.37046 151.559 7.2769 151.871 7.29011 151.897C7.29011 151.912 9.95379 151.912 13.2061 151.897L19.1369 151.853C19.9021 149.587 19.9757 149.101 19.961 148.027C19.961 147.306 19.9021 146.658 19.8433 146.599ZM28.4082 146.481H20.3436L20.4761 147.261C20.5497 147.673 20.5938 148.395 20.5938 148.836C20.5791 149.278 20.4319 150.043 20.2553 150.528C20.0787 151.014 19.9021 151.529 19.858 151.676C19.7991 151.912 20.0493 151.926 23.699 151.926H27.5988C28.2905 150.837 28.5848 150.205 28.7026 149.793C28.8203 149.395 28.9233 148.821 28.9233 148.542C28.9086 148.262 28.8056 147.673 28.6584 147.247L28.4082 146.481ZM24.9057 152.515H18.769L18.5482 152.839C18.4305 153.016 18.2686 153.575 18.1803 154.06C18.0773 154.649 18.0773 155.223 18.1656 155.826C18.2539 156.312 18.401 156.93 18.5041 157.195C18.6512 157.578 18.7542 157.681 18.975 157.607C19.1369 157.578 20.0346 157.269 20.9617 156.945C21.8888 156.621 23.3163 156.253 24.1258 156.135C24.9352 156.003 26.0683 155.9 26.6276 155.9C27.2015 155.9 28.3494 156.003 29.2029 156.121C29.6107 156.17 29.995 156.219 30.2915 156.257C30.6157 156.299 30.8351 156.327 30.8659 156.327C30.9248 156.327 30.91 156.121 30.8217 155.856C30.7482 155.591 30.6746 155.076 30.6746 154.723C30.6746 154.355 30.7482 153.81 30.8217 153.501C30.91 153.192 31.0866 152.912 31.2338 152.854C31.4546 152.78 31.4546 152.751 31.2632 152.633C31.1455 152.574 28.2758 152.515 24.9057 152.515ZM9.424 160.904H3.33138L3.71401 161.683C3.92004 162.096 4.12607 162.787 4.15551 163.185C4.19965 163.597 4.15551 164.288 4.05249 164.73C3.94947 165.171 3.69929 165.922 3.47855 166.393C3.27252 166.849 3.12535 167.261 3.1695 167.276C3.19893 167.305 5.55357 167.305 8.39385 167.261L13.5446 167.202C13.6035 165.686 13.6918 164.965 13.7654 164.627C13.8389 164.274 14.1186 163.552 14.354 163.008C14.6042 162.449 14.9721 161.787 15.1634 161.536C15.3695 161.271 15.5313 161.021 15.5313 160.977C15.5313 160.933 12.7794 160.904 9.424 160.904Z" fill="#15006A"/>
<path fill-rule="evenodd" clip-rule="evenodd" d="M167.626 172.883C168.671 172.883 169.142 172.897 168.656 172.927C168.171 172.956 167.302 172.956 166.743 172.927C166.169 172.912 166.566 172.883 167.626 172.883ZM152.983 189.365C153.822 189.365 154.16 189.38 153.719 189.409C153.263 189.439 152.571 189.439 152.174 189.409C151.762 189.38 152.13 189.365 152.983 189.365ZM177.78 178.813C178.266 178.843 179.09 178.843 179.62 178.813C180.15 178.784 179.752 178.769 178.737 178.769C177.721 178.769 177.295 178.784 177.78 178.813Z" fill="#15006A"/>
<path d="M103.323 63.0455C102.193 62.5549 101.18 62.0876 101.086 61.9941C100.992 61.9124 100.968 61.8423 101.027 61.8423C101.086 61.8423 101.804 62.0993 102.617 62.4147C103.429 62.7301 105.513 63.6063 107.267 64.354C109.021 65.1133 110.47 65.7441 110.505 65.7675C110.54 65.7909 110.517 65.8493 110.47 65.9077C110.411 65.9544 110.022 65.861 109.587 65.7091C109.151 65.5689 108.032 65.1016 107.091 64.6811C106.149 64.2605 104.453 63.5245 103.323 63.0455Z" fill="#003FFF"/>
<path d="M100.521 66.1297C100.439 66.0479 100.38 65.9194 100.391 65.8259C100.403 65.7442 100.474 65.6974 100.544 65.7325C100.615 65.7675 101.604 66.1764 102.734 66.632C103.865 67.0876 105.69 67.7418 106.796 68.0923C107.903 68.4311 109.292 68.8633 109.893 69.0502C110.493 69.2255 110.976 69.4124 110.976 69.4708C110.976 69.5175 110.776 69.5175 110.54 69.4825C110.293 69.4474 109.351 69.2372 108.445 69.0152C107.538 68.7932 106.16 68.396 105.383 68.1273C104.606 67.8703 103.229 67.3446 102.322 66.9591C101.416 66.5736 100.603 66.1998 100.521 66.1297Z" fill="#003FFF"/>
<path d="M126.753 68.2675C126.753 68.0923 126.847 68.0222 127.141 67.9988C127.341 67.9755 127.812 67.9404 128.165 67.9404C128.519 67.9287 128.754 67.9638 128.695 68.0222C128.625 68.0689 128.212 68.2091 127.753 68.3143C127.294 68.4194 126.894 68.5012 126.847 68.5012C126.788 68.5012 126.753 68.396 126.753 68.2675Z" fill="#003FFF"/>
<path d="M102.711 71.2582C102.464 71.2231 102.228 71.1297 102.193 71.0713C102.157 71.0012 102.263 70.9545 102.452 70.9545C102.64 70.9545 103.264 71.0362 103.853 71.1414C104.442 71.2348 105.572 71.4685 106.384 71.6671C107.197 71.854 108.692 72.2862 109.716 72.6133C111.164 73.104 111.565 73.2792 111.565 73.4428C111.565 73.583 111.506 73.618 111.364 73.5713C111.247 73.5362 110.305 73.2442 109.269 72.9288C108.233 72.6133 106.431 72.1227 105.266 71.8423C104.1 71.5619 102.946 71.2932 102.711 71.2582Z" fill="#003FFF"/>
<path d="M127.07 71.9241C127.14 71.9089 127.211 71.8938 127.281 71.879C127.352 71.864 127.422 71.8494 127.488 71.8354C127.714 71.788 127.907 71.7475 127.989 71.7255C128.118 71.7021 128.401 71.6788 128.613 71.6671C128.813 71.6671 128.99 71.6904 128.99 71.7488C129.001 71.7956 128.848 71.9007 128.672 71.9825C128.495 72.0643 128.024 72.1811 127.636 72.2395C127.247 72.2979 126.788 72.3563 126.611 72.3563C126.399 72.3563 126.305 72.3096 126.34 72.2161C126.376 72.1344 126.705 71.9942 127.07 71.9241Z" fill="#003FFF"/>
<path d="M116.003 77.7302C115.968 77.6951 115.921 77.3797 115.874 77.0292C115.827 76.5853 115.838 76.4451 115.921 76.562C115.98 76.6554 116.039 76.9708 116.039 77.2629C116.039 77.555 116.027 77.7652 116.003 77.7302Z" fill="#003FFF"/>
<path fill-rule="evenodd" clip-rule="evenodd" d="M133.287 54.1437C132.439 54.1904 131.285 54.3189 130.697 54.4124C130.108 54.5175 129.213 54.7044 128.695 54.8329C128.177 54.9497 127.141 55.2418 126.399 55.4754C125.658 55.7208 124.304 56.1881 123.397 56.5268C122.49 56.8656 121.301 57.2862 120.748 57.4731C120.195 57.66 119.582 57.8937 119.394 58.0105C119.206 58.1273 118.676 58.4077 118.217 58.6413C117.757 58.875 117.133 59.1904 116.804 59.3306L116.215 59.5876C113.931 58.8867 112.801 58.5479 112.212 58.3843C111.966 58.3161 111.69 58.2376 111.425 58.1626C111.056 58.0578 110.711 57.9598 110.505 57.9054C110.152 57.8119 109.328 57.6016 108.68 57.4497C108.032 57.2862 106.631 56.9708 105.56 56.7488C104.489 56.5268 102.77 56.2114 101.734 56.0596C100.697 55.9077 99.1904 55.7208 98.378 55.6507C97.5657 55.5923 96.7886 55.4988 96.6473 55.4754C96.3765 55.417 96.3765 55.4287 96.3765 56.7605V58.104H94.0218V59.5058L91.8083 59.4474L91.8406 59.6922L91.8409 59.6946C91.9093 60.213 91.9985 60.8902 92.0792 61.5502C92.1851 62.3213 92.4559 64.0619 92.6796 65.4054C92.9033 66.7488 93.3036 69.0386 93.5626 70.4872C93.6255 70.8389 93.696 71.2353 93.7701 71.6519L93.7704 71.6533C94.0015 72.9524 94.2674 74.4475 94.4456 75.3937C94.5795 76.1419 94.7683 77.1496 94.9437 78.0861C95.0613 78.7142 95.1729 79.3103 95.258 79.7746C95.4817 80.9312 95.8349 82.7069 96.0469 83.7349L96.4354 85.5924C97.8011 85.4639 98.8137 85.3354 99.5554 85.2069C100.297 85.0901 102.075 84.8681 103.5 84.7396C105.725 84.5176 106.608 84.4942 109.798 84.541C112.754 84.576 113.625 84.6228 114.096 84.7746C114.425 84.8798 114.685 84.9499 114.685 84.9382C114.69 84.9323 114.708 84.8915 114.735 84.8302C114.761 84.7688 114.796 84.687 114.838 84.5994C114.92 84.4008 115.132 84.2256 115.367 84.1438C115.662 84.0503 115.933 84.0737 116.686 84.2606C117.487 84.4709 117.64 84.4826 117.746 84.3424C117.805 84.2489 118.04 84.1438 118.252 84.1087L118.629 84.0386C118.629 87.8588 118.652 88.1041 118.864 88.4545C118.994 88.6531 119.182 88.8284 119.276 88.8284C119.382 88.8284 119.523 88.5947 119.653 88.2209C119.759 87.8821 119.912 87.4849 120.006 87.3447C120.089 87.1929 120.218 87.076 120.277 87.076C120.336 87.076 120.418 87.2162 120.454 87.4031C120.489 87.5784 120.677 87.9873 120.877 88.3027C121.16 88.7583 121.266 88.8517 121.348 88.7116C121.407 88.6064 121.419 87.6134 121.372 86.3751L121.301 84.2139C126.67 84.2489 129.413 84.319 130.873 84.4008C132.333 84.4709 134.029 84.5994 134.641 84.6929C135.253 84.7863 135.901 84.8564 136.089 84.8564C136.324 84.8564 136.442 84.7746 136.536 84.541C136.607 84.3541 136.736 83.1391 136.831 81.819C136.912 80.511 137.075 78.515 137.17 77.3534L137.172 77.3213C137.278 76.1648 137.49 74.0036 137.655 72.5316C137.82 71.0596 138.102 68.7115 138.302 67.333C138.503 65.9545 138.762 64.2372 138.879 63.5362C139.009 62.8353 139.268 61.3633 139.456 60.2652C139.656 59.167 139.786 58.2441 139.762 58.1974C139.727 58.139 139.503 58.104 139.268 58.104C139.021 58.104 138.644 58.0689 138.432 58.0222C138.173 57.9521 138.067 57.8703 138.102 57.7535C138.13 57.6796 138.165 57.4816 138.202 57.2749L138.203 57.2718C138.212 57.218 138.222 57.1638 138.232 57.111C138.302 56.6787 138.279 56.632 137.973 56.4801C137.796 56.3983 137.255 56.2932 136.784 56.2465C136.313 56.2114 135.924 56.1413 135.901 56.0829C135.889 56.0362 135.924 55.5923 135.971 55.0899C136.042 54.4007 136.03 54.167 135.912 54.1086C135.83 54.0619 135.547 54.0268 135.288 54.0385C135.106 54.0385 134.607 54.0675 134.032 54.101L134.031 54.1011C133.791 54.1151 133.537 54.1299 133.287 54.1437ZM130.049 54.9497C130.991 54.7511 132.227 54.5525 132.816 54.4941C133.405 54.4474 134.288 54.389 134.794 54.3773C135.677 54.3656 135.701 54.3773 135.642 54.6226C135.607 54.7717 135.402 56.0007 135.172 57.3824L135.172 57.3845L135.159 57.4614C134.935 58.875 134.617 61.0829 134.464 62.368C134.311 63.653 134.123 65.382 134.052 66.2232C133.982 67.0526 133.852 68.5596 133.758 69.5526C133.664 70.5456 133.534 72.7536 133.464 74.4592C133.405 76.1648 133.31 77.9171 133.216 79.1905L132.427 79.284C131.992 79.3307 130.661 79.5059 129.461 79.6695C128.26 79.8213 126.517 80.1134 125.575 80.3003C124.633 80.4989 123.303 80.791 121.348 81.2933L121.313 69.4942C121.29 63.0105 121.278 57.6834 121.278 57.6717C121.278 57.6483 122.208 57.2979 123.338 56.889C124.468 56.4801 126.058 55.9427 126.87 55.7091C127.683 55.4754 129.107 55.1367 130.049 54.9497ZM97.083 60.9895C96.9535 59.1437 96.8358 57.2511 96.824 56.7839L96.8005 55.931L98.0249 56.0829C98.7078 56.1647 100.05 56.3399 101.027 56.4684C101.993 56.6086 103.511 56.8423 104.383 57.0058C105.254 57.1577 106.584 57.4264 107.326 57.5899C108.068 57.7535 109.292 58.0455 110.034 58.2325C110.776 58.4194 112.412 58.875 115.921 59.9147L115.85 67.2162C115.815 71.2349 115.756 74.7045 115.638 75.3353L115.568 74.8096C115.532 74.5176 115.462 76.2699 115.415 78.6882C115.367 81.5036 115.285 83.1041 115.214 83.1041C115.156 83.1041 114.426 82.8237 113.59 82.4732C112.766 82.1228 111.588 81.6788 110.976 81.4802C110.364 81.2816 109.292 80.9896 108.586 80.826C107.891 80.6625 106.785 80.4522 106.113 80.347C105.395 80.2302 103.794 80.1251 99.2847 80.0083L99.061 78.7816C98.9551 78.104 98.7431 76.8424 98.6136 75.9779C98.4841 75.1134 98.2957 73.7115 98.2015 72.8821C98.0956 72.0409 97.9425 70.6507 97.8483 69.7863C97.7541 68.9218 97.6011 67.3447 97.4951 66.2816C97.4009 65.2185 97.2126 62.847 97.083 60.9895ZM135.465 58.5128C135.606 57.5432 135.748 56.6904 135.771 56.6086C135.818 56.4918 135.995 56.4684 136.501 56.5268C136.866 56.5619 137.314 56.6203 137.49 56.6554C137.726 56.6904 137.808 56.7605 137.761 56.9007C137.737 57.0175 137.525 57.9287 137.302 58.9217C137.066 59.9147 136.701 61.7605 136.478 63.0105C136.242 64.2605 135.924 66.2816 135.759 67.5082C135.595 68.7232 135.383 71.0129 135.288 72.59C135.194 74.1671 135.112 76.6204 135.112 80.6508L134.37 80.6975C133.97 80.7326 132.792 80.8143 131.756 80.8844C130.72 80.9545 129.26 81.0947 128.519 81.1882C127.777 81.2816 126.364 81.5153 125.399 81.7022C124.421 81.9008 123.138 82.1812 122.538 82.3447C121.937 82.5083 121.431 82.6368 121.396 82.6368C121.36 82.6368 121.348 82.4382 121.396 81.7723L122.867 81.3751C123.68 81.1648 124.951 80.8611 125.693 80.7092C126.435 80.5573 127.706 80.3237 128.519 80.1952C129.331 80.0667 130.756 79.8681 131.686 79.7512C132.616 79.6344 133.452 79.4826 133.534 79.4241C133.64 79.3424 133.734 78.2326 133.876 75.3353C133.982 73.1508 134.193 69.9148 134.358 68.1507C134.523 66.3867 134.782 63.8867 134.935 62.6016C135.088 61.3166 135.336 59.4708 135.465 58.5128ZM94.7165 61.2582C94.5046 58.9801 94.4928 58.5012 94.6224 58.4311C94.7165 58.3843 95.1639 58.3376 96.4944 58.3376L96.5415 58.8283C96.5768 59.1086 96.6592 60.382 96.7298 61.6671C96.8005 62.9521 96.9535 65.1017 97.083 66.4568C97.2126 67.8003 97.4009 69.5877 97.4951 70.4288C97.6011 71.2582 97.7541 72.555 97.8483 73.2909C97.9543 74.0269 98.1662 75.4755 98.3193 76.5036C98.4841 77.5316 98.696 78.8167 98.7902 79.3657L98.7987 79.415L98.7988 79.4159C98.8894 79.9437 98.9668 80.3952 98.9668 80.4405C98.9668 80.4989 100.38 80.5573 102.11 80.5807C104.418 80.6157 105.548 80.6742 106.325 80.826C106.902 80.9312 107.915 81.1414 108.562 81.2933C109.21 81.4452 110.423 81.8073 111.27 82.0877C112.106 82.3798 113.272 82.7886 113.86 83.0223C114.437 83.2559 115.003 83.5246 115.097 83.6298C115.191 83.7349 115.214 83.8167 115.156 83.805C115.085 83.805 114.378 83.6181 113.566 83.3844C112.754 83.1508 111.565 82.8471 110.917 82.6952C110.27 82.5433 108.916 82.298 107.915 82.1578C106.667 81.9942 105.442 81.9008 104.088 81.9008C102.511 81.8891 101.769 81.9358 100.615 82.1461C99.8028 82.2863 98.8609 82.4732 98.5194 82.5784C98.0367 82.7186 97.8954 82.7185 97.8483 82.6017C97.8248 82.5316 97.6364 81.6204 97.4363 80.5924C97.2361 79.5643 96.9771 78.1391 96.8476 77.4382C96.7298 76.7255 96.4944 75.2886 96.3295 74.2255C96.1647 73.1624 95.9292 71.562 95.7997 70.6624C95.6702 69.7629 95.4347 67.8937 95.2699 66.5152C95.1051 65.1367 94.8578 62.7652 94.7165 61.2582ZM137.431 60.4988C137.655 59.4007 137.867 58.4778 137.89 58.4194C137.926 58.3727 138.232 58.3376 138.585 58.3376C138.938 58.3376 139.256 58.3843 139.291 58.4544C139.327 58.5128 139.162 59.5058 138.938 60.639C138.715 61.7839 138.397 63.5012 138.244 64.4708C138.079 65.4288 137.808 67.2162 137.643 68.4428C137.478 69.6578 137.243 71.6087 137.113 72.7652C136.996 73.9218 136.831 75.604 136.76 76.5036C136.69 77.4031 136.56 79.0036 136.466 80.0667C136.372 81.1298 136.266 82.0176 136.219 82.0527C136.183 82.0877 135.053 82.0059 133.723 81.8891C131.909 81.7256 130.862 81.6905 129.637 81.7489C128.731 81.7956 128.012 81.8073 128.048 81.7723C128.083 81.7489 129.249 81.6087 130.638 81.4802C132.027 81.3517 133.593 81.2349 134.111 81.2232C134.629 81.2115 135.159 81.1648 135.288 81.1181C135.512 81.0363 135.524 80.8844 135.606 76.7255C135.642 74.354 135.759 71.5503 135.865 70.4872C135.971 69.4241 136.16 67.8003 136.289 66.8657C136.43 65.9311 136.642 64.5643 136.772 63.8283C136.901 63.0923 137.196 61.5853 137.431 60.4988ZM116.627 59.9731C116.639 59.868 117.063 59.5993 117.652 59.3189C118.205 59.0502 118.676 58.8399 118.676 58.8516C118.688 58.8516 118.664 64.1087 118.57 82.1928L117.216 82.6601C116.474 82.9055 115.838 83.0807 115.803 83.0457C115.768 82.9989 115.732 81.305 115.721 79.2723C115.709 77.2279 115.721 75.4755 115.756 75.3587C115.78 75.2419 115.874 75.1835 115.98 75.2185C116.133 75.2652 116.156 74.6344 116.156 69.9264V62.2745C116.156 60.7091 116.192 59.9381 116.286 59.8797C116.356 59.8329 116.462 59.8797 116.521 59.9731C116.615 60.125 116.627 60.125 116.627 59.9731ZM93.0682 64.7629C92.927 63.9568 92.715 62.4965 92.5737 61.5152L92.3147 59.7395H94.1396L94.1985 60.639C94.2338 61.1414 94.3516 62.333 94.4457 63.3026C94.5399 64.2605 94.7754 66.3166 94.9638 67.8587C95.1639 69.4007 95.4818 71.7606 95.682 73.1157C95.8704 74.4592 96.1882 76.4919 96.3884 77.6134C96.5768 78.7349 96.8947 80.4171 97.0948 81.3517C97.2832 82.2863 97.4716 83.069 97.5069 83.1041C97.5304 83.1391 98.072 83.0456 98.7078 82.8938C99.3318 82.7536 100.356 82.555 100.968 82.4615C101.581 82.3681 102.534 82.2629 103.088 82.2279C103.77 82.1695 104.748 82.2279 106.149 82.3914C107.279 82.5199 108.762 82.7302 109.445 82.8704C110.128 83.0106 110.717 83.1508 110.764 83.1975C110.811 83.2443 109.116 83.2793 106.996 83.2793C103.994 83.291 102.817 83.3377 101.675 83.4896C100.862 83.6064 99.6968 83.8284 99.0846 83.9802C98.4723 84.1321 97.7306 84.3424 97.4363 84.4475C97.1419 84.541 96.8476 84.6228 96.7887 84.6228C96.7181 84.6228 96.6003 84.2957 96.5179 83.8985C96.4355 83.4896 96.1765 82.2162 95.9528 81.0597C95.7291 79.9031 95.423 78.3026 95.2581 77.4966C95.1051 76.6905 94.8696 75.4288 94.7401 74.6928C94.5988 73.9568 94.328 72.4031 94.1279 71.2465C93.9277 70.09 93.6569 68.4895 93.5274 67.6834C93.4097 66.8774 93.1977 65.5689 93.0682 64.7629ZM125.399 82.4615C126.305 82.3681 127.341 82.2629 127.694 82.2396L127.737 82.2382L127.738 82.2381C128.127 82.2252 129.119 82.1924 129.99 82.1812C130.897 82.1695 132.38 82.2162 133.287 82.2746C134.194 82.3447 135.241 82.4148 136.289 82.5083V82.9171C136.289 83.2676 136.254 83.326 136.03 83.326C135.877 83.326 135.418 83.2793 134.994 83.2092C134.57 83.1508 133.334 83.0456 132.227 82.9756C131.132 82.9055 128.695 82.8471 126.811 82.8471C124.939 82.8471 123.48 82.8003 123.574 82.7419C123.668 82.6952 124.492 82.5667 125.399 82.4615ZM116.392 83.4078C116.486 83.3611 117.016 83.1742 117.569 82.9872L118.57 82.6368L118.605 83.0106C118.617 83.2209 118.593 83.4312 118.546 83.4779C118.499 83.5246 118.158 83.6181 117.805 83.6765C117.298 83.7816 117.051 83.77 116.686 83.6414C116.372 83.5324 116.274 83.4545 116.392 83.4078Z" fill="#003FFF"/>
<path fill-rule="evenodd" clip-rule="evenodd" d="M115.874 77.0292C115.921 77.3797 115.968 77.6951 116.003 77.7302C116.027 77.7652 116.039 77.555 116.039 77.2629C116.039 76.9708 115.98 76.6554 115.921 76.562C115.838 76.4451 115.827 76.5853 115.874 77.0292Z" fill="#003FFF"/>
<path fill-rule="evenodd" clip-rule="evenodd" d="M126.753 68.2675C126.753 68.0923 126.847 68.0222 127.141 67.9988C127.341 67.9755 127.812 67.9404 128.165 67.9404C128.519 67.9287 128.754 67.9638 128.695 68.0222C128.625 68.0689 128.212 68.2091 127.753 68.3143C127.294 68.4194 126.894 68.5012 126.847 68.5012C126.788 68.5012 126.753 68.396 126.753 68.2675ZM127.281 71.879C127.352 71.864 127.422 71.8494 127.488 71.8354C127.714 71.788 127.907 71.7475 127.989 71.7255C128.118 71.7021 128.401 71.6788 128.613 71.6671C128.813 71.6671 128.99 71.6904 128.99 71.7488C129.001 71.7956 128.848 71.9007 128.672 71.9825C128.495 72.0643 128.024 72.1811 127.636 72.2395C127.247 72.2979 126.788 72.3563 126.611 72.3563C126.399 72.3563 126.305 72.3096 126.34 72.2161C126.376 72.1344 126.705 71.9942 127.07 71.9241C127.14 71.9089 127.211 71.8938 127.281 71.879Z" fill="#003FFF"/>
<path d="M126.458 62.6717C125.351 62.8119 124.398 62.9638 124.339 63.0222C124.268 63.0806 124.315 63.1507 124.457 63.1974C124.586 63.2441 125.563 63.174 126.635 63.0339C127.706 62.9054 128.966 62.7068 129.437 62.6133C129.896 62.5082 130.285 62.3797 130.285 62.3096C130.285 62.2511 130.19 62.2044 130.073 62.2044C129.967 62.2161 129.555 62.2628 129.166 62.3212C128.979 62.3437 128.602 62.3932 128.138 62.454C127.636 62.5198 127.033 62.5989 126.458 62.6717Z" fill="#003FFF"/>
<path d="M16.473 186.731C16.6055 186.334 16.8409 185.774 17.0028 185.524C17.1647 185.259 17.4001 185.038 17.5179 185.038C17.7092 185.038 17.6945 185.127 17.459 185.598C17.2971 185.892 17.0617 186.569 16.9292 187.099C16.7673 187.687 16.7085 188.335 16.7526 188.791C16.7968 189.203 17.0028 189.924 17.2235 190.41C17.459 190.925 17.9446 191.631 18.4156 192.102C18.8424 192.544 19.2103 193 19.2103 193.103C19.2103 193.191 19.1073 193.28 18.9895 193.28C18.8718 193.28 18.4744 193.03 18.1212 192.735C17.7681 192.426 17.2824 191.882 17.0322 191.514C16.782 191.146 16.473 190.484 16.3258 190.042C16.1492 189.468 16.1051 188.968 16.164 188.35C16.2081 187.864 16.3406 187.143 16.473 186.731Z" fill="#15006A"/>
<path d="M19.9608 187.908C20.0491 187.423 20.211 186.804 20.314 186.554C20.4317 186.289 20.5936 186.069 20.6672 186.069C20.7555 186.069 20.7849 186.245 20.7555 186.481C20.7113 186.701 20.6083 187.349 20.52 187.908C20.3729 188.806 20.3729 189.041 20.6083 189.748C20.7408 190.189 21.0498 190.837 21.2853 191.19C21.6385 191.69 21.6679 191.823 21.4913 191.882C21.3736 191.926 21.2264 191.926 21.1528 191.896C21.094 191.867 20.8438 191.558 20.6083 191.205C20.3434 190.837 20.0933 190.219 19.9902 189.689C19.8725 189.041 19.8578 188.541 19.9608 187.908Z" fill="#15006A"/>
<path d="M23.2573 188.32C23.375 188.085 23.478 187.79 23.478 187.658C23.478 187.511 23.5222 187.393 23.5811 187.393C23.6546 187.393 23.6988 187.776 23.6988 188.247C23.7135 188.791 23.8018 189.218 23.9637 189.453C24.0961 189.659 24.2139 189.865 24.2139 189.939C24.2139 189.998 24.0961 189.983 23.949 189.91C23.8165 189.851 23.5516 189.542 23.3603 189.247C23.066 188.762 23.0513 188.688 23.2573 188.32Z" fill="#15006A"/>
<path fill-rule="evenodd" clip-rule="evenodd" d="M42.7272 124.598C42.5064 124.819 42.3298 125.216 42.271 125.672C42.1827 126.246 42.2121 126.496 42.4181 126.908C42.5653 127.188 42.8596 127.512 43.0951 127.6C43.4336 127.762 43.566 127.747 43.9781 127.527C44.2871 127.35 44.5079 127.07 44.6403 126.717C44.7875 126.276 44.7875 126.055 44.6403 125.569C44.5373 125.231 44.2724 124.804 44.0517 124.613C43.8162 124.421 43.5072 124.259 43.36 124.259C43.1981 124.259 42.9185 124.407 42.7272 124.598ZM42.6537 125.952C42.5801 125.466 42.6243 125.304 42.8745 125.025C43.0511 124.848 43.2718 124.701 43.3748 124.701C43.4778 124.686 43.6692 124.804 43.8163 124.951C43.9488 125.098 44.1107 125.481 44.1695 125.805C44.2431 126.246 44.2137 126.496 44.0224 126.791C43.8899 127.026 43.6544 127.203 43.4926 127.203C43.3307 127.203 43.0952 127.056 42.9775 126.864C42.845 126.688 42.7126 126.276 42.6537 125.952Z" fill="#15006A"/>
<path fill-rule="evenodd" clip-rule="evenodd" d="M80.4749 90.8384C80.6221 90.9708 80.9753 91.5448 81.2549 92.104C81.5639 92.7368 81.8289 93.6198 81.9613 94.3851C82.079 95.0767 82.2262 96.1805 82.2998 96.8427C82.4028 97.9759 82.4028 98.0495 82.1232 98.1525C81.9613 98.2114 81.4315 98.4321 80.9459 98.6676C80.4602 98.8883 79.6214 99.477 79.0622 99.9773C78.5177 100.463 78.0614 100.846 78.032 100.831C78.0173 100.801 77.826 100.257 77.2373 98.4321L76.1483 98.0053C75.5449 97.7699 74.6178 97.3284 74.0586 97.0487C73.5141 96.7544 72.6016 96.1216 72.0424 95.636C71.0858 94.8118 71.0417 94.7383 71.3507 94.6205C71.5273 94.547 71.9688 94.3409 72.3367 94.1643C72.7046 93.9877 73.7201 93.3991 74.6178 92.8693C75.8098 92.1482 76.6781 91.7508 77.929 91.3535C78.8561 91.0592 79.7538 90.7648 79.901 90.706C80.0923 90.6324 80.2836 90.6765 80.4749 90.8384ZM75.1034 95.2386C74.8532 95.2092 74.7502 95.0767 74.7208 94.7971C74.6766 94.4292 74.7208 94.3851 75.1181 94.3851C75.3683 94.3851 75.6038 94.4292 75.6332 94.5028C75.6626 94.5617 75.6332 94.753 75.5596 94.9443C75.4713 95.165 75.3242 95.2533 75.1034 95.2386ZM79.5183 96.4454C79.224 96.4601 79.2093 96.4307 79.3859 96.2246C79.5625 96.0333 79.6361 96.0186 79.8274 96.2099C79.9598 96.3129 80.2836 96.519 80.5485 96.6514C80.8723 96.8133 81.0783 96.8427 81.2402 96.7397C81.3873 96.6416 81.4855 96.6416 81.5345 96.7397C81.5787 96.8133 81.5198 96.9457 81.4315 97.0193C81.3285 97.1076 81.093 97.137 80.9164 97.0929C80.7251 97.0635 80.5779 96.9899 80.5779 96.931C80.5779 96.8574 80.4161 96.725 80.21 96.6367C80.004 96.5337 79.6949 96.4454 79.5183 96.4454ZM76.6486 96.4601C76.5211 96.5484 76.4328 96.519 76.3837 96.3718C76.3396 96.2099 76.4426 96.151 76.8252 96.151C77.2373 96.151 77.3403 96.2099 77.3403 96.4454C77.3403 96.6073 77.252 96.7839 77.1637 96.8574C77.0313 96.931 77.0166 96.9016 77.1196 96.7544C77.2226 96.622 77.2079 96.519 77.046 96.4307C76.9283 96.3718 76.7369 96.3718 76.6486 96.4601Z" fill="#15006A"/>
<path d="M83.1535 101.022C83.227 101.007 83.3889 101.081 83.4919 101.184C83.5949 101.287 83.6685 101.493 83.6685 101.626C83.6685 101.773 83.5214 101.949 83.3301 102.023C83.0946 102.111 82.9916 102.096 82.9622 101.949C82.9474 101.832 82.8591 101.743 82.7855 101.743C82.712 101.743 82.5354 101.773 82.4176 101.817C82.2999 101.861 82.1969 102.052 82.1969 102.258C82.1969 102.464 82.1233 102.759 82.0497 102.921C81.9761 103.082 81.726 103.303 81.4905 103.421C81.2698 103.539 81.0196 103.598 80.9166 103.539C80.8283 103.48 80.74 103.333 80.7252 103.215C80.7105 103.097 80.6958 102.818 80.7105 102.582C80.7253 102.229 80.8135 102.155 81.4905 101.979C81.9173 101.861 82.4324 101.596 82.6384 101.405C82.8444 101.199 83.0799 101.037 83.1535 101.022Z" fill="#15006A"/>
<path d="M73.0138 107.041C73.0433 107.041 73.1904 107.085 73.3229 107.129C73.4847 107.188 73.5731 107.35 73.5583 107.542C73.5289 107.703 73.4259 108.101 73.2934 108.395C73.1757 108.704 72.8519 109.116 72.587 109.308C72.3369 109.499 71.8806 109.72 71.601 109.823C71.3214 109.911 70.9388 109.984 70.7475 109.984C70.4973 109.984 70.4384 109.911 70.4532 109.617C70.4973 109.293 70.5856 109.234 71.2331 109.146C71.7041 109.087 72.072 108.94 72.2633 108.734C72.4252 108.557 72.6459 108.101 72.7636 107.733C72.8667 107.35 72.9844 107.041 73.0138 107.041Z" fill="#15006A"/>
<path d="M64.2428 104.834C64.3164 104.834 64.39 105.04 64.39 105.275C64.39 105.511 64.2722 105.879 64.1251 106.085C63.8751 106.452 63.8896 106.467 64.2418 106.834L64.2428 106.835C64.4488 107.026 64.8315 107.233 65.0816 107.262C65.3465 107.306 65.5673 107.409 65.5673 107.483C65.5673 107.556 65.3613 107.63 65.1258 107.63C64.8756 107.63 64.3164 107.468 63.8749 107.262C63.4334 107.056 63.0655 106.865 63.0655 106.82C63.0655 106.776 63.1538 106.6 63.2421 106.438C63.3451 106.261 63.5806 105.967 63.7572 105.776C63.9485 105.584 64.0956 105.29 64.0956 105.128C64.0956 104.966 64.1692 104.834 64.2428 104.834Z" fill="#15006A"/>
<path fill-rule="evenodd" clip-rule="evenodd" d="M89.4815 187.423L88.7899 187.967C88.4072 188.261 88.0982 188.526 88.0835 188.57C88.0835 188.615 88.525 188.821 89.0695 189.041C89.6287 189.262 90.6 189.748 91.2475 190.116C91.8951 190.484 92.675 191.043 92.9841 191.337C93.2931 191.631 93.7052 192.147 93.8965 192.47C94.0878 192.794 94.3821 193.456 94.5587 193.942C94.7206 194.428 94.8531 195.016 94.8531 195.266C94.8531 195.517 94.75 196.046 94.6029 196.444C94.4263 196.974 94.1025 197.444 93.3961 198.151C92.6603 198.887 92.2188 199.196 91.5419 199.446C91.0562 199.622 90.3204 199.843 89.923 199.917C89.511 200.005 88.4955 200.064 87.642 200.064C86.6413 200.079 85.7877 199.99 85.2138 199.829C84.7281 199.696 83.801 199.343 83.1535 199.034C82.5059 198.739 81.6377 198.269 81.2403 197.989C80.8283 197.709 80.0777 197.077 79.5479 196.576C79.0181 196.076 78.297 195.252 77.2669 193.751L76.6046 193.971C76.2367 194.089 74.8828 194.442 73.5878 194.751C72.2927 195.06 69.8792 195.59 68.2162 195.914C66.5533 196.238 64.1987 196.679 62.9919 196.87C61.7704 197.077 59.4305 197.415 57.7676 197.621C56.1046 197.827 53.3526 198.063 51.6602 198.151C49.9531 198.239 47.4513 198.283 46.068 198.224C44.6846 198.18 42.742 198.048 41.7266 197.93C40.7112 197.812 39.2542 197.606 38.489 197.474C37.7237 197.341 36.3257 197.047 35.3985 196.812C34.4714 196.591 32.882 196.12 31.8666 195.781C30.8511 195.443 29.5708 194.957 28.9969 194.678C28.4229 194.413 27.8343 194.06 27.3781 193.589L26.0536 194.531C25.3178 195.046 24.0374 195.796 23.1839 196.194C22.3303 196.606 21.1088 197.077 20.4613 197.268C19.5783 197.503 18.8719 197.592 17.5916 197.592C16.1935 197.606 15.7226 197.547 14.8691 197.268C14.2951 197.077 13.5446 196.767 13.1767 196.591C12.8088 196.414 12.0876 195.87 11.5726 195.399C10.8662 194.737 10.513 194.251 10.0715 193.353C9.76244 192.706 9.3651 191.617 9.1885 190.925C8.92361 189.88 8.87946 189.35 8.92361 187.687C8.98247 185.774 8.99719 185.671 9.46812 184.818C9.7183 184.332 10.1598 183.758 10.4247 183.552C10.6749 183.331 11.1605 183.022 11.4843 182.846C11.808 182.684 12.5291 182.448 13.1031 182.316C13.7359 182.183 14.9279 182.095 16.1494 182.095C17.415 182.095 18.9897 182.213 20.3436 182.404C21.5503 182.566 23.1103 182.831 25.1706 183.243L27.5547 181.565C28.8791 180.638 29.9387 179.858 29.9093 179.829C29.8946 179.799 29.1146 179.593 28.1875 179.373C27.2603 179.137 25.7592 178.666 24.8763 178.313C23.9786 177.96 22.7571 177.386 22.1537 177.062C21.5503 176.724 20.6821 176.209 20.2406 175.914C19.7991 175.605 18.7542 174.825 17.9154 174.163C17.0912 173.515 16.12 172.588 15.752 172.132C15.3841 171.661 14.8691 170.852 14.5894 170.322C14.3246 169.792 14.0008 169.027 13.6917 167.85L13.5444 167.202C13.6033 165.686 13.6916 164.965 13.7652 164.627C13.8388 164.274 14.1184 163.552 14.3539 163.008C14.604 162.449 14.9719 161.786 15.1633 161.536C15.3693 161.271 15.5312 161.021 15.5312 160.977C16.4436 159.762 16.9881 159.079 18.9748 157.607C19.1367 157.578 20.0344 157.269 20.9615 156.945C21.8887 156.621 23.3162 156.253 24.1256 156.135C24.935 156.003 26.0682 155.9 26.6274 155.9C27.2013 155.9 28.3492 156.003 29.2028 156.121C30.0563 156.224 30.8069 156.327 30.8657 156.327C31.1569 156.327 31.2485 156.15 31.587 156.238C31.7047 156.341 32.5435 156.606 33.4265 156.842C34.3095 157.077 36.0902 157.636 37.3853 158.063C38.6803 158.505 40.5051 159.167 41.4323 159.535C42.3594 159.903 44.1548 160.683 47.7162 162.302L47.8192 161.198C47.8781 160.594 48.0547 159.241 48.2166 158.181C48.3637 157.121 48.452 156.224 48.3785 156.179C48.3196 156.121 47.5396 155.767 46.6566 155.4C45.7589 155.017 44.5816 154.428 44.0077 154.09C43.4484 153.751 42.3447 153.001 41.5794 152.427C40.8142 151.853 39.8135 151.029 39.3867 150.587C38.9452 150.146 38.1947 149.263 37.709 148.615C37.2381 147.968 36.5611 146.849 36.1932 146.113C35.84 145.378 35.4132 144.259 35.2514 143.612C35.0453 142.802 34.957 141.963 34.957 140.889C34.957 139.829 35.0453 138.976 35.2514 138.167C35.4132 137.519 35.737 136.592 35.9725 136.106C36.2079 135.621 36.5906 135.061 36.8113 134.855C37.0173 134.649 37.5471 134.326 38.7539 133.752L37.3705 129.631C36.62 127.365 35.9283 125.084 35.84 124.554C35.7517 124.024 35.6929 123.229 35.7664 121.978L36.5023 121.611C37.2234 121.257 37.3117 121.243 41.2115 121.184C43.522 121.154 46.1121 121.213 47.3924 121.316C48.5992 121.419 49.9678 121.596 50.4093 121.699C50.9391 121.846 51.3512 122.052 51.6161 122.346C51.8515 122.597 52.1606 123.2 52.3078 123.715C52.4549 124.215 52.6315 124.995 52.6904 125.437C52.7345 125.878 52.8375 126.349 52.9111 126.467C53.0141 126.644 53.3379 126.452 54.633 125.496C55.5012 124.848 56.4284 124.171 56.6638 124.009C56.8993 123.847 57.7381 123.347 58.5034 122.906C59.2686 122.464 60.5637 121.802 61.3731 121.434C62.1825 121.066 63.9043 120.433 65.1994 120.006C66.1707 119.686 67.0593 119.399 67.48 119.263L67.4834 119.262L67.4849 119.262C67.6223 119.217 67.7088 119.19 67.7306 119.182C67.8336 119.138 67.8925 119.182 67.8483 119.256C67.8042 119.329 67.348 119.609 66.8182 119.845C66.2884 120.08 65.5526 120.566 65.1847 120.919C64.802 121.257 64.4047 121.758 64.3017 122.023C64.1839 122.273 64.0956 122.803 64.0956 123.2C64.0956 123.641 64.2281 124.156 64.4488 124.627C64.6549 125.039 65.2582 125.79 65.8175 126.334C66.362 126.864 67.1125 127.468 67.4804 127.688C67.8483 127.894 68.4664 128.159 68.8785 128.262C69.2758 128.365 69.6585 128.513 69.7173 128.601C69.7762 128.674 70.3354 128.748 72.1161 128.777L70.0558 128.586L71.5275 128.557C72.3369 128.542 73.2346 128.454 73.5142 128.365C73.7938 128.277 74.1617 128.145 74.3236 128.071C74.4855 127.997 74.8239 127.865 75.0594 127.777C75.2949 127.688 75.9571 127.306 76.5163 126.938C77.0756 126.555 77.885 125.849 78.3265 125.363C78.7532 124.878 79.3566 123.98 79.6657 123.376C80.1954 122.302 80.2102 122.229 80.2102 120.654C80.2102 119.771 80.1072 118.049 79.9894 116.828C79.8275 115.003 79.8128 114.032 79.9747 111.162C80.063 109.263 80.1954 107.026 80.2543 106.188C80.3426 104.819 80.3279 104.687 80.0924 104.687C79.96 104.687 79.8423 104.613 79.8423 104.539C79.8423 104.466 80.1954 104.392 80.6075 104.392C81.0343 104.392 81.6229 104.333 81.9026 104.245C82.1822 104.171 82.7414 103.833 83.1387 103.48C83.5655 103.112 84.007 102.538 84.2131 102.111C84.4044 101.699 84.5515 101.081 84.5515 100.713C84.5613 100.272 84.4632 99.9184 84.2572 99.6535C84.0953 99.4181 83.7568 99.1385 83.5214 99.0207C83.2859 98.903 82.8591 98.8 82.5942 98.8C82.3441 98.8 81.7554 98.9766 81.3139 99.1826C80.8724 99.3886 80.3132 99.6977 80.0777 99.8743C79.8275 100.051 79.3419 100.61 78.974 101.11C78.5472 101.67 78.2382 101.979 78.1499 101.89C78.0763 101.832 77.7672 101.758 77.4876 101.729C77.208 101.714 76.2073 101.714 73.5878 101.743L73.47 103.215C73.4112 104.024 73.3081 104.804 73.2346 104.951C73.1168 105.157 72.7784 105.216 70.9977 105.305C69.8351 105.378 68.1279 105.422 65.5673 105.422L65.4937 104.731C65.4496 104.333 65.3613 103.789 65.1994 102.994L64.39 103.038C63.9485 103.068 63.4923 103.171 63.3892 103.259C63.2715 103.362 63.1979 103.759 63.1979 104.245C63.2127 104.687 63.1538 105.305 62.9919 106.158H60.4901L60.5931 107.365C60.6373 108.042 60.7991 109.043 60.9316 109.617C61.064 110.191 61.4025 111.103 61.6674 111.677C61.9323 112.251 62.3444 112.928 62.5651 113.207C62.83 113.531 63.4334 113.929 64.1692 114.267C64.8167 114.561 65.6703 114.87 66.0824 114.959C66.4797 115.047 67.1272 115.15 68.2162 115.282L68.1279 115.915C68.0838 116.254 67.9808 116.931 67.76 118.299L66.3325 118.579C65.5526 118.726 64.0809 119.153 63.0655 119.506C62.05 119.874 60.4312 120.566 59.46 121.066C58.4887 121.552 57.12 122.332 56.3989 122.803C55.6925 123.288 55.045 123.671 54.9714 123.671C54.8831 123.671 54.8096 123.288 54.7948 122.832C54.7801 122.361 54.7801 121.522 54.8096 120.948C54.839 120.183 55.0597 119.271 56.4725 114.915L56.3989 113.369C56.3548 112.516 56.2223 111.5 56.0899 111.088C55.9722 110.691 55.4276 109.661 54.8978 108.807C54.368 107.954 53.6617 106.732 53.3526 106.085C53.0289 105.437 52.6021 104.275 52.3813 103.509C52.087 102.45 51.984 101.64 51.9251 100.124C51.8663 98.6234 51.9104 97.7551 52.1017 96.5925C52.2342 95.739 52.5874 94.282 52.867 93.3549C53.1466 92.4278 53.6028 91.1621 53.8824 90.5588C54.162 89.9554 54.5594 89.2048 54.7507 88.9105C54.8348 88.7844 54.9412 88.6211 55.0524 88.4504C55.2136 88.2031 55.3854 87.9394 55.5159 87.7479C55.7514 87.4094 56.2959 86.7325 56.7521 86.2321C57.2083 85.7318 58.003 84.9959 58.5181 84.5839C59.0332 84.1718 59.6954 83.7009 59.975 83.5243C60.2546 83.3477 60.9905 82.9503 61.5938 82.6413C62.1972 82.3323 63.0655 81.9349 63.507 81.7583C63.9485 81.5817 64.8462 81.3168 65.4937 81.1549C66.1412 80.9931 67.2302 80.787 67.9219 80.7134C68.6136 80.6251 69.4524 80.5516 70.4237 80.5516C70.4994 80.4895 70.776 80.3762 71.2771 80.4191C71.336 80.4633 72.2779 80.6252 73.3669 80.7576C74.4559 80.8901 75.6627 81.0519 76.0306 81.1108C76.4721 81.1844 76.6928 81.155 76.6339 81.0667C77.199 81.1373 77.4384 81.4395 77.4875 81.5817C79.1946 82.3764 79.695 82.6413 79.695 82.6855C79.695 82.7296 79.6067 82.7149 79.5184 82.6413C79.3908 82.5727 79.3663 82.5972 79.4448 82.7149C79.5037 82.8179 79.5919 82.8768 79.6655 82.8326C79.7244 82.8032 79.9746 82.9798 80.2395 83.2447C80.4897 83.5096 80.8723 84.0394 81.0636 84.4515C81.2549 84.8488 81.4609 85.4669 81.5198 85.8054C81.564 86.1586 81.5492 86.7472 81.4609 87.1299C81.3579 87.6302 81.1225 88.0717 80.6515 88.6015L79.9893 89.3815C80.8576 90.4705 81.2696 91.0444 81.4462 91.3682C81.6375 91.692 81.9024 92.3542 82.0643 92.8398C82.2262 93.3255 82.4617 94.7088 82.5794 95.9303C82.6971 97.137 82.8001 98.1378 82.8296 98.1525C82.8443 98.1525 83.1533 98.2849 83.5065 98.4468C83.8597 98.594 84.3454 98.9472 84.5661 99.1974C84.8016 99.4622 85.037 99.9037 85.0812 100.154C85.1253 100.419 85.0812 100.934 84.9929 101.302C84.8899 101.67 84.6986 102.2 84.5514 102.479C84.4042 102.759 83.9333 103.333 83.5065 103.745C83.0209 104.186 82.4175 104.584 81.976 104.745C81.5787 104.893 81.1519 105.04 81.0636 105.069C80.9311 105.113 80.8429 105.628 80.784 106.703C80.7398 107.586 80.6368 109.116 80.5632 110.132C80.4897 111.147 80.4308 113.281 80.4308 114.87V117.784C82.653 118.27 84.1688 118.682 85.2136 119.035C86.2732 119.388 87.5977 119.859 88.1569 120.109C88.7309 120.345 89.1135 120.58 89.0399 120.61C88.9663 120.654 88.9811 120.654 89.0841 120.625C89.1724 120.61 89.4667 120.698 89.7022 120.831C89.9523 120.978 90.1437 121.14 90.1437 121.198C90.1437 121.272 90.1878 121.287 90.2614 121.243C90.3203 121.213 91.2621 121.714 92.3511 122.361C93.4402 123.009 94.9559 124.009 95.7065 124.569C96.4423 125.128 97.0604 125.658 97.0604 125.731C97.0604 125.805 97.134 125.849 97.2076 125.805C97.2812 125.761 98.017 126.379 98.8264 127.159C99.6358 127.953 100.298 128.645 100.298 128.704C100.298 128.777 100.21 128.777 100.121 128.704C99.9939 128.635 99.9694 128.66 100.048 128.777C100.107 128.88 100.195 128.939 100.269 128.895C100.327 128.851 100.519 128.969 100.71 129.145C100.887 129.337 101.034 129.572 101.034 129.66C101.034 129.763 101.166 129.969 101.328 130.102C101.49 130.249 101.623 130.455 101.623 130.543C101.623 130.646 101.696 130.735 101.77 130.735C101.843 130.735 102.035 130.985 102.167 131.279C102.314 131.588 102.491 131.912 102.579 132C102.653 132.089 103.021 132.78 103.388 133.531L104.051 134.885L104.463 135.415C104.345 135.488 104.463 136.121 104.919 137.725C105.257 138.947 105.743 140.874 105.979 142.022L106.405 144.097L106.626 144.715C106.626 145.23 106.7 145.937 106.788 146.629C106.876 147.32 106.994 148.674 107.038 149.645L107.141 151.411L107.215 152.074L107.229 153.619C105.787 154.163 105.302 154.384 105.228 154.458C105.154 154.531 104.934 155.4 104.742 156.386C104.566 157.372 104.36 158.402 104.301 158.667L104.198 159.138C104.065 159.453 103.756 160.293 103.212 161.316C102.697 162.36 102.005 163.494 101.431 164.215C100.916 164.862 99.9743 165.819 99.3267 166.334C98.6645 166.864 97.5755 167.541 96.8102 167.909L95.4416 168.556L96.1333 170.837L96.3982 171.75C96.2216 174.914 96.045 176.429 95.8831 177.165C95.7359 177.901 95.4563 178.858 95.2944 179.299C95.1178 179.741 94.7352 180.579 94.4556 181.139C94.176 181.698 93.602 182.654 93.1752 183.258C92.7632 183.861 91.9244 184.877 91.321 185.524L90.2172 186.687L89.4815 187.423ZM79.9746 89.9701C79.7833 89.9701 79.4889 89.9407 79.3271 89.9113C79.1652 89.8818 78.2675 90.0584 77.3403 90.3233C76.4132 90.5735 75.3536 90.9267 74.9857 91.1033C74.6178 91.2799 73.7642 91.8391 73.0726 92.3248C72.3809 92.8251 71.5862 93.2813 71.2771 93.3549C70.9534 93.4432 70.4383 93.4432 69.9527 93.3696C69.5259 93.2961 68.9078 93.1195 68.584 92.987C68.2603 92.8398 67.4361 92.3984 66.7592 91.9716C65.6996 91.3388 65.3906 91.2063 64.6253 91.1622C63.8159 91.1033 63.654 91.1475 63.0212 91.5742C62.6386 91.8244 62.1235 92.31 61.8733 92.6632C61.6231 93.0017 61.2847 93.5462 61.1228 93.87C60.9462 94.1938 60.696 94.856 60.5636 95.3416C60.4164 95.8273 60.2692 96.6661 60.2104 97.2253L60.1221 98.2113L62.8299 98.2849C63.0065 98.9766 63.1095 99.9479 63.1684 100.904L63.2861 102.626C63.9631 102.626 64.3898 102.582 64.6547 102.523L65.1404 102.406C65.0521 99.4034 65.0962 99.0649 65.2728 98.9472C65.3906 98.8736 66.715 98.8 68.2161 98.7853C69.7172 98.7853 71.4979 98.7706 72.1896 98.7559L73.4405 98.7264C73.4993 99.4181 73.5435 100.007 73.5876 100.492L73.6759 101.375C76.3396 101.258 77.2079 101.184 77.2962 101.125C77.4433 101.037 77.4433 100.831 77.252 100.169C77.1196 99.6977 76.9577 99.1974 76.8841 99.0649C76.8105 98.9177 76.5015 98.7264 76.1925 98.6381C75.8981 98.5498 74.9121 98.1231 74.0291 97.6963C72.9499 97.1763 72.1209 96.6514 71.542 96.1216C71.0711 95.6948 70.5855 95.165 70.4825 94.9443C70.3647 94.7088 70.2911 94.5028 70.3059 94.4734C70.3353 94.4439 70.8798 94.1643 71.5273 93.87C72.1749 93.5757 73.2344 93.0164 73.882 92.6191C74.5295 92.2217 75.383 91.7655 75.7951 91.5889C76.1925 91.4123 77.3256 91.0444 78.2969 90.7501C79.2682 90.4705 80.1217 90.1762 80.1953 90.1026C80.2836 90.029 80.1953 89.9701 79.9746 89.9701ZM81.2549 92.104C80.9753 91.5448 80.6221 90.9708 80.4749 90.8384C80.2836 90.6765 80.0923 90.6324 79.901 90.706C79.7538 90.7648 78.8561 91.0592 77.929 91.3535C76.6781 91.7508 75.8098 92.1482 74.6178 92.8693C73.7201 93.3991 72.7046 93.9877 72.3367 94.1643C71.9688 94.3409 71.5273 94.547 71.3507 94.6205C71.0417 94.7383 71.0858 94.8118 72.0424 95.636C72.6016 96.1216 73.5141 96.7544 74.0586 97.0487C74.6178 97.3284 75.5449 97.7699 76.1483 98.0053L77.2373 98.4321C77.826 100.257 78.0173 100.801 78.032 100.831C78.0614 100.846 78.5177 100.463 79.0622 99.9773C79.6214 99.477 80.4602 98.8883 80.9459 98.6676C81.4315 98.4321 81.9613 98.2114 82.1232 98.1525C82.4028 98.0495 82.4028 97.9759 82.2998 96.8427C82.2262 96.1805 82.079 95.0767 81.9613 94.3851C81.8289 93.6198 81.5639 92.7368 81.2549 92.104ZM62.3884 98.9913C62.3295 98.6823 62.256 98.6528 61.3288 98.6823C61.0162 98.6907 60.4951 98.7089 59.9353 98.7284C59.5199 98.7428 59.0832 98.758 58.6946 98.7706L57.061 98.8147C56.9727 101.258 56.9727 102.803 56.9875 103.848L57.0316 105.717C61.6084 105.731 62.3001 105.687 62.4178 105.54C62.5208 105.437 62.6386 104.657 62.6974 103.804C62.7563 102.847 62.7416 101.699 62.6239 100.787C62.5356 99.9773 62.4325 99.1679 62.3884 98.9913ZM72.9254 101.346V99.3887C67.083 99.3887 65.6996 99.4475 65.6407 99.5358C65.5966 99.6241 65.6407 100.595 65.729 101.714C65.8173 102.818 65.9056 103.98 65.9204 104.289L65.9351 104.834H72.7046C72.8665 103.642 72.9254 102.406 72.9254 101.346ZM46.1414 121.905C45.0524 121.831 42.8891 121.772 41.3586 121.772C39.8133 121.787 38.4594 121.817 38.3417 121.846C38.3112 121.85 38.2608 121.857 38.1961 121.865C38.0112 121.89 37.7088 121.931 37.4146 121.964C36.9731 122.023 36.6052 122.17 36.3991 122.391C36.1342 122.67 36.1048 122.817 36.1931 123.524C36.252 123.965 36.458 124.936 36.6493 125.658C36.8553 126.393 37.5176 128.468 38.1209 130.293L39.21 133.604C39.8229 133.725 40.3867 133.825 40.8855 133.914C40.9975 133.934 41.1062 133.953 41.2114 133.972C41.7706 134.061 42.4623 134.267 42.7125 134.414C43.051 134.62 43.2276 134.855 43.2864 135.194C43.3453 135.488 43.2864 135.841 43.1393 136.15C42.9332 136.577 42.9185 136.695 43.1245 137.431C43.2423 137.872 43.3159 138.328 43.2717 138.431C43.2423 138.52 42.8891 138.785 42.5065 139.005C42.1091 139.226 41.2997 139.535 40.6963 139.697C40.093 139.874 39.5043 140.006 39.4013 140.006C39.313 140.006 39.2247 139.918 39.2247 139.83C39.2247 139.726 39.9458 139.373 40.8582 139.05C41.7559 138.726 42.5506 138.373 42.6242 138.284C42.6978 138.181 42.7272 137.857 42.6831 137.578L42.6095 137.063C39.6073 137.063 38.7538 137.033 38.7979 137.004C38.8273 136.96 39.5779 136.783 40.4756 136.621C41.3586 136.445 42.2416 136.224 42.4182 136.121C42.6095 136.033 42.7861 135.827 42.8155 135.665C42.8596 135.503 42.8008 135.238 42.6978 135.076C42.5947 134.899 42.1238 134.664 41.5646 134.502C41.0495 134.355 40.2254 134.223 39.7398 134.223C39.0775 134.223 38.636 134.311 38.0032 134.605C37.4146 134.885 37.0466 135.179 36.7376 135.635C36.5021 135.974 36.1342 136.754 35.9282 137.357C35.7369 137.961 35.5014 139.094 35.4278 139.859C35.3395 140.639 35.3395 141.684 35.3984 142.214C35.472 142.743 35.6633 143.597 35.8399 144.127C36.0165 144.657 36.3844 145.51 36.6787 146.04C36.9583 146.57 37.2232 147.011 37.2527 147.041C37.2821 147.055 37.5617 146.952 37.8561 146.79C38.1651 146.643 38.9451 146.143 39.5926 145.672C40.2401 145.216 41.1378 144.465 41.6088 144.009L42.4329 143.17C42.2661 142.58 42.1518 142.182 42.0777 141.925L42.0773 141.923C41.9946 141.636 41.9619 141.523 41.9619 141.507C41.9472 141.478 41.388 141.64 40.6963 141.846C40.0047 142.052 39.3571 142.184 39.2541 142.14C39.1658 142.096 39.0775 142.022 39.0775 141.963C39.0775 141.89 39.622 141.669 40.2843 141.448C40.9612 141.228 41.697 140.904 41.9325 140.712C42.3004 140.418 42.3299 140.315 42.2416 139.859C42.1533 139.432 42.168 139.373 42.3299 139.506C42.4476 139.609 42.58 139.874 42.6389 140.094C42.6978 140.374 42.6536 140.609 42.5359 140.742C42.374 140.933 42.4329 141.257 42.8891 142.729C43.1981 143.7 43.6249 144.995 43.8604 145.598C44.0958 146.202 44.4196 146.849 44.5962 147.041C44.8022 147.291 45.1407 147.423 45.8471 147.512C46.3769 147.585 49.173 147.659 52.0574 147.659H57.3259C57.1543 147.046 56.8703 145.963 56.5591 144.776C56.4967 144.538 56.4332 144.296 56.3694 144.053C55.9867 142.596 55.6041 141.213 55.5011 140.963C55.3392 140.595 55.1773 140.492 54.5151 140.33C54.0736 140.227 53.3966 139.962 52.9993 139.741C52.602 139.52 52.1457 139.182 51.9986 138.976C51.8514 138.77 51.6895 138.387 51.6307 138.122C51.5276 137.71 51.5424 137.651 51.8073 137.651C52.0722 137.651 52.0574 137.607 51.6895 137.328C51.4688 137.136 51.2186 136.754 51.145 136.474C51.0273 136.047 51.042 135.9 51.2775 135.591C51.5424 135.223 51.5424 135.223 51.2039 134.826C51.0126 134.59 50.8507 134.252 50.8507 134.046C50.8507 133.752 50.9831 133.619 51.4688 133.398C51.822 133.237 52.3518 133.06 52.6608 132.986L53.2348 132.869C53.1223 132.081 52.9926 131.303 52.872 130.578C52.8349 130.355 52.7985 130.137 52.7638 129.925C52.6449 129.276 52.4544 128.191 52.28 127.193C52.2551 127.051 52.2306 126.91 52.2066 126.773L52.2064 126.772C52.1698 126.563 52.1346 126.361 52.1016 126.173C51.8808 124.995 51.5865 123.759 51.4246 123.421C51.2775 123.067 50.9979 122.7 50.8065 122.582C50.6299 122.464 49.953 122.302 49.3055 122.214C48.6579 122.126 47.2304 121.993 46.1414 121.905ZM59.3127 133.737C58.1206 133.428 57.3995 133.354 55.56 133.295C53.4555 133.237 53.2053 133.266 52.3959 133.56C51.8514 133.766 51.5129 133.987 51.5129 134.12C51.5129 134.237 51.8073 134.487 52.1752 134.664C52.5431 134.841 53.6321 135.135 54.6034 135.297C55.5747 135.459 56.5018 135.665 56.6637 135.724C56.8403 135.797 55.9573 135.841 54.4562 135.827C53.0729 135.827 51.8367 135.856 51.6895 135.93C51.5129 136.003 51.4688 136.121 51.5424 136.342C51.6159 136.518 51.8367 136.754 52.0574 136.857C52.2929 136.975 52.8227 137.122 53.2348 137.195C53.6615 137.269 54.3974 137.372 54.8536 137.416C55.6188 137.49 55.6924 137.534 55.6335 137.799C55.5747 138.049 55.4422 138.093 54.8241 138.093C54.3336 138.093 54.0883 138.034 54.0883 137.916C54.0883 137.769 54.2502 137.754 54.7064 137.828C55.1185 137.902 55.2656 137.887 55.1185 137.799C55.0007 137.725 54.677 137.651 54.4121 137.651C54.1619 137.651 53.9412 137.725 53.9412 137.799C53.9412 137.887 53.5732 137.946 53.1317 137.946C52.5872 137.946 52.3223 138.005 52.3223 138.137C52.3076 138.225 52.4401 138.476 52.5872 138.682C52.7344 138.888 53.1317 139.167 53.4702 139.314C53.8087 139.447 55.0596 139.741 56.2516 139.947C57.4584 140.153 58.5768 140.389 58.7534 140.462C58.9448 140.536 59.4451 140.86 59.8572 141.183C60.2839 141.492 60.6666 141.728 60.7107 141.699C60.7549 141.654 61.0786 141.875 61.4318 142.184C61.785 142.478 62.256 143.082 62.4914 143.509C62.7269 143.921 62.9623 144.274 63.0212 144.274C63.0948 144.274 63.2714 144.097 63.448 143.877C63.6099 143.656 64.0514 143.038 64.4193 142.508C64.7872 141.978 65.2434 141.286 65.4347 140.963C65.6113 140.639 65.9792 139.977 66.2588 139.491C66.5237 139.005 66.7445 138.446 66.7445 138.24C66.7445 138.005 66.5973 137.769 66.3177 137.578C66.097 137.416 65.3464 136.857 64.6694 136.342C63.9925 135.827 62.8299 135.12 62.1088 134.767C61.373 134.414 60.1221 133.958 59.3127 133.737ZM69.2021 138.976C68.4222 138.564 67.7158 138.24 67.6422 138.24C67.5686 138.24 67.3037 138.652 67.0682 139.167C66.8328 139.668 66.3766 140.521 66.0381 141.08C65.6996 141.625 65.42 142.096 65.42 142.14C65.42 142.184 64.9785 142.788 64.434 143.509C63.8895 144.215 63.2714 145.01 63.0359 145.275C62.668 145.701 62.6386 145.775 62.8446 146.01C62.9623 146.143 63.0212 146.319 62.9476 146.393C62.8888 146.467 62.9035 146.481 62.9918 146.437C63.0654 146.378 63.3008 146.511 63.5069 146.732C63.7129 146.938 63.7717 147.07 63.654 146.996C63.5216 146.938 63.5657 147.011 63.7276 147.188C63.8895 147.364 64.1838 147.673 64.3898 147.879C64.5959 148.085 64.7872 148.247 64.8313 148.247C64.8755 148.262 65.7879 147.394 66.8475 146.334C67.9218 145.289 69.1433 143.935 69.5553 143.361C69.9674 142.773 70.4972 141.89 70.7326 141.404C70.9681 140.919 71.1594 140.418 71.1594 140.3C71.1447 140.183 71.027 139.991 70.8945 139.888C70.7621 139.785 69.9968 139.373 69.2021 138.976ZM72.1454 140.712C71.8511 140.565 71.5568 140.448 71.4979 140.448C71.4537 140.448 71.4537 140.565 71.5126 140.712C71.5715 140.874 71.4096 141.316 71.0711 141.919C70.7768 142.449 70.2029 143.332 69.7761 143.891C69.364 144.45 68.1572 145.746 67.083 146.761C66.0086 147.776 65.1404 148.659 65.1257 148.733C65.1257 148.792 65.4936 149.189 65.9351 149.616C66.3766 150.028 66.7445 150.425 66.7445 150.499C66.7445 150.558 66.6562 150.558 66.5679 150.499C66.4403 150.42 66.4158 150.445 66.4943 150.573C66.5532 150.661 66.6415 150.72 66.7003 150.676C66.7739 150.646 66.9505 150.749 67.1124 150.94L67.4067 151.264C66.9505 150.926 67.0682 151.088 67.3626 151.411C67.6716 151.735 68.0101 152.132 68.1278 152.294C68.3338 152.589 68.3339 152.589 68.687 152.265C68.8636 152.088 69.0697 151.941 69.1285 151.941C69.2021 151.926 69.3051 151.926 69.3934 151.926C69.467 151.926 69.5112 151.868 69.467 151.779C69.4229 151.706 69.4376 151.632 69.4965 151.632C69.57 151.647 70.0262 151.264 70.5413 150.793C71.0711 150.308 71.439 149.866 71.3949 149.763C71.336 149.66 71.3507 149.557 71.4243 149.542C71.4832 149.513 71.8658 149.101 72.2779 148.615C72.6899 148.13 73.3522 147.232 73.7495 146.629C74.1616 146.025 74.765 145.024 75.0887 144.421C75.4125 143.818 75.7362 143.185 75.7804 143.023C75.8687 142.773 75.6479 142.611 74.294 141.846C74.1344 141.761 73.9724 141.674 73.8123 141.588C73.0864 141.201 72.3986 140.833 72.1454 140.712ZM77.3256 143.626L76.3396 143.082L75.7657 144.303C75.4419 144.98 74.8385 146.055 74.397 146.702C73.9703 147.35 73.308 148.277 72.9401 148.762C72.5869 149.248 71.5568 150.381 70.6738 151.264C69.4229 152.53 69.0991 152.942 69.158 153.177C69.2021 153.339 70.2028 154.414 71.3802 155.576L73.5141 157.666C74.2499 157.166 75.0298 156.444 75.7068 155.753C76.3838 155.061 77.3845 153.869 77.929 153.104C78.4588 152.339 79.1799 151.176 79.5037 150.528C79.8274 149.881 80.2983 148.792 80.5485 148.1C80.7987 147.409 81.0342 146.673 81.0783 146.452C81.1666 146.069 81.0636 145.981 79.7244 145.113C78.9444 144.598 77.8554 143.935 77.3256 143.626ZM43.154 145.378C42.9332 144.686 42.6978 144.097 42.6242 144.068C42.5653 144.038 42.0797 144.377 41.5646 144.818C41.0495 145.26 40.2548 145.878 39.8133 146.187C39.3571 146.481 38.6949 146.879 38.3417 147.07C37.9738 147.247 37.6353 147.423 37.6059 147.453C37.5617 147.482 37.8708 147.909 38.2828 148.424C38.7096 148.939 39.2836 149.587 39.5632 149.866L40.093 150.381C41.388 149.351 42.065 148.733 42.4182 148.321C42.7861 147.924 43.1981 147.364 43.3159 147.099C43.5513 146.643 43.5366 146.555 43.154 145.378ZM82.5941 147.011C82.1232 146.717 81.7258 146.481 81.6964 146.481C81.667 146.481 81.4609 147.085 81.2255 147.835C80.99 148.586 80.4308 149.954 79.9599 150.896C79.4889 151.823 78.8267 152.957 78.4735 153.413C78.1203 153.869 77.2079 154.899 76.4426 155.694C75.6774 156.489 74.7797 157.357 74.4559 157.622L73.8672 158.093C77.046 161.124 78.5471 162.478 79.2682 163.067L80.5632 164.141C81.5934 162.817 82.1821 162.051 82.55 161.566C82.9032 161.08 83.6243 159.917 84.1688 158.99C84.6986 158.048 85.4344 156.592 85.7876 155.753C86.1408 154.899 86.6264 153.604 86.8766 152.883C87.1121 152.147 87.3475 151.323 87.4064 151.043L87.5094 150.528C84.3601 148.218 83.0503 147.305 82.5941 147.011ZM44.1841 147.482C44.037 147.335 43.9045 147.217 43.8604 147.217C43.8309 147.217 43.7426 147.364 43.6691 147.541C43.5808 147.718 43.0657 148.365 42.5065 148.954C41.9472 149.557 41.2556 150.175 40.9759 150.352L40.4609 150.646C41.8295 151.882 42.7272 152.574 43.3306 152.986C44.3902 153.692 44.449 153.707 44.6403 153.442C44.7434 153.295 45.126 152.574 45.4939 151.853C45.8618 151.117 46.3622 150.028 46.5829 149.425C46.9067 148.586 46.9655 148.291 46.8331 148.203C46.7301 148.144 46.3769 148.1 46.0531 148.1C45.7294 148.1 45.229 148.027 44.9494 147.924C44.6698 147.835 44.3166 147.629 44.1841 147.482ZM50.3945 148.35C50.3945 148.291 49.7617 148.247 48.9964 148.247C48.0104 148.247 47.5689 148.291 47.5248 148.424C47.5046 148.495 47.4079 148.76 47.2873 149.091C47.287 149.092 47.2866 149.093 47.2862 149.094C47.2316 149.244 47.1722 149.407 47.1127 149.572C46.9214 150.087 46.3769 151.308 45.8912 152.265C45.0524 153.957 45.0377 154.001 45.3173 154.207C45.4792 154.311 46.2592 154.678 47.0538 155.002C48.3342 155.532 48.4961 155.576 48.5549 155.341C48.5682 155.274 48.6113 155.083 48.6708 154.818C48.7435 154.495 48.8405 154.064 48.9376 153.619C49.1142 152.809 49.5115 151.308 49.8205 150.308C50.1443 149.292 50.3945 148.409 50.3945 148.35ZM89.3195 151.573C88.672 151.205 88.0981 150.896 88.0539 150.896C87.995 150.896 87.9068 151.132 87.8479 151.441C87.8037 151.75 87.48 152.824 87.1562 153.84C86.8325 154.84 86.3027 156.268 85.9642 157.004C85.6404 157.725 85.037 158.887 84.6397 159.579C84.2276 160.256 83.3152 161.595 82.5941 162.552C81.8877 163.508 81.2255 164.303 81.1225 164.332C81.0194 164.362 81.3579 164.597 81.8877 164.862C82.4175 165.127 83.4477 165.613 84.1688 165.937C84.9046 166.26 86.1261 166.746 86.8913 167.026C87.6566 167.305 88.3041 167.511 88.3188 167.482C88.3269 167.474 88.5545 167.031 88.9077 166.344C89.1947 165.786 89.5646 165.067 89.9671 164.288C90.9089 162.434 91.7919 160.477 92.0862 159.579C92.3659 158.725 92.7043 157.401 92.8515 156.636C93.0134 155.679 93.0575 154.929 92.9987 154.296L92.8956 153.354C91.0414 152.5 89.9671 151.956 89.3195 151.573ZM99.4445 154.796C95.1473 153.943 93.8375 153.692 93.7786 153.692C93.7198 153.692 93.6756 154.001 93.6756 154.399C93.6756 154.781 93.5726 155.723 93.4402 156.489C93.3224 157.254 93.087 158.387 92.9104 158.99C92.7485 159.594 92.307 160.786 91.9538 161.639C91.6006 162.493 90.8942 163.92 90.4086 164.803C89.9229 165.701 89.3195 166.687 89.0988 167.011C88.7897 167.438 88.7162 167.629 88.8486 167.688C88.9516 167.747 89.5992 167.864 90.2908 167.967C90.9678 168.07 92.204 168.144 93.0134 168.144C94.3231 168.144 94.6175 168.1 95.6623 167.688C96.3099 167.423 97.3253 166.908 97.9434 166.525C98.5468 166.143 99.4298 165.451 99.886 164.995C100.357 164.524 101.004 163.729 101.328 163.229C101.696 162.655 101.917 162.125 101.917 161.86C101.917 161.625 101.755 160.83 101.564 160.094C101.358 159.373 100.99 158.24 100.74 157.592C100.475 156.945 100.077 156.047 99.8565 155.606L99.4445 154.796ZM104.33 155.429C104.374 155.032 104.36 154.737 104.301 154.737C104.29 154.74 104.272 154.744 104.249 154.75C104.231 154.754 104.21 154.759 104.186 154.765C104.077 154.791 103.913 154.83 103.756 154.87C103.506 154.929 102.594 154.987 101.726 155.002C100.857 155.017 100.166 155.061 100.195 155.135C100.203 155.167 100.29 155.351 100.414 155.618L100.415 155.619C100.519 155.841 100.65 156.12 100.784 156.415C101.093 157.062 101.505 158.063 101.681 158.622C101.873 159.196 102.108 160.05 102.196 160.536C102.299 161.065 102.432 161.36 102.505 161.271C102.564 161.198 102.859 160.565 103.138 159.873C103.418 159.182 103.771 158.063 103.948 157.372C104.11 156.68 104.286 155.812 104.33 155.429ZM29.8797 156.798C28.7466 156.636 27.4515 156.474 27.01 156.444C26.5538 156.415 25.7003 156.444 25.0969 156.518C24.4788 156.592 23.3603 156.827 22.5951 157.018C21.8151 157.21 20.7555 157.578 20.2404 157.828C19.7106 158.078 18.8129 158.622 18.2537 159.034C17.6945 159.461 16.8851 160.227 16.4436 160.756C16.0168 161.286 15.3987 162.243 15.0897 162.89C14.7806 163.538 14.4422 164.465 14.3539 164.951C14.2508 165.436 14.1625 166.334 14.1625 166.937C14.1625 167.688 14.2656 168.321 14.4863 168.924C14.6482 169.41 15.0455 170.16 15.3399 170.602C15.6015 170.975 15.8632 171.37 15.9909 171.563L16.0462 171.647C16.1198 171.794 16.5172 172.279 16.9292 172.736C17.3266 173.192 17.7975 173.604 17.9594 173.663C18.1213 173.707 18.548 174.016 18.916 174.354C19.2692 174.693 19.9755 175.237 20.4612 175.576C20.9468 175.9 22.0359 176.547 22.8894 176.989C23.7282 177.445 25.0969 178.033 25.9063 178.313C26.7157 178.593 28.0696 179.005 28.9232 179.226L30.4684 179.623C31.4431 178.973 33.1638 177.889 34.9533 176.762L35.1777 176.621C37.0319 175.458 40.4462 173.368 42.7566 171.985C45.0524 170.602 48.3342 168.659 50.0413 167.688C51.7337 166.702 53.1759 165.848 53.2348 165.789C53.3083 165.73 52.9699 165.539 52.4989 165.363C52.0427 165.186 49.6734 164.053 47.2452 162.846C44.8169 161.639 42.1974 160.403 41.4321 160.094C40.6522 159.8 38.9745 159.196 37.6795 158.755C36.3844 158.328 34.5596 157.769 33.6324 157.533C32.6906 157.298 31.0129 156.974 29.8797 156.798ZM77.6935 162.478L76.369 161.242C74.2989 161.129 73.1369 161.059 72.525 161.022C72.2626 161.006 72.1013 160.996 72.013 160.992C71.7186 160.977 70.5266 161.021 69.364 161.065C67.9365 161.139 66.5532 161.316 65.1109 161.625C63.9483 161.86 62.1824 162.331 61.2111 162.669C60.2398 162.993 58.5916 163.685 57.532 164.2C56.4871 164.7 53.9706 166.069 51.9397 167.217C49.9236 168.379 45.9795 170.705 43.1834 172.382C40.402 174.045 36.6493 176.341 34.8686 177.474C33.0879 178.607 30.2624 180.418 28.5847 181.507L25.5384 183.493C25.5384 184.347 25.7003 185.362 25.9063 186.319C26.1123 187.275 26.4361 188.585 26.6421 189.233C26.8481 189.88 27.2013 190.94 27.4368 191.587C27.6723 192.235 27.893 192.941 27.9372 193.162C27.996 193.442 28.2315 193.677 28.6583 193.927C28.9967 194.119 30.2771 194.619 31.4838 195.016C32.7053 195.428 34.3977 195.929 35.2365 196.149C36.0901 196.355 37.6206 196.694 38.6213 196.871C39.6367 197.062 41.1967 197.312 42.0797 197.415C43.1245 197.547 45.2437 197.606 47.9663 197.606C50.3209 197.606 53.1023 197.518 54.1472 197.415C55.2068 197.312 57.3259 197.062 58.8564 196.871C60.4017 196.664 62.6533 196.326 63.8601 196.12C65.0815 195.914 67.1712 195.531 68.4957 195.266C69.8349 194.987 72.0277 194.501 73.3522 194.163C74.6914 193.824 76.84 193.206 78.135 192.765C79.4301 192.338 81.2549 191.646 82.1821 191.234C83.1239 190.822 84.5661 190.057 85.3902 189.556C86.2291 189.056 87.6271 188.07 88.4807 187.378C89.349 186.687 90.3938 185.715 90.8206 185.245C91.2327 184.759 91.9538 183.846 92.41 183.199C92.8809 182.551 93.6168 181.286 94.0435 180.403C94.5439 179.387 94.9707 178.225 95.1914 177.312C95.3827 176.503 95.6035 175.178 95.6623 174.369C95.7212 173.427 95.7065 172.412 95.5888 171.573C95.4857 170.837 95.3239 169.91 95.2061 169.513L95.0001 168.777C90.3644 168.747 89.8935 168.703 88.6573 168.379C87.892 168.159 86.5087 167.703 85.5668 167.335C84.6397 166.967 83.2564 166.363 82.4764 165.981C81.7111 165.598 80.6221 164.936 80.0482 164.509C79.4889 164.082 78.4294 163.17 77.6935 162.478ZM16.9145 182.728L14.7071 182.64L14.1478 183.287C13.8388 183.64 13.3679 184.391 13.0882 184.965C12.8086 185.524 12.4849 186.451 12.3671 187.025C12.2347 187.584 12.1464 188.335 12.1464 188.673C12.1464 189.027 12.2347 189.777 12.3671 190.366C12.4996 190.955 12.8381 191.896 13.1471 192.456C13.4414 193.015 13.9859 193.81 14.3391 194.207C14.7071 194.619 15.3693 195.208 15.8108 195.531C16.267 195.87 17.1058 196.355 17.6945 196.62C18.6952 197.077 18.8129 197.091 19.534 196.944C19.9608 196.871 20.9615 196.532 21.771 196.223C22.5804 195.899 23.8607 195.252 24.6112 194.796C25.3618 194.325 26.2448 193.707 26.5685 193.427L27.1572 192.912C26.3331 190.851 25.9357 189.704 25.7591 189.012C25.5678 188.32 25.3029 186.893 25.1557 185.848C25.0086 184.788 24.8614 183.905 24.832 183.861C24.7878 183.817 24.4494 183.743 24.0814 183.685C23.6988 183.626 22.4332 183.405 21.2559 183.199C19.9461 182.963 18.2832 182.787 16.9145 182.728ZM88.3777 189.395C87.9215 189.262 87.4653 189.159 87.3475 189.159C87.2151 189.159 86.9502 189.292 86.7589 189.439C86.5528 189.586 85.7581 190.072 84.9929 190.513C84.2129 190.94 82.8296 191.646 81.9024 192.058C80.9606 192.47 79.6803 192.985 79.0327 193.206C78.3852 193.427 77.826 193.633 77.8113 193.662C77.7965 193.692 77.8554 193.868 77.9437 194.045C78.032 194.236 78.4146 194.751 78.7973 195.193C79.1652 195.649 79.798 196.311 80.21 196.65C80.6074 197.003 81.2402 197.489 81.6081 197.739C81.9613 197.989 82.7266 198.401 83.3005 198.666C83.8597 198.931 84.8163 199.284 85.4344 199.446C86.0672 199.622 86.9649 199.755 87.5683 199.755C88.1275 199.755 89.1577 199.608 89.8493 199.446C90.5263 199.284 91.4534 198.96 91.8802 198.754C92.3217 198.533 92.8956 198.107 93.1752 197.798C93.4401 197.503 93.8081 196.959 93.9699 196.591C94.1318 196.223 94.2643 195.708 94.2643 195.443C94.2643 195.178 94.1613 194.634 94.0435 194.236C93.9258 193.824 93.5726 193.147 93.2636 192.706C92.9545 192.264 92.3217 191.602 91.8361 191.219C91.3504 190.837 90.5557 190.322 90.0701 190.072C89.5844 189.836 88.8192 189.527 88.3777 189.395Z" fill="#15006A"/>
<path fill-rule="evenodd" clip-rule="evenodd" d="M81.2549 92.104C80.9753 91.5448 80.6221 90.9708 80.4749 90.8384C80.2836 90.6765 80.0923 90.6324 79.901 90.706C79.7538 90.7648 78.8561 91.0592 77.929 91.3535C76.6781 91.7508 75.8098 92.1482 74.6178 92.8693C73.7201 93.3991 72.7046 93.9877 72.3367 94.1643C71.9688 94.3409 71.5273 94.547 71.3507 94.6205C71.0417 94.7383 71.0858 94.8118 72.0424 95.636C72.6016 96.1216 73.5141 96.7544 74.0586 97.0487C74.6178 97.3284 75.5449 97.7699 76.1483 98.0053L77.2373 98.4321C77.826 100.257 78.0173 100.801 78.032 100.831C78.0614 100.846 78.5177 100.463 79.0622 99.9773C79.6214 99.477 80.4602 98.8883 80.9459 98.6676C81.4315 98.4321 81.9613 98.2114 82.1232 98.1525C82.4028 98.0495 82.4028 97.9759 82.2998 96.8427C82.2262 96.1805 82.079 95.0767 81.9613 94.3851C81.8289 93.6198 81.5639 92.7368 81.2549 92.104ZM88.3777 189.395C87.9215 189.262 87.4653 189.159 87.3475 189.159C87.2151 189.159 86.9502 189.292 86.7589 189.439C86.5528 189.586 85.7581 190.072 84.9929 190.513C84.2129 190.94 82.8296 191.646 81.9024 192.058C80.9606 192.47 79.6803 192.985 79.0327 193.206C78.3852 193.427 77.826 193.633 77.8113 193.662C77.7965 193.692 77.8554 193.868 77.9437 194.045C78.032 194.236 78.4146 194.751 78.7973 195.193C79.1652 195.649 79.798 196.311 80.21 196.65C80.6074 197.003 81.2402 197.489 81.6081 197.739C81.9613 197.989 82.7266 198.401 83.3005 198.666C83.8597 198.931 84.8163 199.284 85.4344 199.446C86.0672 199.622 86.9649 199.755 87.5683 199.755C88.1275 199.755 89.1577 199.608 89.8493 199.446C90.5263 199.284 91.4534 198.96 91.8802 198.754C92.3217 198.533 92.8956 198.107 93.1752 197.798C93.4401 197.503 93.8081 196.959 93.9699 196.591C94.1318 196.223 94.2643 195.708 94.2643 195.443C94.2643 195.178 94.1613 194.634 94.0435 194.236C93.9258 193.824 93.5726 193.147 93.2636 192.706C92.9545 192.264 92.3217 191.602 91.8361 191.219C91.3504 190.837 90.5557 190.322 90.0701 190.072C89.5844 189.836 88.8192 189.527 88.3777 189.395ZM75.1034 95.2386C74.8532 95.2092 74.7502 95.0767 74.7208 94.7971C74.6766 94.4292 74.7208 94.3851 75.1181 94.3851C75.3683 94.3851 75.6038 94.4292 75.6332 94.5028C75.6626 94.5617 75.6332 94.753 75.5596 94.9443C75.4713 95.165 75.3242 95.2533 75.1034 95.2386ZM76.3837 96.3718C76.4328 96.519 76.5211 96.5484 76.6486 96.4601C76.7369 96.3718 76.9283 96.3718 77.046 96.4307C77.2079 96.519 77.2226 96.622 77.1196 96.7544C77.0166 96.9016 77.0313 96.931 77.1637 96.8574C77.252 96.7839 77.3403 96.6073 77.3403 96.4454C77.3403 96.2099 77.2373 96.151 76.8252 96.151C76.4426 96.151 76.3396 96.2099 76.3837 96.3718ZM79.5183 96.4454C79.224 96.4601 79.2093 96.4307 79.3859 96.2246C79.5625 96.0333 79.6361 96.0186 79.8274 96.2099C79.9598 96.3129 80.2836 96.519 80.5485 96.6514C80.8723 96.8133 81.0783 96.8427 81.2402 96.7397C81.3873 96.6416 81.4855 96.6416 81.5345 96.7397C81.5787 96.8133 81.5198 96.9457 81.4315 97.0193C81.3285 97.1076 81.093 97.137 80.9164 97.0929C80.7251 97.0635 80.5779 96.9899 80.5779 96.931C80.5779 96.8574 80.4161 96.725 80.21 96.6367C80.004 96.5337 79.6949 96.4454 79.5183 96.4454ZM42.271 125.672C42.3298 125.216 42.5064 124.819 42.7272 124.598C42.9185 124.407 43.1981 124.259 43.36 124.259C43.5072 124.259 43.8162 124.421 44.0517 124.613C44.2724 124.804 44.5373 125.231 44.6403 125.569C44.7875 126.055 44.7875 126.276 44.6403 126.717C44.5079 127.07 44.2871 127.35 43.9781 127.527C43.566 127.747 43.4336 127.762 43.0951 127.6C42.8596 127.512 42.5653 127.188 42.4181 126.908C42.2121 126.496 42.1827 126.246 42.271 125.672ZM42.6537 125.952C42.5801 125.466 42.6243 125.304 42.8745 125.025C43.0511 124.848 43.2718 124.701 43.3748 124.701C43.4778 124.686 43.6692 124.804 43.8163 124.951C43.9488 125.098 44.1107 125.481 44.1695 125.805C44.2431 126.246 44.2137 126.496 44.0224 126.791C43.8899 127.026 43.6544 127.203 43.4926 127.203C43.3307 127.203 43.0952 127.056 42.9775 126.864C42.845 126.688 42.7126 126.276 42.6537 125.952ZM17.0028 185.524C16.8409 185.774 16.6055 186.334 16.473 186.731C16.3406 187.143 16.2081 187.864 16.164 188.35C16.1051 188.968 16.1492 189.468 16.3258 190.042C16.473 190.484 16.782 191.146 17.0322 191.514C17.2824 191.882 17.7681 192.426 18.1212 192.735C18.4744 193.03 18.8718 193.28 18.9895 193.28C19.1073 193.28 19.2103 193.191 19.2103 193.103C19.2103 193 18.8424 192.544 18.4156 192.102C17.9446 191.631 17.459 190.925 17.2235 190.41C17.0028 189.924 16.7968 189.203 16.7526 188.791C16.7085 188.335 16.7673 187.687 16.9292 187.099C17.0617 186.569 17.2971 185.892 17.459 185.598C17.6945 185.127 17.7092 185.038 17.5179 185.038C17.4001 185.038 17.1647 185.259 17.0028 185.524ZM20.314 186.554C20.211 186.804 20.0491 187.423 19.9608 187.908C19.8578 188.541 19.8725 189.041 19.9902 189.689C20.0933 190.219 20.3434 190.837 20.6083 191.205C20.8438 191.558 21.094 191.867 21.1528 191.896C21.2264 191.926 21.3736 191.926 21.4913 191.882C21.6679 191.823 21.6385 191.69 21.2853 191.19C21.0498 190.837 20.7408 190.189 20.6083 189.748C20.3729 189.041 20.3729 188.806 20.52 187.908C20.6083 187.349 20.7113 186.701 20.7555 186.481C20.7849 186.245 20.7555 186.069 20.6672 186.069C20.5936 186.069 20.4317 186.289 20.314 186.554ZM23.478 187.658C23.478 187.79 23.375 188.085 23.2573 188.32C23.0513 188.688 23.066 188.762 23.3603 189.247C23.5516 189.542 23.8165 189.851 23.949 189.91C24.0961 189.983 24.2139 189.998 24.2139 189.939C24.2139 189.865 24.0961 189.659 23.9637 189.453C23.8018 189.218 23.7135 188.791 23.6988 188.247C23.6988 187.776 23.6546 187.393 23.5811 187.393C23.5222 187.393 23.478 187.511 23.478 187.658Z" fill="#15006A"/>
</svg>
