<svg width="200" height="200" viewBox="0 0 200 200" fill="none" xmlns="http://www.w3.org/2000/svg">
<path d="M73.5215 175.881C73.7413 175.764 74.1662 175.617 74.4593 175.544H74.4739C74.767 175.471 75.148 175.412 75.3092 175.397C75.4704 175.383 75.9392 175.485 76.3349 175.632C76.8038 175.793 77.3166 176.115 77.7269 176.54C78.0932 176.907 78.5475 177.508 78.7233 177.874C78.8992 178.24 79.1043 178.856 79.1776 179.266C79.2655 179.72 79.2655 180.321 79.1776 180.878C79.0897 181.361 78.8845 182.05 78.7087 182.402C78.5328 182.768 78.1226 183.296 77.7855 183.574C77.4632 183.867 76.9357 184.189 76.6133 184.277C76.3056 184.38 75.7195 184.468 75.3092 184.468C74.7817 184.468 74.3567 184.365 73.7706 184.057C73.2431 183.794 72.7742 183.383 72.4079 182.915C72.1148 182.519 71.7631 181.859 71.6459 181.464C71.5287 181.054 71.4261 180.336 71.4261 179.852C71.4261 179.368 71.514 178.636 71.6312 178.24C71.7631 177.786 72.1001 177.229 72.4811 176.79C72.8328 176.394 73.287 175.984 73.5215 175.881Z" fill="#003FFF"/>
<path fill-rule="evenodd" clip-rule="evenodd" d="M88.0133 102.015C87.9987 102.029 88.365 103.597 88.8486 105.488C89.3175 107.378 90.6655 112.726 91.8378 117.357C92.9954 121.987 94.5926 128.288 95.3692 131.35C96.1458 134.413 97.1715 138.428 97.6404 140.289C98.1093 142.15 99.3988 147.22 100.498 151.572C101.597 155.924 103.121 161.961 103.883 164.979C104.574 167.665 105.299 170.525 105.616 171.773L105.714 172.159C105.978 173.229 106.139 174.211 106.139 174.87C106.139 175.427 106.081 176.13 105.993 176.409C105.919 176.687 105.641 177.288 105.377 177.727C105.113 178.167 104.571 178.768 104.161 179.075C103.634 179.471 102.52 179.969 100.205 180.819L99.4197 181.111C97.5003 181.825 94.4632 182.955 92.1455 183.808L91.5958 184.012C89.121 184.928 86.6733 185.834 85.9912 186.08C85.2732 186.329 84.2768 186.695 83.7933 186.886C83.3097 187.076 81.6246 187.706 80.0567 188.292C78.4888 188.864 76.7011 189.523 76.1004 189.743C75.4996 189.977 73.8438 190.578 72.4371 191.106C71.0304 191.633 68.8471 192.439 67.6016 192.893C66.5099 193.304 64.3714 194.098 62.5573 194.771L61.8136 195.047C59.8794 195.765 57.11 196.791 55.6593 197.319C54.2087 197.846 52.2745 198.564 51.3806 198.916C50.4721 199.267 49.3145 199.663 48.8163 199.78C48.3035 199.897 47.6001 200 47.2338 200C46.8675 199.985 46.0762 199.897 45.4754 199.795C44.8746 199.678 44.0101 199.458 43.5705 199.282C43.1309 199.121 42.3543 198.74 41.8561 198.432C41.3579 198.124 40.6399 197.582 40.2589 197.216C39.8779 196.85 39.4823 196.366 39.3504 196.117C39.2332 195.868 38.5885 193.567 37.9291 190.988C37.255 188.409 36.2147 184.292 35.5846 181.83C34.9692 179.368 33.8848 175.119 33.1668 172.379C32.4635 169.639 31.3938 165.448 30.7784 163.074C30.1629 160.7 28.976 156.011 28.1262 152.671C27.2763 149.33 26.3092 145.564 25.9722 144.318C25.6498 143.073 24.8292 139.834 24.1405 137.138C23.4518 134.442 22.5433 130.837 22.1037 129.152C21.6642 127.467 20.7557 123.892 20.067 121.24C19.3929 118.587 18.4991 115.115 18.0888 113.547C17.6932 111.979 16.6968 108.081 15.8908 104.901C15.0849 101.722 14.0152 97.5603 13.5317 95.67C13.0608 93.8835 12.2104 90.5394 11.5741 88.0377L11.4656 87.6108C10.8209 85.0759 9.5607 80.1524 8.66686 76.6943C7.78768 73.2362 6.82057 69.4703 6.52751 68.342C6.13188 66.7741 6.01465 65.9829 6 64.9718C6 63.8435 6.04396 63.5358 6.38098 62.8471C6.58612 62.4075 7.11363 61.6602 7.55323 61.1913C8.06609 60.6198 8.6229 60.1803 9.20903 59.9018C9.69258 59.682 11.5096 59.052 13.2386 58.5098C14.9677 57.9823 17.7371 57.1324 19.3929 56.6196C21.0487 56.1213 28.1994 53.9087 35.2915 51.7108C42.3836 49.5128 48.2595 47.7105 48.3328 47.6812C48.4207 47.6665 48.5819 47.6079 48.6991 47.5639C48.8163 47.52 49.7102 47.2416 50.6773 46.9485C51.6444 46.6555 53.8863 45.9521 55.6593 45.4099C57.4323 44.8531 60.0113 44.0619 61.374 43.6516C62.7514 43.2413 64.3339 42.8457 64.8908 42.7724C65.4622 42.6991 66.1949 42.6259 66.5466 42.6259C66.9129 42.6259 67.1327 42.6845 67.0887 42.7724C67.0448 42.8603 67.1473 42.8896 67.3525 42.831C67.5283 42.787 68.2317 42.8896 68.9204 43.0508C69.6091 43.2266 70.5615 43.549 71.0451 43.7834C71.5286 44.0179 72.2027 44.4868 72.5543 44.8092C72.8913 45.1462 73.3309 45.6884 73.5361 46.04C73.7266 46.377 74.1662 47.6812 74.4885 48.9267C74.8016 50.0835 75.064 51.1393 75.1233 51.3776L75.1333 51.4177C75.1772 51.5349 75.4263 52.5606 75.7047 53.6889C75.9978 54.8172 76.877 58.3486 77.6976 61.5283C78.5035 64.7081 79.9541 70.4814 80.9359 74.3498C81.9176 78.2182 83.0166 82.5409 83.3683 83.9476C83.72 85.3543 84.0277 86.5265 84.057 86.5558L84.3501 87.6548C84.3355 87.6694 84.6871 89.1347 85.1267 90.9078C85.581 92.6808 86.1231 94.8641 86.3429 95.7726C86.5481 96.6664 86.7972 97.4723 86.8705 97.5603L88.0133 102.015ZM46.4279 51.2711C57.9453 47.7104 67.587 44.7505 67.8214 44.6773C68.0559 44.6186 68.5541 44.56 68.9204 44.5454C69.2867 44.5307 69.9168 44.6186 70.3125 44.7359C70.7227 44.8531 71.3235 45.1608 71.6752 45.3953C72.0855 45.703 72.4079 46.0986 72.6423 46.6115C72.8328 47.0364 73.5948 49.7912 74.3421 52.7365C75.0747 55.6817 76.8624 62.7738 78.313 68.4885C79.7637 74.2032 81.4488 80.8411 82.0642 83.2149C82.665 85.5887 83.7054 89.7209 84.3794 92.3731C85.0535 95.0253 86.7239 101.663 88.1013 107.099C89.464 112.536 91.5155 120.61 92.6584 125.049C93.7867 129.475 94.7538 133.27 94.7978 133.475C94.8417 133.68 95.633 136.845 96.5561 140.508C97.4939 144.172 99.56 152.377 101.172 158.752C102.784 165.126 104.337 171.221 104.615 172.306C104.894 173.39 105.114 174.65 105.114 175.09C105.114 175.72 105.011 176.115 104.645 176.833C104.381 177.361 103.956 177.932 103.722 178.108C103.487 178.284 103.077 178.519 102.842 178.65C102.608 178.768 99.604 179.896 96.1752 181.171C92.7463 182.431 88.2625 184.087 86.2111 184.849C84.1596 185.611 81.1557 186.724 79.5439 187.325C77.9321 187.926 74.1809 189.303 71.1916 190.402C68.2024 191.501 64.4805 192.864 62.9127 193.435C61.3448 194.007 59.8502 194.549 59.6157 194.652C59.3813 194.754 57.0368 195.633 54.4139 196.6C51.791 197.568 49.2853 198.461 48.8457 198.593C48.4061 198.725 47.8346 198.828 47.6002 198.828C47.3657 198.828 46.9261 198.769 46.6477 198.681C46.3693 198.608 45.8565 198.359 45.5194 198.139C45.1824 197.919 44.7282 197.494 44.523 197.216C44.3179 196.938 43.9955 196.205 43.805 195.604C43.6145 195.003 42.9845 192.688 42.4276 190.475C41.8562 188.263 41.0356 185.025 40.5813 183.295C40.1418 181.566 39.3798 178.563 38.8816 176.628C38.3834 174.694 37.5628 171.426 37.0353 169.375C36.5078 167.324 35.8631 164.789 35.5846 163.734C35.3062 162.679 34.7201 160.378 34.2659 158.605C33.8116 156.832 33.0057 153.696 32.4928 151.645C31.9653 149.593 31.2473 146.78 30.8957 145.417C30.544 144.055 29.8113 141.212 29.2838 139.116C28.7416 137.021 28.009 134.149 27.6427 132.742C27.291 131.336 26.7342 129.182 26.4265 127.98C26.1187 126.779 25.2249 123.276 24.4483 120.214C23.657 117.151 22.4994 112.594 21.8547 110.103C21.21 107.612 20.3015 104.037 19.8179 102.191C19.349 100.344 18.9241 98.6885 18.8801 98.5274C18.8525 98.3754 18.4991 96.9853 18.0902 95.3774L18.0156 95.0839C17.576 93.3548 16.6822 89.882 16.0521 87.391C15.4073 84.9 14.3523 80.7678 13.7076 78.2328C13.0482 75.6978 12.125 72.0639 11.6415 70.1736C11.0114 67.7266 10.7477 66.4517 10.7477 65.7777C10.7477 65.2502 10.8356 64.5322 10.9528 64.1659C11.0847 63.7995 11.495 63.1548 11.8759 62.7152C12.3448 62.1877 12.8577 61.7921 13.3852 61.5576C13.8248 61.3671 14.5868 61.0887 15.0703 60.9422C15.5539 60.7957 17.3709 60.2388 19.0999 59.6967C20.829 59.1692 22.9683 58.5098 23.8622 58.2314C24.756 57.953 34.9106 54.8172 46.4279 51.2711Z" fill="#003FFF"/>
<path fill-rule="evenodd" clip-rule="evenodd" d="M69.3601 51.1979C69.3601 51.1539 69.2722 51.1246 69.1696 51.1393H69.1843C69.0817 51.1393 68.6714 51.2419 68.2611 51.3737C67.8655 51.491 66.3123 51.9745 64.8176 52.4434C63.8549 52.7455 61.2019 53.5947 58.0141 54.6151C56.253 55.1789 54.3286 55.7949 52.4358 56.3997C47.1167 58.1142 41.783 59.8286 40.5668 60.2095C39.3652 60.6052 36.757 61.4258 34.7788 62.0412C32.8006 62.6713 31.0569 63.2281 30.8957 63.3013C30.7346 63.3746 28.3315 64.1512 25.5474 65.0304C22.7633 65.9096 19.6715 66.8914 18.6604 67.2137C17.2537 67.6533 16.8141 67.8585 16.7848 68.0636C16.7555 68.2248 16.8434 68.8109 16.9753 69.3677C17.1218 69.9392 18.6751 76.0642 20.4188 82.9951L21.4952 87.2387L21.4967 87.2447C22.9946 93.1507 24.56 99.3226 25.3129 102.264C26.2361 105.927 27.7307 111.803 28.6245 115.305C29.5184 118.807 30.2803 121.811 30.3096 121.972C30.3259 122.032 30.5533 122.93 30.9301 124.418C31.5703 126.947 32.6418 131.179 33.841 135.893C34.4244 138.19 35.0366 140.599 35.628 142.926L35.6357 142.957L35.6378 142.965L35.6385 142.967C36.9742 148.223 38.2023 153.055 38.7498 155.235C39.5557 158.385 40.2444 161.111 40.2884 161.316C40.3204 161.465 40.5388 162.329 40.8193 163.439L40.8202 163.442C40.9247 163.856 41.0377 164.303 41.1529 164.759C41.5925 166.444 42.2519 169.023 42.6182 170.474C42.8668 171.458 43.1963 172.733 43.4695 173.789L43.4716 173.797L43.4747 173.81C43.602 174.302 43.7168 174.746 43.8051 175.09C44.0982 176.174 44.3766 177.302 44.4352 177.581C44.4634 177.688 44.5196 177.918 44.5941 178.223C44.7133 178.711 44.8792 179.389 45.0506 180.057L45.5488 182.006C46.3401 181.874 55.1173 178.87 65.5503 175.222C68.903 174.054 72.354 172.853 75.6087 171.72L75.7671 171.665C82.5742 169.296 88.4981 167.234 90.8269 166.415C94.285 165.214 97.2449 164.159 97.3915 164.085C97.5233 164.012 97.6406 163.822 97.6406 163.66C97.6406 163.499 97.3475 162.195 96.9958 160.774C96.6582 159.395 94.9029 152.427 93.0389 145.027L92.805 144.098C92.234 141.831 91.5699 139.193 90.8716 136.42L90.812 136.183L90.7967 136.122L90.7814 136.061C89.1199 129.461 87.2811 122.157 86.05 117.283C85.5522 115.317 85.0174 113.206 84.4846 111.103C83.1197 105.715 81.7676 100.378 81.0826 97.6482L80.8988 96.9186C79.8535 92.7699 77.6726 84.1136 75.8807 76.9873C73.9758 69.4117 71.7339 60.5319 70.884 57.2496L70.5564 55.9566C69.8761 53.2719 69.3601 51.2359 69.3601 51.1979ZM43.4095 55.1982C43.1897 54.8905 42.9992 54.7879 42.6036 54.7879C42.2812 54.7879 41.9735 54.9051 41.7976 55.081C41.5925 55.2861 41.5192 55.5352 41.5485 55.9162C41.5632 56.2825 41.6951 56.5316 41.9442 56.7221C42.2519 56.9712 42.3838 56.9859 42.8234 56.854C43.1311 56.7661 43.4095 56.5463 43.5267 56.3265C43.6146 56.1213 43.7025 55.8722 43.7025 55.7843C43.7172 55.6817 43.5853 55.418 43.4095 55.1982ZM77.1555 174.855C76.8478 174.723 76.2617 174.577 75.8514 174.518C75.4558 174.46 74.8257 174.46 74.4594 174.518C74.1077 174.577 73.5655 174.723 73.2725 174.855C72.9648 174.987 72.3493 175.441 71.9097 175.866C71.3969 176.335 70.9866 176.907 70.7961 177.361C70.6203 177.771 70.4298 178.46 70.3419 178.9C70.2539 179.398 70.2539 180.072 70.3419 180.658C70.4151 181.185 70.6642 182.035 70.8987 182.548C71.1624 183.12 71.5727 183.706 71.9537 184.043C72.2907 184.365 72.9208 184.79 73.3457 185.01C74.0198 185.376 74.2689 185.42 75.4997 185.42C76.7453 185.42 76.9651 185.376 77.5512 185.039C77.9175 184.819 78.5036 184.321 78.8553 183.94C79.2216 183.545 79.6319 182.958 79.7638 182.636C79.9103 182.314 80.1008 181.625 80.2034 181.098C80.306 180.555 80.3353 179.793 80.2913 179.339C80.2327 178.9 79.9836 178.079 79.7198 177.522C79.3975 176.863 78.9725 176.277 78.4743 175.808C78.0494 175.412 77.4486 174.987 77.1555 174.855ZM66.5027 53.0295C65.5356 53.3372 54.8242 56.7661 42.6914 60.6638C30.5586 64.5469 20.0377 67.9024 19.3197 68.1222C18.1035 68.5032 18.0009 68.5618 18.0449 68.8695C18.0742 69.06 18.7189 71.7269 19.4809 74.7894C20.1986 77.6742 21.2415 81.7942 21.8622 84.2467L21.9719 84.6802C22.267 85.8461 22.7035 87.5635 23.1702 89.4L23.1721 89.4075L23.1733 89.4122L23.1743 89.416L23.1764 89.4242C23.6582 91.3198 24.1716 93.3401 24.5948 95.0106C24.8036 95.8348 25.0508 96.81 25.3187 97.8665C26.1223 101.036 27.1115 104.938 27.8039 107.686C28.7417 111.349 30.2949 117.488 31.262 121.313C31.6133 122.702 32.0208 124.31 32.4316 125.932C33.1516 128.773 33.882 131.656 34.3391 133.475C35.0718 136.332 36.3613 141.388 37.1965 144.685C37.4147 145.546 37.6559 146.5 37.9041 147.482C38.6062 150.26 39.3647 153.261 39.8194 155.015C40.4202 157.389 41.8122 162.898 42.9112 167.25L43.3562 169.012L43.3564 169.013L43.3581 169.02L43.36 169.027C44.3194 172.825 45.2593 176.546 45.5634 177.801C45.9297 179.251 46.2521 180.526 46.2814 180.629C46.34 180.761 46.9261 180.599 48.4354 180.086C49.593 179.691 53.6666 178.269 57.491 176.921C60.1817 175.973 65.4181 174.147 70.7713 172.28C73.0271 171.494 75.3037 170.7 77.4192 169.961C84.5553 167.47 91.7353 164.964 93.3911 164.393C95.0469 163.807 96.4096 163.323 96.4389 163.309C96.4682 163.309 92.9808 149.374 88.7021 132.376C84.4087 115.378 79.9249 97.6042 78.738 92.8859C77.5511 88.1676 74.7816 77.1925 72.5837 68.4885C70.4004 59.7846 68.5687 52.6192 68.5394 52.546C68.5101 52.4874 68.4369 52.4434 68.3636 52.4434C68.305 52.4581 67.4698 52.7072 66.5027 53.0295Z" fill="#003FFF"/>
<path fill-rule="evenodd" clip-rule="evenodd" d="M122.404 16.9976C123.093 16.9829 124.969 17.1148 126.58 17.276C128.192 17.4372 132.339 17.8328 135.812 18.1698C139.285 18.4922 143.461 18.8878 145.117 19.0344C146.772 19.1955 149.542 19.4593 151.271 19.6205C153 19.7817 155.843 20.0454 157.572 20.2066C159.301 20.3678 162.114 20.6315 163.799 20.7927C165.499 20.9539 168.327 21.2177 170.1 21.3935C171.873 21.5547 174.672 21.8038 176.328 21.965C177.983 22.1115 180.782 22.3753 182.555 22.5511C184.328 22.7123 186.116 22.8735 186.512 22.9174C186.922 22.9467 187.874 23.0493 188.636 23.1372C189.398 23.2251 190.395 23.3863 190.834 23.5182C191.274 23.6354 191.904 23.9431 192.212 24.2069C192.519 24.4706 192.9 24.9249 193.047 25.2326C193.267 25.6722 193.311 25.9799 193.237 26.8445C193.199 27.3486 193.091 28.4801 192.996 29.4842L192.959 29.8776C192.842 30.962 192.607 33.1453 192.446 34.7132C192.285 36.281 192.05 38.435 191.933 39.4754C191.816 40.5158 191.64 42.1716 191.567 43.1387C191.479 44.1058 191.347 45.2927 191.274 45.7762C191.201 46.2598 191.069 47.4467 190.981 48.4138C190.907 49.3809 190.746 50.9927 190.629 52.0038C190.512 53.0149 190.277 55.1542 190.102 56.7661C189.94 58.3779 189.662 60.9422 189.501 62.4808C189.34 64.0193 189.076 66.4224 188.929 67.8291C188.768 69.2358 188.607 70.7891 188.563 71.2726C188.534 71.7562 188.402 73.0456 188.27 74.13C188.153 75.2143 187.918 77.3536 187.757 78.8922C187.596 80.4308 187.391 82.3357 187.303 83.1416C187.23 83.9475 187.054 85.4715 186.936 86.5118C186.819 87.5522 186.658 88.6365 186.585 88.9003C186.497 89.1933 186.277 89.4571 185.999 89.589C185.75 89.7062 185.369 89.8088 184.68 89.8088V91.318C184.68 92.2998 184.621 92.9006 184.504 93.0618C184.401 93.1936 183.596 93.6479 182.702 94.0875C181.823 94.5124 181.061 94.8934 181.017 94.9374C180.973 94.9813 180.445 95.2451 179.844 95.5235C179.244 95.8019 178.716 96.0656 178.672 96.1096C178.628 96.1536 177.778 96.5931 176.767 97.0914C175.756 97.5896 174.276 98.2929 173.47 98.6739C172.664 99.0402 171.902 99.4065 171.785 99.4798C171.668 99.5677 171.404 99.6996 171.199 99.7729C170.994 99.8608 170.73 99.9927 170.613 100.066C170.496 100.154 170.232 100.286 170.027 100.359C169.822 100.447 169.558 100.564 169.441 100.637C169.323 100.725 168.796 100.989 168.268 101.238C167.741 101.487 167.213 101.751 167.096 101.824C166.979 101.912 166.715 102.044 166.51 102.117C166.305 102.205 166.041 102.323 165.924 102.396C165.807 102.484 165.382 102.703 164.971 102.909C164.576 103.114 164.078 103.348 163.872 103.421C163.667 103.509 163.404 103.641 163.286 103.729C163.169 103.802 162.905 103.934 162.7 104.022C162.495 104.096 162.231 104.227 162.114 104.315C161.997 104.389 161.733 104.52 161.528 104.608C161.323 104.682 161.059 104.814 160.942 104.901C160.825 104.975 160.532 105.121 160.282 105.224C160.033 105.312 159.799 105.385 159.74 105.37C159.667 105.356 159.623 105.385 159.623 105.458C159.623 105.517 159.33 105.663 158.978 105.781C158.612 105.898 158.348 106.03 158.378 106.074C158.407 106.118 158.143 106.235 157.777 106.337C157.425 106.425 157.161 106.557 157.191 106.631C157.235 106.689 156.971 106.821 156.605 106.924C156.253 107.011 155.989 107.143 156.033 107.217C156.062 107.275 155.799 107.422 155.447 107.539C155.095 107.656 154.832 107.788 154.861 107.832C154.89 107.876 154.626 108.008 154.275 108.125C153.923 108.242 153.659 108.374 153.689 108.418C153.718 108.462 153.454 108.594 153.102 108.711C152.751 108.828 152.487 108.96 152.516 109.004C152.546 109.048 152.311 109.166 151.989 109.268C151.681 109.356 151.417 109.488 151.417 109.561C151.417 109.62 151.154 109.752 150.831 109.854C150.509 109.942 150.245 110.103 150.245 110.177C150.245 110.25 150.069 110.352 149.849 110.396C149.615 110.426 149.337 110.558 149.219 110.689C149.102 110.821 148.838 110.953 148.633 110.982C148.428 111.012 148.164 111.158 148.047 111.276C147.93 111.407 147.783 111.51 147.725 111.495C147.652 111.495 147.168 111.7 146.626 111.95C146.069 112.213 144.252 113.107 139.475 115.496L136.838 114.807C135.387 114.426 131.46 113.386 128.119 112.506C124.778 111.627 119.796 110.308 117.056 109.576C114.316 108.843 111.708 108.169 111.268 108.067C110.828 107.964 107.297 107.041 103.429 106C99.5601 104.975 94.5194 103.656 92.2189 103.055C89.9184 102.469 88.0281 102 88.0135 102.015L86.8706 97.5602C86.9438 97.6481 88.922 98.1757 91.2665 98.7471C93.611 99.3186 97.2889 100.212 99.4722 100.74C101.656 101.267 106.462 102.454 110.169 103.363C113.876 104.271 117.774 105.224 118.814 105.473C119.855 105.722 122.595 106.381 124.895 106.953C127.196 107.524 129.233 108.023 129.438 108.066C129.643 108.11 131.489 108.565 133.541 109.092C135.592 109.62 137.409 110.074 137.57 110.118C137.731 110.147 138.2 110.22 138.596 110.264C139.285 110.352 139.461 110.294 141.234 109.429C142.289 108.931 143.168 108.477 143.212 108.418C143.256 108.345 143.563 108.213 143.9 108.11C144.237 107.993 144.487 107.876 144.457 107.832C144.428 107.788 144.692 107.656 145.043 107.539C145.395 107.422 145.659 107.275 145.629 107.202C145.586 107.143 145.879 107.011 146.274 106.909C146.67 106.821 146.978 106.704 146.948 106.66C146.919 106.616 147.183 106.484 147.534 106.367C147.886 106.25 148.15 106.118 148.12 106.074C148.091 106.03 148.355 105.898 148.707 105.781C149.058 105.663 149.322 105.532 149.293 105.488C149.263 105.444 149.527 105.312 149.879 105.194C150.245 105.077 150.48 104.916 150.421 104.828C150.362 104.74 150.421 104.726 150.582 104.799C150.714 104.857 150.831 104.857 150.831 104.784C150.831 104.726 151.124 104.594 151.491 104.491C151.857 104.403 152.121 104.242 152.077 104.169C152.033 104.095 152.238 103.993 152.516 103.949C152.868 103.905 153 103.817 152.927 103.7C152.839 103.568 152.883 103.553 153.073 103.627C153.205 103.685 153.322 103.671 153.322 103.583C153.322 103.509 153.513 103.407 153.762 103.363C154.055 103.319 154.172 103.231 154.099 103.114C154.011 102.982 154.055 102.967 154.245 103.04C154.377 103.099 154.495 103.084 154.495 102.997C154.495 102.923 154.685 102.821 154.934 102.777C155.183 102.733 155.374 102.63 155.374 102.557C155.374 102.484 155.447 102.44 155.52 102.484C155.594 102.528 155.667 102.484 155.667 102.41C155.667 102.337 155.857 102.235 156.106 102.191C156.399 102.147 156.517 102.059 156.443 101.941C156.356 101.81 156.399 101.795 156.59 101.868C156.722 101.927 156.839 101.927 156.839 101.854C156.839 101.795 157.03 101.707 157.279 101.634C157.572 101.565 157.684 101.473 157.616 101.355C157.528 101.223 157.572 101.209 157.762 101.282C157.894 101.341 158.011 101.326 158.011 101.238C158.011 101.165 158.246 101.062 158.524 101.018C158.803 100.974 159.008 100.901 158.964 100.828C158.934 100.769 159.198 100.623 159.55 100.505C159.902 100.388 160.165 100.256 160.136 100.212C160.107 100.168 160.37 100.037 160.722 99.9194C161.074 99.8021 161.338 99.6703 161.308 99.6263C161.279 99.5823 161.543 99.4505 161.894 99.3332C162.246 99.216 162.51 99.0695 162.481 98.9962C162.437 98.9376 162.73 98.8057 163.125 98.7032C163.521 98.6152 163.829 98.498 163.799 98.4541C163.77 98.4101 164.034 98.2782 164.385 98.161C164.737 98.0438 165.001 97.9119 164.972 97.8679C164.942 97.824 165.206 97.6921 165.558 97.5749C165.909 97.4576 166.173 97.3258 166.144 97.2818C166.114 97.2379 166.349 97.1206 166.671 97.0181C166.979 96.9301 167.243 96.7983 167.243 96.725C167.243 96.6664 167.507 96.5345 167.829 96.4319C168.151 96.344 168.415 96.2121 168.415 96.1389C168.415 96.0803 168.708 95.9484 169.074 95.8458C169.441 95.7579 169.734 95.626 169.734 95.5527C169.734 95.4941 170.027 95.3476 170.379 95.2304C170.745 95.1132 171.009 94.9813 170.979 94.9373C170.95 94.8934 171.214 94.7615 171.565 94.6443C171.917 94.527 172.181 94.3952 172.152 94.3512C172.122 94.3072 172.386 94.1754 172.752 94.0581C173.104 93.9409 173.397 93.7944 173.397 93.7211C173.397 93.6625 173.544 93.5746 173.734 93.5306C173.91 93.472 175.405 92.7687 177.06 91.9627C178.716 91.1568 180.592 90.2923 181.236 90.0285L182.409 89.5596C181.617 89.3105 180.797 89.1493 180.064 89.0175C179.332 88.8856 175.683 88.2409 171.932 87.5961C168.181 86.9514 164.928 86.3799 164.678 86.3506C164.429 86.3066 161.176 85.7498 157.425 85.1051C153.674 84.475 148.897 83.6544 146.802 83.2881C144.711 82.9372 140.271 82.1777 136.932 81.6067L136.914 81.6035L136.911 81.603C133.57 81.0315 129.115 80.2549 127.02 79.8886C124.925 79.5223 123.005 79.1999 122.771 79.156C122.536 79.1266 120.587 78.7896 118.448 78.4379C116.309 78.0716 114.111 77.6906 113.539 77.5734C112.968 77.4562 112.22 77.2657 111.854 77.1338C111.488 77.0166 111.165 76.914 111.121 76.914C111.077 76.9287 105.04 79.3318 97.7139 82.277C90.3873 85.2223 84.3649 87.6401 84.3503 87.6547L84.0571 86.5558C84.0718 86.5851 86.9878 85.4422 90.5338 84.0208C94.0798 82.5995 100.029 80.2257 110.535 76.0349L110.447 75.4194C110.403 75.0238 110.594 73.2361 110.96 70.6865C111.283 68.4299 111.971 63.653 112.499 60.063C113.026 56.473 114.374 47.1536 115.517 39.3289C116.646 31.5041 117.745 23.9578 117.95 22.5511C118.17 21.1444 118.463 19.6644 118.609 19.2541C118.756 18.8585 119.122 18.2724 119.43 17.9647C119.737 17.6716 120.25 17.3199 120.573 17.2027C120.91 17.0855 121.701 16.9976 122.404 16.9976ZM120.236 18.6387C120.412 18.4629 120.734 18.2577 120.939 18.1698C121.144 18.0965 121.745 18.0233 122.302 18.0233C122.844 18.0086 124.221 18.1112 125.364 18.2284C126.522 18.3456 128.91 18.5801 130.683 18.7413C132.456 18.9024 135.255 19.1662 136.911 19.3274C138.567 19.4886 142.743 19.8842 146.216 20.2066C149.688 20.5289 153.908 20.9246 155.594 21.0858C156.283 21.1517 157.513 21.2666 159.022 21.4074C161.202 21.6111 163.964 21.8689 166.51 22.1115C170.818 22.5071 175.009 22.9027 175.815 22.9907C176.034 23.0106 176.405 23.0456 176.884 23.0908C178.168 23.2119 180.225 23.406 182.189 23.5768C184.885 23.8259 187.918 24.1336 188.929 24.2508C189.94 24.3827 190.937 24.5732 191.171 24.6904C191.391 24.8076 191.713 25.0714 191.875 25.3058C192.153 25.6575 192.182 25.8334 192.109 27.0203C192.05 27.7383 191.757 30.8154 191.435 33.8339C191.098 36.8525 190.702 40.6183 190.541 42.1862C190.365 43.7541 190.102 46.2305 189.955 47.6811C189.847 48.6529 189.548 51.5052 189.191 54.9167C189.015 56.5979 188.825 58.4149 188.636 60.2095C188.314 63.2705 187.993 66.3129 187.752 68.5886C187.565 70.3544 187.427 71.6588 187.376 72.1518C187.352 72.3842 187.32 72.6875 187.283 73.0428L187.283 73.0486C187.14 74.4181 186.917 76.5553 186.731 78.3793C186.482 80.6799 186.248 82.8925 186.219 83.2881C186.175 83.6984 186.043 84.8853 185.925 85.9257C185.865 86.399 185.808 86.8814 185.76 87.2915L185.76 87.2945L185.759 87.2964C185.702 87.7854 185.656 88.1708 185.632 88.3141C185.588 88.5632 185.53 88.783 185.486 88.783C185.442 88.783 184.108 88.5486 182.526 88.2702C181.586 88.1064 180.485 87.9122 179.549 87.7473L179.546 87.7468C178.892 87.6315 178.319 87.5305 177.94 87.4642C177.016 87.3031 172.533 86.5411 167.975 85.7791C165.119 85.2923 161.595 84.6962 158.597 84.1891L158.595 84.1888L158.59 84.1879C156.808 83.8865 155.213 83.6166 154.055 83.42C152.91 83.2256 151.481 82.9835 149.969 82.7273C149.937 82.7219 149.905 82.7165 149.873 82.711C149.854 82.7079 149.836 82.7048 149.818 82.7017C149.807 82.6999 149.796 82.698 149.785 82.6962L149.78 82.6953C147.241 82.2651 144.493 81.7996 142.479 81.4565C141.75 81.3323 140.934 81.1928 140.072 81.0457C140.012 81.0354 139.951 81.0251 139.891 81.0148C139.885 81.0138 139.88 81.0129 139.874 81.0119L139.87 81.0113C139.867 81.0107 139.863 81.01 139.859 81.0094C136.904 80.5047 133.471 79.9185 131.269 79.5516C129.726 79.2944 127.624 78.9377 125.532 78.583L125.529 78.5824L125.525 78.5818L125.524 78.5815L125.521 78.5811C123.684 78.2695 121.857 77.9596 120.426 77.7199C117.364 77.2071 114.404 76.6649 113.832 76.533C113.261 76.4158 112.645 76.2107 112.44 76.1081C112.235 76.0055 111.927 75.7564 111.444 75.2289L111.708 73.2507C111.744 72.9797 111.785 72.673 111.829 72.351C111.958 71.3845 112.107 70.2799 112.206 69.5875C112.278 69.1321 112.365 68.5733 112.448 68.036C112.533 67.4841 112.615 66.9548 112.675 66.5836C112.753 66.0911 112.965 64.6251 113.219 62.8579L113.22 62.8568C113.344 61.9955 113.478 61.0627 113.612 60.1362C114.008 57.3228 114.638 52.9709 115.005 50.4652C115.177 49.2821 115.396 47.7986 115.613 46.3291C115.855 44.6863 116.095 43.0611 116.265 41.8931C116.476 40.4441 116.756 38.486 117.003 36.7638C117.132 35.8563 117.253 35.0143 117.349 34.3468C117.627 32.4126 118.214 28.3537 118.653 25.3352C119.093 22.258 119.532 19.6498 119.664 19.4006C119.781 19.1515 120.045 18.8145 120.236 18.6387Z" fill="#15006A"/>
<path fill-rule="evenodd" clip-rule="evenodd" d="M112.279 80.3722C110.623 80.0791 109.114 79.8447 108.909 79.8447C108.704 79.8593 107.619 80.2256 106.491 80.6652C105.363 81.1048 103.458 81.8521 102.242 82.3357C101.04 82.8046 98.0949 83.9622 95.7211 84.9C93.3473 85.8378 91.2226 86.7023 91.0029 86.8195C90.7684 86.9367 90.5926 87.1126 90.5926 87.2152C90.5779 87.3031 90.6658 87.4789 90.7684 87.5668C90.871 87.6694 92.4095 88.0797 94.1826 88.4753L95.2672 88.7176C97.0194 89.1092 99.306 89.6202 100.85 89.9553C101.824 90.1668 102.904 90.4017 103.842 90.6057L103.895 90.6174L103.91 90.6206C104.762 90.806 105.49 90.9644 105.905 91.0543C106.631 91.2115 107.366 91.3687 107.716 91.4435L107.883 91.4792C108.088 91.5085 109.729 91.8748 111.546 92.2851C113.363 92.6954 117.979 93.7211 121.804 94.5564C124.205 95.09 126.999 95.7045 129.254 96.2004C130.59 96.4942 131.737 96.7465 132.5 96.9155C134.552 97.3698 137.556 98.0291 139.168 98.3808C139.944 98.5503 140.833 98.7469 141.652 98.9282L141.665 98.931L141.669 98.9318L141.679 98.9341C142.549 99.1267 143.339 99.3013 143.827 99.4065C144.765 99.6117 145.688 99.7729 145.879 99.7729C146.054 99.7729 147.989 99.0549 150.157 98.1903C152.326 97.3111 156.253 95.7139 158.876 94.6443C161.499 93.5746 164.591 92.3144 165.763 91.8455C166.935 91.3766 167.976 90.8638 168.078 90.7319C168.181 90.5854 168.239 90.3656 168.225 90.2483C168.195 90.0872 167.668 89.9406 166.349 89.7062L166.183 89.6773C165.022 89.4753 162 88.9495 159.242 88.49C156.341 87.9918 153.278 87.4643 152.429 87.3177C152.153 87.2703 151.732 87.1966 151.224 87.1078L151.191 87.1022L151.183 87.1008C150.127 86.9162 148.708 86.6684 147.447 86.4532C146.075 86.2086 142.464 85.5857 138.446 84.8926L138.441 84.8917L138.413 84.8869L138.403 84.8852L138.379 84.881L138.31 84.8691C136.835 84.6146 135.308 84.3512 133.819 84.094L130.784 83.5698L130.774 83.5681C126.287 82.7933 122.27 82.0998 121.144 81.8961C119.767 81.6616 117.891 81.3393 116.968 81.1781C116.045 81.0169 113.935 80.6506 112.279 80.3722ZM113.012 93.9995C110.55 93.4867 108.22 93.0031 107.81 92.9299C107.107 92.798 106.901 92.8566 102.168 94.571C100.06 95.3275 98.0673 96.048 97.1241 96.3892L97.122 96.3899C96.8605 96.4845 96.6799 96.5498 96.6003 96.5785C96.234 96.725 95.8237 96.9155 95.6772 97.0181C95.4867 97.1499 95.4427 97.2818 95.5306 97.4723C95.6039 97.6189 96.0142 97.8533 96.5271 98.0145C97.0106 98.161 98.4613 98.5566 99.7507 98.8937C100.88 99.1888 102.537 99.6413 103.69 99.9558L104.147 100.081C105.086 100.349 105.975 100.587 106.339 100.685L106.34 100.685L106.344 100.686L106.358 100.69L106.491 100.725C106.652 100.755 107.869 101.077 109.202 101.443C111.253 102.015 111.634 102.073 111.737 101.898C111.796 101.78 111.927 101.678 112.03 101.678C112.118 101.678 112.601 101.487 113.085 101.238C113.569 101.004 114.008 100.799 114.081 100.799C114.14 100.799 114.799 100.506 115.547 100.154C116.279 99.8022 117.481 99.26 118.214 98.9376C118.946 98.6006 120.162 98.0584 120.924 97.7214C121.686 97.3844 122.478 96.9888 122.683 96.8422C122.932 96.6664 123.02 96.5052 122.947 96.344C122.873 96.2122 122.566 96.0656 122.214 96.0217C121.862 95.9631 121.481 95.8751 121.364 95.8165C121.247 95.7579 120.324 95.5235 119.313 95.3183C118.753 95.2047 117.635 94.9697 116.331 94.6954C115.281 94.4746 114.11 94.2283 113.012 93.9995ZM124.163 23.9431C124.163 23.9871 123.972 25.3498 123.723 26.991C123.489 28.6175 123.122 31.0059 122.917 32.2954C122.777 33.179 122.581 34.4616 122.406 35.6106C122.325 36.1384 122.249 36.6379 122.185 37.0576C121.979 38.3911 121.716 40.0762 121.598 40.7942C121.481 41.5122 121.217 43.2266 121.012 44.604C120.807 45.9814 120.47 48.15 120.265 49.4395C120.164 50.1218 120.039 50.923 119.926 51.6457L119.925 51.6493C119.825 52.291 119.734 52.8705 119.679 53.2493C119.562 54.0537 119.357 55.2814 119.24 55.9854L119.239 55.9886C119.122 56.7066 118.932 57.9529 118.814 58.7735C118.697 59.6087 118.463 61.1473 118.301 62.1877C118.14 63.2281 117.877 64.9132 117.715 65.9242C117.569 66.9353 117.408 67.917 117.364 68.1222C117.32 68.3273 117.188 69.1772 117.071 70.0271C116.953 70.877 116.807 71.7708 116.748 72.0053C116.675 72.4009 116.704 72.4595 117.071 72.5767C117.305 72.6353 117.73 72.7233 118.008 72.7672C118.215 72.789 119.737 73.0286 121.73 73.3424L121.732 73.3427C122.424 73.4517 123.173 73.5695 123.943 73.6904C126.269 74.0666 129.899 74.6469 132.948 75.1344L135.372 75.522C137.372 75.8331 141.302 76.4569 145.677 77.1514L145.68 77.1518L145.721 77.1583C148.546 77.6067 151.555 78.0843 154.348 78.5259C161.484 79.6542 167.507 80.6066 167.756 80.6506C167.873 80.6713 168.578 80.7829 169.635 80.9503L169.638 80.9508L169.64 80.951L169.65 80.9526L169.652 80.9529L169.653 80.953C170.84 81.141 172.467 81.3985 174.203 81.6763C177.5 82.2038 180.255 82.6727 180.328 82.702C180.387 82.746 180.431 82.702 180.431 82.6287C180.431 82.5555 180.533 81.603 180.65 80.5334C180.688 80.1982 180.726 79.8542 180.763 79.5304C180.841 78.835 180.909 78.233 180.929 78.013C180.958 77.6906 181.193 75.8151 181.442 73.8369C181.631 72.3338 181.905 70.0694 182.135 68.1685L182.135 68.1634C182.208 67.5644 182.276 67.0017 182.335 66.5103C182.393 66.0325 182.459 65.487 182.53 64.9063L182.536 64.8544L182.536 64.8504L182.537 64.8485L182.537 64.8454C182.767 62.9459 183.04 60.6851 183.229 59.1838C183.464 57.2056 183.786 54.5388 183.947 53.2493C184.04 52.5082 184.186 51.288 184.34 49.9947L184.342 49.9848C184.456 49.0308 184.574 48.0377 184.68 47.1683C184.852 45.7485 185.095 43.7462 185.306 42.0065L185.312 41.955L185.559 39.915L185.744 38.3958L185.744 38.3904C185.958 36.6283 186.209 34.567 186.365 33.2478C186.57 31.5188 186.687 30.0535 186.629 30.0095C186.556 29.9655 184.402 29.7164 181.823 29.4673C180.206 29.302 178.11 29.0963 176.267 28.9153C175.17 28.8076 174.162 28.7086 173.397 28.6321C171.98 28.5005 168.835 28.187 165.416 27.8463C163.887 27.6939 162.304 27.5361 160.795 27.3866C159.225 27.231 157.403 27.0511 155.517 26.8649L155.514 26.8646C151.542 26.4725 147.292 26.0529 144.53 25.7748C142.177 25.5461 139.177 25.249 136.428 24.9767C134.419 24.7778 132.544 24.5921 131.152 24.456C127.87 24.1336 124.954 23.8699 124.676 23.8699C124.397 23.8699 124.163 23.8992 124.163 23.9431ZM123.796 22.6976C124.002 22.6976 127.108 22.9614 130.727 23.2837C133.651 23.5452 137.509 23.903 140.215 24.154L141.893 24.3095C143.059 24.4173 144.81 24.5809 146.747 24.7618L146.749 24.7619L146.756 24.7626L146.761 24.763L146.765 24.7635L146.767 24.7637L146.769 24.7638C149.038 24.9758 151.559 25.2112 153.689 25.4084C157.645 25.7748 162.583 26.2437 164.679 26.4488C166.083 26.5764 168.631 26.8291 171.24 27.0877C172.525 27.215 173.824 27.3438 175.009 27.4599C178.599 27.8262 182.555 28.2511 183.801 28.4123C185.046 28.5735 186.409 28.7493 186.805 28.7933C187.215 28.8373 187.64 28.9252 187.757 28.9984C187.948 29.1157 187.933 29.5553 187.567 32.691C187.347 34.6545 187.068 37.043 186.951 38.0101C186.909 38.3626 186.856 38.8067 186.8 39.2791L186.8 39.2812L186.8 39.2823C186.703 40.1049 186.595 41.0131 186.512 41.6734C186.464 42.0496 186.405 42.5332 186.341 43.0541L186.34 43.0598C186.228 43.9778 186.101 45.0108 185.999 45.7762C185.914 46.4787 185.825 47.235 185.753 47.8417L185.753 47.8437C185.7 48.2865 185.657 48.6494 185.632 48.8534C185.589 49.3369 185.457 50.4506 185.339 51.3444C185.222 52.2382 185.002 54.0406 184.841 55.374C184.778 55.8995 184.696 56.5592 184.61 57.2501C184.479 58.3124 184.338 59.4482 184.24 60.2828C184.118 61.3252 183.955 62.6697 183.831 63.6812L183.828 63.7079C183.79 64.0222 183.755 64.3034 183.728 64.5322C183.61 65.4993 183.478 66.6276 183.435 67.0232C183.398 67.365 183.28 68.3069 183.157 69.2897L183.083 69.8806C182.922 71.0528 182.658 73.1922 182.482 74.6428C182.306 76.0935 181.969 78.731 181.735 80.504C181.5 82.2771 181.266 83.757 181.222 83.801C181.178 83.8449 178.394 83.42 175.038 82.8778C171.683 82.321 168.737 81.8375 168.488 81.8082C168.239 81.7642 166.803 81.5444 165.265 81.31C164.519 81.1893 163.303 80.9964 161.925 80.7779C160.459 80.5454 158.81 80.284 157.352 80.0498C155.887 79.8133 154.506 79.5927 153.483 79.4293C152.541 79.2789 151.903 79.177 151.784 79.156C151.61 79.1355 150.754 79.0003 149.649 78.8256C149.175 78.7505 148.654 78.6682 148.121 78.5845C147.221 78.4432 146.091 78.2642 145.001 78.0914L144.998 78.091L144.994 78.0904L144.992 78.09L144.967 78.0861L144.952 78.0838L144.946 78.0828C143.907 77.9183 142.909 77.7602 142.186 77.6467C141.497 77.5386 140.335 77.3527 138.982 77.1363L138.977 77.1355L138.973 77.1349L138.957 77.1324L138.956 77.1321L138.949 77.131C137.375 76.8792 135.546 76.5867 133.907 76.3279C130.845 75.8444 127.123 75.2582 125.628 75.0238C124.611 74.8542 122.989 74.5964 121.452 74.352L121.448 74.3514L121.438 74.3499C120.722 74.236 120.024 74.125 119.415 74.0274C117.481 73.7197 115.825 73.3973 115.723 73.324C115.561 73.2068 115.62 72.5621 116.03 69.8073C116.247 68.2889 116.652 65.6704 116.993 63.4679C117.067 62.9922 117.138 62.536 117.203 62.1144C117.427 60.6605 117.64 59.3056 117.779 58.4266C117.866 57.8705 117.924 57.5049 117.935 57.4254C117.962 57.2348 118.762 52.0451 119.757 45.5848L119.759 45.5714L119.987 44.0911C121.086 36.9551 122.243 29.4673 122.566 27.4599C122.888 25.4524 123.21 23.5475 123.298 23.2544C123.415 22.8002 123.503 22.6976 123.796 22.6976ZM107.649 81.31C107.063 81.5444 106.594 81.7789 106.608 81.8228C106.638 81.8521 112.616 83.0097 119.913 84.3871C127.211 85.7645 133.365 86.9221 133.614 86.966C133.706 86.9823 134.566 87.1461 135.965 87.4127L135.977 87.4151L135.983 87.4162L135.988 87.417C138.383 87.8734 142.341 88.6275 146.728 89.4571C153.703 90.7905 159.96 91.9774 160.649 92.0946L161.894 92.3144C164.62 91.2448 165.484 90.8784 165.558 90.8198C165.631 90.7612 165.338 90.644 164.898 90.5561C164.656 90.5076 164.205 90.4236 163.694 90.3285L163.689 90.3276C163.274 90.2503 162.82 90.1658 162.407 90.0872C162.127 90.0383 161.845 89.9881 161.58 89.9411L161.576 89.9403C160.969 89.8324 160.456 89.7412 160.283 89.7208C160.201 89.7064 160.008 89.6729 159.738 89.6261L159.731 89.6249C159.181 89.5294 158.316 89.3793 157.425 89.2226C156.092 88.9882 152.897 88.4314 150.318 87.9918C147.74 87.5522 145.439 87.1565 145.19 87.1126C144.941 87.0833 139.944 86.2188 134.054 85.193C128.178 84.182 121.672 83.039 119.62 82.6727C118.785 82.5295 117.976 82.3888 117.295 82.2702L117.292 82.2695L117.288 82.2689C116.3 82.097 115.583 81.972 115.444 81.9547C115.21 81.9107 114.081 81.7203 112.953 81.5298C112.141 81.3822 111.368 81.2422 110.937 81.1643L110.926 81.1622L110.609 81.1048C110.447 81.0755 109.949 81.0023 109.51 80.9583C108.821 80.885 108.543 80.929 107.634 81.31H107.649ZM102.564 83.3614C102.52 83.2881 102.901 83.083 103.399 82.9365C103.912 82.7753 104.454 82.6434 104.615 82.6434C104.777 82.6287 105.964 82.8339 107.253 83.083C108.391 83.3029 109.507 83.5114 109.914 83.5875L110.037 83.6105C110.233 83.6349 116.066 84.7178 123.764 86.1466L128.573 87.0393C138.523 88.8856 148.78 90.8052 151.359 91.2887C153.938 91.7723 156.898 92.3291 157.953 92.5342C159.008 92.7247 159.902 92.8859 159.96 92.8859C160.033 92.8859 160.077 92.9299 160.077 92.9885C160.077 93.0617 159.345 93.3841 156.78 94.3659L151.652 93.3255C148.838 92.754 139.666 90.9077 131.284 89.2226C122.903 87.5375 113.246 85.5887 109.817 84.8853C106.388 84.182 103.37 83.5958 103.106 83.5665C102.857 83.5372 102.608 83.4347 102.564 83.3614ZM99.2378 84.5776C98.7836 84.7534 98.3586 84.9439 98.2853 85.0025C98.2267 85.0611 98.3 85.1344 98.4612 85.1784C98.6224 85.2223 100.395 85.618 102.418 86.0576C103.666 86.331 105.38 86.7009 106.952 87.0402L106.955 87.0407L106.961 87.0421L106.991 87.0486L107.014 87.0535L107.027 87.0562C107.954 87.2564 108.828 87.4451 109.524 87.5961C111.415 88.0064 113.1 88.3874 113.261 88.4314C113.386 88.4654 113.589 88.5082 113.77 88.5462L113.869 88.567L113.92 88.5779C114.125 88.6072 117.159 89.2666 120.661 90.0432C124.163 90.8052 127.196 91.4645 127.401 91.5085L127.546 91.5395L127.551 91.5406C128.425 91.7271 132.833 92.6676 137.951 93.7797C143.549 94.9813 148.765 96.1096 149.527 96.2854L150.919 96.5931C152.971 95.8898 153.879 95.5381 154.289 95.3623L155.022 95.0399C154.114 94.8494 149.894 93.9995 145.058 93.0324C140.222 92.08 128.515 89.7355 119.049 87.8306C109.583 85.9257 101.436 84.3432 100.952 84.3139C100.293 84.2699 99.8679 84.3285 99.2378 84.5776ZM94.1385 86.6583C94.4125 86.5514 94.7079 86.4414 94.9704 86.3437L94.9718 86.3432L94.9728 86.3428C95.2847 86.2266 95.5499 86.1279 95.6771 86.0722C95.9702 85.9696 96.3951 85.9403 96.9226 86.0136C97.3622 86.0869 98.974 86.3946 100.513 86.717C102.051 87.0393 107.253 88.153 112.089 89.208C115.929 90.0342 119.316 90.7681 120.651 91.0571L121.247 91.1861C121.452 91.2301 127.518 92.5489 134.728 94.1168C141.937 95.6846 148.106 97.0181 148.428 97.0767C148.751 97.1206 149.102 97.2086 149.205 97.2672C149.322 97.3111 148.677 97.6628 147.74 98.0731C146.377 98.6592 145.996 98.7618 145.571 98.6885C145.42 98.6567 144.885 98.543 144.163 98.3894L144.084 98.3726L143.869 98.327L142.054 97.9412C140.398 97.5749 137.101 96.8569 134.728 96.344C132.354 95.8165 130.244 95.3623 130.039 95.3183C129.968 95.3032 129.582 95.2187 128.971 95.0852L128.963 95.0833L128.952 95.0809L128.929 95.076C127.76 94.8201 125.801 94.3917 123.664 93.9263C122.685 93.7086 121.679 93.4845 120.719 93.2709L120.682 93.2627L120.594 93.2431L120.534 93.2297L120.531 93.2291L120.524 93.2275C118.334 92.7398 116.419 92.3133 115.679 92.1533C114.594 91.9188 109.979 90.9077 105.421 89.8967C103.697 89.5196 101.968 89.1404 100.429 88.8029L100.426 88.8022C97.8993 88.248 95.8839 87.806 95.2375 87.6694C94.1971 87.4496 93.2593 87.2152 93.1861 87.1565C93.1128 87.0979 93.5377 86.8781 94.1385 86.6583ZM103.223 95.3183C101.699 95.8846 100.207 96.4347 99.3783 96.74C99.0921 96.8455 98.8851 96.9218 98.7835 96.9595C98.4026 97.0913 98.0948 97.2379 98.0948 97.2818C98.0948 97.3258 101.011 98.1317 104.586 99.0842C108.147 100.022 111.18 100.799 111.312 100.799C111.458 100.799 113.275 100.037 115.342 99.0988C117.422 98.161 119.444 97.2232 119.855 97.0181L120.587 96.6517C119.342 96.3587 118.77 96.2415 118.536 96.1975C118.301 96.1535 116.323 95.7579 114.14 95.3037C111.957 94.8494 109.568 94.3512 108.821 94.19C108.088 94.0435 107.356 93.9116 107.209 93.9116C107.077 93.9263 105.275 94.5564 103.223 95.3183Z" fill="#15006A"/>
<path d="M148.288 44.7789C148.669 44.5884 149.329 44.3393 149.753 44.222C150.164 44.1048 150.779 44.0022 151.102 44.0022C151.424 43.9876 152.054 44.0462 152.494 44.1341C152.933 44.2074 153.798 44.5298 154.399 44.8228C155.146 45.1891 155.776 45.6434 156.362 46.2588C156.875 46.7863 157.417 47.5483 157.71 48.1637C157.989 48.7352 158.311 49.6437 158.428 50.2152C158.545 50.7866 158.648 51.7684 158.648 52.4131C158.648 53.0579 158.589 53.6879 158.516 53.8052C158.413 53.9663 158.487 54.0836 158.809 54.2887C159.058 54.4352 159.234 54.6697 159.234 54.8309C159.234 54.9921 158.956 55.4317 158.619 55.798C158.267 56.179 157.681 56.6332 157.3 56.8237C156.904 57.0142 156.465 57.1754 156.303 57.1754C156.142 57.1754 155.981 57.0728 155.937 56.9556C155.893 56.8383 155.922 56.3841 155.996 55.9738C156.069 55.5489 156.245 54.7869 156.391 54.2887C156.64 53.4388 156.699 53.3656 157.109 53.3363C157.549 53.2923 157.549 53.2923 157.593 52.2666C157.608 51.6805 157.534 50.8599 157.402 50.3617C157.271 49.8781 156.992 49.1162 156.772 48.6766C156.567 48.237 156.01 47.475 155.556 46.9915C155.073 46.4786 154.384 45.9365 153.871 45.6727C153.065 45.2624 152.889 45.2331 151.395 45.2331C149.944 45.2331 149.695 45.2771 148.948 45.6434C148.479 45.8632 147.746 46.376 147.336 46.7717C146.632 47.4457 146.53 47.4897 146.163 47.3578C145.929 47.2845 145.753 47.1673 145.753 47.1087C145.753 47.0354 145.87 46.8156 146.017 46.6105C146.149 46.3907 146.559 45.9804 146.925 45.6727C147.292 45.365 147.893 44.9693 148.288 44.7789Z" fill="#003FFF"/>
<path d="M143.907 50.0393C144.024 49.7023 144.171 49.5558 144.434 49.5118C144.611 49.4866 144.788 49.4504 144.88 49.4315C144.895 49.4285 144.908 49.4259 144.918 49.4239C144.977 49.4239 145.079 49.5265 145.152 49.673C145.226 49.8049 145.343 50.347 145.431 50.8745C145.519 51.4021 145.695 52.1054 145.826 52.4571C145.955 52.8167 146.008 52.9662 145.957 53.0576C145.921 53.1225 145.832 53.1581 145.68 53.219C145.343 53.3509 145.328 53.4242 145.402 53.9957C145.445 54.3327 145.592 54.8748 145.739 55.1972C145.87 55.5196 146.251 56.179 146.574 56.6625C146.911 57.1754 147.497 57.7761 148.024 58.1718C148.537 58.5381 149.299 58.9337 149.856 59.0949C150.384 59.2561 151.146 59.3733 151.541 59.3733C151.951 59.3733 152.743 59.1975 153.3 59.007C153.856 58.8019 154.472 58.6407 154.662 58.6407C154.911 58.6407 154.985 58.7286 154.985 59.007C154.985 59.2268 154.853 59.4613 154.662 59.5931C154.472 59.725 153.9 59.9595 153.373 60.1206C152.845 60.2672 152.025 60.3991 151.541 60.3991C151.058 60.3991 150.296 60.2965 149.856 60.1646C149.416 60.0327 148.669 59.7397 148.215 59.5052C147.746 59.2708 147.087 58.8312 146.764 58.5381C146.427 58.2304 145.914 57.615 145.607 57.1754C145.314 56.7358 144.889 55.9152 144.654 55.3437C144.434 54.7723 144.244 54.0103 144.229 53.6293C144.229 53.2483 144.2 52.9992 144.185 53.0725C144.156 53.1604 143.966 53.219 143.746 53.219C143.511 53.219 143.233 53.1604 143.116 53.0725C142.925 52.9699 142.954 52.7794 143.321 51.7244C143.403 51.4871 143.489 51.2408 143.57 51.0097L143.571 51.0067L143.572 51.0051C143.72 50.5815 143.85 50.2096 143.907 50.0393Z" fill="#003FFF"/>
<path fill-rule="evenodd" clip-rule="evenodd" d="M80.5403 0C81.4781 0 83.0899 0.0586124 84.1303 0.131878C85.156 0.219796 86.8118 0.42494 87.8229 0.586124C88.834 0.761961 90.6509 1.14294 91.8525 1.45066C93.0687 1.75837 94.915 2.31519 95.9554 2.69617C97.0104 3.07715 98.842 3.85376 100.029 4.43989C102.124 5.4363 102.212 5.4656 102.373 5.18719C102.476 5.02601 102.813 4.39593 103.15 3.79515C103.678 2.82805 103.809 2.69617 104.161 2.69617C104.527 2.69617 104.674 2.87201 105.509 4.23474C106.037 5.08462 106.916 6.69646 107.473 7.82475C108.117 9.09957 108.484 10.0081 108.41 10.6088L106.066 10.5795C104.777 10.5502 102.901 10.477 101.89 10.4037C100.879 10.3158 99.941 10.2279 99.8091 10.1692C99.5747 10.1106 99.56 10.0374 99.7212 9.62708C99.8091 9.36332 100.263 8.51344 101.567 6.35944L100.234 5.6854C99.4867 5.30442 98.2559 4.7476 97.4939 4.41058C96.732 4.08821 95.5158 3.63397 94.7831 3.38486C94.0505 3.15041 92.7024 2.74013 91.7792 2.50568C90.8561 2.25658 89.5373 1.94886 88.8486 1.81698C88.1599 1.69976 86.7532 1.49461 85.6982 1.36274C84.5846 1.24551 82.5331 1.14294 80.7894 1.14294C78.9578 1.15759 77.0968 1.24551 76.0272 1.37739C75.0601 1.49461 73.712 1.69976 73.0233 1.83164C72.3346 1.94886 70.9279 2.27123 69.8729 2.54964C68.8325 2.81339 67.0448 3.38486 65.9165 3.79515C64.7882 4.20544 62.9419 4.9967 61.8137 5.53887C60.6854 6.09568 58.8684 7.1214 57.7841 7.82475C56.6997 8.5281 55.1465 9.61243 54.3406 10.2279C53.5493 10.8433 51.7616 12.4698 50.3843 13.8325C48.8603 15.3711 47.4097 16.9683 46.6331 18.0086C45.9444 18.9318 45.0505 20.2213 44.6402 20.866C44.23 21.5107 43.6438 22.4925 43.3068 23.064C42.9844 23.6354 42.4862 24.5879 42.1785 25.1887C41.8708 25.7894 41.314 27.0789 40.933 28.046C40.5374 29.0131 39.9952 30.5517 39.7021 31.4602C39.4091 32.354 39.1307 33.1306 39.0721 33.1599C38.9988 33.1892 38.779 33.1453 38.1636 32.8815L38.6764 31.1964C38.9548 30.2733 39.497 28.7494 39.8633 27.8262C40.2297 26.9031 40.9037 25.3791 41.3579 24.456C41.8268 23.5329 42.6181 22.0822 43.131 21.2323C43.6438 20.3824 44.6256 18.9464 45.3143 18.0233C46.003 17.1002 46.677 16.2063 46.7942 16.0451C46.9115 15.8693 47.2485 15.4737 47.5269 15.1513C47.8053 14.8436 48.831 13.7886 49.7981 12.8215C50.7799 11.8397 52.0547 10.6528 52.6555 10.1692C53.2563 9.67104 54.2234 8.93838 54.7802 8.5281C55.3516 8.11781 56.4946 7.3412 57.3445 6.79903C58.1943 6.27152 59.7769 5.37768 60.8612 4.83552C61.9455 4.2787 63.4695 3.59001 64.2314 3.28229C64.9934 2.97458 66.4147 2.47637 67.3818 2.154C68.3489 1.83164 69.2428 1.55323 69.36 1.52392C69.4772 1.50927 70.3418 1.31878 71.2649 1.11363C72.188 0.908491 73.6387 0.630083 74.4886 0.498205C75.3385 0.38098 76.6572 0.219796 77.4192 0.146531C78.1812 0.0732654 79.5879 0.0146531 80.5403 0ZM167.213 113.4C167.272 113.386 167.389 113.474 167.492 113.576C167.594 113.679 167.873 114.499 168.107 115.378C168.342 116.258 168.679 117.679 168.84 118.529C169.016 119.379 169.25 120.829 169.367 121.753C169.485 122.676 169.631 124.595 169.675 126.002C169.748 127.907 169.704 129.138 169.529 130.764C169.397 131.98 169.25 133.226 169.221 133.548C169.177 133.871 169.016 134.764 168.854 135.526C168.693 136.288 168.459 137.343 168.327 137.871C168.21 138.398 167.975 139.248 167.799 139.776C167.638 140.303 167.272 141.388 166.994 142.194C166.7 142.999 166.114 144.45 165.675 145.417C165.235 146.384 164.502 147.835 164.063 148.641C163.609 149.447 162.729 150.868 162.099 151.791C161.469 152.714 160.385 154.165 159.696 155.015C159.008 155.865 157.733 157.272 156.868 158.151C156.004 159.015 154.656 160.275 153.864 160.935C153.073 161.58 151.652 162.664 150.714 163.323C149.776 163.983 148.238 164.95 147.314 165.477C146.391 166.005 145.073 166.694 144.384 167.001C143.695 167.324 142.376 167.88 141.453 168.247C140.53 168.613 138.948 169.155 137.936 169.448C136.925 169.741 135.152 170.166 133.98 170.401C132.808 170.635 131.181 170.914 128.852 171.207V173.082C128.852 174.635 128.822 174.943 128.632 174.943C128.515 174.943 127.928 174.723 127.357 174.445C126.771 174.181 125.965 173.8 125.555 173.61C125.159 173.434 124.163 172.877 123.357 172.394C122.551 171.925 121.613 171.339 121.276 171.104C120.924 170.884 120.646 170.606 120.646 170.518C120.646 170.415 120.997 170.093 121.408 169.815C121.833 169.536 122.917 168.891 123.796 168.379C124.675 167.851 125.994 167.133 126.727 166.781C127.459 166.43 128.177 166.166 128.339 166.181C128.617 166.225 128.632 166.357 128.676 168.173C128.69 169.229 128.734 170.108 128.778 170.108C128.822 170.108 129.951 169.947 131.313 169.741C132.661 169.551 134.346 169.258 135.079 169.082C135.812 168.921 136.984 168.613 137.717 168.393C138.449 168.188 139.724 167.749 140.574 167.441C141.424 167.118 142.772 166.547 143.578 166.181C144.384 165.814 145.732 165.126 146.582 164.642C147.432 164.159 148.706 163.367 149.439 162.884C150.172 162.4 151.183 161.668 151.71 161.257C152.238 160.847 153.132 160.129 153.689 159.645C154.245 159.176 155.344 158.151 156.106 157.374C156.868 156.598 157.865 155.528 158.319 155.015C158.758 154.488 159.564 153.476 160.092 152.744C160.619 152.011 161.308 151.029 161.631 150.546C161.953 150.062 162.612 148.978 163.096 148.128C163.565 147.278 164.297 145.828 164.708 144.904C165.118 143.981 165.689 142.589 165.968 141.827C166.261 141.065 166.657 139.849 166.862 139.116C167.067 138.384 167.404 137.065 167.594 136.186C167.799 135.307 168.078 133.783 168.224 132.816C168.415 131.468 168.473 130.119 168.473 127.028C168.473 123.555 168.43 122.705 168.151 120.873C167.961 119.701 167.55 117.694 167.228 116.404C166.92 115.115 166.657 114.016 166.642 113.957C166.642 113.898 166.744 113.752 166.876 113.635C167.008 113.503 167.155 113.4 167.213 113.4Z" fill="#04FFE1"/>
<path d="M54.2533 105.923C54.8247 105.659 55.6746 105.337 56.1582 105.22C56.6417 105.103 57.6674 105 58.4294 105C59.2353 105 60.1878 105.088 60.7006 105.22C61.1842 105.337 62.1366 105.718 62.8253 106.055C63.7045 106.495 64.3786 106.964 65.1552 107.696C66.1223 108.619 66.2102 108.751 66.0637 109.059C65.9611 109.249 65.7706 109.381 65.5655 109.381C65.375 109.381 64.9793 109.118 64.5837 108.707C64.2174 108.341 63.4994 107.755 62.9719 107.418C62.4444 107.066 61.6824 106.67 61.2868 106.539C60.8765 106.421 60.0559 106.246 59.4551 106.158C58.8543 106.07 57.9605 106.04 57.477 106.099C56.9934 106.143 56.2021 106.319 55.7186 106.465C55.235 106.612 54.4291 106.993 53.9163 107.33C53.4181 107.652 52.7294 108.165 52.407 108.473C52.07 108.766 51.5425 109.381 51.2494 109.821C50.9563 110.26 50.5314 110.978 50.3116 111.403C50.1065 111.814 49.7694 112.737 49.5643 113.455C49.3591 114.158 49.154 115.316 49.0954 116.048C49.0368 116.942 49.0807 117.748 49.2419 118.539C49.3591 119.184 49.5643 119.975 49.6962 120.298C49.828 120.62 49.9599 120.855 50.0039 120.811C50.0478 120.767 49.9892 120.342 49.872 119.858C49.7401 119.316 49.7255 118.876 49.7987 118.73C49.872 118.583 50.0918 118.466 50.2969 118.466C50.5167 118.466 50.6926 118.569 50.7365 118.73C50.7658 118.862 50.971 119.888 51.1761 121.001C51.3813 122.1 51.5425 123.126 51.5425 123.272C51.5425 123.478 51.4545 123.507 50.927 123.448C50.4728 123.39 49.9892 123.141 49.198 122.554C48.5972 122.1 47.8499 121.441 47.5568 121.089C47.2491 120.737 47 120.356 47 120.269C47 120.166 47.1758 120.034 47.3956 119.99C47.718 119.917 47.8645 119.961 48.0697 120.239C48.2015 120.43 48.3627 120.562 48.4067 120.518C48.4507 120.474 48.3774 119.756 48.2309 118.906C48.055 117.807 48.0111 116.928 48.0697 115.829C48.1136 114.979 48.3041 113.792 48.4653 113.191C48.6411 112.59 49.0221 111.594 49.3152 110.993C49.6082 110.392 50.2237 109.44 50.6633 108.868C51.1175 108.297 51.8795 107.52 52.3484 107.125C52.8319 106.744 53.6818 106.202 54.2533 105.923Z" fill="#15006A"/>
<path d="M66.9868 115.36C67.2945 114.129 67.6462 112.971 67.7634 112.795C67.8806 112.605 68.0711 112.458 68.1884 112.458C68.3056 112.458 68.5547 112.708 68.7598 113.015C68.965 113.308 69.346 114.187 69.6244 114.949C69.8881 115.711 70.1519 116.62 70.2105 116.972C70.2544 117.323 70.2398 117.616 70.1519 117.66C70.0786 117.704 69.8881 117.704 69.7416 117.675C69.6097 117.631 69.4192 117.411 69.3166 117.191C69.2141 116.972 69.0969 116.517 69.0529 116.195C68.9943 115.873 68.9357 115.638 68.8917 115.682C68.8624 115.726 68.7745 116.488 68.6866 117.367C68.6133 118.246 68.3789 119.565 68.1737 120.298C67.9539 121.03 67.5583 122.042 67.2652 122.569C66.9868 123.097 66.4593 123.888 66.093 124.327C65.7413 124.767 65.0673 125.441 64.613 125.837C64.1588 126.218 63.2796 126.789 62.6788 127.112C62.0341 127.449 61.0963 127.786 60.4076 127.932C59.5577 128.108 58.825 128.152 57.77 128.093C56.8029 128.049 55.9823 127.903 55.3523 127.698C54.8247 127.507 54.224 127.243 53.9895 127.097C53.6818 126.877 53.6085 126.731 53.6525 126.423C53.6732 126.257 53.7011 126.114 53.7158 126.039C53.722 126.007 53.7258 125.988 53.7258 125.983C53.7404 125.954 54.4877 126.203 55.3816 126.525C56.7883 127.024 57.2132 127.112 58.2096 127.112C58.8543 127.112 59.8068 127.009 60.3343 126.877C60.8618 126.76 61.7117 126.423 62.2392 126.159C62.7667 125.881 63.5433 125.338 63.9829 124.958C64.4225 124.562 65.0526 123.888 65.3896 123.448C65.7266 123.009 66.1809 122.291 66.4007 121.88C66.6058 121.455 66.9428 120.532 67.148 119.829C67.3531 119.111 67.5143 118.393 67.5143 118.217C67.5143 117.968 67.4264 117.88 67.1773 117.88C67.0015 117.88 66.7524 117.821 66.6351 117.748C66.4446 117.631 66.4886 117.309 66.9868 115.36Z" fill="#15006A"/>
</svg>
