<svg width="100" height="100" viewBox="0 0 100 100" fill="none" xmlns="http://www.w3.org/2000/svg">
<path fill-rule="evenodd" clip-rule="evenodd" d="M78.3311 45.709C78.3311 44.9496 78.9467 44.334 79.7061 44.334H94C94.7594 44.334 95.375 44.9496 95.375 45.709V73.582C95.375 74.3414 94.7594 74.957 94 74.957H79.7061C78.9467 74.957 78.3311 74.3414 78.3311 73.582V45.709ZM79.7061 45.084C79.3609 45.084 79.0811 45.3638 79.0811 45.709V48.6013C79.2876 48.4772 79.5294 48.4059 79.7879 48.4059H93.9495C94.1951 48.4059 94.4255 48.4702 94.625 48.583V45.709C94.625 45.3638 94.3452 45.084 94 45.084H79.7061ZM94.625 69.6858C94.4255 69.7986 94.1951 69.8629 93.9495 69.8629H79.7879C79.5294 69.8629 79.2876 69.7916 79.0811 69.6676V73.582C79.0811 73.9271 79.3609 74.207 79.7061 74.207H94C94.3452 74.207 94.625 73.9271 94.625 73.582V69.6858ZM85.1201 46.9199C85.1201 46.7128 85.288 46.5449 85.4951 46.5449H88.2111C88.4182 46.5449 88.5861 46.7128 88.5861 46.9199C88.5861 47.127 88.4182 47.2949 88.2111 47.2949H85.4951C85.288 47.2949 85.1201 47.127 85.1201 46.9199ZM79.7879 49.1559C79.4428 49.1559 79.1629 49.4357 79.1629 49.7809V68.4879C79.1629 68.8331 79.4428 69.1129 79.7879 69.1129H93.9495C94.2947 69.1129 94.5745 68.8331 94.5745 68.4879V49.7809C94.5745 49.4357 94.2947 49.1559 93.9495 49.1559H79.7879ZM85.9856 70.9875C86.2157 70.7574 86.5278 70.6281 86.8532 70.6281C87.1786 70.6281 87.4907 70.7574 87.7208 70.9875C87.9509 71.2176 88.0802 71.5297 88.0802 71.8551C88.0802 72.1805 87.9509 72.4926 87.7208 72.7227C87.4907 72.9528 87.1786 73.0821 86.8532 73.0821C86.5278 73.0821 86.2157 72.9528 85.9856 72.7227C85.7554 72.4926 85.6262 72.1805 85.6262 71.8551C85.6262 71.5297 85.7554 71.2176 85.9856 70.9875ZM86.8532 71.3781C86.7267 71.3781 86.6053 71.4283 86.5159 71.5178C86.4264 71.6073 86.3762 71.7286 86.3762 71.8551C86.3762 71.9816 86.4264 72.1029 86.5159 72.1924C86.6053 72.2818 86.7267 72.3321 86.8532 72.3321C86.9797 72.3321 87.101 72.2818 87.1905 72.1924C87.2799 72.1029 87.3302 71.9816 87.3302 71.8551C87.3302 71.7286 87.2799 71.6073 87.1905 71.5178C87.101 71.4284 86.9797 71.3781 86.8532 71.3781Z" fill="white"/>
<path fill-rule="evenodd" clip-rule="evenodd" d="M44.4009 45.123H9.8202C8.98728 45.1233 8.18843 45.4544 7.59947 46.0433C7.01051 46.6323 6.6795 47.4311 6.6792 48.264V70.6522H6.15298C5.87757 70.6522 5.60728 70.7267 5.3707 70.8677C5.13413 71.0087 4.94006 71.211 4.80902 71.4532C4.67799 71.6955 4.61486 71.9686 4.62632 72.2438C4.63778 72.5188 4.72328 72.7855 4.87379 73.0159C5.16215 73.4597 5.7017 73.7752 6.28913 74.0089C6.89103 74.2483 7.6103 74.4275 8.33587 74.5605C9.78728 74.8266 11.3189 74.9179 12.1135 74.916H42.0995C42.8945 74.9182 44.4265 74.8272 45.8782 74.5611C46.6039 74.4281 47.3234 74.2489 47.9255 74.0094C48.5128 73.7757 49.0523 73.4602 49.3408 73.0165C49.4915 72.7859 49.5772 72.519 49.5886 72.2438C49.6001 71.9686 49.537 71.6955 49.4059 71.4532C49.2749 71.211 49.0808 71.0087 48.8442 70.8677C48.6077 70.7267 48.3374 70.6522 48.062 70.6522H47.5372V48.2639C47.5369 47.4318 47.2065 46.6338 46.6185 46.0449C46.0305 45.4561 45.233 45.1246 44.4009 45.123ZM46.9503 71.4022L47.1586 71.4042C47.1728 71.4044 47.187 71.4037 47.201 71.4022H48.062C48.2022 71.4022 48.3398 71.4401 48.4603 71.5119C48.5807 71.5837 48.6795 71.6867 48.7463 71.8101C48.813 71.9334 48.8451 72.0725 48.8393 72.2126C48.8334 72.3527 48.7898 72.4886 48.7131 72.606L48.7124 72.6071C48.5555 72.8488 48.2006 73.0928 47.6482 73.3125C47.1101 73.5266 46.444 73.6949 45.743 73.8234C44.3415 74.0802 42.8556 74.1681 42.101 74.166L42.1 74.166L12.113 74.166L12.1121 74.166C11.3578 74.1678 9.87226 74.0797 8.47113 73.8228C7.77031 73.6943 7.10435 73.526 6.56635 73.312C6.01412 73.0923 5.6593 72.8485 5.50252 72.607L5.50185 72.606C5.4251 72.4886 5.38151 72.3527 5.37567 72.2126C5.36984 72.0725 5.40198 71.9334 5.4687 71.8101C5.53541 71.6867 5.63423 71.5837 5.75468 71.5119C5.87514 71.4401 6.01277 71.4022 6.15299 71.4022H7.01524C7.02935 71.4037 7.04372 71.4044 7.05805 71.4042L7.25263 71.4022H46.9503ZM44.0694 70.6522V48.403C44.0694 48.3348 44.0423 48.2694 43.9941 48.2211C43.9459 48.1729 43.8805 48.1458 43.8124 48.1458H10.228C10.1599 48.1458 10.0945 48.1729 10.0463 48.2211C9.99807 48.2694 9.97097 48.3348 9.97097 48.403V70.6522H44.0694ZM8.1298 46.5736C8.57814 46.1253 9.18615 45.8733 9.8202 45.873H44.3998C45.0332 45.8743 45.6402 46.1267 46.0878 46.5749C46.5354 47.0231 46.7869 47.6307 46.7872 48.2642V70.6506L44.8194 70.6317V48.403C44.8194 48.1359 44.7133 47.8797 44.5245 47.6908C44.3356 47.502 44.0795 47.3958 43.8124 47.3958H10.228C9.96092 47.3958 9.70477 47.502 9.51592 47.6908C9.32706 47.8797 9.22097 48.1359 9.22097 48.403V70.632L7.4292 70.6504V48.264C7.42945 47.63 7.68144 47.022 8.1298 46.5736Z" fill="white"/>
<path fill-rule="evenodd" clip-rule="evenodd" d="M72.9203 71.4037C72.2535 70.9235 71.4526 70.6651 70.6308 70.665H54.7789C53.9572 70.6651 53.1562 70.9235 52.4894 71.4037C51.8226 71.884 51.3237 72.5617 51.0632 73.3411C51.0016 73.5256 50.9847 73.7221 51.0139 73.9143C51.0432 74.1066 51.1177 74.2892 51.2313 74.447C51.345 74.6048 51.4945 74.7334 51.6676 74.822C51.8407 74.9107 52.0324 74.957 52.2269 74.957H73.1829C73.3774 74.957 73.5691 74.9107 73.7421 74.822C73.9153 74.7334 74.0648 74.6048 74.1784 74.447C74.2921 74.2892 74.3666 74.1066 74.3958 73.9143C74.425 73.7221 74.4081 73.5256 74.3465 73.3411C74.086 72.5617 73.5871 71.884 72.9203 71.4037ZM73.1828 74.207C73.2584 74.207 73.3329 74.189 73.4002 74.1545C73.4675 74.1201 73.5256 74.0701 73.5698 74.0087C73.614 73.9474 73.643 73.8764 73.6543 73.8016C73.6657 73.7269 73.6591 73.6505 73.6352 73.5788C73.4246 72.9487 73.0212 72.4006 72.482 72.0123C71.9429 71.624 71.2953 71.415 70.6308 71.415H67.0898H54.7789C54.1145 71.415 53.4669 71.624 52.9277 72.0123C52.3886 72.4006 51.9852 72.9487 51.7746 73.5788C51.7506 73.6505 51.7441 73.7269 51.7554 73.8016C51.7668 73.8764 51.7957 73.9474 51.8399 74.0087C51.8841 74.0701 51.9422 74.1201 52.0095 74.1545C52.0768 74.189 52.1514 74.207 52.227 74.207H73.1828Z" fill="white"/>
<path fill-rule="evenodd" clip-rule="evenodd" d="M57.861 65.728C57.861 65.5209 58.0289 65.353 58.236 65.353H67.09C67.2971 65.353 67.465 65.5209 67.465 65.728V71.04C67.465 71.2471 67.297 71.415 67.0898 71.415L58.236 71.415C58.0289 71.415 57.861 71.2471 57.861 71.04V65.728ZM58.611 66.103V70.665H66.715V66.103H58.611Z" fill="white"/>
<path fill-rule="evenodd" clip-rule="evenodd" d="M46.8472 65.728C46.8472 65.5209 47.0151 65.353 47.2222 65.353H78.7878C78.9949 65.353 79.1628 65.5209 79.1628 65.728C79.1628 65.9351 78.9949 66.103 78.7878 66.103H47.2222C47.0151 66.103 46.8472 65.9351 46.8472 65.728Z" fill="white"/>
<path fill-rule="evenodd" clip-rule="evenodd" d="M62.6629 61.715C62.5686 61.715 62.4763 61.743 62.3979 61.7954C62.3194 61.8478 62.2583 61.9224 62.2222 62.0096C62.1861 62.0968 62.1767 62.1927 62.1951 62.2852C62.2136 62.3778 62.2591 62.4628 62.3258 62.5295C62.3926 62.5961 62.4776 62.6415 62.5702 62.6599C62.6628 62.6782 62.7587 62.6687 62.8458 62.6325C62.933 62.5963 63.0075 62.5351 63.0598 62.4566C63.1121 62.378 63.14 62.2858 63.1399 62.1914C63.1398 62.065 63.0894 61.9438 63 61.8545C62.9106 61.7651 62.7893 61.715 62.6629 61.715ZM61.9811 61.1719C62.1829 61.037 62.4202 60.965 62.6629 60.965C62.9881 60.965 63.3 61.094 63.53 61.3238C63.7601 61.5536 63.8895 61.8654 63.8899 62.1905C63.8902 62.4333 63.8185 62.6706 63.6838 62.8726C63.5492 63.0746 63.3577 63.2321 63.1335 63.3252C62.9093 63.4182 62.6625 63.4427 62.4244 63.3956C62.1863 63.3484 61.9676 63.2316 61.7958 63.0601C61.6241 62.8886 61.5071 62.6699 61.4596 62.4319C61.4121 62.1938 61.4364 61.947 61.5292 61.7227C61.622 61.4985 61.7793 61.3067 61.9811 61.1719Z" fill="white"/>
<path fill-rule="evenodd" clip-rule="evenodd" d="M46.8472 58.645C46.8472 58.4379 47.0151 58.27 47.2222 58.27H78.7878C78.9949 58.27 79.1628 58.4379 79.1628 58.645C79.1628 58.8521 78.9949 59.02 78.7878 59.02H47.2222C47.0151 59.02 46.8472 58.8521 46.8472 58.645Z" fill="white"/>
<path d="M39.6432 24.625C38.3698 24.6253 37.1485 25.1313 36.2481 26.0318C35.3476 26.9322 34.8416 28.1535 34.8413 29.427V45.4981C34.8413 45.7052 35.0092 45.8731 35.2163 45.8731C35.4234 45.8731 35.5913 45.7052 35.5913 45.4981V29.427C35.5916 28.3524 36.0186 27.3219 36.7784 26.5621C37.5382 25.8023 38.5687 25.3753 39.6433 25.375H85.6833C86.7578 25.3753 87.7883 25.8023 88.5482 26.5621C89.308 27.3219 89.735 28.3525 89.7353 29.4271V44.7405C89.7353 44.9476 89.9032 45.1155 90.1103 45.1155C90.3174 45.1155 90.4853 44.9476 90.4853 44.7405V29.4269C90.485 28.1535 89.979 26.9322 89.0785 26.0318C88.178 25.1313 86.9567 24.6253 85.6833 24.625H39.6432Z" fill="white"/>
<path fill-rule="evenodd" clip-rule="evenodd" d="M86.1514 53.5974C86.8584 53.5065 87.5764 53.5562 88.2642 53.7437C88.4721 53.8004 88.6759 53.8693 88.8748 53.9499C89.2183 54.0883 89.5483 54.2622 89.8592 54.4699C90.749 55.0645 91.4426 55.9096 91.8521 56.8983C92.2617 57.887 92.3688 58.975 92.16 60.0246C91.9513 61.0743 91.4359 62.0384 90.6792 62.7952C89.9224 63.5519 88.9583 64.0673 87.9087 64.276C86.859 64.4848 85.771 64.3777 84.7823 63.9681C84.3627 63.7943 83.9689 63.5693 83.6092 63.2999C83.5944 63.2915 83.58 63.2821 83.5661 63.2715C82.9986 62.8401 82.5221 62.3007 82.1637 61.6845C81.8053 61.0683 81.5722 60.3873 81.4778 59.6808C81.3834 58.9742 81.4296 58.2559 81.6136 57.5672C81.7977 56.8786 82.116 56.233 82.5502 55.6677C82.9845 55.1024 83.5262 54.6285 84.1442 54.2732C84.7622 53.9179 85.4443 53.6882 86.1514 53.5974ZM84.3313 62.8889C84.5642 63.0388 84.8111 63.1682 85.0693 63.2752C85.921 63.628 86.8582 63.7203 87.7623 63.5405C88.6665 63.3606 89.497 62.9167 90.1488 62.2648C90.8007 61.613 91.2446 60.7825 91.4245 59.8783C91.6043 58.9742 91.512 58.037 91.1592 57.1853C90.8928 56.5422 90.487 55.9697 89.9742 55.5073L89.003 56.6311C89.1676 56.7821 89.3166 56.9508 89.447 57.1349C89.8104 57.6476 90.0134 58.2565 90.0304 58.8847C90.0474 59.5128 89.8777 60.1319 89.5427 60.6635C89.2077 61.1951 88.7224 61.6153 88.1484 61.871C87.5744 62.1267 86.9375 62.2063 86.3182 62.0997C85.937 62.0341 85.573 61.8998 85.2432 61.7052L84.3313 62.8889ZM88.3917 56.1915L89.3758 55.0527C89.1285 54.8924 88.8667 54.756 88.5938 54.6453C88.0432 54.4236 87.4525 54.308 86.853 54.308C85.6168 54.308 84.4313 54.7991 83.5572 55.6732C82.6831 56.5473 82.192 57.7328 82.192 58.969C82.192 59.8909 82.4654 60.792 82.9775 61.5585C83.1939 61.8823 83.4488 62.1759 83.7352 62.4337L84.6468 61.2505C84.2035 60.8208 83.8949 60.2711 83.7592 59.6684C83.5745 58.8486 83.7224 57.9889 84.1705 57.2779C84.6185 56.5669 85.3302 56.0626 86.1495 55.8754C86.7621 55.7355 87.4024 55.7805 87.9894 56.0047C88.1283 56.0577 88.2626 56.1202 88.3917 56.1915ZM85.3565 60.8761C85.6726 61.1249 86.0466 61.292 86.4454 61.3606C86.9184 61.442 87.4049 61.3812 87.8433 61.1859C88.2817 60.9906 88.6523 60.6696 88.9082 60.2636C89.164 59.8576 89.2937 59.3847 89.2807 58.905C89.2677 58.4252 89.1126 57.9601 88.8351 57.5686C88.6896 57.3632 88.5139 57.183 88.315 57.0333C88.2945 57.0247 88.2746 57.0143 88.2554 57.0019C87.7356 56.6657 87.1068 56.541 86.498 56.6535C85.8892 56.766 85.3464 57.107 84.981 57.6068C84.6156 58.1065 84.4551 58.7271 84.5325 59.3414C84.6077 59.938 84.9018 60.4847 85.3565 60.8761Z" fill="#5EFF9E"/>
<path fill-rule="evenodd" clip-rule="evenodd" d="M25.5792 52.1965C26.5222 51.9411 27.5063 51.8743 28.4752 51.9998C29.4441 52.1254 30.3787 52.441 31.2254 52.9284C32.0721 53.4158 32.8143 54.0655 33.4095 54.8403C34.0047 55.615 34.4411 56.4996 34.6939 57.4434C34.9466 58.3871 35.0106 59.3714 34.8822 60.3399C34.7538 61.3084 34.4356 62.2421 33.9458 63.0874C33.7714 63.3884 33.5764 63.6761 33.3626 63.9485C32.5763 64.9523 31.5425 65.7394 30.3586 66.2298C29.0017 66.7918 27.5086 66.9389 26.0681 66.6523C24.6276 66.3658 23.3044 65.6586 22.2658 64.62C21.2273 63.5815 20.52 62.2583 20.2335 60.8178C19.947 59.3773 20.094 57.8842 20.6561 56.5272C21.1491 55.3369 21.9421 54.2983 22.9538 53.5104C22.9621 53.5027 22.9707 53.4953 22.9798 53.4883C23.7528 52.8909 24.6362 52.4519 25.5792 52.1965ZM23.164 54.3072C22.3738 54.9867 21.7507 55.8445 21.349 56.8142C20.8437 58.0341 20.7115 59.3764 20.9691 60.6715C21.2267 61.9665 21.8625 63.156 22.7962 64.0897C23.7298 65.0233 24.9194 65.6592 26.2144 65.9168C27.5094 66.1744 28.8517 66.0421 30.0716 65.5369C30.4934 65.3621 30.894 65.1455 31.268 64.8915L29.8092 62.9962C29.3333 63.2969 28.8005 63.5025 28.2402 63.5983C27.4037 63.7413 26.5435 63.6331 25.7684 63.2872C24.9934 62.9414 24.3384 62.3735 23.8861 61.6553C23.4338 60.9371 23.2047 60.101 23.2277 59.2526C23.2506 58.4042 23.5246 57.5817 24.0151 56.8891C24.2189 56.6012 24.4563 56.3411 24.721 56.1137L23.164 54.3072ZM30.4068 62.5429L31.863 64.435C32.1969 64.149 32.5015 63.831 32.7723 63.4859C32.8756 63.354 32.9742 63.218 33.0677 63.078C33.8013 61.9802 34.1928 60.6894 34.1928 59.369C34.1928 57.5985 33.4895 55.9004 32.2375 54.6484C30.9855 53.3964 29.2874 52.693 27.5168 52.693C26.1964 52.693 24.9057 53.0846 23.8078 53.8182C23.7919 53.8288 23.7761 53.8395 23.7603 53.8502L25.3323 55.6742C26.1957 55.16 27.216 54.9633 28.2151 55.1253C29.3273 55.3058 30.324 55.9165 30.9898 56.8256C31.6556 57.7347 31.937 58.8692 31.7734 59.9841C31.6282 60.9736 31.1426 61.8772 30.4068 62.5429ZM28.3017 55.9157C27.6188 55.7605 26.9051 55.8113 26.2511 56.0617C25.597 56.3121 25.0319 56.7509 24.6272 57.3225C24.2225 57.894 23.9963 58.5728 23.9774 59.2729C23.9584 59.973 24.1475 60.663 24.5207 61.2556C24.8939 61.8483 25.4345 62.3169 26.0741 62.6023C26.7136 62.8877 27.4235 62.9771 28.1138 62.859C28.8042 62.741 29.444 62.4209 29.9524 61.9392C30.4608 61.4576 30.815 60.8359 30.9701 60.153C31.1781 59.2372 31.0138 58.2764 30.5134 57.4817C30.013 56.6871 29.2174 56.1238 28.3017 55.9157Z" fill="#5EFF9E"/>
<path fill-rule="evenodd" clip-rule="evenodd" d="M70.0808 40.1141C69.971 40.1141 69.8667 40.1622 69.7955 40.2457L69.7105 40.5483C69.8639 41.5076 69.8325 42.4874 69.6181 43.4349C69.5653 43.6671 69.4996 43.8942 69.4265 44.123C69.3902 44.2371 69.4104 44.3616 69.481 44.4583C69.5516 44.5549 69.6641 44.6121 69.7838 44.6121H74.3928C74.5711 44.6121 74.7247 44.4865 74.7603 44.3118C74.9325 43.4644 75.0192 42.6016 75.0188 41.7369C75.0188 41.3023 74.995 40.8741 74.954 40.4527C74.9353 40.2606 74.7738 40.1141 74.5808 40.1141H70.0808ZM70.5089 40.8641C70.6064 41.7779 70.5528 42.7025 70.3495 43.6008C70.3295 43.689 70.3078 43.7763 70.285 43.8621H74.0824C74.2067 43.1608 74.2691 42.4498 74.2688 41.7372C74.2688 41.4444 74.2573 41.1533 74.2363 40.8641H70.5089Z" fill="#5EFF9E"/>
<path fill-rule="evenodd" clip-rule="evenodd" d="M69.0159 46.0448C68.9374 45.9663 68.828 45.9267 68.7174 45.9365C68.6068 45.9464 68.5062 46.0049 68.4428 46.0961C67.7534 47.0883 66.8388 47.903 65.7737 48.4735C65.6691 48.5295 65.5972 48.6318 65.5798 48.7492C65.5625 48.8666 65.6017 48.9852 65.6856 49.0692L68.9296 52.3142C69.0573 52.4419 69.258 52.4605 69.4069 52.3583C70.4736 51.6264 71.4243 50.7383 72.2269 49.7237C72.345 49.5744 72.3325 49.3604 72.1979 49.2258L69.0159 46.0448ZM68.7943 46.8838C68.1762 47.6795 67.42 48.3574 66.5621 48.8851L69.2368 51.5606C70.0488 50.9724 70.7849 50.2859 71.4283 49.517L68.7943 46.8838Z" fill="#5EFF9E"/>
<path fill-rule="evenodd" clip-rule="evenodd" d="M64.4057 49.5361C64.4057 49.4209 64.3529 49.3122 64.2624 49.2411C64.1718 49.17 64.0537 49.1445 63.9419 49.1717C62.802 49.4498 61.6131 49.46 60.4687 49.2015C60.4632 49.2 60.4559 49.1979 60.4415 49.1935L60.4394 49.1929C60.4249 49.1885 60.4016 49.1815 60.3767 49.1752C60.2647 49.1472 60.146 49.1724 60.055 49.2435C59.9639 49.3145 59.9107 49.4236 59.9107 49.539V54.068C59.9107 54.2514 60.0433 54.4078 60.2241 54.4379C61.5047 54.6514 62.8118 54.6514 64.0924 54.4379C64.2732 54.4078 64.4057 54.2514 64.4057 54.068V49.5361ZM60.6607 50.0056V53.7458C61.6544 53.8821 62.6621 53.8821 63.6557 53.7458V49.9997C62.6662 50.1822 61.6515 50.1843 60.6607 50.0056Z" fill="#5EFF9E"/>
<path d="M69.7955 40.2457C69.7242 40.3293 69.6932 40.4398 69.7105 40.5483L69.7955 40.2457Z" fill="#5EFF9E"/>
<path fill-rule="evenodd" clip-rule="evenodd" d="M62.3389 28.8927C60.6213 28.8681 58.9163 29.1884 57.3246 29.8344C55.7329 30.4803 54.287 31.439 53.0723 32.6536C51.8577 33.8682 50.8989 35.3141 50.2528 36.9057C49.6068 38.4973 49.2864 40.2024 49.3109 41.92C49.3353 43.6376 49.7039 45.3328 50.395 46.9054C51.0861 48.478 52.0855 49.8961 53.3343 51.0757C53.4818 51.215 53.7134 51.2117 53.8569 51.0682L57.0089 47.9162C57.0814 47.8438 57.121 47.7448 57.1187 47.6424C57.1163 47.54 57.0721 47.443 56.9964 47.3739C56.2128 46.6595 55.5868 45.7894 55.1585 44.8193C54.7301 43.8492 54.5089 42.8001 54.5088 41.7397C54.5083 41.3404 54.5392 40.9435 54.6003 40.5524C54.7751 39.4338 55.1971 38.3628 55.8416 37.4199C56.5346 36.4062 57.4588 35.5783 58.5324 35.0012C58.8065 34.8539 59.0904 34.723 59.3826 34.6094C60.8194 34.0512 62.3914 33.9406 63.8922 34.2921C65.393 34.6436 66.7524 35.4408 67.7919 36.5789C67.8609 36.6546 67.9579 36.6986 68.0602 36.701C68.1626 36.7033 68.2615 36.6637 68.3339 36.5913L71.4869 33.4393C71.6304 33.2958 71.6337 33.0641 71.4944 32.9166C70.3149 31.6678 68.8969 30.6683 67.3243 29.9771C65.7517 29.2859 64.0565 28.9172 62.3389 28.8927ZM62.3282 29.6426C60.7109 29.6195 59.1054 29.921 57.6067 30.5293C56.1079 31.1376 54.7464 32.0403 53.6026 33.1839C52.4589 34.3276 51.5561 35.6891 50.9478 37.1878C50.3394 38.6865 50.0378 40.292 50.0608 41.9093C50.0838 43.5266 50.4309 45.1229 51.0816 46.6037C51.6835 47.9732 52.5337 49.2182 53.5882 50.2763L56.2074 47.6571C55.4785 46.9271 54.89 46.068 54.4724 45.1223C54.002 44.0569 53.7589 42.9051 53.7588 41.7404C53.643 39.4544 55.1103 35.9043 58.7498 34.2501C58.8953 34.1839 59.0443 34.1218 59.1964 34.0638C61.9191 33.0269 65.6353 33.333 68.0602 36.0001L70.695 33.1704C69.637 32.1159 68.392 31.2656 67.0225 30.6637C65.5418 30.0129 63.9455 29.6657 62.3282 29.6426Z" fill="#5EFF9E"/>
</svg>
