<svg width="100" height="100" viewBox="0 0 100 100" fill="none" xmlns="http://www.w3.org/2000/svg">
<path d="M23.5706 39.3689C23.8411 39.369 24.105 39.4526 24.3264 39.6082C24.5201 39.7442 24.673 39.9296 24.7698 40.1443L24.8079 40.238L24.8088 40.24L31.0793 57.7908C31.1474 57.9818 31.1188 58.1942 31.0022 58.3601C30.8856 58.5261 30.6953 58.6251 30.4924 58.6257C29.7034 58.6278 28.9261 58.4332 28.2307 58.0603C27.7817 57.8195 27.3768 57.5084 27.0286 57.1414C26.6803 57.507 26.2764 57.818 25.8284 58.0583C25.2206 58.3843 24.5506 58.5746 23.8645 58.6169L23.5706 58.6257C22.7825 58.6257 22.0063 58.4308 21.3118 58.0583C20.8635 57.8179 20.4589 57.5072 20.1106 57.1414C19.7625 57.5082 19.3582 57.8196 18.9094 58.0603C18.3011 58.3866 17.6303 58.576 16.9436 58.6169L16.6477 58.6257C16.4449 58.6251 16.2546 58.5261 16.1379 58.3601C16.0214 58.1942 15.9927 57.9818 16.0608 57.7908L22.3313 40.24L22.3323 40.238L22.3704 40.1443C22.4671 39.9296 22.62 39.7442 22.8137 39.6082C23.0353 39.4525 23.2998 39.3689 23.5706 39.3689ZM23.5325 40.6306C23.5214 40.6384 23.5127 40.6501 23.5081 40.6628L17.5813 57.2507C17.8363 57.1813 18.0839 57.0846 18.3186 56.9587C18.8312 56.6838 19.2676 56.286 19.5881 55.8005L19.635 55.738C19.7526 55.6007 19.9253 55.5206 20.1086 55.5203C20.3183 55.52 20.5142 55.6249 20.6301 55.7996C20.952 56.2844 21.3897 56.6817 21.9026 56.9568C22.4154 57.2318 22.9887 57.3757 23.5706 57.3757L23.7874 57.3689C24.294 57.3376 24.7887 57.1975 25.2376 56.9568C25.7504 56.6817 26.1881 56.2844 26.51 55.7996L26.5569 55.7371C26.6749 55.6 26.8481 55.52 27.0315 55.5203C27.241 55.5207 27.4366 55.6257 27.552 55.8005C27.8726 56.286 28.3089 56.6838 28.8215 56.9587C29.0559 57.0844 29.3032 57.1814 29.5579 57.2507L23.6321 40.6628L23.6077 40.6306C23.5968 40.6231 23.5838 40.619 23.5706 40.6189C23.5571 40.6189 23.5435 40.623 23.5325 40.6306Z" fill="#0BFF7B"/>
<path d="M26.4053 78.7472V56.1446C26.4053 55.7994 26.6851 55.5196 27.0303 55.5196C27.3755 55.5196 27.6553 55.7994 27.6553 56.1446V78.7472C27.6553 79.0923 27.3755 79.3722 27.0303 79.3722C26.6851 79.3722 26.4053 79.0923 26.4053 78.7472Z" fill="#0BFF7B"/>
<path d="M19.4849 78.7472V56.1446C19.4849 55.7994 19.7647 55.5196 20.1099 55.5196C20.455 55.5196 20.7349 55.7994 20.7349 56.1446V78.7472C20.7349 79.0923 20.455 79.3722 20.1099 79.3722C19.7647 79.3722 19.4849 79.0923 19.4849 78.7472Z" fill="#0BFF7B"/>
<path d="M27.0315 55.5203C27.241 55.5207 27.4366 55.6257 27.552 55.8005C27.8726 56.286 28.3089 56.6838 28.8215 56.9587C29.3341 57.2336 29.907 57.3766 30.4885 57.3751C30.6546 57.3747 30.8143 57.4405 30.9319 57.5577C31.0494 57.6749 31.1154 57.8342 31.1155 58.0001V78.7472C31.1155 79.0923 30.8357 79.3722 30.4905 79.3722H16.6497C16.3045 79.3722 16.0247 79.0923 16.0247 78.7472V58.0001L16.0364 57.878C16.0604 57.7575 16.12 57.6458 16.2083 57.5577C16.3258 57.4405 16.4856 57.3747 16.6516 57.3751L16.8694 57.3692C17.3756 57.3391 17.8702 57.1992 18.3186 56.9587C18.8312 56.6838 19.2676 56.286 19.5881 55.8005L19.635 55.738C19.7526 55.6007 19.9253 55.5206 20.1086 55.5203C20.3183 55.52 20.5142 55.6249 20.6301 55.7996C20.952 56.2844 21.3897 56.6817 21.9026 56.9568C22.4154 57.2318 22.9887 57.3757 23.5706 57.3757L23.7874 57.3689C24.294 57.3376 24.7887 57.1975 25.2376 56.9568C25.7504 56.6817 26.1881 56.2844 26.51 55.7996L26.5569 55.7371C26.6749 55.6 26.8481 55.52 27.0315 55.5203ZM27.0286 57.1414C26.6803 57.507 26.2764 57.818 25.8284 58.0583C25.2206 58.3843 24.5506 58.5746 23.8645 58.6169L23.5706 58.6257C22.7825 58.6257 22.0063 58.4308 21.3118 58.0583C20.8635 57.8179 20.4589 57.5072 20.1106 57.1414C19.7625 57.5082 19.3582 57.8196 18.9094 58.0603C18.3994 58.3338 17.8451 58.5098 17.2747 58.5841V78.1222H29.8655V58.5841C29.295 58.5098 28.7407 58.3338 28.2307 58.0603C27.7817 57.8195 27.3768 57.5084 27.0286 57.1414Z" fill="#0BFF7B"/>
<path d="M23.5706 39.3689C23.8411 39.369 24.105 39.4526 24.3264 39.6082C24.5201 39.7442 24.673 39.9296 24.7698 40.1443L24.8079 40.238L24.8088 40.24L27.6187 48.1013C27.687 48.2925 27.6584 48.5055 27.5415 48.6716C27.4245 48.8376 27.2339 48.937 27.0308 48.9372H20.1099C19.9066 48.9372 19.7162 48.8378 19.5991 48.6716C19.4821 48.5054 19.4526 48.2926 19.521 48.1013L22.3313 40.24L22.3323 40.238L22.3704 40.1443C22.4671 39.9296 22.62 39.7442 22.8137 39.6082C23.0353 39.4525 23.2998 39.3689 23.5706 39.3689ZM23.5325 40.6306C23.5214 40.6384 23.5127 40.6501 23.5081 40.6628L23.5073 40.6618L20.9976 47.6872H26.1431L23.6321 40.6628L23.6077 40.6306C23.5968 40.6231 23.5838 40.619 23.5706 40.6189C23.5571 40.6189 23.5435 40.623 23.5325 40.6306Z" fill="#0BFF7B"/>
<path d="M52.7109 21.375L52.8369 21.3877C53.1219 21.4458 53.3359 21.6978 53.3359 22C53.3359 22.3022 53.1219 22.5542 52.8369 22.6123L52.7109 22.625H12.9482L12.6826 22.6387C12.1535 22.6925 11.6515 22.9011 11.2402 23.2383L11.043 23.418C10.5374 23.9235 10.2522 24.6083 10.25 25.3232V32.835H52.625L52.751 32.8477C53.0357 32.9059 53.2499 33.158 53.25 33.46C53.25 33.762 53.0357 34.014 52.751 34.0723L52.625 34.085H10.25V75.4238L10.2637 75.6904C10.3266 76.3075 10.6006 76.8877 11.043 77.3301L11.2402 77.5088C11.7198 77.9021 12.3226 78.1201 12.9482 78.1221H52.916L53.042 78.1348C53.3265 78.1931 53.5408 78.4453 53.541 78.7471C53.541 79.049 53.3266 79.3009 53.042 79.3594L52.916 79.3721H12.9453C11.9655 79.3691 11.0236 79.0033 10.3008 78.3486L10.1592 78.2139C9.46626 77.5209 9.05693 76.5971 9.00586 75.623L9 75.4277V25.3203L9.00586 25.124C9.05703 24.1502 9.46635 23.227 10.1592 22.5342L10.3008 22.3994C11.0237 21.7446 11.9653 21.3779 12.9453 21.375H52.7109ZM16.6406 27.7295C16.6405 27.3889 16.5045 27.0622 16.2637 26.8213C16.0227 26.5804 15.6961 26.4454 15.3555 26.4453C15.0147 26.4453 14.6873 26.5803 14.4463 26.8213C14.2055 27.0621 14.0704 27.3889 14.0703 27.7295L14.0762 27.8574C14.1054 28.1514 14.2356 28.4279 14.4463 28.6387C14.6873 28.8797 15.0147 29.0146 15.3555 29.0146C15.6961 29.0146 16.0227 28.8795 16.2637 28.6387C16.5047 28.3977 16.6406 28.0703 16.6406 27.7295ZM24.2812 27.7295C24.2811 27.3889 24.1452 27.0622 23.9043 26.8213C23.6634 26.5804 23.3368 26.4454 22.9961 26.4453C22.6553 26.4453 22.3279 26.5803 22.0869 26.8213C21.8461 27.0622 21.7111 27.3889 21.7109 27.7295L21.7168 27.8574C21.7461 28.1514 21.8762 28.4279 22.0869 28.6387C22.3279 28.8797 22.6553 29.0146 22.9961 29.0146C23.3368 29.0146 23.6634 28.8795 23.9043 28.6387C24.1453 28.3977 24.2812 28.0703 24.2812 27.7295ZM31.9199 27.7295C31.9198 27.3889 31.7848 27.0622 31.5439 26.8213C31.303 26.5804 30.9764 26.4454 30.6357 26.4453C30.2949 26.4453 29.9676 26.5803 29.7266 26.8213C29.4857 27.0622 29.3507 27.3889 29.3506 27.7295L29.3564 27.8574C29.3857 28.1514 29.5158 28.4279 29.7266 28.6387C29.9676 28.8797 30.2949 29.0146 30.6357 29.0146C30.9764 29.0146 31.303 28.8795 31.5439 28.6387C31.7849 28.3977 31.9199 28.0703 31.9199 27.7295ZM17.8906 27.7295C17.8906 28.4018 17.6229 29.047 17.1475 29.5225C16.6721 29.9977 16.0277 30.2646 15.3555 30.2646C14.6831 30.2646 14.0379 29.9979 13.5625 29.5225C13.1466 29.1065 12.8906 28.5607 12.833 27.9805L12.8203 27.7295C12.8204 27.0574 13.0873 26.4128 13.5625 25.9375C14.0379 25.4621 14.6831 25.1953 15.3555 25.1953C16.0277 25.1954 16.6721 25.4622 17.1475 25.9375C17.6228 26.4128 17.8905 27.0573 17.8906 27.7295ZM25.5312 27.7295C25.5312 28.4018 25.2635 29.047 24.7881 29.5225C24.3127 29.9977 23.6683 30.2646 22.9961 30.2646C22.3238 30.2646 21.6785 29.9979 21.2031 29.5225C20.7872 29.1065 20.5312 28.5607 20.4736 27.9805L20.4609 27.7295C20.4611 27.0574 20.7279 26.4128 21.2031 25.9375C21.6785 25.4621 22.3238 25.1953 22.9961 25.1953C23.6683 25.1954 24.3127 25.4622 24.7881 25.9375C25.2634 26.4128 25.5311 27.0573 25.5312 27.7295ZM33.1699 27.7295C33.1699 28.4018 32.9031 29.047 32.4277 29.5225C31.9524 29.9977 31.3079 30.2646 30.6357 30.2646C29.9634 30.2646 29.3182 29.9979 28.8428 29.5225C28.4268 29.1065 28.1699 28.5608 28.1123 27.9805L28.1006 27.7295C28.1007 27.0574 28.3675 26.4128 28.8428 25.9375C29.3182 25.4621 29.9634 25.1953 30.6357 25.1953C31.3079 25.1954 31.9524 25.4622 32.4277 25.9375C32.903 26.4128 33.1698 27.0573 33.1699 27.7295Z" fill="white"/>
<path opacity="0.72" d="M52.6248 69.2639L52.7508 69.2766C53.0356 69.3348 53.2497 69.5869 53.2498 69.8889C53.2498 70.191 53.0357 70.443 52.7508 70.5012L52.6248 70.5139H40.9784C40.6332 70.5139 40.3534 70.2341 40.3534 69.8889C40.3535 69.5439 40.6333 69.2639 40.9784 69.2639H52.6248ZM52.6248 63.7278L52.7508 63.7405C53.0357 63.7987 53.2498 64.0508 53.2498 64.3528C53.2498 64.6548 53.0357 64.9068 52.7508 64.9651L52.6248 64.9778H40.9784C40.6332 64.9778 40.3534 64.698 40.3534 64.3528C40.3535 64.0077 40.6332 63.7278 40.9784 63.7278H52.6248ZM52.6248 58.1917L52.7508 58.2043C53.0357 58.2626 53.2498 58.5146 53.2498 58.8167C53.2498 59.1187 53.0357 59.3707 52.7508 59.429L52.6248 59.4417H40.9784C40.6332 59.4416 40.3534 59.1618 40.3534 58.8167C40.3534 58.4715 40.6332 58.1917 40.9784 58.1917H52.6248ZM52.6248 52.6555L52.7508 52.6682C53.0357 52.7265 53.2498 52.9785 53.2498 53.2805C53.2497 53.5825 53.0356 53.8346 52.7508 53.8928L52.6248 53.9055H40.9784C40.6333 53.9055 40.3535 53.6256 40.3534 53.2805C40.3534 52.9353 40.6332 52.6555 40.9784 52.6555H52.6248ZM40.3534 43.592C40.3534 42.6921 40.7112 41.829 41.3475 41.1926C41.9838 40.5563 42.847 40.1985 43.7469 40.1985H52.6248L52.7508 40.2112C53.0357 40.2694 53.2498 40.5214 53.2498 40.8235C53.2498 41.1256 53.0357 41.3776 52.7508 41.4358L52.6248 41.4485H43.7469C43.1785 41.4485 42.6332 41.6745 42.2313 42.0764C41.8294 42.4783 41.6034 43.0236 41.6034 43.592C41.6035 44.1603 41.8295 44.7049 42.2313 45.1067C42.6332 45.5086 43.1785 45.7346 43.7469 45.7346H52.6248L52.7508 45.7473C53.0356 45.8055 53.2498 46.0576 53.2498 46.3596C53.2498 46.6617 53.0357 46.9137 52.7508 46.9719L52.6248 46.9846H43.7469C42.8472 46.9846 41.9838 46.6276 41.3475 45.9915C40.7113 45.3552 40.3535 44.4918 40.3534 43.592Z" fill="white"/>
<path d="M89.2764 22.7021C89.1651 20.5043 87.4029 18.7422 85.2051 18.6309L84.9844 18.625L61.5479 18.625C59.1743 18.6251 57.2501 20.5493 57.25 22.9229L57.25 77.0771L57.2559 77.2979C57.3709 79.5689 59.2483 81.3749 61.5479 81.375L84.9844 81.375L85.2051 81.3691C87.4029 81.2578 89.1651 79.4957 89.2764 77.2979L89.2822 77.0771L89.2822 22.9229L89.2764 22.7021ZM90.5322 77.0771L90.5244 77.3623C90.3807 80.1992 88.1064 82.4743 85.2695 82.6182L84.9844 82.625L61.5479 82.625C58.5795 82.6249 56.1554 80.2937 56.0068 77.3623L56 77.0771L56 22.9229C56.0001 19.8589 58.4839 17.3751 61.5479 17.375L84.9844 17.375L85.2695 17.3818C88.2009 17.5304 90.5321 19.9546 90.5322 22.9229L90.5322 77.0771Z" fill="white"/>
<path d="M73.4209 31.4939C73.6657 31.494 73.9042 31.57 74.1045 31.7107C74.2548 31.8163 74.3786 31.9542 74.4658 32.114L74.541 32.281V32.282L80.8115 49.8328C80.866 49.9855 80.8432 50.1551 80.75 50.2878C80.6566 50.4207 80.5042 50.5003 80.3418 50.5007C79.5736 50.5027 78.8166 50.314 78.1396 49.9509C77.6628 49.6952 77.2375 49.3573 76.8789 48.9568C76.5202 49.3558 76.0959 49.6927 75.6201 49.948C75.0284 50.2654 74.376 50.4506 73.708 50.4919L73.4209 50.5007C72.6533 50.5007 71.8971 50.3108 71.2207 49.948C70.7447 49.6926 70.3197 49.356 69.9609 48.9568C69.6024 49.3571 69.1778 49.6953 68.7012 49.9509C68.1087 50.2687 67.4549 50.4531 66.7861 50.4929L66.499 50.5007C66.3366 50.5003 66.1842 50.4207 66.0908 50.2878C65.9976 50.1551 65.9748 49.9855 66.0293 49.8328L72.2998 32.282V32.281L72.375 32.114C72.4623 31.9542 72.586 31.8163 72.7363 31.7107C72.9368 31.5699 73.1759 31.4939 73.4209 31.4939ZM73.4209 32.4939C73.3816 32.4939 73.3427 32.5065 73.3105 32.5291C73.2786 32.5516 73.2545 32.5832 73.2412 32.6199L67.2353 49.4255C67.5806 49.3553 67.9157 49.2368 68.2285 49.0691C68.7593 48.7843 69.211 48.3716 69.543 47.8689L69.5801 47.8191C69.6742 47.7092 69.8132 47.6454 69.96 47.6453C70.1275 47.6452 70.2842 47.7284 70.3769 47.8679C70.7103 48.37 71.1623 48.7823 71.6934 49.0671C72.2244 49.352 72.8183 49.5007 73.4209 49.5007L73.6455 49.4939C74.1701 49.4615 74.6827 49.3164 75.1475 49.0671C75.6785 48.7823 76.1305 48.37 76.4639 47.8679L76.5019 47.8181C76.5963 47.7088 76.7344 47.6452 76.8809 47.6453C77.0485 47.6455 77.2054 47.7291 77.2978 47.8689C77.6298 48.3716 78.0815 48.7843 78.6123 49.0691C78.9248 49.2367 79.2596 49.3552 79.6045 49.4255L73.5996 32.6199L73.5723 32.5691C73.5605 32.5537 73.5463 32.5403 73.5303 32.5291C73.4983 32.5066 73.46 32.494 73.4209 32.4939Z" fill="#0BFF7B"/>
<path d="M76.3806 74.7471V48.1445C76.3806 47.8684 76.6045 47.6445 76.8806 47.6445C77.1568 47.6445 77.3806 47.8684 77.3806 48.1445V74.7471L77.3708 74.8477C77.3244 75.0757 77.1224 75.2471 76.8806 75.2471C76.6389 75.2471 76.4369 75.0757 76.3904 74.8477L76.3806 74.7471Z" fill="#0BFF7B"/>
<path d="M69.4602 74.7471V48.1445C69.4602 47.8684 69.6841 47.6445 69.9602 47.6445C70.2363 47.6445 70.4602 47.8684 70.4602 48.1445V74.7471L70.4504 74.8477C70.4039 75.0757 70.2019 75.2471 69.9602 75.2471C69.7185 75.2471 69.5165 75.0757 69.47 74.8477L69.4602 74.7471Z" fill="#0BFF7B"/>
<path d="M76.8809 47.6445C77.0486 47.6447 77.2054 47.7292 77.2979 47.8691L77.4277 48.0537C77.7438 48.4732 78.1478 48.8202 78.6123 49.0693C79.1433 49.3541 79.7373 49.5016 80.3398 49.5L80.4375 49.5098C80.5339 49.5288 80.6237 49.5761 80.6943 49.6465C80.7881 49.7402 80.8407 49.8674 80.8408 50V74.7471C80.8408 75.0232 80.617 75.2471 80.3408 75.2471H66.5C66.2239 75.2471 66 75.0232 66 74.7471V50C66.0001 49.8674 66.0527 49.7402 66.1465 49.6465C66.2405 49.5528 66.3683 49.4997 66.501 49.5L66.7266 49.4941C67.2511 49.463 67.7639 49.3185 68.2285 49.0693C68.7594 48.7846 69.211 48.3719 69.543 47.8691L69.5801 47.8193C69.6742 47.7092 69.8131 47.6447 69.96 47.6445C70.1276 47.6444 70.2842 47.7285 70.377 47.8682L70.5068 48.0518C70.824 48.4709 71.2287 48.8171 71.6934 49.0664C72.2244 49.3513 72.8183 49.501 73.4209 49.501L73.6455 49.4941C74.1702 49.4618 74.6827 49.3157 75.1475 49.0664C75.6783 48.7816 76.1306 48.3701 76.4639 47.8682L76.502 47.8184C76.5963 47.7088 76.7342 47.6445 76.8809 47.6445ZM76.8789 48.9561C76.5201 49.3552 76.0961 49.6929 75.6201 49.9482C75.0284 50.2656 74.3759 50.4508 73.708 50.4922L73.4209 50.501C72.6533 50.501 71.8971 50.311 71.2207 49.9482C70.7445 49.6928 70.3198 49.3554 69.9609 48.9561C69.6024 49.3564 69.1778 49.6945 68.7012 49.9502C68.1721 50.2339 67.5938 50.4086 67 50.4717V74.2471H79.8408V50.4717C79.247 50.4086 78.6687 50.2339 78.1396 49.9502C77.6628 49.6944 77.2375 49.3566 76.8789 48.9561Z" fill="#0BFF7B"/>
<path d="M73.4202 31.4939C73.6652 31.4939 73.9043 31.5699 74.1048 31.7107C74.2551 31.8163 74.3788 31.9542 74.4661 32.114L74.5403 32.281L74.5413 32.282L77.3518 40.1433C77.4066 40.2964 77.383 40.4674 77.2893 40.6003C77.1957 40.733 77.0435 40.8121 76.8811 40.8123H69.9602C69.7976 40.8123 69.6447 40.7333 69.551 40.6003C69.4574 40.4674 69.4348 40.2964 69.4895 40.1433L72.3001 32.282V32.281L72.3753 32.114C72.4624 31.9544 72.5855 31.8162 72.7356 31.7107C72.936 31.5699 73.1753 31.4939 73.4202 31.4939ZM73.4202 32.4939C73.381 32.4939 73.3429 32.5065 73.3108 32.5291C73.2792 32.5513 73.2539 32.5818 73.2405 32.6179L73.2415 32.6189L70.6702 39.8123H76.1712L73.5999 32.6199L73.5725 32.5691C73.5608 32.5537 73.5465 32.5403 73.5305 32.5291C73.4984 32.5065 73.4595 32.4939 73.4202 32.4939Z" fill="#0BFF7B"/>
<path opacity="0.72" d="M80.8076 79.0383L80.9082 79.0481C81.1362 79.0946 81.3076 79.2966 81.3076 79.5383C81.3076 79.7801 81.1362 79.9821 80.9082 80.0286L80.8076 80.0383L65.5 80.0383C65.2239 80.0383 65 79.8145 65 79.5383C65 79.2622 65.2239 79.0383 65.5 79.0383L80.8076 79.0383Z" fill="white"/>
<path opacity="0.72" d="M78.5544 20.25L78.733 20.2594C79.6156 20.3489 80.3044 21.0938 80.3044 22C80.3044 22.9062 79.6156 23.6511 78.733 23.7406L78.5544 23.75H68.75C67.7835 23.75 67 22.9665 67 22C67 21.0335 67.7835 20.25 68.75 20.25H78.5544Z" fill="white"/>
</svg>
