<svg width="100" height="100" viewBox="0 0 100 100" fill="none" xmlns="http://www.w3.org/2000/svg">
<path d="M50.4098 60.6173C51.8555 60.6235 45.7418 70.4143 45.2305 70.0899C44.9646 69.9213 46.001 67.9907 46.104 67.7952C49.5804 61.1784 50.0126 60.5828 50.4098 60.6173Z" fill="#0BFF7B"/>
<path d="M58.8535 69.3818C58.9148 67.0405 58.3379 63.1722 59.1074 63.1104C60.1741 63.0247 60.0931 72.768 59.1846 72.6938C58.8832 72.6693 58.8448 69.7076 58.8535 69.3818Z" fill="#0BFF7B"/>
<path d="M67.9365 58.2695C67.9739 56.464 75.7532 64.1321 75.0953 64.6458C74.8413 64.8442 72.1815 62.2801 71.2102 61.4766C70.7646 61.1086 67.9691 58.8364 67.9365 58.2695Z" fill="#0BFF7B"/>
<path d="M62.9022 26.1303C62.6885 27.5802 59.3525 31.5774 58.2864 32.6469C57.5312 33.404 57.2006 32.9215 57.3788 32.5669C58.0022 31.3288 62.9415 24.7445 62.9022 26.1303Z" fill="#0BFF7B"/>
<path d="M48.3843 23.3746C49.1376 25.5025 49.1376 29.7585 49.024 32.0719C48.9919 32.7289 48.4255 32.5353 48.3609 32.1136C48.0293 29.9574 47.9512 22.1465 48.3843 23.3746Z" fill="#0BFF7B"/>
<path d="M33.5423 35.821C32.3506 35.3245 27.7712 31.4711 27.3165 31.0293C24.7281 28.5055 36.2424 35.9566 33.5423 35.821Z" fill="#0BFF7B"/>
<path d="M23.0786 78.0977C24.943 74.8796 28.8252 71.7918 30.6777 69.7803C32.9422 67.3212 33.511 63.9867 33.9662 62.0144C35.5249 55.2582 43.9098 50.2437 40.7632 48.9618C34.9092 46.577 32.6652 60.4265 27.0475 56.3171C26.8007 56.137 26.8558 56.0718 27.1222 56.0196C28.2569 55.7958 29.1798 57.0258 30.716 55.5404C33.7017 52.6515 33.521 51.9563 35.1962 50.1412C33.8478 50.1412 33.1411 50.0161 31.4827 50.7761C28.2655 52.2509 28.8472 52.0377 27.7811 52.2687C27.0456 52.4282 26.3556 51.7061 27.3134 51.6496C28.3489 51.5887 29.7902 50.7138 31.1372 50.0334C32.383 49.4036 33.5067 49.5248 35.6236 49.5675C36.1162 49.5775 38.9624 46.3125 41.8691 48.9719C42.5548 49.5986 41.7397 50.5839 42.1187 50.6568C43.9966 51.0166 45.1916 51.3338 44.9396 52.3779C44.6909 53.4091 43.6937 53.6238 42.6611 53.8609C42.2412 53.9261 41.8121 53.8988 41.4038 53.7809C41.169 53.733 40.4685 53.2208 41.5265 53.3046C42.3191 53.3487 43.1101 53.1925 43.8265 52.8509C44.3775 52.6084 44.7369 51.8662 44.1959 51.6913C43.4233 51.536 42.6607 51.3343 41.9122 51.088C41.6343 50.9792 41.7871 51.1024 40.525 52.8691C40.1276 53.4278 39.6955 53.9616 39.2313 54.4666C39.0338 54.6151 39.1608 54.4724 41.1062 56.5625C41.5653 57.056 41.25 57.7479 40.5514 57.9521C40.2204 58.0412 39.8825 58.102 39.5413 58.1346C38.3079 58.2755 36.9092 56.8217 37.5638 56.9367C38.294 57.0637 38.8748 58.0057 40.5547 57.3991C41.4 57.0934 40.3683 56.7403 39.0276 54.9554C38.938 54.8356 38.8978 54.8739 38.8283 54.9554C37.8497 56.0862 36.9425 57.2774 36.1119 58.5213C34.0821 61.6838 34.6068 64.9297 32.5483 68.3399C30.8377 71.1737 28.6671 72.0501 24.0781 77.4211C23.8409 77.6985 24.781 77.9482 24.5874 78.6731C23.4063 83.1102 18.2083 90.0888 16.8202 90.8344C15.0262 91.798 20.5639 86.3043 23.3637 79.3583C23.655 78.6358 22.0325 79.0282 19.5083 75.883C14.9198 70.1665 15.9289 68.4123 15.1661 69.2441C14.6869 69.7683 13.5393 71.1474 9.71411 73.7583C8.88372 74.3252 5.89276 76.3765 4.68574 76.4996C4.63782 76.5044 4.42603 76.4072 4.58032 76.2601C5.18934 75.6851 7.60482 74.4685 10.0241 72.5422C15.4133 68.2518 15.5494 67.2599 16.8312 68.5651C16.9399 68.6758 17.3103 66.0184 17.3252 65.9019C18.1877 59.9334 16.7377 59.5405 16.7502 54.6525C16.7574 51.5552 20.2002 49.1348 22.6708 47.2023C23.0666 46.8923 27.3014 43.8903 27.8597 43.586C28.5497 43.2094 31.2105 42.6277 31.3614 42.6013C38.1043 41.366 37.2135 41.0819 38.088 41.0254C39.1584 40.9559 39.7286 42.0474 38.4473 43.5333C36.9998 45.2104 34.2355 46.0039 32.5431 46.6584C30.1563 47.5808 29.8405 47.8913 28.2459 49.4678C25.3503 52.3357 25.0906 51.7315 24.403 53.1623C23.8102 54.3947 23.4365 52.9788 24.8706 51.5585C25.4212 51.0132 26.9215 50.0731 28.818 48.1879C30.4098 46.6067 32.97 46.0552 35.0534 45.1117C37.4013 44.0479 39.0909 42.4212 38.4857 41.7848C37.9025 41.171 37.5249 42.0191 33.9767 42.7178C29.5329 43.5927 28.4481 43.8304 27.0058 44.9056C25.5951 45.9569 23.9971 46.8017 20.7182 49.5023C13.6744 55.3004 19.9951 56.378 17.5356 67.8114C17.2097 69.3251 16.6357 69.7928 16.8733 70.2254C18.4679 73.1905 20.5678 75.8547 23.0786 78.0977Z" fill="white"/>
<path d="M48.4409 44.0237C48.7912 43.0778 49.5065 41.1966 49.8784 39.8995C49.9618 39.6091 49.9114 39.6422 47.7974 39.0111C45.6512 38.3705 45.7753 38.3585 45.8414 38.7313C45.8964 39.0159 45.8691 39.3103 45.7628 39.58C45.6564 39.8496 45.4755 40.0834 45.2411 40.254C45.0066 40.4244 44.7284 40.5246 44.4392 40.5427C44.1498 40.5609 43.8614 40.4961 43.6075 40.3562C41.515 39.2958 43.5567 37.7049 43.125 37.5612C41.2515 36.9383 40.3938 36.806 39.8279 36.6469C39.5404 36.566 39.732 36.6076 38.4038 40.0543C38.2274 40.5109 38.0085 40.6772 37.5772 40.6772C37.3927 40.6772 37.3587 40.6149 37.4215 40.4486C39.0463 36.1395 38.8197 35.8007 39.7378 35.9866C44.4997 36.9546 44.3378 36.9493 43.6593 37.9862C42.2807 40.0864 45.5055 40.4855 45.3445 38.9048C45.3306 38.7711 44.8395 37.2454 45.8567 37.5765C49.5171 38.7677 49.4955 38.7663 50.3168 39.1022C50.9009 39.3418 50.6412 39.4889 49.9364 41.7376C49.1927 44.1133 48.8822 45.2288 48.3072 44.5733C45.9727 41.9154 44.7005 45.8407 47.6498 45.6184C49.1687 45.5043 47.6924 47.1325 46.6138 50.5855C46.2175 51.8538 46.2305 51.4216 42.757 50.3133C42.5927 50.2611 42.5261 50.1988 42.5701 50.009C42.6698 49.5777 42.6607 49.5701 43.0919 49.7258C45.8232 50.7144 45.8807 50.86 46.0149 50.4844C47.632 46.0036 47.7399 46.1426 47.3699 46.178C46.7039 46.2422 45.6215 45.925 45.4001 45.0151C45.0206 43.4353 46.7418 42.0347 48.4409 44.0237Z" fill="#0BFF7B"/>
<path d="M35.7409 59.8621C36.0893 59.9579 37.1329 61.1525 38.1952 60.5329C38.5987 60.2981 36.566 58.2281 37.0399 57.9382C37.1923 57.8453 37.2891 57.9862 37.3629 58.0935C38.5944 59.8808 38.8119 60.1295 38.7582 60.7486C38.6653 61.83 35.4529 61.4338 35.7409 59.8621Z" fill="white"/>
<path d="M37.4982 47.7928C37.1417 48.1325 36.8407 48.3366 36.444 48.1138C35.2652 47.4502 34.7923 48.0496 35.5101 46.1291C35.6452 45.7673 36.4392 45.3284 36.3065 45.7458C35.8551 47.1627 35.7698 47.1353 36.1292 47.2599C36.5887 47.4185 37.0358 47.6102 37.4982 47.7928Z" fill="#0BFF7B"/>
<path d="M38.0865 51.7728C38.0746 51.24 39.0765 50.1781 39.4948 49.7388C39.6956 49.5275 40.3448 49.3785 38.9629 51.1715C38.3117 52.0162 39.0937 52.9266 38.9811 53.0464C38.8546 53.1801 38.237 53.0129 38.0865 51.7728Z" fill="white"/>
<path d="M73.1149 21.6275C79.3397 22.1882 86.141 26.5668 88.0807 29.7658C88.2604 30.0614 88.2038 29.679 89.7007 26.8428C90.1799 25.9324 90.592 24.9861 91.0673 24.0728C93.8407 18.744 97.1307 15.9576 94.3923 20.1618C89.1056 28.2775 89.2613 31.9354 86.7194 30.8027C86.5607 30.7503 86.4132 30.669 86.2838 30.5631C86.2114 30.6311 86.2445 30.7068 86.2435 30.7778C86.073 41.8604 89.0481 38.7492 77.6185 47.6315C76.2448 48.6991 75.4043 49.4854 73.756 49.4077C73.193 49.3814 71.3601 49.0833 71.444 48.6521C71.582 47.9333 73.8878 49.5395 75.8068 48.0968C85.4927 40.8096 85.7687 40.5992 85.7984 38.4866C85.8463 35.2283 85.3192 31.6316 86.0217 28.7854C86.1228 28.3752 81.8141 25.1375 77.7402 23.5289C74.9089 22.4105 74.9357 22.5706 74.7819 22.7762C73.6611 24.2903 71.3894 29.703 67.4506 34.8368C63.5967 39.8594 60.3657 41.9989 59.1898 43.7972C58.6627 44.5998 61.7672 46.2486 67.1396 41.6889C68.1253 40.8518 72.823 35.9417 75.6056 36.7889C76.8739 37.1751 76.0454 38.8014 75.217 39.8191C71.4962 44.3933 65.0021 45.7239 64.3935 50.8284C64.36 51.1643 64.3959 51.5036 64.4994 51.8246C64.8828 53.1107 66.8833 50.6348 68.9174 49.1615C74.0377 45.4532 77.3751 45.6156 83.3197 39.156C83.5152 38.9437 83.6551 39.1402 83.5492 39.3237C82.5468 40.729 81.3532 41.9879 80.0034 43.0641C76.194 46.1786 71.2437 47.7541 68.0175 50.6607C66.3782 52.137 65.9815 52.3857 65.43 52.6253C64.1022 53.197 63.5478 51.6191 63.899 50.1183C64.9815 45.4973 70.4924 43.7934 73.8695 40.3913C76.7268 37.512 75.7862 36.5072 73.1379 37.7338C69.1929 39.5604 65.0514 46.1556 59.9723 45.2174C59.0647 45.0497 58.1126 44.3722 58.5971 43.4517C59.4236 41.88 63.9527 38.4483 66.937 34.4357C71.4411 28.3824 70.5643 28.4653 73.8403 23.3358C73.9764 23.1235 73.1077 22.8538 72.4943 22.2467C71.8316 21.5917 77.9707 11.4362 79.034 10.0758C80.0014 8.83623 80.4916 8.89278 80.2573 9.28665C74.0507 19.7248 73.6894 21.018 73.1149 21.6275Z" fill="white"/>
<path d="M55.5136 54.0119C49.2676 52.1868 50.9859 53.8912 52.0607 47.9597C52.1292 47.5816 51.869 47.9554 51.0429 47.7781C48.925 47.3229 49.5729 44.2169 51.5523 44.6463C53.3578 45.0382 52.5106 46.4039 53.1005 44.1499C53.7713 41.5767 53.5796 41.6697 53.9098 41.6194C54.5821 41.675 55.2452 41.8086 55.8864 42.0176C57.6693 42.5844 58.4624 42.5792 57.8816 43.2634C56.6358 44.7292 58.1787 46.6492 59.2923 45.7857C60.1677 45.1063 60.0077 46.4508 58.9377 46.584C57.2017 46.8006 56.3598 44.699 57.0939 43.4579C57.1825 43.3084 57.2007 43.1824 56.9836 43.111C56.1576 42.8335 55.3166 42.6011 54.4651 42.4148C53.7766 42.2676 53.6793 46.2855 52.9745 46.2788C52.6338 46.2754 52.6448 45.2534 51.2183 45.1671C50.0587 45.0977 49.8431 47.2822 51.4315 47.2966C52.1503 47.3028 53.0396 46.8404 52.8015 47.7652C51.6802 52.1183 51.6155 52.0675 51.9356 52.1705C53.4033 52.5505 54.8499 53.0057 56.2706 53.5347C57.1514 53.9094 55.8102 54.2223 55.5318 55.1543C54.9592 57.0709 57.7115 57.2171 57.9631 55.6468C58.0718 54.9674 57.4738 53.9698 58.3397 54.2041C62.5971 55.3445 62.6172 55.4317 62.748 55.4643C63.1913 55.5745 62.9953 55.5989 63.6675 53.7719C63.8769 53.2026 62.5588 53.9846 61.7116 52.6655C61.5367 52.4235 61.4303 52.1384 61.4035 51.8408C61.3771 51.5433 61.4318 51.2443 61.5611 50.975C61.6905 50.7057 61.8903 50.4762 62.1395 50.3113C62.3882 50.146 62.6771 50.0511 62.9756 50.0368C63.3077 50.0018 63.7111 50.3693 63.013 50.5274C61.1883 50.9405 61.8151 53.3421 64.0605 52.9386C64.6834 52.8265 64.577 53.1221 63.9622 54.9511C63.5842 56.0743 63.5866 56.3685 62.8851 56.149C62.0801 55.8965 62.5712 56.1011 58.6258 54.8634C58.0843 54.6933 59.1433 55.9415 57.8763 56.9334C56.7719 57.7959 54.6376 57.3167 54.894 55.3042C54.9462 54.815 55.1647 54.3588 55.5136 54.0119Z" fill="#0BFF7B"/>
<path d="M60.9988 43.9623C60.6859 44.1118 60.4238 43.8794 60.7554 43.5981C61.8369 42.6877 62.3477 42.5373 61.8881 41.6743C61.822 41.5502 61.7003 41.4131 61.8656 41.2981C62.2442 41.0341 63.6721 42.6844 60.9988 43.9623Z" fill="white"/>
<path d="M65.833 45.4215C65.8704 45.437 65.904 45.4603 65.9317 45.4898C65.9595 45.5192 65.9806 45.5543 65.994 45.5924C66.0075 45.6307 66.0123 45.6713 66.0089 45.7116C66.0055 45.7519 65.9936 45.791 65.9739 45.8264C65.8436 46.1872 65.5786 46.0267 63.9049 45.5092C63.7808 45.4709 63.5982 45.4613 63.6217 45.2552C63.7046 44.514 65.1478 45.1125 65.833 45.4215Z" fill="#0BFF7B"/>
<path d="M67.236 49.6992C66.9005 49.5291 66.7127 49.8012 66.5067 50.0201C66.1281 50.4231 65.7007 50.7796 65.3567 51.218C65.1976 51.4197 64.9489 51.3378 65.0481 51.0311C65.4305 50.4696 65.8799 49.9568 66.3859 49.5037C67.1708 48.7241 67.8661 49.7725 67.236 49.6992Z" fill="white"/>
</svg>
