<svg width="200" height="200" viewBox="0 0 200 200" fill="none" xmlns="http://www.w3.org/2000/svg">
<path d="M109.278 65.3037C109.248 65.1543 109.607 64.9152 110.085 64.7658C110.593 64.5865 111.34 64.5865 111.878 64.7359C112.386 64.8853 113.043 65.2738 113.969 66.2599L113.372 66.0208C113.043 65.9013 112.027 65.7519 111.071 65.6921C110.115 65.6324 109.308 65.4531 109.278 65.3037Z" fill="#200980"/>
<path d="M102.764 81.9176C102.047 81.6786 101.24 81.2304 101.031 80.9316C100.672 80.4833 100.702 80.4236 101.33 80.573C101.718 80.6626 102.913 80.9614 103.959 81.2602C105.543 81.6487 106.2 81.7085 107.396 81.4395C108.232 81.2602 108.949 81.1706 108.979 81.2602C109.009 81.3499 108.74 81.5591 108.382 81.7682C108.023 81.9475 106.888 82.1567 105.901 82.2463C104.676 82.3659 103.69 82.2762 102.764 81.9176Z" fill="#200980"/>
<path fill-rule="evenodd" clip-rule="evenodd" d="M110.563 38.7393C109.816 38.3808 108.471 38.0222 107.575 37.9325C106.678 37.8728 105.274 37.9624 104.437 38.1716C103.631 38.3808 102.077 39.068 101.001 39.6657C99.9253 40.2932 98.1921 41.3988 97.1164 42.1458C96.0407 42.8629 95.0845 43.4904 94.965 43.4606C94.8156 43.4606 94.5168 42.9825 94.2777 42.4147C94.0387 41.847 93.5307 41.2195 93.1721 41.0402C92.7538 40.831 91.947 40.7713 91.2298 40.8908C90.5127 40.9804 89.4071 41.339 88.7497 41.6677C88.0923 41.9964 86.9568 42.8629 86.2098 43.61C85.4628 44.357 84.5364 45.5821 84.148 46.3889C83.7595 47.1658 82.9527 49.3472 82.385 51.2297C81.3989 54.3373 81.1001 54.9051 79.3072 57.2059C78.2016 58.6103 76.9466 60.4331 76.5582 61.2399C75.9605 62.4351 75.841 63.0925 75.9306 64.4073C76.0203 65.6922 76.2593 66.3197 76.9466 67.1862C77.4247 67.8137 78.0223 68.5608 78.2315 68.8297C78.5303 69.2182 78.5602 69.9054 78.3211 72.1465C78.1419 73.9693 78.112 75.4036 78.3211 76.1207C78.4706 76.7184 78.859 77.3459 79.1877 77.5251C79.5164 77.7044 80.2634 77.7941 80.861 77.7642C81.877 77.6746 81.9667 77.7343 82.2954 78.8698C82.5045 79.5272 82.9527 80.573 83.3113 81.2005C83.7894 82.0073 84.1779 82.3061 84.7157 82.3061C85.2237 82.3061 85.5524 82.5452 85.7616 83.0532C85.9409 83.4715 86.2994 83.8898 86.5982 83.9795C86.8672 84.099 87.3752 84.0392 87.7038 83.86C88.2716 83.591 88.3015 83.7105 88.5106 85.5632C88.66 86.6389 88.7497 89.4776 88.7497 91.8681L88.7198 96.2009C84.2376 98.3822 82.5344 99.3085 82.0563 99.697C81.2196 100.384 81.2196 100.384 81.6977 101.37L82.1758 102.327C76.9765 105.016 73.8987 106.809 72.0162 108.034C70.1337 109.289 67.534 111.112 66.279 112.128C64.9941 113.144 62.9921 114.877 61.8267 116.012C60.6614 117.118 58.5996 119.299 57.2549 120.853C55.8804 122.407 53.968 124.767 52.9819 126.082C51.9958 127.397 49.9938 130.295 48.4997 132.507C47.0355 134.718 44.645 138.483 43.1809 140.873C41.7167 143.264 39.8043 146.76 38.9078 148.642C38.0114 150.525 36.9357 153.364 36.5472 154.917C36.0094 157.039 35.86 158.264 35.9496 159.698C36.0392 160.774 36.3679 162.328 36.7265 163.135C37.0851 164.031 37.9516 165.226 38.9078 166.153C39.7744 166.96 41.5075 168.244 42.7326 168.962C43.9578 169.679 46.408 170.934 48.171 171.77C50.6056 172.916 51.2099 173.242 51.4306 173.829L50.9799 171.86C50.95 171.92 49.7846 171.442 48.3802 170.814C47.0057 170.187 44.8542 169.141 43.6291 168.484C42.404 167.856 40.7306 166.691 39.9238 165.973C39.117 165.226 38.1011 164.001 37.6827 163.284C37.0851 162.238 36.8759 161.402 36.7863 159.698C36.7265 158.204 36.8461 156.77 37.1747 155.515C37.4437 154.439 37.9218 152.856 38.2505 151.989C38.5792 151.123 39.4457 149.18 40.2226 147.656C40.9697 146.132 42.404 143.563 43.39 141.919C44.3761 140.276 46.5873 136.78 48.3204 134.15C50.0535 131.52 52.3544 128.144 53.46 126.68C54.5656 125.186 56.7171 122.526 58.2709 120.703C59.8247 118.911 62.2451 116.46 63.6196 115.235C65.024 114.01 67.1755 112.247 68.4006 111.321C69.6556 110.394 71.9863 108.811 73.6298 107.825C75.2733 106.809 77.8431 105.374 79.3072 104.597C80.8013 103.85 82.146 103.223 82.2954 103.223C82.4747 103.223 83.1619 104.209 83.8492 105.374C84.5066 106.57 85.7018 108.392 86.4489 109.408C87.2258 110.454 87.7636 111.381 87.6441 111.5C87.5545 111.62 85.7018 111.859 79.6061 112.277L79.8451 114.1C79.9646 115.086 80.2933 116.998 80.5623 118.313C80.8013 119.628 81.4288 121.839 81.9368 123.243C82.4149 124.618 83.2217 126.59 83.6699 127.576C84.148 128.562 84.4767 129.459 84.3871 129.578C84.3273 129.698 81.0702 129.787 77.1558 129.787C71.5979 129.787 70.0142 129.847 69.8349 130.176C69.7154 130.385 69.6855 133.313 69.7751 136.69C69.8648 140.037 69.9843 143.234 70.074 143.772C70.1337 144.31 70.6417 145.236 71.1796 145.804C71.7174 146.401 72.6139 146.999 73.1816 147.148C73.7792 147.298 75.2733 147.447 76.5582 147.447C77.8431 147.447 79.9049 147.298 81.1898 147.118C82.5344 146.939 83.9986 146.521 84.6859 146.102C85.3433 145.744 86.0604 145.027 86.2995 144.579C86.5983 143.921 86.658 142.367 86.5385 138.184C86.419 133.283 86.4489 132.716 86.8373 133.254C87.0764 133.582 88.3015 135.256 89.6163 136.989C90.9012 138.692 93.0825 141.321 94.457 142.786C95.8316 144.25 98.3715 146.64 100.075 148.134C101.808 149.628 103.421 151.003 103.66 151.212L107.694 151.601L105.872 149.15C104.856 147.806 103.66 146.073 103.212 145.355C102.764 144.608 101.868 142.995 101.27 141.77C100.672 140.515 99.8655 138.572 99.4771 137.437C98.999 135.943 98.7898 134.658 98.7898 132.955C98.7898 131.162 98.9392 130.146 99.4472 128.981C100.045 127.516 100.045 127.397 99.5667 127.218C99.2679 127.128 98.1025 126.65 96.9372 126.172C95.8017 125.723 94.0984 124.827 93.1721 124.2C92.2159 123.602 90.5725 122.317 89.4967 121.361C88.421 120.435 87.5246 119.538 87.5246 119.419C87.5545 119.299 89.4669 119.18 91.7976 119.15C95.2638 119.12 96.9073 118.94 100.523 118.193C103.003 117.685 106.499 116.789 108.292 116.191C110.115 115.594 112.804 114.578 114.268 113.92C115.762 113.263 118.9 111.709 121.231 110.454C123.591 109.169 125.504 108.064 125.504 108.004C125.504 107.914 123.92 106.809 121.978 105.584C120.035 104.329 117.734 102.864 116.808 102.356C115.912 101.848 114.836 101.161 113.671 100.265L115.464 100.683C116.45 100.922 119.288 101.251 121.739 101.43C124.368 101.609 132.167 101.699 140.414 101.669C151.291 101.579 154.817 101.669 155.445 101.938C155.893 102.147 156.251 102.207 156.251 102.087C156.251 101.968 155.743 100.384 155.086 98.5914C154.458 96.7686 153.652 94.0195 153.323 92.4657C152.994 90.882 152.516 87.7445 152.247 85.4436C152.008 83.1428 151.59 79.2283 151.351 76.7781C151.082 74.2979 150.932 72.266 151.022 72.2063C151.112 72.1764 151.62 72.3557 152.158 72.6246C152.875 72.9832 153.562 73.0728 154.907 72.9234C156.012 72.8039 157.178 72.4752 157.895 72.027C158.552 71.6385 159.479 70.8915 159.927 70.3835C160.375 69.8755 160.823 69.0986 160.913 68.7102C161.032 68.2918 161.182 67.9631 161.242 67.9631C161.331 67.9631 163.124 71.0708 165.186 74.8956C167.248 78.7204 169.638 83.4715 170.475 85.4436C171.341 87.4158 172.447 90.2844 172.985 91.8681C173.493 93.4219 174.21 95.7825 174.539 97.0973C174.897 98.5316 175.196 101.072 175.316 103.522C175.495 107.406 175.465 107.526 174.927 107.287L176.272 108.153C176.092 100.474 175.943 99.2189 175.196 96.3503C174.688 94.4678 173.792 91.5693 173.164 89.9258C172.566 88.2824 171.102 84.9357 169.907 82.4555C168.712 80.0053 166.321 75.4036 164.558 72.2959C162.825 69.1883 160.674 65.1543 159.807 63.3316C158.283 60.1343 158.223 59.955 158.194 57.3553C158.164 55.5326 157.984 54.3672 157.656 53.7098C157.387 53.172 156.909 52.5146 156.58 52.2755C156.251 52.0365 155.534 51.8273 154.937 51.8273C154.369 51.8273 153.891 51.7675 153.891 51.6779C153.891 51.5883 154.1 50.6918 154.369 49.6759C154.638 48.63 154.757 47.4945 154.668 47.136C154.548 46.6877 154.19 46.3889 153.682 46.2694C153.114 46.1499 152.606 46.2694 152.098 46.6579C151.68 46.9866 150.783 48.3611 150.096 49.7655C149.379 51.14 148.751 52.664 148.661 53.172C148.572 53.7397 148.064 54.427 147.317 55.0246C146.6 55.6222 146.002 56.429 145.823 57.0565C145.614 57.7737 145.614 58.4311 145.853 59.208C146.062 59.8355 146.63 61.21 147.167 62.2857C147.705 63.3614 148.422 65.3635 148.781 66.7679C149.11 68.1723 149.648 70.8616 149.976 72.7441C150.305 74.6267 150.873 78.9296 151.201 82.3061C151.56 85.6827 152.038 89.5673 152.277 90.9717C152.516 92.3761 152.994 94.4379 153.323 95.6033C153.682 96.7686 154.249 98.442 154.608 99.3384L155.295 100.982C134.647 101.101 126.49 101.012 123.86 100.832C121.231 100.653 117.675 100.295 115.942 100.056C114.208 99.8165 112.386 99.4878 111.908 99.3384C111.43 99.189 110.443 98.6512 109.756 98.1432C108.501 97.2766 108.471 97.187 108.471 95.6033V93.9598C110.892 93.2725 112.296 92.645 113.103 92.1072C113.94 91.5693 115.045 90.4338 115.583 89.627C116.121 88.8202 116.778 87.4457 117.017 86.6389C117.226 85.8321 117.525 84.0094 117.615 82.6049C117.764 80.7822 117.974 79.8559 118.392 79.318C118.691 78.8997 119.109 78.0331 119.288 77.3757C119.497 76.5988 119.527 74.2382 119.378 70.6525C119.258 67.2759 119.318 64.0786 119.497 62.4351C119.766 60.3136 119.976 59.5964 120.484 59.0586C121.081 58.4908 121.29 58.431 122.007 58.7C122.456 58.8494 123.292 58.9988 123.86 58.9988C124.667 58.9988 125.055 58.7896 125.504 58.192C125.862 57.7139 126.131 57.1462 126.131 56.9071C126.131 56.6681 125.802 56.0107 125.444 55.4429C125.055 54.8752 123.95 53.8592 122.964 53.172C121.828 52.395 121.171 51.7675 121.171 51.3791C121.171 51.0504 121.828 50.3332 122.784 49.6161C123.651 48.9288 124.488 48.122 124.607 47.7933C124.757 47.4348 124.667 46.8073 124.428 46.2096C124.159 45.6419 123.502 44.9845 122.754 44.5363C122.037 44.118 120.663 43.6399 119.677 43.4307C118.183 43.1319 117.346 43.1618 114.448 43.5801C112.565 43.849 110.981 43.9984 110.951 43.9088C110.892 43.8191 111.31 43.1618 111.848 42.3848C112.744 41.1 112.774 41.0103 112.356 40.2334C112.117 39.7852 111.31 39.1278 110.563 38.7393ZM153.801 47.106C153.682 46.8969 153.383 46.7475 153.174 46.7475C152.964 46.7475 152.486 47.0463 152.158 47.4049C151.799 47.7933 150.962 49.2575 150.305 50.6918C149.648 52.1261 149.08 53.411 149.11 53.5305C149.11 53.65 149.797 53.7098 150.664 53.65C151.53 53.5903 152.307 53.4409 152.397 53.3512C152.516 53.2616 152.875 52.156 153.203 50.9308C153.562 49.6758 153.891 48.4208 153.921 48.0921C153.98 47.7634 153.921 47.3152 153.801 47.106ZM155.445 52.5145C154.907 52.3054 154.279 52.1261 154.01 52.1261C153.771 52.1261 153.502 52.3054 153.413 52.5743C153.353 52.8134 153.233 53.1719 153.144 53.3811C153.084 53.5903 153.233 54.0385 153.472 54.3672C153.682 54.6959 153.891 55.1441 153.861 55.413C153.861 55.6521 153.592 56.1899 153.293 56.6083C153.027 56.9586 152.885 57.1446 152.891 57.3266C152.896 57.5327 153.09 57.7336 153.502 58.1621C154.04 58.7199 154.608 58.9988 155.206 58.9988C155.713 58.9988 156.251 58.8792 156.431 58.7597C156.61 58.6402 156.939 58.192 157.148 57.8035C157.357 57.3852 157.536 56.5186 157.536 55.8612C157.536 55.174 157.297 54.2775 156.968 53.7696C156.67 53.2915 155.982 52.7237 155.445 52.5145ZM152.815 54.7855C152.456 54.3971 151.859 54.1879 151.172 54.2178C150.604 54.2178 149.528 54.4568 148.811 54.7855C148.094 55.0843 147.257 55.7118 146.928 56.1899C146.63 56.668 146.391 57.5645 146.391 58.1621C146.391 58.8494 146.839 60.1044 147.526 61.449C148.183 62.704 148.96 63.7798 149.379 63.9889C149.857 64.2579 150.873 64.3475 152.068 64.2877C153.233 64.228 154.488 63.959 155.176 63.6005C155.803 63.2718 156.58 62.6144 156.909 62.1363C157.208 61.6283 157.506 60.7916 157.536 60.2837C157.566 59.7458 157.536 59.2677 157.447 59.1482C157.387 59.0585 156.879 59.1781 156.341 59.447C155.594 59.7757 155.176 59.8056 154.548 59.5665C154.1 59.3872 153.383 58.9091 152.964 58.4908C152.307 57.8035 152.128 57.7736 151.172 58.0724C150.604 58.2517 150.036 58.4011 149.917 58.4011C149.797 58.4011 149.677 58.2816 149.677 58.1621C149.677 58.0426 150.335 57.684 151.082 57.3553C151.859 57.0266 152.695 56.429 152.964 56.0704C153.383 55.4429 153.383 55.3533 152.815 54.7855ZM104.258 56.6382C103.69 56.429 102.405 56.3095 101.419 56.3095C100.284 56.3095 99.0587 56.5485 97.983 56.9967C97.0866 57.3553 95.7419 58.0724 94.9949 58.5804C94.2777 59.0884 93.2618 59.8952 92.8135 60.3733C92.3355 60.8514 91.7378 61.6582 91.5287 62.1961C91.3195 62.7339 91.1103 63.4212 91.1103 63.6901C91.1103 63.9889 91.4689 65.0945 91.8872 66.1703C92.6343 67.993 92.6641 68.2619 92.455 70.8018C92.3056 72.266 92.186 75.1645 92.186 77.2562C92.186 80.1547 92.0665 81.1109 91.708 81.4993C91.2896 81.9774 91.2298 81.9774 90.7219 81.4694C90.4529 81.2005 90.1541 80.7523 90.0645 80.5132C90.0047 80.2443 89.7059 78.571 89.3772 76.7781C89.0784 74.9553 88.5704 73.013 88.2417 72.4453C87.8832 71.8178 87.4051 71.3696 86.9867 71.3098C86.6281 71.2799 86.0604 71.3696 85.7317 71.5489C85.403 71.6983 85.0146 72.2063 84.8353 72.6545C84.5962 73.282 84.656 73.8497 84.9847 74.9852C85.2237 75.792 85.8214 76.9873 86.3293 77.5849C86.8373 78.2124 87.4349 78.7204 87.674 78.7204C87.9429 78.7204 88.2417 79.1686 88.421 79.826C88.5704 80.4535 88.929 82.4256 89.168 84.2484C89.437 86.0413 89.7358 89.3282 89.8254 91.5693C89.945 94.0793 89.8852 96.4399 89.6461 97.8443C89.4669 99.0695 89.0485 100.474 88.7198 100.982C88.421 101.46 87.913 102.327 87.6142 102.864C87.1361 103.731 87.1361 104.06 87.4648 105.554C87.6441 106.48 88.2716 108.123 88.8394 109.199C89.7059 110.873 89.945 111.112 90.5426 111.022C90.9609 110.962 92.8733 110.454 94.8455 109.886C96.8176 109.319 100.463 108.064 102.913 107.078C105.394 106.092 109.009 104.508 110.981 103.552C114.358 101.908 114.537 101.789 113.671 101.579C113.633 101.57 113.59 101.559 113.545 101.548C113.535 101.546 113.526 101.543 113.516 101.541C113.471 101.53 113.423 101.518 113.373 101.506C112.819 101.368 111.938 101.15 111.22 100.952C110.354 100.713 109.278 100.205 108.83 99.8165C108.023 99.0993 107.993 98.9798 107.993 96.171V93.2725C111.011 92.4358 112.416 91.8083 113.073 91.3302C113.73 90.8521 114.657 89.8959 115.105 89.1489C115.553 88.4318 116.121 87.0273 116.36 86.0413C116.719 84.6667 116.808 82.575 116.808 77.2861C116.808 73.4613 116.689 68.0229 116.509 65.1842C116.29 61.7578 116.041 59.8155 115.762 59.3573C115.523 58.9988 114.627 58.3414 113.76 57.9529C112.894 57.5346 111.19 56.9967 109.965 56.7577C108.202 56.3991 107.515 56.3692 106.529 56.6382C105.633 56.8772 105.035 56.8772 104.258 56.6382ZM159.538 64.3774C158.732 62.7339 157.984 61.3893 157.925 61.3893C157.835 61.3893 157.686 61.6881 157.596 62.0466C157.476 62.465 157.895 63.8395 158.702 65.8117L159.987 68.8894C161.032 67.3655 161.032 67.3057 159.538 64.3774ZM158.074 66.3197C157.417 64.8256 156.789 63.6005 156.67 63.5407C156.52 63.5108 156.221 63.6005 155.953 63.7499C155.564 63.9889 155.624 64.3774 156.341 66.6782C156.789 68.1125 157.267 69.7261 157.387 70.264C157.506 70.8018 157.745 71.2501 157.895 71.2501C158.074 71.2501 158.433 71.011 158.731 70.7122C159 70.4433 159.239 69.9353 159.239 69.6066C159.239 69.2779 158.702 67.7838 158.074 66.3197ZM155.953 67.8137C155.445 66.1703 154.937 64.736 154.817 64.6463C154.698 64.5567 154.339 64.5268 154.01 64.5866C153.682 64.6463 153.472 64.736 153.502 64.7658C153.532 64.7957 153.921 66.4989 154.339 68.5608C154.757 70.5927 155.116 72.3258 155.146 72.3557C155.176 72.4154 155.594 72.3855 156.042 72.2959C156.64 72.1764 156.849 71.9672 156.849 71.4592C156.849 71.1007 156.461 69.4572 155.953 67.8137ZM150.873 66.6185C150.634 65.3635 150.484 65.0945 149.827 64.975C149.199 64.8256 149.11 64.9152 149.229 65.4232C149.27 65.5725 149.366 65.9622 149.495 66.486C149.651 67.1153 149.854 67.9382 150.066 68.7699C150.604 70.9513 150.843 71.5489 151.261 71.5489C151.6 71.5489 151.729 71.3696 151.65 71.011C151.59 70.7421 151.44 69.9652 151.351 69.3078C151.301 69.0312 151.234 68.6542 151.164 68.2502C151.163 68.2488 151.163 68.2474 151.163 68.246L151.163 68.245C151.162 68.2425 151.162 68.24 151.161 68.2375C151.064 67.6845 150.959 67.0823 150.873 66.6185ZM153.502 68.1723C152.875 65.2141 152.755 64.9451 152.158 64.9451C151.799 64.975 151.47 65.0647 151.47 65.1842C151.47 65.2671 151.614 66.0557 151.812 67.14C151.813 67.1414 151.813 67.1427 151.813 67.1441L151.813 67.1448C151.814 67.1465 151.814 67.1482 151.814 67.1499L151.814 67.1512C151.901 67.626 151.998 68.1571 152.098 68.7102C152.427 70.503 152.755 72.0867 152.845 72.2063C152.905 72.3258 153.233 72.4453 153.562 72.4453C153.95 72.4453 154.16 72.2361 154.16 71.9074C154.16 71.6385 153.861 69.9353 153.502 68.1723ZM87.166 114.1C86.9568 113.92 86.5684 113.681 86.2995 113.622C86.0604 113.532 85.5823 113.592 85.2536 113.741C84.9249 113.92 84.5663 114.309 84.4468 114.608C84.3572 114.906 84.3273 115.444 84.3871 115.773C84.4767 116.102 84.9249 116.49 85.3731 116.669C86.0006 116.909 86.3592 116.849 86.8672 116.52C87.2855 116.221 87.5545 115.743 87.5545 115.235C87.5545 114.787 87.3752 114.279 87.166 114.1ZM77.8729 130.415H70.5819L70.4026 131.67C70.313 132.387 70.313 133.343 70.4325 133.851C70.6417 134.598 71.06 134.927 73.5103 136.152C75.0641 136.929 76.5881 137.556 76.9167 137.556C77.2454 137.556 79.3072 136.72 81.4886 135.704L85.4628 133.851C85.4329 131.879 85.3731 131.102 85.2835 130.863C85.164 130.475 84.0584 130.415 77.8729 130.415ZM85.9409 139.17C85.7915 136.092 85.6421 134.897 85.3731 134.927C85.164 134.927 83.5205 135.674 81.7276 136.54C79.9049 137.407 77.9925 138.184 77.4546 138.303C76.6777 138.453 75.9904 138.244 73.8689 137.108C72.4047 136.331 71.0899 135.823 70.9405 135.943C70.7911 136.062 70.6716 137.796 70.6716 139.768C70.6716 142.606 70.7911 143.652 71.1796 144.459C71.4485 145.027 72.1059 145.744 72.584 146.043C73.092 146.312 74.1378 146.64 74.9147 146.73C75.6916 146.82 77.8431 146.76 79.6957 146.581C81.638 146.401 83.5205 146.043 84.148 145.744C84.7456 145.445 85.4329 144.818 85.6719 144.31C86.0305 143.592 86.0903 142.636 85.9409 139.17Z" fill="#200980"/>
<path d="M62.4244 151.631V150.734C62.4244 150.226 62.7829 147.776 63.2013 145.266C63.6495 142.756 64.4563 138.841 65.024 136.54C65.6217 134.24 66.6077 130.863 67.2352 129.07C67.8627 127.247 68.9982 124.289 69.7453 122.496C70.4923 120.674 71.06 119.18 70.9704 119.12C70.8807 119.09 70.5222 119.478 70.1935 120.016C69.8648 120.554 69.0281 122.138 68.3707 123.542C67.6835 124.917 66.5779 127.815 65.8607 129.967C65.1436 132.088 64.1575 135.644 63.6196 137.885C63.1116 140.096 62.3646 143.981 61.9761 146.551C61.5578 149.091 61.2291 151.272 61.2291 151.391L62.4244 151.631Z" fill="#200980"/>
<path d="M105.483 67.6045C105.483 67.8137 105.991 69.3675 106.648 71.1006C107.306 72.8337 107.933 74.7461 108.053 75.3737C108.143 75.9713 108.113 76.5689 107.963 76.6884C107.814 76.8079 106.798 76.9574 105.692 76.9872C104.318 77.047 103.66 77.1964 103.66 77.4653C103.66 77.7044 104.258 77.8239 105.543 77.8239C106.708 77.8239 107.664 77.6745 108.083 77.3757C108.561 77.047 108.74 76.6287 108.77 75.8219C108.77 75.1944 108.501 73.9393 108.202 73.0429C107.903 72.1465 107.156 70.4731 106.559 69.3078C105.991 68.1723 105.483 67.3954 105.483 67.6045Z" fill="#200980"/>
<path fill-rule="evenodd" clip-rule="evenodd" d="M117.794 130.325L110.533 130.415C110.294 132.387 110.264 133.821 110.294 134.897C110.354 135.973 110.264 138.333 110.115 140.126C109.965 141.949 109.935 143.802 110.055 144.25C110.145 144.698 110.623 145.475 111.071 145.983C111.519 146.521 112.356 147.118 112.924 147.357C113.521 147.567 115.673 147.895 117.705 148.045C119.766 148.194 121.918 148.224 122.486 148.105C123.083 147.985 124.009 147.597 124.547 147.298C125.115 146.969 125.862 146.312 126.191 145.863C126.788 145.087 126.848 144.459 127.027 138.692C127.147 135.196 127.147 131.879 127.027 131.311C126.848 130.415 126.699 130.265 125.922 130.265C125.589 130.265 123.704 130.28 121.247 130.299L120.952 130.301C119.962 130.309 118.89 130.317 117.794 130.325ZM111.34 134.15C111.28 134.001 111.28 133.224 111.37 132.447L111.519 131.012H126.4V135.196L123.412 136.69C121.768 137.497 120.185 138.184 119.916 138.184C119.617 138.184 117.585 137.347 115.404 136.331C113.222 135.285 111.4 134.299 111.34 134.15ZM111.011 139.827C111.131 137.706 111.31 135.853 111.4 135.704C111.489 135.584 111.698 135.525 111.878 135.614C111.929 135.64 112.108 135.723 112.467 135.891C113.369 136.311 115.402 137.259 119.378 139.14L120.872 138.662C121.709 138.393 123.113 137.796 124.01 137.288C124.906 136.809 125.743 136.391 125.892 136.391C126.012 136.391 126.101 138.154 126.101 140.276C126.101 143.084 125.982 144.459 125.653 145.206C125.384 145.834 124.816 146.461 124.249 146.76C123.711 147.029 122.456 147.298 121.47 147.387C120.484 147.477 118.332 147.387 116.689 147.238C115.045 147.059 113.252 146.73 112.744 146.461C112.117 146.162 111.579 145.535 111.28 144.847C110.862 143.921 110.832 143.084 111.011 139.827Z" fill="#200980"/>
<path d="M162.855 121.929C162.765 121.839 161.361 122.347 159.718 123.064C158.074 123.781 155.116 124.917 153.144 125.574C151.172 126.232 147.944 127.128 145.972 127.606C144 128.054 142.327 128.473 142.237 128.502C142.147 128.562 142.715 129.25 143.462 130.026C144.209 130.833 145.195 132.178 145.614 133.044C146.062 133.881 146.6 135.495 146.839 136.63C147.078 137.736 147.377 139.708 147.466 141.023C147.586 142.337 147.526 145.445 147.347 147.895C147.138 150.376 146.869 153.931 146.689 155.814C146.54 157.696 146.181 161.073 145.942 163.284C145.703 165.495 145.165 169.529 144.747 172.249C144.329 174.968 144.06 177.209 144.09 177.239L142.805 177.328C143.044 176.043 143.373 173.653 143.701 171.203C144.03 168.723 144.568 164.3 144.896 161.342C145.225 158.384 145.703 153.334 145.972 150.136C146.271 146.61 146.391 142.995 146.301 141.023C146.211 139.2 145.912 136.929 145.673 135.943C145.404 134.957 144.926 133.612 144.598 132.955C144.299 132.297 143.462 131.042 142.745 130.206C142.058 129.339 141.251 128.652 141.012 128.622C140.743 128.622 140.474 128.652 140.414 128.742C140.325 128.801 138.532 129.01 136.38 129.22C134.259 129.399 132.466 129.578 132.436 129.608C132.377 129.637 132.635 131.911 132.955 134.734L132.974 134.897C133.332 137.766 133.84 142.726 134.109 145.923L134.587 151.72L133.84 151.242C133.84 151.033 133.512 147.298 133.093 142.965C132.705 138.602 132.227 133.971 132.048 132.656C131.898 131.341 131.749 130.086 131.749 129.877C131.749 129.668 131.36 129.518 130.703 129.518C130.135 129.518 129.717 129.399 129.777 129.279C129.866 129.16 131.301 128.981 133.004 128.861C134.707 128.741 137.576 128.443 139.368 128.174C141.191 127.905 144.269 127.277 146.241 126.829C148.213 126.351 151.381 125.425 153.263 124.767C155.176 124.11 157.984 123.034 159.538 122.347C161.122 121.66 162.497 121.002 162.616 120.883L162.855 121.929Z" fill="#200980"/>
<path d="M97.3554 65.1244C97.1463 65.3933 97.0566 65.6921 97.1761 65.8117C97.3255 65.9312 98.2519 65.9013 99.2678 65.722C100.314 65.5726 101.091 65.3037 101.061 65.1244C101.031 64.975 100.284 64.7957 99.3874 64.7359C98.222 64.6762 97.6841 64.7957 97.3554 65.1244Z" fill="#200980"/>
<path fill-rule="evenodd" clip-rule="evenodd" d="M110.085 64.7658C109.607 64.9152 109.248 65.1543 109.278 65.3037C109.308 65.4531 110.115 65.6324 111.071 65.6921C112.027 65.7519 113.043 65.9013 113.372 66.0208L113.969 66.2599C113.043 65.2738 112.386 64.8853 111.878 64.7359C111.34 64.5865 110.593 64.5865 110.085 64.7658ZM101.031 80.9316C101.24 81.2304 102.047 81.6786 102.764 81.9176C103.69 82.2762 104.676 82.3659 105.901 82.2463C106.888 82.1567 108.023 81.9475 108.382 81.7682C108.74 81.5591 109.009 81.3499 108.979 81.2602C108.949 81.1706 108.232 81.2602 107.396 81.4395C106.2 81.7085 105.543 81.6487 103.959 81.2602C102.913 80.9614 101.718 80.6626 101.33 80.573C100.702 80.4236 100.672 80.4833 101.031 80.9316Z" fill="#200980"/>
<path d="M76.4983 134.509C76.2593 134.598 76.08 134.897 76.1099 135.226C76.1367 135.52 76.2355 135.911 76.2988 136.161L76.3191 136.242C76.4087 136.481 76.827 136.69 77.2155 136.69C77.6637 136.69 78.0522 136.481 78.1717 136.182C78.2613 135.883 78.2613 135.345 78.1717 134.987C78.0522 134.598 77.7534 134.299 77.4545 134.329C77.1557 134.329 76.7374 134.419 76.4983 134.509Z" fill="#200980"/>
<path d="M119.169 134.778C118.78 134.867 118.661 135.136 118.691 135.853C118.78 136.69 118.9 136.839 119.527 136.839C120.185 136.839 120.274 136.72 120.274 135.823C120.274 135.256 120.155 134.778 119.976 134.748C119.796 134.688 119.438 134.718 119.139 134.778H119.169Z" fill="#200980"/>
<path fill-rule="evenodd" clip-rule="evenodd" d="M144.09 177.239C144.15 177.298 145.853 177.388 147.915 177.478C149.976 177.567 161.75 177.777 174.061 177.926C186.402 178.105 196.979 178.314 197.607 178.374C198.205 178.464 198.713 178.703 198.713 178.912C198.713 179.181 195.993 179.211 185.505 179.032C178.214 178.912 164.17 178.643 154.279 178.434C144.389 178.255 136.231 178.135 136.141 178.225C136.052 178.314 135.155 182.199 134.139 186.89C133.153 191.582 132.107 195.825 131.868 196.303C131.629 196.781 131.121 197.528 130.763 197.887C130.434 198.275 129.777 198.783 129.328 199.022C128.611 199.381 123.024 199.44 93.979 199.44C65.9205 199.44 59.2869 199.381 58.51 199.052C57.9721 198.813 57.1653 198.215 56.7171 197.707C56.239 197.169 55.7908 196.393 55.4322 195.197L50.8006 195.406C47.3942 195.556 45.7507 195.765 44.5256 196.213C43.6291 196.542 41.9558 197.14 40.7904 197.528C39.6549 197.916 37.2346 198.574 35.4118 198.992C33.6189 199.411 30.84 199.829 29.2862 199.919C27.4634 200.068 26.059 200.008 25.3418 199.769C24.5052 199.53 24.2064 199.261 24.2064 198.843C24.2064 198.514 24.3558 198.185 24.5052 198.096C24.6845 198.006 24.804 197.857 24.804 197.737C24.804 197.588 23.6685 197.438 22.294 197.349C20.9194 197.259 19.6644 197.08 19.515 196.96C19.3955 196.811 20.1425 195.855 21.2182 194.869C22.294 193.853 24.9235 191.492 27.0451 189.61C29.1965 187.727 31.9157 185.426 33.111 184.44C35.0234 182.886 35.4417 182.677 36.9955 182.528C37.9218 182.438 39.5055 182.05 40.4916 181.661C41.4777 181.303 42.8821 180.884 43.6291 180.795C44.3762 180.675 45.6611 180.735 46.4679 180.914C47.3045 181.093 48.4699 181.571 49.0974 181.96C49.695 182.378 50.6512 182.707 51.1891 182.707C51.6971 182.707 52.3246 182.587 52.5337 182.468C52.8326 182.289 52.8326 181.811 52.1154 177.478L27.1347 177.328C13.3894 177.239 2.06439 177.119 2.00462 177.03C1.91498 176.94 3.14011 176.79 4.72381 176.671C6.30752 176.522 17.6026 176.432 29.824 176.432C50.8006 176.432 51.9959 176.402 51.8764 175.924C51.7867 175.625 51.6373 174.908 51.5477 174.34L50.9799 171.86C50.9799 171.83 50.5317 169.38 49.964 166.422C49.3962 163.463 48.9181 160.087 48.9181 158.951C48.8883 157.457 49.0377 156.561 49.4261 155.814C49.7249 155.216 50.3226 154.38 50.7409 153.901C51.1891 153.453 52.0557 152.766 52.713 152.437C53.729 151.899 54.5358 151.78 57.5837 151.72C59.5857 151.66 61.2292 151.511 61.2292 151.391L62.4244 151.63C100.732 151.63 104.049 151.571 103.661 151.212L107.694 151.601C131.032 151.63 133.841 151.541 133.841 151.242L134.588 151.72C136.231 152.617 137.008 153.154 137.396 153.513C137.785 153.872 138.442 154.828 138.831 155.664C139.249 156.471 139.667 157.756 139.727 158.503C139.847 159.429 139.339 162.328 138.054 168.364L137.826 169.442C136.942 173.619 136.231 176.979 136.231 177.089C136.231 177.209 137.725 177.328 139.518 177.328H142.805L144.09 177.239ZM136.022 154.917C135.305 154.738 120.215 154.619 94.1284 154.619C56.0597 154.648 53.2509 154.678 52.2947 155.156C51.7569 155.425 50.9799 156.083 50.5915 156.561C50.0536 157.278 49.9042 157.846 49.9042 159.25C49.9042 160.236 50.6512 165.017 51.5477 169.858C52.474 174.699 53.8187 181.96 54.5358 185.994C55.2828 190.028 56.0896 193.912 56.3287 194.659C56.5677 195.406 57.0458 196.303 57.4343 196.661C57.7929 197.02 58.4801 197.468 58.9283 197.618C59.3766 197.797 60.781 198.036 62.0659 198.096C63.3508 198.185 78.8591 198.156 96.5488 198.036L97.0153 198.032C128.346 197.797 128.735 197.794 129.568 197.199C130.046 196.841 130.703 195.974 131.062 195.257C131.45 194.45 133.123 187.398 135.215 177.627C137.367 167.707 138.741 160.625 138.771 159.519C138.771 158.025 138.651 157.517 137.964 156.471C137.367 155.545 136.859 155.127 136.022 154.917ZM46.9759 181.81C46.3484 181.661 45.2427 181.512 44.5256 181.542C43.7786 181.542 42.3742 181.81 41.3881 182.109C40.402 182.408 39.4159 182.856 39.2366 183.066C38.9378 183.394 39.0872 183.454 40.1331 183.364C40.8203 183.305 42.1351 183.454 43.0913 183.723C44.2268 184.052 45.2427 184.589 46.0495 185.336C46.7069 185.934 47.5137 186.95 47.8424 187.578C48.1412 188.175 48.4102 188.892 48.4102 189.131C48.4102 189.37 48.5596 189.699 48.7388 189.819C48.9181 189.938 49.3365 189.669 49.7548 189.131C50.1433 188.653 50.5616 187.757 50.6512 187.189C50.7708 186.562 50.6811 185.665 50.4421 184.978C50.2329 184.35 49.6054 183.454 49.0675 182.976C48.5297 182.498 47.6034 181.99 46.9759 181.81ZM37.3541 183.454C37.3541 183.364 37.2346 183.334 37.1151 183.334C37.0752 183.344 36.9922 183.361 36.8815 183.383C36.6602 183.427 36.3282 183.494 36.0095 183.573C35.5015 183.693 34.6349 184.111 34.0672 184.56C33.4696 184.978 31.1388 186.98 28.838 188.982C26.5371 191.014 23.6984 193.524 22.5629 194.6L20.4712 196.512C27.1945 196.243 27.4634 196.153 31.0791 194.689C33.111 193.853 35.4118 192.807 36.1589 192.388L37.5035 191.612C35.86 190.357 35.2923 189.639 35.1728 189.191C35.0533 188.743 35.0831 187.817 35.2624 187.129C35.4417 186.412 35.9796 185.336 36.4577 184.739C36.9358 184.111 37.3541 183.544 37.3541 183.454ZM53.6991 186.741C53.0417 183.484 53.0119 183.454 52.1154 183.364C51.6074 183.334 51.1293 183.364 51.0098 183.454C50.8903 183.544 51.0098 184.111 51.2787 184.739C51.5776 185.456 51.6971 186.263 51.5776 187.04C51.458 187.697 51.0098 188.713 50.5616 189.281C50.0835 189.878 48.9181 190.685 47.8125 191.223C45.9599 192.09 45.691 192.12 41.9558 192.12H38.0713C35.5314 193.733 33.7385 194.659 32.4237 195.197L30.0332 196.153C32.8122 195.914 36.3083 195.645 39.5952 195.406C45.422 195.018 45.6013 194.988 48.1113 193.883C49.4859 193.285 51.5477 192.628 52.6832 192.448L54.7151 192.12L54.6723 191.889C54.3824 190.323 54.0408 188.478 53.6991 186.741ZM40.2526 184.739C40.9399 183.992 40.9399 183.902 40.4319 183.932C40.1331 183.932 39.3562 184.141 38.6988 184.38C38.0414 184.649 37.3242 185.008 37.1151 185.187C36.876 185.396 36.4876 186.084 36.2485 186.741C35.9796 187.428 35.86 188.295 35.9497 188.773C36.0692 189.221 36.4278 189.849 36.7565 190.177C37.0852 190.506 37.4438 190.775 37.5633 190.775C37.6828 190.775 37.892 190.177 38.0115 189.43C38.131 188.683 38.5195 187.518 38.8781 186.831C39.2067 186.113 39.8342 185.187 40.2526 184.739ZM44.7348 185.277C44.0475 184.858 43.0614 184.44 42.5534 184.35C41.7466 184.171 41.5375 184.291 40.8801 185.157C40.4618 185.695 39.894 186.472 39.655 186.89C39.386 187.309 39.0573 188.384 38.8482 189.281C38.6091 190.566 38.6091 190.984 38.9079 191.163C39.1171 191.283 40.7307 191.372 42.4937 191.372C44.7049 191.372 46.0495 191.223 46.7667 190.924C47.5137 190.596 47.8125 190.297 47.7826 189.819C47.7826 189.43 47.3942 188.444 46.8862 187.578C46.3085 186.522 45.5914 185.755 44.7348 185.277ZM54.8944 193.703C54.8346 193.165 54.6254 193.016 53.7888 192.956C53.1911 192.926 52.0258 193.106 51.1592 193.345C50.2927 193.584 49.0974 194.032 48.4699 194.361L47.3643 194.958C52.2051 194.689 53.9382 194.57 54.2968 194.51C54.7749 194.39 54.9541 194.181 54.8944 193.703ZM42.7028 196.004C42.7626 195.914 42.4339 195.885 41.9558 195.885C41.5471 195.91 39.828 196.067 37.9002 196.242L36.9059 196.333C34.605 196.542 31.7364 196.721 30.5412 196.721C29.3161 196.751 27.8818 196.96 27.2543 197.229C26.6268 197.468 25.9096 197.916 25.6108 198.185C25.3419 198.484 25.1626 198.813 25.2522 198.932C25.312 199.052 26.6268 199.142 28.1507 199.142C29.6746 199.142 32.0651 198.932 33.4696 198.664C34.8441 198.395 37.4736 197.737 39.2964 197.169C41.0893 196.572 42.6132 196.064 42.7028 196.004Z" fill="#15006A"/>
<path fill-rule="evenodd" clip-rule="evenodd" d="M89.6163 171.92C89.1979 172.039 88.3314 172.428 87.674 172.756C87.0166 173.085 86.1202 173.802 85.6719 174.31C85.2237 174.818 84.7755 175.625 84.656 176.073C84.5663 176.521 84.5365 177.478 84.5962 178.225C84.6859 178.972 85.1042 180.107 85.5225 180.765C85.9409 181.422 86.8074 182.318 87.4349 182.767C88.0624 183.185 89.2278 183.783 90.0047 184.022C90.7816 184.291 92.3355 184.5 93.4411 184.5C94.5467 184.5 96.1304 184.321 96.9372 184.081C97.7738 183.842 98.9691 183.245 99.6265 182.797C100.284 182.318 101.15 181.392 101.569 180.765C101.957 180.107 102.405 179.091 102.525 178.524C102.644 177.956 102.615 176.97 102.465 176.372C102.316 175.745 101.808 174.818 101.33 174.28C100.852 173.743 99.746 172.966 98.8496 172.577C97.5049 171.95 96.728 171.83 93.7996 171.741C91.9171 171.711 90.0346 171.77 89.6163 171.92ZM90.5426 172.607C89.7956 172.757 88.6003 173.175 87.8832 173.533C87.1362 173.922 86.3294 174.639 85.9708 175.237C85.4927 176.073 85.4031 176.671 85.4927 177.986C85.5823 179.301 85.8214 179.928 86.5385 180.824C87.0465 181.482 88.182 182.348 89.2279 182.856C90.692 183.574 91.3793 183.723 93.2319 183.753C94.4571 183.753 96.1304 183.574 96.9372 183.305C97.7739 183.066 98.999 182.378 99.7162 181.751C100.583 181.004 101.15 180.167 101.479 179.211C101.778 178.255 101.858 177.428 101.718 176.731C101.599 176.163 101.15 175.326 100.732 174.848C100.314 174.37 99.4771 173.743 98.9094 173.444C98.3416 173.175 97.1464 172.786 96.3097 172.607C95.4431 172.428 94.0985 172.278 93.3216 172.308C92.5148 172.308 91.2897 172.458 90.5426 172.607Z" fill="#15006A"/>
<path opacity="0.32" fill-rule="evenodd" clip-rule="evenodd" d="M43.7788 0.0431617C45.0936 0.132805 47.4841 0.431617 49.0977 0.760311C50.6814 1.05912 52.6236 1.5671 53.4304 1.8958C54.2073 2.19461 55.8508 2.94164 57.0759 3.56914C58.3011 4.19665 60.2433 5.33213 61.4087 6.13893C62.5741 6.91584 64.6359 8.73859 66.0403 10.2028C67.4447 11.6371 69.0583 13.5793 69.6559 14.4758C70.2536 15.3722 71.2098 17.0754 71.7775 18.2109C72.3751 19.3464 73.1819 21.2588 73.6002 22.3943C73.9887 23.5298 74.5863 25.6215 74.8553 27.0259C75.2138 28.6395 75.3931 30.8806 75.3931 33.1515C75.3931 35.303 75.1839 37.813 74.8851 39.4266C74.5863 40.8908 73.9588 43.1916 73.4807 44.5064C73.0026 45.8212 72.0464 47.9128 71.389 49.138C70.7018 50.3631 69.5962 52.1261 68.879 53.0225C68.1619 53.919 66.5483 55.682 65.2634 56.937C63.9486 58.192 61.7673 59.955 60.3629 60.8813C58.9585 61.7777 57.0759 62.8833 56.1795 63.2718C55.2831 63.6901 53.6695 64.2878 52.5938 64.6463C51.518 65.0049 49.7849 65.483 48.7092 65.722C47.6335 65.9312 45.6314 66.23 44.227 66.3197C42.733 66.4392 40.462 66.3794 38.699 66.1703C37.0555 65.9611 34.426 65.4531 32.8722 65.0049C31.3183 64.5567 28.6888 63.481 27.0453 62.6443C25.4019 61.8076 22.9815 60.2538 21.6667 59.2079C20.3519 58.1621 18.6786 56.6382 17.9614 55.8314C17.2443 55.0246 15.9893 53.411 15.1825 52.2755C14.3757 51.14 13.2402 49.3173 12.7023 48.2415C12.1645 47.1658 11.3876 45.3431 10.9692 44.2076C10.5808 43.0721 9.98316 40.9804 9.68435 39.576C9.29589 37.7831 9.14648 35.8408 9.14648 33.0021C9.17637 29.9542 9.32577 28.2809 9.83375 26.1295C10.1923 24.5756 10.9095 22.215 11.4473 20.9002C11.9553 19.5855 13.1506 17.3145 14.047 15.8802C14.9434 14.416 16.6467 12.2048 17.812 10.9498C18.9774 9.69479 20.9197 7.90192 22.1448 6.9756C23.3699 6.04928 25.2226 4.79427 26.2983 4.22653C27.374 3.62891 29.3163 2.73247 30.6311 2.25437C31.9458 1.77627 33.8881 1.14877 34.9638 0.879835C36.0396 0.610905 37.9221 0.282211 39.1472 0.132805C40.3723 0.0132806 42.464 -0.0464819 43.7788 0.0431617ZM48.7092 1.47743C47.4841 1.2085 45.004 0.939571 43.1812 0.879809C41.3584 0.820047 39.0875 0.879809 38.1014 1.02922C37.1153 1.2085 35.2926 1.56708 34.0674 1.89577C32.8423 2.19458 30.661 2.94161 29.1968 3.53924C27.7625 4.13686 26.5971 4.67472 26.5971 4.76437C26.5971 4.84672 27.2024 5.86219 27.9495 7.11571L28.151 7.45367C29.0175 8.85809 29.7347 10.0235 29.7347 10.0235C29.7347 10.0235 30.4817 9.66488 31.3781 9.27643C32.2746 8.85809 34.2467 8.17082 35.7109 7.75249C37.205 7.33415 39.5955 6.91581 41.0895 6.79629C42.9123 6.70664 44.6753 6.79629 46.6175 7.12498C48.1714 7.39391 49.4861 7.5732 49.516 7.54332C49.516 7.5168 49.5925 7.26092 49.7141 6.85395C49.8666 6.34358 50.0901 5.5956 50.3228 4.76437C50.7411 3.2703 51.0698 2.04518 51.0101 2.01529C50.9802 1.98541 49.9344 1.74636 48.7092 1.47743ZM53.5799 2.94161L51.6973 2.22446L51.4284 3.35995C51.3523 3.6644 51.2219 4.14721 51.0807 4.6701C50.9447 5.17364 50.7986 5.71436 50.6814 6.16878L50.2033 7.90189C53.55 9.42583 55.3429 10.4119 56.3289 11.0693C57.315 11.6968 58.8987 12.9817 59.8848 13.8781C60.841 14.7746 62.2155 16.3284 62.9028 17.3145C63.6199 18.3005 64.5463 19.8544 64.9945 20.7508L65.861 22.4839C65.861 22.5138 67.1758 22.0656 68.7296 21.468C68.9759 21.3685 69.2169 21.2713 69.4485 21.1779C70.6782 20.682 71.6423 20.2931 71.7178 20.2428C71.8074 20.1831 71.5982 19.5854 71.2695 18.8683C70.9408 18.181 69.9249 16.4778 68.9986 15.0734C68.0424 13.669 66.1598 11.4279 64.7255 10.0533C63.3211 8.70868 61.2593 7.00546 60.1537 6.28831C59.0182 5.57116 57.5242 4.67472 56.7771 4.31615C56.0301 3.92769 54.5958 3.33007 53.5799 2.94161ZM27.6729 7.51344C26.9557 6.22854 26.2386 5.1827 26.0891 5.1827C25.9397 5.1827 24.8043 5.89985 23.5791 6.73652C22.354 7.60308 20.4117 9.24654 19.2464 10.4119C18.1109 11.5773 16.5272 13.4598 15.7801 14.5953C15.0032 15.7606 13.8379 17.7926 13.1506 19.1671C12.4932 20.5118 11.9852 21.6771 12.0151 21.7369C12.045 21.7967 13.3598 22.2747 14.9136 22.7827C16.4973 23.2907 17.9017 23.709 18.0511 23.709C18.2304 23.709 18.7085 22.9321 19.0969 22.0058C19.5153 21.0496 20.4715 19.3464 21.2185 18.181C21.9954 17.0455 23.5492 15.1929 24.6847 14.0873C25.7903 12.9817 27.2545 11.6968 27.8521 11.2486C28.4796 10.8004 28.9876 10.2924 28.9577 10.1131C28.9577 9.96369 28.3601 8.76845 27.6729 7.51344ZM47.0359 8.0513C45.9004 7.78237 43.7489 7.60308 42.2549 7.60308C40.7907 7.63296 38.699 7.81225 37.6233 8.0513C36.5775 8.29035 34.8742 8.73857 33.8881 9.09714C32.9021 9.42583 31.6769 9.93381 31.169 10.2027L30.2426 10.7107C32.7228 15.0136 33.3204 15.7905 33.679 15.7606C33.9778 15.7308 35.1432 15.3423 36.2786 14.8642C38.1313 14.1471 38.8185 14.0574 41.8067 14.0275C43.7191 14.0275 45.7809 14.0873 46.4084 14.1471L47.5737 14.2965C48.8885 9.90393 49.2471 8.58916 49.2172 8.55928C49.1574 8.5294 48.2012 8.29035 47.0359 8.0513ZM53.3109 10.1729C52.1754 9.60512 50.9503 9.06726 50.5917 8.94773C50.024 8.76845 49.9045 8.94773 49.3367 10.7705C48.9782 11.906 48.6196 13.2207 48.5299 13.6988C48.3506 14.5654 48.4403 14.655 50.0838 15.4618C51.04 15.9101 52.6834 16.8961 53.6994 17.6133C54.7751 18.3603 56.1496 19.7348 56.9564 20.8106C57.7035 21.8265 58.5999 23.2011 58.9286 23.8585C59.2573 24.5158 59.586 25.0836 59.6457 25.1433C59.7055 25.1732 60.9306 24.725 62.3649 24.1274C62.6689 23.9944 62.9649 23.8654 63.2431 23.7441C63.3078 23.716 63.3718 23.6881 63.4344 23.6608C64.3735 23.2514 65.0699 22.9464 65.114 22.9023C65.2036 22.8425 64.9646 22.1552 64.5761 21.3783C64.1877 20.6313 63.2614 19.1073 62.4845 18.0316C61.7374 16.9858 60.5123 15.4917 59.7653 14.7746C59.0182 14.0574 57.7333 12.9518 56.8967 12.3542C56.0899 11.7267 54.4763 10.7406 53.3109 10.1729ZM30.2725 12.145C29.9737 11.6072 29.5852 11.1888 29.406 11.1888C29.2566 11.1888 28.5095 11.6669 27.7625 12.2347C27.0453 12.8323 25.7903 13.9379 24.9835 14.6849C24.2066 15.4618 22.8321 17.1651 21.9357 18.4798C21.0691 19.7946 20.083 21.5277 19.7245 22.3046C19.3958 23.0815 19.0969 23.8585 19.0969 24.0079C19.0969 24.1871 20.4117 24.725 22.0253 25.233C23.6389 25.741 24.9537 26.0995 24.9537 26.0697C24.9596 26.0577 24.98 26.0147 25.0125 25.9458C25.1425 25.6705 25.4676 24.982 25.8501 24.217C26.3282 23.2608 27.3442 21.707 28.0912 20.7807C28.8382 19.8544 30.1829 18.4798 31.1092 17.7328L32.7527 16.3882C31.2885 13.8483 30.6012 12.6829 30.2725 12.145ZM45.0936 14.7746C44.0478 14.5953 42.6135 14.4758 41.9561 14.4758C41.2987 14.5056 39.954 14.6849 38.9679 14.8941C37.9819 15.1033 36.428 15.5814 35.4718 15.9101L33.7387 16.5376C35.5615 20.0635 36.1591 20.8703 36.428 20.8106C36.697 20.7807 37.5038 20.5416 38.2209 20.2428C39.207 19.8544 40.4321 19.705 42.7031 19.705L45.8107 19.6751C46.9164 16.2089 47.2152 15.163 47.1554 15.1331C47.1061 15.1085 46.4659 15.0023 45.6386 14.8651L45.6374 14.8649C45.4632 14.836 45.2806 14.8057 45.0936 14.7746ZM50.263 16.418C49.3965 15.9997 48.5001 15.6411 48.2909 15.6411C48.0518 15.6411 47.6036 16.5376 47.1554 17.8822C46.7669 19.1073 46.5279 20.1532 46.5877 20.1831C46.6773 20.2428 47.4243 20.6313 48.2311 21.0197C49.0379 21.4381 50.2929 22.3046 51.0101 22.962C51.7571 23.6194 52.8328 24.9342 53.4305 25.8904L54.5062 27.5936C55.1369 27.3092 55.6601 27.0759 56.097 26.8811C56.7158 26.6053 57.1615 26.4066 57.4943 26.2489C58.0919 26.0099 58.6298 25.6812 58.6895 25.5019C58.7792 25.3525 58.5401 24.6354 58.1517 23.9481C57.7632 23.2309 56.8668 21.9759 56.2094 21.1094C55.5221 20.2428 54.2671 19.0177 53.4006 18.3603C52.534 17.7029 51.1296 16.8364 50.263 16.418ZM35.4718 21.468C33.679 18.1213 33.1112 17.1352 33.0515 17.1352C32.9618 17.1352 32.1849 17.7328 31.3184 18.45C30.4518 19.1671 29.1669 20.452 28.4796 21.3484C27.8223 22.2449 26.8959 23.709 26.4477 24.6055C25.9995 25.5318 25.7605 26.3386 25.88 26.4581C26.0294 26.5776 26.9258 26.9661 27.9119 27.2948C28.898 27.6235 29.8542 27.9223 30.0036 27.9223C30.1829 27.9223 30.5713 27.3247 30.9 26.6374C31.1988 25.9203 32.3642 24.486 33.4698 23.4102L35.4718 21.468ZM43.8087 20.3624C43.1214 20.2428 42.2848 20.1532 41.9561 20.1532C41.6274 20.1532 40.462 20.3922 39.3863 20.6612C38.2807 20.96 37.2348 21.3186 37.0556 21.468C36.8165 21.707 36.9958 22.4242 37.7727 24.0975L38.8185 26.3984C40.7907 25.7111 41.8963 25.5019 42.5537 25.5019L43.7489 25.5318C45.0338 21.9162 45.3326 20.8106 45.2131 20.7209C45.1235 20.6612 44.496 20.4819 43.8087 20.3624ZM48.2311 21.8863C47.4243 21.4082 46.5877 21.0197 46.3785 21.0197C46.1992 21.0197 45.751 22.0058 45.3924 23.2011C45.0338 24.3963 44.7051 25.472 44.6155 25.5916C44.5557 25.7111 45.0936 26.1294 45.7809 26.5179C46.4681 26.9063 47.3944 27.6235 47.7829 28.1315C48.2012 28.6096 48.6793 29.267 48.8287 29.5359C49.1276 30.0439 49.277 30.014 51.04 29.2072C52.0858 28.7291 53.0719 28.1912 53.2213 27.9821C53.3707 27.743 53.2213 27.1454 52.7432 26.3386C52.3547 25.6214 51.5181 24.5457 50.8906 23.9182C50.263 23.2907 49.0678 22.3644 48.2311 21.8863ZM72.8831 22.9023C72.4648 21.5277 72.166 21.0197 71.7775 21.0496C71.4787 21.0496 70.1639 21.5277 68.8492 22.0955C67.5344 22.6632 66.4288 23.2011 66.3391 23.2608C66.2794 23.2907 66.5184 24.486 66.9368 25.8605C67.5045 27.9522 67.624 28.998 67.624 32.3746C67.5941 35.4822 67.4447 36.9464 66.9965 38.6497C66.9785 38.7127 66.9605 38.7757 66.9427 38.8384C66.9284 38.8884 66.9143 38.9382 66.9001 38.9879C66.8716 39.0883 66.8434 39.1877 66.8155 39.2858C66.5313 40.2866 66.2887 41.1409 66.1897 41.339C66.0702 41.6677 66.8172 42.2055 69.148 43.3709C70.8811 44.2374 72.3453 44.8948 72.405 44.8649C72.4947 44.8052 72.7935 43.9087 73.1222 42.833C73.4509 41.7872 73.8991 39.9047 74.1082 38.6497C74.3174 37.4245 74.4967 34.795 74.4967 32.8228C74.4668 30.7012 74.2577 28.3406 73.9887 26.996C73.6899 25.7709 73.2118 23.9182 72.8831 22.9023ZM38.2209 26.6972C36.7269 23.2309 36.1591 22.215 35.9798 22.215C35.8304 22.215 35.173 22.6632 34.5156 23.2011C33.8583 23.7389 32.8124 24.9641 32.1849 25.9501C31.5574 26.9362 31.0494 27.8924 31.0494 28.0418C31.0494 28.2211 32.0654 28.7291 33.2905 29.1773C34.5455 29.6255 35.6213 29.9841 35.681 29.9841C35.7707 29.9841 36.0396 29.6255 36.2488 29.1773C36.4878 28.7291 37.0257 27.9821 37.444 27.5338L38.2209 26.6972ZM14.9136 23.5596C13.3598 22.9919 11.9852 22.5138 11.8657 22.5138C11.7163 22.5138 11.5669 22.6931 11.5071 22.9023C11.4175 23.1114 11.1485 24.0676 10.9095 25.0537C10.6704 26.0398 10.282 28.3406 10.1027 30.1335C9.80389 32.6734 9.80389 34.1077 10.0728 36.4086C10.282 38.052 10.6406 40.2931 10.9095 41.339C11.1784 42.4147 11.5071 43.3709 11.5968 43.4904C11.7163 43.6099 13.1207 43.2215 14.7642 42.6537C15.4016 42.4335 16.021 42.2223 16.5527 42.041L16.5542 42.0405C17.3927 41.7546 18.0128 41.5432 18.1407 41.4884C18.4097 41.3688 18.32 40.6816 17.7224 38.5899C17.0949 36.3488 16.9455 35.1535 16.9455 32.3746C16.9156 30.1634 17.0949 28.1912 17.4236 26.8466C17.6925 25.7111 17.8718 24.725 17.8419 24.6951C17.8121 24.6652 16.4973 24.1573 14.9136 23.5596ZM66.2495 25.741C65.9507 24.5457 65.5622 23.7389 65.3531 23.7389C65.1439 23.7688 63.9486 24.1871 62.6936 24.725C61.4386 25.233 60.333 25.741 60.2732 25.8306C60.2135 25.9501 60.333 26.8765 60.5422 27.9223C60.7513 28.998 60.9306 30.8805 60.9306 32.1654C60.9306 33.4204 60.7513 35.5121 60.4824 36.797C60.2434 38.052 60.0641 39.1277 60.1238 39.1576C60.1447 39.1785 60.7176 39.4318 61.5184 39.7858C61.8661 39.9395 62.2567 40.1122 62.6637 40.2931C64.0084 40.8609 65.2335 41.3091 65.3531 41.2493C65.4726 41.1896 65.8312 40.1437 66.1598 38.9186C66.6379 37.1855 66.7575 35.7811 66.7575 32.2252C66.7575 28.9383 66.6379 27.235 66.2495 25.741ZM24.2963 27.9223L24.3262 26.9362C20.0531 25.3824 18.7683 25.0238 18.7085 25.1433C18.6188 25.2629 18.4097 26.1593 18.2005 27.1454C17.9615 28.1315 17.7822 30.5518 17.8121 32.524C17.8121 35.2432 17.9615 36.7074 18.4694 38.5899C18.9177 40.2931 19.2464 41.0401 19.5452 41.0401C19.8141 41.0401 21.1587 40.6218 22.5632 40.0839C24.8043 39.2174 25.1031 39.0381 24.9537 38.5002C24.8486 38.2113 24.6281 37.2528 24.3936 36.2336C24.3613 36.0934 24.3288 35.9519 24.2963 35.8109C23.9676 34.3169 23.8779 33.0619 24.0572 31.3288C24.0952 30.7723 24.1385 30.1784 24.178 29.6354C24.232 28.8953 24.279 28.2498 24.2963 27.9223ZM59.825 28.1315C59.6159 27.1155 59.2872 26.3984 59.078 26.4282C58.8688 26.4282 57.823 26.8167 56.7473 27.2649C55.0739 28.0119 54.8349 28.2211 54.8946 28.8187C54.9544 29.2371 54.9843 30.8805 54.9843 32.524C54.9843 34.1675 54.9544 35.8408 54.8946 36.2293C54.8349 36.8568 55.0739 37.0659 56.8967 37.813C58.062 38.2911 59.078 38.6795 59.1378 38.6795C59.2274 38.6795 59.4963 37.8429 59.7354 36.797C60.0043 35.7811 60.1836 33.779 60.1836 32.3746C60.1836 31.0001 60.0043 29.0578 59.825 28.1315ZM26.0891 27.4741C25.7306 27.3546 25.372 27.4143 25.3122 27.5637C25.2226 27.6832 25.0134 28.9383 24.864 30.3128C24.6847 31.7172 24.6549 33.5698 24.7744 34.4663C24.9238 35.3926 25.1927 36.7074 25.4318 37.3946C25.6409 38.1118 25.9696 38.6795 26.119 38.6795C26.2983 38.6497 27.2246 38.3508 28.2107 37.9624C29.7944 37.3349 30.0036 37.1855 29.9139 36.558C29.8542 36.1396 29.7944 34.2272 29.8243 32.3148L29.8542 28.7889C27.4338 27.9223 26.4477 27.5936 26.0891 27.4741ZM54.2074 29.4761C54.1476 29.0877 53.9086 28.7889 53.6994 28.8187C53.4902 28.8187 52.6535 29.1175 51.8169 29.506C51.0101 29.8945 50.1435 30.253 49.9343 30.3128C49.6355 30.4024 49.516 31.1196 49.4861 32.9423L49.4264 35.4524C51.7571 36.0799 52.7731 36.3488 53.1615 36.4384C53.8189 36.5878 53.9384 36.4982 54.1476 35.6316C54.2671 35.0639 54.3866 33.6296 54.3568 32.3746C54.3568 31.1495 54.297 29.8347 54.2074 29.4761ZM35.2627 30.7311C32.3642 29.6853 31.2885 29.3865 31.0195 29.3865C30.6311 29.3865 30.4518 29.7749 30.2725 30.8208C30.1829 31.5977 30.2128 33.2412 30.4219 34.4663C30.6012 35.7213 30.8104 36.7373 30.9 36.797C30.9897 36.8269 32.0355 36.4982 33.2308 36.05L35.3822 35.2432L35.2627 30.7311ZM50.9802 36.4683L48.9184 35.7512L48.5001 36.5878C48.2909 37.0659 47.6335 37.7532 47.0658 38.1417L46.0498 38.7991C47.2749 41.6677 47.8128 42.6836 47.9921 42.8928C48.2909 43.2215 48.5001 43.1916 49.1873 42.6537C49.6654 42.2952 50.6216 41.3987 51.3089 40.6218C51.9962 39.8748 52.7731 38.8588 53.0121 38.3508C53.281 37.8727 53.3707 37.3946 53.2512 37.3349C53.1316 37.2751 52.1157 36.8867 50.9802 36.4683ZM36.4579 36.7671C36.2189 36.3488 35.8603 35.9902 35.7109 35.9902C35.5316 36.0201 34.5455 36.3787 33.4698 36.797C33.3025 36.8667 33.1389 36.935 32.9814 37.0007L32.8129 37.0709L32.8119 37.0714C32.0387 37.3939 31.4487 37.64 31.3781 37.6636C31.2885 37.7233 31.7068 38.4704 32.2746 39.3369C32.8423 40.1736 33.8583 41.3091 34.5156 41.8469C35.173 42.3549 36.0097 42.9525 36.3683 43.1318C36.7567 43.3111 37.1751 43.4605 37.3544 43.4605C37.5038 43.4605 37.9819 42.5043 38.4002 41.3091C38.9978 39.6058 39.0875 39.0979 38.7887 39.0082C38.5795 38.9186 38.0715 38.56 37.6532 38.2014C37.2348 37.8429 36.697 37.2154 36.4579 36.7671ZM58.8688 39.576C56.3289 38.4106 55.2831 38.0221 54.8946 37.9325C54.3269 37.813 54.058 38.0819 53.1018 39.576C52.4145 40.7115 51.3686 41.8469 50.263 42.6239C49.3367 43.3111 48.5001 43.9087 48.4702 43.9087C48.4104 43.9087 48.7391 44.7753 49.1574 45.851C49.6057 46.9267 50.0539 47.9128 50.1435 48.0323C50.263 48.1818 50.9503 48.0025 51.6973 47.6439C52.4444 47.2554 53.9683 46.0004 55.1337 44.8351C56.2692 43.6398 57.5839 41.9665 58.0322 41.1298L58.8688 39.576ZM31.3184 39.068C31.0195 38.5301 30.661 38.0819 30.5414 38.1118C30.4219 38.1118 29.4657 38.4405 28.39 38.8588C27.3143 39.2473 26.4178 39.6656 26.3581 39.7254C26.3282 39.815 26.6569 40.5919 27.1051 41.4286C27.5533 42.2952 28.8083 43.8789 29.8841 44.9845C30.9598 46.0602 32.5734 47.375 33.4698 47.8829C34.3662 48.3909 35.2029 48.8391 35.3224 48.8391C35.442 48.8391 35.8902 47.9726 36.3085 46.8969C36.7269 45.8211 37.0556 44.8351 37.0556 44.6558C37.0556 44.5064 36.3384 43.9087 35.4718 43.3709C34.6053 42.833 33.4399 41.8469 32.8722 41.1896C32.3343 40.562 31.6172 39.6058 31.3184 39.068ZM47.4542 43.6099C45.99 40.2334 45.4223 39.2772 45.2729 39.2772C45.0936 39.2772 44.7051 39.4564 44.3764 39.6357C44.0179 39.815 42.9123 39.9047 41.7469 39.8449L39.7449 39.7254L38.2508 44.0582C39.5058 44.4167 41.1792 44.5064 42.733 44.5064C44.5557 44.5064 45.9004 44.3271 46.5279 44.0582L47.4542 43.6099ZM65.0244 42.2653C64.9646 42.1756 63.859 41.6677 62.5741 41.0999C61.6735 40.7315 60.829 40.3771 60.3383 40.1712L60.3371 40.1707L60.3365 40.1704L60.3336 40.1692C60.1105 40.0756 59.9614 40.013 59.9147 39.9943C59.7354 39.9345 59.1378 40.7115 58.57 41.7274C58.0023 42.7135 56.7771 44.2972 55.8807 45.2235C54.9843 46.1498 53.4006 47.4048 52.3547 48.0323L50.5021 49.138C52.3248 53.2018 53.0121 54.397 53.1914 54.4568C53.3408 54.4867 54.5361 53.8592 55.7911 53.0524C57.076 52.2456 59.078 50.5723 60.2732 49.3172C61.4685 48.0622 63.0522 46.0004 63.7693 44.7454C64.5164 43.4605 65.0841 42.3549 65.0244 42.2653ZM25.9099 40.8609C25.7903 40.4724 25.4616 40.2035 25.1628 40.2035C24.8939 40.2035 23.609 40.5919 22.354 41.0103C21.099 41.4585 19.9934 41.9366 19.9037 42.0561C19.7842 42.1756 19.9934 42.833 20.352 43.5502C20.7105 44.2374 21.4874 45.5522 22.1149 46.4486C22.7425 47.3451 24.1469 48.9885 25.2824 50.0643C26.4178 51.14 28.0912 52.5145 28.9876 53.1122C29.8841 53.7098 31.1391 54.397 31.7367 54.666C32.8423 55.1142 32.8722 55.0843 33.2009 54.4568C33.41 54.0684 33.8583 52.9329 34.2467 51.9169C34.6352 50.8711 34.9639 49.9447 34.9639 49.8252C34.9639 49.7057 34.1272 49.0782 33.1112 48.4507C32.0654 47.8232 30.6909 46.8371 30.0335 46.2096C29.3761 45.612 28.2107 44.2972 27.4637 43.3111C26.7167 42.325 25.9995 41.2194 25.9099 40.8609ZM19.1268 42.6537C19.1268 42.4446 18.9475 42.2952 18.7384 42.2952C18.5292 42.325 16.9754 42.8031 15.2423 43.341C13.5092 43.9087 12.0749 44.4167 12.0151 44.4466C11.9553 44.4765 12.2541 45.3132 12.6127 46.2992C13.0012 47.2853 14.1068 49.2874 15.0331 50.7217C15.9594 52.156 17.6925 54.3373 18.8878 55.5923C20.083 56.8473 21.9357 58.5207 23.0114 59.2976C24.0871 60.1044 25.9696 61.2996 27.1948 61.957C28.4199 62.6443 29.5852 63.1821 29.7944 63.1821C30.0036 63.1821 30.3323 62.6144 30.5116 61.9271C30.6909 61.21 31.2287 59.5665 31.7367 58.2517C32.2447 56.9369 32.5435 55.8313 32.3941 55.8015C32.2447 55.7417 30.9897 55.0843 29.5853 54.3074C27.892 53.3512 26.2485 52.0763 24.6549 50.4826C23.1907 49.0483 21.607 47.0762 20.6806 45.5522C19.8141 44.1478 19.1268 42.8629 19.1268 42.6537ZM68.8193 44.088L65.7415 42.5641L65.114 43.849C64.7554 44.5362 63.8889 45.9108 63.2016 46.8969C62.5143 47.8829 60.9904 49.5862 59.8848 50.632C58.7493 51.7077 56.8369 53.1719 55.6417 53.8592C54.4464 54.5464 53.4902 55.2935 53.4902 55.5026C53.4902 55.7118 54.0281 56.9369 54.6855 58.2517C55.3727 59.5665 56.1496 60.9709 56.4485 61.3892L56.9863 62.1363C59.7055 60.5227 61.4386 59.2976 62.604 58.3712C63.7395 57.4748 65.2335 56.1302 65.8909 55.3831C66.5782 54.666 67.7137 53.2616 68.4308 52.2755C69.1778 51.2894 70.3133 49.4666 70.9707 48.1818C71.6281 46.9267 72.1062 45.8211 72.0166 45.7614C71.9269 45.6717 70.4926 44.9247 68.8193 44.088ZM48.7092 46.5084C48.2311 45.4028 47.7231 44.4765 47.6036 44.4466C47.4542 44.4167 46.6773 44.596 45.8406 44.8351C44.7948 45.1638 43.5697 45.2534 41.6573 45.1638C40.1931 45.104 38.7887 44.9247 38.5197 44.8351C38.191 44.6558 37.8922 45.104 37.2647 46.7176C36.8165 47.8829 36.428 48.9288 36.428 49.0483C36.428 49.1678 37.2647 49.4666 38.3106 49.7356C39.3265 49.9746 41.3883 50.1539 42.8525 50.1539C44.6454 50.1539 46.1992 49.9447 47.4542 49.5563C48.5001 49.2276 49.4264 48.869 49.4861 48.7495C49.5459 48.63 49.1873 47.614 48.7092 46.5084ZM51.2192 52.2456C50.5619 50.8113 49.9642 49.6161 49.8746 49.5862C49.7551 49.5563 48.8885 49.7655 47.9323 50.0942C46.9462 50.393 45.004 50.7217 43.5995 50.8113C41.8365 50.9308 40.3126 50.8412 38.5197 50.4826C37.1452 50.2137 35.9201 50.0942 35.8005 50.2436C35.7109 50.3631 35.2029 51.5583 34.6949 52.8731C34.187 54.1879 33.7387 55.3532 33.7387 55.4728C33.7387 55.5923 34.7248 55.9509 35.9201 56.2198C37.4739 56.6083 39.3265 56.7577 42.4043 56.7577C46.0498 56.7577 47.1554 56.6381 49.1276 56.0704C50.4423 55.6819 51.7272 55.2636 51.9663 55.1142C52.3547 54.8751 52.2352 54.4568 51.2192 52.2456ZM54.4464 59.0585C53.4902 57.2358 52.5938 55.7417 52.4145 55.7417C52.2651 55.7716 51.04 56.1003 49.7252 56.4887C48.4104 56.8772 46.3486 57.3553 45.0936 57.5346C43.8685 57.7139 41.8664 57.7736 40.6114 57.6541C39.3863 57.5346 37.2647 57.176 35.9201 56.8174C34.5754 56.4588 33.41 56.2198 33.3503 56.3094C33.2905 56.3692 32.7527 57.8035 32.155 59.447C31.5574 61.0904 31.0494 62.7339 31.0494 63.0925C31.0494 63.72 31.3781 63.8395 34.426 64.5567C36.2786 64.975 39.1174 65.3933 40.7608 65.4531C42.7031 65.5726 44.8247 65.4531 46.7371 65.1543C48.3805 64.9152 51.0101 64.2877 52.5639 63.7797C54.1476 63.2718 55.5819 62.7638 55.7911 62.6443C56.0899 62.465 55.7313 61.5685 54.4464 59.0585Z" fill="#04FFE1"/>
<path fill-rule="evenodd" clip-rule="evenodd" d="M148.719 2.25435C149.167 2.22447 149.227 2.46352 149.107 4.01734C148.988 5.60104 149.018 5.78033 149.496 5.66081C149.765 5.60104 151.677 5.33211 153.739 5.09306C155.801 4.85401 158.609 4.5552 162.554 4.25639L162.345 6.76641C162.324 7.07488 162.303 7.37392 162.284 7.65198L162.284 7.65304L162.284 7.65373L162.284 7.65502L162.284 7.65615L162.284 7.65696C162.22 8.58847 162.172 9.28333 162.195 9.30631C162.225 9.33619 164.078 9.09714 166.289 8.76845C168.5 8.46964 170.771 8.20071 171.309 8.20071C171.847 8.20071 172.265 8.35011 172.295 8.55928C172.325 8.76845 172.325 10.7406 172.295 12.8921C172.265 15.8802 172.355 16.8663 172.654 16.8663C172.833 16.8663 174.686 16.5376 176.747 16.1491C179.556 15.5814 180.542 15.4917 180.692 15.7607C180.811 15.9698 181.259 17.5834 181.708 19.4062C181.784 19.7113 181.858 20.0103 181.93 20.2971L181.934 20.3152C182.281 21.7052 182.555 22.8035 182.604 22.9023L182.993 24.7549C183.446 26.9186 183.787 28.5299 184.037 29.7138C184.429 31.5708 184.6 32.3764 184.636 32.6136C184.785 33.2411 184.666 33.3009 181.887 33.779C180.273 34.0479 178.779 34.3467 178.54 34.4364L176.688 35.0938C176.478 35.0938 173.938 35.7512 171.07 36.5878C168.201 37.4245 165.632 38.0819 165.392 38.0819C165.034 38.0819 164.914 37.4544 164.765 35.034C164.675 33.3308 164.496 31.777 164.406 31.5678C164.227 31.2989 162.972 31.269 153.291 31.5977L153.739 27.3247H152.932C152.454 27.3247 150.004 27.5338 147.464 27.7729C144.924 28.0119 142.384 28.2809 140.89 28.5199V26.8765C140.89 25.3824 140.83 25.233 140.232 25.233C139.844 25.233 137.125 25.4422 134.167 25.6812C131.208 25.9203 128.758 26.0995 128.698 26.0398C128.668 26.0099 128.967 22.2748 129.386 17.7627C129.804 13.2506 130.252 8.67881 130.581 5.66081L135.81 4.67473C137.071 4.43834 138.545 4.15579 139.969 3.88286C141.785 3.53478 143.52 3.20236 144.625 3.00138C146.597 2.61292 148.45 2.28423 148.719 2.25435ZM148.211 4.97351C148.3 3.95755 148.271 3.12088 148.151 3.15076C148.109 3.16121 147.614 3.25216 146.791 3.40311C145.263 3.68356 142.607 4.17113 139.635 4.73446C135.093 5.57114 131.328 6.31817 131.268 6.40781C131.179 6.49745 130.82 10.1131 130.461 14.4757C130.103 18.8384 129.714 23.1114 129.595 23.978L129.386 25.5617C130.76 25.3226 133.121 25.0238 135.511 24.7847C137.902 24.5158 141.607 24.0377 143.729 23.709L147.613 23.0815C147.942 10.5015 148.121 6.01935 148.211 4.97351ZM171.518 11.398C171.638 9.03735 171.578 8.76842 171.13 8.82819C170.92 8.82819 169.808 8.97597 168.366 9.1676L168.364 9.16787L168.136 9.19829C167.591 9.27064 167.006 9.34823 166.408 9.42581C164.108 9.72462 162.195 10.0234 162.165 10.0533C162.135 10.0832 161.956 11.6669 161.807 13.5494C161.657 15.4618 161.448 19.0774 161.329 21.6173L161.149 26.2489C158.072 26.6075 156.548 26.7868 155.801 26.8764L154.456 27.0557L154.277 30.7311C161.837 30.3725 165.572 30.1335 167.454 29.9841C169.367 29.8048 171.04 29.6255 171.189 29.5657C171.399 29.506 171.428 28.3406 171.279 26.219C171.13 24.4262 171.1 20.96 171.189 18.4798C171.279 16.0296 171.428 12.8323 171.518 11.398Z" fill="#003FFF"/>
<path opacity="0.48" fill-rule="evenodd" clip-rule="evenodd" d="M50.651 79.6466C50.8303 79.6167 52.5933 82.8738 54.5953 86.848C56.5974 90.8521 59.0178 95.9916 60.0038 98.2925C61.0198 100.593 61.8864 102.834 61.976 103.313C62.1254 104.03 61.9461 104.269 60.5118 105.404C59.6453 106.091 56.6273 108.094 53.8782 109.857C51.1291 111.59 46.8262 114.159 44.376 115.534C41.8958 116.908 39.2962 118.223 38.6089 118.462C37.4136 118.881 37.2941 118.881 36.7563 118.313C36.4574 117.984 33.8877 112.576 31.1087 106.301C28.2999 99.9957 25.999 94.6171 25.999 94.3482C25.999 93.9896 26.8955 93.2426 28.4493 92.2565C29.8238 91.4198 33.1406 89.4477 35.8598 87.8938C38.579 86.3101 42.9417 83.83 45.5712 82.3658C48.2008 80.8718 50.4717 79.6466 50.651 79.6466ZM53.1909 85.5033C51.8762 82.7542 50.6809 80.5132 50.5614 80.5132C50.4419 80.5132 47.7824 82.0371 44.6449 83.9196C40.1329 86.6089 38.9974 87.4157 39.087 87.8639C39.1468 88.1627 40.2524 90.6429 41.5373 93.3621C42.8222 96.0514 43.9875 98.3224 44.1071 98.3821C44.2565 98.412 45.6908 97.6351 47.3342 96.6191L47.6089 96.4443C49.2497 95.4004 51.5953 93.9079 52.9519 93.0035C54.3862 92.0473 55.5814 91.0911 55.5814 90.8819C55.5814 90.6728 54.5057 88.2524 53.1909 85.5033ZM43.629 100.175C43.7485 100.265 45.0633 102.954 49.2765 111.888L48.1709 112.576C47.5434 112.964 45.8402 113.95 44.3461 114.787C42.8819 115.624 40.7604 116.759 37.5631 118.313L37.085 117.596C36.816 117.207 35.5909 114.637 34.3957 111.918C32.304 107.197 32.2143 106.928 32.7522 106.54C33.051 106.331 35.5909 104.747 38.3699 103.044C41.1488 101.34 43.5393 100.055 43.629 100.175Z" fill="#003FFF"/>
<path fill-rule="evenodd" clip-rule="evenodd" d="M176.272 108.153L177.856 109.378C178.722 110.036 179.918 111.171 180.515 111.918C181.113 112.636 181.68 113.412 181.77 113.622C181.89 113.831 180.963 114.936 179.38 116.46C177.945 117.805 173.882 121.719 170.326 125.126C166.8 128.532 163.841 131.311 163.752 131.311C163.662 131.311 163.453 129.249 163.304 126.71C163.154 124.17 162.945 122.018 162.855 121.929L162.616 120.883C162.766 120.793 162.646 117.476 162.407 113.532C162.168 109.588 162.019 106.241 162.108 106.121C162.168 106.002 163.214 105.763 164.409 105.554C165.604 105.374 167.367 105.315 168.353 105.434C169.34 105.554 171.103 105.972 172.238 106.36C173.403 106.749 174.599 107.167 174.927 107.287L176.272 108.153ZM171.431 106.749C170.236 106.36 168.861 106.211 166.949 106.241C165.425 106.271 163.871 106.331 163.513 106.39C162.945 106.48 162.825 106.689 162.825 107.765C162.825 108.482 162.975 110.783 163.124 112.934C163.274 115.056 163.543 119.15 163.722 122.048C163.901 124.917 164.11 127.875 164.2 128.622L164.349 129.967C171.401 123.004 175.166 119.389 177.258 117.416C180.665 114.189 181.023 113.771 180.694 113.233C180.515 112.904 179.649 111.918 178.782 111.052C177.886 110.185 176.272 108.99 175.166 108.392C174.061 107.765 172.387 107.048 171.431 106.749Z" fill="#0233C6"/>
<path d="M183.414 116.669C183.593 116.669 184.489 117.387 185.356 118.253C186.193 119.09 187.418 120.614 188.015 121.6C188.613 122.586 189.39 124.259 189.778 125.335C190.167 126.471 190.495 128.323 190.585 129.817C190.645 131.222 190.555 133.224 190.376 134.299C190.167 135.375 189.898 136.451 189.748 136.69C189.509 137.078 188.912 137.048 184.758 136.451C182.159 136.092 177.766 135.525 174.957 135.196C172.148 134.837 168.712 134.389 167.248 134.15C165.814 133.911 164.648 133.642 164.648 133.552C164.648 133.463 165.545 132.536 166.65 131.491C167.786 130.445 170.834 127.666 173.433 125.305C174.564 124.29 175.805 123.17 176.957 122.13L176.973 122.117L176.98 122.11L176.982 122.108C178.499 120.739 179.859 119.512 180.605 118.851C181.949 117.656 183.204 116.669 183.384 116.669H183.414Z" fill="#0233C6"/>
<path fill-rule="evenodd" clip-rule="evenodd" d="M168.861 136.361C171.252 136.69 176.78 137.497 181.173 138.184C185.595 138.841 189.27 139.379 189.39 139.379C189.539 139.379 189.509 140.335 189.39 141.531C189.27 142.726 189.001 144.31 188.822 145.057C188.643 145.804 188.045 147.387 187.507 148.583C186.79 150.107 185.894 151.332 184.459 152.766C183.354 153.901 181.591 155.306 180.515 155.904C179.439 156.501 178.334 157.039 178.035 157.129C177.676 157.248 177.318 156.979 176.81 156.202C176.421 155.575 173.762 151.302 170.893 146.7C168.025 142.098 165.365 137.766 165.007 137.078C164.648 136.361 164.409 135.793 164.439 135.793C164.464 135.793 164.835 135.842 165.437 135.921C166.251 136.027 167.487 136.189 168.861 136.361ZM188.792 140.066C188.732 140.037 185.057 139.469 180.635 138.811C177.434 138.317 173.831 137.777 171.326 137.401L171.324 137.401L171.323 137.401C170.345 137.254 169.535 137.132 168.981 137.048C167.009 136.75 165.425 136.54 165.455 136.6C165.485 136.63 165.952 137.376 166.69 138.554L166.69 138.555C167.421 139.722 168.418 141.314 169.519 143.055C171.7 146.551 174.449 150.973 175.645 152.915C177.318 155.664 177.886 156.382 178.304 156.262C178.603 156.172 179.559 155.664 180.426 155.127C181.292 154.619 182.816 153.364 183.802 152.377C184.938 151.242 185.983 149.808 186.641 148.493C187.298 147.178 187.896 145.266 188.284 143.264C188.613 141.531 188.852 140.096 188.792 140.066Z" fill="#0233C6"/>
<path d="M183.413 116.669C183.593 116.669 184.489 117.387 185.356 118.253C186.192 119.09 187.417 120.614 188.015 121.6C188.613 122.586 189.39 124.259 189.778 125.335C190.166 126.47 190.495 128.323 190.585 129.817C190.645 131.222 190.555 133.224 190.376 134.299C190.166 135.375 189.898 136.451 189.748 136.69C189.509 137.078 188.911 137.048 184.758 136.451C182.158 136.092 177.766 135.524 174.957 135.196C172.148 134.837 168.712 134.389 167.248 134.15C165.813 133.911 164.648 133.642 164.648 133.552C164.648 133.463 165.544 132.536 166.65 131.491C167.785 130.445 170.833 127.666 173.433 125.305C174.564 124.29 175.805 123.17 176.957 122.13L176.972 122.117L176.98 122.11L176.981 122.108C178.499 120.739 179.859 119.511 180.605 118.851C181.949 117.656 183.204 116.669 183.383 116.669H183.413Z" fill="#003FFF"/>
</svg>
