<svg width="201" height="200" viewBox="0 0 201 200" fill="none" xmlns="http://www.w3.org/2000/svg">
<path fill-rule="evenodd" clip-rule="evenodd" d="M3.52052 172.352C5.71959 172.352 6.58139 172.382 5.45214 172.441C4.29317 172.501 2.51014 172.501 1.44032 172.441C0.370507 172.382 1.32146 172.352 3.52052 172.352ZM45.1245 177.672C48.6014 177.612 50.6816 177.701 50.7113 177.88C50.741 178.058 50.5627 178.236 50.325 178.325C50.0872 178.415 47.6504 178.474 44.8868 178.474C42.1528 178.474 39.4485 178.563 38.8839 178.652C38.0815 178.801 37.1009 179.603 34.5452 182.159C32.7325 183.972 29.731 187.389 27.8291 189.767C25.9569 192.144 24.2334 194.402 24.0551 194.818C23.847 195.235 23.7579 195.74 23.847 195.918C23.9956 196.215 26.6999 196.334 35.2287 196.483C41.4099 196.572 51.7811 196.75 58.2595 196.928C64.7675 197.077 70.4435 197.136 70.8892 197.047C71.6619 196.869 71.8996 196.423 74.485 189.529C75.5521 186.683 76.6044 183.926 77.2271 182.295C77.4889 181.609 77.6747 181.122 77.7539 180.911C78.2294 179.663 78.2294 179.603 77.6647 179.187C77.1893 178.831 75.3468 178.742 68.0067 178.712C63.0142 178.682 58.2595 178.712 57.4571 178.742C56.625 178.801 55.1392 178.742 54.0991 178.652C53.0887 178.563 52.2566 178.325 52.2566 178.177C52.2566 177.969 56.6547 177.909 64.9755 177.939C75.8223 178.028 77.7836 178.088 78.2294 178.474C78.5265 178.742 78.7346 179.336 78.7048 179.871C78.7048 180.406 78.4671 181.475 78.1402 182.248C77.9694 182.709 77.4451 184.084 76.7706 185.852L76.7655 185.865L76.7618 185.875L76.7564 185.889L76.7491 185.908L76.7431 185.924C76.2503 187.215 75.6797 188.711 75.1091 190.212C73.7421 193.808 72.3751 196.988 72.0779 197.255C71.6024 197.76 70.7704 197.79 60.3397 197.642C57.5362 197.601 53.9611 197.554 50.3431 197.507L50.299 197.506C45.9927 197.45 41.6296 197.393 38.4381 197.344C32.5541 197.255 26.789 197.107 25.6598 197.018C23.9956 196.899 23.4607 196.72 23.0447 196.215C22.5395 195.591 22.5395 195.532 23.1635 194.521C23.5201 193.957 25.0951 191.876 26.6702 189.945C28.2452 187.984 30.682 185.101 32.0787 183.556C33.4754 181.981 35.3476 180.079 36.2391 179.306C37.2197 178.474 38.2598 177.88 38.765 177.82C39.2405 177.761 42.0933 177.701 45.1245 177.672ZM39.5971 180.198L48.2448 180.376C52.9698 180.495 58.408 180.554 60.2802 180.554C62.1524 180.554 65.5104 180.643 71.8105 181L71.3944 182.04C71.127 182.605 70.0572 185.339 69.0171 188.132C67.9472 190.926 66.9071 193.303 66.7288 193.451C66.5505 193.6 57.992 193.719 47.7396 193.749C37.4575 193.749 29.0772 193.689 29.0772 193.541C29.0772 193.422 30.7711 191.223 32.881 188.637C34.9612 186.082 37.3386 183.14 38.141 182.1L39.5971 180.198ZM73.3558 182.605C73.6826 182.605 74.0095 182.872 74.0987 183.199C74.1581 183.526 74.1581 184.091 74.0393 184.477C73.9501 184.834 73.6529 185.368 73.3855 185.666C73.118 185.963 72.7317 186.201 72.5237 186.201C72.3157 186.171 72.0779 185.933 71.9591 185.666C71.8699 185.368 72.0185 184.566 72.2859 183.883C72.6425 182.991 72.9694 182.605 73.3558 182.605ZM71.3944 188.608C71.8996 188.697 71.9888 188.905 71.9591 189.885C71.9293 190.628 71.6619 191.312 71.3053 191.668C70.7704 192.203 70.6515 192.233 70.2355 191.817C69.968 191.579 69.76 191.223 69.76 191.015C69.76 190.807 69.9977 190.153 70.2652 189.588C70.6218 188.786 70.919 188.548 71.3944 188.608ZM120.398 183.199C121.081 183.199 121.943 183.407 122.33 183.645C122.686 183.912 122.983 184.239 122.983 184.388C122.983 184.566 122.419 184.685 121.735 184.685C120.903 184.685 120.22 184.477 119.804 184.091C119.417 183.764 119.12 183.437 119.12 183.348C119.12 183.288 119.685 183.199 120.398 183.199ZM124.469 181.267C124.439 181.178 121.824 181.149 118.645 181.149C115.465 181.178 112.82 181.297 112.731 181.446C112.642 181.594 112.612 181.773 112.672 181.832C112.701 181.862 114.752 183.437 117.189 185.279L121.646 188.608C122.211 186.914 122.151 186.735 121.497 186.201C121.111 185.874 120.398 185.517 119.952 185.428C119.506 185.368 119.209 185.16 119.269 184.982C119.358 184.834 119.18 184.477 118.912 184.239C118.615 183.972 117.842 183.526 117.189 183.229C116.059 182.694 116.03 182.664 116.683 182.367C117.129 182.129 117.397 182.129 117.486 182.308C117.575 182.486 118.318 182.605 119.12 182.605C120.071 182.605 120.665 182.486 120.725 182.248C120.814 181.951 120.933 181.951 121.26 182.248C121.468 182.456 122.151 182.634 122.775 182.634C123.578 182.605 123.964 182.456 124.172 182.01C124.35 181.684 124.469 181.357 124.469 181.267Z" fill="#15006A"/>
<path d="M64.7378 172.531L66.4317 172.709C67.3826 172.798 68.2741 172.917 68.4524 173.006C68.601 173.066 60.518 173.036 50.4736 172.947C40.4292 172.858 26.8187 172.768 20.2513 172.739C13.6838 172.709 8.21583 172.56 8.06724 172.441C7.94837 172.323 20.3701 172.233 35.6744 172.233C51.0085 172.233 63.6383 172.174 63.7571 172.085L64.7378 172.531Z" fill="#15006A"/>
<path fill-rule="evenodd" clip-rule="evenodd" d="M138.139 159.158L140.576 159.039C141.785 158.96 145.67 158.858 149.658 158.753L149.785 158.75C150.262 158.737 150.74 158.725 151.215 158.712C155.702 158.623 160.873 158.474 162.656 158.415C164.439 158.356 169.669 158.207 174.245 158.118C178.822 158.029 182.982 157.88 183.458 157.791C183.933 157.732 185.033 157.791 185.835 157.999C186.667 158.177 187.678 158.564 188.153 158.89C188.718 159.307 188.955 159.723 188.955 160.347C188.955 160.882 187.856 163.407 186.281 166.587C184.795 169.529 183.606 171.966 183.606 171.996C183.606 172.055 186.192 172.144 189.312 172.204C192.462 172.263 195.731 172.352 196.533 172.382C197.185 172.382 198.165 172.419 198.974 172.449L198.994 172.449C199.21 172.457 199.413 172.465 199.594 172.471C200.515 172.501 201.08 172.65 200.991 172.828C200.902 173.006 197.573 173.125 191.986 173.155C187.143 173.155 183.101 173.184 183.012 173.244C182.923 173.303 181.467 175.948 179.773 179.098C178.079 182.278 175.791 186.498 174.661 188.489C173.532 190.509 172.433 192.233 172.225 192.352C172.046 192.471 171.66 192.59 171.422 192.649C171.185 192.679 169.372 192.798 167.41 192.887C165.449 192.976 163.636 193.125 163.399 193.184C163.161 193.243 160.694 193.392 157.901 193.481C155.108 193.6 152.79 193.719 152.7 193.778C152.611 193.838 149.729 193.957 146.311 194.046C142.894 194.165 138.882 194.313 137.396 194.373C135.91 194.432 131.274 194.61 127.055 194.729C120.368 194.937 119.417 194.908 119.417 194.521C119.447 194.284 119.833 193.065 120.309 191.847C120.814 190.628 121.2 189.44 121.2 189.232C121.2 189.053 121.022 188.816 120.814 188.756C120.636 188.697 118.585 187.241 116.297 185.547C114.009 183.883 111.721 182.189 111.245 181.802C110.74 181.446 110.413 181.089 110.502 181C110.591 180.941 111.245 180.822 111.988 180.733C112.731 180.673 115.911 180.614 124.766 180.554L125.064 179.722C125.242 179.276 125.331 178.89 125.301 178.86C125.242 178.831 120.606 178.742 114.96 178.682C109.313 178.593 104.529 178.623 104.321 178.712C104.054 178.86 104.262 179.187 105.064 179.782C105.688 180.287 108.6 182.575 111.542 184.863C114.484 187.181 117.189 189.261 117.575 189.499C117.931 189.737 118.229 190.183 118.229 190.51C118.229 190.836 118.05 191.609 117.842 192.233C117.664 192.827 117.397 193.333 117.248 193.333C117.129 193.333 113.622 190.658 109.462 187.389C105.302 184.12 101.884 181.297 101.884 181.149C101.884 181 102.062 180.198 102.627 177.939L106.639 177.999H106.64C108.84 177.999 114.1 177.999 125.955 177.88L127.381 173.868L119.447 173.63C115.108 173.511 105.331 173.422 97.7238 173.422C96.6636 173.422 95.5648 173.421 94.4474 173.419C87.5471 173.405 79.9419 173.35 76.3869 173.274C72.2859 173.184 68.8982 173.036 68.8982 172.887C68.8982 172.768 71.8699 172.65 75.5251 172.65C78.17 172.628 82.0801 172.606 88.0747 172.573L88.0948 172.573L88.4414 172.571L88.7659 172.569L89.0205 172.568C91.0028 172.557 93.2016 172.544 95.6436 172.531L96.5946 172.679C96.6243 172.887 98.9719 172.917 103.34 172.828C109.521 172.679 110.056 172.65 109.967 172.144C109.938 171.847 110.086 171.639 110.354 171.639C110.621 171.639 110.74 171.817 110.651 172.085C110.562 172.382 110.74 172.56 111.156 172.65C111.542 172.709 115.435 172.739 127.827 172.679L129.878 167.627C131.007 164.834 132.255 162.13 132.671 161.595C133.057 161.09 133.949 160.376 134.632 160.079C134.974 159.937 135.364 159.767 135.727 159.609L135.728 159.609L135.729 159.608L135.739 159.604L135.741 159.603C136.129 159.434 136.483 159.279 136.713 159.188L138.139 159.158ZM179.684 161.09C179.297 161 171.452 160.941 162.18 160.941C152.938 160.941 145.331 160.971 145.241 161.06C145.182 161.119 143.666 161.208 141.854 161.238C139.387 161.298 138.258 161.446 137.248 161.862C136.534 162.189 135.583 162.754 135.167 163.14C134.781 163.526 134.068 164.477 133.652 165.28C133.206 166.082 131.512 170.183 129.907 174.433C128.273 178.682 126.847 182.486 126.757 182.842C126.609 183.288 126.668 183.467 126.936 183.407C127.144 183.348 128.986 179.306 131.037 174.433C133.057 169.529 135.078 165.072 135.494 164.507C135.91 163.942 136.802 163.229 137.545 162.902C138.763 162.397 140.041 162.308 149.58 162.1C155.464 161.951 164.795 161.832 170.323 161.832C176.801 161.832 180.337 161.714 180.337 161.506C180.337 161.357 180.04 161.149 179.684 161.09ZM157.158 172.798C156.831 172.65 156.267 172.531 155.91 172.531C155.524 172.531 154.989 172.65 154.721 172.828C154.424 172.976 154.275 173.244 154.335 173.392C154.424 173.571 154.365 173.69 154.186 173.69C154.038 173.69 153.919 173.808 153.949 173.927C153.978 174.046 153.919 174.373 153.8 174.67C153.681 174.967 153.77 175.383 153.978 175.651C154.186 175.889 154.216 176.097 154.038 176.097C153.889 176.067 154.127 176.394 154.573 176.81C155.018 177.226 155.553 177.553 155.761 177.583C155.969 177.583 156.445 177.345 156.861 177.048C157.247 176.75 157.752 176.097 157.96 175.562C158.258 174.878 158.258 174.373 158.05 173.838C157.901 173.452 157.485 172.976 157.158 172.798ZM124.469 181.267C124.439 181.178 121.824 181.149 118.645 181.149C115.465 181.178 112.82 181.297 112.731 181.446C112.642 181.594 112.612 181.773 112.672 181.832C112.701 181.862 114.752 183.437 117.189 185.279L121.646 188.608C122.211 186.914 122.151 186.735 121.497 186.201C121.111 185.874 120.398 185.517 119.952 185.428C119.506 185.368 119.209 185.16 119.269 184.982C119.358 184.834 119.18 184.477 118.912 184.239C118.615 183.972 117.842 183.526 117.189 183.229C116.059 182.694 116.03 182.664 116.683 182.367C117.129 182.129 117.397 182.129 117.486 182.308C117.575 182.486 118.318 182.605 119.12 182.605C120.071 182.605 120.665 182.486 120.725 182.248C120.814 181.951 120.933 181.951 121.26 182.248C121.468 182.456 122.151 182.634 122.775 182.634C123.578 182.605 123.964 182.456 124.172 182.01C124.35 181.684 124.469 181.357 124.469 181.267ZM122.33 183.645C121.943 183.407 121.081 183.199 120.398 183.199C119.685 183.199 119.12 183.288 119.12 183.348C119.12 183.437 119.417 183.764 119.804 184.091C120.22 184.477 120.903 184.685 121.735 184.685C122.419 184.685 122.983 184.566 122.983 184.388C122.983 184.239 122.686 183.912 122.33 183.645Z" fill="#15006A"/>
<path fill-rule="evenodd" clip-rule="evenodd" d="M104.766 68.5208C105.153 68.5208 105.777 68.9071 106.193 69.4123C106.609 69.8878 106.936 70.5713 106.936 70.8982C106.936 71.4331 106.847 71.4033 105.896 70.601C105.331 70.1255 104.588 69.7095 104.261 69.7095C103.934 69.7095 103.578 69.5609 103.429 69.3826C103.31 69.2043 103.429 68.9368 103.667 68.7882C103.905 68.6397 104.41 68.5208 104.766 68.5208ZM95.4353 73.7807C95.5839 73.8401 95.7027 74.1076 95.673 74.3453C95.6433 74.5831 95.5244 74.7614 95.3759 74.7614C95.257 74.7614 94.8409 74.9991 94.4843 75.2666C94.1277 75.5637 93.8306 76.0392 93.8603 76.3067C93.8603 76.6038 93.7117 76.8416 93.5631 76.8416C93.3848 76.8416 93.2065 76.7227 93.1173 76.5444C93.0282 76.3661 93.1471 75.742 93.3848 75.1477C93.6523 74.4939 94.098 73.959 94.4843 73.8699C94.8409 73.751 95.257 73.7213 95.4353 73.7807ZM103.548 77.0793C103.816 77.1982 104.558 78.0897 105.212 79.0704C105.836 80.051 106.371 80.9723 106.341 81.1506C106.341 81.3289 106.074 81.8935 105.747 82.3987C105.42 82.9336 104.945 83.3793 104.707 83.3793C104.469 83.3793 104.261 83.201 104.261 82.993C104.232 82.8147 104.44 82.4284 104.707 82.1907C104.974 81.9529 105.183 81.5369 105.183 81.2991C105.153 81.0614 104.677 80.051 104.113 79.0704C103.518 78.0897 103.043 77.1982 103.043 77.0793C103.043 76.9604 103.281 76.9604 103.548 77.0793ZM104.61 87.7478C104.759 87.718 104.908 87.7775 104.997 87.8963C105.056 88.0449 104.789 88.3124 104.402 88.4907C103.986 88.6987 103.125 88.877 102.471 88.877C101.609 88.877 101.282 88.7581 101.282 88.4313C101.282 88.1044 101.698 87.9558 102.827 87.8963C103.689 87.8369 104.492 87.7775 104.61 87.7478ZM78.8234 117.851C78.9126 117.94 79.18 119.07 79.4475 120.377C79.5722 120.926 79.6917 121.464 79.7927 121.92L79.793 121.921C79.9326 122.55 80.0371 123.02 80.0715 123.141C80.131 123.319 80.1012 123.497 79.9527 123.497C79.8338 123.497 79.5069 122.398 79.2097 121.061C78.9423 119.694 78.7045 118.386 78.7045 118.148C78.7045 117.911 78.764 117.762 78.8234 117.851ZM80.1904 123.795C80.3687 123.795 80.6064 124.3 80.6659 124.924C80.755 125.518 80.7253 126.083 80.6362 126.172C80.547 126.261 80.4281 126.261 80.3687 126.172C80.3093 126.083 80.1904 125.518 80.0715 124.894C79.9229 124.151 79.9824 123.795 80.1904 123.795Z" fill="#0633BB"/>
<path fill-rule="evenodd" clip-rule="evenodd" d="M98.3178 52.0278C100.041 52.1169 102.181 52.3844 103.073 52.6518C103.964 52.9193 105.361 53.4839 106.193 53.9C106.995 54.316 108.333 55.2669 109.165 56.0396C109.967 56.8122 111.007 58.1495 111.453 58.9816C111.928 59.8137 112.255 60.5566 112.196 60.6457C112.166 60.7349 111.393 60.3189 110.502 59.7245C109.61 59.1302 108.838 58.8033 108.778 58.9816C108.749 59.1599 109.462 60.0217 110.383 60.8538C111.631 62.0722 112.136 62.7854 112.463 63.9146C112.701 64.717 112.879 66.1137 112.879 66.9458C112.879 67.9958 112.75 68.5208 112.493 68.5208C112.315 68.5505 111.928 68.3425 111.691 68.075C111.453 67.8076 111.156 67.5996 111.007 67.6293C110.888 67.6293 110.858 68.4019 110.918 69.3231C110.977 70.2741 111.393 72.5029 111.809 74.3156C112.225 76.1284 112.79 79.4567 113.087 81.7449C113.257 83.1976 113.415 84.4946 113.507 85.2557L113.508 85.2578L113.508 85.2616C113.561 85.6958 113.592 85.9539 113.592 85.9647C113.622 85.9945 113.919 85.935 114.306 85.8161C114.722 85.6676 114.9 85.4595 114.811 85.1624C114.722 84.9246 114.811 84.5383 115.019 84.3303C115.227 84.1223 115.732 84.0034 116.148 84.0331C116.683 84.0926 116.921 84.3303 116.98 84.8652C117.04 85.2812 116.891 85.6973 116.683 85.8161C116.386 85.9647 116.356 86.0836 116.683 86.4105C116.98 86.7077 116.861 87.302 115.167 92.1459L115.792 93.3346C116.386 94.4341 116.534 94.553 118.139 94.761C119.09 94.8799 120.398 95.2365 121.051 95.5337C121.705 95.8308 122.686 96.5143 123.221 97.0789C123.785 97.6436 124.439 98.5054 124.707 98.9808C124.944 99.4563 125.331 100.407 125.509 101.061C125.836 102.161 125.984 102.279 127.173 102.487C127.886 102.606 129.224 103.052 130.115 103.468C131.155 103.944 132.493 104.984 133.741 106.291C135.405 107.985 136.088 108.996 137.515 111.967C138.495 113.988 139.952 117.613 140.784 120.08C141.586 122.517 142.596 125.875 143.012 127.509C143.428 129.144 143.963 131.551 144.201 132.858C144.469 134.166 144.736 136.514 144.855 138.059C144.944 139.604 144.914 141.417 144.766 142.071C144.528 143.14 144.409 143.259 143.607 143.23C143.131 143.23 142.18 143.14 140.219 142.814L140.397 144.656C140.516 145.696 140.486 146.736 140.368 146.974C140.219 147.212 140.1 148.163 140.07 149.054C140.041 150.005 139.684 151.491 139.238 152.62C138.793 153.809 138.406 155.443 138.139 159.158C137.877 159.158 137.225 159.164 136.712 159.188C137.426 158.92 137.544 158.683 137.544 157.732C137.544 157.137 137.634 156.305 137.752 155.889C137.901 155.235 137.752 155.324 136.415 156.543C135.553 157.345 134.394 158.177 133.83 158.415C133.265 158.653 132.047 158.861 131.155 158.861C130.264 158.861 129.016 158.653 128.392 158.415C127.797 158.148 126.757 157.583 126.133 157.137C125.479 156.691 124.439 155.533 123.815 154.552C123.161 153.571 122.389 151.907 122.092 150.837C121.765 149.767 121.467 148.579 121.378 148.163C121.346 147.934 121.286 147.589 121.224 147.231L121.224 147.23C121.173 146.936 121.121 146.634 121.081 146.38C120.992 145.815 120.843 144.418 120.754 143.259C120.665 142.1 120.546 141.149 120.517 141.12C120.487 141.06 118.912 141.655 117.04 142.398L116.772 142.504C115.019 143.199 113.591 143.766 113.563 143.794C113.503 143.824 113.355 145.785 113.176 148.163C113.113 149.005 113.05 149.884 112.991 150.709L112.991 150.711L112.99 150.716L112.99 150.72L112.99 150.726C112.882 152.222 112.788 153.533 112.731 154.106C112.641 154.998 112.225 158.95 111.809 162.873C111.393 166.795 110.918 170.332 110.74 170.748C110.561 171.164 110.353 171.342 110.294 171.193C110.234 171.045 110.383 168.638 110.65 165.844L110.651 165.84L110.652 165.824C110.919 163.038 111.185 160.256 111.245 159.604C111.334 158.95 111.453 157.553 111.542 156.483C111.631 155.414 111.75 154.076 111.839 153.512C111.928 152.947 112.047 151.729 112.107 150.837C112.148 150.427 112.201 149.81 112.282 148.881L112.282 148.879L112.283 148.867C112.378 147.777 112.509 146.26 112.701 144.151L110.769 145.25C109.729 145.845 108.422 146.588 107.887 146.885C107.352 147.182 104.321 149.084 101.141 151.134C95.673 154.641 95.3461 154.879 95.5542 155.592C95.7027 156.127 95.673 156.275 95.4056 156.097C95.1976 155.978 95.049 156.038 95.049 156.186C95.049 156.335 95.1678 156.483 95.3461 156.483C95.4947 156.483 95.6433 156.691 95.6433 156.929C95.6433 157.197 95.4947 157.286 95.257 157.167C94.9895 157.018 94.9895 157.048 95.257 157.405C95.5244 157.732 95.4947 157.821 95.1678 157.821C94.8707 157.821 94.7518 157.464 94.7518 156.691C94.7518 156.097 94.6032 155.592 94.4546 155.592C94.2763 155.592 93.3254 156.097 92.2853 156.721C91.2749 157.345 89.3433 158.415 87.9763 159.099C86.639 159.782 84.3805 160.674 82.9244 161.09C81.498 161.506 79.388 161.922 78.2588 162.011C76.8918 162.13 75.4357 162.011 73.9498 161.714C72.7314 161.446 71.0375 160.911 70.2352 160.525C69.4031 160.139 67.9172 159.217 66.8771 158.445C65.8667 157.702 64.4106 156.246 63.6677 155.206C62.3304 153.423 62.271 153.393 62.4493 154.403C62.5681 154.968 62.7762 156.632 62.9545 158.118C63.1328 159.604 63.3408 161.327 63.4299 161.981C63.4702 162.424 63.5785 163.234 63.6904 164.071L63.6908 164.074C63.744 164.472 63.7981 164.876 63.846 165.25C63.9085 165.738 63.9815 166.288 64.0518 166.818L64.0527 166.825L64.0528 166.826L64.0537 166.833L64.0542 166.836C64.1501 167.559 64.2405 168.241 64.2917 168.667C64.3242 168.938 64.3606 169.264 64.4052 169.663L64.4054 169.665L64.4056 169.666C64.4835 170.363 64.5865 171.285 64.7375 172.531C64.5097 172.531 63.9948 172.442 63.7568 172.085C63.9054 171.996 63.7568 170.153 63.4597 167.984C63.1922 165.815 62.895 163.378 62.8059 162.575C62.7167 161.743 62.5681 160.882 62.5087 160.644C62.4493 160.406 62.3007 159.336 62.2115 158.267C62.1224 157.197 61.9144 155.265 61.7658 153.958C61.6172 152.65 61.3497 151.134 61.1714 150.599C61.0541 150.224 60.9831 149.997 60.8302 149.863C60.5961 149.658 60.17 149.672 59.0912 149.708C57.9323 149.767 57.1893 149.649 56.9516 149.411C56.7436 149.173 56.387 148.103 56.179 147.033C56.0007 145.934 55.7629 143.022 55.6738 140.585C55.5846 137.435 55.6441 136.573 55.8224 137.613C55.9709 138.415 56.2384 140.496 56.4167 142.219C56.595 143.943 56.8922 146.142 57.4568 148.906L59.537 148.846C60.696 148.816 62.1521 148.668 63.9946 148.163L63.4597 146.439C63.1625 145.518 62.8356 143.616 62.7464 142.219C62.5979 140.228 62.687 139.485 63.0733 138.713C63.3408 138.207 63.8163 137.613 64.1432 137.465C64.47 137.316 65.0941 137.197 65.5399 137.227C65.9856 137.286 66.58 137.673 66.9366 138.148C67.4417 138.861 67.6201 139.664 67.8281 142.903L67.8734 143.565L67.8734 143.566C68.0004 145.424 68.0986 146.861 68.1252 146.915C68.155 146.974 70.4135 146.32 73.2069 145.488C75.9706 144.626 79.0017 143.557 79.8932 143.111C80.7847 142.635 81.914 141.952 82.3895 141.565C82.8947 141.149 83.2216 140.615 83.2216 140.139C83.2216 139.723 82.9244 138.059 82.5678 136.424C82.4174 135.735 82.2512 134.993 82.0981 134.31L82.0974 134.307L82.0971 134.306C81.8875 133.37 81.7026 132.544 81.6168 132.115C81.4385 131.372 81.2899 130.362 81.2602 129.887C81.2602 129.411 81.1413 128.936 81.0225 128.847C80.9333 128.757 80.755 128.193 80.6659 127.569C80.547 126.915 80.6064 126.469 80.7847 126.469C80.9333 126.469 81.0225 126.737 80.9333 127.064C80.8442 127.39 80.9036 127.658 81.0819 127.658C81.2305 127.658 81.4682 128.163 81.5574 128.757C81.6465 129.381 82.2112 131.967 82.8352 134.493C83.4593 137.019 84.0536 139.277 84.1428 139.456C84.2914 139.723 84.5291 139.753 84.856 139.574C85.1532 139.426 86.9362 138.891 88.8084 138.386C90.6805 137.851 92.2853 137.375 92.3744 137.286C92.4636 137.197 92.2853 136.038 91.9881 134.701C91.8415 134.041 91.6224 133.098 91.3917 132.106L91.3907 132.102L91.39 132.099C91.1538 131.083 90.9055 130.015 90.7103 129.144C90.3239 127.42 89.6107 125.013 89.1353 123.795C88.6598 122.576 86.2527 117.346 83.7565 112.205C81.2602 107.064 79.0314 102.487 78.4074 101.21L76.238 102.131C75.0791 102.636 73.1474 103.617 72.0182 104.27C70.8592 104.954 68.8087 106.559 67.4715 107.896C66.1045 109.204 64.2026 111.403 63.2516 112.799C62.3304 114.196 61.2012 115.979 60.7851 116.811C60.3988 117.613 59.6856 119.159 59.2695 120.229C58.8238 121.298 58.0809 123.705 57.5757 125.578C57.1002 127.45 56.6247 130.065 56.5059 131.372C56.387 132.68 56.2681 133.512 56.2087 133.215C56.1492 132.948 56.0304 132.71 55.8818 132.71C55.7629 132.71 55.7629 131.878 55.8818 130.838C56.0007 129.827 56.3275 127.925 56.595 126.618C56.8625 125.31 57.4568 123.111 57.962 121.714C58.4672 120.318 59.537 117.851 60.3691 116.217C61.2012 114.582 62.6573 112.235 63.5785 111.016C64.4998 109.798 66.045 108.074 66.996 107.183C67.9469 106.321 69.6705 104.984 70.8295 104.241C71.9588 103.468 74.039 102.369 75.4357 101.774C77.6942 100.794 77.9616 100.615 77.8725 99.9912C77.7833 99.3969 78.3182 98.8025 80.6659 96.7521C82.2706 95.3553 84.5885 93.3049 87.9466 90.0657L87.5008 88.7879C87.0551 87.6289 86.9659 87.5397 85.8961 87.5397C85.3017 87.5397 84.3211 87.3912 83.7565 87.2129C83.1918 87.0048 82.33 86.5294 81.8843 86.0836C81.4385 85.6676 80.131 83.4388 78.972 81.1506C77.0998 77.3765 76.9215 76.8416 76.9215 75.2071C76.9215 74.2265 77.0998 72.9486 77.6644 71.2548L79.2989 72.1166C80.1904 72.5623 81.7357 73.0972 82.7164 73.3052C83.697 73.4835 85.1234 73.543 87.3225 73.2755V74.91C87.3225 76.0986 87.6494 77.4359 88.5112 79.7241C89.165 81.5072 89.6999 83.1119 89.6999 83.2902C89.6999 83.4982 89.5513 83.7359 89.4027 83.8251C89.2244 83.9142 88.8381 83.9142 88.5112 83.8251C88.1843 83.7359 87.6494 83.201 87.3225 82.6364C86.9956 82.0718 86.431 81.4477 86.0447 81.2694C85.5098 81.002 85.3017 81.0614 84.7966 81.5666C84.2319 82.1609 84.2319 82.2798 84.648 83.4388C84.9451 84.2411 85.4503 84.9544 86.1338 85.4001C86.6985 85.7864 87.1739 86.1728 87.1739 86.2916C87.1739 86.4105 87.5305 87.302 87.9763 88.2827C88.422 89.2633 89.0461 91.1355 89.373 92.4431C89.6999 93.7506 90.0268 95.5634 90.2942 98.0893L95.3461 101.418C98.1098 103.26 100.487 104.776 100.606 104.776C100.755 104.776 101.23 104.36 101.735 103.854C102.211 103.349 103.934 101.834 105.539 100.526C107.352 99.0106 108.511 97.8219 108.63 97.3464C108.719 96.9304 108.63 95.4742 108.451 94.0775C108.243 92.6808 108.124 91.5516 108.184 91.5218C108.243 91.5218 108.808 91.1355 109.462 90.66C110.116 90.1846 111.096 89.3822 111.631 88.9067C112.493 88.0746 112.582 87.8072 112.582 86.3511C112.582 85.4595 112.374 83.1119 112.107 81.1506C111.869 79.1892 111.304 75.9798 110.888 74.0185C110.472 72.0571 109.937 69.9175 109.67 69.2637C109.432 68.6099 108.689 67.2429 108.065 66.2028C107.144 64.6873 107.025 64.3604 107.441 64.3604C107.738 64.3604 108.749 64.6278 109.67 64.9547C111.215 65.4896 111.393 65.4896 111.304 65.0439C111.275 64.7764 110.71 64.3009 110.056 63.9443C109.165 63.4986 108.333 63.35 106.639 63.35C105.42 63.3797 103.607 63.6175 102.627 63.8849C101.646 64.1821 99.8334 64.925 98.615 65.5491C97.3966 66.1731 95.5244 67.3024 94.4546 68.0453C93.3848 68.7882 91.9881 69.7095 91.3343 70.1255C90.6805 70.5118 89.6702 70.9576 89.1055 71.0467C88.2437 71.225 87.9169 71.1359 87.1739 70.5118C86.5201 69.9472 86.2824 69.5014 86.2824 68.7585C86.2824 68.1939 86.5202 67.3915 86.7876 66.9458C87.1145 66.4406 88.2437 65.7274 89.6999 65.0142C91.0074 64.4198 92.0475 63.7958 91.9881 63.6175C91.9287 63.4392 91.5721 63.2906 91.156 63.2311C90.7697 63.1717 89.6404 63.4392 88.6598 63.7958C87.5008 64.2415 86.431 64.925 85.5989 65.7571C84.8857 66.5 84.2319 67.4807 84.0833 68.1345C83.8753 68.9665 83.905 69.5906 84.2022 70.4524C84.4399 71.1062 84.5885 71.6708 84.5588 71.7302C84.5291 71.76 84.1131 71.7005 83.6376 71.5816C83.0432 71.4033 82.6272 71.0467 82.3597 70.3632C82.1517 69.8581 81.9734 68.9665 81.9734 68.4316C81.9437 67.9264 82.2112 67.1241 82.5678 66.6486C82.8947 66.2028 83.1027 65.7274 83.0135 65.5491C82.9244 65.3708 82.7164 65.2519 82.5678 65.2519C82.3895 65.2519 81.8546 65.5788 81.3791 65.9948C80.6362 66.6189 80.4876 66.9755 80.4876 67.9859C80.4876 68.6991 80.6064 69.7095 80.7847 70.2147C81.0225 70.9576 80.9928 71.1953 80.6956 71.1953C80.5173 71.1953 79.8932 70.9279 79.3583 70.601C78.8531 70.2741 78.2291 69.7095 77.9913 69.3231C77.7536 68.9665 77.4861 68.1345 77.3673 67.4807C77.2781 66.8269 77.3078 65.4896 77.4564 64.509C77.605 63.5283 78.1696 61.8047 78.7045 60.6457C79.3583 59.3085 80.2498 58.0306 81.2305 57.0797C82.0923 56.2476 83.5782 55.1778 84.5291 54.6429C85.4801 54.1377 87.0253 53.5136 87.9169 53.2462C88.8084 53.0084 90.0268 52.7113 90.5914 52.5924L90.8135 52.5572C91.4466 52.4565 92.5469 52.2815 93.4145 52.1764C94.3952 52.0278 96.5943 51.9683 98.3178 52.0278ZM111.393 90.66C111.393 90.5709 111.304 90.5115 111.156 90.5115C111.037 90.5115 110.502 90.8681 109.967 91.3138C109.046 92.0865 108.986 92.2053 109.224 93.4237C109.343 94.1072 109.551 94.6719 109.7 94.6719C109.818 94.6719 110.234 93.8101 110.65 92.7402C111.066 91.6704 111.393 90.7492 111.393 90.66ZM88.9272 94.0775C88.6598 92.6808 88.3626 91.403 88.2437 91.2247C88.0654 91.0167 86.3716 92.4134 83.4296 95.177C79.8338 98.5054 78.8828 99.5752 78.9423 100.11C79.0017 100.467 81.1116 105.043 83.6673 110.273C86.1933 115.504 88.7489 120.853 89.3136 122.16C89.8782 123.468 90.532 125.191 90.7697 126.023C91.0074 126.826 91.6315 129.649 92.1664 132.234C92.731 135.057 93.2659 137.019 93.5037 137.078C93.7711 137.138 93.8306 136.365 93.7117 133.512C93.6225 131.521 93.2659 127.955 92.9688 125.578C92.6419 123.2 91.9287 118.059 91.3343 114.137C90.7697 110.214 90.2348 106.321 90.1456 105.519C90.0918 105.016 90.0055 103.972 89.9063 102.772L89.906 102.769L89.9056 102.764C89.8407 101.979 89.7703 101.128 89.6999 100.318C89.5216 98.2676 89.165 95.4742 88.9272 94.0775ZM115.554 94.6124C115.554 94.4044 115.375 93.9586 115.138 93.6318C114.722 93.0671 114.692 93.0671 114.425 93.8695C114.246 94.345 114.127 94.8502 114.098 94.9987C114.068 95.1473 114.217 95.2662 114.365 95.2662C114.543 95.2662 114.87 95.2068 115.108 95.1176C115.346 95.0285 115.554 94.7907 115.554 94.6124ZM121.051 96.3657C120.338 96.0091 119.06 95.712 117.931 95.6525C116.505 95.5634 115.554 95.712 114.365 96.128C113.474 96.4549 112.315 97.1384 111.839 97.6139C111.364 98.0893 110.65 99.0997 110.294 99.8426C109.908 100.586 109.67 101.328 109.759 101.507C109.848 101.685 110.116 101.804 110.353 101.804C110.591 101.804 110.888 101.566 111.007 101.299C111.096 101.002 111.453 100.407 111.75 99.9615C112.047 99.486 112.344 99.1591 112.433 99.2186C112.523 99.2483 112.315 99.8724 111.958 100.615C111.601 101.358 111.393 102.19 111.512 102.487C111.601 102.755 111.899 102.993 112.136 102.993C112.374 102.993 113.028 102.398 113.563 101.655C114.068 100.912 114.603 100.318 114.751 100.318C114.87 100.318 114.781 100.675 114.543 101.15C114.335 101.596 114.068 102.309 113.949 102.785C113.86 103.23 113.89 103.854 114.068 104.181C114.276 104.597 114.662 104.776 115.405 104.776C115.97 104.776 116.861 104.568 117.337 104.33C117.812 104.092 118.317 103.587 118.407 103.23C118.496 102.844 118.496 102.487 118.377 102.398C118.288 102.309 118.05 102.428 117.872 102.636C117.664 102.814 117.396 102.993 117.277 102.993C117.159 102.993 117.04 102.755 117.04 102.487C117.04 102.19 117.337 101.655 117.693 101.299C118.08 100.912 118.644 100.615 118.971 100.615C119.506 100.586 119.506 100.645 118.823 101.18C118.228 101.685 118.169 101.774 118.615 101.804C118.882 101.804 119.209 102.101 119.298 102.487C119.417 102.844 119.417 103.32 119.298 103.528C119.209 103.706 119.179 104.3 119.268 104.776L119.417 105.667C122.745 104.716 124.023 104.241 124.409 104.003C124.944 103.646 125.034 103.379 124.944 102.339C124.885 101.626 124.647 100.586 124.409 100.021C124.172 99.4563 123.577 98.5351 123.102 97.9705C122.626 97.4355 121.705 96.6926 121.051 96.3657ZM97.8721 104.003C96.416 103.082 94.3358 101.715 93.2659 100.942C92.817 100.618 92.3785 100.299 92.0076 100.029C91.4947 99.6559 91.1109 99.3767 91.0074 99.3077C90.7697 99.1591 90.6508 99.4563 90.6211 100.229C90.5914 100.853 90.7994 103.112 91.0372 105.221C91.2749 107.331 91.7504 110.838 92.0773 112.948C92.1365 113.369 92.2064 113.86 92.283 114.399C92.5902 116.56 93.0042 119.472 93.2659 121.566C93.6225 124.181 94.0089 128.668 94.1575 131.521C94.306 134.374 94.4843 136.751 94.5141 136.781C94.5735 136.84 95.465 136.662 96.5348 136.424C97.6046 136.187 100.487 135.681 102.924 135.265C105.391 134.849 108.303 134.433 109.462 134.344C110.621 134.255 111.869 134.106 112.285 134.017C112.998 133.898 113.028 133.78 113.444 129.797C113.591 128.224 113.752 126.709 113.845 125.84L113.859 125.709C113.89 125.418 113.912 125.216 113.919 125.132C113.979 124.805 114.038 123.646 114.038 122.547C114.068 121.298 114.187 120.585 114.365 120.674C114.573 120.763 114.573 120.11 114.454 118.743C114.306 117.405 114.335 116.663 114.514 116.663C114.692 116.663 114.841 117.495 114.9 118.505C114.93 119.545 114.781 122.933 114.514 126.023C114.276 129.114 114.068 132.115 114.068 132.65V133.601C118.109 133.572 119.447 133.453 119.655 133.364C119.952 133.185 119.952 132.145 119.655 127.896C119.447 125.013 119.179 122.725 119.06 122.844C118.971 122.963 118.05 125.132 117.04 127.658C116.029 130.184 115.108 132.413 114.93 132.561C114.781 132.71 114.662 132.799 114.662 132.71C114.662 132.621 115.673 129.887 116.891 126.618C118.615 122.071 119.12 120.318 119.12 119.188C119.12 118.386 118.912 115.504 118.644 112.799C118.377 110.095 118.258 107.183 118.347 106.351C118.436 105.489 118.496 104.776 118.466 104.776C118.407 104.776 117.961 104.954 117.485 105.221C117.01 105.459 116.356 105.667 116.089 105.667C115.792 105.667 115.494 105.845 115.435 106.054C115.375 106.232 115.286 107.955 115.257 109.828C115.227 111.7 115.167 113.661 115.138 114.137C115.108 114.612 114.959 115.266 114.811 115.533C114.603 115.86 114.543 114.315 114.603 110.779C114.722 105.727 114.692 105.489 114.098 104.924C113.741 104.597 113.444 104.152 113.474 103.973C113.474 103.706 113.028 103.587 112.225 103.587L110.948 103.617C109.373 107.747 108.986 108.461 108.689 108.371C108.538 108.315 108.077 108.163 107.509 107.976L107.508 107.975C107.181 107.868 106.819 107.748 106.46 107.629L104.648 107.004C105.45 105.162 106.015 103.884 106.431 102.993C106.817 102.101 107.263 101.031 107.382 100.615L107.59 99.8724C106.52 100.823 105.034 102.131 103.607 103.379C102.151 104.627 100.903 105.667 100.784 105.667C100.636 105.667 99.3282 104.924 97.8721 104.003ZM126.995 103.171L126.103 102.993L127.53 107.242C128.332 109.56 129.105 111.581 129.253 111.759C129.402 111.938 129.521 112.235 129.521 112.443C129.521 112.621 130.769 115.504 132.314 118.832C133.83 122.13 135.524 125.845 136.059 127.064C136.593 128.282 137.366 130.214 137.752 131.372C138.139 132.531 138.674 134.255 138.911 135.236C139.126 136.023 139.322 136.83 139.421 137.24L139.442 137.325C139.456 137.385 139.468 137.432 139.476 137.465C139.535 137.702 139.654 138.742 139.744 139.782C139.862 141.12 140.07 141.714 140.457 141.892C140.724 142.041 141.705 142.279 142.596 142.398L144.231 142.606C143.874 137.138 143.607 134.344 143.369 132.858C143.131 131.402 142.656 128.965 142.329 127.509C141.972 126.053 141.14 123.23 140.457 121.269C139.803 119.307 138.703 116.425 138.05 114.879C137.396 113.334 136.385 111.254 135.791 110.273C135.227 109.293 134.008 107.718 133.117 106.767C132.076 105.667 130.769 104.716 129.669 104.181C128.689 103.706 127.47 103.26 126.995 103.171ZM126.46 106.678C126.074 105.548 125.628 104.597 125.479 104.538C125.331 104.508 124.885 104.657 124.469 104.895C124.083 105.103 122.686 105.608 121.438 105.994C119.536 106.559 119.12 106.796 119.12 107.272C119.12 107.599 119.239 108.728 119.358 109.768L119.566 111.67C121.884 111.432 123.429 110.957 124.469 110.481C125.539 109.976 126.579 109.382 126.787 109.174C127.054 108.847 126.995 108.342 126.46 106.678ZM128.778 112.621C128.154 111.165 127.559 109.887 127.47 109.768C127.351 109.679 126.549 110.036 125.658 110.6C124.766 111.135 123.102 111.789 121.943 112.086C120.814 112.354 119.833 112.591 119.774 112.621C119.744 112.621 119.833 114.85 120.011 117.524C120.19 120.229 120.517 126.588 120.754 131.64L120.851 133.482C121.077 137.791 121.267 141.397 121.319 141.892C121.378 142.487 121.527 143.675 121.646 144.567C121.765 145.488 121.913 146.558 121.973 146.944C122.032 147.36 122.3 148.49 122.567 149.47C122.805 150.451 123.31 151.937 123.696 152.739C124.053 153.571 124.944 154.879 125.687 155.651C126.401 156.454 127.559 157.345 128.273 157.672C129.045 158.029 130.175 158.237 131.155 158.237C132.076 158.237 133.235 158.058 133.77 157.85C134.305 157.642 135.464 156.662 136.356 155.681C137.426 154.552 138.228 153.304 138.674 152.145C139.06 151.164 139.446 149.619 139.565 148.668C139.684 147.717 139.892 146.944 140.011 146.944C140.13 146.944 140.16 146.855 140.1 146.736C140.011 146.617 139.744 144.983 139.506 143.081C139.268 141.209 138.644 138.059 138.168 136.098C137.693 134.136 136.92 131.462 136.445 130.154C135.94 128.847 134.276 124.983 132.73 121.536C131.185 118.119 129.402 114.107 128.778 112.621ZM120.16 134.255C120.071 134.047 119.684 133.898 119.268 133.958C118.999 133.979 118.729 134.014 118.581 134.033L118.58 134.033L118.514 134.042C118.488 134.045 118.471 134.047 118.466 134.047C118.407 134.077 117.188 134.196 115.702 134.314C114.246 134.404 110.175 134.939 106.639 135.503C103.132 136.068 98.6447 136.87 96.6834 137.316C94.7221 137.732 91.6612 138.505 89.8485 138.98C88.7884 139.28 87.7914 139.549 87.1197 139.73L87.1187 139.731L87.1165 139.731C86.6601 139.854 86.3545 139.937 86.2824 139.961C86.1338 139.99 85.6584 140.109 85.2423 140.258C84.856 140.377 83.9348 141.001 83.2513 141.655C82.5381 142.279 81.0819 143.259 79.9824 143.794C78.8828 144.359 75.9111 145.488 73.3555 146.32C70.8295 147.152 67.2635 148.192 65.4507 148.638C63.638 149.114 62.063 149.589 61.9738 149.708C61.8549 149.827 62.0927 150.629 62.479 151.491C62.8356 152.353 63.6974 153.779 64.3215 154.671C64.9752 155.562 66.2233 156.87 67.1149 157.613C68.0361 158.326 69.4328 159.247 70.2352 159.633C71.0672 159.99 72.5234 160.495 73.504 160.763C74.4847 161.03 76.0894 161.208 77.0701 161.208C78.0508 161.208 79.7446 161.03 80.7847 160.792C81.8546 160.584 83.3999 160.168 84.2022 159.871C85.0343 159.604 86.7282 158.861 88.006 158.207C89.2541 157.583 90.2942 157.137 90.2942 157.197C90.2942 157.286 90.4725 157.226 90.6806 157.048C90.8886 156.87 94.2466 154.7 98.1693 152.174C102.092 149.678 106.995 146.677 109.016 145.488C111.066 144.329 114.514 142.695 116.653 141.833L120.546 140.258C120.338 135.89 120.219 134.463 120.16 134.255ZM66.3719 138.713C66.1342 138.356 65.6884 138.029 65.3616 138.029C65.0347 138.029 64.4998 138.386 64.1432 138.831C63.6082 139.456 63.4894 139.961 63.5488 141.417C63.5488 142.427 63.6974 143.854 63.8757 144.567C63.9518 144.884 64.0441 145.266 64.1365 145.648L64.1376 145.653L64.1383 145.656C64.2618 146.167 64.3853 146.677 64.47 147.033L64.7375 148.133C67.2337 147.39 67.2635 147.331 67.3823 145.993C67.4418 145.221 67.3229 143.408 67.1446 141.982C66.9663 140.555 66.6097 139.069 66.3719 138.713Z" fill="#0633BB"/>
<path d="M84.2914 100.021C84.4994 100.021 85.0046 100.348 85.3909 100.734C85.8069 101.15 86.1635 101.804 86.1635 102.161C86.1635 102.517 85.8961 103.141 85.5692 103.498C85.1829 103.914 84.6183 104.152 84.0536 104.152C83.4593 104.152 83.0135 103.934 82.7164 103.498C82.4786 103.141 82.2706 102.487 82.2706 102.071C82.2706 101.685 82.4489 101.12 82.6569 100.853C82.8649 100.586 83.2215 100.288 83.4593 100.199C83.7267 100.11 84.0833 100.051 84.2914 100.021Z" fill="#0633BB"/>
<path d="M86.6984 105.935C86.9659 105.935 87.3522 106.083 87.5602 106.321C87.7683 106.529 87.9168 107.004 87.8574 107.391C87.8277 107.807 87.5602 108.253 87.2631 108.431C86.8767 108.669 86.6093 108.669 86.223 108.431C85.9258 108.253 85.6583 107.807 85.6286 107.391C85.5692 107.004 85.6881 106.529 85.8664 106.321C86.0744 106.113 86.431 105.935 86.6984 105.935Z" fill="#0633BB"/>
<path d="M104.38 108.253L105.301 108.401C105.807 108.49 106.698 108.787 107.322 109.025C107.946 109.293 108.422 109.62 108.422 109.738C108.422 109.857 107.649 110.838 106.668 111.878C105.717 112.948 104.856 113.75 104.796 113.661C104.707 113.602 104.588 112.354 104.499 110.897L104.38 108.253Z" fill="#0633BB"/>
<path d="M95.6433 172.531L95.465 168.727C95.3806 166.758 95.2429 164.841 95.2033 164.289L95.2032 164.288L95.1975 164.21C95.1439 163.834 95.0902 162.781 95.0366 161.727L95.0365 161.725L95.0192 161.387C94.9895 160.228 95.049 159.128 95.1381 158.92C95.257 158.742 95.1678 158.504 94.9598 158.445C94.7815 158.356 94.8409 158.296 95.1084 158.296C95.5542 158.266 95.6433 158.564 95.673 160.109C95.673 161.149 95.7325 162.784 95.8216 163.764C95.9108 164.745 96.1188 167.092 96.2674 168.965C96.4457 170.837 96.5943 172.531 96.5943 172.679C96.303 172.661 95.8389 172.573 95.6433 172.531Z" fill="#0633BB"/>
<path d="M21.6482 109.827V110.778C21.6482 111.313 21.7968 112.978 21.9454 114.434C22.1237 115.89 22.6883 118.98 23.1638 121.269C23.669 123.557 24.5605 126.826 25.0954 128.549C25.66 130.273 26.8784 133.423 27.7996 135.533C28.7506 137.643 30.0284 140.317 30.6822 141.476C31.3063 142.635 31.8709 143.735 31.8709 143.913C31.9006 144.121 31.96 144.299 32.0492 144.299C32.1383 144.299 32.4949 144.834 32.8516 145.488C33.2379 146.142 33.535 146.736 33.535 146.825C33.535 146.914 33.8619 147.331 34.278 147.776C34.694 148.252 34.9615 148.638 34.8723 148.668C34.7832 148.727 35.0506 149.114 35.4667 149.559C35.8827 150.035 36.1502 150.481 36.061 150.599C35.9719 150.748 36.0907 150.897 36.269 150.956C36.5662 151.075 36.5662 151.105 36.269 151.105C36.0907 151.134 35.7044 150.807 35.4667 150.391C35.2289 149.975 35.0803 149.648 35.1695 149.648C35.2586 149.648 34.9912 149.292 34.5751 148.816C34.1591 148.371 33.8917 147.925 33.9808 147.776C34.07 147.657 34.0105 147.568 33.8322 147.568C33.6539 147.568 33.327 147.241 33.0893 146.825C32.8516 146.409 32.6138 145.904 32.5544 145.696C32.5247 145.518 32.4058 145.28 32.3166 145.191C32.2275 145.102 31.8115 144.507 31.3954 143.854C30.9794 143.2 29.969 141.357 29.1369 139.753C28.2751 138.178 27.235 136.038 26.819 134.998C26.4029 133.988 25.8383 132.621 25.5411 131.967C25.244 131.313 24.5605 129.441 24.0256 127.806C23.5204 126.172 22.8369 123.765 22.5397 122.457C22.2425 121.15 21.9157 119.396 21.7968 118.594C21.6779 117.762 21.4402 115.385 20.9053 109.382L21.6482 109.827Z" fill="#04FFE1"/>
<path d="M34.4266 57.6739C34.2483 57.7631 33.535 58.714 32.8218 59.8136C32.1086 60.9428 30.9497 62.9636 30.2959 64.3603C29.6124 65.757 29.0775 67.0943 29.0775 67.332L28.2157 67.4806L29.1369 65.2518C29.6124 64.0334 30.5633 62.1018 31.2468 60.9428C31.9006 59.7839 32.7624 58.4466 33.8322 57.0796L34.4266 57.6739Z" fill="#04FFE1"/>
<path d="M77.9919 25.0445C77.8136 23.9747 77.7838 23.945 76.8329 24.153C76.3277 24.2422 74.6041 24.8365 73.0588 25.4606C71.5135 26.0549 68.8093 27.2436 67.0262 28.0757C65.2729 28.9078 63.8465 29.6804 63.8465 29.7993L63.4008 28.9969C63.4899 28.9969 64.5894 28.4917 65.8376 27.8379C67.1154 27.2139 69.7008 26.0846 71.573 25.3714C73.4451 24.6285 75.5848 23.7964 77.665 23.0535L77.9919 25.0445Z" fill="#04FFE1"/>
<path d="M119.596 22.1025C119.685 22.6672 120.071 22.8455 122.33 23.3209C123.756 23.6478 126.044 24.3016 127.441 24.8068C128.838 25.312 131.126 26.3224 135.168 28.4026L134.722 28.9969L133.83 28.462C133.355 28.1351 131.928 27.4516 130.71 26.9167C129.492 26.3818 127.946 25.7577 127.293 25.52C126.639 25.2823 124.677 24.6879 122.894 24.2125C120.517 23.5587 119.685 23.4398 119.596 23.7073V22.1025Z" fill="#04FFE1"/>
<path d="M166.371 54.4645C166.4 54.6131 167.381 56.3069 168.57 58.2683C169.788 60.2296 171.422 63.1122 173.651 67.5697L172.908 67.54C172.908 67.4212 172.047 65.757 171.036 63.8254C169.996 61.9235 168.362 59.1004 167.381 57.5848C166.43 56.0692 165.479 54.8508 165.33 54.8508L166.371 54.4645Z" fill="#04FFE1"/>
<path d="M182.864 109.501L182.656 111.67C182.537 112.859 182.299 115.177 182.121 116.811C181.942 118.445 181.586 120.704 181.348 121.863C181.114 123.005 180.851 124.233 180.758 124.667L180.755 124.68L180.754 124.684L180.754 124.686C180.665 125.102 180.278 126.707 179.862 128.252C179.416 129.797 178.644 132.264 178.109 133.75C177.574 135.236 176.89 137.019 176.593 137.762C176.266 138.475 175.286 140.614 174.364 142.516C173.443 144.389 172.076 147.004 171.274 148.311C170.501 149.619 169.105 151.729 168.183 152.977C167.262 154.225 166.341 155.354 166.163 155.443C165.925 155.532 165.865 155.443 165.984 155.206C166.056 155.061 166.421 154.527 166.825 153.935C166.92 153.795 167.017 153.653 167.113 153.512C167.648 152.769 168.867 150.897 169.818 149.351C170.769 147.806 172.314 144.953 173.265 143.022C174.216 141.12 175.494 138.237 176.118 136.632C176.772 135.057 177.633 132.621 178.049 131.224C178.465 129.827 179.089 127.569 179.446 126.172C179.803 124.775 180.159 123.319 180.219 122.903C180.269 122.67 180.347 122.211 180.437 121.681L180.438 121.68C180.508 121.265 180.586 120.807 180.665 120.377C180.843 119.396 181.051 118.059 181.11 117.405C181.184 116.866 181.318 115.679 181.446 114.546L181.492 114.143L181.526 113.839C181.705 112.532 181.823 111.135 181.823 109.976L182.864 109.501Z" fill="#04FFE1"/>
<circle opacity="0.16" cx="26.6926" cy="89.1514" r="20.802" fill="#04FFE1"/>
<circle opacity="0.16" cx="44.5227" cy="38.6322" r="20.802" fill="#04FFE1"/>
<circle opacity="0.16" cx="98.6077" cy="20.802" r="20.802" fill="#04FFE1"/>
<circle opacity="0.16" cx="154.476" cy="36.2549" r="20.802" fill="#04FFE1"/>
<circle opacity="0.16" cx="177.061" cy="89.1514" r="20.802" fill="#04FFE1"/>
<path d="M27.1163 85.4001C26.7299 83.6171 26.4031 82.0718 26.4031 81.8935C26.4031 81.7449 26.5219 81.5963 26.7002 81.5963C26.8785 81.5963 27.0568 81.834 27.1163 82.1312C27.1736 82.3033 27.3539 83.1516 27.5939 84.2807C27.727 84.907 27.8785 85.6195 28.0375 86.351C28.4535 88.4015 28.721 90.1251 28.6318 90.2143C28.5427 90.3034 28.3347 89.9468 28.1861 89.4713C28.0078 88.9959 27.5323 87.1534 27.1163 85.4001Z" fill="#003FFF"/>
<path d="M20.8757 84.9543C20.7271 84.3006 20.8162 84.0034 21.3511 83.6171C21.7077 83.3199 22.1238 83.0822 22.2724 83.0822C22.421 83.0822 22.8073 83.2307 23.1342 83.3793C23.4611 83.5576 23.8474 84.0034 24.0257 84.4194C24.2634 85.0435 24.1743 85.4298 22.5695 88.2827L23.3719 89.293C24.0554 90.1548 24.0851 90.2737 23.6096 90.1846C23.3125 90.1251 22.7776 89.7091 21.7969 88.4312L22.6587 86.7077C23.2828 85.4595 23.4313 84.8949 23.2233 84.568C23.045 84.3303 22.5993 84.1223 22.2129 84.1223C21.6186 84.1223 21.4997 84.2411 21.5592 84.9543C21.6186 85.4001 21.5294 85.7567 21.3511 85.7567C21.1728 85.7567 20.9648 85.4001 20.8757 84.9543Z" fill="#003FFF"/>
<path d="M28.4238 91.9082C28.3941 91.6704 28.4833 91.403 28.6318 91.2841C28.7804 91.1949 29.0182 91.1355 29.1965 91.1949C29.3748 91.2544 29.5531 91.5218 29.5828 91.7893C29.6422 92.1162 29.4639 92.2945 29.0776 92.2945C28.7507 92.2945 28.4535 92.1162 28.4238 91.9082Z" fill="#003FFF"/>
<path d="M23.1936 93.0077C23.0747 92.7105 23.1639 92.4431 23.4313 92.2648C23.6988 92.1162 24.0257 92.1756 24.3229 92.4728C24.7092 92.8591 24.7092 92.9483 24.3229 93.186C24.0851 93.3346 23.7879 93.4832 23.6394 93.4832C23.5205 93.4832 23.3422 93.2751 23.1936 93.0077Z" fill="#003FFF"/>
<path fill-rule="evenodd" clip-rule="evenodd" d="M29.0776 67.3321C29.0776 67.6293 29.6125 67.8967 30.7715 68.1047C31.7224 68.283 33.446 68.8179 34.5753 69.2637C35.7045 69.7095 37.3984 70.5713 38.2899 71.1359C39.1814 71.7302 40.5781 72.8 41.3508 73.543C42.1531 74.2859 43.2824 75.6529 43.8767 76.5444C44.4711 77.4359 45.3923 79.2487 45.9272 80.5562C46.4621 81.8638 47.1159 83.8548 47.3833 85.0138C47.7102 86.4699 47.7994 88.0152 47.7102 90.0657C47.6211 91.7001 47.4725 93.5129 47.3536 94.0775C47.2348 94.6421 46.9079 95.7714 46.581 96.6035C46.2838 97.4058 45.5409 98.8917 44.9465 99.8723C44.3819 100.853 43.2527 102.369 42.5097 103.26C41.7371 104.152 40.3107 105.429 39.33 106.143C38.3493 106.826 36.6852 107.807 35.6154 108.312C34.5455 108.817 32.822 109.441 31.7521 109.709C30.6823 109.976 28.8101 110.184 27.5917 110.214C26.3733 110.214 24.5309 110.125 21.6483 109.828L20.9054 109.382L18.9738 108.609C17.904 108.193 16.2992 107.391 15.4077 106.796C14.5162 106.232 12.7629 104.687 11.5445 103.379C10.0289 101.774 8.9591 100.288 8.18646 98.7431C7.59212 97.495 6.8789 95.6228 6.64117 94.5827C6.40343 93.5723 6.13598 91.8784 6.01711 90.8086C5.89824 89.6794 5.98739 87.8072 6.19541 86.351C6.37371 84.9543 6.93834 82.7553 7.41381 81.4477C7.88929 80.1402 8.92939 78.06 9.73175 76.8416C10.5044 75.6232 12.02 73.8104 13.0898 72.8298C14.1596 71.8491 15.9426 70.5713 17.0719 69.9472C18.2011 69.3529 19.9247 68.6396 20.9054 68.3722C21.8861 68.075 23.9365 67.7778 28.2158 67.4807L29.0776 67.3321ZM31.6035 69.1151C30.8012 68.9368 28.7804 68.7288 27.146 68.6694C25.2738 68.6099 23.4016 68.7288 22.0941 68.9963C20.9648 69.234 19.0629 69.8878 17.9337 70.4227C16.8044 70.9576 15.1403 71.968 14.3082 72.6217C13.4464 73.3052 12.0497 74.8505 11.2176 76.0095C10.3855 77.1982 9.31571 79.0109 8.84024 80.0213C8.36476 81.0614 7.77042 82.785 7.50297 83.8845C7.20579 85.0732 6.99777 87.2426 6.99777 89.1742C6.96806 91.7298 7.11664 92.9482 7.65155 94.8204C8.00816 96.128 8.81052 98.119 9.40486 99.278C10.0586 100.496 11.3365 102.19 12.5846 103.438C13.7138 104.627 15.4672 106.054 16.4478 106.618C17.4285 107.212 19.3007 108.074 20.6082 108.52C22.6587 109.233 23.4908 109.322 26.5516 109.352C29.137 109.382 30.5932 109.233 31.9007 108.847C32.8814 108.579 34.7833 107.807 36.1503 107.153C37.6956 106.41 39.2409 105.34 40.3998 104.241C41.4102 103.32 42.8069 101.685 43.5201 100.615C44.2333 99.5454 45.1546 97.6733 45.5706 96.4549C45.9866 95.2365 46.4621 93.1563 46.6404 91.8487C46.8187 90.5412 46.8781 88.6095 46.7593 87.5397C46.6701 86.4699 46.373 84.8058 46.1055 83.8251C45.8678 82.8444 45.2437 81.1208 44.7088 79.9619C44.1739 78.8029 43.1338 77.0793 42.3909 76.0986C41.6479 75.118 40.1918 73.6618 39.1517 72.8595C38.1116 72.0571 36.2989 70.9873 35.1696 70.4524C34.0404 69.9175 32.4356 69.3231 31.6035 69.1151Z" fill="#003FFF"/>
<path fill-rule="evenodd" clip-rule="evenodd" d="M30.4149 76.3661C30.5932 76.3958 30.8309 76.8713 30.9498 77.3765C31.0686 77.8817 31.2767 78.2977 31.3955 78.2977C31.5144 78.2977 32.3168 78.1194 33.1786 77.8519C34.397 77.5251 34.7536 77.4953 34.8427 77.7925C34.9319 78.0005 35.3776 80.7642 35.8828 83.944C36.388 87.1534 36.8635 90.2737 36.9526 90.9275C37.0418 91.5813 37.1904 92.4728 37.2795 92.8591C37.339 93.2751 37.547 94.4935 37.7253 95.5336C37.8739 96.6035 37.9927 97.495 37.9333 97.5247C37.9123 97.5457 36.774 97.8945 35.1513 98.3917C34.4821 98.5967 33.7305 98.827 32.9408 99.07C30.2663 99.8723 27.2946 100.764 26.3436 101.031C25.3927 101.269 24.5012 101.477 24.3229 101.477C24.1743 101.477 23.9365 100.912 23.8177 100.229C23.5799 99.07 23.4908 98.9808 22.6884 98.9808C22.2129 98.9808 21.3511 99.0997 19.7167 99.4266L19.3601 97.703C19.1818 96.752 18.3497 92.7105 17.5176 88.6987C16.6856 84.7166 16.0318 81.1505 16.0615 80.8237C16.1209 80.2888 16.6558 80.0213 19.4195 79.1892C21.2323 78.6543 24.3823 77.7925 26.4031 77.2576C28.4535 76.7227 30.2663 76.3364 30.4149 76.3661ZM30.504 78.8623C30.405 77.7133 30.2267 77.1486 29.9691 77.1685C29.7611 77.1685 27.1163 77.8222 24.0851 78.6246C21.054 79.427 18.1714 80.1996 17.6959 80.3482C16.9827 80.5562 16.8341 80.7642 16.8936 81.3289C16.9233 81.7152 17.7257 85.727 18.6469 90.2143C19.5681 94.7016 20.3408 98.4162 20.3408 98.4162C20.3705 98.4459 23.253 97.8813 26.7597 97.1681C30.2663 96.4549 33.2677 95.8011 33.446 95.7417C33.6243 95.6822 33.1191 92.6511 32.1979 88.1044C31.3361 83.944 30.5634 79.7836 30.504 78.8623Z" fill="#003FFF"/>
<path d="M36.8035 37.076C36.4767 36.5411 36.2092 35.8279 36.2092 35.501C36.2389 35.0849 36.3875 35.2335 36.8035 36.0359C37.1304 36.6302 37.7842 37.3434 38.2894 37.5812C38.7649 37.8189 39.1512 38.1161 39.0918 38.2052C39.062 38.2944 38.6757 38.2944 38.2003 38.2052C37.7248 38.0864 37.1602 37.6406 36.8035 37.076Z" fill="#003FFF"/>
<path d="M52.1376 37.284C52.3753 37.0463 52.7022 36.4816 52.8805 36.0359C53.1183 35.4415 53.2668 35.3524 53.356 35.6496C53.4451 35.8873 53.3263 36.4816 53.0885 36.9571C52.8805 37.4326 52.3753 37.9972 51.9593 38.2052C51.5432 38.4133 51.0975 38.5024 50.9786 38.3835C50.8597 38.2647 50.7706 38.0864 50.7706 37.9675C50.7706 37.8189 50.9786 37.7298 51.2461 37.7298C51.4838 37.7298 51.8999 37.5217 52.1376 37.284Z" fill="#003FFF"/>
<path d="M51.5135 40.4043C51.2461 40.1666 51.0381 39.8694 51.0381 39.7505C51.0381 39.6317 51.2461 39.6317 51.5135 39.7505C51.781 39.8694 52.2565 40.4935 52.5833 41.1472C52.8805 41.801 53.148 42.5142 53.148 42.7222C53.148 42.9005 53.0291 43.0788 52.8508 43.0788C52.6725 43.0788 52.4348 42.5737 52.2862 41.9793C52.1376 41.3553 51.781 40.642 51.5135 40.4043Z" fill="#003FFF"/>
<path d="M37.3087 41.0878C37.6059 40.6123 37.9625 40.1666 38.1408 40.0477C38.2894 39.9288 38.5271 39.81 38.6163 39.81C38.7054 39.81 38.4677 40.3152 38.0814 40.9392C37.6951 41.5336 37.3979 42.2765 37.3979 42.5737C37.3979 42.8411 37.279 43.0788 37.1007 43.0788C36.9224 43.0788 36.8035 42.8114 36.8035 42.4845C36.8035 42.1576 37.0413 41.5336 37.3087 41.0878Z" fill="#003FFF"/>
<path fill-rule="evenodd" clip-rule="evenodd" d="M63.8461 29.9142C63.8461 30.0627 64.2027 31.1623 64.6188 32.3807C65.2428 34.1934 65.4211 35.3227 65.54 38.4727C65.6886 41.801 65.6292 42.6628 65.0645 44.6241C64.7376 45.902 64.0244 47.7742 63.5192 48.7845C62.9843 49.8246 61.9442 51.4591 61.2013 52.4397C60.4584 53.3907 59.032 54.8468 58.0513 55.6789C57.0706 56.4813 55.1985 57.6402 53.8909 58.2346C52.5833 58.8586 50.83 59.5124 50.0277 59.7204C49.1956 59.9285 46.9965 60.077 45.1243 60.0473C42.8361 60.0473 40.9639 59.8393 39.4781 59.453C38.2597 59.1558 36.6847 58.6209 35.9715 58.2643C35.288 57.9374 34.6045 57.6997 34.4262 57.7888L33.8318 57.1945L31.8408 55.7086C30.7115 54.8765 29.196 53.3907 28.453 52.4397C27.6804 51.4591 26.67 49.8544 26.1648 48.8737C25.6596 47.893 24.9464 46.0208 24.5898 44.7133C24.1441 43.0194 23.936 41.4741 23.936 39.3642C23.936 37.4623 24.1143 35.6496 24.4709 34.3123C24.7384 33.1533 25.4219 31.2811 25.9271 30.1519C26.462 28.9929 27.4129 27.2693 28.0964 26.2887C28.7502 25.308 30.1766 23.6736 31.2762 22.6335C32.554 21.4448 34.0101 20.4344 35.3771 19.7806C36.5658 19.2457 38.5569 18.5325 39.7753 18.265C41.5286 17.849 42.7173 17.7599 45.4215 17.8787C47.9475 18.0273 49.3739 18.265 50.9192 18.8C52.0484 19.1863 53.6532 19.8698 54.4852 20.2561C55.2876 20.6721 56.7735 21.6231 57.7541 22.3363C58.7348 23.0495 60.0126 24.2382 60.607 24.9514C61.2013 25.6943 62.0334 26.9127 62.4791 27.6854C62.8952 28.4877 63.3112 29.1118 63.4004 29.1118L63.8461 29.9142ZM49.7305 19.3051C48.0069 18.8594 46.4913 18.7108 44.2328 18.7405C42.5092 18.7405 40.3102 18.9485 39.3295 19.1863C38.3488 19.424 36.6847 20.0481 35.6149 20.5533C34.2479 21.207 32.97 22.1877 31.2762 23.8816C29.2257 25.9321 28.6313 26.7641 27.3535 29.409C26.3134 31.5189 25.6596 33.3316 25.3327 35.0552C24.9761 36.868 24.887 38.5024 24.9761 40.8501C25.0653 42.8411 25.3327 44.6836 25.6596 45.6048C25.9271 46.4072 26.4323 47.6256 26.7294 48.2793C27.0563 48.9331 28.0073 50.3893 28.8691 51.5185C29.7012 52.6775 31.1573 54.1931 32.0488 54.9063C32.9403 55.6195 34.7531 56.719 36.0606 57.3431C37.3682 57.9671 39.4484 58.6803 40.6668 58.9478C41.8852 59.1855 43.4899 59.453 44.2328 59.5421C44.9758 59.6016 46.5805 59.4827 47.7989 59.2747C49.0173 59.0667 51.0381 58.502 52.2565 58.0266C53.4749 57.5808 55.139 56.7487 55.9711 56.2435C56.7735 55.7383 58.3187 54.4011 59.3886 53.2718C60.4584 52.1723 61.8254 50.3001 62.4197 49.1709C63.0141 48.0119 63.7867 46.0208 64.1433 44.7133C64.5296 43.1383 64.7376 41.4147 64.7376 39.5722C64.7376 38.0864 64.5296 35.8576 64.2622 34.6986C63.9947 33.5099 63.3707 31.5783 62.8655 30.4491C62.39 29.3198 61.4985 27.6259 60.8744 26.7344C60.2801 25.8429 59.0617 24.4759 58.1702 23.6736C57.2787 22.9009 55.5551 21.742 54.3367 21.0882C53.1183 20.4641 51.0381 19.6618 49.7305 19.3051Z" fill="#003FFF"/>
<path fill-rule="evenodd" clip-rule="evenodd" d="M40.4588 26.7047C40.8154 26.7047 41.4097 27.0019 41.7663 27.3882C42.1229 27.7448 42.5687 28.458 42.7767 28.9335C42.955 29.4387 43.2225 30.5085 43.4008 31.3109C43.5493 32.1429 43.7871 34.6095 43.9357 36.8085C44.0545 39.067 44.0545 42.3359 43.9059 44.2378C43.7574 46.1397 43.4602 48.1902 43.2225 48.844C42.955 49.5572 42.4795 50.211 42.0338 50.419C41.6177 50.627 40.9639 50.7756 40.6073 50.7756C40.2507 50.7756 39.6267 50.4784 39.2701 50.1218C38.7352 49.5869 38.5569 49.5275 38.23 49.8246C38.022 50.0327 37.4573 50.211 36.9521 50.2704C36.4767 50.3001 35.704 50.0921 35.2583 49.7949C34.8125 49.5275 34.1587 48.8737 33.8318 48.3388C33.505 47.8039 32.8215 47.1501 32.346 46.8529C31.8705 46.5557 31.2762 45.9317 31.0087 45.4265C30.771 44.951 30.6521 44.2378 30.7413 43.8812C30.8601 43.4949 30.6521 42.5737 29.5823 40.226L30.2361 39.1265C30.771 38.2052 30.8601 37.7 30.7115 36.3033C30.6125 35.1741 30.6917 34.3519 30.9493 33.8368C31.1573 33.4505 31.7516 32.8264 32.2568 32.4995C32.8512 32.1429 33.2969 31.5189 33.5049 30.8057C33.713 30.1816 34.2479 29.3793 34.7828 28.9335C35.3177 28.5175 36.1201 28.1906 36.655 28.1906C37.1602 28.1906 37.7248 28.3689 37.9328 28.5769C38.23 28.8741 38.3191 28.8741 38.3191 28.5769C38.3191 28.3392 38.646 27.8637 39.0323 27.4476C39.4484 27.0613 40.0724 26.7047 40.4588 26.7047ZM40.9045 27.5368C40.6371 27.4179 40.3696 27.3288 40.2805 27.3288C40.1913 27.3288 39.7753 27.6854 39.3889 28.1014C39.0026 28.5472 38.6757 29.1712 38.646 29.5278C38.646 29.8844 39.0323 30.7165 39.5375 31.4C40.013 32.1132 40.2805 32.6779 40.1319 32.6779C39.9536 32.6779 39.5078 32.2915 39.0918 31.7863C38.6757 31.2811 38.2597 30.5382 38.1408 30.0925C38.0517 29.617 37.8139 29.1712 37.6356 29.0524C37.4573 28.9038 36.8927 28.9038 36.4172 28.9929C35.912 29.0821 35.288 29.409 34.9908 29.6764C34.6936 29.9439 34.3667 30.4788 34.2182 30.8948C33.9804 31.5486 34.0696 31.6972 34.9611 32.2321C35.5257 32.559 36.0606 33.0047 36.1201 33.2128C36.2389 33.4802 36.0309 33.4505 35.3771 33.1236C34.8719 32.8859 34.0696 32.6779 33.5941 32.6779C33.0592 32.6779 32.4649 32.9453 32.1082 33.3613C31.7814 33.718 31.4247 34.4014 31.3356 34.9066C31.2464 35.4118 31.2464 36.0953 31.3356 36.4816C31.4247 36.8382 32.0191 37.492 32.6134 37.9081L33.7427 38.6807C31.9002 38.3241 31.5436 38.4133 31.1276 38.8293C30.8304 39.1265 30.5927 39.81 30.5927 40.4043C30.5927 40.9689 30.8304 41.7416 31.1276 42.1279C31.5139 42.6331 32.0488 42.8411 32.9998 42.9303C33.7427 42.9897 34.3965 43.1383 34.4856 43.2274C34.5748 43.3166 33.921 43.376 33.0592 43.376C31.5733 43.376 31.5139 43.4057 31.5139 44.2081C31.5139 44.6539 31.7219 45.3076 31.9597 45.694C32.1974 46.0506 32.7026 46.4666 33.0592 46.6152C33.5049 46.7638 34.2182 46.7341 35.08 46.4666C35.8229 46.2586 36.4767 46.1397 36.5658 46.2289C36.655 46.2883 36.1498 46.5855 35.4663 46.8826C34.7531 47.1501 34.1884 47.477 34.1884 47.6256C34.1884 47.7444 34.5748 48.2199 35.08 48.7251C35.5851 49.2303 36.2984 49.6166 36.7144 49.6166C37.1304 49.6166 37.7248 49.4977 38.0517 49.3194C38.4677 49.1114 38.646 48.7251 38.646 48.0713C38.6757 47.5364 38.854 46.7638 39.0918 46.3477C39.4781 45.6642 39.4781 45.7237 39.3295 47.2392C39.1809 48.6657 39.2404 48.9628 39.7753 49.5572C40.1319 49.9138 40.6371 50.211 40.8748 50.211C41.1422 50.211 41.6474 49.9138 42.0338 49.5572C42.5092 49.0817 42.8064 48.3388 42.955 47.2392C43.0739 46.3477 43.1036 45.0996 42.9847 44.5053C42.8956 43.8812 42.3904 42.9005 41.9149 42.3359C41.4097 41.7713 41.1125 41.2958 41.2314 41.2958C41.38 41.2661 41.8257 41.5336 42.2715 41.8902C42.747 42.2171 43.163 42.4845 43.2522 42.4845C43.3413 42.4845 43.4008 41.0284 43.4008 39.2156C43.4008 37.4029 43.3413 35.9467 43.2522 35.9467C43.163 35.9467 42.747 36.2142 42.2715 36.5411C41.8257 36.8382 41.1125 37.1949 40.6371 37.284C40.1913 37.3732 39.8347 37.3137 39.8347 37.1354C39.8347 36.9571 40.2805 36.7194 40.7856 36.5411C41.3206 36.3925 41.9743 36.0359 42.2418 35.7387C42.5092 35.4415 42.8064 34.8769 42.8956 34.4609C42.9847 34.0448 42.9253 32.8562 42.747 31.7863C42.5687 30.7165 42.2121 29.3793 41.9149 28.8146C41.6474 28.25 41.172 27.6854 40.9045 27.5368Z" fill="#003FFF"/>
<path fill-rule="evenodd" clip-rule="evenodd" d="M49.5225 26.7344C49.8791 26.7344 50.5626 27.1208 51.0083 27.5962C51.6918 28.3392 51.989 28.458 52.8508 28.3392C53.5937 28.2203 54.1881 28.3392 54.8716 28.7849C55.5253 29.2009 55.9711 29.7953 56.2088 30.6274C56.4466 31.4594 56.8329 31.9646 57.3975 32.2618C57.9027 32.4995 58.4673 33.2128 58.8537 34.0746C59.4183 35.3227 59.448 35.6198 59.1211 36.5114C58.7942 37.4326 58.8239 37.6703 59.3588 38.5916C59.7155 39.1859 59.9829 39.9883 59.9829 40.3746C59.9829 40.7906 59.7155 41.5633 59.3886 42.0982C59.0022 42.752 58.8537 43.3166 59.0022 43.8812C59.0914 44.3864 58.9725 45.0699 58.7051 45.6642C58.4079 46.2289 57.7838 46.7935 57.1598 47.0609C56.4664 47.3581 56.0702 47.7543 55.9711 48.2496C55.9117 48.6954 55.4065 49.26 54.8716 49.5869C54.3367 49.9138 53.4451 50.1812 52.8508 50.211C52.2862 50.211 51.6621 50.0327 51.4541 49.8246C51.1569 49.5275 50.9489 49.5869 50.414 50.1515C49.998 50.5676 49.4036 50.835 48.839 50.835C48.3041 50.835 47.68 50.5676 47.2937 50.1515C46.9074 49.7652 46.4319 48.9926 46.2536 48.3982C45.9861 47.7147 45.897 45.0996 45.897 40.226C45.897 35.3524 46.0159 32.559 46.2833 31.3109C46.5211 30.3302 46.9668 29.0524 47.2937 28.458C47.6206 27.834 48.1258 27.2099 48.3635 27.0316C48.631 26.883 49.1659 26.7344 49.5225 26.7344ZM50.6814 28.2797C50.414 27.8934 49.9385 27.6259 49.4928 27.6259C49.0173 27.6259 48.5715 27.9231 48.2446 28.458C47.9475 28.9038 47.5611 29.9439 47.3531 30.7462C47.1451 31.5783 46.9668 32.8264 46.9668 33.5694C46.9668 34.4906 47.1451 35.1147 47.5611 35.5901C47.888 35.9467 48.6607 36.4816 49.255 36.7491C50.3248 37.1949 50.3248 37.2543 49.6413 37.3434C49.2253 37.4029 48.4527 37.1949 47.9178 36.8382C47.4126 36.5114 46.9074 36.2439 46.8182 36.2439C46.7291 36.2439 46.6696 37.7595 46.6696 39.5722V42.9303C47.9475 41.6821 48.5121 41.2958 48.7498 41.2958C49.0173 41.2958 48.7201 41.7713 48.0069 42.4845C46.8182 43.7029 46.8182 43.7326 46.8479 45.8425C46.8777 47.1501 47.0857 48.3685 47.3828 48.9628C47.68 49.5572 48.1555 49.9732 48.6607 50.0921C49.2847 50.211 49.6413 50.1218 50.0871 49.6463C50.5031 49.2006 50.6517 48.6657 50.5923 47.8336C50.5626 47.1798 50.3843 46.3774 50.2357 46.0506C50.0376 45.6543 50.0376 45.4562 50.2357 45.4562C50.3843 45.4562 50.6517 45.7237 50.83 46.0506C50.9786 46.3774 51.1272 47.1204 51.1272 47.685C51.1272 48.4874 51.3055 48.844 51.9296 49.2303C52.6428 49.6463 52.94 49.6463 53.8612 49.3789C54.4852 49.1709 55.1093 48.7548 55.2876 48.4279C55.4362 48.101 55.5253 47.7444 55.4659 47.6256C55.4065 47.477 54.931 47.1798 54.4258 46.9421C53.8909 46.7043 53.4749 46.4072 53.5046 46.2586C53.5046 46.1397 53.7423 46.1397 54.0098 46.2586C54.3069 46.3477 55.139 46.526 55.8819 46.5855C57.0706 46.7043 57.3084 46.6152 57.9027 45.8723C58.3187 45.3671 58.5565 44.7133 58.4971 44.2675C58.4079 43.584 58.289 43.5246 57.1301 43.584C56.4466 43.6435 55.8225 43.5543 55.7334 43.376C55.6442 43.1977 56.0305 43.0788 56.6249 43.0788C57.2787 43.0788 57.9324 42.8411 58.4079 42.4251C58.8239 42.0387 59.24 41.3553 59.3291 40.8501C59.448 40.226 59.3291 39.7208 58.8834 39.1562C58.3485 38.443 58.1107 38.3538 57.1301 38.4727L56.0305 38.651C57.9324 37.6109 58.3485 37.1354 58.5565 36.3925C58.7942 35.5604 58.7348 35.1147 58.3188 34.2231C57.9324 33.3911 57.5461 33.0642 56.7735 32.8562C55.9711 32.6184 55.5551 32.6779 54.9013 33.0642C54.4258 33.3613 54.0395 33.4505 53.9503 33.2722C53.8612 33.0939 54.2772 32.7076 54.8418 32.3807C55.8522 31.8161 55.8819 31.7566 55.4956 30.8354C55.3173 30.3302 54.8716 29.7061 54.5447 29.4981C54.2178 29.2901 53.4749 29.1415 52.9102 29.1712C52.0484 29.2604 51.8701 29.3793 51.781 30.0033C51.7513 30.4194 51.3352 31.2217 50.8598 31.7863C50.3843 32.351 49.8791 32.7373 49.7305 32.5887C49.6116 32.4698 49.8494 31.9944 50.2951 31.5486C50.83 31.0434 51.1272 30.4194 51.1272 29.8547C51.1272 29.3495 50.9192 28.666 50.6814 28.2797Z" fill="#003FFF"/>
<path d="M90.5915 16.3969C90.2349 16.8427 89.9377 17.4964 89.9674 17.8828C89.9972 18.2691 90.116 18.8337 90.2646 19.1309C90.3835 19.3983 90.8887 19.8144 91.3642 20.0521C92.1071 20.379 92.3745 20.379 93.2363 20.0521C93.7712 19.8144 94.3656 19.3983 94.4844 19.1309C94.633 18.8337 94.7519 18.2394 94.7519 17.7936C94.7519 17.3181 94.4845 16.6644 94.0981 16.3078C93.6524 15.862 93.058 15.6243 92.3151 15.6243C91.483 15.6243 91.067 15.8026 90.5915 16.3969Z" fill="#003FFF"/>
<path fill-rule="evenodd" clip-rule="evenodd" d="M92.6717 8.49215C93.801 8.49215 93.8604 8.55159 93.9495 9.47282C93.9792 10.1563 94.1576 10.4535 94.6033 10.5129C94.9302 10.5724 95.6434 10.3346 96.1783 10.0077C96.7132 9.65112 97.3967 9.4431 97.7236 9.53225C98.1991 9.65112 98.2882 9.85914 98.1694 10.5129C98.1099 10.9587 97.9613 11.5827 97.8722 11.9096C97.783 12.2365 97.8425 12.712 97.9911 12.9497C98.2288 13.336 98.3477 13.336 98.942 12.8606C99.3283 12.5931 99.7741 12.3554 99.9524 12.3554C100.131 12.3257 100.458 12.7417 100.695 13.2172C101.111 14.1087 101.111 14.1384 100.309 14.7328C99.8632 15.0596 99.5066 15.5945 99.5066 15.9214C99.5066 16.2483 99.6849 16.5752 99.893 16.6644C100.071 16.7535 100.666 16.8724 101.141 16.9318C101.973 17.021 102.033 17.0804 101.943 18.1799C101.884 18.804 101.765 19.3983 101.676 19.4875C101.617 19.5766 101.082 19.6064 100.517 19.5766C99.9524 19.5172 99.4175 19.6361 99.2986 19.8738C99.1797 20.0818 99.5066 20.5573 100.131 21.0328C101.141 21.8351 101.141 21.8351 100.606 22.6078C100.339 23.0238 99.893 23.4399 99.6552 23.5885C99.3878 23.7073 99.0312 23.6479 98.8231 23.4102C98.6151 23.2021 98.2882 23.0535 98.0802 23.0535C97.8425 23.0535 97.7533 23.4993 97.783 24.4205C97.8425 25.4309 97.7533 25.8767 97.367 26.1441C96.951 26.4116 96.7132 26.3224 96.0297 25.6389C95.4354 25.0446 95.0194 24.896 94.6033 25.0446C94.2764 25.1337 93.9198 25.3715 93.8009 25.5498C93.6821 25.7281 93.5632 26.2333 93.5632 26.7088C93.5632 27.4517 93.5038 27.5111 92.5825 27.3328C92.0774 27.2139 91.5127 27.0654 91.3642 26.9465C91.2156 26.8573 91.1858 26.4116 91.3047 25.9658C91.4533 25.2229 91.3939 25.1337 90.6509 25.1337C90.116 25.1337 89.6108 25.4309 88.3627 26.8871L87.5306 26.1738C86.8174 25.4903 86.758 25.3715 87.174 24.896C87.4118 24.6286 87.6198 24.2125 87.6198 24.0045C87.6198 23.8262 87.3226 23.4696 86.9363 23.2318C86.4311 22.905 86.0745 22.8752 85.391 23.113C84.6481 23.3804 84.4401 23.3507 84.1132 22.8752C83.9052 22.5484 83.7566 22.1323 83.7566 21.954C83.7566 21.746 84.0835 21.3894 84.4995 21.2111C84.9155 21.0031 85.2424 20.6465 85.2424 20.4682C85.2424 20.2601 85.183 19.8738 85.0938 19.6361C85.0047 19.3983 84.6481 19.1903 84.2618 19.1903C83.9052 19.1903 83.4297 19.0417 83.2217 18.8337C83.0136 18.6257 82.8651 18.0908 82.8651 17.645C82.8651 16.8724 82.9542 16.8129 84.2023 16.8129C85.4207 16.8129 85.5396 16.7535 85.5396 16.07C85.5396 15.654 85.2127 14.9408 84.7967 14.4356C84.3806 13.9304 84.0537 13.3955 84.0537 13.2469C84.0537 13.0983 84.3806 12.7714 84.7967 12.5634C85.391 12.2662 85.599 12.2959 85.9853 12.6526C86.4014 13.0389 86.5203 13.0389 87.0254 12.504C87.3523 12.1771 87.6495 11.4639 87.6792 10.929C87.7089 10.3941 87.8872 9.79971 88.0953 9.59169C88.4222 9.29452 88.6599 9.41339 90.2943 11.0181L90.8887 10.4238C91.2156 10.0969 91.5127 9.53225 91.483 9.14593C91.483 8.58131 91.6316 8.49215 92.6717 8.49215ZM94.7519 14.079C94.2467 13.7521 93.266 13.5441 92.4637 13.5441H92.434C91.6613 13.5441 90.5915 13.7818 90.0269 14.0493C89.492 14.3464 88.7788 15.0596 88.4816 15.6243C88.1547 16.1889 87.917 17.1696 87.917 17.7639C87.917 18.388 88.1844 19.4281 88.5113 20.0818C88.9571 20.9733 89.4623 21.4191 90.5024 21.8946C91.5425 22.3701 92.1962 22.4592 92.9689 22.3106C93.5335 22.1917 94.3656 21.9243 94.8113 21.6866C95.2868 21.4488 95.9109 20.8248 96.2378 20.3196C96.5944 19.7252 96.8024 18.804 96.8024 18.0016C96.8024 17.229 96.5646 16.2483 96.208 15.6243C95.9109 15.0596 95.2274 14.3464 94.7519 14.079Z" fill="#003FFF"/>
<path fill-rule="evenodd" clip-rule="evenodd" d="M99.0609 0.0227754C100.517 0.111927 102.746 0.438815 103.964 0.795421C105.183 1.12231 107.263 1.95439 108.57 2.63788C110.235 3.49968 111.631 4.53978 113.206 6.11479C114.87 7.77894 115.762 8.99735 116.743 10.8695C117.456 12.2662 118.288 14.2573 118.585 15.3271C118.882 16.3969 119.209 18.2097 119.298 19.3389C119.387 20.4682 119.506 21.7163 119.595 22.1026V23.7073C119.536 23.9153 119.328 24.896 119.15 25.8767C118.942 26.8573 118.466 28.4621 118.08 29.4427C117.664 30.4234 116.891 31.939 116.356 32.8305C115.851 33.6923 114.335 35.4456 113.028 36.6937C111.691 37.9418 109.818 39.3682 108.868 39.9032C107.887 40.4381 106.015 41.2107 104.707 41.6268C103.281 42.1022 101.319 42.4885 99.8038 42.5777C98.0208 42.6966 96.5349 42.5777 94.7519 42.2211C93.3552 41.9536 91.4236 41.3593 90.4429 40.9135C89.4623 40.4678 87.9764 39.6654 87.174 39.1008C86.342 38.5659 85.2127 37.7041 84.6481 37.2286C84.0835 36.7531 83.0434 35.6536 82.3301 34.8215C81.6169 33.9894 80.6065 32.4442 80.0419 31.3743C79.507 30.3045 78.8532 28.6998 78.6155 27.8083C78.348 26.9168 78.0806 25.6687 77.9914 25.0446L77.6646 23.0535L77.7537 20.7653C77.8131 19.4875 78.0509 17.5856 78.2886 16.5158C78.5263 15.446 79.091 13.7818 79.507 12.8011C79.9528 11.8205 80.9037 10.0672 81.6169 8.93791C82.3599 7.80866 83.6674 6.1445 84.5589 5.28271C85.4207 4.45063 86.966 3.26194 87.9764 2.69732C89.0165 2.13269 90.6212 1.38976 91.5425 1.06287C92.4934 0.735986 93.9793 0.349664 94.8113 0.171361C95.6731 0.0227754 97.6047 -0.0366588 99.0609 0.0227754ZM103.964 1.68693C102.746 1.33033 100.517 1.00344 99.0609 0.914288C97.6048 0.854853 96.1189 0.854853 95.792 0.944005C95.5809 0.982384 95.0848 1.08272 94.5198 1.19701C94.2098 1.2597 93.879 1.3266 93.5632 1.38976C92.6717 1.56806 90.7995 2.25156 89.4028 2.93505C87.6495 3.79685 86.342 4.71808 85.0641 5.9662C84.0835 6.94686 82.6273 8.81904 81.8547 10.1266C81.1117 11.4341 80.1311 13.5738 79.715 14.8813C79.299 16.1889 78.8532 18.388 78.7344 19.7847C78.5858 21.2111 78.5858 23.2318 78.7344 24.3908C78.883 25.5201 79.2098 27.1545 79.4773 27.9569C79.7448 28.7592 80.4282 30.3045 81.0226 31.3743C81.6764 32.5927 83.0136 34.2272 84.6184 35.8319C86.1637 37.3475 87.8873 38.7442 88.9571 39.3088C89.9377 39.814 91.7505 40.5272 92.9689 40.9135C94.6925 41.4484 95.9406 41.597 98.4665 41.597C100.646 41.6168 102.379 41.4484 103.667 41.0918C104.737 40.8244 106.728 40.022 108.125 39.3385C110.056 38.3876 111.156 37.5555 112.879 35.8616C114.306 34.4055 115.494 32.8602 116.208 31.5229C116.802 30.3937 117.604 28.3729 117.961 27.0654C118.496 25.2526 118.644 23.9748 118.615 21.7163C118.585 19.7847 118.347 17.9125 117.961 16.3672C117.604 15.0596 116.772 12.8606 116.119 11.4639C115.138 9.50254 114.365 8.43272 112.612 6.70913C111.126 5.22327 109.64 4.0643 108.273 3.38081C107.114 2.78647 105.183 2.01382 103.964 1.68693Z" fill="#003FFF"/>
<path fill-rule="evenodd" clip-rule="evenodd" d="M110.205 20.0818C110.294 20.0521 110.769 20.4087 111.245 20.8545C112.077 21.5974 112.107 21.6568 111.602 22.0432C111.126 22.4295 111.126 22.4889 111.602 23.2913C111.899 23.737 112.285 24.3611 112.463 24.688C112.642 25.0149 113.206 25.4012 113.711 25.5795C114.514 25.847 114.633 25.9955 114.454 26.6196C114.365 27.0356 114.157 27.6894 114.009 28.1055C113.801 28.6998 113.682 28.7592 113.474 28.4026C113.325 28.1649 113.147 28.0163 113.087 28.1055C112.998 28.1946 112.671 28.8484 112.315 29.5913C111.839 30.5423 111.75 31.0177 111.958 31.2258C112.136 31.4041 112.285 31.7012 112.285 31.8795C112.285 32.0876 111.958 32.4739 111.542 32.7116C110.918 33.0979 110.71 33.0979 110.116 32.771C109.729 32.5036 108.749 32.3847 107.679 32.4144C106.193 32.4739 105.807 32.6225 104.915 33.9003L103.845 33.1574C103.073 32.6522 102.835 32.3253 103.073 32.1173C103.221 31.939 103.37 31.6418 103.37 31.4338C103.37 31.2555 103.043 30.6908 102.627 30.1857C102.211 29.6805 101.884 29.0861 101.884 28.8484C101.884 28.5809 101.617 28.4026 101.141 28.4026C100.606 28.4026 100.339 28.1946 100.22 27.7191C100.131 27.3625 100.101 26.7385 100.16 26.3224C100.22 25.7875 100.458 25.5498 100.992 25.4904C101.557 25.4309 101.914 25.0446 102.478 23.9451C102.984 22.9644 103.132 22.3998 102.924 22.1917C102.716 21.9837 102.865 21.6271 103.37 21.1219C103.786 20.7059 104.291 20.379 104.469 20.379C104.677 20.379 104.915 20.5573 105.004 20.7356C105.093 21.0031 105.836 21.1219 107.085 21.1219C108.511 21.1219 109.135 21.0031 109.521 20.587C109.789 20.3196 110.116 20.0818 110.205 20.0818ZM109.7 24.48C109.254 24.0045 108.422 23.5885 107.857 23.4993C107.164 23.3804 106.47 23.4993 105.777 23.8559C105.183 24.1531 104.499 24.8366 104.232 25.4309C103.845 26.1738 103.756 26.7682 103.934 27.5111C104.053 28.0757 104.499 28.9078 104.945 29.3536C105.599 29.9776 106.044 30.1857 106.966 30.1857C107.619 30.1857 108.511 30.0074 108.957 29.7696C109.432 29.5616 110.026 28.9375 110.294 28.3729C110.621 27.7489 110.74 26.9762 110.651 26.3224C110.561 25.7281 110.145 24.9257 109.7 24.48Z" fill="#003FFF"/>
<path d="M105.777 25.8172C105.569 26.1738 105.45 26.7385 105.51 27.0356C105.569 27.3328 105.955 27.8677 106.401 28.2243C107.114 28.7592 107.322 28.7889 107.976 28.4918C108.392 28.254 108.778 27.7489 108.897 27.3031C108.986 26.7682 108.897 26.2333 108.6 25.8172C108.273 25.3418 107.827 25.1337 107.114 25.1337C106.401 25.1337 106.015 25.312 105.777 25.8172Z" fill="#003FFF"/>
<path fill-rule="evenodd" clip-rule="evenodd" d="M90.5915 16.3969C90.2349 16.8427 89.9377 17.4964 89.9674 17.8828C89.9972 18.2691 90.116 18.8337 90.2646 19.1309C90.3835 19.3983 90.8887 19.8144 91.3642 20.0521C92.1071 20.379 92.3745 20.379 93.2363 20.0521C93.7712 19.8144 94.3656 19.3983 94.4844 19.1309C94.633 18.8337 94.7519 18.2394 94.7519 17.7936C94.7519 17.3181 94.4845 16.6644 94.0981 16.3078C93.6524 15.862 93.058 15.6243 92.3151 15.6243C91.483 15.6243 91.067 15.8026 90.5915 16.3969Z" fill="#003FFF"/>
<path fill-rule="evenodd" clip-rule="evenodd" d="M150.917 22.6969L153.206 22.905C154.484 23.0238 157.782 23.4399 160.576 23.8262C163.369 24.2125 166.341 24.688 167.173 24.8366C168.035 25.0149 168.748 25.2526 168.748 25.4309C168.748 25.6092 166.578 27.422 163.904 29.5022C161.259 31.5526 158.911 33.3951 158.703 33.5734C158.436 33.8111 158.168 33.7517 157.723 33.3059C157.217 32.8008 157.009 32.771 156.326 33.0385C156.149 33.1212 155.863 33.2462 155.524 33.3948L155.523 33.3952L155.522 33.396C155.458 33.4239 155.392 33.4526 155.325 33.4821C154.851 33.6899 154.301 33.9329 153.8 34.1677C152.433 34.7918 152.106 34.8512 152.106 34.4946C152.106 34.2569 152.79 32.9196 153.592 31.5229C154.424 30.1262 155.316 28.8484 155.613 28.6998C156.059 28.4323 155.88 28.1649 154.157 26.5304C153.057 25.5201 151.898 24.2422 151.542 23.7073L150.917 22.6969ZM160.665 24.5691C156.95 24.0639 153.562 23.6479 153.117 23.6479H153.087C152.344 23.6182 152.463 23.7965 154.513 25.6686L156.742 27.7191C161.586 26.8573 163.131 26.6196 163.28 26.6196C163.428 26.6493 163.369 26.7385 163.131 26.887C162.893 27.0356 161.2 27.6597 159.417 28.254C157.634 28.8781 155.969 29.5319 155.732 29.7102C155.524 29.8885 154.87 30.8394 154.305 31.8201C153.77 32.8008 153.354 33.6328 153.384 33.6625C153.443 33.6923 155.018 32.9791 156.891 32.0281C158.763 31.0772 161.942 29.2347 163.963 27.9569C165.954 26.6493 167.559 25.5498 167.529 25.5201C167.47 25.4903 164.409 25.0446 160.665 24.5691Z" fill="#003FFF"/>
<path d="M152.73 42.6371C152.879 42.6371 152.73 43.2909 152.403 44.0635C151.898 45.1928 151.839 45.5197 152.166 45.6683C152.374 45.7871 152.938 45.8169 153.384 45.7574C153.83 45.6683 154.186 45.7574 154.186 45.906C154.186 46.0843 154.008 46.2923 153.741 46.3518C153.503 46.4409 152.968 46.5003 152.552 46.5003C151.898 46.5003 151.839 46.6192 152.017 47.3324C152.106 47.7782 152.433 48.6103 152.76 49.1749C153.087 49.7692 153.295 50.2744 153.235 50.3041C153.206 50.3636 152.79 50.007 152.314 49.5612C151.868 49.1155 151.333 48.2239 151.125 47.5999C150.947 46.9461 150.62 46.3815 150.412 46.322C150.204 46.2626 150.026 46.0843 150.026 45.906C150.026 45.7574 150.204 45.698 150.412 45.7871C150.65 45.8763 150.947 45.5791 151.155 44.9848C151.393 44.4202 151.75 43.6772 151.987 43.3206C152.225 42.964 152.552 42.6371 152.73 42.6371Z" fill="#003FFF"/>
<path d="M146.103 44.747C146.4 44.747 147.114 44.8659 147.738 45.0442C148.362 45.1928 148.867 45.4602 148.867 45.6683C148.867 45.8466 148.629 45.906 148.332 45.7871C148.035 45.698 147.322 45.49 146.698 45.4008C146.074 45.2819 145.568 45.0739 145.568 44.9551C145.568 44.8362 145.806 44.747 146.103 44.747Z" fill="#003FFF"/>
<path d="M143.28 42.8749C143.964 43.5584 144.439 44.2121 144.291 44.3607C144.172 44.4796 143.577 44.0933 143.042 43.4692C142.478 42.8451 142.002 42.1914 142.002 41.9833C142.002 41.7753 142.597 42.1616 143.28 42.8749Z" fill="#003FFF"/>
<path d="M141.854 36.7829C141.883 36.8423 141.765 37.3178 141.646 37.7932C141.497 38.239 141.467 39.0413 141.586 39.5168C141.705 40.2003 141.675 40.3192 141.438 39.9626C141.259 39.7248 141.141 39.2494 141.17 38.8928C141.17 38.5362 141.319 37.8824 141.497 37.4366C141.705 36.9909 141.854 36.6937 141.854 36.7829Z" fill="#003FFF"/>
<path d="M145.182 32.2658C145.628 32.2658 145.539 32.3847 144.825 32.9493C144.35 33.3357 143.637 34.138 143.28 34.7324C142.924 35.3267 142.478 35.8022 142.299 35.8022C142.151 35.8022 142.181 35.4753 142.418 34.9998C142.656 34.5541 143.25 33.7517 143.726 33.2168C144.231 32.6819 144.885 32.2658 145.182 32.2658Z" fill="#003FFF"/>
<path d="M150.412 29.2941C150.531 29.2941 150.62 29.3536 150.62 29.413C150.62 29.5022 149.818 29.9776 148.837 30.4531C147.857 30.9583 146.995 31.3446 146.906 31.3446C146.846 31.3446 146.757 31.2555 146.727 31.1069C146.727 30.9583 147.47 30.5125 148.451 30.0668C149.402 29.6507 150.293 29.2941 150.412 29.2941Z" fill="#003FFF"/>
<path d="M154.186 28.4621C154.454 28.4323 154.186 28.6106 153.592 28.8187C153.027 29.0564 152.314 29.2347 151.987 29.2644C151.631 29.2644 151.512 29.1753 151.69 28.997C151.839 28.8484 152.374 28.6701 152.849 28.6106C153.354 28.5215 153.949 28.4621 154.186 28.4621Z" fill="#003FFF"/>
<path fill-rule="evenodd" clip-rule="evenodd" d="M135.167 28.4026L136.089 26.3819C136.594 25.2823 137.574 23.6479 138.288 22.7564C139.001 21.8649 140.368 20.4979 141.319 19.7549C142.27 18.9823 143.904 17.9422 144.974 17.4073C146.044 16.8724 147.916 16.1889 149.134 15.8917C150.531 15.5351 152.403 15.3271 154.186 15.3271C156.068 15.3271 157.802 15.5252 159.387 15.9214C160.694 16.278 162.567 16.9318 163.547 17.3776C164.528 17.853 166.222 18.9526 167.321 19.8144C168.421 20.7059 169.877 22.162 170.56 23.0535C171.244 23.9451 172.314 25.7578 172.938 27.0653C173.532 28.3729 174.275 30.3045 174.572 31.3743C174.988 32.8008 175.107 34.3163 175.107 37.1692C175.107 40.5272 174.988 41.3296 174.305 43.4098C173.859 44.7173 173.027 46.6489 172.403 47.689C171.779 48.7291 170.204 50.6013 168.837 51.9089C167.47 53.1867 166.37 54.3457 166.37 54.4645L165.33 54.8509C165.152 54.8509 164.884 54.9697 164.736 55.0886C164.558 55.2372 163.577 55.7127 162.507 56.1584C161.437 56.5745 159.654 57.1391 158.495 57.3768C157.336 57.6146 155.553 57.8226 154.484 57.8226C153.414 57.8226 151.75 57.674 150.769 57.4957C149.788 57.3174 148.124 56.8419 147.054 56.4259C145.984 55.9801 144.32 55.148 143.34 54.524C142.359 53.9296 140.546 52.3843 139.298 51.0768C137.664 49.3829 136.742 48.0754 135.821 46.2329C135.138 44.8362 134.276 42.5777 133.949 41.181C133.414 39.1305 133.325 38.1201 133.474 35.8319C133.563 34.2866 133.89 32.1173 134.722 28.997L135.167 28.4026ZM158.792 16.6644C157.634 16.4266 155.434 16.2483 153.889 16.2483C152.344 16.278 150.799 16.3375 150.472 16.3969C150.145 16.4861 149.283 16.6941 148.54 16.8724C147.797 17.0507 146.46 17.5262 145.568 17.9125C144.677 18.2988 143.28 19.1309 142.448 19.7549C141.646 20.3493 140.338 21.6568 139.595 22.6375C138.823 23.5884 137.723 25.2526 137.158 26.3224C136.564 27.3922 135.732 29.4724 135.286 30.9286C134.632 33.1574 134.484 34.1677 134.484 37.1692C134.484 40.23 134.573 41.0918 135.257 43.1126C135.673 44.4499 136.653 46.4409 137.485 47.7188C138.288 48.9372 139.863 50.7796 140.992 51.8197C142.181 52.9193 143.993 54.1971 145.271 54.8211C146.49 55.4452 148.57 56.1881 149.877 56.4853C151.66 56.8716 153.027 56.9905 155.375 56.8716C157.752 56.7528 159.09 56.515 161.021 55.8612C162.418 55.3858 164.32 54.4943 165.241 53.8999C166.192 53.2759 167.589 52.206 168.332 51.4928C169.075 50.8093 170.263 49.3829 170.947 48.3131C171.66 47.2433 172.492 45.698 172.849 44.8956C173.176 44.0635 173.681 42.2805 173.978 40.8838C174.335 39.0414 174.424 37.5852 174.305 35.5347C174.216 33.9003 173.859 31.8201 173.502 30.6314C173.146 29.5022 172.433 27.7488 171.957 26.7682C171.452 25.7875 170.501 24.2719 169.818 23.3804C169.164 22.5186 167.797 21.1814 166.816 20.4384C165.835 19.6955 164.112 18.6554 162.953 18.1205C161.794 17.5559 159.951 16.9021 158.792 16.6644Z" fill="#003FFF"/>
<path d="M158.139 38.8036C158.436 38.8036 158.644 38.9225 158.644 39.0711C158.644 39.2494 158.495 39.3682 158.287 39.3682C158.079 39.3682 157.455 39.4574 155.821 39.6951L156.712 39.2494C157.218 39.0116 157.842 38.8036 158.139 38.8036Z" fill="#003FFF"/>
<path d="M160.486 38.7739C160.873 38.7739 161.408 39.0116 161.675 39.3088C161.913 39.5763 162.21 40.1706 162.329 40.5569C162.477 41.2701 162.448 41.2404 161.705 40.3489C161.259 39.814 160.724 39.3682 160.516 39.3682C160.308 39.3682 160.07 39.2494 159.951 39.0711C159.862 38.9225 160.1 38.7739 160.486 38.7739Z" fill="#003FFF"/>
<path d="M162.151 42.756C162.21 42.9343 162.032 43.4395 161.705 43.8258C161.378 44.2418 160.843 44.6282 160.486 44.6579C159.922 44.7173 159.981 44.5985 160.932 43.5584C161.556 42.8749 162.061 42.548 162.151 42.756Z" fill="#003FFF"/>
<path d="M158.436 45.0739C158.555 45.0442 158.644 45.1631 158.644 45.3117C158.644 45.49 158.495 45.6683 158.287 45.7574C158.13 45.8025 157.665 45.8816 157.151 45.9691C156.987 45.997 156.818 46.0258 156.653 46.0546C155.969 46.1437 155.375 46.114 155.375 45.9952C155.375 45.8763 156.029 45.6088 156.801 45.4305C157.299 45.3158 157.784 45.2133 158.098 45.1469L158.099 45.1468C158.272 45.1101 158.394 45.0845 158.436 45.0739Z" fill="#003FFF"/>
<path d="M154.543 50.6905C154.751 50.6905 155.375 50.8391 155.91 51.0471C156.445 51.2551 156.891 51.5225 156.891 51.6414C156.891 51.7603 156.653 51.79 156.356 51.6711C156.279 51.6482 156.187 51.6194 156.086 51.5877C155.793 51.4961 155.424 51.3807 155.137 51.3145C154.751 51.1957 154.365 51.0174 154.276 50.8985C154.216 50.7796 154.335 50.6905 154.543 50.6905Z" fill="#003FFF"/>
<path d="M164.974 50.0961C165.093 50.0961 165.182 50.215 165.182 50.3636C165.182 50.5419 164.617 50.9282 163.934 51.2551C163.25 51.582 162.507 51.8494 162.299 51.8494C162.091 51.8494 161.943 51.7603 161.943 51.6414C161.943 51.5225 162.567 51.1362 163.339 50.7796C164.112 50.423 164.855 50.1258 164.974 50.0961Z" fill="#003FFF"/>
<path fill-rule="evenodd" clip-rule="evenodd" d="M176.771 78.0302C177.514 78.0302 178.733 78.1788 179.446 78.3868C180.189 78.5949 181.318 79.1892 181.972 79.6944C182.625 80.1996 183.576 81.3288 184.052 82.2204C184.854 83.6171 184.943 84.0925 184.943 86.1727C184.943 88.0152 184.795 88.8473 184.319 89.7388C183.992 90.3926 183.042 91.5218 180.783 93.5129L181.021 95.2662C181.169 96.3657 181.14 97.0789 180.932 97.1681C180.783 97.2572 179.475 97.3464 178.049 97.3761C176.623 97.3761 175.137 97.3167 174.78 97.2275C174.216 97.0492 174.097 96.8412 174.097 95.6822C174.097 94.4044 174.067 94.3152 172.403 93.2454C171.482 92.6214 170.412 91.6704 170.025 91.0761C169.639 90.5114 169.193 89.501 169.015 88.8473C168.837 88.1935 168.777 86.8562 168.837 85.8756C168.926 84.8949 169.193 83.6468 169.431 83.0524C169.669 82.4878 170.382 81.4477 171.006 80.7345C171.66 80.0213 172.551 79.2189 173.027 78.9812C173.473 78.7137 174.216 78.4166 174.661 78.2977C175.077 78.1788 176.058 78.06 176.771 78.0302ZM179.565 79.3081C179.059 79.1001 177.9 78.9218 177.039 78.9218C176.207 78.9515 175.018 79.1001 174.453 79.3081C173.889 79.5161 173.057 79.9024 172.581 80.1996C172.135 80.467 171.363 81.2694 170.887 81.9826C170.382 82.6661 169.907 83.6765 169.847 84.2114C169.758 84.7166 169.609 85.1623 169.461 85.1623C169.342 85.1623 169.342 86.0241 169.461 87.094C169.609 88.1638 169.966 89.5605 170.293 90.2143C170.689 91.0067 171.531 91.8487 172.819 92.7402C174.334 93.7803 174.75 94.2558 174.75 94.8204C174.75 95.2365 174.958 95.6525 175.196 95.8011C175.434 95.9199 175.761 95.8902 175.88 95.7714C175.999 95.6228 175.761 94.6421 175.375 93.5426C174.988 92.4431 174.067 90.3926 173.383 88.9661C172.67 87.51 172.106 86.2916 172.135 86.2322C172.195 86.1727 173.027 86.0539 174.008 85.9647C174.301 85.938 174.691 85.9007 175.133 85.8583L175.139 85.8577L175.14 85.8576C176.174 85.7584 177.495 85.6318 178.554 85.5487L181.288 85.3109C180.872 86.6779 180.456 87.7775 180.129 88.5798C179.773 89.4119 179.267 91.1355 179 92.443C178.733 93.7506 178.614 95.0582 178.703 95.3553C178.851 95.6525 179.178 95.8308 179.565 95.8011C180.159 95.7119 180.248 95.5633 180.159 94.5232C180.07 93.4237 180.189 93.2157 181.556 91.8487C182.447 90.9869 183.309 89.7982 183.606 89.0256C183.874 88.2826 184.082 87.0345 184.082 86.2024C184.082 85.4001 183.874 84.1222 183.606 83.3793C183.309 82.6067 182.566 81.5666 181.823 80.8831C181.11 80.2293 180.1 79.5161 179.565 79.3081ZM180.397 86.2024C180.397 86.1133 180.278 86.0539 180.159 86.0539C180.01 86.0539 179.832 86.143 179.743 86.2322C179.654 86.3213 178.317 86.4402 176.801 86.5293C175.256 86.5888 173.829 86.6779 173.621 86.7076C173.443 86.7671 173.265 86.8562 173.265 86.9454C173.265 87.0188 173.567 87.6565 173.956 88.4768C174.039 88.6526 174.126 88.8368 174.216 89.0256C174.721 90.0954 175.523 92.027 175.969 93.3346C176.652 95.2959 176.92 95.7416 177.484 95.8011C178.108 95.8902 178.168 95.7714 178.257 94.1666C178.316 93.2157 178.465 91.8784 178.614 91.1949C178.792 90.4817 179.238 89.1147 179.654 88.1341C180.07 87.1534 180.397 86.2916 180.397 86.2024Z" fill="#003FFF"/>
<path d="M166.281 77.109C166.43 77.109 167.054 77.6439 167.708 78.2977C168.361 78.9515 168.807 79.6053 168.688 79.7241C168.569 79.843 168.034 79.5458 167.559 79.0406C167.054 78.5651 166.489 77.9411 166.341 77.6439C166.192 77.3468 166.162 77.109 166.281 77.109Z" fill="#003FFF"/>
<path d="M163.607 85.1623C164.409 85.1623 165.241 85.2812 165.479 85.4001C165.835 85.6081 165.835 85.6973 165.568 85.8458C165.36 85.9647 164.706 85.9053 164.082 85.7567C163.458 85.6081 162.864 85.519 162.745 85.6081C162.626 85.6675 162.448 85.6081 162.329 85.4298C162.24 85.2515 162.715 85.1623 163.607 85.1623Z" fill="#003FFF"/>
<path fill-rule="evenodd" clip-rule="evenodd" d="M173.651 67.5698L177.068 67.7184C179.713 67.8076 181.021 68.0156 182.863 68.6396C184.171 69.0854 186.102 69.9472 187.172 70.5712C188.242 71.1953 189.876 72.4434 190.857 73.3052C191.808 74.1967 193.205 75.8312 193.977 76.9901C194.75 78.1491 195.79 80.1996 196.295 81.5963C196.801 82.993 197.365 85.1921 197.573 86.4996C197.781 87.9558 197.841 89.7982 197.722 91.2544C197.603 92.5619 197.187 94.6421 196.801 95.8605C196.414 97.0789 195.612 98.9511 194.988 99.9912C194.364 101.002 193.056 102.695 192.076 103.706C191.095 104.716 189.639 106.024 188.807 106.559C188.004 107.123 186.31 108.015 182.863 109.501L181.823 109.976H177.306C173.116 109.976 172.581 109.917 170.471 109.144C169.193 108.698 167.202 107.777 166.043 107.064C164.706 106.291 163.072 104.924 161.645 103.409C160.397 102.071 158.882 100.051 158.287 98.9511C157.693 97.8219 156.92 95.8308 156.564 94.5232C156.177 92.9482 155.969 91.1949 155.969 89.3227C155.969 87.4803 156.177 85.6675 156.564 84.1222C156.89 82.8147 157.752 80.5265 158.465 79.0703C159.208 77.6142 160.457 75.5934 161.259 74.6128C162.061 73.6321 163.428 72.2651 164.32 71.5816C165.211 70.8981 166.608 70.0066 167.41 69.5906C168.242 69.1745 169.788 68.6099 170.917 68.3127C172.016 68.0156 172.908 67.6887 172.908 67.5401L173.651 67.5698ZM182.863 69.5311C181.14 68.9962 179.624 68.7288 177.366 68.6396C175.196 68.5802 173.621 68.6694 172.165 68.9962C171.006 69.2637 169.223 69.858 168.153 70.3632C167.083 70.8387 165.508 71.7896 164.617 72.4731C163.725 73.1566 162.448 74.4642 161.764 75.3557C161.051 76.2472 159.981 78.0005 159.327 79.2189C158.703 80.4373 157.931 82.3689 157.633 83.5279C157.366 84.6869 157.039 86.9454 156.95 88.5798C156.861 90.6897 156.95 92.2053 157.277 93.7803C157.544 94.9987 158.228 97.0195 158.852 98.2379C159.684 99.9912 160.546 101.091 162.774 103.29C164.795 105.311 166.222 106.44 167.708 107.212C168.866 107.807 170.798 108.55 172.016 108.847C173.621 109.263 175.077 109.412 177.217 109.352C178.851 109.322 180.545 109.204 181.021 109.114C181.467 109.025 182.655 108.639 183.666 108.253C184.706 107.896 186.34 107.123 187.321 106.559C188.272 105.994 189.966 104.627 191.035 103.557C192.105 102.487 193.472 100.764 194.096 99.694C194.72 98.6539 195.493 96.9303 195.82 95.8605C196.147 94.7907 196.563 92.9185 196.741 91.7001C196.979 90.0657 196.979 88.7581 196.711 86.8562C196.533 85.4298 195.968 83.1713 195.493 81.8043C194.988 80.467 194.126 78.6246 193.591 77.7331C193.026 76.8416 191.778 75.2963 190.798 74.3156C189.817 73.3349 188.183 72.0274 187.142 71.4033C186.102 70.7793 184.171 69.9472 182.863 69.5311Z" fill="#003FFF"/>
<path d="M177.603 98.0596C181.496 98.0596 181.526 98.0893 181.526 98.7431C181.526 99.0997 181.318 99.6049 181.08 99.8426C180.783 100.11 180.04 100.318 179.208 100.318C178.465 100.318 177.128 100.11 176.266 99.8723C175.404 99.6049 174.513 99.2185 174.245 98.9511C174.008 98.7134 173.77 98.4162 173.74 98.2973C173.71 98.1487 175.434 98.0596 177.603 98.0596Z" fill="#003FFF"/>
<path d="M174.245 99.9912C174.334 99.9912 174.661 100.14 174.988 100.288C175.315 100.467 176.088 100.704 176.712 100.823C177.336 100.942 178.525 101.002 179.386 100.972C180.248 100.942 180.961 101.002 180.961 101.12C180.961 101.239 180.664 101.596 180.337 101.923C179.921 102.309 179.149 102.577 178.317 102.636C177.544 102.695 176.444 102.606 175.82 102.428C174.958 102.161 174.632 101.863 174.394 101.12C174.32 100.853 174.245 100.6 174.19 100.411C174.134 100.222 174.097 100.095 174.097 100.08C174.097 100.051 174.186 99.9912 174.245 99.9912Z" fill="#003FFF"/>
<path d="M177.782 103.379C179.149 103.409 179.743 103.528 179.743 103.795C179.743 104.003 179.416 104.36 179 104.597C178.406 104.984 178.108 104.984 177.336 104.687C176.831 104.478 176.266 104.092 176.088 103.825C175.82 103.409 175.999 103.349 177.782 103.379Z" fill="#003FFF"/>
<path d="M189.163 87.5397C190.411 87.5694 190.738 87.6289 190.293 87.8072C189.966 87.9558 189.282 88.0746 188.747 88.1043C188.212 88.1043 187.707 87.9855 187.588 87.8072C187.499 87.6289 188.064 87.5397 189.163 87.5397Z" fill="#003FFF"/>
<path d="M188.955 81.002C189.342 81.002 189.55 81.0911 189.431 81.21C189.312 81.3288 188.658 81.6557 187.975 81.9232C187.232 82.2204 186.548 82.3095 186.281 82.1609C185.924 81.9529 185.984 81.8638 186.578 81.626C186.768 81.5582 186.982 81.4842 187.182 81.4153L187.184 81.4146L187.185 81.4143C187.294 81.3768 187.398 81.3408 187.492 81.3082C187.565 81.2827 187.632 81.2592 187.689 81.2386L187.741 81.2197L187.767 81.21C188.034 81.1208 188.539 81.0317 188.955 81.002Z" fill="#003FFF"/>
<path d="M185.3 75.2071C185.359 75.2666 185.27 75.5637 185.122 75.8609C184.973 76.1581 184.379 76.8416 183.784 77.4062C183.22 78.0005 182.625 78.3571 182.507 78.2383C182.388 78.1194 182.952 77.3467 183.755 76.5147C184.557 75.7123 185.241 75.118 185.3 75.2071Z" fill="#003FFF"/>
<path d="M176.266 72.8C176.415 72.9189 176.533 73.7213 176.533 74.6128C176.504 75.5043 176.355 76.2175 176.177 76.2175C176.028 76.2175 175.909 75.4449 175.939 74.4345C175.939 73.3052 176.058 72.7109 176.266 72.8Z" fill="#003FFF"/>
</svg>
