<svg width="100" height="100" viewBox="0 0 100 100" fill="none" xmlns="http://www.w3.org/2000/svg">
<path fill-rule="evenodd" clip-rule="evenodd" d="M49.5344 6.03094C49.2282 6.07053 48.8547 6.16466 48.6016 6.26602C48.3743 6.35704 47.9283 6.60181 47.7289 6.74491C47.5682 6.86024 46.8795 7.54096 46.6049 7.85585C46.5102 7.96444 46.3251 8.1699 46.1935 8.31243C46.0619 8.45495 45.9221 8.61599 45.8827 8.67029C45.8434 8.72458 45.7567 8.82453 45.6901 8.8924C45.6236 8.96027 45.4709 9.12686 45.3508 9.2626C45.2308 9.39834 45.0491 9.59825 44.947 9.70684C44.8449 9.81543 44.7078 9.96536 44.6424 10.04C44.577 10.1147 44.45 10.2535 44.3603 10.3485C44.2705 10.4435 44.1564 10.5724 44.1068 10.6349C44.0571 10.6974 43.969 10.7978 43.911 10.858C43.4749 11.3102 42.7992 12.0931 42.2631 12.7671C41.5941 13.6083 40.8133 14.9037 40.4345 15.8008C39.8522 17.18 39.4905 18.6451 39.4044 19.9737C39.3895 20.2044 39.3648 20.4654 39.3496 20.5537C39.3242 20.701 39.3192 21.7001 39.3437 21.74C39.3493 21.7491 39.3648 21.944 39.3781 22.1732C39.4204 22.9008 39.4847 23.6344 39.5756 24.4284C39.6013 24.6524 39.6454 25.0633 39.6737 25.3416C39.7021 25.6198 39.7683 26.2529 39.8208 26.7483C39.8733 27.2438 39.9394 27.8768 39.9676 28.1551C39.9958 28.4333 40.0569 29.0108 40.1033 29.4384C40.1497 29.866 40.2044 30.3935 40.2249 30.6107C40.2453 30.8279 40.2843 31.2166 40.3114 31.4745C40.3386 31.7324 40.3833 32.1822 40.4107 32.474C40.4381 32.7659 40.4869 33.2545 40.5191 33.56C40.5514 33.8654 40.6065 34.3929 40.6416 34.7323C40.7015 35.3098 40.8417 36.5958 40.9004 37.1052C40.9147 37.2293 40.9232 37.4181 40.9192 37.5247L40.912 37.7184L40.6525 37.8666C40.0322 38.2206 39.0886 38.8584 38.6006 39.2536C38.1685 39.6034 37.3476 40.3795 37.1179 40.6554C37.05 40.7369 36.9215 40.8854 36.8322 40.9854C36.7429 41.0855 36.6091 41.254 36.535 41.36C36.4608 41.466 36.3277 41.6562 36.2393 41.7828C35.9959 42.1311 35.598 42.813 35.4354 43.1604C35.3128 43.4223 35.2696 43.5322 35.0709 44.0859C34.8607 44.6717 34.8584 44.6796 34.7442 45.2089C34.6243 45.7651 34.5855 46.0558 34.5271 46.8382C34.4786 47.4883 34.4871 47.9415 34.5599 48.6024C34.5794 48.7788 34.602 48.9954 34.6103 49.0836C34.6355 49.3545 34.8236 50.2162 34.9899 50.8226C35.121 51.3009 35.5006 52.3435 35.7489 52.9075C35.9628 53.3933 36.2319 53.7039 36.5963 53.8854C37.2452 54.2088 37.8731 54.1521 38.479 53.7155C38.6585 53.5862 39.0298 53.2247 39.2693 52.946C39.3627 52.8374 39.5348 52.6486 39.6517 52.5265C39.7686 52.4043 39.9345 52.2211 40.0203 52.1193C40.1062 52.0175 40.2487 51.8565 40.3372 51.7614C40.4256 51.6664 40.5415 51.5391 40.5946 51.4785C40.7482 51.3035 41.0508 50.9762 41.1089 50.9223C41.1382 50.8951 41.27 50.7507 41.4019 50.6014C41.6814 50.285 42.133 49.8001 42.4814 49.4421C42.6901 49.2276 42.7412 49.1877 42.8247 49.1742C42.8786 49.1654 43.2403 49.1581 43.6285 49.1579C44.2471 49.1577 44.3361 49.1624 44.349 49.1964C44.3571 49.2177 44.3188 49.3315 44.2638 49.4493C44.1791 49.6309 43.9187 50.2911 43.8004 50.6244C43.7814 50.6778 43.7445 50.7688 43.7183 50.8267C43.6921 50.8845 43.6706 50.944 43.6706 50.9587C43.6706 50.9735 43.6362 51.099 43.5942 51.2377C43.3518 52.0373 43.0278 53.1778 42.9723 53.4273C42.9109 53.7032 42.6783 54.8871 42.5941 55.3523C42.4704 56.0358 42.4251 56.3723 42.3598 57.0922C42.3253 57.4723 42.2867 57.8888 42.274 58.0177C42.1909 58.8605 42.1912 58.8542 42.2213 59.1854C42.3233 60.3072 42.4616 60.9902 42.8519 62.2997C43.1735 63.3791 43.5275 64.3763 43.9293 65.3353C43.9862 65.4711 44.1069 65.7598 44.1976 65.977C44.693 67.1637 45.7537 69.4345 46.1976 70.259C46.267 70.3879 46.4603 70.7655 46.6271 71.0981C46.7939 71.4306 46.9783 71.7916 47.0369 71.9002C47.0954 72.0088 47.2268 72.2531 47.3288 72.4431C47.5101 72.7809 47.5666 72.8841 47.6799 73.0848C47.7105 73.1391 47.7666 73.2557 47.8045 73.344C47.8424 73.4322 47.8988 73.543 47.9299 73.5903C47.995 73.6893 48.0037 73.8268 47.9487 73.888C47.9212 73.9185 47.9085 73.9998 47.9022 74.1861C47.8921 74.4833 47.8297 75.0347 47.7765 75.297C47.7563 75.397 47.729 75.5454 47.716 75.6268C47.652 76.027 47.3465 77.2086 47.23 77.5066C46.9224 78.2929 46.8341 78.4619 46.3252 79.2361C46.0533 79.6498 45.871 79.8704 45.3112 80.4631C45.1953 80.5858 45.0833 80.7195 45.0622 80.7603C45.0412 80.801 44.9953 80.8612 44.9603 80.8941L44.8967 80.954L44.8389 80.8994C44.8072 80.8693 44.7344 80.7498 44.6773 80.6338C44.4544 80.1811 44.1611 79.7581 43.7623 79.3142C43.4986 79.0207 43.2967 78.8454 42.9473 78.6065C42.8124 78.5143 42.6689 78.416 42.6285 78.3881C42.4528 78.2667 42.129 78.0853 42.0245 78.0497C41.9621 78.0285 41.8517 77.9793 41.7793 77.9405C41.5253 77.8044 40.759 77.6082 40.2131 77.5396C39.4869 77.4482 39.4118 77.4303 39.3539 77.3344C39.3273 77.2905 39.3051 77.1837 39.2947 77.0501C39.2553 76.5421 39.2214 76.4002 39.0328 75.9537C38.8629 75.5514 38.7146 75.2493 38.6119 75.0962C38.5065 74.9391 37.9627 74.2852 37.8676 74.2011C37.8239 74.1625 37.6138 74.015 37.4006 73.8734C37.1875 73.7318 36.989 73.5991 36.9595 73.5786C36.9299 73.5582 36.8956 73.5414 36.8831 73.5414C36.8706 73.5414 36.834 73.5213 36.8019 73.4967C36.7388 73.4484 36.6088 73.3979 36.3756 73.3311C36.2946 73.308 36.1677 73.2578 36.0936 73.2196C35.958 73.1498 35.8984 73.1405 35.0766 73.0607C35.0096 73.0542 34.9017 73.0296 34.8368 73.0062C34.7357 72.9695 34.7077 72.9681 34.64 72.9958C34.5965 73.0135 34.4532 73.043 34.3214 73.0613C34.0894 73.0935 34.0236 73.108 33.6047 73.2195C33.1484 73.341 32.9516 73.4242 32.6298 73.6318C32.5005 73.7152 32.4448 73.7387 32.4167 73.7216C32.3957 73.7088 32.2802 73.5658 32.1599 73.4039C31.9289 73.093 31.2943 72.4232 31.0054 72.1856C30.911 72.1079 30.7462 71.9852 30.6391 71.9129C30.5321 71.8406 30.3555 71.7134 30.2468 71.6303C30.138 71.5472 29.9505 71.4195 29.8301 71.3466C29.5311 71.1657 28.701 70.7447 28.5655 70.7053C28.5048 70.6877 28.4166 70.6591 28.3694 70.6419C28.1527 70.5627 27.7981 70.447 27.5969 70.3897C27.4756 70.3552 27.2701 70.2894 27.1405 70.2436C26.985 70.1886 26.8597 70.1602 26.7726 70.1602C26.7 70.1602 26.4696 70.1376 26.2605 70.1098C26.0515 70.0821 25.7701 70.0482 25.6352 70.0346C25.5004 70.0209 25.3225 69.9983 25.2399 69.9842C25.0133 69.9457 24.8828 69.953 24.7024 70.0144C24.5675 70.0602 24.5301 70.0647 24.4904 70.0397C24.4568 70.0186 24.4328 70.0171 24.4116 70.0349C24.3905 70.0525 24.3728 70.0521 24.3544 70.0336C24.3199 69.9988 23.9803 70.0398 23.9188 70.0862C23.9053 70.0964 23.8025 70.1124 23.6905 70.1219C23.464 70.1411 22.6345 70.3433 22.327 70.4543C21.393 70.7913 21.2038 70.8758 20.6206 71.2164C20.3846 71.3543 19.9607 71.6448 19.603 71.9139C19.4951 71.995 19.3631 72.0906 19.3097 72.1264C19.1731 72.2176 18.4854 72.9015 18.3191 73.1114C17.6803 73.9181 17.6474 73.9662 17.2203 74.7215C16.8281 75.4151 16.5756 76.0715 16.3545 76.9719C16.2995 77.1959 16.2377 77.4402 16.217 77.5149C16.1964 77.5895 16.1696 77.7894 16.1575 77.9591C16.1454 78.1288 16.1241 78.3953 16.1101 78.5514C16.0037 79.737 16.2587 81.2432 16.7951 82.5983C17.0572 83.2605 17.6295 84.2432 17.9872 84.6453C18.1237 84.7987 18.1844 84.9182 18.1402 84.9464C18.0931 84.9764 17.9109 84.9723 17.531 84.9325C16.8556 84.8619 16.4019 84.6605 15.9593 84.2349C15.5047 83.7978 15.2574 83.3745 15.126 82.8087C15.0153 82.3319 15.0226 83.7848 15.0125 60.1402C15.0073 47.9576 15.0098 37.9317 15.0182 37.8603C15.0297 37.7619 15.0462 37.7237 15.0867 37.7018C15.1272 37.6799 17.2877 37.6725 24.0291 37.6715C28.918 37.6707 33.9719 37.6643 35.2598 37.6573C37.9092 37.6428 37.7182 37.6584 37.9079 37.4414C38.0238 37.3089 38.048 37.2058 38.0068 37.0203C37.9835 36.9157 37.9511 36.8563 37.8703 36.7702L37.7643 36.6573L26.4767 36.6518C20.2686 36.6487 15.1646 36.6402 15.1344 36.6329C15.0022 36.6006 15.0068 36.7227 15.0195 33.5328C15.0266 31.7684 15.0416 30.4771 15.057 30.3146C15.1252 29.5935 15.3905 29.0487 15.9399 28.5011C16.3489 28.0936 16.8802 27.8494 17.524 27.7731C17.7979 27.7406 19.0366 27.7359 27.3468 27.7357C35.6764 27.7355 36.8648 27.731 36.926 27.6991C37.0343 27.6428 37.197 27.3806 37.197 27.2625C37.197 27.1502 37.1452 27.035 37.0532 26.9427C37.0177 26.9071 36.9638 26.85 36.9335 26.8159C36.9032 26.7818 36.837 26.7451 36.7864 26.7345C36.6452 26.7048 18.2044 26.7203 17.7639 26.7505C17.0145 26.8018 16.6262 26.8977 16.1258 27.1548C15.7607 27.3423 15.5018 27.5316 15.1806 27.8458C14.7807 28.2371 14.5799 28.5247 14.3496 29.0358C14.177 29.419 14.0944 29.7797 14.0371 30.4009C14.0035 30.7638 13.9995 33.5964 14 56.4259C14.0006 81.6953 14.0013 82.0494 14.0486 82.4687C14.1212 83.1119 14.1912 83.3769 14.3988 83.7954C14.6888 84.3801 15.1374 84.9129 15.6551 85.2875C16.206 85.6863 16.7413 85.8767 17.5432 85.959C17.898 85.9955 74.6696 86.0172 79.3736 85.9826C82.6763 85.9584 82.8433 85.9529 83.1376 85.8597C83.1781 85.8469 83.3105 85.8071 83.4319 85.7711C83.9678 85.6124 84.6067 85.1774 85.0539 84.6669C85.3112 84.3732 85.4567 84.1555 85.6 83.8499C85.8257 83.3687 85.8983 83.0846 85.9575 82.4508C85.9939 82.0613 85.9961 81.6494 85.9796 78.2553C85.9522 72.6331 85.9541 38.2947 85.982 34.6829C86.0101 31.0459 86.008 30.6725 85.9565 30.2405C85.8791 29.5898 85.7942 29.2565 85.6118 28.8877C85.0338 27.7189 83.9512 26.9438 82.673 26.7836C82.4978 26.7617 81.958 26.7365 81.3476 26.7218C79.6365 26.6807 64.0133 26.6958 63.2389 26.7394C62.9842 26.7537 62.981 26.7547 62.9009 26.8401C62.7035 27.0508 62.6628 27.2761 62.7806 27.5066C62.8973 27.735 62.7464 27.7181 64.8815 27.7424C65.9133 27.7541 70.1119 27.7582 74.2119 27.7514C78.3119 27.7447 81.8781 27.7487 82.1368 27.7605C82.6757 27.7849 82.8299 27.8086 83.1376 27.9148C83.3897 28.0017 83.5044 28.0613 83.7614 28.2388C84.4322 28.7022 84.8602 29.4041 84.9673 30.2158C85.0128 30.5608 85.0277 36.493 84.9832 36.554C84.9518 36.5971 84.6257 36.5991 76.3935 36.6065C66.9856 36.6149 62.3439 36.6365 62.2041 36.6722C62.1273 36.6919 62.1046 36.7148 62.0533 36.8244C61.9272 37.0937 61.9187 37.2227 62.0148 37.4137C62.0734 37.5302 62.1823 37.5959 62.3804 37.6342C62.5063 37.6586 64.8921 37.6655 73.7296 37.6671C84.3764 37.6691 84.9209 37.6713 84.9509 37.7126C85.0032 37.7845 85.0068 39.3852 85.0039 61.3989C85.0014 81.0465 84.9988 82.3044 84.9591 82.5249C84.8892 82.9132 84.7973 83.2141 84.6883 83.4116C84.6316 83.5144 84.5626 83.6403 84.5351 83.6915C84.4722 83.8085 84.2144 84.1004 84.0215 84.2731C83.5026 84.7378 82.7889 84.9921 82.0832 84.9637C81.901 84.9564 81.8865 84.9519 81.8792 84.9001C81.8739 84.8628 81.9071 84.8018 81.9799 84.715C82.0829 84.5922 82.3169 84.2794 82.4289 84.1148C82.6324 83.8158 83.0333 83.0473 83.2067 82.6236C83.3396 82.2988 83.5662 81.6445 83.6177 81.4368C83.8876 80.3477 83.9664 79.4853 83.8949 78.4033C83.8497 77.7195 83.8366 77.6352 83.6727 76.9721C83.416 75.9342 83.0265 75.0053 82.5031 74.1831C81.9643 73.3366 81.094 72.3631 80.5725 72.0235C80.4772 71.9615 80.2927 71.8293 80.1623 71.7297C79.6165 71.3128 78.7624 70.8356 78.2148 70.6418C78.0497 70.5834 77.8429 70.5072 77.7552 70.4725C77.5039 70.3732 76.6186 70.1623 76.2349 70.1104C76.1203 70.0949 75.9776 70.0665 75.9179 70.0472C75.7928 70.0068 75.5584 70.0005 75.536 70.0368C75.5124 70.0754 75.4236 70.0651 75.3031 70.0098C75.1773 69.9521 75.0739 69.9474 74.7699 69.9858C74.6518 70.0007 74.3842 70.0346 74.1751 70.061C73.9661 70.0875 73.6626 70.1219 73.5008 70.1375C73.0731 70.1787 72.7874 70.2552 71.7843 70.597C70.9842 70.8696 70.2969 71.2386 69.5234 71.8106C69.3589 71.9323 69.1713 72.068 69.1066 72.1123C68.9345 72.2298 68.1568 73.0088 68.0248 73.1959C67.8719 73.4125 67.6834 73.6619 67.6378 73.7078C67.5939 73.7519 67.5774 73.7452 67.3214 73.5798C67.0593 73.4103 66.977 73.375 66.598 73.2698C66.5508 73.2568 66.4184 73.2184 66.3038 73.1847C66.1891 73.1509 65.9595 73.1066 65.7934 73.0861C65.6273 73.0655 65.4792 73.0411 65.4642 73.0318C65.3918 72.9868 65.2346 72.9794 65.1514 73.0171C65.1041 73.0386 64.9868 73.0594 64.8908 73.0635C64.6075 73.0756 64.1545 73.1428 64.0165 73.1932C63.9461 73.2189 63.7655 73.2839 63.6152 73.3377C63.2742 73.4596 63.0628 73.5755 62.5594 73.9168C62.204 74.1577 62.0126 74.3191 62.0126 74.3778C62.0126 74.3889 61.9826 74.4301 61.946 74.4695C61.9094 74.5088 61.7664 74.6728 61.6282 74.834C61.414 75.0838 61.3548 75.173 61.2268 75.4386C61.1442 75.61 61.0222 75.8878 60.9558 76.0559C60.8374 76.3555 60.8033 76.5113 60.6958 77.2409C60.668 77.4297 60.6253 77.4539 60.2348 77.5025C60.0594 77.5244 59.8108 77.5521 59.6822 77.5641C58.8914 77.6379 57.8982 78.0233 57.1819 78.5342C56.7265 78.859 56.234 79.3133 56.0294 79.5972C55.9822 79.6627 55.8967 79.7746 55.8394 79.8458C55.7229 79.9907 55.5292 80.3009 55.3434 80.6401C55.2755 80.764 55.204 80.8788 55.1845 80.8951C55.1225 80.9468 55.057 80.8998 54.8662 80.6666C54.7639 80.5417 54.5256 80.2673 54.3365 80.0569C54.0252 79.7105 53.8714 79.5045 53.5629 79.0203C53.5067 78.9321 53.414 78.7877 53.3569 78.6995C53.2313 78.5053 52.9934 78.0135 52.9059 77.7672C52.8709 77.6684 52.8268 77.5573 52.8081 77.5204C52.7268 77.36 52.3637 76.026 52.3363 75.7873C52.3309 75.7398 52.3102 75.6231 52.2904 75.5281C52.2705 75.4331 52.2257 75.1339 52.1908 74.8633C52.1559 74.5927 52.1169 74.3518 52.1043 74.3281C52.0703 74.2642 52.0766 74.2253 52.1182 74.2414C52.1454 74.2519 52.1549 74.238 52.1547 74.1885C52.1543 74.0991 52.0905 73.8615 52.0582 73.8289C52.016 73.7865 52.0288 73.6757 52.0814 73.6278C52.1084 73.6032 52.1305 73.5697 52.1305 73.5533C52.1305 73.5165 52.3253 73.117 52.4492 72.8997C52.9054 72.0999 54.3342 69.2738 54.9137 68.0254C55.1545 67.5066 55.7596 66.1463 55.7596 66.1237C55.7596 66.1185 55.786 66.0556 55.8183 65.9839C56.1635 65.2176 56.792 63.5505 57.026 62.781C57.4302 61.4517 57.6872 60.3362 57.7454 59.6587C57.7606 59.4824 57.7834 59.2571 57.7962 59.1582C57.8258 58.9288 57.8258 58.637 57.7962 58.4075C57.7835 58.3085 57.7555 58.0443 57.734 57.8203C57.7124 57.5963 57.6841 57.3076 57.671 57.1786C57.6579 57.0497 57.636 56.7998 57.6222 56.6233C57.5964 56.2909 57.5929 56.2662 57.4903 55.6731C57.4563 55.4763 57.4048 55.1709 57.3759 54.9945C57.3471 54.818 57.3196 54.6671 57.315 54.6592C57.3104 54.6512 57.2896 54.5568 57.2689 54.4494C57.0987 53.5667 57.0556 53.3752 56.9193 52.8967C56.8459 52.6388 56.7526 52.3056 56.7119 52.1563C56.6321 51.863 56.479 51.3515 56.4443 51.2617C56.4324 51.2311 56.4057 51.1318 56.3847 51.041C56.3638 50.9501 56.32 50.814 56.2874 50.7386C56.2549 50.6632 56.1443 50.3849 56.0418 50.1202C55.9392 49.8555 55.8377 49.6 55.8163 49.5525C55.7564 49.4201 55.6861 49.2237 55.6861 49.1889C55.6861 49.1488 57.0954 49.144 57.237 49.1836C57.3388 49.2121 57.5651 49.4274 57.8452 49.7623C57.9361 49.8709 58.0624 50.0097 58.1259 50.0708C58.1895 50.1319 58.3303 50.2818 58.4389 50.404C58.5474 50.5262 58.7531 50.7486 58.896 50.8982C59.1731 51.1884 59.7886 51.862 59.9865 52.0916C60.2122 52.3534 60.798 52.9955 61.0435 53.2503C61.3671 53.586 61.5709 53.7514 61.8242 53.8836C62.1241 54.0402 62.2849 54.0784 62.6501 54.0798C62.9269 54.0808 62.9757 54.0741 63.1528 54.0104C63.4741 53.8948 63.6273 53.8004 63.839 53.5875C64.1578 53.267 64.2416 53.0912 64.7746 51.6256C65.0096 50.9796 65.3496 49.6014 65.4079 49.0589C65.5499 47.7367 65.5546 47.6612 65.5225 47.1799C65.5068 46.9442 65.4881 46.6514 65.4809 46.5292C65.4621 46.2096 65.4096 45.8637 65.2864 45.2459C65.1574 44.5993 65.0191 44.1529 64.7364 43.4703C64.4503 42.7797 63.7859 41.6895 63.2974 41.1096C63.0705 40.8401 62.7701 40.4961 62.6941 40.4185C62.5411 40.2625 62.1481 39.8887 62.0371 39.7936C61.9764 39.7416 61.7943 39.585 61.6325 39.4456C61.067 38.9583 60.1576 38.3152 59.5236 37.9542C59.0896 37.707 59.0945 37.7123 59.0945 37.4984C59.0945 37.4024 59.144 36.8629 59.2044 36.2995C59.354 34.9038 59.6294 32.2488 59.7919 30.6354C59.9404 29.1599 60.0621 27.9811 60.1743 26.9302C60.2151 26.5484 60.2918 25.821 60.3448 25.3137C60.3979 24.8064 60.4739 24.0804 60.5138 23.7003C60.587 23.0034 60.6162 22.6559 60.6642 21.911C60.708 21.2318 60.7108 21.0953 60.687 20.8128C60.6744 20.6635 60.6534 20.3581 60.6404 20.1341C60.5955 19.361 60.4277 18.3884 60.187 17.5057C59.9907 16.7863 59.9712 16.7305 59.5875 15.7976C59.2502 14.9777 58.5037 13.7099 57.883 12.9029C57.5573 12.4794 56.6751 11.4509 56.1154 10.8421C55.9532 10.6657 55.6997 10.388 55.5521 10.2251C55.4045 10.0622 55.1661 9.80124 55.0223 9.64514C54.8785 9.48904 54.6683 9.25397 54.5552 9.12277C53.7567 8.19616 52.5822 6.95474 52.3021 6.74118C51.9896 6.50297 51.278 6.18465 50.8286 6.08208C50.4476 5.99513 49.9604 5.97588 49.5344 6.03094ZM49.6026 7.04178C49.2216 7.09413 48.7611 7.26669 48.4357 7.47904C48.2474 7.60194 47.8028 8.01888 47.596 8.26657C47.4571 8.43299 47.1976 8.7228 46.7484 9.21324C46.6116 9.36256 46.4556 9.5347 46.4018 9.59578C46.3479 9.65686 46.0838 9.95021 45.8149 10.2476C45.5459 10.5451 45.2707 10.8521 45.2032 10.9299C45.0704 11.0831 44.4287 11.7968 44.4057 11.817C44.3479 11.8675 43.662 12.6498 43.4752 12.8782C43.3476 13.0343 43.156 13.2675 43.0496 13.3965C42.81 13.6867 42.1743 14.6443 41.9028 15.1241C41.3218 16.1505 40.8968 17.2786 40.6337 18.4929C40.5081 19.0723 40.3849 19.9495 40.3846 20.2654C40.3846 20.3629 40.374 20.4815 40.3611 20.529C40.3295 20.646 40.3172 21.2393 40.3389 21.6026C40.3486 21.7654 40.3632 22.0375 40.3713 22.2072C40.3793 22.3769 40.3967 22.5823 40.4097 22.6638C40.4228 22.7452 40.4506 23.0062 40.4715 23.2438C40.4923 23.4813 40.5415 23.9478 40.5808 24.2803C40.62 24.6129 40.675 25.1349 40.7029 25.4403C40.7308 25.7457 40.786 26.2788 40.8256 26.6249C40.8652 26.971 40.9208 27.4986 40.9492 27.7972C40.9776 28.0958 41.044 28.7455 41.0969 29.241C41.1497 29.7364 41.2213 30.4306 41.2559 30.7835C41.2906 31.1364 41.3403 31.614 41.3664 31.8447C41.3925 32.0755 41.4362 32.5086 41.4636 32.8072C41.4909 33.1059 41.5403 33.5723 41.5734 33.8438C41.6064 34.1153 41.6559 34.5873 41.6834 34.8927C41.7551 35.6896 41.9523 37.4264 42.028 37.9283C42.0718 38.2183 42.1402 38.9383 42.1977 39.7131C42.2273 40.1119 42.2757 40.2591 42.3876 40.2905C42.4257 40.3012 44.0198 40.3099 45.9302 40.3099C49.3113 40.3099 49.4048 40.3087 49.4551 40.2629C49.5062 40.2163 49.5067 40.2046 49.5067 39.0079C49.5067 37.976 49.5121 37.7885 49.5441 37.7206C49.5898 37.6238 49.9026 37.4347 50.0171 37.4347C50.1831 37.4347 50.3819 37.5744 50.4666 37.7506C50.5195 37.8607 50.5198 37.8679 50.5055 38.9746C50.4907 40.1251 50.4979 40.239 50.5902 40.3026C50.6091 40.3156 52.0653 40.3213 54.1167 40.3163C57.1243 40.309 57.6212 40.3027 57.6846 40.2716C57.7515 40.2387 57.7608 40.2188 57.7875 40.0506C57.8037 39.9489 57.8454 39.5214 57.8801 39.1006C57.9149 38.6798 57.9652 38.1689 57.9919 37.9653C58.0835 37.2675 58.2592 35.7441 58.3221 35.1025C58.3567 34.7495 58.4229 34.1109 58.4692 33.6834C58.5709 32.7432 58.7606 30.8984 58.827 30.2035C58.8536 29.9252 58.9023 29.4477 58.9352 29.1423C58.9682 28.8368 59.029 28.2427 59.0705 27.8219C59.112 27.4011 59.1617 26.9235 59.1811 26.7607C59.2004 26.5978 59.2556 26.0647 59.3036 25.576C59.3516 25.0874 59.4065 24.5654 59.4255 24.4161C59.5171 23.6976 59.6267 22.4206 59.6331 21.9974C59.6347 21.8888 59.6464 21.7278 59.6591 21.6396C59.689 21.431 59.6884 20.9635 59.6581 20.8375C59.6451 20.7832 59.6281 20.5833 59.6204 20.3932C59.5693 19.1395 59.3292 17.9711 58.8705 16.7446C58.6255 16.0893 58.5114 15.8413 58.1193 15.1117C57.9401 14.7783 57.4866 14.0766 57.2101 13.705C56.8329 13.1979 56.1047 12.3377 55.404 11.5716C54.7065 10.809 54.2609 10.3143 54.0911 10.1141C54.0048 10.0123 53.7683 9.74771 53.5656 9.52621C53.1252 9.04483 52.8859 8.78014 52.4643 8.30828C51.8237 7.5914 51.4242 7.3103 50.745 7.09864C50.6223 7.06039 50.1666 7.00466 49.9971 7.00713C49.9095 7.00841 49.7319 7.02401 49.6026 7.04178ZM49.6416 16.3487C48.6735 16.4122 47.6748 16.8005 46.9409 17.3988C46.6428 17.6418 46.4627 17.8197 46.1903 18.14C45.9106 18.4688 45.8563 18.5528 45.5795 19.0847C45.4229 19.3857 45.3668 19.5257 45.2777 19.8375C45.1378 20.3275 45.1256 20.3906 45.0816 20.845C45.0616 21.0527 45.0398 21.2313 45.0332 21.242C45.0267 21.2527 45.0318 21.3326 45.0445 21.4196C45.0573 21.5067 45.0781 21.7222 45.0908 21.8987C45.1128 22.2065 45.1816 22.5227 45.3375 23.034C45.4056 23.2572 45.6146 23.69 45.7703 23.9305C45.9469 24.2031 46.3649 24.7174 46.5673 24.911C46.7963 25.13 47.1405 25.4122 47.3366 25.5417C47.766 25.8254 48.3486 26.0753 48.8578 26.1941C49.2873 26.2944 50.1088 26.3335 50.6224 26.2781C51.3094 26.2041 52.0207 25.9492 52.6803 25.5407C53.1933 25.223 53.8747 24.5423 54.189 24.0335C54.6309 23.3182 54.8829 22.5888 54.9479 21.837C54.9625 21.6673 54.9874 21.4872 55.0031 21.4368C55.0261 21.3629 55.0241 21.3101 54.9924 21.1653C54.9708 21.0665 54.9468 20.8685 54.9391 20.7254C54.925 20.4646 54.9004 20.355 54.7208 19.7516C54.574 19.2586 54.251 18.6445 53.9244 18.2378C53.5588 17.7824 53.1112 17.3789 52.6577 17.0961C52.5498 17.0288 52.445 16.9632 52.4247 16.9503C52.4045 16.9375 52.2611 16.867 52.106 16.7938C51.6801 16.5929 51.2956 16.4744 50.8063 16.3935C50.5922 16.358 49.9034 16.3316 49.6416 16.3487ZM49.5435 17.3684C49.0495 17.4104 48.5494 17.5698 48.1213 17.8217C47.2769 18.3186 46.6711 19.0199 46.3166 19.9109C46.1732 20.2712 46.1338 20.4326 46.084 20.8622C46.0263 21.3599 46.0745 21.9532 46.2097 22.4089C46.2851 22.663 46.4314 23.0287 46.5057 23.1485C46.5363 23.1979 46.5842 23.2868 46.6122 23.3459C46.684 23.4981 47.0249 23.9478 47.2204 24.1484C47.4014 24.334 47.713 24.5827 47.9622 24.7403C49.0619 25.436 50.6182 25.498 51.7872 24.8927C52.2694 24.643 52.812 24.187 53.124 23.7692C53.203 23.6634 53.2923 23.5492 53.3224 23.5152C53.3735 23.4577 53.651 22.9284 53.7171 22.7625C53.7828 22.5973 53.8962 22.1416 53.9186 21.9523C53.9793 21.4397 53.9944 21.224 53.9735 21.1679C53.9613 21.1355 53.9435 20.9979 53.9339 20.8622C53.914 20.5806 53.8508 20.2719 53.7799 20.1094C53.7532 20.0483 53.7123 19.9317 53.6891 19.8503C53.6229 19.6188 53.4421 19.2991 53.1873 18.963C52.9219 18.6131 52.7762 18.4618 52.4524 18.1994C51.9288 17.7752 51.3933 17.5259 50.745 17.4044C50.5149 17.3613 49.8589 17.3416 49.5435 17.3684ZM19.3088 30.0222C18.8188 30.0809 18.6779 30.1311 18.3162 30.3759C17.9328 30.6353 17.5647 31.1039 17.4626 31.4622C17.394 31.7032 17.3359 32.0867 17.3468 32.2272C17.3624 32.4293 17.407 32.7475 17.4343 32.8522C17.4726 32.9991 17.6641 33.3492 17.8012 33.5229C17.9391 33.6977 18.1567 33.9085 18.3279 34.0329C18.582 34.2177 18.7407 34.2691 19.3978 34.3796C19.5445 34.4043 19.5912 34.4002 19.876 34.338C20.2489 34.2566 20.4256 34.1873 20.6551 34.0326C20.9932 33.8047 21.2208 33.5451 21.4373 33.1404C21.6081 32.8212 21.6633 32.5835 21.6607 32.1779C21.6589 31.8899 21.6495 31.8146 21.5918 31.6226C21.4921 31.2907 21.2759 30.9218 21.0176 30.6426C20.8931 30.508 20.5407 30.2593 20.3641 30.1813C20.1106 30.0694 19.5814 29.9896 19.3088 30.0222ZM25.7748 30.0325C25.4479 30.0752 25.2178 30.1703 24.8748 30.4041C24.6226 30.5761 24.4606 30.7409 24.2929 30.9963C24.08 31.3205 24.0367 31.4252 23.9917 31.7235C23.9198 32.1996 23.9108 32.3001 23.9324 32.3817C23.944 32.4257 23.971 32.5561 23.9924 32.6715C24.1003 33.2537 24.5844 33.8598 25.1966 34.1791C25.303 34.2346 25.4507 34.2902 25.5249 34.3026C25.5991 34.3151 25.7149 34.3365 25.7824 34.3502C26.0106 34.3967 26.2245 34.407 26.285 34.3744C26.3506 34.3391 26.635 34.2757 26.7277 34.2757C26.8068 34.2757 27.1628 34.1035 27.3259 33.9863C27.6007 33.7888 27.8321 33.5148 28.0196 33.1651C28.1488 32.924 28.1877 32.7939 28.2343 32.4476C28.2692 32.1889 28.2692 32.1391 28.2347 31.917C28.1625 31.4531 28.0681 31.2213 27.8107 30.875C27.6762 30.6942 27.4604 30.4861 27.2782 30.3616C27.1088 30.2459 26.7926 30.1051 26.6401 30.0774C26.5594 30.0628 26.4438 30.0414 26.3831 30.0299C26.2481 30.0043 25.9821 30.0054 25.7748 30.0325ZM32.3522 30.0329C32.085 30.0643 31.779 30.1879 31.4942 30.3797C31.2068 30.5731 31.0592 30.7257 30.8484 31.0479C30.6836 31.2997 30.6331 31.4405 30.5508 31.8782C30.4928 32.1866 30.4932 32.1954 30.5838 32.6664C30.6428 32.9724 30.6563 33.0098 30.7854 33.2227C31.0431 33.6476 31.253 33.8595 31.6761 34.1213C31.8063 34.2019 32.0156 34.2782 32.1702 34.3014C32.2443 34.3125 32.4043 34.3406 32.5257 34.3636C32.7086 34.3984 32.7674 34.4005 32.869 34.3763C32.9365 34.3602 33.0909 34.3251 33.2123 34.2984C33.8047 34.168 34.2659 33.798 34.6291 33.1621C34.8908 32.7037 34.9123 31.8123 34.6739 31.2996C34.413 30.7385 33.8656 30.2484 33.3529 30.1168C32.9494 30.0134 32.6978 29.9922 32.3522 30.0329ZM19.3088 31.0287C18.8638 31.1308 18.6258 31.308 18.4449 31.6719C18.3631 31.8365 18.3328 32.0173 18.3457 32.2643C18.3563 32.4687 18.3681 32.5146 18.459 32.7036C18.6313 33.0619 18.8933 33.2716 19.269 33.3517C19.5881 33.4198 19.8446 33.3758 20.1003 33.2093C20.5691 32.9039 20.7686 32.3586 20.6093 31.8184C20.5612 31.6555 20.4479 31.4844 20.2659 31.2999C20.1487 31.181 20.0823 31.1365 19.9463 31.0854C19.7311 31.0046 19.5026 30.9842 19.3088 31.0287ZM25.8437 31.0296C25.667 31.0706 25.6392 31.0827 25.4543 31.1992C25.2021 31.3582 25.0112 31.6546 24.9612 31.9649C24.8988 32.3517 24.9657 32.6605 25.1705 32.9305C25.2957 33.0956 25.3656 33.153 25.5617 33.2517C25.7737 33.3585 25.974 33.3975 26.1972 33.3755C26.4233 33.3531 26.5831 33.2889 26.7755 33.1431C27.0586 32.9285 27.1736 32.7444 27.2308 32.4144C27.301 32.0094 27.2189 31.7079 26.9539 31.3981C26.6684 31.0641 26.2678 30.9312 25.8437 31.0296ZM32.5748 31.0117C32.3717 31.034 32.2377 31.0776 32.1043 31.1648C31.6866 31.438 31.4569 31.9112 31.5318 32.3442C31.5751 32.5942 31.6907 32.85 31.8295 33.0029C32.0786 33.2773 32.534 33.4333 32.8836 33.364C33.3092 33.2798 33.6986 32.9268 33.8006 32.5328C33.8507 32.3391 33.8492 31.9425 33.7978 31.79C33.7468 31.6388 33.6398 31.4828 33.4779 31.3235C33.3627 31.2103 33.1702 31.092 33.101 31.092C33.0867 31.092 33.0452 31.0768 33.0088 31.0583C32.9399 31.0233 32.702 30.9977 32.5748 31.0117ZM58.9814 38.846C58.9704 38.8638 58.9534 38.984 58.9436 39.1129C58.9337 39.2419 58.9139 39.4473 58.8995 39.5695C58.8851 39.6917 58.8568 40.0748 58.8368 40.421C58.7956 41.1312 58.7393 41.682 58.6894 41.8647C58.6593 41.9746 58.6355 42.2431 58.5909 42.9753C58.5622 43.4465 58.4765 44.1604 58.4442 44.197C58.4154 44.2297 58.3516 44.8265 58.365 44.9374C58.3766 45.0327 58.3277 45.8728 58.3061 45.9493C58.2734 46.0651 58.2331 46.3365 58.2333 46.4408C58.2333 46.4871 58.219 46.5538 58.2014 46.5889C58.154 46.6834 58.1421 46.8246 58.1126 47.6428C58.0887 48.3061 58.09 48.3961 58.1248 48.4799C58.1772 48.6062 58.2897 48.7438 58.6285 49.096C58.7852 49.2588 58.9841 49.4754 59.0706 49.5772C59.1571 49.679 59.3014 49.8401 59.3912 49.9351C59.4811 50.0301 59.6773 50.2467 59.8272 50.4163C60.161 50.794 60.7758 51.4645 61.3874 52.1178C61.5088 52.2476 61.6901 52.4518 61.7902 52.5717C62.1555 53.0092 62.5391 53.1792 62.8463 53.0399C63.1078 52.9212 63.2577 52.7446 63.4288 52.3537C63.5706 52.0296 63.9554 50.9302 64.0465 50.5891C64.1605 50.1616 64.3319 49.4391 64.3684 49.2317C64.4586 48.7191 64.5248 47.8157 64.5039 47.3807C64.4429 46.1085 64.4287 45.9831 64.2676 45.2957C64.1734 44.8937 64.1583 44.8438 63.9793 44.3451C63.7553 43.7208 63.6145 43.4171 63.3044 42.889C62.7599 41.962 61.9419 41.0166 60.9949 40.2202C60.7501 40.0142 60.1148 39.5366 59.8302 39.3446C59.3381 39.0125 59.0786 38.8428 59.0418 38.8288C59.0196 38.8203 58.9924 38.8281 58.9814 38.846ZM40.7146 38.9975C40.3469 39.2177 39.5094 39.8163 39.1591 40.1092C38.7964 40.4125 38.2924 40.8705 38.1789 40.9998C38.1188 41.0683 37.9692 41.2299 37.8466 41.3588C37.6509 41.5646 37.5052 41.7486 37.2018 42.1732C36.4028 43.2913 35.9802 44.2655 35.6765 45.6901C35.601 46.0439 35.5767 46.2315 35.5515 46.6526C35.5043 47.4413 35.4993 47.7281 35.5272 48.0517C35.5944 48.8298 35.6078 48.9588 35.6423 49.1577C35.6623 49.273 35.6943 49.4285 35.7134 49.5032C35.7325 49.5778 35.7722 49.7555 35.8017 49.8981C35.8912 50.3313 36.1048 51.0469 36.2768 51.4899C36.3664 51.7207 36.4851 52.0357 36.5406 52.19C36.6662 52.5391 36.8317 52.8221 36.9641 52.9139C37.189 53.0698 37.4663 53.1269 37.6478 53.0546C37.7776 53.0029 38.05 52.7876 38.1708 52.6412C38.234 52.5645 38.4187 52.362 38.5813 52.1911C39.0342 51.7149 39.4263 51.2883 39.6113 51.0704C39.7034 50.9618 39.8635 50.7841 39.9669 50.6755C40.0702 50.5669 40.2092 50.4114 40.2756 50.33C40.3421 50.2485 40.5345 50.0361 40.7033 49.858C40.872 49.6799 41.0377 49.5016 41.0714 49.4619C41.1051 49.4222 41.2542 49.2626 41.4027 49.1071C41.5512 48.9517 41.7316 48.7531 41.8037 48.6659L41.9347 48.5073L41.9171 47.7034C41.9013 46.9853 41.8935 46.8757 41.8438 46.6773C41.8132 46.5552 41.781 46.383 41.7723 46.2948C41.7635 46.2066 41.7409 46.0511 41.7219 45.9493C41.7029 45.8475 41.6755 45.5143 41.661 45.2089C41.6236 44.4163 41.6108 44.2684 41.5732 44.1953C41.512 44.0762 41.4568 43.5347 41.3885 42.3844C41.3732 42.1272 41.3499 41.8884 41.3366 41.8537C41.2944 41.7439 41.2211 41.0304 41.1949 40.4754C41.1629 39.7977 41.1499 39.6402 41.1065 39.4002C41.0872 39.2935 41.0713 39.1713 41.0712 39.1287C41.071 38.9958 41.0245 38.8661 40.977 38.8661C40.9534 38.8661 40.8352 38.9253 40.7146 38.9975ZM42.4593 41.3272C42.4153 41.3385 42.4135 41.3591 42.4277 41.6892C42.4377 41.9221 42.4719 42.2042 42.5299 42.532C42.6272 43.0811 42.6639 43.4482 42.6657 43.8885C42.6675 44.3207 42.7043 44.6761 42.76 44.7972C42.8277 44.9445 42.8694 45.385 42.9325 46.6156C42.9473 46.9055 42.9679 47.084 42.9949 47.1586C43.0171 47.2197 43.0465 47.3529 43.0603 47.4547C43.0908 47.6808 43.1508 47.9247 43.1866 47.9683C43.2084 47.9949 43.7718 47.9976 46.317 47.9836C48.0964 47.9738 49.4393 47.9569 49.4641 47.944C49.5052 47.9227 49.5071 47.7548 49.5009 44.6505C49.4946 41.445 49.4935 41.3788 49.4468 41.3445C49.4062 41.3146 48.8936 41.3099 45.9526 41.3123C44.0569 41.3139 42.4849 41.3206 42.4593 41.3272ZM50.5461 41.3454C50.5011 41.3786 50.5 41.4667 50.5073 44.5961C50.5124 46.7752 50.5232 47.8343 50.5407 47.8799C50.5594 47.9284 50.588 47.9504 50.6435 47.9589C50.7157 47.9699 56.5557 48.0104 56.7397 48.0012C56.7864 47.9988 56.8346 47.9869 56.8468 47.9747C56.8813 47.9399 56.9639 47.5806 56.972 47.4301C56.9761 47.3554 57.0028 47.2055 57.0315 47.0969C57.0716 46.9447 57.0895 46.7695 57.1093 46.3318C57.1234 46.0196 57.151 45.616 57.1707 45.4348C57.1903 45.2537 57.2064 45.0561 57.2064 44.9957C57.2064 44.9228 57.2238 44.8624 57.2582 44.8156C57.3033 44.7541 57.3128 44.6924 57.3325 44.3292C57.3893 43.2806 57.4362 42.7921 57.518 42.3954C57.5842 42.074 57.5951 41.9715 57.5969 41.6514C57.5985 41.3848 57.5929 41.3372 57.5588 41.324C57.5368 41.3155 55.9604 41.3092 54.0556 41.31C51.1496 41.3111 50.585 41.3168 50.5461 41.3454ZM52.0188 49.1893C52.0019 49.2335 52.0294 49.334 52.1148 49.5402C52.2325 49.8245 52.4629 50.6623 52.5458 51.1074C52.5572 51.1685 52.6059 51.4183 52.654 51.6627C52.7021 51.907 52.7601 52.2013 52.7828 52.3167C52.8055 52.4321 52.832 52.5987 52.8418 52.6869C52.8516 52.7751 52.8713 52.9306 52.8856 53.0324C53.047 54.1783 53.0825 54.8763 53.0156 55.5868C52.8882 56.9399 52.8262 57.3286 52.6229 58.0479C52.5835 58.1874 52.5328 58.3904 52.5102 58.499C52.4374 58.8499 52.329 59.1281 52.0077 59.7885C51.6054 60.6157 51.519 60.754 51.2396 61.0188C50.9664 61.2776 50.8888 61.3242 50.5611 61.4265C50.3292 61.4989 50.2732 61.5069 49.9971 61.5074C49.7153 61.5078 49.6719 61.5015 49.4577 61.4281C49.3295 61.3841 49.1896 61.3291 49.1468 61.3057C49.0128 61.2325 48.6527 60.9053 48.5397 60.7541C48.4802 60.6745 48.2769 60.2956 48.0878 59.912C47.6801 59.0849 47.5799 58.8575 47.5577 58.7088C47.5485 58.6477 47.4874 58.4089 47.4219 58.1782C47.1739 57.3048 47.103 56.9049 47.0544 56.105C47.0404 55.8743 47.0176 55.5995 47.0038 55.4943C46.9899 55.3883 46.9846 55.1136 46.9919 54.8773C47.0054 54.4402 47.1257 53.0408 47.1876 52.6005C47.267 52.0356 47.5512 50.7214 47.7172 50.1516C47.7598 50.0054 47.8033 49.8468 47.814 49.7993C47.8246 49.7518 47.8796 49.6095 47.9363 49.483C47.993 49.3565 48.0333 49.2371 48.0259 49.2177C48.0145 49.1876 47.8216 49.1823 46.7396 49.1823C45.7509 49.1823 45.4611 49.1892 45.4418 49.2132C45.428 49.2302 45.3703 49.3606 45.3135 49.5032C45.2567 49.6457 45.172 49.8567 45.1252 49.9721C44.9151 50.4912 44.6723 51.1492 44.5697 51.4776C44.088 53.0189 43.92 53.7078 43.6125 55.4017C43.4621 56.2303 43.4591 56.2519 43.3753 57.1169C43.3346 57.5377 43.2835 58.0486 43.2619 58.2522C43.2122 58.7193 43.2101 58.9047 43.2491 59.3505C43.3435 60.4295 43.7669 62.0718 44.3752 63.7188C44.6989 64.5952 44.8216 64.8962 45.4415 66.3349C45.8493 67.2812 46.9422 69.543 47.5584 70.7155C48.1497 71.8408 48.5823 72.6416 48.7561 72.9325C48.974 73.2973 49.0039 73.3541 49.0514 73.4927C49.1571 73.801 49.4953 74.2371 49.6955 74.3234C49.8188 74.3766 50.2183 74.3769 50.3441 74.324C50.3931 74.3034 50.4771 74.2466 50.5309 74.1977C50.6433 74.0955 50.9285 73.635 51.0022 73.4368C51.0296 73.363 51.1253 73.1814 51.2148 73.0333C51.3042 72.8852 51.421 72.6807 51.4743 72.5789C51.5276 72.4771 51.5798 72.3827 51.5905 72.3691C51.6276 72.3218 52.1522 71.3267 52.5727 70.5058C52.8056 70.051 53.0705 69.5346 53.1613 69.3582C53.252 69.1817 53.4368 68.8041 53.5719 68.519C53.7071 68.234 53.8971 67.8342 53.9942 67.6306C54.0913 67.427 54.1915 67.2078 54.2168 67.1436C54.2421 67.0794 54.3002 66.9516 54.3461 66.8598C54.581 66.3886 55.285 64.7071 55.6302 63.7928C56.0383 62.7117 56.4325 61.3553 56.6162 60.3993C56.658 60.1822 56.7029 59.9489 56.7161 59.8811C56.7293 59.8132 56.7455 59.6116 56.7522 59.4331C56.7589 59.2547 56.7741 59.0825 56.786 59.0506C56.8184 58.964 56.8184 58.6891 56.786 58.6282C56.7705 58.5989 56.7536 58.4412 56.7485 58.2778C56.7434 58.1144 56.729 57.9474 56.7165 57.9067C56.7041 57.866 56.6874 57.7382 56.6795 57.6229C56.63 56.9014 56.5786 56.4152 56.5058 55.9816C56.3894 55.2876 56.2582 54.575 56.2027 54.3349C56.1767 54.2225 56.1378 54.0252 56.1163 53.8962C56.0948 53.7672 56.0377 53.5174 55.9894 53.3409C55.7765 52.5636 55.6308 52.0586 55.5018 51.6503C55.4568 51.5078 55.3922 51.3023 55.3582 51.1937C55.3243 51.0852 55.207 50.7686 55.0976 50.4904C54.9882 50.2121 54.8507 49.8567 54.7919 49.7006C54.6372 49.29 54.612 49.2359 54.5643 49.2116C54.5406 49.1996 54.0358 49.1879 53.4424 49.1857C52.849 49.1835 52.2891 49.1749 52.1984 49.1666C52.063 49.1541 52.0307 49.1582 52.0188 49.1893ZM49.1511 49.2266C49.0899 49.2658 49.0575 49.329 48.9576 49.6043C48.6131 50.5539 48.569 50.7281 48.2467 52.4154C48.1857 52.7344 48.1246 53.1287 48.1107 53.2915C48.0969 53.4544 48.0625 53.8043 48.0343 54.069C47.9787 54.5915 47.9778 55.268 48.0321 55.8089C48.0471 55.9582 48.0712 56.2025 48.0857 56.3518C48.1268 56.7756 48.2026 57.1491 48.4063 57.9314C48.5453 58.4649 48.5795 58.5752 48.6592 58.7457C48.7036 58.8408 48.803 59.0574 48.8802 59.2271C49.1763 59.878 49.3467 60.2161 49.4071 60.2728C49.5225 60.381 49.6892 60.4693 49.8377 60.501C50.1339 60.5641 50.4961 60.4524 50.6469 60.2513C50.7152 60.1602 51.4684 58.5626 51.4684 58.5088C51.4684 58.4875 51.5064 58.3489 51.5528 58.2007C51.8139 57.3666 51.9439 56.6536 51.9745 55.8881C51.9822 55.6964 51.9964 55.5169 52.0062 55.4891C52.0333 55.4121 52.0174 54.4665 51.9869 54.3404C51.9721 54.2794 51.9595 54.1294 51.9589 54.0073C51.9578 53.8058 51.8929 53.1214 51.8395 52.7486C51.7941 52.4315 51.5775 51.3373 51.5412 51.241C51.5265 51.202 51.4932 51.0477 51.4674 50.8981C51.42 50.624 51.335 50.3477 51.1028 49.713C50.9457 49.2835 50.9339 49.2602 50.8513 49.2173C50.7772 49.1787 50.6404 49.1716 50.59 49.2038C50.5722 49.2152 50.5476 49.2678 50.5354 49.3206C50.523 49.3746 50.513 50.5571 50.5127 52.0153C50.5121 54.5159 50.5103 54.6173 50.4656 54.7055C50.4112 54.8127 50.3683 54.8533 50.2157 54.9417C50.0722 55.0247 49.9402 55.0271 49.825 54.9486C49.7781 54.9166 49.7166 54.883 49.6884 54.8741C49.6602 54.8652 49.6105 54.8294 49.578 54.7946L49.519 54.7314L49.5067 52.0124C49.4981 50.1013 49.4864 49.2798 49.4675 49.2476C49.4271 49.1789 49.2448 49.1668 49.1511 49.2266ZM24.777 70.9807C24.6282 71.0715 24.6032 71.0837 24.5808 71.0764C24.5673 71.0721 24.5126 71.0633 24.4593 71.0569C24.4059 71.0505 24.3533 71.0398 24.3425 71.033C24.3316 71.0263 24.2649 71.0374 24.1943 71.0578C24.1237 71.0782 23.9721 71.1073 23.8574 71.1224C23.7428 71.1376 23.5883 71.1653 23.5142 71.1841C23.44 71.2029 23.2965 71.2371 23.1954 71.2599C23.0058 71.3028 22.2348 71.5465 22.1042 71.6048C22.0637 71.6229 21.9479 71.6724 21.8467 71.7148C21.0869 72.0332 20.2338 72.6228 19.5458 73.305C18.8726 73.9725 18.4597 74.5186 18.0496 75.2841C17.9397 75.4893 17.8497 75.6639 17.8497 75.6721C17.8497 75.6804 17.8213 75.7496 17.7866 75.8259C17.6838 76.0521 17.4668 76.6509 17.425 76.8238C17.2499 77.5475 17.2086 77.753 17.1622 78.1319C17.091 78.7123 17.1028 79.727 17.187 80.2667C17.4635 82.038 18.3141 83.7083 19.5102 84.8289L19.6381 84.9487L50.0024 84.9466C66.7028 84.9455 80.376 84.9443 80.3873 84.944C80.4345 84.9428 81.0361 84.321 81.1995 84.1044C81.5972 83.5775 82.0252 82.8689 82.2421 82.3784C82.4248 81.9655 82.6784 81.1226 82.792 80.5505C82.9451 79.7802 82.9392 78.2948 82.7804 77.5889C82.6008 76.7909 82.5426 76.5994 82.2493 75.8403C82.1493 75.5815 81.8007 74.9326 81.5926 74.6178C81.342 74.2387 80.9531 73.7806 80.5104 73.3427C80.2696 73.1045 80.0228 72.8698 79.9621 72.8212C79.8086 72.6982 79.2274 72.2934 79.0047 72.1543C78.7217 71.9775 78.1486 71.6977 77.8701 71.6003C77.7328 71.5523 77.6093 71.5039 77.5958 71.4928C77.5823 71.4818 77.5001 71.4541 77.413 71.4315C77.326 71.4088 77.2266 71.376 77.1923 71.3586C77.1367 71.3303 76.7838 71.2478 76.4066 71.1748C76.3324 71.1604 76.2441 71.1433 76.2104 71.1367C76.1767 71.1301 76.0718 71.1068 75.9774 71.0851C75.7002 71.0212 75.6246 71.0153 75.5216 71.0494C75.433 71.0789 75.4158 71.0769 75.3283 71.0274C75.1952 70.9521 74.9567 70.9333 74.8127 70.9868C74.752 71.0093 74.5809 71.0374 74.4326 71.0493C74.2842 71.0612 74.1187 71.0824 74.0648 71.0963C74.0108 71.1102 73.9128 71.1219 73.8469 71.1222C73.781 71.1225 73.6569 71.1339 73.571 71.1474C73.4852 71.161 73.3456 71.1831 73.2609 71.1964C72.9194 71.2503 71.7307 71.661 71.3281 71.8642C70.8375 72.1118 70.2584 72.485 69.8348 72.8265C69.585 73.028 68.8439 73.7788 68.6498 74.0272C68.5735 74.1248 68.5 74.2115 68.4864 74.22C68.4273 74.2567 68.4712 74.3464 68.6295 74.5127C68.7944 74.686 69.0443 75.0398 69.242 75.3801C69.3835 75.6235 69.5496 76.0302 69.6288 76.3271C69.7197 76.6681 69.8154 77.2282 69.8281 77.4948L69.8419 77.7832L69.6962 77.9298C69.5314 78.0956 69.4428 78.1252 69.2014 78.0949C69.0458 78.0753 68.9364 78.0095 68.899 77.913C68.8687 77.8347 68.7907 77.3921 68.7679 77.1693C68.7589 77.0811 68.7086 76.8455 68.6563 76.6458C68.5471 76.2294 68.3929 75.8929 68.1654 75.5752C67.8945 75.1966 67.3892 74.7696 66.8678 74.4783C66.7396 74.4068 66.5852 74.3195 66.5245 74.2843C66.3492 74.1828 66.3123 74.1737 65.5647 74.0468C65.3092 74.0035 64.8576 74.0064 64.7712 74.052C64.7442 74.0662 64.6534 74.0854 64.5693 74.0946C64.4853 74.1039 64.3584 74.1323 64.2873 74.1578C63.6838 74.3747 63.5852 74.4229 63.1149 74.7311C62.8951 74.8751 62.7816 74.9713 62.608 75.1607C62.2168 75.5873 62.1486 75.6891 61.9633 76.1236C61.8249 76.4479 61.7811 76.5945 61.7426 76.8608C61.7269 76.9694 61.6984 77.1345 61.6792 77.2276C61.6163 77.5326 61.6867 77.6363 62.0259 77.7383C62.3382 77.8323 62.5636 77.915 62.6256 77.9586C62.6593 77.9822 62.7267 78.0146 62.7755 78.0305C62.8242 78.0464 62.9235 78.0954 62.9962 78.1393C63.0688 78.1833 63.189 78.2511 63.2631 78.29C63.6103 78.4721 64.0892 78.8396 64.4301 79.1856C64.8678 79.6299 65.1894 80.0695 65.4682 80.6046C65.6678 80.9879 65.6689 81.0454 65.4808 81.2749C65.3275 81.462 65.2789 81.4883 65.0872 81.4883C64.8177 81.4883 64.831 81.5033 64.1373 80.42C63.9739 80.1648 63.6914 79.8715 63.3164 79.5676C63.0614 79.3609 62.7127 79.119 62.6697 79.119C62.6569 79.119 62.5229 79.0595 62.3718 78.9867C61.9778 78.7967 61.6071 78.6729 61.2892 78.6249C60.5679 78.5161 59.8246 78.5294 59.2625 78.6612C58.688 78.7959 58.0272 79.1299 57.5006 79.5517C57.3266 79.6912 56.7654 80.2656 56.6985 80.3727C56.6756 80.4094 56.6268 80.475 56.59 80.5185C56.4249 80.714 56.1059 81.3761 55.9408 81.8658C55.8406 82.1629 55.7242 82.3233 55.5221 82.4425C55.4231 82.5009 55.4039 82.5043 55.318 82.4784C55.2659 82.4627 55.1646 82.4037 55.093 82.3473C54.9594 82.2422 54.4866 81.7586 54.2731 81.5087C54.2073 81.4317 53.9935 81.1889 53.7979 80.9693C53.3404 80.4553 53.0729 80.1122 52.7595 79.6373C52.4396 79.1528 52.2704 78.8685 52.2084 78.7118C52.1815 78.644 52.1047 78.4663 52.0376 78.317C51.9255 78.0675 51.7364 77.5365 51.664 77.2681C51.6476 77.207 51.6027 77.057 51.5644 76.9349C51.5261 76.8127 51.4723 76.6017 51.4449 76.466C51.4176 76.3302 51.369 76.1025 51.3369 75.96C51.3049 75.8175 51.2591 75.5621 51.2352 75.3924C51.2113 75.2227 51.1782 75.0691 51.1616 75.051C51.1369 75.024 51.1031 75.0377 50.9722 75.1278C50.7179 75.3031 50.488 75.3717 50.1072 75.3859C49.5994 75.4048 49.2389 75.312 49.0074 75.1028C48.9263 75.0296 48.9077 75.0222 48.8784 75.0517C48.8595 75.0706 48.8331 75.1467 48.8196 75.2208C48.7072 75.8358 48.5143 76.7467 48.4643 76.8979C48.4306 76.9997 48.3603 77.2329 48.308 77.4161C48.2175 77.733 48.075 78.1216 47.9503 78.391C47.6295 79.0845 47.6515 79.046 47.112 79.8595C46.9724 80.0698 46.7961 80.3142 46.7202 80.4024C46.312 80.8769 46.0782 81.1373 45.7794 81.4501C45.5973 81.6408 45.3601 81.9017 45.2522 82.0298C45.0152 82.3113 44.7936 82.4755 44.6507 82.4755C44.5384 82.4755 44.4055 82.4073 44.2791 82.2847C44.1767 82.1855 44.1582 82.1458 44.0876 81.875C44.0598 81.7687 44.0058 81.6188 43.9676 81.5418C43.9294 81.4649 43.884 81.3575 43.8668 81.3032C43.6987 80.7729 43.0752 79.9743 42.4568 79.4973C41.9144 79.0789 41.2645 78.7697 40.6177 78.6224C40.2016 78.5276 39.5404 78.525 38.8277 78.6154C38.3855 78.6715 37.9679 78.8158 37.347 79.1269C36.9824 79.3095 36.2687 79.9044 36.0239 80.2296C35.9473 80.3314 35.7857 80.5749 35.6648 80.7706C35.4475 81.1222 35.2744 81.3407 35.1325 81.4424C35.0361 81.5115 34.8088 81.5095 34.6703 81.4384C34.5918 81.3981 34.5577 81.3557 34.4889 81.213C34.3884 81.0044 34.3912 80.9688 34.5304 80.6878C34.8577 80.0272 35.0496 79.7617 35.613 79.19C35.9224 78.876 36.1398 78.6927 36.4491 78.4851C36.9268 78.1645 37.3545 77.9533 37.8591 77.7888C38.2091 77.6746 38.3495 77.5908 38.3495 77.496C38.3495 77.3348 38.2483 76.646 38.2029 76.4979C38.1038 76.1753 37.907 75.7537 37.7731 75.5775C37.4744 75.1845 37.2412 74.9651 36.8347 74.6947C36.6226 74.5536 36.3995 74.4187 36.3388 74.395C36.2781 74.3712 36.1926 74.336 36.1487 74.3168C36.1049 74.2975 36.0332 74.2661 35.9894 74.247C35.8882 74.2029 35.535 74.0982 35.3544 74.0586C35.1683 74.0179 34.5952 74.0156 34.4261 74.0548C34.3519 74.072 34.2581 74.0904 34.2177 74.0956C33.8197 74.1467 33.7703 74.1606 33.482 74.3024C32.6893 74.6924 32.0803 75.207 31.7518 75.7643C31.4598 76.2598 31.3185 76.6903 31.2625 77.2557C31.2477 77.405 31.2246 77.5767 31.2112 77.6372C31.1797 77.7793 31.0748 77.9725 30.9904 78.044C30.8237 78.1851 30.4826 78.1249 30.3205 77.9258C30.1431 77.7079 30.1431 77.6836 30.3212 76.7536C30.4119 76.2805 30.6105 75.7111 30.7917 75.4047C30.8743 75.2651 31.17 74.8002 31.2487 74.6861C31.2685 74.6574 31.3468 74.5924 31.4227 74.5417C31.5732 74.4412 31.5944 74.4101 31.5723 74.3216C31.5447 74.2112 31.1709 73.7765 30.72 73.3306C30.3468 72.9615 30.1948 72.8315 29.8314 72.5709C29.1799 72.1035 28.626 71.806 28.0628 71.6208C27.9819 71.5942 27.7281 71.5033 27.4989 71.4187C26.8498 71.1793 26.9012 71.1912 26.2238 71.1245C26.0619 71.1086 25.9012 71.0845 25.8665 71.071C25.8319 71.0575 25.7161 71.0415 25.6091 71.0354C25.5021 71.0293 25.3428 71.0123 25.2552 70.9977C24.994 70.954 24.8301 70.9482 24.777 70.9807Z" fill="white"/>
<path fill-rule="evenodd" clip-rule="evenodd" d="M19.3088 30.0223C18.8188 30.081 18.6779 30.1311 18.3162 30.376C17.9328 30.6354 17.5647 31.1039 17.4626 31.4622C17.394 31.7033 17.3359 32.0868 17.3468 32.2273C17.3624 32.4293 17.407 32.7476 17.4343 32.8523C17.4726 32.9992 17.6641 33.3493 17.8012 33.523C17.9391 33.6978 18.1567 33.9086 18.3279 34.033C18.582 34.2177 18.7407 34.2692 19.3978 34.3797C19.5445 34.4043 19.5912 34.4003 19.876 34.3381C20.2489 34.2567 20.4256 34.1874 20.6551 34.0326C20.9932 33.8048 21.2208 33.5451 21.4373 33.1405C21.6081 32.8213 21.6633 32.5835 21.6607 32.178C21.6589 31.89 21.6495 31.8146 21.5918 31.6227C21.4921 31.2908 21.2759 30.9219 21.0176 30.6427C20.8931 30.5081 20.5407 30.2594 20.3641 30.1814C20.1106 30.0695 19.5814 29.9897 19.3088 30.0223ZM25.7748 30.0326C25.4479 30.0753 25.2178 30.1703 24.8748 30.4042C24.6226 30.5761 24.4606 30.7409 24.2929 30.9964C24.08 31.3205 24.0367 31.4252 23.9917 31.7235C23.9198 32.1996 23.9108 32.3002 23.9324 32.3818C23.944 32.4258 23.971 32.5562 23.9924 32.6715C24.1003 33.2538 24.5844 33.8599 25.1966 34.1792C25.303 34.2347 25.4507 34.2902 25.5249 34.3027C25.5991 34.3151 25.7149 34.3366 25.7824 34.3503C26.0106 34.3968 26.2245 34.4071 26.285 34.3745C26.3506 34.3392 26.635 34.2757 26.7277 34.2757C26.8068 34.2757 27.1628 34.1035 27.3259 33.9863C27.6007 33.7889 27.8321 33.5149 28.0196 33.1651C28.1488 32.9241 28.1877 32.794 28.2343 32.4477C28.2692 32.189 28.2692 32.1391 28.2347 31.9171C28.1625 31.4532 28.0681 31.2213 27.8107 30.8751C27.6762 30.6942 27.4604 30.4862 27.2782 30.3617C27.1088 30.246 26.7926 30.1052 26.6401 30.0775C26.5594 30.0629 26.4438 30.0415 26.3831 30.03C26.2481 30.0044 25.9821 30.0055 25.7748 30.0326ZM32.3522 30.0329C32.085 30.0643 31.779 30.188 31.4942 30.3797C31.2068 30.5731 31.0592 30.7258 30.8484 31.0479C30.6836 31.2998 30.6331 31.4405 30.5508 31.8783C30.4928 32.1866 30.4932 32.1955 30.5838 32.6664C30.6428 32.9724 30.6563 33.0098 30.7854 33.2228C31.0431 33.6477 31.253 33.8596 31.6761 34.1213C31.8063 34.202 32.0156 34.2783 32.1702 34.3015C32.2443 34.3126 32.4043 34.3406 32.5257 34.3637C32.7086 34.3984 32.7674 34.4006 32.869 34.3763C32.9365 34.3602 33.0909 34.3252 33.2123 34.2985C33.8047 34.1681 34.2659 33.7981 34.6291 33.1621C34.8908 32.7038 34.9123 31.8124 34.6739 31.2997C34.413 30.7385 33.8656 30.2484 33.3529 30.1169C32.9494 30.0134 32.6978 29.9923 32.3522 30.0329ZM19.3088 31.0288C18.8638 31.1309 18.6258 31.3081 18.4449 31.672C18.3631 31.8366 18.3328 32.0173 18.3457 32.2644C18.3563 32.4688 18.3681 32.5147 18.459 32.7037C18.6313 33.062 18.8933 33.2716 19.269 33.3518C19.5881 33.4198 19.8446 33.3759 20.1003 33.2093C20.5691 32.9039 20.7686 32.3586 20.6093 31.8185C20.5612 31.6555 20.4479 31.4844 20.2659 31.2999C20.1487 31.1811 20.0823 31.1366 19.9463 31.0855C19.7311 31.0046 19.5026 30.9843 19.3088 31.0288ZM25.8437 31.0297C25.667 31.0706 25.6392 31.0828 25.4543 31.1993C25.2021 31.3583 25.0112 31.6547 24.9612 31.965C24.8988 32.3518 24.9657 32.6605 25.1705 32.9305C25.2957 33.0956 25.3656 33.1531 25.5617 33.2518C25.7737 33.3585 25.974 33.3975 26.1972 33.3755C26.4233 33.3532 26.5831 33.289 26.7755 33.1431C27.0586 32.9285 27.1736 32.7444 27.2308 32.4145C27.301 32.0095 27.2189 31.708 26.9539 31.3981C26.6684 31.0642 26.2678 30.9313 25.8437 31.0297ZM32.5748 31.0117C32.3717 31.034 32.2377 31.0776 32.1043 31.1649C31.6866 31.4381 31.4569 31.9113 31.5318 32.3443C31.5751 32.5942 31.6907 32.8501 31.8295 33.0029C32.0786 33.2773 32.534 33.4333 32.8836 33.3641C33.3092 33.2798 33.6986 32.9268 33.8006 32.5329C33.8507 32.3392 33.8492 31.9426 33.7978 31.7901C33.7468 31.6388 33.6398 31.4828 33.4779 31.3236C33.3627 31.2103 33.1702 31.092 33.101 31.092C33.0867 31.092 33.0452 31.0769 33.0088 31.0584C32.9399 31.0233 32.702 30.9978 32.5748 31.0117Z" fill="white"/>
<path d="M18.1402 84.9465C18.0586 84.9487 17.9109 84.9723 17.531 84.9326C16.8556 84.8619 16.4019 84.6605 15.9593 84.235C15.5047 83.7978 15.2574 83.3746 15.126 82.8088C15.0153 82.332 15.0226 83.7848 15.0125 60.1403C15.0073 47.9577 15.0098 37.9317 15.0182 37.8604C15.0297 37.7619 15.0462 37.7238 15.0867 37.7019C15.1272 37.6799 17.2877 37.6726 24.0291 37.6715C28.918 37.6708 33.9719 37.6644 35.2598 37.6574C37.9092 37.6429 37.7182 37.6584 37.9079 37.4415C38.0238 37.309 38.048 37.2058 38.0068 37.0203C37.9835 36.9157 37.9511 36.8563 37.8703 36.7702L37.7643 36.6574L26.4767 36.6518C20.2686 36.6488 15.1646 36.6403 15.1344 36.633C15.0022 36.6007 15.0068 36.7228 15.0195 33.5328C15.0266 31.7685 15.0416 30.4772 15.057 30.3146C15.1252 29.5936 15.3905 29.0488 15.9399 28.5012C16.3489 28.0936 16.8802 27.8494 17.524 27.7732C17.7979 27.7407 19.0366 27.736 27.3468 27.7358C35.6764 27.7356 36.8648 27.7311 36.926 27.6992C37.0343 27.6428 37.197 27.3807 37.197 27.2626C37.197 27.1503 37.1452 27.0351 37.0532 26.9428C37.0177 26.9071 36.9638 26.8501 36.9335 26.8159C36.9032 26.7818 36.837 26.7452 36.7864 26.7345C36.6452 26.7048 18.2044 26.7203 17.7639 26.7505C17.0145 26.8019 16.6262 26.8977 16.1258 27.1548C15.7607 27.3424 15.5018 27.5317 15.1806 27.8459C14.7807 28.2371 14.5799 28.5247 14.3496 29.0359C14.177 29.419 14.0944 29.7797 14.0371 30.401C14.0035 30.7639 13.9995 33.5965 14 56.426C14.0006 81.6954 14.0013 82.0495 14.0486 82.4688C14.1212 83.112 14.1912 83.377 14.3988 83.7954C14.6888 84.3801 15.1374 84.913 15.6551 85.2876C16.206 85.6863 16.7413 85.8767 17.5432 85.9591C17.898 85.9955 74.6696 86.0172 79.3736 85.9827C82.6763 85.9585 82.8433 85.953 83.1376 85.8598C83.1781 85.847 83.3105 85.8071 83.4319 85.7712C83.9678 85.6125 84.6067 85.1775 85.0539 84.667C85.3112 84.3733 85.4567 84.1556 85.6 83.8499C85.8257 83.3687 85.8983 83.0847 85.9575 82.4509C85.9939 82.0614 85.9961 81.6494 85.9796 78.2553C85.9522 72.6332 85.9541 38.2948 85.982 34.683C86.0101 31.046 86.008 30.6726 85.9565 30.2406C85.8791 29.5898 85.7942 29.2566 85.6118 28.8878C85.0338 27.719 83.9512 26.9438 82.673 26.7837C82.4978 26.7618 81.958 26.7366 81.3476 26.7219C79.6365 26.6808 64.0133 26.6959 63.2389 26.7395C62.9842 26.7538 62.981 26.7548 62.9009 26.8402C62.7035 27.0509 62.6628 27.2762 62.7806 27.5067C62.8973 27.7351 62.7464 27.7182 64.8815 27.7424C65.9133 27.7542 70.1119 27.7582 74.2119 27.7515C78.3119 27.7447 81.8781 27.7488 82.1368 27.7605C82.6757 27.7849 82.8299 27.8087 83.1376 27.9148C83.3897 28.0017 83.5044 28.0613 83.7614 28.2389C84.4322 28.7023 84.8602 29.4041 84.9673 30.2159C85.0128 30.5608 85.0277 36.4931 84.9832 36.554C84.9518 36.5971 84.6257 36.5991 76.3935 36.6065C66.9856 36.615 62.3439 36.6365 62.2041 36.6723C62.1273 36.692 62.1046 36.7149 62.0533 36.8245C61.9272 37.0937 61.9187 37.2228 62.0148 37.4138C62.0734 37.5303 62.1823 37.596 62.3804 37.6343C62.5063 37.6586 64.8921 37.6655 73.7296 37.6672C84.3764 37.6691 84.9209 37.6713 84.9509 37.7126C85.0032 37.7846 85.0068 39.3853 85.0039 61.399C85.0014 81.0466 84.9988 82.3045 84.9591 82.5249C84.8892 82.9133 84.7973 83.2142 84.6883 83.4116C84.6316 83.5144 84.5626 83.6404 84.5351 83.6916C84.4722 83.8086 84.2144 84.1005 84.0215 84.2731C83.5026 84.7378 82.7889 84.9921 82.0832 84.9638L80.3873 84.9441C80.376 84.9444 66.7028 84.9455 50.0024 84.9467L19.6381 84.9487L18.1402 84.9465Z" fill="white"/>
<path fill-rule="evenodd" clip-rule="evenodd" d="M49.6416 16.3487C48.6735 16.4122 47.6748 16.8005 46.9409 17.3988C46.6428 17.6418 46.4627 17.8197 46.1903 18.14C45.9106 18.4688 45.8563 18.5528 45.5795 19.0847C45.4229 19.3857 45.3668 19.5257 45.2777 19.8375C45.1378 20.3275 45.1256 20.3906 45.0816 20.845C45.0616 21.0527 45.0398 21.2313 45.0332 21.242C45.0267 21.2527 45.0318 21.3326 45.0445 21.4196C45.0573 21.5067 45.0781 21.7222 45.0908 21.8987C45.1128 22.2065 45.1816 22.5227 45.3375 23.034C45.4056 23.2572 45.6146 23.69 45.7703 23.9305C45.9469 24.2031 46.3649 24.7174 46.5673 24.911C46.7963 25.13 47.1405 25.4122 47.3366 25.5417C47.766 25.8254 48.3486 26.0753 48.8578 26.1941C49.2873 26.2944 50.1088 26.3335 50.6224 26.2781C51.3094 26.2041 52.0207 25.9492 52.6803 25.5407C53.1933 25.223 53.8747 24.5423 54.189 24.0335C54.6309 23.3182 54.8829 22.5888 54.9479 21.837C54.9625 21.6673 54.9874 21.4872 55.0031 21.4368C55.0261 21.3629 55.0241 21.3101 54.9924 21.1653C54.9708 21.0665 54.9468 20.8685 54.9391 20.7254C54.925 20.4646 54.9004 20.355 54.7208 19.7516C54.574 19.2586 54.251 18.6445 53.9244 18.2378C53.5588 17.7824 53.1112 17.3789 52.6577 17.0961C52.5498 17.0288 52.445 16.9632 52.4247 16.9503C52.4045 16.9375 52.2611 16.867 52.106 16.7938C51.6801 16.5929 51.2956 16.4744 50.8063 16.3935C50.5922 16.358 49.9034 16.3316 49.6416 16.3487ZM48.1213 17.8217C48.5494 17.5698 49.0495 17.4104 49.5435 17.3684C49.8589 17.3416 50.5149 17.3613 50.745 17.4044C51.3933 17.5259 51.9288 17.7752 52.4524 18.1994C52.7762 18.4618 52.9219 18.6131 53.1873 18.963C53.4421 19.2991 53.6229 19.6188 53.6891 19.8503C53.7123 19.9317 53.7532 20.0483 53.7799 20.1094C53.8508 20.2719 53.914 20.5806 53.9339 20.8622C53.9435 20.9979 53.9613 21.1355 53.9735 21.1679C53.9944 21.224 53.9793 21.4397 53.9186 21.9523C53.8962 22.1416 53.7828 22.5973 53.7171 22.7625C53.651 22.9284 53.3735 23.4577 53.3224 23.5152C53.2923 23.5492 53.203 23.6634 53.124 23.7692C52.812 24.187 52.2694 24.643 51.7872 24.8927C50.6182 25.498 49.0619 25.436 47.9622 24.7403C47.713 24.5827 47.4014 24.334 47.2204 24.1484C47.0249 23.9478 46.684 23.4981 46.6122 23.3459C46.5842 23.2868 46.5363 23.1979 46.5057 23.1485C46.4314 23.0287 46.2851 22.663 46.2097 22.4089C46.0745 21.9532 46.0263 21.3599 46.084 20.8622C46.1338 20.4326 46.1732 20.2712 46.3166 19.9109C46.6711 19.0199 47.2769 18.3186 48.1213 17.8217Z" fill="#0BFF7B"/>
<path fill-rule="evenodd" clip-rule="evenodd" d="M49.5344 6.03094C49.2282 6.07053 48.8547 6.16466 48.6016 6.26602C48.3743 6.35704 47.9283 6.60181 47.7289 6.74491C47.5682 6.86024 46.8795 7.54096 46.6049 7.85585C46.5102 7.96444 46.3251 8.1699 46.1935 8.31243C46.0619 8.45495 45.9221 8.61599 45.8827 8.67029C45.8434 8.72458 45.7567 8.82453 45.6901 8.8924C45.6236 8.96027 45.4709 9.12686 45.3508 9.2626C45.2308 9.39834 45.0491 9.59825 44.947 9.70684C44.8449 9.81543 44.7078 9.96536 44.6424 10.04C44.577 10.1147 44.45 10.2535 44.3603 10.3485C44.2705 10.4435 44.1564 10.5724 44.1068 10.6349C44.0571 10.6974 43.969 10.7978 43.911 10.858C43.4749 11.3102 42.7992 12.0931 42.2631 12.7671C41.5941 13.6083 40.8133 14.9037 40.4345 15.8008C39.8522 17.18 39.4905 18.6451 39.4044 19.9737C39.3895 20.2044 39.3648 20.4654 39.3496 20.5537C39.3242 20.701 39.3192 21.7001 39.3437 21.74C39.3493 21.7491 39.3648 21.944 39.3781 22.1732C39.4204 22.9008 39.4847 23.6344 39.5756 24.4284C39.6013 24.6524 39.6454 25.0633 39.6737 25.3416C39.7021 25.6198 39.7683 26.2529 39.8208 26.7483C39.8734 27.2438 39.9394 27.8768 39.9676 28.1551C39.9958 28.4333 40.0569 29.0108 40.1033 29.4384C40.1497 29.866 40.2044 30.3935 40.2249 30.6107C40.2453 30.8279 40.2843 31.2166 40.3114 31.4745C40.3386 31.7324 40.3833 32.1822 40.4107 32.474C40.4382 32.7659 40.4869 33.2545 40.5191 33.56C40.5514 33.8654 40.6065 34.3929 40.6417 34.7323C40.7015 35.3098 40.8417 36.5958 40.9004 37.1052C40.9147 37.2293 40.9232 37.4181 40.9192 37.5247L40.912 37.7184L40.6525 37.8666C40.0322 38.2206 39.0886 38.8584 38.6006 39.2536C38.1685 39.6034 37.3476 40.3795 37.1179 40.6554C37.05 40.7369 36.9215 40.8854 36.8322 40.9854C36.7429 41.0855 36.6091 41.254 36.535 41.36L36.2393 41.7828C35.9959 42.1311 35.598 42.813 35.4354 43.1604C35.3128 43.4223 35.2696 43.5322 35.0709 44.0859C34.8607 44.6717 34.8584 44.6796 34.7442 45.2089C34.6243 45.7651 34.5855 46.0558 34.5271 46.8382C34.4786 47.4883 34.4871 47.9415 34.5599 48.6024C34.5794 48.7788 34.602 48.9954 34.6103 49.0836C34.6355 49.3545 34.8236 50.2162 34.9899 50.8226C35.121 51.3009 35.5006 52.3435 35.7489 52.9075C35.9628 53.3933 36.2319 53.7039 36.5963 53.8854C37.2452 54.2088 37.8731 54.1521 38.479 53.7155C38.6585 53.5862 39.0298 53.2247 39.2693 52.946C39.3627 52.8374 39.5348 52.6486 39.6517 52.5265C39.7686 52.4043 39.9345 52.2211 40.0203 52.1193C40.1062 52.0175 40.2487 51.8565 40.3372 51.7614C40.4256 51.6664 40.5415 51.5391 40.5946 51.4785C40.7482 51.3035 41.0508 50.9762 41.1089 50.9223C41.1382 50.8951 41.27 50.7507 41.4019 50.6014C41.6814 50.285 42.133 49.8001 42.4814 49.4421C42.6901 49.2276 42.7412 49.1877 42.8247 49.1742C42.8786 49.1654 43.2403 49.1581 43.6285 49.1579C44.2471 49.1577 44.3361 49.1624 44.349 49.1964C44.3571 49.2177 44.3188 49.3315 44.2638 49.4493C44.1791 49.6309 43.9187 50.2911 43.8004 50.6244C43.7814 50.6778 43.7445 50.7688 43.7183 50.8267C43.6921 50.8845 43.6706 50.944 43.6706 50.9587C43.6706 50.9735 43.6362 51.099 43.5942 51.2377C43.3518 52.0373 43.0278 53.1778 42.9723 53.4273C42.9109 53.7032 42.6783 54.8871 42.5941 55.3523C42.4704 56.0358 42.4251 56.3723 42.3598 57.0922C42.3253 57.4723 42.2867 57.8888 42.274 58.0177C42.1909 58.8605 42.1912 58.8542 42.2213 59.1854C42.3233 60.3072 42.4616 60.9902 42.8519 62.2997C43.1735 63.3791 43.5275 64.3763 43.9293 65.3353C43.9862 65.4711 44.1069 65.7598 44.1976 65.977C44.693 67.1637 45.7537 69.4345 46.1976 70.259C46.267 70.3879 46.4603 70.7655 46.6271 71.0981C46.7939 71.4306 46.9783 71.7916 47.0369 71.9002C47.0954 72.0088 47.2268 72.2531 47.3288 72.4431C47.5101 72.7809 47.5666 72.8841 47.6799 73.0848C47.7105 73.1391 47.7666 73.2557 47.8045 73.344C47.8424 73.4322 47.8988 73.543 47.9299 73.5903C47.995 73.6893 48.0037 73.8268 47.9487 73.888C47.9212 73.9185 47.9085 73.9998 47.9022 74.1861C47.8921 74.4833 47.8297 75.0347 47.7765 75.297C47.7563 75.397 47.729 75.5454 47.716 75.6268C47.652 76.027 47.3465 77.2086 47.23 77.5066C46.9224 78.2929 46.8341 78.4619 46.3252 79.2361C46.0533 79.6498 45.871 79.8704 45.3112 80.4631C45.1953 80.5858 45.0833 80.7195 45.0622 80.7603C45.0412 80.801 44.9953 80.8612 44.9603 80.8941L44.8967 80.954L44.8389 80.8994C44.8072 80.8693 44.7344 80.7498 44.6773 80.6338C44.4544 80.1811 44.1611 79.7581 43.7623 79.3142C43.4986 79.0207 43.2967 78.8454 42.9473 78.6065C42.8124 78.5143 42.6689 78.416 42.6285 78.3881C42.4528 78.2667 42.129 78.0853 42.0245 78.0497C41.9621 78.0285 41.8517 77.9793 41.7793 77.9405C41.5253 77.8044 40.759 77.6082 40.2131 77.5396C39.4869 77.4482 39.4118 77.4303 39.3539 77.3344C39.3273 77.2905 39.3051 77.1837 39.2947 77.0501C39.2553 76.5421 39.2214 76.4002 39.0328 75.9537C38.8629 75.5514 38.7146 75.2493 38.6119 75.0962C38.5065 74.9391 37.9627 74.2852 37.8676 74.2011C37.8239 74.1625 37.6138 74.015 37.4007 73.8734C37.1875 73.7318 36.989 73.5991 36.9595 73.5786C36.9299 73.5582 36.8956 73.5414 36.8831 73.5414C36.8706 73.5414 36.834 73.5213 36.8019 73.4967C36.7388 73.4484 36.6088 73.3979 36.3756 73.3311C36.2946 73.308 36.1677 73.2578 36.0936 73.2196C35.958 73.1498 35.8984 73.1405 35.0766 73.0607C35.0096 73.0542 34.9017 73.0296 34.8368 73.0062C34.7357 72.9695 34.7077 72.9681 34.64 72.9958C34.5965 73.0135 34.4532 73.043 34.3214 73.0613C34.0894 73.0935 34.0236 73.108 33.6047 73.2195C33.1484 73.341 32.9516 73.4242 32.6298 73.6318C32.5005 73.7152 32.4448 73.7387 32.4167 73.7216C32.3957 73.7088 32.2802 73.5658 32.1599 73.4039C31.9289 73.093 31.2943 72.4232 31.0054 72.1856C30.911 72.1079 30.7462 71.9852 30.6391 71.9129C30.5321 71.8406 30.3555 71.7134 30.2468 71.6303C30.138 71.5472 29.9505 71.4195 29.8301 71.3466C29.5311 71.1657 28.701 70.7447 28.5655 70.7053C28.5048 70.6877 28.4166 70.6591 28.3694 70.6419C28.1527 70.5627 27.7981 70.447 27.5969 70.3897C27.4756 70.3552 27.2702 70.2894 27.1405 70.2436C26.985 70.1886 26.8597 70.1602 26.7726 70.1602C26.7 70.1602 26.4696 70.1376 26.2605 70.1098C26.0515 70.0821 25.7701 70.0482 25.6352 70.0346C25.5004 70.0209 25.3225 69.9983 25.2399 69.9842C25.0133 69.9457 24.8828 69.953 24.7024 70.0144C24.5675 70.0602 24.5301 70.0647 24.4904 70.0397C24.4568 70.0186 24.4328 70.0171 24.4116 70.0349C24.3905 70.0525 24.3728 70.0521 24.3544 70.0336C24.3199 69.9988 23.9804 70.0398 23.9188 70.0862C23.9053 70.0964 23.8025 70.1124 23.6905 70.1219C23.464 70.1411 22.6345 70.3433 22.327 70.4543C21.393 70.7913 21.2038 70.8758 20.6206 71.2164C20.3846 71.3543 19.9607 71.6448 19.603 71.9139C19.4951 71.995 19.3631 72.0906 19.3097 72.1264C19.1731 72.2176 18.4854 72.9015 18.3191 73.1114C17.6803 73.9181 17.6474 73.9662 17.2203 74.7215C16.8281 75.4151 16.5756 76.0715 16.3545 76.9719C16.2995 77.1959 16.2377 77.4402 16.217 77.5149C16.1964 77.5895 16.1696 77.7894 16.1575 77.9591C16.1454 78.1288 16.1241 78.3953 16.1101 78.5514C16.0037 79.737 16.2587 81.2432 16.7951 82.5983C17.0572 83.2605 17.6295 84.2432 17.9872 84.6453C18.7475 85.5 19.4254 85.2991 19.6381 84.9487L19.5102 84.8289C18.3141 83.7083 17.4636 82.038 17.187 80.2667C17.1028 79.727 17.091 78.7123 17.1622 78.1319C17.2086 77.753 17.2499 77.5475 17.425 76.8238C17.4668 76.6509 17.6838 76.0521 17.7866 75.8259C17.8213 75.7496 17.8497 75.6804 17.8497 75.6721C17.8497 75.6639 17.9397 75.4893 18.0496 75.2841C18.4597 74.5186 18.8726 73.9725 19.5458 73.305C20.2338 72.6228 21.0869 72.0332 21.8467 71.7148C21.9479 71.6724 22.0637 71.6229 22.1042 71.6048C22.2348 71.5465 23.0058 71.3028 23.1954 71.2599C23.2965 71.2371 23.44 71.2029 23.5142 71.1841C23.5883 71.1653 23.7428 71.1376 23.8574 71.1224C23.9721 71.1073 24.1237 71.0782 24.1943 71.0578C24.2649 71.0374 24.3316 71.0263 24.3425 71.033C24.3533 71.0398 24.4059 71.0505 24.4593 71.0569C24.5126 71.0633 24.5673 71.0721 24.5808 71.0764C24.6032 71.0837 24.6282 71.0715 24.777 70.9807C24.8301 70.9482 24.994 70.954 25.2552 70.9977C25.3428 71.0123 25.5021 71.0293 25.6091 71.0354C25.7161 71.0415 25.8319 71.0575 25.8666 71.071C25.9012 71.0845 26.0619 71.1086 26.2238 71.1245C26.9012 71.1912 26.8498 71.1793 27.4989 71.4187C27.7281 71.5033 27.9819 71.5942 28.0628 71.6208C28.626 71.806 29.1799 72.1035 29.8314 72.5709C30.1948 72.8315 30.3468 72.9615 30.72 73.3306C31.1709 73.7765 31.5447 74.2112 31.5723 74.3216C31.5944 74.4101 31.5732 74.4412 31.4227 74.5417C31.3468 74.5924 31.2685 74.6574 31.2487 74.6861C31.17 74.8002 30.8743 75.2651 30.7917 75.4047C30.6105 75.7111 30.4119 76.2805 30.3212 76.7536C30.1431 77.6836 30.1431 77.7079 30.3205 77.9258C30.4826 78.1249 30.8237 78.1851 30.9904 78.044C31.0748 77.9725 31.1797 77.7793 31.2112 77.6372C31.2246 77.5767 31.2477 77.405 31.2625 77.2557C31.3185 76.6903 31.4598 76.2598 31.7518 75.7643C32.0803 75.207 32.6893 74.6924 33.4821 74.3024C33.7703 74.1606 33.8197 74.1467 34.2177 74.0956C34.2582 74.0904 34.3519 74.072 34.4261 74.0548C34.5952 74.0156 35.1683 74.0179 35.3544 74.0586C35.535 74.0982 35.8882 74.2029 35.9894 74.247L36.1487 74.3168C36.1926 74.336 36.2781 74.3712 36.3388 74.395C36.3995 74.4187 36.6226 74.5536 36.8347 74.6947C37.2412 74.9651 37.4744 75.1845 37.7731 75.5775C37.907 75.7537 38.1038 76.1753 38.2029 76.4979C38.2483 76.646 38.3495 77.3348 38.3495 77.496C38.3495 77.5908 38.2091 77.6746 37.8591 77.7888C37.3546 77.9533 36.9268 78.1645 36.4491 78.4851C36.1398 78.6927 35.9224 78.876 35.613 79.19C35.0496 79.7617 34.8577 80.0272 34.5304 80.6878C34.3912 80.9688 34.3884 81.0044 34.4889 81.213C34.5577 81.3557 34.5918 81.3981 34.6703 81.4384C34.8088 81.5095 35.0361 81.5115 35.1325 81.4424C35.2744 81.3407 35.4475 81.1222 35.6648 80.7706C35.7857 80.5749 35.9473 80.3314 36.0239 80.2296C36.2687 79.9044 36.9824 79.3095 37.347 79.1269C37.9679 78.8158 38.3855 78.6715 38.8277 78.6154C39.5404 78.525 40.2016 78.5276 40.6177 78.6224C41.2645 78.7697 41.9144 79.0789 42.4568 79.4973C43.0752 79.9743 43.6987 80.7729 43.8668 81.3032C43.884 81.3575 43.9294 81.4649 43.9676 81.5418C44.0058 81.6188 44.0598 81.7687 44.0876 81.875C44.1582 82.1458 44.1767 82.1855 44.2791 82.2847C44.4055 82.4073 44.5384 82.4755 44.6507 82.4755C44.7936 82.4755 45.0152 82.3113 45.2522 82.0298C45.3601 81.9017 45.5973 81.6408 45.7794 81.4501C46.0782 81.1373 46.312 80.8769 46.7202 80.4024C46.7961 80.3142 46.9724 80.0698 47.112 79.8595C47.6515 79.046 47.6295 79.0845 47.9503 78.391C48.075 78.1216 48.2175 77.733 48.308 77.4161C48.3603 77.2329 48.4306 76.9997 48.4643 76.8979C48.5143 76.7467 48.7072 75.8358 48.8196 75.2208C48.8331 75.1467 48.8595 75.0706 48.8784 75.0517C48.9077 75.0222 48.9263 75.0296 49.0074 75.1028C49.2389 75.312 49.5994 75.4048 50.1072 75.3859C50.488 75.3717 50.7179 75.3031 50.9722 75.1278C51.1031 75.0377 51.1369 75.024 51.1616 75.051C51.1782 75.0691 51.2113 75.2227 51.2352 75.3924C51.2591 75.5621 51.3049 75.8175 51.3369 75.96C51.369 76.1025 51.4176 76.3302 51.4449 76.466C51.4723 76.6017 51.5261 76.8127 51.5644 76.9349C51.6027 77.057 51.6476 77.207 51.664 77.2681C51.7364 77.5365 51.9255 78.0675 52.0376 78.317C52.1047 78.4663 52.1815 78.644 52.2084 78.7118C52.2704 78.8685 52.4396 79.1528 52.7595 79.6373C53.0729 80.1122 53.3404 80.4553 53.7979 80.9693C53.9935 81.1889 54.2073 81.4317 54.2731 81.5087C54.4866 81.7586 54.9594 82.2422 55.093 82.3473C55.1646 82.4037 55.2659 82.4627 55.318 82.4784C55.4039 82.5043 55.4231 82.5009 55.5221 82.4425C55.7242 82.3233 55.8406 82.1629 55.9408 81.8658C56.1059 81.3761 56.4249 80.714 56.59 80.5185C56.6268 80.475 56.6756 80.4094 56.6985 80.3727C56.7654 80.2656 57.3266 79.6912 57.5006 79.5517C58.0272 79.1299 58.688 78.7959 59.2625 78.6612C59.8246 78.5294 60.5679 78.5161 61.2892 78.6249C61.6071 78.6729 61.9778 78.7967 62.3718 78.9867C62.5229 79.0595 62.6569 79.119 62.6697 79.119C62.7127 79.119 63.0614 79.3609 63.3164 79.5676C63.6914 79.8715 63.9739 80.1648 64.1373 80.42C64.831 81.5033 64.8177 81.4883 65.0872 81.4883C65.2789 81.4883 65.3275 81.462 65.4808 81.2749C65.6689 81.0454 65.6678 80.9879 65.4682 80.6046C65.1894 80.0695 64.8678 79.6299 64.4301 79.1856C64.0892 78.8396 63.6103 78.4721 63.2631 78.29C63.189 78.2511 63.0688 78.1833 62.9962 78.1393C62.9235 78.0954 62.8242 78.0464 62.7755 78.0305C62.7267 78.0146 62.6593 77.9822 62.6256 77.9586C62.5636 77.915 62.3382 77.8323 62.0259 77.7383C61.6867 77.6363 61.6163 77.5326 61.6792 77.2276C61.6984 77.1345 61.7269 76.9694 61.7426 76.8608C61.7811 76.5945 61.8249 76.4479 61.9633 76.1236C62.1486 75.6891 62.2168 75.5873 62.608 75.1607C62.7816 74.9713 62.8951 74.8751 63.1149 74.7311C63.5852 74.4229 63.6838 74.3747 64.2873 74.1578C64.3584 74.1323 64.4853 74.1039 64.5693 74.0946C64.6534 74.0854 64.7442 74.0662 64.7712 74.052C64.8576 74.0064 65.3092 74.0035 65.5647 74.0468C66.3123 74.1737 66.3492 74.1828 66.5245 74.2843C66.5852 74.3195 66.7396 74.4068 66.8678 74.4783C67.3892 74.7696 67.8945 75.1966 68.1654 75.5752C68.3929 75.8929 68.5471 76.2294 68.6563 76.6458C68.7086 76.8455 68.7589 77.0811 68.7679 77.1693C68.7907 77.3921 68.8687 77.8347 68.899 77.913C68.9364 78.0095 69.0458 78.0753 69.2014 78.0949C69.4428 78.1252 69.5314 78.0956 69.6962 77.9298L69.8419 77.7832L69.8281 77.4948C69.8154 77.2282 69.7197 76.6681 69.6288 76.3271C69.5496 76.0302 69.3835 75.6235 69.242 75.3801C69.0443 75.0398 68.7944 74.686 68.6295 74.5127C68.4712 74.3464 68.4273 74.2567 68.4864 74.22C68.5 74.2115 68.5735 74.1248 68.6498 74.0272C68.8439 73.7788 69.585 73.028 69.8348 72.8265C70.2584 72.485 70.8375 72.1118 71.3281 71.8642C71.7307 71.661 72.9194 71.2503 73.2609 71.1964L73.571 71.1474C73.6569 71.1339 73.781 71.1225 73.8469 71.1222C73.9128 71.1219 74.0108 71.1102 74.0648 71.0963C74.1187 71.0824 74.2842 71.0612 74.4326 71.0493C74.5809 71.0374 74.752 71.0093 74.8127 70.9868C74.9567 70.9333 75.1952 70.9521 75.3283 71.0274C75.4158 71.0769 75.433 71.0789 75.5216 71.0494C75.6246 71.0153 75.7002 71.0212 75.9774 71.0851C76.0718 71.1068 76.1767 71.1301 76.2104 71.1367L76.4066 71.1748C76.7838 71.2478 77.1367 71.3303 77.1923 71.3586C77.2266 71.376 77.326 71.4088 77.413 71.4315C77.5001 71.4541 77.5823 71.4818 77.5958 71.4928C77.6093 71.5039 77.7328 71.5523 77.8701 71.6003C78.1486 71.6977 78.7217 71.9775 79.0047 72.1543C79.2274 72.2934 79.8086 72.6982 79.9621 72.8212C80.0228 72.8698 80.2696 73.1045 80.5104 73.3427C80.9531 73.7806 81.342 74.2387 81.5926 74.6178C81.8007 74.9326 82.1493 75.5815 82.2493 75.8403C82.5426 76.5994 82.6008 76.7909 82.7804 77.5889C82.9392 78.2948 82.9451 79.7802 82.792 80.5505C82.6784 81.1226 82.4248 81.9655 82.2422 82.3784C82.0252 82.8689 81.5972 83.5775 81.1995 84.1044C81.0361 84.321 80.4345 84.9428 80.3873 84.944C80.4249 85.4627 81.1995 85.5 81.9799 84.715C82.0829 84.5922 82.3169 84.2794 82.4289 84.1148C82.6324 83.8158 83.0333 83.0473 83.2067 82.6236C83.3396 82.2988 83.5662 81.6445 83.6177 81.4368C83.8876 80.3477 83.9664 79.4853 83.8949 78.4033C83.8497 77.7195 83.8366 77.6352 83.6727 76.9721C83.416 75.9342 83.0265 75.0053 82.5031 74.1831C81.9644 73.3366 81.094 72.3631 80.5725 72.0235C80.4772 71.9615 80.2927 71.8293 80.1623 71.7297C79.6165 71.3128 78.7624 70.8356 78.2148 70.6418C78.0497 70.5834 77.8429 70.5072 77.7552 70.4725C77.5039 70.3732 76.6186 70.1623 76.2349 70.1104C76.1203 70.0949 75.9776 70.0665 75.9179 70.0472C75.7928 70.0068 75.5584 70.0005 75.536 70.0368C75.5124 70.0754 75.4236 70.0651 75.3031 70.0098C75.1773 69.9521 75.0739 69.9474 74.7699 69.9858L74.1751 70.061C73.9661 70.0875 73.6626 70.1219 73.5008 70.1375C73.0731 70.1787 72.7874 70.2552 71.7843 70.597C70.9842 70.8696 70.2969 71.2386 69.5234 71.8106C69.3589 71.9323 69.1713 72.068 69.1066 72.1123C68.9345 72.2298 68.1568 73.0088 68.0248 73.1959C67.8719 73.4125 67.6834 73.6619 67.6378 73.7078C67.5939 73.7519 67.5774 73.7452 67.3214 73.5798C67.0593 73.4103 66.977 73.375 66.598 73.2698C66.5508 73.2568 66.4184 73.2184 66.3038 73.1847C66.1891 73.1509 65.9595 73.1066 65.7934 73.0861C65.6273 73.0655 65.4792 73.0411 65.4642 73.0318C65.3918 72.9868 65.2346 72.9794 65.1514 73.0171C65.1041 73.0386 64.9868 73.0594 64.8908 73.0635C64.6075 73.0756 64.1545 73.1428 64.0165 73.1932C63.9461 73.2189 63.7655 73.2839 63.6152 73.3377C63.2742 73.4596 63.0628 73.5755 62.5594 73.9168C62.204 74.1577 62.0126 74.3191 62.0126 74.3778C62.0126 74.3889 61.9826 74.4301 61.946 74.4695C61.9094 74.5088 61.7664 74.6728 61.6282 74.834C61.414 75.0838 61.3548 75.173 61.2268 75.4386C61.1442 75.61 61.0222 75.8878 60.9558 76.0559C60.8374 76.3555 60.8033 76.5113 60.6958 77.2409C60.668 77.4297 60.6253 77.4539 60.2348 77.5025C60.0594 77.5244 59.8108 77.5521 59.6822 77.5641C58.8914 77.6379 57.8982 78.0233 57.1819 78.5342C56.7265 78.859 56.234 79.3133 56.0294 79.5972C55.9822 79.6627 55.8967 79.7746 55.8394 79.8458C55.7229 79.9907 55.5292 80.3009 55.3434 80.6401C55.2755 80.764 55.204 80.8788 55.1845 80.8951C55.1225 80.9468 55.057 80.8998 54.8662 80.6666C54.7639 80.5417 54.5256 80.2673 54.3365 80.0569C54.0252 79.7105 53.8714 79.5045 53.5629 79.0203C53.5067 78.9321 53.414 78.7877 53.3569 78.6995C53.2313 78.5053 52.9934 78.0135 52.9059 77.7672C52.8709 77.6684 52.8268 77.5573 52.8081 77.5204C52.7268 77.36 52.3637 76.026 52.3363 75.7873C52.3309 75.7398 52.3102 75.6231 52.2904 75.5281C52.2705 75.4331 52.2257 75.1339 52.1908 74.8633C52.1559 74.5927 52.1169 74.3518 52.1043 74.3281C52.0703 74.2642 52.0766 74.2253 52.1182 74.2414C52.1454 74.2519 52.1549 74.238 52.1547 74.1885C52.1543 74.0991 52.0905 73.8615 52.0582 73.8289C52.016 73.7865 52.0288 73.6757 52.0814 73.6278C52.1084 73.6032 52.1305 73.5697 52.1305 73.5533C52.1305 73.5165 52.3253 73.117 52.4492 72.8997C52.9054 72.0999 54.3342 69.2738 54.9137 68.0254C55.1545 67.5066 55.7596 66.1463 55.7596 66.1237C55.7596 66.1185 55.786 66.0556 55.8183 65.9839C56.1635 65.2176 56.792 63.5505 57.026 62.781C57.4302 61.4517 57.6872 60.3362 57.7454 59.6587C57.7606 59.4824 57.7834 59.2571 57.7962 59.1582C57.8258 58.9288 57.8258 58.637 57.7962 58.4075C57.7835 58.3085 57.7555 58.0443 57.734 57.8203C57.7124 57.5963 57.6841 57.3076 57.671 57.1786C57.6579 57.0497 57.636 56.7998 57.6222 56.6233C57.5964 56.2909 57.5929 56.2662 57.4903 55.6731C57.4563 55.4763 57.4048 55.1709 57.3759 54.9945C57.3471 54.818 57.3196 54.6671 57.315 54.6592C57.3104 54.6512 57.2896 54.5568 57.2689 54.4494C57.0987 53.5667 57.0556 53.3752 56.9193 52.8967C56.8459 52.6388 56.7526 52.3056 56.7119 52.1563C56.6321 51.863 56.479 51.3515 56.4443 51.2617C56.4324 51.2311 56.4057 51.1318 56.3847 51.041C56.3638 50.9501 56.32 50.814 56.2874 50.7386C56.2549 50.6632 56.1443 50.3849 56.0418 50.1202C55.9392 49.8555 55.8377 49.6 55.8163 49.5525C55.7564 49.4201 55.6861 49.2237 55.6861 49.1889C55.6861 49.1488 57.0954 49.144 57.237 49.1836C57.3388 49.2121 57.5651 49.4274 57.8452 49.7623C57.9361 49.8709 58.0624 50.0097 58.1259 50.0708C58.1895 50.1319 58.3303 50.2818 58.4389 50.404C58.5474 50.5262 58.7531 50.7486 58.896 50.8982C59.1731 51.1884 59.7886 51.862 59.9865 52.0916C60.2122 52.3534 60.798 52.9955 61.0435 53.2503C61.3671 53.586 61.5709 53.7514 61.8242 53.8836C62.1241 54.0402 62.2849 54.0784 62.6501 54.0798C62.9269 54.0808 62.9757 54.0741 63.1528 54.0104C63.4741 53.8948 63.6273 53.8004 63.839 53.5875C64.1578 53.267 64.2416 53.0912 64.7746 51.6256C65.0096 50.9796 65.3496 49.6014 65.4079 49.0589C65.5499 47.7367 65.5546 47.6612 65.5225 47.1799C65.5068 46.9442 65.4881 46.6514 65.4809 46.5292C65.4621 46.2096 65.4096 45.8637 65.2864 45.2459C65.1574 44.5993 65.0191 44.1529 64.7364 43.4703C64.4503 42.7797 63.7859 41.6895 63.2974 41.1096C63.0705 40.8401 62.7701 40.4961 62.6941 40.4185C62.5411 40.2625 62.1481 39.8887 62.0371 39.7936C61.9764 39.7416 61.7943 39.585 61.6325 39.4456C61.067 38.9583 60.1576 38.3152 59.5236 37.9542C59.0896 37.707 59.0945 37.7123 59.0945 37.4984C59.0945 37.4024 59.144 36.8629 59.2044 36.2995C59.354 34.9038 59.6294 32.2488 59.7919 30.6354C59.9404 29.1599 60.0621 27.9811 60.1743 26.9302C60.2151 26.5484 60.2918 25.821 60.3448 25.3137C60.3979 24.8064 60.4739 24.0804 60.5138 23.7003C60.587 23.0034 60.6162 22.6559 60.6642 21.911C60.708 21.2318 60.7108 21.0953 60.687 20.8128C60.6744 20.6635 60.6534 20.3581 60.6404 20.1341C60.5955 19.361 60.4277 18.3884 60.187 17.5057C59.9907 16.7863 59.9712 16.7305 59.5875 15.7976C59.2502 14.9777 58.5037 13.7099 57.883 12.9029C57.5573 12.4794 56.6751 11.4509 56.1154 10.8421C55.9532 10.6657 55.6997 10.388 55.5521 10.2251C55.4045 10.0622 55.1661 9.80124 55.0223 9.64514C54.8785 9.48904 54.6683 9.25397 54.5552 9.12277C53.7567 8.19616 52.5822 6.95474 52.3021 6.74118C51.9896 6.50297 51.278 6.18465 50.8286 6.08208C50.4476 5.99513 49.9604 5.97588 49.5344 6.03094ZM48.4357 7.47904C48.7611 7.26669 49.2216 7.09413 49.6026 7.04178C49.7319 7.02401 49.9095 7.00841 49.9971 7.00713C50.1666 7.00466 50.6223 7.06039 50.745 7.09864C51.4242 7.3103 51.8237 7.5914 52.4643 8.30828C52.8859 8.78014 53.1252 9.04483 53.5656 9.52621C53.7683 9.74771 54.0048 10.0123 54.0911 10.1141C54.2609 10.3143 54.7065 10.809 55.404 11.5716C56.1047 12.3377 56.8329 13.1979 57.2101 13.705C57.4866 14.0766 57.9401 14.7783 58.1193 15.1117C58.5114 15.8413 58.6255 16.0893 58.8705 16.7446C59.3292 17.9711 59.5693 19.1395 59.6204 20.3932C59.6281 20.5833 59.6451 20.7832 59.6581 20.8375C59.6884 20.9635 59.689 21.431 59.6591 21.6396C59.6464 21.7278 59.6347 21.8888 59.6331 21.9974C59.6267 22.4206 59.5171 23.6976 59.4255 24.4161C59.4065 24.5654 59.3516 25.0874 59.3036 25.576C59.2556 26.0647 59.2004 26.5978 59.1811 26.7607C59.1617 26.9235 59.112 27.4011 59.0705 27.8219C59.029 28.2427 58.9682 28.8368 58.9352 29.1423C58.9023 29.4477 58.8536 29.9252 58.827 30.2035C58.7606 30.8984 58.5709 32.7432 58.4692 33.6834C58.4229 34.1109 58.3567 34.7495 58.3221 35.1025C58.2592 35.7441 58.0835 37.2675 57.9919 37.9653C57.9652 38.1689 57.9149 38.6798 57.8801 39.1006C57.8454 39.5214 57.8037 39.9489 57.7875 40.0506C57.7608 40.2188 57.7515 40.2387 57.6846 40.2716C57.6212 40.3027 57.1243 40.309 54.1167 40.3163C52.0653 40.3213 50.6091 40.3156 50.5902 40.3026C50.4979 40.239 50.4907 40.1251 50.5055 38.9746C50.5198 37.8679 50.5195 37.8607 50.4666 37.7506C50.3819 37.5744 50.1831 37.4347 50.0171 37.4347C49.9026 37.4347 49.5898 37.6238 49.5441 37.7206C49.5121 37.7885 49.5067 37.976 49.5067 39.0079C49.5067 40.2046 49.5062 40.2163 49.4551 40.2629C49.4048 40.3087 49.3113 40.3099 45.9302 40.3099C44.0198 40.3099 42.4257 40.3012 42.3876 40.2905C42.2757 40.2591 42.2273 40.1119 42.1977 39.7131C42.1402 38.9383 42.0718 38.2183 42.028 37.9283C41.9523 37.4264 41.7551 35.6896 41.6834 34.8927C41.6559 34.5873 41.6064 34.1153 41.5734 33.8438C41.5403 33.5723 41.4909 33.1059 41.4636 32.8072C41.4362 32.5086 41.3925 32.0755 41.3664 31.8447C41.3403 31.614 41.2906 31.1364 41.2559 30.7835C41.2213 30.4306 41.1497 29.7364 41.0969 29.241C41.044 28.7455 40.9776 28.0958 40.9492 27.7972C40.9208 27.4986 40.8652 26.971 40.8256 26.6249C40.786 26.2788 40.7308 25.7457 40.7029 25.4403C40.675 25.1349 40.6201 24.6129 40.5808 24.2803C40.5415 23.9478 40.4923 23.4813 40.4715 23.2438C40.4506 23.0062 40.4228 22.7452 40.4098 22.6638C40.3967 22.5823 40.3793 22.3769 40.3713 22.2072C40.3632 22.0375 40.3486 21.7654 40.3389 21.6026C40.3172 21.2393 40.3295 20.646 40.3611 20.529C40.374 20.4815 40.3846 20.3629 40.3846 20.2654C40.3849 19.9495 40.5081 19.0723 40.6337 18.4929C40.8968 17.2786 41.3218 16.1505 41.9028 15.1241C42.1743 14.6443 42.81 13.6867 43.0496 13.3965C43.156 13.2675 43.3476 13.0343 43.4752 12.8782C43.662 12.6498 44.3479 11.8675 44.4057 11.817C44.4287 11.7968 45.0704 11.0831 45.2032 10.9299C45.2707 10.8521 45.5459 10.5451 45.8149 10.2476C46.0838 9.95021 46.3479 9.65686 46.4018 9.59578C46.4556 9.5347 46.6116 9.36256 46.7484 9.21324C47.1976 8.7228 47.4571 8.43299 47.596 8.26657C47.8028 8.01888 48.2474 7.60194 48.4357 7.47904ZM58.9436 39.1129C58.9534 38.984 58.9704 38.8638 58.9814 38.846C58.9924 38.8281 59.0196 38.8203 59.0418 38.8288C59.0786 38.8428 59.3381 39.0125 59.8302 39.3446C60.1148 39.5366 60.7501 40.0142 60.9949 40.2202C61.9419 41.0166 62.7599 41.962 63.3044 42.889C63.6145 43.4171 63.7553 43.7208 63.9793 44.3451C64.1583 44.8438 64.1734 44.8937 64.2676 45.2957C64.4287 45.9831 64.4429 46.1085 64.5039 47.3807C64.5248 47.8157 64.4586 48.7191 64.3684 49.2317C64.3319 49.4391 64.1605 50.1616 64.0465 50.5891C63.9554 50.9302 63.5706 52.0296 63.4288 52.3537C63.2577 52.7446 63.1078 52.9212 62.8463 53.0399C62.5391 53.1792 62.1555 53.0092 61.7902 52.5717C61.6901 52.4518 61.5088 52.2476 61.3874 52.1178C60.7758 51.4645 60.161 50.794 59.8272 50.4163C59.6773 50.2467 59.4811 50.0301 59.3912 49.9351C59.3014 49.8401 59.1571 49.679 59.0706 49.5772C58.9841 49.4754 58.7852 49.2588 58.6285 49.096C58.2897 48.7438 58.1772 48.6062 58.1248 48.4799C58.09 48.3961 58.0887 48.3061 58.1126 47.6428C58.1421 46.8246 58.154 46.6834 58.2014 46.5889C58.219 46.5538 58.2333 46.4871 58.2333 46.4408C58.2331 46.3365 58.2734 46.0651 58.3061 45.9493C58.3277 45.8728 58.3766 45.0327 58.365 44.9374C58.3516 44.8265 58.4154 44.2297 58.4442 44.197C58.4765 44.1604 58.5622 43.4465 58.5909 42.9753C58.6355 42.2431 58.6593 41.9746 58.6894 41.8647C58.7393 41.682 58.7956 41.1312 58.8368 40.421C58.8568 40.0748 58.8851 39.6917 58.8995 39.5695C58.9139 39.4473 58.9337 39.2419 58.9436 39.1129ZM39.1591 40.1092C39.5094 39.8163 40.3469 39.2177 40.7146 38.9975C40.8352 38.9253 40.9534 38.8661 40.977 38.8661C41.0245 38.8661 41.071 38.9958 41.0712 39.1287C41.0713 39.1713 41.0872 39.2935 41.1065 39.4002C41.1499 39.6402 41.1629 39.7977 41.1949 40.4754C41.2211 41.0304 41.2944 41.7439 41.3366 41.8537C41.3499 41.8884 41.3732 42.1272 41.3885 42.3844C41.4568 43.5347 41.512 44.0762 41.5732 44.1953C41.6108 44.2684 41.6236 44.4163 41.6611 45.2089C41.6755 45.5143 41.7029 45.8475 41.7219 45.9493C41.7409 46.0511 41.7635 46.2066 41.7723 46.2948C41.781 46.383 41.8132 46.5552 41.8438 46.6773C41.8935 46.8757 41.9013 46.9853 41.9171 47.7034L41.9347 48.5073L41.8037 48.6659C41.7316 48.7531 41.5512 48.9517 41.4027 49.1071C41.2542 49.2626 41.1051 49.4222 41.0714 49.4619C41.0377 49.5016 40.872 49.6799 40.7033 49.858C40.5345 50.0361 40.3421 50.2485 40.2756 50.33C40.2092 50.4114 40.0702 50.5669 39.9669 50.6755C39.8635 50.7841 39.7034 50.9618 39.6113 51.0704C39.4263 51.2883 39.0342 51.7149 38.5813 52.1911C38.4188 52.362 38.234 52.5645 38.1708 52.6412C38.05 52.7876 37.7776 53.0029 37.6478 53.0546C37.4663 53.1269 37.189 53.0698 36.9641 52.9139C36.8317 52.8221 36.6662 52.5391 36.5406 52.19C36.4851 52.0357 36.3664 51.7207 36.2768 51.4899C36.1048 51.0469 35.8912 50.3313 35.8017 49.8981C35.7722 49.7555 35.7325 49.5778 35.7134 49.5032C35.6943 49.4285 35.6623 49.273 35.6423 49.1577C35.6078 48.9588 35.5944 48.8298 35.5272 48.0517C35.4993 47.7281 35.5043 47.4413 35.5515 46.6526C35.5767 46.2315 35.601 46.0439 35.6765 45.6901C35.9802 44.2655 36.4028 43.2913 37.2018 42.1732C37.5052 41.7486 37.6509 41.5646 37.8466 41.3588C37.9692 41.2299 38.1188 41.0683 38.1789 40.9998C38.2924 40.8705 38.7964 40.4125 39.1591 40.1092ZM42.4277 41.6892C42.4135 41.3591 42.4153 41.3385 42.4593 41.3272C42.4849 41.3206 44.0569 41.3139 45.9526 41.3123C48.8937 41.3099 49.4062 41.3146 49.4468 41.3445C49.4935 41.3788 49.4946 41.445 49.5009 44.6505C49.5071 47.7548 49.5052 47.9227 49.4641 47.944C49.4393 47.9569 48.0964 47.9738 46.317 47.9836C43.7718 47.9976 43.2084 47.9949 43.1866 47.9683C43.1508 47.9247 43.0908 47.6808 43.0603 47.4547C43.0465 47.3529 43.0171 47.2197 42.9949 47.1586C42.9679 47.084 42.9473 46.9055 42.9325 46.6156C42.8694 45.385 42.8277 44.9445 42.76 44.7972C42.7043 44.6761 42.6675 44.3207 42.6657 43.8885C42.6639 43.4482 42.6272 43.0811 42.5299 42.532C42.4719 42.2042 42.4377 41.9221 42.4277 41.6892ZM50.5073 44.5961C50.5 41.4667 50.5011 41.3786 50.5461 41.3454C50.585 41.3168 51.1496 41.3111 54.0556 41.31C55.9604 41.3092 57.5368 41.3155 57.5588 41.324C57.5929 41.3372 57.5985 41.3848 57.5969 41.6514C57.5951 41.9715 57.5842 42.074 57.518 42.3954C57.4362 42.7921 57.3893 43.2806 57.3325 44.3292C57.3128 44.6924 57.3033 44.7541 57.2582 44.8156C57.2238 44.8624 57.2064 44.9228 57.2064 44.9957C57.2064 45.0561 57.1903 45.2537 57.1707 45.4348C57.151 45.616 57.1234 46.0196 57.1093 46.3318C57.0895 46.7695 57.0716 46.9447 57.0315 47.0969C57.0028 47.2055 56.9761 47.3554 56.972 47.4301C56.9639 47.5806 56.8813 47.9399 56.8468 47.9747C56.8346 47.9869 56.7864 47.9988 56.7397 48.0012C56.5557 48.0104 50.7157 47.9699 50.6435 47.9589C50.588 47.9504 50.5594 47.9284 50.5407 47.8799C50.5232 47.8343 50.5124 46.7752 50.5073 44.5961ZM52.1148 49.5402C52.0294 49.334 52.0019 49.2335 52.0188 49.1893C52.0307 49.1582 52.063 49.1541 52.1984 49.1666C52.2891 49.1749 52.849 49.1835 53.4424 49.1857C54.0358 49.1879 54.5406 49.1996 54.5643 49.2116C54.612 49.2359 54.6372 49.29 54.7919 49.7006C54.8507 49.8567 54.9882 50.2121 55.0976 50.4904C55.207 50.7686 55.3243 51.0852 55.3582 51.1937C55.3922 51.3023 55.4568 51.5078 55.5018 51.6503C55.6308 52.0586 55.7765 52.5636 55.9894 53.3409C56.0377 53.5174 56.0948 53.7672 56.1163 53.8962C56.1378 54.0252 56.1767 54.2225 56.2027 54.3349C56.2582 54.575 56.3894 55.2876 56.5058 55.9816C56.5786 56.4152 56.63 56.9014 56.6795 57.6229C56.6874 57.7382 56.7041 57.866 56.7165 57.9067C56.729 57.9474 56.7434 58.1144 56.7485 58.2778C56.7536 58.4412 56.7705 58.5989 56.786 58.6282C56.8184 58.6891 56.8184 58.964 56.786 59.0506C56.7741 59.0825 56.7589 59.2547 56.7522 59.4331C56.7455 59.6116 56.7293 59.8132 56.7161 59.8811L56.6162 60.3993C56.4325 61.3553 56.0383 62.7117 55.6302 63.7928C55.285 64.7071 54.581 66.3886 54.3461 66.8598C54.3002 66.9516 54.2421 67.0794 54.2168 67.1436C54.1915 67.2078 54.0913 67.427 53.9942 67.6306C53.8971 67.8342 53.7071 68.234 53.5719 68.519C53.4368 68.8041 53.252 69.1817 53.1613 69.3582C53.0705 69.5346 52.8056 70.051 52.5727 70.5058C52.1522 71.3267 51.6276 72.3218 51.5905 72.3691C51.5798 72.3827 51.5276 72.4771 51.4743 72.5789C51.421 72.6807 51.3042 72.8852 51.2148 73.0333C51.1253 73.1814 51.0296 73.363 51.0022 73.4368C50.9285 73.635 50.6433 74.0955 50.5309 74.1977C50.4771 74.2466 50.3931 74.3034 50.3441 74.324C50.2183 74.3769 49.8188 74.3766 49.6955 74.3234C49.4953 74.2371 49.1571 73.801 49.0514 73.4927C49.0039 73.3541 48.974 73.2973 48.7561 72.9325C48.5823 72.6416 48.1497 71.8408 47.5584 70.7155C46.9422 69.543 45.8493 67.2812 45.4415 66.3349C44.8216 64.8962 44.6989 64.5952 44.3752 63.7188C43.7669 62.0718 43.3435 60.4295 43.2491 59.3505C43.2101 58.9047 43.2122 58.7193 43.2619 58.2522C43.2835 58.0486 43.3346 57.5377 43.3753 57.1169C43.4591 56.2519 43.4621 56.2303 43.6125 55.4017C43.92 53.7078 44.088 53.0189 44.5697 51.4776C44.6723 51.1492 44.9151 50.4912 45.1252 49.9721C45.172 49.8567 45.2567 49.6457 45.3135 49.5032C45.3703 49.3606 45.428 49.2302 45.4418 49.2132C45.4611 49.1892 45.7509 49.1823 46.7396 49.1823C47.8216 49.1823 48.0145 49.1876 48.0259 49.2177C48.0333 49.2371 47.993 49.3565 47.9363 49.483C47.8796 49.6095 47.8246 49.7518 47.814 49.7993C47.8033 49.8468 47.7598 50.0054 47.7172 50.1516C47.5512 50.7214 47.267 52.0356 47.1876 52.6005C47.1257 53.0408 47.0054 54.4402 46.9919 54.8773C46.9846 55.1136 46.9899 55.3883 47.0038 55.4943C47.0176 55.5995 47.0404 55.8743 47.0544 56.105C47.103 56.9049 47.1739 57.3048 47.4219 58.1782C47.4874 58.4089 47.5485 58.6477 47.5577 58.7088C47.5799 58.8575 47.6801 59.0849 48.0878 59.912C48.2769 60.2956 48.4802 60.6745 48.5397 60.7541C48.6527 60.9053 49.0128 61.2325 49.1468 61.3057C49.1896 61.3291 49.3295 61.3841 49.4577 61.4281C49.6719 61.5015 49.7153 61.5078 49.9971 61.5074C50.2732 61.5069 50.3292 61.4989 50.5611 61.4265C50.8888 61.3242 50.9664 61.2776 51.2396 61.0188C51.519 60.754 51.6054 60.6157 52.0077 59.7885C52.329 59.1281 52.4374 58.8499 52.5102 58.499C52.5328 58.3904 52.5835 58.1874 52.6229 58.0479C52.8262 57.3286 52.8882 56.9399 53.0156 55.5868C53.0825 54.8763 53.047 54.1783 52.8856 53.0324C52.8713 52.9306 52.8516 52.7751 52.8418 52.6869C52.832 52.5987 52.8055 52.4321 52.7828 52.3167L52.654 51.6627C52.6059 51.4183 52.5572 51.1685 52.5458 51.1074C52.4629 50.6623 52.2325 49.8245 52.1148 49.5402ZM48.9576 49.6043C49.0575 49.329 49.0899 49.2658 49.1511 49.2266C49.2448 49.1668 49.4271 49.1789 49.4675 49.2476C49.4864 49.2798 49.4981 50.1013 49.5067 52.0124L49.519 54.7314L49.578 54.7946C49.6105 54.8294 49.6602 54.8652 49.6884 54.8741C49.7166 54.883 49.7781 54.9166 49.825 54.9486C49.9402 55.0271 50.0722 55.0247 50.2157 54.9417C50.3683 54.8533 50.4112 54.8127 50.4656 54.7055C50.5103 54.6173 50.5121 54.5159 50.5127 52.0153C50.513 50.5571 50.523 49.3746 50.5354 49.3206C50.5476 49.2678 50.5722 49.2152 50.59 49.2038C50.6404 49.1716 50.7772 49.1787 50.8513 49.2173C50.9339 49.2602 50.9457 49.2835 51.1028 49.713C51.335 50.3477 51.42 50.624 51.4674 50.8981C51.4932 51.0477 51.5265 51.202 51.5412 51.241C51.5775 51.3373 51.7941 52.4315 51.8395 52.7486C51.8929 53.1214 51.9578 53.8058 51.9589 54.0073C51.9595 54.1294 51.9721 54.2794 51.9869 54.3404C52.0174 54.4665 52.0333 55.4121 52.0062 55.4891C51.9964 55.5169 51.9822 55.6964 51.9745 55.8881C51.9439 56.6536 51.8139 57.3666 51.5528 58.2007C51.5064 58.3489 51.4684 58.4875 51.4684 58.5088C51.4684 58.5626 50.7152 60.1602 50.6469 60.2513C50.4961 60.4524 50.1339 60.5641 49.8377 60.501C49.6892 60.4693 49.5225 60.381 49.4071 60.2728C49.3467 60.2161 49.1763 59.878 48.8802 59.2271C48.803 59.0574 48.7036 58.8408 48.6592 58.7457C48.5795 58.5752 48.5453 58.4649 48.4063 57.9314C48.2026 57.1491 48.1268 56.7756 48.0857 56.3518C48.0712 56.2025 48.0471 55.9582 48.0321 55.8089C47.9778 55.268 47.9787 54.5915 48.0343 54.069C48.0625 53.8043 48.0969 53.4544 48.1107 53.2915C48.1246 53.1287 48.1857 52.7344 48.2467 52.4154C48.569 50.7281 48.6131 50.5539 48.9576 49.6043Z" fill="#0BFF7B"/>
</svg>
