<svg width="242" height="205" viewBox="0 0 242 205" fill="none" xmlns="http://www.w3.org/2000/svg">
<path d="M133.968 9.19302C134.248 7.46164 134.729 4.81998 135.025 3.40792C135.336 1.95646 135.707 0.706132 135.842 0.643926C135.977 0.581721 136.11 0.585867 136.147 0.666733C136.184 0.7476 135.786 4.13571 135.274 8.19772C134.722 12.2452 134.134 16.6369 133.959 17.9598C133.773 19.2558 133.526 20.3506 133.418 20.4003C133.283 20.4625 133.306 20.5828 133.462 20.7072C133.617 20.8316 133.586 20.9768 133.451 21.039C133.317 21.1012 133.082 20.9477 132.97 20.7051C132.846 20.4356 132.908 18.445 133.095 16.2989C133.308 14.1404 133.7 10.9514 133.968 9.19302Z" fill="#04FFE1"/>
<path d="M161.558 17.2547C163.09 15.8282 165.019 14.0553 165.865 13.3379C166.698 12.5935 167.571 11.8636 167.841 11.7392C168.071 11.6003 168.324 11.5816 168.373 11.6894C168.436 11.8242 167.474 12.8568 166.281 14.0283C165.062 15.2123 162.047 18.1733 159.58 20.62C157.112 23.0668 154.108 26.1211 152.899 27.3984C151.69 28.6757 150.595 29.7041 150.45 29.673C150.29 29.6813 150.135 29.5569 150.06 29.3952C149.986 29.2334 150.57 28.375 151.383 27.444C152.181 26.5524 154.16 24.4623 155.779 22.7993C157.384 21.1758 159.986 18.6668 161.558 17.2547Z" fill="#04FFE1"/>
<path d="M171.801 46.9577C165.67 47.6296 160.569 48.0546 160.401 47.9033L160.413 47.9302C160.272 47.7664 160.306 47.5549 160.521 47.4554C160.737 47.3559 162.207 47.0697 163.756 46.8126C165.278 46.5679 168.519 46.1511 170.93 45.921C173.329 45.6638 177.018 45.3673 179.121 45.247C181.211 45.0998 183.164 45.0812 183.427 45.1558C183.703 45.2574 183.89 45.2367 183.813 45.1413C183.751 45.0065 184.006 44.9215 184.377 44.9464C184.748 44.9713 185.09 45.0749 185.165 45.2367C185.239 45.3984 185.09 45.5 184.879 45.4668C184.64 45.4461 184.335 45.4233 184.215 45.4461C184.056 45.4544 183.935 45.4772 183.896 45.4627C183.842 45.4876 183.601 45.5332 183.361 45.5788C183.133 45.6514 177.92 46.2589 171.801 46.9577Z" fill="#04FFE1"/>
<path d="M73.0774 117.994C71.9224 118.397 71.3232 118.444 71.1842 118.214C71.008 117.903 72.1422 117.314 77.695 114.751C81.981 112.773 84.4298 111.774 84.5044 111.936C84.5791 112.097 84.8984 112.081 85.2613 111.946C85.8398 111.712 85.8398 111.712 85.2924 112.226C84.9648 112.508 82.4807 113.785 79.7437 115.081C77.0067 116.377 74.0042 117.665 73.0774 117.994Z" fill="#04FFE1"/>
<path d="M86.5261 111.853C86.3001 111.859 86.1197 111.681 86.1259 111.481C86.1716 111.297 86.4722 111.027 86.8475 110.92C87.2498 110.799 87.6085 110.797 87.7101 110.946C87.8117 111.096 87.6583 111.33 87.3866 111.521C87.142 111.699 86.7252 111.859 86.5261 111.853Z" fill="#04FFE1"/>
<path d="M98.0362 132.044C99.3488 130 100.952 127.593 101.617 126.697C102.283 125.801 102.905 125.023 103.04 124.961C103.147 124.912 103.332 124.957 103.487 125.082C103.643 125.206 103.019 126.475 102.136 127.962L102.105 128.011C101.182 129.484 99.7914 131.702 98.9507 132.963C98.113 134.265 96.0125 137.295 94.3288 139.739C92.6058 142.169 91.0942 144.208 90.9324 144.282C90.7977 144.345 90.667 144.274 90.6732 144.075C90.6795 143.876 91.8157 141.945 93.1863 139.743C94.5424 137.581 96.7362 134.116 98.0362 132.044Z" fill="#04FFE1"/>
<path d="M124.357 143.733C123.928 139.615 123.522 135.192 123.468 133.942C123.428 132.652 123.503 131.538 123.638 131.476C123.773 131.414 123.968 131.553 124.067 131.769C124.167 131.984 124.388 132.961 124.544 133.935C124.687 134.883 125.093 139.306 125.434 143.726C125.774 148.147 126.022 152.087 125.998 152.458C125.973 152.829 126.014 153.202 126.103 153.325C126.18 153.42 126.056 153.576 125.84 153.675C125.49 153.837 125.427 153.702 125.291 152.556C125.181 151.821 124.76 147.863 124.357 143.733Z" fill="#04FFE1"/>
<path d="M118.866 22.3102C118.402 22.2956 118.008 22.1505 118.014 21.9514C118.047 21.7399 118.267 21.5077 118.509 21.3957C118.765 21.3107 119.426 21.3978 119.963 21.6404C120.527 21.8706 121.412 22.4428 121.929 22.9239C122.679 23.5584 123.25 24.4396 124.22 26.5422C124.917 28.0517 125.736 30.3222 126.055 31.5808C126.335 32.8249 126.555 34.2929 126.484 34.8486C126.441 35.3919 126.202 36.2213 125.949 36.665C125.638 37.2664 125.093 37.7142 124.029 38.1725C123.221 38.5457 121.41 39.0869 120.007 39.3751C118.59 39.6364 116.726 40.2025 115.837 40.613C114.705 41.1356 114.052 41.6332 113.606 42.2967C113.257 42.8172 112.853 43.8539 112.698 44.5797C112.467 45.5687 112.563 46.3422 112.98 47.4577C113.459 48.708 113.84 49.2513 114.954 50.1761C115.717 50.8375 116.853 51.4575 117.527 51.5715C118.186 51.725 119.237 51.6648 119.855 51.445C120.473 51.2252 122.001 50.3564 123.223 49.5312C124.458 48.6665 125.868 47.7542 126.368 47.4908L128.12 46.6822C128.672 46.4603 129.387 46.5225 130.161 46.8522C130.843 47.1259 131.869 47.862 132.475 48.4654C133.066 49.1081 134.136 50.5762 134.855 51.7809C135.624 53.0934 136.396 54.7647 136.783 55.959C137.134 57.0725 137.368 58.5011 137.335 59.1377C137.302 59.7743 137.005 60.7613 136.655 61.3481C136.278 61.9473 135.608 62.5507 135.069 62.7995C134.557 63.0359 132.709 63.4962 130.971 63.8404C129.101 64.1805 126.97 64.8046 125.744 65.3375C124.37 65.9499 123.503 66.5028 123.142 66.9963C122.837 67.3986 122.657 68.0704 122.777 68.4727C122.87 68.8874 122.959 69.4348 122.978 69.6878C123.005 70.1004 122.978 70.1128 122.709 69.8122C122.412 69.524 122.385 69.5364 122.304 69.9988C122.24 70.3554 122.126 70.1792 121.885 69.3747C121.719 68.7319 121.666 67.9066 121.798 67.4857C121.916 67.1042 122.35 66.4137 122.748 66.0011C123.107 65.5739 124.191 64.8772 125.134 64.4418C126.051 64.0188 127.942 63.4403 129.358 63.179C130.762 62.8908 132.514 62.5072 133.317 62.333C134.374 62.0738 134.874 61.8105 135.452 61.1511C135.957 60.5912 136.223 59.869 136.251 58.9843C136.273 58.2544 136.025 56.8651 135.682 55.9113C135.355 54.9181 134.453 53.1764 133.706 51.9841C132.933 50.8043 131.73 49.3321 131.005 48.7515C130.19 48.0486 129.366 47.6111 128.821 47.6339C128.118 47.5986 127.403 47.9615 124.921 49.5975C123.227 50.6737 121.305 51.8224 120.604 52.1459C119.876 52.4818 118.924 52.7576 118.445 52.7825C117.952 52.8467 117.066 52.6995 116.475 52.4818C115.858 52.2765 114.931 51.7561 114.385 51.3538C113.855 50.9122 113.083 50.0911 112.716 49.5084C112.31 48.9112 111.854 47.7812 111.694 46.9393C111.52 46.1369 111.482 44.7808 111.655 43.9493C111.787 43.1033 112.301 41.9505 112.758 41.3802C113.27 40.7188 114.126 40.0947 115.07 39.6592C115.878 39.286 117.929 38.6992 119.64 38.3674C121.323 38.0481 123.104 37.5857 123.59 37.3617C124.048 37.1502 124.645 36.7438 124.867 36.4452C125.089 36.1467 125.3 35.3297 125.323 34.5998C125.346 33.87 125.031 32.0536 124.651 30.5938C124.199 28.906 123.536 27.185 122.92 26.0632C122.366 25.0762 121.423 23.8114 120.815 23.2743C120.168 22.7228 119.358 22.3122 118.866 22.3102Z" fill="#003FFF"/>
<path d="M76.9149 40.6588C76.8133 40.9346 76.8714 42.0522 77.0228 43.1594C77.1742 44.2667 77.7216 46.3029 78.2234 47.6735C78.7853 49.2452 79.5483 50.7568 80.1974 51.667C80.7696 52.4819 81.4394 53.1537 81.6778 53.1745C81.9163 53.1952 82.02 53.2781 81.8852 53.3403C81.7774 53.3901 82.0366 53.5975 82.4285 53.809C82.8349 53.9811 83.4901 54.2672 83.8695 54.4517C84.4087 54.628 84.7695 54.5596 85.3666 54.1531C85.8021 53.8214 86.3121 53.6514 86.4697 53.7094C86.6128 53.8069 87.3116 53.5498 88.0145 53.1599L89.271 52.4819L90.2766 51.331C90.4156 51.1361 90.7805 50.935 91.0604 50.9039C91.3673 50.8604 91.612 50.682 91.6182 50.483C91.6514 50.2715 92.4103 49.7904 93.3268 49.3674C94.9586 48.5816 95.025 48.5836 96.69 49.2865C97.648 49.6618 98.7283 50.3731 99.1388 50.8375C99.5349 51.3414 100.08 52.1687 100.317 52.6809C100.553 53.193 100.841 54.1717 100.926 54.8518C101.038 55.5195 100.908 56.7242 100.642 57.5661C100.2 58.947 100.022 59.1274 98.4961 59.9299C97.1047 60.6701 96.8103 60.7406 96.5428 60.3736L95.9415 60.9128C93.443 61.8044 92.6136 61.991 92.4705 61.8935C92.3274 61.7961 91.7945 61.8458 91.2844 62.0159C90.6396 62.2481 90.1502 62.1797 89.6692 61.8459L88.394 62.2709C89.806 63.4176 91.5623 65.0266 92.3337 65.8477C93.105 66.6688 94.0754 67.9212 94.4922 68.6117C95.0354 69.5054 95.2656 70.2166 95.2283 70.9859C95.1972 71.5561 95.0044 72.2009 94.7597 72.3793C94.542 72.5451 93.9033 73.0034 93.3601 73.3849C92.709 73.8162 91.8236 74.0941 90.7972 74.2081C89.8167 74.2197 90.1412 75.3299 90.4261 75.8835C90.5256 76.0992 91.0232 76.7523 91.5499 77.3267C92.1035 77.8886 93.0781 78.5832 93.7603 78.8569C94.7701 79.2737 95.0894 79.2571 95.7944 78.8009C96.2277 78.5355 96.7648 78.353 96.9887 78.4132C97.2251 78.5003 98.4422 77.8077 100.234 76.5885C101.795 75.5082 103.92 74.233 104.972 73.7478C106.023 73.2625 107.23 72.9017 107.694 72.9163C108.159 72.9308 108.853 73.2314 109.268 73.5632C109.888 74.1272 110.06 74.5709 110.643 77.1794C110.977 78.8237 111.603 80.8889 112.013 81.7784C112.523 82.8836 113.083 83.6715 113.797 84.2252C114.367 84.6813 115.557 85.2764 116.438 85.5564C117.386 85.8384 118.644 85.9441 119.619 85.7886C120.473 85.6559 121.746 85.2971 122.42 84.9861C123.094 84.6751 124.179 83.9784 124.807 83.4268C125.45 82.8359 126.296 81.6934 126.681 80.8287C127.094 79.9516 127.413 78.6598 127.409 77.9424C127.393 77.198 127.098 75.9933 126.712 75.1577C126.339 74.349 125.504 73.0344 124.85 72.2568C124.224 71.4668 123.571 70.6893 123.443 70.5524C123.223 70.3596 123.076 70.3948 122.866 70.7204C122.628 71.1247 122.727 71.3404 123.712 72.5534C124.313 73.2895 125.122 74.6165 125.547 75.4666C125.933 76.3022 126.271 77.3888 126.308 77.8947C126.36 78.3612 126.213 79.2466 126.007 79.8645C125.802 80.4824 125.255 81.4217 124.786 81.965C124.235 82.612 123.324 83.261 122.192 83.7835C121.222 84.2314 119.92 84.6689 119.318 84.7829C118.678 84.8825 117.525 84.7933 116.762 84.5569C115.959 84.306 114.9 83.7814 114.408 83.3543C113.877 82.9126 113.177 81.9609 112.816 81.1792C112.455 80.3975 112.013 78.8029 111.825 77.6148C111.636 76.4267 111.257 74.967 110.97 74.347C110.672 73.7 110.073 72.8976 109.658 72.5658C109.204 72.2196 108.283 71.9251 107.487 71.9002C106.226 71.8609 105.77 72.006 103.568 73.1858C102.204 73.9136 99.9269 75.3568 98.5003 76.3749C97.0862 77.42 95.84 78.1913 95.7094 78.1208C95.5787 78.0503 95.1703 77.9446 94.7991 77.9197C94.4404 77.9218 93.6172 77.4843 92.9557 76.9721C92.2425 76.4185 91.7303 75.8047 91.6494 75.417C91.5457 74.909 91.6847 74.714 92.0849 74.6601C92.3648 74.629 93.1403 74.4673 93.7582 74.2475C94.5088 74.0319 95.1329 73.613 95.5891 73.0428C95.9354 72.5887 96.2547 71.722 96.2858 71.1517C96.3127 70.2892 96.095 69.6049 95.2386 68.1037C94.6477 67.0358 93.5653 65.5408 92.8582 64.7882C92.1242 64.0479 91.5333 63.4051 91.5208 63.3782C91.4959 63.3243 92.0351 63.0754 92.7338 62.8183C93.4202 62.5343 93.9966 62.3663 94.0339 62.4472C94.0712 62.528 94.8716 62.4202 95.8068 62.2502C96.7564 62.0407 98.127 61.539 98.8299 61.1491C99.5868 60.7344 100.53 59.8739 101.086 59.0943C101.837 58.0285 102.015 57.423 102.036 55.9094C102.042 54.4351 101.882 53.5932 101.26 52.2455C100.638 50.8977 100.14 50.2445 99.0393 49.3467C98.2887 48.7122 97.3515 48.0985 96.9824 48.0072C96.6133 47.916 95.9892 47.9098 95.5869 48.03C95.1971 48.1773 93.9489 48.5899 92.8209 48.9797C91.7323 49.3841 90.708 49.8568 90.5421 50.0642C90.3907 50.2321 89.4929 50.9081 88.5038 51.5281C87.5272 52.175 86.4822 52.8862 86.1546 53.1682C85.7316 53.5269 85.1842 53.6161 84.2842 53.5083C83.5564 53.4191 82.8867 53.1724 82.812 53.0107C82.725 52.822 82.5694 52.6976 82.4616 52.7473C82.3268 52.8095 81.9806 52.4135 81.6509 51.9117C81.3357 51.3705 80.5353 49.7781 79.8884 48.3764C79.2311 46.8814 78.6132 44.9758 78.383 43.8395C78.2047 42.7447 78.1134 41.4135 78.1715 40.8309C78.242 40.2752 78.6007 39.423 78.9739 38.9564C79.6644 38.1146 79.8386 38.0669 83.7534 37.3391C86.0923 36.8808 88.5701 36.2276 89.5675 35.7673C90.5503 35.3464 91.5664 34.714 91.8566 34.3511C92.1469 33.9882 92.5264 33.3226 92.7275 32.8374C92.9141 32.3916 92.9784 31.6099 92.8478 31.1144C92.7565 30.6333 92.1158 29.4576 91.4419 28.4934C90.7805 27.5562 89.8515 25.8269 89.3684 24.7093C88.8355 23.4839 88.5017 22.2646 88.5203 21.6675C88.5369 21.1366 88.6966 20.2782 88.8583 19.7785C88.9931 19.2912 89.6732 18.3561 90.3305 17.7257C90.9899 17.029 92.1572 16.2286 93.1007 15.7932C93.9902 15.3826 95.197 15.0218 95.7693 14.9866C96.3271 14.9907 97.5007 15.2665 98.3404 15.5983C99.1781 15.9964 100.231 16.72 100.692 17.2923C101.14 17.8376 101.681 18.7977 101.874 19.428C102.067 20.0584 102.423 21.8229 102.628 23.3304C102.942 25.2131 103.24 26.2851 103.636 26.789C103.956 27.1975 104.617 27.7096 105.166 27.9792C105.834 28.2923 106.591 28.3026 107.675 28.031C108.826 27.7614 110 27.1871 112.519 25.6319C114.321 24.506 115.88 23.4921 115.978 23.349C116.061 23.2453 115.988 23.0172 115.833 22.8928C115.6 22.673 115.076 22.8825 113.313 24.0229C112.107 24.8088 110.321 25.8289 109.324 26.2893C108.3 26.762 107.145 27.1643 106.693 27.1767C106.241 27.1892 105.529 26.9943 105.1 26.7019C104.331 26.2395 104.269 26.1047 103.692 22.8721C103.24 20.3341 102.867 19.1004 102.164 17.79C101.449 16.4525 100.922 15.8782 99.8292 15.14C99.062 14.6113 97.6977 14.0639 96.8786 13.9187C95.3732 13.6326 95.1991 13.6803 92.5844 14.8871C90.1314 16.0192 89.7105 16.3116 88.823 17.5059C88.2694 18.2192 87.666 19.2498 87.5043 19.7495C87.3301 20.2222 87.2327 21.2154 87.2368 21.9329C87.2783 22.7312 87.6391 23.938 88.1741 25.0971C88.6862 26.1359 89.4285 27.4608 89.9013 28.0601C90.3741 28.6593 91.0065 29.6754 91.3175 30.3492C91.6659 31.104 91.7882 31.865 91.6534 32.3522C91.5601 32.7877 91.2615 33.416 91.0127 33.727C90.7369 34.0505 90.0713 34.5211 89.5322 34.77C88.9662 35.0312 86.7434 35.5994 84.618 36.0245C82.4927 36.4495 80.0812 37.1048 79.287 37.4386C78.5053 37.7994 77.7589 38.3074 77.6718 38.5438C77.2442 39.1614 76.9655 40.0469 76.9149 40.6588Z" fill="#003FFF"/>
<path d="M145.83 69.1133C145.121 69.7022 143.922 71.0728 143.145 72.151C142.355 73.2023 141.395 75.0187 140.974 76.1612C140.395 77.6707 140.259 78.6494 140.41 79.7567C140.584 80.9842 140.794 81.5088 141.484 82.3672C142.15 83.1718 142.906 83.6072 144.615 84.1919C145.824 84.6149 147.599 85.2017 148.546 85.4837C149.691 85.8383 150.527 86.3027 151.051 86.9434C151.603 87.5717 151.939 88.2995 152.163 89.2098C152.324 89.9853 152.273 91.219 152.044 92.1417C151.773 93.1826 151.267 94.0701 150.568 94.7523C149.965 95.3578 148.824 96.1457 148.016 96.5189C146.964 97.0041 146.176 97.1389 145.316 97.0456C144.628 96.971 143.553 96.4858 142.801 95.9176C142.073 95.4034 140.848 94.236 140.066 93.3216C139.257 92.4196 138.16 91.3891 137.573 91.0387C136.987 90.6882 135.987 90.3648 135.351 90.3316C134.515 90.2922 133.885 90.4851 133.045 91.0034C132.408 91.3953 131.148 92.6311 130.235 93.7716C129.323 94.912 128.124 96.7077 127.6 97.7672C127.048 98.8392 126.48 100.442 126.385 101.369C126.25 102.281 126.254 103.424 126.372 103.892C126.464 104.373 126.837 105.182 127.181 105.644C127.498 106.119 128.429 106.932 129.25 107.436C130.072 107.94 132.305 108.74 134.229 109.225C136.126 109.723 138.071 110.395 138.567 110.689C139.035 110.996 139.564 111.504 139.701 111.801C139.838 112.097 139.848 112.616 139.703 113.01C139.545 113.377 138.563 114.223 137.41 114.984C136.311 115.72 134.909 116.792 134.279 117.41C133.565 118.131 132.962 119.162 132.595 120.279C132.216 121.37 132.099 122.535 132.247 123.35C132.371 124.045 132.802 125.121 133.221 125.745C133.64 126.369 134.526 127.367 135.212 127.933C135.911 128.526 137.345 129.367 138.434 129.813C139.666 130.357 141.157 130.682 142.378 130.707C143.771 130.751 144.76 130.556 145.704 130.12C146.674 129.672 147.329 129.108 148.039 128.094C148.607 127.342 149.295 125.716 149.625 124.518C149.981 123.307 150.458 121.648 150.709 120.845C151.074 119.794 151.435 119.301 152.028 119.027C152.474 118.788 153.139 118.743 153.506 118.9C153.873 119.058 154.68 119.601 155.288 120.138C155.895 120.675 156.538 121.36 156.7 121.71L157.695 123.016C157.79 122.94 158.304 123.487 158.8 124.206C159.256 124.911 160.129 125.882 160.66 126.323C161.282 126.821 162.201 127.182 163.022 127.261C163.976 127.344 164.83 127.211 165.746 126.788C166.501 126.44 167.793 125.484 168.682 124.648C169.559 123.785 170.271 123.13 170.31 123.145L170.992 122.213C169.434 121.303 167.897 120.373 166.858 119.703C164.996 118.502 162.333 116.559 160.921 115.413C159.536 114.254 157.836 112.553 157.108 111.614C156.407 110.662 155.715 109.445 155.559 108.896C155.431 108.334 155.323 107.533 155.389 107.11C155.443 106.66 155.82 106.061 156.295 105.744C156.716 105.452 157.925 105.024 158.98 104.832C160.009 104.651 161.753 104.533 162.841 104.554C163.93 104.574 165.889 104.782 167.2 104.929C168.496 105.116 171.28 105.694 173.416 106.212C175.552 106.731 178.66 107.585 180.344 108.116C180.864 108.28 181.368 108.429 181.82 108.556L182.349 107.289C182.26 107.166 182.641 106.434 183.17 105.667C184.414 104.282 185.575 102.235 186 101.385C185.946 101.41 186.251 100.584 186.628 99.5599L186.629 99.5586C187.02 98.4948 187.373 96.9916 187.385 96.1684C187.425 95.3327 187.251 94.1052 187.02 93.394C186.79 92.6828 186.237 91.6958 185.801 91.1774C185.366 90.6591 184.267 89.6949 183.317 89.0542C182.367 88.4135 181.602 87.8184 181.565 87.7375C181.119 87.4579 179.94 86.8128 178.789 86.4685C178.158 86.2363 177.051 85.5375 176.273 84.9155C175.469 84.3059 174.698 83.4848 174.511 83.0804C174.312 82.6491 174.279 82.0105 174.424 81.6165C174.542 81.235 175.521 80.0966 176.601 79.1076C177.669 78.0915 178.946 76.75 179.471 76.1155C179.995 75.481 180.574 74.3965 180.769 73.6853C180.964 72.9741 181.115 71.956 181.159 71.4128C181.192 70.7762 180.881 69.6772 180.346 68.5181C179.724 67.1704 179.178 66.343 178.376 65.6671C177.768 65.13 176.555 64.4147 175.664 64.0414C174.799 63.6558 173.176 63.3261 172.087 63.3054C170.733 63.2763 169.704 63.4567 168.842 63.8549C168.114 64.1908 167.218 64.8004 166.847 65.2006C166.462 65.6402 165.862 66.538 165.562 67.2326C165.261 67.9272 164.819 69.7333 164.573 71.2532C164.326 72.773 163.932 74.3282 163.695 74.6662C163.362 75.1472 163.051 75.3235 162.439 75.3442C161.987 75.3566 161.147 75.0249 160.602 74.6226C160.017 74.2058 158.908 73.1484 158.072 72.2588C157.263 71.3569 156.055 70.0837 155.385 69.4119C154.688 68.7525 153.624 67.9356 153.011 67.5976C152.397 67.2596 151.29 66.9859 150.572 66.9901C149.855 66.9942 148.797 67.2534 148.204 67.5271C147.611 67.8008 146.539 68.5245 145.83 69.1133Z" fill="#003FFF"/>
<path d="M181.565 87.7374C181.528 87.6565 182.052 87.4471 182.749 87.2563C183.419 87.078 185.159 86.6674 186.643 86.3419C188.128 86.0163 190.492 85.612 191.945 85.4316C193.386 85.2242 195.621 85.1081 196.895 85.1745C198.182 85.2014 200.552 85.4482 202.205 85.6991C203.857 85.9499 206.441 86.5886 207.951 87.1671C209.487 87.7331 211.724 88.8259 212.908 89.62C214.119 90.4017 215.741 91.6479 216.502 92.3757C217.263 93.1035 218.115 93.8873 218.36 94.134C218.631 94.3683 218.847 94.6939 218.895 94.8681C218.942 95.0422 219.125 95.1542 219.324 95.1604C219.523 95.1666 220.435 96.1515 221.314 97.348C222.233 98.5589 223.78 100.919 224.79 102.611C226.189 105.005 226.936 106.623 228.086 109.754C228.893 111.997 230.017 115.141 230.604 116.766C231.164 118.404 232.155 121.544 232.816 123.756C233.478 125.969 234.678 130.483 235.491 133.802C236.277 137.134 237.815 144.435 238.902 150.048C240.206 156.771 240.986 160.302 241.262 160.403C241.459 160.476 241.658 160.482 241.674 160.376C241.691 160.271 241.16 156.853 240.451 152.767C239.769 148.667 238.74 142.897 238.156 139.929C237.598 136.95 236.729 132.871 236.248 130.837C235.767 128.803 235.02 125.911 234.616 124.397C234.185 122.896 233.241 119.931 232.536 117.836C231.858 115.73 230.741 112.812 230.135 111.359C229.53 109.905 228.864 108.676 228.694 108.591C228.536 108.532 227.933 107.438 227.348 106.171C226.764 104.904 225.658 102.863 224.902 101.578C224.118 100.305 222.301 97.6445 220.81 95.6187C218.671 92.6826 217.669 91.5753 215.83 90.07C214.094 88.6475 212.684 87.8596 210.18 86.8249C208.33 86.0764 205.607 85.2076 204.117 84.8821C202.638 84.5835 199.899 84.2455 198.056 84.1481C196.225 84.0776 193.247 84.1439 191.447 84.3534C189.648 84.5628 186.643 85.0667 184.771 85.4731C182.898 85.8795 181.024 86.3523 180.62 86.5389C180.161 86.7504 179.431 86.7276 178.789 86.4684L181.565 87.7374Z" fill="#15006A"/>
<path fill-rule="evenodd" clip-rule="evenodd" d="M156.7 121.71C156.899 122.141 156.739 122.574 156.144 123.34C155.688 123.91 154.91 125.413 154.446 126.674C153.855 128.156 153.631 129.371 153.739 130.172C153.878 131.252 154.029 131.509 154.896 132.254C155.439 132.722 156.461 133.166 157.135 133.28C157.809 133.394 158.912 133.375 159.592 133.29C160.326 133.18 162.572 132.308 165.268 131.063C167.72 129.931 170.178 128.666 170.775 128.26C171.426 127.829 171.87 127.657 171.944 127.818C172.006 127.953 171.415 129.011 170.65 130.116C169.858 131.233 168.786 133.232 168.307 134.532C167.598 136.396 167.48 137.203 167.704 138.113C167.93 138.957 168.233 139.471 168.855 139.969C169.412 140.398 170.215 140.649 171.264 140.655C172.672 140.66 173.182 140.49 176.97 138.708C180.097 137.265 181.963 136.208 184.367 134.543C186.146 133.297 187.722 132.177 187.885 132.036C188.022 131.907 188.246 131.967 188.346 132.183C188.445 132.399 188.116 133.172 187.601 133.9C187.06 134.64 185.791 136.566 184.756 138.221C183.734 139.903 182.49 142.308 181.984 143.621C181.362 145.248 181.126 146.436 181.244 147.33C181.373 148.317 181.545 148.761 181.91 148.985C182.183 149.153 182.934 149.362 183.583 149.422C184.603 149.507 185.314 149.277 189.086 147.602L193.436 145.692C196.302 150.059 197.973 152.263 198.972 153.436C199.972 154.61 201.892 156.503 203.25 157.675L203.621 157.995C204.856 159.06 206.05 160.089 206.367 160.389C206.922 160.884 207.111 161.648 207.652 166.008C207.99 168.795 208.347 171.41 208.465 171.878C208.599 172.405 208.783 172.614 209.017 172.507C209.205 172.419 209.077 170.157 208.708 167.09C208.347 164.183 208.129 161.799 208.21 161.762C208.291 161.724 209.558 162.415 211.044 163.298C212.531 164.181 214.596 165.255 215.646 165.687C216.655 166.103 217.578 166.332 217.663 166.162C217.721 166.004 216.628 165.266 215.204 164.517C213.779 163.769 211.575 162.464 210.327 161.602C209.052 160.752 206.91 159.157 205.535 158.091C204.187 157.013 202.236 155.265 201.193 154.21C200.177 153.142 198.69 151.409 197.9 150.335C197.11 149.26 195.779 147.226 194.96 145.806C194.079 144.251 193.059 142.04 192.437 140.268C191.85 138.642 191.027 136.079 190.622 134.565L189.845 131.818C187.977 130.817 185.463 129.622 183.081 128.498C180.699 127.375 176.827 125.434 174.488 124.192C172.176 122.937 168.72 120.903 166.858 119.703C164.996 118.502 162.333 116.559 160.921 115.413C159.536 114.253 157.836 112.553 157.108 111.614C156.407 110.662 155.715 109.445 155.559 108.896C155.431 108.334 155.323 107.533 155.389 107.11C155.443 106.66 155.821 106.061 156.295 105.744C156.716 105.451 157.925 105.024 158.981 104.831C160.009 104.651 161.753 104.533 162.841 104.554C163.93 104.574 165.889 104.782 167.2 104.929C168.496 105.116 171.281 105.694 173.416 106.212C175.552 106.731 178.66 107.585 180.344 108.116C182.028 108.647 183.543 109.026 183.678 108.964C183.825 108.929 184.709 109.142 185.615 109.476C186.56 109.824 187.359 110.208 187.433 110.37C187.508 110.531 189.579 111.406 192.034 112.333C194.489 113.26 197.1 114.311 197.846 114.654C198.58 114.969 199.223 115.228 199.304 115.191C199.385 115.153 200.011 114.243 200.749 113.15C201.473 112.097 203.094 109.943 204.339 108.387C205.595 106.859 206.806 105.516 206.995 105.428C207.156 105.354 207.231 105.09 207.132 104.875C206.97 104.524 206.767 104.651 205.645 105.692C204.919 106.386 203.768 107.506 203.109 108.203C202.45 108.9 201.568 109.895 201.193 110.428C200.637 111.207 200.407 111.346 200.148 111.139C199.926 111.012 199.603 110.312 199.373 109.6C199.169 108.877 199.02 108.128 199.093 107.931C199.165 107.734 199.099 107.307 198.962 107.011C198.825 106.714 198.618 105.273 198.464 103.807C198.338 102.329 198.365 100.191 198.547 99.0276C198.703 97.8768 199.055 96.3735 199.314 95.7307C199.574 95.0879 199.713 94.4679 199.663 94.3601C199.601 94.2253 199.401 94.2191 199.24 94.2938C199.051 94.3808 198.479 95.6913 197.954 97.1759L196.992 99.9088C193.359 100.539 190.892 100.861 189.173 101.033C187.454 101.205 186.027 101.373 186 101.385C185.278 101.798 183.72 104.01 183.17 105.667C184.049 104.313 184.225 104.199 186.067 103.513C187.168 103.135 189.086 102.544 190.371 102.212C191.657 101.881 193.674 101.505 194.821 101.369C195.968 101.232 196.926 101.182 196.963 101.263C197 101.344 197.081 102.156 197.133 103.048C197.197 103.967 197.401 105.54 197.595 106.529C197.811 107.705 198.07 108.338 198.269 108.344C198.468 108.35 198.632 108.634 198.659 109.047C198.686 109.459 198.993 110.266 199.333 110.861C199.822 111.78 199.891 112.14 199.605 112.796C199.379 113.227 199.099 113.683 198.964 113.745C198.842 113.834 197.593 113.397 196.244 112.81C194.921 112.211 191.246 110.768 188.149 109.582C185.024 108.408 182.426 107.384 182.349 107.288C176.526 105.128 156.646 99.8732 153.653 106.874C152.64 110.645 159.178 118.577 170.31 123.145C170.323 123.172 171.001 123.578 171.795 124.094C172.604 124.571 173.24 125.029 173.25 125.123C173.234 125.228 171.917 126.13 170.331 127.157C168.38 128.384 166.111 129.562 163.472 130.715C160.254 132.102 159.275 132.39 158.213 132.357C157.496 132.361 156.546 132.146 156.076 131.905C155.462 131.567 155.167 131.213 154.954 130.396C154.788 129.753 154.834 128.718 155.084 127.916C155.294 127.165 155.949 125.751 156.496 124.812C157.044 123.872 157.587 123.066 157.695 123.016L156.7 121.71ZM170.642 132.081C171.274 130.972 172.446 129.189 173.248 128.165C174.011 127.126 174.824 126.195 174.986 126.12C175.175 126.033 176.448 126.524 177.781 127.217C179.102 127.883 181.679 129.145 183.46 129.958C185.254 130.798 186.718 131.561 186.728 131.654C186.712 131.76 185.244 132.83 183.467 134.01C181.457 135.395 178.861 136.855 176.61 137.927C173.36 139.459 172.823 139.641 171.442 139.625C170.447 139.594 169.709 139.411 169.427 139.084C169.184 138.771 168.911 138.178 168.805 137.736C168.687 137.267 168.824 136.289 169.06 135.526C169.269 134.775 169.983 133.203 170.642 132.081ZM184.532 140.286C184.897 139.66 185.947 137.966 186.921 136.535C187.883 135.078 188.785 133.844 188.92 133.782C189.082 133.707 189.418 134.435 189.824 135.882C190.158 137.101 190.971 139.571 191.593 141.344C192.242 143.104 192.725 144.647 192.654 144.777C192.611 144.896 190.776 145.808 188.592 146.816C185.277 148.346 184.485 148.613 183.691 148.522C183.017 148.408 182.639 148.157 182.366 147.564C182.142 147.079 182.127 146.268 182.322 145.557C182.529 144.873 182.965 143.691 183.282 142.891C183.612 142.117 184.18 140.939 184.532 140.286Z" fill="#15006A"/>
<path d="M89.2711 52.4818C93.4347 57.819 94.9421 59.7391 95.2884 60.1351L95.9416 60.9127L96.5428 60.3735C96.35 60.1682 95.8669 59.4757 95.475 58.8391C95.0561 58.215 93.6793 56.3654 92.3896 54.7045C90.5628 52.376 90.1087 51.6046 90.2767 51.3309L89.2711 52.4818Z" fill="#15006A"/>
<path d="M26.2736 39.9663C24.7289 40.9408 22.3941 42.5416 21.0484 43.5224C19.7027 44.5031 17.3721 46.3963 15.8439 47.6901C14.3551 48.9985 11.8897 51.3789 10.3782 52.9921C8.85413 54.5784 6.75989 56.9836 5.69619 58.292C4.67188 59.6149 2.95087 61.9787 1.91827 63.567C0.900182 65.116 0.0998119 66.499 0.149577 66.6068C0.211782 66.7416 0.383884 66.7603 0.518662 66.6981C0.65344 66.6358 1.99499 64.9376 3.45267 62.9243C4.88338 60.9233 7.28864 57.9167 8.77534 56.2496C10.262 54.5825 12.5947 52.198 13.9902 50.8999C15.3981 49.6289 17.5836 47.7046 18.892 46.643C20.2003 45.5814 22.7155 43.7339 24.4946 42.4877C27.1818 40.6588 28.7494 39.8045 33.9249 37.4158C37.7256 35.6616 41.0101 34.2765 42.4304 33.8826C43.7035 33.5238 46.2311 32.9785 48.0745 32.6509C49.9178 32.3232 52.6238 32.0226 54.1395 31.977C55.6552 31.9313 57.8179 32.0122 58.9563 32.1408C60.0946 32.2693 61.9193 32.5389 63.0017 32.7586C64.0841 32.9784 65.7449 33.389 66.678 33.7104C67.5987 34.0048 69.158 34.6911 70.1781 35.2012C71.1713 35.7237 72.7348 36.7024 73.6844 37.3431C74.6341 37.9839 75.7621 38.8692 76.212 39.3482C76.8445 39.9392 76.9938 40.2626 76.915 40.6587C77.0751 40.2687 77.4506 39.2997 77.6718 38.5437C77.5412 38.8983 76.9274 38.5603 75.0467 37.1068C73.6969 36.0949 71.7851 34.7865 70.7919 34.264C69.7987 33.7415 68.1212 33.0116 67.0554 32.6861C66.0041 32.3211 64.3972 31.8857 63.4993 31.7115C62.6162 31.5164 61.21 31.2549 60.343 31.0937L60.2647 31.0791C59.3793 30.9319 57.6976 30.7598 56.5033 30.7225C55.309 30.6852 52.7274 30.8303 50.768 31.048C48.8085 31.2658 45.6153 31.8567 43.687 32.3544C41.0349 33.0552 38.8308 33.8763 34.6154 35.7239C30.7628 37.4366 28.1979 38.7512 26.2736 39.9663Z" fill="#15006A"/>
<path d="M89.6692 61.8458C89.3063 61.5555 87.6434 60.3611 85.968 59.1398C84.2926 57.9185 81.2943 56.098 79.3224 55.0136C77.3235 53.9416 73.616 52.2849 71.0698 51.302C67.0658 49.7821 66.4396 49.4172 66.4438 48.8594C66.4417 48.5007 66.6905 46.9145 66.9787 45.3428C67.2669 43.771 67.4411 42.4481 67.3229 42.4046C67.2047 42.3611 66.902 42.697 66.649 43.1407C66.3836 43.5575 65.9938 44.9799 65.7657 46.3277C65.5522 47.6361 65.3282 48.8511 65.2971 48.9963C65.266 49.1414 64.1007 49.0253 62.6762 48.7019C61.2641 48.4054 58.8879 47.9326 57.3805 47.7128C55.7154 47.435 54.5708 47.0804 54.4464 46.8108C54.322 46.5413 54.0525 45.3905 53.8347 44.2812C53.644 43.1594 53.3682 42.2077 53.2355 42.2035C53.0634 42.1849 52.9763 42.8463 52.9887 43.7234C53.0157 44.5611 53.1049 45.5336 53.1857 45.9213C53.306 46.3236 53.1629 46.6512 52.8125 46.8129C52.516 46.9498 52.1573 46.9519 52.0142 46.8544C51.8711 46.7569 49.4721 46.589 46.6977 46.5289C43.9503 46.4563 41.2817 46.4128 40.8152 46.4646C40.2291 46.5171 39.9775 46.6333 40.0604 46.813C40.1226 46.9477 41.684 47.1426 43.5025 47.1862C45.3334 47.2567 48.369 47.4578 50.2621 47.6631C52.1552 47.8683 53.588 47.9264 53.4449 47.8289C53.3019 47.7315 53.8472 47.7087 54.6538 47.8269C55.4749 47.9057 57.0342 48.1669 58.1166 48.3867C59.1989 48.6065 61.2434 49.0689 62.6264 49.4442C64.0095 49.8195 65.1001 50.1989 65.0566 50.3171C65.0131 50.4353 65.3407 50.5784 65.7906 50.6323C66.2136 50.6986 66.6117 50.7111 66.6802 50.6468C66.7486 50.5825 67.8932 50.9371 69.2596 51.4181C70.5991 51.9116 71.9884 52.5129 72.3263 52.7493C72.6249 52.9712 74.3252 53.8213 76.0275 54.6051C77.7423 55.4158 80.6556 56.9813 82.5197 58.1155C84.3444 59.2352 87.0089 61.1117 88.394 62.2708C89.0846 62.6967 89.5319 62.1649 89.6692 61.8458Z" fill="#15006A"/>
<path d="M90.6616 74.2234C89.8199 74.3114 88.816 74.2881 88.3401 74.1977C87.8383 74.1023 87.4133 74.1023 87.3573 74.1935C87.3137 74.3117 86.4781 74.2723 85.4725 74.1479C84.4792 74.0504 82.5882 73.7788 81.2674 73.5383C79.959 73.3247 77.3837 72.8458 75.5901 72.4311C73.7965 72.0164 71.0284 71.3321 69.4753 70.8718C67.9222 70.4115 64.0821 69.1757 60.9656 68.1618L55.2593 66.2832C48.846 73.0034 45.5595 76.1552 43.8011 77.588C42.0552 79.0477 39.4841 80.9865 38.1135 81.9133C36.7429 82.8402 33.9997 84.3352 31.978 85.2683C29.8485 86.2512 26.2448 87.6529 23.2257 88.6212C20.4078 89.5294 18.1104 90.3609 18.0938 90.4666C18.1042 90.5599 18.2058 90.7092 18.3613 90.8336C18.5168 90.9581 19.5162 90.8564 20.6401 90.5993C21.737 90.3547 24.2293 89.6621 26.2012 89.0463C28.8304 88.2251 30.8625 87.3854 33.8856 85.8592C36.801 84.3829 38.8455 83.145 40.9128 81.6023C42.5176 80.4038 44.8503 78.4443 46.109 77.2749C47.3551 76.0785 49.3581 74.0423 50.5421 72.7111C51.7385 71.4068 53.2688 69.6215 53.9717 68.8066C54.6621 67.9648 55.2821 67.2536 55.363 67.2163C55.4439 67.1789 58.5064 68.2177 62.1579 69.5406C65.8487 70.878 70.9143 72.4311 73.4067 73.0137C75.926 73.5839 79.0259 74.2786 80.3322 74.5585C82.47 75.0105 82.9013 75.2365 85.6487 77.4344C87.2681 78.7469 89.5158 80.7831 90.6086 81.9463C91.7262 83.1635 92.8231 84.6191 93.1839 85.4008C93.7313 86.5869 93.7499 86.8398 93.2461 87.6609L92.6862 88.5733C89.1841 88.424 87.2536 88.1379 86.1339 87.8372C85.0018 87.5096 81.2819 86.251 77.8399 85.0276C74.4248 83.7918 71.6546 82.7489 71.7085 82.724C71.75 82.6721 71.2026 82.3362 70.4831 81.9817C69.7242 81.6126 68.3349 81.0113 67.35 80.6484C66.392 80.2731 64.5839 79.4727 63.3274 78.8756C62.0584 78.2515 59.3525 76.8518 57.3142 75.7653C55.2365 74.6643 53.275 73.6732 52.9329 73.5695C52.5907 73.4658 52.2445 73.4949 52.1864 73.6524C52.1283 73.81 52.9308 74.486 53.9468 75.1288C54.9483 75.811 57.6999 77.4511 60.0222 78.7989C62.3715 80.1342 66.0727 82.415 68.2872 83.8126C70.4748 85.2226 73.6224 87.3666 75.2978 88.5879C76.9732 89.8091 79.2789 91.6877 80.4277 92.7597C81.6033 93.8193 82.8868 95.2542 83.2787 95.8907C83.8096 96.7575 83.9672 97.2406 83.8199 97.7009C83.7163 98.043 83.3036 98.4951 82.8869 98.6547C82.4556 98.8538 81.2571 98.9492 80.21 98.8766C79.1359 98.8165 76.4258 98.3997 74.1968 97.8917C71.3333 97.2842 67.3749 96.0048 61.0735 93.6162C56.0846 91.7334 50.6645 89.6247 49.0389 88.9363C47.4132 88.2479 45.9286 87.7233 45.742 87.744C45.5554 87.7648 44.4771 88.6875 43.3554 89.7284C42.246 90.7962 40.2845 92.3555 39.0757 93.2077C37.7859 94.0973 35.2728 95.4534 33.1434 96.4362C31.0947 97.3817 28.0425 98.5616 26.3402 99.053C24.6109 99.5569 22.2678 100.148 21.1191 100.351C19.8501 100.577 18.9378 100.867 18.8507 101.104C18.7511 101.313 19.1057 101.444 19.8107 101.413C20.4224 101.392 22.0107 101.149 23.346 100.925C24.6689 100.675 27.0514 100.098 28.6459 99.6564C30.2405 99.2147 32.9961 98.1717 34.7877 97.3776C36.7824 96.4569 38.7709 95.3103 39.9673 94.4311C41.0413 93.6411 42.8308 92.0632 43.9028 90.9144L45.8933 88.8513C49.719 90.5515 53.2336 92.003 56.1593 93.1704C59.085 94.3377 63.4187 95.9343 65.8115 96.7264C68.2043 97.5185 71.2317 98.4101 72.5235 98.7294C73.8422 99.0363 76.007 99.4758 77.3693 99.6645C78.7315 99.8532 80.268 99.9942 80.774 99.9569C81.2923 99.9465 82.213 99.8159 82.7749 99.6873C83.4965 99.5505 84.0377 99.2353 84.5332 98.6796C84.9873 98.1757 85.1636 97.6366 85.0475 97.1017C84.9562 96.6206 84.5581 95.758 84.1662 95.1215C83.7743 94.4849 82.9822 93.4772 82.3913 92.8344C81.7858 92.231 80.1851 90.7464 78.7999 89.5873C77.4148 88.4282 75.0531 86.6408 73.5705 85.6248C72.061 84.6212 70.8397 83.7462 70.8273 83.7193C70.8024 83.6654 70.8978 83.5886 71.0595 83.514C71.2212 83.4393 72.2995 83.7918 73.4669 84.2667C74.6197 84.7809 76.7575 85.658 78.2007 86.2344C79.6439 86.8108 82.2067 87.6879 83.878 88.1918C85.5762 88.6832 87.8052 89.1912 88.8108 89.3156C89.8435 89.4276 91.212 89.4172 91.8796 89.3052C92.8542 89.1497 93.2585 88.9631 93.8495 88.3307C94.2351 87.8911 94.6042 87.1322 94.6063 86.6408C94.6229 86.1099 94.4114 85.2266 94.1377 84.6336C93.864 84.0406 92.9081 82.7488 92.0082 81.7908C91.1228 80.7935 89.2525 79.0082 87.8819 77.8097C86.4988 76.5843 85.4953 75.5434 85.657 75.4687C85.8187 75.3941 86.8949 75.3879 88.0892 75.4252C89.3105 75.45 90.3141 75.6408 90.4261 75.8834C89.8817 74.7039 90.2961 74.3022 90.6616 74.2234Z" fill="#15006A"/>
</svg>
