<svg width="100" height="100" viewBox="0 0 100 100" fill="none" xmlns="http://www.w3.org/2000/svg">
<path d="M41.4355 21.5353C41.1068 21.8209 40.8404 21.8482 40.4672 21.6818L41.5066 22.1523C45.6533 18.7802 50.1802 16.4938 55.3587 15.5976C60.339 14.7353 65.1984 15.1601 69.8948 17.0749C72.1553 17.9963 74.211 19.2702 76.0606 20.8711C80.0696 24.3416 82.6266 28.6744 83.691 33.8629C84.3526 37.09 84.4137 40.3384 83.7642 43.5849L83.758 43.6157C83.5588 44.6135 83.5578 44.6187 82.614 44.2231L85.1505 45.3508C84.8523 45.181 84.781 44.9425 84.788 44.5463C84.8173 42.9074 84.7954 41.2672 84.7973 39.6271C84.8 37.2795 84.574 34.9605 83.9962 32.6788C83.0355 28.8865 81.2604 25.523 78.6954 22.5778C77.5106 21.2168 76.1364 20.0574 74.6545 19.0348C70.4506 16.1348 65.7608 14.7293 60.6808 14.5777C58.7587 14.5205 56.8539 14.73 54.9651 15.0916C49.8943 16.0636 45.3488 18.1399 41.4355 21.5353Z" fill="#5EFF9E"/>
<path d="M16.0923 54.253C15.9008 56.3459 15.8649 58.4561 15.9427 60.3795L15.942 60.3782C15.942 62.2458 15.9028 63.9311 15.952 65.6139C16.0145 67.7513 16.0251 69.8901 16.4513 72.007C17.4991 77.2088 20.0315 81.5715 23.9474 85.0912C27.9671 88.7039 32.734 90.6785 38.1325 91.1492C41.3331 91.4278 44.4818 91.1944 47.5893 90.4093C52.5736 89.15 56.8911 86.6549 60.714 83.2595C63.7091 80.5995 66.7009 77.9361 69.6941 75.2741C71.1986 73.9357 72.6872 72.5801 74.211 71.2644C76.4256 69.3523 78.3962 67.2088 79.9805 64.7609C82.2789 61.2093 83.8686 57.3485 84.4131 53.1201C84.5028 52.4221 84.7437 51.8787 85.1722 51.4361L83.8898 52.4779L83.8892 52.4792C83.9317 53.7251 83.5754 54.7915 83.3041 55.8613C82.3747 59.5299 80.7026 62.8328 78.4673 65.8911C76.4994 68.5831 73.9617 70.6773 71.5237 72.8833C69.4906 74.7229 67.4422 76.5446 65.3712 78.3403C62.8315 80.543 60.4401 82.9224 57.7322 84.9216C54.5263 87.2878 50.9926 89.0018 47.1026 89.9532C44.0729 90.6945 40.9947 90.9119 37.9125 90.5954C34.1189 90.2051 30.5666 89.0284 27.3288 86.9368C25.4047 85.6942 23.6928 84.2182 22.2208 82.4923C19.5441 79.3529 17.7072 75.7853 16.9699 71.6799C16.5091 69.1136 16.5444 66.5313 16.5583 63.9471C16.3815 62.0031 16.7352 57.415 16.7352 53.6819C17.1746 49.9195 18.3388 46.3792 20.2608 43.1029C20.6518 42.4374 21.1025 41.8078 21.4895 41.1403C21.6564 40.8524 21.7993 40.8557 22.0706 40.98L20.8402 40.3987C21.1161 40.5448 21.1683 40.6882 20.9051 41.0571C20.1611 42.0996 19.5282 43.2139 18.9484 44.3588C17.3694 47.4776 16.4101 50.7845 16.0923 54.253Z" fill="#5EFF9E"/>
<path d="M46.7389 68.5304C45.4039 68.5171 44.1001 67.1462 44.1274 65.7832C44.128 65.7542 44.1263 65.7237 44.1246 65.693C44.1165 65.5492 44.1083 65.4007 44.3328 65.3777C44.5669 65.3538 44.6141 65.5014 44.6526 65.6995C44.7776 66.345 44.9113 66.974 45.5016 67.4141C46.3274 68.0291 47.1365 68.3482 48.0041 67.2698C48.1298 67.1136 48.2475 67.0125 48.4416 67.1488C48.6424 67.2898 48.5626 67.4274 48.4595 67.5956C48.1198 68.1521 47.4284 68.537 46.7383 68.5297L46.7389 68.5304Z" fill="white"/>
<path d="M48.1232 64.7767C48.1232 64.7048 48.1227 64.6328 48.1222 64.5609C48.1211 64.3902 48.12 64.2194 48.1251 64.0487C48.1305 63.8678 48.2408 63.7595 48.415 63.7488C48.6072 63.7369 48.7049 63.8858 48.7102 64.042C48.7275 64.5706 48.7235 65.1005 48.7162 65.6297C48.7135 65.8311 48.5626 65.8703 48.3918 65.8723C48.183 65.8743 48.1305 65.7427 48.1285 65.5712C48.1262 65.3881 48.1267 65.205 48.1273 65.0216C48.1274 64.9863 48.1275 64.9509 48.1276 64.9156C48.1277 64.8897 48.1277 64.8639 48.1278 64.838C48.1278 64.8176 48.1278 64.7971 48.1278 64.7767H48.1232Z" fill="white"/>
<path d="M44.5024 62.939C44.5024 63.018 44.5026 63.097 44.5028 63.176C44.5032 63.3603 44.5036 63.5446 44.5017 63.7289C44.5004 63.8692 44.4658 63.9955 44.2923 64.0035C44.1128 64.0114 43.9772 63.9197 43.9725 63.7455C43.9586 63.2189 43.9599 62.6917 43.9752 62.1652C43.9798 62.0169 44.0815 61.8467 44.2291 61.8381C44.39 61.8287 44.4931 62.0049 44.509 62.1499C44.5288 62.3334 44.5246 62.5195 44.5205 62.7057C44.5188 62.7833 44.517 62.8609 44.517 62.9384C44.5124 62.9384 44.507 62.9384 44.5024 62.9384V62.939Z" fill="white"/>
<path d="M38.5574 30.8942C38.2788 30.8869 38.0993 30.9247 38.0448 30.7253C37.9843 30.5032 38.1339 30.4401 38.314 30.355C38.8053 30.1236 39.3226 29.9793 39.8452 29.8617C40.0566 29.8138 40.2255 29.7486 40.3358 29.5744C40.5014 29.3138 40.2048 29.2081 40.1025 29.1051C39.4602 28.4595 39.0154 27.6477 38.3273 27.0381C38.189 26.9157 37.8573 26.6797 38.1066 26.4497C38.3174 26.2542 38.6019 26.4005 38.796 26.6272C39.2322 27.1351 39.6996 27.6198 40.1065 28.1503C40.4329 28.5765 40.7374 29.0127 41.1316 29.385C41.3264 29.5691 41.4654 29.8942 41.115 30.0285C40.2374 30.3649 39.3352 30.6355 38.5567 30.8948L38.5574 30.8942Z" fill="white"/>
<path d="M31.9627 23.4712C32.1702 23.4472 32.2313 23.6527 32.2819 23.7551C32.3976 23.9891 32.1442 24.1194 31.9993 24.1726C31.5067 24.3541 30.9981 24.495 30.4895 24.628C30.0972 24.7304 29.7993 24.7763 30.2415 25.2576C30.913 25.989 31.5226 26.7788 32.129 27.5666C32.1954 27.6531 32.599 27.7235 32.238 28.046C31.9408 28.3113 31.8677 28.0945 31.7546 27.9635C30.9289 27.0062 30.1198 26.0342 29.2961 25.0748C28.9237 24.6406 29.1471 24.4126 29.566 24.2816C30.3306 24.043 31.1264 23.8973 31.8344 23.4945C31.8703 23.4738 31.9195 23.4778 31.9627 23.4712Z" fill="white"/>
<path d="M37.1918 25.8699C37.2403 26.1013 37.0402 26.195 36.9185 26.2875C35.8694 27.0833 34.8036 27.8565 33.7525 28.649C33.5883 28.7733 33.4088 28.8365 33.2878 28.7002C33.1302 28.522 33.2426 28.3505 33.4267 28.2115C34.3356 27.5267 35.2378 26.8333 36.1413 26.1412C36.3275 25.9989 36.5196 25.8613 36.6851 25.6971C36.7995 25.5841 36.9145 25.5894 37.0448 25.614C37.1931 25.6419 37.1705 25.7702 37.1918 25.8699Z" fill="white"/>
<path d="M67.3887 44.4264C67.2651 44.4343 67.1926 44.3585 67.1494 44.2502C67.0942 44.1125 67.1182 43.9942 67.2445 43.9025C67.4942 43.7211 67.7426 43.5379 67.991 43.3547C68.8603 42.7134 69.7298 42.072 70.6565 41.513C70.6578 41.5122 70.6591 41.5114 70.6604 41.5107C70.7742 41.4422 70.8938 41.3703 71.0068 41.5064C71.1292 41.6526 71.1006 41.8241 70.9683 41.9186C70.0001 42.6107 69.0265 43.2946 68.0527 43.9786C67.8535 44.1185 67.6544 44.2584 67.4552 44.3984C67.4442 44.4061 67.431 44.4107 67.4161 44.416C67.4075 44.419 67.3984 44.4223 67.3887 44.4264Z" fill="white"/>
<path d="M66.9366 31.2199C67.051 31.2226 67.16 31.2458 67.2092 31.3628C67.299 31.5749 67.1587 31.6986 67.0131 31.8023C66.2605 32.3415 65.5059 32.8767 64.7493 33.4099C64.481 33.5987 64.208 33.7819 63.9355 33.9648C63.898 33.9899 63.8606 34.015 63.8232 34.0402C63.6576 34.1512 63.4568 34.1691 63.3498 34.0083C63.2714 33.8906 63.3358 33.6905 63.4695 33.5967C64.4512 32.9058 65.4376 32.2212 66.4235 31.5368L66.4253 31.5355C66.5546 31.4458 66.6838 31.3561 66.813 31.2664C66.8378 31.2491 66.8682 31.2404 66.8986 31.2316C66.9114 31.2279 66.9242 31.2242 66.9366 31.2199Z" fill="white"/>
<path d="M71.0667 40.5756C71.088 40.7046 70.9743 40.789 70.8692 40.8635C70.1101 41.4045 69.3493 41.9433 68.5885 42.482L68.5862 42.4836C68.267 42.7096 67.9479 42.9357 67.6288 43.1618C67.4672 43.2762 67.303 43.3294 67.1681 43.1399C67.0231 42.9358 67.1814 42.8008 67.321 42.7011C68.3974 41.9312 69.4784 41.168 70.5614 40.4067C70.7728 40.2585 70.9703 40.2232 71.066 40.5756H71.0667Z" fill="white"/>
<path d="M67.2398 39.1521C67.067 39.1654 66.9533 39.1388 66.92 39.0159C66.8649 38.8085 67.0119 38.7041 67.157 38.601C67.1589 38.5997 67.1608 38.5983 67.1627 38.597C67.5475 38.324 67.9316 38.05 68.3156 37.7761L68.3173 37.7749C68.6659 37.5263 69.0144 37.2778 69.3633 37.03C69.4202 36.9896 69.4769 36.9488 69.5335 36.908C69.7445 36.7561 69.9557 36.6041 70.1784 36.4715C70.2197 36.4468 70.2626 36.4123 70.3065 36.3769C70.4593 36.2537 70.6259 36.1194 70.7901 36.3492C70.9653 36.5935 70.7441 36.7467 70.5454 36.8844C70.5322 36.8935 70.5191 36.9026 70.5062 36.9116C69.9676 37.2883 69.431 37.668 68.8944 38.0479C68.4439 38.3667 67.9934 38.6855 67.5417 39.0026C67.4646 39.0567 67.3762 39.094 67.3064 39.1234C67.281 39.1341 67.2581 39.1438 67.2392 39.1528L67.2398 39.1521Z" fill="white"/>
<path d="M70.5275 35.3C70.5275 35.5115 70.4091 35.6065 70.2802 35.6969C70.0143 35.8839 69.7486 36.0712 69.4829 36.2586L69.4817 36.2594L69.4805 36.2602C68.704 36.8077 67.9275 37.3552 67.1454 37.8943C67.1217 37.9106 67.0966 37.9307 67.0705 37.9516C66.9417 38.0549 66.7873 38.1786 66.6375 37.9774C66.4673 37.7487 66.6222 37.5851 66.827 37.4422C67.2465 37.1502 67.6642 36.8554 68.0819 36.5606C68.6875 36.1332 69.2931 35.7058 69.9045 35.2867C69.9077 35.2846 69.9109 35.2824 69.9141 35.2801C69.9188 35.2769 69.9235 35.2736 69.9282 35.2702C69.9371 35.2639 69.9462 35.2575 69.9554 35.251C70.1363 35.1222 70.3662 34.9586 70.5282 35.2994L70.5275 35.3Z" fill="white"/>
<path d="M61.578 32.3269C61.5926 32.1141 61.703 32.0217 61.8366 31.928C62.4148 31.5235 62.991 31.1163 63.5673 30.7091C64.0122 30.3947 64.4571 30.0803 64.9029 29.7672C64.9224 29.7535 64.9423 29.7388 64.9624 29.7238C65.1229 29.6049 65.3017 29.4725 65.4653 29.7193C65.6211 29.955 65.4439 30.0695 65.2836 30.1731C65.2557 30.1911 65.2284 30.2087 65.2034 30.2266C64.2161 30.934 63.2268 31.6387 62.2329 32.3368C62.0148 32.4897 61.7735 32.624 61.578 32.3269Z" fill="white"/>
<path d="M67.4745 45.5273C67.4666 45.5273 67.4588 45.5274 67.4511 45.5274C67.3085 45.5277 67.1953 45.528 67.1454 45.4163C67.0836 45.278 67.1454 45.1364 67.2505 45.062C68.3634 44.2728 69.4804 43.4903 70.6033 42.7157C70.7156 42.6386 70.8892 42.5355 70.9955 42.747C71.1086 42.971 70.9942 43.1153 70.812 43.2436C70.3335 43.5808 69.8559 43.9194 69.3784 44.2579L69.3777 44.2583L69.3771 44.2588L69.3767 44.2591L69.3762 44.2594C68.8303 44.6464 68.2844 45.0334 67.7371 45.4183C67.6759 45.4612 67.6012 45.485 67.5402 45.5045C67.5152 45.5125 67.4924 45.5198 67.4739 45.5273H67.4745Z" fill="white"/>
<path d="M67.2538 40.3322C67.0969 40.3462 67.0045 40.299 66.942 40.1953C66.8355 40.018 66.9632 39.9324 67.068 39.8622C67.0721 39.8594 67.0763 39.8566 67.0803 39.8539C67.0922 39.8459 67.1036 39.8381 67.1142 39.8303C67.7863 39.3317 68.4665 38.845 69.1479 38.359C69.4055 38.1751 69.6659 37.9952 69.9262 37.8154C70.065 37.7195 70.2037 37.6237 70.342 37.5273C70.5042 37.4142 70.6704 37.3677 70.8034 37.5545C70.9171 37.7141 70.832 37.8604 70.6997 37.9548C69.6053 38.7346 68.5064 39.5092 67.4067 40.2817C67.3688 40.3083 67.3195 40.3189 67.2846 40.3263C67.2725 40.3289 67.262 40.3312 67.2545 40.3336L67.2538 40.3322Z" fill="white"/>
<path d="M66.1834 30.9553C66.1671 31.176 66.0316 31.2688 65.9067 31.3544C65.8887 31.3668 65.8708 31.379 65.8536 31.3914C64.8524 32.1108 63.8458 32.8222 62.8379 33.5322C62.6743 33.6472 62.4862 33.7702 62.32 33.5502C62.1487 33.3222 62.3468 33.1804 62.4918 33.0766C62.4948 33.0744 62.4978 33.0723 62.5008 33.0702C63.4064 32.4224 64.3186 31.7841 65.2311 31.1457C65.3965 31.0299 65.5619 30.9142 65.7273 30.7984L65.728 30.7979C65.8362 30.7222 65.9569 30.6378 66.0783 30.7678C66.1186 30.8109 66.1436 30.8678 66.1629 30.9116C66.1704 30.9287 66.177 30.9437 66.1834 30.9553Z" fill="white"/>
<path fill-rule="evenodd" clip-rule="evenodd" d="M35.0171 79.4006C32.5798 78.3056 30.1485 77.1953 27.7185 76.0837C26.7166 75.6256 26.1036 74.881 26.0324 73.7408C26.0111 73.4011 26.0929 73.1478 26.3841 72.9496C26.9818 72.5421 27.5729 72.1239 28.1553 71.6957C30.3034 70.1161 32.4369 68.5158 34.6648 67.0498C35.5091 66.494 35.9453 65.8963 35.9114 64.7714C35.809 61.3621 35.8814 57.9474 35.8655 54.5348C35.8635 54.1053 35.9858 53.8865 36.3841 53.6731C37.5362 53.0548 38.5827 53.37 39.6584 53.8606C44.0989 55.8871 48.5474 57.8962 52.9899 59.918C54.6181 60.6593 56.2456 61.4026 57.8592 62.1738C58.9017 62.6718 59.3624 63.5627 59.3877 64.6923C59.4076 65.6004 59.4163 66.5093 59.4189 67.4175C59.4236 69.3781 59.4203 71.3381 59.4203 73.4582L59.4329 75.1835C59.4888 75.6403 59.4043 76.1123 59.4136 76.577C59.4203 76.9374 59.3072 77.1601 58.9888 77.3855C56.0508 79.4678 53.1461 81.5979 50.2022 83.6729C48.8685 84.613 47.3886 84.9461 45.8209 84.2713C44.2392 83.5905 42.6808 82.8565 41.1038 82.1657L35.0171 79.4006ZM56.3713 63.691C57.1246 64.0261 57.4729 64.542 57.4463 65.3983C57.4121 66.5082 57.4192 67.6196 57.4264 68.7309L57.4264 68.7325C57.4294 69.1944 57.4324 69.6563 57.4324 70.1181H57.441C57.441 70.6033 57.4408 71.0886 57.4407 71.5739C57.4403 72.7062 57.4398 73.8385 57.4417 74.9708C57.443 75.6955 57.433 75.7094 56.7549 75.4009C55.2396 74.7116 53.7249 74.0209 52.2101 73.3301L52.2055 73.328C50.0652 72.352 47.9249 71.3761 45.783 70.4039C42.7872 69.0443 39.7887 67.6901 36.783 66.353C36.4858 66.2214 36.3954 66.0738 36.396 65.768C36.404 62.2224 36.4107 58.6767 36.392 55.1311C36.3892 54.6002 36.5967 54.7051 36.8318 54.8238C36.8678 54.842 36.9045 54.8605 36.9412 54.8772C41.7308 57.0496 46.5203 59.2226 51.3099 61.3957L51.4834 61.4744C51.9996 61.7087 52.5154 61.9441 53.0313 62.1795L53.032 62.1798C54.1436 62.687 55.2553 63.1943 56.3713 63.691ZM48.7601 82.302C48.1465 82.7109 47.4856 82.7721 46.8062 82.4662L45.172 81.731L45.1687 81.7295L45.1661 81.7283C42.4934 80.5259 39.8204 79.3234 37.1506 78.1135C34.266 76.8057 31.3854 75.4893 28.5045 74.1728L27.8109 73.8558C27.7568 73.8311 27.702 73.8075 27.6468 73.7838C27.4033 73.6791 27.1537 73.5717 26.9413 73.3565L26.9419 73.3572L28.5043 72.2337L28.506 72.2325L28.5191 72.2231C30.166 71.0388 31.7997 69.864 33.4341 68.69C33.6636 68.5251 33.8954 68.3635 34.1273 68.2018C34.6379 67.8458 35.1484 67.4899 35.6321 67.1003C36.0131 66.7938 36.3222 66.8444 36.7118 67.0219C38.1365 67.6707 39.5635 68.3139 40.9906 68.9571L40.9916 68.9575L40.9922 68.9578L40.9928 68.9581L40.9935 68.9584L41.1967 69.05C42.2163 69.5096 43.2358 69.9693 44.2545 70.4312C45.5491 71.0183 46.843 71.607 48.1368 72.1956L48.1389 72.1965L48.141 72.1975L48.1431 72.1984L48.145 72.1993C50.9873 73.4923 53.8298 74.7855 56.6791 76.0625C57.2012 76.2962 57.0015 76.4365 56.757 76.6083C56.7365 76.6227 56.7158 76.6373 56.6951 76.6522C54.7311 78.067 52.7658 79.4804 50.7972 80.8886C50.1251 81.3692 49.4476 81.8439 48.7601 82.302ZM56.5747 63.1891C50.3777 60.3867 44.1933 57.5578 38.0043 54.7375C37.7483 54.6207 37.4929 54.503 37.2068 54.3711L37.2053 54.3704L37.2001 54.368L37.1039 54.3236C36.9849 54.2688 36.8602 54.2114 36.7278 54.1505C37.364 53.8407 37.8859 53.8161 38.4258 53.9969C40.0833 54.552 41.625 55.3751 43.214 56.0872C47.846 58.1622 52.45 60.2996 57.0847 62.3686C58.2841 62.9038 58.8824 63.7269 58.8691 65.0267C58.8379 68.0145 58.7847 71.003 58.8079 73.9908C58.8139 74.758 58.8392 75.5312 58.8671 76.3011C58.8791 76.6468 58.7501 76.8696 58.4702 77.069C55.624 79.0988 52.7911 81.1452 49.9429 83.1716C48.5959 84.1297 47.1778 84.3524 45.6154 83.6291C41.8085 81.8659 37.979 80.1532 34.1615 78.4133C32.032 77.4433 29.9085 76.4594 27.7823 75.4814C27.144 75.1882 26.7837 74.6836 26.543 73.8884C27.1383 74.1579 27.717 74.4197 28.2851 74.6765L28.2892 74.6784L28.2949 74.681L28.2987 74.6827L29.2653 75.1198C29.9679 75.4377 30.6588 75.7506 31.3492 76.0644C36.293 78.3116 41.2434 80.5448 46.1746 82.8193C47.4571 83.411 48.5653 83.1823 49.6477 82.4024C52.1017 80.6333 54.519 78.8096 57.0335 77.1309C57.8838 76.5637 58.0693 75.9813 58.0507 75.0426C57.9869 71.854 58.0101 68.6634 58.0254 65.4735C58.0307 64.3785 57.5946 63.6505 56.5747 63.1891Z" fill="white"/>
<path fill-rule="evenodd" clip-rule="evenodd" d="M85.3838 45.4543C86.3804 45.8067 87.3424 46.2581 88.3178 46.6703C88.6143 46.796 88.7798 46.8944 88.6934 47.3411C88.4886 48.4002 88.0299 49.2419 87.151 49.8709C86.6656 50.2186 86.2381 50.6507 85.7395 50.9752L83.8899 52.4777C83.2477 52.9877 82.6746 53.4218 82.1241 53.8839L72.525 61.5376C71.3782 62.6253 70.1442 62.7868 68.6949 62.1506C65.0575 60.5543 61.3949 59.0145 57.7382 57.4627C57.338 57.2932 57.1651 57.0479 57.1664 56.6071C57.1764 52.995 57.1664 49.3835 57.1724 45.7714C57.1751 44.1193 57.6997 42.7198 59.0752 41.6787C60.4701 40.6229 61.8017 39.484 63.1806 38.4069C64.1832 37.6238 64.2078 37.2568 63.2418 36.4204C62.9546 36.1717 62.6348 35.9849 62.301 35.8061C61.6016 35.4311 60.8417 35.1685 60.2128 34.6619C59.2627 33.8973 58.9489 32.7092 59.3731 31.5843C59.6277 30.9082 60.0831 30.3789 60.5319 29.8404C61.2154 29.0193 61.1801 28.4004 60.3251 27.7595C59.7607 27.3366 59.1324 27.0009 58.5354 26.6206C57.4889 25.9537 56.4777 25.2776 56.0608 23.9858C55.9046 23.5018 56.0621 23.3569 56.4112 23.1348C58.5959 21.7426 60.7839 20.3537 62.9313 18.9057C63.4087 18.5839 63.5197 18.7129 63.6434 19.1404C63.7757 19.5965 64.0476 19.9522 64.3767 20.2952C65.221 21.1755 66.2841 21.74 67.2927 22.3809C68.3259 23.0377 68.7593 23.7504 68.5532 24.6307C68.4189 25.2045 68.0539 25.6579 67.6816 26.0993C67.2807 26.574 66.8911 27.058 66.8213 27.7056C66.7169 28.6776 67.2249 29.52 68.2394 30.0405C69.2168 30.5418 70.2892 30.8802 71.0384 31.7618C71.2598 32.0218 71.4759 31.8064 71.666 31.6508C72.3675 31.079 73.0636 30.4999 73.7729 29.9382C74.4411 29.4096 75.1798 29.1364 76.054 29.3245C76.5746 29.4369 76.8233 29.639 76.8179 30.25C76.784 33.9059 76.8066 37.5626 76.7907 41.2186C76.7887 41.6314 76.9017 41.8342 77.3033 41.9964C79.0831 42.7145 80.8436 43.4817 82.6141 44.223L85.3838 45.4543ZM71.6401 60.1334C71.0085 60.642 70.4261 60.8116 69.6476 60.4738C67.2583 59.437 64.8609 58.4193 62.4636 57.4016L62.4624 57.4011L62.4612 57.4006L62.4601 57.4001L62.4589 57.3996L62.4577 57.3991L62.4565 57.3986L62.4554 57.3981L62.4542 57.3976L62.453 57.3971L62.4465 57.3943C61.4968 56.9911 60.547 56.5879 59.5978 56.1836C59.563 56.1688 59.5301 56.149 59.4779 56.1175C59.4455 56.098 59.4055 56.0741 59.3531 56.044C59.4071 56.0013 59.4613 55.9585 59.5153 55.9159C60.3256 55.2758 61.1311 54.6408 61.9324 54.0091L61.9336 54.0082L61.952 53.9936L61.9538 53.9922L61.9544 53.9917C63.8839 52.4706 65.7904 50.9677 67.6883 49.454C70.4693 47.2354 73.2444 45.0102 75.9902 42.7484C76.4044 42.4067 76.7222 42.4439 77.1251 42.6161L79.7789 43.7498L79.8067 43.7617C81.5722 44.5158 83.3377 45.27 85.1032 46.0247C85.8532 46.3452 86.6031 46.667 87.3511 46.9921C87.6576 47.1251 87.7726 47.2188 87.4116 47.506C82.1433 51.7012 76.8851 55.909 71.6401 60.1334ZM71.9327 43.6705C71.9632 44.713 71.6833 45.4457 70.8303 46.0773C69.7693 46.8626 68.7393 47.6896 67.7094 48.5165L67.7087 48.517L67.7084 48.5173L67.708 48.5177L67.7076 48.518L67.7072 48.5183L67.7068 48.5186L67.7064 48.5189C67.1801 48.9415 66.6538 49.3641 66.1232 49.7811C66.0904 49.807 66.0575 49.8399 66.0239 49.8736C65.9236 49.9741 65.8169 50.0811 65.6844 50.0258C65.5113 49.9532 65.5408 49.7997 65.5693 49.652C65.5799 49.5968 65.5904 49.5423 65.59 49.4932C65.5821 48.6137 65.5831 47.7342 65.5841 46.8546C65.5844 46.5614 65.5847 46.2681 65.5847 45.9749L65.5867 45.9755C65.5428 43.6991 65.4777 41.4253 65.1253 39.1689C64.8228 37.2315 63.9751 35.7243 62.0211 35.0162C61.5691 34.8527 61.1256 34.6213 60.7347 34.3428C59.6137 33.5436 59.4336 32.2651 60.2447 31.1522C60.352 31.005 60.4633 30.8603 60.5745 30.7156C60.7996 30.4228 61.0247 30.1299 61.2174 29.8172C61.8197 28.8398 61.6382 28.0354 60.7307 27.3286C60.3112 27.002 59.8597 26.7232 59.408 26.4442C58.7508 26.0383 58.0931 25.6321 57.5328 25.0781C56.36 23.918 56.3334 23.8788 57.6737 23.0018C58.396 22.529 59.1214 22.0609 59.8468 21.5928C60.7841 20.9879 61.7215 20.383 62.6521 19.768C63.043 19.5101 63.1873 19.5293 63.4007 19.9941C63.7059 20.6602 64.2497 21.1728 64.8753 21.5731C65.1596 21.7548 65.4464 21.9332 65.7331 22.1115C66.2717 22.4465 66.8104 22.7815 67.3333 23.1395C68.1896 23.7258 68.2614 24.2983 67.683 25.1599C67.5452 25.3646 67.3888 25.5539 67.2322 25.7434C67.0124 26.0094 66.7924 26.2756 66.6239 26.5847C65.9384 27.8419 66.1817 29.1816 67.292 30.0851C67.8665 30.5518 68.5366 30.8583 69.2028 31.1362C70.8829 31.837 71.3788 33.2697 71.6421 34.8706C71.9467 36.7219 71.9472 38.5825 71.9287 40.4438C71.9275 40.5679 71.9262 40.692 71.9249 40.8161C71.9148 41.7679 71.9046 42.7198 71.9327 43.6705ZM69.4548 60.9851C70.3543 61.3714 71.0996 61.2544 71.8482 60.65C73.8279 59.0508 75.8151 57.4608 77.8023 55.8707L77.8161 55.8596L77.8231 55.8541C78.7147 55.1407 79.6063 54.4273 80.4972 53.713C81.5014 52.9079 82.5054 52.1025 83.5093 51.2971L83.5113 51.2955C84.9069 50.1759 86.3025 49.0562 87.6988 47.9375C87.7394 47.9047 87.785 47.8782 87.8592 47.8352C87.9054 47.8084 87.9626 47.7752 88.0365 47.7301C87.8424 48.5678 87.3524 49.0185 86.8425 49.4268C84.7625 51.093 82.6772 52.7528 80.5918 54.4126C79.4029 55.3589 78.214 56.3051 77.026 57.2527C76.639 57.5615 76.2511 57.8694 75.8632 58.1773C74.5701 59.2038 73.2769 60.2304 72.0131 61.2916C71.0863 62.0695 70.1635 62.1659 69.0738 61.6925C65.4478 60.1181 61.8084 58.575 58.1677 57.0346C57.8725 56.9096 57.7808 56.7507 57.7735 56.4442C57.679 52.612 57.6112 48.7792 57.802 44.9484C57.8625 43.735 58.5221 42.8441 59.4415 42.1141C59.8382 41.799 60.2343 41.4832 60.6304 41.1674L60.6324 41.1658L60.6345 41.1642C61.6719 40.3371 62.7093 39.5101 63.7557 38.6948C63.7938 38.665 63.832 38.6168 63.8721 38.5662C63.9993 38.4058 64.1458 38.221 64.3707 38.5186C64.5808 38.7966 64.4531 39.0233 64.1766 39.2387C63.608 39.6825 63.046 40.135 62.4842 40.5875C61.7558 41.1741 61.0273 41.7608 60.2846 42.3282C59.0892 43.2417 58.4928 44.4205 58.4915 45.9157C58.4901 48.208 58.4874 50.5 58.4845 52.7921C58.4841 53.119 58.4837 53.446 58.4833 53.7729V53.7744V53.7759V53.7774V53.7789V53.7804V53.7819V53.7834V53.7849L58.4808 55.7541C58.4808 55.7729 58.4806 55.7917 58.4804 55.8103L58.4801 55.8303C58.4766 56.107 58.4734 56.3543 58.8372 56.506C62.3828 57.984 65.9251 59.4692 69.4548 60.9851ZM74.9763 29.9235C75.213 29.8225 75.4437 29.8238 75.8366 29.9096C74.5309 30.956 73.3189 31.9274 72.1062 32.8974C71.9838 32.9951 71.8283 33.1108 71.7099 32.9353C71.5863 32.7524 71.4925 32.4612 71.686 32.3269C72.0929 32.0443 72.4701 31.7211 72.8472 31.3979C73.5046 30.8345 74.1618 30.2712 74.9763 29.9235Z" fill="white"/>
<path d="M38.3213 73.9961C38.1618 73.9243 38.0348 73.9755 37.8965 74.0765C37.2376 74.5566 36.5768 75.0339 35.9033 75.4933C35.5842 75.7107 35.7092 75.8118 35.9684 75.9241C36.4132 76.1163 36.8567 76.3098 37.2975 76.5105C37.6947 76.6916 38.0914 76.874 38.488 77.0564L38.4888 77.0567L38.4895 77.057L38.4901 77.0573C39.4331 77.491 40.3761 77.9246 41.3271 78.3395C41.3575 78.3528 41.3886 78.3683 41.4205 78.3841C41.6005 78.4734 41.8056 78.5752 42.0558 78.3781C42.5462 77.9915 43.0564 77.6301 43.6145 77.2349C43.853 77.066 44.1001 76.8909 44.3582 76.7051C42.2834 75.7737 40.3024 74.8849 38.3213 73.9961Z" fill="white"/>
<path fill-rule="evenodd" clip-rule="evenodd" d="M44.3582 76.7051L44.3588 76.7053V76.7047L44.3582 76.7051Z" fill="white"/>
<path d="M26.551 36.4397C26.442 36.3885 26.3535 36.3626 26.2478 36.4397C25.7142 36.8337 25.1796 37.2263 24.6117 37.6432C24.4141 37.7883 24.2124 37.9364 24.0053 38.0885C24.7796 38.4391 25.5292 38.7786 26.2683 39.1135L26.2765 39.1172L26.2973 39.1266L26.3111 39.1329L26.33 39.1414L26.3656 39.1576L26.3677 39.1585L26.3758 39.1622L26.38 39.1641L26.4485 39.1951L26.4572 39.1991L26.5294 39.2318L26.5325 39.2331C27.1889 39.5305 27.8384 39.8247 28.491 40.1203C28.5908 40.1574 28.6833 40.1934 28.77 40.2271C29.4167 40.4783 29.7457 40.6061 30.4204 40.218H30.4211L31.1422 39.7018C31.4435 39.4862 31.7571 39.2618 32.0958 39.0193L31.3113 38.6548C29.6816 37.8978 28.1153 37.1702 26.551 36.4397Z" fill="white"/>
<path fill-rule="evenodd" clip-rule="evenodd" d="M20.6678 40.317C19.1087 39.6356 17.5663 38.9182 16.0165 38.2155C14.9694 37.7408 14.3438 36.9602 14.1869 35.8001C14.145 35.4896 14.2121 35.3161 14.4621 35.1372C16.565 33.6334 18.6586 32.1169 20.7569 30.6063C21.7309 29.9049 22.6996 29.1955 23.6915 28.5207C23.9914 28.3166 23.9069 28.062 23.9076 27.8153C23.9162 24.3142 23.9076 20.8125 23.9315 17.3114C23.9348 16.8773 23.6882 16.3155 24.1675 16.0183C24.8576 15.5908 25.587 15.2078 26.4692 15.4445C27.9113 15.8315 29.2024 16.5701 30.5507 17.1718C33.861 18.6471 37.1533 20.1616 40.4476 21.6728L41.5067 22.1522C42.9521 22.803 44.2904 23.4227 45.6434 24.0097C46.9923 24.5955 47.6046 25.5648 47.582 27.0693C47.5275 30.6808 47.5362 34.2936 47.5847 37.905C47.5967 38.7985 47.3966 39.3676 46.6067 39.9068C43.9307 41.7338 41.3219 43.6599 38.7017 45.5673C36.9478 46.8438 35.1435 47.0759 33.1855 46.0354C32.2514 45.5387 31.2568 45.1545 30.2854 44.7283L27.8089 43.5748L27.8076 43.5735C25.8955 42.7078 23.9794 41.8528 22.0706 40.9799L20.6678 40.317ZM24.6741 22.5364H24.5718C24.5718 22.0578 24.5719 21.5792 24.5721 21.1006C24.5725 19.9845 24.573 18.8685 24.5711 17.7522C24.5698 16.7011 24.5711 16.6911 25.5105 17.116C27.3386 17.9419 29.1646 18.7721 30.9904 19.6022C31.8792 20.0062 32.7679 20.4103 33.6569 20.8138C34.6385 21.2594 35.6193 21.7068 36.6001 22.1542C39.1374 23.3115 41.6753 24.4691 44.2266 25.5954C45.3176 26.0774 45.7318 26.8473 45.7231 27.9842C45.6992 31.0405 45.6992 34.0974 45.7085 37.1537C45.7098 37.6424 45.64 37.7853 45.1248 37.55C38.471 34.5136 31.8099 31.4939 25.1469 28.4782C24.7945 28.3186 24.6622 28.1072 24.6662 27.7189C24.6798 26.4523 24.6777 25.1851 24.6757 23.9183C24.6749 23.4577 24.6741 22.997 24.6741 22.5364ZM37.8215 43.7842C36.6128 44.6518 35.3489 44.7216 34.0159 44.1053C33.0897 43.6773 32.1587 43.2599 31.2274 42.8425L30.7581 42.632V42.6314L28.0097 41.3908C24.8663 39.9533 21.7203 38.5223 18.5745 37.0915L18.5683 37.0886L18.5632 37.0863L18.5559 37.083L18.5498 37.0802L18.5457 37.0784L18.5427 37.077L18.5407 37.0761L18.5397 37.0756C17.4575 36.5834 16.3753 36.0911 15.2932 35.5986C15.2696 35.5881 15.2493 35.5699 15.2128 35.5371C15.1896 35.5162 15.1598 35.4895 15.1183 35.455C15.4675 35.2032 15.8123 34.9541 16.1543 34.7071C16.9383 34.1408 17.7072 33.5853 18.4785 33.033C19.0145 32.649 19.552 32.267 20.0894 31.8849C21.3472 30.9909 22.6049 30.0968 23.8444 29.1782C24.2101 28.907 24.474 28.905 24.849 29.0759C28.6256 30.7943 32.4045 32.5069 36.1836 34.2196L36.1867 34.221L36.1898 34.2224L36.1929 34.2238L36.196 34.2252L36.2114 34.2322L36.3002 34.2724C37.5703 34.848 38.8404 35.4237 40.1105 35.9995L40.6627 36.2499L40.6633 36.2502L40.6639 36.2505L40.6645 36.2508L40.6651 36.2511L40.6657 36.2513L40.6664 36.2516L40.667 36.2519L40.6676 36.2522L40.6682 36.2525L40.6688 36.2527C42.0717 36.8889 43.4742 37.5249 44.8741 38.1676C44.9085 38.1833 44.9476 38.1978 44.9871 38.2124C45.1945 38.2889 45.412 38.3693 44.9998 38.6603C42.6509 40.3181 40.3153 41.9943 37.98 43.6704L37.8215 43.7842ZM37.9651 45.3619C36.7524 46.2189 35.44 46.4469 34.0365 45.7894L33.8364 45.6956C32.6831 45.1548 31.5289 44.6136 30.3493 44.1372H30.3486L27.6128 42.8774C25.23 41.7989 22.8488 40.7167 20.4677 39.6344C19.135 39.0287 17.8023 38.4229 16.4693 37.8179C15.708 37.4722 15.0339 37.0507 14.8205 35.9995C15.3409 36.2365 15.8538 36.4701 16.3612 36.7012L16.3617 36.7014C17.7947 37.3541 19.1835 37.9867 20.5734 38.617C21.5492 39.0594 22.5253 39.5011 23.5015 39.9427L23.5041 39.9439C24.9372 40.5923 26.3703 41.2407 27.8022 41.8914L30.4064 43.1008C30.7472 43.2516 31.0892 43.4 31.4312 43.5484L31.4317 43.5486C32.2439 43.901 33.056 44.2533 33.8517 44.6392C35.4652 45.4217 36.9312 45.1245 38.3227 44.1279C39.0175 43.6305 39.7066 43.1244 40.3957 42.6184C40.5919 42.4742 40.7882 42.3301 40.9846 42.1861C42.3594 41.1786 43.7404 40.1809 45.172 39.2619C46.128 38.6483 46.2723 37.9974 46.2563 37.0121C46.2065 33.89 46.2238 30.7659 46.249 27.6431C46.2583 26.5461 45.8348 25.7736 44.8342 25.3162C43.1257 24.5355 41.4177 23.7539 39.7097 22.9722L39.7058 22.9704L39.6967 22.9662L39.6931 22.9646L39.6909 22.9636C37.5503 21.9839 35.4096 21.0043 33.2679 20.0266C32.1731 19.5268 31.0773 19.0291 29.9816 18.5314C28.5052 17.8608 27.0286 17.1901 25.5544 16.5143C25.5301 16.5031 25.5049 16.4927 25.479 16.4822L25.4679 16.4777C25.3163 16.4163 25.1464 16.3475 25.0391 16.1007C25.7957 15.9232 26.4739 15.9372 27.146 16.2423C33.2566 19.0181 39.3672 21.7931 45.4838 24.5562C46.5562 25.0409 47.0475 25.8467 47.0449 27.0062C47.0375 30.7719 47.0342 34.5369 47.0488 38.3026C47.0508 38.7321 46.8919 38.99 46.5542 39.23C45.326 40.103 44.1011 40.981 42.8762 41.8591C41.2419 43.0306 39.6075 44.2021 37.9651 45.3619Z" fill="white"/>
<path fill-rule="evenodd" clip-rule="evenodd" d="M80.6753 51.3548C80.636 51.5416 80.4878 51.6493 80.3528 51.7577C78.7333 53.0561 77.1097 54.3492 75.4902 55.6477C75.2807 55.8152 75.0786 55.8691 74.822 55.7574C73.7715 55.2986 72.7158 54.8505 71.6633 54.3958C71.2524 54.2183 71.1534 54.0161 71.5636 53.6917C73.225 52.378 74.8785 51.0536 76.524 49.7199C76.7301 49.553 76.899 49.5364 77.125 49.6328C78.2207 50.1002 79.321 50.559 80.4166 51.0257C80.5543 51.0842 80.7205 51.14 80.6746 51.3548H80.6753ZM76.6782 50.3289C76.8378 50.1993 76.9561 50.1853 77.1489 50.2711C77.7255 50.5265 78.3084 50.7673 78.8915 51.0081C79.0824 51.0869 79.2732 51.1657 79.4639 51.2451L79.4753 51.2498C79.4753 51.2498 79.4754 51.2498 79.4753 51.2498L79.4639 51.2451C79.2732 51.1657 79.0824 51.0869 78.8915 51.0081C78.3084 50.7673 77.7255 50.5265 77.1489 50.2711C76.9561 50.1853 76.8378 50.1993 76.6782 50.3289L76.2987 50.6374C75.0498 51.6525 73.8006 52.6678 72.5323 53.6585C72.1799 53.9337 72.2809 54.0461 72.5987 54.177C72.8948 54.2995 73.1917 54.4203 73.4886 54.541C73.9057 54.7106 74.3228 54.8803 74.7375 55.0546C75.0394 55.1816 75.2668 55.1145 75.5214 54.909C76.4313 54.1742 77.3491 53.4488 78.2666 52.7235C78.6624 52.4106 79.0582 52.0978 79.4533 51.7843C79.5222 51.7296 79.5857 51.6673 79.6456 51.6086C79.6723 51.5823 79.6984 51.5568 79.7239 51.5329C79.7121 51.3479 79.5944 51.2992 79.4753 51.2498C79.4753 51.2498 79.4754 51.2498 79.4753 51.2498C79.5944 51.2992 79.7121 51.3479 79.7239 51.5329C79.6984 51.5568 79.6723 51.5823 79.6456 51.6086C79.5857 51.6673 79.5222 51.7296 79.4533 51.7843C79.0582 52.0978 78.6624 52.4106 78.2666 52.7235C77.3491 53.4488 76.4313 54.1742 75.5214 54.909C75.2668 55.1145 75.0394 55.1816 74.7375 55.0546C74.3228 54.8803 73.9057 54.7106 73.4886 54.541C73.1917 54.4203 72.8948 54.2995 72.5987 54.177C72.2809 54.0461 72.1799 53.9337 72.5323 53.6585C73.8006 52.6678 75.0498 51.6525 76.2987 50.6374L76.6782 50.3289Z" fill="white"/>
<path d="M87.8662 16.9597C89.2451 16.854 90.5023 17.0222 91.6219 17.8473C94.2015 19.7501 94.3611 23.5177 91.8008 25.6851C90.1586 27.0753 85.4515 27.1338 83.8652 25.6492C81.858 23.7704 81.4764 20.7187 83.2688 18.6345C84.1484 17.6113 85.3106 16.9843 86.7194 16.961C87.1176 16.9544 87.5165 16.9604 87.8675 16.9604L87.8662 16.9597ZM87.7013 26.1346C88.1089 26.1346 88.4406 26.1372 88.7724 26.1346C91.0189 26.1113 92.9051 24.4226 93.0753 22.2838C93.2654 19.9003 91.8021 17.9896 89.4831 17.5714C88.5816 17.4085 87.6734 17.4743 86.7725 17.5002C84.6949 17.5594 82.8792 19.3093 82.6658 21.3783C82.4477 23.4938 83.937 25.5954 85.992 26.0674C86.5817 26.2031 87.1828 26.0947 87.7013 26.1352V26.1346Z" fill="#5EFF9E"/>
<path d="M92.8047 13.4792C91.2337 13.4034 90.364 12.208 90.3002 10.8232C90.2404 9.52074 91.5495 8.27748 92.808 8.32402C94.5459 8.38851 95.4927 9.43963 95.5 10.9069C95.5079 12.5059 94.2853 13.4972 92.8047 13.4792ZM92.9204 8.95097C91.727 8.94964 90.9145 9.74812 90.9165 10.9209C90.9185 12.0385 91.7742 12.9427 92.8419 12.9567C93.9768 12.9713 94.9309 12.0438 94.9309 10.9256C94.9309 9.75942 94.1084 8.95163 92.9204 8.95097Z" fill="#5EFF9E"/>
<path d="M7.01644 44.8579C7.01644 44.5481 7.01844 44.2376 7.01578 43.9278C7.01379 43.7237 7.08093 43.5668 7.31097 43.5854C7.50112 43.6007 7.543 43.7496 7.54234 43.9238C7.53835 44.4776 7.56162 45.0321 7.53768 45.5846C7.52173 45.9509 7.63143 46.1065 8.01837 46.0892C8.57085 46.0646 9.12533 46.0866 9.67915 46.0819C9.90387 46.0799 10.0687 46.1218 10.0661 46.4017C10.0634 46.6882 9.8806 46.7122 9.66519 46.7115C9.15592 46.7102 8.64531 46.7341 8.13737 46.7049C7.69725 46.6789 7.48782 46.7953 7.53303 47.2846C7.57558 47.746 7.55696 48.2147 7.53635 48.6788C7.52771 48.8849 7.6886 49.2386 7.27241 49.218C6.88946 49.1987 7.02841 48.861 7.01977 48.6462C7.00115 48.1595 6.98719 47.6702 7.01711 47.1856C7.04171 46.7886 6.8755 46.6896 6.51449 46.7049C5.98394 46.7275 5.4514 46.7135 4.92019 46.7122C4.72207 46.7122 4.502 46.7434 4.50001 46.4349C4.49868 46.1304 4.68417 46.0746 4.93681 46.0779C5.40154 46.0839 5.87025 46.044 6.33099 46.0879C6.8868 46.1411 7.1042 45.943 7.01578 45.3891C6.98786 45.2163 7.01179 45.0354 7.01179 44.8586H7.01578L7.01644 44.8579Z" fill="#5EFF9E"/>
<path d="M87.1595 70.4046C87.093 70.485 87.0471 70.5575 86.9853 70.6114C86.8244 70.751 86.6868 70.6399 86.5784 70.5369C86.2274 70.2031 85.8777 69.8661 85.5473 69.511C85.1876 69.1248 84.8851 68.9958 84.5054 69.5184C84.2362 69.8893 83.8579 70.1792 83.5427 70.5189C83.3772 70.6971 83.2515 70.7244 83.0647 70.5429C82.834 70.3182 83.088 70.2284 83.1777 70.132C83.5361 69.7464 83.9018 69.3641 84.296 69.0164C84.6045 68.7445 84.6078 68.5437 84.3027 68.2671C83.8984 67.9008 83.5414 67.4819 83.1398 67.1123C82.967 66.9534 82.858 66.7779 83.0215 66.6183C83.1644 66.4787 83.3413 66.5332 83.5142 66.7253C83.8898 67.1415 84.3492 67.4819 84.7235 67.8988C84.9954 68.202 85.167 68.1614 85.411 67.8908C85.7347 67.5325 86.0778 67.1901 86.4328 66.8623C86.609 66.6994 86.8118 66.3577 87.0777 66.6323C87.3616 66.9248 86.9534 67.0897 86.8085 67.2565C86.5046 67.6049 86.1616 67.9234 85.8052 68.2199C85.4934 68.4799 85.4715 68.682 85.7846 68.9592C86.1469 69.2797 86.4794 69.6347 86.8171 69.9824C86.9368 70.1054 87.0345 70.2497 87.1602 70.4066L87.1595 70.4046Z" fill="#5EFF9E"/>
<path d="M45.5123 12.7499C45.7437 12.7539 45.8334 12.9607 45.9332 13.1169C46.1825 13.5072 46.3986 13.9174 46.6332 14.317C46.7277 14.4778 46.7536 14.7119 47.0282 14.6919C47.2861 14.674 47.3293 14.4539 47.4091 14.2837C47.7761 13.5052 48.1318 12.7207 48.4922 11.9381C48.6005 11.7021 48.6929 11.3617 49.0287 11.514C49.3458 11.6576 49.1198 11.9302 49.0254 12.1329C48.4961 13.2731 47.9556 14.4074 47.4277 15.5476C47.2509 15.9299 46.9823 15.9372 46.7842 15.638C46.249 14.8282 45.761 13.9865 45.2583 13.1555C45.0915 12.8802 45.2976 12.8131 45.5123 12.7499Z" fill="#5EFF9E"/>
<path d="M14.5259 28.6377C14.4607 28.9169 14.2214 28.9216 14.0066 28.8857C13.2859 28.7634 12.9934 29.032 13.1184 29.766C13.147 29.9355 13.2128 30.2134 12.9076 30.2287C12.5805 30.2446 12.5772 29.9687 12.6091 29.7547C12.7195 29.0213 12.427 28.7507 11.7029 28.8817C11.4922 28.9203 11.1963 28.915 11.195 28.6178C11.1937 28.3292 11.4437 28.2129 11.7182 28.2627C12.4349 28.393 12.7374 28.1311 12.6098 27.3925C12.5779 27.207 12.5593 26.951 12.8518 26.9437C13.2055 26.9344 13.1483 27.2329 13.1177 27.4277C13.0054 28.1371 13.3165 28.3711 13.984 28.274C14.2493 28.2355 14.4687 28.3106 14.5259 28.6377Z" fill="#5EFF9E"/>
</svg>
