<svg width="200" height="200" viewBox="0 0 200 200" fill="none" xmlns="http://www.w3.org/2000/svg">
<path d="M155.925 45.454C153.565 47.1908 152.207 47.9277 151.377 48.2253C150.203 48.6553 150.006 48.7966 150.57 48.8128C150.946 48.8236 151.78 48.5675 152.423 48.2646C153.065 47.9616 154.107 47.188 154.744 46.5726L155.925 45.454Z" fill="#04FFE1"/>
<path d="M121.645 19.4554C122.144 19.4554 123.085 19.6906 123.79 20.0139C124.466 20.3372 124.966 20.7193 124.878 20.8957C124.789 21.072 124.407 20.9838 123.937 20.6899C123.467 20.4254 122.585 20.0433 121.938 19.8375C120.822 19.4848 120.822 19.4554 121.645 19.4554Z" fill="#04FFE1"/>
<path d="M128.993 25.8923C129.081 25.8923 129.61 26.5977 130.168 27.4501C130.727 28.2731 131.461 29.6839 131.785 30.5362C132.108 31.3592 132.314 32.0646 132.226 32.0646C132.137 32.0646 131.667 31.2416 131.168 30.2423C130.638 29.2136 129.933 27.891 129.551 27.3031C129.169 26.6859 128.846 26.1274 128.846 26.0393C128.846 25.9511 128.904 25.8923 128.993 25.8923Z" fill="#04FFE1"/>
<path d="M134.371 38.6778C134.665 39.3245 135.341 40.4707 135.841 41.2643C136.37 42.0285 136.723 42.7045 136.634 42.7927C136.546 42.8809 136.076 42.3812 135.576 41.7052C135.077 40.9998 134.459 40.0005 134.254 39.5008C134.019 38.9718 133.842 38.2957 133.842 38.0312C133.842 37.7373 134.077 38.0312 134.371 38.6778Z" fill="#04FFE1"/>
<path d="M142.748 47.7306C143.512 48.1715 144.952 48.7299 147.803 49.4059L146.187 49.2296C145.305 49.1414 144.041 48.8475 143.395 48.5536C142.748 48.2596 142.013 47.7894 141.778 47.4954C141.425 47.0546 141.66 47.1133 142.748 47.7306Z" fill="#04FFE1"/>
<path d="M81.9947 23.0414C82.465 22.6887 82.7001 22.3654 82.4944 22.3654C82.318 22.3654 81.7302 22.8062 81.2011 23.3353C80.6721 23.835 80.0843 24.6579 79.8785 25.1576C79.6728 25.6573 79.4376 26.7154 79.3494 27.509L79.2025 28.9786C79.7609 26.4802 80.2018 25.2752 80.5545 24.7167C80.8778 24.1583 81.5245 23.3941 81.9947 23.0414Z" fill="#04FFE1"/>
<path d="M80.9366 38.3252C80.9366 36.3266 80.8191 35.2979 80.6133 35.2979C80.3782 35.2979 80.3488 36.1502 80.4957 38.1783C80.6133 39.736 80.7603 41.0881 80.8191 41.1763C80.9072 41.2644 80.9366 39.9712 80.9366 38.3252Z" fill="#04FFE1"/>
<path d="M57.2173 46.4668C56.4237 45.9672 55.4831 45.5851 55.0716 45.5851C54.4544 45.6145 54.4838 45.6732 55.3656 45.9672C55.9534 46.1729 56.8939 46.6726 57.5112 47.1134C58.099 47.5837 58.5987 47.8189 58.5987 47.6425C58.5987 47.4662 57.9814 46.9371 57.2173 46.4668Z" fill="#04FFE1"/>
<path d="M77.2038 48.0246C78.0562 47.1722 78.644 46.4374 78.5559 46.3493C78.4677 46.2905 77.3508 47.231 76.0575 48.4655C74.5879 49.8469 74.0883 50.4641 74.7055 50.1114C75.2346 49.8175 76.3515 48.8476 77.2038 48.0246Z" fill="#04FFE1"/>
<path d="M67.5632 51.7868C66.123 51.4929 64.1832 51.0226 63.3014 50.7581C62.4196 50.4935 61.8318 50.4054 61.9788 50.5523C62.1551 50.7287 63.272 51.1108 64.4771 51.4341C65.6822 51.728 67.4751 52.0807 68.445 52.1689C69.944 52.3158 69.8264 52.2571 67.5632 51.7868Z" fill="#04FFE1"/>
<path d="M72.3249 98.9315L71.9428 97.6089C71.7077 96.8741 71.5313 96.1687 71.5313 95.9923C71.5313 95.7964 71.6097 95.7964 71.7664 95.9923C71.9134 96.1687 72.1779 96.8447 72.707 98.7846C72.707 99.0911 72.6306 99.5496 72.3249 98.9315Z" fill="#04FFE1"/>
<path d="M71.0904 128.5L70.0029 129.44C69.3857 129.97 68.8272 130.293 68.7391 130.146C68.6509 130.028 69.1212 129.499 70.9141 128.03C71.5001 127.5 71.3904 128.24 71.0904 128.5Z" fill="#04FFE1"/>
<path d="M75.395 119.695L74.8725 121.035C74.5738 121.791 74.231 122.337 74.0844 122.248C73.9515 122.186 74.1203 121.498 75.0194 119.361C75.2903 118.619 75.5391 119.325 75.395 119.695Z" fill="#04FFE1"/>
<path d="M74.7394 107.467L75.0634 108.868C75.243 109.661 75.2682 110.306 75.097 110.315C74.9519 110.338 74.7036 109.675 74.2412 107.403C74.0464 106.638 74.65 107.081 74.7394 107.467Z" fill="#04FFE1"/>
<path fill-rule="evenodd" clip-rule="evenodd" d="M19.8601 55.2844C20.2422 55.2844 20.8888 55.6371 21.3297 56.0779C21.7706 56.5482 22.1527 57.1361 22.1527 57.4006C22.1527 57.6945 21.8294 58.3411 21.4179 58.8114C20.9476 59.3699 20.4186 59.6932 19.9483 59.6932C19.5368 59.6932 18.8902 59.3699 18.4787 58.9584C18.0672 58.5469 17.7439 57.9003 17.7439 57.4888C17.7733 57.0773 18.0966 56.4013 18.4787 56.0192C18.8608 55.6077 19.478 55.2844 19.8601 55.2844ZM21.124 56.5188C20.8594 56.1367 20.3892 55.8722 19.9777 55.8722C19.5662 55.8722 19.0371 56.1073 18.7726 56.3719C18.5081 56.6658 18.3317 57.2242 18.3905 57.6063C18.4199 57.9884 18.8314 58.5763 19.2723 58.929L20.0953 59.5462C21.2415 58.3999 21.5649 57.8708 21.5649 57.6357C21.5649 57.4006 21.3591 56.9009 21.124 56.5188Z" fill="#04FFE1"/>
<path d="M32.9396 50.2877C32.9984 50.2877 32.2636 51.0519 31.3524 51.9925C30.4119 52.933 29.6183 53.6678 29.5889 53.609C29.5301 53.5796 29.7358 53.1681 30.0298 52.7273C30.2943 52.2864 31.0585 51.581 31.6757 51.1107L31.7363 51.0694C32.3569 50.6462 32.8826 50.2877 32.9396 50.2877Z" fill="#04FFE1"/>
<path d="M28.1781 69.2456C28.5896 70.2155 28.9129 71.0385 28.9129 71.0679C28.9129 71.1267 28.7659 71.1561 28.6189 71.1561C28.4426 71.1561 28.1193 70.5388 27.8841 69.7452C27.649 68.981 27.4433 68.1581 27.4433 67.9229C27.4433 67.6878 27.796 68.2756 28.1781 69.2456Z" fill="#04FFE1"/>
<path d="M33.2041 77.9456C33.9977 78.6804 34.997 79.5328 35.4673 79.8561C35.9082 80.15 36.2021 80.4439 36.1139 80.4733C36.0257 80.5321 35.7024 80.4439 35.3791 80.2676C35.0558 80.0912 34.2328 79.474 33.5862 78.8568C32.9102 78.2689 32.2342 77.5047 32.0578 77.1814C31.9109 76.8581 32.4105 77.2108 33.2041 77.9456Z" fill="#04FFE1"/>
<path d="M68.0924 90.5548C68.7685 91.2896 69.5033 92.3477 69.709 92.9062C69.9147 93.4646 70.0323 93.8761 69.9735 93.7879C69.8854 93.6997 69.1506 92.7592 68.3276 91.6423C67.5046 90.5548 66.8286 89.5849 66.8286 89.4379C66.858 89.3203 67.4164 89.82 68.0924 90.5548Z" fill="#04FFE1"/>
<path d="M59.9215 84.0886C60.0978 84.0886 60.9208 84.5294 61.7732 85.0585C62.6255 85.5582 63.3015 86.0872 63.3015 86.2048C63.3015 86.3517 62.6843 86.0872 61.9201 85.6463C61.1265 85.2348 60.3035 84.7058 60.0684 84.4706C59.8333 84.2649 59.7745 84.0886 59.9215 84.0886Z" fill="#04FFE1"/>
<path d="M50.5748 132.291C50.7805 132.291 51.4272 132.556 51.9856 132.879C52.5441 133.203 53.0143 133.526 53.0143 133.614C53.0143 133.702 52.5147 133.555 51.8974 133.291C51.3096 133.056 50.663 132.732 50.516 132.556C50.3201 132.38 50.3397 132.291 50.5748 132.291Z" fill="#04FFE1"/>
<path d="M12.2769 125.825C12.9235 125.179 13.3644 124.65 13.2468 124.65C13.1292 124.65 12.4826 125.179 11.836 125.825C11.1894 126.472 10.7779 127.001 10.8954 127.001C11.013 127.001 11.6596 126.472 12.2769 125.825Z" fill="#04FFE1"/>
<path d="M8.39712 131.763C8.80861 130.763 9.10253 129.94 9.07314 129.94C9.01435 129.94 8.86739 130.117 8.69104 130.293C8.54408 130.499 8.04442 131.527 7.63293 132.586C7.22144 133.644 6.92752 134.525 7.01569 134.555C7.10387 134.614 7.28022 134.408 7.42718 134.114C7.57414 133.849 8.01502 132.791 8.39712 131.763Z" fill="#04FFE1"/>
<path d="M12.4826 153.483C11.9242 152.778 11.3657 152.131 11.2775 152.072C11.16 152.014 11.0718 152.043 11.0424 152.19C11.0424 152.308 11.3363 152.748 11.689 153.16C12.0711 153.571 12.6002 154.1 12.9235 154.336C13.2468 154.571 13.0411 154.189 12.4826 153.483Z" fill="#04FFE1"/>
<path d="M18.2141 157.716C17.4793 157.304 16.7445 156.981 16.5975 156.981C16.4211 156.981 16.3036 157.04 16.3036 157.128C16.3036 157.216 16.6563 157.451 17.0972 157.686C17.5674 157.921 18.2728 158.245 18.7137 158.421C19.184 158.597 19.5367 158.686 19.5367 158.597C19.5367 158.509 18.9489 158.127 18.2141 157.716Z" fill="#04FFE1"/>
<path d="M59.8833 133.032C60.9236 132.736 62.1713 132.326 62.6921 132.093C63.1724 131.869 63.5763 131.771 63.5555 131.861C63.5599 131.967 63.3164 132.197 62.9977 132.382C62.6789 132.566 61.7237 132.948 60.8602 133.18C60.0066 133.451 59.0023 133.631 58.6344 133.614C58.2818 133.571 58.8429 133.328 59.8833 133.032Z" fill="#04FFE1"/>
<path d="M47.3272 82.5374C48.4056 82.6186 49.7183 82.6637 50.2876 82.624C50.8157 82.5797 51.2286 82.6268 51.1779 82.7047C51.1455 82.8056 50.8376 82.9378 50.4747 83.001C50.1119 83.0642 49.0836 83.0933 48.1933 83.0127C47.2984 82.9734 46.2936 82.796 45.9543 82.6527C45.6381 82.4912 46.2487 82.4562 47.3272 82.5374Z" fill="#04FFE1"/>
<path fill-rule="evenodd" clip-rule="evenodd" d="M68.592 142.285C69.1504 142.285 69.8265 142.432 70.091 142.638C70.3555 142.843 70.7964 143.343 71.0609 143.754C71.3255 144.166 71.5312 144.959 71.5312 145.518C71.5606 146.135 71.2961 146.899 70.914 147.428C70.5613 147.899 69.8265 148.78 69.268 149.339C68.5626 150.074 68.2393 150.72 68.1217 151.69C68.0042 152.631 68.0923 153.395 68.4744 154.336C68.7684 155.07 69.3268 155.981 69.6795 156.393C70.0616 156.804 70.2967 157.216 70.2086 157.334C70.1204 157.48 69.944 157.569 69.7677 157.569C69.5913 157.569 69.3856 157.275 69.2974 156.893C69.2092 156.54 68.739 155.658 68.2687 154.923C67.7396 154.071 67.4163 153.189 67.4163 152.484C67.4163 151.896 67.5633 151.044 67.7396 150.573C67.916 150.132 68.6508 149.104 69.3856 148.31C70.091 147.487 70.767 146.576 70.8552 146.253C70.9434 145.929 70.914 145.312 70.8258 144.842C70.7376 144.401 70.3849 143.784 70.0616 143.46C69.7383 143.137 69.0917 142.873 68.592 142.873C68.1217 142.873 67.2988 143.078 66.7697 143.314C66.0937 143.607 65.6528 144.137 65.2413 145.136C64.918 145.929 64.6241 146.37 64.5653 146.165C64.5065 145.988 64.7416 145.283 65.065 144.636C65.3883 143.99 66.0937 143.196 66.5933 142.873C67.1224 142.549 68.0336 142.285 68.592 142.285ZM54.1899 166.092C54.4544 166.092 54.8365 166.239 55.0423 166.445C55.248 166.651 55.395 167.033 55.395 167.268C55.3656 167.503 55.1598 167.856 54.8659 168.062C54.6014 168.267 54.1899 168.444 53.9842 168.444C53.8078 168.444 53.4551 168.12 53.2494 167.709C52.9554 167.15 52.9848 166.915 53.3081 166.533C53.5139 166.298 53.9254 166.092 54.1899 166.092ZM43.2561 166.68C43.4618 166.68 43.7557 166.945 43.9321 167.268C44.1378 167.68 44.1084 168.003 43.8439 168.297C43.6676 168.561 43.1973 168.767 42.8152 168.738C42.4037 168.738 42.1098 168.502 41.9922 168.062C41.8746 167.621 41.9628 167.297 42.3449 167.033C42.6388 166.857 43.0503 166.68 43.2561 166.68ZM31.8814 167.621C32.4398 167.679 32.6455 167.885 32.6749 168.502C32.7337 169.032 32.5868 169.414 32.2341 169.619C31.8814 169.796 31.5287 169.766 31.0584 169.472C30.7057 169.237 30.3824 168.855 30.353 168.649C30.3236 168.444 30.4705 168.091 30.7057 167.915C30.9408 167.709 31.4699 167.562 31.8814 167.621ZM13.1292 168.885C13.335 168.943 14.2461 170.031 15.1573 171.295C16.0684 172.559 17.4793 174.645 18.2729 175.939C19.0664 177.232 19.9188 178.613 20.1245 179.025C20.4773 179.701 20.4773 179.73 20.007 179.319C19.7131 179.084 18.0671 176.762 16.333 174.175C14.5988 171.589 13.0705 169.296 12.9823 169.09C12.8647 168.885 12.9235 168.796 13.1292 168.885ZM22.6229 182.258C22.858 182.258 23.1225 182.405 23.2107 182.552C23.2989 182.699 23.2989 183.052 23.2107 183.287C23.1225 183.522 22.858 183.728 22.6229 183.728C22.3877 183.728 22.1232 183.581 22.035 183.434C21.9469 183.287 21.9469 182.934 22.035 182.699C22.0938 182.464 22.3583 182.258 22.6229 182.258Z" fill="#15006A"/>
<path d="M50.6041 153.542C58.8045 153.601 59.2159 153.63 60.0095 154.218C60.4504 154.541 60.9795 155.276 61.1852 155.835C61.3616 156.393 61.8024 159.156 62.1845 161.977C62.5372 164.799 62.8606 168.591 62.8606 170.354C62.8899 172.47 62.743 173.999 62.4785 174.763C62.2433 175.41 61.6849 176.35 61.2734 176.82C60.8325 177.291 59.8038 177.996 58.9808 178.349C57.9521 178.79 56.6294 179.084 55.0129 179.172C53.6902 179.26 50.8098 179.378 48.6348 179.466C46.4598 179.524 43.5206 179.613 39.5233 179.613L38.6415 180.935C38.1419 181.67 37.0544 182.699 36.202 183.257C35.379 183.786 34.1152 184.433 33.4391 184.639C32.7631 184.874 32.0871 184.933 31.9695 184.815C31.852 184.668 31.9401 183.551 32.2047 182.317C32.4692 181.082 32.6749 180.024 32.6455 180.024C32.6455 179.995 31.8814 180.083 30.9996 180.23C30.0003 180.377 28.7658 180.377 27.7665 180.201C26.8847 180.024 25.8266 179.671 25.4151 179.378C25.0036 179.054 24.504 178.437 24.2688 177.967C24.0337 177.496 23.681 176.056 23.4458 174.763C23.1813 173.323 23.005 169.972 22.9756 166.181C22.9435 163.563 22.9026 161.937 22.8241 161C22.8241 160.53 23.1798 159.496 23.3577 159.038C23.3577 158.715 23.5634 158.039 23.7985 157.569C24.0337 157.098 24.2982 156.687 24.3864 156.687C24.4746 156.687 24.357 157.187 24.1219 157.774C23.9161 158.392 23.6222 160.478 23.534 162.418C23.4165 164.358 23.4752 167.915 23.6222 170.354C23.7985 172.764 24.1219 175.498 24.357 176.38C24.5921 177.291 25.1212 178.319 25.5621 178.731C26.2675 179.436 26.4732 179.466 33.351 179.466L33.1746 180.494C33.0864 181.053 32.8219 182.229 32.1753 184.609L34.2915 183.551C35.6729 182.875 36.9662 181.935 39.3763 179.378L47.7531 179.084C52.3676 178.907 56.6001 178.672 57.1585 178.584C57.7169 178.466 58.7457 178.084 59.4217 177.673C60.1271 177.291 60.9207 176.615 61.244 176.144C61.5379 175.704 61.9494 174.822 62.1551 174.175C62.4197 173.323 62.4785 171.824 62.3609 168.738C62.2727 166.386 61.92 162.624 61.5673 160.361C61.2146 158.098 60.7443 155.893 60.5092 155.423C60.2741 154.982 59.8332 154.483 59.5099 154.336C59.1866 154.189 57.0997 153.953 54.8659 153.865C52.6615 153.777 47.7824 153.836 44.079 154.012C40.3463 154.189 36.8486 154.424 36.2902 154.541C35.7023 154.629 35.379 154.6 35.4966 154.453C35.6435 154.306 37.1719 154.042 38.8767 153.836C40.6696 153.66 45.6956 153.513 50.6041 153.542Z" fill="#15006A"/>
<path d="M105.92 20.0139C106.596 18.4855 107.331 16.7808 107.566 16.2811C107.771 15.7521 108.007 15.3112 108.095 15.3112C108.154 15.3112 108.183 15.3994 108.183 15.5463C108.154 15.6639 109.124 17.5156 110.329 19.6612C111.534 21.8068 112.474 23.5997 112.386 23.6585C112.298 23.7173 110.329 23.8937 103.715 24.2464L104.215 23.5116C104.48 23.1295 105.244 21.5423 105.92 20.0139Z" fill="#003FFF"/>
<path fill-rule="evenodd" clip-rule="evenodd" d="M110.623 3.55441V4.73009C110.623 5.37672 110.681 6.11152 110.77 6.34665C110.867 6.64058 111.308 6.78754 112.092 6.78754C113.15 6.78754 113.268 6.87571 113.385 7.61051C113.474 8.05139 113.591 8.90376 113.856 10.6085L115.972 10.4321C117.148 10.344 118.294 10.197 118.47 10.1382C118.735 10.0501 118.911 10.5791 118.999 11.8724C119.087 12.8717 119.293 16.0166 119.44 18.8383C119.617 21.6599 119.852 25.5397 120.175 30.8302L119.44 31.0066C119.029 31.0947 115.854 31.3005 112.386 31.4768C108.918 31.6532 104.068 31.9177 101.658 32.0647C99.2185 32.2116 96.2205 32.4468 92.6934 32.7995V28.8316L90.7829 28.3025L92.5465 28.2437L92.3407 26.5684C92.2231 25.6278 91.8998 22.1008 91.6353 18.6913C91.2532 13.5477 91.2238 12.4896 91.5765 12.3132C91.7823 12.1957 92.3701 12.0781 92.8404 12.0781C93.3107 12.0781 98.1016 11.7254 103.422 11.3433C108.741 10.9318 113.15 10.5497 113.209 10.5203C113.268 10.4909 113.238 9.84431 113.15 9.08011C113.033 8.11018 112.798 7.61051 112.474 7.46355C112.18 7.37538 108.712 7.58112 104.744 7.93382C100.776 8.28653 95.3093 8.78619 92.5465 9.02133C89.7836 9.25647 87.5204 9.46221 87.491 9.52099C87.491 9.55039 87.7556 13.2244 88.1377 17.6626C88.5198 22.1008 88.9312 26.4508 89.0194 27.3032C89.1076 28.2143 89.0488 28.8316 88.8725 28.8316C88.6961 28.8316 88.5785 28.1849 88.5785 27.362C88.5785 26.5684 88.461 25.8336 88.2846 25.7454C88.1083 25.6572 88.0789 25.4221 88.167 25.2457C88.2846 25.04 88.1377 22.4241 87.8731 19.4261C87.5792 16.4281 87.2853 12.9011 87.1677 11.5784C87.0501 10.2264 86.962 9.1389 86.962 9.1389L92.8404 8.55106C96.0735 8.22774 101.305 7.69869 104.45 7.37538C107.595 7.02267 110.211 6.72875 110.27 6.69936C110.299 6.66997 110.299 6.05273 110.182 3.99529L102.981 4.49496C99.0127 4.75948 92.9873 5.0828 89.5485 5.22976C83.6407 5.46489 83.288 5.49429 83.1998 6.05273C83.1116 6.46422 83.0528 6.40544 83.0234 5.84699C83.0234 5.34733 83.1704 4.96523 83.4349 4.87705C83.6701 4.78888 85.1691 4.73009 86.7562 4.73009C88.314 4.73009 91.9292 4.58313 94.7509 4.43617C97.5725 4.25982 101.482 4.02468 103.422 3.87772L103.466 3.87501C105.398 3.7579 107.793 3.61274 110.623 3.55441ZM109.711 17.4274C108.83 15.7815 108.036 14.4294 107.918 14.4294C107.801 14.4294 107.654 14.5764 107.536 14.7234C107.448 14.8703 107.448 15.0173 107.536 15.0173C107.625 15.0173 107.301 15.7815 106.831 16.6926C106.39 17.6332 105.89 18.6913 105.773 19.0734C105.655 19.4555 105.067 20.7781 104.509 22.0126C103.921 23.2471 103.392 24.364 103.363 24.4815C103.304 24.6285 104.186 24.7167 105.332 24.7167C106.772 24.7167 107.389 24.8342 107.389 25.0694C107.389 25.2751 107.154 25.8042 106.86 26.245C106.596 26.6859 105.949 27.3325 105.479 27.6559C105.009 27.9792 104.274 28.2437 103.862 28.2437C103.451 28.2437 102.54 27.9498 101.805 27.5677C101.041 27.1856 100.13 26.392 99.6005 25.6572C99.1303 24.9812 98.6012 24.4227 98.4249 24.4521C98.2485 24.4521 98.3073 24.5109 98.4836 24.5991C98.6894 24.6579 98.807 24.8342 98.7188 25.0106C98.6306 25.1869 98.6894 25.3045 98.8657 25.3045C99.0421 25.3045 99.1597 25.4808 99.1597 25.6572C99.1597 25.8629 99.5711 26.4508 100.1 26.9505C100.629 27.4795 101.364 28.038 101.717 28.2143C102.099 28.3907 102.745 28.567 103.186 28.5964C103.657 28.6258 104.421 28.5376 104.891 28.4494C105.361 28.3319 106.126 27.891 106.566 27.4501C107.007 26.9798 107.566 26.1275 107.801 25.5102C108.271 24.4233 108.301 24.4227 109.944 24.3934L109.947 24.3933C110.887 24.3933 111.945 24.364 112.298 24.3346C112.621 24.3052 113.003 24.217 113.091 24.1288C113.209 24.0406 112.827 23.1883 112.298 22.2183C111.739 21.2484 110.593 19.1028 109.711 17.4274ZM105.126 18.0153C104.832 17.8095 104.039 17.6626 103.333 17.6626C102.657 17.6626 102.099 17.8095 102.099 17.9565C102.099 18.1034 102.892 18.2798 103.862 18.3092C105.361 18.3974 105.567 18.3386 105.126 18.0153Z" fill="#003FFF"/>
<path d="M83.4643 7.08146C83.5231 7.31659 83.7876 9.37403 84.0228 11.6372C84.2873 13.9004 84.7282 17.8683 85.0221 20.4548C85.316 23.0413 85.6687 25.3633 85.8157 25.5984C86.0214 25.8924 85.9626 25.9805 85.6393 25.863C85.3454 25.7454 85.1397 25.0988 84.9927 23.8055C84.9045 22.7768 84.4636 18.9264 84.0522 15.2524C83.6407 11.549 83.3174 8.11018 83.3174 7.61051C83.3467 7.08146 83.4055 6.84632 83.4643 7.08146Z" fill="#003FFF"/>
<path d="M126.847 3.14292C127.787 5.0828 128.552 6.72875 128.552 6.87571C128.552 6.99328 128.258 7.08146 127.905 7.08146C127.454 7.08146 127.356 7.00308 127.611 6.84632C127.905 6.69936 127.67 5.93517 126.582 3.6132C125.818 1.96724 125.113 0.615208 125.025 0.615208C124.936 0.615208 124.172 1.93785 123.349 3.55441C122.291 5.55307 121.909 6.52301 122.174 6.61118C122.35 6.69936 122.291 6.75814 122.027 6.75814C121.733 6.78753 121.498 6.72875 121.498 6.64057C121.498 6.5524 122.115 5.25915 122.85 3.78955C123.614 2.29055 124.437 0.732776 124.701 0.35068C125.172 -0.325337 125.201 -0.325336 126.847 3.14292Z" fill="#003FFF"/>
<path fill-rule="evenodd" clip-rule="evenodd" d="M118.622 47.7614C118.621 47.8501 118.541 47.9198 118.448 47.9052C118.342 47.8948 118.058 48.0148 117.83 48.1755C117.603 48.3363 117.266 48.7082 117.112 49.0074C116.941 49.2975 116.694 49.5821 116.574 49.6203C116.441 49.6627 116.147 49.8446 115.928 50.032C115.709 50.2195 115.416 50.5921 115.298 50.8652C115.175 51.125 115.046 51.5044 115.022 51.7035C114.979 51.8935 115.032 52.2888 115.125 52.5828C115.223 52.8901 115.242 53.4578 115.174 53.8913C115.106 54.3248 115.121 54.8791 115.202 55.133C115.282 55.3869 115.525 55.7805 115.743 56.0053C115.943 56.221 116.232 56.3937 116.378 56.3913C116.507 56.3799 116.745 56.4366 116.885 56.5095C117.025 56.5825 117.216 56.8601 117.297 57.114C117.377 57.3678 117.502 57.6667 117.576 57.7608C117.649 57.855 117.852 57.8934 118.039 57.834C118.225 57.7747 118.636 57.7762 118.962 57.8341C119.324 57.9103 119.793 57.8639 120.205 57.7325C120.578 57.6137 121.166 57.2942 121.523 57.0334C121.876 56.7592 122.28 56.5567 122.4 56.5629C122.519 56.569 122.92 56.6768 123.28 56.7973C123.866 56.9787 124.025 56.9721 125.57 56.3916L126.325 56.8281C126.812 57.1145 127.313 57.2636 127.68 57.2645C127.999 57.2514 128.588 57.1225 129.699 56.6953L130.462 59.4682C130.951 61.2397 131.295 62.2777 131.414 62.3282C131.524 62.3962 131.726 62.111 132.035 61.5126C132.289 60.9754 132.595 60.5543 132.755 60.5034C132.901 60.4568 133.267 60.5463 133.548 60.6922C133.956 60.9154 134.1 61.0903 134.252 61.5713C134.392 62.0123 134.393 62.2916 134.242 62.6485C134.133 62.904 133.818 63.2984 133.546 63.5472C133.424 63.6503 133.283 63.7711 133.146 63.8881L133.142 63.8914C132.968 64.0403 132.802 64.1828 132.692 64.2751C132.357 64.5584 132.351 64.6337 132.542 66.2502C132.658 67.1695 132.933 69.1418 133.147 70.6035C133.474 72.6475 133.527 73.3221 133.379 73.5017C133.289 73.6334 133.154 73.7644 133.074 73.7899C133.008 73.8111 132.137 74.5299 131.162 75.3847C130.183 76.2261 128.743 77.5086 127.964 78.2421C127.181 78.9622 126.546 79.547 126.546 79.547C126.546 79.547 126.507 79.4711 126.482 79.3909C126.439 79.3017 125.928 78.4785 125.361 77.5704C124.794 76.6622 124.211 75.7006 124.086 75.4461C123.896 75.0799 123.85 74.5206 123.868 73.1909C123.881 72.2158 123.849 71.2844 123.798 71.124C123.739 70.8926 123.441 70.7376 122.631 70.4953C122.046 70.3139 121.4 70.0341 121.194 69.8494C120.993 69.678 120.606 69.1981 120.333 68.7996C119.987 68.2626 119.683 67.5355 119.224 66.1369C118.684 64.4843 118.622 64.1953 118.808 64.1802C118.923 64.173 119.331 64.0725 119.69 63.9581C120.067 63.8527 120.468 63.6368 120.607 63.4748C120.746 63.3128 120.933 62.8412 121.028 62.3992C121.126 61.9706 121.177 61.4394 121.154 61.2263C121.126 60.9998 121.208 60.797 121.314 60.7631C121.421 60.7292 121.553 60.7311 121.601 60.7894C121.658 60.8302 121.529 61.5775 121.336 62.448C121.13 63.3228 121.003 64.2608 121.03 64.5316C121.087 64.896 121.187 65.0703 121.428 65.1847C121.604 65.2759 122.08 65.3448 122.474 65.3372C122.885 65.3388 123.252 65.2953 123.297 65.2516C123.355 65.2037 123.061 65.062 122.656 64.9409C122.246 64.8064 121.86 64.6501 121.794 64.5826C121.733 64.5285 121.79 63.922 121.931 63.2591L122.002 62.8752C122.105 62.3217 122.204 61.7863 122.232 61.5744C122.299 61.1852 122.388 61.0979 123.436 60.7495L123.733 61.6848C123.928 62.2994 124.182 62.7775 124.452 63.074C124.666 63.3297 125.082 63.6239 125.354 63.7431C125.626 63.8624 126.116 63.9714 126.438 63.9717C126.792 63.9768 127.394 63.8437 127.905 63.6516C128.727 63.331 128.807 63.2612 129.156 62.6058C129.41 62.1129 129.523 61.5914 129.547 60.8337C129.563 60.2399 129.508 59.4189 129.442 59.0279C129.319 58.3611 129.266 58.2894 128.906 58.1689C128.694 58.1038 127.794 58.0375 126.897 58.029C126.013 58.0162 124.987 58.0633 124.624 58.1201C124.124 58.206 123.932 58.2963 123.797 58.516C123.702 58.6787 123.59 59.1115 123.537 59.4521C123.488 59.806 123.351 60.1144 123.241 60.1349C123.134 60.1688 122.612 60.1879 121.123 60.1619L120.907 59.4804C120.776 59.0663 120.581 58.7309 120.415 58.6221C120.266 58.5224 119.481 58.3603 118.683 58.2468C117.611 58.1027 117.054 58.1035 115.9 58.4414L115.809 59.3533C115.746 60.1238 115.798 60.4748 116.18 61.6773C116.6 63 116.665 63.1118 117.203 63.5585C117.757 64.013 117.775 64.0674 118.496 66.2021L118.502 66.2195C119.013 67.7342 119.389 68.644 119.723 69.1409C119.983 69.5437 120.396 70.0595 120.645 70.2892C120.894 70.5189 121.522 70.8339 122.041 70.9922C122.543 71.1413 122.978 71.3116 122.986 71.3827C123.003 71.4361 122.992 72.2783 122.966 73.2576C122.921 74.5958 122.858 75.0426 122.699 75.0492C122.58 75.043 121.751 75.2482 120.863 75.5014C119.976 75.7545 118.737 76.1932 118.101 76.4987C117.474 76.7866 115.948 77.6112 114.723 78.325C113.498 79.0387 111.748 80.0817 110.847 80.6627C109.943 81.2303 108.311 82.3238 107.218 83.0838C106.121 83.8304 104.363 85.126 103.291 85.9528C102.219 86.7795 99.8477 88.6824 98.0114 90.1941C96.1618 91.7101 94.5009 92.9893 94.3012 93.053C94.0882 93.1208 93.5361 93.0906 93.0603 92.9773C92.5888 92.8774 89.665 92.0725 86.5481 91.1673C83.4487 90.2712 80.1636 89.3901 79.2556 89.2085C78.3476 89.0268 77.3198 88.8834 76.9531 88.8825C76.4846 88.8846 76.1699 88.9554 75.8667 89.1549C75.5369 89.3629 75.3729 89.4004 75.1623 89.291C75.0085 89.2222 74.5024 89.0597 73.1634 88.7211L73.1551 87.6792C73.1451 87.0939 73.0891 86.3173 73.0236 85.9262C72.9125 85.2995 72.8562 85.2145 72.4875 85.0229C72.2284 84.8995 71.9149 84.8816 71.6486 84.9664C71.4089 85.0428 71.0743 85.2817 70.8947 85.5008C70.7283 85.7156 70.4683 86.328 70.342 86.8538C70.2067 87.3971 70.0641 87.825 70.0241 87.8378C69.9842 87.8505 68.9393 87.3299 67.6837 86.7C66.2876 85.997 65.1011 85.4922 64.6029 85.4007C63.9855 85.3031 63.7113 85.3168 63.528 85.4782C63.3719 85.5868 63.1819 85.9121 63.0985 86.2035C62.9468 86.649 62.9632 86.7468 63.2115 87.0208C63.438 87.2723 63.4592 87.3392 63.3031 87.4477C63.147 87.5563 63.1512 87.5696 63.3582 87.6214C63.4817 87.6409 63.5689 87.7309 63.5326 87.8013C63.483 87.8759 63.3238 87.8825 63.1658 87.8004C62.9636 87.7177 62.747 87.7278 62.5552 87.8625C62.3682 87.9661 62.2412 88.2126 62.2292 88.4518C62.2075 88.7529 62.2978 88.9449 62.5987 89.2463C62.7992 89.462 62.9767 89.7438 62.9707 89.8634C62.9687 90.0112 62.8616 90.0894 62.6494 90.0982C62.4194 90.1126 62.2584 90.2521 62.1133 90.5337C61.9954 90.7625 61.9689 91.0946 62.0368 91.3084C62.1004 91.5088 62.3699 91.8497 62.6188 92.0794C62.8767 92.2915 63.6311 92.728 64.2812 93.0211C64.9357 93.3276 66.1718 93.7578 67.035 93.9832C67.9115 94.2042 69.1834 94.6084 69.8693 94.8754C70.5685 95.1383 71.2229 95.4448 71.3186 95.5614C71.4451 95.6829 71.4906 95.9186 71.4381 96.2148C71.4037 96.4759 71.4189 96.6623 71.4988 96.6369C71.5787 96.6114 71.6574 96.6746 71.6871 96.7681C71.7126 96.8483 72.6008 97.5217 73.6651 98.2421C74.7162 98.9666 76.3194 100.045 77.2397 100.635C78.1467 101.228 80.1458 102.446 81.672 103.328C82.661 103.914 83.8348 104.592 84.7666 105.13C85.2642 105.417 85.6928 105.665 85.9875 105.837C86.8339 106.333 88.7348 107.287 90.1889 107.942C91.6473 108.61 93.1723 109.258 93.573 109.365C93.978 109.487 94.714 109.635 95.217 109.695C95.72 109.756 96.6171 109.764 97.2054 109.724C98.0769 109.652 98.906 109.447 101.613 108.6C103.455 108.028 105.634 107.275 106.461 106.923C107.288 106.572 108.007 106.299 108.06 106.326C108.113 106.353 108.373 108.418 108.64 110.923C108.921 113.423 109.238 116.176 109.346 117.024C109.458 117.886 109.722 119.685 109.943 121.027C110.229 122.805 110.517 124.081 111.012 125.689C111.686 127.857 111.717 127.907 112.236 128.388C112.542 128.659 113.143 129.027 113.595 129.206C114.035 129.39 114.765 129.657 115.223 129.806C115.68 129.954 116.363 130.12 116.751 130.187C117.074 130.233 117.357 130.281 117.456 130.298L117.492 130.304C117.505 130.3 117.638 131.273 117.76 132.441C117.886 133.622 118.03 134.768 118.071 134.99C118.105 135.164 118.144 135.432 118.179 135.668C118.191 135.751 118.203 135.831 118.214 135.901C118.254 136.167 118.315 136.589 118.343 136.816C118.362 137.06 118.576 138.242 118.816 139.46C119.056 140.679 119.647 143.139 120.154 144.919C120.661 146.7 121.643 149.933 122.344 152.093C123.044 154.253 123.85 156.513 124.129 157.115C124.422 157.713 124.957 158.661 125.343 159.23C125.716 159.802 126.516 160.754 127.105 161.361C127.689 161.954 128.519 162.72 128.947 163.054C129.3 163.309 129.725 163.646 130.01 163.871C130.079 163.926 130.14 163.974 130.19 164.012C130.43 164.215 131.39 164.792 132.307 165.28C133.229 165.781 134.05 166.152 134.148 166.136C134.228 166.11 134.333 166.165 134.363 166.258C134.402 166.334 134.814 166.526 135.294 166.653C135.775 166.78 136.188 166.928 136.209 166.994C136.226 167.048 136.358 167.094 136.508 167.105C136.641 167.107 136.989 167.188 137.249 167.267C137.526 167.355 137.882 167.462 138.054 167.496C138.23 167.542 139.205 167.703 140.224 167.864C141.242 168.025 142.602 168.151 143.247 168.152C143.892 168.152 145.352 168.085 146.497 167.999C147.643 167.914 149.369 167.762 150.347 167.656C150.882 167.598 151.408 167.539 151.807 167.494L151.809 167.494C152.138 167.457 152.381 167.43 152.471 167.421C152.617 167.407 152.819 167.391 152.989 167.378L153.157 167.364C153.329 167.353 153.454 167.284 153.428 167.204C153.407 167.137 152.807 166.446 152.083 165.691C151.368 164.918 150.493 163.961 150.14 163.543C149.958 163.328 149.742 163.08 149.547 162.855C149.364 162.645 149.199 162.455 149.096 162.331C149.06 162.289 149.019 162.24 148.974 162.188C148.91 162.113 148.839 162.031 148.764 161.945C148.576 161.727 148.366 161.485 148.208 161.29C147.934 160.98 146.76 159.456 145.587 157.932C144.428 156.403 143.038 154.521 142.505 153.764C141.984 153.003 141.235 151.888 140.863 151.271C140.326 150.412 140.099 149.881 139.448 147.602L140.591 149.445C141.236 150.461 142.423 152.26 143.269 153.447C144.102 154.638 145.578 156.655 146.551 157.919C147.511 159.187 149.082 161.041 150.028 162.035C150.973 163.028 152.566 164.581 153.566 165.468C154.571 166.37 156.1 167.677 156.957 168.39C157.831 169.112 158.562 169.659 158.594 169.62C158.625 169.58 158.664 169.612 158.703 169.688C158.733 169.781 159.24 170.223 159.813 170.688C160.399 171.149 161.348 171.876 161.939 172.306C162.167 172.481 162.399 172.657 162.607 172.814C162.931 173.059 163.197 173.26 163.295 173.345C163.453 173.472 163.733 173.662 163.909 173.753C164.071 173.849 164.32 174.034 164.469 174.178C164.599 174.313 165.085 174.688 165.54 175.014C165.991 175.326 166.382 175.54 166.418 175.47C166.437 175.39 166.459 175.413 166.427 175.497C166.412 175.589 166.818 175.946 167.344 176.308C167.869 176.67 168.417 177.01 168.567 177.066C168.756 177.153 168.773 177.162 168.606 177.142C168.482 177.122 168.705 177.316 169.103 177.601C169.511 177.869 169.953 178.154 170.081 178.232C170.133 178.264 170.218 178.318 170.318 178.382C170.458 178.472 170.628 178.581 170.777 178.672C171.036 178.839 171.246 178.993 171.259 179.033C171.271 179.073 171.464 179.218 171.683 179.354C171.916 179.486 172.393 179.79 172.744 180.017C173.099 180.257 173.576 180.561 173.813 180.706C174.032 180.842 174.225 180.987 174.238 181.027C174.25 181.067 174.443 181.212 174.662 181.348C174.869 181.465 175.398 181.795 175.898 182.105L176.082 182.22C176.512 182.487 176.959 182.749 177.201 182.891C177.267 182.93 177.318 182.96 177.349 182.979C177.494 183.065 177.915 183.328 178.274 183.582C178.629 183.822 179.673 184.431 180.607 184.928C181.529 185.429 182.526 185.891 182.812 185.961C183.112 186.028 183.328 186.018 183.343 185.925C183.362 185.845 183.473 185.78 183.614 185.809C183.776 185.826 183.873 185.746 183.904 185.569C183.929 185.415 184.068 185.253 184.214 185.206C184.374 185.155 184.778 185.321 185.251 185.655C185.663 185.936 186.069 186.292 186.142 186.431C186.216 186.569 186.719 187.969 187.259 189.533C187.965 191.618 188.44 192.79 189.005 193.876C189.436 194.68 190.003 195.633 190.272 195.973C190.537 196.301 190.983 196.689 191.251 196.839C191.584 197.012 191.858 197.043 192.164 196.945C192.39 196.873 192.605 196.717 192.641 196.602C192.661 196.478 192.769 196.311 192.889 196.229C192.992 196.137 193.184 195.355 193.306 194.492C193.423 193.616 193.523 192.084 193.537 191.064C193.537 190.049 193.517 188.511 193.472 187.628C193.43 186.758 193.384 185.875 193.365 185.676C193.338 185.519 193.291 184.998 193.24 184.43L193.223 184.244L193.201 184.006C193.145 183.274 192.986 182.221 192.631 180.686L191.08 179.635C190.222 179.056 189.157 178.38 188.709 178.125C188.266 177.883 187.899 177.559 187.874 177.434C187.863 177.306 187.819 176.981 187.778 176.715C187.721 176.351 187.513 176.019 186.938 175.364C186.511 174.897 185.587 173.926 184.867 173.228C184.161 172.526 183.118 171.505 182.546 170.951C181.992 170.407 181.338 169.777 181.111 169.569C180.996 169.465 180.724 169.21 180.379 168.885L180.377 168.884C180.04 168.568 179.634 168.186 179.234 167.813C178.435 167.053 177.562 166.242 177.295 166.003C177.042 165.76 176.213 164.994 175.453 164.309C174.706 163.62 173.467 162.397 172.696 161.583C171.915 160.787 170.935 159.731 170.508 159.264C170.081 158.796 169.092 157.714 166.914 155.333L165.683 151.826C164.997 149.896 163.243 144.835 161.771 140.566C160.285 136.302 158.559 131.467 157.948 129.823C156.936 127.188 156.83 126.81 156.969 126.647C157.059 126.56 157.602 126.284 158.171 126.044C158.744 125.818 159.607 125.396 160.079 125.128C160.564 124.855 161.131 124.425 161.36 124.175C161.584 123.913 161.802 123.49 161.837 123.185C161.896 122.725 161.778 122.306 161.058 120.27C160.584 118.964 159.666 116.579 158.98 114.973C158.307 113.363 157.266 110.914 156.665 109.531C156.065 108.148 154.786 105.274 153.833 103.15C152.88 101.026 151.987 99.0451 151.849 98.7505C151.708 98.4426 151.632 98.1578 151.69 98.1098C151.73 98.0528 153.794 99.1023 156.264 100.419C158.739 101.75 161.465 103.133 162.304 103.513C163.157 103.889 164.588 104.565 165.493 105.013C166.323 105.434 167.998 106.238 169.362 106.893L169.739 107.074C171.167 107.737 172.893 108.512 173.583 108.792C174.269 109.059 175.131 109.373 175.488 109.48C175.994 109.643 176.224 109.628 176.509 109.464C176.718 109.338 177.254 108.903 178.521 107.72L179.207 107.987C179.822 108.218 179.892 108.298 179.97 108.73C180.019 108.966 180.085 109.484 180.142 109.925L180.16 110.067C180.223 110.679 180.329 111.013 180.507 111.251C180.65 111.426 180.918 111.576 181.112 111.588C181.289 111.59 181.524 111.545 181.626 111.498C181.724 111.437 182.013 110.962 182.25 110.46C182.499 109.954 182.719 109.399 182.77 109.236C182.84 108.948 183.007 109.013 185.017 110.079C186.215 110.713 187.418 111.271 187.696 111.315C188.115 111.388 188.239 111.363 188.512 111.114C188.785 110.866 188.795 110.759 188.434 109.344L188.982 109.317C189.429 109.292 189.584 109.228 189.818 108.948C189.962 108.755 190.062 108.517 190.037 108.437C190.007 108.343 189.667 108.01 189.295 107.717C188.626 107.179 188.617 107.153 188.979 107.184C189.191 107.205 189.513 107.25 189.72 107.302C189.914 107.358 190.205 107.397 190.364 107.391C190.554 107.389 190.733 107.259 190.877 107.021C191 106.806 191.039 106.514 190.971 106.3C190.882 106.019 190.611 105.812 189.939 105.496C189.455 105.267 188.555 104.877 187.952 104.643C187.35 104.408 186.101 103.982 185.159 103.693C184.217 103.405 183.134 103.043 182.035 102.628L182.368 101.831C182.61 101.254 182.672 100.895 182.57 100.619C182.481 100.338 181.799 99.7168 180.339 98.5341C179.18 97.6085 177.548 96.348 176.704 95.7195C175.863 95.1044 174.993 94.4401 174.778 94.273C174.546 94.0967 172.966 92.9522 171.246 91.7347C169.525 90.5172 167.817 89.2955 167.454 89.0287C167.091 88.7619 166.43 88.2957 165.987 88.01C165.554 87.7066 164.66 87.1085 163.994 86.6733C163.668 86.4535 163.239 86.1669 162.811 85.8803C162.383 85.5937 161.955 85.3071 161.629 85.0874C161.043 84.7025 160.265 84.163 159.787 83.8319L159.645 83.7331C159.193 83.4206 158.032 82.6723 157.064 82.0687C156.095 81.465 154.323 80.4108 153.135 79.7153C151.946 79.0198 149.481 77.6718 147.641 76.7275C145.657 75.6968 143.817 74.8411 143.091 74.6311C142.426 74.4308 140.823 74.0441 139.518 73.768C138.227 73.4878 136.516 73.1792 135.735 73.0748C134.725 72.9405 134.289 72.8145 134.252 72.6499C134.209 72.5163 134.021 71.4141 133.842 70.2057C133.788 69.8152 133.735 69.4376 133.688 69.1008L133.686 69.0819L133.684 69.0672C133.585 68.3636 133.512 67.8444 133.508 67.767C133.5 67.6516 133.627 67.4052 133.78 67.239C133.932 67.0727 134.164 66.6017 134.284 66.1956C134.418 65.7853 134.551 65.0513 134.584 64.5553C134.617 64.0592 134.74 63.4315 134.855 63.145C134.973 62.8718 135.113 62.2976 135.154 61.8726C135.205 61.3857 135.388 60.9007 135.667 60.5323C135.892 60.2252 136.192 59.6001 136.326 59.1454C136.451 58.7083 136.675 57.7984 136.821 57.1488C136.966 56.4992 137.062 55.645 137.036 55.2412C137.015 54.8508 136.904 54.2241 136.785 53.85C136.67 53.4892 136.408 52.9401 136.195 52.64C135.996 52.3357 135.705 51.9724 135.552 51.815C135.4 51.6576 134.996 51.4035 134.654 51.2478C134.307 51.0788 133.805 50.9296 133.545 50.8948C133.17 50.8672 133.021 50.7675 132.94 50.5137C132.881 50.3266 132.882 50.1936 132.957 50.1992C133.019 50.2089 132.841 49.9714 132.562 49.6925C132.296 49.4093 131.869 48.9864 131.611 48.7743C131.362 48.5446 130.871 48.2006 130.529 48.0006C130.192 47.8139 129.642 47.5621 129.33 47.4556C129.018 47.3491 128.458 47.2036 128.101 47.1408C127.563 47.062 127.2 47.1188 126.241 47.4241C125.136 47.7761 125.039 47.7924 124.958 47.5385C124.912 47.3916 124.719 47.2469 124.538 47.231C124.34 47.2059 123.934 47.1291 123.634 47.0627C123.141 46.9403 122.946 46.9729 121.946 47.3796C120.88 47.8075 120.752 47.8189 120.095 47.6897C119.703 47.6086 119.292 47.6071 119.145 47.6981C119.011 47.7848 118.834 47.7822 118.756 47.719C118.647 47.6066 118.62 47.6151 118.622 47.7614ZM116.597 59.5731C116.59 59.0898 116.626 59.0194 117.017 58.9098C117.256 58.8335 117.779 58.7701 118.181 58.7449C118.575 58.7373 119.176 58.7372 119.502 58.7508C119.829 58.7644 120.168 58.8624 120.256 58.9523C120.36 59.0514 120.452 59.434 120.483 59.8068C120.531 60.1888 120.499 60.9198 120.417 61.4461C120.337 62.1188 120.2 62.5158 119.962 62.7385C119.77 62.9174 119.48 63.1127 119.294 63.1721C119.107 63.2314 118.714 63.239 118.405 63.1902C118.101 63.1548 117.688 62.9626 117.514 62.7828C117.27 62.5221 117.128 62.1698 116.906 61.2844C116.746 60.6437 116.606 59.8792 116.597 59.5731ZM124.343 59.3131C124.359 59.0872 124.446 58.8535 124.531 58.7971C124.602 58.7449 125.05 58.6761 125.505 58.6339C125.961 58.5917 126.885 58.5475 127.571 58.5353C128.256 58.523 128.83 58.5314 128.865 58.5496C128.896 58.5545 128.915 59.1222 128.928 59.8095C128.928 60.5011 128.873 61.2983 128.794 61.603C128.715 61.9078 128.551 62.2689 128.434 62.4091C128.317 62.5493 127.992 62.7706 127.712 62.904C127.383 63.0677 126.935 63.1366 126.463 63.1253C125.946 63.1134 125.602 63.002 125.27 62.74C124.951 62.4739 124.769 62.1786 124.616 61.6976C124.498 61.3235 124.386 60.7412 124.347 60.3859C124.32 60.0265 124.313 59.5431 124.343 59.3131ZM63.9866 86.5533C63.8054 86.2137 63.8109 86.1384 64.0239 86.0706C64.157 86.0282 64.7079 86.147 65.2357 86.332C65.7769 86.5127 67.1209 87.144 68.2312 87.732C69.3415 88.32 70.361 88.7603 70.4941 88.7179C70.6406 88.6713 70.7651 88.2785 70.8767 87.5221C70.9775 86.9162 71.1546 86.2272 71.2725 85.9984C71.408 85.7787 71.6585 85.5518 71.8449 85.4924C72.0446 85.4288 72.2474 85.4672 72.343 85.5839C72.443 85.7139 72.5038 86.4595 72.4734 87.4255C72.4659 88.3254 72.465 89.0613 72.4917 89.0528C72.5225 89.0577 73.1394 89.1996 73.8839 89.3744L75.2277 89.6821C73.8521 91.4443 73.1118 92.6216 72.677 93.4222C72.2422 94.2227 71.8533 94.8909 71.8043 94.9212C71.7377 94.9424 71.2189 94.7398 70.6347 94.4698C70.0414 94.2174 68.7217 93.7549 67.709 93.4743C66.626 93.1571 65.2894 92.6412 64.4951 92.2174C63.7402 91.8252 63.0082 91.3668 62.8737 91.1743C62.7302 90.9993 62.6442 90.8207 62.6714 90.7679C62.6986 90.7151 63.0037 90.7062 63.3614 90.7247C63.71 90.7608 64.5472 90.9503 65.2203 91.1773C65.8892 91.3909 66.6024 91.6051 66.8009 91.6302C67.0345 91.6735 67.2119 91.6317 67.3686 91.4788C67.4895 91.352 67.5839 91.2337 67.5712 91.1936C67.5585 91.1535 66.7466 90.7206 65.7719 90.2365C64.7797 89.7434 63.8146 89.1974 63.6227 89.0084C63.3387 88.7605 63.2872 88.6445 63.4076 88.562C63.479 88.5098 63.824 88.4882 64.1551 88.5152C64.4904 88.5555 65.5558 88.8636 66.5456 89.2104C68.2037 89.8152 68.3272 89.8347 68.4414 89.5482C68.5599 89.2751 68.4461 89.1936 66.909 88.462C65.9955 88.0321 65.0081 87.5079 64.7278 87.3177C64.4474 87.1274 64.1162 86.7768 63.9866 86.5533ZM75.7358 90.3588C75.9736 90.0919 76.2822 89.817 76.4116 89.717C76.5454 89.6302 77.0804 89.607 77.6409 89.6639C78.1839 89.7116 79.4181 89.9512 80.3739 90.1911C81.334 90.4444 84.3062 91.2633 86.9612 92.0067C89.6205 92.7634 92.3288 93.4899 92.968 93.61C93.6072 93.7301 94.2869 93.7931 94.4733 93.7337C94.6597 93.6744 96.0798 92.5601 97.6481 91.2662C99.2121 89.9589 101.392 88.1906 102.478 87.3153C103.581 86.4491 105.625 84.9005 107.031 83.8791C108.436 82.8576 110.34 81.5597 111.241 80.9787C112.145 80.4111 113.589 79.5542 114.448 79.0746C115.307 78.595 116.024 78.2197 116.041 78.2288C116.072 78.2337 116.438 79.662 116.852 81.3837L116.918 81.6548C117.306 83.2646 117.641 84.6573 117.66 84.8045C117.684 85.0177 117.325 85.4115 116.105 86.4622L115.684 86.8221C114.97 87.4326 114.347 87.9654 114.205 88.0971L113.905 88.3543C115.593 94.0843 116.56 97.4542 117.134 99.5373C117.707 101.62 118.821 105.312 119.602 107.726C120.37 110.144 121.017 111.998 121.024 111.834C121.037 111.55 121.054 111.559 121.232 111.841C121.331 112.016 121.462 112.474 121.51 112.856C121.562 113.251 121.721 114.26 121.856 115.1C121.88 115.264 121.905 115.44 121.931 115.62C122.04 116.365 122.159 117.189 122.207 117.636C122.266 118.191 122.456 119.484 122.624 120.519C122.778 121.559 123.094 123.386 123.322 124.564C123.549 125.742 123.889 127.458 124.076 128.369C124.263 129.281 124.358 130.089 124.304 130.15C124.241 130.229 123.618 130.251 122.916 130.21C122.214 130.169 120.854 130.043 119.888 129.909C118.926 129.789 117.493 129.524 116.7 129.335C115.912 129.16 114.877 128.857 114.394 128.672C113.914 128.501 113.256 128.137 112.924 127.875C112.368 127.419 112.325 127.33 111.888 125.954C111.638 125.166 111.261 123.564 111.056 122.409C110.846 121.24 110.452 118.57 110.18 116.464C109.92 114.355 109.535 111.109 109.347 109.226C109.147 107.348 108.972 105.55 108.945 105.235C108.918 104.92 108.985 103.515 109.066 102.107L109.124 101.239L109.124 101.238C109.202 100.067 109.281 98.8958 109.305 98.382C109.34 97.753 109.343 97.1634 109.322 97.0966C109.301 97.0298 109.221 97.0109 109.168 97.0722C109.114 97.1335 108.977 97.4861 108.874 97.8571C108.79 98.2371 108.6 99.2096 108.475 100.015C108.349 100.82 108.243 102.148 108.237 102.959C108.235 103.226 108.233 103.494 108.232 103.741L108.232 103.742C108.229 104.246 108.226 104.664 108.221 104.803C108.222 105.083 108.096 105.24 107.758 105.422C107.495 105.564 106.353 106.075 105.219 106.568C103.842 107.169 102.376 107.68 100.806 108.136C99.4261 108.546 98.0741 108.859 97.53 108.9C97.0167 108.945 96.199 108.956 95.7045 108.922C95.21 108.888 94.434 108.753 93.9806 108.618C93.5096 108.473 92.4635 108.042 91.6245 107.661C90.7854 107.281 88.9195 106.345 87.4666 105.602C86.0227 104.841 84.6272 104.093 84.3687 103.925C84.1059 103.744 83.0446 103.126 82.0094 102.544L81.4899 102.246L81.4868 102.244L81.4832 102.242C80.5726 101.72 79.6122 101.17 79.176 100.915C78.6717 100.62 78.2424 100.33 78.2212 100.263C78.2042 100.21 77.8888 100.001 77.5116 99.783C77.152 99.5738 76.477 99.1562 76.0168 98.8613C75.5567 98.5665 74.9301 98.1629 74.6237 97.9368C74.4327 97.8105 74.1342 97.5998 73.8283 97.3838C73.6291 97.2432 73.4266 97.1002 73.2487 96.977C72.811 96.6603 72.4004 96.2909 72.3538 96.1439C72.3029 95.9836 72.6088 95.2388 73.1749 94.2052C73.6732 93.2814 74.3512 92.1386 74.6887 91.6781C75.0263 91.2175 75.4981 90.6258 75.7358 90.3588ZM121.874 79.9315C122.269 75.8188 122.311 75.6731 122.657 75.5185C123.031 75.3555 123.052 75.378 123.471 76.1421C123.713 76.5801 124.37 77.6802 124.937 78.5883L125.949 80.2521C125.538 80.8979 124.933 81.5762 124.342 82.1617C123.728 82.769 123.205 83.2003 123.14 83.1329C123.075 83.0654 122.766 82.3251 122.455 81.4827L121.874 79.9315ZM118.734 77.1064C119.307 76.8797 120.138 76.5415 120.578 76.3573C121.005 76.1773 121.386 76.041 121.395 76.0677C121.417 76.0902 121.361 76.6524 121.281 77.3251C121.215 77.9935 121.054 79.7955 120.954 81.3279C120.854 82.8604 120.733 85.3412 120.687 86.8567C120.64 88.3721 120.61 90.9563 120.611 92.6187C120.611 94.2812 120.642 96.9194 120.683 98.4805C120.725 100.042 120.823 102.335 120.904 103.56C120.971 104.789 121.116 106.861 121.209 108.17C121.303 109.479 121.357 110.713 121.35 110.921C121.32 111.195 121.132 110.696 120.655 109.009C120.312 107.795 119.596 105.368 119.039 103.476L119.038 103.473L118.964 103.221L118.693 102.303L118.692 102.3C118.165 100.512 117.542 98.3998 117.209 97.2331C116.816 95.8576 116.127 93.4581 115.679 91.9088C115.537 91.3991 115.399 90.9099 115.278 90.4788C115.029 89.5961 114.849 88.9567 114.835 88.882C114.801 88.7751 114.884 88.5724 115 88.4322C115.117 88.2921 115.899 87.6163 116.726 86.9411C117.561 86.2483 118.313 85.5677 118.408 85.405C118.517 85.1938 118.512 84.9011 118.35 84.4377C118.235 84.077 117.858 82.5642 117.51 81.1007C117.176 79.6329 116.889 78.312 116.877 78.1833C116.87 78.0236 117.032 77.8398 117.29 77.7282C117.503 77.6161 118.161 77.333 118.734 77.1064ZM133.315 75.2874C133.837 74.2531 134.299 73.3998 134.339 73.3871C134.383 73.3877 135.336 73.5257 136.465 73.7105L138.52 74.0417C138.089 74.8556 138.033 75.1385 138.111 75.2017C138.19 75.2649 138.168 75.2868 138.044 75.2673C137.93 75.2301 137.647 75.5851 137.285 76.2005C136.973 76.7413 136.763 77.2348 136.829 77.3022C136.894 77.3697 136.88 77.4182 136.809 77.4261C136.734 77.4205 136.415 77.8459 136.103 78.3424C135.796 78.8522 135.205 79.7613 134.799 80.376C134.389 80.9774 133.879 81.7724 133.667 82.1196C133.446 82.4843 132.99 83.1737 132.652 83.6787L132.026 84.5695L135.126 87.7753C134.642 89.2978 134.226 90.6217 133.894 91.6986C133.642 92.4861 132.996 94.5544 132.278 96.8513L132.271 96.8752C132.005 97.7242 131.731 98.6039 131.462 99.4613C130.452 102.652 129.368 106.116 129.05 107.145C128.718 108.177 128.312 109.483 128.141 110.053C127.979 110.605 127.787 111.063 127.743 111.062C127.694 111.048 127.65 110.724 127.651 110.312C127.643 109.917 127.581 108.568 127.514 107.339C127.446 106.11 127.413 103.929 127.431 102.511C127.464 101.088 127.605 98.3946 127.758 96.5216C127.911 94.6486 128.216 91.962 128.438 90.5378C128.656 89.1001 129.058 87.0889 129.306 86.0684C129.563 85.0303 130.063 83.3264 130.434 82.2811C130.793 81.24 131.375 79.657 131.727 78.7799C132.079 77.9028 132.798 76.335 133.315 75.2874ZM130.16 77.3075C131.586 76.0736 132.775 75.0623 132.815 75.0496C132.855 75.0369 132.577 75.6402 132.2 76.3928C131.819 77.1321 131.297 78.2106 131.055 78.7879C130.796 79.356 130.324 80.5949 129.984 81.5564C129.654 82.5003 129.307 83.3464 129.235 83.4429C129.109 83.5564 128.87 83.2647 128.148 82.0972C127.646 81.2565 127.166 80.4826 127.088 80.375C127.001 80.226 127.062 80.0496 127.271 79.8457C127.437 79.6752 128.734 78.5414 130.16 77.3075ZM138.526 75.261C138.834 74.7068 139.15 74.2238 139.22 74.2159C139.3 74.1905 139.891 74.2966 140.535 74.43C140.809 74.4922 141.102 74.5563 141.369 74.6144C141.731 74.6936 142.044 74.7619 142.191 74.7998C142.456 74.848 143.147 75.0841 143.749 75.3189C144.351 75.5538 146.235 76.4987 147.942 77.3968C149.636 78.2992 151.675 79.4592 152.482 79.9674C153.275 80.4799 154.428 81.2015 155.059 81.5741C155.677 81.9511 156.593 82.5273 157.097 82.8671C157.455 83.1185 158.644 83.9146 160.036 84.8467C160.549 85.1901 161.09 85.552 161.626 85.9119C163.633 87.2444 166.887 89.5037 168.879 90.929C170.022 91.747 171.199 92.5976 172.106 93.2527C172.78 93.7391 173.304 94.1177 173.554 94.2951C174.001 94.6229 174.907 95.3047 175.787 95.9663L176.516 96.5148C177.575 97.3104 179.019 98.4396 179.745 99.0176C180.457 99.5998 181.226 100.267 181.444 100.492L181.854 100.906C181.488 101.876 181.022 102.716 180.593 103.397C180.16 104.064 179.403 105.188 178.894 105.894C178.398 106.597 177.675 107.504 177.303 107.902C176.917 108.304 176.475 108.666 176.315 108.716C176.142 108.772 175.833 108.767 175.604 108.693C175.38 108.632 174.746 108.392 174.188 108.158C173.63 107.924 172.439 107.406 171.548 106.998C170.656 106.591 168.592 105.585 166.954 104.768C165.33 103.947 163.372 102.996 162.625 102.675C161.873 102.34 159.319 101.036 156.944 99.7909C154.566 98.5328 152.143 97.2298 151.555 96.9021C150.56 96.3512 150.48 96.3323 150.393 96.6104C150.346 96.787 150.352 97.0354 150.398 97.1823C150.445 97.3293 150.835 98.2349 151.256 99.1897C151.663 100.149 152.375 101.746 152.822 102.737C153.194 103.591 153.756 104.839 154.16 105.738L154.346 106.15C154.745 107.038 155.556 108.854 156.148 110.211C156.74 111.567 157.666 113.744 158.205 115.073C158.758 116.397 159.485 118.181 159.832 119.042C160.179 119.902 160.635 121.11 160.835 121.738C161.089 122.54 161.172 122.985 161.093 123.245C161.038 123.439 160.817 123.76 160.629 123.952C160.427 124.149 159.595 124.62 158.786 124.98C157.963 125.345 155.938 126.078 154.252 126.63C152.574 127.165 150.183 127.852 148.95 128.172C147.713 128.477 145.909 128.89 144.917 129.088C144.133 129.232 143.344 129.388 142.937 129.468L142.807 129.493L142.706 129.513C142.484 129.554 141.762 129.681 141.107 129.787C140.456 129.906 139.004 130.089 137.875 130.228C136.742 130.353 135.238 130.464 134.513 130.489C133.801 130.51 132.816 130.5 132.352 130.471C131.875 130.446 131.434 130.351 131.369 130.284C131.299 130.203 130.966 129.015 130.608 127.657C130.26 126.282 129.791 124.298 129.584 123.231C129.364 122.169 129.034 120.391 128.841 119.275C128.634 118.164 128.366 116.44 128.233 115.423L127.979 113.606C128.708 111.24 130.153 106.558 131.667 101.676C132.299 99.6282 132.93 97.5855 133.474 95.8246C134.23 93.3776 134.817 91.4751 135.005 90.8591C135.346 89.8089 135.662 88.6786 135.723 88.3647C135.781 88.0375 135.799 87.6787 135.765 87.5718C135.731 87.4649 135.117 86.7777 134.406 86.0625C133.691 85.334 133.072 84.6335 133.034 84.5132C132.992 84.3796 133.07 84.1192 133.205 83.9438C133.336 83.7551 133.963 82.7756 134.595 81.7651C135.241 80.7504 136.027 79.4407 136.366 78.8471C136.705 78.2536 137.194 77.4361 137.473 77.0234C137.739 76.615 138.218 75.8151 138.526 75.261ZM121.586 82.7158C121.576 82.4098 121.597 82.153 121.637 82.1402C121.677 82.1275 121.764 82.2174 121.847 82.3383C121.912 82.4501 122.062 82.7848 122.155 83.0787C122.249 83.3727 122.429 83.7565 122.577 83.9449C122.738 84.129 122.98 84.2433 123.192 84.2198C123.391 84.2005 123.559 84.2207 123.58 84.2875C123.597 84.3409 123.636 85.0641 123.669 85.9069C123.702 86.7497 123.703 88.3678 123.697 89.5026C123.677 90.6416 123.636 92.0818 123.584 92.7017C123.545 93.3174 123.307 94.9232 123.055 96.2539C122.803 97.5846 122.376 100.119 122.105 101.897C121.83 103.662 121.595 105.09 121.564 105.085C121.529 105.067 121.505 104.53 121.491 103.887C121.491 103.24 121.452 101.825 121.405 100.752C121.37 99.6741 121.317 97.337 121.31 95.5592C121.289 93.7856 121.298 91.4583 121.329 90.4037C121.348 89.3533 121.414 87.3017 121.486 85.8664C121.545 84.4353 121.591 83.0085 121.586 82.7158ZM127.791 84.9913C127.846 84.8414 128.092 84.6011 128.342 84.4629C128.671 84.2992 128.812 84.2835 128.882 84.4087C128.915 84.5155 128.827 85.1615 128.681 85.8554L128.638 86.0465C128.496 86.6684 128.372 87.2112 128.331 87.2911C128.303 87.3882 128.204 87.2139 128.137 86.9115C128.097 86.7624 128.045 86.5655 127.994 86.3686C127.942 86.1716 127.891 85.9747 127.851 85.8256C127.771 85.5275 127.74 85.1546 127.791 84.9913ZM121.932 110.029C121.868 109.829 121.841 109.558 121.873 109.43C121.907 109.258 122.042 109.406 122.331 109.946C122.546 110.349 122.938 111.165 123.191 111.732C123.453 112.281 123.989 113.229 124.379 113.811C124.769 114.393 125.342 115.137 125.652 115.465C125.974 115.789 126.564 116.307 126.975 116.633L127.71 117.193C127.927 118.845 128.109 119.788 128.238 120.379C128.381 120.966 128.463 121.455 128.423 121.468C128.383 121.481 127.706 121.564 126.913 121.654C126.616 121.694 126.282 121.738 125.953 121.781L125.95 121.782L125.949 121.782L125.946 121.782L125.844 121.796C125.324 121.864 124.828 121.929 124.523 121.974C123.726 122.096 123.576 122.085 123.565 121.867C123.563 121.721 123.462 120.988 123.331 120.206C123.217 119.433 123.035 118.211 122.92 117.483C122.815 116.736 122.566 114.844 122.388 113.268C122.21 111.691 121.995 110.23 121.932 110.029ZM180.322 105.175C181.044 104.077 181.683 103.182 181.736 103.165C181.794 103.161 182.986 103.547 184.385 104.028C185.784 104.509 187.508 105.137 188.203 105.431C188.901 105.738 189.665 106.113 189.91 106.285L190.331 106.592C189.826 106.62 189.293 106.555 188.821 106.455C188.643 106.422 188.384 106.373 188.087 106.316L188.086 106.316L188.083 106.315L188.08 106.315C187.598 106.223 187.018 106.112 186.529 106.023C185.735 105.878 185.042 105.82 184.971 105.872C184.917 105.933 184.884 106.061 184.927 106.15C184.957 106.244 185.79 106.744 186.773 107.254C187.914 107.847 188.488 108.224 188.342 108.27C188.209 108.313 187.715 108.19 187.232 108.006C186.748 107.821 186.071 107.537 185.738 107.363C185.211 107.09 185.092 107.084 184.881 107.298C184.733 107.433 184.634 107.582 184.651 107.636C184.668 107.689 185.045 107.952 185.466 108.215C185.904 108.487 186.596 108.959 186.99 109.275C187.401 109.6 187.806 110 187.901 110.161C188.001 110.336 188.047 110.527 188.015 110.566C188.002 110.615 186.833 110.075 185.437 109.372C183.918 108.605 182.815 108.132 182.686 108.188C182.557 108.244 182.253 108.856 181.974 109.548C181.709 110.235 181.419 110.799 181.335 110.811C181.25 110.823 181.024 110.248 180.766 109.344L180.326 107.866C179.309 107.572 179.006 107.403 179.008 107.315C179.009 107.226 179.596 106.259 180.322 105.175ZM135.467 138.527C135.324 137.66 135.254 136.932 135.312 136.929L135.307 136.915C135.374 136.894 136.06 138.824 136.851 141.176C137.642 143.528 138.362 145.565 138.448 145.699C138.6 145.901 138.573 145.953 138.24 146.059C137.856 146.182 137.85 146.169 137.489 145.353L137.485 145.344C137.297 144.889 136.815 143.512 136.429 142.296C136.014 140.987 135.632 139.46 135.467 138.527ZM186.254 181.982C186.527 181.409 186.952 180.347 187.191 179.623C187.338 179.201 187.473 178.802 187.566 178.525L187.567 178.523C187.634 178.325 187.679 178.189 187.692 178.154C187.715 178.088 188.089 178.249 188.518 178.539C188.943 178.815 189.332 179.162 189.379 179.309C189.421 179.443 189.407 179.859 189.358 180.213C189.3 180.585 189.146 181.208 189.039 181.61C188.919 182.016 188.558 182.866 188.24 183.527C187.905 184.178 187.416 184.995 187.147 185.346C186.832 185.74 186.586 185.936 186.494 185.877C186.416 185.814 186.008 185.547 185.587 185.284C185.162 185.007 184.795 184.727 184.774 184.66C184.748 184.58 184.961 184.188 185.241 183.776C185.533 183.359 185.982 182.554 186.254 181.982Z" fill="#15006A"/>
<path fill-rule="evenodd" clip-rule="evenodd" d="M124.998 65.6221C124.918 65.6475 124.627 65.9315 124.353 66.2689C124.061 66.5971 123.658 66.9903 123.457 67.1425C123.239 67.2856 123.073 67.4561 123.094 67.5229C123.098 67.5806 123.309 67.6457 123.539 67.6757C123.909 67.7342 124.025 67.6827 124.423 67.3205C124.731 67.0457 124.913 66.6937 125.02 66.2475C125.092 65.8717 125.091 65.5924 124.998 65.6221ZM166.429 150.573C166.376 150.59 166.667 151.601 167.819 155.044L171.621 158.983L172.292 159.683L172.295 159.687C174.093 161.564 175.593 163.131 175.78 163.308C175.984 163.537 176.265 163.683 176.42 163.663C176.528 163.639 176.752 163.601 176.983 163.562L177.115 163.539L177.253 163.515C177.537 163.466 178.284 163.32 178.965 163.187L179.118 163.157C179.849 163.012 181.02 162.728 181.73 162.516C182.435 162.292 182.963 162.197 182.9 162.276C182.81 162.364 182.863 162.391 183.009 162.344C183.129 162.306 183.215 162.161 183.19 162.037C183.161 161.899 183.119 161.721 183.094 161.641C183.082 161.556 183.14 161.508 183.219 161.527C183.316 161.555 183.312 161.497 183.234 161.39C183.112 161.237 183.263 161.204 184.245 161.112C184.887 161.055 185.466 161.032 185.528 161.042C185.59 161.052 185.741 160.974 185.862 160.847C186.032 160.69 186.085 160.673 186.074 160.824C186.055 160.948 186.395 161.001 187.089 160.972C187.668 160.949 188.185 160.961 188.26 160.966C188.339 160.985 188.684 161.611 189.046 162.334C189.412 163.071 190.055 164.264 190.496 164.962C190.929 165.678 191.592 166.658 191.979 167.138C192.453 167.752 192.863 168.122 193.289 168.31C193.685 168.493 194.038 168.542 194.29 168.462C194.583 168.368 194.736 168.202 194.828 167.893C194.911 167.646 194.987 167.239 194.995 166.987C195.02 166.743 194.948 165.869 194.835 165.052C194.74 164.243 194.469 162.608 194.251 161.412C194.037 160.23 193.453 157.606 192.94 155.577C192.432 153.561 191.935 151.763 191.822 151.593C191.727 151.432 191.474 151.189 191.263 151.08C191.048 150.957 190.819 150.882 190.753 150.904C190.686 150.925 190.675 151.075 190.731 151.249C190.82 151.53 190.789 151.525 190.315 151.234C189.895 150.971 189.683 150.95 188.846 151.084C188.314 151.165 186.784 151.564 185.458 151.957C183.661 152.485 183.452 152.567 186.162 151.866L184.772 152.338C184.022 152.606 183.276 152.888 183.142 152.974C182.923 153.118 182.893 153.068 182.746 152.468C182.6 151.867 182.552 151.809 182.098 151.718C181.829 151.656 181.555 151.67 181.474 151.74C181.394 151.81 181.103 151.77 180.817 151.655C180.54 151.523 180.249 151.483 180.169 151.553C180.088 151.622 179.859 151.592 179.666 151.492C179.473 151.392 179.248 151.375 179.136 151.44C179.042 151.514 178.941 151.517 178.915 151.437C178.894 151.37 178.731 151.319 178.563 151.343C178.377 151.358 178.182 151.391 178.107 151.43C178.04 151.451 177.93 151.427 177.864 151.36C177.817 151.301 176.992 151.196 176.029 151.12C175.084 151.053 174.263 151.006 174.21 151.023C174.156 151.04 173.755 151.021 173.313 150.97C172.872 150.919 171.879 150.838 171.084 150.783C170.307 150.736 168.964 150.663 168.103 150.628C167.251 150.576 166.495 150.552 166.429 150.573ZM135.467 138.527C135.324 137.66 135.254 136.932 135.312 136.929L135.307 136.915C135.374 136.894 136.06 138.824 136.851 141.176C137.642 143.528 138.362 145.565 138.448 145.699C138.6 145.901 138.573 145.953 138.24 146.059C137.856 146.182 137.85 146.169 137.489 145.353L137.485 145.344C137.297 144.889 136.815 143.512 136.429 142.296C136.014 140.987 135.632 139.46 135.467 138.527ZM186.772 152.171L182.778 153.444L182.814 154.065L182.824 154.25C182.844 154.625 182.877 155.221 182.889 155.688C182.908 156.256 182.935 156.939 182.949 157.214C182.954 157.507 183.009 158.328 183.066 159.06C183.113 159.81 183.088 160.377 183 160.331C182.917 160.299 182.951 160.362 183.078 160.483C183.252 160.663 183.654 160.682 184.849 160.567C185.69 160.49 186.835 160.405 187.401 160.386C187.954 160.372 188.423 160.326 188.419 160.313C188.424 160.282 188.375 159.944 188.296 159.557C188.283 159.473 188.265 159.364 188.244 159.238C188.171 158.797 188.064 158.143 187.982 157.598C187.88 156.909 187.624 155.593 187.424 154.686C187.21 153.783 186.988 152.853 186.912 152.612L186.772 152.171Z" fill="#15006A"/>
<path d="M182.809 40.4708C183.549 39.7158 184.118 39.0651 184.568 38.4512C185.011 37.8464 185.339 37.2773 185.601 36.6792C185.984 35.7093 186.336 35.0921 186.366 35.2684C186.424 35.4448 186.131 36.3265 185.719 37.2083C185.528 37.6178 185.223 38.1413 184.871 38.6671C184.466 39.2736 183.998 39.883 183.573 40.3239C182.809 41.1468 181.604 42.2343 180.869 42.734C180.135 43.2337 178.812 43.9979 177.93 44.4387C177.048 44.8796 175.52 45.4381 174.55 45.7026C173.942 45.8685 173.299 45.9996 172.825 46.0744C172.542 46.1189 172.319 46.1435 172.199 46.1435C171.875 46.1435 172.522 45.879 173.668 45.585C173.894 45.5196 174.159 45.435 174.448 45.3359C175.59 44.9454 177.122 44.3314 178.224 43.7921C178.583 43.6098 178.916 43.4319 179.232 43.2523C180.253 42.6715 181.089 42.0721 182 41.2444C182.262 41.007 182.529 40.7508 182.809 40.4708Z" fill="#003FFF"/>
<path d="M155.769 12.6072C155.886 12.0781 156.268 11.02 156.65 10.2558C157.062 9.46223 157.473 8.845 157.591 8.845C157.708 8.845 157.473 9.60919 157.032 10.5497C156.592 11.4609 156.151 12.666 156.062 13.195C155.974 13.6947 155.769 14.1062 155.592 14.0768C155.445 14.018 154.328 13.195 153.123 12.2251C151.889 11.2551 150.948 10.4028 151.036 10.3146C151.125 10.2264 151.683 10.5203 152.271 10.9612C152.888 11.4021 153.799 12.1663 154.27 12.666C154.74 13.1656 155.239 13.5477 155.357 13.5477C155.504 13.5477 155.68 13.1068 155.769 12.6072Z" fill="#003FFF"/>
<path fill-rule="evenodd" clip-rule="evenodd" d="M159.178 5.20041C158.032 4.40683 157.62 4.28926 155.651 4.20108C153.917 4.1423 153.123 4.25987 152.212 4.67135C151.566 4.99467 150.684 5.6119 150.272 6.08217C149.831 6.55245 149.214 7.4636 148.861 8.11022C148.538 8.75685 148.156 9.81496 148.068 10.4616C147.921 11.3433 148.068 12.0488 148.568 13.2244C148.95 14.1062 149.743 15.2231 150.302 15.7228C150.86 16.2224 151.654 16.8397 152.065 17.1336L152.8 17.6038C151.36 19.1322 150.596 20.2491 150.214 21.0427C149.802 21.8657 149.273 23.541 149.008 24.8049C148.744 26.0394 148.538 27.7735 148.538 28.6259C148.538 29.4488 148.803 31.2711 149.155 32.6526C149.479 34.034 150.302 36.356 151.007 37.7962C151.859 39.6185 152.8 41.0293 154.034 42.3519L155.827 44.2624L155.886 44.5563C159.766 45.8202 162.117 46.3786 163.616 46.6432C165.35 46.9371 166.938 47.0253 168.084 46.9077C169.054 46.7901 171.111 46.4374 172.64 46.1141C172.701 46.1012 172.762 46.088 172.825 46.0744C172.542 46.1189 172.319 46.1435 172.199 46.1435C171.875 46.1435 172.522 45.879 173.668 45.585C173.894 45.5196 174.159 45.435 174.448 45.3359C173.387 45.6455 171.855 46.0098 170.876 46.1729C169.818 46.3786 167.966 46.5256 166.761 46.5256C165.556 46.4962 163.293 46.2317 161.765 45.9084C160.236 45.5557 158.326 44.9678 157.503 44.5857C156.709 44.2036 155.387 43.1749 154.564 42.2931C153.77 41.4408 152.477 39.5303 151.742 38.0901C150.978 36.6205 150.067 34.5042 149.714 33.3874C149.244 31.8884 149.067 30.5657 149.067 28.5377C149.038 26.7154 149.214 25.1282 149.567 23.9819C149.831 23.012 150.331 21.7187 150.625 21.1015C150.919 20.5136 151.654 19.5143 152.212 18.8677C153.153 17.8684 153.447 17.7214 155.093 17.5157C156.092 17.3981 157.326 17.1042 157.797 16.869C158.267 16.6339 159.443 15.664 160.383 14.7528C161.941 13.2538 162.294 13.0481 164.645 12.4308C166.732 11.9018 167.761 11.8136 170.288 11.9018C172.61 11.99 173.903 12.1957 175.579 12.7835C176.784 13.195 178.606 14.0474 179.635 14.6352C180.634 15.2525 182.28 16.5457 183.25 17.5157C184.426 18.6619 185.396 20.0434 186.101 21.4542C187.13 23.541 187.189 23.8056 187.277 27.0387C187.336 29.4488 187.218 31.0948 186.895 32.6525C186.63 33.8576 185.954 35.7975 185.425 36.9144C185.16 37.4775 184.883 37.9783 184.568 38.4512C185.011 37.8464 185.339 37.2773 185.601 36.6792C185.984 35.7093 186.336 35.0921 186.366 35.2684C186.424 35.4448 186.131 36.3265 185.719 37.2083C185.528 37.6178 185.223 38.1413 184.871 38.6671C185.228 38.1552 185.535 37.6642 185.719 37.2965C186.101 36.4441 186.718 34.6806 187.042 33.3874C187.365 32.0941 187.718 30.0367 187.806 28.8316C187.894 27.6265 187.865 25.8336 187.688 24.8637C187.541 23.8937 187.012 22.2478 186.513 21.1897C186.042 20.1316 184.984 18.5738 184.191 17.692C183.427 16.8103 182.045 15.6052 181.163 15.0174C180.282 14.4001 178.753 13.5771 177.783 13.1657C176.813 12.7836 175.167 12.2251 174.109 11.99C173.051 11.7254 171.611 11.4315 170.876 11.3433C170.141 11.2258 168.495 11.314 167.202 11.5197C165.909 11.7254 164.204 12.1075 163.381 12.3721L161.912 12.8717C161.912 9.43287 161.735 8.63928 161.177 7.55177C160.736 6.7288 159.913 5.75886 159.178 5.20041ZM158.238 5.171C157.826 4.96526 156.915 4.73012 156.18 4.64195C155.445 4.55377 154.299 4.61255 153.623 4.75951C152.918 4.90647 152.006 5.22979 151.566 5.49431C151.125 5.72945 150.478 6.37608 150.125 6.87574C149.773 7.4048 149.244 8.40413 148.979 9.13893C148.656 9.9619 148.509 10.9024 148.597 11.6372C148.656 12.2839 149.126 13.4008 149.626 14.1356C150.125 14.8704 151.036 15.8403 151.654 16.34C152.653 17.1042 153.035 17.2217 154.564 17.1923C155.739 17.163 156.739 16.9572 157.503 16.5457C158.149 16.2224 159.266 15.3406 160.001 14.5765C161.177 13.3714 161.324 13.0481 161.441 11.696C161.471 10.8437 161.382 9.63859 161.206 8.99197C161.03 8.34534 160.471 7.28723 159.942 6.67C159.413 6.05276 158.649 5.37675 158.238 5.171Z" fill="#003FFF"/>
<path fill-rule="evenodd" clip-rule="evenodd" d="M156.65 10.2558C156.268 11.02 155.886 12.0781 155.769 12.6072C155.68 13.1068 155.504 13.5477 155.357 13.5477C155.239 13.5477 154.74 13.1656 154.27 12.666C153.799 12.1663 152.888 11.4021 152.271 10.9612C151.683 10.5203 151.125 10.2264 151.036 10.3146C150.948 10.4028 151.889 11.2551 153.123 12.2251C154.328 13.195 155.445 14.018 155.592 14.0768C155.769 14.1062 155.974 13.6947 156.062 13.195C156.151 12.666 156.592 11.4609 157.032 10.5497C157.473 9.60919 157.708 8.845 157.591 8.845C157.473 8.845 157.062 9.46223 156.65 10.2558Z" fill="#003FFF"/>
<path fill-rule="evenodd" clip-rule="evenodd" d="M175.579 12.7835C173.903 12.1957 172.61 11.99 170.288 11.9018C167.761 11.8136 166.732 11.9018 164.645 12.4308C162.294 13.0481 161.941 13.2538 160.383 14.7528C159.443 15.664 158.267 16.6339 157.797 16.869C157.326 17.1042 156.092 17.3981 155.093 17.5157C153.447 17.7214 153.153 17.8684 152.212 18.8677C151.654 19.5143 150.919 20.5136 150.625 21.1015C150.331 21.7187 149.831 23.012 149.567 23.9819C149.214 25.1282 149.038 26.7154 149.067 28.5377C149.067 30.5657 149.244 31.8884 149.714 33.3874C150.067 34.5042 150.978 36.6205 151.742 38.0901C152.477 39.5303 153.77 41.4408 154.564 42.2931C155.387 43.1749 156.709 44.2036 157.503 44.5857C158.326 44.9678 160.236 45.5557 161.765 45.9084C163.293 46.2317 165.556 46.4962 166.761 46.5256C167.966 46.5256 169.818 46.3786 170.876 46.1729C171.855 46.0098 173.387 45.6455 174.448 45.3359C175.59 44.9454 177.122 44.3314 178.224 43.7921C178.583 43.6098 178.916 43.4319 179.232 43.2523C180.101 42.7141 181.165 41.9483 182 41.2444C182.262 41.007 182.529 40.7508 182.809 40.4708C183.549 39.7158 184.118 39.0651 184.568 38.4512C184.883 37.9783 185.16 37.4775 185.425 36.9144C185.954 35.7975 186.63 33.8576 186.895 32.6525C187.218 31.0948 187.336 29.4488 187.277 27.0387C187.189 23.8056 187.13 23.541 186.101 21.4542C185.396 20.0434 184.426 18.6619 183.25 17.5157C182.28 16.5457 180.634 15.2525 179.635 14.6352C178.606 14.0474 176.784 13.195 175.579 12.7835ZM161.353 22.9532C161.618 22.3947 162.058 21.6305 162.294 21.2484C162.558 20.8369 162.97 20.6018 163.322 20.6606C163.646 20.7194 164.145 21.0721 164.439 21.4836C164.733 21.8951 165.203 23.0413 165.497 24.0113C165.791 25.0106 165.938 25.7748 165.791 25.716C165.674 25.6572 165.439 25.0988 165.262 24.5109C165.056 23.8937 164.674 22.8944 164.38 22.3065C163.998 21.5717 163.616 21.1896 163.234 21.1896C162.881 21.1896 162.441 21.5717 162.117 22.1008C161.853 22.6005 161.441 23.2177 161.235 23.4822C161.03 23.7468 161.089 23.5116 161.353 22.9532ZM174.256 27.3032C174.168 27.1562 174.579 26.539 175.167 25.8924C175.755 25.2457 176.49 24.7167 176.784 24.7167C177.137 24.7167 177.489 25.0694 177.754 25.6866C177.989 26.1863 178.283 27.3032 178.4 28.0968C178.577 29.2137 178.547 29.5076 178.283 29.3606C178.077 29.2137 177.93 28.7728 177.93 28.3319C177.93 27.8616 177.636 26.9211 176.696 24.8637L175.549 26.1863C174.903 26.9211 174.315 27.4208 174.256 27.3032ZM158.149 33.2404C157.708 32.3586 157.356 31.3593 157.385 31.036C157.385 30.5951 157.473 30.6833 157.708 31.3299C157.885 31.8296 158.443 32.7995 158.943 33.5343C159.443 34.2691 160.471 35.4742 161.235 36.2384C162.029 37.0319 163.264 37.9725 164.028 38.3546C164.821 38.7367 166.173 39.207 167.055 39.3833C167.996 39.5891 169.289 39.6478 170.141 39.5303C170.935 39.4127 172.404 39.06 173.374 38.7073C174.344 38.3546 175.961 37.5022 176.96 36.8262C177.989 36.1502 178.871 35.6505 178.959 35.7387C179.047 35.8269 178.4 36.3853 177.548 37.032C176.725 37.6492 175.432 38.5016 174.697 38.913C173.962 39.3245 172.522 39.9124 171.464 40.1769C170.288 40.4708 168.936 40.6178 167.937 40.5296C167.055 40.4414 165.527 40.0299 164.557 39.5891C163.381 39.0306 162.176 38.1488 160.883 36.8262C159.825 35.7387 158.59 34.1221 158.149 33.2404Z" fill="#003FFF"/>
<path d="M19.7422 7.08143C18.6253 4.73006 17.5085 2.55505 17.2733 2.23174C16.9794 1.82025 16.8618 1.76147 16.8618 2.08478C16.8912 2.31992 18.0669 4.84763 19.5365 7.66927C20.9767 10.4909 22.0936 12.4896 21.976 12.0781C21.8879 11.6666 20.8885 9.43279 19.7422 7.08143Z" fill="#15006A"/>
<path d="M37.495 8.40407C38.1123 6.64055 38.5825 5.05338 38.4944 4.87702C38.4356 4.73006 38.3474 4.64189 38.3474 4.73006C38.3474 4.81824 37.4656 7.14021 36.4075 9.87367C35.3788 12.6365 34.5558 14.9291 34.644 15.0173C34.7322 15.1054 35.1437 14.3706 35.5552 13.4007C35.996 12.4308 36.8484 10.197 37.495 8.40407Z" fill="#15006A"/>
<path d="M10.0429 19.1322C8.92598 18.6619 7.86787 18.2504 7.69151 18.2504C7.48577 18.2504 7.3682 18.3092 7.45638 18.368C7.54455 18.4561 9.54321 19.4849 11.924 20.6605C14.3047 21.8362 16.2446 22.7474 16.274 22.6592C16.274 22.571 15.3334 21.9538 14.1578 21.2778C12.9821 20.6018 11.1304 19.6318 10.0429 19.1322Z" fill="#15006A"/>
<path d="M33.292 19.5436C33.3508 19.4849 32.8217 19.4261 32.1163 19.4555C31.4109 19.4849 30.4997 19.6024 30.0882 19.72C29.6474 19.867 30.1176 19.8964 31.2639 19.8082C32.322 19.72 33.2332 19.6024 33.292 19.5436Z" fill="#15006A"/>
<path d="M36.5545 20.5136C35.6727 20.0727 34.6734 19.72 34.3501 19.7494C33.8798 19.7788 33.9386 19.8082 34.5264 19.9845C34.9379 20.1021 35.8197 20.4842 36.4369 20.8075C37.0542 21.1308 38.4356 22.1889 39.4349 23.1295C40.7575 24.3639 41.6099 25.4514 42.3153 26.921C43.2559 28.8315 43.3147 29.1842 43.3147 31.7119C43.3147 34.0927 43.1677 34.8275 42.139 37.8843C41.4923 39.7654 40.9927 41.5289 40.9927 41.764C40.9927 41.9992 41.4042 41.1468 41.8744 39.8535C42.3741 38.5603 43.0207 36.591 43.344 35.4447C43.7849 33.887 43.9025 32.7995 43.8143 31.0359C43.7261 29.0079 43.5498 28.3906 42.5505 26.5096C41.8157 25.1281 40.8163 23.7761 39.7876 22.8356C38.9059 22.0126 37.4362 20.9545 36.5545 20.5136Z" fill="#15006A"/>
<path d="M55.6593 21.6305C55.6593 21.5423 55.5711 21.4835 55.4536 21.4835C55.3066 21.4835 53.5137 22.2183 51.3975 23.1295C49.3106 24.0112 47.0768 24.9812 46.4596 25.2457C45.8718 25.5102 45.4015 25.7748 45.4309 25.8335C45.4897 25.8629 46.8417 25.4221 48.4583 24.8342C50.0748 24.2464 52.3674 23.3058 53.5431 22.7768C54.6894 22.2183 55.6593 21.7187 55.6593 21.6305Z" fill="#15006A"/>
<path d="M18.3608 40.5296C18.4784 40.2356 18.5666 40.0005 18.5372 40.0005C18.4784 40.0005 17.3321 41.0292 15.9801 42.2931C14.5986 43.5569 12.9233 44.9971 12.2473 45.5262C11.5419 46.0553 11.0422 46.5549 11.1304 46.7019C11.2186 46.8194 11.777 46.5549 12.3648 46.114C12.9821 45.6732 14.5105 44.3505 15.8037 43.1748C17.0676 41.9992 18.2139 40.7941 18.3608 40.5296Z" fill="#15006A"/>
<path fill-rule="evenodd" clip-rule="evenodd" d="M29.0301 20.0139C29.2065 20.0139 28.4423 20.4842 27.296 21.0426C26.1791 21.6011 24.445 22.7768 23.475 23.6291C22.4169 24.5697 21.3294 25.9217 20.771 26.9504C20.2713 27.891 19.7422 29.3606 19.6541 30.1542C19.5365 31.0947 19.6247 32.4174 19.9186 33.8282C20.1831 35.0332 20.7416 36.7674 21.1825 37.6491C21.6233 38.5309 22.6521 39.9711 23.4456 40.8529C24.2686 41.7052 25.4737 42.734 26.1203 43.1161C26.7669 43.4982 28.2365 44.1154 29.3534 44.4975C30.4997 44.8796 31.7342 45.3792 32.1457 45.585C32.5572 45.7907 33.3214 46.3492 33.821 46.8782C34.3501 47.3779 34.8497 47.7012 34.9379 47.5836C35.0261 47.4367 33.1156 45.1735 30.6761 42.4988C28.2659 39.8241 26.3261 37.6491 26.4142 37.6491C26.5024 37.6491 26.7963 37.7667 27.0903 37.9431C27.4723 38.1488 27.7369 38.09 28.1778 37.6197C28.5892 37.2083 29.1477 37.0319 30.0882 37.0319C31.2639 37.0319 31.5284 36.9143 32.4396 35.8562C33.3508 34.7687 33.5859 34.6512 34.497 34.7687C35.0555 34.8569 36.0548 34.7393 36.7014 34.5042C37.3481 34.2691 37.9653 33.9457 38.0535 33.74C38.171 33.5343 38.4062 34.7687 38.5825 36.4735C38.7883 38.1782 39.1704 40.7647 39.4349 42.2343C39.6994 43.7333 40.0227 45.0559 40.1403 45.1735C40.2579 45.3205 40.5812 45.3498 40.8163 45.2323C41.1984 45.0265 41.1984 44.909 40.2579 43.3806L40.9927 44.0272C41.3748 44.4093 41.9332 44.7032 42.2271 44.7032C42.4917 44.7032 42.815 44.9971 42.9032 45.3792C42.9564 45.5388 43.0336 45.8067 43.124 46.1202C43.2335 46.4997 43.3622 46.9461 43.491 47.3485C43.6967 48.0833 43.8731 49.2002 43.9025 49.8468C43.9025 50.611 43.6674 51.3752 43.2559 52.0512C42.8738 52.6097 41.992 53.3739 41.2572 53.756C40.2873 54.2556 39.5525 54.4026 38.5531 54.3438C37.6126 54.285 36.966 54.0499 36.4075 53.5208C35.996 53.1093 35.1143 51.7573 34.4677 50.5229C33.4683 48.5242 33.3801 48.1715 33.7622 47.8776C34.1149 47.5543 34.1443 47.4073 33.8504 47.084C33.6447 46.8782 32.9687 46.4374 32.3808 46.1434C31.7636 45.8201 30.294 45.2911 29.1477 44.909C27.972 44.5269 26.2673 43.7627 25.3855 43.2042C24.5038 42.6458 23.2693 41.5877 22.6814 40.8529C22.0936 40.1475 21.2706 38.8248 20.8591 37.9431C20.4477 37.0613 19.9186 35.5329 19.6541 34.563C19.4189 33.593 19.2132 32.2116 19.2132 31.4768C19.2132 30.742 19.3895 29.5075 19.6247 28.6846C19.8892 27.891 20.5064 26.5683 21.0355 25.7748C21.5646 24.9812 22.7402 23.7467 23.622 23.0707C24.5038 22.3653 26.0321 21.3953 26.9727 20.8957C27.9426 20.4254 28.8832 20.0139 29.0301 20.0139ZM38.2886 37.7079C38.1123 35.915 37.8771 34.416 37.7889 34.4454C37.6714 34.4748 37.2599 34.6511 36.8484 34.8863C36.4369 35.092 35.4964 35.2978 34.7028 35.2978C33.5271 35.2978 33.2038 35.4153 32.5866 36.1795C32.1751 36.6792 31.5284 37.1788 31.117 37.3552C30.7055 37.5316 30.0001 37.6491 29.5004 37.6491C29.0301 37.6491 28.5011 37.8549 28.3247 38.09C28.0896 38.4427 28.7656 39.3539 31.5872 42.5576C33.5565 44.7914 35.2612 46.7313 35.3494 46.8488C35.4376 46.9958 36.4369 46.7606 37.5832 46.3198L37.7174 46.2668C38.7767 45.8487 39.6712 45.4956 39.6994 45.4674C39.6994 45.4674 39.4937 44.4387 39.1704 43.2336C38.8765 42.0285 38.4944 39.5302 38.2886 37.7079Z" fill="#15006A"/>
<path d="M9.69049 91.8775C9.95502 92.2008 10.4253 92.9944 10.7486 93.641C11.1601 94.4248 11.8361 97.511 12.7767 102.9C13.5408 107.338 14.2463 111.541 14.5108 113.481L12.3064 113.334L11.8067 110.541C11.5128 109.013 10.8074 105.28 10.2489 102.224C9.69049 99.1961 9.22021 96.4039 9.22021 95.9924C9.22021 95.3752 9.36718 95.2576 10.102 95.2576C10.5722 95.2576 10.9837 95.1694 10.9837 95.0225C10.9837 94.9049 10.7192 94.3758 10.3959 93.8468C10.0726 93.3471 9.6611 92.965 9.51414 93.0532C9.33778 93.1414 9.22021 92.7887 9.22021 92.2302C9.24961 91.3191 9.24961 91.3191 9.69049 91.8775Z" fill="#003FFF"/>
<path fill-rule="evenodd" clip-rule="evenodd" d="M36.4078 92.142C38.7592 92.2302 39.9055 92.436 42.1393 93.2002C43.6677 93.7292 45.6663 94.5816 46.5481 95.1106C47.4298 95.6397 48.9582 96.9036 49.9282 97.9323C50.8981 98.961 52.1326 100.666 52.6616 101.724C53.1907 102.782 53.7491 104.369 53.9255 105.251C54.1312 106.221 54.19 108.513 54.1312 110.982C54.0137 114.362 53.8373 115.538 53.2201 117.449C52.7792 118.742 52.0444 120.447 51.5153 121.27C51.0157 122.063 50.1339 123.239 49.5461 123.856C48.9288 124.503 47.9001 125.384 45.9602 126.707L44.6964 127.471C44.1967 127.765 42.8153 128.294 41.6984 128.676C40.5521 129.058 38.4065 129.499 36.9075 129.646C35.0558 129.852 33.5274 129.852 32.0578 129.617C30.9115 129.441 28.9423 128.911 27.7372 128.471C26.5321 128 25.327 127.412 25.0919 127.148C24.8568 126.883 24.5629 126.678 24.4159 126.707C24.2983 126.707 23.975 126.531 23.7105 126.325C23.446 126.149 22.2115 124.973 18.7726 121.505C18.6817 121.336 18.4663 120.948 18.3317 120.74C18.3317 120.564 18.1554 120.123 17.9203 119.8C17.6851 119.477 17.303 118.419 17.0385 117.449C16.7152 116.155 16.5976 114.656 16.6858 111.717C16.7446 108.308 16.8915 107.426 17.5676 105.398C18.0084 104.105 18.9196 102.135 19.5662 100.989C20.2422 99.8428 21.8294 97.8735 23.152 96.5508C25.0037 94.6991 25.8855 94.0231 27.2081 93.5235C28.1487 93.2001 29.9416 92.7005 31.1761 92.4653C32.5869 92.2008 34.6149 92.0833 36.4078 92.142ZM35.0852 99.8133C35.0852 99.7252 34.9088 99.6664 34.7031 99.6958C34.5267 99.6958 33.9095 99.8427 33.3805 99.9897C32.8808 100.137 31.8521 100.842 31.1173 101.577C30.3237 102.37 29.6771 103.34 29.5007 103.987C29.3537 104.604 29.2068 105.427 29.2068 105.839C29.2068 106.25 29.3831 107.22 29.6183 108.043C29.8534 108.837 30.4706 110.071 30.9409 110.747C31.4406 111.453 32.293 112.276 32.7926 112.599C33.3217 112.922 34.4974 113.246 35.3791 113.363C36.3197 113.481 37.6717 113.392 38.6122 113.187C39.8761 112.893 40.4933 112.569 41.4633 111.541C42.1687 110.806 42.8447 109.777 43.021 109.131C43.168 108.543 43.315 107.455 43.315 106.72C43.315 105.986 43.168 104.869 42.9916 104.222C42.7859 103.576 42.3156 102.547 41.8748 101.93C41.4633 101.312 40.5815 100.548 39.9349 100.225C39.2883 99.9309 38.4653 99.6664 38.0832 99.6664C37.7305 99.6664 37.4366 99.7546 37.4366 99.8721C37.4366 100.019 38.1126 100.372 38.9649 100.695C39.8761 101.048 40.8166 101.694 41.3163 102.312C41.9335 103.076 42.2275 103.869 42.4332 105.251C42.6096 106.485 42.6096 107.632 42.4038 108.484C42.2275 109.219 41.816 110.218 41.4633 110.747C41.1106 111.276 40.4052 111.923 39.9349 112.187C39.4352 112.452 38.3183 112.746 37.4366 112.834C36.5548 112.893 35.2909 112.805 34.6443 112.658C33.9977 112.481 33.0865 112.04 32.6163 111.658C32.146 111.276 31.4406 110.453 31.0879 109.807C30.7058 109.16 30.2943 107.896 30.1767 107.014C30.0298 105.839 30.1179 105.016 30.4706 104.075C30.7352 103.34 31.323 102.37 31.7639 101.9C32.2048 101.43 33.1453 100.813 33.8213 100.519C34.5267 100.195 35.0852 99.9015 35.0852 99.8133ZM34.8794 102.606C34.9382 102.429 34.7913 102.312 34.6149 102.312C34.4092 102.312 33.8213 102.664 33.2923 103.105C32.7926 103.576 32.1754 104.281 31.9696 104.722C31.7345 105.192 31.5582 105.662 31.5582 105.839C31.5582 106.015 31.6757 106.133 31.8521 106.133C31.999 106.133 32.2048 105.809 32.293 105.398C32.3811 104.986 32.7632 104.252 33.1453 103.781C33.5274 103.311 34.0565 102.9 34.321 102.9C34.5855 102.9 34.8207 102.782 34.8794 102.606ZM33.7626 116.185C33.8213 115.479 33.7626 114.95 33.6156 114.95C33.4686 114.95 32.9396 115.744 32.4399 116.714C31.9696 117.684 31.4112 119.036 31.2348 119.712C31.0585 120.417 30.9997 121.24 31.0879 121.563C31.2936 122.151 31.323 122.151 31.8815 121.475C32.1754 121.123 32.3811 120.711 32.293 120.535C32.2048 120.358 32.2636 120.241 32.4399 120.241C32.6163 120.241 32.9396 119.624 33.1747 118.83C33.4098 118.066 33.6744 116.89 33.7626 116.185Z" fill="#003FFF"/>
</svg>
