<svg width="200" height="200" viewBox="0 0 200 200" fill="none" xmlns="http://www.w3.org/2000/svg">
<path fill-rule="evenodd" clip-rule="evenodd" d="M132.999 170.703C138.51 170.718 143.506 170.733 144.081 170.747C144.965 170.762 145.142 170.806 145.083 170.983C145.024 171.175 142.548 171.204 123.935 171.19C112.338 171.175 102.818 171.219 102.759 171.263C102.714 171.307 106.104 171.366 110.319 171.366C114.784 171.381 117.716 171.44 117.378 171.514C117.053 171.573 108.167 171.632 97.6302 171.632C87.0934 171.617 78.6345 171.573 78.8408 171.514C79.0471 171.455 81.0661 171.337 83.3355 171.278C85.605 171.204 90.6745 171.16 94.6092 171.19C98.5439 171.204 101.727 171.204 101.683 171.16C101.639 171.116 101.344 171.057 101.02 170.998C100.695 170.954 100.224 170.91 99.9881 170.88C99.7376 170.851 104.822 170.806 111.262 170.762C117.702 170.718 127.487 170.703 132.999 170.703ZM80.8303 176.23C81.2282 176.23 83.2177 176.289 85.2513 176.362C87.344 176.451 101.049 176.524 117.068 176.554C139.424 176.583 145.215 176.627 145.26 176.775C145.289 176.907 138.834 176.937 113.207 176.878C95.5671 176.849 80.6977 176.76 79.2092 176.554L80.1671 176.51C81.0071 176.48 81.0513 176.451 80.6092 176.362C80.1229 176.259 80.1229 176.259 80.8303 176.23ZM88.1397 181.373C93.1945 181.373 100.121 181.432 103.525 181.52C106.929 181.594 115.182 181.726 121.872 181.815C128.563 181.888 136.388 182.006 139.262 182.065C143.27 182.139 144.537 182.213 144.67 182.36C144.773 182.463 144.862 182.625 144.862 182.699C144.862 182.802 142.607 182.846 138.333 182.832C134.752 182.817 132.055 182.758 132.335 182.714C132.748 182.625 132.601 182.581 131.525 182.493C130.788 182.434 129.506 182.419 128.651 182.478C127.796 182.522 123.847 182.507 119.883 182.419C115.904 182.331 108.123 182.183 102.567 182.08C95.965 181.947 93.1355 181.859 96.3039 181.712L94.0934 181.756C92.8702 181.771 91.8092 181.8 91.7355 181.815C91.6471 181.815 88.7734 181.771 85.3545 181.712C81.9208 181.653 79.0766 181.55 79.0324 181.491C78.9882 181.417 83.0998 181.373 88.1397 181.373ZM147.293 189.227C147.942 189.227 148.236 189.257 147.956 189.286C147.676 189.316 147.146 189.316 146.777 189.286C146.409 189.257 146.645 189.227 147.293 189.227Z" fill="#15006A"/>
<path d="M37.401 92.3625C37.5042 92.3625 37.5484 92.2593 37.4894 92.112V92.0972C37.4452 91.9646 37.4452 91.8762 37.4894 91.9204C37.5336 91.9646 37.8136 92.4951 38.1231 93.1141C38.6094 94.072 38.6389 94.1899 38.3589 93.9983C38.1821 93.8656 38.0199 93.6151 38.0199 93.4235C38.0199 93.2467 37.8431 92.9372 37.6221 92.7309C37.3863 92.5246 37.2978 92.3478 37.401 92.3625Z" fill="#15006A"/>
<path d="M39.6263 97.7267C39.4936 97.5793 39.3463 97.3583 39.302 97.2551C39.2578 97.1225 39.361 97.152 39.6115 97.3435C39.8915 97.5793 40.1568 97.653 40.5105 97.6088C40.9526 97.5646 40.9968 97.5793 40.8052 97.7709C40.6873 97.8888 40.4368 97.992 40.2305 97.992C40.0242 97.992 39.7589 97.8741 39.6263 97.7267Z" fill="#15006A"/>
<path fill-rule="evenodd" clip-rule="evenodd" d="M132.999 0.00711599C133.942 0.0365896 134.369 0.139747 135.135 0.49343C135.666 0.729218 136.373 1.21553 136.727 1.55448C137.066 1.89342 137.508 2.4829 137.7 2.88079C137.891 3.26394 138.142 3.97131 138.245 4.45762C138.392 5.13552 138.451 9.24708 138.598 39.1775L139.335 39.428C139.748 39.5606 140.249 39.7817 140.441 39.9143C140.647 40.0322 141.03 40.4743 141.295 40.8722C141.561 41.2848 141.811 41.8743 141.855 42.2575C141.914 42.6848 141.87 43.1712 141.723 43.6575C141.575 44.1143 141.266 44.6006 140.927 44.9396C140.617 45.249 140.116 45.5732 139.822 45.6764C139.527 45.7796 139.262 45.9269 139.247 46.0154C139.247 46.1038 139.114 46.4575 138.982 46.8259C138.834 47.1943 138.201 48.2848 137.552 49.2574C136.904 50.2301 136.182 51.4238 135.946 51.9101C135.71 52.3964 135.489 53.1332 135.46 53.5311C135.401 54.1795 135.445 54.3269 135.813 54.7543C136.049 55.0195 136.476 55.3143 136.756 55.4027C137.036 55.4911 137.596 55.5206 138.009 55.4764C138.54 55.4174 138.849 55.2848 139.114 55.0048C139.409 54.7101 139.497 54.4448 139.527 53.7816C139.556 53.3248 139.601 52.7943 139.645 52.6174C139.689 52.3816 139.807 52.2785 140.028 52.2785C140.22 52.2785 140.514 52.4259 140.691 52.6027C140.868 52.7943 141.089 53.2364 141.192 53.6048C141.295 53.9732 141.325 54.5037 141.281 54.7837C141.222 55.0637 140.986 55.5943 140.323 56.6258L140.794 56.9943C141.045 57.2006 142.165 57.9374 143.285 58.6153C144.39 59.3079 145.952 60.2806 148.177 61.71H150.196C151.316 61.71 152.23 61.7542 152.23 61.8279C152.23 61.8869 154.47 61.9753 157.196 62.0342C159.937 62.0932 164.963 62.2111 168.367 62.2848C171.771 62.3732 175.485 62.5058 176.619 62.5795C177.754 62.6679 179.243 62.8448 179.935 62.9627C180.687 63.11 181.659 63.4342 182.367 63.7732C183.074 64.1121 183.84 64.6279 184.283 65.0553C184.71 65.4826 185.27 66.2784 185.624 66.9563C185.962 67.59 186.375 68.6216 186.537 69.2258C186.699 69.83 186.906 70.7879 186.994 71.3626C187.083 71.9374 187.215 74.1184 187.289 76.2258C187.377 78.3331 187.48 81.5163 187.525 83.2994C187.569 85.0826 187.687 88.1331 187.775 90.0783C187.849 92.0236 187.981 98.8467 188.04 105.257C188.129 115.219 188.188 117.091 188.394 118.226C188.527 118.962 188.807 120.451 188.998 121.541C189.205 122.632 189.838 126.316 190.398 129.72C190.973 133.124 191.489 136.47 191.533 137.162C191.636 138.341 191.607 138.459 191.268 139.004C191.061 139.329 190.56 139.8 190.162 140.065C189.765 140.316 188.984 140.684 187.407 141.215L187.495 152.562C187.539 158.796 187.525 165.074 187.451 166.489C187.377 167.903 187.215 169.76 187.083 170.615C186.965 171.47 186.714 172.531 186.552 172.973C186.39 173.415 186.066 174.078 185.83 174.446C185.594 174.815 185.078 175.419 184.666 175.817C184.253 176.2 183.634 176.642 183.28 176.804C182.941 176.952 182.131 177.217 181.483 177.394C180.834 177.556 179.272 177.762 178.019 177.865C176.251 177.998 174.409 177.998 169.84 177.865C166.598 177.762 162.074 177.63 159.79 177.571C157.521 177.512 155.678 177.423 155.708 177.364C155.737 177.291 161.175 177.246 167.777 177.246C177.901 177.246 179.95 177.217 180.819 177.025C181.379 176.907 182.205 176.672 182.617 176.51C183.045 176.347 183.678 175.994 184.003 175.729C184.341 175.463 184.813 174.992 185.064 174.667C185.314 174.343 185.683 173.665 185.904 173.164C186.11 172.649 186.375 171.661 186.493 170.954C186.611 170.232 186.788 168.832 186.861 167.815C186.935 166.798 187.053 160.402 187.23 141.244L186.861 141.333C186.655 141.377 184.341 141.731 181.704 142.099C179.066 142.468 175.057 143.028 172.788 143.352C170.518 143.676 166.245 144.265 163.283 144.678C160.32 145.076 155.487 145.739 152.525 146.152C149.563 146.564 145.952 147.051 144.493 147.257C143.034 147.463 139.188 147.979 135.946 148.436C132.704 148.878 129.314 149.335 128.43 149.453C127.546 149.571 125.055 149.91 122.904 150.204C120.752 150.484 116.582 151.059 113.62 151.457L113.605 151.459C110.645 151.857 106.705 152.386 104.851 152.621C102.994 152.872 100.357 153.211 98.986 153.373C97.6302 153.535 96.1713 153.668 95.7439 153.668C95.3313 153.668 94.7271 153.594 94.4176 153.52C94.1229 153.432 93.6218 153.122 93.3123 152.828C92.9881 152.503 92.6197 151.914 92.4281 151.428C92.1776 150.779 91.2934 144.884 88.7882 127.407C86.9755 114.659 85.3692 103.238 85.2366 102.015C85.0892 100.704 85.0303 99.2593 85.0598 98.4783C85.1187 97.6678 85.2513 96.9015 85.4134 96.5036C85.5755 96.1351 85.9587 95.6046 86.2976 95.3246C86.7103 94.9562 87.2555 94.6909 88.125 94.4257C89.1566 94.1162 89.5397 93.8952 90.6155 93.0404C91.3081 92.4804 92.546 91.5225 93.3566 90.9183C94.1671 90.2994 96.3629 88.6194 98.2197 87.1752C100.077 85.731 102.7 83.6973 104.026 82.6657C105.338 81.6342 106.605 80.7205 106.826 80.6173C107.121 80.4699 103.083 80.4405 68.5988 80.4994L68.4956 81.0152C68.4219 81.2952 68.2009 82.592 67.9946 83.8889C67.7882 85.1857 67.5819 86.291 67.5525 86.3647C67.523 86.4236 67.5967 86.5562 67.744 86.6594C67.8767 86.7478 68.2156 87.2047 68.4956 87.6468C68.923 88.3099 69.0261 88.6047 69.0261 89.2678C69.0409 89.8425 68.9524 90.2257 68.7314 90.5941C68.5546 90.8741 68.1861 91.2573 67.9209 91.4341C67.6409 91.611 67.2872 91.7731 67.1251 91.7731C66.904 91.7731 66.8893 91.7288 67.0219 91.5962C67.1251 91.4931 67.1988 91.3015 67.1988 91.1836C67.1988 90.992 67.184 90.992 66.9777 91.1836C66.8451 91.3015 66.7419 91.5078 66.7125 91.6404C66.6977 91.7731 66.5798 91.9794 66.4619 92.1267C66.2556 92.3478 66.2851 92.4215 66.7125 92.952C66.9777 93.2762 67.1988 93.5857 67.1988 93.6594C67.1988 93.7183 67.3019 93.8804 67.4198 94.0278C67.6114 94.2488 67.5967 94.3667 67.2724 95.0594C67.0809 95.472 66.8451 96.3267 66.7714 96.9309C66.683 97.5351 66.5504 98.6699 66.4619 99.4362C66.3735 100.203 66.1377 102.133 65.9461 103.71C65.7398 105.287 65.4451 107.556 65.283 108.765C65.1209 109.958 64.8556 111.948 64.6788 113.186C64.5167 114.409 64.1925 116.781 63.9567 118.447C63.7062 120.112 63.5146 121.645 63.5146 121.88C63.5146 122.19 63.6177 122.322 63.9861 122.485C64.2514 122.588 64.8261 123.059 65.2388 123.516C65.9461 124.268 66.0198 124.4 66.0198 125.049C66.0198 125.432 65.9167 126.08 65.7693 126.478C65.6072 126.935 65.2977 127.421 64.9146 127.775C64.5904 128.084 64.2809 128.335 64.2072 128.32C64.1483 128.32 63.8977 128.188 63.2198 127.731L63.2051 128.364C63.2051 128.703 63.1904 136.352 63.1756 145.371C63.1609 154.375 63.1019 161.802 63.0283 161.876C62.9693 161.935 62.8809 161.935 62.8072 161.876C62.7483 161.802 62.6893 154.006 62.6598 127.362L62.0998 126.743C61.7756 126.405 61.5693 126.11 61.6283 126.11C61.7019 126.11 61.9377 126.242 62.1883 126.405C62.6009 126.67 62.6304 126.684 62.6304 126.449C62.6304 126.301 62.6746 125.771 62.7335 125.255C62.8367 124.4 62.8367 124.341 62.5567 124.327C62.2914 124.327 62.2914 124.312 62.5862 124.179C62.7777 124.106 62.9988 124.076 63.0725 124.12C63.1462 124.165 63.2198 124.327 63.2198 124.489C63.2198 124.739 63.323 124.783 63.9125 124.783C64.3104 124.783 64.723 124.725 64.8409 124.636C65.0325 124.518 65.0325 124.459 64.8409 124.12C64.723 123.899 64.4135 123.531 64.1777 123.295C63.9272 123.059 63.5146 122.823 63.2198 122.779C62.9398 122.735 62.3356 122.72 61.083 122.794V123.31C61.083 123.59 61.0388 124.312 60.9651 124.901C60.8767 125.859 60.8914 125.962 61.1125 125.977C61.3188 125.977 61.3335 126.007 61.1567 126.066C61.0388 126.11 60.8914 126.228 60.8325 126.316C60.7735 126.405 60.6851 127.245 60.6409 128.173C60.5967 129.101 60.523 130.03 60.4935 130.236C60.4346 130.531 60.1841 130.722 59.1377 131.209C58.4156 131.548 57.1483 132.078 56.3083 132.388C55.3799 132.741 54.702 133.08 54.5841 133.257C54.4957 133.419 54.363 133.817 54.3041 134.141C54.2599 134.466 54.0536 134.996 53.8767 135.32C53.6851 135.644 53.2578 136.146 52.3146 136.941L52.6094 138.12C52.7715 138.769 53.0662 140.36 53.2578 141.657C53.4641 142.954 53.7588 145.268 53.9209 146.815C54.083 148.362 54.3188 150.75 54.4515 152.12C54.5693 153.491 54.7757 155.922 54.8936 157.499C55.0114 159.076 55.2178 161.964 55.3357 163.91C55.4472 165.751 55.5984 168.397 55.6893 169.987L55.7041 170.246C55.7778 171.794 55.8957 174.049 56.0283 177.467L57.6788 177.364C58.5778 177.291 60.022 177.246 62.483 177.246V175.67C62.483 174.697 62.5714 173.783 62.6893 173.341C62.8072 172.943 63.1019 172.427 63.323 172.206C63.544 171.985 63.9714 171.735 64.2514 171.646C64.5314 171.558 65.5335 171.455 66.4619 171.411C67.3903 171.366 68.3777 171.307 69.1145 171.204V169.259C69.1145 168.183 69.1882 166.739 69.2619 166.046C69.3503 165.354 69.4977 164.705 69.6009 164.587C69.6893 164.47 70.0724 164.234 70.4409 164.072C71.085 163.764 71.3365 163.762 83.9683 163.661L84.2197 163.659C91.4408 163.615 99.325 163.541 101.757 163.497C104.498 163.453 105.618 163.468 104.704 163.541C103.893 163.6 102.066 163.733 100.651 163.821C99.1629 163.91 92.6197 163.969 85.1776 163.969C75.6577 163.969 72.0766 164.013 71.4724 164.145C70.9861 164.249 70.5293 164.47 70.323 164.676C70.1461 164.853 69.9251 165.295 69.8219 165.649C69.6893 166.091 69.6451 169.067 69.6303 186.899L69.9545 187.562C70.1314 187.931 70.4556 188.387 70.6619 188.594C71.0451 188.947 71.1335 188.962 74.0956 189.08C75.7756 189.139 80.0345 189.242 83.5566 189.301C87.0787 189.36 103.997 189.404 121.135 189.404C148.428 189.404 152.392 189.375 153.026 189.183C153.424 189.065 153.822 188.83 153.91 188.667C154.028 188.461 154.072 186.56 154.072 182.478C154.072 178.131 153.998 175.699 153.807 173.194C153.659 171.322 153.453 169.141 153.335 168.331C153.217 167.52 153.026 166.385 152.908 165.825C152.731 165.015 152.554 164.646 151.523 163.468L128.857 163.394C111.468 163.335 107.504 163.291 111.851 163.202C114.975 163.143 125.114 163.084 134.398 163.07C149.179 163.055 151.331 163.084 151.714 163.276C151.965 163.409 152.333 163.703 152.554 163.969C152.79 164.219 153.026 164.676 153.114 164.985C153.188 165.28 153.35 166.297 153.468 167.225C153.601 168.154 153.792 170.114 153.925 171.573C154.043 173.032 154.219 175.286 154.293 176.583C154.382 177.88 154.441 181.122 154.441 188.667L154.072 189.08C153.866 189.301 153.527 189.552 153.291 189.64C153.07 189.728 152.053 189.846 149.165 189.994L149.106 192.145C149.076 193.796 149.017 194.356 148.841 194.547C148.723 194.68 148.325 194.886 147.956 195.004C147.411 195.181 143.742 195.24 126.146 195.343C114.519 195.417 96.0681 195.461 65.283 195.373L64.5019 195.019C64.0598 194.813 63.4998 194.4 63.1904 194.017C62.8809 193.678 62.5567 193.088 62.4535 192.72C62.3209 192.248 62.2619 190.613 62.2619 186.899C62.2619 184.07 62.2914 180.945 62.4093 178.204L55.9988 178.131L56.102 182.743C56.1757 185.263 56.2199 188.432 56.2199 192.204L51.283 192.131V193.088C51.283 193.722 51.342 194.076 51.4599 194.105C51.563 194.149 52.4325 194.194 55.1146 194.267L55.1736 192.204L55.262 194.341L55.8809 194.503C56.2346 194.577 56.7504 194.724 57.0304 194.813C57.3104 194.901 58.003 195.211 58.563 195.505C59.123 195.8 59.742 196.213 59.9335 196.448C60.1104 196.669 60.2725 196.994 60.2725 197.509L55.6599 197.451C53.1399 197.421 51.0325 197.377 50.9883 197.333C50.9441 197.288 50.8851 196.154 50.7673 192.352L47.7167 192.204L46.9946 189.846C46.5967 188.55 45.8157 185.926 45.2557 184.025C44.6957 182.124 44.0915 180.017 43.6199 178.131H41.262C39.9652 178.131 38.8599 178.116 38.7863 178.101C38.7273 178.072 38.5357 178.823 38.3441 179.752C38.1526 180.68 37.6073 183.244 37.1357 185.425C36.6642 187.606 35.9863 190.613 34.9989 194.739L32.2431 194.562L32.3021 195.564C32.3315 196.124 32.3757 196.64 32.42 196.699C32.4642 196.758 33.1273 197.023 33.8936 197.288C34.66 197.539 35.5589 197.907 35.8831 198.099C36.2073 198.291 36.6494 198.629 36.8705 198.865C37.0915 199.086 37.2978 199.44 37.3568 200L32.7147 199.956C30.1652 199.926 28.0431 199.882 27.9989 199.838C27.9547 199.808 27.9252 198.541 27.9252 194.341H26.4516L26.3337 191.88C26.2747 190.51 26.1568 186.914 26.0684 183.878C25.9947 180.842 25.9063 178.337 25.8916 178.322C25.8771 178.293 24.7627 178.221 23.4203 178.135L23.3568 178.131C21.9716 178.042 20.0263 177.91 19.0095 177.821C17.639 177.718 16.8284 177.571 15.8411 177.232C15.1042 176.981 14.0874 176.495 13.5569 176.156C13.0264 175.802 12.3337 175.198 11.9948 174.8C11.6706 174.402 11.2727 173.886 11.0958 173.636C10.9337 173.385 10.6537 172.811 10.4769 172.354C10.3148 171.882 10.0937 171.204 10.02 170.836C9.93163 170.467 9.81373 169.23 9.72531 168.08C9.65163 166.916 9.47479 164.278 9.35689 162.215C9.239 160.152 9.06216 154.449 8.98847 149.541C8.90005 144.634 8.78216 139.668 8.69374 138.489C8.62006 137.31 8.5169 133.331 8.47269 129.647C8.42848 125.962 8.36953 117.076 8.34006 109.899C8.29585 102.722 8.31058 96.5625 8.36953 96.1941C8.42848 95.7078 8.50216 95.5752 8.63479 95.6783C8.76742 95.7962 8.82637 99.4509 8.91479 110.636C8.97374 118.786 9.0769 126.272 9.15058 127.289C9.22426 128.306 9.34216 133.242 9.43058 138.268C9.50426 143.293 9.63689 149.63 9.72531 152.341C9.82847 155.053 9.9611 159.857 10.02 163.025C10.0937 166.194 10.1969 168.964 10.2411 169.215C10.2853 169.465 10.4327 170.158 10.5653 170.762C10.6832 171.366 10.9927 172.295 11.2432 172.825C11.5527 173.474 12.0243 174.122 12.7316 174.844C13.3948 175.507 14.0727 176.023 14.5885 176.274C15.0306 176.48 15.7969 176.745 16.2832 176.878C16.7695 176.996 17.6684 177.158 18.2726 177.246C18.8769 177.32 20.8074 177.482 22.5463 177.6C24.2853 177.718 25.7589 177.792 25.8179 177.747C25.8916 177.718 25.9358 175.655 25.9358 173.164C25.9358 170.659 26.0095 166.164 26.0831 163.173C26.1568 160.181 26.3042 155.731 26.3779 153.299C26.4663 150.868 26.6726 146.859 26.8347 144.383C26.9968 141.908 27.1884 139.638 27.2621 139.343C27.3505 139.034 27.601 138.548 28.2937 137.752L27.5863 137.604C27.1295 137.516 26.6579 137.266 26.1863 136.868C25.5968 136.367 25.4495 136.116 25.1253 135.143C24.9189 134.51 24.6979 133.463 24.6242 132.815C24.5358 132.167 24.4326 131.076 24.3884 130.383C24.3295 129.691 24.3589 128.306 24.4474 127.289C24.5505 126.272 24.6831 124.916 24.7716 124.268C24.86 123.619 25.0958 122.455 25.2726 121.689C25.4642 120.922 25.7147 119.891 25.8621 119.405C25.9947 118.918 26.4074 117.695 26.761 116.678C27.1 115.661 27.7042 114.099 28.0726 113.215C28.441 112.331 29.0452 111.064 29.3989 110.415C29.7379 109.767 30.4894 108.647 31.0642 107.91C31.6242 107.173 32.361 106.318 32.7 105.994C33.0389 105.67 33.3042 105.287 33.3042 105.154C33.3042 105.007 33.2452 104.771 33.1715 104.638C33.1126 104.491 32.7884 104.27 32.4789 104.122C32.1547 103.99 31.2115 103.813 30.3568 103.725C29.5021 103.621 28.5442 103.489 28.22 103.4C27.8958 103.312 27.4095 103.032 27.1442 102.781C26.8642 102.516 26.54 102.104 26.4074 101.868C26.2747 101.632 26.0979 101.19 26.0095 100.91C25.8916 100.497 25.7147 100.32 25.1547 100.07C24.7716 99.8783 24.3589 99.5836 24.241 99.4067C24.1232 99.2151 23.8137 98.5372 23.5632 97.8888C23.1063 96.7246 23.0916 96.6804 23.1063 94.2783C23.5632 92.1857 25.3462 91.6257 26.0095 91.0362C26.6727 90.4467 26.54 87.6468 28.22 86.8362C29.9 86.0257 30.4746 84.8468 32.4789 84.7731C34.4832 84.6994 35.9715 83.9574 36.7968 84.0362C37.6663 84.0805 38.0052 84.1689 37.9757 84.3015C37.961 84.3899 38.0347 84.4636 38.1231 84.4489C38.2263 84.4194 38.3441 84.5668 38.3884 84.7731C38.4326 84.9794 38.521 85.1415 38.6094 85.1415C38.6831 85.1415 38.7273 85.2152 38.6831 85.2889C38.6389 85.3626 38.7273 85.5541 38.8599 85.7163C39.0073 85.8636 39.2431 86.1436 39.3905 86.3352C39.5968 86.6004 39.6557 86.8804 39.6115 87.5141C39.582 88.1036 39.4494 88.531 38.6831 89.7689L39.361 90.8152C39.7294 91.3752 40.2305 91.9941 40.4662 92.1857C40.702 92.3625 41.1883 92.6131 41.5568 92.731C41.9694 92.8636 42.3526 93.1141 42.5441 93.3941C42.7652 93.6741 42.8094 93.8362 42.6915 93.8509C42.6031 93.8509 42.3673 94.0425 41.8515 94.7204L42.5147 99.3772L49.883 95.7373C53.9357 93.7478 58.283 91.6257 59.5356 91.0362C60.7883 90.4468 62.3062 89.7394 63.9567 88.9731L64.7525 90.1962C65.1798 90.8594 65.6514 91.4931 65.784 91.5962C65.9756 91.7436 66.0346 91.7141 66.1377 91.4489C66.2114 91.2573 66.4619 90.9625 66.6977 90.771C66.9335 90.5941 67.243 90.432 67.3756 90.4467C67.523 90.4467 67.6409 90.5204 67.6409 90.5941C67.6409 90.6678 67.5525 90.771 67.4493 90.8004C67.3019 90.8594 67.3019 90.8741 67.4493 90.8741C67.5525 90.8889 67.8324 90.6825 68.083 90.4467C68.4367 90.0931 68.5251 89.8867 68.5251 89.3857C68.5251 89.032 68.3924 88.4868 68.2451 88.1625C68.1124 87.8383 67.7735 87.3962 67.523 87.1752C67.243 86.9394 66.8746 86.7626 66.6388 86.7626C66.4177 86.7626 66.1082 86.8805 65.9314 87.0278C65.7693 87.1605 65.3125 87.691 64.944 88.2068C64.5609 88.7078 64.2219 89.091 64.1777 89.0468C64.1335 89.0025 64.3398 88.5899 64.6346 88.1331C64.9293 87.6615 65.3419 87.1015 65.563 86.8657C65.8283 86.6005 66.1377 86.4383 66.5651 86.3941C67.0809 86.3352 67.2135 86.2615 67.2724 85.9962C67.3019 85.8047 67.464 84.7289 67.6409 83.5941C67.803 82.4594 67.9798 81.3247 68.083 80.6468L56.102 80.5436C49.5294 80.4847 36.0599 80.3963 8.25164 80.2784L8.32532 86.8362C8.38427 92.5836 8.36953 93.4088 8.17795 93.4678C7.98637 93.5267 7.97164 92.112 8.03058 81.0594C8.07479 73.9858 8.16321 68.1353 8.25164 67.5753C8.34006 67.0153 8.50216 66.2637 8.63479 65.8805C8.76742 65.4826 9.04742 64.9226 9.25374 64.5984C9.47479 64.289 9.84321 63.8911 10.0937 63.6995C10.3295 63.5226 10.9043 63.2574 11.3464 63.1248C11.7885 62.9921 13.0853 62.8153 14.22 62.7416C15.3548 62.6679 17.9926 62.5942 20.0705 62.5942C22.1632 62.5942 23.8432 62.55 23.8137 62.4911C23.7842 62.4174 28.4116 62.329 34.0852 62.2553C39.7736 62.1963 48.0704 62.1079 52.5357 62.049C56.9862 61.99 60.5083 61.9163 60.3462 61.8574C60.1841 61.8132 62.7335 61.7542 71.9588 61.6363L72.2387 60.2363C72.3861 59.47 72.6809 58.0995 72.8724 57.2153C73.064 56.3311 73.5356 54.209 73.904 52.4995C74.2724 50.8048 74.8766 48.0785 75.2303 46.4575C75.5987 44.8364 76.0556 42.788 76.2619 41.8891C76.4682 41.0048 76.704 39.9733 76.7777 39.6049C76.8514 39.2364 77.3377 37.0554 77.8829 34.7417C78.5166 31.9712 78.9735 30.3354 79.1945 29.9523C79.3861 29.628 79.9313 28.9944 80.4029 28.5375C80.8892 28.0954 81.6408 27.4912 82.0829 27.2112C82.525 26.9165 84.1166 25.9586 85.6197 25.0596C87.1229 24.1607 91.6618 21.5376 95.7144 19.2386C99.7671 16.9249 105.765 13.5502 109.051 11.7229C112.338 9.8955 115.948 7.90603 117.083 7.30182C118.099 6.74735 119.565 5.95633 120.527 5.43734L120.841 5.26815C121.769 4.75236 124.23 3.485 126.293 2.43869C128.356 1.39237 130.449 0.405009 130.935 0.242905C131.584 0.0365896 132.129 -0.0223576 132.999 0.00711599ZM134.914 1.06812C134.222 0.729171 133.794 0.626014 132.999 0.59654C132.424 0.581804 131.731 0.626014 131.451 0.699698C131.171 0.773382 130.626 0.96496 130.243 1.12706C129.845 1.30391 129.182 1.76075 128.769 2.15864C128.239 2.63022 127.855 3.17548 127.561 3.80916C127.295 4.39863 127.119 5.106 127.06 5.7102C127.015 6.3881 127.074 6.93336 127.251 7.5523C127.472 8.28914 127.679 8.59861 128.489 9.42387C129.359 10.3081 129.58 10.4407 130.567 10.7354C131.422 10.986 131.908 11.0449 132.704 10.986C133.264 10.9418 134.119 10.7649 134.575 10.5881C135.209 10.367 135.651 10.0576 136.241 9.43861C136.697 8.96703 137.213 8.28914 137.39 7.92072C137.655 7.37546 137.714 7.00704 137.714 5.85757C137.714 4.85547 137.626 4.22179 137.434 3.64705C137.243 3.11653 136.918 2.61548 136.476 2.15864C136.108 1.79022 135.401 1.30391 134.914 1.06812ZM127.561 2.80706C127.826 2.45337 128.032 2.17338 128.003 2.17338C127.988 2.17338 127.914 2.23232 127.841 2.30601C127.752 2.37969 125.542 3.58811 122.904 4.97336C120.266 6.37336 117.481 7.86177 116.714 8.28914C115.948 8.70177 114.725 9.37966 113.988 9.76282C113.251 10.146 111.733 10.986 110.599 11.6049C109.464 12.2386 105.809 14.2575 102.493 16.0996C99.1776 17.9565 93.9313 20.8744 90.8513 22.6133C87.7713 24.3522 84.765 26.0764 84.1903 26.4301C83.6008 26.7838 83.1145 27.0933 83.1145 27.1227C83.1145 27.1375 83.4977 27.1227 83.9692 27.0933C84.4261 27.0638 85.2071 27.1227 85.6935 27.2259C86.1798 27.3291 86.9461 27.5943 87.3882 27.8154C87.8303 28.0364 88.4934 28.5375 88.8619 28.9501C89.2303 29.348 89.6871 29.9964 89.8787 30.3943C90.1734 31.028 90.2324 31.3669 90.2324 32.6785C90.2471 34.0932 90.2029 34.3143 89.805 35.169C89.5545 35.729 89.1124 36.3627 88.7145 36.7311C88.3461 37.0701 87.7861 37.4827 87.4619 37.6448C87.1377 37.8217 86.504 38.0574 86.0619 38.1901C85.6198 38.3227 84.8829 38.4259 84.4408 38.4259C83.9987 38.4259 83.3356 38.3522 82.9671 38.2638C82.5987 38.1753 81.9798 37.9395 81.5671 37.7332C81.1693 37.5269 80.5798 37.1585 80.2556 36.908C79.8724 36.5838 79.504 36.0532 79.1356 35.2575L78.5756 34.0785C78.2219 35.3311 77.9566 36.4659 77.7356 37.3943C77.5293 38.3227 77.2198 39.649 77.0724 40.3416C76.9251 41.0343 76.5272 42.8174 76.203 44.3206C75.8935 45.8237 75.3482 48.3142 75.024 49.8469C74.6851 51.3795 74.3166 53.0742 74.1988 53.6047C74.0809 54.1353 73.8451 55.2258 73.6682 56.0363C73.4914 56.8468 73.1672 58.4089 72.9461 59.4995C72.7251 60.59 72.563 61.5331 72.5924 61.6068C72.6219 61.6658 85.6198 61.71 101.462 61.71C124.466 61.71 130.257 61.7542 130.169 61.9016C130.125 61.99 130.199 61.9752 130.361 61.8426C130.508 61.71 131.716 60.7521 133.013 59.7058C134.325 58.6595 135.519 57.731 135.666 57.6279C135.931 57.451 135.931 57.4363 135.651 57.2742C135.489 57.1711 135.062 56.7879 134.693 56.4195C134.31 56.0363 133.942 55.4911 133.853 55.1521C133.75 54.8279 133.662 54.1942 133.662 53.7521C133.662 53.31 133.75 52.6174 133.883 52.2048C134.03 51.7184 134.561 50.849 135.474 49.6258C136.241 48.609 136.963 47.5627 137.095 47.3121C137.243 47.0469 137.331 46.7964 137.302 46.7669C137.287 46.7374 136.874 46.5164 136.388 46.2806C135.902 46.03 135.312 45.6174 135.076 45.3374C134.841 45.0574 134.561 44.6153 134.443 44.3648C134.34 44.0995 134.251 43.4953 134.251 43.0385C134.251 42.508 134.369 41.948 134.546 41.5648C134.708 41.2111 135.106 40.6806 135.43 40.3859C135.754 40.0764 136.359 39.6785 136.786 39.5164L137.567 39.1922C137.626 34.8743 137.7 33.8575 137.788 33.8575C137.891 33.8575 137.935 29.5396 137.935 21.1838C137.935 14.2133 137.891 8.51019 137.832 8.51019C137.758 8.52493 137.478 8.8344 137.184 9.21756C136.889 9.60071 136.27 10.1754 135.784 10.5144C135.165 10.9418 134.575 11.1923 133.735 11.3839C132.689 11.6344 132.439 11.6491 131.525 11.487C130.95 11.3839 130.125 11.1333 129.683 10.927C129.241 10.7207 128.607 10.3376 128.283 10.0723C127.959 9.80703 127.457 9.15861 127.177 8.64282C126.735 7.81756 126.662 7.53757 126.617 6.37336C126.559 5.35652 126.617 4.85547 126.824 4.23653C126.971 3.79442 127.31 3.146 127.561 2.80706ZM86.5777 27.9775C86.1798 27.8301 85.4429 27.668 84.9566 27.6238C84.4703 27.5943 83.7777 27.6091 83.4092 27.668C83.0408 27.727 82.4956 27.8891 82.2008 28.0217C81.8914 28.1543 81.2724 28.6112 80.8156 29.0385C80.3735 29.4512 79.8429 30.1291 79.6514 30.5417C79.4598 30.9543 79.224 31.6175 79.1356 32.0154C79.0472 32.428 78.9735 33.0175 78.9587 33.3417C78.944 33.7543 79.0914 34.2259 79.445 34.8743C79.725 35.3901 80.285 36.1269 80.6829 36.4953C81.1987 36.9669 81.7145 37.2764 82.3777 37.5122C82.9082 37.689 83.6303 37.8806 83.9987 37.9248C84.4113 37.9838 85.0008 37.9248 85.5903 37.7774C86.0913 37.6448 86.7545 37.409 87.064 37.2617C87.3587 37.0996 87.904 36.6869 88.2576 36.3332C88.6113 35.9943 89.0976 35.3017 89.3187 34.8154C89.6871 34.049 89.7461 33.769 89.7461 32.6048C89.7461 31.529 89.6724 31.1459 89.4071 30.5417C89.1861 30.0848 88.7145 29.4954 88.184 29.0238C87.6829 28.567 87.005 28.1248 86.5777 27.9775ZM139.114 41.1964C138.834 41.049 138.407 40.9311 138.156 40.9459C137.906 40.9459 137.479 41.0195 137.199 41.1227C136.904 41.2259 136.55 41.5058 136.359 41.8153C136.137 42.1395 136.02 42.5522 136.02 42.9206C136.02 43.2448 136.152 43.7311 136.314 43.9964C136.476 44.2469 136.786 44.5858 137.022 44.7185C137.243 44.8658 137.714 44.9837 138.083 44.9837C138.451 44.9837 138.923 44.8658 139.158 44.7185C139.38 44.5858 139.689 44.2469 139.851 43.9964C140.013 43.7311 140.146 43.2743 140.146 42.9943C140.146 42.7143 140.028 42.2574 139.881 41.9774C139.748 41.6974 139.394 41.3437 139.114 41.1964ZM140.927 57.7605C140.337 57.4216 139.763 57.1416 139.674 57.1416C139.571 57.1563 139.291 57.2595 139.041 57.4068C138.746 57.5689 138.23 57.6574 137.493 57.6574C136.594 57.6721 136.27 57.7458 135.799 58.0405C135.474 58.2321 134.62 58.8805 133.883 59.4847C133.161 60.0742 132.276 60.7521 131.937 60.9879C131.584 61.2237 131.333 61.4889 131.377 61.5626C131.422 61.651 134.251 61.71 139.38 61.7247C143.933 61.7247 147.175 61.7837 146.998 61.8573C146.748 61.9605 146.748 61.99 146.969 61.99C147.102 62.0047 147.249 61.931 147.293 61.8573C147.337 61.7837 147.19 61.6216 146.969 61.5037C146.733 61.4005 145.525 60.6489 144.272 59.8384C143.02 59.0279 141.502 58.0995 140.927 57.7605ZM137.567 61.9605C137.891 61.931 137.655 61.9016 137.051 61.9016C136.447 61.9016 136.182 61.931 136.462 61.9605C136.742 61.99 137.243 61.99 137.567 61.9605ZM26.2305 62.55C26.6726 62.5205 26.3484 62.5058 25.4937 62.5058C24.6389 62.5058 24.2853 62.5205 24.6832 62.55C25.0958 62.5794 25.7884 62.5794 26.2305 62.55ZM31.02 62.55C31.5947 62.5352 31.0642 62.5058 29.841 62.5058C28.6326 62.5058 28.161 62.5352 28.8095 62.55C29.4579 62.5794 30.46 62.5794 31.02 62.55ZM32.7884 68.2678C32.5084 68.1499 32.1252 68.0468 31.9484 68.0468C31.7568 68.0468 31.2852 68.2089 30.8726 68.3857C30.3568 68.6215 30.0916 68.8573 29.9737 69.1668C29.841 69.491 29.841 69.7268 30.0031 70.1836C30.1063 70.5078 30.3126 70.8615 30.46 70.9647C30.6073 71.0678 31.0937 71.1415 31.5358 71.1415C31.9779 71.1415 32.4937 71.0826 32.6852 71.0236C32.8768 70.9647 33.1568 70.6699 33.3189 70.3752C33.4663 70.0657 33.5989 69.6531 33.5989 69.4468C33.5989 69.2405 33.54 68.9457 33.4515 68.7836C33.3779 68.6215 33.0684 68.3857 32.7884 68.2678ZM16.799 68.3415C16.519 68.2531 16.0916 68.1942 15.8411 68.1942C15.6053 68.1942 15.1779 68.3268 14.9274 68.4889C14.6621 68.651 14.3821 68.931 14.3085 69.1226C14.22 69.3142 14.22 69.6973 14.2937 70.0363C14.3674 70.3605 14.5737 70.7436 14.7653 70.9057C15.0306 71.112 15.2958 71.1563 16.0769 71.1268C16.8874 71.0826 17.1232 70.9941 17.4474 70.6994C17.7127 70.4342 17.8453 70.1542 17.86 69.7268C17.8895 69.2699 17.8306 69.0194 17.6095 68.7984C17.4474 68.6215 17.079 68.4152 16.799 68.3415ZM25.0221 68.4889C24.7274 68.3121 24.3 68.1942 23.9463 68.2089C23.6221 68.2089 23.18 68.3268 22.959 68.4594C22.7379 68.6068 22.4579 68.8868 22.34 69.1226C22.2074 69.3436 22.119 69.771 22.1337 70.0805C22.1484 70.4194 22.2811 70.7289 22.4726 70.891C22.6937 71.0826 23.0179 71.1563 23.7695 71.1415C24.3147 71.1415 24.9042 71.0826 25.0958 71.0089C25.2726 70.9499 25.4789 70.7289 25.5526 70.5373C25.6116 70.3457 25.7 70.0363 25.7295 69.8594C25.7589 69.6678 25.7295 69.3584 25.6411 69.152C25.5674 68.9457 25.2726 68.651 25.0221 68.4889ZM186.935 81.5015L186.861 79.6889C184.843 79.6889 184.224 79.7183 184.194 79.7625C184.15 79.792 182.544 79.8362 180.628 79.8362C178.712 79.8362 177.135 79.851 177.135 79.8804C177.12 79.8952 177.739 80.2931 178.491 80.7499C179.272 81.2362 180.038 81.6046 180.274 81.6046C180.495 81.6046 180.834 81.6783 181.04 81.752C181.306 81.8552 181.497 82.1352 181.689 82.6804C181.836 83.0931 182.44 85.9667 183.015 89.0467C183.161 89.8093 183.303 90.5557 183.436 91.2527C183.439 91.2675 183.442 91.2823 183.445 91.2971C183.446 91.3046 183.448 91.3121 183.449 91.3196L183.45 91.3224C183.847 93.407 184.158 95.0357 184.224 95.3098C184.297 95.6783 184.43 96.3414 184.504 96.7835C184.577 97.2256 184.931 99.2593 185.314 101.278C185.428 101.908 185.549 102.571 185.667 103.214C185.667 103.216 185.667 103.218 185.668 103.221C185.929 104.651 186.17 105.974 186.272 106.583C186.298 106.727 186.33 106.899 186.365 107.093L186.365 107.094C186.366 107.096 186.366 107.099 186.367 107.101L186.367 107.105L186.367 107.106L186.368 107.111L186.369 107.116L186.37 107.118C186.552 108.119 186.838 109.682 187.083 110.931C187.363 112.434 187.643 113.687 187.687 113.731C187.746 113.775 187.731 111.815 187.672 109.383C187.636 107.386 187.55 104.613 187.487 102.608C187.487 102.606 187.487 102.604 187.487 102.602L187.487 102.597C187.479 102.348 187.472 102.111 187.465 101.888C187.46 101.726 187.455 101.571 187.451 101.426C187.377 99.4804 187.245 94.6025 187.156 90.5941C187.068 86.5857 186.965 82.4888 186.935 81.5015ZM176.472 80.1015C176.236 79.8952 175.912 79.8362 174.689 79.8362C173.878 79.8362 173.171 79.8657 173.127 79.9099C173.083 79.9541 166.053 80.0131 157.521 80.0278C148.487 80.0425 144.302 80.0868 147.514 80.131C150.55 80.1752 142.828 80.2341 130.346 80.2783L107.651 80.3667C105.608 81.9284 103.579 83.5046 101.808 84.8804L101.803 84.884L101.757 84.9204C99.9734 86.3057 97.2913 88.3688 95.7881 89.4888C94.285 90.6088 92.3103 92.0972 91.3966 92.7899C90.4829 93.4825 89.7608 94.072 89.7755 94.0867C89.805 94.1162 92.2071 93.792 95.125 93.3941C98.0429 92.9814 103.289 92.2446 106.767 91.7583C107.998 91.5861 109.593 91.3642 111.33 91.1224C111.335 91.1216 111.341 91.1209 111.346 91.1201C114.512 90.6794 118.149 90.1732 120.914 89.7835C125.203 89.1793 132.07 88.2214 136.167 87.6614C140.264 87.0867 149.813 85.7604 157.388 84.7141C161.58 84.135 165.597 83.5785 168.512 83.1744C168.517 83.1737 168.523 83.173 168.528 83.1723L168.529 83.1721C168.547 83.1697 168.565 83.1672 168.582 83.1648C170.897 82.844 172.505 82.6211 172.935 82.5625C173.908 82.4299 175.603 82.1941 176.693 82.032C177.784 81.8552 178.742 81.6636 178.83 81.5899C178.904 81.5015 178.889 81.4573 178.786 81.4573C178.683 81.4573 178.196 81.2067 177.68 80.912C177.179 80.6173 176.634 80.2488 176.472 80.1015ZM180.76 82.1646C180.628 82.0909 180.407 82.0615 180.259 82.0615C180.226 82.0652 180.182 82.0707 180.13 82.0774C180.086 82.0831 180.036 82.0898 179.982 82.0968C179.963 82.0995 179.942 82.1022 179.921 82.1049C179.873 82.1113 179.823 82.1179 179.773 82.1243C179.703 82.1333 179.633 82.1421 179.567 82.1499C179.316 82.1794 177.459 82.4299 175.44 82.7099C173.407 82.9899 168.632 83.653 164.83 84.1836C162.689 84.4741 160.057 84.8347 157.681 85.1601C157.678 85.1605 157.676 85.1609 157.673 85.1613C155.834 85.4132 154.149 85.6439 152.967 85.8046C150.255 86.173 147.131 86.6004 146.041 86.7625C144.95 86.9099 140.632 87.4993 136.462 88.0741C132.291 88.6488 126.19 89.4888 122.904 89.9309C120.811 90.2124 118.277 90.5596 116.179 90.847C116.177 90.8473 116.174 90.8477 116.172 90.848C114.978 91.0116 113.926 91.1557 113.178 91.2572C111.114 91.5372 107.268 92.0678 104.63 92.4362C103.788 92.5538 102.823 92.6878 101.833 92.8255C101.817 92.8277 101.802 92.8298 101.786 92.8319C101.78 92.8329 101.773 92.8338 101.766 92.8347L101.762 92.8353C99.6695 93.1261 97.472 93.4314 96.0829 93.6298C94.0216 93.9096 91.5926 94.2335 90.7064 94.3516L90.7039 94.352C89.8197 94.4698 88.7145 94.6614 88.2724 94.7941C87.8303 94.9414 87.2408 95.1625 86.9755 95.3246C86.6661 95.5162 86.3566 95.8993 86.0619 96.533C85.8113 97.034 85.5756 97.7119 85.5313 98.0361C85.4871 98.3604 85.6198 99.9519 85.8408 101.573C86.0471 103.194 86.3566 105.478 86.5187 106.657C86.5472 106.864 86.5775 107.085 86.6088 107.313C86.6091 107.315 86.6094 107.317 86.6097 107.32C86.756 108.386 86.9228 109.601 87.0198 110.268C87.1377 111.078 87.4029 112.994 87.6092 114.541C87.8155 116.089 88.0808 118.004 88.1987 118.815C88.3166 119.626 88.7145 122.484 89.0829 125.152C89.3368 126.99 89.6746 129.374 89.9518 131.329C90.0768 132.212 90.1895 133.007 90.2766 133.625C90.3967 134.479 90.5303 135.449 90.6578 136.373L90.6584 136.378C90.8278 137.608 90.9862 138.757 91.0871 139.447C91.2302 140.526 91.4535 142.064 91.6053 143.11C91.6256 143.249 91.6445 143.38 91.6618 143.499C91.8239 144.516 91.9566 145.489 91.9566 145.68C91.9566 145.857 92.0303 146.181 92.1039 146.417C92.2513 146.815 92.266 146.815 92.885 145.783C93.2387 145.223 94.1524 143.823 94.9187 142.689C95.6997 141.554 96.9523 139.697 97.7039 138.562C98.4702 137.428 100.872 133.92 103.068 130.752C105.249 127.583 107.563 124.282 108.226 123.398C108.889 122.514 109.744 121.497 110.157 121.143C110.554 120.79 111.291 120.303 111.778 120.068C112.264 119.817 113.119 119.522 113.693 119.375C114.578 119.169 114.858 119.154 115.683 119.316C116.213 119.419 117.068 119.684 117.599 119.891C118.129 120.112 119.22 120.687 120.03 121.173C120.841 121.659 122.756 122.956 124.304 124.047C125.851 125.122 128.253 126.832 129.639 127.834C131.039 128.836 132.63 129.927 133.175 130.265C133.735 130.59 134.546 131.002 134.988 131.164C135.43 131.327 136.167 131.459 136.609 131.459C137.169 131.474 137.611 131.371 138.038 131.15C138.392 130.973 139.011 130.472 139.409 130.059C139.822 129.632 141.089 127.967 142.253 126.36C143.403 124.754 144.611 123.059 144.935 122.602C144.975 122.547 145.022 122.48 145.076 122.403C145.472 121.845 146.236 120.766 146.91 119.847C147.362 119.22 147.907 118.471 148.38 117.82C148.709 117.367 149.004 116.962 149.209 116.678C149.322 116.522 149.466 116.323 149.632 116.095L149.635 116.091C150.199 115.312 151.006 114.199 151.655 113.289C152.189 112.552 153.039 111.385 153.89 110.217C154.401 109.515 154.912 108.813 155.354 108.205C156.548 106.583 157.771 105.021 158.081 104.727C158.39 104.432 158.876 104.063 159.156 103.931C159.436 103.783 159.996 103.621 160.409 103.562C160.807 103.503 161.544 103.503 162.03 103.577C162.575 103.651 163.489 103.99 164.388 104.417C165.198 104.8 166.451 105.522 167.188 106.009C167.925 106.495 169.502 107.615 170.725 108.499C171.929 109.366 173.776 110.7 174.839 111.468C174.843 111.47 174.847 111.473 174.851 111.476C175.912 112.242 178.093 113.819 179.714 114.998C181.335 116.177 183.56 117.783 184.651 118.564C185.741 119.346 187.009 120.274 187.451 120.613C187.893 120.952 188.276 121.217 188.291 121.202C188.306 121.188 188.055 119.611 187.731 117.71C187.407 115.809 186.979 113.348 186.788 112.257C186.691 111.704 186.514 110.731 186.312 109.616C186.311 109.613 186.311 109.611 186.31 109.608C186.307 109.59 186.304 109.572 186.3 109.554C186.106 108.485 185.89 107.292 185.697 106.215C185.299 103.99 184.297 98.4783 183.472 93.9835C182.647 89.4888 181.851 85.1709 181.674 84.4046C181.512 83.6383 181.291 82.8425 181.188 82.6362C181.085 82.4299 180.893 82.2236 180.76 82.1646ZM65.2241 91.7583L63.6767 89.592L60.3167 91.1835C58.4746 92.053 54.9967 93.7183 52.6094 94.8825C50.222 96.0614 46.9062 97.7414 45.241 98.6109C43.5757 99.4951 41.0557 100.895 39.641 101.75C38.2263 102.59 36.4726 103.725 35.7357 104.27C35.0136 104.8 33.761 105.92 32.9505 106.731C32.1547 107.541 31.1526 108.735 30.7252 109.383C30.2979 110.032 29.7674 110.96 29.5463 111.447C29.3422 111.896 28.9118 112.948 28.5337 113.873L28.5333 113.874L28.441 114.099C28.0579 115.072 27.3947 116.899 26.9674 118.152C26.5547 119.404 26.0537 121.026 25.8621 121.762C25.6705 122.499 25.4053 124.017 25.2579 125.152C25.1105 126.301 24.9926 128.158 25.0074 129.352C25.0074 130.56 25.1105 132.122 25.2432 132.962C25.3611 133.773 25.6263 134.804 25.8326 135.247C26.0242 135.689 26.4221 136.278 26.7168 136.529C27.1295 136.897 27.4389 137.03 28.0431 137.103C28.4558 137.148 33.7168 137.162 39.7147 137.133C47.3483 137.089 50.7673 137.015 51.1357 136.897C51.4157 136.809 51.9462 136.543 52.3146 136.308C52.683 136.072 53.1546 135.63 53.3757 135.305C53.5967 134.996 53.862 134.348 53.9651 133.876C54.142 133.051 54.1273 132.859 53.3609 129.087C53.2198 128.371 53.0433 127.482 52.8531 126.524C52.4676 124.583 52.0262 122.359 51.7104 120.731C51.4525 119.441 51.2153 118.235 51.0428 117.357C50.8901 116.58 50.788 116.061 50.7673 115.971C50.6936 115.661 50.6494 115.676 49.7799 116.354C49.2641 116.752 48.4241 117.356 47.8936 117.71C47.3631 118.063 46.3462 118.638 45.6094 118.992C44.8873 119.331 43.7526 119.758 43.1041 119.935C42.4557 120.097 41.2326 120.274 40.3778 120.318C39.1105 120.377 38.6094 120.333 37.6515 120.097C37.0031 119.92 36.2368 119.684 35.9568 119.581C35.6768 119.463 35.3379 119.257 35.22 119.124C35.0136 118.889 35.0431 118.889 35.5147 119.051C35.7947 119.139 36.6347 119.39 37.3568 119.596C38.3294 119.861 39.0221 119.964 39.9357 119.964C40.7757 119.964 41.6452 119.832 42.5884 119.596C43.3547 119.39 44.4894 118.992 45.0936 118.712C45.6978 118.432 46.7589 117.842 47.4515 117.4C48.1441 116.943 49.2052 116.177 49.8094 115.661C50.4136 115.16 51.9904 113.672 53.3167 112.36C54.6283 111.049 55.9546 109.649 56.2641 109.266C56.5588 108.868 57.2072 108.072 57.7083 107.497C58.1946 106.908 59.0051 105.906 59.5062 105.257C60.0072 104.609 61.0978 103.12 61.9377 101.941C62.763 100.762 63.9714 99.0235 64.6198 98.0804C65.2683 97.1372 66.0198 96.0025 66.2851 95.5751C66.5504 95.1477 66.7567 94.5877 66.7567 94.352C66.7567 94.0277 66.3588 93.3498 65.2241 91.7583ZM38.7421 90.6236C38.5505 90.2846 38.3147 90.0046 38.241 90.0046C38.1526 90.0046 37.9168 90.152 37.7105 90.3288C37.6674 90.3633 37.6025 90.4156 37.5202 90.4821C37.1799 90.7567 36.5415 91.2718 35.9126 91.7583C35.1463 92.3772 34.4242 92.9962 34.321 93.1583C34.2031 93.3498 34.0852 94.293 34.0263 95.6635C33.9673 96.8867 33.9084 98.154 33.8937 98.5077C33.8937 98.994 33.8347 99.1267 33.6284 99.1267C33.4958 99.1414 33.0537 98.8025 32.6705 98.3898C32.2873 97.9919 31.8158 97.594 31.6094 97.5056C31.4031 97.4319 31.0347 97.3583 30.7842 97.3583C30.4747 97.3583 30.1947 97.5056 29.9 97.8004C29.5758 98.1393 29.4726 98.3898 29.4726 98.8319C29.4726 99.1561 29.5758 99.6277 29.6937 99.8635C29.8116 100.114 30.121 100.409 30.3863 100.512C30.6516 100.63 31.3147 100.762 31.86 100.807L32.8621 100.895C33.0684 101.75 33.2452 102.531 33.3779 103.179C33.5105 103.828 33.6726 104.476 33.761 104.623C33.8347 104.756 33.9231 104.874 33.9673 104.874C34.0115 104.874 34.2915 104.697 34.5863 104.461C34.8958 104.226 35.8684 103.548 36.7673 102.958C37.6515 102.354 39.2136 101.352 40.2305 100.733C41.6157 99.893 42.0578 99.5393 42.0431 99.333C42.0308 99.2713 42.0055 99.0959 41.9706 98.8533C41.9221 98.5166 41.8549 98.0504 41.7778 97.5793C41.6599 96.7688 41.5568 95.6635 41.5568 95.1183C41.5568 94.5435 41.6157 94.1162 41.7041 94.1162C41.7778 94.1162 41.881 93.9983 41.9252 93.8656C41.9694 93.7183 41.9105 93.512 41.8073 93.4088C41.7041 93.2909 41.262 93.0256 40.8199 92.8046C40.3778 92.5835 39.8031 92.1414 39.5526 91.8172C39.302 91.5078 38.9336 90.9625 38.7421 90.6236ZM66.3735 96.6656C66.403 96.5625 66.403 96.474 66.3735 96.474C66.344 96.474 66.2114 96.6951 66.064 96.9604C65.9314 97.2256 65.1651 98.434 64.3546 99.6425C63.5293 100.866 62.2767 102.649 61.5399 103.621C60.803 104.594 59.4325 106.318 58.4893 107.453C57.5462 108.588 55.4683 110.842 53.8915 112.463L51.0178 115.411C51.4281 117.158 51.7434 118.596 51.9955 119.747C52.0241 119.877 52.0518 120.004 52.0788 120.127L52.5504 122.337C59.963 122.367 62.2767 122.352 62.483 122.322C62.8474 122.264 62.8514 122.235 63.322 118.74L63.3377 118.623C63.6177 116.619 64.2956 111.727 64.8409 107.748C65.4009 103.783 65.9609 99.7014 66.0935 98.6846C66.2114 97.6825 66.344 96.7688 66.3735 96.6656ZM163.091 104.432C162.546 104.255 161.883 104.152 161.249 104.152C160.704 104.152 159.996 104.255 159.687 104.388C159.201 104.579 158.758 105.095 156.813 107.733C156.279 108.461 155.604 109.383 154.911 110.328C154.904 110.337 154.896 110.347 154.889 110.357C153.963 111.62 153.007 112.923 152.318 113.863C151.635 114.795 150.909 115.79 150.323 116.595C150.319 116.6 150.316 116.604 150.313 116.609C150.311 116.611 150.309 116.613 150.308 116.616L150.305 116.62C150.302 116.623 150.3 116.626 150.298 116.629C149.847 117.248 149.481 117.751 149.283 118.019C148.841 118.638 147.78 120.097 146.925 121.261C146.373 122.013 145.446 123.269 144.513 124.533C144.322 124.791 144.131 125.05 143.944 125.304C143.627 125.733 143.319 126.151 143.034 126.537C141.737 128.291 140.337 130.059 139.925 130.501C139.512 130.929 138.893 131.444 138.525 131.621C138.156 131.813 137.567 132.004 137.199 132.063C136.83 132.122 136.196 132.093 135.799 131.99C135.386 131.901 134.634 131.607 134.104 131.341C133.573 131.076 132.011 130.118 130.641 129.204C129.255 128.276 126.735 126.552 125.041 125.358C124.57 125.034 124.064 124.684 123.558 124.333L123.556 124.332C122.221 123.409 120.882 122.483 120.178 122.013C119.205 121.364 118.144 120.701 117.82 120.539C117.495 120.377 116.862 120.127 116.42 119.994C115.978 119.861 115.241 119.758 114.799 119.758C114.312 119.773 113.561 119.92 112.956 120.141C112.382 120.348 111.689 120.687 111.409 120.908C111.129 121.114 110.466 121.733 109.95 122.263C109.434 122.794 108.373 124.091 107.592 125.137C106.985 125.947 106.121 127.125 105.418 128.083L105.416 128.086C105.41 128.093 105.405 128.101 105.399 128.108C105.188 128.396 104.992 128.664 104.822 128.895C104.1 129.912 102.11 132.771 100.43 135.232C98.7355 137.708 96.245 141.407 94.8745 143.455C93.5039 145.503 92.3839 147.139 92.3545 147.11C92.3397 147.08 92.3103 147.198 92.2955 147.375C92.2808 147.552 92.3545 148.392 92.4576 149.232C92.5903 150.293 92.7818 151.03 93.0471 151.56C93.2534 151.988 93.666 152.518 93.9755 152.739C94.4618 153.108 94.6239 153.137 95.626 153.122C96.245 153.108 98.8681 152.813 101.462 152.489C102.536 152.348 103.608 152.208 104.536 152.086L104.538 152.086C105.849 151.914 106.873 151.78 107.209 151.737C107.501 151.699 108.049 151.628 108.684 151.547C108.689 151.546 108.695 151.545 108.7 151.545C108.714 151.543 108.728 151.541 108.743 151.539C108.749 151.538 108.755 151.537 108.761 151.537C108.764 151.536 108.767 151.536 108.77 151.536L108.773 151.535C108.786 151.533 108.799 151.532 108.812 151.53C109.363 151.459 109.969 151.382 110.525 151.31C111.246 151.216 112.325 151.074 113.411 150.931C114.211 150.825 115.014 150.719 115.683 150.632C116.314 150.549 117.057 150.453 117.801 150.356C118.917 150.211 120.033 150.066 120.767 149.969C121.975 149.806 123.965 149.541 125.188 149.379C126.396 149.217 129.359 148.819 131.746 148.495C134.133 148.171 138.805 147.537 142.135 147.095C145.451 146.653 149.636 146.093 151.419 145.842C153.203 145.606 156.091 145.209 157.83 144.958L157.963 144.94C159.725 144.701 162.775 144.288 164.83 144C166.937 143.72 169.325 143.381 170.135 143.263C170.916 143.15 172.942 142.872 174.724 142.628C174.73 142.627 174.736 142.626 174.742 142.625L174.744 142.625L174.925 142.6C176.752 142.35 179.626 141.952 181.335 141.701C183.03 141.465 184.931 141.171 185.535 141.038C186.139 140.92 187.097 140.684 187.672 140.522C188.232 140.36 188.969 140.065 189.293 139.874C189.617 139.697 190.118 139.299 190.398 139.004L190.914 138.459C190.885 136.175 190.693 134.554 190.413 132.948C190.162 131.489 189.676 128.615 189.352 126.537C189.028 124.474 188.704 122.588 188.615 122.337C188.497 122.013 187.981 121.571 186.523 120.554C185.453 119.807 183.51 118.419 182.17 117.462C182.162 117.456 182.154 117.451 182.147 117.445L182.146 117.444C181.789 117.19 181.338 116.867 180.832 116.504C180.83 116.502 180.828 116.501 180.826 116.5L180.825 116.499L180.823 116.498C179.424 115.495 177.603 114.19 176.177 113.186C174.961 112.319 173.635 111.384 172.625 110.672L172.624 110.671C172.019 110.244 171.528 109.897 171.24 109.693C170.474 109.148 168.514 107.821 166.893 106.731C165.139 105.537 163.592 104.609 163.091 104.432ZM56.6178 122.706H52.6683L52.9188 124.002C53.0515 124.71 53.3904 126.449 53.6852 127.863C53.7982 128.441 53.9185 129.047 54.0286 129.601L54.0293 129.605L54.0299 129.608C54.0399 129.658 54.0498 129.708 54.0596 129.758C54.2087 130.509 54.335 131.147 54.3925 131.459C54.5104 132.019 54.6283 132.491 54.6725 132.52C54.7167 132.55 55.8662 132.152 57.2515 131.621C58.6367 131.105 59.8304 130.56 59.9335 130.413C60.022 130.265 60.1841 129.352 60.2725 128.379C60.3609 127.407 60.4935 125.786 60.5525 124.769C60.6262 123.767 60.6556 122.882 60.6262 122.823C60.5967 122.764 58.7841 122.706 56.6178 122.706ZM65.6514 125.019C65.6072 124.887 65.4893 124.769 65.3862 124.769C65.283 124.769 65.1062 124.842 64.9883 124.916C64.8556 124.99 64.4135 125.063 63.9862 125.063H63.2198C63.0725 126.036 63.0725 126.552 63.1167 126.832C63.1756 127.112 63.3967 127.539 63.6177 127.76C63.9714 128.114 64.0746 128.158 64.3546 128.026C64.5462 127.937 64.8704 127.539 65.0914 127.156C65.2977 126.773 65.5335 126.198 65.6072 125.874C65.6662 125.55 65.6956 125.167 65.6514 125.019ZM43.3252 152.872C43.4873 151.752 43.6052 150.794 43.5757 150.75C43.5462 150.705 43.4578 150.823 43.3694 151.015C43.281 151.206 43.0894 151.929 42.9715 152.621C42.8389 153.314 42.441 155.893 42.0726 158.369C41.7189 160.844 41.2473 163.924 41.041 165.221C40.8347 166.518 40.5252 168.375 40.3631 169.347C40.2544 170 40.1124 170.825 39.9952 171.506L39.995 171.508C39.9375 171.842 39.8861 172.141 39.8473 172.368C39.7147 173.061 39.4494 174.432 39.2578 175.419C39.0663 176.421 38.9042 177.305 38.9042 177.408C38.9042 177.556 39.4789 177.6 41.1884 177.63C42.441 177.659 43.4726 177.644 43.4726 177.6C43.4726 177.56 43.1093 176.127 42.6462 174.301L42.6452 174.297L42.4999 173.724C41.9694 171.646 41.4536 169.406 41.3357 168.758C41.1589 167.741 41.1589 167.373 41.3505 166.179C41.4223 165.712 41.5323 164.961 41.6441 164.199L41.6446 164.195C41.7161 163.707 41.7883 163.215 41.8515 162.79C42.0136 161.699 42.2789 159.872 42.441 158.737C42.6031 157.602 42.7947 156.276 42.8684 155.79C42.9225 155.492 43.0152 154.885 43.1195 154.203L43.1198 154.201C43.1859 153.769 43.2567 153.306 43.3252 152.872ZM69.2914 179.103L69.3356 171.632C67.8218 171.658 67.0578 171.695 66.6744 171.713C66.6211 171.716 66.5752 171.718 66.5356 171.72C66.2114 171.75 65.5777 171.853 65.1356 171.941C64.6788 172.03 64.1335 172.236 63.9125 172.383C63.6914 172.531 63.4114 172.943 63.2788 173.282C63.0872 173.827 63.0577 175.183 63.102 183.362L63.1462 192.794C63.7062 193.648 64.1483 194.061 64.4725 194.267C64.9441 194.592 65.3125 194.68 66.4619 194.783C67.2283 194.842 79.5629 194.872 93.8724 194.827C108.167 194.783 126.116 194.695 133.735 194.621C144.817 194.533 147.691 194.459 148.118 194.297C148.634 194.12 148.664 194.046 148.752 193.368C148.796 192.956 148.841 192.013 148.841 191.261V189.905C90.7629 189.817 73.4619 189.758 72.9461 189.699C72.8906 189.693 72.8338 189.686 72.7763 189.68C72.6411 189.665 72.502 189.649 72.3663 189.634C72.1752 189.613 71.991 189.592 71.8345 189.574C71.6978 189.559 71.5823 189.546 71.5019 189.537C71.1482 189.478 70.8388 189.242 70.2935 188.608C69.8661 188.122 69.4977 187.518 69.3946 187.179C69.3061 186.781 69.2619 184.04 69.2914 179.103ZM29.9884 194.429L28.2347 194.356L28.3674 196.758L32.1252 196.832C32.1252 194.975 32.0663 194.592 31.9337 194.562C31.8305 194.518 30.961 194.459 29.9884 194.429Z" fill="#15006A"/>
<path fill-rule="evenodd" clip-rule="evenodd" d="M137.567 61.9605C137.891 61.931 137.655 61.9016 137.051 61.9016C136.447 61.9016 136.182 61.931 136.462 61.9605C136.742 61.99 137.243 61.99 137.567 61.9605ZM26.2305 62.55C26.6726 62.5205 26.3484 62.5058 25.4937 62.5058C24.6389 62.5058 24.2853 62.5205 24.6832 62.55C25.0958 62.5794 25.7884 62.5794 26.2305 62.55ZM31.02 62.55C31.5947 62.5352 31.0642 62.5058 29.841 62.5058C28.6326 62.5058 28.161 62.5352 28.8095 62.55C29.4579 62.5794 30.46 62.5794 31.02 62.55ZM186.935 81.5015L186.861 79.6889C184.843 79.6889 184.224 79.7183 184.194 79.7625C184.15 79.792 182.544 79.8362 180.628 79.8362C178.712 79.8362 177.135 79.851 177.135 79.8804C177.12 79.8952 177.739 80.2931 178.491 80.7499C179.272 81.2362 180.038 81.6046 180.274 81.6046C180.495 81.6046 180.834 81.6783 181.04 81.752C181.306 81.8552 181.497 82.1352 181.689 82.6804C181.836 83.0931 182.44 85.9667 183.015 89.0467C183.161 89.8093 183.303 90.5557 183.436 91.2527L183.445 91.2971L183.449 91.3196L183.45 91.3224C183.847 93.407 184.158 95.0357 184.224 95.3098C184.297 95.6783 184.43 96.3414 184.504 96.7835C184.577 97.2256 184.931 99.2593 185.314 101.278C185.428 101.908 185.549 102.571 185.667 103.214L185.668 103.221C185.929 104.651 186.17 105.974 186.272 106.583L186.365 107.093L186.365 107.094L186.367 107.101L186.367 107.105L186.367 107.106L186.368 107.111L186.369 107.116L186.37 107.118C186.552 108.119 186.838 109.682 187.083 110.931C187.363 112.434 187.643 113.687 187.687 113.731C187.746 113.775 187.731 111.815 187.672 109.383C187.636 107.386 187.55 104.613 187.487 102.608L187.487 102.602L187.487 102.597L187.465 101.888L187.451 101.426C187.377 99.4804 187.245 94.6025 187.156 90.5941C187.068 86.5857 186.965 82.4888 186.935 81.5015ZM43.3252 152.872C43.4873 151.752 43.6052 150.794 43.5757 150.75C43.5462 150.705 43.4578 150.823 43.3694 151.015C43.281 151.206 43.0894 151.929 42.9715 152.621C42.8389 153.314 42.441 155.893 42.0726 158.369C41.7189 160.844 41.2473 163.924 41.041 165.221C40.8347 166.518 40.5252 168.375 40.3631 169.347C40.2544 170 40.1124 170.825 39.9952 171.506L39.995 171.508C39.9375 171.842 39.8861 172.141 39.8473 172.368C39.7147 173.061 39.4494 174.432 39.2578 175.419C39.0663 176.421 38.9042 177.305 38.9042 177.408C38.9042 177.556 39.4789 177.6 41.1884 177.63C42.441 177.659 43.4726 177.644 43.4726 177.6C43.4726 177.56 43.1093 176.127 42.6462 174.301L42.6452 174.297L42.4999 173.724C41.9694 171.646 41.4536 169.406 41.3357 168.758C41.1589 167.741 41.1589 167.373 41.3505 166.179C41.4223 165.712 41.5323 164.961 41.6441 164.199L41.6446 164.195C41.7161 163.707 41.7883 163.215 41.8515 162.79C42.0136 161.699 42.2789 159.872 42.441 158.737C42.6031 157.602 42.7947 156.276 42.8684 155.79C42.9225 155.492 43.0152 154.885 43.1195 154.203L43.1198 154.201C43.1859 153.769 43.2567 153.306 43.3252 152.872ZM69.2914 179.103L69.3356 171.632C67.823 171.658 67.0581 171.695 66.6744 171.713L66.5356 171.72C66.2114 171.75 65.5777 171.853 65.1356 171.941C64.6788 172.03 64.1335 172.236 63.9125 172.383C63.6914 172.531 63.4114 172.943 63.2788 173.282C63.0872 173.827 63.0577 175.183 63.102 183.362L63.1462 192.794C63.7062 193.648 64.1483 194.061 64.4725 194.267C64.9441 194.592 65.3125 194.68 66.4619 194.783C67.2283 194.842 79.5629 194.872 93.8724 194.827C108.167 194.783 126.116 194.695 133.735 194.621C144.817 194.533 147.691 194.459 148.118 194.297C148.634 194.12 148.664 194.046 148.752 193.368C148.796 192.956 148.841 192.013 148.841 191.261V189.905C90.7629 189.817 73.4619 189.758 72.9461 189.699L72.7763 189.68L72.3663 189.634L71.8345 189.574L71.5019 189.537C71.1482 189.478 70.8388 189.242 70.2935 188.608C69.8661 188.122 69.4977 187.518 69.3946 187.179C69.3061 186.781 69.2619 184.04 69.2914 179.103ZM29.9884 194.429L28.2347 194.356L28.3674 196.758L32.1252 196.832C32.1252 194.975 32.0663 194.592 31.9337 194.562C31.8305 194.518 30.961 194.459 29.9884 194.429ZM37.401 92.3625C37.5042 92.3625 37.5484 92.2593 37.4894 92.112V92.0972C37.4452 91.9646 37.4452 91.8762 37.4894 91.9204C37.5336 91.9646 37.8136 92.4951 38.1231 93.1141C38.6094 94.072 38.6389 94.1899 38.3589 93.9983C38.1821 93.8656 38.0199 93.6151 38.0199 93.4235C38.0199 93.2467 37.8431 92.9372 37.6221 92.7309C37.3863 92.5246 37.2978 92.3478 37.401 92.3625ZM39.6263 97.7267C39.4936 97.5793 39.3463 97.3583 39.302 97.2551C39.2578 97.1225 39.361 97.152 39.6115 97.3435C39.8915 97.5793 40.1568 97.653 40.5105 97.6088C40.9526 97.5646 40.9968 97.5793 40.8052 97.7709C40.6873 97.8888 40.4368 97.992 40.2305 97.992C40.0242 97.992 39.7589 97.8741 39.6263 97.7267ZM129.462 92.893C128.813 93.0109 127.796 93.3499 127.207 93.6299C126.573 93.9393 125.836 94.4551 125.365 94.912C124.864 95.413 124.377 96.1056 124.039 96.7983C123.729 97.4025 123.39 98.3604 123.272 98.9351C123.154 99.5098 123.051 100.468 123.051 101.072C123.051 101.676 123.14 102.605 123.258 103.135C123.361 103.666 123.641 104.491 123.876 104.977C124.127 105.508 124.687 106.245 125.262 106.849C125.954 107.556 126.529 107.969 127.325 108.352C127.929 108.647 128.961 108.986 129.609 109.118C130.464 109.28 131.156 109.325 132.114 109.251C132.851 109.192 133.809 109.045 134.251 108.927C134.693 108.809 135.548 108.485 136.123 108.205C136.815 107.895 137.552 107.365 138.171 106.775C138.702 106.274 139.38 105.493 139.674 105.051C139.969 104.609 140.367 103.71 140.544 103.061C140.75 102.354 140.883 101.499 140.883 100.925C140.883 100.394 140.78 99.554 140.662 99.0383C140.544 98.5372 140.264 97.7414 140.028 97.2846C139.807 96.813 139.232 96.0025 138.746 95.5014C138.053 94.7646 137.567 94.4109 136.535 93.9099C135.799 93.5562 134.708 93.1583 134.104 93.0257C133.5 92.9078 132.468 92.7751 131.82 92.7457C131.127 92.7014 130.154 92.7751 129.462 92.893ZM127.546 93.9835C128.032 93.7478 128.887 93.4678 129.462 93.3499C130.022 93.2172 130.935 93.1141 131.481 93.1141C132.041 93.0993 132.925 93.1878 133.47 93.3057C134.03 93.4236 134.87 93.6741 135.356 93.8509C135.843 94.0425 136.506 94.3372 136.83 94.5141C137.154 94.6909 137.714 95.1035 138.083 95.4277C138.451 95.7372 138.982 96.3562 139.262 96.7983C139.542 97.2404 139.881 97.9772 140.028 98.4341C140.205 99.0088 140.293 99.7604 140.293 100.689C140.293 101.676 140.205 102.339 140.013 102.929C139.851 103.4 139.542 104.108 139.306 104.52C139.085 104.918 138.466 105.685 137.935 106.2C137.258 106.863 136.624 107.306 135.799 107.703C135.15 108.013 134.06 108.367 133.367 108.514C132.468 108.691 131.731 108.735 130.788 108.676C130.051 108.632 129.093 108.47 128.651 108.308C128.209 108.16 127.546 107.88 127.178 107.689C126.809 107.497 126.161 107.011 125.719 106.598C125.247 106.141 124.746 105.464 124.451 104.889C124.201 104.358 123.891 103.592 123.803 103.194C123.7 102.781 123.626 101.824 123.626 101.057C123.626 100.291 123.729 99.2741 123.862 98.8025C123.98 98.3456 124.289 97.5498 124.554 97.0341C124.805 96.533 125.38 95.7372 125.836 95.2656C126.352 94.7204 127.001 94.2488 127.546 93.9835ZM130.773 4.60496C130.95 4.35443 131.333 4.04496 131.613 3.91233C131.893 3.76496 132.291 3.64707 132.512 3.64707C132.748 3.64707 133.205 3.76496 133.544 3.89759C133.868 4.04496 134.266 4.32496 134.399 4.53127C134.546 4.73759 134.708 5.13548 134.752 5.41548C134.826 5.79864 134.782 6.09337 134.561 6.52074C134.369 6.9039 134.045 7.24284 133.632 7.46389C133.22 7.71442 132.778 7.83231 132.335 7.83231C131.967 7.83231 131.451 7.71442 131.186 7.58179C130.935 7.44916 130.611 7.11021 130.479 6.84495C130.302 6.506 130.258 6.18179 130.331 5.71022C130.39 5.3418 130.582 4.84075 130.773 4.60496ZM130.213 4.56075C130.361 4.28075 130.759 3.89759 131.083 3.70601C131.54 3.44075 131.879 3.35233 132.556 3.35233C133.22 3.35233 133.588 3.44075 134.03 3.70601C134.354 3.89759 134.782 4.31022 134.973 4.61969C135.224 5.01759 135.327 5.40074 135.312 5.85758C135.297 6.29969 135.165 6.69758 134.914 7.066C134.679 7.41968 134.266 7.75863 133.78 7.99442C133.308 8.21547 132.733 8.36284 132.335 8.36284C131.923 8.36284 131.422 8.24494 131.024 8.03863C130.641 7.83231 130.272 7.49337 130.095 7.18389C129.874 6.80074 129.83 6.47653 129.874 5.85758C129.904 5.41548 130.051 4.82601 130.213 4.56075ZM82.8346 31.367C83.0114 31.1754 83.2914 30.9543 83.4682 30.8954C83.6303 30.8364 84.2198 30.7775 84.7651 30.7775C85.7082 30.7627 85.7966 30.7922 86.3124 31.2638C86.8135 31.7206 86.8724 31.8385 86.8724 32.5017C86.8724 33.0175 86.784 33.3712 86.5777 33.6512C86.4156 33.8722 86.0472 34.1669 85.7672 34.3143C85.4872 34.4764 84.9861 34.6385 84.6619 34.6827C84.2493 34.7417 83.8661 34.6975 83.4093 34.5059C82.8935 34.2848 82.7019 34.108 82.4956 33.5922C82.2746 33.0912 82.2598 32.8554 82.3777 32.3396C82.4514 32.0006 82.6577 31.5585 82.8346 31.367ZM82.6282 31.1606C82.864 30.9396 83.3061 30.6596 83.6303 30.5417C84.0282 30.3943 84.485 30.3501 85.0303 30.3943C85.4724 30.4533 86.0619 30.6154 86.3124 30.7775C86.5776 30.9249 86.9019 31.2638 87.0198 31.4996C87.1376 31.7354 87.2408 32.2364 87.2408 32.6048C87.2408 32.9733 87.1376 33.4743 87.0198 33.7101C86.9019 33.9459 86.6219 34.2848 86.3861 34.4617C86.165 34.6238 85.6492 34.8596 85.2513 34.9775C84.7503 35.1248 84.2787 35.169 83.7777 35.0954C83.2619 35.0217 82.8935 34.8596 82.5398 34.5354C82.1419 34.1669 82.0387 33.9312 81.9798 33.3417C81.9356 32.9291 81.965 32.3691 82.0535 32.0891C82.1566 31.8091 82.4071 31.3964 82.6282 31.1606Z" fill="#15006A"/>
</svg>
