<svg width="100" height="100" viewBox="0 0 100 100" fill="none" xmlns="http://www.w3.org/2000/svg">
<path fill-rule="evenodd" clip-rule="evenodd" d="M27.3327 27.4998C18.5934 27.4998 11.5088 34.5844 11.5088 43.3237C11.5088 52.063 18.5934 59.1476 27.3327 59.1476C27.6692 59.1476 28.0032 59.1371 28.3345 59.1164C28.4747 59.1076 28.5955 59.2142 28.6042 59.3544C28.613 59.4947 28.5064 59.6154 28.3662 59.6242C28.0244 59.6455 27.6798 59.6564 27.3327 59.6564C18.3124 59.6564 11 52.344 11 43.3237C11 34.3034 18.3124 26.991 27.3327 26.991C36.353 26.991 43.6654 34.3034 43.6654 43.3237C43.6654 44.3837 43.5644 45.4204 43.3714 46.4245C43.3449 46.5625 43.2115 46.6529 43.0735 46.6263C42.9356 46.5998 42.8452 46.4665 42.8717 46.3285C43.0587 45.3558 43.1566 44.3513 43.1566 43.3237C43.1566 34.5844 36.072 27.4998 27.3327 27.4998Z" fill="#5EFF9E"/>
<path d="M35.6434 37.6324C35.6434 37.4976 35.5874 37.3638 35.4697 37.2744C35.3589 37.1903 35.2277 37.1711 35.116 37.182C34.8951 37.2035 34.6756 37.3439 34.4933 37.5573L34.4869 37.5648L27.2135 47.3011L27.2098 47.3055L23.8948 44.0156C23.8075 43.9213 23.7174 43.8329 23.6159 43.7752C23.4919 43.7047 23.3716 43.6904 23.2527 43.704C23.1411 43.7168 23.0218 43.7582 22.9278 43.8514C22.8306 43.9479 22.7896 44.0711 22.7877 44.1891C22.7842 44.4049 22.9065 44.6101 23.0531 44.7706L23.0581 44.776L26.9268 48.6207L26.9662 48.6418C27.1363 48.7328 27.3254 48.7396 27.5036 48.6484C27.6555 48.5706 27.7773 48.4328 27.8804 48.2834L34.5812 39.2891C34.8882 38.8852 35.1417 38.5366 35.3195 38.2749C35.4081 38.1444 35.4806 38.0317 35.5321 37.9425C35.5575 37.8984 35.5808 37.855 35.5987 37.8151L35.5993 37.8138C35.6106 37.7885 35.6434 37.7156 35.6434 37.6324Z" fill="#5EFF9E"/>
<path fill-rule="evenodd" clip-rule="evenodd" d="M65.2964 21.5182C64.98 21.5928 64.7063 21.7381 64.0588 22.1753C61.7874 23.7107 60.8431 26.5437 60.2228 29.0646C59.8266 30.6746 59.6705 31.7063 59.2575 35.4423C58.9259 38.4424 58.6391 40.5324 58.3722 41.892C58.0293 43.6389 57.7505 44.2813 57.012 45.0246C56.2254 45.8166 55.3038 46.186 53.4345 46.4589C51.9218 46.6796 48.7582 46.6913 44.9178 46.4904C44.3198 46.459 43.7379 46.4329 43.6248 46.4322C43.0804 46.3553 42.5806 46.3549 42.0373 46.3129C41.6659 46.2843 40.8198 46.2331 40.1572 46.199C39.4945 46.1651 38.2538 46.0965 37.4001 46.0466C35.1866 45.9174 34.61 45.9932 33.5158 46.5571C33.1254 46.7583 32.9454 46.8872 32.4842 47.2957C32.2431 47.5092 31.7974 48.1096 31.622 48.457C31.3593 48.9775 31.2404 49.3603 31.1035 50.1271L30.9812 50.8114L31.1275 51.4992C31.3092 52.3536 31.5201 52.8022 32.0071 53.3705C32.3724 53.7969 32.5327 53.9302 33.1001 54.2801L33.3604 54.4406L33.1561 54.5399C33.0437 54.5946 32.6992 54.6703 32.3904 54.7083C31.3279 54.8388 30.5073 55.2464 29.7423 56.0236C29.1221 56.6536 28.7767 57.2503 28.5406 58.0993C28.4136 58.5558 28.3192 58.8306 28.3323 59.3041L28.3717 59.6715C28.4364 60.274 28.5761 60.7735 28.8267 61.2991C29.0162 61.6962 29.1589 61.8908 29.5411 62.2728C30.313 63.0443 30.952 63.2848 32.6577 63.4457C33.1717 63.4942 33.6042 63.5458 33.6187 63.5604C33.6333 63.5749 33.5385 63.6155 33.4081 63.6507C33.077 63.7398 32.2935 64.3486 31.8756 64.8414C30.452 66.5201 30.3643 69.1131 31.6763 70.7335C32.4811 71.7273 33.4003 72.1374 34.9998 72.2163C35.3796 72.235 35.6899 72.2665 35.6893 72.2863C35.6887 72.3061 35.5196 72.4209 35.3134 72.5415C34.3392 73.111 33.6238 74.0761 33.3079 75.2469C33.0423 76.2315 33.0542 76.8724 33.3575 77.9196C33.5364 78.5375 33.8002 78.9716 34.3172 79.4994C35.2542 80.4559 35.8572 80.628 38.7172 80.7555C40.0222 80.8137 42.8257 81.0006 44.9178 81.1689C45.3218 81.2014 46.2872 81.2541 47.063 81.2859C47.8388 81.3177 49.4125 81.4088 50.56 81.4883C55.2477 81.813 55.9935 81.8438 59.0821 81.8394C61.683 81.8358 62.2101 81.8193 63.3431 81.7065C66.0982 81.4322 67.3269 81.2079 69.9845 80.494C71.1159 80.1902 72.2399 79.9013 72.4823 79.8521C73.2846 79.6894 74.8179 79.5169 75.3071 79.5343L75.7887 79.5514L75.9496 79.9707C76.3649 81.0531 76.9901 81.8629 77.5662 82.0646C77.838 82.1597 78.2715 82.1674 83.3373 82.1671L88.8146 82.1668L88.906 82.0362C89.0589 81.818 89.0243 81.6976 88.8065 81.6901C88.7015 81.6864 86.3993 81.6891 83.6906 81.696L78.7658 81.7084L78.9212 81.5409C79.9799 80.3999 81.0449 76.3356 81.502 71.6917C81.7823 68.8447 81.8908 65.293 81.8195 61.3024C81.7286 56.2165 81.3253 52.5846 80.4748 49.1923C80.075 47.5978 79.5684 46.3419 79.0235 45.5953L78.8198 45.3161H83.9087H88.9975V45.0811V44.846H83.3515C79.5719 44.846 77.6678 44.8661 77.5917 44.9068C77.4698 44.9068 77.399 44.9518 77.2589 45.0597C76.7884 45.3589 76.4326 45.8455 76.1572 46.5231L76.0294 46.8376L75.3872 46.5231C74.594 46.1344 74.0175 45.7497 73.5201 45.2768C73.1064 44.8835 72.9351 44.7679 72.8627 44.8333C72.8371 44.8564 72.8327 44.8294 72.8528 44.7733C72.8787 44.7012 72.8425 44.6457 72.73 44.5846C72.6423 44.537 72.6079 44.497 72.6537 44.4957C72.7002 44.4944 72.6335 44.396 72.5027 44.2729C71.8217 43.6322 70.6471 41.7993 70.1141 40.5454C69.1584 38.2969 68.2832 33.8855 67.6673 28.2132C67.4779 26.4689 67.4192 25.5834 67.3782 23.8596L67.3397 22.2389L67.182 22.0008C66.9415 21.6375 66.5243 21.4527 65.9617 21.4602C65.7175 21.4635 65.4182 21.4896 65.2964 21.5182ZM63.9937 22.8461C64.4917 22.4257 65.0779 22.0843 65.4727 21.9848C65.7704 21.9099 66.4125 21.9592 66.5817 22.0699C66.8511 22.2465 66.8635 22.3303 66.9074 24.2754C66.9509 26.2049 66.9813 26.6342 67.2259 28.7715C67.8986 34.6485 68.7904 38.8549 69.8503 41.1487C70.4394 42.4239 72.0144 44.7452 72.2493 44.6843C72.2805 44.6763 72.3001 44.6895 72.293 44.7137C72.2427 44.8834 73.2793 45.8185 74.1673 46.4044C75.5954 47.3466 77.5892 48.0865 79.5462 48.4003C79.7945 48.4402 79.8032 48.461 80.1198 49.7951C80.6441 52.003 80.9282 54.0459 81.1807 57.4234C81.2892 58.8758 81.3715 63.1231 81.3337 65.3284C81.2366 71.0024 80.7259 75.3565 79.7948 78.4494L79.6489 78.9343H78.1657C75.3529 78.9343 73.3177 79.1345 71.5126 79.5888C71.1247 79.6863 70.24 79.9229 69.5466 80.1145C67.5743 80.6593 65.6823 80.9927 63.3431 81.2078C61.2905 81.3964 54.9046 81.3388 51.9705 81.1051C51.2953 81.0513 49.6336 80.9374 48.0768 80.838C47.7293 80.8159 47.445 80.7865 47.445 80.7727C47.445 80.7589 47.5951 80.6107 47.7786 80.4434C48.3765 79.8983 49.8629 78.2122 50.2149 77.68C50.5966 77.1029 50.7481 76.6847 50.8943 75.8042C50.9847 75.2602 50.9845 75.1848 50.8906 74.6538C50.7484 73.8486 50.4293 73.2072 49.9195 72.7016C49.6127 72.3973 49.3866 72.2438 48.8394 71.968L48.1472 71.6191L48.5161 71.4847C48.719 71.4107 48.9973 71.309 49.1345 71.2585C49.7944 71.0158 50.7142 70.2473 51.2081 69.5257C51.6437 68.8893 51.9178 67.9785 51.9228 67.1503C51.9252 66.7718 51.8886 66.5685 51.7352 66.1075C51.5014 65.4052 51.2788 65.0438 50.7608 64.5258C50.3859 64.151 50.0526 63.9488 49.0421 63.4835C48.8814 63.4096 48.9786 63.325 49.4249 63.1504C50.0695 62.8982 50.663 62.487 51.1697 61.9416C51.643 61.4322 51.886 61.0262 52.0978 60.3914C52.2158 60.0376 52.2348 59.8648 52.2338 59.1572C52.2326 58.3826 52.2225 58.3105 52.0615 57.9267C51.7892 57.2775 51.3882 56.7296 50.9324 56.3841C50.383 55.9676 49.744 55.6583 49.0172 55.4567C48.7089 55.3713 48.5591 55.2488 48.7628 55.2488C48.8088 55.2488 49.0667 55.1364 49.3359 54.999C49.9883 54.6661 50.7866 53.8861 51.1076 53.2681C51.4044 52.6967 51.5609 52.0561 51.5641 51.3997C51.5674 50.7314 51.4937 50.4021 51.2086 49.8123C50.6404 48.6368 49.517 47.8871 47.7683 47.5166C47.4127 47.4411 46.4291 47.2927 45.5826 47.1867C44.7359 47.0806 44.0499 46.9872 44.0581 46.9791C44.0662 46.971 44.6398 46.9887 45.3328 47.0184C47.6225 47.1167 50.7297 47.1482 51.9118 47.0851C53.1483 47.0192 54.4325 46.8236 55.2415 46.5779C55.8992 46.3784 56.7176 45.9574 57.0777 45.6336C57.2427 45.4854 57.3777 45.3774 57.3777 45.3937C57.3777 45.41 57.1687 46.0141 56.9132 46.7362C55.5438 50.6072 55.1523 54.1141 55.6998 57.6058C56.0758 60.0052 56.9288 62.28 58.1615 64.1712C58.8677 65.2547 59.2113 65.6762 60.1344 66.592C61.9509 68.3938 64.1046 69.5568 66.6055 70.0865L67.2487 70.2227L67.2866 70.0209C67.3074 69.9098 67.3146 69.8092 67.3025 69.7972C67.2905 69.7851 66.8311 69.6551 66.2817 69.5082C64.4338 69.0142 62.9432 68.311 61.8444 67.4147C61.699 67.2961 61.4796 67.132 61.357 67.0499C61.1102 66.885 59.8755 65.715 59.8755 65.6461C59.8755 65.5889 59.7915 65.5066 59.7237 65.4973C59.5941 65.4796 59.5858 65.4709 59.6565 65.426C59.7117 65.391 59.6805 65.326 59.5365 65.1771C59.0244 64.6475 58.1613 63.3307 57.6709 62.3309C55.8838 58.6871 55.4893 54.0482 56.5813 49.5181C56.8569 48.3752 57.0103 47.8806 57.5656 46.3447C58.2553 44.4375 58.4597 43.7905 58.6613 42.8771C59.1059 40.8635 59.3138 39.4303 59.7865 35.119C60.0605 32.62 60.2518 31.2534 60.4975 30.0407C61.0524 27.3005 61.9353 25.1691 63.09 23.7819C63.4051 23.4033 63.6344 23.1497 63.9937 22.8461ZM32.0494 48.9814C32.6243 47.6858 33.6998 46.8747 35.1593 46.6363C35.4353 46.5912 35.8594 46.5651 36.1018 46.5783C37.5901 46.6591 42.3101 47.2167 46.0487 47.7534C48.1973 48.0619 48.8395 48.2383 49.5822 48.7239C50.4326 49.28 50.9408 50.0475 51.0518 50.9435C51.1922 52.0767 50.8286 53.0912 49.9917 53.9019C49.2268 54.6428 48.3627 55.0381 47.3048 55.131C46.7296 55.1816 45.7707 55.1463 44.1831 55.0165C43.7952 54.9847 42.683 54.9053 41.7115 54.84C38.937 54.6535 35.878 54.3232 34.5861 54.0706C33.3903 53.8369 32.7816 53.4886 32.3027 52.764C31.5419 51.6131 31.4553 50.3202 32.0494 48.9814ZM31.2098 55.666C31.4342 55.5526 32.3099 55.2957 32.693 55.2309C33.0172 55.176 34.3646 55.1945 35.8526 55.2742C36.717 55.3206 38.1648 55.3747 39.0699 55.3946C39.975 55.4145 41.3503 55.4678 42.1261 55.5131C42.9019 55.5585 44.3829 55.6372 45.4174 55.6879C48.5682 55.8427 49.0991 55.9193 49.9723 56.3454C50.8503 56.7738 51.5976 57.7331 51.7457 58.6217C51.8308 59.1323 51.7681 59.8684 51.5977 60.3585C51.1815 61.5553 50.1458 62.4542 48.6436 62.9224C48.1271 63.0834 48.1017 63.0853 46.5047 63.0886C44.2642 63.093 33.2323 62.9571 33.0162 62.9223C32.9193 62.9067 32.5754 62.8649 32.2522 62.8295C31.6315 62.7614 30.9133 62.5919 30.6343 62.4477C30.3593 62.3054 29.7736 61.7281 29.5218 61.351C29.392 61.1567 29.2148 60.7819 29.128 60.5182C28.8466 59.6636 28.9435 58.4905 29.3728 57.5528C29.712 56.8119 30.4579 56.0458 31.2098 55.666ZM33.5252 64.1967C33.9409 63.9968 34.5923 63.7873 35.0239 63.7149C35.4391 63.6452 44.8738 63.6431 46.4056 63.7123C48.4068 63.8027 49.0422 63.9264 49.7775 64.3691C50.2223 64.637 50.7997 65.2276 51.0156 65.6357C51.5488 66.6436 51.5705 67.6756 51.0813 68.7612C50.7187 69.5657 49.8597 70.3985 48.9705 70.8076C48.1305 71.194 47.6695 71.2738 45.8288 71.352C45.0206 71.3863 43.5263 71.4533 42.5081 71.5009C41.4898 71.5486 39.6385 71.6151 38.394 71.6488C34.2004 71.7622 33.2731 71.6046 32.3558 70.6223C31.5868 69.7988 31.3122 69.0057 31.3573 67.7381C31.3883 66.865 31.5114 66.4253 31.9216 65.7229C32.234 65.1881 33.0205 64.4395 33.5252 64.1967ZM42.9489 72.0554C44.0803 72.0229 45.0985 71.9863 45.2116 71.9741C45.7143 71.9198 47.3168 71.9927 47.7389 72.0891C49.5412 72.5004 50.5363 73.7742 50.4249 75.5273C50.3703 76.385 49.9613 77.1929 49.2004 77.9458C48.4278 78.7103 47.5927 79.0484 45.8898 79.2862C42.9496 79.6968 39.155 80.0499 37.6887 80.0494C35.9954 80.0487 35.5389 79.9099 34.8082 79.1735C34.0265 78.3857 33.6519 77.4048 33.7067 76.2895C33.7897 74.6027 34.9099 73.1282 36.5216 72.5842C37.2232 72.3474 39.6052 72.1514 42.9489 72.0554Z" fill="white"/>
<path fill-rule="evenodd" clip-rule="evenodd" d="M85.3186 52.1804C85.3993 51.6422 85.8344 51.1122 86.4202 50.8385C86.7716 50.6743 87.6193 50.6996 87.969 50.8847C89.0921 51.4792 89.3172 53.0406 88.399 53.8662C87.6586 54.5319 86.5676 54.5233 85.8909 53.8466C85.7597 53.7154 85.6009 53.5071 85.5379 53.3837C85.3806 53.0753 85.2729 52.4848 85.3186 52.1804Z" fill="white"/>
<path fill-rule="evenodd" clip-rule="evenodd" d="M51.1479 18.5459V19.6154L50.7511 19.6529C50.533 19.6735 50.047 19.6905 49.6712 19.6908L48.9879 19.6912L48.9512 19.8748C48.931 19.9759 48.9145 20.0817 48.9145 20.1099C48.9145 20.1382 49.4165 20.1614 50.0301 20.1614H51.1457L51.1321 21.2634L51.1185 22.3654H51.3242H51.5299L51.5662 21.4544C51.5861 20.9533 51.606 20.4575 51.6103 20.3524L51.618 20.1614H52.7089H53.7998L53.7815 19.941L53.7633 19.7206L52.6919 19.7046L51.6207 19.6885L51.6046 18.6182L51.5887 17.5478L51.3683 17.5121L51.1479 17.4763V18.5459ZM16.0155 66.019C15.983 66.0595 15.7157 66.5708 15.4216 67.1554L14.887 68.2183L13.7251 68.3793C13.0861 68.468 12.5171 68.5535 12.4605 68.5694C12.3954 68.5876 12.3576 68.6561 12.3574 68.7559C12.3572 68.8812 12.5362 69.0907 13.2291 69.7764L14.101 70.6392L13.9287 71.6277C13.8339 72.1714 13.7524 72.7485 13.7476 72.9102C13.7393 73.1877 13.7476 73.205 13.8963 73.2222C14.0055 73.2348 14.3591 73.077 15.0483 72.708C15.5953 72.4151 16.0938 72.1755 16.156 72.1755C16.2183 72.1755 16.3215 72.2116 16.3852 72.2558C16.5327 72.358 18.0949 73.1488 18.3039 73.227C18.6451 73.3548 18.6542 73.1686 18.3845 71.59L18.2191 70.6224L19.0793 69.7822C19.7993 69.0789 19.9394 68.914 19.9394 68.7701C19.9394 68.657 19.9042 68.588 19.8365 68.5683C19.7799 68.5518 19.2444 68.4696 18.6464 68.3855C18.0484 68.3014 17.5194 68.2193 17.4709 68.2031C17.4224 68.1869 17.1392 67.6722 16.8415 67.0595C16.4183 66.1886 16.2756 65.9456 16.1875 65.9456C16.1255 65.9456 16.0481 65.9786 16.0155 66.019ZM15.7346 67.6015C15.5097 68.0597 15.2802 68.4927 15.2246 68.5636C15.1364 68.676 14.9912 68.7105 14.0896 68.8324L13.0558 68.9721L13.3091 69.2021C14.1737 69.9868 14.591 70.4355 14.591 70.5804C14.591 70.6636 14.5204 71.1225 14.4341 71.6003C14.3478 72.0781 14.2906 72.4824 14.307 72.4987C14.3234 72.5151 14.7226 72.3301 15.1943 72.0875C15.6659 71.845 16.0904 71.6465 16.1377 71.6465C16.185 71.6465 16.6233 71.8443 17.1117 72.086C17.6002 72.3277 17.9998 72.5063 17.9997 72.4827C17.9995 72.4062 17.7654 70.7991 17.7296 70.6286C17.6981 70.4785 17.7641 70.3931 18.4338 69.7162L19.1727 68.9694L18.2002 68.8352C17.6654 68.7615 17.1965 68.6886 17.1583 68.6734C17.1202 68.6582 16.8905 68.2243 16.6481 67.7093C16.4056 67.1942 16.1929 66.7718 16.1754 66.7706C16.1579 66.7694 15.9595 67.1433 15.7346 67.6015Z" fill="#5EFF9E"/>
</svg>
