<svg width="200" height="200" viewBox="0 0 200 200" fill="none" xmlns="http://www.w3.org/2000/svg">
<path d="M150.561 17.5606C151.541 16.1059 153.084 13.9089 153.945 12.7511C154.836 11.5636 155.697 10.5839 155.845 10.5839C155.994 10.5839 156.113 10.6432 156.113 10.7323C156.113 10.8214 154.331 13.7308 152.164 17.2043C149.967 20.6481 147.592 24.3888 146.88 25.517C146.167 26.6155 145.484 27.5061 145.365 27.5061C145.217 27.5061 145.187 27.6249 145.276 27.803C145.365 27.9811 145.276 28.0999 145.128 28.0999C144.98 28.0999 144.831 27.8624 144.831 27.5952C144.831 27.2983 145.722 25.517 146.791 23.6466C147.889 21.7763 149.581 19.045 150.561 17.5606Z" fill="#04FFE1"/>
<path d="M172.233 36.4422C174.222 35.7891 176.716 34.9875 177.785 34.6906C178.854 34.3641 179.952 34.0672 180.249 34.0672C180.516 34.0375 180.754 34.1266 180.754 34.2453C180.754 34.3938 179.447 34.9281 177.874 35.4922C176.271 36.0563 172.293 37.4813 169.027 38.6688C165.761 39.8564 161.753 41.3705 160.12 42.0236C158.488 42.6767 157.063 43.1518 156.944 43.0627C156.795 43.0033 156.706 42.8252 156.706 42.647C156.706 42.4689 157.597 41.9345 158.725 41.4298C159.824 40.9548 162.496 39.8861 164.663 39.0548C166.8 38.2532 170.214 37.0657 172.233 36.4422Z" fill="#04FFE1"/>
<path d="M169.086 67.7038C163.238 65.7444 158.428 63.9928 158.339 63.785V63.8147C158.28 63.6069 158.399 63.4287 158.636 63.4287C158.874 63.4287 160.328 63.785 161.842 64.2006C163.327 64.6163 166.444 65.596 168.73 66.3976C171.016 67.1695 174.49 68.446 176.449 69.2179C178.408 69.9601 180.19 70.7617 180.398 70.9398C180.605 71.1477 180.783 71.207 180.754 71.0883C180.754 70.9398 181.021 70.9695 181.348 71.1477C181.674 71.3258 181.941 71.5633 181.941 71.7414C181.941 71.9196 181.763 71.9492 181.585 71.8305C181.377 71.7117 181.11 71.5633 180.991 71.5336C180.843 71.4742 180.724 71.4446 180.694 71.4149C180.635 71.4149 180.397 71.3555 180.16 71.2961C179.923 71.2664 174.935 69.6336 169.086 67.7038Z" fill="#04FFE1"/>
<path d="M49.6806 90.8309C48.4634 90.7122 47.8993 90.5043 47.8696 90.2371C47.84 89.8809 49.1165 89.8215 55.2323 89.8215C59.9527 89.8215 62.595 89.9403 62.595 90.1184C62.595 90.2965 62.8918 90.4153 63.2778 90.445C63.9012 90.4746 63.9012 90.4746 63.1887 90.7122C62.7731 90.8309 59.9824 90.9497 56.9542 90.9793C53.926 91.009 50.6603 90.92 49.6806 90.8309Z" fill="#04FFE1"/>
<path d="M64.4653 90.8903C64.2575 90.8012 64.1684 90.5637 64.2575 90.3856C64.3762 90.2371 64.7622 90.1184 65.1481 90.1778C65.5638 90.2371 65.8903 90.3856 65.92 90.5637C65.9497 90.7418 65.7122 90.8903 65.3856 90.9497C65.0888 91.009 64.6434 90.9793 64.4653 90.8903Z" fill="#04FFE1"/>
<path d="M66.4544 114.047C68.5029 112.741 70.967 111.227 71.9467 110.692C72.9264 110.158 73.8171 109.713 73.9655 109.713C74.0843 109.713 74.2327 109.831 74.3218 110.009C74.4108 110.188 73.3124 111.078 71.8874 112.058L71.8389 112.09C70.3836 113.04 68.1916 114.472 66.8997 115.264C65.5935 116.096 62.4168 117.966 59.8637 119.48C57.2808 120.964 55.0542 122.182 54.876 122.182C54.7276 122.182 54.6385 122.063 54.7276 121.885C54.8167 121.707 56.6573 120.43 58.8246 119.005C60.9621 117.61 64.4059 115.383 66.4544 114.047Z" fill="#04FFE1"/>
<path d="M85.4548 135.69C86.7908 131.771 88.2752 127.585 88.7502 126.427C89.2549 125.239 89.7893 124.26 89.9377 124.26C90.0862 124.26 90.2049 124.468 90.2049 124.705C90.2049 124.943 89.9971 125.922 89.7299 126.872C89.4627 127.793 87.9783 131.979 86.4345 136.135C84.8907 140.291 83.4657 143.973 83.2876 144.299C83.1095 144.626 82.9907 144.982 83.0204 145.131C83.0501 145.249 82.872 145.338 82.6345 145.338C82.2485 145.338 82.2485 145.19 82.6048 144.091C82.8126 143.379 84.0892 139.609 85.4548 135.69Z" fill="#04FFE1"/>
<path d="M131.353 23.1419C130.937 22.9341 130.64 22.6372 130.729 22.4591C130.848 22.281 131.145 22.1622 131.412 22.1622C131.679 22.1919 132.243 22.5482 132.629 22.9935C133.045 23.4388 133.609 24.3295 133.876 24.9826C134.292 25.8732 134.44 26.9123 134.44 29.228C134.44 30.8905 134.232 33.2953 133.995 34.5719C133.728 35.8188 133.312 37.2438 133.015 37.7188C132.748 38.1938 132.184 38.847 131.768 39.1438C131.234 39.5595 130.551 39.7376 129.393 39.7079C128.503 39.7079 126.632 39.4407 125.237 39.1142C123.842 38.7579 121.912 38.4907 120.932 38.4907C119.685 38.4907 118.884 38.6688 118.201 39.0845C117.666 39.411 116.865 40.1829 116.419 40.7767C115.796 41.5783 115.559 42.3205 115.469 43.508C115.38 44.844 115.499 45.4971 116.123 46.8034C116.538 47.7237 117.31 48.7628 117.874 49.1488C118.409 49.5644 119.388 49.9503 120.041 50.0097C120.695 50.0691 122.446 49.9206 123.901 49.6831C125.385 49.4159 127.048 49.1784 127.612 49.1488H129.542C130.135 49.1784 130.759 49.5347 131.323 50.1581C131.828 50.6925 132.451 51.791 132.748 52.5926C133.015 53.4238 133.371 55.2051 133.52 56.6005C133.668 58.1146 133.668 59.9552 133.52 61.2021C133.371 62.36 132.985 63.7553 132.689 64.3194C132.392 64.8835 131.709 65.6554 131.145 66.0413C130.551 66.4272 129.69 66.6944 129.096 66.6944C128.532 66.6944 126.662 66.3382 124.94 65.9225C123.099 65.4475 120.902 65.121 119.566 65.0913C118.062 65.0715 117.043 65.21 116.509 65.5069C116.063 65.7444 115.618 66.2788 115.559 66.6944C115.469 67.1101 115.321 67.6445 115.232 67.882C115.084 68.2679 115.054 68.2679 114.935 67.882C114.787 67.496 114.757 67.496 114.49 67.882C114.282 68.1788 114.252 67.971 114.371 67.1398C114.49 66.4866 114.787 65.7147 115.084 65.3882C115.351 65.0913 116.034 64.646 116.568 64.4381C117.073 64.2006 118.349 64.0225 119.388 64.0225C120.398 64.0225 122.357 64.2897 123.752 64.646C125.148 64.9725 126.899 65.3585 127.701 65.5366C128.77 65.7444 129.334 65.7147 130.135 65.3585C130.828 65.0616 131.372 64.5173 131.768 63.7256C132.095 63.0725 132.451 61.7068 132.54 60.6974C132.659 59.6583 132.57 57.6989 132.392 56.3036C132.184 54.9082 131.709 53.0676 131.293 52.2363C130.848 51.2566 130.284 50.5144 129.779 50.3066C129.156 49.98 128.354 50.0097 125.415 50.455C123.426 50.7222 121.199 50.9597 120.427 50.9597C119.626 50.9597 118.646 50.8113 118.201 50.6332C117.726 50.4847 116.984 49.98 116.538 49.5347C116.063 49.0894 115.44 48.2284 115.113 47.6347C114.816 47.0112 114.46 45.9424 114.371 45.2596C114.252 44.5471 114.312 43.3299 114.519 42.4986C114.698 41.697 115.232 40.4501 115.737 39.7673C116.212 39.0548 117.162 38.2235 117.815 37.8969C118.557 37.511 119.596 37.3032 120.635 37.3032C121.526 37.3032 123.634 37.6297 125.326 38.0454C126.988 38.461 128.799 38.7876 129.334 38.7876C129.839 38.7876 130.551 38.6688 130.878 38.4907C131.204 38.3126 131.739 37.6594 132.065 37.0063C132.392 36.3532 132.867 34.5719 133.134 33.0875C133.431 31.3656 133.55 29.5249 133.46 28.2483C133.371 27.1201 133.045 25.5764 132.718 24.8342C132.362 24.0623 131.798 23.3498 131.353 23.1419Z" fill="#003FFF"/>
<path d="M85.5735 22.2216C85.3657 22.4294 84.9501 23.4685 84.6235 24.5373C84.2969 25.6061 83.9407 27.6842 83.8219 29.1389C83.6735 30.8015 83.7328 32.4937 83.9407 33.5922C84.1188 34.5719 84.4453 35.4625 84.6532 35.5813C84.861 35.7 84.9204 35.8188 84.7719 35.8188C84.6532 35.8188 84.8016 36.1157 85.0688 36.4719C85.3657 36.7985 85.8407 37.3329 86.1079 37.6594C86.5235 38.0454 86.8798 38.1344 87.5923 38.0157C88.1267 37.8969 88.6611 37.9563 88.7798 38.0751C88.8689 38.2235 89.6111 38.2829 90.4127 38.2235L91.8377 38.1344L93.233 37.5109C93.4408 37.3922 93.8565 37.3625 94.1237 37.4516C94.4205 37.5406 94.7174 37.4813 94.8065 37.3031C94.9253 37.125 95.8159 37.0062 96.8253 37.0062C98.6363 36.9766 98.6956 37.0062 99.9129 38.3422C100.625 39.0844 101.308 40.1829 101.486 40.7766C101.635 41.4001 101.783 42.3798 101.783 42.9439C101.783 43.5079 101.635 44.5173 101.427 45.1705C101.249 45.8236 100.625 46.8627 100.032 47.5158C99.0519 48.5846 98.8144 48.6737 97.0925 48.7627C95.519 48.8518 95.2221 48.7924 95.1331 48.3471L94.3612 48.5847C91.719 48.3472 90.8877 48.169 90.7986 48.0206C90.7096 47.8722 90.2048 47.694 89.6705 47.6347C88.9876 47.5753 88.572 47.3081 88.2751 46.8034L86.9392 46.6549C87.7407 48.2878 88.6611 50.4847 89.0173 51.5535C89.3736 52.6223 89.7298 54.166 89.8189 54.9676C89.9377 56.0067 89.8486 56.7489 89.4923 57.4317C89.2251 57.9364 88.7798 58.4411 88.4829 58.5005C88.2158 58.5599 87.4439 58.7083 86.7907 58.8271C86.0188 58.9458 85.0985 58.8271 84.1188 58.5005C83.2236 58.1001 83.0531 59.2441 83.0797 59.8662C83.0797 60.1037 83.2578 60.9052 83.4953 61.6475C83.7625 62.3897 84.3563 63.4287 84.861 63.9631C85.6032 64.7647 85.9001 64.8835 86.7313 64.7647C87.236 64.7053 87.8001 64.7647 87.9782 64.9131C88.1564 65.0913 89.5517 64.9725 91.6893 64.6163C93.5596 64.2897 96.0237 64.0225 97.1816 64.0225C98.3394 64.0225 99.5863 64.2006 100.002 64.4084C100.418 64.6163 100.922 65.1803 101.16 65.6553C101.486 66.4272 101.457 66.9023 100.893 69.5148C100.507 71.1477 100.21 73.2852 100.21 74.2649C100.21 75.4821 100.388 76.4321 100.804 77.2337C101.13 77.8869 101.961 78.926 102.644 79.5494C103.386 80.2026 104.485 80.826 105.435 81.0932C106.266 81.3307 107.572 81.5385 108.315 81.5385C109.057 81.5385 110.333 81.3604 111.135 81.1229C111.966 80.8557 113.213 80.1729 113.926 79.5494C114.668 78.926 115.499 77.8869 115.796 77.2337C116.093 76.5509 116.33 75.3337 116.33 74.4134C116.33 73.5227 116.123 71.9789 115.855 70.9992C115.618 70.0195 115.351 69.0398 115.291 68.8617C115.173 68.5945 115.024 68.5648 114.698 68.7726C114.312 69.0398 114.312 69.2773 114.698 70.7914C114.935 71.7117 115.113 73.2555 115.143 74.2055C115.143 75.1259 114.994 76.254 114.816 76.729C114.668 77.1744 114.163 77.9166 113.718 78.3916C113.273 78.8666 112.382 79.49 111.729 79.7869C110.957 80.1432 109.858 80.351 108.611 80.351C107.543 80.351 106.177 80.2025 105.583 80.0541C104.96 79.876 103.95 79.3119 103.357 78.7775C102.733 78.2134 101.991 77.2931 101.724 76.6993C101.427 76.0759 101.189 74.9181 101.189 74.0571C101.189 73.1961 101.457 71.5633 101.783 70.4055C102.11 69.2476 102.377 67.7632 102.377 67.0804C102.377 66.3679 102.169 65.3882 101.932 64.9131C101.664 64.4084 100.952 63.7553 100.239 63.3991C99.1113 62.835 98.6363 62.7756 96.1425 62.924C94.5987 63.0131 91.9268 63.3694 90.2049 63.6959C88.4829 64.0522 87.0282 64.2303 86.9392 64.1116C86.8501 63.9928 86.5235 63.7256 86.197 63.5475C85.8704 63.3991 85.3063 62.6569 84.9204 61.9146C84.5047 61.1131 84.2969 60.3412 84.386 59.9552C84.5047 59.4505 84.7125 59.3318 85.0985 59.4505C85.3657 59.5396 86.1376 59.7177 86.7907 59.7771C87.5626 59.8959 88.3048 59.7771 88.9579 59.4505C89.4627 59.1833 90.1158 58.5302 90.383 58.0255C90.7689 57.2536 90.858 56.5411 90.7096 54.8192C90.6205 53.602 90.2642 51.791 89.9377 50.8113C89.5814 49.8316 89.3142 49.0003 89.3142 48.9706C89.3142 48.9112 89.908 48.9112 90.6502 48.9706C91.3924 49.0003 91.9861 49.0894 91.9861 49.1784C91.9861 49.2675 92.758 49.505 93.6784 49.7425C94.6284 49.9503 96.0831 50.0691 96.8847 50.0097C97.7456 49.9503 98.9629 49.5644 99.7941 49.0894C100.922 48.4362 101.338 47.9612 101.991 46.5956C102.614 45.2596 102.822 44.4283 102.822 42.9439C102.822 41.4595 102.644 40.6579 102.021 39.3813C101.605 38.4907 101.011 37.5407 100.714 37.3032C100.418 37.0657 99.8535 36.7985 99.4379 36.7391C99.0222 36.7094 97.7159 36.561 96.5284 36.4422C95.3706 36.3532 94.2424 36.3532 94.0049 36.4719C93.7971 36.561 92.6987 36.7985 91.5408 36.9469C90.383 37.1251 89.1361 37.3329 88.7204 37.4516C88.1861 37.6001 87.6517 37.4516 86.8798 36.9766C86.2563 36.5907 85.7516 36.086 85.7516 35.9078C85.7516 35.7 85.6626 35.5219 85.5438 35.5219C85.3954 35.5219 85.2469 35.0172 85.1579 34.4234C85.0985 33.8 85.0391 32.0187 85.0391 30.4749C85.0688 28.8421 85.3063 26.853 85.5735 25.7248C85.8704 24.656 86.3454 23.4091 86.6423 22.9044C86.9392 22.4294 87.622 21.806 88.1564 21.5388C89.1361 21.0638 89.3142 21.0935 93.1737 22.0732C95.4893 22.6372 98.0128 23.0826 99.1113 23.0826C100.18 23.1122 101.368 22.9638 101.783 22.756C102.199 22.5482 102.822 22.1029 103.208 21.7466C103.565 21.42 103.95 20.7372 104.04 20.2325C104.158 19.7575 104.069 18.4215 103.861 17.2637C103.654 16.1355 103.535 14.1761 103.565 12.9589C103.594 11.6229 103.802 10.376 104.069 9.84165C104.307 9.36664 104.811 8.65412 105.168 8.26818C105.494 7.88223 106.504 7.31816 107.365 7.02128C108.255 6.66502 109.651 6.42751 110.69 6.42751C111.669 6.42751 112.916 6.60564 113.451 6.81346C113.955 7.05096 114.905 7.79317 115.529 8.44631C116.123 9.15882 116.776 10.2573 116.954 10.9698C117.132 11.6526 117.221 12.7511 117.132 13.4042C117.043 14.0574 116.627 15.809 116.182 17.2637C115.677 19.1043 115.499 20.2028 115.648 20.8263C115.766 21.331 116.152 22.0732 116.538 22.5482C117.013 23.1122 117.696 23.4388 118.795 23.6466C119.952 23.8841 121.259 23.8545 124.198 23.4982C126.306 23.231 128.146 22.9638 128.295 22.8747C128.413 22.8154 128.443 22.5779 128.354 22.3997C128.235 22.1029 127.671 22.0732 125.593 22.37C124.168 22.5779 122.12 22.756 121.021 22.756C119.893 22.756 118.676 22.6372 118.26 22.4591C117.845 22.281 117.28 21.806 117.013 21.3606C116.509 20.6184 116.509 20.47 117.34 17.2934C117.993 14.7996 118.171 13.523 118.082 12.0386C117.993 10.5245 117.755 9.78227 117.073 8.65412C116.598 7.85254 115.588 6.78377 114.905 6.30876C113.658 5.41812 113.48 5.38843 110.601 5.38843C107.899 5.38843 107.394 5.47749 106.088 6.19001C105.286 6.60564 104.307 7.28847 103.95 7.67442C103.594 8.03067 103.089 8.89163 102.793 9.54477C102.496 10.287 102.318 11.5339 102.318 12.8105C102.347 13.9683 102.466 15.4824 102.644 16.2246C102.822 16.9668 102.971 18.1543 102.971 18.8965C102.971 19.7278 102.763 20.47 102.436 20.8559C102.169 21.2122 101.635 21.6575 101.279 21.8357C100.893 22.0138 100.091 22.1622 99.4972 22.1622C98.8738 22.1622 96.6175 21.7466 94.5096 21.2419C92.4018 20.7372 89.9377 20.3216 89.0767 20.2919C88.2158 20.2919 87.3251 20.4403 87.147 20.6184C86.4999 21 85.8758 21.6872 85.5735 22.2216Z" fill="#003FFF"/>
<path d="M136.222 76.9369C135.331 77.1744 133.669 77.9166 132.511 78.5697C131.353 79.1932 129.72 80.4401 128.859 81.3011C127.701 82.4292 127.167 83.2605 126.84 84.3292C126.484 85.5168 126.454 86.0808 126.722 87.1496C126.989 88.159 127.493 88.8715 128.8 90.1184C129.72 91.0091 131.086 92.2857 131.828 92.9388C132.719 93.7404 133.283 94.5123 133.49 95.3139C133.728 96.1154 133.728 96.917 133.55 97.8373C133.372 98.6092 132.808 99.7077 132.214 100.45C131.531 101.281 130.7 101.875 129.779 102.202C128.978 102.498 127.612 102.736 126.722 102.736C125.564 102.736 124.792 102.528 124.05 102.083C123.456 101.726 122.684 100.836 122.239 100.005C121.793 99.2327 121.17 97.6592 120.843 96.5014C120.487 95.3435 119.923 93.9482 119.537 93.3841C119.151 92.8201 118.379 92.1075 117.815 91.8107C117.073 91.4247 116.42 91.3356 115.44 91.4544C114.698 91.5435 113.035 92.1372 111.729 92.7904C110.423 93.4435 108.582 94.5717 107.662 95.3139C106.712 96.0561 105.524 97.2733 105.049 98.0749C104.544 98.8468 104.069 99.8858 103.98 100.361C103.862 100.836 103.862 101.726 103.98 102.291C104.069 102.855 104.574 103.983 105.109 104.784C105.643 105.586 107.335 107.248 108.879 108.495C110.393 109.742 111.877 111.167 112.204 111.642C112.501 112.117 112.768 112.8 112.768 113.127C112.768 113.453 112.56 113.928 112.263 114.225C111.967 114.492 110.72 114.849 109.354 115.056C108.048 115.264 106.326 115.65 105.494 115.947C104.544 116.303 103.565 116.986 102.763 117.847C101.962 118.678 101.368 119.688 101.16 120.489C100.982 121.172 100.923 122.33 101.041 123.072C101.16 123.814 101.546 125.091 101.932 125.893C102.318 126.724 103.268 128.09 104.069 128.951C104.96 129.96 106.177 130.88 107.276 131.415C108.523 132.038 109.502 132.276 110.541 132.276C111.61 132.276 112.442 132.038 113.51 131.415C114.342 130.969 115.648 129.782 116.449 128.832C117.281 127.882 118.409 126.575 118.973 125.952C119.745 125.15 120.279 124.854 120.932 124.854C121.437 124.824 122.06 125.061 122.328 125.358C122.595 125.655 123.1 126.486 123.426 127.229C123.753 127.971 124.05 128.861 124.05 129.247L124.406 130.851C124.525 130.821 124.762 131.533 124.911 132.394C125.029 133.226 125.415 134.472 125.712 135.096C126.068 135.808 126.751 136.521 127.464 136.937C128.295 137.412 129.126 137.649 130.136 137.649C130.967 137.649 132.54 137.323 133.698 136.937C134.856 136.521 135.776 136.224 135.806 136.254L136.815 135.693C135.783 134.215 134.777 132.726 134.114 131.682C132.926 129.811 131.323 126.932 130.522 125.299C129.75 123.666 128.918 121.41 128.651 120.252C128.414 119.094 128.295 117.699 128.384 117.135C128.503 116.571 128.74 115.799 128.978 115.442C129.215 115.056 129.809 114.671 130.373 114.581C130.878 114.492 132.154 114.611 133.194 114.878C134.203 115.146 135.836 115.769 136.815 116.244C137.795 116.719 139.487 117.728 140.616 118.411C141.714 119.124 144 120.816 145.722 122.182C147.444 123.547 149.908 125.625 151.214 126.813C151.618 127.18 152.013 127.527 152.37 127.831L153.381 126.902C153.352 126.754 154.005 126.249 154.806 125.774C156.517 125.038 158.428 123.666 159.171 123.072C159.111 123.072 159.734 122.449 160.506 121.678L160.507 121.677C161.308 120.875 162.258 119.658 162.614 118.916C163 118.174 163.357 116.986 163.446 116.244C163.535 115.502 163.446 114.374 163.268 113.721C163.089 113.067 162.496 111.731 161.902 110.752C161.308 109.772 160.863 108.911 160.863 108.822C160.575 108.381 159.775 107.301 158.874 106.506C158.399 106.031 157.686 104.933 157.241 104.042C156.766 103.152 156.41 102.083 156.41 101.637C156.41 101.162 156.647 100.569 156.944 100.272C157.211 99.9749 158.577 99.3514 159.972 98.9061C161.368 98.4311 163.089 97.7483 163.832 97.392C164.574 97.0358 165.554 96.2936 166.029 95.7295C166.504 95.1654 167.068 94.3045 167.335 93.8295C167.632 93.2654 167.81 92.1372 167.81 90.8606C167.81 89.3762 167.661 88.3965 167.216 87.4465C166.89 86.7043 166.088 85.5465 165.435 84.8339C164.811 84.1214 163.475 83.1417 162.496 82.6667C161.279 82.073 160.269 81.8058 159.319 81.8058C158.518 81.8058 157.449 81.9839 156.944 82.1917C156.41 82.4292 155.489 82.9933 154.925 83.498C154.361 84.0027 153.203 85.4574 152.342 86.734C151.481 88.0106 150.472 89.2575 150.116 89.4653C149.611 89.7622 149.255 89.7919 148.691 89.5544C148.275 89.3762 147.652 88.7231 147.325 88.1293C146.969 87.5059 146.405 86.0808 146.019 84.923C145.663 83.7652 145.098 82.1026 144.772 81.212C144.416 80.3213 143.792 79.1338 143.377 78.5697C142.961 78.0057 142.07 77.2932 141.417 76.9963C140.764 76.6994 139.695 76.4916 139.042 76.4916C138.389 76.4916 137.112 76.6994 136.222 76.9369Z" fill="#003FFF"/>
<path d="M160.863 108.822C160.863 108.733 161.427 108.763 162.139 108.881C162.822 109 164.574 109.356 166.058 109.683C167.543 110.009 169.858 110.633 171.254 111.078C172.649 111.494 174.727 112.325 175.855 112.919C177.013 113.483 179.062 114.7 180.457 115.62C181.852 116.541 183.93 118.203 185.059 119.361C186.216 120.519 187.79 122.449 188.532 123.666C189.304 124.883 190.254 126.694 190.64 127.674C191.026 128.654 191.471 129.722 191.59 130.049C191.738 130.375 191.798 130.761 191.768 130.94C191.738 131.118 191.857 131.296 192.035 131.385C192.213 131.474 192.629 132.751 192.926 134.205C193.252 135.69 193.668 138.48 193.876 140.44C194.143 143.201 194.143 144.982 193.876 148.307C193.668 150.682 193.371 154.007 193.223 155.729C193.045 157.451 192.629 160.717 192.302 163.003C191.976 165.289 191.174 169.89 190.521 173.245C189.838 176.6 188.176 183.873 186.81 189.425C185.177 196.075 184.405 199.608 184.613 199.816C184.762 199.964 184.94 200.054 184.999 199.964C185.059 199.875 186.009 196.55 187.077 192.542C188.176 188.535 189.66 182.864 190.373 179.925C191.115 176.986 192.035 172.919 192.451 170.87C192.867 168.822 193.401 165.882 193.668 164.339C193.906 162.795 194.292 159.707 194.529 157.51C194.796 155.313 195.004 152.196 195.063 150.623C195.123 149.049 195.034 147.654 194.915 147.506C194.796 147.387 194.707 146.14 194.707 144.745C194.707 143.349 194.559 141.034 194.41 139.549C194.232 138.065 193.698 134.888 193.193 132.424C192.481 128.861 192.035 127.436 190.996 125.299C190.016 123.28 189.066 121.974 187.226 119.985C185.86 118.53 183.752 116.6 182.535 115.68C181.318 114.789 178.973 113.334 177.34 112.474C175.707 111.642 172.975 110.455 171.254 109.891C169.532 109.327 166.593 108.525 164.722 108.109C162.852 107.694 160.952 107.337 160.506 107.337C160.002 107.337 159.349 107.011 158.874 106.506L160.863 108.822Z" fill="#15006A"/>
<path fill-rule="evenodd" clip-rule="evenodd" d="M124.049 129.247C124.049 129.722 123.723 130.049 122.862 130.494C122.209 130.821 120.873 131.86 119.923 132.81C118.765 133.908 118.052 134.918 117.815 135.69C117.488 136.729 117.518 137.026 117.993 138.065C118.29 138.718 119.032 139.549 119.596 139.935C120.16 140.321 121.17 140.766 121.823 140.974C122.535 141.182 124.94 141.33 127.909 141.33C130.611 141.33 133.372 141.212 134.084 141.093C134.856 140.974 135.331 141.004 135.331 141.182C135.331 141.33 134.351 142.043 133.193 142.726C132.006 143.409 130.195 144.774 129.215 145.754C127.79 147.149 127.345 147.832 127.167 148.752C127.018 149.613 127.078 150.207 127.434 150.92C127.76 151.543 128.384 152.107 129.334 152.553C130.611 153.146 131.145 153.206 135.331 153.176C138.775 153.176 140.912 152.998 143.792 152.493C145.93 152.107 147.83 151.751 148.037 151.692C148.216 151.632 148.394 151.781 148.394 152.018C148.394 152.256 147.77 152.82 146.998 153.265C146.197 153.71 144.237 154.928 142.605 155.996C140.972 157.095 138.834 158.757 137.825 159.737C136.578 160.954 135.865 161.934 135.598 162.795C135.301 163.745 135.272 164.22 135.509 164.576C135.687 164.843 136.281 165.348 136.845 165.675C137.736 166.179 138.478 166.268 142.605 166.328L147.355 166.417C148.127 171.583 148.72 174.284 149.136 175.769C149.552 177.253 150.502 179.777 151.244 181.409L151.447 181.855C152.122 183.34 152.774 184.775 152.936 185.18C153.233 185.863 153.084 186.635 151.748 190.821C150.888 193.492 150.116 196.016 150.027 196.491C149.928 197.025 150.007 197.293 150.264 197.293C150.472 197.293 151.303 195.185 152.253 192.246C153.144 189.455 153.945 187.199 154.034 187.199C154.124 187.199 154.984 188.356 155.964 189.781C156.944 191.206 158.369 193.047 159.141 193.878C159.883 194.68 160.625 195.274 160.774 195.155C160.892 195.036 160.21 193.908 159.23 192.632C158.25 191.355 156.795 189.247 156.024 187.941C155.222 186.634 153.945 184.289 153.144 182.745C152.372 181.202 151.333 178.797 150.828 177.401C150.353 176.006 149.73 173.809 149.462 172.503C149.195 171.197 148.839 168.792 148.691 167.159C148.542 165.378 148.542 162.943 148.72 161.073C148.869 159.351 149.195 156.679 149.462 155.135L149.908 152.315C148.631 150.623 146.85 148.485 145.158 146.466C143.465 144.448 140.764 141.063 139.161 138.955C137.587 136.847 135.301 133.552 134.114 131.682C132.926 129.811 131.323 126.932 130.521 125.299C129.75 123.666 128.918 121.41 128.651 120.252C128.414 119.094 128.295 117.699 128.384 117.135C128.503 116.57 128.74 115.799 128.978 115.442C129.215 115.056 129.809 114.67 130.373 114.581C130.878 114.492 132.154 114.611 133.193 114.878C134.203 115.145 135.836 115.769 136.815 116.244C137.795 116.719 139.487 117.728 140.615 118.411C141.714 119.124 144 120.816 145.722 122.182C147.444 123.547 149.908 125.625 151.214 126.813C152.52 128 153.738 128.98 153.886 128.98C154.034 129.01 154.747 129.574 155.43 130.257C156.142 130.969 156.706 131.652 156.706 131.83C156.706 132.008 158.22 133.671 160.061 135.541C161.902 137.412 163.832 139.46 164.366 140.083C164.9 140.677 165.375 141.182 165.464 141.182C165.553 141.182 166.503 140.618 167.632 139.935C168.73 139.282 171.105 138.005 172.886 137.115C174.668 136.254 176.33 135.541 176.538 135.541C176.716 135.541 176.894 135.333 176.894 135.096C176.894 134.71 176.657 134.74 175.202 135.215C174.252 135.541 172.738 136.076 171.847 136.432C170.957 136.788 169.739 137.322 169.175 137.649C168.344 138.124 168.077 138.154 167.929 137.857C167.78 137.649 167.78 136.877 167.869 136.135C167.988 135.393 168.166 134.651 168.314 134.502C168.463 134.354 168.582 133.938 168.582 133.611C168.582 133.285 168.997 131.89 169.472 130.494C169.977 129.099 170.897 127.169 171.55 126.189C172.174 125.21 173.124 123.993 173.629 123.518C174.133 123.042 174.519 122.538 174.519 122.419C174.519 122.271 174.341 122.182 174.163 122.182C173.955 122.182 172.886 123.132 171.788 124.26L169.769 126.338C166.207 125.388 163.832 124.646 162.199 124.082C160.566 123.518 159.2 123.072 159.171 123.072C158.341 123.144 156 124.5 154.806 125.774C156.172 124.913 156.38 124.883 158.339 125.032C159.497 125.15 161.486 125.417 162.792 125.655C164.099 125.893 166.088 126.397 167.186 126.753C168.285 127.11 169.175 127.466 169.175 127.555C169.175 127.644 168.908 128.416 168.582 129.247C168.255 130.108 167.78 131.622 167.543 132.602C167.246 133.76 167.216 134.443 167.394 134.532C167.572 134.621 167.602 134.947 167.453 135.333C167.305 135.719 167.246 136.58 167.305 137.263C167.364 138.302 167.275 138.658 166.741 139.133C166.355 139.43 165.91 139.727 165.761 139.727C165.613 139.757 164.663 138.837 163.683 137.738C162.733 136.64 160.002 133.79 157.686 131.415C155.341 129.039 153.411 127.021 153.381 126.902C149 122.5 133.151 109.398 127.5 114.5C125 117.5 127.612 127.442 135.806 136.254C135.806 136.283 136.251 136.936 136.756 137.738C137.29 138.51 137.676 139.193 137.647 139.282C137.587 139.371 136.014 139.638 134.143 139.905C131.857 140.202 129.304 140.321 126.424 140.262C122.921 140.173 121.912 140.024 120.962 139.549C120.309 139.252 119.537 138.658 119.21 138.243C118.795 137.679 118.676 137.233 118.824 136.402C118.943 135.749 119.418 134.829 119.982 134.205C120.487 133.611 121.674 132.602 122.565 131.979C123.456 131.355 124.287 130.85 124.406 130.85L124.049 129.247ZM132.362 144.507C133.401 143.765 135.212 142.637 136.37 142.043C137.498 141.419 138.626 140.915 138.804 140.915C139.012 140.915 139.962 141.894 140.883 143.082C141.803 144.24 143.614 146.466 144.891 147.951C146.167 149.465 147.176 150.771 147.147 150.86C147.087 150.949 145.306 151.306 143.198 151.632C140.794 152.048 137.825 152.285 135.331 152.315C131.739 152.345 131.175 152.285 129.928 151.691C129.037 151.246 128.443 150.771 128.325 150.356C128.235 149.97 128.235 149.316 128.325 148.871C128.414 148.396 128.948 147.565 129.482 146.971C129.987 146.377 131.293 145.249 132.362 144.507ZM141.536 157.778C142.129 157.362 143.792 156.263 145.276 155.373C146.761 154.453 148.097 153.71 148.245 153.71C148.423 153.71 148.423 154.512 148.186 155.996C147.978 157.243 147.681 159.826 147.503 161.696C147.355 163.567 147.147 165.17 147.028 165.259C146.939 165.348 144.89 165.407 142.486 165.407C138.834 165.407 138.003 165.318 137.32 164.903C136.756 164.517 136.518 164.131 136.518 163.478C136.518 162.943 136.845 162.201 137.32 161.637C137.795 161.103 138.686 160.212 139.309 159.618C139.933 159.054 140.942 158.223 141.536 157.778Z" fill="#15006A"/>
<path d="M91.8378 38.1344C93.3816 44.7252 93.9457 47.1002 94.0941 47.6049L94.3613 48.5846L95.1332 48.3471C95.0441 48.0799 94.8957 47.2486 94.8066 46.5064C94.6879 45.7642 94.2128 43.5079 93.7378 41.4594C93.055 38.5797 92.9659 37.689 93.2331 37.5109L91.8378 38.1344Z" fill="#15006A"/>
<path d="M39.8836 0.371102C38.0726 0.608607 35.2819 1.08362 33.6491 1.41019C32.0162 1.73676 29.1068 2.47896 27.177 3.01335C25.277 3.57742 22.041 4.70557 19.9925 5.53684C17.944 6.33842 15.0346 7.6447 13.5205 8.3869C12.0361 9.15879 9.48291 10.5838 7.87975 11.5932C6.30628 12.5729 5 13.4933 5 13.612C5 13.7605 5.14844 13.8495 5.29688 13.8495C5.44532 13.8495 7.37505 12.8698 9.54229 11.6526C11.6798 10.4354 15.1237 8.71347 17.1721 7.82283C19.2206 6.93218 22.3379 5.74466 24.1489 5.15089C25.9598 4.58682 28.7505 3.75555 30.3834 3.33992C32.0162 2.92428 35.0741 2.30083 37.2116 1.91489C40.418 1.3805 42.1992 1.26175 47.8994 1.26175C52.0854 1.26175 55.648 1.3805 57.1027 1.618C58.409 1.82582 60.9325 2.38989 62.7434 2.86491C64.5544 3.33992 67.1373 4.20087 68.5326 4.79463C69.928 5.3884 71.8577 6.36811 72.8374 6.96187C73.8171 7.55563 75.3609 8.56503 76.2515 9.21817C77.1422 9.87131 78.4781 10.9401 79.1907 11.6229C79.9032 12.276 81.0313 13.5526 81.7438 14.4433C82.4267 15.3339 83.4361 16.8777 84.0298 17.8574C84.6236 18.8371 85.2767 20.1137 85.4846 20.7372C85.8111 21.5387 85.8111 21.895 85.5736 22.2216C85.8824 21.9346 86.6294 21.2122 87.1471 20.6184C86.8799 20.8856 86.4643 20.3215 85.3658 18.2137C84.5642 16.7293 83.3767 14.7402 82.6939 13.8495C82.011 12.9589 80.7938 11.5932 79.9626 10.851C79.161 10.0791 77.8844 9.01035 77.1422 8.47596C76.4221 7.9287 75.2549 7.10199 74.5353 6.59229L74.4703 6.54623C73.728 6.04154 72.2733 5.18058 71.2046 4.64619C70.1358 4.11181 67.731 3.16179 65.8607 2.53834C63.9903 1.91489 60.8434 1.11331 58.884 0.757048C56.1824 0.282037 53.837 0.103908 49.2353 0.0148441C45.0196 -0.0445322 42.1399 0.0742204 39.8836 0.371102Z" fill="#15006A"/>
<path d="M88.2752 46.8034C88.0674 46.3877 87.058 44.6064 86.0486 42.7955C85.0392 40.9845 83.0798 38.075 81.7438 36.2641C80.3782 34.4531 77.7063 31.3952 75.8062 29.4358C72.8077 26.3779 72.3921 25.7841 72.6296 25.2795C72.778 24.9529 73.6687 23.6169 74.589 22.3106C75.5093 21.0044 76.2219 19.8762 76.1328 19.7871C76.0437 19.6981 75.6281 19.8762 75.2125 20.1731C74.7968 20.4403 73.8468 21.5684 73.0749 22.6966C72.3327 23.795 71.6202 24.8044 71.5311 24.9232C71.4421 25.0419 70.4327 24.4482 69.2748 23.5575C68.117 22.6966 66.1576 21.2716 64.881 20.4403C63.4856 19.4903 62.595 18.6887 62.595 18.3918C62.595 18.0949 62.8325 16.9371 63.0997 15.8386C63.3966 14.7402 63.545 13.7605 63.4263 13.7011C63.2778 13.612 62.9216 14.1761 62.5653 14.9777C62.2387 15.7496 61.9122 16.6699 61.8231 17.0558C61.7637 17.4715 61.4965 17.709 61.1106 17.709C60.784 17.709 60.4574 17.5605 60.3684 17.4121C60.2793 17.2637 58.1715 16.1058 55.6777 14.8886C53.2135 13.6714 50.8088 12.5136 50.3635 12.3651C49.8093 12.1672 49.5322 12.1672 49.5322 12.3651C49.5322 12.5136 50.8682 13.3448 52.501 14.1464C54.1339 14.9777 56.8058 16.4324 58.4387 17.4121C60.0715 18.3918 61.3481 19.0449 61.259 18.8965C61.17 18.7481 61.6747 18.9559 62.3575 19.4012C63.07 19.8168 64.3763 20.7075 65.2669 21.3606C66.1576 22.0138 67.8201 23.2903 68.9186 24.2107C70.017 25.131 70.8483 25.9326 70.7592 26.0217C70.6702 26.1107 70.9077 26.3779 71.2936 26.6154C71.6499 26.8529 72.0061 27.0311 72.0952 27.0014C72.1843 26.9717 73.0749 27.7733 74.114 28.7827C75.1234 29.792 76.1328 30.9202 76.3406 31.2765C76.5187 31.603 77.7063 33.0874 78.9235 34.5125C80.1407 35.9672 82.1298 38.6094 83.347 40.4204C84.5345 42.2017 86.1674 45.0221 86.9393 46.6549C87.3879 47.331 88.0168 47.0356 88.2752 46.8034Z" fill="#15006A"/>
<path d="M83.9893 58.4576C83.1881 58.1848 82.2865 57.743 81.8923 57.4614C81.4767 57.1645 81.0907 56.9864 81.0016 57.0458C80.9126 57.1348 80.1704 56.7489 79.3094 56.2145C78.4485 55.7098 76.8453 54.6707 75.7468 53.8988C74.6484 53.1566 72.5108 51.6425 71.0561 50.5144C69.6014 49.3862 67.3748 47.6049 66.1576 46.5362C64.9404 45.4674 61.9715 42.7361 59.5668 40.5095L55.173 36.4125C46.5337 39.8266 42.2289 41.311 40.032 41.8751C37.8351 42.4689 34.6881 43.1517 33.0553 43.4189C31.4224 43.6861 28.3052 43.8939 26.0786 43.8939C23.7332 43.8939 19.8738 43.6564 16.7268 43.2705C13.7877 42.9142 11.3533 42.7064 11.2939 42.7955C11.2642 42.8845 11.2939 43.0626 11.383 43.2408C11.472 43.4189 12.422 43.7455 13.5502 43.983C14.6486 44.2205 17.2018 44.6361 19.2503 44.9033C21.9816 45.2596 24.1785 45.3486 27.563 45.2299C30.8287 45.1111 33.2037 44.8439 35.7272 44.3096C37.6866 43.8939 40.6258 43.0923 42.2586 42.558C43.8915 41.9939 46.5634 40.9845 48.1962 40.272C49.8291 39.5891 51.9666 38.6094 52.9463 38.1641C53.9261 37.6891 54.787 37.3032 54.8761 37.3032C54.9651 37.3032 57.3105 39.5298 60.0715 42.2611C62.8622 45.0221 66.8107 48.555 68.8295 50.1284C70.878 51.7019 73.4015 53.6316 74.4703 54.4332C76.2219 55.7395 76.5187 56.1254 78.0922 59.2724C79.0125 61.1427 80.2001 63.9334 80.7048 65.4475C81.2095 67.021 81.5954 68.8023 81.5954 69.6632C81.5954 70.9695 81.5063 71.207 80.7048 71.7414L79.8141 72.3352C76.6969 70.732 75.064 69.6632 74.1734 68.921C73.2827 68.1491 70.4327 65.4475 67.8201 62.8943C65.2372 60.3411 63.1591 58.2333 63.2184 58.2333C63.2778 58.2036 62.9216 57.6692 62.4169 57.0458C61.8825 56.3926 60.8731 55.2645 60.1309 54.5223C59.4184 53.7801 58.1121 52.2957 57.2214 51.2269C56.3308 50.1284 54.4604 47.7237 53.0651 45.883C51.6401 44.0127 50.2744 42.2908 50.0072 42.0532C49.74 41.8157 49.4135 41.697 49.2947 41.8157C49.176 41.9345 49.6213 42.8845 50.2744 43.8939C50.8979 44.933 52.7088 47.5752 54.2526 49.7722C55.8261 51.9691 58.2308 55.591 59.6559 57.788C61.0512 59.9849 63.0106 63.2506 64.02 65.0616C65.0294 66.8725 66.3357 69.5445 66.9295 70.9992C67.5529 72.4539 68.117 74.2946 68.2061 75.0368C68.3248 76.0462 68.2654 76.5509 67.9389 76.9071C67.7014 77.1743 67.1373 77.4118 66.692 77.3821C66.2169 77.3821 65.0888 76.9665 64.1685 76.4618C63.2184 75.9571 60.9325 74.443 59.1215 73.0477C56.7761 71.2961 53.7182 68.4757 48.9978 63.6662C45.2571 59.8661 41.2195 55.6801 40.032 54.3738C38.8445 53.0676 37.7163 51.9691 37.5382 51.9097C37.3601 51.8503 35.9944 52.2363 34.5397 52.7113C33.085 53.216 30.6506 53.8098 29.1958 54.0769C27.6521 54.3441 24.802 54.5223 22.4566 54.5223C20.2003 54.5223 16.9346 54.3145 15.183 54.0473C13.4017 53.7801 11.0267 53.3347 9.89854 53.0379C8.65164 52.7113 7.70162 52.5925 7.52349 52.7707C7.34536 52.9191 7.61256 53.1863 8.2657 53.4535C8.82977 53.691 10.3736 54.1363 11.6798 54.4926C12.9861 54.8192 15.3908 55.2942 17.0237 55.5614C18.6565 55.8285 21.5957 56.0364 23.5551 56.0661C25.752 56.0661 28.038 55.8582 29.4927 55.5614C30.799 55.2942 33.085 54.6113 34.5397 54.0176L37.2116 52.9785C39.9726 56.1254 42.5555 58.9161 44.7227 61.2021C46.89 63.4881 50.1557 66.7538 51.9963 68.4757C53.837 70.1976 56.212 72.2758 57.2511 73.107C58.3199 73.9383 60.1012 75.2446 61.259 75.9868C62.4169 76.729 63.7528 77.5009 64.2278 77.679C64.7029 77.8868 65.5935 78.154 66.1576 78.2728C66.8701 78.4509 67.4935 78.3915 68.1764 78.0947C68.7998 77.8275 69.1858 77.4118 69.3045 76.8774C69.4233 76.4024 69.4233 75.4524 69.3342 74.7102C69.2451 73.968 68.9483 72.7211 68.6811 71.8898C68.3842 71.0883 67.5529 69.0695 66.781 67.4366C66.0091 65.8038 64.6138 63.1912 63.6935 61.6474C62.7434 60.1036 62.0012 58.7974 62.0012 58.7677C62.0012 58.7083 62.12 58.6786 62.2981 58.6786C62.4762 58.6786 63.3075 59.4505 64.1685 60.3708C64.9997 61.3209 66.5732 63.0131 67.642 64.1412C68.7108 65.2694 70.6702 67.1397 71.9764 68.2976C73.3124 69.4554 75.1234 70.8507 75.9843 71.3851C76.875 71.9195 78.1219 72.4836 78.775 72.6617C79.7251 72.9289 80.1704 72.9289 80.9719 72.6023C81.5063 72.3648 82.1595 71.8305 82.3673 71.3851C82.6048 70.9101 82.7829 70.0195 82.7829 69.3663C82.7829 68.7132 82.4564 67.1397 82.0407 65.8928C81.6548 64.6162 80.7048 62.2115 79.9626 60.549C79.2204 58.8567 78.7453 57.4911 78.9235 57.4911C79.1016 57.4911 80.0813 57.9364 81.1501 58.4708C82.2485 59.0052 83.0798 59.5989 83.0798 59.8661C83.0798 58.5671 83.6244 58.376 83.9893 58.4576Z" fill="#15006A"/>
</svg>
