<svg width="100" height="100" viewBox="0 0 100 100" fill="none" xmlns="http://www.w3.org/2000/svg">
<path fill-rule="evenodd" clip-rule="evenodd" d="M70.8421 53.2567C68.8473 53.2567 67.2302 54.8738 67.2302 56.8685C67.2302 58.8633 68.8473 60.4804 70.8421 60.4804C72.8369 60.4804 74.4539 58.8633 74.4539 56.8685C74.4539 56.7387 74.4471 56.6106 74.4337 56.4844C74.4314 56.4618 74.4288 56.4393 74.426 56.4168L74.7785 56.3729C74.7793 56.3794 74.7801 56.3859 74.7809 56.3924C74.7996 56.5485 74.8092 56.7075 74.8092 56.8685C74.8092 59.0595 73.0331 60.8357 70.8421 60.8357C68.6511 60.8357 66.875 59.0595 66.875 56.8685C66.875 54.6776 68.6511 52.9014 70.8421 52.9014C71.4781 52.9014 72.0796 53.0512 72.6129 53.3176L72.5379 53.4677L72.4541 53.6355C72.4451 53.631 72.4362 53.6266 72.4272 53.6222C71.9489 53.3882 71.4111 53.2567 70.8421 53.2567ZM73.6618 54.6112C73.6591 54.6079 73.6564 54.6045 73.6537 54.6012C73.5375 54.4572 73.4104 54.3224 73.2738 54.1979C73.2391 54.1663 73.2037 54.1353 73.1678 54.105L73.2792 53.9728L73.3967 53.8334C73.595 54.0004 73.7767 54.1866 73.939 54.389L73.7649 54.5286L73.6618 54.6112ZM74.2574 55.6901C74.2429 55.6481 74.2276 55.6064 74.2116 55.5651C74.1505 55.4072 74.0786 55.2546 73.9967 55.1083C73.9958 55.1066 73.9948 55.1049 73.9939 55.1032L74.0749 55.0577L74.3037 54.9293C74.4184 55.1338 74.5156 55.3494 74.5932 55.5743L74.4267 55.6317L74.2574 55.6901Z" fill="white"/>
<path fill-rule="evenodd" clip-rule="evenodd" d="M73.7649 54.5286L73.939 54.389C73.7767 54.1866 73.595 54.0004 73.3967 53.8334L73.2792 53.9728L73.1678 54.105C73.2037 54.1353 73.2391 54.1663 73.2738 54.1979C73.4104 54.3224 73.5375 54.4572 73.6537 54.6012L73.6618 54.6112L73.7649 54.5286ZM72.5379 53.4677L72.6129 53.3176C72.0796 53.0512 71.4781 52.9014 70.8421 52.9014C68.6511 52.9014 66.875 54.6776 66.875 56.8685C66.875 59.0595 68.6511 60.8357 70.8421 60.8357C73.0331 60.8357 74.8092 59.0595 74.8092 56.8685C74.8092 56.7075 74.7996 56.5485 74.7809 56.3924L74.7785 56.3729L74.426 56.4168C74.4288 56.4393 74.4314 56.4618 74.4337 56.4844C74.4471 56.6106 74.4539 56.7387 74.4539 56.8685C74.4539 58.8633 72.8369 60.4804 70.8421 60.4804C68.8473 60.4804 67.2302 58.8633 67.2302 56.8685C67.2302 54.8738 68.8473 53.2567 70.8421 53.2567C71.4111 53.2567 71.9489 53.3882 72.4272 53.6222L72.4541 53.6355L72.5379 53.4677ZM74.4267 55.6317L74.5932 55.5743C74.5156 55.3494 74.4184 55.1338 74.3037 54.9293L74.0749 55.0577L73.9939 55.1032L73.9967 55.1083C74.0786 55.2546 74.1505 55.4072 74.2116 55.5651C74.2276 55.6064 74.2429 55.6481 74.2574 55.6901L74.4267 55.6317Z" fill="white"/>
<path fill-rule="evenodd" clip-rule="evenodd" d="M83.1761 49.0392L83.7759 49.0879C84.1057 49.1147 84.9677 49.1377 85.6914 49.1389L87.0071 49.1413L87.9611 48.5075C89.1066 47.7465 89.4539 47.5162 90.4287 46.8715C92.1061 45.7623 93.2757 44.9615 93.351 44.8708C93.4079 44.8023 93.4114 44.7384 93.3631 44.6482C93.2679 44.4703 92.9298 44.4373 91.2009 44.4373H89.7221L89.7549 44.2893C89.773 44.2079 90.0593 43.4493 90.3913 42.6035L90.9947 41.0656L90.8518 40.9326C90.7121 40.8024 90.7045 40.8022 90.5028 40.9201C89.9072 41.2683 84.5328 44.8865 84.3639 45.0529C84.2852 45.1304 83.9342 45.9044 83.5839 46.7729C83.2336 47.6413 82.9195 48.4037 82.8858 48.4672C82.8149 48.6009 81.9828 49.1742 81.8598 49.1742L81.1959 49.6474L81.0423 49.7555C80.9578 49.8149 80.4923 50.1231 80.0078 50.4405L79.127 51.0176L78.8279 50.6057C78.389 50.0014 77.2894 48.9422 76.5767 48.4373C75.4634 47.6485 74.0349 47.0219 72.6773 46.7266C71.763 46.5277 69.4375 46.5101 68.5202 46.695C67.6208 46.8763 66.5973 47.239 65.708 47.6917L64.9059 48.0999L64.3956 48.4827C64.3845 48.4925 64.1807 48.647 63.9426 48.8262C63.0917 49.4665 62.0394 50.6793 61.4432 51.7071C61.2018 52.1232 60.7241 53.1417 60.7241 53.2403C60.7241 53.2722 60.2308 53.3178 59.628 53.3415C58.0072 53.4055 33.2374 53.3941 33.1974 53.3294L32.3166 53.3443C32.1541 53.3665 30.3821 53.3848 28.3786 53.3848H24.7358L24.7699 60.8519L28.8709 60.8867L29.493 60.8845L60.6892 60.9177L61.1507 61.8258C61.7589 63.0227 62.2782 63.737 63.1809 64.6191C64.3419 65.7535 65.5352 66.4695 67.1452 66.9976C68.2335 67.3545 69.2748 67.5463 70.1734 67.5552L70.9056 67.5625C71.2191 67.5625 71.7316 67.4967 71.9486 67.4638C72.2946 67.4638 73.8532 67.071 74.459 66.8311C75.5906 66.3829 76.7222 65.6615 77.5637 64.8516C77.8727 64.5542 78.1346 64.3098 78.1457 64.3084C78.6105 63.7056 79.6893 62.1816 80.2868 60.9074C80.7662 59.6755 80.9507 58.8525 81.022 57.6282C81.1263 55.839 80.7797 54.16 79.9266 52.3212C79.7139 51.8629 79.54 51.4621 79.54 51.4306C79.54 51.3991 79.7251 51.2662 79.9512 51.1353C80.1774 51.0044 80.5252 50.7774 80.7242 50.6308C80.9232 50.4842 81.1083 50.363 81.1354 50.3613L81.7768 49.9614L83.1761 49.0392ZM86.7696 44.168C86.8279 44.0967 87.1272 43.8512 87.4348 43.6224C87.7423 43.3937 88.005 43.2158 88.0186 43.227C88.0661 43.2665 87.0902 45.6237 86.9553 45.7952C86.81 45.9798 85.8565 46.631 85.8058 46.5803C85.7609 46.5354 86.6467 44.3184 86.7696 44.168ZM83.7662 47.9617C83.7466 47.9422 83.8886 47.5187 84.0818 47.0206L84.1496 46.8456C84.5116 45.9111 84.6292 45.6074 84.8382 45.3927C84.9388 45.2894 85.0605 45.2067 85.2408 45.0842L85.3107 45.0365C85.6286 44.8196 85.909 44.6405 85.9339 44.6384C85.9588 44.6363 85.8954 44.8198 85.793 45.0459C85.6906 45.2721 85.4537 45.8446 85.2667 46.3182L84.9266 47.1794L84.3642 47.5883C84.0549 47.8133 83.7857 47.9813 83.7662 47.9617ZM88.5629 45.4546C88.7439 45.3474 89.0008 45.1936 89.1338 45.1127C89.3622 44.9739 89.4447 44.966 90.6256 44.9694C91.3131 44.9713 91.9307 44.9946 91.998 45.021C92.0979 45.0603 92.0247 45.1319 91.5994 45.4111L91.0785 45.7531H89.6881C88.9235 45.7531 88.2834 45.7298 88.2658 45.7013C88.2482 45.6728 88.3819 45.5618 88.5629 45.4546ZM86.119 47.1168C86.119 47.0664 87.1132 46.4032 87.3032 46.3268C87.4233 46.2785 89.8582 46.348 90.0097 46.404C90.0863 46.4323 89.9436 46.5487 89.5174 46.8058L88.9172 47.1676H87.5181C86.7486 47.1676 86.119 47.1447 86.119 47.1168ZM64.3394 51.0582C65.6686 49.6645 67.697 48.667 69.5041 48.5183C71.7957 48.3296 73.5799 48.7495 75.2965 49.8814C76.1723 50.459 77.6575 51.9526 77.4951 52.0924L73.7649 54.5286L73.6618 54.6112L73.6537 54.6012L73.3001 54.8321C73.2782 54.8321 73.2677 54.5599 73.2738 54.1979C73.2391 54.1663 73.2037 54.1353 73.1678 54.105L73.2792 53.9728C73.3117 52.7639 73.1742 52.598 72.5379 53.4677L72.4541 53.6355L72.4272 53.6222C72.3499 53.7321 72.2661 53.8549 72.1755 53.9905L70.6793 56.2557C70.2526 56.8729 70.1461 57.2254 70.3614 57.308C70.4593 57.3456 71.1855 57.2295 72.0945 57.0312L74.1007 56.5631C74.225 56.5345 74.3355 56.5084 74.4337 56.4844C74.4314 56.4618 74.4288 56.4393 74.426 56.4168L74.7785 56.3729L74.7809 56.3924C75.1283 56.289 75.1978 56.2142 75.1978 56.0754C75.1978 55.9425 74.9585 55.8036 74.4267 55.6317L74.2574 55.6901C74.2429 55.6481 74.2276 55.6064 74.2116 55.5651L74.162 55.5504C73.8636 55.4629 73.6194 55.3737 73.6192 55.3521L73.9967 55.1083L73.9939 55.1032L74.0749 55.0577L77.8545 52.6161C77.9916 52.6687 78.4035 53.5168 78.6465 54.2473C79.0188 55.3659 79.0993 55.945 79.062 57.2335C79.0193 58.7025 78.8166 59.5344 78.1964 60.7861C77.3517 62.4909 75.8882 63.9413 74.2432 64.7038C73.1575 65.2071 71.6374 65.5559 70.5297 65.5559C69.8847 65.5559 68.7892 65.376 67.945 65.1314C65.3084 64.3673 63.1242 62.137 62.337 59.4053C61.4759 56.4169 62.2312 53.2683 64.3394 51.0582ZM42.8621 60.2927H25.2633V53.9111H60.4698L60.426 54.0489C60.3008 54.4435 60.1244 55.4902 60.0546 56.2529C59.9543 57.3504 60.0533 58.7305 60.2951 59.6019C60.3854 59.9276 60.4597 60.2162 60.4601 60.2434C60.4605 60.2705 52.5414 60.2927 42.8621 60.2927Z" fill="white"/>
<path fill-rule="evenodd" clip-rule="evenodd" d="M73.6618 54.6112L73.7649 54.5286L73.939 54.389C73.7767 54.1866 73.595 54.0004 73.3967 53.8334L73.2792 53.9728L73.1678 54.105C73.2037 54.1353 73.2391 54.1663 73.2738 54.1979C73.4104 54.3224 73.5375 54.4572 73.6537 54.6012L73.6618 54.6112ZM72.5379 53.4677L72.6129 53.3176C72.0796 53.0512 71.4781 52.9014 70.8421 52.9014C68.6511 52.9014 66.875 54.6776 66.875 56.8685C66.875 59.0595 68.6511 60.8357 70.8421 60.8357C73.0331 60.8357 74.8092 59.0595 74.8092 56.8685C74.8092 56.7075 74.7996 56.5485 74.7809 56.3924L74.7785 56.3729L74.426 56.4168C74.4288 56.4393 74.4314 56.4618 74.4337 56.4844C74.4471 56.6106 74.4539 56.7387 74.4539 56.8685C74.4539 58.8633 72.8369 60.4804 70.8421 60.4804C68.8473 60.4804 67.2302 58.8633 67.2302 56.8685C67.2302 54.8738 68.8473 53.2567 70.8421 53.2567C71.4111 53.2567 71.9489 53.3882 72.4272 53.6222L72.4541 53.6355L72.5379 53.4677ZM74.4267 55.6317L74.5932 55.5743C74.5156 55.3494 74.4184 55.1338 74.3037 54.9293L74.0749 55.0577L73.9939 55.1032L73.9967 55.1083C74.0786 55.2546 74.1505 55.4072 74.2116 55.5651C74.2276 55.6064 74.2429 55.6481 74.2574 55.6901L74.4267 55.6317Z" fill="white"/>
<g opacity="0.72">
<path d="M22.0186 32.6795C21.6686 33.0055 21.5129 33.3295 21.5149 33.7278C21.5178 34.296 21.9774 34.9088 22.4697 35.0012C23.4674 35.1884 24.1949 34.5842 24.1334 33.6193C24.1022 33.1294 23.9287 32.8291 23.526 32.568C23.3057 32.4251 23.1876 32.3977 22.7924 32.3977C22.3285 32.3977 22.3166 32.402 22.0186 32.6795Z" fill="white"/>
<path fill-rule="evenodd" clip-rule="evenodd" d="M25.4251 32.5203C24.6122 33.0161 24.5038 34.1384 25.2113 34.7349C25.663 35.1158 26.0805 35.184 26.5793 34.9582C26.9902 34.7722 27.2155 34.5363 27.3398 34.1624C27.5369 33.5686 27.2819 32.8741 26.7527 32.5639C26.3907 32.3518 25.7367 32.3303 25.4251 32.5203ZM25.8882 34.4744C25.1528 34.3364 25.1277 33.1571 25.8567 32.994C26.114 32.9364 26.4369 32.9739 26.5672 33.0765C26.7127 33.1911 26.8425 33.4979 26.8422 33.7267C26.8417 34.2143 26.3897 34.5684 25.8882 34.4744Z" fill="white"/>
<path fill-rule="evenodd" clip-rule="evenodd" d="M28.6083 32.5876C28.2156 32.8366 28.0267 33.2166 28.0267 33.7573C28.0267 34.0913 28.0571 34.1963 28.2182 34.4187C28.5199 34.8351 28.7823 34.988 29.2464 35.0176C29.8606 35.0567 30.3267 34.7746 30.5564 34.2246C30.765 33.7255 30.6244 33.0898 30.2225 32.7144C29.9675 32.4763 29.735 32.3977 29.2853 32.3977C28.9821 32.3977 28.8487 32.4351 28.6083 32.5876ZM29.0818 34.4378C28.3971 34.2535 28.3623 33.1972 29.0341 32.9937C29.3814 32.8884 29.7467 32.9664 29.951 33.1893C30.1008 33.3526 30.132 33.4466 30.132 33.7351C30.132 34.0303 30.1043 34.1096 29.951 34.2535C29.7217 34.4688 29.428 34.5311 29.0818 34.4378Z" fill="white"/>
<path d="M31.3556 29.1743C22.5736 29.1746 20.69 29.1975 20.7552 29.3027C20.7699 29.3266 20.6579 29.3794 20.5063 29.42C20.1692 29.5103 19.7693 29.7731 19.3496 30.1803C18.7515 30.7605 18.5454 31.1616 18.4221 31.9851C18.3623 32.3843 18.3113 43.7028 18.2944 60.302L18.3046 64.8837V65.49C18.3709 65.49 18.2903 65.9799 18.3046 67.8091C18.3145 69.0847 18.3159 70.1933 18.3046 70.2728V71.0212C18.3317 71.0186 18.3046 71.4538 18.3046 71.9885C18.3046 73.4599 18.4215 74.3193 18.7439 74.9513C18.9959 75.4453 19.6369 76.058 20.1853 76.3292L20.6837 76.5757L22.217 76.5974L29.8831 76.6126L54.5102 76.6101C78.454 76.6076 79.1483 76.604 79.5359 76.4834C80.5863 76.1565 81.517 75.1431 81.7103 74.116C81.75 73.9052 81.7771 72.3788 81.7771 70.3496V40.6576C81.7771 34.6942 81.7553 32.0365 81.7044 31.7924C81.4561 30.6018 80.5754 29.6948 79.3099 29.3264C78.9447 29.22 78.1906 29.2088 69.232 29.1763L59.3815 29.1758L59.6782 29.7918L69.3921 29.7839L70.3447 29.7864C78.5913 29.8085 79.2134 29.8101 79.6963 30.0703C79.7356 30.0915 79.7741 30.1144 79.8157 30.1392L79.8165 30.1398C79.8352 30.1509 79.8546 30.1625 79.8749 30.1744C80.4678 30.5218 80.9764 31.2013 81.1186 31.8359C81.1569 32.0068 81.1988 33.321 81.214 34.8282L81.2411 37.5158L80.1768 37.5592C79.5915 37.5831 75.5026 37.5935 71.0903 37.5824L62.8408 37.5844L62.9089 38.1348L72.2211 38.1376L81.2178 38.1543L81.2051 69.598C81.2521 73.1379 81.2076 74.0212 80.9558 74.5381C80.6143 75.2396 79.9036 75.8353 79.272 75.9497C79.0528 75.9894 75.3978 76.0211 69.7953 76.0318L60.6753 76.0493L30.2396 76.0164C29.558 76.014 28.9248 76.012 28.3364 76.01L28.3202 76.01C21.2309 75.9866 20.6607 75.9847 20.2633 75.7217C20.2384 75.7053 20.2142 75.6878 20.1891 75.6692L20.1594 75.6471L20.1588 75.6466L20.1581 75.6461C20.1235 75.6203 20.0863 75.5924 20.0427 75.5624C19.4762 75.1727 19.1543 74.609 18.9833 73.7073C18.8935 73.2344 18.8819 71.1573 18.8819 55.6472V38.1214L37.3666 38.127L37.5002 37.5906L18.8706 37.5951L18.8996 34.8813C18.9316 31.8863 18.9549 31.6858 19.3403 31.0852C19.7935 30.3789 20.4969 29.9357 21.3174 29.8393C21.7471 29.7889 40.2636 29.758 40.2636 29.8077L40.5486 29.8075L40.9006 29.1748L31.3556 29.1743Z" fill="white"/>
</g>
<g opacity="0.56">
<path d="M36.0529 16.8882C38.7856 15.558 40.4624 14.758 40.7014 14.6704C40.8405 14.6194 40.9759 14.5756 41.0023 14.573C41.0845 14.5651 41.1414 14.9123 41.0753 15.0173C41.0222 15.1015 34.7803 18.1605 33.8097 18.5781C33.6322 18.6544 33.4871 18.7474 33.4871 18.7847C33.4871 18.8456 35.7153 19.9621 39.8193 21.9578L41.2503 22.6536V22.8874C41.2503 23.1561 41.1676 23.1796 40.7487 23.0301C40.2199 22.8414 32.7884 19.1185 32.6153 18.9556C32.5158 18.8619 32.4344 18.7537 32.4344 18.7152C32.4344 18.6767 32.9747 18.3832 33.6351 18.0629C34.2955 17.7427 35.3834 17.214 36.0529 16.8882Z" fill="white"/>
<path d="M62.5333 16.7079C58.7657 14.9801 58.8926 15.051 59.0105 14.7409L59.0761 14.5684L59.501 14.7282C59.9155 14.8843 61.0557 15.3997 64.6057 17.0358C65.5646 17.4778 66.6418 17.9694 66.9994 18.1283C67.728 18.4519 67.8849 18.6221 67.6603 18.8445C67.5905 18.9137 66.9264 19.2785 66.1847 19.6552C65.4429 20.032 63.6517 20.9532 62.2044 21.7024C60.757 22.4516 59.4949 23.0803 59.3998 23.0995C59.1901 23.1418 59.1333 23.0653 59.1844 22.8097C59.2145 22.6591 59.2982 22.5778 59.5624 22.4427C61.0251 21.6944 62.0261 21.1555 62.0006 21.1301C61.984 21.1134 62.1038 21.0624 62.2671 21.0167C62.4303 20.971 62.5501 20.9114 62.5333 20.8843C62.5165 20.8571 62.635 20.7979 62.7965 20.7527C62.958 20.7075 63.0741 20.6445 63.0546 20.6129C63.035 20.5812 63.0577 20.5553 63.1051 20.5553C63.1853 20.5554 64.0057 20.1678 64.08 20.0948C64.1343 20.0414 66.5348 18.8544 66.6733 18.8125C66.9456 18.7301 66.9694 18.7422 62.5333 16.7079Z" fill="white"/>
<path d="M7.89476 38.8089C7.89476 37.9679 7.90699 37.8645 8.00989 37.8376C8.07325 37.8211 8.1916 37.8041 8.27305 37.7999C8.42029 37.7923 8.42108 37.7977 8.42009 38.7627C8.4195 39.2964 8.39266 39.7748 8.36035 39.8258C8.31134 39.9032 8.26805 39.9047 8.09818 39.8343L7.89476 39.75V38.8089Z" fill="white"/>
<path d="M5.83948 39.0117C5.80724 38.9541 5.81362 38.8569 5.85481 38.78C5.98803 38.531 6.1954 38.6235 6.77778 39.1915C7.08455 39.4907 7.37739 39.816 7.42857 39.9145C7.51153 40.0743 7.50883 40.1077 7.4041 40.2234C7.29916 40.3394 7.26831 40.3437 7.11377 40.2636C6.93784 40.1724 5.94086 39.1929 5.83948 39.0117Z" fill="white"/>
<path d="M9.00885 40.2242C8.7593 40.0907 8.86207 39.892 9.50734 39.2602C10.0147 38.7634 10.1702 38.6476 10.3297 38.6476C10.5014 38.6476 10.5264 38.671 10.5264 38.8326C10.5264 38.9799 10.3939 39.1478 9.87767 39.655C9.52089 40.0055 9.20812 40.2923 9.18253 40.2923C9.157 40.2923 9.07885 40.2616 9.00885 40.2242Z" fill="white"/>
<path d="M5 41.0599C5 40.9392 5.01974 40.8208 5.04388 40.7967C5.06796 40.7726 5.54073 40.7528 6.09442 40.7528C6.86949 40.7528 7.09534 40.7718 7.0758 40.8351C7.06186 40.8803 7.03265 40.9987 7.0108 41.0982L6.9712 41.2792H5V41.0599Z" fill="white"/>
<path d="M9.37503 41.2463L9.33418 40.7528H11.3158V41.2826L9.37503 41.2463Z" fill="white"/>
<path d="M6.23001 42.5267C6.47619 42.2648 6.7931 41.9657 6.93422 41.8622C7.22896 41.6459 7.23686 41.6442 7.39719 41.7614C7.51074 41.8444 7.5112 41.8607 7.40587 42.0827C7.34482 42.2113 7.06094 42.5442 6.77495 42.8225C6.22093 43.3617 6.05777 43.4201 5.87566 43.1444C5.78816 43.0119 5.8102 42.9734 6.23001 42.5267Z" fill="white"/>
<path d="M9.68221 42.8924C9.15523 42.3952 8.85016 41.9824 8.9047 41.8401C8.92654 41.7832 9.02259 41.7398 9.12628 41.74C9.26858 41.7403 9.44444 41.8743 9.9178 42.3432C10.5169 42.9367 10.6037 43.0834 10.4474 43.2397C10.2962 43.3909 10.1312 43.3159 9.68221 42.8924Z" fill="white"/>
<path d="M7.95259 44.0956C7.91877 43.7276 7.98739 42.2163 8.04088 42.1509C8.13042 42.0415 8.25838 42.0469 8.3766 42.1651C8.50318 42.2917 8.56555 43.0218 8.50318 43.6476L8.45397 44.141L8.20726 44.1614C8.04009 44.1753 7.95798 44.154 7.95259 44.0956Z" fill="white"/>
<path d="M68.5234 86.5767C68.4974 86.0182 68.4963 85.5288 68.5207 85.4892C68.5453 85.4495 68.6736 85.4261 68.8059 85.437L69.0465 85.4571L69.1123 87.6282L71.2975 87.6642L71.2652 87.8436C71.2105 88.1465 71.1357 88.1874 70.6339 88.1878C70.3759 88.188 69.9207 88.2072 69.6222 88.2304L69.0794 88.2727V89.2756C69.0794 90.3583 69.0793 90.3585 68.7122 90.3585H68.5531V88.2731L67.9116 88.2306C67.5589 88.2072 67.0926 88.1875 66.8755 88.1867C66.3812 88.185 66.3006 88.1357 66.3278 87.8515L66.3491 87.6282L68.5706 87.592L68.5234 86.5767Z" fill="white"/>
<path d="M18.2896 64.8835L18.1086 64.9281C17.8301 64.997 17.3239 65.3452 17.1151 65.6117C16.8428 65.9593 16.7878 66.0849 16.6762 66.6155C16.563 67.1537 16.511 67.2378 16.2154 67.3614C15.8167 67.528 15.5907 67.5502 15.4721 67.4345C15.1911 67.1605 14.7261 66.9282 14.3314 66.8646C13.4612 66.7245 12.8624 66.9751 11.982 67.8479C11.1116 68.7109 10.9065 69.1096 10.9065 69.939C10.9065 70.4768 10.9735 70.688 11.2966 71.1681C11.5486 71.5425 11.5733 71.8314 11.3883 72.2388C11.2675 72.5046 11.2608 72.5085 10.7171 72.6175C9.79964 72.8015 9.227 73.2984 8.98207 74.1229C8.84095 74.598 8.78944 75.5839 8.87648 76.1442C9.05621 77.3011 9.61174 77.8995 10.7498 78.1619C11.2531 78.278 11.273 78.29 11.3898 78.547C11.5799 78.9655 11.5491 79.2196 11.2558 79.6513C10.8095 80.3084 10.7629 81.105 11.1286 81.8279C11.2791 82.1254 12.4439 83.3493 12.8241 83.6096C13.4167 84.0151 14.4539 83.9672 15.182 83.5005C15.6283 83.2145 15.7763 83.2017 16.2664 83.4064C16.4649 83.4894 16.5179 83.5547 16.5787 83.7909C16.8554 84.8663 17.0273 85.1562 17.6344 85.5707C17.9163 85.7633 18.0996 85.8322 18.4869 85.8915C19.0973 85.985 20.3937 85.9308 20.7667 85.7963C21.5205 85.5244 22.0206 84.9254 22.1641 84.1226C22.2532 83.6241 22.332 83.5141 22.7142 83.3543C23.0745 83.2038 23.2073 83.2269 23.654 83.518C24.8557 84.3009 26.2034 83.8679 27.3656 82.3255C28.1152 81.3307 28.1519 80.5817 27.5036 79.5088C27.2109 79.0244 27.2102 78.9901 27.4831 78.4687C27.5777 78.2878 27.6477 78.246 27.9583 78.1848C28.9687 77.9854 29.4866 77.6024 29.7981 76.8242L29.8829 76.6124H29.2127C29.3307 76.6433 29.3248 76.7099 29.1306 76.9803C28.847 77.3752 28.5925 77.517 27.9715 77.6262C27.6823 77.677 27.3902 77.7532 27.3226 77.7955C27.1606 77.8967 26.9198 78.2691 26.8038 78.598C26.6404 79.0609 26.6809 79.2994 27.0069 79.7958C27.5055 80.555 27.5425 81.0029 27.1615 81.6699C26.8868 82.1508 26.0996 82.9307 25.6682 83.1493C25.3662 83.3023 25.2474 83.3251 24.8172 83.3126C24.3491 83.2989 24.2961 83.2819 23.9843 83.0451C23.8013 82.906 23.5251 82.7437 23.3707 82.6844C23.0964 82.579 23.0805 82.5805 22.6799 82.7508C21.9293 83.07 21.8735 83.1222 21.7466 83.625C21.5524 84.3936 21.4372 84.6485 21.158 84.9273C20.7966 85.2882 20.528 85.3553 19.4029 85.3658C18.6492 85.3729 18.3999 85.352 18.1909 85.2645C17.7071 85.062 17.3109 84.5695 17.208 84.0426C17.1832 83.916 17.1176 83.6608 17.0621 83.4755C16.9648 83.1509 16.9438 83.13 16.4905 82.9068C15.7297 82.5323 15.6367 82.5343 15.062 82.9372L14.5724 83.2805L13.9457 83.2832C13.3505 83.2859 13.3055 83.2761 13.0499 83.0882C12.6422 82.7885 11.6627 81.7129 11.5484 81.4393C11.3506 80.966 11.4465 80.3352 11.7806 79.9105C11.9652 79.6758 12.1053 79.3314 12.1053 79.1123C12.1053 78.8175 11.9206 78.2904 11.7207 78.0144C11.5488 77.777 11.4876 77.7444 11.0296 77.645C9.75398 77.3682 9.40793 76.8889 9.40793 75.3992C9.40793 74.4983 9.49069 74.1182 9.76536 73.7581C10.0206 73.4235 10.2164 73.3168 10.8852 73.1479C11.3951 73.019 11.5097 72.9638 11.6858 72.7621C11.8819 72.5375 12.1053 71.9311 12.1053 71.6235C12.1053 71.4455 11.9942 71.1873 11.7732 70.8517C11.4213 70.3175 11.352 69.7526 11.5774 69.2559C11.7131 68.957 12.8832 67.7038 13.158 67.5632C13.4186 67.4297 13.9509 67.3833 14.3094 67.4628C14.4907 67.503 14.8026 67.6505 15.0044 67.7914C15.2058 67.932 15.4451 68.0658 15.5363 68.0886C15.7485 68.1419 16.4747 67.9013 16.764 67.6817C17.0118 67.4938 17.0869 67.332 17.1865 66.7728C17.2694 66.307 17.4842 65.956 17.8517 65.6858C17.9983 65.578 18.2433 65.4899 18.2896 65.4899V64.8835Z" fill="white"/>
<path d="M24.3625 76.602L24.151 77.1933C23.8705 77.9775 23.5594 78.4397 22.8808 79.0805C22.3893 79.5447 22.2227 79.655 21.5651 79.9523C20.2804 80.5329 19.0323 80.611 17.7759 80.1892C16.1792 79.6532 15.2111 78.6915 14.6467 77.0805L14.3776 76.3123L14.3797 75.3255C14.3817 74.4229 14.3969 74.2972 14.558 73.8541C14.6549 73.5877 14.8532 73.1632 14.9987 72.9108C15.1442 72.6585 15.2632 72.427 15.2632 72.3965C15.2632 72.3659 15.3224 72.3221 15.3948 72.2991C15.4672 72.2762 15.5264 72.214 15.5264 72.161C15.5264 72.1081 15.5706 72.0477 15.6247 72.027C15.6788 72.0062 15.7075 71.9642 15.6886 71.9335C15.6696 71.9028 15.7364 71.8331 15.8369 71.7786C15.94 71.7227 15.9768 71.6771 15.9211 71.6741C15.8669 71.6712 15.9113 71.6217 16.0198 71.5641C16.1284 71.5065 16.2676 71.4115 16.3292 71.3529C16.3907 71.2944 16.4913 71.2042 16.5527 71.1526C16.7265 71.0063 17.5359 70.6338 17.9275 70.52C18.2025 70.4401 18.2859 70.385 18.3019 70.2726V71.021C18.2747 71.0236 18.0429 71.0786 17.8619 71.1431C17.1677 71.3905 16.8113 71.6251 16.2313 72.2161C15.3142 73.1506 14.9087 74.1247 14.9094 75.3912C14.9097 75.9793 14.9364 76.1277 15.1604 76.7896C15.6351 78.192 16.4084 79.0412 17.6646 79.5392C18.7871 79.9843 20.1671 79.9981 21.0664 79.5731C21.3011 79.4623 21.5643 79.3694 21.6512 79.3669C21.7969 79.3627 21.799 79.3582 21.6778 79.3098C21.5659 79.2652 21.5878 79.2447 21.8236 79.173C21.9762 79.1267 22.085 79.0629 22.0654 79.0311C22.0458 78.9994 22.1189 78.9423 22.228 78.9042C22.3695 78.855 22.4149 78.8052 22.3862 78.7307C22.3635 78.6715 22.3738 78.6433 22.4099 78.6656C22.5 78.7213 22.5626 78.6673 22.9445 78.2042C23.2661 77.8143 23.7501 76.8068 23.7501 76.602H24.3625Z" fill="white"/>
</g>
<path d="M39.3841 75.7968L39.5904 76.0493L40.3471 76.0164L40.0553 75.7039C39.6557 75.276 39.2254 74.628 39.0434 74.18C38.9599 73.9747 38.8282 73.4823 38.7505 73.0859C38.635 72.4966 38.6172 72.2419 38.6531 71.6907C38.7051 70.8928 38.7647 70.9278 37.7752 71.1763C36.7833 71.4254 36.1277 71.4975 35.2075 71.459C33.0625 71.3693 31.2482 70.3949 29.9268 68.6227C28.4166 66.5973 28.1377 63.8013 29.2147 61.4832L29.493 60.8844L28.8708 60.8865L28.6503 61.3955C27.7484 63.4777 27.7647 65.5737 28.6989 67.6599C29.322 69.0513 30.7739 70.5761 32.1222 71.2551C33.0474 71.721 34.4386 72.069 35.3762 72.069C36.1783 72.069 37.4402 71.8888 37.9032 71.7081C37.9943 71.6726 38.0172 71.7428 38.0571 72.1802C38.2116 73.8748 38.5363 74.7596 39.3841 75.7968Z" fill="#5EFF9E"/>
<path d="M59.7929 76.0164L59.9971 75.8445C60.2635 75.6204 60.7189 75.0247 60.9722 74.569C61.3576 73.8757 61.4585 73.4056 61.4964 72.128L61.5307 70.9701L62.1635 71.1259C64.0109 71.581 65.4606 71.5976 66.7449 71.1783C67.3471 70.9818 68.4938 70.4224 68.4477 70.3477C68.429 70.3175 68.4582 70.2926 68.5128 70.2926C68.6033 70.2926 69.1556 69.867 69.5535 69.4909C69.861 69.2001 70.5345 68.2997 70.7195 67.9321L70.9055 67.5624L71.7377 67.4836C71.7963 67.4679 71.8639 67.4637 71.9485 67.4637L71.7377 67.4836C71.5661 67.5296 71.4726 67.6739 71.2608 68.0972C70.8359 68.9467 69.8071 70.11 68.9648 70.6934C67.3633 71.8026 65.4403 72.2518 63.4737 71.9759C63.0502 71.9165 62.5802 71.8243 62.4293 71.7711C62.2783 71.7178 62.1437 71.6742 62.1302 71.6742C62.1166 71.6742 62.1056 71.8059 62.1056 71.9669C62.1056 72.4777 61.9145 73.7406 61.7766 74.1416C61.6202 74.596 61.343 75.1062 60.9546 75.6545L60.675 76.0493L59.7929 76.0164Z" fill="#5EFF9E"/>
<path d="M68.5232 86.5768C68.4973 86.0183 68.4961 85.5289 68.5206 85.4893C68.5452 85.4496 68.6734 85.4262 68.8058 85.4372L69.0464 85.4572L69.0793 86.5428L69.1122 87.6283L70.2048 87.6463L71.2973 87.6643L71.265 87.8437C71.2104 88.1467 71.1356 88.1875 70.6338 88.1879C70.3758 88.1881 69.9206 88.2073 69.6221 88.2305L69.0793 88.2728V89.2757C69.0793 90.3584 69.0792 90.3586 68.7121 90.3586H68.553V89.3159V88.2732L67.9115 88.2307C67.5588 88.2073 67.0924 88.1876 66.8753 88.1869C66.3811 88.1851 66.3005 88.1359 66.3277 87.8517L66.349 87.6283L67.4598 87.6102L68.5705 87.5921L68.5232 86.5768Z" fill="#5EFF9E"/>
<path fill-rule="evenodd" clip-rule="evenodd" d="M49.9388 9.66582C50.0098 9.64325 50.0509 9.59733 50.0302 9.56378C49.9554 9.44272 50.112 9.50608 50.2496 9.65253C50.5672 9.99062 51.6656 11.8881 52.2765 13.1541C53.6475 15.9953 54.828 19.8249 55.3285 23.0555C55.3429 23.148 55.3563 23.2352 55.369 23.3175C55.5139 24.2574 55.5603 24.5588 55.7155 24.786C55.7887 24.8932 55.8862 24.9839 56.0296 25.1174C56.0562 25.1421 56.0844 25.1683 56.1143 25.1964C56.3881 25.4535 56.7545 25.793 56.9287 25.9507C57.4645 26.4363 58.5102 27.6567 59.0423 28.4173C59.5631 29.162 60.0422 29.9036 60.491 30.6952C61.4126 32.3213 62.2795 34.5244 62.8255 36.6283L63.0679 37.5621C63.1748 37.9452 63.2334 38.3366 63.292 38.7286C63.323 38.9361 63.3541 39.1438 63.3924 39.3505C63.5895 40.4146 63.6055 40.7286 63.4698 40.8643C63.3268 41.0072 63.1503 40.892 62.8174 40.4385C62.6655 40.2315 62.2045 39.6254 61.7928 39.0918L61.0443 38.1214H58.3512C56.5943 38.1214 55.6582 38.1443 55.6582 38.1873C55.6582 38.2935 55.4023 40.5177 55.2912 41.3768C55.2351 41.8104 55.1427 42.2634 55.0857 42.3834C54.973 42.621 54.6569 42.8132 54.2606 42.8851C53.9753 42.9369 53.9724 42.9449 53.9202 43.8211C53.8797 44.5001 53.813 44.7245 53.5786 44.9702L53.4153 45.1414L53.8953 45.4973C54.4685 45.9223 54.9672 46.5541 55.3431 47.3319C55.4918 47.6395 55.622 47.9021 55.6326 47.9154C55.6433 47.9289 55.8393 47.8214 56.0683 47.6768C57.133 47.0044 58.0013 46.6908 59.3259 46.5002C59.981 46.406 60.1898 46.4015 60.7733 46.4694C62.1673 46.6314 63.2358 47.0112 64.3603 47.7442L64.9059 48.0998L64.3955 48.4826C64.4512 48.4336 63.3762 47.786 62.9328 47.6014C61.8342 47.144 60.3769 46.9212 59.3886 47.0594C58.1046 47.2391 57.1538 47.6027 56.1755 48.2882C55.8442 48.5203 55.5957 48.6477 55.4742 48.6477C55.2991 48.6477 55.2718 48.6102 55.0797 48.105C54.698 47.1014 53.996 46.2191 53.1252 45.6486L52.7963 45.4331L50.2073 45.4121L47.6182 45.3911L47.2587 45.5841C46.806 45.827 46.0701 46.5411 45.7299 47.0674C45.5866 47.2891 45.3583 47.7383 45.2226 48.0658C45.0869 48.3933 44.9396 48.6751 44.8953 48.6922C44.7927 48.7315 44.5228 48.5916 43.9997 48.2279C43.1719 47.6525 42.3858 47.3425 41.2222 47.1327C40.8269 47.0614 40.3214 47.003 40.0988 47.003C39.5772 47.003 38.3856 47.2184 37.7962 47.4193C36.8452 47.7433 36.1387 48.1755 35.3868 48.8934C34.2247 50.0028 33.6976 50.9455 33.3203 52.5892C33.2338 52.9658 33.1785 53.2988 33.1973 53.3293L32.6117 53.3037L32.6904 52.8672C33.023 51.0213 33.6978 49.7376 34.9954 48.4824C36.1459 47.3696 37.5609 46.7306 39.382 46.5013C40.2643 46.3902 40.3346 46.3902 41.0237 46.5024C42.2654 46.7045 43.5767 47.2025 44.3477 47.7649L44.6491 47.9848L44.8026 47.6144C44.8871 47.4107 45.0845 47.0526 45.2413 46.8187C45.3981 46.5848 45.5265 46.3839 45.5265 46.3722C45.5265 46.3352 46.567 45.3462 46.7147 45.2428L46.8557 45.144L46.6805 44.9815C46.4334 44.7525 46.3807 44.572 46.3109 43.7172C46.2468 42.9309 46.2151 42.8613 45.9212 42.859C45.7141 42.8574 45.3676 42.6492 45.2348 42.4465C45.0879 42.2222 44.9141 41.0902 44.629 38.4996L44.5873 38.1214H41.9232H39.2591L39.0407 38.3529C38.9206 38.4802 38.4497 39.0777 37.9943 39.6807C37.5389 40.2836 37.1053 40.8196 37.0307 40.8718C36.9092 40.957 36.881 40.9525 36.757 40.8286L36.6189 40.6905L36.7958 39.6855C36.8931 39.1328 36.9916 38.5547 37.0146 38.401L37.0564 38.1214L37.2267 37.509L37.4395 36.6475C37.9224 34.693 38.9019 32.1969 39.799 30.6352C40.0544 30.1905 40.2633 29.8181 40.2633 29.8077L40.7041 29.1739L41.0762 28.6147C41.7072 27.6669 42.5995 26.7068 43.4031 25.9144L44.6678 24.6673L44.8012 23.8449C45.1623 21.6185 45.4706 20.1992 45.9873 18.3844C46.7681 15.6425 48.0132 12.729 49.2688 10.706C49.5205 10.3004 49.7452 9.90964 49.768 9.83766C49.7909 9.76569 49.8677 9.68838 49.9388 9.66582ZM46.7857 17.6436C46.5669 18.0524 45.8113 21.2456 45.5224 22.9822C44.7418 27.6752 44.6143 31.9698 45.0995 37.2332C45.4121 40.6247 45.628 42.0974 45.8347 42.2497C45.9978 42.3697 54.1699 42.3672 54.4081 42.247C54.632 42.1341 54.6896 41.8675 54.8967 39.9856C55.329 36.0572 55.426 34.1241 55.3746 30.4568C55.3115 25.9549 54.8481 22.5226 53.7999 18.7956L53.4623 17.5949H50.2563C48.4931 17.5949 47.0059 17.5778 46.9514 17.5569C46.8931 17.5345 46.825 17.5701 46.7857 17.6436ZM47.1702 25.6028C47.3603 24.5363 48.4241 23.5818 49.6717 23.3585C50.1913 23.2656 50.2174 23.2662 50.7897 23.3882C52.0094 23.6479 52.9052 24.5791 53.2027 25.8965C53.2977 26.3174 53.2981 26.408 53.2057 26.8768C53.0679 27.576 52.8377 28.0506 52.4242 28.4878C50.9017 30.0975 48.3835 29.7552 47.4178 27.8073C47.1621 27.2915 47.1363 27.1927 47.1145 26.6462C47.1014 26.3177 47.1265 25.8482 47.1702 25.6028ZM48.0219 14.3491C48.4925 13.2485 49.0525 12.1555 49.726 11.0229C49.9899 10.5792 50.109 10.4308 50.1484 10.4966C50.1786 10.547 50.3884 10.887 50.6145 11.2522C51.2498 12.2784 52.2588 14.3518 52.7232 15.5859C52.9542 16.1997 53.1314 16.7326 53.117 16.7701C53.0814 16.8629 47.1051 16.8653 47.1062 16.7725C47.1078 16.6315 47.5778 15.3875 48.0219 14.3491ZM55.7253 25.8283C55.726 25.9134 55.7544 26.1755 55.7884 26.4107C55.9563 27.5722 56.0638 29.8009 56.0423 31.6739L56.02 33.6147L56.3818 33.804C57.9171 34.607 58.6895 35.0843 59.1344 35.5047C59.2669 35.6299 59.5564 35.8688 59.7777 36.0358C59.999 36.2027 60.3247 36.5073 60.5014 36.7126C60.6781 36.9179 61.0007 37.2671 61.2183 37.4885C61.4358 37.7099 61.8479 38.1945 62.1342 38.5654C62.4204 38.9364 62.6785 39.2398 62.7078 39.2398C62.787 39.2398 62.7104 38.7345 62.4585 37.595C61.765 34.4582 60.6589 31.8082 59.0534 29.4373C58.1812 28.1494 57.1303 26.9204 56.1835 26.0809C55.7737 25.7176 55.7241 25.6903 55.7253 25.8283ZM55.7435 37.3154C55.7618 37.1617 55.8143 36.4081 55.8602 35.6409L55.9436 34.2461L56.7198 34.6418C57.6427 35.1123 59.2495 36.3134 59.9114 37.0277L60.3458 37.4964L59.6302 37.5373C59.2367 37.5598 58.1937 37.5821 57.3124 37.5867L55.7101 37.595L55.7435 37.3154ZM43.9665 26.1448C43.5197 26.5331 42.5256 27.6167 42.093 28.1871C39.8805 31.1035 38.52 34.1607 37.6722 38.1214C37.4928 38.9597 37.417 39.4372 37.4632 39.4372C37.4966 39.4372 38.3555 38.316 38.6186 37.9293C38.8402 37.6033 40.8401 35.6871 40.9586 35.6871C41.0104 35.6871 41.0528 35.656 41.0528 35.6179C41.0528 35.5798 41.1475 35.5157 41.2632 35.4754C41.4471 35.4113 41.4575 35.396 41.3455 35.3547C41.2311 35.3126 41.2369 35.3023 41.3982 35.2599C41.4977 35.2338 41.5791 35.1859 41.5791 35.1535C41.5791 35.1211 41.6975 35.0433 41.8423 34.9806C41.987 34.9179 42.1054 34.8349 42.1054 34.7962C42.1054 34.7574 42.4977 34.5235 42.9771 34.2763C43.4566 34.0291 43.9229 33.774 44.0133 33.7095L44.1778 33.5922L44.1783 31.6955C44.1789 29.7586 44.2761 27.9219 44.445 26.6552C44.5565 25.8194 44.559 25.7528 44.4785 25.7528C44.4449 25.7528 44.2145 25.9292 43.9665 26.1448ZM41.0857 36.2929C42.292 35.3608 42.8092 35.0059 43.4894 34.6434C43.9043 34.4224 44.2658 34.2413 44.2929 34.2407C44.3201 34.2402 44.3423 34.4654 44.3423 34.7411C44.3423 35.0169 44.3882 35.7457 44.4443 36.3607C44.5004 36.9756 44.5302 37.4949 44.5104 37.5146C44.4554 37.5696 40.1708 37.6191 39.9636 37.5671L39.7813 37.5214L40.2361 37.0596C40.4863 36.8056 40.8686 36.4606 41.0857 36.2929Z" fill="#5EFF9E"/>
</svg>
