<svg width="200" height="200" viewBox="0 0 200 200" fill="none" xmlns="http://www.w3.org/2000/svg">
<path fill-rule="evenodd" clip-rule="evenodd" d="M51.1396 150.838C51.1396 150.808 50.8613 150.75 50.5246 150.691C49.9242 150.603 49.9096 150.618 49.6167 151.248C49.441 151.599 49.3092 152.155 49.2946 152.478C49.2946 152.8 49.3824 153.195 49.4996 153.356C49.646 153.551 49.768 153.6 49.8656 153.503C49.9535 153.415 50.2756 152.8 50.5978 152.126C50.9053 151.453 51.1542 150.867 51.1396 150.838ZM94.1018 169.244C94.0871 168.717 94.0432 168.175 93.9846 168.028C93.8968 167.809 93.8235 167.897 93.56 168.468C93.3842 168.848 93.106 169.537 92.9303 169.976C92.7692 170.415 92.6375 170.869 92.6375 170.957C92.6375 171.103 92.7692 171.089 93.1207 170.913C93.3842 170.781 93.7064 170.562 93.8528 170.43C94.0578 170.254 94.1164 169.976 94.1018 169.244Z" fill="#15006A"/>
<path d="M149.379 57.3136C149.496 57.1525 149.92 56.435 150.316 55.7029C150.814 54.8243 151.107 54.0629 151.224 53.4332C151.355 52.6718 151.355 52.3643 151.209 51.8957C151.092 51.5736 150.77 51.0611 150.492 50.7536C150.199 50.4461 149.701 50.0947 149.379 49.9629C148.939 49.8018 148.412 49.7579 147.255 49.8165C146.304 49.8457 145.191 50.0068 144.356 50.2265L143.009 50.5779L144.136 51.3539C144.195 51.2954 144.781 51.1636 145.425 51.0464C146.069 50.9293 146.992 50.8268 147.475 50.8122C147.958 50.8122 148.603 50.8707 148.91 50.9439C149.203 51.0318 149.613 51.2807 149.818 51.5297C150.096 51.8665 150.184 52.13 150.184 52.7011C150.184 53.1111 150.067 53.7407 149.92 54.1361C149.774 54.5168 149.393 55.2636 148.5 56.7865L149.379 57.3136Z" fill="#15006A"/>
<path d="M65.0357 86.4529C64.9918 86.6872 64.7282 87.1851 64.4646 87.5511C64.2011 87.9172 63.5275 88.9715 62.9711 89.894C62.4 90.8165 61.6386 92.1344 61.2725 92.8226C61.0895 93.1667 60.8479 93.617 60.6063 94.0672C60.3646 94.5175 60.123 94.9678 59.94 95.3119C59.5739 96.0001 58.8857 97.4497 58.4025 98.5333C57.9339 99.6169 57.4214 100.905 57.2896 101.389C57.0993 102.018 56.9968 102.209 56.9089 102.048L57.3921 104.303C57.436 103.907 57.8021 102.75 58.1974 101.74C58.5928 100.744 59.3689 98.9579 59.896 97.7865C60.4378 96.6297 61.4189 94.7115 62.0631 93.5401C62.7221 92.3833 63.7178 90.6993 64.2742 89.8061C64.8453 88.9276 65.8703 87.4047 66.5585 86.4383C67.2467 85.4718 68.4914 83.8318 69.3407 82.7776C70.1753 81.7379 71.4932 80.1858 72.2692 79.3511C73.0453 78.5018 74.656 76.8179 75.8714 75.6172C77.0721 74.4165 78.6535 72.9668 79.3857 72.3811C80.1032 71.81 81.421 70.8583 82.3142 70.2725C83.1928 69.6868 84.5839 68.8961 85.3892 68.5008C86.1946 68.12 87.4832 67.5929 88.2446 67.3293C89.006 67.0804 90.3239 66.7583 91.1732 66.6118C92.0225 66.4654 92.901 66.3336 93.15 66.319C93.3842 66.3043 93.8235 66.4508 94.1018 66.6411C94.4678 66.8754 94.6875 67.1975 94.8778 67.71C95.0682 68.2518 95.1121 68.7204 95.0682 69.5258C95.0242 70.1408 94.8632 71.2536 94.6875 72.015C94.5264 72.7911 94.175 74.0358 93.926 74.7972C93.6771 75.5733 93.1646 76.8911 92.7839 77.7258C92.4032 78.575 91.715 79.9222 91.2464 80.7276C90.7778 81.5329 89.9432 82.8215 89.416 83.5829C88.8742 84.359 88.0103 85.5011 87.4978 86.1454C86.9853 86.7897 85.0525 88.869 83.1928 90.7433C81.3478 92.6176 79.1221 94.7847 78.2435 95.5315C77.3796 96.2929 76.6767 96.9811 76.6767 97.0544C76.6767 97.1422 77.0574 98.0794 77.5407 99.1483C78.0092 100.217 78.6975 102.004 79.0635 103.131C79.4296 104.259 79.8982 105.943 80.0885 106.865C80.2935 107.802 80.5864 109.472 80.7182 110.599C80.8939 111.932 80.9817 113.615 80.9671 115.358C80.9671 117.086 80.8792 118.711 80.7182 119.824C80.5864 120.79 80.3082 122.474 80.1032 123.558C79.8982 124.656 79.5028 126.428 79.2099 127.512C78.9317 128.61 78.3607 130.455 77.9507 131.612C77.5553 132.783 76.8964 134.496 76.501 135.419C76.1057 136.356 75.1978 138.245 74.4657 139.636C73.7482 141.027 73.1624 142.257 73.1624 142.374C73.1624 142.506 73.3382 142.623 73.5578 142.667C73.7921 142.696 74.041 142.652 74.1435 142.55C74.2314 142.462 74.8464 141.32 75.4907 140.031C76.1349 138.743 77.1014 136.707 77.6139 135.492C78.141 134.291 78.5803 133.339 78.5803 133.369L79.371 131.831C79.2978 131.26 79.371 130.806 79.6785 129.781C79.8982 129.049 80.1471 128.302 80.2349 128.097L80.396 127.731L81.011 125.901C80.9524 125.608 81.0989 124.319 81.3624 122.753C81.5967 121.303 81.8017 119.941 81.8017 119.722C81.8017 119.502 81.8603 119.312 81.9482 119.312L82.0067 117.481C82.0507 117.247 82.0946 116.544 82.0946 115.914C82.0946 115.285 82.1239 114.772 82.1824 114.772L82.0214 113.191L81.831 111.126C81.7432 109.999 81.4503 108.124 81.216 106.982C80.9817 105.84 80.5717 104.229 80.3228 103.424C80.0739 102.619 79.6492 101.403 79.3857 100.715L79.3092 100.53L79.2301 100.337L79.2287 100.334C78.9686 99.7014 78.6538 98.9361 78.4485 98.4894C78.1996 97.9476 77.9946 97.4204 77.9799 97.3179C77.9799 97.2154 78.2289 96.9372 78.5364 96.7029C78.8439 96.454 79.6785 95.7365 80.4107 95.0922C81.1282 94.4479 82.7828 92.8665 84.0567 91.5779C85.3453 90.2894 86.9121 88.5615 87.5564 87.7561C88.2007 86.9508 88.9621 86.0576 89.2257 85.7501C89.6064 85.3547 89.7967 85.2522 89.9725 85.3401L90.3385 84.2418L90.69 83.6268C90.895 83.2901 91.1292 82.9972 91.2171 82.9972L91.9053 82.0308C91.9053 81.9576 92.4617 80.8008 93.15 79.4243C93.8235 78.0479 94.6142 76.2468 94.8925 75.3976C95.1707 74.5483 95.5367 73.1718 95.7271 72.3225C95.9175 71.3561 96.0492 70.214 96.0639 69.2475C96.0785 67.8565 96.0346 67.6368 95.6832 66.8754C95.3903 66.2604 95.1121 65.9236 94.6875 65.66C94.3067 65.3655 93.15 65.294 92.535 65.294C92.3446 65.294 91.5246 65.4257 90.7046 65.6015C89.87 65.7625 88.6692 66.07 88.025 66.275C87.3807 66.48 86.0335 67.0365 85.0232 67.5197C84.0128 67.9883 82.4314 68.8815 81.5089 69.4965C80.5864 70.1115 79.1953 71.1218 78.4339 71.7368C77.6724 72.3518 76.0617 73.8454 74.8464 75.0461C73.6457 76.2615 72.2839 77.6672 71.8446 78.1797C71.4053 78.6922 70.7317 79.4536 70.3657 79.849C69.9996 80.259 69.1064 81.3279 68.4035 82.2065C67.7007 83.0851 66.9392 84.0808 66.3535 84.974L65.0357 86.4529Z" fill="#15006A"/>
<path fill-rule="evenodd" clip-rule="evenodd" d="M52.3257 123.646C52.2671 124.378 52.1793 126.12 52.1353 127.526C52.0768 129.254 52.1207 131.26 52.2818 133.647C52.4136 135.594 52.7504 139.182 53.0286 141.627C53.4532 145.259 53.5118 146.137 53.38 146.562C53.2973 146.824 53.0461 147.41 52.8338 147.905L52.8332 147.906L52.7943 147.997L52.3696 148.905C49.3825 148.729 49.1482 148.744 48.5186 149.037C48.1378 149.198 47.4936 149.652 47.0836 150.047C46.6736 150.428 46.0878 151.057 45.795 151.467C45.5021 151.863 44.9603 152.712 44.5796 153.327C44.1843 153.957 43.8768 154.498 43.8768 154.542C43.8768 154.586 43.7596 154.791 43.5986 155.025C43.4521 155.245 42.3393 157.061 41.1532 159.067C39.9525 161.073 38.825 162.947 38.6346 163.24C38.4589 163.533 38.0636 164.265 37.7707 164.866C37.3168 165.773 37.2289 166.095 37.2582 166.74C37.2875 167.413 37.2143 167.618 36.6725 168.526C36.3211 169.097 34.9885 171.22 33.7 173.256C32.4114 175.291 31.2107 177.18 31.0203 177.458C30.8446 177.737 30.7275 178.059 30.7714 178.161C30.8153 178.249 30.786 178.308 30.6982 178.264C30.6103 178.22 30.5518 178.22 30.5518 178.264C30.5518 178.308 30.6835 178.483 30.8446 178.674C31.1375 178.996 31.1375 178.996 31.4157 178.703C31.5768 178.542 32.1625 177.678 32.7335 176.799L32.9813 176.408L33.3372 175.845L33.3379 175.844L33.3392 175.842C33.8112 175.096 34.3313 174.274 34.681 173.724C35.1193 173.016 35.8071 171.932 36.2951 171.164L36.2964 171.162L36.4821 170.869C36.98 170.108 37.4486 169.258 37.5511 169.009C37.6975 168.599 37.756 168.555 37.9464 168.717C38.0636 168.804 38.825 169.654 39.6157 170.576C40.4211 171.499 42.1782 173.344 43.54 174.676C44.9018 176.009 46.4978 177.488 47.0982 177.971C47.6986 178.454 48.7528 179.274 49.4411 179.787C50.1293 180.314 51.2421 181.104 51.9303 181.558C52.6186 182.027 53.995 182.891 55.0054 183.491C56.0157 184.106 57.5971 184.97 58.5196 185.439C59.4421 185.907 61.0236 186.61 62.0339 187.006C63.0443 187.416 64.5379 187.957 65.3725 188.236C66.1925 188.514 67.7447 188.968 68.7989 189.246C69.8679 189.524 71.5079 189.876 72.4304 190.051C73.3529 190.212 75.2711 190.476 76.6768 190.637C78.0825 190.798 80.6304 190.988 82.3143 191.076C83.9982 191.164 85.7407 191.208 86.1654 191.164L86.9268 191.076C86.4875 192.16 85.7407 193.961 84.9647 195.806C84.1886 197.636 83.559 199.218 83.559 199.32C83.559 199.408 83.6468 199.628 83.7786 199.789C83.8801 199.924 83.9347 199.997 83.9929 200C84.0608 200.003 84.1336 199.912 84.2911 199.716C84.4522 199.511 84.7597 198.983 84.9647 198.544C85.1697 198.105 85.7847 196.655 86.3411 195.323C86.8975 193.99 87.4832 192.526 87.6443 192.072C87.82 191.589 88.0836 191.164 88.2447 191.076C88.4057 191.003 88.6693 190.93 88.8304 190.93C88.9915 190.93 89.3868 190.798 89.709 190.637C90.0311 190.476 90.4704 190.095 90.69 189.802C90.9243 189.495 91.4075 188.426 91.7736 187.416C92.1543 186.405 92.9157 184.165 93.4868 182.437C94.0579 180.709 94.8193 178.234 95.2 176.946C95.5807 175.657 96.0493 173.915 96.2397 173.066C96.4593 172.099 96.5911 171.059 96.5911 170.283C96.5911 169.58 96.5033 168.731 96.3715 168.307C96.2104 167.794 95.9029 167.325 95.3465 166.74C94.9072 166.271 94.5411 165.817 94.5411 165.744C94.5411 165.671 94.7022 165.217 94.9072 164.763C95.0975 164.294 95.6979 162.786 96.2397 161.424C96.7668 160.063 97.4258 158.569 97.6893 158.13C97.9529 157.69 98.524 157.002 98.9633 156.592C99.5636 156.036 100.296 155.611 102.097 154.777C103.371 154.176 104.63 153.576 104.864 153.429L102.071 153.498C102.09 153.533 101.866 153.65 101.35 153.883C100.779 154.147 100.091 154.498 99.8125 154.659C99.5343 154.82 99.0071 155.187 98.641 155.45C98.275 155.728 97.7332 156.255 97.4257 156.636C97.1182 157.002 96.6935 157.647 96.4885 158.042C96.2835 158.452 95.5807 160.136 94.951 161.776C94.3067 163.43 93.2964 166.037 92.7107 167.56C92.125 169.097 91.5832 170.547 91.51 170.781C91.3635 171.206 91.3342 171.221 90.5728 171.191C90.1335 171.162 89.0207 171.015 88.0982 170.854C87.1757 170.693 85.4917 170.327 84.3642 170.049C83.2367 169.756 81.1721 169.2 79.781 168.804C78.4046 168.409 75.9592 167.604 74.3632 167.033C72.7817 166.462 70.9807 165.803 70.3803 165.568C69.7799 165.319 68.3889 164.734 67.3053 164.25C66.2217 163.753 64.2449 162.815 62.9124 162.142C61.5799 161.468 59.4274 160.282 58.1096 159.521C56.8064 158.745 54.5806 157.368 53.1749 156.431C51.7692 155.509 50.6124 154.674 50.6271 154.572C50.6271 154.469 51.1249 153.459 51.7106 152.331C52.311 151.204 53.1749 149.534 54.4928 146.913L54.4635 145.595C54.4635 144.878 54.3024 143.092 54.1413 141.642C53.9656 140.192 53.7167 137.893 53.5996 136.517C53.4824 135.155 53.336 132.153 53.2921 129.854C53.2628 127.57 53.2774 124.949 53.3506 124.056C53.4092 123.163 53.4971 122.387 53.541 122.343L52.3069 122.429C52.3719 122.471 52.3782 122.911 52.3257 123.646ZM51.1396 150.838C51.1396 150.808 50.8613 150.75 50.5246 150.691C49.9242 150.603 49.9096 150.618 49.6167 151.248C49.441 151.599 49.3092 152.155 49.2946 152.478C49.2946 152.8 49.3824 153.195 49.4996 153.356C49.646 153.551 49.768 153.6 49.8656 153.503C49.9535 153.415 50.2756 152.8 50.5978 152.126C50.9053 151.453 51.1542 150.867 51.1396 150.838ZM94.1018 169.244C94.0871 168.717 94.0432 168.175 93.9846 168.028C93.8968 167.809 93.8235 167.897 93.56 168.468C93.3842 168.848 93.106 169.537 92.9303 169.976C92.7692 170.415 92.6375 170.869 92.6375 170.957C92.6375 171.103 92.7692 171.089 93.1207 170.913C93.3842 170.781 93.7064 170.562 93.8528 170.43C94.0578 170.254 94.1164 169.976 94.1018 169.244Z" fill="#15006A"/>
<path d="M29.644 50.6658C29.8343 50.6658 29.9661 50.739 29.9661 50.8708C29.9661 50.9879 30.0832 51.1197 30.215 51.1344C30.42 51.1783 30.5225 51.4565 30.669 52.3497C30.7715 52.9794 30.8886 53.5358 30.9179 53.5797C30.9472 53.6237 31.3132 53.609 31.7525 53.5651C32.1772 53.5211 32.8507 53.4772 33.9782 53.5065L34.2272 54.4583C34.359 54.9854 34.5786 56.1569 34.7104 57.0501C34.9154 58.4558 34.9154 58.7633 34.7397 59.1001C34.6372 59.3344 34.4175 59.5687 34.2711 59.6272C34.1247 59.6858 33.6268 59.7737 33.1875 59.8176C32.7482 59.8615 32.309 59.9494 32.2065 59.9933C32.0747 60.0665 32.06 60.3154 32.1625 60.9744C32.2504 61.4576 32.309 62.0726 32.309 62.3215C32.309 62.5851 32.2065 62.9072 32.0893 63.0244C31.9722 63.1415 31.5915 63.3172 31.24 63.4051C30.9032 63.5076 29.7757 63.6833 28.7361 63.8151C27.4329 63.9762 26.7593 64.0054 26.5397 63.9029C26.3786 63.8297 26.1589 63.5954 26.0564 63.3904C25.9539 63.1854 25.8222 62.6437 25.6465 61.2965L24.2554 61.399C22.9814 61.4869 22.835 61.4722 22.5275 61.194C22.3518 61.0329 22.1761 60.7254 22.1322 60.4912C22.1191 60.3931 22.0768 60.1373 22.0197 59.7916C21.9489 59.3632 21.8552 58.7969 21.7661 58.2215C21.605 57.1965 21.4732 56.2594 21.4732 56.1422C21.4732 56.0251 21.6343 55.7615 21.8393 55.5565C22.1029 55.2929 22.3518 55.1904 22.8204 55.1758C23.3475 55.1612 23.3914 55.1465 23.0839 55.044C22.7618 54.9415 22.7911 54.9269 23.3036 54.9122C23.6257 54.8976 24.0211 54.8536 24.1822 54.8097C24.4604 54.7365 24.475 54.634 24.4018 51.5297L24.8704 51.3979C25.1339 51.3101 26.0418 51.149 26.8911 51.0319C27.7404 50.9001 28.6336 50.7829 28.8679 50.7536C29.1022 50.7244 29.4536 50.6804 29.6293 50.6658H29.644Z" fill="#04FFE1"/>
<path fill-rule="evenodd" clip-rule="evenodd" d="M43.8768 37.1943C43.1154 37.2675 41.6657 37.414 40.6554 37.5457C39.645 37.6629 38.005 37.8972 36.9947 38.0582C35.9843 38.2193 32.6311 38.7757 29.5268 39.3029C26.4225 39.8154 23.0986 40.3718 22.1322 40.5475C21.1657 40.7086 18.3689 41.2065 15.9089 41.6604C13.4489 42.0997 10.3154 42.6854 8.95358 42.9636C8.63262 43.0326 8.30597 43.1025 7.98897 43.1702L7.98756 43.1705C6.9601 43.3902 6.03418 43.5882 5.73214 43.6665L5 43.8422C5.02929 45.775 5.17571 47.3272 5.35143 48.5279C5.52714 49.7433 6.06893 53.0965 6.5375 55.9958C7.00607 58.895 7.7675 63.3465 8.22143 65.8797C8.67536 68.4129 9.33429 72.0151 9.70036 73.8601C10.0811 75.7051 10.4325 77.3744 10.5057 77.5647C10.6229 77.8722 10.7254 77.8869 12.0579 77.8869C12.8486 77.8869 14.0493 77.8136 14.7375 77.7404C15.4257 77.6526 17.4025 77.389 19.1304 77.1401C20.8582 76.9058 24.4897 76.3347 27.184 75.8954C29.8782 75.4561 34.4615 74.6654 37.3607 74.1383C40.26 73.6111 43.6865 72.9668 44.975 72.6886C46.2636 72.4104 47.9768 72.0151 48.7822 71.8101C49.5875 71.5904 50.4661 71.3122 50.7297 71.1804C51.0225 71.034 51.2568 70.7851 51.3008 70.5654C51.3447 70.3604 51.2715 69.1743 51.1397 67.9297C50.9933 66.6851 50.7297 64.5033 50.5247 63.0976C50.3197 61.6918 49.7633 58.1336 49.28 55.1904C48.7968 52.2472 48.2111 48.7915 47.9622 47.5029C47.7279 46.2143 47.3911 44.5011 47.23 43.6958C47.069 42.8904 46.7468 41.4407 46.5125 40.4743C46.2783 39.5079 45.9561 38.3511 45.8097 37.9118C45.6486 37.4725 45.4729 37.1065 45.3997 37.0918C45.3401 37.0799 44.8734 37.1165 44.2914 37.162L44.2847 37.1626C44.1534 37.1728 44.0164 37.1836 43.8768 37.1943ZM45.1214 39.2004L44.9018 38.2047C43.9353 38.2339 43.4668 38.2779 43.2178 38.3072C43.0974 38.3222 42.7258 38.3721 42.2279 38.4388C41.7569 38.502 41.173 38.5803 40.5821 38.6586C39.3814 38.8197 35.3839 39.4493 31.7232 40.0497C28.0624 40.65 22.1028 41.6604 18.4714 42.3047C14.8546 42.949 10.5789 43.725 8.99743 44.0618C7.40136 44.384 6.06886 44.6475 6.02493 44.6475C5.981 44.6475 5.99564 44.955 6.03957 45.3504C6.06786 45.5956 6.20548 46.521 6.38201 47.7081C6.47958 48.3643 6.58904 49.1004 6.6985 49.8457C7.02064 51.9397 7.79672 56.7425 8.441 60.535C9.08529 64.3275 9.876 68.8668 10.1981 70.6386C10.5349 72.4104 10.901 74.4165 11.0181 75.1047C11.1353 75.7929 11.2671 76.4665 11.2964 76.6129C11.3549 76.8033 11.516 76.8619 11.9992 76.8619C12.336 76.8619 13.771 76.7301 15.1767 76.569C16.5824 76.4079 19.2621 76.0418 21.1071 75.749C22.9667 75.4708 26.0564 74.9729 27.9892 74.6508C29.9221 74.3286 32.4553 73.904 33.6267 73.699C34.7982 73.494 37.8292 72.9376 40.3625 72.4543C42.8957 71.9858 46 71.3561 47.2446 71.0779C48.4893 70.7997 49.6607 70.5361 49.851 70.4922C50.0853 70.4336 50.1732 70.3165 50.1732 70.0236C50.1732 69.7893 50.1 68.8522 50.0268 67.9297C49.9389 67.0072 49.6753 64.8547 49.4264 63.1708C49.1921 61.4868 48.7235 58.485 48.4014 56.5083C48.0793 54.5315 47.4496 50.944 47.0103 48.5279C46.571 46.1118 46.0146 43.2418 45.7657 42.1582C45.6285 41.5238 45.4712 40.804 45.3409 40.2076C45.2487 39.7853 45.17 39.4249 45.1214 39.2004Z" fill="#04FFE1"/>
<path fill-rule="evenodd" clip-rule="evenodd" d="M27.1839 44.0179C26.9057 44.0472 26.1443 44.179 25.5 44.2961C24.8557 44.4279 23.8307 44.7062 23.2303 44.9258C22.63 45.1454 21.6782 45.5994 21.1071 45.9215C20.5361 46.2437 19.555 47.0051 18.9253 47.5908C18.2957 48.1912 17.4903 49.0404 17.1536 49.4797C16.8168 49.919 16.3482 50.6512 16.0993 51.0904C15.8503 51.5297 15.4843 52.3204 15.2793 52.8476C15.0743 53.3747 14.796 54.4583 14.6643 55.2637C14.4739 56.3326 14.43 57.1233 14.4885 58.1922C14.5325 58.9976 14.7082 60.1837 14.8693 60.8279C15.045 61.4722 15.455 62.5851 15.8064 63.3172C16.1578 64.0494 16.6996 65.0012 17.0364 65.4405C17.3585 65.8797 18.0614 66.6705 18.6032 67.1976C19.1303 67.7247 20.0528 68.4715 20.6386 68.8522C21.2096 69.233 22.22 69.7455 22.8643 69.9944C23.5086 70.2433 24.6653 70.5801 25.4268 70.7412C26.5396 70.9755 27.1546 71.0194 28.5018 70.9462C29.4536 70.9023 30.6982 70.7412 31.3571 70.5655C32.0014 70.4044 33.1875 69.9358 33.9929 69.5405C34.7982 69.1451 35.9404 68.413 36.5114 67.9297C37.0971 67.4465 37.9757 66.5387 38.4736 65.9237C38.9714 65.294 39.6157 64.2837 39.9232 63.6833C40.2161 63.083 40.6114 62.1605 40.7725 61.6333C40.9482 61.1062 41.1532 60.2569 41.2557 59.7297C41.3729 59.1147 41.4021 58.0897 41.3436 56.8744C41.2996 55.8201 41.1532 54.5754 41.0214 54.0922C40.8896 53.609 40.4796 52.584 40.1282 51.8226C39.7621 51.0612 39.1764 50.0362 38.8396 49.5529C38.4882 49.0697 37.7561 48.2497 37.1996 47.7372C36.6432 47.2101 35.8525 46.5804 35.4571 46.3315C35.0471 46.0679 34.3736 45.6872 33.9489 45.4676C33.5389 45.2626 32.7043 44.9258 32.1186 44.7354C31.5475 44.5451 30.6396 44.3254 30.1125 44.2376C29.5853 44.1497 28.8239 44.0472 28.4286 44.0179C28.0186 43.9887 27.4621 43.9887 27.1839 44.0179ZM23.8892 45.7604C24.2992 45.6286 25.046 45.4236 25.5731 45.3065C26.2321 45.16 27.0521 45.1161 28.2088 45.16C29.2485 45.1893 30.3321 45.3357 31.0642 45.5261C31.7085 45.6872 32.7042 46.0386 33.2606 46.3168C33.8317 46.5804 34.8128 47.1954 35.4571 47.6786C36.1013 48.1618 36.9653 48.9672 37.3606 49.4504C37.7706 49.9336 38.3124 50.695 38.5613 51.1197C38.8249 51.5443 39.2496 52.3936 39.4985 52.994C39.7767 53.6822 40.0256 54.6925 40.1721 55.7029C40.3771 57.0647 40.3917 57.5625 40.2453 58.8804C40.1428 59.8175 39.9085 60.9011 39.6889 61.5161C39.4839 62.1018 39.0738 63.0097 38.781 63.5368C38.5028 64.064 38.0635 64.7522 37.8146 65.0743C37.5656 65.3965 37.0971 65.9236 36.7749 66.2458C36.4528 66.5826 35.8963 67.0804 35.5303 67.3733C35.1642 67.6661 34.3735 68.1786 33.7731 68.5008C33.1581 68.8229 32.0306 69.2622 31.2106 69.4818C30.0392 69.7893 29.3949 69.8772 27.9892 69.8772C26.6274 69.8918 25.9392 69.8186 24.9142 69.555C24.1967 69.3793 23.0399 68.9547 22.3517 68.6179C21.6342 68.2518 20.6678 67.6076 20.0235 67.0511C19.4231 66.524 18.5738 65.6454 18.1345 65.0743C17.6953 64.5033 17.0803 63.4929 16.7581 62.8047C16.436 62.1165 16.0406 61.0036 15.8649 60.3154C15.6599 59.4222 15.572 58.6022 15.572 57.46C15.572 56.4643 15.6745 55.454 15.821 54.8243C15.9674 54.2533 16.2749 53.3015 16.5385 52.7011C16.7874 52.1008 17.2999 51.149 17.6806 50.5779C18.0467 50.0068 18.8081 49.1136 19.3645 48.5865C19.921 48.0593 20.6678 47.4297 21.0338 47.1807C21.3999 46.9318 22.0295 46.5657 22.4249 46.3754C22.8349 46.1704 23.4938 45.8922 23.8892 45.7604Z" fill="#04FFE1"/>
<path d="M158.75 24.0011C159.717 23.84 161.137 23.6204 161.898 23.5033C162.66 23.4008 163.436 23.2983 163.626 23.2836C163.905 23.269 163.948 23.3422 163.948 24.3672L161.869 24.6308C160.712 24.7772 158.955 25.0261 157.945 25.1872C156.935 25.3483 156.1 25.4508 156.085 25.4361C156.056 25.4068 156.1 25.1725 156.158 24.909C156.232 24.5722 156.363 24.4258 156.627 24.3672C156.722 24.3536 156.976 24.3088 157.318 24.2486C157.715 24.1786 158.231 24.0877 158.75 24.0011Z" fill="#04FFE1"/>
<path d="M156.773 28.3208L159.365 27.8668C160.8 27.6179 162.103 27.3983 162.25 27.3836C162.484 27.369 162.543 27.4715 162.543 27.8229C162.557 28.0718 162.47 28.3208 162.338 28.394C162.221 28.4525 161.093 28.6868 159.848 28.8918C158.604 29.0968 157.403 29.2725 157.183 29.2725C156.817 29.2725 156.773 29.214 156.773 28.3208Z" fill="#04FFE1"/>
<path d="M159.922 31.8204C160.654 31.6886 162.03 31.5275 162.997 31.469C163.963 31.4104 164.827 31.3811 164.9 31.3958C164.973 31.4104 165.061 31.6301 165.091 31.879C165.12 32.3036 165.076 32.3475 164.651 32.4208C164.388 32.45 163.509 32.5233 162.704 32.5672C161.898 32.6111 160.712 32.7429 160.068 32.8454C159.424 32.9626 158.604 33.1236 158.238 33.2261C157.623 33.3872 157.564 33.3725 157.315 33.0504C157.169 32.8747 157.052 32.6697 157.066 32.6111C157.066 32.5379 157.418 32.3915 157.842 32.2743C158.252 32.1572 159.19 31.9522 159.922 31.8204Z" fill="#04FFE1"/>
<path fill-rule="evenodd" clip-rule="evenodd" d="M187.084 12.9603C186.162 13.0628 184.771 13.2532 184.009 13.3703C183.761 13.4085 183.408 13.4637 182.997 13.5278L182.996 13.5281L182.991 13.5288L182.987 13.5294L182.985 13.5298C182.135 13.6625 181.043 13.8331 180.129 13.9707C178.767 14.1903 174.931 14.82 171.636 15.3618C168.341 15.9182 164.871 16.5186 163.948 16.6796C163.026 16.8407 161.532 17.1043 160.654 17.2654C159.775 17.4118 157.857 17.7779 156.407 18.0561C154.958 18.3343 152.981 18.7443 152.015 18.9493C151.048 19.1543 150.008 19.3886 149.701 19.4618L149.159 19.6082C149.159 20.9114 149.291 22.2879 149.452 23.4886C149.613 24.7039 149.877 26.5489 150.038 27.5886C150.115 28.043 150.239 28.8022 150.385 29.6952L150.385 29.6966L150.388 29.7109L150.389 29.7185L150.39 29.7233L150.391 29.7337L150.392 29.7365C150.579 30.8781 150.801 32.2322 151.004 33.4457C151.37 35.6275 151.985 39.2443 152.395 41.4993C152.791 43.7543 153.391 46.9904 153.713 48.6743C154.035 50.3729 154.401 52.1154 154.518 52.5547C154.636 52.994 154.855 53.4479 154.987 53.5504C155.119 53.6529 155.514 53.7261 155.851 53.7261C156.202 53.7261 157.652 53.5943 159.072 53.4332C160.507 53.2722 163.231 52.9061 165.12 52.6132C167.009 52.335 170.347 51.8079 172.515 51.4418C174.682 51.0757 178.474 50.4168 180.934 49.9775C183.394 49.5382 186.718 48.9086 188.329 48.5865C189.94 48.2497 192.019 47.7957 192.941 47.5615C193.864 47.3272 194.786 47.005 194.991 46.8586C195.299 46.639 195.357 46.4632 195.401 45.6579C195.431 45.1454 195.27 43.3443 195.079 41.6457C194.874 39.9618 194.406 36.6672 194.04 34.3243C193.674 31.9961 193.117 28.555 192.78 26.71C192.458 24.865 191.931 22.0536 191.624 20.4868C191.301 18.92 190.833 16.7382 190.555 15.6546C190.276 14.5711 189.969 13.4875 189.852 13.2386C189.691 12.9018 189.544 12.7993 189.207 12.7846C188.959 12.77 188.007 12.8432 187.084 12.9603ZM189.12 14.2343C189.002 13.9561 188.885 13.8975 188.373 13.9121C188.021 13.9268 187.084 14.0293 186.279 14.1318C185.473 14.2489 183.526 14.5418 181.959 14.7907C180.392 15.0396 176.175 15.7278 172.588 16.3282C169 16.9139 164.022 17.7778 161.532 18.2171C159.043 18.6564 155.514 19.3153 153.698 19.6814C151.883 20.0475 150.331 20.3403 150.257 20.3403C150.169 20.3403 150.155 20.6625 150.228 21.2482C150.283 21.6336 150.496 23.0212 150.747 24.6635L150.749 24.6741L150.751 24.6868L150.752 24.6933L150.891 25.6012L151.004 26.3439C151.356 28.6429 152.146 33.4457 152.761 37.0332C153.362 40.6207 154.182 45.2625 154.577 47.3564C154.972 49.4504 155.368 51.515 155.456 51.9397C155.529 52.3643 155.675 52.7011 155.792 52.7011C155.88 52.7011 157.096 52.5693 158.457 52.4082C159.819 52.2618 161.635 52.0275 162.484 51.8957C163.333 51.7786 164.915 51.5443 165.998 51.3686C167.082 51.2075 169.718 50.7829 171.856 50.4314C173.993 50.08 176.893 49.5822 178.298 49.3332C179.704 49.0843 181.52 48.7622 182.325 48.6011C183.131 48.4547 184.551 48.1911 185.473 48.0154C186.396 47.8397 188.285 47.4736 189.647 47.1954C191.008 46.9025 192.634 46.5364 193.234 46.39C193.835 46.2289 194.362 46.0679 194.406 46.0239C194.45 45.98 194.391 45.1454 194.288 44.1643C194.186 43.1832 193.996 41.6164 193.878 40.6939C193.766 39.8107 193.48 37.894 193.25 36.3574L193.249 36.3534L193.22 36.1546C192.971 34.5879 192.546 31.9521 192.268 30.2975C191.99 28.6429 191.462 25.685 191.096 23.7082C190.73 21.7314 190.174 18.8614 189.837 17.3386C189.515 15.8157 189.193 14.41 189.12 14.2343Z" fill="#04FFE1"/>
<path fill-rule="evenodd" clip-rule="evenodd" d="M172.954 20.6918C172.31 20.8675 171.636 21.0872 171.46 21.1897C171.182 21.3361 171.138 21.4533 171.197 21.8486C171.241 22.0975 171.504 22.815 171.797 23.4154C172.09 24.0158 172.602 24.909 172.939 25.3922C173.291 25.8754 174.447 27.0908 175.502 28.1011C177.039 29.5508 177.537 30.1218 177.874 30.81C178.211 31.5129 178.298 31.879 178.298 32.6404C178.298 33.2115 178.181 33.9436 178.006 34.4708C177.83 34.954 177.522 35.6276 177.303 35.9643C177.083 36.3158 176.805 36.594 176.688 36.594C176.571 36.594 175.443 36.4622 174.198 36.3158C172.881 36.1401 171.621 36.0668 171.197 36.1254C170.684 36.184 170.216 36.389 169.601 36.799C168.971 37.2383 168.605 37.619 168.283 38.2047C167.902 38.8929 167.829 39.1858 167.785 40.3279C167.741 41.3968 167.785 41.8215 168.048 42.5976C168.224 43.1247 168.59 43.9154 168.854 44.3547C169.117 44.794 169.645 45.4383 170.011 45.7897C170.377 46.1265 170.801 46.4047 170.948 46.4047C171.08 46.4047 171.592 46.1411 172.075 45.8044C172.558 45.4676 173.13 45.0283 173.349 44.8086L173.745 44.4279C172.295 42.9051 172.017 42.4951 171.9 42.0118C171.812 41.6458 171.768 41.2504 171.812 41.1333C171.856 41.0161 172.002 40.7965 172.134 40.6501C172.266 40.5036 172.529 40.3865 172.734 40.4011C172.939 40.4011 173.657 40.7672 174.345 41.2065C175.033 41.6604 175.926 42.129 176.322 42.2608C176.732 42.3779 177.64 42.5243 178.372 42.5536C179.323 42.6122 179.953 42.5536 180.641 42.3779C181.168 42.2461 182.018 41.924 182.545 41.6751C183.262 41.3383 183.848 40.8697 184.888 39.8301C185.81 38.8929 186.484 38.0583 186.894 37.3261C187.245 36.7258 187.714 35.774 187.948 35.2029C188.168 34.6318 188.519 33.5775 188.695 32.86C188.929 31.9229 189.032 31.1175 189.032 30.0779C189.032 29.0236 188.944 28.3354 188.724 27.5886C188.548 27.0175 188.182 26.2415 187.89 25.8315C187.582 25.4361 187.113 24.9236 186.821 24.704C186.513 24.499 185.986 24.2061 185.62 24.089C185.254 23.9572 184.522 23.8547 183.98 23.8547C183.423 23.8547 182.735 23.9572 182.442 24.0743C182.135 24.2061 181.637 24.4843 181.315 24.704C181.007 24.9236 180.568 25.3483 180.334 25.6558C180.1 25.9486 179.88 26.1975 179.836 26.1975C179.792 26.1975 179.382 25.9925 178.928 25.7583C178.46 25.5093 177.654 24.9675 177.156 24.5429C176.644 24.1329 176.043 23.4886 175.838 23.1225C175.619 22.7711 175.238 22.0097 175.004 21.4386C174.755 20.8822 174.462 20.399 174.345 20.3843C174.228 20.3697 173.598 20.5015 172.954 20.6918ZM172.324 22.0536C172.353 22.0243 172.632 21.8925 172.954 21.7753C173.276 21.6436 173.569 21.5264 173.613 21.5264C173.657 21.5118 173.949 22.0096 174.272 22.6393C174.594 23.2543 175.223 24.1621 175.663 24.6307C176.102 25.1139 176.893 25.7875 177.42 26.1243C177.947 26.4757 178.752 26.9296 180.056 27.5154L180.539 26.9882C180.708 26.7893 180.972 26.5024 181.211 26.2426L181.212 26.2412C181.324 26.119 181.431 26.0029 181.52 25.9046C181.901 25.4946 182.267 25.2896 182.911 25.0993C183.541 24.9236 183.994 24.8796 184.522 24.9529C184.932 25.0114 185.488 25.1725 185.766 25.3189C186.044 25.4507 186.469 25.8021 186.703 26.0657C186.938 26.3439 187.231 26.7979 187.377 27.0761C187.509 27.3543 187.67 27.7936 187.728 28.0279C187.787 28.2621 187.904 28.8332 187.977 29.2725C188.051 29.7704 188.051 30.4293 187.963 31.0296C187.875 31.5568 187.641 32.5671 187.421 33.2993C187.216 34.0168 186.835 35.0711 186.572 35.6421C186.308 36.2132 185.796 37.0625 185.429 37.5457C185.063 38.0289 184.404 38.805 183.951 39.2589C183.497 39.7275 182.867 40.2693 182.545 40.4743C182.223 40.6793 181.447 41.0161 180.832 41.2211C179.851 41.5432 179.514 41.6018 178.445 41.5432C177.669 41.4993 176.893 41.3529 176.395 41.1625C175.956 40.9868 175.194 40.5475 174.711 40.1814C174.228 39.8154 173.598 39.4493 173.32 39.3614C173.042 39.2589 172.617 39.2443 172.368 39.3029C172.119 39.3614 171.694 39.6397 171.402 39.9325C171.006 40.3279 170.831 40.65 170.757 41.1332C170.669 41.6457 170.713 41.9532 170.962 42.5243C171.138 42.9197 171.446 43.4761 171.651 43.725C171.841 43.9886 172.002 44.3107 172.002 44.4279C172.002 44.545 171.856 44.75 171.68 44.8672C171.489 44.9843 171.197 45.0868 171.021 45.0868C170.787 45.0868 170.508 44.8379 170.098 44.2375C169.762 43.7836 169.366 43.0368 169.205 42.5975C169.044 42.1582 168.868 41.3968 168.824 40.9136C168.78 40.4304 168.824 39.7568 168.912 39.4054C169 39.0686 169.322 38.5122 169.63 38.1754C169.923 37.8532 170.391 37.4871 170.655 37.37C170.904 37.2675 171.475 37.1797 171.899 37.1797C172.309 37.1797 173.554 37.2822 174.638 37.4286C175.721 37.5604 176.776 37.6336 176.981 37.575C177.186 37.5311 177.537 37.3114 177.771 37.0771C178.006 36.8575 178.43 36.1693 178.708 35.5689C179.148 34.6757 179.25 34.2657 179.294 33.2993C179.338 32.655 179.279 31.7618 179.177 31.3225C179.089 30.8832 178.84 30.2536 178.635 29.9314C178.416 29.6093 177.229 28.3207 175.97 27.0761C173.876 24.9968 173.613 24.6893 172.983 23.4446C172.602 22.7125 172.309 22.0828 172.324 22.0536Z" fill="#04FFE1"/>
<path fill-rule="evenodd" clip-rule="evenodd" d="M160.727 42.9197C160.244 43.1686 159.98 43.4322 159.731 43.9154C159.556 44.2815 159.409 44.8086 159.409 45.0869C159.409 45.3651 159.556 45.8922 159.746 46.2436C159.922 46.5951 160.258 47.0051 160.507 47.1515C160.756 47.2979 161.181 47.459 161.459 47.5176C161.767 47.5761 162.235 47.5322 162.616 47.4151C162.982 47.2979 163.436 47.0051 163.685 46.7415C163.905 46.4779 164.168 45.9801 164.271 45.6433C164.388 45.1601 164.388 44.8819 164.271 44.4718C164.168 44.1643 163.934 43.7397 163.758 43.5201C163.568 43.2858 163.172 42.9929 162.88 42.8611C162.572 42.7147 162.118 42.5976 161.855 42.5976C161.606 42.5976 161.093 42.744 160.727 42.9197ZM160.449 45.1014C160.463 44.7647 160.61 44.4718 160.976 44.1057C161.43 43.6372 161.547 43.5932 162.016 43.6811C162.308 43.725 162.704 43.9154 162.894 44.1057C163.128 44.34 163.216 44.5889 163.216 45.0429C163.216 45.4968 163.114 45.7897 162.865 46.0679C162.587 46.39 162.382 46.4779 161.928 46.4779C161.459 46.4779 161.225 46.3754 160.873 46.0386C160.537 45.7018 160.434 45.4822 160.449 45.1014Z" fill="#04FFE1"/>
<path d="M47.1569 102.677C47.0983 100.276 47.113 99.3972 47.2448 99.163C47.3473 98.9726 47.5083 98.8262 47.5962 98.8262C47.684 98.8115 47.8598 98.9287 47.9915 99.0751C48.1233 99.2215 48.5333 100.364 48.8994 101.608C49.2801 102.853 49.6315 104.112 49.8365 104.903L50.9933 104.859C51.623 104.844 52.2965 104.8 52.4723 104.757C52.7798 104.698 52.809 104.742 52.809 105.782L51.3448 105.972L51.3437 105.972C50.5387 106.06 49.734 106.148 49.5437 106.148C49.2655 106.148 49.1776 105.987 48.8115 104.83C48.5919 104.112 48.3869 103.512 48.343 103.512C48.299 103.512 48.3137 105.298 48.4894 111.463L47.9769 111.346C47.6987 111.287 47.4498 111.229 47.4351 111.214C47.4205 111.214 47.3326 110.804 47.2448 110.321C47.1569 109.838 46.8787 108.754 46.6298 107.905C46.3955 107.055 46.1173 106.221 46.0148 106.045C45.8683 105.738 45.8537 105.767 45.8244 106.265C45.8098 106.558 45.7365 106.836 45.6633 106.88C45.5901 106.924 44.609 107.041 43.4962 107.143C42.3687 107.246 41.3144 107.363 41.124 107.407C40.8458 107.451 40.8019 107.407 40.8019 106.953C40.8019 106.484 40.8458 106.44 41.2705 106.367C41.454 106.347 41.9073 106.291 42.4079 106.229C42.5372 106.213 42.6696 106.197 42.8013 106.181C42.8921 106.17 42.9826 106.158 43.0715 106.148C43.789 106.06 44.4773 105.943 44.5798 105.884C44.7408 105.796 44.7408 105.415 44.6237 103.805C44.5358 102.721 44.4626 101.652 44.4626 101.433C44.4626 101.169 44.5505 100.993 44.7115 100.949C44.858 100.905 45.0776 100.905 45.1948 100.935C45.3265 100.979 45.7805 102.018 46.293 103.439C46.7762 104.771 47.1862 105.855 47.2008 105.855C47.2301 105.855 47.2008 104.42 47.1569 102.677Z" fill="#04FFE1"/>
<path d="M30.7715 100.129C30.6837 100.129 30.8887 100.027 31.2108 99.9098C31.5622 99.7926 32.2797 99.7194 32.968 99.7487C33.949 99.778 34.2858 99.8512 34.9887 100.217C35.4572 100.466 35.8233 100.7 35.8233 100.774C35.8233 100.832 35.8672 100.847 35.9258 100.803C35.999 100.774 36.1894 100.905 36.3651 101.096C36.5555 101.301 36.8337 101.725 36.9947 102.048C37.1558 102.37 37.3315 103.043 37.3755 103.556C37.434 104.142 37.3755 104.844 37.2144 105.562C37.0826 106.162 36.5262 107.744 35.9844 109.076C35.428 110.409 34.5055 112.678 33.9197 114.128C33.334 115.578 32.7483 116.998 32.6019 117.276C32.4555 117.554 32.2358 117.877 32.104 117.979C31.943 118.096 31.7819 118.111 31.5769 118.008C31.4158 117.935 31.1669 117.745 31.0205 117.613C30.9115 117.504 30.6321 117.257 30.3333 116.993C30.2792 116.945 30.2245 116.897 30.17 116.849C30.1212 116.805 30.0725 116.762 30.0247 116.72C29.941 116.648 29.8559 116.576 29.7727 116.505L29.7682 116.501C29.4605 116.238 29.1795 115.998 29.0876 115.929C28.9704 115.827 28.7362 115.68 28.5751 115.592C28.414 115.504 28.0772 115.314 27.8429 115.153C27.7927 115.118 27.7411 115.083 27.6902 115.048C27.6861 115.046 27.6821 115.043 27.678 115.04L27.6756 115.039C27.4945 114.915 27.3245 114.799 27.2572 114.743C27.2436 114.734 27.225 114.722 27.2023 114.707C27.1892 114.698 27.1748 114.689 27.1592 114.678C27.027 114.591 26.8085 114.448 26.5983 114.304C26.3201 114.128 25.9247 113.894 25.7197 113.791C25.5147 113.689 25.1487 113.484 24.9144 113.323C24.6801 113.162 24.2262 112.898 23.9187 112.737C23.6258 112.576 22.8644 111.961 22.2347 111.36C21.6051 110.76 20.9169 109.94 20.6826 109.501C20.4483 109.062 20.1701 108.388 20.0529 107.978C19.9504 107.583 19.8626 106.88 19.8626 106.44C19.8626 106.001 19.9944 105.196 20.1554 104.654C20.3165 104.098 20.5801 103.527 20.7412 103.365C20.9022 103.204 21.034 103.029 21.034 102.97C21.034 102.897 21.3269 102.648 21.6637 102.384C22.0004 102.135 22.5276 101.813 22.8204 101.696C23.1279 101.564 23.5379 101.462 23.7429 101.462C23.9479 101.462 24.109 101.389 24.109 101.315C24.109 101.242 24.2408 101.169 24.4019 101.169C24.5629 101.169 24.724 101.242 24.7679 101.315C24.8119 101.389 24.9437 101.433 25.0608 101.389C25.1779 101.345 25.2804 101.389 25.2804 101.462C25.2804 101.535 25.5147 101.638 25.7929 101.682C26.0712 101.725 26.3201 101.813 26.3347 101.887C26.364 101.96 26.4812 102.048 26.5983 102.077C26.7154 102.106 26.9351 102.253 27.0815 102.414C27.2279 102.575 27.3158 102.619 27.2572 102.487C27.184 102.326 27.2133 102.326 27.3597 102.502C27.4622 102.648 27.7258 102.794 27.9454 102.838C28.1797 102.882 28.3262 102.999 28.2822 103.073C28.2383 103.146 28.2676 103.219 28.3554 103.219C28.4433 103.219 28.5458 103.043 28.5897 102.824C28.6483 102.589 28.8533 102.121 29.0583 101.755C29.2633 101.389 29.5708 100.979 29.7319 100.832C29.9076 100.686 30.2444 100.481 30.4787 100.364C30.713 100.247 30.8594 100.144 30.7715 100.129Z" fill="#04FFE1"/>
<path fill-rule="evenodd" clip-rule="evenodd" d="M56.9091 102.048C56.8359 101.93 56.4112 99.8511 55.9573 97.4351C55.5034 95.019 54.9323 92.1783 54.6834 91.1386C54.4491 90.099 54.1269 88.8104 53.9659 88.2833C53.8048 87.7561 53.5852 87.1851 53.468 87.0093C53.2777 86.7018 53.1605 86.6872 52.4723 86.7604C52.0623 86.8043 50.7152 86.9654 49.5144 87.1265C48.2991 87.2875 45.8391 87.6536 44.0234 87.9318C42.6016 88.1497 39.6085 88.6459 36.6753 89.1322L36.6741 89.1324C35.8619 89.267 35.0542 89.4009 34.2858 89.5279C30.7423 90.1283 26.3641 90.8897 24.5483 91.2118C22.7326 91.534 19.643 92.1343 17.6662 92.5297C15.6894 92.9251 13.8298 93.3204 13.5223 93.4083L12.9805 93.5547C12.9805 94.8579 13.083 96.0586 13.2001 97.069C13.3319 98.0794 13.7273 100.744 14.0933 102.999C14.4448 105.254 15.2355 109.969 15.8505 113.469C16.4508 116.969 17.2708 121.464 17.6808 123.47C18.0762 125.462 18.4569 127.219 18.5448 127.38C18.6619 127.614 18.8376 127.673 19.3794 127.673C19.7748 127.673 21.1951 127.541 22.5715 127.38C23.948 127.219 26.4373 126.882 28.1358 126.648C29.8344 126.399 33.6123 125.798 36.5555 125.315C39.4987 124.832 44.2137 124.012 47.0251 123.485C49.8366 122.958 52.2087 122.474 52.2819 122.43L53.5412 122.343C53.5851 122.284 54.6394 121.991 55.884 121.669C57.1287 121.347 58.3733 120.981 58.6222 120.864C59.0029 120.688 59.1201 120.527 59.1933 120.088C59.2372 119.78 59.1933 118.784 59.1054 117.847C59.0176 116.925 58.8419 115.373 58.7247 114.406C58.6076 113.44 58.2415 110.936 57.9194 108.842C57.524 106.353 57.3483 104.786 57.3922 104.303L56.9091 102.048ZM53.2337 89.7036L52.809 87.8293C51.7254 87.8586 50.5979 87.9904 49.5876 88.1368C49.1842 88.2011 48.475 88.3121 47.6045 88.4484L47.5934 88.4501C46.2852 88.6549 44.6153 88.9162 43.0715 89.1618C40.4944 89.5718 35.7208 90.3626 32.4554 90.919C31.4432 91.096 30.3649 91.2843 29.312 91.4681L29.3095 91.4685C26.9667 91.8776 24.7504 92.2646 23.6697 92.4565C22.1029 92.7347 19.3354 93.2618 17.5197 93.6279C15.704 93.994 14.1665 94.3454 14.1079 94.3893C14.0347 94.4479 14.1225 95.5461 14.2983 96.8347C14.4593 98.1233 14.9279 101.198 15.3233 103.644L15.3234 103.645C15.7335 106.105 16.3922 110.058 16.8022 112.429C17.1975 114.816 17.9004 118.726 18.3397 121.142C18.7936 123.558 19.2036 125.769 19.2475 126.033C19.3061 126.311 19.4086 126.56 19.4965 126.604C19.5697 126.633 21.0633 126.487 22.7911 126.282C24.519 126.077 26.7593 125.784 27.7697 125.623C28.7801 125.476 31.1083 125.11 32.9679 124.817C34.8129 124.524 38.2101 123.953 40.509 123.543C42.8079 123.148 45.8976 122.592 47.3911 122.313C48.8847 122.035 50.6272 121.713 51.2715 121.596C51.9158 121.464 53.4972 121.127 54.7858 120.834C56.0744 120.542 57.3776 120.219 57.6704 120.102C58.1244 119.941 58.2122 119.853 58.1537 119.575C58.1244 119.399 58.0219 118.418 57.934 117.408C57.8462 116.412 57.5826 114.26 57.3483 112.649C57.2123 111.714 57.0418 110.582 56.8912 109.582L56.8909 109.58C56.7821 108.858 56.6837 108.204 56.6162 107.744C56.4404 106.66 55.9133 103.526 55.4301 100.788C54.9469 98.0501 54.3465 94.8579 54.1122 93.6865C54.0738 93.5077 54.0321 93.3135 53.9883 93.1092C53.7488 91.9915 53.4441 90.5702 53.2337 89.7036Z" fill="#04FFE1"/>
<path d="M104.865 153.429C105.099 153.283 105.89 153.063 106.622 152.946C107.354 152.814 109.916 152.39 112.332 151.994C114.748 151.584 118.409 150.925 120.459 150.515C122.509 150.105 126.038 149.344 128.293 148.832C130.548 148.304 133.975 147.47 135.907 146.943C137.84 146.43 140.417 145.742 141.618 145.405C142.834 145.068 144.371 144.527 145.059 144.19C146.084 143.692 146.538 143.355 147.636 142.257C148.793 141.085 149.057 140.734 149.701 139.387C150.111 138.538 150.565 137.381 150.697 136.824C150.843 136.224 150.946 135.258 150.946 134.482C150.931 133.749 150.755 131.875 150.55 130.308C150.331 128.742 149.73 124.524 149.218 120.937C148.691 117.349 148.193 113.835 148.105 113.103L147.929 111.785L146.992 113.264C147.051 113.41 147.197 114.318 147.314 115.285C147.428 116.22 147.719 118.226 147.95 119.814L147.973 119.97C148.222 121.581 148.588 124.158 148.793 125.681C148.998 127.219 149.306 129.386 149.467 130.513L149.498 130.756L149.498 130.758C149.639 131.842 149.808 133.136 149.862 133.735C149.921 134.379 149.921 135.258 149.862 135.682C149.789 136.107 149.584 136.766 149.393 137.147C149.203 137.527 148.837 138.128 148.588 138.464C148.339 138.801 147.783 139.314 147.358 139.592C146.948 139.87 145.996 140.295 145.279 140.529C144.547 140.778 143.009 141.232 141.838 141.554C140.666 141.876 138.162 142.535 136.273 143.018C134.384 143.502 131.353 144.219 129.538 144.629C127.722 145.039 124.427 145.742 122.216 146.181C120.005 146.62 116.403 147.279 114.236 147.631C112.054 147.997 109.067 148.465 107.573 148.67C106.08 148.89 104.176 149.154 103.327 149.256C102.478 149.373 100.53 149.608 99.0073 149.769C98.4975 149.822 97.9297 149.88 97.3617 149.939L97.3537 149.939L97.3519 149.94C96.21 150.057 95.0682 150.174 94.3948 150.252C93.3845 150.354 91.9641 150.428 91.2466 150.428C90.0752 150.428 89.8116 150.369 88.9038 149.944C88.318 149.681 87.5712 149.168 87.1759 148.773C86.7805 148.407 86.2827 147.763 86.0484 147.353C85.8287 146.957 85.5066 146.064 85.3309 145.376C85.1698 144.702 84.833 143.209 84.5841 142.081C84.3352 140.954 84.0423 139.636 83.9252 139.153C83.808 138.669 83.1198 135.609 82.4023 132.344C81.6848 129.093 81.0552 126.194 81.0112 125.901L80.3962 127.731L80.4548 128.17C80.4841 128.405 80.733 129.664 81.0112 130.953C81.2748 132.241 81.5969 133.72 81.7141 134.247C81.8312 134.774 82.3291 136.971 82.827 139.153C83.0925 140.343 83.3757 141.596 83.6037 142.605L83.6049 142.61L83.6063 142.616L83.6083 142.625C83.7931 143.442 83.9411 144.097 84.013 144.424C84.1595 145.142 84.4377 146.167 84.6134 146.694C84.7891 147.221 85.1845 148.012 85.4773 148.451C85.7848 148.89 86.1802 149.403 86.3705 149.578C86.5609 149.754 87.1027 150.135 87.5859 150.428C88.0691 150.706 88.8891 151.087 89.4162 151.233C89.9873 151.409 90.778 151.526 91.393 151.526C91.9641 151.526 92.9452 151.467 93.5895 151.379C94.2338 151.306 95.8445 151.13 97.177 151.013C98.5095 150.882 100.911 150.618 102.522 150.428C104.132 150.223 106.607 149.9 108.013 149.695C109.418 149.49 112.157 149.066 114.089 148.744C116.022 148.422 119.581 147.777 121.997 147.294C124.413 146.796 127.707 146.108 129.318 145.742C130.929 145.39 133.96 144.658 136.054 144.131C138.148 143.604 140.945 142.872 142.277 142.506C143.61 142.14 145.323 141.642 146.099 141.378C147.124 141.027 147.475 140.968 147.417 141.115C147.373 141.232 146.933 141.657 146.45 142.037C145.967 142.433 145.176 142.945 144.693 143.179C144.21 143.414 143.024 143.838 142.057 144.131C141.091 144.424 138.69 145.083 136.713 145.595C134.736 146.123 131.573 146.913 129.684 147.367C127.795 147.807 124.691 148.495 122.802 148.89C120.913 149.285 118.116 149.827 116.579 150.12C115.056 150.398 113.035 150.764 112.113 150.911C111.19 151.072 109.316 151.379 107.939 151.584C106.578 151.789 104.235 152.112 102.741 152.317C101.248 152.522 99.183 152.785 98.1288 152.902C97.0891 153.034 95.0684 153.239 93.6627 153.371C92.257 153.503 90.2802 153.62 89.2698 153.634C87.5566 153.649 87.3809 153.62 86.6048 153.239C86.1362 153.019 85.3895 152.492 84.9355 152.068C84.423 151.584 83.9691 150.984 83.7055 150.428C83.4712 149.944 83.1784 149.08 83.0466 148.524C82.9148 147.953 82.4462 145.888 82.007 143.912C81.6675 142.384 81.1357 140.034 80.6885 138.059L80.688 138.057L80.6634 137.948L80.5768 137.566L80.323 136.444C79.8545 134.306 79.4152 132.227 79.3712 131.831L78.5805 133.369C78.5952 133.413 78.8587 134.672 79.1662 136.151C79.4737 137.644 80.1766 140.778 80.7037 143.106C81.2309 145.449 81.8312 147.997 82.0216 148.788C82.2266 149.578 82.578 150.589 82.8123 151.057C83.0466 151.526 83.6323 152.273 84.1009 152.727C84.5695 153.18 85.243 153.708 85.6091 153.913C85.9752 154.132 86.6927 154.41 87.2198 154.542C87.9959 154.747 88.5523 154.777 90.2948 154.689C91.4662 154.63 93.7066 154.469 95.2734 154.308C96.8402 154.147 98.8463 153.927 99.7395 153.81C100.618 153.693 101.584 153.561 101.863 153.503L104.865 153.429Z" fill="#003FFF"/>
<path d="M82.4609 119.795C82.7391 120.175 83.0027 121.142 83.7787 124.803C84.3059 127.307 85.038 130.704 85.4041 132.344C85.7555 133.998 86.2827 136.37 86.5609 137.615C86.8009 138.701 87.1389 140.147 87.3589 141.088L87.4541 141.495C87.6591 142.389 88.0398 143.502 88.2887 143.985C88.523 144.468 89.0648 145.2 89.4748 145.61C89.9287 146.064 90.6755 146.577 92.5498 147.499L94.8195 147.484C96.0787 147.47 98.8755 147.294 101.057 147.089C103.224 146.869 106.256 146.533 107.793 146.328C109.316 146.123 111.468 145.83 112.552 145.669C113.636 145.508 115.612 145.171 116.945 144.937C118.277 144.702 120.474 144.292 121.85 144.014C123.212 143.736 126.053 143.092 128.147 142.594C130.241 142.096 133.242 141.334 134.809 140.895C136.376 140.456 138.748 139.768 140.081 139.358C141.413 138.948 142.907 138.42 143.405 138.201C143.932 137.952 144.664 137.439 145.103 137C145.542 136.575 146.07 135.887 146.275 135.463C146.494 135.038 146.772 134.32 146.89 133.852C147.007 133.383 147.109 132.666 147.109 132.241C147.109 131.817 146.582 128.229 145.952 124.261C145.527 121.577 145.134 119.088 144.907 117.645L144.902 117.615L144.898 117.586L144.896 117.573L144.895 117.569C144.793 116.92 144.726 116.497 144.708 116.383C144.635 115.856 144.678 115.651 144.957 115.285L143.61 116.559L143.741 117.467C143.797 117.783 143.894 118.394 143.999 119.054C144.059 119.433 144.122 119.827 144.181 120.19C144.26 120.69 144.422 121.687 144.619 122.897L144.621 122.913L144.623 122.924C144.823 124.155 145.058 125.603 145.279 126.97C145.718 129.693 146.084 132.124 146.084 132.388C146.084 132.651 145.982 133.222 145.85 133.662C145.718 134.115 145.484 134.701 145.308 134.979C145.147 135.272 144.81 135.726 144.561 135.99C144.312 136.253 143.844 136.663 143.522 136.898C143.2 137.117 142.306 137.513 141.545 137.762C140.783 138.01 138.47 138.684 136.42 139.255C134.37 139.812 131.339 140.602 129.684 141.012C128.029 141.408 125.818 141.935 124.779 142.154C123.724 142.389 121.879 142.784 120.679 143.033C120.263 143.113 119.771 143.208 119.26 143.308L119.251 143.309L119.218 143.316C118.245 143.504 117.209 143.705 116.506 143.838C115.422 144.029 113.709 144.322 112.698 144.483C111.688 144.644 110.18 144.878 109.331 145.01C108.481 145.127 106.373 145.39 104.645 145.595C102.917 145.8 99.8127 146.093 97.7627 146.269C94.7902 146.489 93.853 146.518 93.1502 146.401C92.667 146.298 91.9788 146.079 91.6127 145.903C91.2466 145.713 90.6755 145.288 90.3241 144.966C89.9873 144.629 89.548 144.073 89.3577 143.736C89.1527 143.399 88.8598 142.652 88.6987 142.081C88.5377 141.525 88.1423 139.782 87.8055 138.201C87.4687 136.634 87.0002 134.496 86.7659 133.442C86.517 132.402 86.063 130.323 85.7555 128.829C85.448 127.35 84.9502 125.037 84.6573 123.704C84.3645 122.387 84.0862 121.244 84.0569 121.186L82.4609 119.795Z" fill="#003FFF"/>
<path d="M131.719 42.5243C131.661 42.4364 131.471 41.7482 131.31 40.9868C131.134 40.2254 130.533 37.3261 129.962 34.5439C129.391 31.7618 128.366 26.9589 127.693 23.8546C127.004 20.7503 126.023 16.3721 125.496 14.1171C124.984 11.8621 124.427 9.53389 124.266 8.96282C124.105 8.37711 123.842 7.63032 123.681 7.30818C123.519 6.98603 123.109 6.41496 122.758 6.04889C122.421 5.66818 121.85 5.17032 121.484 4.92139C121.118 4.67246 120.459 4.35032 120.02 4.18925C119.39 3.95496 118.848 3.89639 117.604 3.89639C116.725 3.89639 114.939 4.01353 113.65 4.14532C112.698 4.24272 111.297 4.40414 110.111 4.54084C109.693 4.58909 109.301 4.63426 108.964 4.67246C107.676 4.83353 105.626 5.0971 104.425 5.27282C103.21 5.43389 101.409 5.69746 100.398 5.85853C99.388 6.0196 97.5723 6.31246 96.3716 6.51746C95.1563 6.70782 93.6188 6.97139 92.9305 7.10318C92.2423 7.22032 90.7341 7.51318 89.5627 7.74746C88.3912 7.98175 86.3559 8.39175 85.0234 8.68461C83.6909 8.96282 81.2602 9.51925 79.6055 9.92925C77.9509 10.3246 75.1541 11.0421 73.3823 11.54C71.6105 12.0232 69.663 12.5943 69.0627 12.8139C68.1255 13.1653 67.8034 13.385 66.8516 14.3368C65.9584 15.23 65.6655 15.6253 65.3287 16.46C65.0359 17.2068 64.9041 17.8218 64.8455 18.7296C64.8016 19.5203 64.8602 20.4721 65.0212 21.3653C65.153 22.1268 65.7241 25.7289 66.2805 29.3457C66.8196 32.7737 67.5936 37.5979 68.0481 40.431L68.0496 40.4404L68.0504 40.4452L68.0516 40.4527L68.0536 40.4653L68.1255 40.9136L68.263 41.743C68.7095 44.4373 69.3058 48.035 69.663 50.1386L69.835 51.1523L69.8949 51.5052C70.2691 53.7118 70.7637 56.628 71.4348 60.535C71.487 60.507 71.9739 59.7424 72.2109 59.3636L72.1669 58.7779C72.1377 58.4557 71.4348 54.0775 70.6002 49.0404C69.7655 44.0032 68.5794 36.7989 67.9791 33.0064L67.6356 30.8352L67.6238 30.7608L67.6228 30.7547C67.1134 27.5338 66.5876 24.2096 66.3391 22.6832C65.8412 19.491 65.8119 19.1689 65.973 18.2171C66.0755 17.6314 66.3537 16.826 66.6173 16.3282C66.8809 15.8596 67.4227 15.1568 67.818 14.7907C68.2719 14.3807 68.9016 13.9853 69.4287 13.795C69.9119 13.6193 71.2884 13.1946 72.5037 12.8578C73.7045 12.521 75.9155 11.9353 77.4091 11.5546C78.9027 11.1739 81.1723 10.6175 82.4609 10.3246C82.9182 10.2259 83.4659 10.1068 84.0346 9.98324L84.0387 9.98234L84.0403 9.98199L84.0431 9.98139L84.0477 9.98038L84.0683 9.97591L84.072 9.9751L84.0791 9.97357L84.0809 9.97317C85.1011 9.75143 86.1825 9.51637 86.927 9.35818C88.0984 9.10925 90.6316 8.61139 92.5645 8.25996C94.4973 7.90854 97.6016 7.39603 99.4466 7.10318C101.292 6.82496 104.03 6.41496 105.523 6.22461C107.017 6.0196 110.004 5.65353 112.186 5.41925C112.914 5.33619 113.623 5.25633 114.254 5.18523L114.255 5.18507L114.257 5.18489C115.516 5.04311 116.467 4.93599 116.652 4.90675C116.93 4.87746 117.589 4.86282 118.116 4.8921C118.643 4.92139 119.434 5.06782 119.873 5.22889C120.371 5.41925 121.001 5.82925 121.528 6.31246C122.041 6.76639 122.538 7.39603 122.743 7.82068C122.934 8.23068 123.285 9.37282 123.519 10.3832C123.738 11.2709 124.24 13.4589 124.716 15.5362L124.911 16.3868C125.438 18.6857 126.17 21.9364 126.536 23.635C126.644 24.1343 126.783 24.7765 126.939 25.4959L126.958 25.5852L126.96 25.5934C127.331 27.3051 127.792 29.4289 128.147 31.1028C128.659 33.5189 129.289 36.5207 129.538 37.7654C129.742 38.7845 129.985 39.9215 130.122 40.5653L130.123 40.5687C130.153 40.7096 130.178 40.8267 130.197 40.9136C130.314 41.3968 130.387 41.8068 130.372 41.8361C130.474 41.9672 131.313 42.3495 131.719 42.5243Z" fill="#003FFF"/>
<path d="M106.841 1.59747C105.597 1.77318 103.81 2.03675 102.888 2.19783C101.965 2.34425 99.5492 2.73961 97.5431 3.0764C95.5224 3.39854 92.7256 3.8964 91.3199 4.15997L90.5713 4.30788C88.982 4.62168 86.4149 5.12854 84.3645 5.55104C81.9485 6.0489 78.4488 6.81033 76.6038 7.24962C75.2246 7.58895 73.0679 8.1165 71.1922 8.57534L71.1895 8.576L71.1884 8.57626L71.1832 8.57753L69.4288 9.00676C67.3349 9.5339 65.2849 10.105 64.8895 10.2953C64.4795 10.471 63.8645 10.8225 63.4984 11.0714C63.1324 11.3057 62.3856 11.9646 61.8291 12.5211C61.2727 13.0775 60.5699 13.8975 60.277 14.3368C59.9841 14.7761 59.5888 15.435 59.3984 15.8011C59.2081 16.1671 58.9006 16.9286 58.7102 17.485C58.4906 18.1146 58.3149 18.9932 58.2709 19.7546C58.2124 20.6918 58.3149 21.8339 58.6516 24.2939C58.9152 26.1096 59.252 28.5404 59.4131 29.7118C59.5741 30.8832 59.9988 33.8118 60.3502 36.2279C60.4762 37.0595 60.6283 38.0699 60.7884 39.1342C61.0935 41.1617 61.428 43.3848 61.6681 44.9404C62.0488 47.3125 62.8688 52.3936 63.5131 56.2154C64.1427 60.0372 65.0067 65.045 65.4167 67.344C65.8267 69.6429 66.2074 71.9418 66.2367 72.469C66.5 72 66.793 71.3358 67.0566 70.6679C67.0273 70.6532 66.9248 70.0529 66.8077 69.3207C66.6905 68.5886 66.0755 64.8693 65.4166 61.0475C64.7723 57.2257 63.8498 51.6175 63.3666 48.6011C62.8834 45.5846 62.1512 40.8989 61.7559 38.2046C61.3459 35.5103 60.6576 30.6928 60.2184 27.5153C59.7986 24.4793 59.419 21.6304 59.3349 20.9996L59.3251 20.926C59.2666 20.4135 59.3251 19.6814 59.4716 18.9493C59.5887 18.305 59.8523 17.4264 60.0573 17.0164C60.2476 16.5918 60.438 16.2403 60.4673 16.2403C60.5112 16.2403 60.5405 16.7528 60.5551 17.3825C60.5698 17.9975 60.8773 20.6185 61.2434 23.1957C61.5948 25.7728 62.1659 29.6532 62.488 31.835C62.8101 34.0168 63.1616 36.3889 63.2787 37.1064C63.3421 37.4945 63.4354 38.1183 63.5356 38.7877L63.5358 38.7891L63.5362 38.7913L63.5363 38.7923L63.5365 38.7933C63.6212 39.3597 63.7108 39.9584 63.7912 40.4743L63.8346 40.7529L63.835 40.7553C64.0305 42.011 64.4191 44.5064 64.7576 46.5511C64.9781 47.8827 65.2304 49.4427 65.4411 50.7448L65.4416 50.7483C65.5805 51.6069 65.7012 52.3531 65.7827 52.8475C65.9877 54.0922 66.6173 57.7382 67.1737 60.945C67.7301 64.1372 68.1841 66.9193 68.1841 67.1243C68.3452 66.5 69 65 69.0334 65.0304C68.9894 64.9718 68.6819 63.3757 68.3452 61.4868C68.2332 60.8306 68.1037 60.0755 67.9724 59.3104L67.9704 59.2991L67.97 59.2964C67.7241 57.8635 67.4726 56.3976 67.3201 55.4832C67.0859 54.0775 66.4562 50.2264 65.9291 46.9171C65.3873 43.6079 64.8602 40.2839 64.743 39.5225C64.6259 38.7611 64.2305 36.1839 63.8791 33.8118C63.513 31.4396 62.8834 27.0907 62.4587 24.1475C61.8876 20.1353 61.6973 18.3489 61.6826 16.9725C61.668 15.186 61.6826 15.1128 62.1366 14.2635C62.3855 13.7803 62.9859 13.0043 63.4544 12.5503C63.923 12.0818 64.6698 11.5546 65.1091 11.3496C65.5484 11.1446 67.3348 10.6175 69.0627 10.1782C70.7905 9.72425 73.8948 8.97747 75.9448 8.49425C77.9948 8.01104 81.1284 7.32282 82.9002 6.94211C84.672 6.57603 87.8348 5.93175 89.9288 5.53639C92.0227 5.12639 96.0495 4.42353 98.8609 3.94032C101.672 3.47175 105.831 2.81282 108.086 2.49067C110.341 2.16853 113.05 1.80246 114.089 1.67067C115.129 1.53889 116.784 1.34853 117.75 1.24603C118.717 1.12889 119.742 1.04103 120.02 1.02639C120.298 1.01174 120.898 1.07031 121.338 1.15817C121.777 1.24603 122.494 1.48031 122.919 1.67067C123.329 1.87567 124.047 2.38817 124.501 2.81282C124.954 3.23746 125.467 3.89639 125.657 4.30639C125.833 4.71639 126.331 6.45889 126.741 8.18675C126.895 8.86075 127.083 9.66843 127.273 10.489L127.274 10.4914L127.276 10.4997L127.276 10.501L127.277 10.5043C127.574 11.7825 127.878 13.09 128.073 13.9707C128.202 14.5228 128.372 15.266 128.56 16.0814L128.561 16.0856C128.865 17.4104 129.213 18.9252 129.494 20.1207C129.933 22.0536 131.178 27.7496 132.261 32.7868C133.345 37.8239 134.326 42.4364 134.443 43.0368C134.56 43.6371 134.633 44.1496 134.619 44.1789C134.924 44.4358 135.966 45.0181 136.449 45.2772C135.981 44.8818 135.937 44.7793 135.161 41.1332C134.825 39.5108 134.195 36.5675 133.628 33.915L133.627 33.9111L133.406 32.8772L133.199 31.9082C132.569 28.8918 131.778 25.2603 131.456 23.8546C131.394 23.5835 131.328 23.2949 131.26 22.9993L131.259 22.993C130.977 21.7577 130.667 20.4011 130.49 19.6814C130.285 18.8028 129.889 17.0457 129.611 15.8011C129.438 15.0644 129.244 14.2098 129.081 13.4922L129.081 13.4903L129.08 13.488L129.079 13.4847C128.968 12.993 128.871 12.5662 128.806 12.2868C128.761 12.0941 128.692 11.8003 128.609 11.4393L128.607 11.4312L128.603 11.4147L128.6 11.4012L128.599 11.3963L128.599 11.395L128.595 11.3795C128.38 10.4527 128.07 9.11151 127.781 7.8939C127.371 6.16604 126.873 4.37961 126.668 3.94033C126.434 3.44247 125.921 2.7689 125.321 2.18318C124.779 1.65604 124.003 1.05568 123.607 0.836039C123.197 0.616396 122.48 0.338181 121.997 0.221038C121.513 0.0892522 120.693 -0.0132479 120.166 0.00139501C119.639 0.0160379 116.945 0.308895 114.163 0.660324C111.973 0.925372 109.466 1.2539 107.891 1.46035C107.465 1.51623 107.106 1.56316 106.841 1.59747Z" fill="#003FFF"/>
<path d="M106.739 33.1236C106.958 32.9918 107.324 32.8454 107.544 32.7722C107.764 32.7136 108.247 32.655 108.628 32.655C109.287 32.6404 109.331 32.6697 109.331 33.0065C109.331 33.2115 109.345 33.4165 109.36 33.4897C109.36 33.5482 109.038 33.6361 108.628 33.7093C108.203 33.7679 107.647 33.9143 107.383 34.0461C107.134 34.1925 106.651 34.5147 106.329 34.7929C106.007 35.0565 105.699 35.2761 105.626 35.2761C105.567 35.2761 105.436 35.115 105.333 34.91C105.172 34.5733 105.201 34.5 105.743 33.9436C106.065 33.6215 106.519 33.2408 106.739 33.1236Z" fill="#0633BB"/>
<path d="M115.041 37.5897C113.87 36.3011 113.738 36.1254 113.899 35.8618C114.002 35.7008 114.177 35.569 114.294 35.569C114.426 35.5543 115.158 36.1986 115.92 36.9893C116.696 37.78 117.516 38.7611 117.779 39.1565C118.028 39.5665 118.321 40.1522 118.409 40.4743C118.556 40.9575 118.541 41.1479 118.351 41.6165C118.189 41.9679 117.882 42.3047 117.413 42.5976C117.033 42.8465 116.681 43.0368 116.608 43.0368C116.549 43.0368 116.374 42.9051 116.213 42.744C116.052 42.5829 115.92 42.3486 115.92 42.2315C115.92 42.0997 116.169 41.9386 116.52 41.8361C116.857 41.7336 117.194 41.5433 117.282 41.4261C117.369 41.309 117.428 41.06 117.413 40.8697C117.399 40.6793 117.15 40.1815 116.872 39.7715C116.593 39.3468 115.773 38.3658 115.041 37.5897Z" fill="#0633BB"/>
<path fill-rule="evenodd" clip-rule="evenodd" d="M107.544 32.7722C107.324 32.8454 106.958 32.9918 106.739 33.1236C106.519 33.2408 106.065 33.6215 105.743 33.9436C105.201 34.5 105.172 34.5733 105.333 34.91C105.436 35.115 105.567 35.2761 105.626 35.2761C105.699 35.2761 106.007 35.0565 106.329 34.7929C106.651 34.5147 107.134 34.1925 107.383 34.0461C107.647 33.9143 108.203 33.7679 108.628 33.7093C109.038 33.6361 109.36 33.5482 109.36 33.4897C109.345 33.4165 109.331 33.2115 109.331 33.0065C109.331 32.6697 109.287 32.6404 108.628 32.655C108.247 32.655 107.764 32.7136 107.544 32.7722ZM113.899 35.8618C113.738 36.1254 113.87 36.3011 115.041 37.5897C115.773 38.3658 116.593 39.3468 116.872 39.7715C117.15 40.1815 117.399 40.6793 117.413 40.8697C117.428 41.06 117.369 41.309 117.282 41.4261C117.194 41.5433 116.857 41.7336 116.52 41.8361C116.169 41.9386 115.92 42.0997 115.92 42.2315C115.92 42.3486 116.052 42.5829 116.213 42.744C116.374 42.9051 116.549 43.0368 116.608 43.0368C116.681 43.0368 117.033 42.8465 117.413 42.5976C117.882 42.3047 118.189 41.9679 118.351 41.6165C118.541 41.1479 118.556 40.9575 118.409 40.4743C118.321 40.1522 118.028 39.5665 117.779 39.1565C117.516 38.7611 116.696 37.78 115.92 36.9893C115.158 36.1986 114.426 35.5543 114.294 35.569C114.177 35.569 114.002 35.7008 113.899 35.8618ZM110.194 45.5115C109.946 45.7165 109.843 45.9361 109.858 46.2876C109.858 46.5511 110.019 47.1368 110.224 47.5761C110.429 48.0154 110.824 48.6451 111.102 48.9526C111.381 49.2747 111.82 49.6115 112.083 49.7286C112.332 49.8311 112.786 49.919 113.064 49.919C113.343 49.919 113.797 49.8311 114.06 49.7286C114.309 49.6115 114.719 49.304 114.953 49.0258C115.188 48.7476 115.539 48.1618 115.729 47.7226C115.881 47.3987 116.079 46.9476 116.244 46.5745L116.245 46.573L116.257 46.5443L116.261 46.5361C116.313 46.4178 116.361 46.3082 116.403 46.2143C116.618 45.7555 116.676 45.4773 116.579 45.3797C116.476 45.2772 116.242 45.3065 115.847 45.4676C115.524 45.5993 114.851 45.7604 114.353 45.8336C113.767 45.9215 113.094 45.9068 112.523 45.819C112.01 45.7311 111.395 45.5701 111.161 45.4529C110.927 45.3211 110.678 45.2333 110.634 45.2333C110.575 45.2333 110.385 45.3651 110.194 45.5115ZM112.186 48.6011C112.039 48.4839 111.673 48.0007 111.38 47.5175L110.824 46.6536L111.278 46.7561C111.542 46.8146 112.449 46.9025 113.328 46.9611C114.192 47.0196 114.895 47.0782 114.895 47.0929C114.895 47.1222 114.763 47.3857 114.617 47.6786C114.47 47.9861 114.192 48.3668 114.016 48.5279C113.801 48.7231 113.484 48.8207 113.064 48.8207C112.728 48.8207 112.332 48.7182 112.186 48.6011Z" fill="#0633BB"/>
<path fill-rule="evenodd" clip-rule="evenodd" d="M66.2366 72.469C66.2805 73.1132 66.1634 74.27 65.8412 76.1297C65.4752 78.3115 65.358 79.5415 65.2555 82.4261C65.1677 84.4029 65.0798 86.2186 65.0359 86.4529L66.3537 84.974L66.3097 83.3633C66.2805 82.4847 66.3683 80.7129 66.5001 79.4243C66.6319 78.1358 66.9247 76.159 67.159 75.0315C67.3933 73.904 67.818 72.1615 68.1108 71.1511C68.4037 70.1407 69.0333 68.3397 69.5165 67.1243C69.9997 65.9236 70.7758 64.1957 71.2444 63.3172C71.6983 62.4386 72.5037 61.0182 73.0162 60.1982C73.5433 59.3636 74.6708 57.7382 75.5201 56.6107C76.589 55.1904 77.8776 53.7407 79.6055 52.0129C80.9965 50.6218 82.1533 49.4796 82.1826 49.4796C82.2119 49.4796 82.783 49.8018 83.4566 50.1971C84.1155 50.5925 85.1551 51.1196 85.7555 51.3539C86.3558 51.6029 87.4101 51.9396 88.0983 52.1154C88.7866 52.2911 90.0312 52.5254 90.8805 52.6425C91.7298 52.745 93.6187 52.8914 95.0976 52.95C96.5619 53.0086 97.7626 53.0672 97.7626 53.0672C97.7773 53.0672 97.9969 54.1507 98.7437 57.8993L97.2648 59.4368C96.4448 60.2861 95.3612 61.5307 94.8487 62.2189C94.3508 62.9072 93.6919 63.8736 93.3991 64.3715C92.9891 65.0597 92.7694 65.294 92.5351 65.294C93.3002 65.294 93.716 65.294 94.6876 65.66C94.1166 65.3086 94.1019 65.2793 94.3069 64.8986C94.4094 64.6643 94.9805 63.8589 95.5516 63.0975C96.1226 62.3361 97.0305 61.1939 97.5723 60.5789C98.1287 59.9493 98.6119 59.4514 98.6851 59.4368C98.7437 59.4368 98.8169 59.5539 98.8609 59.7004C98.8901 59.8322 99.0366 60.8425 99.1537 61.9261C99.2855 63.0097 99.5344 64.5911 99.7248 65.4404C99.9298 66.2897 100.384 68.0614 100.764 69.3939C101.13 70.7264 102.17 73.9479 103.049 76.569C103.942 79.19 105.26 83.0704 105.963 85.2083C106.68 87.3461 107.72 90.5676 108.276 92.3833C108.833 94.199 109.55 96.5711 109.843 97.6547L109.962 98.0746C110.244 99.0686 110.57 100.22 110.941 101.462L110.18 101.725C109.755 101.857 108.701 102.326 106.256 103.512L105.728 102.897C105.45 102.545 104.572 101.315 103.781 100.144C102.99 98.9726 102.112 97.6108 101.819 97.1129C101.526 96.6004 101.306 96.1172 101.35 96.044C101.394 95.9708 101.511 95.8976 101.614 95.8976C101.702 95.8976 102.785 95.5022 103.986 95.019C105.201 94.5504 106.343 94.0233 106.548 93.8768C106.885 93.6133 106.9 93.5693 106.695 93.2911C106.578 93.1301 105.582 92.2368 104.498 91.329C103.415 90.4065 101.76 89.074 100.838 88.3418C99.9151 87.6243 98.5241 86.5554 97.7626 85.9843C97.0012 85.4279 95.6833 84.4908 94.8341 83.9343C93.9848 83.3779 92.9891 82.7336 92.6083 82.5286C92.213 82.309 91.9055 82.0893 91.9055 82.0308L91.2173 82.9972C91.3198 82.9972 91.8908 83.3047 92.4912 83.6854C93.0916 84.0515 94.3508 84.9008 95.2733 85.545C96.1958 86.1893 97.8505 87.3901 98.9341 88.2101C100.018 89.0447 101.599 90.2893 102.448 90.9922C103.298 91.7097 104.264 92.5004 105.23 93.2472L104.821 93.4522C104.601 93.5693 103.605 93.994 102.595 94.404C101.584 94.814 100.691 95.1508 100.618 95.1654C100.53 95.1654 100.296 94.9018 100.062 94.5797C99.8419 94.2576 99.0073 93.174 98.2166 92.1929C97.4112 91.2118 95.9908 89.6011 95.0244 88.6347C94.0726 87.6536 92.828 86.4383 92.2716 85.9258C91.7005 85.3986 91.0416 84.8129 90.3387 84.2418L89.9726 85.34C90.1044 85.4133 91.3783 86.5847 92.7841 87.9465C94.1898 89.3083 95.9762 91.1826 96.7523 92.0904C97.5283 93.0129 98.5241 94.2576 98.9634 94.8579C99.4026 95.4729 100.735 97.4497 101.936 99.2508C103.122 101.066 104.469 103.014 104.938 103.57C105.392 104.141 105.86 104.683 105.977 104.771C106.138 104.903 106.373 104.815 107.134 104.303C107.661 103.951 108.511 103.453 109.038 103.219C109.565 102.985 110.575 102.619 111.307 102.414C112.025 102.209 113.709 101.916 115.041 101.74C116.681 101.535 119.024 101.389 122.363 101.301C125.057 101.228 128.688 101.023 130.416 100.861C132.144 100.7 134.282 100.466 135.175 100.334C136.054 100.203 137.284 99.9829 137.884 99.8218L138.215 99.741L138.228 99.7376L138.23 99.7371C138.675 99.6282 139.02 99.5436 139.056 99.5436C139.099 99.5436 139.099 99.9683 139.07 100.466C139.041 101.052 139.114 101.725 139.29 102.326C139.436 102.853 139.788 103.644 140.081 104.083C140.373 104.537 140.842 105.093 141.12 105.328C141.384 105.547 141.94 105.899 142.35 106.089C142.746 106.279 143.229 106.426 143.404 106.426C143.595 106.426 143.741 106.499 143.741 106.572C143.741 106.66 143.068 107.143 142.233 107.656C141.539 108.102 139.553 109.315 137.52 110.556L137.519 110.557L136.42 111.229C134.048 112.664 131.207 114.377 130.123 115.021C129.04 115.665 127.356 116.632 126.389 117.159C125.423 117.686 123.944 118.462 123.095 118.872C122.246 119.282 120.664 119.985 119.581 120.41C118.497 120.834 116.872 121.42 115.993 121.698C115.1 121.991 113.592 122.387 112.625 122.592C111.659 122.797 110.077 123.06 109.111 123.192C108.144 123.309 106.651 123.426 105.772 123.412C104.908 123.412 103.429 123.309 102.478 123.192C101.541 123.06 100.135 122.826 99.3734 122.665C98.6119 122.489 97.2941 122.138 96.4448 121.874C95.5955 121.61 94.1166 121.025 93.1501 120.6C92.1837 120.161 90.6608 119.399 89.7823 118.887C88.8891 118.374 87.3808 117.408 86.4144 116.72C85.448 116.017 84.0569 114.948 82.0215 113.191L82.1826 114.772C82.2265 114.772 82.578 115.226 82.9587 115.768C83.354 116.31 84.1448 117.584 84.7305 118.579C85.3162 119.59 85.9312 120.615 86.4144 121.274L86.0483 121.083C85.8433 120.981 85.3455 120.659 84.9501 120.366C84.5401 120.073 83.7055 119.414 83.0758 118.887C82.3017 118.24 82.0498 118.008 81.9976 117.773L81.9483 119.312C82.0215 119.312 82.2558 119.531 82.4608 119.795C82.9587 120.366 83.6138 120.872 84.0569 121.186C84.0276 121.127 84.2766 121.244 84.6133 121.464C84.9648 121.684 85.7408 122.182 86.3412 122.592C86.9416 123.002 88.2887 123.792 89.343 124.349C90.3826 124.905 91.9641 125.681 92.8573 126.062C93.7358 126.443 95.3173 127.043 96.3716 127.409C97.4112 127.775 99.0951 128.273 100.105 128.522C101.116 128.771 102.99 129.152 104.279 129.357C106.168 129.664 107.324 129.752 110.209 129.825C112.596 129.869 114.338 129.84 115.407 129.723C116.286 129.62 117.97 129.386 119.141 129.181C120.313 128.99 122.026 128.624 122.948 128.375C123.871 128.141 125.218 127.731 125.95 127.497C126.668 127.248 127.986 126.75 128.879 126.384C129.757 126.018 131.119 125.418 131.881 125.022C132.642 124.642 134.033 123.88 134.956 123.309C135.878 122.753 137.269 121.845 138.031 121.303C138.792 120.747 139.949 119.853 140.593 119.312C141.237 118.77 142.174 117.935 142.687 117.452L143.609 116.559C143.981 116.199 144.609 115.706 144.957 115.285C145.132 115.036 145.645 114.421 146.084 113.908C146.695 113.323 147.819 111.944 147.929 111.785C149.423 109.633 150.184 108.476 150.58 107.832C150.975 107.187 151.648 106.001 152.058 105.196L152.82 103.731C158.37 102.955 159.98 102.663 160.288 102.516C160.566 102.384 160.888 102.106 161.005 101.901C161.122 101.682 161.166 101.374 161.108 101.14C161.064 100.905 160.874 100.627 160.683 100.51C160.507 100.393 159.775 100.144 159.043 99.9683L157.725 99.6461C160.112 99.0311 161.327 98.6504 161.972 98.4015C162.616 98.1526 163.29 97.8011 163.48 97.6108C163.7 97.4058 163.817 97.1129 163.817 96.7761C163.817 96.4686 163.7 96.1611 163.553 96.0147C163.407 95.8829 163.055 95.6926 162.777 95.5901L162.265 95.429C163.392 94.9311 163.846 94.6236 163.992 94.4186C164.124 94.2283 164.241 93.8622 164.241 93.6279C164.241 93.3497 164.11 93.0568 163.861 92.8226C163.539 92.5004 163.319 92.4419 162.221 92.3833L160.961 92.3101C161.913 91.6804 162.235 91.3583 162.279 91.1826C162.323 90.9922 162.323 90.6993 162.279 90.5236C162.235 90.3333 161.972 90.0551 161.708 89.894C161.357 89.6743 160.991 89.6011 160.141 89.6011C159.541 89.6011 158.575 89.7036 158.018 89.8208C157.462 89.9379 156.964 90.0404 156.92 90.0404C156.876 90.0404 156.905 89.7915 156.964 89.4986C157.022 89.1911 157.14 87.7854 157.213 86.3797C157.286 84.8129 157.286 82.8215 157.213 81.2547C157.14 79.849 156.905 77.7404 156.715 76.569C156.525 75.3975 156.188 73.7575 155.968 72.9082C155.763 72.059 155.192 70.17 154.709 68.7057C154.24 67.2268 153.845 65.7625 153.845 65.4404C153.845 65.1182 153.713 64.4593 153.552 63.9761C153.391 63.4929 153.113 62.9365 152.922 62.7315C152.747 62.5265 152.468 62.3361 152.307 62.2922C152.146 62.2482 151.883 62.0432 151.722 61.809C151.561 61.5893 150.916 60.5497 150.301 59.51C149.247 57.7529 149.174 57.5918 149.379 57.3136L148.5 56.7864L147.314 55.2929C146.655 54.4729 145.645 53.2722 145.074 52.6279C144.488 51.9836 144.078 51.4125 144.137 51.3539L143.009 50.5779C141.926 49.5382 141.032 48.7475 140.3 48.1618C139.568 47.5761 138.514 46.7854 137.957 46.39C137.401 46.0093 136.713 45.5114 136.449 45.2772C136.274 45.1317 135 44.5 134.619 44.1789C134.604 44.2082 133.974 43.8714 133.213 43.4468C132.466 43.0221 131.793 42.6121 131.719 42.5243C131.48 42.3495 130.874 41.9672 130.372 41.8361C130.358 41.8507 129.479 41.5579 128.439 41.1479C127.4 40.7525 125.76 40.1961 123.095 39.3761L122.934 38.6146C122.831 38.19 122.465 37.0186 122.114 36.0082C121.762 34.9978 121.177 33.0211 120.811 31.6153C120.444 30.2096 119.947 28.4525 119.727 27.735C119.493 27.0175 119.258 26.1828 119.214 25.9046C119.127 25.4507 119.156 25.3482 119.581 25.0261C120.034 24.6746 120.049 24.6307 119.947 23.9278C119.888 23.5032 119.537 22.6246 119.112 21.8046C118.717 21.0432 117.911 19.7253 117.34 18.876C116.784 18.0268 115.554 16.3135 114.617 15.0689C113.679 13.8243 112.42 12.3014 111.82 11.6864C111.014 10.8664 110.59 10.5443 110.209 10.471C109.931 10.4271 108.745 10.3832 107.573 10.3832C106.402 10.3832 104.557 10.4857 103.473 10.6175C102.39 10.7346 100.808 10.9982 99.9591 11.1885C99.1098 11.3935 97.9969 11.6718 97.4698 11.8182C96.9426 11.9793 95.7566 12.3746 94.8341 12.7114C93.9116 13.0482 92.4912 13.6485 91.6858 14.0439C90.8805 14.4246 89.7237 15.0689 89.1233 15.4789C88.523 15.8889 87.6444 16.5918 87.1758 17.075C86.6048 17.646 86.1216 18.305 85.7408 19.0957C85.4333 19.74 85.0233 20.7943 84.8623 21.4385C84.584 22.4635 84.5401 23.0346 84.5255 26.1243C84.5108 29.2286 84.5548 29.8289 84.8476 31.3225C85.0233 32.245 85.2576 33.2114 85.3455 33.4457C85.448 33.68 85.6823 34.1046 85.8873 34.3682C86.1069 34.6318 86.4291 34.8514 86.6194 34.8807C86.9416 34.91 87.0148 35.0418 87.3515 36.4768C87.5565 37.3407 87.6737 38.1021 87.6151 38.1607C87.5566 38.2193 87.4541 38.2046 87.3955 38.1168C87.3369 38.0289 87.0294 37.8239 86.7073 37.6482C86.3851 37.4871 85.7555 37.2529 85.3162 37.1211C84.8769 36.9893 84.3058 36.9161 84.0715 36.96C83.7348 37.0186 83.7055 37.0039 83.9251 36.9014C84.1448 36.8136 84.013 36.7696 83.4126 36.7696C82.9001 36.755 82.6951 36.7989 82.8269 36.8721C82.988 36.9746 82.9001 37.0332 82.4901 37.0918C82.168 37.1503 81.6408 37.4286 81.1723 37.7946C80.7623 38.1314 80.2937 38.5414 80.1473 38.7171C80.0008 38.8782 79.7226 39.3175 79.5323 39.7129C79.3273 40.0936 79.0637 40.8111 78.9465 41.3236C78.8294 41.8214 78.7269 42.5975 78.7269 43.0368C78.7269 43.4761 78.8294 44.2229 78.9465 44.6914C79.0637 45.1454 79.3273 45.8336 79.5176 46.2289C79.708 46.6096 80.2058 47.2979 80.6158 47.7664C81.0258 48.2204 81.3626 48.6304 81.3626 48.6743C81.3626 48.7182 80.9233 49.1575 80.3962 49.67C79.8544 50.1679 78.844 51.1782 78.1265 51.8957L78.071 51.9536C77.3863 52.6668 76.7016 53.38 76.5305 53.5797C76.398 53.7341 76.0244 54.2047 75.6039 54.7343L75.603 54.7355L75.5909 54.7507C75.4575 54.9187 75.3196 55.0924 75.1833 55.2636C74.6123 55.9957 73.719 57.2111 72.2108 59.3636C72.0427 59.6033 71.5983 60.1982 71.4348 60.535L70.2926 62.834C69.6483 64.1079 69.0919 65.089 69.0333 65.0304C68.782 65.3587 68.184 66.6997 68.184 67.1243C68.184 67.3293 67.9351 68.2079 67.6422 69.0865C67.3347 69.9797 67.0712 70.6825 67.0565 70.6679C66.954 70.9051 66.2366 72.0932 66.2366 72.469ZM110.604 11.906L110.063 11.4082C107.281 11.4521 106.051 11.4814 105.523 11.5107C104.996 11.54 103.752 11.6571 102.741 11.7889C101.731 11.906 100.252 12.1696 99.4466 12.36C98.6412 12.565 97.5869 12.8432 97.1037 12.9896C96.6205 13.1507 95.5369 13.546 94.6876 13.8828C93.8383 14.2196 92.3887 14.8932 91.4662 15.3764C90.5437 15.8743 89.4894 16.5039 89.1233 16.7821C88.7573 17.075 88.1423 17.646 87.7616 18.056C87.3808 18.466 86.8683 19.1982 86.6341 19.6814C86.3851 20.1646 86.0923 21.0139 85.9751 21.585C85.858 22.156 85.6823 23.2982 85.5944 24.1475C85.4919 25.0114 85.4626 26.3878 85.5212 27.2957C85.5651 28.1889 85.6969 29.5361 85.814 30.2975C85.9072 30.9033 86.0375 31.6481 86.1238 32.1411C86.1459 32.2678 86.1652 32.3778 86.1801 32.4646C86.268 32.8893 86.4144 33.2261 86.5169 33.2261C86.6194 33.2261 87.2637 32.7721 87.9519 32.2303C88.6401 31.6886 89.5919 30.9857 90.0751 30.6489C90.5583 30.3268 91.3491 29.8289 91.8323 29.5361C92.3155 29.2432 93.3991 28.6575 94.2483 28.2182C95.0976 27.7789 96.7084 27.0468 97.8359 26.6075C98.9634 26.1536 100.838 25.4946 102.009 25.1285C103.181 24.7625 104.894 24.2939 105.816 24.0889C106.739 23.8839 108.13 23.6203 108.891 23.5032C109.653 23.386 111.102 23.2103 112.113 23.1225C113.65 22.9907 114.163 22.9907 115.334 23.1957C116.096 23.3275 117.223 23.5764 117.823 23.7668C118.424 23.9718 118.936 24.0889 118.951 24.0596C118.98 24.0303 118.673 23.3568 118.277 22.5807C117.882 21.79 117.047 20.3843 116.403 19.4325C115.773 18.4953 114.338 16.5332 113.211 15.0689C112.083 13.59 110.912 12.1696 110.604 11.906ZM115.173 26.1682C114.748 26.0218 113.987 25.8753 113.504 25.8314C113.285 25.8049 113.057 25.7813 112.858 25.7608C112.618 25.736 112.42 25.7156 112.332 25.6996C112.171 25.685 111.205 25.7143 110.18 25.7875C109.052 25.8607 107.705 26.0511 106.812 26.2707C105.977 26.4757 104.777 26.8125 104.132 27.0175C103.488 27.2371 102.536 27.6032 102.024 27.8668C101.511 28.1157 100.808 28.555 100.486 28.8478C100.149 29.1261 99.7101 29.6532 99.5051 30.0193C99.2855 30.3707 99.0073 31.0296 98.8609 31.4689C98.6559 32.0693 98.5973 32.7136 98.6119 33.9582C98.6119 35.1296 98.7291 36.2132 98.9926 37.5457C99.1976 38.5854 99.3734 39.7421 99.3734 40.1082C99.3734 40.4889 99.2562 40.9575 99.0951 41.2064C98.9487 41.4407 98.6705 41.6896 98.4801 41.7482C98.2898 41.8068 97.9823 41.8654 97.8066 41.8654C97.6162 41.8654 97.3526 41.7336 97.2208 41.5725C97.0744 41.4114 96.8694 41.2796 96.7816 41.2796C96.6791 41.2796 96.5912 41.1771 96.5912 41.06C96.5912 40.9429 96.3423 40.6793 96.0494 40.4743C95.7419 40.2839 95.3026 40.0789 95.0537 40.0204C94.7316 39.9471 94.4094 40.0204 93.8969 40.2693C93.5016 40.4596 93.0183 40.8257 92.8426 41.06C92.6669 41.2943 92.3741 41.9239 92.1983 42.4511C91.9494 43.1539 91.8908 43.6225 91.9348 44.2814C91.9787 44.7646 92.1544 45.4675 92.3301 45.8629C92.4912 46.2436 92.9158 46.8586 93.2673 47.2246C93.8676 47.8689 93.9116 47.8982 94.9073 47.9714C95.4784 48.0154 96.3276 47.9714 96.8109 47.8836C97.2941 47.7957 97.7041 47.7371 97.7187 47.7664C97.7334 47.7811 97.9823 48.8793 98.2605 50.2118C98.5387 51.5443 99.1391 54.3997 99.6076 56.5814C100.076 58.7632 100.442 60.74 100.428 60.9743C100.417 61.1428 100.407 61.4856 100.396 61.8282L100.392 61.974C100.389 62.0581 100.386 62.1406 100.384 62.2189C100.384 62.6582 100.515 63.7125 100.677 64.5618C100.852 65.4111 101.087 66.4654 101.189 66.9047C101.306 67.3439 101.438 67.8857 101.482 68.12C101.555 68.4568 101.804 68.6325 103.078 69.2475C103.898 69.6429 105.231 70.1407 106.036 70.3457C107.076 70.6093 107.896 70.7118 108.818 70.7118C109.55 70.7118 110.473 70.624 110.868 70.5068C111.278 70.3897 111.673 70.3311 111.747 70.3897C111.834 70.4482 111.849 70.419 111.791 70.3018C111.717 70.1993 111.761 70.1261 111.893 70.1261C112.01 70.1261 112.537 69.9064 113.064 69.6575C113.577 69.3939 113.972 69.1304 113.943 69.0718C113.899 68.9986 114.075 68.8668 114.309 68.7789C114.558 68.6764 114.763 68.5007 114.748 68.4129C114.748 68.3104 114.851 68.2225 114.968 68.2225C115.085 68.2225 115.232 68.1054 115.305 67.9736C115.363 67.8418 115.627 67.4904 115.891 67.2122C116.154 66.9193 116.608 66.2311 116.886 65.66L117.399 64.635C116.286 62.585 115.715 61.6039 115.393 61.1207C115.21 60.8341 115.033 60.563 114.91 60.3745C114.86 60.2977 114.818 60.2346 114.789 60.1898C114.77 60.1592 114.756 60.1371 114.748 60.125C114.704 60.0664 114.456 59.9639 114.177 59.9054C113.723 59.8029 113.665 59.7297 113.255 58.5582C113.021 57.87 112.698 56.8597 112.537 56.2886C112.376 55.7175 112.288 55.2197 112.362 55.1464C112.42 55.0879 113.079 54.8682 113.797 54.6632C114.529 54.4582 115.642 54.0336 116.286 53.7114C116.93 53.4039 117.867 52.8182 118.38 52.4082C118.878 52.0129 119.624 51.2368 120.034 50.695C120.444 50.1386 121.03 49.1721 121.352 48.5279C121.66 47.8836 122.07 46.8293 122.231 46.185C122.465 45.3064 122.538 44.6036 122.538 43.3296C122.538 42.085 122.436 41.2211 122.158 40.035C121.967 39.1418 121.499 37.5604 121.147 36.5207C120.781 35.4811 120.342 34.2364 120.181 33.7825C119.932 33.0943 119.8 32.9186 119.478 32.8307C119.244 32.7721 118.57 32.7428 117.97 32.7575C117.369 32.7721 116.681 32.8014 116.432 32.8161C116.052 32.86 115.993 32.8161 115.964 32.4646C115.92 32.1278 116.008 32.0107 116.403 31.8203C116.754 31.6446 117.179 31.6007 118.131 31.63L119.405 31.6886C118.848 30.2096 118.438 29.3603 118.131 28.8332C117.823 28.3061 117.208 27.5593 116.769 27.1493C116.227 26.6514 115.715 26.3293 115.173 26.1682ZM125.218 41.1332C124.413 40.8843 123.666 40.6939 123.549 40.6939C123.417 40.6939 123.373 40.7964 123.417 40.9429C123.461 41.0746 123.534 41.7775 123.607 42.5096C123.681 43.4029 123.666 44.2229 123.549 45.0136C123.446 45.6579 123.227 46.6389 123.066 47.21C122.904 47.7811 122.509 48.7329 122.187 49.3332C121.865 49.9336 121.235 50.8854 120.781 51.4564C120.313 52.0129 119.522 52.8182 118.995 53.2575C118.468 53.6822 117.531 54.2825 116.916 54.5754C116.286 54.8682 115.773 55.1464 115.773 55.1904C115.773 55.2343 116.081 55.4247 116.462 55.615C116.857 55.8054 117.984 56.435 118.995 57.0207C120.005 57.6064 121.147 58.1482 121.557 58.2507C121.967 58.3386 123.314 58.5436 124.559 58.7047C125.804 58.8657 127.327 59.1 127.927 59.2318C128.527 59.3489 129.684 59.6125 130.489 59.8175C131.295 60.0225 132.686 60.4618 133.564 60.7839C134.443 61.1061 135.644 61.6039 136.2 61.8968C136.757 62.175 137.591 62.6436 138.031 62.9218C138.244 63.0641 138.533 63.2548 138.83 63.4502L138.834 63.4528C139.147 63.6587 139.467 63.8697 139.714 64.0347C140.198 64.3568 140.959 64.9132 141.398 65.2793C141.838 65.6454 142.277 66.0554 142.379 66.1725C142.482 66.2897 142.57 66.3189 142.57 66.2457C142.57 66.1725 142.702 66.3189 142.863 66.5825C143.038 66.8607 143.229 67.0218 143.346 66.9632C143.448 66.9047 143.932 67.3 144.517 67.915C145.132 68.574 145.454 69.0279 145.396 69.145C145.318 69.2622 145.342 69.2866 145.469 69.2182C145.572 69.145 145.791 69.2622 146.011 69.5404C146.216 69.7747 146.377 70.0236 146.377 70.0968C146.377 70.1554 146.597 70.4336 146.86 70.7118C147.138 70.99 147.841 71.8832 148.442 72.6886C149.042 73.494 149.964 74.8118 150.492 75.6172C151.033 76.4225 151.853 77.7404 152.337 78.5458C152.82 79.3511 153.786 81.0497 154.489 82.3236C155.177 83.5829 155.748 84.6665 155.748 84.7397C155.748 84.7983 155.851 84.974 155.983 85.135C156.188 85.3986 156.202 85.1936 156.129 82.47C156.071 80.6104 155.924 78.7361 155.734 77.4915C155.573 76.3786 155.251 74.6507 155.016 73.6404C154.782 72.63 154.387 71.1511 154.138 70.3457C153.874 69.5404 153.347 68.0761 152.952 67.095C152.556 66.0993 151.897 64.6204 151.487 63.8004C151.077 62.9657 150.257 61.5014 149.657 60.535C149.071 59.5686 148.046 58.0457 147.373 57.1525C146.699 56.2447 145.469 54.7364 144.62 53.7847C143.771 52.8329 142.35 51.3979 141.472 50.6072C140.593 49.8018 139.099 48.5864 138.177 47.8982C137.254 47.1954 135.834 46.2143 135.029 45.7018C134.223 45.2039 132.671 44.34 131.588 43.7836C130.504 43.2271 128.952 42.5096 128.147 42.1729C127.341 41.8507 126.023 41.3821 125.218 41.1332ZM115.451 56.3032C114.822 56.0104 114.148 55.7761 113.943 55.7761C113.738 55.7761 113.577 55.8347 113.577 55.9225C113.577 56.0104 113.665 56.2886 113.767 56.5522C113.884 56.8011 114.499 57.8114 115.144 58.7779C115.788 59.7443 116.74 61.2964 117.267 62.2189C117.794 63.1414 118.482 64.43 118.804 65.0743C119.127 65.7186 119.727 67.0365 120.137 68.0029C120.547 68.9693 121.162 70.5214 121.499 71.444C121.598 71.729 121.706 72.0363 121.813 72.3393L121.814 72.3436L121.816 72.3482C122.052 73.0225 122.281 73.6741 122.392 74.0065C122.538 74.4897 122.831 75.4415 123.051 76.1297C123.256 76.8179 123.651 78.1943 123.915 79.2047C124.193 80.215 124.676 82.1918 125.013 83.5975C125.335 85.0033 125.76 86.9508 125.965 87.9172C126.155 88.8836 126.682 91.7975 127.122 94.3893C127.561 96.9958 127.927 99.2801 127.927 99.4851C127.927 99.7047 128.029 99.8951 128.191 99.9536C128.322 99.9976 129.523 99.9243 130.856 99.7926C132.188 99.6461 133.316 99.4851 133.389 99.4411C133.447 99.3826 133.623 98.5479 133.769 97.5815L133.827 97.2379C133.982 96.2995 134.183 95.0924 134.326 94.404C134.472 93.6279 134.56 92.9543 134.516 92.925C134.472 92.8811 133.023 92.4126 131.295 91.8708C129.567 91.3436 128 90.8018 127.824 90.6847C127.634 90.5675 127.488 90.3626 127.488 90.2308C127.488 90.0843 127.707 88.9861 127.986 87.7708L128.044 87.5188L128.044 87.5163L128.047 87.506C128.332 86.2731 128.785 84.3192 129.098 83.0118C129.435 81.6061 129.933 79.4243 130.211 78.1797C130.489 76.935 130.987 74.68 131.309 73.1718C131.617 71.649 131.881 70.3164 131.881 70.1993C131.881 70.0822 131.324 69.3061 130.665 68.4861C129.992 67.6514 128.747 66.2604 127.912 65.3818C127.078 64.5032 125.54 63.0829 124.486 62.2189C123.446 61.355 122.026 60.2568 121.338 59.7736C120.649 59.2904 119.302 58.4264 118.336 57.8554C117.369 57.2843 116.066 56.5814 115.451 56.3032ZM124.925 59.8175L122.729 59.4661L123.168 59.7882C123.402 59.9493 124.105 60.4911 124.706 60.9743C125.306 61.4575 126.887 62.9365 128.22 64.269C129.552 65.6015 131.134 67.3147 131.719 68.0761C132.305 68.8375 132.847 69.5989 132.906 69.76C132.979 69.9357 132.92 70.6093 132.744 71.444C132.672 71.785 132.574 72.2583 132.468 72.7638L132.467 72.7685L132.467 72.7704C132.338 73.3915 132.198 74.0605 132.086 74.5922C132.027 74.8665 131.96 75.1881 131.888 75.529C131.707 76.3891 131.5 77.3726 131.353 78.0333C131.148 78.9558 130.519 81.6647 129.962 84.0368C129.406 86.409 128.849 88.6933 128.732 89.0886C128.601 89.4986 128.513 89.8354 128.513 89.8647C128.513 89.8793 128.732 89.9672 128.996 90.055C129.245 90.1283 130.812 90.6261 132.466 91.1533C134.121 91.6804 135.541 92.1783 135.614 92.2515C135.717 92.3393 135.585 93.3643 135.263 95.2826C134.985 96.864 134.736 98.4161 134.707 98.7236C134.663 99.2215 134.692 99.2654 135.029 99.2654C135.234 99.2654 136.054 99.1336 136.859 98.9726C137.664 98.8115 138.66 98.5186 139.056 98.3136C139.685 98.0061 139.846 97.8304 140.168 97.1129C140.388 96.6443 140.696 95.9708 140.842 95.6047C141.003 95.2386 141.354 94.3893 141.633 93.7011C141.911 93.0129 142.233 92.0904 142.35 91.6511C142.467 91.2118 142.628 90.0551 142.716 89.0886C142.789 88.1222 142.892 87.0972 142.936 86.819C142.98 86.5408 143.156 86.1454 143.346 85.955C143.624 85.6622 143.771 85.6183 144.444 85.6622C145.044 85.7061 145.206 85.6768 145.206 85.5011C145.206 85.384 145.103 84.4908 144.971 83.5243C144.854 82.5579 144.62 80.9765 144.459 80.01C144.312 79.0436 144.181 78.0772 144.181 77.8575C144.181 77.5647 144.254 77.4475 144.444 77.4329C144.649 77.4329 144.649 77.4036 144.4 77.3011L144.107 77.1693C144.561 77.1547 144.81 77.2279 144.942 77.3304C145.132 77.4768 145.293 78.1211 145.557 79.7904C145.762 81.035 146.055 83.1436 146.231 84.4761C146.392 85.8086 146.67 87.6536 146.831 88.5761C147.065 89.8354 147.124 90.6847 147.094 91.9C147.065 92.8079 147.051 93.5547 147.08 93.5547C147.089 93.5547 147.197 93.5025 147.352 93.4272L147.444 93.383L147.539 93.337L147.666 93.2765C147.958 93.1301 149.027 92.6615 150.038 92.2661C151.048 91.8561 152.688 91.2851 153.698 90.9922C154.709 90.6847 155.617 90.3625 155.704 90.2747C155.822 90.1868 155.924 89.5426 155.983 88.7225L156.056 87.3315C153.625 82.9093 152.322 80.6397 151.604 79.4243C150.887 78.2236 149.774 76.4665 149.144 75.544C148.515 74.6215 147.314 72.9961 146.479 71.9565C145.63 70.9168 144.195 69.3207 143.287 68.4422C142.365 67.5636 140.988 66.3629 140.227 65.7772C139.466 65.2061 138.206 64.3568 137.445 63.8882C136.683 63.4343 135.527 62.8047 134.882 62.4972C134.238 62.1897 132.993 61.7064 132.1 61.4136C131.222 61.1207 129.728 60.7254 128.806 60.5204C127.883 60.33 126.141 60.0079 124.925 59.8175ZM144.913 86.9215C144.708 86.775 144.429 86.6579 144.283 86.6579C144.137 86.6579 144.005 86.7458 143.961 86.8483C143.932 86.9508 143.873 87.8147 143.844 88.7811C143.8 89.7475 143.653 91.0068 143.507 91.5633C143.375 92.1343 142.994 93.2179 142.687 93.9793C142.365 94.7554 141.838 96.0293 141.516 96.8347C141.193 97.6401 140.769 98.6358 140.578 99.0311C140.3 99.6168 140.227 99.9976 140.227 100.861C140.227 101.725 140.315 102.135 140.608 102.765C140.813 103.219 141.252 103.863 141.589 104.215C141.926 104.566 142.497 104.991 142.863 105.181C143.229 105.357 143.785 105.562 144.107 105.606C144.62 105.694 144.81 105.635 145.791 105.049C146.392 104.698 147.285 104.229 147.768 104.01C148.251 103.805 149.232 103.468 149.964 103.263C150.682 103.073 152.864 102.677 154.797 102.399C156.729 102.121 158.721 101.828 159.219 101.74C159.731 101.667 160.141 101.535 160.141 101.447C160.141 101.374 159.892 101.242 159.585 101.169C159.292 101.096 157.916 100.92 156.554 100.788C155.177 100.656 154.05 100.539 154.05 100.525C154.04 100.515 154.016 100.421 153.983 100.292L153.962 100.21L153.95 100.166L153.933 100.1C153.859 99.734 153.889 99.6754 154.313 99.5583C154.366 99.5436 154.443 99.5226 154.539 99.4965L154.722 99.4473L154.905 99.398L155.035 99.3629L155.037 99.3623C155.4 99.2646 155.84 99.1459 156.261 99.0311C157.066 98.8261 158.516 98.4161 159.482 98.1379C160.449 97.8597 161.591 97.4643 162.001 97.274C162.44 97.069 162.748 96.8347 162.718 96.7322C162.689 96.6297 162.499 96.5711 162.25 96.5858C162.016 96.615 160.961 96.8201 159.922 97.069C158.867 97.3033 156.964 97.6547 155.675 97.8597C154.387 98.0501 153.288 98.1818 153.215 98.1526C153.157 98.1086 153.113 97.889 153.113 97.6401C153.113 97.2593 153.171 97.1861 153.654 97.069C153.833 97.0265 154.135 96.9494 154.46 96.8665C154.695 96.8066 154.942 96.7435 155.163 96.6883C155.69 96.5711 157.301 96.0586 158.75 95.59C160.2 95.1068 161.811 94.5065 162.338 94.2429C162.85 93.9793 163.275 93.7011 163.246 93.6133C163.231 93.5401 162.836 93.4522 162.382 93.4229C161.84 93.3936 160.756 93.5401 159.409 93.8329C158.238 94.0672 156.729 94.404 156.041 94.565C155.353 94.7408 154.24 95.0043 153.552 95.1508C152.6 95.3704 152.278 95.3851 152.205 95.2533C152.146 95.1654 152.088 94.9458 152.088 94.7847C152.088 94.5358 152.424 94.3747 154.387 93.7158C155.661 93.2911 157.491 92.6175 158.457 92.2222C159.424 91.8268 160.449 91.2997 160.727 91.0654L161.239 90.6261C159.878 90.6115 158.823 90.7433 158.018 90.919C157.213 91.0801 155.924 91.3729 155.163 91.5926C154.401 91.7976 153.039 92.2368 152.161 92.559C151.268 92.8811 149.584 93.5986 148.383 94.1551C147.197 94.7115 146.026 95.1508 145.791 95.1508C145.542 95.1508 145.352 95.0922 145.352 95.0043C145.352 94.9311 145.498 94.3161 145.674 93.6572C145.908 92.7933 146.011 92.0611 145.996 91.0508C145.996 90.0258 145.894 89.3376 145.63 88.4297C145.381 87.5511 145.176 87.1265 144.913 86.9215ZM151.18 104.639L151.502 104.083C150.989 104.112 150.374 104.244 149.818 104.405C149.247 104.566 148.251 104.947 147.578 105.269C146.919 105.591 146.377 105.869 146.377 105.884C146.377 105.899 146.172 107.231 145.923 108.842C145.674 110.453 145.44 112.122 145.381 112.546C145.323 112.971 145.279 113.308 145.279 113.323C145.279 113.323 145.777 112.678 146.392 111.888C147.007 111.097 147.827 109.999 148.222 109.428C148.632 108.871 149.379 107.685 149.906 106.792C150.433 105.913 151.004 104.947 151.18 104.639ZM145.059 107.421C145.059 107.363 145.015 107.319 144.942 107.319C144.883 107.319 144.049 107.802 143.082 108.388C142.116 108.974 140.271 110.101 138.982 110.892C137.694 111.683 135.776 112.854 134.736 113.484L134.38 113.701L134.378 113.702C133.493 114.243 132.816 114.657 132.803 114.67C132.774 114.699 132.598 115.797 132.408 117.115C132.203 118.448 131.881 120.498 131.661 121.654C131.456 122.826 131.295 123.865 131.295 123.968C131.295 124.085 131.676 123.939 132.276 123.617C132.832 123.324 133.828 122.753 134.516 122.343C135.204 121.933 136.347 121.171 137.079 120.659C137.796 120.132 139.056 119.18 139.861 118.521C140.666 117.877 141.896 116.778 142.584 116.09L143.844 114.845C144.356 112.122 144.62 110.482 144.781 109.428L144.822 109.135L144.892 108.644L144.892 108.64C144.988 107.966 145.059 107.465 145.059 107.421ZM130.856 120.893C130.856 120.585 130.973 119.502 131.134 118.477L131.134 118.473C131.281 117.449 131.441 116.324 131.485 115.988L131.501 115.812C131.524 115.555 131.541 115.358 131.529 115.358C131.52 115.358 131.377 115.449 131.171 115.58L131.17 115.581L130.973 115.706L130.852 115.782L130.782 115.826L130.05 116.28C130.226 118.462 130.328 119.517 130.387 120.044C130.446 120.556 130.563 121.083 130.665 121.215C130.812 121.405 130.841 121.347 130.856 120.893ZM86.5316 118.082C85.7848 117.554 85.1258 117.115 85.0819 117.115C85.0233 117.115 85.1258 117.291 85.2723 117.51C85.4333 117.745 86.0483 118.814 86.6341 119.897C87.2198 120.981 87.8494 122.02 88.0105 122.211C88.1862 122.401 88.8744 122.87 89.5626 123.265C90.2508 123.66 91.3051 124.202 91.9055 124.48C92.5058 124.759 93.6333 125.257 94.3948 125.579C95.1562 125.901 96.4155 126.355 97.1769 126.604C97.9383 126.853 99.3587 127.248 100.325 127.497C101.292 127.731 102.902 128.068 103.913 128.229C104.923 128.39 106.504 128.595 107.427 128.683C108.349 128.756 110.121 128.829 111.351 128.829C112.567 128.829 113.577 128.8 113.577 128.756C113.577 128.712 113.152 127.775 112.64 126.662C112.127 125.564 111.659 124.495 111.6 124.29C111.498 123.939 111.454 123.924 110.809 124.041C110.443 124.1 109.213 124.217 108.086 124.305C106.958 124.393 105.318 124.437 104.425 124.393C103.547 124.349 102.097 124.202 101.204 124.07C100.325 123.939 98.9633 123.675 98.2019 123.485C97.4405 123.294 96.1226 122.884 95.2733 122.592C94.4241 122.299 92.9744 121.698 92.0519 121.259C91.1294 120.82 89.8116 120.146 89.1233 119.751C88.4351 119.355 87.2637 118.609 86.5316 118.082ZM114.573 124.319C114.514 123.455 114.499 123.412 114.163 123.426C113.958 123.441 113.489 123.499 113.108 123.573L112.406 123.704C113.445 125.915 113.928 127.014 114.148 127.585L114.529 128.61C114.602 126.003 114.602 124.832 114.573 124.319Z" fill="#0633BB"/>
<path d="M106.329 13.2532C106.094 13.2825 105.538 13.3411 105.113 13.385L104.352 13.4582C104.689 14.7614 104.835 15.4204 104.894 15.7572L105.011 16.3575C104.103 16.6064 103.429 16.7236 102.917 16.7822C102.346 16.8554 102.009 16.9725 102.009 17.0897C102.009 17.1775 102.17 17.7486 102.375 18.3343C102.58 18.9054 102.741 19.5057 102.741 19.6522C102.741 19.784 102.814 19.9011 102.888 19.9011C102.961 19.9011 103.151 19.8425 103.298 19.7693C103.429 19.6961 104.044 19.5643 104.645 19.4911C105.421 19.3886 105.772 19.4032 105.846 19.5204C105.904 19.6082 106.036 20.2525 106.138 20.9554C106.314 22.0975 106.358 22.2147 106.622 22.1561C106.783 22.1122 107.251 22.0243 107.647 21.9511C108.057 21.8632 108.789 21.8047 109.301 21.8047C110.092 21.8047 110.194 21.7754 110.136 21.5557C110.107 21.4093 109.975 20.809 109.843 20.2379C109.726 19.6522 109.623 19.0518 109.623 18.92C109.623 18.6857 109.843 18.6418 111.19 18.5393L111.379 18.5236C112.169 18.4578 112.786 18.4065 112.786 18.3929C112.801 18.3782 112.625 17.8072 112.406 17.1189L111.996 15.8743C109.404 15.9036 109.213 15.8743 109.843 15.8157L110.722 15.7425L108.701 15.5814L107.91 13.2386C107.032 13.2093 106.563 13.2239 106.329 13.2532Z" fill="#0633BB"/>
<path fill-rule="evenodd" clip-rule="evenodd" d="M107.544 32.7722C107.324 32.8454 106.958 32.9918 106.739 33.1236C106.519 33.2408 106.065 33.6215 105.743 33.9436C105.201 34.5 105.172 34.5733 105.333 34.91C105.436 35.115 105.567 35.2761 105.626 35.2761C105.699 35.2761 106.007 35.0565 106.329 34.7929C106.651 34.5147 107.134 34.1925 107.383 34.0461C107.647 33.9143 108.203 33.7679 108.628 33.7093C109.038 33.6361 109.36 33.5482 109.36 33.4897C109.345 33.4165 109.331 33.2115 109.331 33.0065C109.331 32.6697 109.287 32.6404 108.628 32.655C108.247 32.655 107.764 32.7136 107.544 32.7722ZM113.899 35.8618C113.738 36.1254 113.87 36.3011 115.041 37.5897C115.773 38.3658 116.593 39.3468 116.872 39.7715C117.15 40.1815 117.399 40.6793 117.413 40.8697C117.428 41.06 117.369 41.309 117.282 41.4261C117.194 41.5433 116.857 41.7336 116.52 41.8361C116.169 41.9386 115.92 42.0997 115.92 42.2315C115.92 42.3486 116.052 42.5829 116.213 42.744C116.374 42.9051 116.549 43.0368 116.608 43.0368C116.681 43.0368 117.033 42.8465 117.413 42.5976C117.882 42.3047 118.189 41.9679 118.351 41.6165C118.541 41.1479 118.556 40.9575 118.409 40.4743C118.321 40.1522 118.028 39.5665 117.779 39.1565C117.516 38.7611 116.696 37.78 115.92 36.9893C115.158 36.1986 114.426 35.5543 114.294 35.569C114.177 35.569 114.002 35.7008 113.899 35.8618ZM110.194 45.5115C109.946 45.7165 109.843 45.9361 109.858 46.2876C109.858 46.5511 110.019 47.1368 110.224 47.5761C110.429 48.0154 110.824 48.6451 111.102 48.9526C111.381 49.2747 111.82 49.6115 112.083 49.7286C112.332 49.8311 112.786 49.919 113.064 49.919C113.343 49.919 113.797 49.8311 114.06 49.7286C114.309 49.6115 114.719 49.304 114.953 49.0258C115.188 48.7476 115.539 48.1618 115.729 47.7226C115.881 47.3987 116.079 46.9476 116.244 46.5745L116.245 46.573L116.257 46.5443L116.261 46.5361C116.313 46.4178 116.361 46.3082 116.403 46.2143C116.618 45.7555 116.676 45.4773 116.579 45.3797C116.476 45.2772 116.242 45.3065 115.847 45.4676C115.524 45.5993 114.851 45.7604 114.353 45.8336C113.767 45.9215 113.094 45.9068 112.523 45.819C112.01 45.7311 111.395 45.5701 111.161 45.4529C110.927 45.3211 110.678 45.2333 110.634 45.2333C110.575 45.2333 110.385 45.3651 110.194 45.5115ZM111.38 47.5175C111.673 48.0007 112.039 48.4839 112.186 48.6011C112.332 48.7182 112.728 48.8207 113.064 48.8207C113.484 48.8207 113.801 48.7231 114.016 48.5279C114.192 48.3668 114.47 47.9861 114.617 47.6786C114.763 47.3857 114.895 47.1222 114.895 47.0929C114.895 47.0782 114.192 47.0196 113.328 46.9611C112.449 46.9025 111.542 46.8146 111.278 46.7561L110.824 46.6536L111.38 47.5175Z" fill="#0633BB"/>
</svg>
