<svg width="100" height="100" viewBox="0 0 100 100" fill="none" xmlns="http://www.w3.org/2000/svg">
<path fill-rule="evenodd" clip-rule="evenodd" d="M52.2328 21.0313C52.207 21.0572 52.1859 22.4358 52.1859 24.0951V27.1118H52.4495H52.713L52.6959 24.0676L52.6788 21.0235L52.4793 21.0039C52.3695 20.9931 52.2586 21.0055 52.2328 21.0313ZM22.0015 23.1461L21.983 23.9195L21.2106 23.9381L20.4383 23.9566V24.2178V24.479H21.2271H22.0158V25.2688C22.0158 25.9768 22.0277 26.0587 22.1309 26.0596C22.1941 26.06 22.3124 26.0783 22.3938 26.1001C22.5414 26.1397 22.5417 26.1385 22.5417 25.3094V24.479H23.3304H24.1192V24.2157V23.9524H23.3304H22.5417V23.1626V22.3728H22.2809H22.02L22.0015 23.1461ZM37.7691 22.6799C37.6111 22.8382 37.8292 23.0975 39.7136 24.9913C40.8072 26.0904 41.7867 27.0344 41.8903 27.0892C42.1239 27.2127 42.2242 27.1318 42.1661 26.8668C42.1361 26.7301 41.5449 26.0912 40.1196 24.6553C38.1671 22.6882 37.9462 22.5026 37.7691 22.6799ZM64.1638 24.6953C63.0348 25.8279 62.1111 26.7881 62.1111 26.8291C62.1111 27.0087 62.2026 27.1118 62.3621 27.1118C62.4989 27.1118 62.9341 26.7114 64.5262 25.1207C66.4082 23.2405 66.7101 22.886 66.6 22.6854C66.5851 22.6582 66.4927 22.636 66.3947 22.636C66.2483 22.636 65.8488 23.0049 64.1638 24.6953ZM25.3115 29.8152C24.7795 29.9203 24.1979 30.3851 23.9269 30.9217C23.6683 31.4337 23.6576 31.6881 23.6575 37.3533C23.6575 40.3724 23.643 42.8427 23.6254 42.8427C23.5816 42.8427 23.0993 41.8632 22.4426 40.4402C20.6181 36.4875 20.6472 36.5395 20.0959 36.2549C19.8209 36.113 19.1479 36.0743 19.2286 36.2051C19.2565 36.2502 19.2468 36.2633 19.2045 36.2371C19.133 36.1928 18.5817 36.4223 17.2504 37.0507C16.8528 37.2384 16.3721 37.4632 16.1823 37.5503C15.3677 37.9243 15.1089 38.044 14.5524 38.3045C13.5066 38.7942 12.6292 39.2031 9.72434 40.555C6.58791 42.0146 5.72474 42.4335 5.50073 42.6046C5.14895 42.8733 4.9699 43.2867 5.00414 43.7514C5.03313 44.1448 5.02005 44.1146 6.94863 48.2399C7.36332 49.1268 7.78544 50.0598 7.8868 50.3132C8.19514 51.0845 9.30886 53.4504 9.5376 53.8202C9.70331 54.088 9.83247 54.2069 10.0998 54.3379C10.6645 54.6146 11.0399 54.5314 12.6343 53.7767C13.0041 53.6017 13.7059 53.2729 14.194 53.0461C14.682 52.8192 15.318 52.5231 15.6072 52.3881C15.8964 52.253 16.1995 52.1213 16.2809 52.0955C16.3623 52.0696 16.4288 52.0209 16.4288 51.9872C16.4288 51.9534 16.4628 51.9258 16.5044 51.9258C16.5735 51.9258 18.4552 51.0741 19.2113 50.7005C19.386 50.6142 19.5672 50.5436 19.6141 50.5436C19.6609 50.5436 19.7321 50.5039 19.7722 50.4555C19.8123 50.407 19.9639 50.3318 20.1089 50.2883C20.2539 50.2448 20.3726 50.1808 20.3726 50.146C20.3726 50.1113 20.4096 50.0826 20.4548 50.0823C20.5 50.082 20.8623 49.9313 21.2599 49.7473C22.6639 49.098 23.5507 48.7006 23.5958 48.7006C23.6208 48.7006 23.638 53.2101 23.6338 58.7216C23.6277 66.8492 23.6428 68.8173 23.7138 69.1376C23.8749 69.8644 24.3847 70.5137 25.0204 70.8018C25.2541 70.9078 26.7047 70.9153 48.4874 70.9237C61.2573 70.9286 71.7503 70.9499 71.8051 70.971C71.8868 71.0024 71.9063 71.1679 71.9129 71.8835C71.9173 72.3643 71.9395 73.1723 71.9622 73.6791C72.0019 74.5668 72.0088 74.6014 72.1496 74.6214C72.2337 74.6334 72.8166 74.3885 73.5232 74.0443C74.1983 73.7153 74.7596 73.4552 74.7705 73.4662C74.7901 73.4858 75.2795 74.8221 76.1465 77.2234C76.3928 77.9057 76.6308 78.4779 76.6753 78.495C76.7689 78.531 77.0804 78.3787 77.952 77.8708C78.2954 77.6706 78.887 77.3263 79.2666 77.1056C80.0474 76.6516 80.1188 76.5368 79.8132 76.2272C79.7114 76.124 79.5953 75.9824 79.5552 75.9125C79.5151 75.8426 79.451 75.7854 79.4128 75.7854C79.3746 75.7854 79.3211 75.7632 79.294 75.736C79.2669 75.7089 79.2838 75.6866 79.3315 75.6866C79.3925 75.6866 79.3825 75.647 79.2981 75.5534C79.2049 75.4504 79.1645 75.4392 79.1192 75.5041C79.0815 75.5582 79.0755 75.5354 79.1024 75.4398C79.1318 75.3352 79.116 75.2917 79.0486 75.2917C78.9962 75.2917 78.9378 75.2325 78.9189 75.1601C78.9 75.0877 78.8342 75.0285 78.7728 75.0285C78.6994 75.0285 78.6742 74.9938 78.6995 74.9277C78.7247 74.8622 78.6819 74.8014 78.5772 74.7535C78.4887 74.7132 78.4309 74.6563 78.4489 74.6272C78.4669 74.5981 78.4215 74.5422 78.3482 74.5029C78.2749 74.4636 78.2149 74.3915 78.2149 74.3427C78.2149 74.2939 78.1528 74.2377 78.0768 74.2178C78.0009 74.1979 77.957 74.1521 77.9793 74.1159C78.0205 74.0492 77.9074 73.9465 77.7877 73.942C77.7515 73.9406 77.7306 73.8883 77.7413 73.8258C77.7518 73.7632 77.7297 73.7084 77.692 73.7038C77.6542 73.6993 77.5963 73.6919 77.5631 73.6874C77.4679 73.6744 77.3957 73.5804 77.4809 73.5804C77.5231 73.5804 77.5576 73.5508 77.5576 73.5146C77.5576 73.4784 77.5132 73.4488 77.459 73.4488C77.4048 73.4488 77.3604 73.4036 77.3604 73.3484C77.3604 73.2932 77.2801 73.2175 77.1819 73.1801C77.042 73.1269 77.0238 73.0995 77.0975 73.0539C77.1713 73.0082 77.153 72.9809 77.0131 72.9276C76.9149 72.8902 76.8346 72.8177 76.8346 72.7664C76.8346 72.715 76.7902 72.656 76.736 72.6351C76.4891 72.5403 76.6887 72.3809 77.7055 71.8609C78.7567 71.3235 79.0694 71.1094 79.0694 70.9272C79.0694 70.8765 78.9363 70.7508 78.7736 70.6479C78.6109 70.5449 78.4778 70.4373 78.4778 70.4089C78.4778 70.3805 78.5662 70.1864 78.6742 69.9778C78.9677 69.4107 79.0026 68.8564 79.0032 64.7441C79.0036 61.5608 79.0165 61.0747 79.1002 61.0747C79.2485 61.0747 80.7755 61.6463 85.0837 63.3144C90.9482 65.5851 90.7049 65.5096 91.0953 65.1806C91.4006 64.9233 91.2371 65.3111 93.2013 60.1861C93.5205 59.3535 93.979 58.1688 94.2204 57.5533C94.8727 55.8899 94.9884 55.5427 94.9991 55.2167C95.0146 54.7492 94.8322 54.5543 94.1057 54.2626C93.5777 54.0505 87.7302 51.787 83.8677 50.2997C82.3743 49.7246 81.519 49.4246 81.3729 49.4246C81.1858 49.4246 80.7815 49.7529 80.6495 50.0119C80.5142 50.2774 79.4086 53.148 79.2659 53.6042C79.2206 53.749 79.1505 53.9267 79.11 53.9991C79.0555 54.0967 79.0281 51.1971 79.0037 42.7768L78.9708 31.423L78.7655 30.9951C78.5125 30.4677 78.2254 30.1704 77.7548 29.9481L77.3933 29.7775L51.4957 29.768C37.24 29.7627 25.4693 29.784 25.3115 29.8152ZM25.3409 30.3526C25.1782 30.3958 24.9567 30.5447 24.7385 30.7574C24.1858 31.2963 24.1803 31.3348 24.2006 34.478L24.2178 37.1321L40.8475 37.142C49.9938 37.1475 62.2023 37.1437 67.9775 37.1337L78.4778 37.1156V34.525C78.4778 33.0645 78.449 31.7799 78.4117 31.58C78.3223 31.1012 78.0591 30.7421 77.6211 30.5015L77.2618 30.304L51.43 30.2941C33.7582 30.2874 25.5169 30.3059 25.3409 30.3526ZM69.0599 32.6679C68.4718 32.8816 68.1323 33.2575 68.0568 33.7785C67.9311 34.6459 68.5753 35.4021 69.44 35.4021C70.9159 35.4021 71.3595 33.4166 70.0315 32.7545C69.7242 32.6013 69.338 32.5668 69.0599 32.6679ZM63.6801 32.7727C62.7831 33.2473 62.7202 34.6282 63.57 35.1908C63.8096 35.3494 63.9076 35.3721 64.3522 35.3721C64.8109 35.3721 64.8878 35.3529 65.1405 35.1747C65.5193 34.9074 65.7266 34.5009 65.7248 34.0289C65.7214 33.1693 65.1733 32.6368 64.2987 32.6435C64.0557 32.6454 63.8327 32.692 63.6801 32.7727ZM73.9096 32.7439C73.3753 33.0216 73.1196 33.5058 73.1662 34.1514C73.2006 34.6271 73.4546 35.0295 73.8522 35.2383C74.226 35.4345 74.8709 35.4222 75.2395 35.2118C75.878 34.8474 76.0982 34.0385 75.752 33.3298C75.6061 33.0312 75.5169 32.937 75.2535 32.8034C74.8698 32.6086 74.2248 32.5801 73.9096 32.7439ZM63.9791 33.1688C63.6581 33.2674 63.5358 33.4532 63.5042 33.89C63.4591 34.5138 63.761 34.8785 64.3226 34.8785C64.6162 34.8785 64.9343 34.7262 65.0913 34.5104C65.3291 34.1839 65.2196 33.4786 64.8984 33.2679C64.6992 33.1372 64.2421 33.0879 63.9791 33.1688ZM69.1673 33.1734C68.8456 33.2665 68.5526 33.6431 68.5526 33.9637C68.5526 34.2652 68.6271 34.438 68.8687 34.6975C69.0114 34.8506 69.0906 34.8785 69.3835 34.8785C69.9778 34.8785 70.2288 34.6759 70.3026 34.1366C70.3966 33.4497 69.8411 32.9785 69.1673 33.1734ZM19.1566 36.7765C18.9758 36.844 17.8962 37.3363 16.7574 37.8704C14.775 38.8003 13.1621 39.5524 9.1985 41.3952C6.04314 42.8623 5.74689 43.0114 5.58927 43.212C5.35061 43.5159 5.43205 43.7708 6.46946 45.9691C6.64036 46.3311 6.94134 46.9827 7.1384 47.4171C7.73305 48.7282 8.29754 49.8854 8.3425 49.8854C8.36584 49.8854 8.42295 49.7365 8.46949 49.5547C8.61318 48.9934 9.63271 46.1146 9.81643 45.7516C10.0045 45.3798 10.4142 45.0314 10.7401 44.966C10.9123 44.9315 10.9197 44.9208 10.8058 44.872C10.7286 44.8388 10.9002 44.8267 11.2361 44.8416C11.7104 44.8625 11.9885 44.931 13.0766 45.2947C13.7815 45.5303 14.4064 45.7432 14.4652 45.7677C14.6001 45.824 14.6294 45.6759 14.718 44.492C14.7545 44.0055 14.8107 43.581 14.8429 43.5488C14.9206 43.471 15.3517 43.694 15.9874 44.1408C16.2689 44.3386 16.5352 44.4866 16.5793 44.4697C16.6233 44.4527 16.7733 43.9835 16.9126 43.4269C17.2306 42.1557 17.4358 41.6915 17.8187 41.3773C18.4508 40.8586 18.8335 40.8592 20.882 41.3826C21.7543 41.6055 22.4102 41.7432 22.4102 41.7035C22.4102 41.6652 22.2368 41.2617 22.0246 40.8067C21.8126 40.3517 21.3516 39.352 21.0001 38.5852C20.6487 37.8183 20.2676 37.0839 20.1532 36.9532C19.893 36.6559 19.6128 36.6062 19.1566 36.7765ZM50.0004 37.6875L24.1849 37.7089V40.6617C24.1849 42.2858 24.213 43.7626 24.2472 43.9437C24.2815 44.1247 24.4262 44.536 24.5687 44.8577C24.7112 45.1793 24.94 45.6943 25.0771 46.002C25.5044 46.9611 25.3886 47.6827 24.7426 48.0853C24.5773 48.1885 24.3821 48.3177 24.3088 48.3726C24.1759 48.4722 24.1755 48.5001 24.1825 58.6354C24.1869 65.0688 24.2133 68.9049 24.2545 69.0888C24.3819 69.658 24.6454 70.0262 25.0842 70.2482C25.2751 70.3447 27.3342 70.3555 48.517 70.3711C61.2899 70.3805 71.7701 70.3688 71.8063 70.3453C71.8859 70.2932 71.8337 67.6288 71.7515 67.5467C71.7213 67.5167 69.148 67.4851 66.033 67.4766C62.9179 67.4681 60.3355 67.4606 60.2942 67.4601C60.1316 67.4581 59.5489 66.8533 59.4797 66.6149C59.4321 66.4506 59.4159 64.8329 59.4293 61.5635L59.449 56.7538L59.6283 56.4826C59.7269 56.3334 59.9488 56.1282 60.1213 56.0267L60.435 55.842H67.0737C73.1753 55.842 73.7315 55.851 73.9479 55.9535C74.2352 56.0895 74.6438 56.5299 74.7132 56.7783C74.7814 57.0229 74.7788 66.0896 74.7103 66.4911C74.6763 66.691 74.586 66.8871 74.4638 67.0264C74.3579 67.1473 74.2711 67.263 74.2711 67.2835C74.2711 67.3041 74.4707 67.4623 74.7148 67.635C74.9589 67.8078 75.2974 68.0537 75.4673 68.1814C75.6371 68.3091 76.0069 68.5856 76.2889 68.7958C76.5709 69.006 77.037 69.3541 77.3245 69.5692C77.612 69.7843 77.8805 69.9603 77.921 69.9603C78.0387 69.9603 78.277 69.6721 78.3612 69.4279C78.4164 69.2677 78.4452 68.0005 78.4618 65.0053L78.485 60.8072L78.1692 60.6722C77.3237 60.3109 77.1781 60.2188 77.0606 59.9709C76.9534 59.7445 76.9521 59.6981 77.0447 59.3636C77.0999 59.1643 77.4141 58.3165 77.7429 57.4794C78.0766 56.6301 78.3709 55.7718 78.4088 55.5377C78.4532 55.2638 78.477 52.0935 78.4773 46.4134L78.4778 37.7087H78.1268C77.9337 37.7087 77.3347 37.6991 76.7957 37.6874C76.2568 37.6757 64.1989 37.6758 50.0004 37.6875ZM41.6758 40.6827C40.9466 40.7741 40.5865 40.9981 40.3189 41.5263C40.1482 41.8631 40.0977 42.9494 40.0983 46.2653C40.0991 49.9426 40.1548 51.1938 40.3361 51.6038C40.5096 51.9959 40.8311 52.2381 41.2915 52.3233C41.5295 52.3673 43.9027 52.3843 48.1207 52.3722L54.585 52.3536L54.8815 52.179C55.2829 51.9427 55.4597 51.6078 55.5428 50.9262C55.6426 50.1082 55.5906 41.9629 55.4836 41.6435C55.2999 41.0951 54.8542 40.7796 54.1114 40.6721C53.5412 40.5895 42.3428 40.5991 41.6758 40.6827ZM60.8036 40.7105C60.1627 40.8055 59.8 41.021 59.5826 41.4359C59.4524 41.6843 59.4486 41.8111 59.4314 46.418C59.4194 49.5998 59.4364 51.2301 59.4834 51.4047C59.5638 51.7038 59.8702 52.0798 60.1654 52.2418C60.3535 52.3449 60.8891 52.3536 67.0737 52.3536H73.7782L74.0513 52.2073C74.2015 52.1269 74.3847 51.9843 74.4584 51.8906C74.7646 51.5007 74.7641 51.5096 74.7641 46.4956V41.7566L74.6164 41.4565C74.4281 41.0739 74.2073 40.913 73.641 40.746C73.1977 40.6153 73.0421 40.6122 67.2709 40.6203C62.935 40.6265 61.2079 40.6505 60.8036 40.7105ZM46.4838 40.7198C47.1255 40.7306 48.1756 40.7306 48.8172 40.7198C49.4589 40.7091 48.9339 40.7003 47.6505 40.7003C46.3671 40.7003 45.8421 40.7091 46.4838 40.7198ZM31.8753 40.8644C30.9823 41.0542 30.2375 41.4552 29.6068 42.0857C28.7173 42.9751 28.3438 43.7928 28.2783 44.9946C28.2207 46.0511 28.4041 46.8168 28.9227 47.6843C29.4591 48.5815 30.3222 49.2744 31.3115 49.6017C31.7734 49.7546 31.9537 49.7779 32.697 49.7812C33.4981 49.7848 33.5902 49.7716 34.1723 49.5688C34.9341 49.3036 35.4411 49.0014 35.9956 48.4819C36.3342 48.1648 36.4775 47.9641 36.7056 47.4876C37.3479 46.1463 37.4331 44.9851 36.9808 43.7384C36.715 43.0058 36.5752 42.7703 36.0929 42.2418C35.4451 41.532 34.5265 41.0305 33.5259 40.8405C32.844 40.711 32.5796 40.7148 31.8753 40.8644ZM41.5747 41.2012C41.1861 41.2663 40.9537 41.4238 40.7971 41.7284C40.6889 41.9389 40.6822 42.27 40.6985 46.6389C40.7158 51.279 40.7173 51.3256 40.8538 51.5096C40.9296 51.6118 41.0627 51.7325 41.1496 51.7777C41.2736 51.8423 42.7233 51.8565 47.8835 51.8436C54.0391 51.8281 54.4707 51.8196 54.6363 51.7109C54.7336 51.6471 54.8654 51.5151 54.9292 51.4176C55.0372 51.2526 55.0451 50.921 55.0451 46.5644C55.0451 41.9688 55.0428 41.8843 54.9104 41.6586C54.7608 41.4036 54.6037 41.3108 54.1404 41.2037C53.7668 41.1174 42.0888 41.115 41.5747 41.2012ZM61.5524 41.1931C60.5008 41.2325 60.3932 41.2626 60.1134 41.5956L59.942 41.7996V46.5028C59.942 51.6643 59.9337 51.5527 60.332 51.759C60.5149 51.8537 61.1924 51.8623 67.1267 51.8456C73.2753 51.8283 73.7301 51.8193 73.8938 51.7119C74.2487 51.4789 74.2368 51.6431 74.2576 46.678C74.2706 43.5634 74.2542 41.9746 74.2072 41.8074C74.0823 41.3625 74.0052 41.3112 73.4015 41.271C72.9398 41.2403 72.8976 41.2284 73.1208 41.1924C73.4417 41.1407 62.9338 41.1413 61.5524 41.1931ZM46.3897 41.2465C47.2327 41.2569 48.5933 41.2569 49.4133 41.2465C50.2332 41.236 49.5435 41.2275 47.8806 41.2275C46.2176 41.2275 45.5467 41.2361 46.3897 41.2465ZM32.3683 41.3048C32.296 41.3194 32.0594 41.3642 31.8425 41.4042C30.5337 41.6459 29.2918 42.8223 28.9175 44.175C28.7555 44.7605 28.7457 45.5662 28.8926 46.2194C29.0115 46.7481 29.3334 47.5159 29.436 47.5159C29.4728 47.5159 29.7038 47.3371 29.9496 47.1186C30.1953 46.9 30.5074 46.6722 30.6429 46.6122C30.9045 46.4965 30.9649 46.3973 30.7744 46.3963C30.7111 46.3959 30.5102 46.3261 30.3279 46.2411C30.0008 46.0886 29.772 45.8412 29.772 45.6401C29.772 45.5026 30.0302 45.0001 30.3291 44.5559C30.5279 44.2603 30.5632 44.16 30.526 43.9964C30.3916 43.4066 30.5916 42.7452 31.022 42.3558C31.2004 42.1944 31.3787 42.1088 31.655 42.0521C31.8666 42.0086 32.1239 41.9471 32.2269 41.9154C32.594 41.8023 33.2311 41.7712 33.4822 41.8542C33.9801 42.0187 34.5022 42.7015 34.5039 43.1903C34.5049 43.4839 34.3334 43.8131 34.1225 43.9223C33.928 44.023 33.9273 44.0253 33.9254 44.6243C33.9238 45.1407 33.9043 45.2458 33.787 45.3709C33.6081 45.5615 33.5688 45.9053 33.7076 46.0644C33.7663 46.1317 34.1099 46.2942 34.4713 46.4257C34.8397 46.5598 35.3544 46.8134 35.6433 47.0033C36.0636 47.2797 36.1699 47.3246 36.2213 47.2479C36.7083 46.5209 36.8712 45.2582 36.6031 44.2894C36.2584 43.0437 35.5498 42.215 34.3474 41.6516C33.7974 41.3939 32.7961 41.2184 32.3683 41.3048ZM18.5095 41.5557C18.1712 41.6775 17.9787 41.8702 17.8153 42.2505C17.6613 42.6089 17.1512 44.5946 17.153 44.8286C17.1542 44.9782 17.4048 45.186 18.0586 45.5796C18.1839 45.655 18.3776 45.7957 18.4892 45.8923C18.6006 45.9888 18.7445 46.0678 18.8087 46.0678C18.8729 46.0678 18.9624 46.1271 19.0075 46.1995C19.0527 46.2719 19.1258 46.3311 19.1701 46.3311C19.2144 46.3311 19.2811 46.3883 19.3185 46.4581C19.3558 46.528 19.453 46.5946 19.5344 46.6062C19.6369 46.6208 19.676 46.6648 19.6616 46.7491C19.65 46.8173 19.6696 46.853 19.7064 46.8303C19.7424 46.808 19.7913 46.8211 19.815 46.8595C19.9114 47.0156 19.6381 47.2388 19.0152 47.5124C18.6591 47.6689 17.9981 47.9733 17.5462 48.1889C15.509 49.1609 14.7371 49.4904 14.4978 49.4904C14.2592 49.4904 14.2545 49.4856 14.2881 49.2765C14.3505 48.888 14.4518 47.6249 14.4709 46.9961L14.4898 46.3776L12.9809 45.8607C12.151 45.5764 11.3671 45.3439 11.239 45.3441C10.8747 45.3445 10.4566 45.6424 10.2224 46.0685C10.1725 46.1594 10.0274 46.5445 9.89984 46.9242C9.77239 47.3039 9.44282 48.2662 9.16741 49.0626C8.83423 50.0263 8.67989 50.5632 8.70605 50.6678C8.76968 50.9217 9.84417 53.251 10.0215 53.5193C10.2578 53.8769 10.5218 53.9962 10.8781 53.9063C11.0339 53.8671 12.0435 53.4236 13.1214 52.9209C16.4431 51.3718 18.813 50.2686 20.767 49.3619C21.7973 48.8838 23.0248 48.3138 23.4948 48.0952C24.5095 47.6232 24.7117 47.4538 24.7587 47.0358C24.79 46.7582 24.7245 46.5925 23.826 44.6747C23.2946 43.5404 22.8157 42.5633 22.7618 42.5032C22.7001 42.4345 22.0158 42.2355 20.9103 41.9649C18.7358 41.4325 18.8143 41.4459 18.5095 41.5557ZM84.4127 41.643C84.3631 41.6756 84.3262 41.9164 84.3141 42.2854L84.2949 42.8756L83.6938 42.8944L83.0927 42.9132L83.0659 43.1433C83.0512 43.2698 83.053 43.3871 83.07 43.4042C83.087 43.4211 83.3758 43.435 83.7119 43.435H84.3231L84.3419 44.0768L84.3607 44.7185L84.6072 44.7389L84.8536 44.7594V44.0972V43.435H85.4781H86.1025V43.1718V42.9085H85.4804H84.8584L84.8396 42.2667C84.8211 41.6363 84.8179 41.6247 84.6564 41.6079C84.5661 41.5985 84.4564 41.6143 84.4127 41.643ZM32.7135 43.2214C32.5677 43.3857 32.3427 44.2049 32.3475 44.554C32.3497 44.7169 32.2742 45.1895 32.1797 45.6043C32.0644 46.1104 32.0296 46.3803 32.074 46.4248C32.1735 46.5244 32.9432 46.5876 33.0491 46.5048C33.173 46.4078 33.1118 45.841 32.9593 45.6722C32.8941 45.6002 32.7854 45.5413 32.7176 45.5413C32.5612 45.5413 32.5111 45.4132 32.5873 45.2079C32.64 45.0657 32.6861 45.0476 32.995 45.0476C33.3252 45.0476 33.346 45.0375 33.3961 44.8528C33.4963 44.4829 33.1838 43.4125 32.9089 43.1841C32.8355 43.123 32.7937 43.131 32.7135 43.2214ZM66.81 43.3021C66.8273 43.3302 66.7518 43.3712 66.6421 43.3931C66.5231 43.4169 66.301 43.5748 66.0914 43.7847C65.7936 44.083 65.7284 44.1935 65.6625 44.5116C65.5345 45.129 65.6771 45.5765 66.3685 46.726C66.5318 46.9975 66.7483 47.3413 66.8498 47.4899L67.0341 47.7602L66.0022 47.1689C64.5146 46.3166 64.2503 46.1993 63.8201 46.201C62.3457 46.2066 61.6384 48.0439 62.7133 49.0757C62.834 49.1916 63.0427 49.3322 63.1771 49.3884C63.4737 49.5123 64.0926 49.5164 64.4273 49.3968C64.6995 49.2996 66.3181 48.3954 66.7711 48.0876C67.0128 47.9233 67.0805 47.9039 67.1846 47.969C67.2531 48.0118 67.3349 48.0309 67.3664 48.0114C67.4424 47.9644 68.4307 46.3142 68.696 45.7913C69.0482 45.0972 68.9732 44.3412 68.4999 43.8166C68.1597 43.4396 67.8396 43.2986 67.2652 43.2728C66.9974 43.2608 66.7926 43.274 66.81 43.3021ZM45.8276 43.5407C45.4139 43.7411 45.1241 44.0737 45.0271 44.4595C44.8617 45.1175 44.8567 45.1061 46.6091 48.1411C46.7668 48.4143 47.1015 49.0298 47.4203 49.6329C47.4714 49.7296 47.5296 49.7477 47.6832 49.7147C47.7918 49.6915 47.8994 49.6614 47.9223 49.6481C47.9452 49.6347 48.2672 49.0976 48.6378 48.4546C49.0084 47.8116 49.3782 47.1818 49.4595 47.0551C50.1197 46.026 50.543 45.1568 50.5422 44.8313C50.5407 44.0384 49.807 43.3692 48.9395 43.3692C48.6284 43.3692 48.0765 43.6238 47.9283 43.8357C47.8194 43.9913 47.6305 43.998 47.5106 43.8506C47.4317 43.7533 47.4348 43.7448 47.5355 43.7826C47.5987 43.8064 47.6505 43.7971 47.6505 43.7621C47.6505 43.727 47.5987 43.6982 47.5355 43.698C47.4722 43.6978 47.3021 43.6247 47.1575 43.5355C46.7954 43.3121 46.2952 43.3141 45.8276 43.5407ZM46.0062 44.0177C45.8803 44.0847 45.7081 44.2401 45.6237 44.3632C45.3462 44.7677 45.4349 45.0366 46.4051 46.7346C46.8732 47.554 47.3325 48.391 47.4256 48.5948C47.5208 48.8028 47.6247 48.947 47.6627 48.9235C47.7069 48.8961 47.7027 48.8646 47.6505 48.8322C47.5503 48.7702 47.6669 48.6871 47.7925 48.731C47.8491 48.7508 48.0136 48.5331 48.2524 48.1224C48.4569 47.7707 48.867 47.0718 49.1638 46.5692C49.8897 45.3399 50.041 44.9999 49.9879 44.7166C49.9386 44.4535 49.6842 44.1286 49.4207 43.9921C48.9996 43.7741 48.4154 43.951 48.189 44.3651C47.8838 44.9231 47.6598 44.9443 47.3447 44.4451C47.011 43.9164 46.502 43.7539 46.0062 44.0177ZM15.1939 45.0585C15.1547 45.447 15.1372 45.7886 15.1551 45.8176C15.205 45.8984 15.4887 45.8804 15.7254 45.7814C15.95 45.6874 16.3637 45.2628 16.3622 45.1276C16.3616 45.0643 15.5098 44.4508 15.3115 44.3707C15.2861 44.3605 15.2332 44.6699 15.1939 45.0585ZM16.655 45.8464C16.3809 46.1814 15.7674 46.5151 15.314 46.5761C15.0194 46.6156 15.0262 46.5943 14.9493 47.7133C14.9282 48.021 14.8933 48.3736 14.8718 48.4968L14.8329 48.7208L15.0723 48.6819C15.204 48.6605 15.6 48.5025 15.9524 48.3308C16.3048 48.159 16.7398 47.9692 16.9189 47.9089C17.0981 47.8485 17.206 47.7862 17.1587 47.7704C17.1113 47.7546 17.2235 47.7029 17.408 47.6556C17.5926 47.6082 17.7297 47.547 17.7128 47.5195C17.6958 47.492 17.8658 47.4232 18.0906 47.3665C18.4012 47.2883 18.452 47.2609 18.3021 47.2522C18.155 47.2438 18.2079 47.2165 18.5101 47.1448L18.9153 47.0485L18.8279 46.8799C18.7799 46.7872 18.667 46.6628 18.577 46.6035C18.4871 46.5442 18.0985 46.2809 17.7134 46.0185C17.3284 45.756 16.9889 45.5413 16.959 45.5413C16.9292 45.5413 16.7923 45.6786 16.655 45.8464ZM69.9658 46.3545C69.0808 46.7687 67.6164 47.6861 67.5456 47.8708C67.5089 47.9666 69.1626 48.9969 69.8806 49.3256C70.8701 49.7787 71.9779 49.3184 72.241 48.3449C72.358 47.9122 72.2788 47.296 72.06 46.9364C71.9131 46.6949 71.7798 46.5805 71.4509 46.4134C70.9196 46.1434 70.4563 46.125 69.9658 46.3545ZM31.2888 46.901C31.2018 46.962 30.98 47.1032 30.7958 47.2146C30.6117 47.326 30.3307 47.559 30.1715 47.7324L29.8819 48.0477L30.1391 48.3132C30.5044 48.6902 31.0994 49.0032 31.7458 49.1584C32.7301 49.3947 33.6383 49.3003 34.5348 48.8685C34.9997 48.6446 35.7534 48.0231 35.7534 47.8636C35.7534 47.7654 34.8768 47.2195 34.5123 47.0908C34.3561 47.0356 34.0832 46.9473 33.9058 46.8945C33.599 46.8033 33.5769 46.8053 33.4561 46.9351C33.3532 47.0457 33.2506 47.0713 32.9145 47.0701C32.5525 47.0689 31.8443 46.9437 31.5462 46.8284C31.4917 46.8072 31.3758 46.8399 31.2888 46.901ZM14.9047 48.8772C14.9521 48.8962 15.0088 48.8938 15.0307 48.872C15.0525 48.8501 15.0137 48.8346 14.9444 48.8374C14.8678 48.8406 14.8523 48.8562 14.9047 48.8772ZM81.1145 50.2462C80.9789 50.5349 80.6291 51.4325 79.331 54.8218C78.9774 55.7449 78.46 57.0926 78.181 57.8166C77.902 58.5406 77.6577 59.2505 77.638 59.3941C77.6095 59.6023 77.592 59.629 77.5517 59.5258C77.5029 59.4008 77.501 59.4012 77.4965 59.5342C77.494 59.61 77.5499 59.7247 77.6209 59.789C77.6918 59.8532 78.8823 60.3431 80.2665 60.8776C81.6506 61.412 84.2769 62.427 86.1025 63.1331C89.7029 64.5256 90.5196 64.8264 90.7002 64.8264C90.856 64.8264 90.8796 64.7698 92.773 59.857C94.256 56.0091 94.5146 55.3047 94.5155 55.1106C94.5161 55.0042 94.0669 54.8155 90.9973 53.6328C87.0195 52.1002 86.476 51.8903 84.361 51.0701C82.3812 50.3023 81.4258 49.9512 81.3167 49.9512C81.2817 49.9512 81.1906 50.0839 81.1145 50.2462ZM31.3988 53.4232C27.9068 53.4402 27.8001 53.4445 27.8001 53.5665C27.8001 53.9206 27.5617 53.9004 31.7437 53.9004H35.6075L35.6346 53.6679C35.6495 53.5402 35.6478 53.4217 35.6309 53.4047C35.6139 53.3877 35.4644 53.381 35.2987 53.3897C35.1331 53.3984 33.378 53.4135 31.3988 53.4232ZM85.8138 53.8728C85.7918 53.9301 85.7739 54.33 85.7739 54.7614V55.5458H86.0368H86.2997V54.783C86.2997 54.0724 86.2896 54.0117 86.1518 53.8967C85.9693 53.7442 85.8658 53.7369 85.8138 53.8728ZM83.4533 54.8914C83.3989 55.0995 83.5354 55.3236 83.9777 55.7528C84.3808 56.144 84.5624 56.2395 84.7177 56.1419C84.8918 56.0325 84.6976 55.6152 84.2804 55.2019C83.8398 54.7654 83.5177 54.6445 83.4533 54.8914ZM87.7619 55.3006C87.4636 55.5984 87.2195 55.8745 87.2197 55.9141C87.2198 55.9537 87.2775 56.0384 87.3478 56.1021C87.4703 56.2131 87.4837 56.2123 87.66 56.0843C87.7614 56.0107 88.0514 55.7379 88.3045 55.478C88.631 55.1427 88.7199 55.019 88.6106 55.0517C88.4837 55.0897 88.4614 55.0765 88.4831 54.9763C88.4976 54.9094 88.5469 54.8629 88.5926 54.8728C88.6383 54.8828 88.657 54.8605 88.6341 54.8235C88.5261 54.6485 88.2811 54.7825 87.7619 55.3006ZM27.8658 55.5458V55.8091H31.7439H35.6219V55.5458V55.2826H31.7439H27.8658V55.5458ZM41.6034 55.8728C41.0395 55.9152 40.7649 56.0397 40.5166 56.3656C40.1427 56.8565 40.1399 56.8895 40.108 61.0747C40.0779 65.0252 40.1265 66.3573 40.3139 66.7202C40.4597 67.0025 40.903 67.3751 41.1879 67.4549C41.4473 67.5275 47.4884 67.5309 52.3282 67.461L54.7383 67.4263L55.0232 67.2269C55.2438 67.0724 55.3376 66.9461 55.4388 66.6674C55.5648 66.3208 55.5697 66.1343 55.5703 61.6671C55.571 57.1898 55.5664 57.0142 55.4395 56.6668C55.2537 56.158 54.9408 55.9477 54.2551 55.8707C53.7061 55.8091 42.4258 55.8109 41.6034 55.8728ZM85.5438 56.1297C84.8513 56.4465 84.5019 57.2355 84.7482 57.9261C84.8657 58.2554 85.0986 58.5315 85.4123 58.7136C85.7848 58.9297 86.5552 58.9336 86.8986 58.7211C87.6333 58.2662 87.8031 57.1517 87.2337 56.5207C87.1046 56.3775 86.8871 56.2032 86.7505 56.1335C86.4333 55.9714 85.8936 55.9697 85.5438 56.1297ZM45.3171 56.3962C40.7998 56.4386 41.0799 56.4078 40.8031 56.8914C40.6503 57.1583 40.6503 57.16 40.6355 59.9813C40.6275 61.5338 40.6373 62.8308 40.6574 62.8633C40.6775 62.8959 41.1651 62.4698 41.7411 61.9164C42.317 61.3629 42.8781 60.8613 42.988 60.8016C43.1132 60.7336 43.1558 60.6808 43.1021 60.6602C43.0538 60.6416 43.1122 60.592 43.2365 60.5462C43.3863 60.4909 43.4299 60.4485 43.3731 60.4135C43.3164 60.3783 43.3669 60.3296 43.5311 60.2609C43.6639 60.2053 43.7724 60.1301 43.7724 60.0937C43.7724 60.0573 43.8834 60.0071 44.0189 59.9822C44.1545 59.9572 44.2849 59.9067 44.3086 59.87C44.3591 59.7919 44.7567 59.7682 44.8014 59.8406C44.8181 59.8677 44.7636 59.8934 44.6801 59.8976C44.5966 59.9019 44.691 59.9321 44.8899 59.9649C45.1383 60.0058 45.2869 60.0703 45.3649 60.1711C45.4274 60.2517 45.4792 60.2945 45.48 60.2661C45.4808 60.2377 45.5446 60.2483 45.6218 60.2896C45.7339 60.3497 45.7438 60.3764 45.6711 60.4226C45.5991 60.4682 45.6045 60.4805 45.6971 60.4813C45.7615 60.4819 45.8287 60.5194 45.8465 60.5646C45.8642 60.6099 46.425 61.2022 47.0927 61.881C48.2228 63.03 48.3229 63.1151 48.5437 63.1151C48.6742 63.1151 48.8758 63.07 48.9918 63.0149C49.2082 62.9121 49.7353 62.3368 49.7029 62.2386C49.693 62.2085 49.7152 62.2026 49.7522 62.2255C49.7893 62.2485 49.8196 62.2379 49.8196 62.2019C49.8196 62.166 49.8788 62.1179 49.9511 62.0949C50.0234 62.0719 50.0825 62.0237 50.0825 61.9879C50.0825 61.9519 50.0529 61.9409 50.0168 61.9633C49.9806 61.9856 49.9511 61.9758 49.9511 61.9413C49.9511 61.907 50.0309 61.8587 50.1284 61.8342C50.2564 61.8021 50.2813 61.7746 50.2181 61.7355C50.1507 61.6937 50.1632 61.6636 50.2727 61.605C50.3509 61.5631 50.3974 61.5006 50.3762 61.4662C50.3549 61.4318 50.4135 61.3746 50.5063 61.3393C50.5991 61.3039 50.6674 61.2502 50.6581 61.2198C50.6488 61.1893 50.7522 61.0593 50.8877 60.9307C51.0233 60.8023 51.1342 60.6656 51.1342 60.6271C51.1342 60.5885 51.1934 60.5382 51.2657 60.5152C51.338 60.4923 51.3971 60.433 51.3971 60.3836C51.3971 60.3342 51.4563 60.2749 51.5286 60.2519C51.6009 60.229 51.66 60.1835 51.66 60.1508C51.66 60.1182 51.6157 60.1086 51.5614 60.1294C51.3667 60.2042 51.4675 60.0858 51.6765 59.9942C51.794 59.9428 51.8524 59.8982 51.8062 59.8953C51.722 59.8899 51.7688 59.8317 52.4817 59.0563C52.6869 58.833 52.8502 58.6304 52.8446 58.606C52.839 58.5815 52.8881 58.5222 52.9538 58.4742C53.0195 58.426 53.0739 58.3621 53.0747 58.3321C53.0761 58.2805 53.1825 58.1584 54.101 57.1549C54.4558 56.7671 54.6086 56.5019 54.5252 56.4184C54.4693 56.3623 50.0535 56.3517 45.3171 56.3962ZM60.7023 56.3897C60.4279 56.4122 60.1581 56.5834 60.0265 56.8184C59.966 56.9265 59.9461 58.1114 59.9443 61.7141L59.942 66.4673L60.146 66.7L60.35 66.9326H66.0617H71.7734L71.7744 66.3896C71.775 66.0909 71.8024 65.8039 71.8354 65.7516C71.9182 65.6207 72.0704 65.6976 72.9044 66.2921C73.2798 66.5596 73.6522 66.7957 73.7321 66.8166C73.959 66.876 74.1313 66.6815 74.2053 66.2819C74.2861 65.8467 74.2899 57.4831 74.2096 57.0665C74.1715 56.8688 74.0846 56.7124 73.9354 56.5729L73.7172 56.3686H67.339C63.831 56.3686 60.8445 56.3781 60.7023 56.3897ZM85.6582 56.6644C85.2185 56.9329 85.0628 57.4788 85.2894 57.957C85.4492 58.2941 85.6094 58.3761 86.1083 58.3761C86.6089 58.3761 86.8434 58.2436 86.9978 57.8735C87.1807 57.4351 87.037 56.8452 86.6984 56.6449C86.4374 56.4906 85.9274 56.5001 85.6582 56.6644ZM27.8996 57.2979C27.7412 57.5399 27.7767 57.6309 28.0466 57.6756C28.1822 57.6981 29.942 57.7168 31.9575 57.7172L35.6219 57.7179V57.4621C35.6219 57.209 35.6187 57.2058 35.3237 57.1615C35.1597 57.1369 33.4446 57.1233 31.5123 57.1313L27.9991 57.1459L27.8996 57.2979ZM54.5522 57.5337C54.3533 57.7563 54.0654 58.0992 53.9123 58.2955C53.5668 58.7388 52.7075 59.707 52.5967 59.778C52.5515 59.807 52.4726 59.9107 52.4213 60.0084C52.3113 60.2181 51.8629 60.7532 51.3348 61.3051C51.127 61.5223 50.9451 61.7366 50.9306 61.7813C50.8813 61.9329 49.6568 63.2911 49.4036 63.4749C49.2114 63.6145 49.0523 63.6657 48.7301 63.6915C48.0051 63.7498 47.8716 63.6641 46.6722 62.37C45.1705 60.7495 44.9579 60.5509 44.6756 60.505C44.2934 60.443 44.1374 60.5197 43.5608 61.0534C43.2615 61.3305 42.7947 61.7625 42.5236 62.0135C42.2524 62.2644 41.7275 62.7672 41.3569 63.1309L40.6831 63.7921L40.6835 64.951C40.6839 66.1821 40.7335 66.5025 40.9656 66.7709L41.1104 66.9384L47.7972 66.9343C51.799 66.932 54.5491 66.9055 54.6463 66.8685C54.7357 66.8345 54.8619 66.7091 54.9269 66.5899C55.0375 66.3871 55.0451 66.0765 55.0451 61.7713C55.0451 58.7608 55.0224 57.1624 54.9794 57.1491C54.9432 57.138 54.751 57.311 54.5522 57.5337ZM82.4701 57.3375C82.4521 57.4562 82.4503 57.5755 82.4662 57.6027C82.4821 57.6299 82.8649 57.6521 83.3168 57.6521H84.1386L84.1181 57.4052L84.0977 57.1584L83.3003 57.14L82.5029 57.1216L82.4701 57.3375ZM87.9254 57.3394C87.9075 57.4571 87.9059 57.5755 87.9218 57.6027C87.9377 57.6299 88.3187 57.6521 88.7684 57.6521C89.6554 57.6521 89.6471 57.6561 89.5448 57.2736C89.5065 57.1306 89.4782 57.1255 88.7315 57.1255H87.9579L87.9254 57.3394ZM64.8934 58.0407C64.5711 58.1232 63.4926 58.6987 63.4918 58.7885C63.4916 58.8162 63.341 58.9791 63.1571 59.1505C61.723 60.4874 61.792 62.9548 63.3042 64.4035C64.0689 65.1361 64.7804 65.4308 65.7952 65.4354C66.7068 65.4395 67.635 65.0917 68.3143 64.4915L68.6347 64.2085L69.1859 64.2258C70.2184 64.2581 70.9058 64.0014 71.4704 63.3725C71.8886 62.9067 72.0549 62.4372 72.0628 61.7C72.071 60.9359 71.8841 60.4219 71.4267 59.9506C70.853 59.3596 70.1997 59.1306 69.2315 59.1813L68.5984 59.2144L68.2304 58.8776C68.0069 58.6729 67.6432 58.4382 67.3038 58.2795C66.7561 58.0235 66.7288 58.018 65.9234 58.0028C65.4715 57.9942 65.008 58.0113 64.8934 58.0407ZM65.054 58.5662C64.3132 58.7234 63.257 59.5769 62.9538 60.2633C62.6046 61.0538 62.5456 61.8171 62.7758 62.5652C62.9746 63.2112 63.1289 63.4828 63.5483 63.9253C63.986 64.3871 64.7873 64.8059 65.3988 64.8924C66.2579 65.014 67.318 64.6881 67.9057 64.1217L68.1462 63.89L67.804 63.5474C67.0049 62.7472 66.7942 61.6051 67.2584 60.5899C67.4125 60.2529 67.8027 59.7946 68.053 59.6566C68.1708 59.5917 68.1657 59.5739 67.9637 59.3436C67.8375 59.1997 67.5266 58.9887 67.2063 58.8298C66.693 58.5751 66.6252 58.5589 65.9809 58.5372C65.6059 58.5245 65.1888 58.5375 65.054 58.5662ZM83.9161 59.1594C83.5147 59.5614 83.4017 59.7145 83.4186 59.8341C83.4584 60.1144 83.7717 60.0141 84.2134 59.5797C84.6312 59.1688 84.8183 58.8796 84.7619 58.7322C84.6802 58.5192 84.4282 58.6465 83.9161 59.1594ZM87.3164 58.7314C87.2035 58.8142 87.2 58.8411 87.282 58.9947C87.3323 59.0887 87.5749 59.3604 87.8211 59.5984C88.3294 60.0898 88.552 60.1458 88.5867 59.7912C88.6018 59.6362 88.5475 59.531 88.3342 59.302C88.0057 58.9494 87.6244 58.6394 87.5192 58.6394C87.4769 58.6394 87.3856 58.6808 87.3164 58.7314ZM27.9151 59.1714C27.7646 59.3365 27.7694 59.474 27.9288 59.5593C28.0134 59.6047 28.8731 59.6224 30.4429 59.6111L32.8284 59.5938L32.8501 59.4403C32.8621 59.3558 32.8205 59.2299 32.7577 59.1605C32.6493 59.0405 32.531 59.0345 30.3369 59.0397C28.1512 59.0449 28.0241 59.0519 27.9151 59.1714ZM85.7884 60.1039L85.8067 60.976H86.0368H86.2668L86.2854 60.1584C86.3054 59.2747 86.291 59.2346 85.9527 59.2327L85.7701 59.2317L85.7884 60.1039ZM69.2037 60.1281C69.3098 60.3779 69.4452 60.8219 69.5045 61.1148C69.6046 61.6094 69.6044 61.6891 69.503 62.2331C69.443 62.5553 69.3229 62.9943 69.2362 63.2087C69.1495 63.4231 69.0785 63.6274 69.0785 63.6628C69.0785 63.7027 69.2826 63.7112 69.618 63.6853C70.8452 63.5906 71.5378 62.8743 71.5378 61.7C71.5378 61.0679 71.3931 60.6939 70.994 60.2942C70.5807 59.8804 70.2572 59.7453 69.5881 59.7071L69.0108 59.6741L69.2037 60.1281ZM44.0231 59.8691C44.0705 59.8881 44.1272 59.8857 44.149 59.8639C44.1708 59.842 44.1321 59.8265 44.0628 59.8293C43.9862 59.8325 43.9706 59.8481 44.0231 59.8691ZM68.0781 60.3377C67.6189 60.8292 67.5422 61.019 67.5403 61.6671C67.5391 62.1168 67.5681 62.2872 67.6882 62.5354C67.873 62.9172 68.3241 63.394 68.4735 63.3653C68.6519 63.3309 68.8786 62.8358 68.9798 62.2599C69.0618 61.7925 69.0616 61.6532 68.9776 61.1706C68.8792 60.6057 68.6405 60.0696 68.4721 60.0354C68.4205 60.0249 68.2432 60.161 68.0781 60.3377ZM17.4805 62.4468V63.2344L16.8565 63.2813C16.5133 63.3071 16.1728 63.3125 16.0997 63.2934C15.9341 63.25 15.8095 63.4562 15.8658 63.6807C15.9049 63.837 15.916 63.8391 16.6909 63.8391H17.4763L17.4948 64.6125L17.5133 65.3859L17.7598 65.4063L18.0063 65.4268V64.6329V63.8391H18.7951C19.5021 63.8391 19.5839 63.8272 19.5848 63.7239C19.5852 63.6606 19.6035 63.5421 19.6252 63.4607C19.6648 63.3128 19.6634 63.3126 18.8376 63.3126H18.0104L17.9919 62.5063L17.9734 61.7L17.727 61.6796L17.4805 61.6591V62.4468ZM72.3338 67.6671C72.4595 72.249 72.525 73.9095 72.5798 73.9095C72.6139 73.9095 73.1749 73.6435 73.8264 73.3185C74.4778 72.9933 75.0342 72.7417 75.0626 72.7594C75.1284 72.8001 75.2788 73.2027 76.1805 75.7525C76.5838 76.8928 76.9239 77.8364 76.9361 77.8494C76.9484 77.8624 77.0415 77.8149 77.143 77.7437C77.5428 77.4636 78.7405 76.8055 78.8523 76.8046C78.9456 76.8038 78.9515 76.7913 78.8799 76.7459C78.813 76.7035 78.8432 76.6763 78.9941 76.6431C79.4139 76.5508 79.4974 76.6787 77.5166 74.3795C76.7257 73.4615 76.0416 72.647 75.9962 72.5695C75.821 72.2703 75.9032 72.1878 76.8675 71.6944C77.3736 71.4354 77.8172 71.2403 77.8534 71.2607C77.8896 71.2811 77.8965 71.2728 77.8687 71.2423C77.841 71.2118 77.9076 71.1492 78.0166 71.1033C78.1257 71.0574 78.2149 70.9937 78.2149 70.9619C78.2149 70.9097 76.416 69.5408 74.9038 68.4423C74.583 68.2093 73.9058 67.7125 73.3989 67.3383C72.892 66.964 72.4383 66.6429 72.3907 66.6246C72.3206 66.5977 72.3099 66.7957 72.3338 67.6671ZM62.6205 67.0478C63.8587 67.0578 65.8848 67.0578 67.123 67.0478C68.3612 67.0378 67.3481 67.0296 64.8717 67.0296C62.3954 67.0296 61.3823 67.0378 62.6205 67.0478ZM62.9491 67.5742C63.5366 67.5852 64.4979 67.5852 65.0854 67.5742C65.6729 67.5633 65.1922 67.5544 64.0173 67.5544C62.8423 67.5544 62.3617 67.5633 62.9491 67.5742Z" fill="white"/>
<path fill-rule="evenodd" clip-rule="evenodd" d="M23.6254 42.8427C23.5816 42.8427 23.0993 41.8632 22.4426 40.4402C20.6181 36.4875 20.6472 36.5395 20.0959 36.2549C19.8209 36.113 19.1479 36.0743 19.2286 36.2051C19.2565 36.2502 19.2468 36.2633 19.2045 36.2371C19.133 36.1928 18.5817 36.4223 17.2504 37.0507C16.8528 37.2384 16.3721 37.4632 16.1823 37.5503C15.3677 37.9243 15.1089 38.044 14.5524 38.3045C13.5066 38.7942 12.6292 39.2031 9.72434 40.555C6.58791 42.0146 5.72474 42.4335 5.50073 42.6046C5.14895 42.8733 4.9699 43.2867 5.00414 43.7514C5.03313 44.1448 5.02005 44.1146 6.94863 48.2399C7.36332 49.1268 7.78544 50.0598 7.8868 50.3132C8.19514 51.0845 9.30886 53.4504 9.5376 53.8202C9.70331 54.088 9.83247 54.2069 10.0998 54.3379C10.6645 54.6146 11.0399 54.5314 12.6343 53.7767C13.0041 53.6017 13.7059 53.2729 14.194 53.0461C14.682 52.8192 15.318 52.5231 15.6072 52.3881C15.8964 52.253 16.1995 52.1213 16.2809 52.0955C16.3623 52.0696 16.4288 52.0209 16.4288 51.9872C16.4288 51.9534 16.4628 51.9258 16.5044 51.9258C16.5735 51.9258 18.4552 51.0741 19.2113 50.7005C19.386 50.6142 19.5672 50.5436 19.6141 50.5436C19.6609 50.5436 19.7321 50.5039 19.7722 50.4555C19.8123 50.407 19.9639 50.3318 20.1089 50.2883C20.2539 50.2448 20.3726 50.1808 20.3726 50.146C20.3726 50.1113 20.4096 50.0826 20.4548 50.0823C20.5 50.082 20.8623 49.9313 21.2599 49.7473C22.6639 49.098 23.5507 48.7006 23.5958 48.7006L24.3088 48.3726C24.3821 48.3177 24.5773 48.1885 24.7426 48.0853C25.3886 47.6827 25.5044 46.9611 25.0771 46.002C24.94 45.6943 24.7112 45.1793 24.5687 44.8577C24.4262 44.536 24.2815 44.1247 24.2472 43.9437L23.6254 42.8427ZM16.7574 37.8704C17.8962 37.3363 18.9758 36.844 19.1566 36.7765C19.6128 36.6062 19.893 36.6559 20.1532 36.9532C20.2676 37.0839 20.6487 37.8183 21.0001 38.5852C21.3516 39.352 21.8126 40.3517 22.0246 40.8067C22.2368 41.2617 22.4102 41.6652 22.4102 41.7035C22.4102 41.7432 21.7543 41.6055 20.882 41.3826C18.8335 40.8592 18.4508 40.8586 17.8187 41.3773C17.4358 41.6915 17.2306 42.1557 16.9126 43.4269C16.7733 43.9835 16.6233 44.4527 16.5793 44.4697C16.5352 44.4866 16.2689 44.3386 15.9874 44.1408C15.3517 43.694 14.9206 43.471 14.8429 43.5488C14.8107 43.581 14.7545 44.0055 14.718 44.492C14.6294 45.6759 14.6001 45.824 14.4652 45.7677C14.4064 45.7432 13.7815 45.5303 13.0766 45.2947C11.9885 44.931 11.7104 44.8625 11.2361 44.8416C10.9002 44.8267 10.7286 44.8388 10.8058 44.872C10.9197 44.9208 10.9123 44.9315 10.7401 44.966C10.4142 45.0314 10.0045 45.3798 9.81643 45.7516C9.63271 46.1146 8.61318 48.9934 8.46949 49.5547C8.42295 49.7365 8.36584 49.8854 8.3425 49.8854C8.29754 49.8854 7.73305 48.7282 7.1384 47.4171C6.94134 46.9827 6.64036 46.3311 6.46946 45.9691C5.43205 43.7708 5.35061 43.5159 5.58927 43.212C5.74689 43.0114 6.04314 42.8623 9.1985 41.3952C13.1621 39.5524 14.775 38.8003 16.7574 37.8704ZM17.8153 42.2505C17.9787 41.8702 18.1712 41.6775 18.5095 41.5557C18.8143 41.4459 18.7358 41.4325 20.9103 41.9649C22.0158 42.2355 22.7001 42.4345 22.7618 42.5032C22.8157 42.5633 23.2946 43.5404 23.826 44.6747C24.7245 46.5925 24.79 46.7582 24.7587 47.0358C24.7117 47.4538 24.5095 47.6232 23.4948 48.0952C23.0248 48.3138 21.7973 48.8838 20.767 49.3619C18.813 50.2686 16.4431 51.3718 13.1214 52.9209C12.0435 53.4236 11.0339 53.8671 10.8781 53.9063C10.5218 53.9962 10.2578 53.8769 10.0215 53.5193C9.84417 53.251 8.76968 50.9217 8.70605 50.6678C8.67989 50.5632 8.83423 50.0263 9.16741 49.0626C9.44282 48.2662 9.77239 47.3039 9.89984 46.9242C10.0274 46.5445 10.1725 46.1594 10.2224 46.0685C10.4566 45.6424 10.8747 45.3445 11.239 45.3441C11.3671 45.3439 12.151 45.5764 12.9809 45.8607L14.4898 46.3776L14.4709 46.9961C14.4518 47.6249 14.3505 48.888 14.2881 49.2765C14.2545 49.4856 14.2592 49.4904 14.4978 49.4904C14.7371 49.4904 15.509 49.1609 17.5462 48.1889C17.9981 47.9733 18.6591 47.6689 19.0152 47.5124C19.6381 47.2388 19.9114 47.0156 19.815 46.8595C19.7913 46.8211 19.7424 46.808 19.7064 46.8303C19.6696 46.853 19.65 46.8173 19.6616 46.7491C19.676 46.6648 19.6369 46.6208 19.5344 46.6062C19.453 46.5946 19.3558 46.528 19.3185 46.4581C19.2811 46.3883 19.2144 46.3311 19.1701 46.3311C19.1258 46.3311 19.0527 46.2719 19.0075 46.1995C18.9624 46.1271 18.8729 46.0678 18.8087 46.0678C18.7445 46.0678 18.6006 45.9888 18.4892 45.8923C18.3776 45.7957 18.1839 45.655 18.0586 45.5796C17.4048 45.186 17.1542 44.9782 17.153 44.8286C17.1512 44.5946 17.6613 42.6089 17.8153 42.2505ZM15.1551 45.8176C15.1372 45.7886 15.1547 45.447 15.1939 45.0585C15.2332 44.6699 15.2861 44.3605 15.3115 44.3707C15.5098 44.4508 16.3616 45.0643 16.3622 45.1276C16.3637 45.2628 15.95 45.6874 15.7254 45.7814C15.4887 45.8804 15.205 45.8984 15.1551 45.8176ZM15.314 46.5761C15.7674 46.5151 16.3809 46.1814 16.655 45.8464C16.7923 45.6786 16.9292 45.5413 16.959 45.5413C16.9889 45.5413 17.3284 45.756 17.7134 46.0185C18.0985 46.2809 18.4871 46.5442 18.577 46.6035C18.667 46.6628 18.7799 46.7872 18.8279 46.8799L18.9153 47.0485L18.5101 47.1448C18.2079 47.2165 18.155 47.2438 18.3021 47.2522C18.452 47.2609 18.4012 47.2883 18.0906 47.3665C17.8658 47.4232 17.6958 47.492 17.7128 47.5195C17.7297 47.547 17.5926 47.6082 17.408 47.6556C17.2235 47.7029 17.1113 47.7546 17.1587 47.7704C17.206 47.7862 17.0981 47.8485 16.9189 47.9089C16.7398 47.9692 16.3048 48.159 15.9524 48.3308C15.6 48.5025 15.204 48.6605 15.0723 48.6819L14.8329 48.7208L14.8718 48.4968C14.8933 48.3736 14.9282 48.021 14.9493 47.7133L14.9534 47.6537C15.0049 46.9042 15.0192 46.6953 15.1259 46.6234C15.1699 46.5938 15.2296 46.5874 15.314 46.5761ZM15.0307 48.872C15.0088 48.8938 14.9521 48.8962 14.9047 48.8772C14.8523 48.8562 14.8678 48.8406 14.9444 48.8374C15.0137 48.8346 15.0525 48.8501 15.0307 48.872Z" fill="#5EFF9E"/>
<path fill-rule="evenodd" clip-rule="evenodd" d="M79.1002 61.0747C79.2485 61.0747 80.7755 61.6463 85.0837 63.3144C90.9482 65.5851 90.7049 65.5096 91.0953 65.1806C91.4006 64.9233 91.2371 65.3111 93.2013 60.1861C93.5205 59.3535 93.979 58.1688 94.2204 57.5533C94.8727 55.8899 94.9884 55.5427 94.9991 55.2167C95.0146 54.7492 94.8322 54.5543 94.1057 54.2626C93.5777 54.0505 87.7302 51.787 83.8677 50.2997C82.3743 49.7246 81.519 49.4246 81.3729 49.4246C81.1858 49.4246 80.7815 49.7529 80.6495 50.0119C80.5142 50.2774 79.4086 53.148 79.2659 53.6042C79.2206 53.749 79.1505 53.9267 79.11 53.9991L78.4088 55.5377C78.3709 55.7718 78.0766 56.6301 77.7429 57.4794C77.4141 58.3165 77.0999 59.1643 77.0447 59.3636C76.9521 59.6981 76.9534 59.7445 77.0606 59.9709C77.1781 60.2188 77.3237 60.3109 78.1692 60.6722L78.485 60.8072L79.1002 61.0747ZM79.331 54.8218C80.6291 51.4325 80.9789 50.5349 81.1145 50.2462C81.1906 50.0839 81.2817 49.9512 81.3167 49.9512C81.4258 49.9512 82.3812 50.3023 84.361 51.0701C86.476 51.8903 87.0195 52.1002 90.9973 53.6328C94.0669 54.8155 94.5161 55.0042 94.5155 55.1106C94.5146 55.3047 94.256 56.0091 92.773 59.857C90.8796 64.7698 90.856 64.8264 90.7002 64.8264C90.5196 64.8264 89.7029 64.5256 86.1025 63.1331C84.2769 62.427 81.6506 61.412 80.2665 60.8776C78.8823 60.3431 77.6918 59.8532 77.6209 59.789C77.5499 59.7247 77.494 59.61 77.4965 59.5342C77.501 59.4012 77.5029 59.4008 77.5517 59.5258C77.592 59.629 77.6095 59.6023 77.638 59.3941C77.6577 59.2505 77.902 58.5406 78.181 57.8166C78.46 57.0926 78.9774 55.7449 79.331 54.8218Z" fill="#5EFF9E"/>
<path d="M83.9161 59.1594C83.5147 59.5614 83.4017 59.7145 83.4186 59.8341C83.4584 60.1144 83.7717 60.0141 84.2134 59.5797C84.6312 59.1688 84.8183 58.8796 84.7619 58.7322C84.6802 58.5192 84.4282 58.6465 83.9161 59.1594Z" fill="#5EFF9E"/>
<path d="M82.4701 57.3375C82.4521 57.4562 82.4503 57.5755 82.4662 57.6027C82.4821 57.6299 82.8649 57.6521 83.3168 57.6521H84.1386L84.1181 57.4052L84.0977 57.1584L83.3003 57.14L82.5029 57.1216L82.4701 57.3375Z" fill="#5EFF9E"/>
<path d="M83.4533 54.8914C83.3989 55.0995 83.5354 55.3236 83.9777 55.7528C84.3808 56.144 84.5624 56.2395 84.7177 56.1419C84.8918 56.0325 84.6976 55.6152 84.2804 55.2019C83.8398 54.7654 83.5177 54.6445 83.4533 54.8914Z" fill="#5EFF9E"/>
<path d="M85.8138 53.8728C85.7918 53.9301 85.7739 54.33 85.7739 54.7614V55.5458H86.0368H86.2997V54.783C86.2997 54.0724 86.2896 54.0117 86.1518 53.8967C85.9693 53.7442 85.8658 53.7369 85.8138 53.8728Z" fill="#5EFF9E"/>
<path d="M87.7619 55.3006C87.4636 55.5984 87.2195 55.8745 87.2197 55.9141C87.2198 55.9537 87.2775 56.0384 87.3478 56.1021C87.4703 56.2131 87.4837 56.2123 87.66 56.0843C87.7614 56.0107 88.0514 55.7379 88.3045 55.478C88.5228 55.2538 88.7118 54.9489 88.6341 54.8235C88.5261 54.6485 88.2811 54.7825 87.7619 55.3006Z" fill="#5EFF9E"/>
<path d="M87.9254 57.3394C87.9075 57.4571 87.9059 57.5755 87.9218 57.6027C87.9377 57.6299 88.3187 57.6521 88.7684 57.6521H88.7958C89.3241 57.6521 89.5241 57.6521 89.5764 57.5642C89.6083 57.5106 89.5852 57.4244 89.548 57.2855L89.5448 57.2736C89.5065 57.1306 89.4782 57.1255 88.7315 57.1255H87.9579L87.9254 57.3394Z" fill="#5EFF9E"/>
<path d="M87.3164 58.7314C87.2035 58.8142 87.2 58.8411 87.282 58.9947C87.3323 59.0887 87.5749 59.3604 87.8211 59.5984C88.3294 60.0898 88.552 60.1458 88.5867 59.7912C88.6018 59.6362 88.5475 59.531 88.3342 59.302C88.0057 58.9494 87.6244 58.6394 87.5192 58.6394C87.4769 58.6394 87.3856 58.6808 87.3164 58.7314Z" fill="#5EFF9E"/>
<path d="M85.7884 60.1039L85.8067 60.976H86.0368H86.2668L86.2854 60.1584C86.3054 59.2747 86.291 59.2346 85.9527 59.2327L85.7701 59.2317L85.7884 60.1039Z" fill="#5EFF9E"/>
<path fill-rule="evenodd" clip-rule="evenodd" d="M52.2328 21.0313C52.207 21.0572 52.1859 22.4358 52.1859 24.0951V27.1118H52.4495H52.713L52.6959 24.0676L52.6788 21.0235L52.4793 21.0039C52.3695 20.9931 52.2586 21.0055 52.2328 21.0313ZM22.0015 23.1461L21.983 23.9195L21.2106 23.9381L20.4383 23.9566V24.2178V24.479H21.2271H22.0158V25.2688C22.0158 25.9768 22.0277 26.0587 22.1309 26.0596C22.1941 26.06 22.3124 26.0783 22.3938 26.1001C22.5414 26.1397 22.5417 26.1385 22.5417 25.3094V24.479H23.3304H24.1192V24.2157V23.9524H23.3304H22.5417V23.1626V22.3728H22.2809H22.02L22.0015 23.1461ZM37.7691 22.6799C37.6111 22.8382 37.8292 23.0975 39.7136 24.9913C40.8072 26.0904 41.7867 27.0344 41.8903 27.0892C42.1239 27.2127 42.2242 27.1318 42.1661 26.8668C42.1361 26.7301 41.5449 26.0912 40.1196 24.6553C38.1671 22.6882 37.9462 22.5026 37.7691 22.6799ZM64.1638 24.6953C63.0348 25.8279 62.1111 26.7881 62.1111 26.8291C62.1111 27.0087 62.2026 27.1118 62.3621 27.1118C62.4989 27.1118 62.9341 26.7114 64.5262 25.1207C66.4082 23.2405 66.7101 22.886 66.6 22.6854C66.5851 22.6582 66.4927 22.636 66.3947 22.636C66.2483 22.636 65.8488 23.0049 64.1638 24.6953ZM84.4127 41.643C84.3631 41.6756 84.3262 41.9164 84.3141 42.2854L84.2949 42.8756L83.6938 42.8944L83.0927 42.9132L83.0659 43.1433C83.0512 43.2698 83.053 43.3871 83.07 43.4042C83.087 43.4211 83.3758 43.435 83.7119 43.435H84.3231L84.3419 44.0768L84.3607 44.7185L84.6072 44.7389L84.8536 44.7594V44.0972V43.435H85.4781H86.1025V43.1718V42.9085H85.4804H84.8584L84.8396 42.2667C84.8211 41.6363 84.8179 41.6247 84.6564 41.6079C84.5661 41.5985 84.4564 41.6143 84.4127 41.643ZM14.9047 48.8772C14.9521 48.8962 15.0088 48.8938 15.0307 48.872C15.0525 48.8501 15.0137 48.8346 14.9444 48.8374C14.8678 48.8406 14.8523 48.8562 14.9047 48.8772ZM17.4805 62.4468V63.2344L16.8565 63.2813C16.5133 63.3071 16.1728 63.3125 16.0997 63.2934C15.9341 63.25 15.8095 63.4562 15.8658 63.6807C15.9049 63.837 15.916 63.8391 16.6909 63.8391H17.4763L17.4948 64.6125L17.5133 65.3859L17.7598 65.4063L18.0063 65.4268V64.6329V63.8391H18.7951C19.5021 63.8391 19.5839 63.8272 19.5848 63.7239C19.5852 63.6606 19.6035 63.5421 19.6252 63.4607C19.6648 63.3128 19.6634 63.3126 18.8376 63.3126H18.0104L17.9919 62.5063L17.9734 61.7L17.727 61.6796L17.4805 61.6591V62.4468Z" fill="#5EFF9E"/>
<path fill-rule="evenodd" clip-rule="evenodd" d="M85.5438 56.1297C84.8513 56.4465 84.5019 57.2355 84.7482 57.9261C84.8657 58.2554 85.0986 58.5315 85.4123 58.7136C85.7848 58.9297 86.5552 58.9336 86.8986 58.7211C87.6333 58.2662 87.8031 57.1517 87.2337 56.5207C87.1046 56.3775 86.8871 56.2032 86.7505 56.1335C86.4333 55.9714 85.8936 55.9697 85.5438 56.1297ZM85.2894 57.957C85.0628 57.4788 85.2185 56.9329 85.6582 56.6644C85.9274 56.5001 86.4374 56.4906 86.6984 56.6449C87.037 56.8452 87.1807 57.4351 86.9978 57.8735C86.8434 58.2436 86.6089 58.3761 86.1083 58.3761C85.6094 58.3761 85.4492 58.2941 85.2894 57.957Z" fill="#5EFF9E"/>
<path fill-rule="evenodd" clip-rule="evenodd" d="M71.9129 71.8835C71.9173 72.3643 71.9395 73.1723 71.9622 73.6791C72.0019 74.5668 72.0088 74.6014 72.1496 74.6214C72.2337 74.6334 72.8166 74.3885 73.5232 74.0443C74.1983 73.7153 74.7596 73.4552 74.7705 73.4662C74.7901 73.4858 75.2795 74.8221 76.1465 77.2234C76.3928 77.9057 76.6308 78.4779 76.6753 78.495C76.7689 78.531 77.0804 78.3787 77.952 77.8708C78.2954 77.6706 78.887 77.3263 79.2666 77.1056C80.0474 76.6516 80.1188 76.5368 79.8132 76.2272L76.75 72.75C76.5 72.5 76.6887 72.3809 77.7055 71.8609C78.7567 71.3235 79.0694 71.1094 79.0694 70.9272C79.0694 70.8765 78.9363 70.7508 78.7736 70.6479C78.6109 70.5449 78.4778 70.4373 78.4778 70.4089L77.921 69.9603C77.8805 69.9603 77.612 69.7843 77.3245 69.5692C77.037 69.3541 76.5709 69.006 76.2889 68.7958C76.0069 68.5856 75.6371 68.3091 75.4673 68.1814L72.9044 66.2921C72.0704 65.6976 71.9182 65.6207 71.8354 65.7516C71.8024 65.8039 71.775 66.0909 71.7744 66.3896L71.7734 66.9326L71.9129 71.8835ZM72.5798 73.9095C72.525 73.9095 72.4595 72.249 72.3338 67.6671C72.3099 66.7957 72.3206 66.5977 72.3907 66.6246C72.4383 66.6429 72.892 66.964 73.3989 67.3383C73.9058 67.7125 74.583 68.2093 74.9038 68.4423C76.416 69.5408 78.2149 70.9097 78.2149 70.9619C78.2149 70.9937 78.1257 71.0574 78.0166 71.1033C77.9076 71.1492 77.841 71.2118 77.8687 71.2423C77.8965 71.2728 77.8896 71.2811 77.8534 71.2607C77.8172 71.2403 77.3736 71.4354 76.8675 71.6944C75.9032 72.1878 75.821 72.2703 75.9962 72.5695C76.0416 72.647 76.7257 73.4615 77.5166 74.3795L77.8033 74.7121C79.002 76.1025 79.2995 76.4476 79.2278 76.5625L76.9361 77.8494C76.9239 77.8364 76.5838 76.8928 76.1805 75.7525C75.2788 73.2027 75.1284 72.8001 75.0626 72.7594C75.0342 72.7417 74.4778 72.9933 73.8264 73.3185C73.1749 73.6435 72.6139 73.9095 72.5798 73.9095Z" fill="#5EFF9E"/>
</svg>
