<svg width="100" height="100" viewBox="0 0 100 100" fill="none" xmlns="http://www.w3.org/2000/svg">
<path d="M89.3363 86.0593C89.3363 86.0202 89.3168 85.9877 89.2972 85.9551C89.2907 85.9486 89.2842 85.9421 89.2777 85.9356C89.2712 85.9291 89.2647 85.916 89.2582 85.916L81.6475 81.8015C81.5694 81.7559 81.4717 81.7884 81.4261 81.8666C81.3806 81.9447 81.4131 82.0423 81.4912 82.0879L88.5355 85.8965H54.0563C51.7451 85.903 49.3883 85.6491 47.1096 85.1543C47.0185 85.1348 46.9339 85.1934 46.9143 85.278C46.8948 85.3692 46.9534 85.4538 47.038 85.4733C47.8518 85.6491 48.6722 85.7858 49.499 85.8965H15.1825V29.8612L18.9651 36.9446C19.0106 37.0227 19.1083 37.0553 19.1864 37.0097C19.2645 36.9641 19.2971 36.8665 19.2515 36.7883L15.163 29.1321C15.1044 29.0279 14.9351 29.0279 14.8765 29.1321L10.788 36.7883C10.7489 36.8665 10.7749 36.9641 10.8531 37.0097C10.8791 37.0227 10.9052 37.0292 10.9312 37.0292C10.9898 37.0292 11.0484 36.9967 11.0744 36.9446L14.857 29.8612V86.0593C14.857 86.1504 14.9286 86.222 15.0197 86.222H54.0172C54.0172 86.222 54.0302 86.222 54.0433 86.222H88.529L81.4847 90.0372C81.4066 90.0827 81.374 90.1804 81.4196 90.2585C81.4457 90.3106 81.5043 90.3431 81.5628 90.3431C81.5889 90.3431 81.6149 90.3431 81.641 90.3236L89.2517 86.2025C89.2517 86.2025 89.2647 86.1895 89.2712 86.183C89.2777 86.183 89.2842 86.17 89.2907 86.1634C89.3168 86.1374 89.3298 86.0983 89.3298 86.0593H89.3363Z" fill="white"/>
<g opacity="0.56">
<path d="M25.3122 69.1256C25.3122 69.1256 25.3643 69.1256 25.3903 69.106C25.4684 69.0605 25.501 68.9628 25.4554 68.8847C21.9593 62.4654 20.7223 54.9589 21.9723 47.7583C23.2158 40.5578 26.9007 33.9041 32.3499 29.0278C37.7992 24.1515 44.8174 21.2218 52.1156 20.7791C59.4073 20.3364 66.7315 22.4002 72.7276 26.5799C72.7993 26.632 72.9034 26.6125 72.9555 26.5408C73.0076 26.4692 72.9881 26.3651 72.9164 26.313C66.8617 22.0877 59.4659 20.0044 52.0961 20.4536C44.7263 20.9028 37.6364 23.8585 32.1351 28.7804C26.6338 33.7023 22.9098 40.4211 21.6533 47.6997C20.3968 54.9719 21.6468 62.55 25.1755 69.0409C25.208 69.093 25.2601 69.1256 25.3187 69.1256H25.3122Z" fill="white"/>
<path d="M81.1261 71.5019C78.4373 75.4928 74.8305 78.8977 70.6899 81.3521C70.6117 81.3977 70.5857 81.4954 70.6313 81.5735C70.6638 81.6256 70.7159 81.6516 70.7745 81.6516C70.8006 81.6516 70.8331 81.6451 70.8591 81.6321C75.0388 79.1581 78.6847 75.7141 81.3995 71.6842C84.1144 67.6542 85.9243 62.9797 86.6404 58.175C87.3566 53.3703 86.992 48.3703 85.5727 43.7219C84.1534 39.0734 81.673 34.7179 78.3982 31.1242C78.3396 31.0591 78.2355 31.0526 78.1704 31.1112C78.1053 31.1698 78.0987 31.2739 78.1573 31.339C81.3995 34.8937 83.854 39.2036 85.2602 43.8065C86.66 48.4094 87.0245 53.3573 86.3149 58.1164C85.6053 62.8756 83.8084 67.5045 81.1196 71.4954L81.1261 71.5019Z" fill="white"/>
<path d="M63.8669 34.7114C60.0323 32.6997 55.7419 31.9185 51.445 32.4653C47.1482 33.0122 43.1833 34.8351 39.9737 37.7453C36.764 40.6555 34.5635 44.425 33.6 48.6438C33.5804 48.7284 33.6325 48.8195 33.7236 48.8391C33.8148 48.8586 33.8994 48.8065 33.919 48.7154C34.863 44.5617 37.0375 40.8508 40.195 37.9862C43.3526 35.1216 47.2588 33.3247 51.4841 32.7909C55.7094 32.2505 59.9411 33.0187 63.7172 35.0044C67.4867 36.9901 70.5206 40.037 72.4737 43.826C74.0232 46.8208 74.8175 50.1867 74.7784 53.5591C74.7394 56.9315 73.867 60.2779 72.2524 63.2336C70.6378 66.1894 68.294 68.7349 65.4815 70.5904C65.4034 70.6425 65.3839 70.7401 65.436 70.8183C65.4685 70.8638 65.5206 70.8899 65.5727 70.8899C65.6052 70.8899 65.6378 70.8834 65.6638 70.8638C68.5219 68.9758 70.8982 66.3912 72.5388 63.3899C74.1795 60.3821 75.0649 56.9836 75.1039 53.5656C75.143 50.1411 74.3357 46.7232 72.7602 43.6828C70.7745 39.8351 67.6951 36.7362 63.8669 34.7245V34.7114Z" fill="white"/>
<path d="M49.7849 73.5527C46.5557 72.8626 43.5088 71.3912 40.9567 69.2948C40.8851 69.2362 40.7875 69.2493 40.7289 69.3144C40.6703 69.3795 40.6833 69.4836 40.7484 69.5422C43.333 71.6711 46.4385 73.1685 49.7133 73.8652C51.1521 74.1711 52.6169 74.3209 54.0818 74.3209C55.9633 74.3209 57.8448 74.067 59.6612 73.5722C59.7458 73.5461 59.7979 73.4615 59.7719 73.3704C59.7458 73.2857 59.6612 73.2336 59.5701 73.2597C56.393 74.1321 53.001 74.2363 49.7784 73.5461L49.7849 73.5527Z" fill="white"/>
<path d="M49.2055 46.0005C50.6573 45.0305 52.3435 44.5226 54.0818 44.5226H54.0883C55.2471 44.5226 56.3799 44.7505 57.4477 45.1932C58.5219 45.6359 59.4789 46.2805 60.2992 47.1008C61.1716 47.9732 61.8357 49.0018 62.2784 50.1542C62.7211 51.3065 62.9164 52.5109 62.8578 53.7479C62.8578 53.8391 62.9229 53.9107 63.0141 53.9172C63.1052 53.9302 63.1833 53.8521 63.1833 53.7609C63.2484 52.4849 63.0466 51.2284 62.5844 50.037C62.1221 48.8456 61.432 47.7779 60.5271 46.8729C59.6742 46.02 58.6846 45.356 57.5714 44.8937C56.4581 44.4315 55.2862 44.1971 54.0883 44.1971H54.0818C52.2719 44.1971 50.5271 44.7245 49.0232 45.7336C47.5193 46.7362 46.3604 48.149 45.6638 49.8221C44.9672 51.4953 44.7914 53.3117 45.1429 55.0891C45.4945 56.8664 46.3539 58.4745 47.6364 59.7571C48.5088 60.6295 49.531 61.3065 50.6703 61.7688C51.7575 62.2115 52.9034 62.4328 54.0818 62.4328C54.1404 62.4328 54.199 62.4328 54.251 62.4328C55.4815 62.4133 56.6794 62.1464 57.8057 61.6386C58.932 61.1373 59.9281 60.4211 60.768 59.5162C60.8266 59.4511 60.8266 59.3469 60.7615 59.2883C60.6964 59.2297 60.5922 59.2297 60.5336 59.2948C59.7263 60.1672 58.7628 60.8508 57.682 61.3391C56.5948 61.8274 55.4424 62.0813 54.2575 62.1008C53.0596 62.1203 51.9073 61.9055 50.807 61.4628C49.7068 61.0201 48.7172 60.3625 47.8773 59.5227C46.6469 58.2857 45.8135 56.7297 45.475 55.024C45.1364 53.3117 45.3122 51.5604 45.9763 49.9458C46.6469 48.3378 47.7666 46.9706 49.212 46.0005H49.2055Z" fill="white"/>
</g>
<path d="M85.4363 23.214C85.3452 23.0643 85.1629 22.9861 84.9871 23.0317L79.3686 24.451L79.9871 18.6697C80.0066 18.4939 79.909 18.3247 79.7462 18.2531C79.5834 18.1814 79.3946 18.227 79.2775 18.3572L71.1329 27.7648C71.0808 27.8234 71.0483 27.9015 71.0352 27.9796L70.2996 34.1711L57.5196 48.7479L56.823 45.9289C56.7774 45.7531 56.6212 45.6229 56.4454 45.6164C56.2696 45.6099 56.1003 45.7271 56.0417 45.8963L53.6915 53.175C53.6394 53.3312 53.6915 53.507 53.8152 53.6112C53.8933 53.6763 53.9844 53.7089 54.0756 53.7089C54.1407 53.7089 54.2058 53.6958 54.2644 53.6633L60.9506 50.1411C61.1133 50.0565 61.198 49.8742 61.1589 49.6919C61.1199 49.5096 60.9636 49.3794 60.7813 49.3729L58.1641 49.2362L70.905 34.7049L76.9923 33.1945C77.0704 33.175 77.1485 33.1294 77.2006 33.0643L85.3777 23.6828C85.4949 23.546 85.5079 23.3572 85.4168 23.201L85.4363 23.214ZM71.836 28.2075L79.0431 19.8742L78.5157 24.796L71.2566 33.0903L71.836 28.2075ZM54.7852 52.4849L56.3868 47.5174L56.9271 49.7049C56.9271 49.7049 56.9402 49.731 56.9467 49.7505C56.9532 49.77 56.9597 49.7896 56.9727 49.8026C56.9922 49.8351 57.0118 49.8612 57.0378 49.8872C57.0443 49.8937 57.0508 49.9068 57.0574 49.9133C57.0574 49.9133 57.0574 49.9133 57.0639 49.9133C57.0964 49.9393 57.1355 49.9654 57.181 49.9784C57.2006 49.9849 57.2201 49.9849 57.2396 49.9914C57.2592 49.9914 57.2787 50.0044 57.3047 50.0044H57.3243L59.2839 50.1086L54.7917 52.4784L54.7852 52.4849ZM76.6863 32.4393L71.8621 33.6372L79.1277 25.3494L83.9259 24.1385L76.6863 32.4458V32.4393Z" fill="white"/>
<path d="M45.0844 81.5733C45.6898 81.1892 46.3083 80.5121 46.3083 79.4509C46.3083 78.0837 45.0258 77.1072 43.7888 76.1631C42.6364 75.2842 41.458 74.3793 41.2367 73.1879H41.6989C42.0505 73.1814 42.3825 73.0381 42.6299 72.7842C42.8773 72.5303 43.014 72.1983 43.014 71.8402C43.014 71.4821 42.8773 71.1501 42.6299 70.8962C42.3825 70.6423 42.0505 70.4991 41.6859 70.4926H41.1911C41.2627 69.0733 41.4515 67.6996 41.6859 66.2933L44.3096 67.0941C44.3487 67.1071 44.3877 67.1137 44.4268 67.1137C44.5049 67.1137 44.5765 67.0941 44.6417 67.0485C44.7393 66.9834 44.8109 66.8858 44.8239 66.7686C44.9607 65.8897 45.1234 64.9912 45.2862 64.1254C45.4424 63.2725 45.6052 62.4196 45.7419 61.5603C46.1976 58.6566 45.4294 54.9977 43.7497 52.0029C41.7705 48.4743 38.7302 46.1566 35.2015 45.4795C34.9867 45.4339 34.7849 45.5706 34.7328 45.7725L34.1924 47.7842L31.9724 44.1514C31.8942 44.0277 31.7575 43.9561 31.6078 43.9561C31.458 43.9626 31.3278 44.0537 31.2627 44.1839C31.139 44.4378 31.0544 44.7048 30.9763 44.9717L30.5726 44.3467C30.4945 44.223 30.3513 44.1514 30.208 44.1579C30.0583 44.1644 29.9281 44.2555 29.863 44.3857C29.5049 45.1279 29.3552 45.9548 29.4268 46.7686C29.4789 47.4066 29.6677 48.0251 29.9737 48.5785C29.1533 48.8584 28.3851 49.2946 27.7341 49.9131C25.7288 51.7816 24.1273 53.9821 22.9749 56.4691C22.8838 56.6709 22.8317 56.8793 22.8317 57.1006C22.8317 57.322 22.8708 57.5303 22.9489 57.7321L23.7301 59.6722C23.8213 59.9131 23.9645 60.128 24.1533 60.3037C24.3421 60.4795 24.57 60.6032 24.8174 60.6748C25.0648 60.7464 25.3252 60.753 25.5791 60.7074C25.833 60.6553 26.0674 60.5511 26.2822 60.3819C28.0075 58.8975 29.9671 57.7712 32.1026 57.016C32.1807 59.9978 30.488 61.4626 28.6976 62.9991C26.8877 64.5616 25.0127 66.1761 24.8565 69.3858C24.8499 69.5681 24.9606 69.7374 25.1364 69.7894C25.807 70.0043 26.4515 70.2842 27.0635 70.6163C26.5752 70.8506 26.3213 71.3585 26.3213 71.8532C26.3213 72.5173 26.777 73.1814 27.6559 73.1814H28.1182C27.8903 74.3728 26.7119 75.2777 25.5596 76.1566C24.3226 77.1006 23.04 78.0772 23.04 79.4444C23.04 80.5056 23.6585 81.1892 24.264 81.5668C23.346 82.2244 21.7965 83.6697 21.751 86.0395C21.751 86.1501 21.79 86.2543 21.8682 86.3324C21.9463 86.4106 22.0505 86.4561 22.1611 86.4561H47.1742C47.2849 86.4561 47.389 86.4106 47.4672 86.3324C47.5453 86.2543 47.5844 86.1501 47.5844 86.0395C47.5388 83.6632 45.9958 82.2178 45.0713 81.5603L45.0844 81.5733ZM35.4294 46.3454C42.4411 47.96 45.7549 56.2738 44.9476 61.4235C44.8174 62.2764 44.6547 63.1228 44.4984 63.9626C44.3617 64.6853 44.225 65.4274 44.1013 66.1631L41.8226 65.473C41.8617 65.2647 41.8942 65.0564 41.9268 64.848C42.057 64.1123 42.1807 63.3767 42.2979 62.6345C43.1247 57.3155 41.5166 52.6931 37.8773 49.9587C37.0179 49.3076 35.9632 48.8063 34.8369 48.5068L35.4164 46.3454H35.4294ZM31.7315 45.2907L33.5414 48.2529C33.0987 48.2009 32.6559 48.1748 32.2132 48.1878C31.8942 47.6735 31.6859 47.0941 31.6338 46.4886C31.6013 46.085 31.6338 45.6813 31.725 45.2842L31.7315 45.2907ZM30.2471 46.7035C30.2145 46.2933 30.2471 45.8766 30.3447 45.4795L30.8265 46.2347C30.8265 46.3454 30.8265 46.4561 30.8265 46.5667C30.8786 47.1657 31.0479 47.7386 31.3148 48.2725C31.139 48.2985 30.9632 48.3246 30.794 48.3636C30.488 47.8623 30.2927 47.2959 30.2471 46.71V46.7035ZM29.238 63.6176C31.1455 61.9769 33.1052 60.2712 32.9099 56.736C33.5674 56.4821 34.6612 55.9157 35.2211 54.8089C35.6442 53.9691 35.6703 52.9925 35.2992 51.9118C35.2276 51.697 34.9932 51.5863 34.7849 51.6579C34.57 51.7295 34.4593 51.9639 34.531 52.1722C34.8304 53.0446 34.8174 53.8063 34.4919 54.4444C33.9711 55.486 32.7406 55.9483 32.376 56.0655C29.9346 56.8467 27.708 58.0967 25.7744 59.7569C25.6768 59.835 25.5531 59.8936 25.4294 59.9131C25.3057 59.9392 25.169 59.9326 25.0453 59.9001C24.9216 59.8675 24.8044 59.8024 24.7132 59.7113C24.6221 59.6267 24.544 59.516 24.4984 59.3858L23.7106 57.4326C23.6716 57.335 23.652 57.2308 23.652 57.1267C23.652 57.0225 23.6781 56.9183 23.7236 56.8207C24.8304 54.4313 26.3734 52.3089 28.3005 50.5186C30.6833 48.2725 34.9281 48.7608 37.4021 50.6227C40.7875 53.1748 42.2849 57.5108 41.5036 62.5238C41.3864 63.2595 41.2627 63.9952 41.1325 64.7243C41.0804 65.0238 41.0284 65.3298 40.9763 65.6293C40.9763 65.6358 40.9698 65.6423 40.9633 65.6488C40.9502 65.6814 40.9567 65.7139 40.9502 65.753C40.6898 67.2959 40.4554 68.878 40.3708 70.4926H28.4372C27.5778 69.9262 26.6598 69.4639 25.6898 69.1254C25.9242 66.4691 27.5322 65.0824 29.2249 63.6241L29.238 63.6176ZM27.1481 71.8532C27.1481 71.6449 27.2588 71.2999 27.6755 71.2999H40.7093C40.7093 71.2999 40.7354 71.3064 40.7484 71.3064C40.7484 71.3064 40.7549 71.3064 40.7614 71.3064C40.781 71.3064 40.794 71.2999 40.807 71.2999H41.6794C41.8226 71.2999 41.9528 71.3585 42.0505 71.4626C42.1482 71.5668 42.2067 71.697 42.2067 71.8402C42.2067 71.9834 42.1547 72.1137 42.0505 72.2113C41.9528 72.309 41.8226 72.3676 41.6924 72.3741H27.669C27.1872 72.3741 27.1481 71.9769 27.1481 71.8598V71.8532ZM26.0739 76.8077C27.3369 75.8441 28.7367 74.7569 28.9515 73.1814H40.4164C40.6312 74.7504 42.031 75.8441 43.294 76.8012C44.4268 77.6671 45.4945 78.4809 45.4945 79.4444C45.4945 80.6163 44.4138 81.0329 44.1729 81.1111H25.1885C24.9476 81.0329 23.8669 80.6098 23.8669 79.4444C23.8669 78.4809 24.9346 77.6671 26.0674 76.8012L26.0739 76.8077ZM22.6169 85.6488C22.8773 83.3767 24.8369 82.1592 25.2406 81.9314H44.1403C44.557 82.1592 46.5101 83.3441 46.764 85.6488H22.6104H22.6169Z" fill="#5EFF9E"/>
<path d="M71.6151 83.5592C71.2635 83.1295 70.8208 82.791 70.3326 82.537C70.8729 82.179 71.3612 81.5995 71.3612 80.7337C71.3612 79.5943 70.4628 78.9954 69.5969 78.4094C68.7115 77.8105 67.8716 77.2376 67.7544 76.1113H68.0995C68.3534 76.1113 68.5943 76.0136 68.7831 75.8313C68.8742 75.7402 68.9458 75.636 68.9979 75.5123C69.05 75.3886 69.076 75.2649 69.076 75.1477C69.076 75.0175 69.0565 74.8873 69.0044 74.7701C68.9589 74.6529 68.8872 74.5422 68.7961 74.4511C68.7049 74.3599 68.5943 74.2883 68.4836 74.2362C68.3664 74.1842 68.2362 74.1581 68.1125 74.1581H67.5591C67.0904 73.5266 65.1893 70.5579 65.1698 64.0539H67.7349C68.0409 64.0409 68.3273 63.9172 68.5357 63.6959C68.7505 63.4745 68.8677 63.188 68.8612 62.8821C68.8612 62.0097 67.1229 60.8508 65.0656 60.3365C65.3195 60.1802 65.5669 60.0044 65.7818 59.7831C66.4979 59.0669 66.8885 58.1229 66.8885 57.1138C66.8885 56.1047 66.4979 55.1542 65.7818 54.4445C64.7141 53.3768 63.0539 53.0448 61.6672 53.6242C61.2049 53.813 60.7948 54.093 60.4432 54.4445C60.0916 54.7961 59.8117 55.2128 59.6229 55.6685C59.4341 56.1307 59.3364 56.619 59.3364 57.1138C59.3364 57.6086 59.4341 58.0969 59.6229 58.5591C59.8117 59.0214 60.0851 59.4315 60.4432 59.7831C60.6581 59.9979 60.9055 60.1737 61.1659 60.3365C59.1086 60.8443 57.3768 62.0097 57.3768 62.8821C57.3768 63.188 57.494 63.481 57.7023 63.6959C57.9172 63.9172 58.1971 64.0474 58.5226 64.0539H61.0682C61.0617 70.5188 59.1672 73.5071 58.6854 74.1581H58.1385C57.8846 74.1777 57.6307 74.2558 57.4484 74.4381C57.3117 74.5748 57.214 74.7441 57.175 74.9329C57.1359 75.1217 57.1554 75.317 57.2271 75.4993C57.2987 75.6816 57.4224 75.8313 57.5786 75.942C57.7414 76.0527 57.9237 76.1113 58.1255 76.1113H58.4836C58.3599 77.231 57.5265 77.804 56.6411 78.4029C55.7752 78.9889 54.8768 79.5878 54.8768 80.7271C54.8768 81.5995 55.3651 82.179 55.9054 82.5305C55.4106 82.7844 54.9614 83.1295 54.6099 83.5592C54.0369 84.2558 53.7049 85.1347 53.6724 86.0331C53.6724 86.1438 53.7114 86.248 53.7896 86.3326C53.8677 86.4108 53.9718 86.4563 54.0825 86.4563H72.1425C72.2531 86.4563 72.3573 86.4108 72.4354 86.3326C72.5135 86.2545 72.5526 86.1438 72.5526 86.0331C72.5201 85.1347 72.188 84.2558 71.6151 83.5592ZM61.0161 59.2232C60.7362 58.9432 60.5213 58.6242 60.3716 58.2596C60.2219 57.8951 60.1437 57.5175 60.1437 57.1268C60.1437 56.7362 60.2219 56.3521 60.3716 55.994C60.5213 55.6359 60.7362 55.3104 61.0161 55.0305C61.2961 54.7505 61.6151 54.5357 61.9797 54.3859C62.3443 54.2362 62.7219 54.1581 63.1125 54.1581C63.9068 54.1581 64.6489 54.4641 65.2088 55.024C65.7687 55.5839 66.0747 56.3261 66.0747 57.1203C66.0747 57.9146 65.7687 58.6568 65.2088 59.2167C64.3755 60.05 63.0734 60.3104 61.9797 59.8612C61.6216 59.7115 61.2961 59.4966 61.0161 59.2167V59.2232ZM58.2883 63.1425C58.2232 63.0774 58.1906 62.9862 58.1906 62.9016C58.2687 62.4459 60.4693 60.9289 63.106 60.9029C63.106 60.9029 63.106 60.9029 63.1125 60.9029C65.7557 60.9289 67.9628 62.4393 68.0344 62.8951C68.0344 62.9862 68.0018 63.0774 67.9302 63.1425C67.8651 63.2076 67.7805 63.2466 67.7023 63.2532H64.7401H58.5226C58.4315 63.2532 58.3403 63.2141 58.2752 63.1425H58.2883ZM61.8755 64.067H64.343C64.356 69.8092 65.7818 72.9146 66.563 74.1711H59.662C60.4432 72.9081 61.869 69.8026 61.8755 64.067ZM58.1255 75.304C58.1255 75.304 58.0669 75.2909 58.0344 75.2779C58.0083 75.2584 57.9888 75.2323 57.9758 75.2063C57.9627 75.1738 57.9627 75.1412 57.9692 75.1086C57.9692 75.0761 57.9888 75.0501 58.0148 75.0305C58.0474 74.998 58.0864 74.9849 58.132 74.9849H58.8221C58.8221 74.9849 58.8547 74.9915 58.8677 74.9915C58.8807 74.9915 58.8937 74.9849 58.9133 74.9849H68.0995V74.5813L68.1581 74.998C68.1581 74.998 68.2102 75.0305 68.2102 75.037L68.4966 74.7506L68.2492 75.1477C68.2492 75.1477 68.2036 75.2584 68.2036 75.2649C68.1711 75.2974 68.132 75.304 68.0865 75.3105H58.9523C58.9523 75.3105 58.9068 75.2974 58.8872 75.304C58.8742 75.304 58.8612 75.3105 58.8482 75.3105H58.119L58.1255 75.304ZM55.6906 80.7271C55.6906 80.0631 56.2245 79.6659 57.0969 79.08C58.0344 78.4485 59.1737 77.6672 59.2974 76.1178H66.9406C67.0643 77.6738 68.1971 78.455 69.1411 79.0865C70.0135 79.6725 70.5474 80.0631 70.5474 80.7337C70.5474 81.7493 69.4536 82.0943 69.2323 82.1529H57.0513C56.9992 82.1399 55.6971 81.8404 55.6971 80.7271H55.6906ZM54.5317 85.6425C54.6229 85.0696 54.8703 84.5292 55.2414 84.08C55.6906 83.5331 56.3221 83.1425 57.0122 82.9732H69.2193C69.9094 83.1425 70.5409 83.5331 70.9901 84.08C71.3612 84.5292 71.6021 85.0696 71.6997 85.6425H54.5317Z" fill="#5EFF9E"/>
<path opacity="0.32" d="M97.3373 73.9954H94.7331V71.3847C94.7331 71.2935 94.6615 71.2219 94.5703 71.2219C94.4792 71.2219 94.4076 71.2935 94.4076 71.3847V73.9954H91.8034C91.7122 73.9954 91.6406 74.067 91.6406 74.1581C91.6406 74.2493 91.7122 74.3209 91.8034 74.3209H94.4076V76.9316C94.4076 77.0227 94.4792 77.0943 94.5703 77.0943C94.6615 77.0943 94.7331 77.0227 94.7331 76.9316V74.3209H97.3373C97.4284 74.3209 97.5 74.2493 97.5 74.1581C97.5 74.067 97.4284 73.9954 97.3373 73.9954Z" fill="white"/>
<path opacity="0.32" d="M7.95574 50.9094H6.59506C6.45183 50.9094 6.3086 50.8834 6.17188 50.8248C6.03516 50.7662 5.91147 50.6881 5.8073 50.5839C5.70313 50.4797 5.6185 50.356 5.56641 50.2193C5.50782 50.0826 5.48178 49.9394 5.48178 49.7961V48.4355C5.48178 48.3443 5.41016 48.2727 5.31902 48.2727C5.22787 48.2727 5.15626 48.3443 5.15626 48.4355V49.7961C5.15626 49.9459 5.13021 50.0891 5.07162 50.2258C5.01303 50.3626 4.9349 50.4862 4.83073 50.5904C4.72657 50.6946 4.60287 50.7792 4.46615 50.8313C4.32943 50.8899 4.1862 50.9159 4.04297 50.9159H2.66276C2.57161 50.9159 2.5 50.9876 2.5 51.0787C2.5 51.1698 2.57161 51.2415 2.66276 51.2415H4.02344C4.2448 51.2415 4.45964 51.3066 4.64844 51.4303C4.83073 51.554 4.97396 51.7297 5.06511 51.9381C5.1237 52.0748 5.14975 52.2115 5.14975 52.3613V52.3678V53.7219C5.14975 53.8131 5.22136 53.8847 5.31251 53.8847C5.40365 53.8847 5.47527 53.8131 5.47527 53.7219V52.3613C5.47527 52.1399 5.54037 51.9251 5.66407 51.7363C5.78777 51.5475 5.96355 51.4107 6.16537 51.3196C6.30209 51.261 6.44532 51.235 6.58855 51.235H7.94923C8.04038 51.235 8.11199 51.1633 8.11199 51.0722C8.11199 50.981 8.04038 50.9094 7.94923 50.9094H7.95574ZM5.39063 51.554C5.36459 51.5995 5.33204 51.6451 5.31251 51.6907C5.20183 51.4758 5.03907 51.2935 4.83073 51.1568C4.78516 51.1243 4.73959 51.0982 4.69401 51.0722C4.82422 51.0071 4.94792 50.9159 5.05209 50.8118C5.15626 50.7076 5.2474 50.5839 5.31251 50.4537C5.37761 50.5839 5.46876 50.7011 5.57292 50.8118C5.67709 50.9224 5.80079 51.0071 5.931 51.0722C5.71615 51.1829 5.52735 51.3521 5.39063 51.554Z" fill="white"/>
<path opacity="0.32" d="M54.0759 14.0603C54.0303 14.0603 53.9912 14.0408 53.9587 14.0083L51.0811 10.9809C51.016 10.9158 51.0225 10.8116 51.0811 10.753C51.1462 10.6945 51.2504 10.6945 51.309 10.753L54.0564 13.6437L56.8689 10.0629C56.9209 9.99133 57.0251 9.97831 57.0967 10.0369C57.1683 10.089 57.1814 10.1932 57.1228 10.2648L54.1996 14.0018C54.1735 14.0408 54.128 14.0603 54.0824 14.0669C54.0824 14.0669 54.0824 14.0669 54.0759 14.0669V14.0603Z" fill="white"/>
</svg>
