<svg width="100" height="100" viewBox="0 0 100 100" fill="none" xmlns="http://www.w3.org/2000/svg">
<path fill-rule="evenodd" clip-rule="evenodd" d="M78.1479 62.5619C76.9976 62.6886 75.9708 63.0466 75.0274 63.6498C73.909 64.3649 72.7163 65.7367 72.712 66.313C72.7109 66.4584 72.7987 66.6352 73.0828 67.0601C73.4722 67.6425 73.9388 68.1282 74.6218 68.6627C75.2207 69.1314 76.1571 69.6072 76.9069 69.824C77.1079 69.8822 78.1881 70.0417 78.5616 70.0684C79.3017 70.1213 80.4493 69.9437 81.2209 69.6569C81.7109 69.4747 82.4048 69.1363 82.7595 68.9064C83.6039 68.3592 84.5228 67.3975 84.8912 66.6755C85.0154 66.4319 85.0166 66.4246 84.9676 66.194C84.9117 65.9311 84.7668 65.6656 84.4783 65.2972C83.985 64.6675 83.3101 64.039 82.7075 63.648C81.9964 63.1868 81.0271 62.7928 80.2657 62.6557C79.5799 62.5322 78.7512 62.4955 78.1479 62.5619ZM76.7826 63.6793C76.458 63.778 75.6383 64.1948 75.2719 64.4474C74.5393 64.9523 73.5778 66.0057 73.5778 66.3033C73.5778 66.551 74.391 67.4664 75.0158 67.9222C75.2108 68.0644 75.4149 68.2136 75.4694 68.2537C75.5238 68.2938 75.7011 68.3917 75.8633 68.4712C76.0256 68.5508 76.247 68.6664 76.3553 68.7282C76.4636 68.7901 76.6321 68.8624 76.7296 68.8891C76.8271 68.9157 76.9658 68.9603 77.0377 68.9881C77.1546 69.0333 77.1728 69.0315 77.2076 68.9715C77.2291 68.9345 77.2632 68.9142 77.2835 68.9264C77.3039 68.9385 77.3198 68.9346 77.3188 68.9177C77.3178 68.9008 77.1736 68.7843 76.9983 68.6588C76.2137 68.0973 75.8133 67.3857 75.7579 66.454C75.7095 65.642 76.0014 64.8274 76.5366 64.2803C76.6936 64.1198 76.8233 64.0083 77.0743 63.8184C77.1664 63.7486 77.2417 63.676 77.2417 63.6568C77.2417 63.6074 76.9761 63.6204 76.7826 63.6793ZM76.9745 65.0806C77.3669 64.5144 77.8078 64.2533 78.5419 64.1523C78.847 64.1103 79.3848 64.1496 79.6708 64.2348C80.0553 64.3494 80.481 64.6883 80.8026 65.1362C80.9845 65.3894 81.1048 65.7871 81.1301 66.2192C81.1512 66.5792 81.1447 66.6287 81.0367 66.9309C80.7604 67.7041 80.1235 68.2923 79.4283 68.4161C79.112 68.4725 78.2985 68.4379 78.0691 68.3584C77.7187 68.237 77.5328 68.1224 77.2612 67.8605C76.7934 67.4095 76.5932 66.9487 76.5923 66.321C76.5915 65.8237 76.6973 65.4803 76.9745 65.0806ZM78.3536 65.0358C78.022 65.1431 77.7892 65.346 77.6284 65.6678C77.5132 65.8984 77.5015 65.9551 77.5006 66.283C77.4998 66.6059 77.5114 66.6657 77.6104 66.8487C77.7656 67.1356 78.04 67.4044 78.3005 67.5247C78.4856 67.6103 78.5773 67.6275 78.857 67.6292C79.1658 67.6312 79.2115 67.6212 79.4428 67.5007C79.7404 67.3456 80.0447 67.0085 80.1419 66.7262C80.2408 66.4388 80.2043 65.9395 80.0641 65.663C79.9302 65.3989 79.6242 65.1312 79.3381 65.0278C79.0618 64.9279 78.6774 64.931 78.3536 65.0358ZM80.3788 63.6143C80.365 63.6357 80.4458 63.7079 80.5583 63.7747C80.6708 63.8415 80.9146 64.044 81.1002 64.2247C81.6161 64.7272 81.8259 65.1699 81.9337 65.9827C82.0342 66.7406 81.8305 67.478 81.3568 68.0721C81.1561 68.3238 80.6258 68.8103 80.4645 68.8908C80.3307 68.9576 80.3562 69.0303 80.5053 69.0073C81.2429 68.894 82.3724 68.2676 83.1325 67.5505C83.3063 67.3865 83.5014 67.1854 83.5659 67.1035C83.6304 67.0217 83.7454 66.8763 83.8214 66.7804C84.2143 66.2845 84.2067 66.2203 83.6805 65.5968C83.3655 65.2234 82.7422 64.6592 82.3516 64.3939C82.0353 64.179 81.6736 63.9896 81.0486 63.7114C80.8052 63.6031 80.4215 63.5475 80.3788 63.6143ZM78.3292 66.2806C78.3329 66.0172 78.4112 65.8822 78.5913 65.8293C78.6616 65.8085 78.8152 65.7969 78.9326 65.8034C79.1148 65.8134 79.1624 65.8327 79.2576 65.9356C79.354 66.0397 79.3692 66.0873 79.3692 66.2854C79.3692 66.6108 79.2993 66.7205 79.0426 66.7987C78.8401 66.8602 78.8282 66.8597 78.6341 66.7791C78.3898 66.6777 78.3251 66.5719 78.3292 66.2806Z" fill="white"/>
<path fill-rule="evenodd" clip-rule="evenodd" d="M70.4895 59.2197C70.4496 59.2448 70.4119 59.2735 70.369 59.3061C70.3521 59.3189 70.3345 59.3323 70.3156 59.3463C70.0437 59.5485 69.8881 59.7261 69.7455 59.9977L69.7386 60.0108C69.6992 60.0857 69.6663 60.1482 69.6387 60.2131C69.4981 60.5428 69.494 60.9306 69.4688 63.2906L69.4679 63.37C69.4211 67.7363 69.4462 71.316 69.5262 71.7258C69.6261 72.2369 69.8177 72.608 70.1353 72.9058C70.648 73.3866 70.8796 73.4213 73.5761 73.4213C74.6963 73.4213 75.6437 73.4331 75.6816 73.4476C75.7422 73.4709 75.7471 73.5833 75.7224 74.4016C75.691 75.4401 75.7266 75.655 75.977 75.9392C76.1396 76.1238 76.6269 76.3279 76.7723 76.2724C77.0152 76.1795 77.4792 75.7658 78.598 74.6444L79.7965 73.4432L83.3 73.4179L83.368 73.4174C86.6116 73.3939 87.0179 73.391 87.3455 73.2289C87.3924 73.2057 87.4376 73.1793 87.4894 73.149L87.497 73.1446C87.7273 73.0101 88.0694 72.6453 88.1946 72.4007L88.1968 72.3962C88.2138 72.3631 88.2293 72.3328 88.2437 72.3018C88.4059 71.9503 88.4059 71.5239 88.4061 66.2598V66.1949L88.4061 65.6823C88.4064 60.9283 88.4064 60.4886 88.2403 60.1249C88.2233 60.0878 88.2047 60.0515 88.1841 60.0116L88.1624 59.9692C88.0215 59.692 87.703 59.3474 87.4525 59.2012C87.2974 59.1105 87.1752 59.084 86.7699 59.0531C86.1261 59.004 80.0912 58.9841 75.0047 59.0143L74.4425 59.0176C71.1751 59.0365 70.7759 59.0388 70.4895 59.2197ZM70.4853 60.4357C70.5944 60.2386 70.7548 60.1076 70.9682 60.0412C71.1265 59.9919 72.5237 59.9812 79.0345 59.979C84.4787 59.9772 86.9472 59.9908 87.0322 60.0229C87.2272 60.0965 87.3491 60.2382 87.4228 60.4769C87.4829 60.6715 87.4928 61.365 87.5038 66.173L87.5053 66.829C87.5163 71.5341 87.5172 71.8949 87.3395 72.1039C87.3248 72.1212 87.3088 72.1375 87.2915 72.1552C87.2822 72.1647 87.2725 72.1746 87.2624 72.1852C87.2404 72.2084 87.2218 72.2298 87.2047 72.2495C87.1802 72.2777 87.1587 72.3024 87.1345 72.3242C86.9598 72.4812 86.6445 72.4818 84.0543 72.4872L83.2359 72.4891C79.9087 72.4976 79.5635 72.5051 79.4329 72.5719C79.3538 72.6124 78.7078 73.225 77.9973 73.9334C77.2029 74.7254 76.6897 75.2058 76.6646 75.1808C76.6422 75.1584 76.6193 74.6795 76.6137 74.1165C76.6029 73.0325 76.5768 72.8597 76.3907 72.644L76.2867 72.5235L73.7012 72.4987C71.9035 72.4814 71.0682 72.4581 70.96 72.4224C70.7611 72.3568 70.5497 72.1347 70.4728 71.9103C70.4231 71.7657 70.4126 70.762 70.4126 66.1511C70.4126 61.0372 70.4187 60.556 70.4853 60.4357Z" fill="white"/>
<path d="M79.9176 37.6443C79.6254 37.7086 79.4029 38.1169 79.5238 38.3669C79.7641 38.864 80.2068 38.9494 80.5432 38.5636C80.6995 38.3844 80.7371 38.2006 80.6563 38.0108C80.5811 37.8341 80.4691 37.7173 80.3136 37.6534C80.176 37.5968 80.1377 37.5959 79.9176 37.6443Z" fill="white"/>
<path fill-rule="evenodd" clip-rule="evenodd" d="M77.1588 36.5051C78.1464 35.0555 79.7176 34.0898 81.2579 33.9857C81.8399 33.9464 81.8791 33.9463 82.2851 33.9848C83.5702 34.1064 84.4564 34.4679 85.4188 35.2629C87.1486 36.6917 87.8146 39.0508 87.0855 41.1669C86.7644 42.0987 86.1446 42.9785 85.3885 43.5755C84.6135 44.1875 84.0248 44.4818 83.1557 44.6919C81.7589 45.0296 80.1204 44.785 78.9791 44.0684C78.6884 43.8859 78.0134 43.335 77.8147 43.118C77.0818 42.318 76.5944 41.3828 76.3777 40.361C76.2868 39.9318 76.2881 38.9358 76.3803 38.4478C76.5098 37.7628 76.8066 37.0221 77.1588 36.5051ZM81.2074 34.7902C80.4583 34.8953 79.7313 35.1594 79.1614 35.5337C78.8408 35.7442 78.1337 36.4578 77.8921 36.8147C77.4946 37.402 77.3003 37.863 77.1688 38.5309C77.0206 39.2837 77.0352 39.7947 77.2265 40.543C77.4435 41.3922 77.884 42.1091 78.6023 42.7818C79.3446 43.4771 80.0448 43.8243 81.0206 43.9811C81.422 44.0457 81.5858 44.0542 82.0843 44.0364C82.8711 44.0085 83.399 43.88 84.051 43.5578C85.1116 43.0336 86.0711 41.8738 86.4152 40.6998C86.5665 40.1837 86.5985 39.888 86.5769 39.2059C86.5548 38.5123 86.4812 38.1547 86.2452 37.5953C85.7675 36.4625 84.774 35.5125 83.5755 35.0422C82.9753 34.8067 81.9032 34.6927 81.2074 34.7902ZM82.9854 38.161C83.0099 37.9801 83.1776 37.7453 83.3391 37.6655C83.5077 37.5822 83.6859 37.5885 83.8854 37.6848C84.1274 37.8017 84.2243 37.9634 84.206 38.2201C84.1944 38.3823 84.1681 38.4539 84.0809 38.5604C83.9628 38.7046 83.7727 38.8161 83.6403 38.8189C83.4847 38.8222 83.2485 38.6752 83.1058 38.4861C82.9849 38.326 82.9688 38.2825 82.9854 38.161ZM80.1898 42.2416C79.6654 41.6993 79.4084 40.6761 79.7393 40.4482C79.8054 40.4027 80.1026 40.3966 81.8501 40.405L83.8841 40.4147L83.9853 40.5142C84.0822 40.6095 84.0864 40.6286 84.0864 40.9671C84.0863 41.3179 84.085 41.3231 83.9119 41.6585C83.4566 42.541 82.7546 42.9774 81.793 42.9754C81.1719 42.9741 80.6806 42.7492 80.1898 42.2416ZM80.4803 41.2333C80.4951 41.1955 80.7453 41.1838 81.7087 41.1759C82.3741 41.1704 82.9806 41.1621 83.0565 41.1575C83.3312 41.1407 83.27 41.3525 82.8915 41.7284C82.5918 42.0261 82.4336 42.1024 82.0216 42.1482C81.4832 42.2079 81.2371 42.1252 80.8339 41.7494C80.5716 41.5049 80.4459 41.3213 80.4803 41.2333Z" fill="white"/>
<path fill-rule="evenodd" clip-rule="evenodd" d="M71.2188 30.1023C71.3544 30.0583 72.2419 30.0387 75.1078 30.0164C79.9389 29.9789 92.1021 30.0107 92.6458 30.0623C93.3519 30.1293 93.6505 30.2719 94.1016 30.7575C94.3767 31.0537 94.5381 31.3596 94.6516 31.8C94.7234 32.0785 94.7285 32.599 94.7285 39.6094C94.7285 46.6046 94.7233 47.1409 94.652 47.4171C94.5532 47.8004 94.4512 47.995 94.1772 48.3232C93.7704 48.8104 93.2856 49.0483 92.5604 49.1168C92.2744 49.1438 84.4005 49.2158 83.2985 49.2015C83.2718 49.2011 82.4215 50.0242 81.409 51.0304C79.52 52.9078 79.1474 53.2301 78.8665 53.2301C78.548 53.2301 78.1109 52.9556 77.9995 52.6856C77.9599 52.5893 77.9377 52.0766 77.9212 50.8745L77.8982 49.1978L74.7782 49.1836C71.5149 49.1687 71.3683 49.1606 70.9248 48.9705C70.5119 48.7934 69.9886 48.2961 69.7809 47.8834C69.4438 47.2132 69.4279 46.7708 69.4519 38.7116L69.4538 38.0783C69.4703 32.4438 69.4717 31.9694 69.6424 31.5668C69.6581 31.5298 69.6752 31.4934 69.6939 31.4536L69.7168 31.4047C70.004 30.786 70.5376 30.3233 71.2188 30.1023ZM71.5703 30.985C71.1157 31.045 70.7542 31.3044 70.5513 31.7163L70.4278 31.967V47.1643L70.5376 47.4254C70.624 47.6307 70.7028 47.7309 70.9062 47.894C71.0581 48.0158 71.2484 48.1233 71.3676 48.1546C71.5139 48.193 72.5251 48.2149 75.0043 48.2335C78.3574 48.2586 78.4407 48.2613 78.5365 48.3468C78.5905 48.395 78.6765 48.5231 78.7277 48.6315C78.8158 48.8182 78.8219 48.9146 78.8428 50.4674C78.8573 51.539 78.8807 52.1113 78.9104 52.1211C78.9355 52.1295 79.7957 51.2962 80.822 50.2694C82.1837 48.9071 82.7415 48.3773 82.8858 48.3092L83.0835 48.2159L92.8829 48.2154L93.0587 48.1206C93.2417 48.0218 93.4831 47.7878 93.6442 47.5529C93.6534 47.5394 93.6623 47.5269 93.6708 47.5149C93.6835 47.4971 93.6953 47.4804 93.7065 47.4632C93.8786 47.1978 93.8783 46.8206 93.873 40.6198L93.8722 39.775C93.8691 35.8554 93.8488 32.4775 93.8272 32.2685C93.778 31.7939 93.6382 31.4941 93.3423 31.2289C93.1914 31.0937 93.061 31.0199 92.916 30.9874C92.6842 30.9356 71.9629 30.9332 71.5703 30.985Z" fill="white"/>
<path fill-rule="evenodd" clip-rule="evenodd" d="M15.0104 49.6754C14.2895 49.8126 13.6984 50.1574 13.2219 50.7185C12.7972 51.2186 12.6044 51.7617 12.6224 52.4075C12.6309 52.7129 12.6954 52.9683 12.8548 53.3283C12.9605 53.5668 13.7873 55.0665 14.5296 56.3658C14.707 56.6764 15.0302 57.2499 15.2477 57.6403C15.9676 58.9316 16.1757 59.201 16.7214 59.5474C17.1924 59.8463 17.6275 59.9643 18.246 59.9608C18.6323 59.9586 18.7219 59.9472 18.9745 59.8683C19.3189 59.7607 19.5244 59.6653 19.8282 59.4721C20.5389 59.0202 21.0104 58.1613 21.0198 57.3015C21.0258 56.7505 20.9156 56.4775 20.0981 55.0191C19.8021 54.491 19.4606 53.8774 19.3393 53.6556C18.8751 52.8068 17.852 51.0324 17.7159 50.8401C17.5044 50.5411 17.0976 50.1693 16.823 50.0238C16.6926 49.9547 16.4334 49.8493 16.247 49.7894C15.9517 49.6946 15.8561 49.6793 15.5016 49.67C15.278 49.6641 15.057 49.6665 15.0104 49.6754ZM14.9426 50.4141C14.2674 50.5919 13.7435 51.0221 13.4867 51.6096C13.2708 52.1034 13.2764 52.4924 13.5072 53.0502C13.6238 53.3321 13.7229 53.5163 14.2838 54.4945C14.411 54.7163 14.5719 54.9994 14.6413 55.1236C14.7541 55.3257 14.7775 55.349 14.8635 55.3448C14.9163 55.3422 15.0815 55.2755 15.2306 55.1966C15.3797 55.1177 15.7151 54.9472 15.976 54.8178C16.6604 54.4782 16.8957 54.3582 17.4789 54.0516C17.7651 53.9011 18.0624 53.7506 18.1396 53.7171C18.2168 53.6837 18.3171 53.6287 18.3624 53.5949L18.4449 53.5334L18.2905 53.2477C17.9893 52.6905 17.2903 51.475 17.1614 51.2842C16.7523 50.6786 16.2455 50.4017 15.5016 50.3773C15.2377 50.3686 15.0746 50.3794 14.9426 50.4141ZM15.8405 55.7346C16.5874 55.3692 18.4255 54.4314 18.6 54.3267C18.6828 54.2771 18.7669 54.2364 18.7868 54.2364C18.8322 54.2364 18.9416 54.4116 19.3909 55.2043C19.5871 55.5503 19.8176 55.9558 19.9032 56.1054C20.4007 56.9744 20.4186 57.5742 19.9693 58.3079C19.6373 58.8501 19.2471 59.1063 18.5752 59.2234C18.3246 59.267 18.2205 59.2705 18.0005 59.2423C17.7332 59.208 17.457 59.1373 17.3351 59.0719L17.1521 58.974C16.9482 58.8649 16.7022 58.6485 16.5529 58.4469C16.3381 58.1567 15.9427 57.4795 15.4166 56.5008C15.207 56.1107 15.2042 56.1023 15.2677 56.0433C15.3032 56.0103 15.5609 55.8714 15.8405 55.7346Z" fill="white"/>
<path fill-rule="evenodd" clip-rule="evenodd" d="M13.3242 46.0191C8.65356 46.0402 7.09032 46.0596 6.8656 46.0993C5.96923 46.2576 5.19991 47.0234 5.07061 47.8861C5.00865 48.2996 4.97722 54.9223 5.01907 58.7545C5.05905 62.4143 5.06371 62.4889 5.27911 62.9088C5.48901 63.3181 5.88364 63.7114 6.29174 63.9181C6.57943 64.0638 6.99477 64.1498 7.60676 64.1904C7.94451 64.2128 9.98374 64.2413 12.1384 64.2538C14.293 64.2663 16.1036 64.2861 16.1618 64.2979C16.229 64.3115 16.9338 64.968 18.0888 66.0928C19.2819 67.2546 19.967 67.8919 20.0756 67.9408C20.2008 67.9972 20.3031 68.01 20.4939 67.993C20.7204 67.973 20.7655 67.9523 20.9303 67.794C21.2498 67.4869 21.258 67.4386 21.2728 65.7688C21.2801 64.9608 21.294 64.2919 21.3037 64.2824C21.3135 64.2728 22.2999 64.2664 23.4956 64.2681C27.5409 64.2739 27.9548 64.2129 28.6773 63.505C29.0317 63.1578 29.227 62.8007 29.3178 62.334C29.4129 61.8454 29.4662 57.3745 29.436 52.4284L29.4349 52.2588C29.4114 48.4026 29.4082 47.8828 29.2122 47.4467C29.1817 47.3788 29.1465 47.3129 29.1058 47.2368L29.0944 47.2153C28.9076 46.8653 28.4316 46.3689 28.1459 46.2261C27.737 46.0218 27.5617 46.0135 23.3827 46.002C21.2397 45.9961 16.7134 46.0038 13.3242 46.0191ZM6.30089 47.354C6.53793 47.1156 6.75633 47.0125 7.09434 46.9798C7.58655 46.9321 27.3803 46.9712 27.6339 47.0204C27.8049 47.0535 27.9076 47.106 28.046 47.2309C28.331 47.4883 28.446 47.7604 28.4844 48.2683C28.5022 48.503 28.5134 51.7191 28.5094 55.4152C28.5087 56.0012 28.5083 56.5385 28.508 57.0313C28.5044 62.0186 28.5041 62.4533 28.2845 62.698C28.2635 62.7214 28.2406 62.743 28.2154 62.7667C28.1894 62.7913 28.161 62.818 28.13 62.8512C27.9218 63.0743 27.7781 63.1603 27.4697 63.2462C27.3781 63.2716 26.091 63.2896 24.1027 63.2933C20.9901 63.2989 20.8784 63.3018 20.7146 63.3809C20.5729 63.4494 20.5314 63.5002 20.4607 63.691C20.3833 63.9004 20.3755 64.0386 20.3668 65.371C20.3585 66.6115 20.3482 66.823 20.2954 66.8235C20.2613 66.8238 20.2191 66.8382 20.2014 66.8555C20.1837 66.8728 19.3771 66.1044 18.409 65.1479C17.4409 64.1915 16.6012 63.3837 16.5429 63.3529C16.4558 63.3069 15.5996 63.2969 11.7149 63.2969H6.99266L6.72499 63.1759C6.5397 63.0921 6.39367 62.9848 6.25036 62.8273C6.21774 62.7915 6.18808 62.7637 6.1611 62.7384C6.13849 62.7173 6.11776 62.6979 6.09875 62.6769C5.88924 62.4464 5.88873 62.0324 5.88256 57.0558C5.88189 56.517 5.88115 55.9248 5.88008 55.2735C5.87254 50.6815 5.8833 48.251 5.91184 48.0997C5.96974 47.793 6.08595 47.5702 6.30089 47.354Z" fill="white"/>
<path fill-rule="evenodd" clip-rule="evenodd" d="M14.8688 27.5759C15.0795 26.8436 15.8294 26.0983 16.5782 25.8767C16.7711 25.8196 17.1965 25.8213 17.4608 25.8802C17.8802 25.9736 18.3159 26.2341 18.6933 26.617C18.8287 26.7545 18.9513 26.8503 18.9895 26.8487C19.0254 26.8472 19.1254 26.7669 19.2117 26.6702C19.5335 26.3093 20.1365 25.9414 20.54 25.8596C20.788 25.8094 21.3469 25.8718 21.6016 25.9783C22.2381 26.2443 22.7826 26.823 22.9974 27.4623C23.2044 28.078 23.1056 29.0387 22.769 29.6834C22.3399 30.5056 21.3563 31.4123 19.6753 32.5353C19.3787 32.7335 19.0257 32.9107 18.9274 32.9107C18.82 32.9107 18.553 32.7597 18.0899 32.4371C17.4952 32.0227 17.3324 31.9003 16.8529 31.5069C15.6165 30.4926 15.093 29.7833 14.8509 28.7943C14.784 28.5211 14.7941 27.8353 14.8688 27.5759ZM15.8193 27.3071C16.081 26.9319 16.4095 26.6923 16.7892 26.5997C16.9787 26.5536 17.3124 26.5684 17.463 26.6296C17.7171 26.733 17.9831 26.9314 18.4316 27.3519C18.8384 27.7334 18.9366 27.8097 18.9971 27.7915C19.0375 27.7795 19.2316 27.6082 19.4286 27.4109C19.8357 27.0033 20.1541 26.751 20.3909 26.6483C20.6167 26.5505 20.9959 26.5301 21.2402 26.6027C21.6479 26.7239 22.1113 27.1531 22.2828 27.5685C22.3795 27.8027 22.4151 28.4112 22.3486 28.6939C22.2557 29.089 22.0094 29.5639 21.6951 29.9543C21.5153 30.1778 21.0552 30.6181 20.6769 30.9287C20.2708 31.2624 19.2004 32.03 19.0512 32.0947C18.9594 32.1345 18.7698 32.0485 18.5071 31.8476C18.4058 31.7701 18.2679 31.6708 18.2008 31.6269C17.4946 31.1647 16.354 30.1484 16.0577 29.7173C15.8399 29.4003 15.6781 29.0675 15.5836 28.7422C15.5222 28.5309 15.5116 28.4251 15.5258 28.1694C15.5467 27.795 15.6112 27.6055 15.8193 27.3071Z" fill="white"/>
<path fill-rule="evenodd" clip-rule="evenodd" d="M9.93187 22.6482C10.33 22.2234 10.6826 22.0766 11.424 22.027C11.7033 22.0084 15.2994 21.9966 19.4154 22.0009C19.6755 22.0011 19.9269 22.0014 20.1698 22.0016C26.731 22.0083 27.1144 22.0087 27.422 22.1584C27.4411 22.1676 27.4599 22.1775 27.4799 22.188C27.4918 22.1942 27.5041 22.2007 27.5172 22.2074C27.7126 22.3077 28.0465 22.6451 28.1799 22.8771C28.1925 22.899 28.2045 22.9193 28.2159 22.9386C28.2367 22.9738 28.2557 23.0058 28.2729 23.0387C28.4449 23.3672 28.4449 23.7819 28.4444 28.3421C28.4444 28.5922 28.4443 28.8549 28.4443 29.1307C28.4443 34.3208 28.4395 34.6784 28.3658 34.8915C28.2075 35.3496 27.8416 35.7833 27.4488 35.9788C27.0509 36.1768 26.7709 36.1996 24.4403 36.2233L22.2463 36.2457L22.2499 37.1346C22.2532 37.9857 22.2487 38.0348 22.1437 38.2884C22.0037 38.6264 21.8673 38.7939 21.6421 38.9042C21.1704 39.1354 21.032 39.047 19.4598 37.5095L18.1577 36.2361H14.7885C11.0786 36.2361 11.0681 36.2355 10.5244 35.969C9.99907 35.7115 9.68948 35.3148 9.53915 34.7063C9.47221 34.4355 9.46329 33.8955 9.44855 29.2168C9.43795 25.857 9.44802 23.9123 9.47703 23.7003C9.54193 23.2262 9.67182 22.9257 9.93187 22.6482ZM11.2123 22.9732C10.7907 23.0337 10.4506 23.3367 10.3645 23.7285C10.3326 23.8737 10.3216 25.6139 10.33 29.1953L10.3423 34.449L10.4446 34.6694C10.5896 34.982 10.7761 35.1417 11.0929 35.2245C11.328 35.286 11.7548 35.2923 14.8899 35.2805C17.9737 35.2689 18.4338 35.2754 18.5148 35.3318C18.6904 35.4541 20.484 37.1625 20.7453 37.4563C21.038 37.7856 21.2607 37.9819 21.2989 37.9446C21.3129 37.9309 21.327 37.4392 21.3301 36.8518C21.3353 35.911 21.3458 35.762 21.4185 35.5997C21.464 35.4983 21.5435 35.3917 21.5952 35.3628C21.6648 35.3239 22.3593 35.3039 24.272 35.2857C25.6926 35.2721 26.8946 35.245 26.9432 35.2255C27.1411 35.1457 27.3341 34.9639 27.4196 34.7766C27.5091 34.5806 27.5103 34.5181 27.5191 29.5398C27.524 26.7687 27.5122 24.2637 27.4928 23.9732C27.4523 23.3658 27.3799 23.1729 27.1419 23.0384C26.9884 22.9517 26.9373 22.9511 19.2167 22.9454C14.9429 22.9422 11.3409 22.9547 11.2123 22.9732Z" fill="white"/>
<path d="M36.8784 12.2075C34.5442 12.2075 32.652 14.0998 32.652 16.434V77.566C32.652 79.9002 34.5442 81.7925 36.8784 81.7925H61.8344C64.1686 81.7925 66.0608 79.9002 66.0608 77.566V16.434C66.0608 14.0998 64.1686 12.2075 61.8344 12.2075H36.8784ZM61.8344 11C64.8355 11 67.2683 13.4329 67.2683 16.434V77.566C67.2683 80.5671 64.8355 83 61.8344 83H36.8784C33.8773 83 31.4444 80.5671 31.4444 77.566V16.434C31.4444 13.4329 33.8773 11 36.8784 11H61.8344Z" fill="#0BFF7B"/>
<path d="M55.3992 38.1853C55.3895 38.1913 55.3835 38.2901 55.3794 38.5454C55.377 38.6901 55.3753 38.8852 55.3739 39.1423C55.3698 39.9122 55.3646 40.0916 55.3458 40.1137C55.3332 40.1286 55.284 40.1524 55.2366 40.1667C55.1635 40.1886 55.0137 40.1933 54.2532 40.1972C53.5075 40.201 53.3539 40.2057 53.3432 40.2246C53.3361 40.2372 53.3314 40.5885 53.3328 41.0053C53.3347 41.6025 53.3399 41.7677 53.3571 41.7845C53.3743 41.8013 53.582 41.8076 54.3356 41.814L55.2923 41.8222L55.3306 41.8596L55.3689 41.8969L55.3773 42.8307C55.3826 43.4207 55.3918 43.7703 55.4025 43.7803C55.4222 43.799 56.965 43.8255 57.0209 43.8081L57.0579 43.7967V42.8898C57.0579 42.6683 57.0586 42.4884 57.0601 42.3466C57.0629 42.0845 57.0683 41.9524 57.0769 41.9272C57.0847 41.9044 57.0881 41.8865 57.0974 41.8724C57.1334 41.8178 57.2584 41.8219 58.0795 41.8192C58.5945 41.8176 59.0359 41.8124 59.0604 41.8077C59.1043 41.7992 59.1051 41.7965 59.1156 41.6302C59.1214 41.5374 59.1203 41.1772 59.1131 40.8298L59.0999 40.1983L58.1503 40.1901C57.2889 40.1826 57.1958 40.1792 57.1472 40.1533C57.1178 40.1376 57.0875 40.1154 57.08 40.1041C57.0725 40.0927 57.0625 39.6553 57.0579 39.132L57.0495 38.1806L56.2344 38.1767C55.7861 38.1745 55.4102 38.1784 55.3992 38.1853Z" fill="#0BFF7B"/>
<path fill-rule="evenodd" clip-rule="evenodd" d="M55.3794 38.5454C55.377 38.6901 55.3753 38.8852 55.3739 39.1423C55.3698 39.9122 55.3646 40.0916 55.3458 40.1137C55.3332 40.1286 55.284 40.1524 55.2366 40.1667C55.1635 40.1886 55.0137 40.1933 54.2532 40.1972C53.5075 40.201 53.3539 40.2057 53.3432 40.2246C53.3361 40.2372 53.3314 40.5885 53.3328 41.0053C53.3347 41.6025 53.3399 41.7677 53.3571 41.7845C53.3743 41.8013 53.582 41.8076 54.3356 41.814L55.2923 41.8222L55.3306 41.8596L55.3689 41.8969L55.3773 42.8307C55.3826 43.4207 55.3918 43.7703 55.4025 43.7803C55.4222 43.799 56.965 43.8255 57.0209 43.8081L57.0579 43.7967V42.8898C57.0579 42.6683 57.0586 42.4884 57.0601 42.3466L55.3794 38.5454Z" fill="#0BFF7B"/>
<path d="M51.4017 40.6571C51.3883 40.6883 51.3773 40.7271 51.3773 40.7432C51.3773 40.7888 51.2872 40.9603 51.2132 41.0556C51.1331 41.1588 51.0334 41.246 50.9036 41.3265C50.851 41.3591 50.8004 41.3997 50.7911 41.4166L50.788 41.4223C50.7738 41.4502 50.789 41.493 51.1608 42.5393L51.1887 42.6178C51.5983 43.7707 51.6745 44.021 51.7456 44.4468C51.8031 44.7916 51.8204 45.3626 51.7824 45.6607C51.7325 46.051 51.6029 46.5605 51.461 46.9238C51.3693 47.1586 51.1376 47.6243 51.0245 47.8014C50.9755 47.8781 50.9198 47.9667 50.9007 47.9982C50.8816 48.0298 50.8284 48.1036 50.7824 48.1623L50.6473 48.3345C50.1789 48.9312 49.4483 49.4827 48.7224 49.7875C48.6343 49.8244 48.5379 49.8654 48.5082 49.8784C48.263 49.9858 47.5389 50.1678 47.2177 50.2028C46.7388 50.2549 46.5062 50.2659 46.2597 50.2479C45.9782 50.2274 45.5488 50.1613 45.3858 50.1134C45.3211 50.0943 45.2152 50.0649 45.1505 50.048C44.9385 49.9925 44.4644 49.8093 44.2145 49.6863C43.7005 49.4331 43.3351 49.172 42.8976 48.7452C42.5614 48.4172 42.4572 48.2964 42.2574 48.0032C41.956 47.5609 41.769 47.1601 41.4781 46.3333C41.4241 46.1799 41.3261 45.9031 41.2602 45.7181C41.1943 45.5332 41.1057 45.2822 41.0632 45.1604C41.0208 45.0386 40.9792 44.9304 40.9709 44.92C40.9603 44.9067 40.8974 44.9037 40.7586 44.91C40.5463 44.9195 40.466 44.9052 40.2617 44.8214C40.1504 44.7758 40.0885 44.7369 39.9909 44.6511C39.9539 44.6186 39.9026 44.5794 39.8769 44.5639L39.8302 44.5357L39.8414 44.5815C39.8476 44.6067 39.871 44.6753 39.8933 44.7339C39.9156 44.7925 40.0235 45.0989 40.1331 45.4147C40.6406 46.8765 40.8702 47.4817 41.0543 47.8424C41.1906 48.1092 41.3887 48.4249 41.6154 48.7364C41.8647 49.0789 42.3998 49.6221 42.7072 49.8446L42.9088 49.9913C43.2576 50.2454 43.6433 50.4599 44.1253 50.6678C44.4668 50.8152 45.028 50.9892 45.3353 51.0432C45.4093 51.0562 45.5038 51.0739 45.5454 51.0825C46.0247 51.1823 46.9147 51.1856 47.4866 51.0897C47.8279 51.0325 48.1015 50.9972 48.1278 51.007C48.1605 51.0193 48.2285 51.1936 48.4641 51.8695C48.4877 51.9372 48.5777 52.189 48.6641 52.4291C48.7505 52.6693 48.9041 53.1011 49.0053 53.3888C49.343 54.3478 49.4352 54.5606 49.6253 54.8183C50.0118 55.3425 50.4796 55.6475 51.0975 55.7783C51.2444 55.8093 51.3181 55.8142 51.6294 55.8136C51.9806 55.8129 51.9963 55.8114 52.1874 55.7613C52.8632 55.5839 53.2799 55.2836 53.6664 54.6954C53.7927 54.5032 53.9222 54.1902 53.9718 53.9575C54.0843 53.4297 54.0405 53.0844 53.765 52.3266C53.6399 51.9824 53.6111 51.8421 53.6136 51.5907C53.6169 51.2726 53.6679 51.0518 53.8031 50.7705C53.8949 50.5794 54.0924 50.3061 54.2003 50.221C54.2231 50.203 54.2534 50.1747 54.2675 50.158C54.2817 50.1414 54.3103 50.1212 54.3311 50.1132C54.3518 50.1052 54.3689 50.0926 54.3689 50.0851C54.3689 50.0776 54.3268 50.0067 54.2753 49.9275C54.1642 49.7567 54.0801 49.5964 54.0222 49.4453C53.9677 49.3031 53.9392 49.2613 53.8965 49.2613C53.8614 49.2613 53.5617 49.5321 53.3765 49.7312C53.1815 49.9408 53.0156 50.2102 52.8781 50.5408C52.776 50.7863 52.733 50.948 52.6885 51.2544C52.6484 51.5305 52.6473 51.6036 52.6792 51.8696C52.7072 52.1029 52.7534 52.2902 52.8754 52.6639C53.0085 53.0719 53.0416 53.2161 53.0525 53.4361C53.0685 53.7576 53.0009 53.9859 52.8095 54.2563C52.6973 54.4147 52.6279 54.4885 52.4949 54.5909C52.0975 54.8969 51.605 54.9698 51.0934 54.7985C50.8836 54.7283 50.7108 54.6157 50.5413 54.4387C50.3538 54.2429 50.2459 54.0221 50.0072 53.3458C49.765 52.6598 49.5956 52.1855 49.3655 51.5496C49.2774 51.306 49.1919 51.0625 49.1755 51.0083C49.1591 50.9542 49.1295 50.8738 49.1098 50.8297C49.0457 50.6863 49.0493 50.6832 49.6166 50.3875C50.4388 49.9589 51.2256 49.2358 51.7436 48.4329C51.7553 48.4149 51.7778 48.379 51.7938 48.3532L51.9051 48.1727C52.21 47.6788 52.5286 46.8411 52.6456 46.2255C52.7333 45.764 52.7636 45.0463 52.7148 44.5863C52.6376 43.8575 52.5342 43.4896 51.9821 41.9781C51.9343 41.8473 51.8665 41.659 51.8315 41.5598C51.6848 41.1437 51.5073 40.6714 51.4848 40.6371C51.4511 40.5858 51.43 40.5909 51.4017 40.6571Z" fill="#0BFF7B"/>
<path fill-rule="evenodd" clip-rule="evenodd" d="M49.2348 39.4523C49.812 39.2561 49.9481 39.2142 50.0837 39.1907C50.2771 39.1573 50.572 39.2056 50.77 39.3032C50.9638 39.3986 51.0897 39.5138 51.3183 39.8046C51.3821 39.8858 51.4801 40.0011 51.5361 40.0608C51.7218 40.259 51.8276 40.4852 52.0916 41.2481C52.1228 41.3383 52.1749 41.486 52.2072 41.5762C52.2396 41.6664 52.3277 41.9137 52.403 42.1257C52.4782 42.3377 52.5847 42.6367 52.6395 42.7901C52.8844 43.4754 53.0112 43.9883 53.0833 44.5859C53.1167 44.8631 53.1165 45.4912 53.0828 45.746C52.968 46.6144 52.7788 47.2441 52.4087 47.99C52.3505 48.1073 52.2918 48.2217 52.2782 48.2443C52.2647 48.2669 52.2135 48.3554 52.1645 48.4411C52.1155 48.5269 52.022 48.6708 51.9567 48.761C51.8914 48.8512 51.8269 48.9407 51.8135 48.9599C51.6642 49.1727 51.2768 49.5916 51.005 49.8343C50.6136 50.1835 50.1376 50.5141 49.74 50.7129C49.6298 50.768 49.5315 50.8257 49.5215 50.8411C49.5027 50.8701 49.5028 50.8704 49.8708 51.9187C50.1312 52.6606 50.5207 53.7424 50.5521 53.811C50.5692 53.8484 50.5981 53.9122 50.6164 53.9528C50.6901 54.1171 50.9206 54.3422 51.0947 54.42C51.271 54.4988 51.3843 54.5188 51.6462 54.5175C51.8723 54.5164 51.898 54.5131 52.0021 54.4712C52.1769 54.4008 52.254 54.3447 52.3984 54.183C52.5387 54.026 52.6555 53.8265 52.6871 53.6903C52.7138 53.575 52.7074 53.3674 52.6723 53.2146C52.6547 53.1379 52.5986 52.9599 52.5478 52.8189C52.4969 52.6779 52.4241 52.4417 52.386 52.294C52.2367 51.7156 52.2568 51.2749 52.4619 50.6301C52.5895 50.2291 52.8854 49.7168 53.1483 49.4419C53.2946 49.289 53.5468 49.0764 53.6992 48.9775C53.7792 48.9256 53.8492 48.8715 53.8548 48.8572C53.8604 48.843 53.8601 48.7306 53.8541 48.6075C53.8185 47.8763 54.0804 47.2205 54.6194 46.6907C54.8245 46.4892 55.0191 46.3394 55.2176 46.2304C55.7322 45.9479 56.2082 45.8555 56.85 45.9136C57.4964 45.9721 58.0801 46.2697 58.5419 46.7762C58.8507 47.1149 59.0863 47.5762 59.1744 48.0146C59.2226 48.2546 59.2238 48.7785 59.1767 49.0123C59.1182 49.3032 59.0054 49.6012 58.8685 49.8273C58.6871 50.1266 58.3771 50.4562 58.0818 50.6638C57.9111 50.7837 57.5491 50.9634 57.3604 51.0218C56.8029 51.1944 56.1375 51.1836 55.621 50.9936C55.3023 50.8764 54.9881 50.6849 54.7192 50.4441C54.6577 50.389 54.6 50.344 54.591 50.344C54.5819 50.344 54.5532 50.3717 54.5271 50.4055C54.501 50.4393 54.4372 50.5113 54.3854 50.5654C54.1253 50.8368 53.9769 51.2033 53.9766 51.5742C53.9765 51.794 53.9999 51.9007 54.1403 52.3206C54.1916 52.474 54.2408 52.6216 54.2498 52.6487C54.3201 52.8618 54.3857 53.2394 54.3856 53.4307C54.3855 53.6184 54.3354 53.9608 54.275 54.1863C54.0468 55.0381 53.3738 55.732 52.4868 56.0301C51.795 56.2625 50.892 56.1927 50.3134 55.8621C50.2597 55.8315 50.2121 55.8064 50.2074 55.8064C50.1878 55.8064 49.9807 55.6609 49.8555 55.5592C49.5597 55.319 49.2918 54.9893 49.126 54.6615C49.0081 54.4282 48.9594 54.303 48.6718 53.4935C48.5997 53.2905 48.4861 52.9731 48.4193 52.7881C48.2471 52.3114 48.1077 51.9213 48.0396 51.7258C47.9583 51.4922 47.9207 51.4112 47.8878 51.3989C47.8723 51.3931 47.821 51.3969 47.7739 51.4073C47.3946 51.491 47.0474 51.5275 46.5958 51.5311C46.3034 51.5334 45.787 51.4965 45.5988 51.4598C44.7984 51.3039 44.4598 51.2006 43.8648 50.9309C43.2132 50.6355 42.6857 50.2992 42.2125 49.8776C41.6743 49.3979 41.2576 48.8967 40.9362 48.3427C40.69 47.9184 40.5198 47.5304 40.2597 46.8008C40.0594 46.2391 39.892 45.7669 39.873 45.7099C39.8609 45.6738 39.7932 45.4856 39.7225 45.2916C39.4469 44.5355 39.4038 44.3155 39.4745 44.0283C39.4933 43.9517 39.5138 43.8301 39.5199 43.7579C39.5516 43.3866 39.6799 43.1059 39.9148 42.8941C40.07 42.7541 40.292 42.6437 40.6799 42.5137C40.8278 42.4641 41.0585 42.3852 41.1925 42.3384C41.8816 42.0975 41.9862 42.074 42.2735 42.0961C42.443 42.1091 42.5496 42.1391 42.7055 42.2181C42.9878 42.3608 43.2236 42.6449 43.3029 42.9377C43.3462 43.0973 43.354 43.3823 43.3189 43.5239C43.2604 43.7602 43.0859 44.0377 42.9183 44.1609C42.7429 44.2898 42.3112 44.4609 41.5749 44.6931C41.3664 44.7589 41.327 44.7765 41.327 44.8037C41.327 44.8942 41.9393 46.6151 42.1164 47.0222C42.278 47.3937 42.5225 47.7973 42.7722 48.1049C43.2982 48.7525 43.9505 49.2203 44.7807 49.5454C44.9404 49.6079 45.2246 49.7008 45.3437 49.7294C45.4038 49.7438 45.4795 49.7626 45.5118 49.7711C45.7362 49.8304 46.0287 49.8721 46.3689 49.8934C46.4838 49.9005 47.039 49.864 47.2681 49.8342C47.4355 49.8124 47.9913 49.6744 48.2171 49.5986C48.5546 49.4853 48.9821 49.2889 49.2046 49.1452C49.2732 49.1008 49.333 49.0645 49.3375 49.0645C49.342 49.0645 49.3736 49.0436 49.4077 49.0182C49.4418 48.9927 49.5149 48.9392 49.5701 48.8992C49.8096 48.726 50.3313 48.1922 50.514 47.9334C50.9273 47.3479 51.2336 46.6499 51.36 46.0053C51.4392 45.6015 51.4656 45.1105 51.4275 44.7503C51.381 44.3112 51.2611 43.8347 51.0499 43.2494C50.7304 42.3641 50.4697 41.6271 50.4697 41.6092C50.4697 41.5977 50.4584 41.5792 50.4446 41.568C50.4128 41.5423 50.3863 41.5492 49.974 41.6904C49.0301 42.0137 48.9552 42.0334 48.7067 42.024C48.5513 42.0181 48.5117 42.0102 48.3959 41.9623C47.8704 41.745 47.544 41.2684 47.5856 40.7794C47.6003 40.6053 47.6355 40.4818 47.7139 40.3288C47.8333 40.0955 47.9939 39.9388 48.2345 39.8208C48.3897 39.7446 48.5679 39.6789 49.2348 39.4523ZM51.4017 40.6571C51.3883 40.6883 51.3773 40.7271 51.3773 40.7432C51.3773 40.7888 51.2872 40.9603 51.2132 41.0556C51.1331 41.1588 51.0334 41.246 50.9036 41.3265C50.851 41.3591 50.8004 41.3997 50.7911 41.4166L50.788 41.4223C50.7738 41.4502 50.789 41.493 51.1608 42.5393L51.1887 42.6178C51.5983 43.7707 51.6745 44.021 51.7456 44.4468C51.8031 44.7916 51.8204 45.3626 51.7824 45.6607C51.7325 46.051 51.6029 46.5605 51.461 46.9238C51.3693 47.1586 51.1376 47.6243 51.0245 47.8014C50.9755 47.8781 50.9198 47.9667 50.9007 47.9982C50.8816 48.0298 50.8284 48.1036 50.7824 48.1623L50.6473 48.3345C50.1789 48.9312 49.4483 49.4827 48.7224 49.7875C48.6343 49.8244 48.5379 49.8654 48.5082 49.8784C48.263 49.9858 47.5389 50.1678 47.2177 50.2028C46.7388 50.2549 46.5062 50.2659 46.2597 50.2479C45.9782 50.2274 45.5488 50.1613 45.3858 50.1134C45.3211 50.0943 45.2152 50.0649 45.1505 50.048C44.9385 49.9925 44.4644 49.8093 44.2145 49.6863C43.7005 49.4331 43.3351 49.172 42.8976 48.7452C42.5614 48.4172 42.4572 48.2964 42.2574 48.0032C41.956 47.5609 41.769 47.1601 41.4781 46.3333C41.4241 46.1799 41.3261 45.9031 41.2602 45.7181C41.1943 45.5332 41.1057 45.2822 41.0632 45.1604C41.0208 45.0386 40.9792 44.9304 40.9709 44.92C40.9603 44.9067 40.8974 44.9037 40.7586 44.91C40.5463 44.9195 40.466 44.9052 40.2617 44.8214C40.1504 44.7758 40.0885 44.7369 39.9909 44.6511C39.9539 44.6186 39.9026 44.5794 39.8769 44.5639L39.8302 44.5357L39.8414 44.5815C39.8476 44.6067 39.871 44.6753 39.8933 44.7339C39.9156 44.7925 40.0235 45.0989 40.1331 45.4147C40.6406 46.8765 40.8702 47.4817 41.0543 47.8424C41.1906 48.1092 41.3887 48.4249 41.6154 48.7364C41.8647 49.0789 42.3998 49.6221 42.7072 49.8446L42.9088 49.9913C43.2576 50.2454 43.6433 50.4599 44.1253 50.6678C44.4668 50.8152 45.028 50.9892 45.3353 51.0432C45.4093 51.0562 45.5038 51.0739 45.5454 51.0825C46.0247 51.1823 46.9147 51.1856 47.4866 51.0897C47.8279 51.0325 48.1015 50.9972 48.1278 51.007C48.1605 51.0193 48.2285 51.1936 48.4641 51.8695C48.4877 51.9372 48.5777 52.189 48.6641 52.4291C48.7505 52.6693 48.9041 53.1011 49.0053 53.3888C49.343 54.3478 49.4352 54.5606 49.6253 54.8183C50.0118 55.3425 50.4796 55.6475 51.0975 55.7783C51.2444 55.8093 51.3181 55.8142 51.6294 55.8136C51.9806 55.8129 51.9963 55.8114 52.1874 55.7613C52.8632 55.5839 53.2799 55.2836 53.6664 54.6954C53.7927 54.5032 53.9222 54.1902 53.9718 53.9575C54.0843 53.4297 54.0405 53.0844 53.765 52.3266C53.6399 51.9824 53.6111 51.8421 53.6136 51.5907C53.6169 51.2726 53.6679 51.0518 53.8031 50.7705C53.8949 50.5794 54.0924 50.3061 54.2003 50.221C54.2231 50.203 54.2534 50.1747 54.2675 50.158C54.2817 50.1414 54.3103 50.1212 54.3311 50.1132C54.3518 50.1052 54.3689 50.0926 54.3689 50.0851C54.3689 50.0776 54.3268 50.0067 54.2753 49.9275C54.1642 49.7567 54.0801 49.5964 54.0222 49.4453C53.9677 49.3031 53.9392 49.2613 53.8965 49.2613C53.8614 49.2613 53.5617 49.5321 53.3765 49.7312C53.1815 49.9408 53.0156 50.2102 52.8781 50.5408C52.776 50.7863 52.733 50.948 52.6885 51.2544C52.6484 51.5305 52.6473 51.6036 52.6792 51.8696C52.7072 52.1029 52.7534 52.2902 52.8754 52.6639C53.0085 53.0719 53.0416 53.2161 53.0525 53.4361C53.0685 53.7576 53.0009 53.9859 52.8095 54.2563C52.6973 54.4147 52.6279 54.4885 52.4949 54.5909C52.0975 54.8969 51.605 54.9698 51.0934 54.7985C50.8836 54.7283 50.7108 54.6157 50.5413 54.4387C50.3538 54.2429 50.2459 54.0221 50.0072 53.3458C49.765 52.6598 49.5956 52.1855 49.3655 51.5496C49.2774 51.306 49.1919 51.0625 49.1755 51.0083C49.1591 50.9542 49.1295 50.8738 49.1098 50.8297C49.0457 50.6863 49.0493 50.6832 49.6166 50.3875C50.4388 49.9589 51.2256 49.2358 51.7436 48.4329C51.7553 48.4149 51.7778 48.379 51.7938 48.3532L51.9051 48.1727C52.21 47.6788 52.5286 46.8411 52.6456 46.2255C52.7333 45.764 52.7636 45.0463 52.7148 44.5863C52.6376 43.8575 52.5342 43.4896 51.9821 41.9781C51.9343 41.8473 51.8665 41.659 51.8315 41.5598C51.6848 41.1437 51.5073 40.6714 51.4848 40.6371C51.4511 40.5858 51.43 40.5909 51.4017 40.6571ZM49.0328 39.8923C49.682 39.6732 49.8676 39.6127 50.0076 39.5743C50.2341 39.5121 50.4701 39.5322 50.6376 39.6279C50.7429 39.688 50.884 39.8209 50.952 39.924C51.0582 40.0848 51.1049 40.3801 51.0512 40.551C50.9988 40.7177 50.8874 40.8984 50.7898 40.9749C50.7245 41.0261 50.5385 41.1251 50.5075 41.1251C50.4981 41.1251 50.4083 41.1575 50.3078 41.1971C50.2074 41.2367 50.0874 41.2808 50.0412 41.295C49.995 41.3092 49.8513 41.3571 49.7219 41.4015C49.0991 41.6149 48.9898 41.6488 48.8647 41.6672C48.7611 41.6825 48.7086 41.6826 48.6358 41.6678C48.1915 41.5773 47.8638 41.1399 47.9345 40.7314C47.9598 40.5855 48.0655 40.3823 48.1705 40.2777C48.305 40.1438 48.3602 40.1191 49.0328 39.8923ZM41.9572 42.4674C41.7668 42.5094 40.7628 42.8423 40.453 42.9661C40.0829 43.114 39.8984 43.3693 39.8984 43.7338C39.8984 43.9538 39.9759 44.1375 40.1385 44.3027C40.372 44.5401 40.6431 44.6083 40.9764 44.5135C41.3776 44.3992 42.397 44.0516 42.5455 43.9784C42.7194 43.8927 42.8458 43.7511 42.9403 43.5364C42.9937 43.4151 43.0058 43.1922 42.9669 43.0441C42.9058 42.8115 42.7452 42.6222 42.5145 42.5109C42.4089 42.4599 42.3726 42.4511 42.2421 42.4449C42.1348 42.4398 42.0532 42.4462 41.9572 42.4674ZM55.747 46.3902C55.9222 46.3341 56.1668 46.285 56.3436 46.2705C56.9248 46.2228 57.5353 46.3908 57.9403 46.7099C58.4578 47.1178 58.7584 47.606 58.8343 48.1623C58.883 48.5193 58.8451 48.9611 58.7415 49.2449C58.5691 49.7169 58.1889 50.1897 57.7726 50.4496C57.3704 50.7008 56.8219 50.8206 56.2975 50.7719C55.9775 50.7422 55.757 50.6801 55.4711 50.5389C55.2711 50.4401 55.2045 50.3963 55.0472 50.2596C54.8035 50.0477 54.5604 49.7528 54.4473 49.532C54.2408 49.1287 54.1605 48.582 54.2404 48.1239C54.2673 47.97 54.3257 47.7627 54.3521 47.7276C54.3589 47.7186 54.3738 47.6817 54.3852 47.6456C54.3966 47.6095 54.4354 47.5307 54.4715 47.4705C54.5075 47.4102 54.5369 47.3558 54.5369 47.3495C54.5369 47.3164 54.717 47.0985 54.8767 46.9386C55.1645 46.6503 55.4015 46.5009 55.747 46.3902Z" fill="#0BFF7B"/>
<path d="M56.3436 47.5657C56.0178 47.615 55.6917 47.8825 55.5763 48.1951C55.5423 48.287 55.5369 48.3322 55.5369 48.5232C55.5369 48.7341 55.5394 48.7504 55.5895 48.8676C55.661 49.0347 55.7359 49.1401 55.8592 49.2473C56.0573 49.4194 56.2634 49.496 56.5285 49.496C56.8334 49.496 57.0257 49.4234 57.2137 49.2372C57.3418 49.1103 57.4429 48.9576 57.4974 48.8087C57.539 48.6952 57.546 48.4469 57.5121 48.2853C57.4511 47.9949 57.1831 47.7005 56.8814 47.5929C56.8141 47.5688 56.4458 47.5502 56.3436 47.5657Z" fill="#0BFF7B"/>
<path d="M55.3941 80.585H43.3187C42.9852 80.585 42.7149 80.3147 42.7149 79.9812C42.7149 79.6478 42.9852 79.3774 43.3187 79.3774H55.3941C55.7276 79.3774 55.9979 79.6478 55.9979 79.9812C55.9979 80.3147 55.7276 80.585 55.3941 80.585Z" fill="#0BFF7B"/>
<path d="M53.3816 17.2389H45.3312C44.442 17.2389 43.7212 16.5181 43.7212 15.6289C43.7212 14.7396 44.442 14.0188 45.3312 14.0188H53.3816C54.2708 14.0188 54.9916 14.7396 54.9916 15.6289C54.9916 16.5181 54.2708 17.2389 53.3816 17.2389Z" fill="#0BFF7B"/>
</svg>
