<svg width="100" height="100" viewBox="0 0 100 100" fill="none" xmlns="http://www.w3.org/2000/svg">
<g opacity="0.8">
<path d="M70.72 62.3398C70.63 61.7013 70.3857 59.987 70.1757 58.5256C69.9614 57.0642 69.76 55.6327 69.7214 55.337L69.6485 54.8013L69.2671 55.4056C69.2928 55.4656 69.3485 55.8342 69.4 56.2284C69.4471 56.6099 69.5628 57.4242 69.6571 58.0713L69.6657 58.1356C69.7685 58.7913 69.9142 59.8413 70 60.4584C70.0814 61.0841 70.21 61.967 70.2742 62.4255L70.2871 62.5241C70.3428 62.9655 70.4114 63.4927 70.4371 63.737C70.4628 63.9984 70.4628 64.3584 70.4371 64.5298C70.4071 64.7012 70.3257 64.9712 70.2442 65.1255C70.1671 65.2798 70.0171 65.5241 69.9142 65.6612C69.8114 65.7984 69.5843 66.0084 69.4128 66.1198C69.2457 66.2312 68.86 66.4069 68.5685 66.5012C68.2685 66.6041 67.6428 66.7884 67.1671 66.9169C66.6914 67.0455 65.6714 67.3155 64.9 67.5126C64.1286 67.7098 62.8986 68.0012 62.1572 68.1683C61.42 68.3355 60.0786 68.6226 59.1743 68.7983C58.2743 68.9783 56.8086 69.244 55.9258 69.3898C55.0387 69.5398 53.8215 69.7283 53.213 69.814C52.6044 69.904 51.8287 70.0112 51.4858 70.054C51.1387 70.1012 50.3458 70.1997 49.7287 70.264C49.523 70.2855 49.2916 70.3069 49.0601 70.3326C48.5973 70.3797 48.1302 70.4269 47.8559 70.4612C47.4444 70.504 46.8659 70.534 46.5745 70.534C46.0987 70.534 45.9916 70.5083 45.6187 70.3369C45.3787 70.2297 45.0745 70.0197 44.9159 69.8612C44.753 69.7112 44.5516 69.4498 44.4573 69.2826C44.3673 69.1198 44.2388 68.7598 44.1659 68.4769C44.1016 68.2026 43.9645 67.5941 43.8616 67.1355C43.7588 66.6769 43.643 66.1412 43.5916 65.9441C43.5445 65.7469 43.2616 64.4998 42.9702 63.1712C42.6788 61.847 42.4216 60.6684 42.4045 60.5484L42.1559 61.2941L42.1816 61.4741C42.1945 61.5684 42.2931 62.0827 42.4088 62.6055C42.5159 63.1284 42.6488 63.7327 42.6959 63.947C42.7431 64.1612 42.9445 65.0569 43.1502 65.9441C43.2573 66.4284 43.3731 66.9383 43.4673 67.3498V67.3541C43.5445 67.6926 43.6045 67.9583 43.6302 68.0912C43.6902 68.3826 43.8016 68.8026 43.8745 69.0169C43.9473 69.2312 44.1059 69.5526 44.2259 69.7326C44.3502 69.9126 44.513 70.1183 44.5902 70.1912C44.6673 70.264 44.8902 70.4183 45.083 70.5383C45.2802 70.6497 45.6145 70.8083 45.8287 70.8683C46.0602 70.9412 46.3816 70.9883 46.6345 70.9883C46.8659 70.9883 47.2644 70.9626 47.5302 70.9283C47.7916 70.8983 48.4473 70.8255 48.9916 70.7783C49.5359 70.7269 50.513 70.6155 51.1687 70.5383C51.8244 70.4526 52.8315 70.324 53.4058 70.2383C53.9758 70.1526 55.0944 69.9812 55.8787 69.8526C56.6672 69.7198 58.1158 69.4583 59.0972 69.2612C60.0829 69.0598 61.4243 68.7769 62.08 68.6312C62.7357 68.4898 63.97 68.1898 64.8229 67.9755C65.6757 67.7612 66.8157 67.4612 67.3557 67.3155C67.9 67.1655 68.5943 66.9641 68.9114 66.8569C69.3271 66.7155 69.4728 66.6898 69.4471 66.7498C69.43 66.7969 69.25 66.9684 69.0528 67.1269C68.8557 67.2898 68.5343 67.4955 68.3371 67.5941C68.14 67.6883 67.6557 67.8641 67.2614 67.9798C66.8671 68.0998 65.89 68.3655 65.0843 68.5755C64.2786 68.7898 62.9929 69.1112 62.2215 69.2955C61.4543 69.4755 60.19 69.754 59.4186 69.9169C58.6515 70.0798 57.5115 70.2983 56.8858 70.4183C56.2644 70.5297 55.4415 70.6797 55.0687 70.7397C54.6915 70.804 53.9287 70.9283 53.3672 71.014C52.8144 71.0997 51.8587 71.2283 51.2501 71.314C50.6416 71.3997 49.8016 71.5069 49.373 71.554C48.9487 71.6097 48.1259 71.6912 47.5559 71.7469C46.9816 71.7983 46.1802 71.8497 45.7687 71.854C45.0702 71.8583 45.0016 71.8497 44.6845 71.6912C44.4916 71.6012 44.1916 71.3869 44.003 71.2155C43.793 71.0183 43.6088 70.774 43.5016 70.5469C43.4073 70.3497 43.2873 69.9983 43.2316 69.7712C43.1759 69.5398 42.9873 68.6998 42.8073 67.8941C42.6702 67.2726 42.4516 66.3169 42.2716 65.5112L42.1216 64.8555C41.9288 63.9855 41.7531 63.137 41.7359 62.9784L41.4145 63.6041C41.4145 63.6041 41.5259 64.1355 41.6545 64.7355C41.7788 65.3441 42.0659 66.6212 42.2802 67.5683C42.4945 68.5241 42.7388 69.5612 42.8159 69.8826C42.8973 70.204 43.0431 70.6155 43.1373 70.804C43.2316 70.9969 43.4716 71.3012 43.6602 71.4855C43.853 71.6697 44.123 71.884 44.273 71.9697C44.423 72.0597 44.7145 72.1712 44.9287 72.2269C45.2459 72.3126 45.473 72.3212 46.1802 72.2869C46.6559 72.2612 47.5687 72.1969 48.2073 72.1326C48.8459 72.0683 49.6601 71.9783 50.0244 71.9312C50.3801 71.884 50.7744 71.8283 50.8901 71.8069L52.1115 71.7769C52.2058 71.7169 52.5273 71.6269 52.8273 71.5797C53.1272 71.5283 54.1687 71.3526 55.1501 71.194C56.1315 71.0269 57.6229 70.7569 58.4586 70.5897C59.2943 70.4226 60.73 70.114 61.6472 69.904C62.5643 69.6898 63.9614 69.3512 64.7457 69.1369C65.5343 68.9269 66.58 68.6483 67.0686 68.5112C67.5657 68.3741 68.1914 68.1555 68.47 68.0183C68.8857 67.8169 69.0743 67.6798 69.52 67.2298C69.9914 66.7541 70.0985 66.6084 70.36 66.0598C70.5271 65.7126 70.7114 65.2412 70.7671 65.0184C70.8271 64.7741 70.87 64.3798 70.87 64.0669C70.8657 63.767 70.7928 63.0041 70.7071 62.3655L70.72 62.3398Z" fill="white"/>
<path d="M46.0387 11.5417C46.8916 11.3746 48.5287 11.0874 49.6773 10.8903C50.8216 10.6974 52.5144 10.4317 53.4315 10.2989C54.3487 10.166 55.4544 10.0203 55.8744 9.96457C56.2987 9.90886 56.9715 9.83171 57.3658 9.79314C57.7601 9.746 58.1758 9.71172 58.2915 9.70314C58.4029 9.69886 58.6472 9.72029 58.8272 9.75886C59.0072 9.79314 59.2986 9.89171 59.4701 9.96886C59.6372 10.0503 59.9286 10.2603 60.1129 10.436C60.2972 10.6074 60.5072 10.8774 60.5843 11.0446C60.6572 11.2117 60.8586 11.9188 61.0258 12.626C61.09 12.9003 61.1672 13.2303 61.2443 13.5645V13.5688C61.3643 14.0874 61.4886 14.6231 61.57 14.9788C61.6215 15.2017 61.69 15.506 61.7672 15.8402C61.8915 16.3802 62.0329 16.9974 62.1486 17.4859C62.3286 18.2745 62.8343 20.593 63.2757 22.6416C63.7172 24.6944 64.1157 26.5716 64.1629 26.8159C64.21 27.0601 64.24 27.2701 64.2357 27.2787C64.36 27.3816 64.7843 27.6216 64.9814 27.7244C64.7886 27.5616 64.7714 27.523 64.4586 26.0359C64.3214 25.3759 64.0643 24.1759 63.8329 23.0959L63.6572 22.2773C63.4 21.0473 63.0786 19.5688 62.9457 18.9988C62.92 18.8873 62.8943 18.7716 62.8643 18.6516C62.7486 18.1459 62.6243 17.5931 62.5515 17.3016C62.4657 16.9459 62.3072 16.2302 62.1915 15.7202C62.1229 15.4202 62.0415 15.0731 61.9772 14.7817C61.9343 14.5802 61.8915 14.4045 61.8657 14.2931C61.8486 14.216 61.8186 14.096 61.7843 13.946V13.9203C61.6986 13.5431 61.57 12.9988 61.4543 12.5017C61.2872 11.7988 61.0858 11.0703 61 10.8903C60.9058 10.6889 60.6958 10.4146 60.4515 10.1746C60.2286 9.96029 59.9158 9.716 59.7529 9.626C59.5858 9.536 59.2943 9.42458 59.0972 9.37743C58.9001 9.32172 58.5658 9.28315 58.3515 9.28743C58.1372 9.29172 57.0401 9.41172 55.9087 9.55743C55.0172 9.66457 53.9972 9.79743 53.3544 9.88314C53.1787 9.90457 53.033 9.926 52.9258 9.93886C52.4201 10.0117 51.6915 10.1189 51.3144 10.1831C50.9373 10.2431 49.9559 10.4017 49.1373 10.5389C48.3144 10.6717 47.1744 10.8731 46.6045 10.9803L46.3002 11.0403C45.653 11.1688 44.6073 11.3746 43.7716 11.546C42.7859 11.7474 41.3631 12.0603 40.6131 12.236C40.0516 12.3731 39.1731 12.5874 38.4102 12.776L37.6945 12.9517C36.8417 13.166 36.006 13.3974 35.8474 13.4745C35.6803 13.5474 35.4317 13.6888 35.2817 13.7917C35.1317 13.886 34.8274 14.156 34.6003 14.3831C34.3731 14.6102 34.086 14.9445 33.9703 15.1202C33.8503 15.3002 33.6917 15.5659 33.6146 15.7159C33.5374 15.8659 33.4131 16.1745 33.336 16.4017C33.246 16.6588 33.1731 17.0145 33.156 17.3274C33.1303 17.7088 33.1731 18.1759 33.3103 19.1745C33.4174 19.9116 33.5546 20.9016 33.6189 21.3816C33.6831 21.8573 33.8588 23.053 34.0003 24.0344C34.0517 24.373 34.1117 24.7844 34.1803 25.2173C34.3046 26.0444 34.4417 26.9487 34.5403 27.583C34.6946 28.5473 35.0288 30.6172 35.2903 32.1729C35.5474 33.7286 35.8988 35.7686 36.066 36.7029C36.2331 37.6372 36.3874 38.5757 36.4003 38.79C36.5074 38.5972 36.6274 38.3272 36.7345 38.0572C36.7217 38.0529 36.6788 37.8086 36.6317 37.5086C36.5845 37.2086 36.3317 35.6958 36.066 34.1401C35.8045 32.5844 35.4274 30.3001 35.2303 29.0744C35.0331 27.8444 34.7374 25.9373 34.5746 24.8402C34.4074 23.743 34.1288 21.7802 33.9488 20.4902C33.7774 19.2559 33.6231 18.0945 33.5889 17.8374V17.8074C33.5631 17.5974 33.5888 17.3016 33.6446 17.0017C33.6917 16.7402 33.7988 16.3802 33.8846 16.2131C33.9617 16.0417 34.0388 15.8959 34.0517 15.8959C34.0688 15.8959 34.0817 16.1059 34.086 16.3631C34.0903 16.6117 34.2188 17.6788 34.3646 18.7288C34.506 19.7788 34.7417 21.3559 34.8703 22.2473C35.0031 23.1345 35.1446 24.103 35.1917 24.3944C35.2174 24.553 35.256 24.8059 35.2946 25.0802C35.3288 25.3116 35.3674 25.5559 35.3974 25.7659L35.4145 25.8773C35.496 26.3916 35.6503 27.4073 35.7917 28.2387C35.8817 28.783 35.9845 29.4173 36.0703 29.9444C36.126 30.2958 36.1774 30.6001 36.2074 30.8015C36.2888 31.3072 36.546 32.7944 36.7731 34.0972C37.0002 35.3958 37.1845 36.5315 37.1845 36.6129C37.2488 36.3601 37.5188 35.7472 37.5317 35.7601C37.5145 35.7343 37.3902 35.0872 37.2531 34.3158C37.206 34.0501 37.1545 33.7415 37.1031 33.4287V33.4244C37.0045 32.8415 36.9017 32.2458 36.8374 31.873C36.7431 31.2987 36.486 29.7344 36.2717 28.3844C36.0531 27.0387 35.8345 25.6844 35.7874 25.3759C35.7403 25.0673 35.5774 24.0173 35.436 23.0487C35.286 22.0845 35.0288 20.3102 34.8574 19.1145C34.626 17.4816 34.5488 16.7531 34.5403 16.1917C34.536 15.4631 34.5403 15.4331 34.7246 15.0902C34.8274 14.8931 35.0717 14.576 35.2603 14.3917C35.4531 14.1988 35.7531 13.9845 35.9331 13.9031C36.1131 13.8217 36.8374 13.6031 37.5445 13.4274C38.2474 13.2431 39.5117 12.9388 40.3474 12.7417C41.1831 12.5445 42.4559 12.266 43.1802 12.1117C43.9002 11.9617 45.1902 11.7003 46.043 11.5374L46.0387 11.5417Z" fill="white"/>
</g>
<path fill-rule="evenodd" clip-rule="evenodd" d="M36.2327 40.2829C36.0836 41.1712 36.0359 41.672 35.9942 42.8464C35.9584 43.6512 35.9227 44.3905 35.9048 44.4859L36.4413 43.8838L36.4234 43.228C36.4115 42.8703 36.4473 42.1489 36.5009 41.6243C36.5546 41.0997 36.6738 40.2948 36.7692 39.8358C36.8646 39.3767 37.0375 38.6673 37.1567 38.2559C37.276 37.8445 37.5323 37.1113 37.729 36.6164C37.9257 36.1276 38.2417 35.4241 38.4325 35.0664C38.6173 34.7087 38.9452 34.1304 39.1539 33.7966C39.3685 33.4568 39.8275 32.795 40.1733 32.3359C40.6085 31.7577 41.1332 31.1674 41.8366 30.464C42.403 29.8976 42.874 29.4326 42.8859 29.4326C42.8978 29.4326 43.1303 29.5638 43.4046 29.7247C43.6728 29.8857 44.0961 30.1003 44.3406 30.1957C44.585 30.2971 45.0142 30.4341 45.2944 30.5057C45.5746 30.5773 46.0814 30.6727 46.4271 30.7203C46.7729 30.7621 47.542 30.8217 48.1441 30.8455C48.7403 30.8694 49.2291 30.8932 49.2291 30.8932C49.2351 30.8932 49.3245 31.3344 49.6286 32.8606L49.0264 33.4866C48.6926 33.8323 48.2514 34.3391 48.0428 34.6193C47.84 34.8995 47.5718 35.293 47.4526 35.4957C47.2856 35.7759 47.1962 35.8713 47.1008 35.8713C47.4123 35.8713 47.5816 35.8713 47.9772 36.0203C47.7447 35.8772 47.7387 35.8653 47.8222 35.7103C47.8639 35.6149 48.0964 35.287 48.3289 34.977C48.5614 34.667 48.9311 34.2019 49.1516 33.9516C49.3782 33.6952 49.5749 33.4925 49.6047 33.4866C49.6286 33.4866 49.6584 33.5342 49.6763 33.5939C49.6882 33.6475 49.7478 34.0589 49.7955 34.5C49.8492 34.9412 49.9505 35.5851 50.028 35.9309C50.6896 38.6716 51.6884 41.3048 52.5678 43.9792C52.8597 44.8495 53.2832 46.1611 53.5095 46.9004C53.8863 48.1284 54.227 49.3661 54.5946 50.5967L54.2847 50.7038C54.1117 50.7575 53.6826 50.9484 52.6871 51.4313L52.4722 51.1809C52.359 51.0376 52.0015 50.5368 51.6795 50.0601C51.3574 49.5831 50.9999 49.0287 50.8806 48.826C50.7614 48.6173 50.6718 48.4206 50.6897 48.3908C50.7076 48.361 50.7552 48.3312 50.7972 48.3312C50.833 48.3312 51.2739 48.1702 51.7629 47.9735C52.2576 47.7827 52.7225 47.5681 52.806 47.5084C52.9432 47.4012 52.9493 47.3832 52.8659 47.27C52.8182 47.2044 52.4127 46.8407 51.9714 46.4711C51.5304 46.0955 50.8566 45.553 50.4812 45.2549C50.1055 44.9628 49.5392 44.5276 49.2291 44.2951C48.9191 44.0686 48.3826 43.687 48.0368 43.4605C47.691 43.2339 47.2856 42.9716 47.1306 42.8881C46.9697 42.7987 46.8445 42.7093 46.8445 42.6855L46.5643 43.0789C46.606 43.0789 46.8385 43.2041 47.0829 43.3591C47.3274 43.5082 47.84 43.854 48.2156 44.1162C48.5912 44.3786 49.2649 44.8674 49.7061 45.2013C50.1474 45.5411 50.7911 46.0478 51.1367 46.334C51.4828 46.6261 51.8761 46.9481 52.2694 47.2521L52.1029 47.3356C52.0133 47.3832 51.6078 47.5562 51.1966 47.7231C50.785 47.89 50.4214 48.0271 50.3917 48.0331C50.3558 48.0331 50.2606 47.9258 50.1653 47.7946C50.0757 47.6635 49.7359 47.2223 49.414 46.8229C49.0861 46.4234 48.5078 45.7676 48.1143 45.3742C47.7268 44.9747 47.2201 44.4799 46.9935 44.2713C46.761 44.0566 46.4927 43.8182 46.2066 43.5857L46.0575 44.0328C46.1112 44.0626 46.6298 44.5395 47.2022 45.094C47.7745 45.6484 48.5018 46.4115 48.8178 46.7811C49.1337 47.1567 49.5392 47.6635 49.718 47.9079C49.8968 48.1583 50.4393 48.9631 50.9283 49.6964C51.4111 50.4355 51.9596 51.2286 52.1505 51.4549C52.3354 51.6874 52.5259 51.9081 52.5735 51.9439C52.6391 51.9976 52.7348 51.9618 53.0446 51.7534C53.2592 51.61 53.6052 51.4073 53.8198 51.312C54.0343 51.2168 54.4456 51.0677 54.7436 50.9843C55.0359 50.9008 55.7215 50.7815 56.2638 50.7099C56.9316 50.6264 57.8855 50.567 59.2449 50.5311C60.3418 50.5014 61.8201 50.4179 62.5236 50.352C63.2272 50.2864 64.0976 50.1912 64.4612 50.1374C64.8191 50.0841 65.3198 49.9945 65.5641 49.9289L65.6989 49.896L65.7042 49.8946L65.705 49.8944C65.8862 49.8501 66.0266 49.8156 66.0413 49.8156C66.0588 49.8156 66.0588 49.9885 66.047 50.1912C66.0352 50.4298 66.0649 50.7038 66.1366 50.9484C66.196 51.163 66.3393 51.4851 66.4586 51.6638C66.5775 51.8486 66.7684 52.075 66.8816 52.1707C66.9891 52.2598 67.2155 52.4032 67.3824 52.4805C67.5436 52.5579 67.7403 52.6177 67.8115 52.6177C67.8893 52.6177 67.9487 52.6474 67.9487 52.6772C67.9487 52.713 67.6747 52.9096 67.3348 53.1185C67.0522 53.3001 66.2436 53.7939 65.4159 54.2992L65.4155 54.2996L64.9681 54.5732C64.0023 55.1575 62.8457 55.8549 62.4043 56.1171C61.9634 56.3793 61.2778 56.773 60.8841 56.9875C60.4908 57.2021 59.8886 57.5181 59.5429 57.685C59.1973 57.8519 58.5532 58.1381 58.1123 58.3112C57.6709 58.4838 57.0093 58.7224 56.6514 58.8356C56.2879 58.9548 55.6739 59.1161 55.2802 59.1995C54.8869 59.283 54.2428 59.3901 53.8495 59.4438C53.4558 59.4915 52.8479 59.5391 52.4901 59.5334C52.1383 59.5334 51.5361 59.4915 51.1489 59.4438C50.7675 59.3901 50.195 59.2948 49.8849 59.2293C49.5749 59.1576 49.0384 59.0147 48.6926 58.9072C48.3468 58.7997 47.7447 58.5615 47.3512 58.3885C46.9577 58.2098 46.3377 57.8995 45.98 57.6911C45.6164 57.4822 45.0023 57.0889 44.6088 56.8088C44.2154 56.5226 43.649 56.0874 42.8203 55.372L42.8859 56.0157C42.9038 56.0157 43.0469 56.2005 43.2019 56.4212C43.3628 56.6419 43.6848 57.1606 43.9232 57.5657C44.1617 57.9773 44.4121 58.3946 44.6088 58.6629L44.4598 58.5852C44.3763 58.5436 44.1736 58.4125 44.0126 58.2932C43.8457 58.174 43.5059 57.9056 43.2495 57.6911C42.9344 57.4277 42.8318 57.3332 42.8106 57.2375L42.7905 57.8641C42.8203 57.8641 42.9157 57.9533 42.9992 58.0608C43.2019 58.2932 43.4686 58.4993 43.649 58.6271C43.6371 58.6031 43.7384 58.6507 43.8755 58.7403C44.0186 58.8299 44.3346 59.0326 44.579 59.1995C44.8235 59.3665 45.3719 59.6881 45.8012 59.9149C46.2244 60.1413 46.8683 60.4572 47.232 60.6123C47.5897 60.7674 48.2335 61.0117 48.6628 61.1607C49.0861 61.3097 49.7716 61.5125 50.1828 61.6139C50.5944 61.7153 51.3574 61.8704 51.8822 61.9538C52.6513 62.0788 53.1219 62.1147 54.2965 62.1444C55.2684 62.1623 55.9776 62.1505 56.4129 62.1029C56.7707 62.0609 57.4564 61.9656 57.9331 61.8822C58.4103 61.8044 59.1077 61.6554 59.4831 61.554C59.8589 61.4588 60.4073 61.2918 60.7053 61.1966C60.9977 61.0952 61.5343 60.8924 61.8978 60.7434C62.2553 60.5944 62.8098 60.3501 63.1201 60.1889C63.4299 60.0342 63.9962 59.7239 64.372 59.4915C64.7474 59.2651 65.3137 58.8954 65.624 58.6747C65.9338 58.4484 66.4049 58.0844 66.6671 57.8641C66.9293 57.6434 67.3108 57.3035 67.5196 57.1068L67.895 56.7433C68.0465 56.5967 68.3021 56.396 68.4438 56.2246C68.5151 56.1232 68.7239 55.8728 68.9027 55.6639C69.1514 55.4258 69.6091 54.8643 69.6538 54.7996C70.2621 53.9234 70.572 53.4524 70.7332 53.1902C70.894 52.9276 71.168 52.4447 71.3349 52.1169L71.6452 51.5205C73.9048 51.2045 74.5603 51.0857 74.6857 51.0258C74.7989 50.9721 74.93 50.8589 74.9776 50.7754C75.0252 50.6862 75.0432 50.5608 75.0195 50.4656C75.0016 50.3699 74.9243 50.2567 74.8465 50.2091C74.7749 50.1614 74.4768 50.0601 74.1788 49.9885L73.6422 49.8574C74.614 49.607 75.1087 49.452 75.3713 49.3506C75.6335 49.2493 75.9079 49.1062 75.9853 49.0287C76.0748 48.9452 76.1225 48.826 76.1225 48.6889C76.1225 48.5637 76.0748 48.4385 76.015 48.3789C75.9556 48.3252 75.8122 48.2477 75.6991 48.206L75.4906 48.1404C75.9494 47.9377 76.1343 47.8125 76.1937 47.729C76.2475 47.6516 76.2951 47.5025 76.2951 47.4071C76.2951 47.2938 76.2418 47.1746 76.1404 47.0792C76.0093 46.9481 75.9197 46.9242 75.4727 46.9004L74.9597 46.8706C75.3473 46.6142 75.4784 46.4831 75.4963 46.4115C75.5142 46.334 75.5142 46.2148 75.4963 46.1432C75.4784 46.0657 75.3713 45.9525 75.2638 45.8869C75.1209 45.7974 74.9719 45.7676 74.6258 45.7676C74.3816 45.7676 73.9883 45.8094 73.7615 45.8571C73.5351 45.9048 73.3324 45.9465 73.3144 45.9465C73.2965 45.9465 73.3083 45.8452 73.3324 45.7259C73.356 45.6007 73.404 45.0284 73.4337 44.4561C73.4635 43.8182 73.4635 43.0074 73.4337 42.3695C73.404 41.7972 73.3083 40.9387 73.231 40.4618C73.1536 39.9848 73.0164 39.3171 72.9268 38.9713C72.8434 38.6256 72.6109 37.8565 72.4143 37.2603C72.0532 36.1217 71.8749 35.4368 71.1981 34.4524C71.1326 34.3629 70.87 33.9397 70.6196 33.5164C70.1905 32.801 70.1607 32.7354 70.2442 32.6221L69.8863 32.4075L69.4035 31.7994C69.1352 31.4656 68.7239 30.9767 68.4915 30.7144C68.2529 30.4521 68.086 30.2195 68.11 30.1957L67.6507 29.8797C67.2098 29.4564 66.8458 29.1345 66.5478 28.8961C66.2498 28.6576 65.8206 28.3357 65.5939 28.1747C65.3675 28.0197 65.0874 27.817 64.9799 27.7216C64.9086 27.6624 64.3899 27.4052 64.2348 27.2745C64.2287 27.2864 63.9722 27.1493 63.6624 26.9764C63.3582 26.8035 63.0842 26.6366 63.0541 26.6008C62.9568 26.5296 62.7101 26.374 62.5057 26.3206C62.5 26.3266 62.1421 26.2073 61.7187 26.0404C61.2957 25.8794 60.628 25.6529 59.5429 25.319L59.4774 25.009C59.4355 24.8361 59.2864 24.3592 59.1435 23.9478C59.0002 23.5365 58.7621 22.7317 58.613 22.1593C58.4636 21.587 58.2613 20.8716 58.1717 20.5795C58.0764 20.2874 57.9807 19.9475 57.9628 19.8343C57.9274 19.6495 57.9392 19.6077 58.1123 19.4766C58.2967 19.3335 58.3028 19.3156 58.2613 19.0294C58.2372 18.8566 58.0943 18.4989 57.9213 18.165C57.7605 17.855 57.4323 17.3184 57.1999 16.9726C56.9735 16.6269 56.4727 15.9294 56.0912 15.4226C55.7093 14.9159 55.1967 14.2959 54.9524 14.0455C54.6243 13.7116 54.4517 13.5805 54.2965 13.5506C54.1834 13.5328 53.7005 13.5149 53.2233 13.5149C52.7466 13.5149 51.9954 13.5566 51.5541 13.6103C51.1131 13.658 50.469 13.7653 50.1234 13.8428C49.7776 13.9262 49.3245 14.0395 49.1099 14.0991C48.8953 14.1647 48.4124 14.3257 48.0368 14.4628C47.6612 14.5999 47.0829 14.8443 46.755 15.0053C46.4271 15.1603 45.9562 15.4226 45.7117 15.5896C45.4673 15.7565 45.1096 16.0427 44.9188 16.2394C44.6863 16.4719 44.4896 16.7402 44.3346 17.0621C44.2094 17.3244 44.0424 17.7537 43.9769 18.0159C43.8636 18.4333 43.8457 18.6658 43.8398 19.9237C43.8338 21.1876 43.8517 21.432 43.9709 22.0401C44.0424 22.4157 44.1378 22.8092 44.1736 22.9046C44.2154 22.9999 44.3108 23.1728 44.3942 23.2801C44.4836 23.3875 44.6148 23.4769 44.6923 23.4888C44.8235 23.5007 44.8533 23.5544 44.9904 24.1386C45.0738 24.4904 45.1215 24.8004 45.0977 24.8242C45.0739 24.8481 45.0321 24.8421 45.0083 24.8063C44.9844 24.7706 44.8592 24.6871 44.7281 24.6156C44.5969 24.55 44.3406 24.4546 44.1617 24.401C43.9828 24.3473 43.7503 24.3175 43.6549 24.3354C43.3509 24.3354 43.2244 24.3585 43.0111 24.389C42.8799 24.4128 42.6653 24.5261 42.4746 24.6752C42.3076 24.8123 42.1168 24.9792 42.0572 25.0507C41.9976 25.1163 41.8843 25.2952 41.8068 25.4562C41.7234 25.6112 41.6161 25.9033 41.5683 26.112C41.5207 26.3146 41.4789 26.6306 41.4789 26.8095C41.4789 26.9883 41.5207 27.2924 41.5683 27.4831C41.6161 27.668 41.7234 27.9482 41.8009 28.1091C41.8784 28.2641 42.0811 28.5443 42.248 28.7351C42.4149 28.9199 42.552 29.0868 42.552 29.1047C42.552 29.1226 42.3732 29.3014 42.1586 29.5101C41.938 29.7128 41.5266 30.1242 41.2345 30.4163L41.2119 30.4399C40.9331 30.7302 40.6544 31.0206 40.5847 31.1019C40.5307 31.1648 40.3786 31.3564 40.2074 31.572L40.2071 31.5725L40.2021 31.5787C40.1478 31.6471 40.0917 31.7178 40.0362 31.7875C39.8037 32.0855 39.44 32.5804 38.826 33.4568C38.7575 33.5543 38.5766 33.7966 38.51 33.9337L38.045 34.8697C37.5981 35.7533 37.2752 36.4875 36.9659 37.4153C36.8407 37.779 36.7334 38.0651 36.7275 38.0592C36.4 38.817 36.3763 39.454 36.2327 40.2829ZM54.4574 14.1349L54.2371 13.9322C53.1044 13.9501 52.6037 13.962 52.3887 13.9739C52.1741 13.9859 51.6676 14.0335 51.256 14.0872C50.8448 14.1349 50.2427 14.2422 49.9147 14.3197C49.5868 14.4032 49.1576 14.5165 48.9609 14.5761C48.7641 14.6417 48.323 14.8026 47.9772 14.9397C47.6314 15.0768 47.0412 15.3511 46.6656 15.5478C46.29 15.7505 45.8608 16.0069 45.7117 16.1201C45.5627 16.2394 45.3123 16.4719 45.1573 16.6388C45.0023 16.8057 44.7936 17.1038 44.6983 17.3006C44.5969 17.4973 44.4777 17.8431 44.43 18.0756C44.3823 18.3081 44.3108 18.7731 44.275 19.1189C44.2332 19.4706 44.2213 20.031 44.2452 20.4006C44.263 20.7643 44.3167 21.3128 44.3644 21.6228C44.4023 21.8694 44.4554 22.1727 44.4905 22.3734C44.4995 22.425 44.5074 22.4698 44.5134 22.5051C44.5492 22.678 44.6088 22.8151 44.6506 22.8151C44.6923 22.8151 44.9546 22.6303 45.2348 22.4097C45.515 22.1892 45.9025 21.903 46.0992 21.7659C46.296 21.6347 46.6179 21.432 46.8147 21.3128C47.0114 21.1935 47.4526 20.9551 47.7983 20.7762C48.1441 20.5974 48.7999 20.2993 49.259 20.1204C49.718 19.9356 50.4812 19.6673 50.958 19.5183C51.4352 19.3693 52.1326 19.1785 52.508 19.095C52.8838 19.0116 53.4501 18.9042 53.7599 18.8566C54.0702 18.8088 54.6601 18.7373 55.0717 18.7016C55.6975 18.6479 55.9064 18.6479 56.3831 18.7314C56.6934 18.785 57.1522 18.8864 57.3965 18.9639C57.6412 19.0473 57.8497 19.095 57.8558 19.0831C57.8676 19.0712 57.7426 18.797 57.5813 18.481C57.4205 18.1591 57.0806 17.5867 56.8184 17.1992C56.5619 16.8177 55.9776 16.0188 55.5188 15.4226C55.0595 14.8205 54.5828 14.2422 54.4574 14.1349ZM56.3176 19.9416C56.1445 19.882 55.8347 19.8223 55.6381 19.8045C55.5489 19.7937 55.4561 19.7841 55.3751 19.7757C55.2773 19.7656 55.1967 19.7573 55.1609 19.7508C55.0954 19.7449 54.7021 19.7568 54.2847 19.7866C53.8255 19.8164 53.2771 19.8939 52.9135 19.9833C52.5735 20.0668 52.085 20.2039 51.8224 20.2874C51.5602 20.3768 51.1726 20.5258 50.9641 20.6332C50.7552 20.7345 50.469 20.9134 50.3379 21.0326C50.2007 21.1459 50.022 21.3605 49.9386 21.5095C49.8492 21.6526 49.7359 21.9209 49.6763 22.0997C49.5928 22.3442 49.569 22.6065 49.5749 23.1132C49.5749 23.5901 49.6226 24.0313 49.7299 24.5738C49.8134 24.9971 49.8849 25.4681 49.8849 25.6171C49.8849 25.7721 49.8372 25.9629 49.7716 26.0642C49.712 26.1596 49.5988 26.261 49.5212 26.2848C49.4438 26.3087 49.3186 26.3325 49.247 26.3325C49.1695 26.3325 49.0622 26.2789 49.0085 26.2133C48.9489 26.1477 48.8655 26.094 48.8297 26.094C48.788 26.094 48.7522 26.0523 48.7522 26.0046C48.7522 25.957 48.6509 25.8496 48.5316 25.7662C48.4064 25.6887 48.2276 25.6052 48.1262 25.5814C47.9951 25.5515 47.8639 25.5814 47.6552 25.6827C47.4943 25.7602 47.2975 25.9092 47.226 26.0046C47.1545 26.1 47.0353 26.3564 46.9637 26.571C46.8623 26.8571 46.8385 27.0479 46.8564 27.3162C46.8743 27.5129 46.9458 27.7991 47.0173 27.9601C47.0829 28.1151 47.2558 28.3655 47.3989 28.5145C47.6433 28.7768 47.6612 28.7887 48.0666 28.8185C48.2991 28.8365 48.6449 28.8185 48.8416 28.7828C49.0384 28.747 49.2053 28.7231 49.2112 28.7351C49.2172 28.7411 49.3186 29.1882 49.4318 29.7307C49.5451 30.2732 49.7895 31.4358 49.9803 32.324C50.171 33.2123 50.32 34.0171 50.3143 34.1125C50.3098 34.1811 50.3058 34.3207 50.3013 34.4602L50.2997 34.5195C50.2984 34.5538 50.2972 34.5874 50.2964 34.6193C50.2964 34.7981 50.3497 35.2274 50.4157 35.5731C50.4869 35.9189 50.5826 36.3482 50.6241 36.527C50.6718 36.7058 50.7255 36.9264 50.7434 37.0218C50.7732 37.159 50.8745 37.2305 51.3932 37.4809C51.7271 37.6419 52.2698 37.8445 52.5976 37.928C53.021 38.0353 53.3548 38.0771 53.7302 38.0771C54.0282 38.0771 54.404 38.0413 54.5648 37.9936C54.9127 37.8942 55.1175 37.8091 55.4589 37.6478C55.97 37.3852 56.2367 37.0456 56.6099 36.6522C56.717 36.533 56.9018 36.2528 57.015 36.0203L57.2239 35.6029C56.7707 34.7683 56.5383 34.3689 56.4072 34.1721C56.3326 34.0555 56.2606 33.9451 56.2105 33.8683C56.1902 33.8371 56.1731 33.8114 56.1612 33.7931C56.1535 33.7807 56.1478 33.7717 56.1446 33.7667C56.1266 33.7429 56.0257 33.7012 55.9121 33.6773C55.7272 33.6356 55.7036 33.6058 55.5367 33.1288C55.4414 32.8486 55.3099 32.4373 55.2444 32.2048C55.1788 31.9723 55.143 31.7696 55.1731 31.7398C55.1967 31.7159 55.465 31.6265 55.7574 31.543C56.0554 31.4596 56.5085 31.2867 56.7707 31.1555C57.0329 31.0303 57.4144 30.7919 57.6233 30.6249C57.826 30.464 58.1298 30.148 58.2967 29.9274C58.4636 29.7009 58.7022 29.3074 58.8333 29.0451C58.9587 28.7828 59.1256 28.3535 59.1912 28.0912C59.2864 27.7335 59.3162 27.4474 59.3162 26.9287C59.3162 26.422 59.2746 26.0702 59.1615 25.5873C59.0837 25.2237 58.8932 24.5798 58.7498 24.1565C58.6008 23.7332 58.4221 23.2265 58.3565 23.0417C58.2552 22.7615 58.2014 22.6899 58.0703 22.6542C57.975 22.6303 57.7006 22.6184 57.4564 22.6244C57.2117 22.6303 56.9316 22.6422 56.8302 22.6482C56.6755 22.6661 56.6514 22.6482 56.6396 22.5051C56.6217 22.368 56.6575 22.3203 56.8184 22.2428C56.9613 22.1713 57.1343 22.1534 57.5219 22.1653L58.0406 22.1892C57.8138 21.587 57.6469 21.2412 57.5219 21.0266C57.3965 20.812 57.1461 20.508 56.9674 20.341C56.7467 20.1383 56.5383 20.0072 56.3176 19.9416ZM60.4073 26.0344C60.0796 25.9331 59.7754 25.8556 59.7278 25.8556C59.674 25.8556 59.6561 25.8973 59.674 25.957C59.692 26.0106 59.7217 26.2968 59.7514 26.5948C59.7815 26.9585 59.7754 27.2924 59.7278 27.6143C59.6859 27.8766 59.5967 28.276 59.5311 28.5085C59.4652 28.7411 59.3044 29.1286 59.1733 29.373C59.0422 29.6174 58.7857 30.0049 58.6008 30.2374C58.4103 30.464 58.0882 30.7919 57.8737 30.9707C57.6591 31.1436 57.2776 31.388 57.0272 31.5073C56.7707 31.6265 56.5619 31.7398 56.5619 31.7577C56.5619 31.7756 56.6873 31.8531 56.8424 31.9306C57.0032 32.0081 57.4621 32.2644 57.8737 32.5029C58.2849 32.7413 58.7498 32.9619 58.9168 33.0036C59.0837 33.0394 59.6321 33.1229 60.139 33.1885C60.6459 33.254 61.266 33.3494 61.5102 33.4031C61.7545 33.4508 62.2256 33.5581 62.5533 33.6416C62.8815 33.725 63.4478 33.9039 63.8053 34.035C64.1632 34.1662 64.6521 34.3689 64.8785 34.4881C65.1053 34.6014 65.4448 34.7922 65.624 34.9054C65.7107 34.9634 65.8284 35.041 65.9493 35.1206L65.9509 35.1216C66.0783 35.2055 66.2086 35.2914 66.3092 35.3585C66.5063 35.4897 66.8161 35.7162 66.9948 35.8653C67.174 36.0143 67.3527 36.1812 67.3942 36.2289C67.4362 36.2766 67.472 36.2885 67.472 36.2587C67.472 36.2289 67.5257 36.2885 67.5913 36.3959C67.6625 36.5091 67.7403 36.5747 67.7879 36.5509C67.8295 36.527 68.0265 36.688 68.2647 36.9384C68.5151 37.2067 68.6462 37.3915 68.6226 37.4391C68.5908 37.4869 68.6006 37.4968 68.6523 37.469C68.6942 37.4391 68.7834 37.4869 68.873 37.6001C68.9564 37.6955 69.022 37.7969 69.022 37.8267C69.022 37.8505 69.1115 37.9638 69.2186 38.0771C69.3318 38.1903 69.618 38.554 69.8627 38.8819C70.107 39.2098 70.4824 39.7463 70.6973 40.0742C70.9176 40.4021 71.2515 40.9387 71.4485 41.2666C71.6452 41.5945 72.0385 42.286 72.3247 42.8047C72.6048 43.3174 72.8373 43.7586 72.8373 43.7884C72.8373 43.8122 72.8792 43.8838 72.933 43.9493C73.0164 44.0566 73.0221 43.9732 72.9924 42.8643C72.9688 42.1072 72.9089 41.3441 72.8316 40.8373C72.766 40.3842 72.6349 39.6807 72.5392 39.2694C72.444 38.858 72.2832 38.2559 72.1818 37.928C72.0743 37.6001 71.8597 37.004 71.6989 36.6045C71.5377 36.1991 71.2694 35.597 71.1025 35.2631C70.9355 34.9233 70.6017 34.3271 70.3574 33.9337C70.1188 33.5402 69.7015 32.9202 69.4275 32.5565C69.1531 32.1869 68.6523 31.5728 68.3066 31.1854C67.961 30.7978 67.3824 30.2136 67.0249 29.8917C66.6671 29.5638 66.0588 29.0689 65.6834 28.7887C65.3076 28.5026 64.7295 28.1032 64.4018 27.8945C64.0736 27.6918 63.4417 27.34 63.0008 27.1135C62.5594 26.8869 61.9276 26.5948 61.5998 26.4577C61.2717 26.3266 60.7351 26.1358 60.4073 26.0344ZM56.4308 32.2107C56.1747 32.0915 55.9003 31.9961 55.8168 31.9961C55.7333 31.9961 55.6678 32.02 55.6678 32.0557C55.6678 32.0915 55.7036 32.2048 55.7451 32.3121C55.7928 32.4135 56.0432 32.8248 56.3058 33.2183C56.568 33.6118 56.9556 34.2437 57.1701 34.6193C57.3847 34.9948 57.6648 35.5195 57.7959 35.7818C57.9274 36.0441 58.1717 36.5807 58.3386 36.9742C58.5056 37.3676 58.7559 37.9995 58.8932 38.3752C58.9335 38.4912 58.9774 38.6163 59.021 38.7397L59.0214 38.7414L59.0222 38.7433C59.1183 39.0178 59.2115 39.2831 59.2567 39.4185C59.3162 39.6152 59.4355 40.0027 59.525 40.2829C59.6085 40.5631 59.7693 41.1235 59.8768 41.5348C59.99 41.9462 60.1866 42.751 60.3238 43.3233C60.4549 43.8957 60.628 44.6886 60.7114 45.0821C60.7888 45.4755 61.0034 46.6619 61.1825 47.7171C61.3612 48.7783 61.5102 49.7083 61.5102 49.7918C61.5102 49.8812 61.5518 49.9587 61.6177 49.9825C61.6711 50.0005 62.16 49.9706 62.7028 49.917C63.2451 49.8574 63.7043 49.7918 63.734 49.7739C63.7577 49.7501 63.8293 49.4102 63.8888 49.0168L63.9124 48.8769C63.9755 48.4948 64.0573 48.0034 64.1155 47.7231C64.175 47.4071 64.2108 47.1329 64.1929 47.1209C64.175 47.1031 63.585 46.9123 62.8815 46.6917C62.178 46.4771 61.54 46.2565 61.4683 46.2088C61.3909 46.1611 61.3315 46.0777 61.3315 46.024C61.3315 45.9644 61.4207 45.5172 61.5343 45.0224L61.5579 44.9198V44.9188L61.5591 44.9146C61.6751 44.4127 61.8596 43.6172 61.987 43.0849C62.1242 42.5126 62.327 41.6243 62.4401 41.1175C62.5533 40.6108 62.7561 39.6927 62.8872 39.0786C63.0126 38.4586 63.1201 37.9161 63.1201 37.8684C63.1201 37.8207 62.8933 37.5047 62.625 37.1709C62.351 36.831 61.8441 36.2647 61.5041 35.907C61.1646 35.5493 60.5384 34.971 60.1093 34.6193C59.6859 34.2675 59.1077 33.8204 58.8276 33.6237C58.5471 33.427 57.9987 33.0752 57.6054 32.8427C57.2117 32.6102 56.6812 32.324 56.4308 32.2107ZM60.288 33.6416L59.3939 33.4985L59.5727 33.6296C59.6679 33.6952 59.9542 33.9158 60.1988 34.1125C60.4431 34.3093 61.0868 34.9114 61.6295 35.4539C62.1718 35.9964 62.8159 36.694 63.0541 37.004C63.2927 37.314 63.5134 37.6239 63.5374 37.6895C63.5671 37.7611 63.5431 38.0353 63.4714 38.3752C63.4421 38.514 63.4022 38.7067 63.3591 38.9125L63.3587 38.9144V38.9152C63.3061 39.1681 63.2491 39.4404 63.2035 39.6569C63.1795 39.7686 63.1522 39.8995 63.1229 40.0383C63.0492 40.3885 62.965 40.7889 62.9051 41.0579C62.8216 41.4335 62.5656 42.5364 62.3388 43.5022C62.1124 44.468 61.8856 45.398 61.838 45.559C61.7847 45.7259 61.7488 45.863 61.7488 45.875C61.7488 45.8809 61.838 45.9167 61.9455 45.9524C62.0469 45.9823 62.6848 46.185 63.3583 46.3996C64.0321 46.6142 64.6102 46.8169 64.6399 46.8467C64.6819 46.8825 64.6281 47.2998 64.497 48.0808C64.3838 48.7247 64.2825 49.3566 64.2706 49.4818C64.2527 49.6845 64.2645 49.7024 64.4018 49.7024C64.4852 49.7024 64.8191 49.6487 65.1468 49.5831C65.4746 49.5176 65.8801 49.3983 66.0413 49.3148C66.2974 49.1896 66.3629 49.1181 66.494 48.826C66.5836 48.6352 66.709 48.361 66.7685 48.2119C66.834 48.0629 66.9769 47.7171 67.0905 47.4369C67.2037 47.1567 67.3348 46.7811 67.3824 46.6023C67.4301 46.4234 67.4956 45.9525 67.5314 45.559C67.5612 45.1655 67.6031 44.7482 67.621 44.6349C67.6389 44.5217 67.7106 44.3607 67.7879 44.2832C67.9011 44.164 67.961 44.1461 68.235 44.164C68.8668 44.2052 68.9137 44.5693 69.2068 45.3503C69.3021 45.863 69.3261 46.2088 69.3139 46.7036C69.3021 47.0733 69.2964 47.3773 69.3082 47.3773C69.3119 47.3773 69.3558 47.356 69.4189 47.3254L69.4564 47.3074L69.4951 47.2887L69.5468 47.264C69.6657 47.2044 70.1009 47.0136 70.5125 46.8527C70.9237 46.6857 71.5914 46.4533 72.0026 46.334C72.4143 46.2088 72.7839 46.0776 72.8194 46.0419C72.8674 46.0061 72.9089 45.7438 72.933 45.4099L72.9627 44.8436C71.9729 43.0431 71.4424 42.1191 71.1501 41.6243C70.8582 41.1354 70.405 40.42 70.1485 40.0444C69.8924 39.6688 69.4035 39.0071 69.0635 38.5838C68.7178 38.1605 68.1336 37.5107 67.7639 37.153C67.3885 36.7953 66.8279 36.3064 66.5181 36.068C66.2082 35.8355 65.6952 35.4897 65.3854 35.2989C65.0752 35.1141 64.6045 34.8578 64.3419 34.7326C64.0797 34.6074 63.5728 34.4106 63.2092 34.2914C62.8518 34.1721 62.2435 34.0112 61.8681 33.9277C61.4923 33.8502 60.7831 33.7191 60.288 33.6416ZM68.4259 44.6767C68.3424 44.617 68.2289 44.5693 68.1694 44.5693C68.11 44.5693 68.0562 44.6051 68.0383 44.6469C68.0265 44.6886 68.0025 45.0403 67.9907 45.4338C67.9728 45.8272 67.9129 46.34 67.8535 46.5665C67.7997 46.799 67.6446 47.2402 67.5196 47.5502C67.3885 47.8662 67.174 48.3848 67.0429 48.7127C66.9114 49.0406 66.7387 49.446 66.661 49.607C66.5478 49.8454 66.5181 50.0005 66.5181 50.352C66.5181 50.7038 66.5539 50.8707 66.6732 51.1272C66.7566 51.312 66.9354 51.5742 67.0726 51.7175C67.2098 51.8604 67.4423 52.0335 67.5913 52.1108C67.7403 52.1825 67.9667 52.2659 68.0978 52.2839C68.3066 52.3197 68.384 52.2957 68.7834 52.0571C69.0281 51.9142 69.3917 51.7232 69.5883 51.6341C69.785 51.5506 70.1844 51.4134 70.4824 51.3299C70.7747 51.2526 71.6631 51.0914 72.4501 50.9782C73.2367 50.865 74.0477 50.7457 74.2505 50.7099C74.4589 50.6801 74.6258 50.6264 74.6258 50.5906C74.6258 50.5608 74.5245 50.5071 74.3995 50.4774C74.2802 50.4477 73.72 50.376 73.1654 50.3223C72.6048 50.2685 72.146 50.2209 72.146 50.2152C72.1419 50.2111 72.1321 50.1728 72.1187 50.1203L72.1101 50.0869L72.1052 50.069L72.0983 50.0422C72.0682 49.8931 72.0804 49.8693 72.253 49.8216C72.2746 49.8156 72.306 49.8071 72.345 49.7964L72.547 49.7421L72.5478 49.7418C72.6956 49.702 72.8747 49.6537 73.0461 49.607C73.3739 49.5235 73.9642 49.3566 74.3575 49.2433C74.7512 49.13 75.2162 48.9691 75.3831 48.8916C75.5619 48.8081 75.6873 48.7127 75.675 48.671C75.6632 48.6293 75.5859 48.6054 75.4845 48.6114C75.3892 48.6233 74.9597 48.7068 74.5367 48.8081C74.1071 48.9035 73.3324 49.0466 72.8076 49.13C72.2832 49.2076 71.8357 49.2612 71.806 49.2493C71.7824 49.2314 71.7645 49.142 71.7645 49.0406C71.7645 48.8856 71.7881 48.8558 71.9847 48.8081C72.0576 48.7908 72.1806 48.7594 72.3129 48.7257C72.4086 48.7013 72.5091 48.6756 72.5991 48.6531C72.8137 48.6054 73.4696 48.3967 74.0595 48.206C74.6499 48.0092 75.3058 47.7648 75.5203 47.6575C75.7288 47.5502 75.9018 47.4369 75.89 47.4012C75.8839 47.3714 75.7231 47.3356 75.5382 47.3236C75.3176 47.3117 74.8762 47.3714 74.3278 47.4906C73.8511 47.586 73.2367 47.7231 72.9566 47.7886C72.6765 47.8602 72.2233 47.9675 71.9432 48.0271C71.5556 48.1165 71.4245 48.1225 71.3948 48.0689C71.3708 48.0331 71.3471 47.9437 71.3471 47.8781C71.3471 47.7767 71.4839 47.7112 72.2832 47.4429C72.8019 47.27 73.5469 46.9957 73.9402 46.8348C74.3339 46.6738 74.7512 46.4592 74.8644 46.3638L75.0729 46.185C74.5188 46.179 74.0892 46.2327 73.7615 46.3042C73.4337 46.3698 72.9089 46.489 72.5991 46.5785C72.2889 46.6619 71.7343 46.8407 71.3769 46.9719C71.0133 47.1031 70.3277 47.3952 69.8387 47.6217C69.3558 47.8483 68.8791 48.0271 68.7834 48.0271C68.682 48.0271 68.6047 48.0033 68.6047 47.9675C68.6047 47.9377 68.6641 47.6873 68.7357 47.419C68.831 47.0673 68.873 46.7692 68.8668 46.3579C68.8668 45.9405 68.8253 45.6604 68.7178 45.2907C68.6165 44.933 68.533 44.7601 68.4259 44.6767ZM70.9775 51.8902L71.1086 51.6638C70.8997 51.6756 70.6493 51.7293 70.4229 51.7949C70.1905 51.8604 69.7849 52.0156 69.5109 52.1467C69.2426 52.2778 69.022 52.3909 69.022 52.3971C69.022 52.4032 68.9385 52.9455 68.8371 53.6014C68.7358 54.2573 68.6405 54.9368 68.6165 55.1094C68.5928 55.2824 68.5749 55.4197 68.5749 55.4258C68.5749 55.4258 68.7777 55.1632 69.0281 54.8415C69.2785 54.5195 69.6123 54.0724 69.7731 53.84C69.9401 53.6132 70.2442 53.1303 70.4588 52.7667C70.6733 52.4089 70.9058 52.0156 70.9775 51.8902ZM68.4854 53.0228C68.4854 52.9992 68.4674 52.9813 68.4377 52.9813C68.4137 52.9813 68.0741 53.1779 67.6804 53.4165C67.2871 53.6551 66.536 54.114 66.0112 54.436C65.4868 54.7581 64.7059 55.2348 64.2825 55.4913L64.1375 55.5797L64.1367 55.5801C63.7764 55.8003 63.5007 55.9689 63.4955 55.9742C63.4836 55.986 63.412 56.433 63.3346 56.9696C63.2512 57.5123 63.1201 58.347 63.0305 58.8176C62.947 59.2948 62.8815 59.7178 62.8815 59.7598C62.8815 59.8074 63.0366 59.748 63.2809 59.6169C63.5073 59.4976 63.9128 59.2651 64.1929 59.0982C64.473 58.9312 64.9384 58.621 65.2364 58.4125C65.5283 58.198 66.0413 57.8104 66.369 57.5421C66.6968 57.2799 67.1976 56.8324 67.4777 56.5523L67.9907 56.0454C68.1991 54.9368 68.3066 54.2691 68.3722 53.84L68.3889 53.7207L68.4174 53.5208V53.5191C68.4565 53.2447 68.4854 53.0407 68.4854 53.0228ZM62.7028 58.5078C62.7028 58.3824 62.7504 57.9415 62.8159 57.5242V57.5225C62.8758 57.1056 62.9409 56.6476 62.9588 56.5108L62.9654 56.4391C62.9747 56.3345 62.9816 56.2543 62.9768 56.2543C62.9731 56.2543 62.9149 56.2913 62.831 56.3447L62.8306 56.3451L62.7504 56.396L62.6726 56.4448L62.3746 56.6297C62.4463 57.518 62.4878 57.9476 62.5118 58.1621C62.5358 58.3706 62.5835 58.5852 62.625 58.6389C62.6848 58.7163 62.6966 58.6926 62.7028 58.5078ZM44.6565 57.3633C44.3525 57.1484 44.0842 56.9696 44.0663 56.9696C44.0424 56.9696 44.0842 57.0413 44.1438 57.1305C44.2094 57.2261 44.4598 57.6614 44.6983 58.1023C44.9367 58.5436 45.1931 58.9667 45.2587 59.0444C45.3302 59.1218 45.6104 59.3127 45.8906 59.4735C46.1708 59.6344 46.6 59.855 46.8445 59.9682C47.0889 60.0818 47.5479 60.2846 47.858 60.4157C48.168 60.5468 48.6807 60.7316 48.9907 60.833C49.3007 60.9344 49.879 61.0952 50.2724 61.1966C50.6661 61.2918 51.3216 61.429 51.7332 61.4946C52.1444 61.5601 52.7881 61.6436 53.1639 61.6794C53.5393 61.7091 54.2607 61.7389 54.7615 61.7389C55.2566 61.7389 55.6678 61.7271 55.6678 61.7091C55.6678 61.6912 55.4948 61.3097 55.2863 60.8566C55.0774 60.4096 54.8869 59.9743 54.8629 59.8909C54.8213 59.748 54.8034 59.7418 54.5408 59.7895C54.3918 59.8135 53.891 59.8611 53.4322 59.897C52.9729 59.9328 52.3052 59.9507 51.9417 59.9328C51.5842 59.9149 50.9938 59.855 50.6303 59.8013C50.2724 59.748 49.718 59.6405 49.408 59.5631C49.098 59.4853 48.5614 59.3184 48.2156 59.1995C47.8699 59.0802 47.2797 58.8356 46.9041 58.6568C46.5285 58.4781 45.992 58.2037 45.7117 58.0429C45.4315 57.8816 44.9546 57.5779 44.6565 57.3633ZM56.0733 59.9027C56.0493 59.5509 56.0432 59.5334 55.9064 59.5391C55.8229 59.5452 55.632 59.5688 55.4768 59.5989L55.191 59.6523C55.614 60.5525 55.8107 60.9999 55.9003 61.2324L56.0554 61.6497C56.0851 60.5883 56.0851 60.1115 56.0733 59.9027Z" fill="#5EFF9E"/>
<path d="M52.7167 14.6834C52.621 14.6953 52.3946 14.7191 52.2216 14.737L51.9117 14.7668C52.0489 15.2974 52.1084 15.5657 52.1324 15.7028L52.1801 15.9472C51.8104 16.0486 51.536 16.0963 51.3275 16.1202C51.095 16.15 50.9578 16.1976 50.9578 16.2454C50.9578 16.2811 51.0234 16.5136 51.1068 16.7521C51.1903 16.9846 51.2558 17.229 51.2558 17.2886C51.2558 17.3423 51.2856 17.39 51.3157 17.39C51.3454 17.39 51.4228 17.3661 51.4826 17.3363C51.536 17.3065 51.7863 17.2529 52.031 17.2231C52.347 17.1813 52.4899 17.1873 52.52 17.235C52.5436 17.2707 52.5974 17.5331 52.6389 17.8192C52.7106 18.2842 52.7285 18.3319 52.836 18.3081C52.9015 18.2902 53.092 18.2544 53.2533 18.2246C53.4202 18.1888 53.7182 18.165 53.9267 18.165C54.2487 18.165 54.2903 18.1531 54.2666 18.0636C54.2548 18.004 54.2011 17.7596 54.1474 17.5271C54.0997 17.2886 54.0578 17.0442 54.0578 16.9905C54.0578 16.8951 54.1474 16.8773 54.6958 16.8355L54.7727 16.8291C55.0944 16.8024 55.3456 16.7815 55.3456 16.7759C55.3517 16.77 55.28 16.5375 55.1908 16.2572L55.0239 15.7505C53.9686 15.7624 53.89 15.8205 53.7599 15.8205L53.6824 15.6313L53.3604 14.6774C53.0029 14.6655 52.8119 14.6714 52.7167 14.6834Z" fill="#5EFF9E"/>
<path fill-rule="evenodd" clip-rule="evenodd" d="M53.2113 22.6302C53.1218 22.66 52.9727 22.7196 52.8836 22.7733C52.794 22.821 52.6092 22.976 52.4781 23.1071C52.2574 23.3337 52.2456 23.3635 52.3111 23.5006C52.3531 23.584 52.4064 23.6496 52.4304 23.6496C52.4602 23.6496 52.5856 23.5602 52.7167 23.4529C52.8478 23.3396 53.0444 23.2085 53.1458 23.1489C53.2533 23.0952 53.4796 23.0356 53.6527 23.0117C53.8196 22.9819 53.9507 22.9461 53.9507 22.9223C53.9446 22.8925 53.9389 22.8091 53.9389 22.7256C53.9389 22.5885 53.921 22.5765 53.6527 22.5825C53.4976 22.5825 53.3009 22.6063 53.2113 22.6302ZM55.7987 23.8881C55.7332 23.9954 55.7869 24.067 56.2637 24.5916C56.5617 24.9076 56.8955 25.307 57.0091 25.4799C57.1223 25.6468 57.2237 25.8495 57.2294 25.927C57.2355 26.0045 57.2115 26.1059 57.1761 26.1535C57.1402 26.2013 57.003 26.2787 56.8658 26.3205C56.7229 26.3622 56.6215 26.4278 56.6215 26.4815C56.6215 26.5291 56.6753 26.6245 56.7408 26.6901C56.8064 26.7557 56.8776 26.8093 56.9016 26.8093C56.9314 26.8093 57.0747 26.7318 57.2294 26.6305C57.4203 26.5113 57.5453 26.3741 57.6113 26.2311C57.6886 26.0403 57.6948 25.9628 57.6349 25.766C57.5991 25.6349 57.4798 25.3964 57.3784 25.2295C57.2713 25.0685 56.9375 24.6691 56.6215 24.3472C56.3113 24.0252 56.0133 23.7629 55.9595 23.7689C55.9119 23.7689 55.8406 23.8226 55.7987 23.8881ZM54.2903 27.8169C54.1893 27.9003 54.1473 27.9897 54.1535 28.1329C54.1535 28.2401 54.219 28.4786 54.3025 28.6575C54.3859 28.8363 54.5467 29.0927 54.6599 29.2179C54.7735 29.349 54.9523 29.4861 55.0593 29.5338C55.1607 29.5756 55.3456 29.6113 55.4587 29.6113C55.5723 29.6113 55.7572 29.5756 55.8643 29.5338C55.9656 29.4861 56.1326 29.361 56.2278 29.2477C56.3235 29.1344 56.4664 28.8959 56.5438 28.7171C56.6057 28.5852 56.6863 28.4016 56.7534 28.2497L56.7539 28.2491L56.7587 28.2374L56.7604 28.234C56.7815 28.1859 56.8011 28.1412 56.8182 28.103C56.9057 27.9162 56.9293 27.803 56.8898 27.7632C56.8479 27.7215 56.7526 27.7334 56.5918 27.799C56.4603 27.8526 56.1863 27.9182 55.9835 27.948C55.745 27.9838 55.471 27.9778 55.2385 27.9421C55.0296 27.9063 54.7792 27.8407 54.684 27.793C54.5887 27.7394 54.4873 27.7036 54.4694 27.7036C54.4454 27.7036 54.368 27.7573 54.2903 27.8169ZM54.7731 28.6336C54.8924 28.8303 55.0414 29.0271 55.1013 29.0748C55.1607 29.1225 55.3219 29.1642 55.4587 29.1642C55.6297 29.1642 55.7588 29.1244 55.8463 29.045C55.918 28.9794 56.0312 28.8244 56.091 28.6992C56.1505 28.5799 56.2042 28.4727 56.2042 28.4607C56.2042 28.4547 55.918 28.4309 55.5662 28.4071C55.2084 28.3832 54.8391 28.3474 54.7316 28.3236L54.5468 28.2819L54.7731 28.6336Z" fill="#5EFF9E"/>
<path fill-rule="evenodd" clip-rule="evenodd" d="M70.9898 30.4159C70.9427 30.2831 70.8098 30.0773 70.6984 29.9488C70.5784 29.8245 70.377 29.6788 70.2441 29.6273C70.0641 29.5631 69.8498 29.5459 69.3784 29.5673C68.9927 29.5802 68.5384 29.6445 68.1999 29.7345L67.6513 29.8759L68.1098 30.1931C68.1356 30.1673 68.3713 30.1159 68.6327 30.0688C68.8941 30.0216 69.2713 29.9788 69.4684 29.9745C69.6656 29.9745 69.927 30.0002 70.0513 30.0302C70.1713 30.0645 70.3384 30.1673 70.4198 30.2702C70.5313 30.4073 70.5698 30.5145 70.5698 30.7459C70.5698 30.913 70.5227 31.1702 70.4627 31.3288C70.4027 31.483 70.2484 31.7873 69.8841 32.4088L70.2398 32.623C70.287 32.5587 70.4584 32.2673 70.6213 31.9673C70.8227 31.6116 70.9427 31.2988 70.9898 31.0416C71.0413 30.733 71.0413 30.6045 70.9855 30.4159H70.9898Z" fill="white"/>
<path fill-rule="evenodd" clip-rule="evenodd" d="M33.1216 50.7086C33.2844 50.3015 33.5973 49.5772 33.8116 49.0972C34.0302 48.6257 34.433 47.8458 34.6944 47.37C34.9644 46.8986 35.3673 46.2129 35.5944 45.8486C35.8259 45.4929 36.2458 44.8715 36.5244 44.4772C36.803 44.0829 37.313 43.4144 37.6558 42.9858C37.9944 42.5615 38.5301 41.9315 38.8473 41.5887C39.1644 41.2415 39.8201 40.5558 40.313 40.0673C40.8015 39.5787 41.4444 38.9873 41.7444 38.7516C42.0358 38.5201 42.5715 38.1301 42.9358 37.8944C43.2915 37.6544 43.8615 37.333 44.1872 37.1744C44.5172 37.0201 45.0401 36.8059 45.3486 36.6987C45.6572 36.5959 46.1972 36.4673 46.54 36.4073C46.8872 36.3473 47.2429 36.2959 47.3458 36.2873C47.44 36.283 47.62 36.343 47.7315 36.4201C47.8815 36.5144 47.9715 36.6473 48.0486 36.8573C48.1257 37.0759 48.1429 37.2687 48.1257 37.5987C48.1086 37.8473 48.0443 38.3016 47.9715 38.6101C47.9072 38.9273 47.7615 39.433 47.6629 39.7415C47.56 40.0587 47.3543 40.5944 47.1958 40.933C47.0415 41.2801 46.7586 41.8287 46.57 42.1544C46.3772 42.4844 46.0386 43.0072 45.8243 43.3158C45.6058 43.6329 45.2501 44.0958 45.0443 44.3572C44.8343 44.6186 44.0501 45.4672 43.2915 46.2301C42.5415 46.9929 41.6329 47.8758 41.2772 48.18C40.9258 48.4886 40.6387 48.7715 40.6387 48.8015C40.6387 48.8357 40.793 49.2172 40.9901 49.6543C41.183 50.0915 41.4615 50.8157 41.6115 51.2743C41.7615 51.7329 41.9501 52.4186 42.0272 52.7957C42.1087 53.1771 42.2287 53.8586 42.2844 54.3171C42.3572 54.8614 42.3915 55.5428 42.3872 56.2543C42.3872 56.9571 42.3529 57.6214 42.2844 58.0714C42.2287 58.4657 42.1172 59.1514 42.0358 59.5928C41.9544 60.0385 41.7915 60.7628 41.6715 61.2042C41.5601 61.6499 41.3244 62.4042 41.1572 62.8756C40.9944 63.3513 40.7287 64.0499 40.5658 64.427C40.403 64.8085 40.0344 65.5756 39.7387 66.1456C39.4473 66.7113 39.2073 67.2127 39.2073 67.2599C39.2073 67.3156 39.2801 67.3627 39.3701 67.3799C39.4644 67.3927 39.5672 67.3713 39.6101 67.3327C39.6444 67.2984 39.8972 66.8313 40.1587 66.3085C40.4201 65.7856 40.8144 64.9542 41.0244 64.4613C41.2387 63.9728 41.4187 63.587 41.4187 63.5956L41.7401 62.9699C41.7101 62.7385 41.7401 62.5542 41.8644 62.1342C41.9544 61.8342 42.0572 61.5299 42.0915 61.4485L42.1558 61.2985L42.4044 60.5528C42.3787 60.4328 42.4387 59.9099 42.5458 59.2714C42.6401 58.6799 42.7258 58.1271 42.7258 58.0371C42.7258 57.9471 42.7515 57.87 42.7858 57.87L42.8115 57.1242C42.8286 57.03 42.8458 56.7428 42.8458 56.4857C42.8458 56.2285 42.8586 56.0185 42.8801 56.0185L42.8158 55.3757L42.7387 54.5357C42.7044 54.0771 42.5844 53.3143 42.4901 52.8471C42.3958 52.38 42.2287 51.7286 42.1258 51.3986C42.0229 51.0686 41.8515 50.5757 41.7444 50.2972L41.7144 50.22L41.6801 50.1429C41.5729 49.8857 41.4444 49.5729 41.3629 49.3886C41.2601 49.17 41.1787 48.9515 41.1701 48.9129C41.1701 48.87 41.2729 48.7586 41.3972 48.6643C41.5215 48.5615 41.8644 48.27 42.1601 48.0086C42.4515 47.7472 43.1244 47.1043 43.6429 46.5772C44.1658 46.0543 44.8043 45.3472 45.0658 45.0215C45.3272 44.6915 45.6401 44.3315 45.7472 44.2029C45.9015 44.0401 45.9786 44.0015 46.0515 44.0358L46.2015 43.5901L46.3429 43.3415C46.4243 43.2044 46.5229 43.0844 46.5572 43.0844L46.8358 42.6901C46.8358 42.6601 47.0629 42.1887 47.3415 41.6272C47.6158 41.0658 47.9372 40.333 48.0529 39.9858C48.1643 39.6387 48.3143 39.0815 48.3915 38.7344C48.4686 38.3401 48.5243 37.8773 48.5286 37.483C48.5329 36.9173 48.5157 36.8273 48.3743 36.5187C48.2543 36.2701 48.1429 36.133 47.9672 36.0259C47.8129 35.9059 47.3415 35.8759 47.0929 35.8759C47.0158 35.8759 46.6815 35.9316 46.3472 36.0001C46.0086 36.0644 45.5201 36.193 45.2543 36.2744C44.9929 36.3559 44.4443 36.583 44.0329 36.7801C43.6215 36.973 42.9786 37.333 42.6015 37.5858C42.2244 37.8344 41.6587 38.2458 41.3501 38.4987C41.0415 38.7473 40.3858 39.3558 39.8887 39.8444C39.4001 40.3373 38.8473 40.9115 38.6673 41.1215C38.4873 41.3315 38.213 41.6401 38.0673 41.803C37.9173 41.9701 37.553 42.4029 37.2701 42.7629C36.983 43.1187 36.6744 43.5258 36.4344 43.8901L35.8987 44.4944C35.8816 44.5886 35.7744 44.7944 35.6673 44.9401C35.5601 45.0901 35.2859 45.5186 35.0587 45.8958C34.8273 46.2729 34.5144 46.8086 34.3687 47.0872C34.2959 47.2286 34.1973 47.4086 34.0987 47.5929C34.0002 47.7772 33.9016 47.9615 33.8287 48.0986C33.6787 48.3772 33.4002 48.9686 33.203 49.41C33.0102 49.8515 32.8045 50.3743 32.7487 50.5714C32.6716 50.8286 32.6287 50.9057 32.5945 50.8414L32.7916 51.7586C32.8087 51.5957 32.9587 51.1243 33.1216 50.7172V50.7086Z" fill="white"/>
<path fill-rule="evenodd" clip-rule="evenodd" d="M50.6886 71.9398C50.4572 72.047 50.1743 72.1884 50.0629 72.257C49.9514 72.3213 49.7329 72.4713 49.5872 72.5784C49.4372 72.6941 49.2186 72.9084 49.0943 73.0627C48.97 73.2127 48.7943 73.4741 48.7129 73.637C48.6315 73.8041 48.3443 74.4898 48.0872 75.1584C47.8257 75.8312 47.4143 76.8941 47.1743 77.5112C46.9343 78.1369 46.7158 78.7283 46.6858 78.8226C46.6258 78.9941 46.6129 79.0026 46.3043 78.9898C46.1243 78.9769 45.6743 78.9169 45.2972 78.8526C44.9201 78.7883 44.2344 78.6383 43.7758 78.5269C43.3172 78.4069 42.4772 78.1798 41.9115 78.0212C41.3501 77.8584 40.3558 77.5326 39.7044 77.3012C39.0615 77.0698 38.3287 76.7998 38.0844 76.7055C37.8401 76.6026 37.2744 76.3669 36.833 76.1698C36.3916 75.9684 35.5859 75.5869 35.0459 75.3127C34.5016 75.0384 33.6273 74.5541 33.0916 74.2455C32.5602 73.9284 31.6559 73.3712 31.0816 72.9855C30.5073 72.6084 30.0402 72.2698 30.0445 72.227C30.0445 72.1841 30.2459 71.7727 30.4859 71.3141C30.7302 70.8556 31.0816 70.1741 31.6173 69.107L31.6045 68.5713C31.6045 68.2799 31.5402 67.5513 31.4716 66.9599C31.3987 66.3685 31.3002 65.4342 31.253 64.8727C31.2059 64.3199 31.1459 63.0942 31.1288 62.1599C31.1159 61.2299 31.1245 60.1628 31.1545 59.7985C31.1802 59.4342 31.2145 59.1214 31.2316 59.0999L30.7302 59.1342C30.7559 59.1514 30.7602 59.3314 30.7388 59.6314C30.713 59.9314 30.6788 60.6385 30.6616 61.2128C30.6359 61.9156 30.6573 62.7342 30.7216 63.707C30.7773 64.4999 30.9145 65.9613 31.0259 66.9556C31.1973 68.4341 31.223 68.7899 31.1673 68.9656C31.133 69.0727 31.0302 69.3084 30.9445 69.5141L30.9273 69.5527L30.7559 69.9213C29.5388 69.8484 29.4445 69.857 29.1873 69.9727C29.0331 70.037 28.7716 70.2213 28.6045 70.3841C28.4373 70.5384 28.1973 70.7956 28.0816 70.9627C27.9616 71.1256 27.7431 71.4684 27.5888 71.7213C27.4259 71.9784 27.3016 72.197 27.3016 72.2141C27.3016 72.2313 27.2545 72.317 27.1902 72.4113C27.1302 72.5013 26.6759 73.2384 26.1959 74.057C25.7074 74.8712 25.2488 75.6384 25.1717 75.7541C25.0988 75.8741 24.9402 76.1698 24.8202 76.4141C24.636 76.7826 24.6017 76.9155 24.6102 77.1769C24.6231 77.4512 24.5931 77.5326 24.3702 77.9055C24.2288 78.1369 23.6845 79.0026 23.1617 79.8298C22.6388 80.6569 22.1503 81.4283 22.0688 81.5397C21.996 81.6512 21.9488 81.784 21.966 81.8269C21.9831 81.8612 21.9703 81.8869 21.936 81.8697C21.9017 81.8526 21.876 81.8526 21.876 81.8697C21.876 81.8869 21.9317 81.9597 21.996 82.0369C22.076 82.1255 22.1531 82.1297 22.2274 82.0497C22.2917 81.9855 22.5317 81.634 22.7631 81.274L22.866 81.1155L23.0117 80.884C23.2045 80.5798 23.4145 80.2455 23.556 80.0226C23.736 79.7355 24.0145 79.294 24.2117 78.9812L24.2888 78.8612C24.4902 78.5526 24.6831 78.2055 24.726 78.1026C24.786 77.9355 24.8074 77.9183 24.8888 77.9826C24.9359 78.0169 25.2445 78.3641 25.5702 78.7412C25.9002 79.1183 26.6117 79.8683 27.1688 80.4126C27.7216 80.9569 28.3731 81.5569 28.6173 81.754C28.8616 81.9512 29.2902 82.2855 29.5731 82.4955C29.8516 82.7097 30.3059 83.0312 30.5845 83.2154C30.863 83.4083 31.4245 83.7597 31.8359 84.004C32.2473 84.2569 32.8902 84.6083 33.2673 84.7969C33.6444 84.9897 34.2873 85.2726 34.6987 85.4354C35.1101 85.6026 35.7187 85.8211 36.0573 85.9369C36.3916 86.0483 37.0216 86.2368 37.4544 86.3483C37.8916 86.4597 38.5558 86.6054 38.933 86.674C39.3101 86.7383 40.0901 86.8454 40.6601 86.914C41.2301 86.9826 42.2715 87.0554 42.9572 87.094C43.6429 87.1283 44.3544 87.1497 44.5258 87.1283L44.8343 87.094C44.6543 87.5354 44.3501 88.2683 44.0372 89.0182C43.7201 89.764 43.4629 90.4068 43.4629 90.4497C43.4629 90.484 43.4972 90.574 43.5529 90.6425C43.5958 90.6982 43.6172 90.7282 43.6386 90.7282C43.6644 90.7282 43.6944 90.6939 43.7586 90.6125C43.8229 90.5268 43.9515 90.3125 44.0329 90.1368C44.1144 89.9568 44.3672 89.3697 44.5943 88.8254C44.8215 88.2811 45.0615 87.6854 45.1258 87.5011C45.1986 87.304 45.3058 87.1326 45.3701 87.094C45.4343 87.064 45.5415 87.034 45.6101 87.034C45.6786 87.034 45.8372 86.9826 45.9658 86.914C46.0986 86.8497 46.2743 86.6911 46.3643 86.5754C46.4586 86.4511 46.6558 86.014 46.8058 85.6026C46.96 85.1911 47.2729 84.2783 47.5043 83.5754C47.7357 82.8726 48.0486 81.8655 48.2029 81.3383C48.3572 80.8112 48.55 80.104 48.6272 79.7569C48.7172 79.3626 48.7686 78.9383 48.7686 78.6255C48.7686 78.3383 48.7343 77.9955 48.6786 77.8198C48.6143 77.6098 48.4857 77.4212 48.2629 77.1812C48.0829 76.9884 47.9329 76.8041 47.9329 76.7741C47.9329 76.7441 47.9972 76.5598 48.0829 76.3755C48.16 76.1826 48.4043 75.5698 48.6272 75.0169C48.8415 74.4641 49.1115 73.8555 49.2186 73.6755C49.3257 73.4955 49.5572 73.217 49.7372 73.0498C49.9814 72.8227 50.2814 72.6513 51.0143 72.3127C51.5329 72.0684 52.0471 71.8241 52.1414 71.7641L51.0057 71.7941C51.0057 71.7941 50.92 71.8541 50.7143 71.9527L50.6886 71.9398ZM47.26 78.4926C47.3329 78.3126 47.4443 78.0341 47.5172 77.8798C47.6243 77.6484 47.6543 77.6098 47.6886 77.6998C47.7143 77.7598 47.7315 77.9783 47.7357 78.1926C47.74 78.4926 47.7186 78.6041 47.6329 78.6769C47.5729 78.7326 47.44 78.8183 47.3329 78.8741C47.1915 78.9469 47.1358 78.9512 47.1358 78.8912C47.1358 78.8569 47.1915 78.6683 47.2558 78.4926H47.26ZM29.6245 70.8684C29.7445 70.6113 29.7488 70.607 29.993 70.6413C30.1302 70.667 30.2416 70.6884 30.2416 70.7013C30.2459 70.7141 30.1473 70.9498 30.023 71.2241C29.8902 71.4984 29.7616 71.747 29.7231 71.7855C29.6845 71.8241 29.6331 71.8027 29.5731 71.7255C29.5259 71.6613 29.4916 71.4984 29.4916 71.3698C29.4959 71.237 29.5516 71.0098 29.6245 70.8684ZM48.1643 78.1841C48.1557 77.9483 48.1429 77.7983 48.1257 77.7041C48.1857 77.7898 48.2243 77.8669 48.25 77.9441C48.2843 78.0512 48.3186 78.3426 48.3186 78.6212C48.3186 78.8998 48.2672 79.2941 48.1857 79.6626C48.1129 79.9883 47.9243 80.6869 47.77 81.214C47.6286 81.6983 47.3158 82.7097 47.0758 83.4383C46.8486 84.124 46.5358 85.0454 46.3815 85.4526C46.2229 85.894 46.0515 86.2454 46 86.314C45.9486 86.3826 45.8201 86.494 45.7515 86.5283C45.6701 86.5711 45.5801 86.6011 45.5843 86.6011C45.4386 86.6011 45.2715 86.6526 45.1386 86.7126C45.1172 86.7254 45.0958 86.7383 45.0743 86.7511C44.9972 86.6911 44.9029 86.6568 44.8086 86.6568C44.7915 86.6568 44.7743 86.6568 44.7572 86.6568L44.4529 86.6911C44.3286 86.704 43.6815 86.6911 42.9529 86.6526C42.3101 86.6183 41.2601 86.5411 40.6858 86.4768C40.1158 86.4126 39.3487 86.3054 38.9887 86.2411C38.5987 86.1683 37.9515 86.0268 37.5401 85.9197C37.0944 85.804 36.4816 85.6197 36.173 85.5169C35.8301 85.4011 35.2344 85.1869 34.8359 85.024C34.4202 84.8611 33.7987 84.5826 33.443 84.4026C33.0659 84.2097 32.4359 83.8669 32.0373 83.6226C31.6259 83.3783 31.073 83.0312 30.803 82.8469C30.5288 82.6669 30.083 82.3497 29.8088 82.1397C29.5302 81.934 29.1102 81.604 28.8659 81.4112C28.6345 81.2269 28.0002 80.6355 27.4474 80.0955C26.8816 79.5426 26.1745 78.7969 25.8745 78.4541C25.5874 78.1198 25.2274 77.7083 25.1459 77.6483C25.0902 77.6012 25.0388 77.5712 24.9874 77.5498C25.0131 77.4341 25.0259 77.3098 25.0174 77.1512C25.0088 76.9884 25.0174 76.9326 25.1845 76.5941C25.3045 76.3541 25.4588 76.0627 25.5102 75.9769C25.5788 75.8698 25.9302 75.2912 26.5431 74.2627C27.0402 73.4184 27.4774 72.707 27.5245 72.6427C27.6102 72.5141 27.6616 72.4284 27.6874 72.347C27.7174 72.287 27.8074 72.137 27.9316 71.9355C28.0816 71.6913 28.2959 71.357 28.4116 71.2027C28.5016 71.0741 28.7116 70.8427 28.8831 70.6841C29.0202 70.5513 29.2388 70.4013 29.3502 70.3541C29.3931 70.3327 29.4273 70.3198 29.4831 70.307C29.3845 70.3884 29.3073 70.5084 29.2302 70.6756C29.1231 70.8856 29.0631 71.1727 29.0545 71.3698C29.0545 71.5455 29.0973 71.8113 29.2216 71.9827C29.3245 72.1241 29.4488 72.2055 29.5902 72.227C29.5731 72.4584 29.6973 72.5955 30.8202 73.3327C31.3816 73.7098 32.2859 74.267 32.8516 74.6055C33.3916 74.9184 34.2787 75.4069 34.8273 75.6855C35.3587 75.9512 36.1516 76.3326 36.6358 76.5512C37.0816 76.7484 37.6516 76.9884 37.9087 77.0955C38.153 77.1898 38.8944 77.4598 39.5415 77.6955C40.2315 77.9441 41.2301 78.2698 41.7744 78.4241C42.3444 78.5869 43.1886 78.8141 43.6558 78.9341C44.1401 79.0541 44.8386 79.204 45.2029 79.2683C45.5758 79.3326 46.0472 79.3969 46.2658 79.4098C46.4843 79.4183 46.7072 79.4269 46.8829 79.2641C46.8915 79.2726 46.9043 79.2812 46.9129 79.2855C47.1486 79.4312 47.3929 79.3112 47.5129 79.2512C47.6458 79.1826 47.8129 79.0712 47.8986 78.9983C48.1429 78.7926 48.1557 78.4926 48.1515 78.1841H48.1643Z" fill="white"/>
<g opacity="0.88">
<path d="M21.4947 29.9144C21.5719 29.9144 21.6276 29.9444 21.6276 29.9958C21.6276 30.043 21.6747 30.0987 21.7305 30.103C21.8119 30.1201 21.8547 30.2358 21.9147 30.5958C21.9576 30.8529 22.0047 31.0801 22.0176 31.0972C22.0304 31.1144 22.1804 31.1101 22.3562 31.0929C22.5276 31.0758 22.8019 31.0587 23.2604 31.0672L23.3633 31.4529C23.419 31.6672 23.5047 32.1429 23.5604 32.5072C23.6419 33.0815 23.6419 33.2058 23.5733 33.3429C23.5304 33.4372 23.4404 33.5358 23.3804 33.5572C23.3204 33.5829 23.119 33.6172 22.939 33.6344C22.759 33.6515 22.5833 33.6901 22.5404 33.7072C22.4847 33.7372 22.4804 33.8401 22.5233 34.1058C22.5576 34.3029 22.5833 34.5515 22.5833 34.6543C22.5833 34.7615 22.5404 34.8943 22.4933 34.9415C22.4462 34.9886 22.2919 35.0615 22.1462 35.0958C22.009 35.1386 21.5505 35.2072 21.1262 35.2629C20.5947 35.3272 20.3205 35.3401 20.2305 35.2972C20.1662 35.2672 20.0762 35.1729 20.0333 35.0872C19.9905 35.0058 19.939 34.7829 19.8662 34.2343L19.3005 34.2772C18.7819 34.3115 18.7219 34.3072 18.5976 34.1958C18.5248 34.1315 18.4562 34.0029 18.4348 33.9086C18.4305 33.8701 18.4133 33.7629 18.3876 33.6258C18.3576 33.4501 18.3191 33.2229 18.2848 32.9872C18.2205 32.5715 18.1648 32.1901 18.1648 32.1387C18.1648 32.0872 18.2291 31.9844 18.3148 31.8987C18.4219 31.7915 18.5248 31.7487 18.7133 31.7444C18.9276 31.7401 18.9448 31.7315 18.8205 31.6887C18.6876 31.6458 18.7005 31.6415 18.9105 31.6329C19.0433 31.6287 19.2019 31.6072 19.2662 31.5901C19.3776 31.5601 19.3862 31.5172 19.3562 30.253L19.549 30.1972C19.6562 30.163 20.0248 30.0944 20.3719 30.0472C20.719 29.9915 21.0833 29.9444 21.1776 29.9358C21.2719 29.923 21.4176 29.9058 21.4862 29.9015H21.4905L21.4947 29.9144Z" fill="#5EFF9E"/>
<path fill-rule="evenodd" clip-rule="evenodd" d="M27.2889 24.4287C26.9803 24.4587 26.3889 24.5187 25.9775 24.5701C25.5661 24.6172 24.8975 24.7115 24.4861 24.7801C24.0747 24.8444 22.7075 25.0715 21.4475 25.2858C20.1833 25.4958 18.829 25.7229 18.439 25.7915C18.0447 25.8558 16.9047 26.0615 15.9062 26.2458C14.9033 26.4258 13.6305 26.6615 13.0733 26.7772C12.9448 26.8072 12.8076 26.8329 12.679 26.8629C12.259 26.9529 11.8819 27.0344 11.7619 27.0644L11.4619 27.1372C11.4748 27.9258 11.5348 28.5558 11.6033 29.0443C11.6762 29.5372 11.8948 30.9043 12.0876 32.0829C12.2805 33.2614 12.589 35.0743 12.7733 36.1071C12.9576 37.14 13.2276 38.6057 13.3733 39.3557C13.5276 40.1057 13.6733 40.7871 13.7033 40.8642C13.7505 40.9885 13.7933 40.9971 14.3333 40.9971C14.6547 40.9971 15.1433 40.9671 15.4262 40.9371C15.7047 40.9028 16.5104 40.7957 17.2133 40.6928C17.9161 40.5985 19.3947 40.3628 20.4918 40.1871C21.589 40.0071 23.4532 39.6857 24.6361 39.4714C25.8146 39.2571 27.2118 38.9957 27.7346 38.88C28.2575 38.7685 28.956 38.6057 29.286 38.5243C29.616 38.4343 29.9717 38.3228 30.0789 38.2671C30.1989 38.2071 30.2932 38.1043 30.3103 38.0185C30.3275 37.9371 30.2975 37.4528 30.246 36.9471C30.186 36.4414 30.0789 35.5543 29.9975 34.98C29.916 34.4057 29.6889 32.9572 29.4918 31.7615C29.2946 30.5615 29.0546 29.1558 28.956 28.6329C28.8618 28.1101 28.7246 27.4115 28.656 27.0815C28.5918 26.7515 28.4589 26.1644 28.3646 25.7701C28.2703 25.3758 28.1375 24.9044 28.0775 24.7287C28.0132 24.5487 27.9403 24.4029 27.9103 24.3944C27.8846 24.3901 27.6961 24.4029 27.4603 24.4244C27.4089 24.4287 27.3532 24.4329 27.2932 24.4372L27.2889 24.4287ZM27.7946 25.2472L27.7046 24.8401C27.3103 24.8529 27.1218 24.8701 27.0189 24.8829C26.9718 24.8872 26.8175 24.9087 26.6161 24.9344C26.4232 24.9601 26.1875 24.9901 25.9475 25.0244C25.4589 25.0887 23.8304 25.3458 22.339 25.5901C20.8475 25.8344 18.4219 26.2458 16.9433 26.5072C15.469 26.7686 13.729 27.0858 13.0862 27.2229C12.4348 27.3558 11.8948 27.4629 11.8776 27.4629C11.8605 27.4629 11.8648 27.5872 11.8819 27.7501C11.8948 27.8486 11.9505 28.2258 12.0233 28.7101C12.0619 28.9758 12.1091 29.2758 12.1519 29.58C12.2848 30.4329 12.5976 32.3872 12.8633 33.93C13.1248 35.4728 13.4462 37.3243 13.579 38.0443C13.7162 38.7642 13.8662 39.5828 13.9133 39.8614C13.9605 40.1399 14.0162 40.4142 14.0247 40.4742C14.0505 40.5514 14.1147 40.5771 14.3119 40.5771C14.449 40.5771 15.0319 40.5214 15.6062 40.4571C16.1804 40.3928 17.269 40.2428 18.019 40.1228C18.7776 40.0114 20.0333 39.8057 20.8218 39.6771C21.6104 39.5442 22.639 39.3728 23.119 39.2914C23.5947 39.21 24.8289 38.9828 25.8618 38.7857C26.8946 38.5928 28.1589 38.34 28.6646 38.2243C29.1703 38.1128 29.6503 38.0057 29.7275 37.9843C29.8218 37.9585 29.8603 37.9114 29.8603 37.7914C29.8603 37.6971 29.8303 37.3157 29.8003 36.9385C29.766 36.5614 29.6589 35.6871 29.556 35.0014C29.4618 34.3157 29.2689 33.0943 29.1403 32.2886C29.0075 31.4829 28.7546 30.0215 28.5746 29.04C28.3946 28.0543 28.1675 26.8886 28.0689 26.4472C28.0132 26.1901 27.9489 25.8944 27.8975 25.6544C27.8589 25.4829 27.8289 25.3372 27.8075 25.2429L27.7946 25.2472Z" fill="#5EFF9E"/>
<path fill-rule="evenodd" clip-rule="evenodd" d="M20.4919 27.2101C20.3805 27.223 20.0676 27.2744 19.8062 27.3216C19.5447 27.3773 19.1247 27.4887 18.8805 27.5787C18.6362 27.6687 18.2505 27.853 18.0148 27.9858C17.7833 28.1187 17.3848 28.4273 17.1276 28.6673C16.8705 28.9115 16.5448 29.2587 16.4076 29.4344C16.2705 29.6144 16.0776 29.9101 15.9791 30.0901C15.8762 30.2701 15.7305 30.5915 15.6448 30.8058C15.5634 31.0201 15.4476 31.4615 15.3962 31.7915C15.3191 32.2286 15.3019 32.5501 15.3234 32.9829C15.3405 33.3129 15.4134 33.7929 15.4776 34.0543C15.5505 34.3158 15.7176 34.7701 15.8591 35.0658C16.0005 35.3658 16.2233 35.7515 16.3605 35.9315C16.4933 36.1115 16.7762 36.4329 16.9991 36.6472C17.2133 36.8615 17.5905 37.1658 17.8262 37.32C18.0576 37.4743 18.469 37.6843 18.7305 37.7872C18.9919 37.89 19.4633 38.0272 19.7719 38.0915C20.2262 38.1857 20.4747 38.2029 21.0233 38.1729C21.409 38.1557 21.919 38.0915 22.1847 38.0186C22.4461 37.9543 22.9304 37.7615 23.2561 37.6029C23.5861 37.44 24.049 37.1443 24.2804 36.9472C24.5204 36.75 24.8761 36.3815 25.0776 36.1286C25.279 35.8715 25.5404 35.46 25.669 35.2158C25.789 34.9715 25.9475 34.5943 26.0161 34.3801C26.089 34.1658 26.1704 33.8186 26.2133 33.6044C26.2604 33.3558 26.2733 32.9358 26.2475 32.4429C26.2304 32.0144 26.1704 31.5087 26.1147 31.3115C26.059 31.1144 25.8961 30.6987 25.7504 30.3858C25.6004 30.0772 25.3647 29.6572 25.2275 29.4601C25.0861 29.263 24.7861 28.9287 24.559 28.723C24.3318 28.5087 24.0104 28.2515 23.8476 28.1487C23.6804 28.0415 23.4061 27.8873 23.2347 27.7973C23.0676 27.7158 22.729 27.5787 22.489 27.4973C22.2576 27.4201 21.889 27.3301 21.6704 27.2958C21.4562 27.2616 21.1476 27.2187 20.9847 27.2058C20.8176 27.193 20.5904 27.193 20.479 27.2058L20.4919 27.2101ZM19.1505 27.9215C19.3176 27.8658 19.6219 27.7844 19.8362 27.7373C20.1062 27.6773 20.4405 27.6601 20.9076 27.6773C21.3319 27.6901 21.7733 27.7501 22.069 27.8273C22.3304 27.8915 22.7376 28.0373 22.9647 28.1487C23.1961 28.2558 23.5947 28.5044 23.8604 28.7015C24.1218 28.8987 24.4733 29.2244 24.6361 29.4215C24.8033 29.6187 25.0218 29.9272 25.1247 30.103C25.2318 30.2744 25.4033 30.6215 25.5061 30.8658C25.6175 31.1444 25.7204 31.5558 25.7804 31.9672C25.8618 32.5201 25.8704 32.7258 25.8104 33.2615C25.7675 33.6429 25.6733 34.0843 25.5833 34.3329C25.5018 34.5729 25.3347 34.9415 25.2147 35.1558C25.1033 35.3701 24.9233 35.6486 24.8204 35.7815C24.7176 35.9143 24.529 36.1286 24.3961 36.2572C24.2633 36.3943 24.0404 36.5958 23.8904 36.7158C23.7404 36.8358 23.419 37.0457 23.1747 37.1743C22.9261 37.3072 22.4633 37.4829 22.1333 37.5729C21.6576 37.6972 21.3962 37.7357 20.8219 37.7357C20.269 37.74 19.9862 37.71 19.5705 37.6029C19.279 37.53 18.8076 37.3586 18.529 37.2215C18.2376 37.0715 17.8433 36.81 17.5819 36.5829C17.3376 36.3686 16.9905 36.0086 16.8148 35.7772C16.6348 35.5458 16.3862 35.1343 16.2533 34.8515C16.1205 34.5729 15.9619 34.1186 15.8891 33.8401C15.8076 33.4758 15.7691 33.1415 15.7691 32.6786C15.7691 32.2715 15.8119 31.8601 15.8719 31.6072C15.9319 31.3758 16.0562 30.9858 16.1633 30.7415C16.2662 30.4972 16.4719 30.1115 16.6305 29.8758C16.7805 29.6444 17.0891 29.2801 17.3162 29.0658C17.5433 28.8515 17.8476 28.5944 17.9976 28.4915C18.1476 28.3887 18.4048 28.243 18.5633 28.1615C18.7305 28.0801 19.0005 27.9644 19.159 27.913L19.1505 27.9215Z" fill="#5EFF9E"/>
</g>
<g opacity="0.88">
<path d="M74.0584 19.0587C74.4527 18.9944 75.0312 18.9044 75.3398 18.8573C75.6484 18.8144 75.9655 18.7758 76.0426 18.7673C76.1541 18.763 76.1755 18.793 76.1755 19.2087L75.3269 19.3158C74.8555 19.3758 74.1398 19.4787 73.7284 19.543C73.317 19.6072 72.9784 19.6501 72.9698 19.6458C72.957 19.633 72.9741 19.5387 72.9998 19.4315C73.0298 19.2944 73.0812 19.2344 73.1927 19.213C73.2312 19.2087 73.3341 19.1872 73.4755 19.1658C73.6384 19.1358 73.8484 19.1015 74.0584 19.063V19.0587Z" fill="#5EFF9E"/>
<path d="M73.2528 20.8158L74.307 20.6316C74.8899 20.5287 75.4213 20.4387 75.4813 20.4344C75.5756 20.4301 75.6013 20.4687 75.6013 20.6144C75.6056 20.7173 75.5713 20.8158 75.5156 20.8458C75.4685 20.8716 75.0099 20.9658 74.5042 21.0473C73.9985 21.1287 73.5099 21.2015 73.4199 21.2015C73.2699 21.2015 73.2528 21.1758 73.2528 20.8158Z" fill="#5EFF9E"/>
<path d="M74.5384 22.243C74.8384 22.1873 75.3956 22.123 75.7899 22.1016C76.1841 22.0759 76.5356 22.0673 76.5656 22.0716C76.5956 22.0759 76.6298 22.1659 76.6427 22.2687C76.6556 22.4401 76.6384 22.4616 76.4627 22.4873C76.3556 22.5001 75.9956 22.5301 75.6699 22.5473C75.3399 22.5644 74.8599 22.6201 74.5984 22.6587C74.337 22.7059 74.0027 22.7701 73.8527 22.813C73.6042 22.8773 73.5784 22.873 73.4756 22.7401C73.4156 22.6673 73.3684 22.5859 73.3727 22.5601C73.3727 22.5301 73.5142 22.4701 73.6899 22.423C73.857 22.3759 74.2384 22.2901 74.5384 22.2387V22.243Z" fill="#5EFF9E"/>
<path fill-rule="evenodd" clip-rule="evenodd" d="M85.5954 14.563C85.2183 14.6058 84.6526 14.683 84.344 14.7301C84.2412 14.7473 84.0997 14.7687 83.9326 14.7944C83.5854 14.8501 83.1397 14.9187 82.7712 14.9744C82.2183 15.0644 80.654 15.3215 79.3126 15.5401C77.9712 15.7673 76.5569 16.0115 76.1841 16.0758C75.8069 16.1401 75.1984 16.2473 74.8427 16.3158C74.4827 16.3758 73.7027 16.5258 73.1155 16.6372C72.5284 16.7487 71.7184 16.9158 71.3284 17.0015C70.9341 17.083 70.5099 17.1815 70.3856 17.2115L70.167 17.2715C70.167 17.803 70.2227 18.3644 70.287 18.8529C70.3513 19.3458 70.4584 20.1001 70.527 20.5244C70.557 20.7086 70.6084 21.0172 70.6684 21.3815V21.3944C70.7456 21.8572 70.8356 22.4101 70.917 22.9029C71.067 23.79 71.3156 25.2643 71.4827 26.1814C71.6456 27.0986 71.8898 28.4186 72.0184 29.1043C72.1513 29.7943 72.297 30.5057 72.3484 30.6857C72.3955 30.8657 72.4855 31.05 72.5413 31.0928C72.5927 31.1357 72.7555 31.1657 72.8927 31.1657C73.0298 31.1657 73.6255 31.11 74.2041 31.0457C74.787 30.9814 75.8969 30.8314 76.6641 30.7114C77.4312 30.6 78.7941 30.3857 79.6769 30.2357C80.5598 30.0857 82.1026 29.82 83.1055 29.64C84.1083 29.46 85.4626 29.2029 86.1183 29.0743C86.774 28.9371 87.6226 28.7529 87.9954 28.6586C88.3725 28.5643 88.7454 28.4314 88.8311 28.3714C88.9554 28.2814 88.9811 28.2086 88.9983 27.8829C89.0111 27.6729 88.9468 26.94 88.8654 26.25C88.784 25.5643 88.5911 24.2229 88.4411 23.2672C88.2911 22.3201 88.064 20.9186 87.9268 20.1686C87.794 19.4187 87.5797 18.2744 87.4554 17.6358C87.3226 16.9972 87.134 16.1101 87.0183 15.6687C86.9068 15.2273 86.7783 14.7858 86.7311 14.683C86.6669 14.5458 86.6069 14.503 86.4697 14.4987C86.3669 14.4944 85.9811 14.5244 85.604 14.5716L85.5954 14.563ZM86.4226 15.0815C86.3754 14.9701 86.3283 14.9444 86.1183 14.9487C85.9726 14.953 85.5911 14.9958 85.2654 15.0387C84.9397 15.0858 84.1469 15.2058 83.5083 15.3087C82.8697 15.4115 81.1555 15.6901 79.6941 15.9344C78.2326 16.1744 76.2055 16.5258 75.1941 16.7015C74.1827 16.8815 72.7427 17.1472 72.0056 17.2972C71.2684 17.4472 70.6341 17.5672 70.6041 17.5672C70.5698 17.5672 70.5613 17.7001 70.5913 17.9358C70.6127 18.0944 70.6984 18.6558 70.8013 19.3244V19.3329L70.857 19.7058L70.9041 20.0101C71.0456 20.9444 71.3713 22.9029 71.6198 24.36C71.8641 25.8215 72.1984 27.7114 72.3613 28.5643C72.5241 29.4171 72.6827 30.2571 72.717 30.4286C72.747 30.6 72.807 30.7371 72.8541 30.7371C72.8884 30.7371 73.3855 30.6814 73.9384 30.6171C74.4912 30.5571 75.2327 30.4628 75.5798 30.4071C75.9269 30.36 76.5698 30.2657 77.0112 30.1928C77.4526 30.1286 78.5241 29.9528 79.3983 29.8114C80.2683 29.67 81.4512 29.4643 82.0212 29.3657C82.5955 29.2629 83.3326 29.1343 83.6626 29.0657C83.9926 29.0057 84.5712 28.8986 84.944 28.8257C85.3211 28.7529 86.0883 28.6071 86.6411 28.4914C87.194 28.3714 87.8583 28.2214 88.1026 28.1614C88.3468 28.0971 88.5611 28.0286 88.5783 28.0114C88.5954 27.9943 88.574 27.6557 88.5311 27.2529C88.4883 26.8543 88.4111 26.2157 88.364 25.8386C88.3168 25.4786 88.2011 24.6986 88.1068 24.0729L88.094 23.9915C87.9911 23.3529 87.8197 22.2815 87.7083 21.6086C87.5968 20.9358 87.3783 19.7315 87.2326 18.9258C87.0826 18.1201 86.8554 16.9544 86.7183 16.333C86.5854 15.7115 86.4568 15.1415 86.4268 15.0687L86.4226 15.0815Z" fill="#5EFF9E"/>
<path fill-rule="evenodd" clip-rule="evenodd" d="M79.844 17.713C79.5826 17.7859 79.3083 17.8758 79.2354 17.9144C79.124 17.9744 79.1026 18.0216 79.1283 18.1844C79.1454 18.2873 79.2526 18.5787 79.3726 18.823C79.4926 19.0673 79.6983 19.4315 79.8397 19.6287C79.9812 19.8258 80.4526 20.3187 80.8811 20.7301C81.5068 21.3215 81.7083 21.553 81.8454 21.8315C81.9826 22.1187 82.0168 22.2687 82.0168 22.5772C82.0168 22.8087 81.9697 23.1087 81.8968 23.3229C81.824 23.5201 81.6997 23.7944 81.6097 23.9315C81.5197 24.0729 81.4083 24.1887 81.3611 24.1887C81.314 24.1887 80.8554 24.1329 80.3454 24.0772C79.8097 24.0044 79.2954 23.9744 79.124 24.0001C78.914 24.0258 78.7254 24.1072 78.4726 24.2744C78.2154 24.4544 78.0655 24.6086 77.9369 24.8486C77.7826 25.1272 77.7526 25.2472 77.7355 25.7144C77.7183 26.1515 77.7355 26.3229 77.8426 26.6401C77.9155 26.8543 78.0612 27.1758 78.1726 27.3558C78.2797 27.5358 78.494 27.7972 78.644 27.9386C78.794 28.0758 78.9654 28.1872 79.0254 28.1872C79.0769 28.1872 79.2869 28.08 79.484 27.9429C79.6812 27.8058 79.9126 27.6258 80.0026 27.5358L80.1654 27.3815C79.574 26.7601 79.4626 26.5929 79.4154 26.3958C79.3812 26.2458 79.364 26.0872 79.3812 26.0401C79.3983 25.9929 79.4583 25.9029 79.514 25.8429C79.5654 25.7829 79.6769 25.7358 79.7583 25.7401C79.8397 25.7401 80.1354 25.8901 80.414 26.0701C80.6926 26.2543 81.0569 26.4472 81.2197 26.4986C81.3869 26.5458 81.7554 26.6058 82.0554 26.6186C82.4411 26.6443 82.6983 26.6186 82.9768 26.5458C83.1911 26.4901 83.5383 26.3615 83.7525 26.2586C84.044 26.1215 84.284 25.9286 84.7083 25.5086C85.0854 25.1272 85.3597 24.7886 85.5268 24.4886C85.6682 24.2444 85.8611 23.8587 85.9554 23.6229C86.0454 23.3915 86.1868 22.9629 86.2597 22.6672C86.3539 22.2858 86.3968 21.9558 86.3968 21.5358C86.3968 21.1158 86.3625 20.8244 86.2725 20.5244C86.1997 20.293 86.054 19.9758 85.934 19.8087C85.8097 19.6458 85.6168 19.4401 85.4968 19.3501C85.3725 19.2687 85.1582 19.1487 85.0082 19.1016C84.8582 19.0458 84.5625 19.0073 84.3397 19.0073C84.1168 19.0073 83.834 19.0501 83.714 19.0973C83.5897 19.153 83.384 19.2644 83.2554 19.3544C83.1311 19.4444 82.9511 19.6158 82.8568 19.7401C82.7626 19.8601 82.6726 19.9587 82.6554 19.9587C82.6383 19.9587 82.4711 19.8773 82.2868 19.7787C82.0983 19.6758 81.7683 19.4573 81.5669 19.2858C81.3569 19.1187 81.1126 18.8573 81.0311 18.7073C80.9411 18.5658 80.7869 18.253 80.6926 18.0216C80.5897 17.7944 80.474 17.5973 80.4226 17.593C80.3754 17.5887 80.1183 17.6401 79.8569 17.7173L79.844 17.713ZM79.5869 18.2658C79.5869 18.2658 79.7112 18.2016 79.844 18.1544C79.9726 18.0987 80.0926 18.0516 80.114 18.0516C80.1311 18.0473 80.2511 18.2487 80.384 18.5058C80.5169 18.7544 80.7697 19.1273 80.9497 19.3158C81.1297 19.513 81.4511 19.7873 81.6654 19.9244C81.8797 20.0658 82.2097 20.2501 82.7368 20.4901L82.934 20.2758C83.0026 20.1944 83.1097 20.0787 83.2083 19.9715C83.2554 19.9201 83.2983 19.873 83.3325 19.8344C83.4868 19.6673 83.6368 19.5858 83.8983 19.5087C84.1554 19.4358 84.3397 19.4187 84.554 19.4487C84.7211 19.4744 84.9482 19.5387 85.0597 19.5987C85.1711 19.6544 85.3468 19.7958 85.4411 19.903C85.5354 20.0144 85.6554 20.203 85.7154 20.3144C85.7711 20.4258 85.8354 20.6058 85.8568 20.7001C85.8825 20.7944 85.9297 21.0301 85.9597 21.2058C85.9897 21.4072 85.9897 21.6772 85.9554 21.9215C85.9211 22.1358 85.8225 22.5472 85.7368 22.8472C85.6511 23.1387 85.4968 23.5672 85.3897 23.8029C85.2825 24.0344 85.0725 24.3815 84.9225 24.5786C84.7725 24.7758 84.5068 25.0929 84.3225 25.2772C84.1383 25.4701 83.8811 25.6886 83.7483 25.7701C83.6154 25.8515 83.3025 25.9886 83.0497 26.0743C82.6511 26.2072 82.514 26.2286 82.0768 26.2072C81.7597 26.1901 81.4469 26.1301 81.2411 26.0529C81.0611 25.9801 80.7526 25.8044 80.5554 25.6544C80.3583 25.5044 80.1011 25.3544 79.9897 25.3201C79.8783 25.2772 79.7026 25.2729 79.604 25.2944C79.5012 25.3201 79.3297 25.4315 79.2097 25.5515C79.0469 25.7144 78.9783 25.8429 78.9483 26.0401C78.914 26.2501 78.9312 26.3743 79.034 26.6058C79.1069 26.7686 79.2312 26.9915 79.3126 27.0943C79.3897 27.2015 79.454 27.3343 79.454 27.3815C79.454 27.4286 79.394 27.5143 79.3212 27.5615C79.244 27.6086 79.124 27.6515 79.0512 27.6515C78.9569 27.6515 78.8412 27.5486 78.674 27.3043C78.5369 27.1201 78.374 26.8158 78.3097 26.6358C78.2454 26.4558 78.1726 26.1472 78.1554 25.9501C78.1383 25.7529 78.1554 25.4786 78.1897 25.3372C78.224 25.2001 78.3569 24.9729 78.4812 24.8358C78.6012 24.7029 78.7897 24.5572 78.8969 24.5058C78.9997 24.4629 79.2312 24.4286 79.4026 24.4286C79.574 24.4286 80.0754 24.4715 80.5169 24.5315C80.9583 24.5872 81.3869 24.6129 81.4726 24.5915C81.554 24.5744 81.6997 24.4844 81.794 24.3901C81.8883 24.3001 82.064 24.0215 82.1754 23.7772C82.3554 23.4129 82.394 23.2458 82.4154 22.8515C82.4326 22.5901 82.4111 22.2258 82.3683 22.0458C82.334 21.8658 82.2311 21.6087 82.1497 21.4801C82.0597 21.3472 81.5754 20.8244 81.0654 20.3187C80.2126 19.4701 80.1054 19.3458 79.8483 18.8401C79.694 18.5401 79.574 18.2873 79.5783 18.2744L79.5869 18.2658Z" fill="#5EFF9E"/>
<path fill-rule="evenodd" clip-rule="evenodd" d="M74.8642 26.7601C74.667 26.8629 74.5599 26.9701 74.457 27.1672C74.3842 27.3172 74.3242 27.5315 74.3242 27.6429C74.3242 27.7543 74.3842 27.9686 74.4613 28.1143C74.5342 28.2558 74.6713 28.4229 74.7699 28.4829C74.8728 28.5429 75.0442 28.6072 75.1556 28.6329C75.2799 28.6586 75.4727 28.6372 75.627 28.59C75.777 28.5429 75.9613 28.4229 76.0642 28.3158C76.1542 28.2086 76.2613 28.0072 76.3042 27.87C76.3513 27.6729 76.3513 27.5615 76.3042 27.3943C76.2613 27.27 76.167 27.0943 76.0942 27.0086C76.017 26.9143 75.8542 26.7943 75.7342 26.7386C75.6099 26.6786 75.4256 26.6315 75.3185 26.6315C75.2156 26.6315 75.0099 26.6915 74.8599 26.7643L74.8642 26.7601ZM74.7527 27.6472C74.757 27.51 74.817 27.39 74.967 27.24C75.1513 27.0472 75.1985 27.0301 75.3913 27.0686C75.5113 27.0858 75.6699 27.1629 75.747 27.24C75.8413 27.3343 75.8799 27.4372 75.8799 27.6215C75.8799 27.8058 75.837 27.9258 75.7385 28.0372C75.627 28.17 75.5413 28.2043 75.357 28.2043C75.1727 28.2043 75.0699 28.1615 74.9285 28.0243C74.7913 27.8872 74.7485 27.7972 74.757 27.6429L74.7527 27.6472Z" fill="#5EFF9E"/>
</g>
<g opacity="0.88">
<path d="M28.626 51.09C28.6003 50.1129 28.6089 49.7529 28.6603 49.6586C28.7032 49.5814 28.7674 49.5214 28.8017 49.5214C28.836 49.5171 28.9089 49.5643 28.9646 49.6243C29.0203 49.6843 29.1832 50.1471 29.3332 50.6571C29.4874 51.1628 29.6331 51.6771 29.7146 51.9986L30.186 51.9814C30.4431 51.9771 30.7174 51.9557 30.786 51.9386C30.9103 51.9128 30.9231 51.9343 30.9231 52.3543L30.3274 52.4314C30.0017 52.4657 29.6717 52.5043 29.5946 52.5043C29.4832 52.5043 29.4446 52.44 29.2946 51.9686C29.2046 51.6771 29.1232 51.4328 29.106 51.4328C29.0889 51.4328 29.0932 52.1614 29.166 54.6685L28.956 54.6214C28.8446 54.5957 28.7417 54.5742 28.7374 54.57C28.7332 54.57 28.6946 54.4028 28.6603 54.2057C28.626 54.0085 28.5103 53.5671 28.4117 53.2243C28.3174 52.8771 28.2017 52.5385 28.1632 52.4657C28.1032 52.3414 28.0989 52.3543 28.086 52.5557C28.0817 52.6757 28.0517 52.7871 28.0217 52.8043C27.9917 52.8214 27.5932 52.8685 27.1389 52.9114C26.6803 52.9543 26.2518 53.0014 26.1746 53.0185C26.0632 53.0357 26.0418 53.0185 26.0418 52.8343C26.0418 52.65 26.0589 52.6243 26.2346 52.5943C26.3075 52.5857 26.4917 52.5643 26.6975 52.5385C26.7489 52.5343 26.8046 52.5257 26.856 52.5171C26.8946 52.5128 26.9289 52.5085 26.9675 52.5043C27.2589 52.47 27.5417 52.4228 27.5803 52.3971C27.6446 52.3628 27.6446 52.2086 27.5975 51.5528C27.5632 51.1114 27.5332 50.6786 27.5332 50.5886C27.5332 50.4814 27.5675 50.4086 27.636 50.3914C27.696 50.3743 27.786 50.3743 27.8332 50.3871C27.8889 50.4043 28.0732 50.8286 28.2789 51.4071C28.476 51.9514 28.6432 52.3928 28.6474 52.3928C28.6603 52.3928 28.6474 51.81 28.6303 51.0986L28.626 51.09Z" fill="#5EFF9E"/>
<path d="M21.9532 50.0528C21.9189 50.0528 22.0003 50.0099 22.1332 49.9628C22.2746 49.9157 22.5703 49.8857 22.8489 49.8985C23.2474 49.9114 23.3846 49.9414 23.6717 50.0871C23.8646 50.1899 24.0103 50.2842 24.0103 50.3142C24.0103 50.3399 24.0274 50.3442 24.0531 50.3271C24.0831 50.3142 24.1603 50.3699 24.2331 50.4471C24.3103 50.5285 24.426 50.7042 24.4903 50.8328C24.5546 50.9657 24.6274 51.2356 24.6446 51.4456C24.6703 51.6856 24.6446 51.9685 24.5803 52.2642C24.5246 52.5085 24.3017 53.1513 24.0789 53.6956C23.8517 54.2399 23.4789 55.1613 23.2389 55.7527C22.9989 56.3442 22.7632 56.9227 22.7032 57.0342C22.6432 57.1456 22.5532 57.2785 22.5017 57.3213C22.4374 57.3684 22.3689 57.3727 22.2874 57.3342C22.2232 57.3042 22.1203 57.227 22.0603 57.1713C22.0174 57.1285 21.9017 57.0256 21.7817 56.9185C21.7603 56.9013 21.7389 56.8799 21.7132 56.8585C21.6917 56.8413 21.6746 56.8242 21.6532 56.807C21.6189 56.777 21.5846 56.747 21.5503 56.7213C21.426 56.6142 21.3103 56.5156 21.2717 56.4856C21.2246 56.4427 21.1303 56.3827 21.0617 56.3485C20.9975 56.3142 20.8603 56.237 20.7617 56.1685C20.7403 56.1556 20.7189 56.1385 20.7017 56.1256C20.7017 56.1256 20.7017 56.1256 20.6975 56.1256C20.6246 56.0742 20.556 56.027 20.526 56.0056C20.5217 56.0056 20.5132 55.997 20.5046 55.9927C20.5003 55.9927 20.4917 55.9842 20.4875 55.9799C20.4317 55.9456 20.346 55.8856 20.2603 55.8256C20.1489 55.7527 19.986 55.6585 19.9046 55.6156C19.8232 55.5728 19.6732 55.4913 19.5746 55.427C19.4803 55.3628 19.296 55.2556 19.1675 55.187C19.0475 55.1228 18.7389 54.8699 18.4818 54.6256C18.2246 54.3813 17.9461 54.047 17.8518 53.8671C17.7575 53.6871 17.6418 53.4128 17.5946 53.2456C17.5518 53.0828 17.5175 52.7999 17.5175 52.6199C17.5175 52.4399 17.5732 52.1142 17.6375 51.8914C17.7018 51.6642 17.8089 51.4328 17.8775 51.3685C17.9418 51.3042 17.9975 51.2314 17.9975 51.2056C17.9975 51.1756 18.1175 51.0728 18.2546 50.9656C18.3918 50.8628 18.606 50.7342 18.726 50.6871C18.8503 50.6357 19.0175 50.5928 19.1032 50.5928C19.1889 50.5928 19.2532 50.5628 19.2532 50.5328C19.2532 50.5028 19.3089 50.4728 19.3732 50.4728C19.4375 50.4728 19.506 50.5028 19.5232 50.5328C19.5403 50.5628 19.596 50.5799 19.6432 50.5628C19.6903 50.5457 19.7332 50.5628 19.7332 50.5928C19.7332 50.6228 19.8275 50.6657 19.9432 50.6828C20.0546 50.6999 20.1575 50.7342 20.1617 50.7642C20.1746 50.7942 20.2217 50.8285 20.2689 50.8414C20.316 50.8542 20.406 50.9142 20.466 50.9785C20.526 51.0428 20.5603 51.0599 20.5389 51.0085C20.5089 50.9442 20.5217 50.9442 20.5817 51.0128C20.6246 51.0728 20.7317 51.1328 20.8217 51.1499C20.916 51.1671 20.976 51.2142 20.9589 51.2442C20.9417 51.2742 20.9546 51.3042 20.9889 51.3042C21.0232 51.3042 21.066 51.2314 21.0832 51.1414C21.1089 51.0471 21.1903 50.8542 21.276 50.7042C21.3574 50.5542 21.486 50.3871 21.5503 50.3271C21.6232 50.2671 21.7603 50.1857 21.8546 50.1385C21.9489 50.0914 22.0089 50.0485 21.9746 50.0442L21.9532 50.0528Z" fill="#5EFF9E"/>
<path fill-rule="evenodd" clip-rule="evenodd" d="M32.5946 50.8372C32.5646 50.79 32.3932 49.9415 32.2089 48.96C32.0246 47.9743 31.7932 46.8215 31.6903 46.3972C31.596 45.9729 31.4632 45.4501 31.3989 45.2358C31.3346 45.0215 31.2446 44.7901 31.1974 44.7172C31.1203 44.5929 31.0732 44.5844 30.7903 44.6144C30.6232 44.6315 30.0746 44.6958 29.586 44.7644C29.0932 44.8286 28.0903 44.9786 27.3489 45.0901C26.7703 45.1801 25.5532 45.3815 24.3575 45.5786C24.0275 45.6343 23.6975 45.6901 23.3847 45.7415C21.9404 45.9858 20.1575 46.2943 19.4204 46.4272C18.6833 46.5601 17.4233 46.8043 16.6176 46.9629C15.8119 47.1258 15.0576 47.2843 14.929 47.3186L14.7104 47.3786C14.7104 47.91 14.7533 48.3986 14.8004 48.81C14.8562 49.2215 15.0147 50.3057 15.1647 51.2229C15.3062 52.14 15.6319 54.06 15.8804 55.4871C16.1247 56.9142 16.459 58.7442 16.6261 59.5585C16.789 60.3685 16.9433 61.0842 16.9776 61.1528C17.0247 61.2471 17.0976 61.2728 17.3161 61.2728C17.479 61.2728 18.0533 61.2213 18.6147 61.1528C19.1761 61.0885 20.1875 60.9514 20.8818 60.8571C21.5718 60.7542 23.1104 60.5099 24.3104 60.3128C25.5104 60.1156 27.4303 59.7814 28.5746 59.5671C29.7189 59.3528 30.6832 59.1557 30.7132 59.1385L31.2274 59.1042C31.2446 59.0785 31.6732 58.9628 32.1832 58.8299C32.6889 58.6971 33.1946 58.5514 33.2974 58.5042C33.4517 58.4314 33.4989 58.3671 33.5289 58.1871C33.546 58.0628 33.5289 57.6557 33.4946 57.2742C33.4603 56.8971 33.3874 56.2671 33.3403 55.8728C33.2931 55.4785 33.1431 54.4586 33.0103 53.6057C32.8474 52.5943 32.7789 51.9557 32.796 51.7586L32.5989 50.8414L32.5946 50.8372ZM31.0989 45.8101L30.9274 45.0472C30.486 45.0601 30.0275 45.1115 29.616 45.1715C29.4532 45.1972 29.1618 45.2444 28.8103 45.3001H28.806C28.2746 45.3858 27.5932 45.4886 26.9632 45.5915C25.9132 45.7586 23.9718 46.0801 22.639 46.3072C22.2275 46.3801 21.7861 46.4572 21.3575 46.5301C20.4018 46.6972 19.5018 46.8558 19.0604 46.9329C18.4218 47.0443 17.2947 47.2586 16.5576 47.4086C15.8204 47.5586 15.1904 47.7 15.169 47.7172C15.139 47.7429 15.1733 48.1886 15.2462 48.7115C15.3104 49.2343 15.5033 50.49 15.6619 51.4843C15.829 52.4871 16.099 54.0943 16.2619 55.0628C16.4247 56.0357 16.7076 57.6257 16.8876 58.6114C17.0719 59.5928 17.239 60.4971 17.2561 60.6042C17.2819 60.7156 17.3204 60.8185 17.359 60.8356C17.389 60.8485 17.9976 60.7885 18.7004 60.7028C19.4033 60.6214 20.3161 60.5014 20.7275 60.4328C21.139 60.3728 22.0861 60.2228 22.8447 60.1028C23.5947 59.9828 24.9789 59.7514 25.9132 59.5842C26.8475 59.4214 28.1075 59.1985 28.716 59.0828C29.3246 58.9714 30.0317 58.8385 30.2975 58.7914C30.5589 58.7399 31.2017 58.6028 31.7289 58.4828C32.2517 58.3628 32.7831 58.2342 32.9031 58.1871C33.0874 58.1228 33.1217 58.0842 33.1003 57.9728C33.0874 57.9 33.0446 57.5014 33.0103 57.09C32.976 56.6828 32.8689 55.8085 32.7703 55.1528C32.7146 54.7714 32.646 54.3128 32.586 53.9057C32.5431 53.61 32.5003 53.3443 32.4746 53.1557C32.4017 52.7143 32.1874 51.4372 31.9903 50.3229C31.7932 49.2086 31.5489 47.91 31.4546 47.43C31.4374 47.3572 31.4203 47.28 31.4032 47.1943C31.3046 46.7401 31.1803 46.1615 31.0946 45.8058L31.0989 45.8101Z" fill="#5EFF9E"/>
</g>
</svg>
