<svg width="200" height="201" viewBox="0 0 200 201" fill="none" xmlns="http://www.w3.org/2000/svg">
<g opacity="0.16">
<path d="M119.285 1.15073C122.013 1.13598 123.532 1.19496 124.741 1.37189C125.64 1.48985 127.056 1.75525 127.867 1.96167C128.678 2.15335 129.872 2.58093 130.521 2.90531C131.169 3.21494 132.039 3.76048 132.437 4.0996C132.85 4.42398 133.366 4.98426 133.617 5.32339C133.868 5.66251 134.222 6.29651 134.413 6.73884C134.605 7.18118 134.885 8.11007 135.032 8.80306C135.18 9.49604 135.372 11.2211 135.445 12.6366C135.511 13.6894 135.601 15.3215 135.68 16.7379C135.707 17.2256 135.732 17.6879 135.755 18.092C135.829 19.6697 136.035 21.8961 136.197 23.0314C136.359 24.1667 136.964 26.9829 137.539 29.2977C138.114 31.6126 138.704 34.2224 138.851 35.1218C138.999 36.0212 139.235 38.4687 139.382 40.5772C139.574 43.5113 139.603 44.8678 139.5 46.357C139.426 47.4186 139.338 48.3327 139.294 48.3769C139.249 48.4212 138.895 48.3475 138.483 48.2295C138.085 48.1115 136.92 47.7872 135.902 47.507C134.885 47.2269 132.836 46.7698 131.332 46.4749C129.828 46.1948 127.424 45.8262 125.994 45.664C124.549 45.5018 121.895 45.2954 120.096 45.2216C117.796 45.1037 115.511 45.1184 112.533 45.2216C110.188 45.3101 107.269 45.4723 106.045 45.605C104.836 45.723 102.772 45.9589 101.474 46.1211C100.177 46.2832 98.319 46.5486 97.3458 46.6961C96.3727 46.8583 94.854 47.1237 93.9546 47.2859C93.07 47.448 92.2885 47.5807 92.2295 47.5807C92.0676 47.6005 91.8896 47.6222 91.6967 47.6456C92 45 92.5 35 91.6967 31C90.5 31 87.8786 31.0885 86.5 31.25C85 32 87.5 41.5 78.5 49.25C78.1695 49.2873 78.2081 49.2253 77.8833 49.2616C77.7022 49.2817 77.3625 49.3232 76.9501 49.3735L76.9489 49.3737C76.455 49.434 75.8571 49.507 75.303 49.5712C74.2856 49.7039 73.342 49.8366 73.2093 49.8661C72.9734 49.9251 72.9292 49.7924 72.8554 48.8045C72.8112 48.1705 72.649 47.3891 72.5016 47.0647C72.3689 46.7403 71.9855 46.18 71.6611 45.8114C71.3368 45.4428 70.6438 44.8236 70.1277 44.4402C69.6117 44.0568 69.0809 43.6587 68.9482 43.5555C68.7565 43.4081 68.7123 42.6561 68.6385 38.1444C68.5648 34.3256 68.4616 32.1729 68.2404 30.1824C68.0635 28.6785 67.7981 26.7617 67.6359 25.9065C67.4737 25.0514 67.2378 23.9013 67.1051 23.3263C66.9724 22.766 66.6038 21.439 66.2795 20.3774C65.9551 19.3305 65.4243 17.8266 65.0999 17.0599C64.7755 16.2932 64.2742 15.2021 63.9793 14.6271C63.6992 14.0668 63.1094 13.0347 62.6818 12.3417C61.9741 11.2064 61.8856 10.9557 61.6792 9.614C61.5465 8.80306 61.4433 7.94788 61.4433 7.2549L64.5838 6.91578C66.2942 6.7241 71.6611 6.07535 76.4826 5.48557C81.304 4.88105 87.1427 4.15858 89.4576 3.87844C91.7725 3.58355 95.09 3.18545 96.8298 2.97903C98.5696 2.77261 101.592 2.44823 103.538 2.24181C105.485 2.03539 108.345 1.76999 109.879 1.63729C111.427 1.50459 113.314 1.35715 114.081 1.29817C114.847 1.22445 117.192 1.16547 119.285 1.15073Z" fill="#04FFE1"/>
<path d="M138.109 24.835C138.61 24.8498 140.055 24.9088 141.309 24.9825C142.562 25.0562 144.818 25.2184 146.322 25.3363C147.826 25.469 149.742 25.6755 150.598 25.7934C151.453 25.9114 152.514 26.1178 152.957 26.2505C153.399 26.3832 154.107 26.6633 154.505 26.8993C154.918 27.1204 155.566 27.6365 155.965 28.0198C156.363 28.4179 156.938 29.1404 157.262 29.627C157.572 30.1135 158.043 31.0129 158.294 31.6175C158.545 32.222 158.899 33.2541 159.09 33.9028C159.282 34.5516 159.592 35.9081 159.798 36.9254C160.004 37.9428 160.476 40.9211 160.845 43.5604C161.214 46.1996 161.685 49.4434 161.892 50.7851C162.098 52.1269 162.467 54.1468 162.703 55.2822C162.939 56.4175 163.366 58.2163 163.661 59.2631C163.956 60.31 164.325 61.4306 164.472 61.7402C164.634 62.0351 164.723 62.3152 164.678 62.3595C164.634 62.4037 163.853 62.0646 162.953 61.6075C162.039 61.1504 160.697 60.5606 159.96 60.2952C159.223 60.0298 157.94 59.6612 157.085 59.4696C155.92 59.2042 155.08 59.1157 153.694 59.1157C152.102 59.1157 151.659 59.1747 150.45 59.5285C149.683 59.7645 148.356 60.2805 147.501 60.6786C146.646 61.0914 145.26 61.8434 144.405 62.3595C143.55 62.8755 142.267 63.5832 141.53 63.9519C140.793 64.3205 139.672 64.807 139.023 65.0134C138.271 65.2788 137.387 65.441 136.59 65.5C135.779 65.5443 135.131 65.5 134.747 65.3821C134.423 65.2788 133.936 65.0429 133.686 64.8513C133.42 64.6596 133.096 64.2762 132.963 64.0256C132.772 63.657 132.742 63.2884 132.801 62.5069C132.86 61.6812 132.993 61.2389 133.494 60.2952C133.818 59.6465 134.792 58.1573 135.617 56.9778C136.458 55.7982 137.49 54.2501 137.903 53.5128C138.33 52.7461 138.905 51.4191 139.244 50.387C139.731 48.8979 139.864 48.2049 140.011 46.5535C140.144 44.9906 140.144 43.7521 140.011 41.2013C139.908 39.373 139.701 36.9549 139.554 35.8196C139.392 34.6843 139.126 33.1656 138.964 32.4284C138.802 31.7059 138.33 29.8039 137.917 28.2262C137.519 26.6486 137.18 25.2331 137.18 25.1004C137.18 24.8793 137.313 24.835 138.109 24.835Z" fill="#04FFE1"/>
</g>
<path d="M103.799 6.3702C103.917 5.94261 103.961 5.45605 103.902 5.23488C103.814 4.88102 103.843 4.83679 104.079 4.94C104.226 4.99897 104.403 5.16116 104.462 5.29386C104.536 5.44131 105.037 5.76568 105.598 6.03108C106.143 6.28173 106.615 6.51764 106.659 6.54713C106.703 6.57662 106.63 6.70932 106.497 6.84202C106.364 6.98946 106.187 7.50552 106.084 7.99208C105.996 8.47865 105.952 8.9947 105.996 9.1274C106.04 9.28959 105.996 9.3928 105.893 9.3928C105.789 9.3928 105.568 9.21586 105.391 8.9947C105.229 8.75879 104.713 8.37543 104.241 8.13952C103.548 7.77092 103.415 7.65296 103.504 7.40231C103.548 7.24012 103.681 6.7683 103.799 6.3702Z" fill="#15006A"/>
<path d="M87.9929 16.1015C88.0518 15.8508 88.1256 15.2905 88.1846 14.8187L88.273 13.993L88.7596 14.4943C89.0397 14.7745 89.659 15.1726 91.0007 15.8066L90.7796 16.3964C90.6616 16.7207 90.5142 17.2221 90.4404 17.5022C90.3667 17.7823 90.293 18.2099 90.234 18.9029L89.6 18.3131C89.2462 17.9888 88.966 17.7086 88.966 17.6791C88.966 17.6644 89.1429 17.7823 89.3789 17.9593C89.7622 18.2394 89.7917 18.2542 89.9686 17.9888C90.0718 17.8413 90.1456 17.5759 90.1456 17.3842C90.1456 17.2073 90.2193 16.8829 90.293 16.647C90.3815 16.4259 90.411 16.131 90.3667 15.9835C90.3225 15.8508 90.2488 15.7476 90.1898 15.7624C90.1161 15.7771 89.7917 15.6444 89.4526 15.4675C89.0987 15.2905 88.7743 15.1873 88.7154 15.2316C88.6416 15.2758 88.5679 15.7181 88.5237 16.2194L88.5228 16.2301C88.45 17.0895 88.4488 17.103 88.1698 16.824C87.9781 16.6175 87.9339 16.4259 87.9929 16.1015Z" fill="#15006A"/>
<path d="M96.2645 22.3384C96.1023 22.073 95.9548 21.7928 95.9253 21.7338C95.8811 21.6749 95.9254 21.6159 95.9843 21.6159C96.0581 21.6159 96.6478 22.4268 97.2818 23.4294C97.9306 24.4173 98.4909 25.3609 98.5204 25.5231C98.5695 25.7296 98.54 25.7787 98.4319 25.6706C98.3582 25.5969 97.9011 24.9186 97.4293 24.1814C96.9427 23.4442 96.4267 22.6185 96.2645 22.3384Z" fill="#15006A"/>
<path d="M95.5715 23.2672C95.1734 22.53 95.0702 22.1909 95.2029 22.1467C95.2782 22.1216 95.4071 22.0964 95.4892 22.0804C95.5035 22.0776 95.5163 22.0751 95.5273 22.073C95.6157 22.073 95.6305 22.1614 95.542 22.3236C95.4388 22.5153 95.5125 22.7659 95.7779 23.2378C95.9843 23.6064 96.4267 24.2551 96.7658 24.6827C97.1049 25.1103 97.5915 25.5526 97.8569 25.6558C98.2402 25.818 98.2845 25.877 98.078 25.9507C97.8864 26.0244 97.5767 25.8033 96.9722 25.184C96.4856 24.7122 95.8811 23.857 95.5715 23.2672Z" fill="#15006A"/>
<path d="M100.054 28.6342C99.9506 28.5015 99.9063 28.3393 99.9506 28.2656C99.9948 28.1771 100.186 28.1181 100.363 28.1181C100.555 28.1181 100.924 28.3983 101.307 28.8111C101.661 29.1945 101.897 29.5483 101.853 29.5926C101.794 29.6221 101.72 29.5778 101.69 29.4746C101.661 29.3714 101.543 29.2977 101.425 29.2977C101.307 29.2977 101.174 29.1797 101.16 29.0323C101.13 28.8849 100.938 28.6489 100.717 28.4868C100.496 28.3246 100.26 28.2361 100.201 28.2951C100.142 28.3541 100.172 28.5752 100.275 28.7816C100.378 28.9733 100.644 29.2387 100.865 29.3567C101.086 29.4746 101.322 29.5336 101.396 29.4746C101.454 29.4157 101.484 29.4746 101.425 29.6221C101.351 29.858 101.307 29.858 100.938 29.6663C100.717 29.5336 100.467 29.4451 100.393 29.4451C100.304 29.4451 100.083 29.2682 99.8768 29.047C99.6704 28.8259 99.6262 28.7374 99.7589 28.8554C99.9063 28.9733 100.083 29.0176 100.127 28.9586C100.186 28.8996 100.157 28.7522 100.054 28.6342Z" fill="#15006A"/>
<path d="M60.878 46.3274C60.5536 46.121 60.5094 46.0031 60.5094 45.2953C60.5094 44.8383 60.5536 44.4844 60.6126 44.4844C60.6716 44.4844 60.8338 44.5434 60.9517 44.6023C61.1434 44.7203 61.1286 44.7498 60.9075 44.8235C60.7011 44.8972 60.6716 45.0299 60.7453 45.3985C60.8043 45.6639 60.937 45.9736 61.0402 46.1063C61.1434 46.2242 61.2318 46.3717 61.2466 46.4306C61.2466 46.4896 61.0844 46.4454 60.878 46.3274Z" fill="#15006A"/>
<path d="M67.6899 45.546C67.4245 45.5165 66.8789 45.3101 66.4808 45.0742C66.068 44.8235 65.8616 44.6318 65.9943 44.6318C66.1417 44.6318 66.5693 44.794 66.9527 45.0152C67.5572 45.3543 67.7194 45.3838 68.0585 45.2364C68.4418 45.0742 68.4713 45.0889 68.4713 45.4723C68.4713 45.6934 68.3976 45.9736 68.3239 46.1063C68.2059 46.2685 68.1764 46.239 68.1764 45.9588C68.1764 45.6492 68.088 45.5755 67.6899 45.546Z" fill="#15006A"/>
<path d="M67.336 49.6007C67.6899 49.3943 67.9848 49.0699 68.1322 48.716C68.2649 48.4064 68.3976 48.1705 68.4271 48.1705C68.4566 48.1705 68.4418 48.4064 68.3976 48.716C68.3386 49.1289 68.1617 49.3943 67.7046 49.7924C67.3655 50.0725 67.0411 50.3084 66.9822 50.3084C66.9232 50.3084 66.8347 50.3379 66.7905 50.3821C66.7462 50.4116 67.0559 50.5738 67.4687 50.7213C68.2354 50.9719 68.2649 50.9719 69.238 50.6475C69.7836 50.4559 70.2259 50.3379 70.2259 50.3821C70.2407 50.4116 69.9163 50.6475 69.5329 50.8835C69.1496 51.1194 68.604 51.3405 68.3239 51.3848C68.0437 51.4142 67.6456 51.4142 67.4392 51.37C67.2328 51.311 66.82 51.0456 66.5103 50.7508C66.2154 50.4706 65.9943 50.161 66.0385 50.0873C66.0827 49.9988 66.2597 49.9251 66.4366 49.9251C66.6283 49.9251 67.0264 49.7776 67.336 49.6007Z" fill="#15006A"/>
<path d="M59.7722 95.3082C59.5657 95.1313 59.3888 94.7922 59.3593 94.571C59.3446 94.3498 59.3888 94.1729 59.4773 94.1729C59.551 94.1729 59.6247 94.3204 59.6247 94.4973C59.6247 94.6742 59.8016 95.0133 60.0228 95.2345C60.244 95.4704 60.3619 95.6474 60.2882 95.6326C60.1997 95.6326 59.9638 95.4852 59.7722 95.3082Z" fill="#15006A"/>
<path d="M104.049 6.88626C104.167 6.60612 104.3 6.25226 104.359 6.10481C104.462 5.85416 104.492 5.85416 104.86 6.07532C105.082 6.20802 105.421 6.42919 105.612 6.56189C105.922 6.7978 105.951 6.88626 105.863 7.66772C105.804 8.18377 105.701 8.50814 105.598 8.50814C105.494 8.52289 105.332 8.43442 105.244 8.33121C105.141 8.228 104.801 8.00684 104.462 7.84465C104.123 7.68246 103.843 7.52027 103.843 7.47604C103.843 7.43181 103.946 7.16641 104.049 6.88626Z" fill="#15006A"/>
<path fill-rule="evenodd" clip-rule="evenodd" d="M119.266 0.634665C121.212 0.664154 123.63 0.782109 124.647 0.900064C125.665 1.03276 127.124 1.29816 127.891 1.50458C128.658 1.711 129.882 2.16808 130.619 2.52194C131.621 3.02325 132.182 3.42135 132.948 4.18806C133.641 4.8663 134.113 5.51505 134.452 6.22278C134.732 6.78307 135.086 7.81517 135.249 8.50816C135.411 9.20114 135.617 10.6608 135.691 11.7519C135.779 12.843 135.956 15.438 136.074 17.5022C136.192 19.5664 136.413 21.9993 136.811 24.55L137.327 24.6385C137.608 24.6827 138.536 24.727 139.392 24.727C140.247 24.727 142.635 24.8597 144.7 25.0219C146.764 25.1693 149.256 25.4052 150.229 25.5379C151.202 25.6706 152.367 25.877 152.809 25.995C153.251 26.1277 154.003 26.4226 154.475 26.6585C154.932 26.8944 155.728 27.4694 156.23 27.956C156.805 28.4868 157.409 29.2682 157.822 29.976C158.176 30.6247 158.633 31.5684 158.825 32.0992C159.016 32.6299 159.326 33.5883 159.518 34.2371C159.709 34.8858 160.004 36.1096 160.166 36.9648C160.329 37.82 160.565 39.1322 160.697 39.8842C160.815 40.6214 161.154 42.8478 161.435 44.8235C161.497 45.2617 161.562 45.7168 161.626 46.1688C161.85 47.7402 162.069 49.2757 162.172 49.9398C162.304 50.795 162.54 52.2547 162.703 53.1836C162.865 54.1125 163.13 55.4395 163.292 56.1325C163.454 56.8255 163.705 57.8871 163.867 58.4916C164.03 59.0961 164.501 60.6 164.914 61.8091C165.415 63.2687 165.681 64.2714 165.681 64.7579C165.696 65.2003 165.578 65.7016 165.43 66.0112C165.283 66.2913 164.752 67.0875 164.265 67.7805C163.764 68.4735 162.703 69.83 161.892 70.8031C161.081 71.7762 160.373 72.6019 160.329 72.6462C160.28 72.683 160.066 72.9456 159.809 73.2622L159.65 73.4571C159.326 73.8699 158.898 74.5924 158.707 75.079C158.382 75.8604 158.353 76.1848 158.368 77.8067C158.368 79.3254 158.441 79.8857 158.766 81.0505C158.987 81.8172 159.208 82.6576 159.356 83.3358L158.191 82.5249C157.557 82.0826 156.702 81.3453 156.289 80.8735C155.876 80.4164 155.301 79.5613 154.991 78.9568C154.696 78.367 154.357 77.3644 154.225 76.7451C154.092 76.1111 153.989 74.9168 153.989 74.0911C153.989 73.1622 154.092 71.9974 154.283 71.098C154.446 70.2871 154.814 68.8863 155.094 68.0017C155.389 67.117 155.95 65.6868 156.362 64.8316C156.775 63.9765 157.395 62.7674 157.763 62.1482C158.117 61.5142 158.412 60.9539 158.412 60.8949C158.412 60.8212 157.675 60.5853 156.761 60.3494C155.846 60.1135 154.564 59.8923 153.915 59.8628C153.045 59.8038 152.367 59.8775 151.335 60.0987C150.568 60.2756 149.241 60.7032 148.386 61.0424C147.531 61.3962 145.673 62.3546 144.257 63.1803C142.842 64.006 141.146 64.9054 140.497 65.2003C139.849 65.4804 138.846 65.8195 138.286 65.9522C137.608 66.0997 136.767 66.1586 135.853 66.1292C134.629 66.0849 134.32 66.0259 133.494 65.6131C132.963 65.3624 132.196 64.8316 131.798 64.4336C131.268 63.9322 130.958 63.4604 130.722 62.8412C130.53 62.3546 130.25 61.3962 130.103 60.7032C129.955 60.0102 129.749 58.7865 129.66 57.9755C129.557 57.1646 129.469 55.1741 129.439 53.5522C129.424 51.8713 129.292 49.7776 129.144 48.6866C129.012 47.6397 128.849 46.7256 128.805 46.6518C128.746 46.5929 127.935 46.4159 127.006 46.2685C126.078 46.1063 124.117 45.8999 122.657 45.7967C121.197 45.7082 118.469 45.6197 116.612 45.6345C114.754 45.6345 111.495 45.7377 109.387 45.8704C107.278 46.0031 104.153 46.2832 102.457 46.4749C100.761 46.6813 97.7388 47.1089 95.7483 47.448C93.0501 47.8904 92.0917 48.1115 91.959 48.2885C91.8558 48.4359 91.7084 49.0404 91.6199 49.6449C91.5314 50.2495 91.266 51.4143 91.0301 52.2252C90.809 53.0362 90.3814 54.2304 90.1012 54.8792C89.8211 55.528 89.3493 56.4568 89.0544 56.9434C88.7595 57.43 88.1255 58.2704 87.6389 58.8307C87.1524 59.3762 86.7543 59.8481 86.7543 59.8923C86.7543 59.9291 87.1326 60.5387 87.6339 61.3461C87.7345 61.5082 87.8401 61.6783 87.9486 61.8533C88.1801 62.2135 88.3973 62.5521 88.5826 62.841L88.5901 62.8527C88.9316 63.3852 89.1628 63.7458 89.1723 63.7553C89.1723 63.7701 90.116 63.4899 91.2513 63.1066C93.1091 62.502 93.4924 62.4283 95.0848 62.3693C96.0874 62.3251 97.2375 62.3546 97.7388 62.4578C98.2254 62.5463 99.2133 62.9149 99.9505 63.2687C100.894 63.7406 101.572 64.2124 102.324 64.9349C102.914 65.4804 103.917 66.6747 104.58 67.5594C105.465 68.7389 105.775 69.2845 105.745 69.5499C105.716 69.7858 105.391 70.1544 104.816 70.6262C104.33 71.0095 103.533 71.5551 103.047 71.8205C102.56 72.0859 101.808 72.4397 100.614 72.8673L100.068 72.3218C99.7588 72.0269 99.169 71.5993 98.7709 71.3487C98.3581 71.1128 97.5766 70.7736 97.0016 70.5967C96.3823 70.405 95.365 70.2281 94.4951 70.1839C93.6841 70.1396 92.8437 70.1396 92.6078 70.1839C92.3276 70.2576 92.2244 70.3608 92.2687 70.5525C92.2981 70.6852 92.652 71.8942 93.0649 73.2359C93.4777 74.5777 94.0822 76.7009 94.4066 77.9541C94.731 79.2074 95.0553 80.4017 95.1291 80.6081C95.2175 80.8145 96.0874 81.7434 97.0901 82.6723C98.0779 83.6012 98.9331 84.3532 98.9774 84.3237C99.0216 84.2942 99.1838 84.4564 99.3165 84.6923C99.4639 84.9135 99.5819 85.0609 99.5819 85.0019C99.5819 84.9282 99.6703 84.9725 99.7883 85.0757C99.9062 85.1641 99.9652 85.2968 99.9357 85.3706C99.9062 85.4295 99.9947 85.5622 100.127 85.6654C100.334 85.8129 100.349 85.8129 100.245 85.6212C100.127 85.4295 100.142 85.4295 100.408 85.6212C100.555 85.7392 100.968 86.1078 101.307 86.4322C101.646 86.7565 101.882 87.0956 101.823 87.1694C101.764 87.2431 101.794 87.2726 101.867 87.2136C101.956 87.1546 102.56 87.6264 103.209 88.2457C103.561 88.5741 103.979 88.9689 104.358 89.3267L104.361 89.3291L104.368 89.3359L104.37 89.3379C104.701 89.6502 105.001 89.9335 105.199 90.1182C105.627 90.5311 106.04 90.8407 106.099 90.826C106.158 90.7965 106.217 90.826 106.217 90.8997C106.217 90.9587 106.364 91.1651 106.526 91.3715C106.689 91.5779 106.777 91.6369 106.718 91.519C106.615 91.3273 106.63 91.3273 106.866 91.519C106.998 91.6369 107.116 91.8433 107.116 91.9613C107.126 92.0989 107.151 92.1136 107.19 92.0055C107.219 91.8876 107.912 92.4626 108.797 93.3325C109.638 94.1582 110.345 94.8807 110.345 94.9544C110.345 95.0134 110.257 95.0134 110.154 94.9544C110.05 94.9102 110.036 94.9249 110.095 94.9986C110.168 95.0724 110.301 95.1313 110.389 95.1313C110.493 95.1313 110.581 95.2788 110.596 95.4705C110.625 95.6474 110.743 95.7948 110.861 95.7948C110.979 95.7948 111.082 95.898 111.082 96.016C111.082 96.1339 111.215 96.3109 111.377 96.3846C111.54 96.4583 111.672 96.6353 111.672 96.7532C111.672 96.8712 111.716 96.9744 111.775 96.9744C111.849 96.9744 112.056 97.1808 112.262 97.4462C112.468 97.7116 112.527 97.8738 112.409 97.8148C112.292 97.7411 112.321 97.8148 112.483 97.9622C112.645 98.1097 112.852 98.3751 112.94 98.5225C113.029 98.6847 113.412 99.3924 113.781 100.115C114.164 100.823 114.739 102.179 115.049 103.138C115.358 104.081 115.697 105.261 115.771 105.747C115.86 106.234 115.978 107.222 116.037 107.959C116.081 108.711 116.051 109.92 115.948 110.76C115.86 111.571 115.653 112.766 115.506 113.414C115.358 114.063 115.093 115.021 114.901 115.552C114.724 116.083 114.282 117.1 113.913 117.838C113.56 118.575 112.867 119.725 112.395 120.418C111.923 121.111 111.348 121.878 111.127 122.128C110.906 122.364 110.537 122.807 110.331 123.087C110.124 123.367 109.682 123.853 109.372 124.163C109.063 124.473 108.561 124.915 108.281 125.121C108.001 125.328 107.573 125.726 107.323 125.991C107.087 126.242 106.836 126.463 106.762 126.463C106.703 126.463 106.394 126.729 106.069 127.053C105.745 127.377 105.317 127.672 105.111 127.716C104.905 127.761 104.772 127.864 104.816 127.938C104.86 128.011 104.846 128.085 104.772 128.085C104.713 128.07 104.492 128.232 104.285 128.409C104.079 128.601 103.769 128.837 103.622 128.94C103.586 128.96 103.541 128.985 103.489 129.014L103.389 129.071C103.218 129.167 103.007 129.287 102.826 129.382C102.545 129.515 102.28 129.677 102.236 129.736C102.192 129.795 101.956 129.958 101.72 130.09C101.484 130.223 101.101 130.429 100.865 130.533C100.643 130.651 100.437 130.813 100.393 130.886C100.349 130.96 100.142 131.034 99.9062 131.034C99.6851 131.034 99.4049 130.931 99.287 130.827C99.169 130.71 98.9184 130.592 98.7267 130.533C98.4908 130.474 98.2106 130.592 97.6356 131.078C96.9426 131.638 96.8689 131.771 96.8099 132.361C96.7804 132.729 96.8689 133.496 97.0016 134.056C97.1343 134.617 97.2817 135.841 97.3407 136.755C97.3997 137.654 97.3997 138.406 97.326 138.406C97.267 138.406 97.0458 138.318 96.8099 138.2C96.5888 138.096 95.8221 137.227 95.0848 136.268C94.8043 135.909 94.4639 135.469 94.1117 135.013L94.1094 135.01L94.1031 135.002L94.1013 135L94.0996 134.998C93.53 134.261 92.9308 133.486 92.5046 132.951C91.8116 132.081 91.1039 131.093 90.5878 130.149L94.3476 126.463L93.9643 126.065C93.7431 125.829 93.4924 125.505 93.404 125.328C93.2713 125.062 93.3008 124.826 93.5219 124.222C93.6694 123.794 94.1559 122.571 94.613 121.524C95.0553 120.477 95.881 118.545 96.4561 117.248C97.0163 115.95 97.7241 114.373 98.019 113.753C98.3139 113.119 98.5498 112.5 98.5498 112.382C98.5498 112.264 98.0337 111.778 97.3997 111.321C96.7804 110.864 95.5419 109.92 93.0649 107.959L93.1533 106.042C93.2123 104.995 93.3155 103.3 93.404 102.282C93.5072 101.147 93.6694 100.218 93.8168 99.8495C93.9643 99.5251 94.5983 98.5963 95.2175 97.7853C95.8368 96.9744 96.3381 96.1929 96.3381 96.0602C96.3381 95.9128 96.4413 95.7506 96.574 95.6916C96.7067 95.6179 96.7804 95.441 96.7509 95.2788C96.7067 95.0281 96.6477 95.0576 96.4118 95.4999C96.2496 95.7801 96.1464 96.0602 96.1612 96.1339C96.1759 96.1929 96.1169 96.2077 96.0432 96.1634C95.9695 96.1192 95.6451 96.4436 95.3355 96.8712C95.0259 97.284 94.4213 98.036 93.9938 98.5225C93.5662 99.0091 93.1681 99.6431 93.0943 99.9232C93.0206 100.203 92.8584 101.471 92.7257 102.725C92.593 103.978 92.2834 106.676 92.0475 108.696C91.8116 110.731 91.4725 113.046 91.3103 113.857C91.1481 114.668 90.6763 116.363 90.2634 117.616C89.8064 118.988 89.0691 120.757 88.4204 122.04C87.8306 123.219 86.9312 124.753 86.4299 125.446C85.9138 126.153 85.2356 127.009 84.9112 127.363C84.5721 127.716 83.9823 128.277 83.5842 128.616C83.1714 128.94 82.5079 129.412 82.1098 129.663C81.6969 129.913 80.9155 130.252 80.3405 130.415C79.7654 130.592 78.9987 130.739 78.6006 130.739C78.2173 130.739 77.023 130.518 75.9466 130.238C74.8851 129.958 72.9388 129.353 71.6413 128.911C70.3438 128.468 68.3386 127.702 67.1737 127.215C66.0237 126.714 64.2838 125.918 63.3107 125.431C62.3376 124.944 61.158 124.31 60.6862 124.016C60.58 123.947 60.4631 123.872 60.3426 123.795L60.3363 123.79C59.9402 123.536 59.5036 123.255 59.256 123.087C58.9406 122.886 58.2766 122.406 57.7522 122.028L57.7079 121.996C57.1771 121.597 55.9238 120.536 54.9212 119.622C53.9186 118.722 52.9897 117.823 52.8717 117.616C52.6948 117.322 52.68 117.13 52.8127 116.658C52.9012 116.334 53.0044 115.921 53.0486 115.744C53.1224 115.464 53.0191 115.331 52.5473 115.036C52.2229 114.83 51.8838 114.668 51.8101 114.668C51.7364 114.668 50.6453 115.272 49.4068 115.995C48.183 116.732 47.0772 117.322 46.974 117.322C46.8855 117.322 46.6938 117.218 46.5759 117.1C46.3842 116.909 46.5021 116.584 47.6227 114.27C48.3157 112.825 49.2151 111.026 50.4094 108.888L50.9254 108.947C51.2056 108.991 52.1492 109.33 53.0191 109.714C53.9038 110.082 54.6263 110.377 54.6558 110.362C54.6813 110.337 54.8173 110.035 54.9874 109.658L55.0686 109.478C55.3193 108.858 55.4815 108.652 55.6436 108.711C55.7616 108.755 57.2213 109.153 58.8874 109.596C60.5535 110.038 63.237 110.746 64.8589 111.144C66.4808 111.557 68.7956 112.117 70.0194 112.382C71.2284 112.662 72.2311 112.869 72.2458 112.854C72.2458 112.839 72.2016 111.999 72.1279 110.982C72.0541 109.964 72.0246 107.546 72.0541 105.6C72.0984 103.58 72.2311 101.339 72.3638 100.366C72.4965 99.4367 72.7029 98.2129 72.8208 97.6379C72.9535 97.0628 73.2484 95.9718 73.4843 95.205C73.7202 94.4383 74.1183 93.362 74.8113 91.8138L72.8798 89.7939C71.8182 88.6733 70.0931 86.7713 69.061 85.5475C68.0289 84.3384 66.6724 82.6723 66.0384 81.8614C65.4044 81.0505 64.3871 79.6792 63.7678 78.7946C63.1485 77.9247 62.5735 77.2169 62.4998 77.2169C62.4261 77.2317 61.6151 77.6003 59.1086 78.9125V91.1061L58.7695 91.3863C58.5925 91.5337 58.4451 91.7401 58.4451 91.8138C58.4451 91.8876 58.7547 92.2267 59.1381 92.5511C59.5362 92.8902 59.8753 93.1556 59.9195 93.1408C59.9637 93.1408 60.008 93.2293 60.0227 93.3325C60.0295 93.373 60.0518 93.4757 60.0809 93.6099L60.0814 93.6122C60.1158 93.771 60.1599 93.9741 60.1997 94.1729C60.2881 94.5415 60.4503 95.1018 60.5683 95.4262C60.6862 95.7506 60.7894 96.1782 60.8042 96.3846C60.8042 96.591 60.701 96.8712 60.5535 97.0039C60.4061 97.1513 59.6983 97.4315 58.9611 97.6231C58.0175 97.8885 57.4277 97.9623 56.8969 97.918C56.4841 97.8738 55.9238 97.7411 55.6436 97.6231C55.3635 97.5052 54.9359 97.225 54.7148 97.0039C54.4936 96.7827 54.2429 96.3699 54.1692 96.0897C54.0807 95.8096 54.0218 95.3378 54.0218 95.0576C54.0365 94.7775 54.1397 94.2762 54.2577 93.9518C54.3756 93.6274 54.5231 93.244 54.5821 93.1114C54.6705 92.8754 54.6115 92.8607 54.066 92.9639C53.5647 93.0524 53.3878 93.0081 53.1224 92.7722C52.9454 92.61 51.7511 90.3542 50.4684 87.7591C48.8023 84.3827 48.0355 82.6871 47.7996 81.7877C47.549 80.7998 47.4753 80.1216 47.4753 78.6176C47.4753 77.0842 47.549 76.4502 47.8144 75.4476C47.9913 74.7546 48.3747 73.693 48.6548 73.0885C48.935 72.484 49.451 71.5551 49.7901 71.0243C50.1145 70.4935 50.5863 69.83 50.8222 69.5499L50.9091 69.4526C51.1924 69.1356 51.7138 68.552 52.164 68.0754C52.6653 67.5446 53.5942 66.6747 54.2429 66.1439C54.8917 65.6131 55.9238 64.8169 56.5283 64.3746C57.1328 63.9322 58.563 62.9444 59.6983 62.1924C60.8337 61.4257 61.8658 60.7032 61.9837 60.5853C62.1017 60.4673 62.1164 60.4083 62.0132 60.4673C61.8805 60.5263 61.851 60.3789 61.91 59.8628C61.9288 59.6089 61.9656 59.2288 62.0013 58.8607L62.0014 58.8597C62.0216 58.6511 62.0415 58.4463 62.0574 58.2704C62.1017 57.6511 62.0574 57.1793 61.8658 56.678C61.6888 56.1767 61.5561 55.985 61.394 56.044C61.276 56.0735 60.7747 56.2504 60.2881 56.4274C59.6246 56.6633 59.2413 56.7222 58.74 56.6485C58.3714 56.5895 57.7079 56.4274 57.2655 56.2799C56.8232 56.1325 56.0712 55.9113 55.5994 55.7786C55.0686 55.6312 54.6705 55.4247 54.5378 55.2183C54.4199 55.0266 54.3167 54.7318 54.3167 54.5548C54.3167 54.3631 54.2429 54.1862 54.1692 54.142C54.0955 54.0978 53.9628 54.1862 53.8891 54.3337C53.7564 54.5548 53.7121 54.5548 53.5205 54.3631C53.3583 54.2157 53.2698 53.8029 53.2403 53.0362C53.2256 52.4316 53.2551 51.7534 53.314 51.5322C53.3878 51.2816 53.373 51.1194 53.2845 51.1194C53.2108 51.1194 52.8864 51.2963 52.5768 51.5027C52.2819 51.7092 51.8691 51.9156 51.6627 51.9451C51.4562 51.9893 51.2793 52.004 51.2646 51.9746C51.2351 51.9451 51.3088 51.6649 51.4268 51.3405C51.53 51.0162 51.7511 49.9841 51.8986 49.0552C52.0313 48.1263 52.1492 47.2269 52.1345 47.0647C52.1345 46.915 52.0843 46.2257 52.0302 45.4831L52.0165 45.2954C51.9281 43.9979 51.9576 43.6882 52.2524 42.7151C52.4294 42.1106 52.7095 41.3144 52.8717 40.9458C53.0486 40.5772 53.432 39.9137 53.7269 39.4713C54.0365 39.029 54.5821 38.3803 54.9654 38.0411C55.334 37.6873 55.909 37.2744 56.2334 37.1122C56.5578 36.95 57.1033 36.7731 57.4425 36.7289C57.8651 36.6601 58.3468 36.7141 58.8874 36.8911C59.3297 37.0238 59.831 37.2302 59.9932 37.3187C60.1554 37.4219 60.4208 37.5546 60.583 37.6135C60.8484 37.7168 60.8632 37.702 60.6567 37.4514C60.5388 37.3039 60.3176 37.0385 60.1407 36.8616C59.9785 36.6699 59.8753 36.493 59.9195 36.4487C59.9637 36.4045 60.2734 36.5667 60.6125 36.8173C60.9664 37.0533 61.3645 37.5103 61.5266 37.82C61.6741 38.1149 61.851 38.6014 61.9247 38.8816C61.9985 39.2649 61.9837 39.3681 61.8658 39.2944C61.7478 39.2207 61.6888 39.2797 61.6888 39.4418C61.6741 39.5745 61.7626 39.7662 61.8658 39.8399C61.969 39.9284 62.3081 40.1053 63.1633 40.5034L63.0748 39.5893C63.0306 39.0732 62.8684 37.5988 62.7062 36.3013C62.6434 35.7489 62.4684 34.2583 62.2289 32.2187C61.9059 29.4679 61.4656 25.7186 61.0253 21.9255C60.2586 15.3201 59.4919 8.81779 59.3297 7.47605C59.1528 6.13432 58.9759 4.37974 58.8432 2.09436L59.3002 1.99115C59.5656 1.91743 59.9343 1.93217 60.1407 2.02064C60.4208 2.13859 60.524 2.30078 60.583 2.72837C60.5978 2.87581 60.6346 3.20756 60.6807 3.62224L60.6811 3.62624C60.7271 4.04013 60.7822 4.53609 60.8337 5.01374C61.0106 6.57665 61.0548 6.73883 61.3202 6.73883C61.4824 6.73883 62.6767 6.60613 63.9742 6.44395C65.2717 6.28176 68.5302 5.88366 71.199 5.55928L72.4164 5.41125C74.7297 5.12992 77.043 4.8486 77.9076 4.74834C78.925 4.63039 83.3631 4.09959 87.7864 3.56879C89.7088 3.33811 91.7843 3.08793 93.6802 2.8594L93.6828 2.85909C96.1482 2.56192 98.3094 2.30141 99.4344 2.16808C101.425 1.93217 104.344 1.60779 105.922 1.44561C107.5 1.28342 110.021 1.04751 111.525 0.929553C113.029 0.796853 114.577 0.664154 114.99 0.634665C115.388 0.605177 117.319 0.605177 119.266 0.634665ZM49.9523 23.9897C49.9818 24.034 50.6895 25.7148 51.5152 27.7496C52.3409 29.7695 53.0929 31.7158 53.1961 32.0549C53.2845 32.394 53.3288 32.7184 53.2845 32.7626C53.2403 32.8069 53.1076 32.8069 52.9897 32.7626C52.8717 32.7184 52.4883 31.8927 52.1197 30.8754C51.8232 30.0476 51.33 28.5986 50.9177 27.3873L50.6895 26.7175C50.2472 25.42 49.8933 24.2551 49.8933 24.1372C49.8786 24.0192 49.9081 23.9455 49.9523 23.9897ZM42.4917 34.7531C42.5528 34.8415 42.6707 35.0023 42.8114 35.1943C42.9759 35.4188 43.1721 35.6864 43.3468 35.9327C43.686 36.375 44.4527 37.2154 45.0424 37.7757C45.647 38.3508 46.8118 39.2502 47.6522 39.7662C48.6253 40.3707 49.1119 40.7541 48.9792 40.8278C48.876 40.872 48.5811 40.8573 48.3452 40.7836C48.1093 40.7099 47.549 40.4297 47.1214 40.1643C46.6938 39.9137 45.9418 39.3239 45.4405 38.8816C44.9392 38.4392 44.1578 37.6135 43.7007 37.0385C43.2436 36.4635 42.7128 35.7263 42.5359 35.3724C42.3737 35.0333 42.2263 34.6647 42.241 34.5615C42.241 34.473 42.359 34.5467 42.4917 34.7531ZM40.5307 50.6033C41.2679 50.6328 42.0641 50.7213 42.3 50.8098C42.3587 50.827 42.4295 50.8483 42.5081 50.872C42.7652 50.9493 43.1053 51.0516 43.3763 51.1194C43.8629 51.2373 43.9808 51.3258 43.9071 51.5175C43.8334 51.7681 43.7302 51.7534 42.5506 51.37C41.7102 51.1046 40.7813 50.9277 39.8672 50.8687C38.8646 50.795 38.5697 50.736 38.8351 50.6476C39.0415 50.5886 39.8082 50.5591 40.5307 50.6033ZM44.9982 58.064C45.4553 58.0492 45.6175 58.1082 45.6175 58.2704C45.6175 58.3884 45.5143 58.5211 45.3963 58.5653C45.2784 58.6095 44.2905 58.7127 43.2289 58.8012C42.1525 58.8897 40.9877 59.0224 40.6486 59.0961C40.2948 59.1698 39.764 59.332 39.4691 59.4647C39.1594 59.5827 38.5992 59.9218 38.2158 60.2019C37.8177 60.4821 37.5081 60.6295 37.5081 60.5558C37.5081 60.4821 37.7882 60.1872 38.1421 59.9218C38.4812 59.6564 38.9235 59.332 39.1299 59.1993C39.3364 59.0666 39.9556 58.8307 40.5307 58.6538C41.1057 58.4916 42.1968 58.2852 42.9635 58.2114L43.3776 58.1794C44.0342 58.1284 44.7065 58.0761 44.9982 58.064ZM69.5034 88.865L70.5649 89.5874C71.5086 90.2067 71.656 90.3689 71.7592 90.8702C71.8182 91.1946 71.9067 92.2709 71.9509 93.2883C72.0394 94.8512 71.9952 95.382 71.715 96.8269C71.5381 97.7558 71.3464 99.2598 71.1842 101.766L71.022 101.029C70.9336 100.616 70.6829 99.0386 70.4765 97.4904C70.389 96.7834 70.2767 95.9097 70.1653 95.042L70.1632 95.026C70.0314 93.9992 69.9006 92.9813 69.813 92.2562C69.6361 90.9144 69.5034 89.6022 69.5034 89.3515V88.865ZM117.423 129.397C117.511 129.397 117.57 129.441 117.57 129.471C117.57 129.515 117.511 129.677 117.423 129.84C117.349 130.002 116.936 130.459 116.523 130.842C116.11 131.226 115.403 132.066 114.946 132.715C114.488 133.363 113.81 134.528 113.427 135.295C113.058 136.076 112.572 137.197 112.35 137.802C112.129 138.421 111.761 139.645 111.54 140.529C111.304 141.429 110.965 142.918 110.788 143.847C110.596 144.923 110.404 146.84 110.095 152.472L110.08 148.978C110.065 146.073 110.109 145.174 110.345 143.744C110.507 142.785 110.802 141.34 111.009 140.529C111.2 139.718 111.569 138.436 111.82 137.654C112.085 136.887 112.542 135.723 112.837 135.074C113.147 134.425 113.648 133.496 113.958 133.01C114.267 132.523 115.137 131.52 115.904 130.768C116.656 130.017 117.349 129.397 117.423 129.397ZM74.9293 130.931C75.062 130.99 75.5338 131.137 75.9614 131.255C76.389 131.373 76.7723 131.55 76.8313 131.653C76.8903 131.756 77.2441 133.894 77.6275 136.401C77.8178 137.606 78.035 138.986 78.2358 140.262C78.4549 141.654 78.6544 142.922 78.7776 143.699C79.0282 145.203 79.3673 147.4 79.5295 148.565C79.6917 149.744 79.8539 150.895 79.8981 151.116C79.9719 151.499 79.8981 151.558 78.6449 152.177C77.9224 152.546 77.3031 152.826 77.2736 152.811C77.2441 152.782 77.1115 151.882 76.9788 150.777C76.8461 149.686 76.4037 146.073 75.9909 142.741C75.5928 139.423 75.1652 135.944 75.0325 135C74.9145 134.071 74.7818 132.744 74.7376 132.066C74.6786 130.931 74.6934 130.842 74.9293 130.931ZM59.89 135.295C60.0227 135.295 60.5388 135.708 61.0253 136.224C61.5119 136.725 62.3523 137.713 62.8831 138.391C63.4287 139.084 64.2101 140.22 64.6525 140.898C65.08 141.591 65.8468 143.021 66.3481 144.068C66.8641 145.13 67.6013 146.987 68.0142 148.196C68.4123 149.42 68.8841 151.012 69.0758 151.735C69.2527 152.472 69.5328 153.902 69.7098 154.934C69.8867 155.952 70.0636 156.837 70.0931 156.881C70.1374 156.94 71.3022 156.438 72.6734 155.775C74.0594 155.126 76.1531 154.124 77.3179 153.549C78.4974 152.973 80.9892 151.779 82.847 150.895C84.7195 149.995 87.2998 148.771 88.5973 148.167C89.8948 147.562 91.6641 146.84 92.5046 146.545C93.5367 146.206 94.4508 146.014 95.2323 145.955C95.881 145.911 96.9869 145.955 97.6651 146.044C98.3581 146.132 99.7588 146.442 100.761 146.737C101.779 147.017 102.663 147.312 102.722 147.356C102.781 147.415 102.988 148.093 103.18 148.86C103.371 149.641 103.696 150.541 103.917 150.895C104.123 151.234 104.551 151.794 104.86 152.133C105.155 152.457 105.804 153.018 106.291 153.372C106.777 153.711 107.573 154.168 108.06 154.389C108.546 154.61 109.549 154.934 110.272 155.126C111.009 155.318 112.66 155.583 113.958 155.701C115.255 155.834 117.717 156.011 119.413 156.085C121.123 156.173 123.011 156.335 123.615 156.468C124.234 156.586 125.06 156.792 125.458 156.925C125.871 157.058 126.697 157.412 127.301 157.721C127.921 158.031 128.894 158.606 129.483 159.019C130.073 159.432 130.987 160.287 131.518 160.921C132.049 161.54 132.993 162.72 133.612 163.53C134.231 164.341 135.219 165.58 135.809 166.258C136.399 166.951 136.885 167.6 136.885 167.703C136.885 167.806 136.974 167.865 137.062 167.851C137.151 167.821 137.313 167.954 137.401 168.131C137.475 168.293 137.77 168.647 138.035 168.897C138.301 169.148 138.551 169.31 138.61 169.251C138.669 169.192 138.669 169.222 138.61 169.325C138.551 169.428 138.64 169.561 138.846 169.635C139.023 169.708 139.878 170.387 140.719 171.153C141.574 171.905 142.93 173.07 143.727 173.719C144.194 174.091 144.85 174.626 145.482 175.142L145.49 175.148L145.491 175.15C145.932 175.509 146.361 175.859 146.705 176.137L146.846 176.256L147.045 176.422L147.197 176.548L147.694 176.962L147.695 176.964L147.704 176.971C148.442 177.587 149.283 178.287 149.89 178.806C150.995 179.735 152.116 180.87 153.207 182.197C154.121 183.288 155.198 184.703 155.61 185.352C156.023 186.001 157.026 187.859 157.852 189.481C158.677 191.102 159.695 192.96 160.122 193.609C160.535 194.258 161.376 195.29 161.98 195.894C162.585 196.514 163.499 197.251 164.03 197.56C164.546 197.87 165.607 198.327 166.374 198.563C167.155 198.814 168.541 199.123 169.47 199.241C170.886 199.433 171.593 199.433 173.599 199.3C174.94 199.212 176.297 199.138 176.621 199.138C176.975 199.138 177.152 199.197 177.064 199.286C176.99 199.359 176.223 199.521 175.368 199.654C174.528 199.772 172.891 199.875 171.756 199.875C170.576 199.875 169.161 199.787 168.438 199.654C167.76 199.536 166.787 199.33 166.3 199.212C165.814 199.094 165.017 198.799 164.531 198.563C164.044 198.342 163.219 197.826 162.703 197.428C162.186 197.03 161.405 196.278 160.963 195.747C160.52 195.231 159.886 194.361 159.532 193.83C159.179 193.314 158.176 191.515 157.306 189.849C156.436 188.198 155.36 186.266 154.917 185.573C154.475 184.895 153.664 183.789 153.104 183.14C152.558 182.492 151.423 181.297 150.583 180.472C149.742 179.646 148.209 178.275 147.191 177.449C146.916 177.225 146.572 176.944 146.19 176.632C145.143 175.776 143.805 174.683 142.768 173.852C141.367 172.716 139.524 171.124 138.684 170.313C137.844 169.502 136.605 168.219 135.941 167.438C135.263 166.671 134.054 165.182 133.243 164.12C132.432 163.073 131.4 161.82 130.973 161.348C130.398 160.714 130.117 160.508 129.97 160.611C129.793 160.714 129.778 161.068 129.852 162.646C129.911 163.707 130.088 165.462 130.25 166.553C130.412 167.659 130.692 169.148 130.855 169.871C131.017 170.608 131.385 172.126 131.68 173.262C131.961 174.397 132.418 176.358 132.698 177.611C133.022 179.056 133.184 180.059 133.125 180.339C133.066 180.59 132.816 181.003 132.565 181.283C132.3 181.548 130.707 182.846 128.997 184.158C127.301 185.47 125.709 186.738 125.458 186.974C125.193 187.225 124.883 187.638 124.751 187.903C124.588 188.213 124.426 189.215 124.279 190.808C124.161 192.149 123.969 193.697 123.851 194.243C123.748 194.789 123.541 195.614 123.409 196.086C123.291 196.543 123.114 196.971 123.025 197C122.952 197.044 122.745 196.926 122.583 196.75C122.421 196.558 122.288 196.366 122.288 196.307C122.288 196.248 121.861 195.187 121.315 193.948C120.784 192.71 119.634 190.233 118.75 188.448C117.88 186.664 116.582 184.246 115.874 183.067C115.167 181.902 114.179 180.369 112.793 178.422L112.66 179.086C112.601 179.454 112.586 180.354 112.631 181.076C112.69 181.813 112.822 183.037 112.94 183.804C113.058 184.585 113.279 186.443 113.442 187.932C113.604 189.436 113.692 190.704 113.663 190.734C113.619 190.778 113.589 190.719 113.589 190.586C113.589 190.468 113.486 190.306 113.368 190.218C113.206 190.115 113.102 189.613 113.014 188.522C112.926 187.682 112.704 185.794 112.498 184.364C112.292 182.919 112.115 181.076 112.115 180.265C112.115 179.454 112.188 178.496 112.262 178.127C112.409 177.508 112.439 177.479 112.719 177.656C112.881 177.759 113.368 178.304 113.795 178.865C114.238 179.44 114.916 180.398 115.314 181.003C115.727 181.622 116.612 183.081 117.29 184.246C117.968 185.426 118.941 187.284 119.472 188.375C119.988 189.481 120.917 191.501 121.507 192.872C122.097 194.258 122.657 195.452 122.731 195.526C122.819 195.629 122.922 195.555 123.011 195.305C123.084 195.113 123.261 194.376 123.379 193.683C123.512 193.004 123.659 191.574 123.704 190.513C123.763 189.466 123.851 188.375 123.925 188.08C123.999 187.8 124.279 187.298 124.544 186.974C124.824 186.65 126.004 185.662 127.169 184.777C128.333 183.892 129.896 182.683 130.619 182.108C131.356 181.519 132.123 180.87 132.683 180.265L132.344 178.673C132.152 177.818 131.607 175.577 131.135 173.704C130.663 171.846 130.147 169.62 129.985 168.765C129.823 167.924 129.601 166.494 129.513 165.595C129.424 164.71 129.351 163.029 129.366 159.771L128.599 159.196C128.171 158.886 127.463 158.444 127.006 158.222C126.564 158.001 125.842 157.692 125.385 157.544C124.942 157.382 124.013 157.161 123.32 157.043C122.642 156.925 120.209 156.733 117.939 156.601C115.668 156.483 113.22 156.32 112.483 156.232C111.761 156.158 110.773 155.996 110.316 155.878C109.844 155.745 108.945 155.451 108.325 155.215C107.691 154.964 106.748 154.492 106.217 154.138C105.701 153.799 104.89 153.15 104.433 152.708C103.99 152.251 103.445 151.558 103.238 151.145C103.032 150.747 102.693 149.818 102.472 149.081C102.265 148.359 102.074 147.739 102.059 147.725C102.029 147.71 101.086 147.459 99.9505 147.164C98.8152 146.884 97.3997 146.604 96.7804 146.56C96.1464 146.501 95.2175 146.545 94.5688 146.648C93.9643 146.751 93.1091 146.958 92.652 147.105C92.2097 147.253 90.5583 147.975 88.9659 148.727C87.3883 149.479 85.56 150.334 84.9112 150.629C84.2625 150.939 81.52 152.251 78.7923 153.563L78.4921 153.708L78.4857 153.712L78.4793 153.715C75.846 154.988 72.9178 156.405 70.1669 157.78L70.2406 159.328C70.2848 160.183 70.2996 162.41 70.2848 164.268C70.2553 166.966 70.1963 167.983 69.9604 169.207C69.7982 170.062 69.4591 171.374 69.2085 172.126C68.9726 172.878 68.5302 173.969 68.2353 174.559C67.9404 175.149 67.2917 176.211 66.8051 176.904C66.3038 177.611 65.8173 178.201 65.7141 178.201C65.6108 178.201 65.5224 178.157 65.5371 178.098C65.5371 178.039 65.8615 177.552 66.2596 177.022C66.6577 176.505 67.277 175.473 67.6603 174.736C68.0289 174.014 68.5007 172.923 68.6924 172.303C68.8988 171.699 69.1937 170.578 69.3559 169.797C69.5181 169.03 69.7245 167.379 69.813 166.111C69.9309 164.4 69.9309 163.132 69.813 161.024C69.7098 159.49 69.6066 158.178 69.5771 158.119C69.5328 158.06 68.3975 158.547 67.041 159.196C65.6846 159.859 62.7504 161.26 60.5093 162.307C58.2829 163.368 54.1397 165.374 51.2941 166.789C48.4631 168.19 45.4258 169.797 44.5559 170.342C43.686 170.903 42.4327 171.743 41.7544 172.23C41.091 172.716 39.6755 173.984 38.6139 175.031C37.051 176.594 36.4022 177.39 35.149 179.233C34.2938 180.486 33.2912 181.902 32.9078 182.374C32.5245 182.831 31.7283 183.553 31.1385 183.966C30.5487 184.379 29.7083 184.91 29.2512 185.131C28.8089 185.352 27.1575 186.06 25.5651 186.679C23.9875 187.313 21.8643 188.242 20.8469 188.758C19.8443 189.274 18.016 190.35 16.7922 191.161C15.5832 191.958 14.0498 193.063 13.401 193.624C12.7523 194.169 11.8381 194.98 11.381 195.437C10.9092 195.894 10.4964 196.248 10.4521 196.233C10.4079 196.204 10.3784 196.233 10.3784 196.263C10.3784 196.307 10.3047 196.44 10.2015 196.543C10.0983 196.661 9.96558 196.72 9.9066 196.691C9.84763 196.661 9.78865 196.705 9.78865 196.779C9.78865 196.867 9.06617 197.767 8.16677 198.77C7.28211 199.787 6.48591 200.613 6.39744 200.613C6.32372 200.613 6.25 200.568 6.25 200.509C6.25 200.45 6.35321 200.303 6.48591 200.17C6.63335 200.052 7.25262 199.286 7.88663 198.475C8.50589 197.664 9.74442 196.307 10.6291 195.437C11.5137 194.582 12.9292 193.329 13.7696 192.651C14.6248 191.987 16.114 190.911 17.0871 190.262C18.0602 189.628 19.7558 188.64 20.8469 188.095C21.9528 187.534 24.0317 186.605 25.4914 186.03C26.9511 185.441 28.6762 184.689 29.3249 184.35C30.1654 183.907 30.8436 183.406 31.684 182.551C32.4065 181.843 33.3649 180.649 34.1169 179.528C34.7951 178.525 35.5766 177.39 35.8714 177.022C36.1663 176.668 36.5055 176.27 36.6234 176.166C36.8151 176.004 36.8151 175.989 36.6234 176.063C36.5055 176.122 37.11 175.488 37.9504 174.648C38.8056 173.807 40.0294 172.716 40.6781 172.23C41.3269 171.728 42.2558 171.065 42.7423 170.74C43.2289 170.416 44.3347 169.723 45.1751 169.207C46.0303 168.706 48.1535 167.57 49.8933 166.701C51.6479 165.831 53.2993 165.02 53.5794 164.902C53.8743 164.784 56.8822 163.354 60.2881 161.732L60.8755 161.452C64.0804 159.926 67.1753 158.452 67.9257 158.105C68.7072 157.721 69.4001 157.338 69.4444 157.235C69.4886 157.131 69.3559 156.085 69.1495 154.905C68.9283 153.74 68.5302 151.941 68.2353 150.924C67.9552 149.921 67.3359 148.093 66.8494 146.869C66.3628 145.66 65.5076 143.832 64.9326 142.815C64.3428 141.812 63.5024 140.456 63.0453 139.822C62.5882 139.173 61.6299 137.978 60.9221 137.168C60.1997 136.342 59.6246 135.59 59.6246 135.487C59.6246 135.383 59.7426 135.295 59.89 135.295ZM92.3276 157.633H92.7847C93.1828 157.633 93.2418 157.692 93.2418 158.001C93.2418 158.208 93.1681 158.871 93.0943 159.476C92.9911 160.301 93.0059 161.098 93.1681 162.543C93.3008 163.619 93.5514 165.138 93.7431 165.934C93.9348 166.715 94.4066 168.16 94.7899 169.133C95.1733 170.106 95.5124 171.006 95.5567 171.124C95.6009 171.257 95.5272 171.227 95.3797 171.05C95.247 170.888 94.8784 170.224 94.5688 169.576C94.2739 168.927 93.8021 167.777 93.5367 166.995C93.286 166.229 92.9322 164.975 92.7847 164.194C92.6078 163.309 92.4603 161.85 92.4161 160.213L92.3276 157.633ZM80.311 164.223C80.5174 164.253 80.6304 164.391 80.6501 164.636C80.6796 164.843 80.5911 166.008 80.4732 167.217C80.3552 168.44 80.134 170.269 79.9719 171.271C79.8097 172.289 79.5443 173.734 79.3821 174.486C79.2199 175.238 78.9545 176.358 78.7923 176.992C78.6154 177.611 78.2468 178.865 77.9519 179.749C77.6717 180.649 77.0082 182.241 76.4922 183.288C75.9466 184.408 75.2389 185.603 74.7671 186.163C74.3395 186.694 73.6613 187.372 73.2632 187.682C72.8651 187.977 72.4522 188.227 72.349 188.227C72.2458 188.227 72.5997 187.814 73.1452 187.313C73.676 186.797 74.3985 185.986 74.7376 185.5C75.0915 185.013 75.6518 184.055 75.9909 183.362C76.3447 182.683 76.8166 181.578 77.0525 180.929C77.2884 180.28 77.6865 179.027 77.9224 178.127C78.1583 177.243 78.5122 175.68 78.7186 174.662C78.925 173.66 79.1904 172.23 79.3084 171.492C79.4263 170.77 79.618 169.148 79.7507 167.88C79.8687 166.627 79.9866 165.285 79.9866 164.887C80.0014 164.253 80.0308 164.179 80.311 164.223ZM63.93 16.1015C63.6056 15.379 63.0011 14.1847 62.5883 13.4475C61.9985 12.3859 61.8363 12.209 61.8363 12.5334C61.8363 12.7545 61.9395 13.6834 62.0575 14.5976C62.0982 14.9083 62.1636 15.4196 62.2439 16.0476L62.2445 16.052L62.246 16.0641L62.2466 16.0691L62.247 16.0715L62.248 16.0797L62.2487 16.0854L62.2489 16.0866L62.2493 16.0903C62.4009 17.2758 62.604 18.8637 62.7947 20.3036C62.9038 21.1711 63.06 22.4257 63.237 23.8478L63.2378 23.8546L63.2385 23.8598L63.24 23.8721L63.2412 23.8818C63.5176 26.1025 63.8441 28.7259 64.1217 30.9196C64.564 34.532 65.0506 38.336 65.198 39.3829C65.3307 40.4297 65.5224 41.3734 65.5961 41.4766C65.6698 41.5798 66.2596 41.9631 66.8936 42.3317L68.0289 43.01C68.0289 38.3802 67.9257 35.6525 67.8078 33.9422C67.6898 32.2466 67.5129 30.2561 67.4392 29.5189C67.3507 28.7964 67.1148 27.263 66.9084 26.1277C66.702 24.9924 66.3481 23.341 66.1122 22.4416C65.8763 21.5569 65.4192 20.053 65.0948 19.1241C64.7852 18.1952 64.2544 16.8387 63.93 16.1015ZM61.7773 40.356C61.8511 40.3412 62.3229 40.5772 62.8094 40.872C63.296 41.1522 63.8268 41.4323 63.989 41.4766C64.1512 41.5208 64.7704 41.8304 65.3897 42.1548C65.9942 42.4792 67.3507 43.3344 68.4123 44.0421C69.4592 44.7498 70.6682 45.6935 71.0958 46.1505C71.5823 46.6666 71.9362 47.2269 72.0542 47.6102C72.1574 47.9493 72.2311 48.7013 72.2311 49.2616C72.2163 50.0578 72.1279 50.5001 71.8183 51.1489C71.5676 51.7092 71.1695 52.2105 70.6977 52.6233C70.2848 52.9624 69.9605 53.3163 69.9605 53.39C69.9605 53.4785 70.2848 53.9208 70.6977 54.3926C71.258 55.0561 71.4644 55.41 71.5823 56.0145C71.6561 56.4421 71.7298 57.0761 71.7298 57.4152C71.7298 57.9755 71.6856 58.0492 71.3169 58.1082C71.0958 58.1524 70.5945 58.4031 70.1964 58.6685C69.6803 59.0076 69.4592 59.0961 69.3854 58.9634C69.3265 58.8602 68.7072 58.7127 67.8962 58.6243C67.1148 58.5358 65.832 58.3736 65.0211 58.2557C64.2102 58.1525 63.355 57.9903 63.1338 57.9018C62.9127 57.8133 62.6915 57.6364 62.6473 57.4889C62.603 57.3415 62.4408 56.8844 61.9985 55.6754L62.3524 55.2036C62.5588 54.9382 62.78 54.4811 62.8389 54.1715C62.8979 53.8618 63.0159 53.6112 63.1043 53.6112C63.2026 53.621 63.2026 53.5719 63.1043 53.4637C62.9864 53.3605 62.5883 53.3605 61.7331 53.508C60.583 53.6849 60.5093 53.6849 60.1112 53.3753C59.8901 53.2131 59.6836 52.9182 59.6541 52.7118C59.6247 52.5201 59.7131 52.2694 59.8606 52.1367C60.008 52.0188 60.4356 51.9156 60.8779 51.9008C61.1297 51.8918 61.3595 51.8829 61.5039 51.8772C61.5963 51.8736 61.6536 51.8713 61.6594 51.8713C61.6741 51.8566 61.6446 51.7681 61.5857 51.6649C61.5267 51.5617 61.4824 51.3848 61.4824 51.2668C61.4824 51.1341 61.3645 51.0309 61.2171 51.0014C61.0106 50.9719 60.9811 51.0162 61.1138 51.2521C61.2465 51.5322 61.2023 51.547 60.701 51.5322C60.3914 51.5175 59.9638 51.5912 59.7426 51.6797C59.5215 51.7681 59.2855 52.004 59.2118 52.181C59.1234 52.4021 59.1528 52.6823 59.3003 53.0214C59.433 53.3163 59.5215 53.7144 59.5215 53.9061C59.5067 54.1272 59.5509 54.201 59.6099 54.083C59.6836 53.9503 59.8753 53.9208 60.3029 53.9798C60.642 54.0388 61.1876 53.9945 61.5857 53.8913C61.969 53.7734 62.3229 53.7291 62.3671 53.7586C62.4113 53.8029 62.3376 54.0977 62.2049 54.4221C62.087 54.7465 61.8363 55.1741 61.6446 55.351C61.4677 55.528 60.9369 55.8228 60.4503 55.9998C59.8016 56.2357 59.3593 56.2947 58.8285 56.2357C58.4156 56.1914 57.7669 56.0145 57.3835 55.8523C56.779 55.5722 56.6758 55.469 56.5726 54.9824C56.5283 54.6728 56.4841 53.6702 56.4841 52.7265C56.4841 51.7976 56.5726 50.4854 56.661 49.8219C56.7495 49.1584 56.8675 48.5981 56.9117 48.5981C56.9412 48.5981 57.3245 48.9077 57.7521 49.2616C58.2239 49.6744 58.9759 50.102 59.6689 50.3674C60.3029 50.6181 60.9664 50.8245 61.1433 50.8245C61.3498 50.8245 61.4235 50.7655 61.335 50.6918C61.2465 50.6328 60.8484 50.4411 60.4503 50.2937C60.0375 50.1463 59.3445 49.8219 58.9022 49.5565C58.4451 49.2911 57.8701 48.8487 57.6047 48.5539C57.2656 48.1705 57.1329 47.8756 57.1329 47.5365C57.1329 47.2711 57.2803 46.4602 57.472 45.7229C57.6637 45.0005 57.9291 44.1895 58.0618 43.9241C58.2682 43.5113 58.2829 43.4376 58.0912 43.4376C57.9585 43.4376 57.6342 43.7914 57.3688 44.219C57.0886 44.6466 56.6758 45.3691 56.4399 45.8409C56.204 46.298 55.9975 46.6666 55.9828 46.6518C55.9681 46.6371 56.145 46.0473 56.3956 45.3543C56.6315 44.6761 56.9854 43.8946 57.1771 43.6292C57.354 43.3638 57.7226 43.0542 57.988 42.9215C58.2387 42.8036 58.5926 42.7003 58.7547 42.7003C58.9169 42.7003 59.1381 42.5529 59.256 42.376C59.374 42.1843 59.4477 41.8747 59.4035 41.6682C59.3593 41.4766 59.3003 41.2701 59.2708 41.2259C59.2413 41.1964 58.9464 41.0637 58.6073 40.931C58.2829 40.8131 58.0028 40.6656 58.0028 40.6066C58.0028 40.5477 58.2534 40.5919 58.5631 40.7246C58.8727 40.8573 59.2708 41.049 59.4477 41.1669C59.7279 41.3439 59.7426 41.4176 59.5952 41.6093C59.4772 41.7567 59.4625 41.8304 59.5657 41.8304C59.6541 41.8304 59.949 41.5945 60.2292 41.3291C60.5093 41.049 60.9369 40.7246 61.1876 40.5919C61.4235 40.4592 61.6889 40.356 61.7773 40.356ZM60.878 46.3274C60.5536 46.121 60.5094 46.0031 60.5094 45.2953C60.5094 44.8383 60.5536 44.4844 60.6126 44.4844C60.6716 44.4844 60.8338 44.5434 60.9517 44.6023C61.1434 44.7203 61.1286 44.7498 60.9075 44.8235C60.7011 44.8972 60.6716 45.0299 60.7453 45.3985C60.8043 45.6639 60.937 45.9736 61.0402 46.1063C61.1434 46.2242 61.2318 46.3717 61.2466 46.4306C61.2466 46.4896 61.0844 46.4454 60.878 46.3274ZM67.6899 45.546C67.4245 45.5165 66.8789 45.3101 66.4808 45.0742C66.068 44.8235 65.8616 44.6318 65.9943 44.6318C66.1417 44.6318 66.5693 44.794 66.9527 45.0152C67.5572 45.3543 67.7194 45.3838 68.0585 45.2364C68.4418 45.0742 68.4713 45.0889 68.4713 45.4723C68.4713 45.6934 68.3976 45.9736 68.3239 46.1063C68.2059 46.2685 68.1764 46.239 68.1764 45.9588C68.1764 45.6492 68.088 45.5755 67.6899 45.546ZM67.336 49.6007C67.6899 49.3943 67.9848 49.0699 68.1322 48.716C68.2649 48.4064 68.3976 48.1705 68.4271 48.1705C68.4566 48.1705 68.4418 48.4064 68.3976 48.716C68.3386 49.1289 68.1617 49.3943 67.7046 49.7924C67.3655 50.0725 67.0411 50.3084 66.9822 50.3084C66.9232 50.3084 66.8347 50.3379 66.7905 50.3821C66.7462 50.4116 67.0559 50.5738 67.4687 50.7213C68.2354 50.9719 68.2649 50.9719 69.238 50.6475C69.7836 50.4559 70.2259 50.3379 70.2259 50.3821C70.2407 50.4116 69.9163 50.6475 69.5329 50.8835C69.1496 51.1194 68.604 51.3405 68.3239 51.3848C68.0437 51.4142 67.6456 51.4142 67.4392 51.37C67.2328 51.311 66.82 51.0456 66.5103 50.7508C66.2154 50.4706 65.9943 50.161 66.0385 50.0873C66.0827 49.9988 66.2597 49.9251 66.4366 49.9251C66.6283 49.9251 67.0264 49.7776 67.336 49.6007ZM64.1364 58.698C63.4877 58.58 62.8684 58.4916 62.78 58.4916C62.6915 58.4916 62.5735 58.698 62.5146 58.9634C62.4703 59.2288 62.4261 59.7006 62.4261 60.025V60.6148L63.4624 61.0322C66.8408 62.393 68.0522 62.881 68.2943 62.9886L68.7809 63.195C68.7662 61.8828 68.8104 61.0129 68.8694 60.3936L68.9578 59.2878C66.1269 58.9929 64.7852 58.8012 64.1364 58.698ZM73.16 53.7734C73.3861 53.7635 73.5679 53.8962 73.7055 54.1715C73.8087 54.3926 74.1331 55.3658 74.428 56.3389C74.7081 57.312 74.9735 58.3589 75.0325 58.6685C75.0768 58.9781 75.062 59.2288 75.003 59.2288C74.9441 59.2288 74.5755 59.1256 74.1921 59.0076C73.8087 58.8749 73.4991 58.8159 73.4991 58.8454C73.4991 58.8897 73.16 58.7275 72.0247 58.0345L72.0542 56.0145L72.0543 56.0092C72.0984 54.0093 72.0987 53.9944 72.467 53.8913C72.6587 53.8471 72.9831 53.7881 73.16 53.7734ZM77.2589 49.9841C77.5391 49.8071 77.5391 49.8071 77.2442 49.7924C77.0672 49.7924 76.9051 49.8071 76.8756 49.8514C76.8313 49.8809 76.0204 49.9841 75.0473 50.0725C74.0741 50.161 73.1158 50.2642 72.9388 50.3084C72.7472 50.3379 72.6144 50.4854 72.6144 50.6328C72.6144 50.7803 72.467 51.1489 72.3048 51.4732C72.1279 51.7976 71.6856 52.3874 71.3022 52.7708L70.624 53.4785C71.081 54.3189 71.2875 54.5843 71.3907 54.5991C71.5086 54.6285 71.6118 54.4369 71.6561 54.0977L71.7298 53.5375L73.7203 53.3016C76.2268 50.8687 77.0967 50.0725 77.2589 49.9841ZM104.285 13.8898C104.33 13.9046 104.728 14.5533 105.17 15.3053C105.473 15.831 106.082 16.8629 106.719 17.9444C107.012 18.4401 107.31 18.9463 107.588 19.419C108.488 20.9229 109.431 22.648 109.697 23.2525C109.962 23.857 110.213 24.7565 110.272 25.243C110.345 25.877 110.301 26.4078 110.124 27.0861C109.991 27.6169 109.667 28.4425 109.402 28.9291C109.122 29.4157 108.546 30.1381 108.119 30.5362C107.677 30.9196 106.939 31.4356 106.482 31.6716C106.01 31.9075 105.214 32.2024 104.713 32.3351C104.079 32.4972 103.474 32.5562 102.826 32.4972C102.206 32.4383 101.587 32.2613 101.056 31.9959C100.614 31.7748 99.8178 31.185 99.3018 30.6984C98.7857 30.2119 98.078 29.4452 97.7389 29.0028C97.3997 28.5605 96.3529 27.0713 95.424 25.6853C94.4951 24.2994 93.5072 22.8544 93.2123 22.4416C92.9174 22.0435 92.6078 21.5274 92.3572 20.8934L93.2123 20.746C93.6694 20.6575 94.6131 20.4216 95.306 20.2152C95.999 19.994 97.0901 19.5812 97.7389 19.2568C98.3876 18.9472 99.3165 18.4311 99.8031 18.1067C100.29 17.7971 101.189 17.1041 101.794 16.5881C102.398 16.072 103.194 15.2463 103.548 14.745C103.902 14.2437 104.241 13.8604 104.285 13.8898ZM96.2645 22.3384C96.1023 22.073 95.9548 21.7928 95.9253 21.7338C95.8811 21.6749 95.9254 21.6159 95.9843 21.6159C96.0581 21.6159 96.6478 22.4268 97.2818 23.4294C97.9306 24.4173 98.4909 25.3609 98.5204 25.5231C98.5695 25.7296 98.54 25.7787 98.4319 25.6706C98.3582 25.5969 97.9011 24.9186 97.4293 24.1814C96.9427 23.4442 96.4267 22.6185 96.2645 22.3384ZM95.5715 23.2672C95.1734 22.53 95.0702 22.1909 95.2029 22.1467C95.2782 22.1216 95.4071 22.0964 95.4892 22.0804L95.5273 22.073C95.6157 22.073 95.6305 22.1614 95.542 22.3236C95.4388 22.5153 95.5125 22.7659 95.7779 23.2378C95.9843 23.6064 96.4267 24.2551 96.7658 24.6827C97.1049 25.1103 97.5915 25.5526 97.8569 25.6558C98.2402 25.818 98.2845 25.877 98.078 25.9507C97.8864 26.0244 97.5767 25.8033 96.9722 25.184C96.4856 24.7122 95.8811 23.857 95.5715 23.2672ZM100.054 28.6342C99.9506 28.5015 99.9063 28.3393 99.9506 28.2656C99.9948 28.1771 100.186 28.1181 100.363 28.1181C100.555 28.1181 100.924 28.3983 101.307 28.8111C101.661 29.1945 101.897 29.5483 101.853 29.5926C101.794 29.6221 101.72 29.5778 101.69 29.4746C101.661 29.3714 101.543 29.2977 101.425 29.2977C101.307 29.2977 101.174 29.1797 101.16 29.0323C101.13 28.8849 100.938 28.6489 100.717 28.4868C100.496 28.3246 100.26 28.2361 100.201 28.2951C100.142 28.3541 100.172 28.5752 100.275 28.7816C100.378 28.9733 100.644 29.2387 100.865 29.3567C101.086 29.4746 101.322 29.5336 101.396 29.4746C101.454 29.4157 101.484 29.4746 101.425 29.6221C101.351 29.858 101.307 29.858 100.938 29.6663C100.717 29.5336 100.467 29.4451 100.393 29.4451C100.304 29.4451 100.083 29.2682 99.8768 29.047C99.6704 28.8259 99.6262 28.7374 99.7589 28.8554C99.9063 28.9733 100.083 29.0176 100.127 28.9586C100.186 28.8996 100.157 28.7522 100.054 28.6342ZM110.625 12.4449C110.183 12.2237 109.593 12.0468 109.313 12.0468C109.033 12.0468 108.532 12.1795 108.207 12.3269C107.883 12.4744 107.426 12.7545 107.175 12.961C106.939 13.1526 106.556 13.6392 106.335 14.0078C106.099 14.3912 105.922 14.863 105.922 15.0694C105.922 15.2758 106.246 15.9836 106.644 16.6618C107.043 17.3253 107.765 18.5638 108.252 19.419C108.738 20.2742 109.195 20.9524 109.254 20.9524C109.328 20.9377 109.667 20.4806 110.021 19.9203C110.375 19.36 110.802 18.608 110.979 18.2394C111.23 17.7086 111.304 17.3105 111.304 16.3079C111.304 15.1874 111.259 14.9809 110.906 14.4354C110.67 14.0963 110.272 13.7129 110.021 13.5802C109.711 13.4328 109.372 13.3738 109.092 13.4328C108.856 13.477 108.399 13.7129 108.104 13.9636C107.795 14.1995 107.544 14.4944 107.544 14.5976C107.559 14.686 107.78 14.9957 108.06 15.2611C108.443 15.6002 108.576 15.8656 108.576 16.2195C108.591 16.4996 108.473 16.7797 108.325 16.9272C108.178 17.0451 107.883 17.2368 107.662 17.3253C107.396 17.4285 107.249 17.4432 107.249 17.3548C107.249 17.2811 107.485 17.0746 107.765 16.9124C108.134 16.706 108.281 16.5143 108.281 16.2489C108.281 15.9983 108.075 15.7182 107.618 15.3348C107.087 14.8925 106.969 14.7155 107.043 14.4796C107.087 14.3174 107.308 13.9931 107.529 13.7571C107.736 13.5212 108.193 13.2116 108.546 13.0642C109.092 12.8135 109.239 12.8135 109.785 12.9757C110.168 13.0789 110.581 13.3738 110.92 13.7571C111.215 14.0815 111.54 14.6123 111.628 14.9367C111.731 15.2463 111.82 15.9393 111.82 16.4701C111.82 17.0009 111.717 17.7234 111.599 18.092C111.466 18.4606 111.068 19.1831 110.714 19.7139C110.345 20.2447 109.991 20.8787 109.918 21.1146C109.839 21.4095 109.869 21.8272 110.006 22.3679C110.124 22.8102 110.301 23.2673 110.39 23.3705C110.507 23.4983 110.738 23.5278 111.083 23.4589C111.363 23.4 111.776 23.2673 112.011 23.1641C112.277 23.0166 112.483 22.7512 112.631 22.2941C112.822 21.7044 112.822 21.6159 112.631 21.4832C112.513 21.4095 112.247 21.3652 112.041 21.4095C111.834 21.4537 111.613 21.6454 111.525 21.8518C111.451 22.0582 111.407 22.2941 111.451 22.3679C111.495 22.4563 111.466 22.5153 111.377 22.5153C111.304 22.5153 111.23 22.3826 111.23 22.2204C111.23 21.9993 111.141 21.9403 110.906 21.9698C110.611 21.9993 110.566 21.9403 110.625 21.5569C110.64 21.321 110.773 20.9082 110.891 20.6723C111.024 20.4363 111.333 19.935 111.569 19.5664C111.82 19.1978 112.188 18.5048 112.38 18.0183C112.645 17.3695 112.749 16.8535 112.749 16.1015C112.749 15.379 112.66 14.863 112.454 14.4059C112.292 14.0373 111.997 13.5507 111.79 13.3001C111.599 13.0642 111.068 12.6808 110.625 12.4449ZM91.8411 22.3679C92.1802 22.3679 92.4309 22.5301 92.9469 23.0903C93.3155 23.4737 94.3034 24.8302 95.1586 26.0982C96.0138 27.3515 96.692 28.4425 96.6773 28.5163C96.6625 28.5752 96.2054 28.7079 95.6452 28.8112C95.0996 28.9144 94.1855 29.0913 93.6104 29.2092C93.0354 29.3419 92.4751 29.4452 92.3572 29.4452C92.1655 29.4304 92.1655 29.4157 92.3572 29.2535C92.5341 29.106 92.5636 28.8406 92.4899 27.897C92.4456 27.2482 92.4014 26.8059 92.3866 26.9091C92.3719 26.9976 92.0033 27.4104 91.5905 27.8233C91.1629 28.2214 90.7795 28.5605 90.7353 28.5605C90.691 28.5605 90.5731 28.3836 90.4699 28.1624C90.3667 27.9412 90.3224 27.7201 90.3667 27.6758C90.4109 27.6316 90.5583 27.7201 90.691 27.8528C90.8385 28.0002 91.0302 28.1034 91.1039 28.1034C91.1776 28.1034 91.1039 27.9707 90.927 27.8233C90.6173 27.5579 90.6173 27.5136 90.8237 27.3515C90.9564 27.2482 91.3693 26.9828 91.7526 26.7617C92.1212 26.5405 92.652 26.2456 92.9322 26.0982C93.2123 25.9507 93.5515 25.6706 93.6842 25.4642C93.8169 25.2578 93.9348 24.9776 93.9201 24.8449C93.9053 24.6975 93.8168 24.5795 93.7284 24.5795C93.6252 24.5795 93.5367 24.7417 93.5367 24.9481C93.5367 25.1693 93.404 25.4052 93.2123 25.5379C93.0207 25.6706 92.7405 25.7591 92.5783 25.7296C92.4161 25.7001 92.2539 25.5526 92.2245 25.3905C92.195 25.184 92.3719 24.9186 92.8142 24.55C93.1681 24.2404 93.3598 23.9897 93.2418 23.9897C93.1239 24.0045 92.9174 23.857 92.7995 23.6801C92.6226 23.4295 92.4161 23.3557 91.7674 23.3557C91.1186 23.341 90.8532 23.4147 90.4699 23.6949C90.2045 23.9013 89.8064 24.4321 89.6 24.8744C89.3788 25.3167 89.2019 25.7001 89.2019 25.7296C89.1871 25.7591 89.0102 25.7443 88.789 25.7001C88.4499 25.6264 88.3762 25.5379 88.3762 25.1693C88.3762 24.9334 88.4646 24.55 88.5826 24.3289C88.7006 24.093 89.0102 23.6949 89.2903 23.4295C89.5557 23.1641 90.1455 22.8249 90.5878 22.6628C91.0302 22.5006 91.6052 22.3826 91.8411 22.3679ZM92.5783 23.8865C92.3719 23.7833 92.0328 23.6949 91.8116 23.6949C91.5757 23.6949 91.1924 23.8128 90.9417 23.9308C90.691 24.0635 90.2782 24.4763 90.0275 24.8597C89.7769 25.2283 89.5557 25.5821 89.5557 25.6559C89.5557 25.7148 89.7032 25.7591 89.8949 25.7738H90.2192C89.7032 26.054 89.5557 26.2456 89.5557 26.3931C89.5557 26.5995 89.6294 26.57 89.9833 26.2456C90.234 26.0097 90.3962 25.8033 90.3667 25.7591C90.3372 25.7148 90.5731 25.5526 90.9122 25.3905C91.2513 25.2283 91.6199 24.9924 91.7526 24.8744C91.8706 24.7565 92.0033 24.6532 92.0475 24.6385C92.0918 24.6385 92.3277 24.5353 92.5488 24.4173C92.77 24.2994 92.9617 24.1814 92.9617 24.1372C92.9617 24.093 92.7848 23.975 92.5783 23.8865ZM91.5757 25.4642C91.6937 25.4642 91.7674 25.6411 91.7674 25.9065C91.7674 26.2751 91.6199 26.4521 90.2192 27.5136L89.9538 27.1893C89.7032 26.8796 89.7032 26.8501 89.9538 26.5848C90.1013 26.4373 90.4846 26.1129 90.7943 25.8918C91.1186 25.6559 91.4577 25.4642 91.5757 25.4642ZM89.3198 26.3931C89.2756 26.1277 89.1576 26.054 88.8627 26.054C88.6268 26.054 88.2287 26.1867 87.9781 26.3488C87.7127 26.511 87.3146 26.9239 87.0934 27.263C86.769 27.7348 86.6806 28.0592 86.6806 28.6342C86.6806 29.1355 86.7985 29.6516 87.0492 30.1676L87.4178 30.9491C88.4499 30.8164 88.9512 30.7722 89.1871 30.7722C89.4378 30.7722 89.7327 30.7132 89.8506 30.6395C90.0423 30.5215 90.0423 30.4625 89.8211 30.1234C89.6737 29.917 89.4083 29.5631 89.2314 29.3567C89.0397 29.1503 88.8038 28.6932 88.7153 28.3246C88.5973 27.9412 88.5826 27.7053 88.6711 27.7496C88.7448 27.7938 88.8185 27.7348 88.8185 27.6463C88.8038 27.5431 88.9365 27.2925 89.0839 27.0861C89.2461 26.8796 89.3346 26.57 89.3198 26.3931ZM92.2392 27.6758C92.2982 27.6758 92.3572 27.8528 92.3572 28.0887C92.3572 28.3098 92.3129 28.6195 92.2834 28.7817C92.2392 28.9439 92.0475 29.165 91.8411 29.2682C91.5167 29.4304 91.443 29.4009 91.1776 29.1208C91.0302 28.9291 90.8975 28.7374 90.8827 28.6785C90.8827 28.6047 91.0007 28.531 91.1481 28.4868C91.2808 28.4573 91.561 28.2509 91.7526 28.0444C91.9443 27.838 92.1655 27.6758 92.2392 27.6758ZM89.9981 28.0297C89.7916 27.6463 89.5557 27.3072 89.4673 27.2777C89.3788 27.2482 89.2314 27.4399 89.1281 27.7053C89.0102 28.0297 88.9954 28.3098 89.0986 28.5605C89.1724 28.7669 89.423 29.1503 89.6589 29.4157C90.057 29.8875 90.1013 29.8875 90.5878 29.7253C90.868 29.6221 91.1186 29.5189 91.1481 29.5041C91.1629 29.4746 91.0007 29.283 90.7795 29.0913C90.5436 28.8849 90.2045 28.4131 89.9981 28.0297ZM96.5298 29.0176C97.0016 29.0028 97.1491 29.0913 97.6651 29.7106C97.9895 30.0939 98.2549 30.4773 98.2549 30.551C98.2549 30.6395 98.0927 30.7869 97.8863 30.8901C97.8432 30.9086 97.8008 30.927 97.7602 30.9447C97.6063 31.0117 97.479 31.067 97.444 31.067C97.3997 31.067 97.3702 30.9638 97.3702 30.8459C97.3702 30.7279 97.444 30.6247 97.5177 30.6247C97.5914 30.6247 97.6357 30.5657 97.5914 30.4773C97.5472 30.4035 97.4145 30.3298 97.2965 30.3298C97.1786 30.3298 96.9722 30.2266 96.8542 30.1087C96.7362 29.9907 96.4708 29.8875 96.2644 29.8875C96.058 29.8875 95.1438 30.0202 94.2444 30.1676C93.3303 30.3151 92.0623 30.492 91.443 30.5362C90.4846 30.61 90.293 30.5952 90.293 30.4035C90.293 30.2856 90.4404 30.1087 90.6321 30.0202C90.809 29.9317 91.5905 29.7843 92.3572 29.7106C93.1239 29.6368 94.2592 29.4452 94.8637 29.2977C95.4682 29.1503 96.2202 29.0176 96.5298 29.0176ZM96.9279 31.3324C96.9279 31.2587 96.81 31.2145 96.6773 31.2145C96.5298 31.2145 96.2497 31.3029 96.058 31.4062C95.8663 31.5094 95.6746 31.7305 95.6452 31.878C95.6157 32.0549 95.7189 32.3056 95.8958 32.4678C96.1612 32.7184 96.2792 32.7332 96.6035 32.6005C96.8247 32.512 96.9869 32.3645 96.9721 32.2761C96.9427 32.1729 97.0459 32.1139 97.1786 32.1434C97.326 32.1581 97.444 32.0697 97.4734 31.9222C97.5029 31.7748 97.4145 31.6126 97.2965 31.5536C97.1343 31.4651 96.8837 31.5978 96.5151 31.9517L95.9695 32.4678C96.7068 31.6716 96.9279 31.3914 96.9279 31.3324ZM97.96 31.067C98.1222 31.067 98.2549 31.1113 98.2549 31.185C98.2549 31.244 98.1959 31.3914 98.1222 31.5094C98.0485 31.6273 97.9158 31.6863 97.8273 31.6273C97.7389 31.5536 97.6651 31.4062 97.6651 31.2882C97.6651 31.1703 97.7978 31.067 97.96 31.067ZM116.523 27.8675C116.597 27.7201 116.685 27.322 116.7 26.9828C116.73 26.629 116.774 26.3488 116.818 26.3488C116.862 26.3341 117.01 26.452 117.128 26.5847C117.246 26.7174 117.659 26.9828 118.057 27.1745C118.44 27.3662 118.75 27.6021 118.75 27.6758C118.75 27.7643 118.646 27.9265 118.528 28.0444C118.41 28.1624 118.263 28.5163 118.13 29.3714L117.26 28.8259C116.789 28.5163 116.391 28.2361 116.391 28.1919C116.391 28.1476 116.449 28.0002 116.523 27.8675ZM111.289 34.2961C111.466 34.2961 111.82 34.355 112.085 34.414C112.351 34.473 112.572 34.6057 112.572 34.7089C112.572 34.8121 112.174 35.3134 111.702 35.8147C111.2 36.3455 110.463 36.9353 109.962 37.2007C109.49 37.4514 108.871 37.7315 108.591 37.8052C108.296 37.8937 107.883 37.9969 107.264 38.1296L107.352 37.4366C107.396 37.0533 107.529 36.5814 107.647 36.4045C107.75 36.2276 107.957 36.0654 108.104 36.0654C108.252 36.0654 108.768 35.8295 109.254 35.5346C109.741 35.2397 110.316 34.8416 110.552 34.6499C110.773 34.4582 111.112 34.2961 111.289 34.2961ZM109.298 33.4851L108.502 32.7332L107.868 33.087C107.529 33.264 107.249 33.4999 107.249 33.5736C107.249 33.662 107.382 33.9864 107.544 34.3108C107.706 34.6352 107.854 35.0628 107.883 35.2692C107.898 35.5641 107.971 35.6231 108.207 35.5493C108.37 35.4903 108.827 35.2839 109.225 35.0628C109.623 34.8563 109.977 34.5762 110.021 34.4582C110.065 34.3255 109.77 33.9422 109.298 33.4851ZM113.501 34.6057C113.589 34.6057 113.884 34.7384 114.149 34.9006C114.415 35.048 114.695 35.3724 114.783 35.5936C114.901 35.9032 114.887 36.1391 114.724 36.5814C114.577 36.9648 114.105 37.5546 113.412 38.2033C112.66 38.9258 111.952 39.4271 111.083 39.8547C110.404 40.2085 109.343 40.6214 108.738 40.7836C108.119 40.9458 107.514 41.0932 107.367 41.0932C107.219 41.0785 106.939 40.8426 106.733 40.5329C106.527 40.2233 106.32 39.7072 106.261 39.3681C106.158 38.7931 106.173 38.7341 106.527 38.6604C106.718 38.6162 107.337 38.5129 107.883 38.4392C108.429 38.3508 109.225 38.1296 109.652 37.9379C110.08 37.7462 110.758 37.3334 111.171 37.009C111.569 36.6846 112.218 36.0211 112.616 35.5198C112.999 35.0038 113.397 34.5909 113.501 34.6057ZM141.161 25.3167C139.908 25.243 138.463 25.184 137.962 25.1693C137.165 25.1693 137.033 25.2135 137.033 25.4347C137.033 25.5674 137.372 26.9828 137.77 28.5605C138.183 30.1381 138.654 32.0402 138.817 32.7626C138.979 33.4999 139.244 35.0185 139.406 36.1538C139.554 37.2892 139.76 39.7072 139.864 41.5355C139.996 44.0863 139.996 45.3248 139.864 46.8877C139.716 48.5391 139.583 49.2321 139.097 50.7213C138.758 51.7534 138.183 53.0804 137.755 53.8471C137.342 54.5843 136.31 56.1325 135.47 57.312C134.644 58.4916 133.671 59.9807 133.347 60.6295C132.845 61.5731 132.713 62.0155 132.654 62.8412C132.595 63.6226 132.624 63.9912 132.816 64.3598C132.948 64.6105 133.273 64.9938 133.538 65.1855C133.789 65.3772 134.275 65.6131 134.6 65.7163C134.983 65.8343 135.632 65.8785 136.443 65.8343C137.239 65.7753 138.124 65.6131 138.876 65.3477C139.524 65.1413 140.645 64.6547 141.382 64.2861C142.119 63.9175 143.402 63.2098 144.257 62.6937C145.113 62.1777 146.498 61.4257 147.354 61.0129C148.209 60.6148 149.536 60.0987 150.303 59.8628C151.512 59.5089 151.954 59.45 153.546 59.45C154.932 59.45 155.773 59.5384 156.938 59.8038C157.793 59.9955 159.075 60.3641 159.813 60.6295C160.55 60.8949 161.892 61.4847 162.806 61.9418C163.705 62.3988 164.487 62.7379 164.531 62.6937C164.575 62.6495 164.487 62.3693 164.324 62.0745C164.177 61.7648 163.808 60.6442 163.513 59.5974C163.219 58.5505 162.791 56.7517 162.555 55.6164C162.319 54.4811 161.951 52.4611 161.744 51.1194C161.538 49.7776 161.066 46.5339 160.697 43.8946C160.329 41.2554 159.857 38.277 159.65 37.2597C159.444 36.2423 159.134 34.8858 158.943 34.2371C158.751 33.5883 158.397 32.5562 158.147 31.9517C157.896 31.3472 157.424 30.4478 157.114 29.9612C156.79 29.4746 156.215 28.7522 155.817 28.3541C155.419 27.9707 154.77 27.4547 154.357 27.2335C153.959 26.9976 153.251 26.7175 152.809 26.5848C152.367 26.4521 151.305 26.2456 150.45 26.1277C149.595 26.0097 147.678 25.8033 146.174 25.6706C144.67 25.5526 142.414 25.3905 141.161 25.3167ZM81.4021 96.2666C81.4316 96.4141 81.2399 97.0776 80.9745 97.7411C80.5764 98.7437 80.3258 99.1271 79.5443 99.9232C78.8218 100.66 78.3648 100.985 77.7307 101.221C77.2589 101.398 76.5512 101.53 76.1531 101.53C75.7403 101.53 75.4011 101.486 75.4011 101.427C75.4011 101.368 75.4749 101.235 75.5928 101.147C75.696 101.059 76.2121 100.882 76.7429 100.778C77.2884 100.675 78.0404 100.38 78.5122 100.1C78.9545 99.82 79.4706 99.4514 79.6623 99.2745C79.8539 99.0976 80.2373 98.4635 80.5322 97.8443L80.6016 97.6944L80.6022 97.6932L80.6027 97.6922C80.8623 97.1323 81.1281 96.5591 81.1957 96.3699C81.3284 96.075 81.3579 96.0602 81.4021 96.2666ZM58.9907 92.8312C58.5778 92.3889 58.1355 92.0203 58.0175 92.0055C57.8848 91.9908 57.3983 92.1087 56.9117 92.2562C56.4251 92.4036 55.7321 92.5953 55.393 92.6838L54.7738 92.8312C54.3609 94.6153 54.3167 95.1756 54.3904 95.5589C54.4641 95.957 54.6853 96.3404 55.0392 96.6942C55.3635 97.0186 55.8354 97.2987 56.2482 97.402C56.6021 97.5052 57.1034 97.6084 57.354 97.6231C57.5899 97.6526 58.0028 97.5789 58.2682 97.4609C58.5336 97.3577 58.7547 97.1808 58.7547 97.0776C58.7547 96.9449 58.7842 96.9449 58.858 97.0923C58.9464 97.2398 59.1086 97.2398 59.5657 97.1366C59.8901 97.0481 60.2292 96.9007 60.3324 96.7974C60.4503 96.6647 60.4946 96.3551 60.4503 95.9275C60.4209 95.5737 60.2439 94.9102 60.067 94.4531C59.8753 93.9813 59.4477 93.3178 58.9907 92.8312ZM59.3593 94.571C59.3888 94.7922 59.5657 95.1313 59.7722 95.3082C59.9638 95.4852 60.1997 95.6326 60.2882 95.6326C60.3619 95.6474 60.244 95.4704 60.0228 95.2345C59.8016 95.0133 59.6247 94.6742 59.6247 94.4973C59.6247 94.3204 59.551 94.1729 59.4773 94.1729C59.3888 94.1729 59.3446 94.3498 59.3593 94.571ZM50.7485 109.36C50.8075 109.36 51.3088 109.537 51.8544 109.758C52.8128 110.141 52.8422 110.171 52.6211 110.451C52.5031 110.613 52.2377 110.996 52.0313 111.306C51.7217 111.778 51.6774 112.028 51.6774 113.989L49.4216 115.361C48.183 116.113 47.1509 116.658 47.1362 116.57C47.1214 116.496 47.9029 114.83 48.876 112.884C49.8491 110.937 50.7043 109.345 50.7485 109.36ZM54.2872 110.524C54.184 110.451 53.9628 110.392 53.7859 110.392C53.6089 110.392 53.2256 110.657 52.8717 111.04C52.5326 111.409 52.1935 111.881 52.1198 112.073C52.0313 112.279 51.9576 112.795 51.9576 113.223C51.9576 113.842 52.0313 114.063 52.2967 114.314C52.4736 114.491 52.7685 114.668 52.9307 114.712C53.1961 114.8 53.2698 114.609 53.8449 112.736C54.3019 111.173 54.4199 110.628 54.2872 110.524ZM93.4777 127.849L93.5072 128.513C93.5367 128.881 93.5809 129.338 93.6252 129.515C93.6547 129.692 93.9053 130.09 94.1707 130.385C94.4361 130.665 95.0259 131.122 95.4977 131.373C95.9695 131.638 96.3676 131.963 96.4119 132.125C96.4561 132.287 96.4856 132.656 96.4856 132.936C96.5003 133.231 96.633 134.351 96.7952 135.442C96.9427 136.548 97.0754 137.551 97.0754 137.698C97.0754 137.846 97.0164 137.949 96.9427 137.949C96.8542 137.949 96.4413 137.477 96.0285 136.887C95.6009 136.298 94.5246 134.823 93.6252 133.599C92.711 132.39 91.8411 131.152 91.6494 130.842C91.4725 130.533 91.3693 130.179 91.3988 130.031C91.443 129.884 91.9148 129.338 92.4751 128.807L93.4777 127.849ZM95.9843 128.203C95.3355 127.569 94.7163 127.053 94.6278 127.053C94.5246 127.053 94.3034 127.215 94.1265 127.436C93.9053 127.702 93.8168 128.011 93.8168 128.395C93.8316 128.704 93.9348 129.147 94.0528 129.368C94.156 129.589 94.4509 129.958 94.672 130.164C94.9079 130.385 95.3945 130.695 95.7631 130.872C96.117 131.034 96.5151 131.167 96.6478 131.167C96.7657 131.167 97.0311 131.019 97.2375 130.827C97.4292 130.636 97.6799 130.503 97.7831 130.533C97.8863 130.562 98.019 130.474 98.078 130.356C98.1517 130.179 98.0485 130.002 97.6799 129.736C97.385 129.515 96.633 128.822 95.9843 128.203ZM119.089 1.15071C121.816 1.13597 123.335 1.19495 124.544 1.37188C125.444 1.48983 126.859 1.75523 127.67 1.96165C128.481 2.15333 129.675 2.58092 130.324 2.90529C130.973 3.21493 131.843 3.76047 132.241 4.09959C132.654 4.42396 133.17 4.98425 133.42 5.32337C133.671 5.66249 134.025 6.2965 134.216 6.73883C134.408 7.18116 134.688 8.11006 134.836 8.80304C134.983 9.49603 135.175 11.2211 135.249 12.6366C135.314 13.6894 135.405 15.3215 135.483 16.7378C135.51 17.2256 135.536 17.6878 135.558 18.092C135.632 19.6696 135.838 21.896 136.001 23.0314C136.163 24.1667 136.767 26.9828 137.342 29.2977C137.917 31.6126 138.507 34.2223 138.654 35.1217C138.802 36.0211 139.038 38.4687 139.185 40.5772C139.377 43.5113 139.406 44.8678 139.303 46.357C139.23 47.4185 139.141 48.3327 139.097 48.3769C139.053 48.4212 138.699 48.3474 138.286 48.2295C137.888 48.1115 136.723 47.7872 135.706 47.507C134.688 47.2269 132.639 46.7698 131.135 46.4749C129.631 46.1948 127.228 45.8262 125.797 45.664C124.352 45.5018 121.698 45.2954 119.9 45.2216C117.6 45.1037 115.314 45.1184 112.336 45.2216C109.991 45.3101 107.072 45.4723 105.848 45.605C104.639 45.7229 102.575 45.9589 101.278 46.121C99.98 46.2832 98.1222 46.5486 97.1491 46.6961C96.176 46.8583 94.6573 47.1237 93.7579 47.2858C92.8732 47.448 92.0918 47.5807 92.0328 47.5807C91.9591 47.5807 91.9443 47.3301 91.9886 47.0352C92.0328 46.7256 92.136 45.605 92.2097 44.5581C92.2606 43.8799 92.2392 36.5814 92.1212 32.5415C92.0623 32.0991 92.0033 31.5683 92.0033 31.3767C91.9885 31.0375 92.0623 31.0081 93.1681 30.8311C93.8169 30.7427 94.6425 30.551 95.0111 30.4183C95.3798 30.2856 95.8811 30.1824 96.117 30.1824C96.3676 30.1824 96.6773 30.3003 96.8247 30.4478C96.9722 30.5805 97.0901 30.7427 97.0754 30.8164C97.0754 30.8754 96.9427 30.9196 96.7805 30.9196C96.6183 30.9196 96.5151 30.8606 96.5593 30.7722C96.6035 30.6984 96.4561 30.7279 96.2349 30.8606C95.999 31.0081 95.7041 31.067 95.5714 31.0081C95.4092 30.9638 95.3355 30.9786 95.3798 31.067C95.424 31.1555 95.365 31.3324 95.2471 31.4799C95.1144 31.6421 95.0701 31.878 95.1291 32.1434C95.2028 32.4088 95.3945 32.6447 95.6746 32.7921C95.94 32.9248 96.3234 32.9838 96.633 32.9248C96.9132 32.8806 97.2523 32.7479 97.3702 32.6152C97.4882 32.4825 97.6799 32.3793 97.7831 32.394C97.8716 32.394 97.96 32.2761 97.96 32.1434C97.96 31.9959 98.1222 31.701 98.3286 31.4799C98.535 31.244 98.7267 31.067 98.771 31.067C98.8152 31.067 99.1543 31.3029 99.5524 31.6126C99.9358 31.9075 100.614 32.3056 101.056 32.512C101.572 32.7479 102.251 32.9101 102.899 32.9543C103.587 32.9936 104.226 32.9396 104.816 32.7921C105.125 32.708 105.451 32.6179 105.69 32.5519C105.828 32.5139 105.936 32.4839 105.996 32.4678C106.246 32.394 106.379 32.571 106.925 33.8537C107.264 34.6794 107.544 35.4461 107.544 35.5641C107.544 35.682 107.485 35.8147 107.396 35.859C107.323 35.9032 107.116 36.4192 106.939 37.009C106.777 37.584 106.468 38.2328 106.276 38.4392C106.04 38.6899 105.922 38.9848 105.922 39.3681C105.922 39.663 105.996 40.0906 106.099 40.3265C106.187 40.5477 106.438 40.9015 106.644 41.1374C106.851 41.3586 107.161 41.5355 107.323 41.5355C107.485 41.5355 108.089 41.4323 108.65 41.3144C109.225 41.1964 110.345 40.7688 111.156 40.356C111.967 39.9579 112.999 39.3091 113.442 38.911C113.884 38.5129 114.474 37.8642 114.739 37.4661C115.063 36.9648 115.211 36.5667 115.211 36.1981C115.211 35.8884 115.093 35.4461 114.96 35.1955C114.813 34.9596 114.459 34.6204 114.179 34.473C113.899 34.3108 113.486 34.1781 113.265 34.1634C113.029 34.1634 112.822 34.2371 112.778 34.3108C112.734 34.3993 112.586 34.414 112.454 34.3698C112.218 34.2813 112.218 34.2518 112.41 34.1486C112.542 34.0749 112.174 34.0159 111.451 34.0159C110.36 34.0159 110.242 33.9864 109.873 33.6178C109.667 33.3819 109.18 32.7626 108.134 31.2145L108.886 30.3741C109.298 29.9022 109.8 29.224 109.977 28.8554C110.154 28.4868 110.419 27.7348 110.566 27.1598C110.743 26.4226 110.788 25.8623 110.714 25.1693C110.67 24.6385 110.596 24.0782 110.552 23.916C110.507 23.7243 110.522 23.6949 110.596 23.8128C110.684 23.9603 110.861 23.9603 111.377 23.8423C111.761 23.7538 112.203 23.5179 112.424 23.282C112.645 23.0608 112.896 22.6333 112.985 22.3384C113.117 21.8813 113.103 21.7044 112.926 21.4095C112.778 21.1637 112.572 21.0409 112.306 21.0409C112.07 21.0261 111.82 21.1146 111.731 21.2178C111.643 21.321 111.422 21.4537 111.245 21.5274C111.083 21.5864 110.935 21.5864 110.935 21.5274C110.935 21.4537 111.2 20.9819 111.525 20.4511C111.849 19.9203 112.336 19.0651 112.601 18.5343C113.044 17.6497 113.073 17.4727 113.073 16.1015C113.058 14.9072 112.999 14.4944 112.734 13.9341C112.557 13.536 112.159 12.9757 111.864 12.6808C111.554 12.3859 111.038 12.0173 110.714 11.8699C110.375 11.7224 109.77 11.6045 109.313 11.6045C108.841 11.6045 108.252 11.7224 107.912 11.8846C107.588 12.0321 107.057 12.4154 106.748 12.725C106.423 13.0494 106.04 13.595 105.878 13.9636C105.73 14.3322 105.642 14.7303 105.686 14.8482C105.73 14.9662 105.657 14.9072 105.509 14.7008C105.446 14.6032 105.328 14.4265 105.123 14.1225C104.895 13.7834 104.561 13.2859 104.079 12.5629L103.121 12.5923C102.59 12.6071 101.572 12.7988 100.835 13.0052C100.113 13.2116 98.8447 13.7129 98.0337 14.111C97.1343 14.5681 95.9695 15.3201 95.0111 16.072C94.156 16.7503 93.2123 17.5907 92.9027 17.9445C92.5931 18.3132 92.1655 18.9029 91.9443 19.2715C91.561 19.935 91.561 19.935 91.8116 20.5985C91.9591 20.9671 92.1065 21.4095 92.136 21.6012C92.195 21.8666 92.136 21.9403 91.8116 21.9845C91.6485 22.0151 91.4008 22.0527 91.1709 22.0877C91.0683 22.1033 90.9692 22.1183 90.8827 22.132C90.6026 22.1762 90.057 22.4121 89.6737 22.6628C89.2608 22.9134 88.8185 23.3705 88.6121 23.7391C88.4057 24.0782 88.2287 24.6385 88.1992 24.9924C88.155 25.5379 88.0813 25.6853 87.58 26.0245C87.2704 26.2456 86.828 26.7175 86.5921 27.0861C86.2382 27.6316 86.1645 27.9117 86.1645 28.6342C86.1645 29.3567 86.2382 29.6368 87.0492 30.9196L86.5331 30.9933C86.2088 31.0376 85.9876 31.1555 85.9434 31.3324C85.9139 31.4651 85.8107 32.0107 85.7369 32.5415C85.6916 32.8135 85.6153 33.2945 85.5279 33.8457L85.5273 33.8494C85.4442 34.373 85.3512 34.9596 85.2651 35.4904C85.1029 36.5814 84.7933 38.1443 84.6164 38.9553C84.4247 39.7662 84.0266 41.0932 83.7464 41.9041C83.4516 42.7151 82.906 43.9094 82.5079 44.5434C82.0508 45.3248 81.2399 46.298 80.1193 47.448C78.4827 49.1141 78.3942 49.1731 77.6865 49.2616C77.5054 49.2817 77.1657 49.3232 76.7534 49.3735L76.7522 49.3737C76.2583 49.434 75.6604 49.507 75.1062 49.5712C74.0889 49.7039 73.1452 49.8366 73.0126 49.8661C72.7766 49.9251 72.7324 49.7924 72.6587 48.8045C72.6144 48.1705 72.4523 47.3891 72.3048 47.0647C72.1721 46.7403 71.7888 46.18 71.4644 45.8114C71.14 45.4428 70.447 44.8235 69.931 44.4402C69.4149 44.0568 68.8841 43.6587 68.7514 43.5555C68.5597 43.4081 68.5155 42.6561 68.4418 38.1443C68.3681 34.3255 68.2649 32.1729 68.0437 30.1824C67.8668 28.6785 67.6014 26.7617 67.4392 25.9065C67.277 25.0513 67.0411 23.9013 66.9084 23.3262C66.7757 22.766 66.4071 21.439 66.0827 20.3774C65.7583 19.3305 65.2275 17.8266 64.9031 17.0599C64.5788 16.2932 64.0775 15.2021 63.7826 14.6271C63.5024 14.0668 62.9127 13.0347 62.4851 12.3417C61.7773 11.2064 61.6889 10.9557 61.4824 9.61398C61.3498 8.80304 61.2465 7.94787 61.2465 7.25488L64.3871 6.91576C66.0974 6.72409 71.4644 6.07533 76.2858 5.48556C81.1072 4.88104 86.946 4.15856 89.2608 3.87842C91.5757 3.58353 94.8932 3.18544 96.633 2.97902C98.3729 2.77259 101.395 2.44822 103.342 2.2418C105.288 2.03538 108.148 1.76998 109.682 1.63728C111.23 1.50458 113.117 1.35713 113.884 1.29816C114.651 1.22444 116.995 1.16546 119.089 1.15071ZM91.4725 47.3596C91.6347 46.2243 91.7674 44.9857 91.7674 44.6024C91.9387 42.7741 91.8411 36.4045 91.7674 32.6152C91.7526 32.2171 91.7084 31.76 91.6494 31.5978C91.561 31.3619 91.384 31.3324 89.9243 31.3619C89.0397 31.3767 87.8749 31.4356 87.3441 31.4799C86.4004 31.5831 86.4004 31.5831 86.2972 32.0991C86.2382 32.3793 86.0761 33.4851 85.9434 34.532C85.8107 35.5788 85.5305 37.2744 85.3241 38.2918C85.1177 39.3091 84.7196 40.7983 84.4394 41.6093C84.1593 42.4202 83.717 43.4818 83.481 43.9684C83.2304 44.4549 82.8323 45.1479 82.5816 45.5165C82.3457 45.8851 81.5053 46.814 80.7239 47.5807C79.9424 48.3474 78.4827 49.6449 77.4653 50.4706C76.448 51.2816 75.2832 52.3432 74.8556 52.8297L74.1036 53.6996C74.7524 55.6459 75.1652 56.9876 75.4601 57.946C75.7845 58.9781 75.9319 59.7006 75.8435 59.7448C75.7697 59.7891 75.3422 59.7596 74.9293 59.6711C74.5017 59.5974 74.1331 59.5384 74.1184 59.5679C74.1036 59.5827 74.1774 59.8775 74.2658 60.2167L74.4427 60.8507C73.3074 62.0155 72.7029 62.4873 72.3785 62.6495C71.8772 62.9001 71.715 62.9296 71.2432 62.7822C70.9336 62.6937 70.3733 62.3398 70.0047 62.0007C69.6213 61.6469 69.2675 61.234 69.1938 61.0718C69.12 60.8949 69.0758 61.3962 69.0758 62.3693L69.0611 63.947C68.3238 63.5047 67.4687 63.0918 66.702 62.7527C65.9352 62.4283 64.5788 61.8828 63.6794 61.5584L62.0575 60.9686C60.008 62.4136 58.3714 63.5784 57.1181 64.5073C55.7911 65.4804 54.0955 66.9254 53.0929 67.9132C52.1198 68.8569 51.0582 70.0217 50.7043 70.5082C50.3504 70.9948 49.7459 72.0564 49.3626 72.8673C48.9792 73.6783 48.5074 74.9315 48.301 75.6688C48.0356 76.6419 47.9471 77.3939 47.9324 78.4702C47.9176 79.5465 48.0061 80.269 48.2273 81.1242C48.4042 81.7729 48.7875 82.864 49.0824 83.557C49.3626 84.25 50.4537 86.5059 51.5005 88.5701L53.3878 92.3299C54.1692 92.2562 54.9507 92.1087 55.6437 91.9465C56.3367 91.7844 57.1918 91.5484 57.5604 91.4157C57.9291 91.2831 58.3124 91.1061 58.4304 91.0176C58.5926 90.8849 58.622 89.8086 58.5778 84.6923L58.5188 78.5292C61.1433 77.1874 62.8684 76.3617 64.048 75.8162C65.2275 75.2707 66.3333 74.7694 66.525 74.6956C66.7413 74.6072 66.8396 74.617 66.8199 74.7251C66.7904 74.8136 65.9795 75.3149 65.0064 75.8457C64.0332 76.3765 63.2075 76.8336 63.1633 76.8631C63.1191 76.8925 63.5172 77.4971 64.0332 78.2048C64.5493 78.9125 65.4634 80.0921 66.0532 80.8293C66.643 81.5665 67.7783 82.923 68.5745 83.8666C69.3707 84.8103 70.8451 86.5206 71.8625 87.6854C72.8799 88.8502 74.0741 90.192 74.5165 90.6638C74.9588 91.1356 75.4011 91.5337 75.4749 91.519C75.5633 91.519 76.7134 91.1651 78.0551 90.7375C79.3969 90.2952 80.7976 89.7939 81.1957 89.6169C81.579 89.4547 82.0951 89.2778 82.331 89.2336C82.5816 89.1893 82.7438 89.1156 82.6996 89.0566C82.6701 88.9829 82.9355 88.8355 83.2894 88.7175C83.6432 88.5996 83.9086 88.4669 83.8792 88.4226C83.8497 88.3784 84.1151 88.2457 84.4837 88.1278C84.8375 88.0098 85.1324 87.8624 85.1324 87.8034C85.1324 87.7297 85.3094 87.6264 85.5453 87.538C85.7664 87.4643 86.1498 87.2726 86.3857 87.1251C86.5668 87.0293 86.9632 86.7873 87.3806 86.5324L87.3832 86.5308C87.5428 86.4334 87.7054 86.3341 87.8601 86.2405C88.4352 85.8866 89.2903 85.3263 89.7769 84.9872C90.2635 84.6481 91.0597 84.0583 91.5462 83.6749C92.0328 83.2916 92.6373 82.805 92.8732 82.5986C93.1239 82.3774 93.5957 81.9793 93.9496 81.6992C94.4804 81.2716 94.5541 81.1389 94.4803 80.7998C94.4361 80.5639 94.0675 79.1632 93.6547 77.6592C93.3224 76.404 92.8463 74.6763 92.5094 73.4534L92.3277 72.7936C91.9886 71.6141 91.6789 70.6114 91.6347 70.5525C91.5904 70.4935 90.7795 70.6557 89.8506 70.9063C88.3319 71.3339 87.9486 71.3782 86.1645 71.3782C84.3805 71.3782 84.0413 71.3339 82.9208 70.9653C82.2278 70.7294 81.1072 70.2723 80.4142 69.9332C79.7212 69.5941 78.8366 69.1223 78.4237 68.8863C78.0256 68.6504 77.2294 68.0901 76.6544 67.6331C76.0941 67.176 74.9735 66.0997 74.1774 65.2592C73.3812 64.4188 72.7471 63.6816 72.7471 63.6226C72.7471 63.5489 72.9978 63.3572 73.3074 63.1803C73.6023 63.0033 74.2216 62.502 74.6639 62.0745L75.4749 61.3077C78.1583 62.6495 79.4853 63.1655 80.3405 63.4014C81.1514 63.6226 82.2425 63.8585 82.7733 63.947C83.3041 64.0207 84.7933 64.0944 86.0908 64.0944C87.9633 64.1092 88.4499 64.0797 88.4352 63.9175C88.4352 63.8143 87.8601 62.8559 87.1524 61.809C86.4594 60.7622 85.1767 58.9929 84.3215 57.9018C83.4516 56.8107 82.4784 55.6312 82.1393 55.2773C81.7707 54.9087 81.6085 54.658 81.7412 54.658C81.8592 54.6728 82.5227 55.2183 83.1862 55.8818C83.8644 56.5453 84.7638 57.5184 85.1767 58.0492C85.6042 58.58 86.0466 59.0813 86.1645 59.1846C86.2825 59.2878 86.4152 59.3762 86.4594 59.3762C86.5036 59.3762 86.946 58.8749 87.462 58.2409C87.9633 57.6069 88.6711 56.5306 89.0249 55.8376C89.3935 55.1446 89.8359 54.1567 90.0423 53.6259C90.234 53.0951 90.5731 51.9451 90.7795 51.0457C90.9859 50.1463 91.2956 48.4949 91.4725 47.3596Z" fill="#15006A"/>
<path d="M62.5895 41.643C62.3127 41.5809 62.228 41.6192 61.8579 41.9877C61.6189 42.2258 61.4569 42.4332 61.4876 42.464C61.5183 42.4948 61.6336 42.5489 61.7259 42.5799C61.8874 42.6187 61.8951 42.5956 61.8185 42.4416C61.7496 42.2953 61.8036 42.2108 62.0347 42.0574C62.2042 41.95 62.4352 41.8581 62.5584 41.843C62.6738 41.8355 62.7969 41.805 62.8355 41.782C62.8663 41.7513 62.7587 41.6895 62.5895 41.643Z" fill="#15006A"/>
</svg>
