<svg width="200" height="201" viewBox="0 0 200 201" fill="none" xmlns="http://www.w3.org/2000/svg">
<path d="M67.6073 117.845C67.5926 117.815 67.622 117.712 67.6808 117.624C67.7396 117.521 67.9749 117.506 68.2983 117.565C68.5924 117.624 68.9894 117.756 69.1953 117.859C69.4011 117.962 69.7246 118.227 69.9304 118.462C70.2539 118.815 70.2686 118.844 70.004 118.771C69.8422 118.727 69.2394 118.506 68.6806 118.3C68.1072 118.08 67.6367 117.889 67.6073 117.845Z" fill="#15006A"/>
<path d="M67.0632 123.594C66.8721 123.27 66.681 122.858 66.6221 122.682C66.5633 122.491 66.578 122.344 66.6515 122.344C66.7104 122.344 67.0632 122.711 67.4308 123.182C67.7984 123.638 68.1366 124.108 68.1954 124.211C68.2689 124.314 68.2101 124.535 68.0484 124.696C67.916 124.873 67.7102 125.005 67.6073 124.991C67.5191 124.991 67.4602 124.902 67.4896 124.814C67.5191 124.711 67.622 124.638 67.7102 124.667C67.7984 124.682 67.8719 124.623 67.8719 124.549C67.8719 124.476 67.769 124.358 67.6367 124.299C67.5043 124.226 67.2397 123.917 67.0632 123.594Z" fill="#15006A"/>
<path d="M63.2697 127.284C63.1374 127.152 63.0345 126.917 63.0345 126.74C63.0492 126.446 63.0639 126.446 63.5197 126.77C63.7696 126.961 64.3431 127.255 64.7842 127.431C65.2253 127.608 65.5635 127.814 65.5194 127.887C65.4753 127.946 65.2106 127.99 64.9312 127.99C64.6519 127.975 64.2107 127.872 63.9755 127.74C63.7255 127.622 63.4168 127.417 63.2697 127.284Z" fill="#15006A"/>
<path d="M108.219 196.082C108.41 195.597 108.601 195.082 108.645 194.95V194.935C108.704 194.803 108.807 194.685 108.88 194.685C108.954 194.685 108.983 194.906 108.939 195.156C108.895 195.421 108.763 195.935 108.645 196.303C108.527 196.67 108.366 197.038 108.292 197.111C108.204 197.209 108.111 197.209 108.013 197.111C107.924 197.009 107.998 196.656 108.219 196.082Z" fill="#15006A"/>
<path d="M109.042 197.229C109.042 197.17 109.218 196.641 109.439 196.053C109.645 195.465 109.895 195.009 109.983 195.038C110.056 195.082 110.115 195.288 110.086 195.523C110.071 195.759 109.909 196.273 109.733 196.656C109.557 197.038 109.321 197.361 109.218 197.347C109.13 197.347 109.042 197.303 109.042 197.229Z" fill="#15006A"/>
<path d="M110.453 197.744C110.395 197.685 110.645 197.111 110.983 196.465C111.321 195.803 111.644 195.303 111.718 195.332C111.791 195.362 111.85 195.523 111.836 195.671C111.821 195.818 111.644 196.317 111.424 196.744C111.203 197.185 110.909 197.626 110.777 197.7C110.645 197.788 110.498 197.817 110.453 197.744Z" fill="#15006A"/>
<path fill-rule="evenodd" clip-rule="evenodd" d="M94.5589 119.138C94.4119 119.315 94.3089 119.565 94.3236 119.697C94.3236 119.815 94.4413 120.065 94.5589 120.256C94.7059 120.476 94.9265 120.579 95.2647 120.579C95.5293 120.579 95.8234 120.491 95.9263 120.403C96.0293 120.3 96.1028 120.006 96.1028 119.771C96.1175 119.535 95.9999 119.212 95.8528 119.08C95.7058 118.933 95.4117 118.815 95.1912 118.815C94.9412 118.815 94.7059 118.947 94.5589 119.138ZM94.8972 119.727C94.8825 119.58 94.9266 119.403 95.0001 119.359C95.0736 119.3 95.1619 119.256 95.206 119.256C95.2501 119.256 95.3824 119.33 95.4853 119.433C95.5883 119.536 95.6618 119.712 95.6618 119.8C95.6618 119.903 95.5001 119.991 95.2942 119.991C95.0442 119.991 94.9119 119.903 94.8972 119.727Z" fill="#15006A"/>
<path d="M94.8089 121.579C94.8383 121.859 94.9412 121.991 95.1765 122.02C95.397 122.035 95.5146 121.976 95.5146 121.829C95.5146 121.712 95.4852 121.506 95.4411 121.388C95.397 121.27 95.2353 121.168 95.0588 121.168C94.8236 121.168 94.7648 121.241 94.8089 121.579Z" fill="#15006A"/>
<path fill-rule="evenodd" clip-rule="evenodd" d="M58.1676 107.567C59.1087 107.184 59.7115 107.037 60.6672 106.964C61.623 106.89 62.1082 106.92 62.7993 107.111C63.2845 107.258 63.9167 107.493 64.2255 107.655C64.5343 107.802 65.0636 108.199 66.034 109.111L66.6222 108.861C66.9604 108.728 67.6514 108.611 68.3131 108.611C69.0189 108.596 69.6364 108.684 70.0775 108.846C70.4598 108.993 71.0186 109.39 71.4009 109.802C71.8273 110.243 72.1948 110.831 72.4154 111.39C72.5918 111.875 72.783 112.566 72.8271 112.934C72.8565 113.286 72.8124 113.992 72.7242 114.477C72.6212 114.963 72.3419 115.757 71.6949 117.124L71.9302 119.183C72.0625 120.315 72.1801 122.432 72.2095 126.534L71.739 127.49C71.4744 128.019 71.0627 128.608 70.7833 128.828C70.5186 129.034 69.9011 129.431 69.4159 129.696C68.9306 129.96 68.3719 130.269 68.1955 130.372C67.8867 130.563 67.8867 130.593 68.0925 130.901C68.2249 131.107 68.3131 131.563 68.3131 132.93L69.7394 133.151C70.5333 133.283 71.7684 133.563 72.5036 133.798C73.2241 134.018 74.5768 134.577 75.5178 135.033C76.4442 135.489 77.4734 136.003 77.7969 136.195C78.1204 136.371 79.1055 137.033 80.0024 137.65C80.8846 138.268 81.9727 139.091 82.4285 139.474C82.8696 139.841 83.9577 140.87 84.8546 141.738C85.7368 142.605 87.1925 144.12 89.7068 146.928L90.6625 146.84C91.1771 146.796 92.0888 146.752 93.7503 146.752L94.2061 144.723C94.456 143.62 95.0148 141.209 95.4412 139.4C95.8676 137.577 96.2646 135.915 96.4116 135.357L92.721 135.239C89.6186 135.151 88.9716 135.092 88.5893 134.871C88.3541 134.739 88.1482 134.518 88.1629 134.401C88.1629 134.268 88.2511 133.313 88.3835 132.269L88.4399 131.762L88.5149 131.09L88.5151 131.088C88.6834 129.581 88.9501 127.191 89.1922 124.991C89.5156 122.035 89.8832 119.036 90.0009 118.33L90.001 118.329L90.0014 118.327L90.0017 118.324C90.119 117.621 90.2214 117.006 90.2214 116.977C90.2214 116.933 90.4273 116.83 90.6919 116.742C91.0595 116.639 91.7065 116.683 93.5297 116.977C94.8236 117.183 96.6322 117.492 97.5732 117.653C98.4995 117.83 99.3229 118.021 99.4111 118.095C99.4994 118.183 99.4553 119.212 99.2788 121.138C99.1318 122.726 98.97 124.314 98.9112 124.652C98.8745 124.909 98.8531 125.059 98.8967 125.187C98.9579 125.367 99.1473 125.502 99.6023 125.829C100.043 126.137 100.617 126.681 100.882 127.049C101.131 127.402 101.484 127.975 101.646 128.299C101.808 128.622 102.014 129.181 102.087 129.549C102.175 129.901 102.293 130.607 102.352 131.092C102.411 131.578 102.381 132.489 102.293 133.107C102.175 133.842 102.175 134.401 102.264 134.651C102.337 134.871 102.646 137.738 102.94 141.017C103.249 144.282 103.528 147.016 103.587 147.075L103.675 147.928L103.66 151.854C103.66 154.942 103.602 156.044 103.411 156.971C103.278 157.618 103.205 158.176 103.249 158.221L102.925 158.926L102.293 160.264C101.823 161.294 101.455 161.808 100.749 162.514C100.22 163.043 99.3964 163.661 98.7936 163.97C98.2348 164.278 97.3526 164.631 96.8233 164.764C96.294 164.896 95.3676 165.028 94.7648 165.028C94.1619 165.043 93.1621 164.999 92.5592 164.94C91.9564 164.881 90.986 164.705 90.4272 164.543C89.8538 164.367 89.0304 164.073 88.5893 163.867C88.1482 163.661 87.7806 163.499 87.7806 163.499C87.7806 163.514 87.7953 164.514 87.8247 165.749C87.8541 166.984 87.8835 168.013 87.8982 168.043C87.9129 168.057 89.1186 167.646 90.5743 167.131C92.0299 166.602 94.4413 165.808 95.9411 165.367C97.4408 164.925 99.4699 164.396 100.455 164.19C101.455 163.97 102.322 163.808 102.411 163.808C102.484 163.808 102.558 164.102 102.558 164.47V165.131L102.802 165.106L102.805 165.106C103.468 165.037 103.711 165.012 103.763 164.999C103.837 164.984 103.881 164.72 103.881 164.396C103.881 164.073 103.807 163.808 103.734 163.808C103.646 163.808 103.587 163.734 103.587 163.661C103.587 163.573 103.969 163.47 104.425 163.426C104.781 163.381 105.221 163.337 105.536 163.305L105.546 163.304L105.548 163.304L105.653 163.293L105.792 163.279C105.926 163.272 106.17 163.251 106.459 163.227L106.466 163.226L106.468 163.226L106.469 163.226C106.783 163.2 107.149 163.169 107.483 163.146C108.13 163.087 109.38 163.117 110.277 163.205C111.262 163.293 112.35 163.514 113.071 163.749C113.718 163.955 114.512 164.264 114.835 164.425C115.159 164.587 115.982 165.087 116.673 165.543C117.349 165.999 118.217 166.675 118.585 167.057C118.952 167.425 119.481 168.19 119.79 168.748C120.084 169.307 120.378 169.983 120.452 170.278C120.511 170.557 120.555 171.351 120.555 172.042C120.54 172.924 120.452 173.527 120.231 174.1C120.055 174.542 119.511 175.571 118.996 176.38C118.496 177.188 117.761 178.276 117.349 178.806C116.952 179.32 116.32 180.114 115.953 180.555C115.57 180.996 114.776 181.879 114.173 182.526C113.571 183.158 112.424 184.246 111.63 184.922C110.85 185.599 110.204 186.201 110.204 186.26L109.542 186.79C109.468 186.746 109.101 186.922 108.733 187.201L108.615 187.29C108.308 187.52 108.037 187.723 107.998 187.775C107.969 187.819 107.704 188.039 107.41 188.245L106.895 188.642C104.734 187.128 103.44 186.216 102.631 185.643C101.808 185.069 99.8816 183.717 98.3378 182.629L95.5147 180.644C97.2938 178.835 98.5142 177.865 99.4846 177.218C100.411 176.585 101.793 175.747 102.528 175.35C103.866 174.615 103.881 174.6 103.881 174.056V173.512C103.028 173.909 102.219 174.306 101.528 174.659C100.852 175.012 100.22 175.365 100.132 175.424C100.079 175.466 99.8884 175.577 99.6652 175.707L99.5483 175.776L99.5159 175.795L99.4595 175.828L99.3964 175.865C99.0729 176.041 98.2936 176.556 97.6614 177.012C97.0291 177.468 96.0587 178.306 95.5 178.879L94.5001 179.908C92.2704 178.307 90.2999 176.902 88.5815 175.677C87.5235 174.923 86.5611 174.237 85.6927 173.615L81.5463 170.645C82.5755 170.189 82.8696 169.983 82.8696 169.91C82.8696 169.822 82.6932 168.866 82.4873 167.778C82.2815 166.675 81.958 165.087 81.7521 164.249C81.5463 163.396 81.2375 162.205 81.0611 161.617C80.7376 160.573 80.6935 160.514 80.0318 160.176C79.6495 159.985 78.9585 159.735 78.4879 159.617C78.0174 159.485 77.3117 159.397 76.9 159.397C76.503 159.397 75.9883 159.5 75.7678 159.617C75.5472 159.735 75.2679 160.014 75.1649 160.235C75.0473 160.456 74.8562 161.014 74.7238 161.485C74.5768 161.999 74.2827 162.543 74.0034 162.852C73.6946 163.19 73.2535 163.47 72.783 163.602C72.283 163.764 71.7978 163.808 71.2391 163.749C70.798 163.69 69.9011 163.499 69.2541 163.308C68.6071 163.117 67.7837 162.911 67.4162 162.852C67.0339 162.793 66.5192 162.808 66.1664 162.911C65.8429 162.999 65.4459 163.19 65.2841 163.337C65.1224 163.484 64.5931 164.117 64.1079 164.749C63.6226 165.381 62.7992 166.219 62.2699 166.616C61.7553 167.013 60.9613 167.469 60.5055 167.631C60.0644 167.807 59.2116 168.013 58.594 168.101C57.7412 168.234 57.2413 168.234 56.315 168.087C55.668 167.969 54.727 167.734 54.2271 167.543L53.3007 167.19C53.0802 168.043 52.8155 168.954 52.5656 169.763C52.3156 170.586 52.0803 171.748 52.0215 172.41C51.9774 173.056 52.0215 174.542 52.1097 175.718C52.2127 176.879 52.3597 178.541 52.4332 179.394C52.5214 180.232 52.6538 181.393 52.742 181.967C52.8155 182.526 52.9773 183.349 53.0949 183.805C53.1978 184.246 53.4331 184.937 53.5948 185.349C53.7565 185.746 53.933 186.04 53.9771 186.01C54.0065 185.966 53.9771 185.613 53.9036 185.231C53.8007 184.761 53.8007 184.069 53.9036 183.099C53.9771 182.305 54.1829 181.143 54.3447 180.496C54.5064 179.85 54.7417 179.085 54.874 178.806C54.9732 178.558 55.2291 178.007 55.4744 177.479L55.4749 177.477L55.6092 177.188C55.9033 176.571 56.4473 175.615 56.8149 175.056C57.1825 174.483 58.0206 173.468 58.6675 172.792C59.3145 172.101 60.3731 171.16 61.0201 170.675C61.6671 170.204 62.7257 169.557 63.3727 169.248C64.0196 168.925 64.9901 168.528 65.5047 168.351C66.034 168.19 67.1956 167.94 68.0778 167.807C69.4452 167.601 69.9452 167.587 71.3126 167.734C72.2095 167.837 73.1947 167.954 73.5181 167.998C73.8416 168.057 74.7091 168.293 75.4296 168.528C76.1648 168.778 77.2234 169.175 77.7822 169.41C78.3556 169.66 79.4437 170.292 80.2083 170.807C80.9875 171.321 81.7815 171.88 81.9727 172.027C82.1785 172.174 83.1343 172.88 84.1047 173.601C84.4917 173.882 85.1243 174.341 85.8784 174.889L85.8835 174.892L85.906 174.909C87.0379 175.73 88.4382 176.747 89.692 177.659L91.1231 178.699L91.1369 178.709L91.1432 178.714C92.5749 179.755 93.6498 180.536 93.7502 180.614C93.8679 180.702 94.3972 181.085 94.9265 181.438L95.1045 181.565L95.3896 181.768C95.7106 181.996 95.9639 182.176 96.0146 182.217C96.1028 182.29 96.8233 182.805 97.632 183.378C98.4407 183.952 100.632 185.466 102.484 186.746C104.352 188.01 106.336 189.319 106.895 189.642L107.924 190.245L108.601 190.862L108.16 191.745C107.822 192.421 107.763 192.656 107.895 192.759C107.998 192.818 108.571 192.994 109.189 193.127C109.792 193.259 110.88 193.539 111.615 193.744C112.336 193.965 113.424 194.347 114.041 194.597C114.644 194.847 115.394 195.259 115.703 195.494C116.011 195.729 116.394 196.2 116.541 196.523C116.703 196.847 116.82 197.288 116.82 197.508C116.835 197.729 116.732 198.111 116.614 198.361C116.482 198.597 116.173 198.949 115.909 199.141C115.644 199.332 115.041 199.611 114.556 199.758C113.865 199.979 113.262 200.037 111.836 200.023C110.409 199.993 109.674 199.92 108.601 199.64C107.822 199.435 106.763 199.096 106.248 198.891C105.719 198.685 105.204 198.508 105.101 198.508C104.998 198.508 104.881 198.597 104.851 198.729C104.793 198.891 104.631 198.92 104.219 198.861C103.91 198.802 102.675 198.479 101.47 198.141C100.249 197.788 98.4701 197.273 97.4997 196.979L97.0593 196.846C95.9506 196.511 93.9041 195.892 90.1479 194.729L88.9716 195.509C88.3246 195.92 87.1631 196.582 86.3985 196.95C85.6192 197.317 84.4723 197.758 83.8254 197.92C83.0461 198.126 82.4432 198.2 82.0609 198.141C81.7374 198.082 81.2816 197.935 81.0611 197.803C80.8405 197.655 80.5171 197.288 80.3406 196.964C80.1054 196.523 80.0465 196.2 80.0907 195.715C80.1348 195.259 80.3553 194.759 80.7817 194.127C81.1199 193.627 81.5757 193.053 81.7963 192.847C82.0168 192.656 82.3844 192.348 83.0167 191.818L82.3109 191.495C81.9286 191.333 81.2228 191.039 80.7376 190.848C80.2524 190.671 78.7526 190.054 77.4293 189.495C76.0913 188.936 74.2239 188.083 73.2682 187.613C72.3125 187.128 71.0627 186.437 70.4745 186.054C69.8864 185.687 69.2982 185.349 69.1512 185.319C69.0042 185.29 68.9012 185.334 68.9012 185.422C68.9012 185.496 68.9895 185.569 69.1218 185.569C69.2394 185.569 69.3424 185.687 69.3424 185.819C69.3424 186.04 69.3571 186.04 69.4747 185.863C69.5629 185.687 69.6217 185.746 69.6805 186.084C69.754 186.437 70.004 186.672 71.1362 187.392C71.8861 187.878 73.8858 188.936 75.5914 189.76C77.2823 190.583 79.282 191.554 80.0318 191.906C80.7817 192.259 81.3993 192.597 81.3993 192.656C81.3993 192.715 81.2375 192.95 81.0464 193.171L81.0007 193.224C80.7735 193.486 80.2312 194.111 79.7525 194.685C79.2231 195.288 78.3409 196.126 77.7822 196.567C77.2235 196.994 76.106 197.67 75.2973 198.067C74.4298 198.494 73.2094 198.964 72.3566 199.17C71.2685 199.449 70.4745 199.552 69.3424 199.567C68.4895 199.567 67.3574 199.493 66.8427 199.405C66.3134 199.302 65.4165 199.082 64.8578 198.92C64.2843 198.744 63.3286 198.361 62.7257 198.053C62.1082 197.744 61.373 197.332 61.0789 197.156C60.7849 196.964 59.9909 196.347 59.3439 195.788C58.6823 195.215 57.7559 194.259 57.2854 193.656C56.8149 193.039 56.065 191.848 55.6386 191.009C55.1975 190.157 54.727 189.186 54.5947 188.833C54.4476 188.495 54.2712 188.216 54.1977 188.216C54.1095 188.216 53.9771 188.348 53.9036 188.51C53.8154 188.672 53.4625 188.966 53.1243 189.157C52.7861 189.363 52.198 189.583 51.8451 189.657C51.4775 189.745 50.1248 189.848 48.8309 189.907C47.287 189.966 46.4489 190.068 46.4048 190.171C46.3607 190.274 46.096 191.039 45.8166 191.892C45.3314 193.318 45.2726 193.436 44.8903 193.465C44.5668 193.494 44.4639 193.597 44.4051 193.98C44.3463 194.244 44.0816 194.935 43.817 195.523C43.5082 196.185 43.1259 196.729 42.8318 196.95C42.5672 197.156 42.0084 197.45 41.582 197.611C41.1556 197.788 40.5675 197.92 40.2587 197.905C39.8323 197.905 39.6117 197.803 38.7589 196.891L36.0388 197.038C34.539 197.111 33.201 197.141 33.054 197.082C32.9069 197.038 32.6864 196.876 32.5393 196.759C32.3776 196.612 32.2747 196.317 32.2747 196.038C32.2747 195.715 32.3923 195.494 32.6128 195.347C32.7893 195.215 33.6421 194.994 34.4949 194.832C35.333 194.685 36.127 194.524 36.2593 194.465C36.4211 194.406 36.4946 193.965 36.5828 192.48C36.6416 191.421 36.7298 190.465 36.774 190.348L36.921 189.319L37.1562 187.26C37.2886 186.128 37.4062 184.966 37.4356 184.172L37.5679 183.437L37.6415 183.07C37.6856 182.864 38.0826 179.614 38.5384 175.865C38.9795 172.101 39.5382 167.557 39.7882 165.749C40.0234 163.955 40.4498 161.441 40.7292 160.161C41.0233 158.897 41.5085 156.883 41.832 155.721C42.1555 154.545 42.7142 152.692 43.0965 151.604C43.4641 150.501 44.4198 148.296 45.1991 146.678C45.9931 145.061 46.8459 143.414 47.1106 143.032C47.3605 142.649 47.5811 142.297 47.5811 142.267C47.5811 142.223 47.7428 141.973 47.934 141.708C48.1398 141.444 48.3015 141.179 48.3015 141.12C48.3015 141.061 48.0957 141.017 47.831 141.017C47.5664 141.017 46.9929 140.914 46.5518 140.782C46.096 140.65 45.5079 140.385 45.2285 140.209C44.9344 140.032 44.4639 139.606 44.1551 139.268C43.8464 138.929 43.5229 138.518 43.4347 138.327C43.3464 138.15 43.17 137.665 43.0671 137.268C42.9642 136.856 42.8759 136.077 42.8759 135.533C42.8759 134.989 42.9053 134.548 42.9495 134.548C42.9789 134.548 43.2288 134.651 43.4935 134.783C43.7581 134.915 44.2875 135.062 44.6845 135.107C45.155 135.18 45.4932 135.136 45.6696 135.018C45.8313 134.915 46.243 134.386 46.5959 133.842C46.9488 133.298 47.2723 132.71 47.3311 132.519C47.4193 132.239 47.3899 132.195 47.0959 132.269C46.9194 132.328 46.6547 132.386 46.5077 132.416C46.3607 132.46 45.949 132.357 45.5961 132.195C45.1256 131.975 44.8021 131.695 44.4786 131.195C44.2434 130.813 44.0522 130.372 44.0816 130.21C44.111 129.96 44.2875 129.887 45.0079 129.784C45.5814 129.71 45.9931 129.563 46.2136 129.343C46.4048 129.166 46.5518 128.916 46.5518 128.769C46.5518 128.637 46.3754 127.843 46.1548 127.005C45.8166 125.696 45.7725 125.299 45.8461 123.961C45.8902 123.035 46.0225 122.138 46.1695 121.756C46.3166 121.388 46.64 120.668 46.89 120.168C47.14 119.653 47.6252 118.962 47.9487 118.639C48.2721 118.3 48.8603 117.83 49.272 117.565C49.669 117.301 50.0954 117.065 50.2277 117.021L51.404 115.654L51.8157 114.404C52.0363 113.713 52.3744 112.889 52.5803 112.566C52.7714 112.243 53.1831 111.625 54.0506 110.434L56.6973 108.199C56.7947 108.15 57.2655 107.95 57.8165 107.716L58.1676 107.567ZM62.8728 112.493L62.7845 111.978L62.5199 112.493C62.3728 112.772 62.1523 113.272 62.0347 113.595C61.917 113.919 61.6965 114.816 61.5347 115.58C61.373 116.345 61.0936 117.301 60.9172 117.712C60.726 118.109 60.329 118.727 60.035 119.065C59.7409 119.418 59.5645 119.727 59.638 119.771C59.7115 119.815 59.7409 119.962 59.6821 120.094C59.638 120.241 59.8732 120.094 60.2114 119.771C60.5496 119.447 61.0054 118.889 61.2407 118.521C61.4612 118.153 61.77 117.521 61.9023 117.124C62.0494 116.727 62.2552 115.845 62.3728 115.169C62.4905 114.507 62.6669 113.742 62.7698 113.492C62.8728 113.228 62.9169 112.772 62.8728 112.493ZM69.2982 114.051C68.9894 113.919 68.563 113.816 68.3425 113.831C68.1219 113.831 67.7102 113.904 67.4162 113.992C67.1221 114.081 66.5781 114.492 66.0928 114.977C65.4606 115.624 65.0048 116.345 63.9755 118.374C62.9169 120.447 62.4905 121.109 61.8435 121.756C61.3877 122.212 60.6231 122.77 60.1379 123.006C59.4174 123.358 59.0351 123.447 57.9324 123.491C56.9766 123.535 56.5502 123.623 56.3591 123.8C56.212 123.932 56.0944 124.211 56.0944 124.447C56.0944 124.682 56.2267 124.946 56.4326 125.108C56.6237 125.241 57.0648 125.476 57.4324 125.608C57.8882 125.785 58.1382 125.976 58.2558 126.27C58.3441 126.49 58.5646 128.137 58.7558 129.916C58.991 132.357 59.0351 133.283 58.9175 133.666C58.8293 133.945 58.5793 134.342 58.3588 134.548C58.1235 134.754 57.5354 135.077 57.0501 135.268C56.5649 135.459 56.0797 135.636 55.9474 135.651C55.8297 135.68 55.6827 135.709 55.6239 135.709C55.5651 135.724 55.5063 136.077 55.5063 136.489C55.5063 137.062 55.6092 137.4 55.8592 137.783C56.0503 138.062 56.5649 138.533 56.9913 138.812C57.4324 139.091 58.2852 139.474 58.8881 139.679C59.785 139.959 60.3143 140.032 61.6818 140.032C62.6228 140.047 63.7403 139.959 64.1814 139.856C64.6372 139.753 65.3871 139.532 65.8723 139.371C66.3575 139.209 67.0633 138.915 67.4162 138.738C67.7837 138.547 68.4748 138.106 68.96 137.739C69.4453 137.371 69.9893 136.886 70.151 136.65C70.3275 136.43 70.6362 135.915 70.8421 135.504L70.8667 135.451C71.0517 135.052 71.2557 134.613 71.2979 134.43C71.3861 134.151 71.3126 134.092 70.7686 133.945C70.4304 133.842 69.607 133.695 68.96 133.607L67.7837 133.43C67.7304 132.933 67.6842 132.513 67.6452 132.16L67.644 132.148L67.6438 132.147L67.6425 132.135L67.6419 132.13C67.5859 131.622 67.5449 131.25 67.5191 130.975L67.4162 130.137C69.1953 129.24 69.9011 128.843 70.1363 128.666C70.3863 128.505 70.7686 128.093 70.9891 127.74C71.2391 127.358 71.4596 126.74 71.5626 126.093C71.6655 125.432 71.6949 124.329 71.6214 123.006C71.5773 121.873 71.4302 119.947 71.3126 118.742C71.1803 117.521 70.9891 116.198 70.8715 115.801C70.7686 115.389 70.4892 114.889 70.2539 114.669C70.0334 114.448 69.607 114.169 69.2982 114.051ZM51.0805 117.698C51.0658 117.227 50.9923 117.065 50.7864 117.007C50.5365 116.948 50.4924 117.036 50.4188 117.624C50.3747 117.992 50.4188 118.8 50.5218 119.403C50.61 120.006 50.8893 120.903 51.1393 121.388C51.3746 121.873 51.8157 122.52 52.1097 122.829C52.4038 123.123 52.7273 123.373 52.8302 123.373C52.9331 123.373 53.0067 123.447 53.0067 123.52C53.0067 123.594 53.1096 123.579 53.2125 123.491C53.3743 123.329 53.286 123.167 52.6979 122.491C52.3009 122.05 51.8451 121.329 51.6833 120.918C51.5216 120.491 51.3305 119.727 51.2422 119.227C51.1687 118.712 51.0952 118.021 51.0805 117.698ZM95.3235 117.933C93.3238 117.609 91.6182 117.345 91.53 117.345C91.4565 117.345 91.3536 117.433 91.3242 117.536C91.2947 117.624 91.0889 119.3 90.8683 121.241C90.7075 122.758 90.4029 125.415 90.1301 127.796C90.0538 128.461 89.9801 129.105 89.9126 129.696C89.5891 132.401 89.3392 134.636 89.3686 134.636C89.3801 134.648 90.4092 134.677 91.8202 134.718L91.8218 134.718C92.2054 134.729 92.6172 134.741 93.0445 134.754L96.6762 134.842C96.7939 133.872 96.8233 132.93 96.8233 132.122C96.8086 131.313 96.8233 130.46 96.8527 130.21C96.8968 129.813 96.838 129.755 96.1616 129.505C95.7646 129.358 95.2941 129.108 95.1324 128.946C94.8824 128.696 94.8383 128.461 94.8383 127.373C94.8383 126.387 94.9118 125.99 95.103 125.682C95.25 125.461 95.5441 125.211 95.7646 125.123C95.9852 125.035 96.6762 124.991 97.3085 125.02C98.2348 125.049 98.4407 125.02 98.4554 124.844C98.4554 124.751 98.5373 123.831 98.6438 122.633L98.7103 121.885L98.7347 121.609C98.8818 119.947 98.9847 118.58 98.9847 118.565C98.97 118.536 97.3232 118.256 95.3235 117.933ZM98.8083 125.946C98.4113 125.755 97.7496 125.564 97.3379 125.52C96.9409 125.49 96.4263 125.49 96.2057 125.535C95.9999 125.564 95.6911 125.726 95.5441 125.887C95.3823 126.079 95.3382 126.226 95.4264 126.299C95.5147 126.373 95.8087 126.461 96.0881 126.505C96.3822 126.549 96.9262 126.637 97.3085 126.711C97.7055 126.77 98.0143 126.902 98.0143 127.02C97.9996 127.108 97.9261 127.226 97.8231 127.27C97.7202 127.314 97.2056 127.255 96.6762 127.123C96.1616 127.005 95.6176 126.902 95.4706 126.902C95.3235 126.902 95.2059 127.02 95.2059 127.167C95.2059 127.299 95.3529 127.49 95.5441 127.578C95.7205 127.667 96.3234 127.858 96.8674 128.019C97.534 128.206 97.8672 128.372 97.8672 128.519C97.8672 128.696 97.7643 128.711 97.382 128.622C97.1174 128.549 96.5586 128.461 96.1322 128.402C95.647 128.343 95.3529 128.358 95.3529 128.446C95.3529 128.519 95.5294 128.666 95.7646 128.769C95.9852 128.858 96.3381 128.99 96.5292 129.049C96.7351 129.108 97.1174 129.24 97.382 129.358L97.8525 129.549C97.5143 130.343 97.4114 130.99 97.4114 131.504C97.4114 132.254 97.5143 132.607 97.926 133.489C98.2201 134.063 98.5142 134.577 98.5877 134.621C98.6759 134.666 99.3229 134.651 100.029 134.607C100.734 134.563 101.381 134.474 101.47 134.43C101.573 134.371 101.675 133.71 101.72 132.93C101.764 132.166 101.734 131.004 101.661 130.357C101.587 129.71 101.381 128.858 101.19 128.446C101.014 128.049 100.558 127.387 100.205 127.005C99.8375 126.608 99.22 126.137 98.8083 125.946ZM97.6614 134.577C97.7937 134.504 97.7937 134.386 97.6614 134.136C97.5585 133.96 97.4261 133.857 97.3526 133.901C97.2791 133.96 97.235 134.166 97.2497 134.357C97.2644 134.548 97.3232 134.695 97.382 134.695C97.4408 134.695 97.5732 134.636 97.6614 134.577ZM73.4887 134.93C72.7388 134.636 72.0919 134.401 72.0625 134.401C72.0331 134.401 71.886 134.754 71.739 135.18C71.592 135.592 71.2391 136.312 70.945 136.753C70.6509 137.195 69.9746 137.886 69.4599 138.283C68.9453 138.68 67.9896 139.253 67.3426 139.547C66.6957 139.856 65.7694 140.194 65.2841 140.326C64.7989 140.459 64.1814 140.591 63.8873 140.635C63.6585 140.671 63.2226 140.727 62.8219 140.778L62.564 140.812C62.1229 140.856 61.2701 140.826 60.6525 140.738C60.0497 140.665 59.1233 140.459 58.594 140.297C58.0794 140.135 57.2266 139.738 56.7267 139.4C56.1385 139.018 55.6533 138.562 55.3592 138.121C55.0652 137.65 54.9181 137.224 54.9181 136.871C54.9181 136.562 54.8593 136.283 54.7711 136.239C54.6976 136.195 53.9477 136.68 53.1243 137.297C52.3009 137.93 51.154 138.871 50.5953 139.4C49.963 139.988 49.1837 140.973 48.5221 141.973C47.9486 142.855 47.1546 144.179 46.7724 144.914C46.243 145.899 46.1401 146.208 46.3459 146.105C46.493 146.031 46.9782 145.884 47.4193 145.781C47.8751 145.664 48.8456 145.576 49.5954 145.576C50.3453 145.576 51.2716 145.649 51.6539 145.723C52.0362 145.811 53.2419 146.311 54.33 146.84C55.4328 147.369 56.7414 147.972 57.2413 148.163C57.7412 148.354 58.6087 148.59 59.1528 148.663C59.932 148.781 60.2996 148.781 60.8731 148.604C61.373 148.457 62.2111 147.943 63.4462 147.016C64.4607 146.252 65.6223 145.502 66.0193 145.34C66.5339 145.149 67.1221 145.061 67.9308 145.061C69.0483 145.061 69.21 145.105 70.7245 145.825C71.6214 146.237 72.5771 146.619 72.8565 146.678C73.2682 146.767 73.5622 146.708 74.2533 146.384C74.9885 146.061 75.4884 145.634 77.047 144.002C78.7379 142.267 79.1055 141.958 80.1347 141.444C81.0317 141.003 81.5022 140.856 82.0462 140.856H82.7814C81.311 139.474 80.12 138.577 79.179 137.959C78.2527 137.327 76.9 136.518 76.1648 136.136C75.4443 135.754 74.2386 135.21 73.4887 134.93ZM101.97 136.136V135.283C97.5438 135.283 97.2644 135.312 97.1468 135.548C97.0732 135.68 96.7351 136.989 96.3969 138.444C96.0587 139.9 95.2794 143.311 94.6619 146.046C93.7943 149.825 93.5591 151.06 93.662 151.295C93.7796 151.545 93.7355 151.678 93.4415 152.016C93.2356 152.236 92.9415 152.589 92.8092 152.824C92.6769 153.045 92.574 153.398 92.574 153.633C92.574 153.854 92.8092 154.456 93.1033 154.986C93.3974 155.515 93.6767 156.074 93.7061 156.236C93.7502 156.397 93.7943 156.78 93.809 157.074C93.809 157.574 93.7208 157.706 92.8827 158.471L91.9564 159.323C92.1328 161.882 92.1181 162.014 91.7947 162.485C91.6035 162.764 91.2065 163.161 90.8977 163.367C90.5302 163.617 90.4125 163.764 90.5449 163.837C90.6478 163.881 91.1918 164.014 91.7505 164.102C92.324 164.205 93.4415 164.278 94.2502 164.293C95.1912 164.293 96.0734 164.205 96.6762 164.043C97.2056 163.896 97.9996 163.617 98.4407 163.396C98.8965 163.19 99.6464 162.632 100.132 162.176C100.779 161.573 101.19 161 101.646 160.117C101.984 159.441 102.396 158.353 102.558 157.706C102.822 156.662 102.866 156.074 102.852 152.633C102.852 150.487 102.764 147.546 102.646 146.09C102.528 144.635 102.322 141.988 102.205 140.209C102.072 138.43 101.97 136.592 101.97 136.136ZM84.4135 142.532L83.296 141.459C81.7668 141.473 81.2228 141.517 81.0905 141.561C80.9728 141.606 80.5464 141.797 80.1347 142.003C79.6495 142.238 78.6791 143.076 77.2675 144.458C75.6354 146.075 74.9444 146.649 74.2974 146.958C73.8269 147.164 73.2682 147.34 73.0476 147.34C72.8271 147.34 72.283 147.222 71.8272 147.061C71.3861 146.914 70.4892 146.531 69.8422 146.222C68.8424 145.737 68.5336 145.649 67.7102 145.649C67.0045 145.664 66.5486 145.752 65.9458 146.031C65.5047 146.237 64.549 146.899 63.8138 147.487C63.0933 148.06 62.0641 148.751 61.5347 149.001C60.7701 149.354 60.4026 149.443 59.6233 149.443C58.9763 149.428 58.2558 149.281 57.3148 148.972C56.5649 148.722 55.1828 148.134 54.2271 147.649C53.2713 147.178 52.0362 146.649 51.4628 146.472C50.757 146.252 50.0512 146.164 49.1837 146.164C48.5074 146.164 47.6693 146.237 47.3458 146.311C47.0223 146.399 46.5077 146.59 46.1989 146.722C45.7431 146.928 45.552 147.149 45.2138 147.855C44.9932 148.34 44.5374 149.398 44.2139 150.207C43.9051 151.016 43.4052 152.413 43.1112 153.295C42.8318 154.177 42.4495 155.471 42.2731 156.162L42.2566 156.233L42.2563 156.234C42.0926 156.933 41.8265 158.07 41.6702 158.809C41.5232 159.573 41.3908 160.382 41.3908 160.617C41.3908 160.926 41.4644 161.014 41.729 161.014C41.9055 161.014 42.3172 160.838 42.6406 160.617C42.9641 160.411 43.464 160.132 43.7434 160.014C44.0375 159.897 44.5227 159.809 44.8462 159.823C45.302 159.838 45.5814 159.956 46.0813 160.382C46.4342 160.691 46.9929 161.132 47.3311 161.367C47.7869 161.691 48.0957 161.794 48.5221 161.779C48.875 161.764 49.5072 161.544 50.1101 161.235C50.6541 160.955 51.1834 160.72 51.2863 160.72C51.3893 160.735 51.9333 161.235 52.492 161.838C53.1096 162.499 53.6095 162.926 53.7418 162.896C53.8742 162.852 54.1682 162.235 54.4476 161.367C54.7123 160.573 55.0946 159.426 55.3004 158.853C55.4916 158.265 55.7268 157.779 55.8003 157.779C55.8886 157.779 55.9474 157.868 55.9474 157.971C55.9474 158.059 55.8298 158.573 55.668 159.103C55.5063 159.632 54.9769 161.499 54.4917 163.264C54.0065 165.014 53.6389 166.528 53.6683 166.602C53.7124 166.675 54.3006 166.925 54.9622 167.146C55.8739 167.425 56.4914 167.528 57.4177 167.528C58.2999 167.543 58.991 167.44 59.6968 167.219C60.2702 167.043 61.0348 166.719 61.3877 166.484C61.7553 166.249 62.4022 165.705 62.8286 165.264C63.255 164.823 63.7109 164.308 63.8432 164.102C63.9755 163.896 64.2843 163.514 64.5343 163.249C64.7842 162.97 65.2253 162.632 65.5047 162.499C65.7988 162.352 66.2252 162.191 66.4604 162.132C66.7692 162.058 67.6514 162.22 69.3276 162.646C71.2244 163.117 71.886 163.235 72.3419 163.146C72.7388 163.073 73.1064 162.867 73.4593 162.499C73.8269 162.146 74.1063 161.632 74.3415 160.941C74.5621 160.264 74.8268 159.779 75.1355 159.5C75.3855 159.279 75.8119 159.015 76.0913 158.926C76.3853 158.838 77.0911 158.794 77.7086 158.838C78.4291 158.897 79.1349 159.059 79.7377 159.309C80.3553 159.573 80.6494 159.632 80.6494 159.515C80.6494 159.412 80.2377 158.074 79.7377 156.559C79.2231 155.03 78.8702 153.765 78.929 153.721C78.9879 153.692 79.0908 153.751 79.1643 153.854C79.2378 153.942 79.6348 154.942 80.0465 156.059C80.4582 157.162 80.7964 158.118 80.7964 158.191C80.7964 158.25 80.8699 158.382 80.9728 158.485C81.1346 158.632 81.3551 158.603 82.1197 158.324L83.0754 158C83.2078 155.78 83.3107 155.236 83.443 155.059C83.5754 154.912 84.0312 154.589 84.4723 154.339C84.8987 154.089 85.3839 153.721 85.5456 153.515C85.6927 153.31 85.8544 153.016 85.8985 152.854C85.9279 152.692 85.825 151.972 85.6486 151.236C85.4721 150.472 85.3692 149.707 85.428 149.443C85.4721 149.163 85.7662 148.678 86.1338 148.281C86.5602 147.825 87.0307 147.516 87.6041 147.296C88.0747 147.119 88.4569 146.943 88.4422 146.899C88.4422 146.855 87.7806 146.09 86.9866 145.208C86.1926 144.326 85.031 143.105 84.4135 142.532ZM93.515 147.781H90.4419L90.883 148.266C91.1183 148.531 91.677 149.163 92.1181 149.663C92.5739 150.178 92.9709 150.589 93.0004 150.575C93.0445 150.575 93.1768 149.942 93.2944 149.178L93.515 147.781ZM90.3537 150.134C90.192 150.045 89.8979 149.987 89.692 149.987C89.4127 149.987 89.3098 150.075 89.2362 150.384C89.1921 150.648 89.2362 150.913 89.3833 151.119C89.5156 151.31 89.7509 151.457 89.8979 151.457C90.0596 151.457 90.2949 151.354 90.4125 151.236C90.5449 151.104 90.6478 150.839 90.6478 150.648C90.6478 150.428 90.5301 150.222 90.3537 150.134ZM89.692 153.854C89.6038 153.648 89.398 153.413 89.2068 153.339C88.9275 153.251 88.7951 153.295 88.5158 153.604C88.3246 153.824 88.1629 154.133 88.1482 154.309C88.1482 154.471 88.2511 154.736 88.3981 154.883C88.5452 155.03 88.7804 155.118 88.9422 155.103C89.0892 155.074 89.3539 154.868 89.5303 154.648C89.7803 154.324 89.8097 154.162 89.692 153.854ZM86.9719 163.073C84.7516 161.661 83.5019 160.808 82.752 160.25C82.0021 159.691 81.3845 159.279 81.3845 159.323C81.3845 159.344 81.5145 159.812 81.6984 160.475L81.6995 160.478L81.7006 160.483L81.7011 160.484C81.779 160.765 81.8666 161.08 81.958 161.411C82.2815 162.529 82.7373 164.528 83.0019 165.866C83.1836 166.828 83.3809 167.837 83.5033 168.463C83.5493 168.698 83.5847 168.879 83.6048 168.984C83.6783 169.366 83.7959 169.689 83.8547 169.689C83.9136 169.689 84.6928 169.395 85.5751 169.042L87.1924 168.41C87.1777 166.263 87.1336 165.058 87.0748 164.352L86.9719 163.073ZM47.9927 163.764C47.8016 163.617 47.581 163.514 47.4928 163.514C47.4193 163.514 47.2429 163.676 47.0958 163.881C46.9488 164.087 46.8312 164.337 46.8312 164.47C46.8312 164.587 47.037 164.896 47.287 165.161C47.684 165.587 47.7575 165.616 47.9486 165.425C48.0663 165.293 48.2133 164.94 48.2574 164.617C48.3309 164.102 48.3015 163.984 47.9927 163.764ZM42.2731 164.249C42.2731 164.087 42.2584 163.955 42.2436 163.955C42.2418 163.957 42.2381 163.96 42.2328 163.965L42.2141 163.98C42.1644 164.022 42.0612 164.108 41.9496 164.22C41.8172 164.352 41.6996 164.602 41.6849 164.764C41.6849 164.925 41.7878 165.146 41.9349 165.278C42.1554 165.469 42.1701 165.469 42.0819 165.234C42.0409 165.132 41.9927 165.001 41.9524 164.891C41.9349 164.843 41.9188 164.799 41.9055 164.764C41.8614 164.631 41.9349 164.543 42.0525 164.543C42.1848 164.543 42.2731 164.411 42.2731 164.249ZM52.1245 164.69C51.9627 164.602 51.7716 164.543 51.6833 164.543C51.6098 164.543 51.5363 164.602 51.5363 164.69C51.5363 164.764 51.6392 164.793 51.7569 164.764C51.9039 164.72 52.0068 164.793 52.0509 164.984C52.095 165.146 52.0803 165.278 52.0215 165.278C51.9627 165.278 51.8304 165.44 51.7275 165.646C51.6098 165.866 51.5951 166.013 51.6833 166.013C51.7716 166.013 51.9774 165.822 52.1392 165.602C52.3009 165.381 52.4332 165.117 52.4332 165.014C52.4332 164.911 52.2862 164.764 52.1245 164.69ZM47.1693 167.998C46.6694 167.572 46.4195 167.484 45.9195 167.484C45.5814 167.499 45.155 167.557 44.9932 167.631C44.8474 167.71 44.5702 167.874 44.3338 168.013L44.258 168.057C44.0228 168.219 43.5817 168.484 43.2729 168.645C42.9641 168.807 42.6112 168.925 42.4642 168.881C42.3172 168.851 41.8467 168.543 41.3908 168.219C40.9497 167.896 40.5086 167.631 40.4057 167.631C40.3028 167.631 40.1852 167.734 40.1557 167.881C40.1116 168.028 39.8764 169.895 39.6264 172.042C39.3765 174.174 39.1412 176.262 39.0971 176.674C39.053 177.071 38.7295 179.923 38.3766 182.996C38.009 186.069 37.612 189.377 37.4944 190.348C37.3768 191.318 37.2738 192.348 37.2738 192.656V193.215C41.0968 193.186 42.8024 193.142 43.5229 193.083L44.8462 192.995C45.3608 191.509 46.0078 189.363 46.6253 187.26C47.2429 185.158 48.4044 181.217 49.2278 178.512C50.0365 175.791 50.9776 172.586 51.3305 171.38C51.6833 170.16 51.9627 169.16 51.948 169.145C51.9186 169.131 51.6098 169.219 51.2422 169.336C50.8158 169.484 50.3306 169.528 49.8454 169.469C49.3896 169.425 48.8603 169.219 48.4486 168.954C48.0957 168.704 47.5075 168.278 47.1693 167.998ZM105.792 173.586C105.792 173.498 105.69 173.262 105.572 173.071C105.395 172.733 105.366 172.733 105.366 172.998C105.351 173.233 105.322 173.248 105.204 173.071C105.131 172.939 105.072 172.909 105.072 172.998C105.072 173.071 105.175 173.306 105.293 173.512L105.513 173.88C105.418 173.446 105.378 173.268 105.408 173.256C105.428 173.247 105.482 173.318 105.572 173.439C105.704 173.601 105.807 173.659 105.792 173.586ZM51.4481 175.159C51.404 174.571 51.3158 174.1 51.2569 174.1C51.1834 174.1 51.0952 174.247 51.0511 174.424C51.007 174.6 51.0511 175.027 51.1687 175.35C51.301 175.733 51.3893 177.129 51.4481 179.57C51.5069 181.57 51.5804 183.29 51.6245 183.393C51.6686 183.496 51.5951 183.687 51.4628 183.834C51.2716 184.055 50.9629 184.099 49.7278 184.099L48.228 184.084C47.1693 187.687 46.8018 188.848 46.7282 189.01C46.6253 189.275 46.6988 189.275 49.1837 189.216C50.6982 189.172 51.948 189.069 52.198 188.966C52.4479 188.863 52.889 188.539 53.1978 188.245C53.5066 187.937 53.7565 187.613 53.7565 187.51C53.7418 187.407 53.4919 186.716 53.1684 185.966C52.8449 185.216 52.4626 183.952 52.3009 183.143C52.1391 182.334 51.8892 180.438 51.7569 178.953C51.6245 177.453 51.4775 175.747 51.4481 175.159ZM50.6835 178.07L50.5806 176.394L50.1542 177.703C49.9336 178.423 49.4925 179.879 49.1837 180.938C49.0562 181.391 48.9286 181.838 48.8214 182.214L48.821 182.215C48.6813 182.705 48.5764 183.073 48.5515 183.173C48.4633 183.496 48.478 183.511 49.6248 183.511H50.8011C50.7717 180.599 50.7276 178.997 50.6835 178.07ZM85.031 192.642C84.3988 192.392 83.8253 192.186 83.7371 192.186C83.6489 192.186 83.0754 192.7 82.4432 193.318C81.8109 193.95 81.1934 194.715 81.0464 195.009C80.914 195.318 80.7964 195.744 80.7964 195.965C80.7964 196.185 80.9287 196.553 81.0905 196.773C81.2522 196.994 81.6051 197.288 81.8698 197.42C82.1785 197.567 82.5608 197.641 82.9284 197.597C83.2519 197.553 83.84 197.376 84.2223 197.2L84.9134 196.891C84.2664 196.038 84.0018 195.641 83.9136 195.45C83.8253 195.274 83.7665 195.053 83.7812 194.98C83.7959 194.891 84.1488 195.259 84.5458 195.788C84.9575 196.318 85.3398 196.744 85.3986 196.744C85.4574 196.744 85.8985 196.538 86.3837 196.303C86.869 196.053 87.3101 195.788 87.3395 195.715C87.3836 195.626 86.9425 195.347 86.369 195.082C85.7956 194.818 85.2516 194.524 85.1634 194.406C85.0163 194.23 85.0604 194.215 85.3545 194.318C85.5603 194.377 86.1485 194.627 86.6484 194.847C87.1483 195.082 87.6924 195.274 87.8541 195.274C88.0158 195.274 88.4128 195.141 88.7363 194.98C89.0598 194.818 89.3686 194.627 89.398 194.568C89.4421 194.509 89.2804 194.377 89.0745 194.259C88.854 194.156 88.3099 193.936 87.8541 193.774C87.413 193.612 86.8543 193.392 86.6043 193.289C86.369 193.171 85.6633 192.877 85.031 192.642ZM110.571 193.98C109.689 193.73 108.645 193.494 108.263 193.45C107.66 193.377 107.542 193.406 107.336 193.686C107.204 193.862 107.116 194.068 107.145 194.127C107.16 194.186 106.807 194.994 106.351 195.935C105.645 197.332 105.543 197.656 105.69 197.847C105.792 197.979 106.395 198.273 107.042 198.494C107.689 198.729 108.748 199.038 109.395 199.185C110.189 199.361 111.145 199.449 112.336 199.449C113.924 199.449 114.173 199.42 114.835 199.097C115.232 198.891 115.673 198.538 115.82 198.317C115.967 198.097 116.085 197.7 116.085 197.435C116.085 197.17 115.953 196.744 115.791 196.479C115.629 196.215 115.188 195.832 114.806 195.612C114.423 195.391 113.674 195.038 113.144 194.818C112.63 194.612 111.468 194.23 110.571 193.98ZM43.8904 193.906C43.8904 193.847 42.4054 193.803 40.5821 193.803C37.5532 193.803 37.2738 193.818 37.2003 194.053C37.1855 194.09 37.1698 194.132 37.1534 194.175C37.1045 194.305 37.0495 194.45 36.9945 194.538C36.9357 194.656 36.7298 194.832 36.5387 194.935C36.3328 195.024 35.48 195.215 34.6272 195.347C33.7891 195.479 32.9951 195.685 32.8628 195.788C32.7304 195.906 32.6863 196.082 32.7598 196.215C32.8628 196.42 33.3039 196.435 36.2152 196.376C38.0531 196.347 39.7882 196.259 40.0675 196.2C40.4645 196.097 40.5527 196.126 40.5086 196.288C40.4645 196.391 40.2734 196.509 40.0675 196.553C39.8764 196.582 39.6705 196.641 39.6264 196.685C39.597 196.729 39.6264 196.862 39.7146 197.009C39.8176 197.141 40.0381 197.273 40.2293 197.303C40.4351 197.332 40.8174 197.288 41.0968 197.2C41.3908 197.126 41.9055 196.847 42.2436 196.597C42.6995 196.273 43.0082 195.876 43.3758 195.082C43.6552 194.494 43.8904 193.965 43.8904 193.906Z" fill="#15006A"/>
<path d="M62.1557 120.502C62.1323 120.491 62.1 120.414 62.093 120.331C62.0787 120.239 62.2158 120.115 62.443 119.993C62.6521 119.885 62.9603 119.772 63.1369 119.735C63.3135 119.697 63.6413 119.702 63.8825 119.745C64.2535 119.804 64.2769 119.814 64.0786 119.899C63.9578 119.951 63.4802 120.11 63.0369 120.257C62.5773 120.402 62.1953 120.515 62.1557 120.502Z" fill="#15006A"/>
<path fill-rule="evenodd" clip-rule="evenodd" d="M5.60234 188.48C5.47001 188.378 5.16123 188.098 4.91127 187.848C4.60249 187.554 4.51427 187.495 4.6172 187.701C4.69072 187.863 4.72012 188.098 4.69072 188.216C4.64661 188.333 4.69072 188.495 4.77894 188.554C4.86716 188.613 4.92597 188.598 4.89657 188.525C4.88186 188.451 4.92597 188.407 5.0142 188.422C5.08771 188.436 5.14653 188.525 5.11712 188.628C5.10242 188.73 5.35238 188.936 5.67586 189.098C5.99933 189.26 6.29341 189.377 6.33752 189.363C6.38163 189.333 6.14637 189.186 5.82289 189.025C5.48471 188.863 5.22005 188.686 5.23475 188.628C5.23475 188.569 5.36708 188.583 5.52882 188.657C5.69056 188.745 5.82289 188.76 5.82289 188.701C5.82289 188.642 5.89641 188.686 5.98463 188.804C6.07285 188.922 6.11696 188.951 6.08756 188.848C6.05815 188.745 5.99933 188.657 5.92582 188.657C5.867 188.657 5.71997 188.583 5.60234 188.48ZM15.2332 189.422C11.1456 189.333 7.67554 189.23 7.5138 189.186C7.30795 189.113 7.21973 189.157 7.21973 189.319C7.21973 189.436 7.32265 189.583 7.44028 189.627C7.55791 189.671 9.11649 189.774 10.8956 189.848C12.6748 189.907 16.1595 189.98 18.6444 189.98C22.8496 189.98 23.1731 189.966 23.2172 189.73C23.2613 189.539 23.1878 189.48 22.9672 189.51C22.7908 189.539 19.3208 189.495 15.2332 189.422Z" fill="#003FFF"/>
<path d="M37.4356 184.172L31.3336 184.202C27.3636 184.231 25.2022 184.187 25.1581 184.099C25.114 184.011 25.011 183.952 24.9375 183.952C24.8493 183.952 24.8199 184.011 24.864 184.099C24.8934 184.172 24.8346 184.246 24.717 184.246C24.5846 184.246 24.4964 184.114 24.4964 183.952C24.4964 183.672 24.5846 183.658 26.3638 183.658C27.393 183.658 30.3337 183.599 37.5679 183.437L37.4356 184.172Z" fill="#003FFF"/>
<path d="M31.2895 190.098C35.9551 190.112 36.7696 190.153 36.7772 190.325L36.9209 189.319C33.2745 189.451 30.4661 189.51 28.3488 189.51C24.8346 189.539 24.4964 189.554 24.5258 189.774C24.5552 189.966 24.717 190.024 25.1581 190.039C25.3512 190.048 26.4089 190.057 27.8807 190.069L27.889 190.069L27.8973 190.069L27.9056 190.069L27.9139 190.069L27.9221 190.069L27.9302 190.069L27.9384 190.069L27.9465 190.069L27.9545 190.069L27.9625 190.069L27.9704 190.069L27.9782 190.069L27.9859 190.069L27.9934 190.069L28.0007 190.07L28.0075 190.07L28.0139 190.07L28.0195 190.07L28.0239 190.07L28.0358 190.07C28.9964 190.078 30.1204 190.087 31.2895 190.098Z" fill="#003FFF"/>
<path d="M103.249 158.221C103.293 158.25 120.084 158.294 177.781 158.294L178.957 157.941C179.604 157.75 180.266 157.515 180.428 157.412C180.707 157.235 180.707 157.265 180.619 158.441L179.707 158.618C179.207 158.72 177.972 158.868 176.972 158.941C175.958 159.015 164.416 159.117 151.315 159.176L144.154 159.208L144.124 159.208C134.503 159.251 127.475 159.282 127.451 159.294C127.436 159.309 127.48 162.191 127.568 165.719C127.642 169.234 127.745 172.601 127.774 173.218C127.818 173.821 127.877 176.041 127.921 178.144C127.965 180.246 128.054 182.864 128.23 185.996L130.303 185.966C132.185 185.937 132.421 185.966 132.788 186.231C133.009 186.393 133.332 186.701 133.494 186.937C133.7 187.216 133.803 187.539 133.788 187.892C133.759 188.231 133.626 188.554 133.42 188.76C133.195 188.976 132.764 189.132 132.127 189.23C131.597 189.304 129.509 189.51 127.495 189.671C125.466 189.833 123.29 189.995 122.643 190.039C121.996 190.083 121.069 190.157 120.584 190.201C120.386 190.213 119.871 190.249 119.166 190.299L119.163 190.3L119.162 190.3L119.142 190.301C118.123 190.374 116.715 190.473 115.291 190.568C112.865 190.73 110.365 190.862 108.601 190.862L107.924 190.245C109.983 190.039 114.541 189.701 119.393 189.377C124.245 189.054 128.921 188.731 129.759 188.642C130.612 188.554 131.362 188.436 131.435 188.378C131.509 188.333 131.553 187.981 131.509 187.598C131.48 187.216 131.391 186.834 131.303 186.746C131.2 186.628 129.803 186.628 126.157 186.746C123.407 186.819 118.585 186.893 115.423 186.878C112.277 186.878 109.63 186.834 109.542 186.79L110.203 186.26C110.203 186.319 110.674 186.349 111.262 186.334C111.85 186.304 115.217 186.246 118.732 186.187L125.128 186.084C125.128 181.07 125.069 177.453 125.01 174.836C124.951 172.204 124.907 167.66 124.907 164.72C124.907 159.764 124.892 159.382 124.642 159.323C124.51 159.294 122.775 159.235 120.79 159.191C118.805 159.132 113.982 159.059 110.056 159.015L102.925 158.926L103.249 158.221Z" fill="#003FFF"/>
<path d="M39.4205 54.1193L67.6808 53.8988L141.934 53.7811C168.238 53.6929 177.708 53.7076 178.81 53.8252C179.619 53.9135 180.766 54.1193 181.383 54.2811C181.986 54.4428 182.869 54.781 183.339 55.0456C183.824 55.2956 184.398 55.7367 184.618 56.0308C184.839 56.3101 185.133 56.766 185.295 57.06C185.559 57.5453 185.574 58.0011 185.574 65.2205C185.574 69.4257 185.515 77.1598 185.456 82.4237C185.398 87.6729 185.309 96.9361 185.28 103.009C185.263 105.322 185.242 108.04 185.221 110.78L185.221 110.789L185.22 110.824L185.22 110.867L185.22 110.88L185.219 110.946L185.219 110.958V110.96L185.219 110.964C185.185 115.341 185.151 119.752 185.133 122.638C185.103 127.358 185.03 133.886 184.986 137.121C184.942 140.356 184.868 144.855 184.824 147.119C184.795 149.384 184.721 152.324 184.677 153.662C184.618 155.692 184.559 156.147 184.339 156.456C184.192 156.647 183.81 157 183.501 157.206C183.177 157.427 182.692 157.691 181.898 158.029L181.942 157.5C181.986 157.088 181.942 156.941 181.722 156.853C181.575 156.794 181.383 156.794 181.295 156.853C181.207 156.912 181.251 156.868 181.369 156.75C181.501 156.618 181.707 156.353 181.839 156.162C181.972 155.956 182.119 155.53 182.163 155.206C182.207 154.883 182.28 151.075 182.325 146.752C182.369 142.414 182.442 136.062 182.486 132.636C182.516 129.196 182.604 117.58 182.663 106.832C182.721 96.0686 182.78 80.5857 182.78 57.5747L182.457 57.06C182.28 56.766 181.883 56.369 181.575 56.1484C181.266 55.9279 180.648 55.5897 180.207 55.3838C179.751 55.178 178.899 54.8986 178.296 54.7663C177.384 54.5604 176.09 54.5016 171.091 54.4428C167.724 54.4134 147.08 54.4575 125.216 54.5604C103.337 54.6634 72.4006 54.781 27.4812 54.928L26.8637 55.325C26.5255 55.5456 26.0991 56.0161 25.908 56.3543C25.7168 56.7071 25.511 57.2071 25.4669 57.5011C25.4227 57.7805 25.3639 64.103 25.3051 85.0703H29.378L29.3486 73.381C29.3339 66.9408 29.378 61.3535 29.5692 60.1772L35.7446 60.089C39.1412 60.0449 47.8163 59.986 55.0357 59.9566L119.334 59.6479C128.509 59.6038 145.551 59.5449 178.369 59.4861L178.472 68.9699C178.546 74.175 178.56 85.0262 178.502 93.0838C178.457 101.127 178.399 111.052 178.369 115.139V128.96C178.325 131.578 178.252 136.739 178.208 140.429L178.189 141.617L178.178 142.321V142.323C178.134 145.138 178.099 147.318 178.075 147.487C178.06 147.678 178.031 147.913 178.016 148.002C178.002 148.09 165.577 148.104 103.675 147.928L103.587 147.075C103.631 147.119 120.246 147.237 140.508 147.325C160.754 147.413 177.355 147.458 177.384 147.443C177.399 147.428 177.428 144.135 177.443 140.135V120.462C177.472 118.874 177.502 104.611 177.561 60.0007L175.973 60.0743C175.105 60.1037 165.092 60.1772 153.741 60.2213L49.316 60.6918C38.9059 60.7506 30.3631 60.8388 30.319 60.883C30.2749 60.9124 30.172 66.338 30.0838 72.9399C29.9956 79.5271 29.9809 84.9674 30.0397 85.0115C30.0985 85.0556 33.2597 85.1438 37.068 85.2027C40.8615 85.2615 45.7284 85.3644 47.8751 85.4379C50.0659 85.4967 52.0215 85.6291 52.3597 85.732C52.6832 85.8349 53.2566 86.0702 53.6389 86.2613C54.0212 86.4525 54.6387 86.8936 55.021 87.2317C55.3886 87.5846 55.815 88.0552 55.9621 88.3051C56.1091 88.5404 56.3443 89.0697 56.462 89.4814C56.6531 90.1137 56.6678 91.3635 56.5943 99.2593C56.5061 107.096 56.5208 108.287 56.6972 108.199L54.0506 110.434L54.08 99.8033C54.1094 89.849 54.0947 89.1432 53.8594 88.5992C53.7124 88.2757 53.3742 87.7905 53.1243 87.5111C52.8596 87.2465 52.3156 86.8494 51.9186 86.6436C51.1872 86.2633 51.1107 86.2613 47.202 86.16L47.1399 86.1584C44.905 86.0996 33.8332 86.0261 33.8332 86.0261L13.1306 85.879C10.528 85.879 7.9255 85.9525 7.36677 86.0261C6.79333 86.1143 6.02874 86.276 5.67586 86.3937C5.29356 86.5113 4.77894 86.8495 4.47016 87.1582C4.17609 87.467 3.7938 87.9963 3.63206 88.3345C3.45562 88.6874 3.23506 89.4373 3.13214 90.0254C2.99981 90.8194 2.9557 93.9219 2.9557 102.053C2.9557 108.067 3.01451 124.917 3.08803 139.474L3.32328 184.746C3.35269 184.731 3.3968 185.231 3.3968 185.863C3.3968 186.495 3.35269 186.966 3.30858 186.922C3.24977 186.863 3.13214 186.51 3.02921 186.157C2.92629 185.79 2.88218 185.378 2.92629 185.231C2.9851 185.084 2.9557 185.01 2.88218 185.055C2.79396 185.084 2.73514 185.01 2.73514 184.863C2.73514 184.814 2.72891 184.61 2.71958 184.305L2.71954 184.304C2.70403 183.798 2.67997 183.013 2.66162 182.187L2.29404 150.501C2.29404 146.943 2.26463 138.106 2.20581 130.872C2.16524 125.871 2.11767 119.156 2.07758 113.497C2.05956 110.953 2.04305 108.623 2.02937 106.758C1.98526 99.671 2.01467 94.7894 2.11759 92.9367C2.20581 91.3488 2.38226 89.6872 2.49989 89.2167C2.63222 88.7609 2.88218 88.0551 3.07332 87.6729C3.26447 87.2906 3.64676 86.7759 3.92613 86.526C4.1908 86.276 4.79364 85.9378 5.26416 85.7614C5.73467 85.5849 6.55807 85.3791 7.1021 85.3056L24.6435 85.1438L24.6729 81.4238C24.6876 79.38 24.6582 73.381 24.5993 68.0877C24.5258 61.3094 24.5405 58.2069 24.6582 57.6482C24.7464 57.1924 24.9669 56.5307 25.1434 56.1778C25.3345 55.8102 25.7021 55.325 25.9815 55.0898C26.2461 54.8545 26.702 54.5604 26.996 54.4281C27.4224 54.2369 28.4076 54.1928 38.7589 54.1193H39.4205Z" fill="#003FFF"/>
<path d="M50.6394 94.3336C50.5805 95.701 50.507 101.347 50.4776 106.876C50.451 114.836 50.4243 116.642 50.277 116.964L51.4039 115.654C51.4334 97.4213 51.4334 91.8781 51.4187 91.5693L51.4039 91.0253L6.51396 90.9959L5.51412 91.04C5.38178 95.7598 5.32297 98.9799 5.32297 101.244C5.30827 103.509 5.35238 111.449 5.41119 118.889C5.48471 126.329 5.55823 140.914 5.60234 151.31C5.63174 161.691 5.70526 173.174 5.74937 176.821C5.79348 180.452 5.8523 183.643 5.89641 183.908L5.96993 184.393C10.0611 184.356 13.1795 184.328 15.5275 184.307C19.6858 184.271 21.4281 184.255 21.8792 184.246C23.0702 184.246 23.1731 184.216 23.1731 183.952C23.1731 183.658 23.0996 183.658 14.8656 183.761L6.55807 183.878C6.55807 182.354 6.52345 179.145 6.48487 175.57L6.46985 174.174C6.42574 170.042 6.36692 159.691 6.33752 151.163C6.32258 146.823 6.29626 140.336 6.26819 133.418C6.241 126.718 6.21218 119.615 6.19048 113.669L6.08756 91.6869L50.7423 91.7898C50.7423 91.8193 50.6982 92.9514 50.6394 94.3336Z" fill="#003FFF"/>
<path d="M151.168 0.230752C150.227 0.0984202 148.742 0.0249023 147.051 0.0249023C145.595 0.0396059 143.507 0.127827 142.419 0.245456C141.331 0.348381 139.567 0.598341 138.523 0.818895C137.464 1.02474 135.95 1.39233 135.141 1.64229C134.332 1.89226 133.141 2.34807 132.494 2.64214C131.847 2.95091 130.803 3.53905 130.171 3.95075C129.554 4.37716 128.569 5.17115 127.98 5.71518C127.407 6.25921 126.539 7.22965 126.054 7.87661C125.569 8.52356 124.819 9.78807 124.393 10.6703C123.952 11.5672 123.452 12.817 123.275 13.464C123.011 14.4491 122.952 15.0519 122.952 17.0663C122.937 18.919 122.996 19.6983 123.187 20.3746C123.319 20.8599 123.466 21.3745 123.51 21.5215C123.584 21.7568 123.437 21.7715 121.54 21.7715C120.055 21.7715 119.055 21.8597 117.967 22.0802C117.144 22.242 115.938 22.5802 115.291 22.8301C114.644 23.0801 113.615 23.5212 113.012 23.83C112.409 24.1387 111.395 24.6975 110.762 25.0651L109.63 25.7414L109.042 26.1825C107.16 27.697 106.16 28.5645 105.602 29.1086C105.058 29.6379 104.146 30.6377 103.602 31.3288L102.602 32.5786L101.984 33.3873C101.323 34.8135 100.97 35.7693 100.749 36.4456C100.544 37.1073 100.323 38.166 100.264 38.7982C100.205 39.6363 100.249 40.2391 100.441 41.1067C100.588 41.7536 100.926 42.7094 101.19 43.2387C101.455 43.768 101.823 44.3414 102.014 44.5179C102.264 44.7531 102.602 44.8561 103.308 44.9149C103.837 44.959 118.129 45.0766 135.067 45.1501C152.006 45.2384 171.003 45.2825 177.267 45.2531C183.53 45.209 188.985 45.1354 189.397 45.0766L190.132 44.9737L190.897 44.7826C192.588 44.2385 193.705 43.7533 194.47 43.371C195.234 42.974 196.175 42.43 196.558 42.1359C196.984 41.8271 197.367 41.386 197.543 41.0037C197.705 40.6509 197.955 39.7392 198.087 38.9746C198.263 38.0189 198.352 36.872 198.352 35.2988C198.337 33.5196 198.263 32.6815 198.013 31.4758C197.837 30.623 197.425 29.2703 197.087 28.4616C196.764 27.6529 196.249 26.5648 195.94 26.0355C195.631 25.5062 194.97 24.5652 194.455 23.9182C193.926 23.2712 193.044 22.389 192.485 21.9479C191.911 21.5068 190.956 20.904 190.353 20.5952C189.75 20.2864 188.824 19.9041 188.294 19.7424C187.765 19.5806 186.706 19.3454 185.942 19.2131C185.177 19.0954 183.486 18.8749 182.192 18.7572C180.898 18.6249 179.163 18.522 178.325 18.5367C177.502 18.5367 175.885 18.6102 174.723 18.6984C173.576 18.7719 172.606 18.8749 172.562 18.919C172.517 18.9484 172.517 19.0072 172.562 19.0513C172.606 19.0954 173.561 19.2572 174.694 19.4189C175.826 19.5806 177.208 19.8159 177.781 19.9482C178.34 20.0659 179.502 20.404 180.354 20.6834C181.207 20.9628 182.531 21.5068 183.295 21.8891C184.06 22.2714 185.177 22.9184 185.78 23.3301C186.383 23.727 187.442 24.5799 188.118 25.2268C188.809 25.8738 189.647 26.8001 189.985 27.2853C190.338 27.7705 190.853 28.6674 191.147 29.2703C191.426 29.8731 191.764 30.7701 191.897 31.2553C192.029 31.7405 192.176 32.9609 192.22 33.9754C192.264 35.2252 192.22 36.2839 192.059 37.2837C191.941 38.0924 191.691 39.2246 191.5 39.7833C191.309 40.3568 190.926 41.2096 190.632 41.6948C190.265 42.2976 189.809 42.7829 189.235 43.1946C188.75 43.5475 188.03 43.9444 187.633 44.1062C187.221 44.2679 186.398 44.4591 185.795 44.5473C185.03 44.6502 172.032 44.6502 143.743 44.5473C105.69 44.415 102.764 44.3856 102.514 44.1503C102.367 44.018 102.029 43.4445 101.749 42.8711C101.47 42.3124 101.146 41.3419 101.014 40.7391C100.838 39.8569 100.823 39.4305 100.955 38.5335C101.043 37.9307 101.279 36.9603 101.47 36.3721C101.676 35.784 102.029 34.9165 102.249 34.4607C102.484 33.9901 103.028 33.152 103.455 32.5786C103.881 32.0199 104.602 31.1376 105.058 30.623C105.513 30.1084 106.44 29.2115 107.131 28.6233C107.822 28.0352 108.969 27.1089 109.704 26.5795C110.424 26.0355 111.792 25.2121 112.718 24.7269C113.644 24.2564 114.968 23.6682 115.659 23.4183C116.35 23.183 117.423 22.8742 118.041 22.7419C118.835 22.5802 119.967 22.5067 121.761 22.5067C123.378 22.5067 124.334 22.4478 124.334 22.3596C124.334 22.2861 124.157 21.5068 123.937 20.6393C123.584 19.2866 123.54 18.7719 123.555 17.1399C123.555 15.5813 123.643 14.9637 123.952 13.758C124.157 12.9493 124.628 11.6995 124.981 10.9644C125.334 10.2439 125.966 9.14111 126.407 8.53827C126.833 7.93542 127.657 6.93558 128.245 6.33273C128.818 5.72989 129.774 4.89178 130.377 4.48008C130.98 4.06838 131.892 3.50965 132.421 3.24498C132.95 2.98032 133.7 2.64214 134.112 2.4804C134.509 2.31866 135.509 2.02459 136.317 1.80403C137.582 1.48056 138.096 1.42174 140.067 1.42174C141.743 1.40704 142.61 1.48056 143.375 1.657C143.934 1.80403 144.801 2.05399 145.286 2.21573C145.772 2.39218 146.669 2.78917 147.271 3.12735C147.874 3.45083 148.742 4.00957 149.183 4.34775C149.624 4.68593 150.506 5.50933 151.124 6.17099L152.271 7.36198C153.697 6.70032 154.564 6.37684 155.138 6.2151C155.697 6.03866 156.799 5.7887 157.564 5.65637C158.564 5.49463 159.461 5.43581 160.725 5.49463C161.857 5.53874 162.931 5.68577 163.739 5.89162C164.431 6.06807 165.416 6.40625 165.945 6.65621C166.474 6.89147 167.298 7.37668 167.783 7.71487C168.268 8.06775 169.047 8.77352 169.518 9.28815C170.003 9.83218 170.621 10.7438 170.944 11.4055C171.268 12.0671 171.65 13.1699 171.812 13.9051C171.973 14.6402 172.15 15.8459 172.223 16.5958L172.226 16.6235C172.341 17.9195 172.344 17.9485 172.709 17.9485C172.914 17.9485 174.326 17.875 175.84 17.7721L178.619 17.581C178.458 15.8753 178.252 14.7432 178.061 13.9786C177.87 13.214 177.443 12.0524 177.12 11.4055C176.811 10.7585 176.193 9.77337 175.752 9.19993C175.326 8.64119 174.576 7.8619 174.091 7.46491C173.606 7.08261 172.665 6.49447 171.973 6.15629C171.282 5.83281 170.121 5.40641 169.4 5.22996C168.665 5.05352 167.312 4.77415 166.386 4.64182C165.298 4.46538 163.637 4.36245 161.754 4.33305C159.667 4.30364 158.534 4.34775 157.858 4.49479C157.123 4.64182 156.873 4.65653 156.785 4.52419C156.726 4.42127 156.682 4.28894 156.682 4.20071C156.682 4.1272 156.417 3.64198 156.094 3.14206C155.77 2.62743 155.314 2.03929 155.094 1.83344C154.873 1.61289 154.226 1.21589 153.667 0.951227C152.947 0.598341 152.197 0.392491 151.168 0.230752Z" fill="#003FFF"/>
<path d="M150.021 14.949C149.403 14.8167 148.521 14.7137 148.08 14.7137C147.462 14.7137 147.271 14.7726 147.271 14.9343C147.271 15.0519 147.418 15.1843 147.595 15.2137C147.786 15.2578 148.521 15.3901 149.256 15.5224L149.256 15.5224C149.977 15.6548 151.035 15.9635 151.609 16.1988C152.168 16.4341 153.05 16.8752 153.55 17.1692C154.064 17.478 154.814 17.9926 155.226 18.3161C155.638 18.6396 156.373 19.4042 156.858 20.007C157.343 20.6099 157.946 21.5068 158.196 21.992C158.431 22.4772 158.784 23.3006 158.961 23.83C159.137 24.3593 159.372 25.315 159.475 25.962C159.593 26.7119 159.637 27.6676 159.578 28.6086C159.519 29.4173 159.372 30.476 159.24 30.9612C159.108 31.4464 158.843 32.2551 158.652 32.7697C158.461 33.2696 158.24 33.6813 158.181 33.6813C158.123 33.6813 157.99 33.3138 157.887 32.8432C157.784 32.3727 157.549 31.7405 157.373 31.417C157.196 31.1082 156.932 30.77 156.799 30.6818C156.652 30.5936 156.49 30.5789 156.432 30.6377C156.358 30.6965 156.476 31.27 156.682 31.8875C156.932 32.6521 157.049 33.3579 157.049 34.0489C157.049 34.6224 156.99 35.4017 156.932 35.784C156.829 36.4162 156.858 36.475 157.123 36.475C157.284 36.475 157.887 36.0927 158.475 35.6075C159.064 35.1223 160.093 34.2107 160.754 33.5784C161.431 32.9462 161.975 32.3139 161.975 32.1816C161.975 32.0345 161.872 31.9169 161.754 31.9169C161.637 31.9169 161.107 32.2551 160.578 32.6521C160.049 33.0638 159.593 33.3873 159.549 33.3873C159.505 33.3873 159.622 32.9462 159.813 32.4021C160.019 31.8581 160.255 30.9024 160.357 30.2995C160.475 29.5938 160.504 28.4763 160.46 27.2118C160.402 25.8002 160.299 24.9327 160.078 24.1975C159.902 23.6388 159.578 22.7713 159.358 22.2861C159.122 21.8009 158.652 20.9775 158.299 20.4481C157.946 19.9188 157.284 19.1101 156.829 18.6396C156.387 18.1691 155.491 17.4339 154.844 16.9928C154.197 16.5517 153.109 15.9783 152.418 15.6989C151.726 15.4195 150.653 15.0813 150.021 14.949Z" fill="#15006A"/>
<path d="M138.508 19.9041C138.229 18.9925 137.949 18.2426 137.89 18.2426C137.832 18.2426 137.229 18.7131 136.538 19.2866C135.847 19.8453 134.92 20.5658 134.494 20.8598C134.053 21.1539 133.685 21.4774 133.685 21.5509C133.67 21.6391 133.847 21.7126 134.067 21.742C134.288 21.7568 134.685 21.6685 134.95 21.5362C135.214 21.4039 135.597 21.1539 135.788 20.9775C136.023 20.7716 136.116 20.7422 136.067 20.8892C136.023 21.0069 135.817 21.6391 135.611 22.2861C135.406 22.933 135.141 24.0946 135.009 24.8592C134.876 25.6238 134.773 26.8001 134.773 27.4764C134.773 28.1381 134.906 29.3585 135.082 30.1966C135.244 31.02 135.582 32.1963 135.847 32.7991C136.097 33.402 136.611 34.3724 136.993 34.9311C137.376 35.5046 138.023 36.3133 138.434 36.7397C138.846 37.1661 139.699 37.8425 140.317 38.2542C140.949 38.6511 141.831 39.1217 142.272 39.2981C142.713 39.4598 143.537 39.6951 144.11 39.8127C144.786 39.9598 145.61 40.0186 146.536 39.9745C147.433 39.9304 148.095 39.8127 148.403 39.6657C148.668 39.5334 148.889 39.3716 148.889 39.3128C148.889 39.254 147.977 39.1952 146.86 39.1805C145.227 39.1805 144.61 39.107 143.669 38.8423C143.022 38.6658 142.125 38.3277 141.684 38.0924C141.243 37.8572 140.449 37.3131 139.919 36.872C139.39 36.4456 138.596 35.6075 138.14 35.0047C137.699 34.4018 137.126 33.4461 136.861 32.8726C136.611 32.3139 136.288 31.417 136.141 30.8877C135.92 30.1378 135.876 29.4026 135.891 27.3588C135.891 25.1827 135.95 24.6092 136.214 23.6094C136.391 22.9624 136.758 21.8891 137.023 21.2274C137.302 20.4775 137.538 20.0805 137.596 20.1982C137.655 20.3011 137.832 20.7716 137.993 21.2568C138.155 21.742 138.42 22.2567 138.581 22.4037C138.758 22.536 138.964 22.6096 139.052 22.5507C139.155 22.4772 139.184 22.2567 139.126 21.992C139.067 21.7568 138.802 20.8157 138.508 19.9041Z" fill="#15006A"/>
<path d="M30.3365 120.235C29.719 120.103 28.8368 120 28.3957 120C27.7781 120 27.587 120.059 27.587 120.221C27.587 120.338 27.734 120.471 27.9104 120.5C28.1016 120.544 28.8367 120.676 29.5718 120.809L29.5719 120.809C30.2924 120.941 31.3511 121.25 31.9245 121.485C32.4832 121.72 33.3655 122.161 33.8654 122.455C34.38 122.764 35.1299 123.279 35.5416 123.602C35.9533 123.926 36.6884 124.69 37.1737 125.293C37.6589 125.896 38.2617 126.793 38.5117 127.278C38.747 127.763 39.0999 128.587 39.2763 129.116C39.4527 129.646 39.688 130.601 39.7909 131.248C39.9085 131.998 39.9527 132.954 39.8938 133.895C39.835 134.704 39.688 135.762 39.5557 136.247C39.4233 136.733 39.1587 137.541 38.9675 138.056C38.7764 138.556 38.5558 138.968 38.497 138.968C38.4382 138.968 38.3058 138.6 38.2029 138.129C38.1 137.659 37.8647 137.027 37.6883 136.703C37.5119 136.394 37.2472 136.056 37.1149 135.968C36.9678 135.88 36.8061 135.865 36.7473 135.924C36.6738 135.983 36.7914 136.556 36.9972 137.174C37.2472 137.938 37.3648 138.644 37.3648 139.335C37.3648 139.909 37.306 140.688 37.2472 141.07C37.1443 141.702 37.1737 141.761 37.4383 141.761C37.6001 141.761 38.2029 141.379 38.7911 140.894C39.3792 140.409 40.4085 139.497 41.0701 138.865C41.7465 138.232 42.2905 137.6 42.2905 137.468C42.2905 137.321 42.1876 137.203 42.07 137.203C41.9523 137.203 41.423 137.541 40.8937 137.938C40.3644 138.35 39.9085 138.674 39.8644 138.674C39.8203 138.674 39.938 138.232 40.1291 137.688C40.335 137.144 40.5702 136.189 40.6731 135.586C40.7908 134.88 40.8202 133.763 40.7761 132.498C40.7172 131.086 40.6143 130.219 40.3938 129.484C40.2173 128.925 39.8938 128.058 39.6733 127.572C39.438 127.087 38.9675 126.264 38.6146 125.734C38.2617 125.205 37.6001 124.396 37.1443 123.926C36.7032 123.455 35.8062 122.72 35.1593 122.279C34.5123 121.838 33.4243 121.265 32.7332 120.985C32.0421 120.706 30.9688 120.368 30.3365 120.235Z" fill="#15006A"/>
<path d="M18.8236 125.19C18.5443 124.279 18.2649 123.529 18.2061 123.529C18.1473 123.529 17.5444 123.999 16.8534 124.573C16.1623 125.132 15.236 125.852 14.8096 126.146C14.3685 126.44 14.0009 126.764 14.0009 126.837C13.9862 126.925 14.1626 126.999 14.3832 127.028C14.6037 127.043 15.0007 126.955 15.2654 126.822C15.53 126.69 15.9123 126.44 16.1035 126.264C16.3387 126.058 16.4318 126.028 16.3828 126.175C16.3387 126.293 16.1329 126.925 15.927 127.572C15.7212 128.219 15.4565 129.381 15.3242 130.145C15.1918 130.91 15.0889 132.086 15.0889 132.763C15.0889 133.424 15.2212 134.645 15.3977 135.483C15.5594 136.306 15.8976 137.483 16.1623 138.085C16.4122 138.688 16.9269 139.659 17.3092 140.217C17.6915 140.791 18.3384 141.6 18.7501 142.026C19.1618 142.452 20.0146 143.129 20.6322 143.54C21.2644 143.937 22.1466 144.408 22.5877 144.584C23.0288 144.746 23.8523 144.981 24.4257 145.099C25.1021 145.246 25.9255 145.305 26.8518 145.261C27.7487 145.217 28.4104 145.099 28.7191 144.952C28.9838 144.82 29.2044 144.658 29.2044 144.599C29.2044 144.54 28.2927 144.481 27.1753 144.467C25.5432 144.467 24.9256 144.393 23.9846 144.129C23.3376 143.952 22.4407 143.614 21.9996 143.379C21.5585 143.143 20.7645 142.599 20.2352 142.158C19.7058 141.732 18.9119 140.894 18.456 140.291C18.0149 139.688 17.4415 138.732 17.1768 138.159C16.9269 137.6 16.6034 136.703 16.4563 136.174C16.2358 135.424 16.1917 134.689 16.2064 132.645C16.2064 130.469 16.2652 129.895 16.5299 128.896C16.7063 128.249 17.0739 127.175 17.3386 126.514C17.6179 125.764 17.8532 125.367 17.912 125.484C17.9708 125.587 18.1473 126.058 18.309 126.543C18.4707 127.028 18.7354 127.543 18.8971 127.69C19.0736 127.822 19.2794 127.896 19.3677 127.837C19.4706 127.763 19.5 127.543 19.4412 127.278C19.3824 127.043 19.1177 126.102 18.8236 125.19Z" fill="#15006A"/>
<path d="M109.262 81.8355C108.527 81.7179 107.586 81.615 107.175 81.615C106.748 81.615 106.366 81.6738 106.322 81.762C106.278 81.8355 106.278 81.9532 106.336 82.012C106.381 82.0708 107.263 82.2619 108.277 82.4384C109.307 82.6001 110.542 82.8648 111.027 82.9971C111.512 83.1442 112.468 83.5265 113.159 83.8352C113.835 84.1587 114.967 84.791 115.658 85.2468C116.335 85.7173 117.526 86.7171 118.305 87.4964C119.217 88.4227 119.981 89.3785 120.54 90.2901C121.011 91.0547 121.658 92.3486 121.966 93.1573C122.29 93.966 122.657 95.1864 122.804 95.8774C123.01 96.7891 123.069 97.7154 123.069 99.3328C123.069 100.877 122.981 101.906 122.79 102.788C122.643 103.464 122.363 104.494 122.172 105.067C121.981 105.626 121.643 106.508 121.422 107.023C121.202 107.523 120.981 107.934 120.952 107.934C120.908 107.934 120.761 107.346 120.614 106.64C120.481 105.92 120.128 104.891 119.849 104.288C119.481 103.538 119.231 103.2 118.996 103.141C118.82 103.097 118.643 103.082 118.629 103.112C118.614 103.126 118.79 103.641 119.026 104.258C119.261 104.861 119.54 105.817 119.628 106.39C119.761 107.184 119.761 107.787 119.628 109.037C119.54 109.919 119.496 110.684 119.54 110.728C119.584 110.757 119.775 110.713 119.952 110.625C120.143 110.537 120.658 110.14 121.114 109.743C121.301 109.574 121.645 109.268 122.066 108.892L122.068 108.891L122.069 108.89L122.07 108.889L122.071 108.888L122.076 108.883C122.645 108.376 123.354 107.744 124.01 107.155C125.157 106.126 126.098 105.185 126.098 105.067C126.098 104.935 126.01 104.847 125.907 104.832C125.804 104.832 125.333 105.111 124.848 105.449C124.363 105.788 123.613 106.361 123.187 106.743C122.76 107.111 122.378 107.361 122.334 107.302C122.305 107.243 122.378 106.979 122.51 106.714C122.643 106.449 122.878 105.876 123.04 105.435C123.187 104.979 123.451 104.023 123.613 103.303C123.775 102.568 123.937 101.141 123.981 100.141C124.04 98.877 123.995 97.7889 123.848 96.6861C123.716 95.7892 123.451 94.5541 123.231 93.9219C123.025 93.3043 122.599 92.2457 122.275 91.5693C121.952 90.9076 121.408 89.9225 121.069 89.4079C120.717 88.8786 119.908 87.8934 119.261 87.217C118.614 86.5407 117.555 85.5849 116.908 85.0997C116.261 84.6145 115.07 83.9087 114.262 83.5117C113.453 83.1148 112.291 82.6295 111.689 82.4384C111.071 82.2325 109.983 81.9679 109.262 81.8355Z" fill="#15006A"/>
<path d="M93.7649 86.6583C93.7649 86.5554 93.7061 86.4378 93.6178 86.3937C93.5296 86.3348 92.8827 86.8495 92.1769 87.5258C91.4564 88.2022 90.1919 89.202 89.3685 89.7755C88.5304 90.3342 87.8688 90.8635 87.8982 90.9518C87.9276 91.0253 88.0893 91.1135 88.2363 91.1429C88.3981 91.1576 88.7951 91.0547 89.1186 90.8782C89.442 90.7165 90.0449 90.3195 90.4713 89.996C90.8977 89.6725 91.28 89.4226 91.3241 89.4373C91.3682 89.4667 91.1771 90.1725 90.883 91.0253C90.6036 91.8634 90.236 93.1573 90.0596 93.8925C89.839 94.8335 89.7214 95.9363 89.6626 97.7154C89.6038 99.7004 89.6332 100.524 89.839 101.759C89.9861 102.597 90.2654 103.788 90.4713 104.406C90.6624 105.008 91.1182 106.096 91.4858 106.832C91.8534 107.552 92.4269 108.552 92.7797 109.037C93.1179 109.522 93.7649 110.302 94.206 110.787C94.6324 111.257 95.397 111.963 95.8822 112.345C96.3674 112.728 97.1173 113.257 97.5731 113.522C98.0142 113.772 98.9111 114.213 99.5581 114.477C100.205 114.742 101.087 115.036 101.543 115.124C101.984 115.213 102.837 115.345 103.455 115.418C104.072 115.492 105.101 115.492 105.837 115.418C106.542 115.345 107.351 115.183 107.645 115.066C107.924 114.933 108.16 114.757 108.145 114.654C108.145 114.522 107.954 114.507 107.307 114.595C106.836 114.669 105.601 114.683 104.557 114.654C103.283 114.605 102.254 114.477 101.47 114.272C100.823 114.095 99.7198 113.683 99.0435 113.36C98.3524 113.037 97.2937 112.39 96.6909 111.934C96.088 111.463 95.2058 110.625 94.7206 110.066C94.2354 109.493 93.5443 108.567 93.1767 108.008C92.8091 107.434 92.2945 106.479 92.0152 105.876C91.7358 105.258 91.3094 104.009 91.0594 103.082C90.633 101.494 90.6036 101.215 90.5889 98.7446C90.5889 96.7156 90.6477 95.8039 90.8536 94.8482C91.0006 94.1571 91.2506 93.1279 91.4123 92.5691C91.5887 91.9957 92.0152 90.7753 92.3827 89.849C92.7356 88.908 93.0591 88.114 93.0885 88.0846C93.1179 88.0405 93.2503 88.3639 93.3826 88.8197C93.5149 89.2608 93.8237 90.0989 94.0589 90.6871C94.2942 91.3046 94.603 91.8193 94.7794 91.9075C94.9412 91.981 95.1176 92.0104 95.1764 91.9663C95.2352 91.9222 94.9412 90.7606 94.5148 89.3638C94.0884 87.9669 93.7502 86.7465 93.7649 86.6583Z" fill="#15006A"/>
<path d="M190.897 44.7826L190.985 48.4291C191.073 51.8256 191.073 52.0609 190.823 52.0609C190.617 52.0609 190.544 51.8844 190.456 51.2228C190.397 50.7522 190.309 49.1643 190.132 44.9737L190.897 44.7826Z" fill="#04FFE1"/>
<path d="M190.47 56.5013C190.691 56.5454 190.72 56.8836 190.794 59.4862C190.823 61.1035 190.823 62.9121 190.794 63.5296C190.735 64.3677 190.662 64.6324 190.5 64.6324C190.309 64.6324 190.265 64.059 190.25 60.5301C190.22 56.766 190.235 56.4425 190.47 56.5013Z" fill="#04FFE1"/>
<path d="M190.882 69.5875C191.044 69.6169 191.117 69.8963 191.147 70.5873C191.176 71.102 191.22 72.69 191.25 74.1015C191.294 76.4688 191.279 76.6893 191.044 76.7187C190.823 76.7481 190.779 76.5864 190.706 75.5424C190.647 74.8808 190.632 73.3222 190.662 72.0871C190.691 70.852 190.662 69.8522 190.603 69.8522C190.544 69.8522 190.529 69.7787 190.588 69.6904C190.632 69.6022 190.764 69.5581 190.882 69.5875Z" fill="#04FFE1"/>
<path d="M190.72 80.6005C190.882 80.6446 190.941 81.1739 190.97 83.2618C191 85.2762 190.97 85.8791 190.823 85.8791C190.72 85.8791 190.603 85.732 190.573 85.5409C190.529 85.3644 190.5 84.1587 190.515 82.8795C190.515 80.9828 190.559 80.5711 190.72 80.6005Z" fill="#04FFE1"/>
<path d="M190.941 89.4373C191.117 89.4667 191.161 89.8931 191.191 92.0104C191.206 93.4073 191.176 94.5542 191.117 94.5542C191.059 94.5542 191.014 94.6424 191.014 94.7747C191.014 94.8923 191.059 94.9953 191.117 94.9953C191.176 94.9953 191.235 95.1864 191.235 95.4364C191.235 95.7305 191.161 95.8775 191.014 95.8775C190.823 95.8775 190.779 95.3923 190.75 92.628C190.72 89.8196 190.75 89.4079 190.941 89.4373Z" fill="#04FFE1"/>
<path d="M191.044 97.936C191.132 97.936 191.22 99.1711 191.279 101.274C191.323 103.112 191.309 104.685 191.235 104.773C191.161 104.861 191.073 104.832 191 104.7C190.926 104.567 190.853 103.17 190.838 101.568C190.809 99.7445 190.838 98.6418 190.941 98.5976C191.014 98.5535 191.044 98.3918 190.985 98.2301C190.926 98.0683 190.956 97.936 191.044 97.936Z" fill="#04FFE1"/>
<path d="M191.117 107.052C191.353 107.052 191.382 107.317 191.382 110.728C191.382 113.86 191.338 114.404 191.161 114.477C191.097 114.492 191.033 114.509 190.981 114.524C190.925 114.539 190.883 114.551 190.867 114.551C190.823 114.551 190.809 112.86 190.823 110.802C190.853 107.346 190.882 107.052 191.117 107.052Z" fill="#04FFE1"/>
<path d="M191.088 118.668C191.176 118.668 191.235 119.433 191.22 120.682C191.22 121.8 191.176 122.785 191.117 122.873C191.059 122.976 190.823 123.123 190.603 123.211C190.382 123.3 189.353 123.505 188.324 123.653C187.074 123.858 186.398 123.902 186.309 123.8C186.211 123.702 186.236 123.608 186.383 123.52C186.5 123.447 187.294 123.285 188.147 123.153C188.985 123.02 189.926 122.844 190.794 122.638L190.809 121.638C190.809 121.094 190.838 120.344 190.867 119.991C190.882 119.624 190.912 119.183 190.926 118.991C190.926 118.815 191 118.668 191.088 118.668Z" fill="#04FFE1"/>
<path d="M109.042 26.1826H106.983C105.41 26.1826 104.94 26.1385 104.969 26.0061C105.013 25.8591 105.631 25.8003 109.63 25.7415L109.042 26.1826Z" fill="#04FFE1"/>
<path d="M101.984 33.3873H98.8965C95.897 33.3873 95.8087 33.3873 95.8087 33.0932C95.8087 32.8139 95.897 32.7992 98.1907 32.7992C99.514 32.7992 101.043 32.7551 102.602 32.5786L101.984 33.3873Z" fill="#04FFE1"/>
<path d="M17.4387 25.8885H20.3059C22.5261 25.8885 23.1584 25.9326 23.1143 26.0796C23.0849 26.1973 22.6291 26.2855 21.8351 26.359C21.1587 26.4031 20.0119 26.4619 18.0269 26.4766L18.1298 28.9762C18.2474 31.417 18.2327 31.4758 17.9533 31.4758C17.7328 31.4906 17.6299 31.3582 17.5416 31.0053C17.4828 30.7407 17.4387 29.4762 17.4387 28.2117V25.8885Z" fill="#04FFE1"/>
<path d="M18.071 34.593C18.1886 34.6371 18.2768 35.6223 18.3503 37.5925C18.4092 39.1952 18.4239 40.5479 18.3797 40.5921C18.3503 40.6215 18.218 40.6068 18.1004 40.5479C17.9092 40.4597 17.8798 39.9892 17.8945 37.4896C17.9092 35.3576 17.9533 34.5489 18.071 34.593Z" fill="#04FFE1"/>
<path d="M18.1739 57.9423C18.2474 58.2951 18.2915 59.6038 18.3062 60.8389C18.3062 62.074 18.2621 63.1179 18.2033 63.1473C18.1445 63.1767 18.0122 63.162 17.8945 63.1179C17.7475 63.0297 17.7181 62.5151 17.7769 60.5889C17.821 59.2509 17.8798 57.9864 17.9239 57.7952C17.9533 57.5894 17.9975 57.3835 18.0269 57.3541C18.0416 57.31 18.1151 57.5747 18.1739 57.9423Z" fill="#04FFE1"/>
<path d="M17.9828 68.2495C18.1886 68.2936 18.2327 68.6171 18.2768 70.2933C18.2915 71.3813 18.3503 72.5576 18.3945 72.8958C18.4533 73.4839 18.4386 73.528 17.7328 73.528V70.8667C17.7475 68.5141 17.7769 68.2201 17.9828 68.2495Z" fill="#04FFE1"/>
<path d="M18.1739 77.9391C18.4239 77.9391 18.468 78.042 18.468 78.6302C18.468 79.0125 18.5121 79.9388 18.5709 80.6887C18.6885 82.0414 18.6738 82.0561 18.3503 82.0561C18.0277 82.0561 18.0269 82.0122 17.9977 80.4066L17.9975 80.3946C17.9975 79.483 17.9681 78.5567 17.9386 78.3361C17.9092 78.0273 17.9534 77.9391 18.1739 77.9391Z" fill="#04FFE1"/>
<path d="M38.9059 42.9446C39.1853 42.9446 39.2 43.0476 39.2294 45.2237C39.2397 46.1021 39.2573 46.9085 39.2669 47.3456C39.2709 47.53 39.2735 47.6486 39.2735 47.6792C39.2735 47.7821 39.1706 47.885 39.053 47.9144C38.9206 47.9291 38.7736 47.8115 38.7148 47.6204C38.656 47.4292 38.6118 46.297 38.6118 45.1061C38.6118 43.0329 38.6119 42.9446 38.9059 42.9446Z" fill="#04FFE1"/>
<path d="M38.7883 32.7698L41.1115 32.8139C42.3907 32.8433 43.5228 32.9315 43.6111 33.0197C43.714 33.1226 43.714 33.2109 43.5817 33.3432C43.4346 33.4755 42.8318 33.5196 39.347 33.4608V36.2839C39.347 39.0188 39.3323 39.1217 39.053 39.1217C38.7589 39.1217 38.7589 39.0188 38.7736 35.9457L38.7883 32.7698Z" fill="#04FFE1"/>
<path d="M18.1886 45.2237C18.2474 45.3854 18.2915 47.091 18.3062 49.0025C18.3062 52.005 17.7622 51 17.7622 48.929C17.7916 46.9734 17.8651 45.2678 17.9386 45.1502C18.0563 44.959 18.0857 44.9737 18.1886 45.2237Z" fill="#04FFE1"/>
<path d="M30.2161 25.5944C32.7451 25.5944 33.4509 25.6385 33.4068 25.7856C33.3774 25.9179 32.6128 25.962 30.2308 25.962C27.8488 25.962 27.0696 25.9179 27.0255 25.7856C26.9666 25.6385 27.6724 25.5944 30.2161 25.5944Z" fill="#04FFE1"/>
<path d="M38.3325 25.5944C38.6854 25.5944 39.9058 25.6385 41.0232 25.6973C42.6259 25.7709 43.0817 25.8297 43.0523 25.9914C43.0229 26.1385 42.5083 26.1826 40.4057 26.1532C38.0678 26.109 37.8032 26.0796 37.759 25.8591C37.7149 25.6385 37.8032 25.5944 38.3325 25.5944Z" fill="#04FFE1"/>
<path d="M48.9044 25.8885C50.6688 25.8885 51.698 25.9326 51.698 26.0355C51.698 26.1237 50.6688 26.1826 48.9044 26.1826C47.1399 26.1826 46.1107 26.1237 46.1107 26.0355C46.1107 25.9326 47.1399 25.8885 48.9044 25.8885Z" fill="#04FFE1"/>
<path d="M58.05 25.712C59.4468 25.7415 60.6084 25.8003 60.6231 25.8297C60.6525 25.8591 60.6378 25.962 60.5937 26.0355C60.5496 26.1237 59.535 26.1826 58.0206 26.1826C55.7415 26.1826 55.521 26.1679 55.521 25.9326C55.521 25.6973 55.7121 25.6679 58.05 25.712Z" fill="#04FFE1"/>
<path d="M76.0324 32.9609C77.6498 32.9462 79.0173 32.9903 79.0761 33.0491C79.1202 33.1079 79.1496 33.2403 79.1055 33.3432C79.0614 33.4755 78.4291 33.5343 76.65 33.5343C75.3414 33.549 74.2239 33.5491 74.1945 33.5491C74.1504 33.5638 73.7387 33.5638 73.2682 33.5491C72.6212 33.5343 72.4301 33.4755 72.4301 33.3138C72.4301 33.1815 72.5771 33.0638 72.7535 33.0344C72.93 33.005 74.415 32.9756 76.0324 32.9609Z" fill="#04FFE1"/>
<path d="M63.5932 33.2256C67.0191 33.2256 67.3279 33.2403 67.1368 33.4608C66.9456 33.652 66.4163 33.6961 63.2697 33.6814C61.2701 33.6814 59.6233 33.6226 59.6086 33.5491C59.5938 33.4902 59.638 33.3873 59.7115 33.3285C59.7703 33.2844 61.52 33.2256 63.5932 33.2256Z" fill="#04FFE1"/>
<path d="M52.2862 33.0932C55.124 33.0932 55.9621 33.1373 55.9621 33.2697C55.9621 33.3873 55.5798 33.4902 54.8152 33.5638C54.1829 33.6226 52.5361 33.6814 51.1393 33.6814C49.5954 33.6814 48.5809 33.6226 48.5368 33.5343C48.4926 33.4461 48.4926 33.3138 48.5368 33.2403C48.5956 33.1373 49.9924 33.0932 52.2862 33.0932Z" fill="#04FFE1"/>
<path d="M77.5028 25.8885C79.2378 25.8885 80.6641 25.9326 80.6641 25.9914C80.6641 26.0502 80.4141 26.1532 80.1053 26.212C79.8113 26.2708 78.635 26.3149 77.5028 26.3149C76.3706 26.3149 75.1943 26.2708 74.8856 26.212C74.5768 26.1532 74.3268 26.0502 74.3268 25.9914C74.3415 25.9326 75.7531 25.8885 77.5028 25.8885Z" fill="#04FFE1"/>
<path d="M67.5044 25.8885C69.6511 25.8885 70.7833 25.9326 70.7392 26.0355C70.695 26.1237 69.4305 26.1826 67.4308 26.1826C65.3723 26.1826 64.1961 26.1237 64.1961 26.0355C64.1961 25.9326 65.3871 25.8885 67.5044 25.8885Z" fill="#04FFE1"/>
<path d="M90.3243 25.8591C90.3537 25.8738 90.339 25.962 90.2949 26.0355C90.2508 26.1237 89.0451 26.1826 87.1336 26.1826C85.2222 26.1826 84.0165 26.1237 83.9724 26.0355C83.9282 25.9473 85.0163 25.8738 87.0895 25.8591C88.8539 25.8297 90.3096 25.8297 90.3243 25.8591Z" fill="#04FFE1"/>
<path d="M86.9866 32.9462C88.9275 32.9462 90.5449 32.9903 90.5743 33.0491C90.6037 33.1079 90.589 33.2403 90.5301 33.3285C90.4713 33.4461 89.692 33.4902 87.8688 33.4608C86.4426 33.4461 84.8693 33.4167 84.3694 33.402C83.6636 33.3873 83.4577 33.3285 83.4577 33.1668C83.4577 32.9756 83.9429 32.9462 86.9866 32.9462Z" fill="#04FFE1"/>
<path d="M97.8525 25.7562C99.6317 25.7856 101.117 25.8738 101.176 25.9326C101.234 26.0061 101.19 26.109 101.087 26.1973C100.97 26.2708 99.5434 26.3149 97.7937 26.3002C94.8971 26.2561 94.706 26.2414 94.6766 25.9767C94.6471 25.7121 94.7795 25.7121 97.8525 25.7562Z" fill="#04FFE1"/>
<path d="M105.748 123.255C105.792 123.123 105.219 123.079 103.234 123.079C101.043 123.079 100.661 123.108 100.661 123.3C100.661 123.491 101.014 123.505 103.175 123.476C105.043 123.447 105.719 123.388 105.748 123.255Z" fill="#04FFE1"/>
<path d="M114.776 123.314C114.732 123.27 113.527 123.197 112.1 123.138C109.777 123.05 109.512 123.064 109.498 123.27C109.483 123.461 109.615 123.52 110.027 123.52H112.644C113.776 123.505 114.732 123.476 114.776 123.432C114.806 123.402 114.806 123.344 114.776 123.314Z" fill="#04FFE1"/>
<path d="M126.039 123.476C126.01 123.344 125.113 123.285 122.363 123.255C119.217 123.226 118.746 123.241 118.746 123.447C118.746 123.638 119.231 123.667 122.422 123.667C125.289 123.667 126.083 123.623 126.039 123.476Z" fill="#04FFE1"/>
<path d="M135.582 123.667C135.538 123.579 134.406 123.52 132.641 123.52C130.818 123.52 129.774 123.564 129.774 123.667C129.774 123.755 130.847 123.814 132.715 123.814C134.626 123.814 135.626 123.755 135.582 123.667Z" fill="#04FFE1"/>
<path d="M146.08 123.623C146.08 123.564 144.61 123.52 142.831 123.52C141.052 123.535 139.596 123.579 139.611 123.638C139.611 123.697 140.228 123.785 140.978 123.844C141.728 123.902 142.934 123.961 143.669 123.961C144.389 123.961 145.242 123.902 145.536 123.844C145.845 123.785 146.095 123.682 146.08 123.623Z" fill="#04FFE1"/>
<path d="M155.946 123.667C155.946 123.564 154.814 123.52 152.844 123.52C150.815 123.52 149.771 123.564 149.83 123.667C149.874 123.755 151.079 123.814 152.932 123.814C154.844 123.814 155.946 123.755 155.946 123.667Z" fill="#04FFE1"/>
<path d="M168.444 123.667C168.444 123.564 167.268 123.52 165.21 123.52C163.151 123.52 161.975 123.564 161.975 123.667C161.975 123.755 163.077 123.844 164.798 123.902C166.356 123.961 167.812 123.961 168.033 123.902C168.253 123.858 168.444 123.741 168.444 123.667Z" fill="#04FFE1"/>
</svg>
