<svg width="100" height="100" viewBox="0 0 100 100" fill="none" xmlns="http://www.w3.org/2000/svg">
<path fill-rule="evenodd" clip-rule="evenodd" d="M62.369 14.5202C62.3499 14.5392 62.1781 14.5755 61.9872 14.6007C61.4137 14.6768 60.5716 15.3348 60.2815 15.9336C59.9333 16.6525 59.9508 17.7264 60.3211 18.3584C60.5686 18.7806 61.0904 19.2649 61.5311 19.4813C61.8742 19.6499 61.996 19.6712 62.6119 19.6712C63.2212 19.6712 63.355 19.6483 63.7066 19.4835C64.2018 19.2515 64.6977 18.7521 64.9719 18.2092C65.1597 17.8373 65.1801 17.7325 65.1802 17.1362C65.1802 16.524 65.1627 16.4398 64.9428 15.9932C64.6348 15.3676 64.1776 14.9104 63.6699 14.7204C63.294 14.5798 62.441 14.4485 62.369 14.5202ZM62.126 15.2185C61.4921 15.3821 61.0844 15.6991 60.7994 16.2504C60.4885 16.8517 60.643 17.8639 61.1303 18.4176C61.6536 19.012 62.3954 19.2151 63.258 18.9999C63.7056 18.8883 64.3172 18.2708 64.4873 17.7588C64.6336 17.3184 64.5997 16.6657 64.4097 16.2647C64.2486 15.9244 63.8014 15.4715 63.4731 15.316C63.1304 15.1537 62.5421 15.1111 62.126 15.2185ZM49.7497 18.2622C49.5885 18.4233 49.6719 18.6339 50.0515 19.0241L50.4349 19.4182L50.0877 19.7429C49.7158 20.0907 49.6313 20.2495 49.7011 20.4695C49.7799 20.7177 50.07 20.6404 50.5162 20.2522L50.9256 19.8961L51.1811 20.1681C51.4623 20.4676 51.7396 20.6777 51.8534 20.6777C51.8939 20.6777 51.9799 20.5884 52.0443 20.4793L52.1616 20.2808L51.7816 19.861C51.5727 19.6301 51.4017 19.4085 51.4017 19.3686C51.4017 19.3287 51.5197 19.2012 51.664 19.0853C51.8082 18.9694 51.9776 18.7875 52.0405 18.6811C52.1472 18.5003 52.1467 18.4771 52.0321 18.3251C51.8678 18.1074 51.703 18.1666 51.2526 18.6053L50.8958 18.953L50.5047 18.5659C50.1179 18.1832 49.9116 18.1002 49.7497 18.2622ZM25.598 19.5943C25.5751 19.6314 25.4997 20.3198 25.4307 21.1242C25.3062 22.573 25.0964 25.0281 24.9389 26.8771C24.848 27.9447 24.8735 28.0571 25.2142 28.0913C25.4034 28.1103 25.4285 28.0895 25.4654 27.8831C25.5538 27.388 26.0342 21.7756 26.1121 20.3264L26.157 19.4919L25.8984 19.5093C25.7561 19.5189 25.6209 19.5571 25.598 19.5943ZM15.0093 21.2761C14.8969 21.3885 14.9751 21.7341 15.2218 22.2149C16.1799 24.082 18.6796 28.7737 18.7395 28.8172C18.7795 28.8462 18.906 28.8618 19.0205 28.8519C19.3946 28.8194 19.3098 28.6033 17.8551 25.8837C17.3141 24.872 16.5428 23.4195 16.1412 22.656C15.5085 21.453 15.3875 21.265 15.2349 21.2472C15.138 21.2359 15.0365 21.2489 15.0093 21.2761ZM34.9681 22.9156C34.8571 23.0782 34.3185 23.8516 33.7713 24.6343C33.224 25.4169 32.6511 26.2447 32.4981 26.4737C32.3452 26.7028 32.1161 27.0183 31.989 27.175C31.8618 27.3317 31.7578 27.4834 31.7578 27.5123C31.7578 27.5412 31.5617 27.8346 31.3219 28.1646C30.7674 28.9277 30.6652 29.0906 30.638 29.2553C30.6048 29.4567 30.7025 29.5626 30.9215 29.5626C31.0947 29.5626 31.1828 29.4669 31.6636 28.7564C31.9636 28.3131 32.3353 27.7742 32.4896 27.5591C32.644 27.3439 32.9852 26.8555 33.2478 26.4737C33.5105 26.0919 34.0378 25.3267 34.4196 24.7731C34.8014 24.2195 35.2177 23.6151 35.3447 23.43C35.6281 23.0165 35.6331 22.8935 35.3727 22.7396L35.1699 22.6198L34.9681 22.9156ZM6.90794 29.071C6.90794 29.1442 6.88989 29.2513 6.86781 29.3088C6.84303 29.3734 6.89419 29.457 7.00143 29.5273C7.15699 29.6292 11.8038 31.811 13.5174 32.5867C13.8884 32.7547 14.3179 32.9122 14.4718 32.9368L14.7516 32.9816V32.7339C14.7516 32.5976 14.7126 32.4613 14.6648 32.431C14.5678 32.3692 12.5023 31.4116 11.6974 31.0552C11.4111 30.9284 10.599 30.5535 9.8927 30.222C8.46397 29.5515 7.068 28.9379 6.97117 28.9379C6.93639 28.9379 6.90794 28.9978 6.90794 29.071ZM12.5651 37.6596C12.4124 37.6711 11.4753 37.7124 10.4827 37.7514C6.56219 37.9053 5.63025 37.9647 5.46761 38.071C5.29651 38.1827 5.26451 38.3728 5.39473 38.503C5.49538 38.6037 6.55629 38.6104 7.81031 38.5183C8.28752 38.4834 9.6619 38.4201 10.8645 38.3778C13.6046 38.2814 13.5022 38.2958 13.5022 38.0071C13.5022 37.6224 13.4278 37.5948 12.5651 37.6596ZM13.8477 43.2293C13.4859 43.4161 12.9556 43.6986 12.6692 43.8573C12.3829 44.0159 12.0237 44.2072 11.871 44.2824C11.7183 44.3575 11.4684 44.4941 11.3157 44.5857C11.163 44.6775 10.8975 44.8287 10.7257 44.9218C10.5539 45.015 9.99161 45.3259 9.47622 45.6129C7.67051 46.6181 7.67953 46.6105 7.94955 46.9004L8.09309 47.0544L8.45495 46.8727C8.65395 46.7727 9.14477 46.5112 9.54563 46.2915C9.94649 46.0718 10.8367 45.5865 11.5239 45.2129C13.7253 44.0162 14.6453 43.5017 14.7354 43.4167C14.8409 43.3172 14.7207 42.8899 14.5872 42.8899C14.5423 42.8899 14.2096 43.0427 13.8477 43.2293ZM84.8068 46.4759C84.7421 46.502 84.72 46.8156 84.72 47.7093V48.9077L83.5336 48.9478C82.881 48.9699 82.333 49.002 82.3159 49.0192C82.2987 49.0364 82.2663 49.1637 82.2438 49.302L82.2029 49.5536H83.4615H84.72V50.7943V52.0351L84.9369 52.0785C85.3674 52.1645 85.3447 52.2337 85.3447 50.8377V49.5536H86.6289H87.913V49.3755C87.913 49.2775 87.88 49.1356 87.8396 49.0601C87.7706 48.9312 87.6969 48.9236 86.6316 48.9341C86.0076 48.9403 85.4628 48.9242 85.4209 48.8983C85.3703 48.8671 85.3447 48.4444 85.3447 47.6406V46.43L85.1191 46.4355C84.9951 46.4384 84.8545 46.4567 84.8068 46.4759ZM2.53186 55.5659C2.46952 55.7297 2.50125 55.7913 2.8556 56.1949C3.07168 56.4411 3.44707 56.8201 3.68988 57.0372C3.93268 57.2543 4.13134 57.4637 4.13134 57.5026C4.13141 57.5415 3.80121 57.9007 3.39772 58.3009C2.5885 59.1033 2.40726 59.3605 2.53908 59.5193C2.72163 59.7393 2.91543 59.6219 3.74846 58.7867L4.57816 57.9548L5.42479 58.7918C6.15758 59.5164 6.29779 59.6258 6.4682 59.6063C6.62598 59.5882 6.66943 59.5448 6.68748 59.3872C6.70692 59.2175 6.60002 59.0793 5.90658 58.3772C5.4647 57.9298 5.1032 57.5331 5.1032 57.4955C5.1032 57.4581 5.46241 57.0716 5.90145 56.6367C6.66298 55.8824 6.75384 55.745 6.65756 55.4941C6.55955 55.2386 6.31126 55.3929 5.46588 56.2346L4.61182 57.0849L3.77498 56.2346C2.87302 55.3181 2.66798 55.2078 2.53186 55.5659ZM95.5969 57.0249C95.5702 57.0515 95.5484 57.3637 95.5484 57.7186V58.3638L94.9064 58.3837L94.2643 58.4037V58.6814V58.959L94.889 58.9938L95.5137 59.0285L95.5341 59.615C95.5453 59.9376 95.5895 60.2437 95.6324 60.2953C95.6755 60.3474 95.8054 60.3798 95.9243 60.3682C96.1374 60.3474 96.1385 60.3452 96.1555 59.8961C96.1649 59.648 96.1898 59.3435 96.2107 59.2193L96.2489 58.9938H96.8745H97.5L97.4786 58.6987L97.4573 58.4037L96.9206 58.4174C96.2109 58.4355 96.1732 58.396 96.1732 57.6353C96.1732 57.0627 96.1696 57.0502 96.0053 57.0502C95.913 57.0502 95.7942 57.0336 95.7414 57.0133C95.6885 56.9931 95.6236 56.9983 95.5969 57.0249ZM80.0346 66.7918C77.2859 67.4882 74.7089 68.1312 74.308 68.2208C73.0861 68.494 72.7618 68.6152 72.3994 68.9341C71.9931 69.2917 71.8127 69.6668 71.8107 70.1581C71.809 70.5733 73.3873 76.9935 73.6223 77.527C73.7868 77.9006 74.1139 78.2571 74.4469 78.4258C74.944 78.6776 75.1899 78.6565 76.9051 78.2147C77.7864 77.9875 80.4987 77.3035 82.9324 76.6945C85.3661 76.0855 87.4433 75.5427 87.5484 75.4882C87.6535 75.4337 87.8566 75.2752 87.9996 75.136C88.7128 74.4423 88.6999 74.2448 87.6836 70.2734C87.244 68.5554 86.8188 66.9755 86.7387 66.7625C86.5563 66.2774 86.1907 65.8441 85.8496 65.7086C85.243 65.4678 85.3114 65.4551 80.0346 66.7918ZM80.4164 67.3283C78.2976 67.8636 75.8977 68.4692 75.0832 68.6742C74.2688 68.8792 73.5878 69.0616 73.5698 69.0797C73.5517 69.0977 74.0285 71.0682 74.6292 73.4585C75.4944 76.9014 75.7441 77.8045 75.8303 77.8038C76.0337 77.8021 86.7219 75.1317 86.7875 75.0663C86.8 75.0537 86.7371 74.7824 86.6477 74.4632C86.5584 74.144 86.0647 72.1892 85.5506 70.1191C84.627 66.4002 84.6138 66.3554 84.4424 66.3553C84.3469 66.3552 82.5352 66.7931 80.4164 67.3283ZM80.9394 70.8254C80.5246 71.6861 80.1573 72.3905 80.1232 72.3905C80.089 72.3905 80.0784 72.4185 80.0995 72.4526C80.1488 72.5323 79.9242 72.6211 79.8557 72.5489C79.8274 72.519 79.6439 72.2145 79.4479 71.8722C79.252 71.5298 79.0662 71.2331 79.0353 71.2127C79.0043 71.1924 78.9407 71.0587 78.894 70.9155C78.8473 70.7723 78.7685 70.6552 78.7188 70.6552C78.6692 70.6552 78.5842 70.5883 78.53 70.5067L78.4314 70.3582L78.2379 70.5375C78.0141 70.7449 78.0246 70.8165 78.3517 71.3152C78.4766 71.5057 78.8564 72.1224 79.1957 72.6855C79.7831 73.6605 79.823 73.7093 80.0333 73.7093C80.1937 73.7093 80.2747 73.6666 80.3293 73.5531C81.5424 71.0326 82.2281 69.5277 82.2092 69.4277C82.1924 69.3392 82.1119 69.2954 81.9394 69.2809L81.6935 69.2602L80.9394 70.8254ZM47.9311 77.2229C47.6447 77.3182 47.2426 77.4752 47.0374 77.5718C46.8321 77.6685 46.5392 77.7917 46.3863 77.8456C45.8454 78.0365 45.0584 78.5256 44.6752 78.909C43.959 79.6255 43.4321 80.9781 43.51 81.9001C43.5635 82.5324 43.8533 83.395 44.1847 83.9076C44.7568 84.7927 45.439 85.2792 46.5794 85.6153C47.5852 85.9118 48.275 85.7912 50.2125 84.9801C51.2188 84.5589 51.7951 84.203 52.2241 83.7378C52.8022 83.111 53.0631 82.5117 53.2064 81.4808C53.3624 80.3595 52.8904 78.9939 52.0679 78.1861C51.0413 77.1779 49.2915 76.7705 47.9311 77.2229ZM48.417 77.7717C47.9878 77.86 47.8154 77.922 46.6251 78.4156C45.5672 78.8543 44.8362 79.4578 44.5184 80.1547C44.2978 80.6388 44.1133 81.3397 44.1133 81.6944C44.1133 82.7552 44.7973 84.0139 45.6808 84.5791C46.4413 85.0656 47.5273 85.2427 48.3718 85.018C48.9877 84.8542 50.9015 84.0223 51.1902 83.793C51.6763 83.4068 52.066 82.9974 52.2008 82.7314C52.8932 81.365 52.667 79.6857 51.6541 78.6727C51.0501 78.0687 49.9883 77.6513 49.1111 77.673C48.9775 77.6762 48.6651 77.7207 48.417 77.7717ZM57.3127 79.8337C56.7739 80.1232 56.3214 80.5579 56.112 80.9873C55.9847 81.2483 55.9541 81.4297 55.9523 81.9348C55.9502 82.5159 55.9665 82.5901 56.1871 82.9983C56.439 83.4646 56.8618 83.8867 57.2862 84.0955C57.481 84.1913 57.7074 84.223 58.2042 84.224C58.7859 84.2253 58.9098 84.2027 59.2553 84.0331C59.7138 83.8079 60.1692 83.3415 60.377 82.8841C60.6028 82.3874 60.5876 81.5109 60.3442 80.9874C59.967 80.1761 59.2108 79.6767 58.2833 79.6261C57.7855 79.5989 57.726 79.6117 57.3127 79.8337ZM57.5101 80.4142C56.7743 80.7329 56.3557 81.6959 56.6195 82.4624C56.8537 83.1426 57.3259 83.5416 57.9771 83.6096C58.7816 83.6938 59.3497 83.4344 59.7124 82.8174C59.8771 82.5372 59.9046 82.4151 59.9032 81.9695C59.902 81.5703 59.8663 81.3822 59.7501 81.1626C59.579 80.8394 59.2491 80.536 58.9179 80.3971C58.6209 80.2727 57.8143 80.2825 57.5101 80.4142Z" fill="white"/>
<path d="M66.9503 20.9583C65.0669 21.2123 63.7241 21.5358 62.0566 22.1373C61.0268 22.5088 57.1132 24.097 54.3518 25.264C53.7028 25.5382 53.0591 25.7771 52.9214 25.7948L53.5694 26.2683C53.559 26.2586 53.9182 26.1011 54.3676 25.918C54.8171 25.7351 56.606 25.0007 58.343 24.2861C63.1603 22.3045 64.301 21.948 67.0172 21.5744C68.3038 21.3974 70.94 21.4312 72.5033 21.6445C75.6863 22.0791 78.6952 23.1773 81.3583 24.8766C82.0046 25.2891 82.7939 25.8484 83.1121 26.1195C83.4303 26.3906 83.7974 26.6943 83.9279 26.7942C84.4397 27.1866 85.34 28.0518 85.7314 28.5275C86.1714 29.0624 86.9855 30.019 87.1375 30.1798C87.2537 30.3027 88.0387 31.4805 88.5593 32.3127C89.3451 33.569 90.2061 35.6439 90.6872 37.4409C91.1021 38.99 91.1854 39.4351 91.3892 41.1892C91.5316 42.4147 91.5368 42.6177 91.4679 44.2404C91.3717 46.5036 91.1048 48.0353 90.4705 49.9656C89.9438 51.5689 89.7718 52.0053 89.2405 53.0873C88.4058 54.7871 87.1015 56.7493 86.0624 57.8683C85.8395 58.1084 85.5655 58.4207 85.4534 58.5625C85.3414 58.7042 85.0593 58.9839 84.8266 59.1841C84.5939 59.3843 84.1389 59.7843 83.8156 60.0729C83.4922 60.3615 83.0871 60.6901 82.9153 60.803C82.7435 60.916 82.517 61.0783 82.4122 61.1637C82.3072 61.2491 82.1251 61.371 82.0075 61.4347C81.8899 61.4984 81.7414 61.5967 81.6777 61.6533C81.5535 61.7635 80.9743 62.0996 80.5205 62.3248C80.3678 62.4006 80.196 62.4926 80.1387 62.5292C79.8841 62.6923 79.031 63.093 77.9175 63.5724C77.6312 63.6957 77.2407 63.8674 77.0499 63.954C76.859 64.0406 76.5466 64.1679 76.3557 64.2369C76.1648 64.3059 75.9762 64.3866 75.9365 64.4162C75.8968 64.4458 75.6001 64.5653 75.2771 64.6818C74.9541 64.7983 74.6357 64.9248 74.5696 64.9629C74.5034 65.001 74.3004 65.0906 74.1184 65.162C73.9364 65.2334 73.3033 65.495 72.7115 65.7434C72.1198 65.9917 71.5341 66.2171 71.41 66.244C71.286 66.271 71.1845 66.3165 71.1845 66.345C71.1845 66.3736 70.9112 66.4975 70.5771 66.6203C70.2431 66.7431 69.9207 66.8702 69.8607 66.9027C69.8008 66.9352 69.504 67.062 69.2013 67.1843C68.8985 67.3068 68.5572 67.4472 68.4426 67.4964C68.1796 67.6095 64.7288 69.0295 63.1672 69.6674C60.7263 70.6644 55.9442 72.6295 49.4929 75.2865C42.2679 78.2622 41.2767 78.6461 39.7641 79.0547C34.7112 80.4195 29.0083 79.8086 24.1918 77.3866C22.905 76.7395 21.5771 75.8807 20.7692 75.173C20.5474 74.9787 20.3324 74.8198 20.2913 74.8198C20.1934 74.8198 17.7364 72.3479 17.7364 72.2495C17.7364 72.208 17.7003 72.1962 17.6562 72.2234C17.6109 72.2515 17.5948 72.2427 17.6191 72.2034C17.6652 72.1288 17.4459 71.8316 17.0249 71.398C16.8818 71.2506 16.7646 71.1116 16.7646 71.0892C16.7646 71.0668 16.7174 70.999 16.6596 70.9385C16.2035 70.4606 15.0318 68.5723 14.4377 67.3579C13.0963 64.6159 12.437 61.8474 12.3446 58.5687C12.2736 56.0454 12.5003 54.1004 13.1267 51.8589C13.7868 49.4965 14.8503 47.3077 16.4712 44.9746C16.4835 44.9569 16.6177 45.0876 16.7694 45.2651C17.083 45.6319 18.1551 46.5133 18.6735 46.8304C18.8643 46.9472 19.3329 47.199 19.7147 47.3901C20.1063 47.5862 20.3634 47.7514 20.3047 47.7694L22.9771 47.1329C21.5429 47.4447 21.1008 47.3792 19.6575 46.6408C18.7143 46.1582 17.5751 45.2669 16.9813 44.547C15.8074 43.1237 15.2547 42.0713 14.8441 40.4779C14.6655 39.7846 14.6517 39.6328 14.651 38.3433C14.6503 37.2507 14.6774 36.8293 14.7782 36.365C15.3897 33.5485 17.2059 31.1811 19.7171 29.9275C20.6654 29.4541 21.8637 29.0734 22.8363 28.9365C23.0664 28.9041 23.6139 28.8934 24.053 28.9128C26.8011 29.0341 29.0535 30.0122 30.8044 31.8448C31.7401 32.8243 32.2114 33.5763 32.7661 34.9754C33.8693 37.7576 33.388 41.4301 31.606 43.8269C31.2285 44.3346 30.3108 45.2875 30.0085 45.4857L31.2869 45.2186C31.2651 45.1967 31.3455 45.0828 31.4657 44.9653C31.8229 44.6161 32.6233 43.4526 32.9342 42.8309C33.6432 41.4128 34.0121 39.7832 34.0049 38.1003C34.0005 37.0604 33.9906 36.9884 33.7087 35.9485C33.3379 34.5808 33.32 34.4908 33.4172 34.4908C33.4605 34.4908 35.346 33.7303 37.6073 32.8007C39.8685 31.871 41.8353 31.0723 41.9779 31.0256C42.0615 30.9982 41.8886 31.059 42.3607 30.8639L42.9101 29.8835C42.8274 29.9647 41.6978 30.4597 40.3997 30.9837C39.1017 31.5077 36.9592 32.3862 35.6387 32.9359C34.3181 33.4857 33.1936 33.9355 33.1398 33.9353C33.086 33.9352 32.8348 33.5838 32.5817 33.1544C31.5531 31.4099 30.3404 30.28 28.5025 29.3538C26.9941 28.5938 25.5711 28.2365 24.057 28.2377C23.0048 28.2385 22.3837 28.3362 21.1232 28.699C20.3426 28.9237 18.5625 29.726 18.395 29.9287C18.2871 30.0594 17.8978 30.3209 17.6985 30.3966C17.6002 30.4341 17.5385 30.495 17.5615 30.5321C17.5844 30.5693 17.522 30.62 17.4227 30.6449C17.3085 30.6736 17.2556 30.7251 17.2786 30.7851C17.3014 30.8447 17.2499 30.8963 17.1398 30.9239C17.0297 30.9515 16.9781 31.0032 17.0009 31.0627C17.0234 31.1214 16.9746 31.1734 16.8728 31.1989C16.7824 31.2216 16.6927 31.3 16.6735 31.3731C16.6544 31.4462 16.589 31.5061 16.5282 31.5061C16.4673 31.5061 16.4175 31.5422 16.4175 31.5863C16.4175 31.6304 16.3441 31.7632 16.2543 31.8813C14.8925 33.6738 14.2156 35.318 13.9868 37.3895C13.7525 39.5115 14.3917 42.0143 15.628 43.8151C16.0342 44.4068 16.0709 44.5697 15.8576 44.8334C15.5689 45.1904 15.028 46.0233 14.6406 46.7075C14.5001 46.9557 14.348 47.2056 14.3026 47.2628C14.1699 47.4299 13.3311 49.312 13.0221 50.1356C12.0047 52.8473 11.4983 56.321 11.696 59.2312C12.0197 63.9983 13.5784 68.0783 16.5105 71.834C16.872 72.297 16.9291 72.3653 17.4979 73.0151C18.6691 74.353 20.6297 76.0101 22.2311 77.0154C26.0582 79.4182 31.4619 80.7367 35.8532 80.3394C37.4055 80.1989 38.4204 80.0326 39.6924 79.7103C41.1514 79.3405 42.2738 78.9267 45.9875 77.3894C46.6556 77.1129 47.9519 76.5812 48.8681 76.208C50.965 75.3537 53.8818 74.1578 57.9266 72.494C59.6636 71.7795 61.7564 70.9199 62.5772 70.584C63.398 70.248 64.5382 69.78 65.1108 69.5439C65.6835 69.3079 66.5737 68.9429 67.0891 68.733C67.6045 68.523 68.6509 68.0936 69.4144 67.7787C70.178 67.4638 71.5523 66.8999 72.4686 66.5256C78.6822 63.9875 79.747 63.5108 81.3184 62.5641C85.1622 60.2482 88.4051 56.559 90.2265 52.4302C90.5252 51.753 91.0964 50.1319 91.3746 49.1717C91.6061 48.3728 92.0074 46.1111 92.0877 45.153C92.2544 43.1651 92.0421 40.3823 91.5576 38.2044C90.9062 35.2761 89.5044 32.2544 87.5823 29.6346C87.0866 28.9591 87.2197 29.1049 85.7109 27.5842C84.3622 26.2249 83.8026 25.7149 83.2623 25.3527C83.0905 25.2374 82.7001 24.9712 82.3947 24.7611C79.5437 22.7993 76.658 21.6747 72.8681 21.0483C71.9163 20.891 71.527 20.8646 69.8656 20.845C68.2699 20.8262 67.7916 20.8448 66.9503 20.9583Z" fill="white"/>
<path fill-rule="evenodd" clip-rule="evenodd" d="M35.9474 51.0419C32.649 51.778 31.7578 52.0079 31.7578 52.1227C31.7578 52.3535 32.2879 52.669 34.3261 53.6516C35.5287 54.2314 37.1463 55.0145 37.9207 55.392C38.6952 55.7696 39.3415 56.0784 39.3569 56.0784C39.3723 56.0784 40.3786 56.5583 41.593 57.1448C45.2905 58.9307 45.5958 59.0739 45.7068 59.074C45.7657 59.074 45.9389 59.0409 46.0916 59.0002C46.2443 58.9596 47.0721 58.7717 47.9311 58.5828C48.7901 58.3939 50.0707 58.1113 50.777 57.955C51.4833 57.7986 52.2845 57.6223 52.5574 57.5633C52.8969 57.4898 53.1033 57.403 53.2108 57.2885C53.3602 57.1294 53.3622 57.1144 53.2489 56.9893C53.1834 56.9169 52.9362 56.7723 52.6995 56.6681C52.2343 56.4631 49.5223 55.162 47.2369 54.0472C46.4543 53.6654 45.2986 53.1108 44.6687 52.8146C44.0387 52.5185 42.8986 51.9725 42.1351 51.6012C40.3069 50.7123 39.4196 50.316 39.2714 50.3221C39.2048 50.3248 37.709 50.6487 35.9474 51.0419ZM37.6059 51.3295C38.0354 51.2315 38.5742 51.1076 38.8033 51.0543C39.0323 51.0009 39.2214 50.9537 39.2234 50.9495C39.2407 50.9132 41.5739 52.0349 41.5916 52.088C41.6231 52.1824 39.8017 52.5693 39.3238 52.5697C39.0075 52.57 38.8171 52.5099 38.2132 52.2198C37.8124 52.0272 37.3361 51.8093 37.155 51.7355C36.9737 51.6616 36.8254 51.5802 36.8253 51.5545C36.8251 51.5288 37.1764 51.4276 37.6059 51.3295ZM36.6167 54.0682C36.6167 54.0035 36.985 53.9009 38.005 53.6811C39.1008 53.445 39.101 53.4451 40.2515 54.0008C40.8103 54.2706 41.2674 54.5057 41.2674 54.5231C41.2674 54.6378 39.4905 55.0372 38.9798 55.0372C38.7222 55.0372 38.4853 54.9562 37.8938 54.6662C37.4777 54.4622 37.0202 54.2568 36.877 54.2096C36.7339 54.1626 36.6167 54.0989 36.6167 54.0682ZM43.8584 54.8176C43.9193 54.7835 44.4156 54.6494 44.961 54.5197C45.5065 54.39 45.9977 54.2815 46.0527 54.2787C46.1076 54.2759 46.5137 54.4419 46.9551 54.6475C47.3964 54.8531 47.9107 55.0878 48.098 55.1689C48.2852 55.2501 48.4193 55.3356 48.396 55.3589C48.3261 55.4288 46.6785 55.795 46.2305 55.8401C45.8211 55.8814 45.7964 55.8737 44.7808 55.3809C43.9966 55.0005 43.7742 54.8647 43.8584 54.8176ZM47.5218 56.3349C47.8042 56.271 48.2851 56.1577 48.5905 56.0832C49.4234 55.88 49.6275 55.9156 50.785 56.4658C51.3405 56.73 51.8055 56.9773 51.8183 57.0154C51.8428 57.089 50.7687 57.3364 49.8399 57.4711L49.2846 57.5517L48.1465 57.0014L47.0084 56.451L47.5218 56.3349Z" fill="#0BFF7B"/>
<path d="M52.0763 42.4889C52.0515 42.6455 52.0761 42.7526 52.1549 42.8322C52.3219 43.0009 59.268 46.4996 59.4357 46.4996C59.5873 46.4996 59.6619 46.3759 59.6619 46.1242C59.6619 45.9879 59.2089 45.742 56.0351 44.1558C54.0403 43.1588 52.3416 42.3246 52.2602 42.3022C52.1351 42.2675 52.1067 42.2964 52.0763 42.4889Z" fill="#0BFF7B"/>
<path d="M53.3882 39.9436C53.2819 40.2208 53.3463 40.3852 53.6403 40.5863C54.0283 40.8515 60.0071 43.8411 60.4775 44.0051L60.8419 44.132V43.8242V43.5163L57.2498 41.7138C55.2741 40.7224 53.6067 39.8933 53.5444 39.8715C53.4766 39.8477 53.4139 39.8767 53.3882 39.9436Z" fill="#0BFF7B"/>
<path d="M54.5254 37.7185C54.4321 37.9638 54.4359 37.9913 54.5815 38.1231C54.7504 38.2759 61.7115 41.7793 61.8463 41.7793C61.9048 41.7793 61.9525 41.7427 61.9525 41.698C61.9525 41.6533 62.0064 41.5572 62.0722 41.4844C62.1863 41.3584 62.1839 41.346 62.0201 41.2203C61.8372 41.0797 55.0147 37.6677 54.751 37.5849C54.6241 37.5449 54.5818 37.57 54.5254 37.7185Z" fill="#0BFF7B"/>
<path fill-rule="evenodd" clip-rule="evenodd" d="M50.5613 24.8059C48.2393 23.6819 46.8584 23.0378 46.7703 23.0378C46.7144 23.0378 46.1671 24.0189 44.0788 27.8621C43.5187 28.8928 42.9927 29.8026 42.9101 29.8837L41.5427 32.5127C41.4956 32.5723 40.8625 33.7344 40.3139 34.7687C40.2227 34.9405 40.0836 35.1903 40.0047 35.324C39.9258 35.4576 39.6733 35.9261 39.4437 36.3652C39.214 36.8042 38.8696 37.4445 38.6783 37.7881C38.1561 38.7262 38.0577 38.9072 37.6592 39.6623C37.1291 40.6668 36.889 41.0925 36.7193 41.3282C36.6369 41.4427 36.528 41.6458 36.4774 41.7794C36.4267 41.913 36.3607 42.055 36.3306 42.095C36.3006 42.135 36.1311 42.4473 35.9539 42.7891C35.4378 43.785 35.168 44.2486 35.0348 44.3692C34.9043 44.4874 31.3591 45.2909 31.2869 45.2187L19.0552 48.0213C18.4253 48.1421 17.7615 48.2734 17.5802 48.313L17.2505 48.3849L17.2519 48.7784C17.2569 50.2064 17.7555 51.3031 18.7995 52.1819C19.0686 52.4083 21.6992 53.7504 29.2242 57.5003C34.7599 60.2588 41.1321 63.4354 43.3845 64.5595C47.763 66.7446 48.4173 67.019 49.9788 67.3253C50.5492 67.4373 51.0056 67.4757 51.7835 67.4771C53.1401 67.4797 53.3227 67.446 59.0025 66.1439C65.5846 64.635 68.9244 63.8798 69.7459 63.7145C70.2851 63.6061 70.2808 63.6122 71.9952 60.4515C72.1505 60.1652 72.4956 59.5404 72.7621 59.0632C73.0286 58.586 73.3407 58.0238 73.4557 57.8138C73.5707 57.6038 74.2421 56.3856 74.9478 55.1067C75.6534 53.8278 76.3245 52.6096 76.439 52.3996C76.5536 52.1896 76.9331 51.5079 77.2824 50.8846C77.6318 50.2614 77.9175 49.7395 77.9175 49.725C77.9175 49.7104 78.0058 49.5489 78.1136 49.3658C79.3464 47.2727 80.3439 45.2952 80.5757 44.4841C80.8327 43.5852 80.9235 42.8195 80.8753 41.9561C80.8286 41.12 80.5442 39.3776 80.438 39.2776C80.407 39.2484 79.3978 38.756 78.1952 38.1834C76.9926 37.6107 74.4625 36.3858 72.5727 35.4612C70.6829 34.5367 68.6526 33.5534 68.0609 33.2761C67.4691 32.9988 66.2353 32.4064 65.3191 31.9596C59.7902 29.2641 58.5086 28.6408 57.8224 28.3138L50.5613 24.8059ZM44.2522 48.5858C44.2522 48.5438 46.4543 44.1482 50.8874 35.3413C52.2182 32.6976 53.3304 30.5345 53.3591 30.5345C53.4526 30.5345 68.442 38.0416 68.4633 38.099C68.4866 38.1622 59.6123 55.9396 59.5575 55.9396C59.514 55.9396 57.2898 54.8828 55.3236 53.9278C54.5218 53.5384 53.5999 53.1016 53.2748 52.957C52.9496 52.8125 52.1531 52.4291 51.5047 52.105C50.4718 51.5886 47.0576 49.9483 44.9637 48.9623C44.5723 48.778 44.2522 48.6086 44.2522 48.5858ZM78.6779 42.9247C78.8404 42.6193 79.2108 41.9399 79.501 41.415C80.0119 40.4904 80.1371 40.3272 80.1402 40.582C80.141 40.6488 80.1714 41.1632 80.2078 41.7252C80.2665 42.6313 80.2582 42.8345 80.1345 43.5216C80.0577 43.9476 79.885 44.5812 79.7506 44.9293C79.5201 45.5265 78.876 46.8086 78.4067 47.6045C78.2903 47.8019 78.1952 47.9766 78.1952 47.9931C78.1952 48.0095 77.9665 48.422 77.6869 48.9098C77.4074 49.3975 77.0274 50.0777 76.8425 50.4213C76.6577 50.7649 76.2879 51.4365 76.021 51.9137C75.7539 52.3909 75.467 52.9063 75.3834 53.059C74.8401 54.0511 72.1952 58.8225 71.8244 59.4797C71.5766 59.9188 71.2654 60.481 71.1328 60.7291C70.8777 61.2067 70.4427 61.9881 70.3023 62.2211C70.2561 62.2977 70.1624 62.4697 70.0941 62.6033C69.8922 62.9978 69.7884 63.0682 69.2409 63.1829C68.9546 63.2429 66.9398 63.7008 64.7637 64.2004C54.5177 66.553 53.4458 66.811 52.3685 66.8359C52.1819 66.8402 51.9952 66.8375 51.7607 66.8375C50.4699 66.8375 49.2761 66.5958 47.8964 66.055C47.0352 65.7175 19.7954 52.1361 19.2867 51.7906C18.578 51.3094 18.2191 50.8271 17.987 50.0443C17.8819 49.69 17.838 49.276 17.9054 49.276C17.951 49.276 24.5991 52.4623 28.0442 54.1353C28.7696 54.4876 29.7067 54.9401 30.1266 55.1409C30.5466 55.3417 32.2333 56.1537 33.8749 56.9454C41.6266 60.6835 48.1628 63.8301 48.7293 64.0966C49.0729 64.2582 49.665 64.5383 50.0451 64.7192L50.7361 65.0479L51.2251 64.9388C51.494 64.8789 52.2763 64.7017 52.9635 64.5452C56.7742 63.6773 66.1979 61.584 67.3147 61.3573C68.0305 61.2121 68.6659 61.052 68.7267 61.0015C68.7874 60.9511 69.0211 60.549 69.246 60.108C69.6167 59.3809 70.1323 58.4307 70.6604 57.5014C70.7688 57.3106 70.9512 56.9826 71.0655 56.7726C71.1798 56.5626 71.5145 55.9535 71.8091 55.419C72.1038 54.8846 72.4546 54.2442 72.5888 53.9961C72.7231 53.7479 73.0907 53.0764 73.4058 52.5037C73.7209 51.931 74.1662 51.1189 74.3954 50.699C74.6246 50.279 74.9283 49.7324 75.0701 49.4842C75.2119 49.2361 75.4536 48.7988 75.607 48.5124C75.7605 48.2261 76.1442 47.5233 76.4595 46.9507C76.7749 46.378 77.2204 45.5659 77.4496 45.1459C77.6788 44.726 77.9824 44.1793 78.1243 43.9312C78.2661 43.683 78.5152 43.2301 78.6779 42.9247ZM29.7101 46.2618C30.6341 46.0617 33.3215 45.4651 34.5343 45.1908C34.7061 45.152 34.9717 45.1351 35.1244 45.1534C35.3997 45.1864 38.6743 46.7324 44.6687 49.6594C46.253 50.433 47.8148 51.1909 48.1393 51.3436C49.0384 51.7666 52.1663 53.2712 53.7618 54.0481C54.5444 54.4292 55.3565 54.8203 55.5665 54.9171C55.7765 55.014 56.5105 55.3653 57.1977 55.6977C57.8849 56.0302 58.5721 56.3574 58.7248 56.4249C58.8775 56.4925 60.7673 57.398 62.9243 58.4373C65.0813 59.4766 66.9681 60.3759 67.1172 60.4357C67.3522 60.5301 67.3698 60.5515 67.2495 60.5959C67.108 60.6483 66.1596 60.8639 61.0154 62.0132C51.3041 64.1829 51.1587 64.214 50.8464 64.1832C50.6293 64.1618 49.9416 63.8659 48.5905 63.2121C47.5215 62.6949 45.8348 61.8818 44.8422 61.4052C43.8496 60.9286 42.1941 60.1321 41.1633 59.6351C39.2147 58.6958 34.3106 56.3337 27.9401 53.2663C25.8976 52.2829 23.3053 51.0427 22.1792 50.5104C21.0532 49.978 20.0973 49.5137 20.0548 49.4785C20.0123 49.4432 19.6901 49.294 19.3387 49.1469C18.9873 48.9998 18.7019 48.8515 18.7044 48.8174C18.71 48.7428 19.0452 48.6529 20.3741 48.3696C20.9276 48.2516 21.7398 48.0667 22.1788 47.9587C23.0057 47.7553 27.7625 46.6835 29.7101 46.2618Z" fill="#0BFF7B"/>
</svg>
