<svg width="100" height="100" viewBox="0 0 100 100" fill="none" xmlns="http://www.w3.org/2000/svg">
<g opacity="0.56">
<path d="M24.1484 72.7596C24.1484 72.7596 24.2003 72.7547 24.2243 72.7327C24.2978 72.68 24.321 72.5797 24.2682 72.5062C20.1821 66.4454 18.2424 59.0891 18.8075 51.8027C19.3662 44.517 22.4069 37.5453 27.3717 32.1767C32.3367 26.808 39.0472 23.2292 46.2711 22.1C53.4885 20.9713 60.9747 22.3349 67.3384 25.9303C67.4147 25.9754 67.5165 25.9462 67.5616 25.8699C67.6067 25.7937 67.5775 25.6919 67.5012 25.6468C61.0748 22.0115 53.5155 20.6353 46.2209 21.7778C38.9264 22.9203 32.147 26.5317 27.1346 31.9506C22.1221 37.3696 19.0486 44.4098 18.4844 51.7744C17.9196 59.1327 19.879 66.5591 24.0043 72.6881C24.0416 72.737 24.0965 72.7645 24.1549 72.759L24.1484 72.7596Z" fill="white"/>
<path d="M70.4772 80.6504C74.3678 77.8163 77.6373 74.0863 79.9376 69.8595L79.9305 69.8537C82.2308 65.6269 83.583 60.8491 83.8404 56.0442C84.0978 51.2394 83.2682 46.3479 81.4404 41.8976C80.292 39.1117 78.7454 36.4789 76.8749 34.1062C76.7012 33.8857 76.8749 33.6857 77.1111 33.8857C79.0102 36.2907 80.58 38.96 81.7435 41.7839C83.595 46.2777 84.4297 51.221 84.17 56.0718C83.9104 60.9226 82.5495 65.7471 80.227 70.0152C77.9045 74.2833 74.5998 78.0559 70.6721 80.9132C70.6474 80.9286 70.6157 80.9381 70.5897 80.9406C70.5314 80.9461 70.4771 80.9251 70.4398 80.8763C70.387 80.8029 70.4037 80.7031 70.4772 80.6504Z" fill="white"/>
<path d="M59.6612 35.0216C55.6873 33.3016 51.3504 32.8423 47.1063 33.708C42.8623 34.5739 39.0439 36.6877 36.0603 39.8292L36.0255 39.8658C36.1488 39.8938 36.2717 39.923 36.3939 39.9545C39.3151 36.9167 43.04 34.8682 47.1691 34.0297C51.3422 33.1756 55.6194 33.6258 59.5329 35.3241C60.9288 35.9311 62.2411 36.6802 63.4532 37.5581C63.6785 37.719 63.9609 37.5581 63.6908 37.3358C62.4465 36.4292 61.0975 35.6571 59.6614 35.0343L59.6612 35.0216Z" fill="#D9D9D9"/>
<path d="M72.2734 52.9841C72.0569 49.5664 70.9968 46.2184 69.199 43.3042C68.3861 41.9814 67.4399 40.7652 66.3778 39.6698C66.1486 39.4335 66.0344 39.7744 66.1731 39.918C67.2081 40.9891 68.1303 42.177 68.9233 43.4686C70.6918 46.3394 71.7349 49.6364 71.9475 53.0022C72.1602 56.3681 71.5404 59.7707 70.1507 62.8386C68.7612 65.9064 66.6138 68.6195 63.9478 70.6795C63.8738 70.7373 63.8609 70.8367 63.9187 70.9108C63.9545 70.9537 64.0089 70.9758 64.0608 70.9719C64.0932 70.9695 64.1255 70.9604 64.1499 70.939C66.859 68.8431 69.0358 66.0884 70.448 62.9733C71.8597 59.8515 72.4895 56.3955 72.2734 52.9841Z" fill="#D9D9D9"/>
<path d="M57.9595 60.39L57.9995 60.4813C57.2801 61.2603 56.437 61.9048 55.4874 62.3968C53.8769 63.2309 52.0838 63.5634 50.2836 63.3608C49.2093 63.2398 48.1796 62.9336 47.2289 62.4594C47.25 62.3427 47.2707 62.2262 47.2919 62.1101C48.2324 62.5923 49.2541 62.9043 50.3214 63.0247C52.0495 63.2182 53.785 62.8945 55.3363 62.0962C56.2969 61.5985 57.149 60.9346 57.8641 60.1293C57.8931 60.2169 57.9244 60.304 57.9595 60.39Z" fill="white"/>
<path d="M59.0116 49.7452C59.0872 49.7009 59.1872 49.7332 59.2315 49.8087C59.8396 50.8828 60.2204 52.0487 60.3574 53.2736C60.4318 53.912 60.4369 54.5494 60.3761 55.1798C60.2737 55.2124 60.1718 55.2492 60.0718 55.291L60.0293 55.3088C60.1075 54.6461 60.112 53.9753 60.0343 53.3013C59.8959 52.1235 59.5362 50.9983 58.9491 49.965C58.9048 49.8895 58.9363 49.7896 59.0116 49.7452Z" fill="white"/>
<path d="M50.746 45.2089C52.0212 45.1289 53.2799 45.3167 54.4762 45.7647C54.5631 45.7923 54.6142 45.8903 54.5744 45.9732C54.5407 46.0578 54.4527 46.0986 54.366 46.0714C53.2049 45.6413 51.9973 45.4624 50.7652 45.5357C49.533 45.6089 48.3508 45.9306 47.2554 46.498C46.6688 46.802 46.1246 47.1674 45.6254 47.5883L45.5715 47.4855C45.5373 47.4235 45.5015 47.3626 45.4667 47.3012C45.9702 46.8826 46.5171 46.5178 47.1076 46.2119C48.2439 45.6233 49.4707 45.289 50.746 45.2089Z" fill="white"/>
<path d="M43.0826 73.2825C44.8129 74.0324 46.6436 74.5491 48.5152 74.8051L48.5087 74.7988C51.7737 75.2467 55.1481 74.8892 58.2512 73.7824C58.3401 73.7495 58.429 73.7957 58.4613 73.8782C58.494 73.967 58.4478 74.0551 58.3654 74.0874C56.5911 74.7162 54.734 75.1105 52.8578 75.2509C51.3971 75.3601 49.9252 75.3192 48.4677 75.1215C46.744 74.8875 45.0507 74.4325 43.4369 73.7806C43.3043 73.6178 43.1851 73.4523 43.0826 73.2825Z" fill="white"/>
</g>
<path d="M81.7649 24.9945C81.6738 24.8448 81.4915 24.7666 81.3157 24.8122L75.6972 26.2315L76.3157 20.4502C76.3352 20.2744 76.2376 20.1052 76.0748 20.0336C75.912 19.9619 75.7232 20.0075 75.6061 20.1377L67.4615 29.5453C67.4094 29.6039 67.3769 29.682 67.3638 29.7601L66.6282 35.9516L53.8482 50.5284L53.1516 47.7094C53.106 47.5336 52.9498 47.4034 52.774 47.3969C52.5982 47.3904 52.4289 47.5076 52.3703 47.6768L50.0201 54.9555C49.968 55.1117 50.0201 55.2875 50.1438 55.3917C50.2219 55.4568 50.313 55.4894 50.4042 55.4894C50.4693 55.4894 50.5344 55.4763 50.593 55.4438L57.2792 51.9216C57.4419 51.837 57.5266 51.6547 57.4875 51.4724C57.4485 51.2901 57.2922 51.1599 57.1099 51.1534L54.4927 51.0167L67.2336 36.4854L73.3209 34.975C73.399 34.9555 73.4771 34.9099 73.5292 34.8448L81.7063 25.4633C81.8235 25.3265 81.8365 25.1377 81.7454 24.9815L81.7649 24.9945ZM68.1646 29.988L75.3717 21.6547L74.8443 26.5765L67.5852 34.8708L68.1646 29.988ZM51.1138 54.2654L52.7154 49.2979L53.2557 51.4854C53.2557 51.4854 53.2688 51.5115 53.2753 51.531C53.2818 51.5505 53.2883 51.5701 53.3013 51.5831C53.3208 51.6156 53.3404 51.6417 53.3664 51.6677C53.3729 51.6742 53.3794 51.6873 53.386 51.6938C53.386 51.6938 53.386 51.6938 53.3925 51.6938C53.425 51.7198 53.4641 51.7459 53.5096 51.7589C53.5292 51.7654 53.5487 51.7654 53.5682 51.7719C53.5878 51.7719 53.6073 51.7849 53.6333 51.7849H53.6529L55.6125 51.8891L51.1203 54.2589L51.1138 54.2654ZM73.0149 34.2198L68.1907 35.4177L75.4563 27.1299L80.2545 25.919L73.0149 34.2263V34.2198Z" fill="white"/>
<path fill-rule="evenodd" clip-rule="evenodd" d="M31.5624 38.0046C31.7226 38.0244 31.8697 38.1032 31.9735 38.2296L32.0218 38.297L32.0229 38.2981L34.4008 42.2558L34.9354 40.2341L34.9759 40.1233C35.0903 39.879 35.3559 39.725 35.6397 39.7841C39.7452 40.5852 43.2769 43.3267 45.5712 47.4858L45.9238 48.1562C47.5657 51.4347 48.3253 55.2734 47.9254 58.4336L47.8794 58.7591C47.7218 59.7661 47.5342 60.766 47.3548 61.7619C47.1677 62.774 46.9805 63.8246 46.8235 64.8503C46.8011 65.0355 46.6896 65.1807 46.5528 65.2741L46.554 65.2752C46.4522 65.3474 46.3404 65.3769 46.2249 65.3769C46.1646 65.3769 46.1059 65.3662 46.0485 65.3472L43.1888 64.4608C42.9404 65.9945 42.7408 67.4941 42.6564 69.0364H43.0754L43.2439 69.0478C43.6342 69.0928 43.9889 69.2682 44.2615 69.5527C44.5719 69.8767 44.7433 70.3017 44.7433 70.7588C44.7433 71.2159 44.5718 71.6409 44.2615 71.965C43.9506 72.2894 43.5323 72.4729 43.09 72.4812H42.7373C42.888 73.0691 43.2455 73.6032 43.7257 74.1111C44.2529 74.6687 44.9135 75.1835 45.5779 75.6987L46.1114 76.1156C46.6438 76.5379 47.1623 76.9784 47.5806 77.4554C48.1397 78.0931 48.5331 78.8118 48.5331 79.661C48.5329 80.8634 47.8941 81.6608 47.2301 82.144C48.3189 82.9791 49.9492 84.6701 50 87.3638V87.3661L49.9899 87.4883C49.9681 87.6085 49.9132 87.7216 49.8237 87.8127C49.7083 87.93 49.552 88 49.3845 88H20.6155C20.4481 88 20.2917 87.9301 20.1763 87.8127C20.0573 87.6914 20 87.5299 20 87.3661V87.3638L20.0101 87.1011C20.1589 84.5531 21.7399 82.9413 22.7867 82.1383C22.1213 81.6594 21.4826 80.8555 21.4826 79.653C21.4827 78.8039 21.8749 78.0851 22.434 77.4474C22.9914 76.8117 23.7282 76.2417 24.4367 75.6919L24.9332 75.3047C25.4242 74.9163 25.8949 74.5214 26.2911 74.1031C26.7717 73.5956 27.13 73.0619 27.2841 72.4744H26.9359C26.3913 72.4744 25.9681 72.2631 25.6824 71.9398C25.3989 71.6191 25.2567 71.1952 25.2567 70.7748C25.2567 70.2346 25.4926 69.674 25.9575 69.3368C25.3299 69.0061 24.6756 68.7211 23.9964 68.4996C23.7257 68.418 23.5621 68.1563 23.5718 67.8828L23.5954 67.5287C23.893 63.939 26.0248 62.077 28.04 60.3079L28.8015 59.6351C30.5032 58.0997 31.9145 56.4864 31.9072 53.6296C29.5416 54.5059 27.3678 55.7894 25.4487 57.4684L25.4442 57.473C25.179 57.6854 24.8887 57.8166 24.576 57.8819H24.5726C24.2615 57.9387 23.9385 57.9315 23.6302 57.8408C23.4021 57.7736 23.1861 57.6695 22.9934 57.5278L22.8092 57.3736C22.5757 57.1527 22.3983 56.8821 22.2857 56.5798L21.3883 54.3126L21.3872 54.3114C21.2909 54.0585 21.2434 53.7968 21.2434 53.5199C21.2434 53.2373 21.3091 52.9733 21.4209 52.7215V52.7193L21.677 52.1756C22.9003 49.6521 24.519 47.3891 26.4978 45.423L26.9269 45.0061C27.6502 44.3076 28.4964 43.8066 29.398 43.4722C29.0825 42.8461 28.8855 42.1568 28.8285 41.4471C28.7444 40.4699 28.9212 39.4759 29.344 38.5848L29.3452 38.5837L29.3856 38.5128C29.4906 38.354 29.6647 38.2454 29.8641 38.2364L29.945 38.2376C30.1311 38.2543 30.3076 38.3581 30.4111 38.5243L30.7088 38.9937C30.7772 38.7774 30.8537 38.5592 30.9547 38.3484L30.9963 38.2764C31.1014 38.1177 31.2754 38.0088 31.4748 38H31.4804L31.5624 38.0046ZM24.1963 82.7083C23.6866 83.0072 21.6597 84.3408 21.3052 86.763H48.7487C48.4018 84.3027 46.375 83.0027 45.8565 82.7083H24.1963ZM28.5454 72.4744C28.3926 73.3792 27.9275 74.144 27.329 74.8147C26.7038 75.5153 25.9276 76.1233 25.2027 76.6856L25.1028 76.7632L25.0949 76.7553C24.4777 77.2353 23.895 77.695 23.4584 78.1647C22.9973 78.6606 22.7216 79.1457 22.7216 79.653C22.7216 80.2827 23.0063 80.7092 23.3281 80.9939C23.6393 81.2692 23.9825 81.4077 24.1245 81.4565H45.907C46.05 81.4074 46.392 81.2707 46.7022 80.9973C47.0237 80.7138 47.3088 80.2867 47.3088 79.653C47.3088 79.1457 47.033 78.6606 46.5719 78.1647C46.1117 77.6696 45.4885 77.1861 44.8343 76.6776C44.1095 76.1191 43.333 75.5115 42.7081 74.8113C42.1099 74.1409 41.6468 73.3755 41.4939 72.4744H28.5454ZM26.9583 70.2734C26.7655 70.2734 26.6569 70.351 26.5922 70.4436C26.5222 70.5437 26.4956 70.6743 26.4956 70.7748V70.7817C26.4956 70.839 26.505 70.9584 26.5652 71.0581C26.6185 71.1462 26.7214 71.2374 26.9505 71.2374H43.0731C43.1854 71.2316 43.3017 71.1796 43.3899 71.09L43.3932 71.0866L43.4516 71.0181C43.5018 70.9447 43.528 70.8566 43.528 70.7588C43.528 70.6648 43.4994 70.5753 43.4472 70.495L43.3865 70.4173C43.3004 70.3242 43.1885 70.2735 43.0653 70.2734H42.069L42.0094 70.2814H41.9937C41.9704 70.2813 41.9462 70.2763 41.9375 70.2745L41.9319 70.2734H26.9583ZM32.8653 44.2272C30.9736 44.1418 29.1094 44.6487 27.7749 45.9279C25.7098 47.8788 24.0298 50.1694 22.7856 52.7364L22.543 53.2538C22.4981 53.3515 22.4744 53.4533 22.4744 53.5508C22.4745 53.6539 22.4929 53.7571 22.5306 53.8534L23.437 56.1378L23.4393 56.1446L23.4786 56.2372C23.5079 56.296 23.5437 56.3501 23.5842 56.3982L23.6482 56.4667L23.6527 56.4702L23.7212 56.5307C23.7946 56.587 23.8801 56.629 23.9694 56.6529L24.0638 56.6723C24.1589 56.6866 24.2564 56.6855 24.3446 56.6666L24.3525 56.6643C24.4386 56.6505 24.5273 56.6155 24.6063 56.5661L24.6816 56.5124C26.9191 54.5597 29.4957 53.089 32.3206 52.1699L32.5149 52.1013C32.7481 52.013 33.0874 51.8642 33.4382 51.6422C33.9064 51.3457 34.3859 50.924 34.6692 50.3481L34.6703 50.3469L34.786 50.0774C34.9878 49.5236 35.0016 48.8874 34.8164 48.1688L34.7074 47.8033C34.6129 47.5241 34.728 47.2144 34.9759 47.0678L35.0893 47.0152C35.4027 46.9064 35.7552 47.0753 35.8632 47.4047C36.2722 48.6163 36.2738 49.7322 35.8542 50.7113L35.7655 50.9055C35.1245 52.194 33.9014 52.8697 33.1259 53.1887C33.2178 55.2361 32.7063 56.7693 31.8937 58.0292C31.0713 59.3044 29.9433 60.2951 28.8487 61.2525L28.8352 61.265L28.8195 61.273C26.8989 62.9556 25.1258 64.5241 24.8287 67.4853C25.9027 67.8766 26.9207 68.4002 27.876 69.0364H41.4254C41.5289 67.1878 41.7923 65.3774 42.0847 63.6156L42.0869 63.5688C42.0881 63.5451 42.0915 63.5062 42.1083 63.4637L42.1184 63.4352L42.1206 63.4317C42.1484 63.2692 42.1771 63.1048 42.2049 62.9406C42.2348 62.7638 42.2648 62.5869 42.2947 62.4118L42.5126 61.128C42.5837 60.6992 42.6531 60.2694 42.7204 59.8396C43.5847 54.1996 42.0055 49.3198 38.4129 46.3425L38.0591 46.0604C36.6611 44.9905 34.7572 44.3125 32.8653 44.2272ZM35.3701 43.3671C36.6295 43.7254 37.8088 44.3031 38.7779 45.0495L39.1688 45.3602C43.1287 48.6297 44.8461 53.9479 43.9189 60.0143L43.9178 60.0155C43.7829 60.8844 43.6408 61.746 43.491 62.6071C43.4603 62.8066 43.4262 63.0073 43.391 63.209L45.7363 63.9309C45.8714 63.123 46.0191 62.3105 46.1665 61.5186L46.4349 60.0406C46.5227 59.5466 46.6074 59.0508 46.682 58.5535L46.7539 57.9847C47.0468 55.0923 46.3137 51.4623 44.5962 48.2785C42.7837 44.9185 39.8851 42.074 35.9643 41.1124L35.3701 43.3671ZM30.0988 40.3129C30.0458 40.6537 30.0326 41.0026 30.0595 41.3477V41.3557L30.0854 41.6024C30.1607 42.1421 30.347 42.663 30.6178 43.1375C30.7218 43.1159 30.8266 43.0959 30.9311 43.0793C30.6655 42.4911 30.495 41.8647 30.4392 41.2118L30.4381 41.1992V40.8532L30.0988 40.3129ZM31.6882 40.0959C31.6399 40.4276 31.6282 40.7616 31.6545 41.0953L31.6837 41.35C31.7675 41.9144 31.9694 42.4552 32.2588 42.9479C32.6501 42.9401 33.0406 42.9585 33.4303 42.9959L31.6882 40.0959Z" fill="#0BFF7B"/>
<path fill-rule="evenodd" clip-rule="evenodd" d="M60.0723 55.2914C61.5059 54.6929 63.2203 55.0361 64.3232 56.1391C65.063 56.8725 65.4657 57.8552 65.4658 58.8969C65.4657 59.9384 65.0618 60.9134 64.3232 61.6527L64.3242 61.6537C64.168 61.8146 63.9951 61.9498 63.8184 62.0717C64.7545 62.3344 65.6132 62.7238 66.2568 63.1547C66.6089 63.3904 66.9012 63.6413 67.1064 63.893C67.3094 64.1421 67.4375 64.4048 67.4385 64.6625L67.4355 64.7895C67.4121 65.0813 67.2847 65.3504 67.0781 65.5639L67.0791 65.5648C66.847 65.8113 66.5286 65.9479 66.1924 65.9623H63.749C63.7913 72.1926 65.5705 75.1133 66.0762 75.8168H66.5654C66.6707 75.8169 66.7804 75.8333 66.8848 75.8666L66.9873 75.9057L66.9893 75.9066L67.0801 75.9535C67.1704 76.0046 67.2595 76.0686 67.3369 76.1459C67.4385 76.2476 67.5185 76.3715 67.5703 76.5023C67.6314 76.6399 67.6533 76.7893 67.6533 76.9311C67.6533 77.0666 67.6232 77.207 67.5654 77.3441C67.5069 77.4831 67.4263 77.6014 67.3242 77.7035L67.3223 77.7045C67.1108 77.9087 66.8386 78.0198 66.5518 78.0199H66.3516C66.5133 78.9894 67.2651 79.5116 68.1191 80.0893L68.4424 80.309C69.1983 80.8334 69.9384 81.4527 69.9385 82.517C69.9383 83.3467 69.5132 83.9256 69.0176 84.3051C69.4496 84.5533 69.8432 84.871 70.1641 85.2631L70.374 85.5404C70.8353 86.2072 71.1006 87.002 71.1299 87.8119V87.8168L71.1211 87.9203C71.1087 87.9895 71.0835 88.0577 71.0449 88.1186L70.9766 88.2045C70.8764 88.3048 70.7401 88.3645 70.5947 88.3647H52.5352C52.4262 88.3647 52.3224 88.3308 52.2354 88.2719L52.1533 88.2045L52.1504 88.2006C52.0506 88.0926 52.0002 87.9579 52 87.8168V87.8119L52.0273 87.4662C52.1233 86.663 52.4492 85.8912 52.9658 85.2631L53.1064 85.101C53.4001 84.7812 53.7468 84.5125 54.123 84.2982C53.628 83.923 53.2042 83.3438 53.2041 82.5102C53.2043 81.2939 54.1713 80.6591 55.0234 80.0824L55.3525 79.8578C56.063 79.3615 56.6447 78.8572 56.79 78.0199H56.5781C56.3507 78.0199 56.1437 77.9527 55.9609 77.8285L55.959 77.8275C55.8283 77.7349 55.7166 77.6163 55.6348 77.476L55.5635 77.3285C55.4835 77.1251 55.4607 76.9047 55.5049 76.6908L55.5508 76.5346C55.6078 76.3831 55.6985 76.2473 55.8125 76.1332C56.0236 75.9221 56.3108 75.8377 56.5811 75.8168L56.5908 75.8158L57.0732 75.8168C57.5894 75.0968 59.3646 72.159 59.3945 65.9623H56.9727C56.6133 65.9551 56.3022 65.8103 56.0654 65.5668C55.8341 65.3281 55.7042 65.0028 55.7041 64.6654C55.7041 64.4068 55.8319 64.1427 56.0352 63.892C56.2398 63.6396 56.5313 63.3881 56.8828 63.1518C57.5249 62.7203 58.3817 62.3309 59.3174 62.0707C59.1377 61.9468 58.9644 61.8114 58.8076 61.6547C58.4844 61.337 58.2268 60.9722 58.0371 60.5668L57.96 60.39C57.7652 59.9133 57.6641 59.4081 57.6641 58.8969C57.6641 58.3857 57.7653 57.8814 57.96 57.4047L58.0371 57.2289C58.2282 56.826 58.49 56.4567 58.8076 56.1391L58.9463 56.0072C59.2296 55.7493 59.5469 55.5336 59.8955 55.3695L60.0723 55.2914ZM55.4844 84.8813C54.8239 85.0456 54.2203 85.4202 53.791 85.9428C53.4653 86.3371 53.2395 86.8046 53.1357 87.3012H69.999C69.8911 86.8037 69.6714 86.3361 69.3467 85.9428C68.9175 85.4203 68.3127 85.0457 67.6523 84.8813H55.4844ZM57.8604 78.0258C57.7075 79.3685 56.8099 80.1404 55.9785 80.7221L55.6191 80.9672C55.1809 81.2615 54.8417 81.4999 54.6104 81.7436C54.4138 81.9507 54.3009 82.1558 54.2744 82.3969V82.5102C54.2746 83.0085 54.5634 83.3281 54.875 83.5307C55.161 83.7163 55.4543 83.7942 55.5215 83.8109H67.6699C67.788 83.7781 68.0828 83.6816 68.3516 83.4848C68.6321 83.2793 68.8748 82.9721 68.875 82.517C68.875 82.2218 68.7594 81.9851 68.5332 81.7475C68.3598 81.5654 68.125 81.387 67.834 81.185L67.5244 80.974C66.6073 80.3605 65.457 79.572 65.2822 78.0258H57.8604ZM56.5654 76.8959C56.563 76.8968 56.5598 76.8986 56.5557 76.9027L56.5498 76.9086L56.5449 76.9115L56.5439 76.9164C56.5423 76.9248 56.5428 76.9312 56.543 76.935V76.9379C56.5457 76.9426 56.5496 76.9469 56.5527 76.9506C56.5597 76.9527 56.5678 76.9562 56.5762 76.9584C56.5843 76.9605 56.5924 76.962 56.5977 76.9633C56.6 76.9639 56.6023 76.9649 56.6035 76.9652H56.6055L56.623 76.9691H57.29C57.2929 76.9684 57.2996 76.9666 57.3066 76.9652C57.3146 76.9638 57.3266 76.9623 57.3398 76.9623C57.3495 76.9615 57.3578 76.9601 57.3633 76.9604C57.3776 76.961 57.3915 76.9635 57.4014 76.9652C57.4093 76.9666 57.4171 76.9678 57.4229 76.9691H66.5264C66.5307 76.9685 66.5347 76.9668 66.5381 76.9662V76.893H57.3662C57.3702 76.8929 57.3727 76.8929 57.3682 76.8939C57.3667 76.8943 57.359 76.8957 57.3525 76.8969C57.3451 76.8982 57.3336 76.8998 57.3203 76.8998C57.3019 76.8998 57.2798 76.8963 57.2715 76.8949C57.2681 76.8944 57.2645 76.8935 57.2617 76.893H56.585C56.5748 76.893 56.5685 76.8948 56.5654 76.8959ZM60.4521 65.975C60.4265 71.3881 59.1373 74.4511 58.334 75.8295H64.7959C63.9924 74.456 62.7036 71.3929 62.6719 65.975H60.4521ZM61.3184 62.8178C60.117 62.8715 59.019 63.2303 58.1973 63.6361C57.7591 63.8526 57.4016 64.0815 57.1514 64.2816C57.0261 64.3819 56.9294 64.4729 56.8633 64.5502C56.8008 64.6233 56.7769 64.6733 56.7695 64.6986C56.7729 64.7491 56.7933 64.8014 56.8291 64.8373L56.875 64.8832C56.9064 64.9007 56.9414 64.9115 56.9756 64.9115H66.1445C66.1911 64.9074 66.2484 64.8828 66.2939 64.8373L66.2988 64.8334L66.3262 64.8022C66.3474 64.7713 66.3582 64.733 66.3604 64.6918C66.3539 64.6677 66.331 64.6178 66.2686 64.5443C66.2031 64.4674 66.1064 64.3755 65.9814 64.2758C65.7316 64.0765 65.3741 63.8487 64.9355 63.6332C64.1125 63.2288 63.0111 62.8715 61.8066 62.8178L61.5635 62.8109H61.5596L61.3184 62.8178ZM61.5654 56.0668C61.2856 56.0668 61.0119 56.1083 60.7451 56.1898L60.4795 56.2846C60.1307 56.4279 59.8252 56.6341 59.5566 56.9027C59.2888 57.1707 59.083 57.4823 58.9395 57.8256C58.7961 58.1685 58.7217 58.5368 58.7217 58.9106C58.7218 59.2838 58.7957 59.6456 58.9395 59.9955L59.0586 60.2494C59.1741 60.4662 59.3197 60.663 59.4902 60.8451L59.5566 60.9115C59.8242 61.1789 60.1359 61.3852 60.4785 61.5287C61.5256 61.9585 62.7758 61.7089 63.5732 60.9115C64.1093 60.3754 64.4022 59.6648 64.4023 58.9037C64.4023 58.1428 64.1092 57.4321 63.5732 56.8959C63.0371 56.3598 62.3265 56.067 61.5654 56.0668Z" fill="#0BFF7B"/>
<path opacity="0.32" d="M87.3373 76.9954H84.7331V74.3847C84.7331 74.2935 84.6615 74.2219 84.5703 74.2219C84.4792 74.2219 84.4076 74.2935 84.4076 74.3847V76.9954H81.8034C81.7122 76.9954 81.6406 77.067 81.6406 77.1581C81.6406 77.2493 81.7122 77.3209 81.8034 77.3209H84.4076V79.9316C84.4076 80.0227 84.4792 80.0943 84.5703 80.0943C84.6615 80.0943 84.7331 80.0227 84.7331 79.9316V77.3209H87.3373C87.4284 77.3209 87.5 77.2493 87.5 77.1581C87.5 77.067 87.4284 76.9954 87.3373 76.9954Z" fill="white"/>
<path opacity="0.32" d="M18.4557 38.6367H17.0951C16.9518 38.6367 16.8086 38.6107 16.6719 38.5521C16.5352 38.4935 16.4115 38.4154 16.3073 38.3112C16.2031 38.207 16.1185 38.0833 16.0664 37.9466C16.0078 37.8099 15.9818 37.6667 15.9818 37.5234V36.1628C15.9818 36.0716 15.9102 36 15.819 36C15.7279 36 15.6563 36.0716 15.6563 36.1628V37.5234C15.6563 37.6732 15.6302 37.8164 15.5716 37.9531C15.513 38.0899 15.4349 38.2135 15.3307 38.3177C15.2266 38.4219 15.1029 38.5065 14.9661 38.5586C14.8294 38.6172 14.6862 38.6432 14.543 38.6432H13.1628C13.0716 38.6432 13 38.7149 13 38.806C13 38.8971 13.0716 38.9688 13.1628 38.9688H14.5234C14.7448 38.9688 14.9596 39.0339 15.1484 39.1576C15.3307 39.2813 15.474 39.457 15.5651 39.6654C15.6237 39.8021 15.6498 39.9388 15.6498 40.0886V40.0951V41.4492C15.6498 41.5404 15.7214 41.612 15.8125 41.612C15.9037 41.612 15.9753 41.5404 15.9753 41.4492V40.0886C15.9753 39.8672 16.0404 39.6524 16.1641 39.4636C16.2878 39.2748 16.4635 39.138 16.6654 39.0469C16.8021 38.9883 16.9453 38.9623 17.0886 38.9623H18.4492C18.5404 38.9623 18.612 38.8906 18.612 38.7995C18.612 38.7083 18.5404 38.6367 18.4492 38.6367H18.4557ZM15.8906 39.2813C15.8646 39.3268 15.832 39.3724 15.8125 39.418C15.7018 39.2031 15.5391 39.0208 15.3307 38.8841C15.2852 38.8516 15.2396 38.8255 15.194 38.7995C15.3242 38.7344 15.4479 38.6432 15.5521 38.5391C15.6563 38.4349 15.7474 38.3112 15.8125 38.181C15.8776 38.3112 15.9688 38.4284 16.0729 38.5391C16.1771 38.6497 16.3008 38.7344 16.431 38.7995C16.2162 38.9102 16.0273 39.0794 15.8906 39.2813Z" fill="white"/>
<path opacity="0.32" d="M51.0759 15.0603C51.0303 15.0603 50.9912 15.0408 50.9587 15.0083L48.0811 11.9809C48.016 11.9158 48.0225 11.8116 48.0811 11.753C48.1462 11.6945 48.2504 11.6945 48.309 11.753L51.0564 14.6437L53.8689 11.0629C53.9209 10.9913 54.0251 10.9783 54.0967 11.0369C54.1683 11.089 54.1814 11.1932 54.1228 11.2648L51.1996 15.0018C51.1735 15.0408 51.128 15.0603 51.0824 15.0669C51.0824 15.0669 51.0824 15.0669 51.0759 15.0669V15.0603Z" fill="white"/>
</svg>
