<svg width="100" height="100" viewBox="0 0 100 100" fill="none" xmlns="http://www.w3.org/2000/svg">
<path d="M89.0041 22.4845C89.0041 20.5582 87.4436 18.9966 85.5187 18.9966H28.4233C26.4983 18.9966 24.9378 20.5582 24.9378 22.4845V52.8796H58.2988C60.7737 52.8796 62.7801 54.8874 62.7801 57.3642V73.8074H85.5187C87.4436 73.8074 89.0041 72.2458 89.0041 70.3195V22.4845ZM90 70.3195C90 72.7962 87.9936 74.804 85.5187 74.804H62.2822C62.0072 74.804 61.7842 74.5809 61.7842 74.3057V57.3642C61.7842 55.4378 60.2237 53.8762 58.2988 53.8762H24.4399C24.1649 53.8762 23.9419 53.6531 23.9419 53.3779V22.4845C23.9419 20.0078 25.9483 18 28.4233 18H85.5187C87.9936 18 90 20.0078 90 22.4845V70.3195Z" fill="white"/>
<path d="M76.722 54.0428C77.0887 54.0428 77.3859 54.3403 77.3859 54.7072C77.3859 55.0741 77.0887 55.3715 76.722 55.3715H69.7511C69.3844 55.3715 69.0872 55.0741 69.0872 54.7072C69.0872 54.3403 69.3844 54.0428 69.7511 54.0428H76.722ZM80.0415 50.0566C80.4082 50.0566 80.7054 50.354 80.7054 50.7209C80.7054 51.0879 80.4082 51.3853 80.0415 51.3853H69.7511C69.3844 51.3853 69.0872 51.0879 69.0872 50.7209C69.0872 50.354 69.3844 50.0566 69.7511 50.0566H80.0415ZM83.361 46.0703C83.7277 46.0703 84.0249 46.3678 84.0249 46.7347C84.0249 47.1016 83.7277 47.3991 83.361 47.3991H69.7511C69.3844 47.3991 69.0872 47.1016 69.0872 46.7347C69.0872 46.3678 69.3844 46.0703 69.7511 46.0703H83.361Z" fill="#0BFF7B"/>
<path d="M83.361 40.2568C83.911 40.2568 84.3569 40.703 84.3569 41.2534C84.3569 41.8038 83.911 42.25 83.361 42.25H69.7511C69.2011 42.25 68.7552 41.8038 68.7552 41.2534C68.7552 40.703 69.2011 40.2568 69.7511 40.2568H83.361Z" fill="#0BFF7B"/>
<path d="M36.029 41.5853C36.029 40.668 35.2859 39.9244 34.3692 39.9244C34.3301 39.9244 34.2914 39.9256 34.2532 39.9283C34.0232 39.9441 33.8123 39.8 33.7436 39.5799C33.3852 38.4316 32.314 37.5991 31.0497 37.5991C30.6461 37.5991 30.2634 37.6838 29.9171 37.8359V43.2462H34.3692C35.2859 43.2462 36.029 42.5026 36.029 41.5853ZM48.9494 42.0317C47.7026 40.9039 45.8366 40.8312 44.5089 41.8377L44.3822 41.9383L38.1455 47.1332L40.9204 46.076L41.0076 46.0445C41.9111 45.7303 42.9105 45.8429 43.7228 46.3547L45.6117 47.5449L45.6805 47.5864C46.3955 48.0008 47.2875 47.9709 47.9746 47.5034L49.5559 46.4273L49.6357 46.3748C50.4652 45.8462 51.496 45.7341 52.4219 46.0763L54.1115 46.7005L48.9494 42.0317ZM62.7801 59.5234H62.9461C63.4044 59.5234 63.776 59.1516 63.776 58.6929V55.4424L56.0973 48.497L52.0767 47.0112C51.4637 46.7847 50.7836 46.8491 50.226 47.1812L50.1161 47.2513L48.5348 48.3273C47.5305 49.0107 46.2266 49.0546 45.1816 48.449L45.0811 48.3883L43.1921 47.1981C42.6543 46.8592 41.9965 46.7759 41.3943 46.9658L41.2747 47.0073L35.7858 49.0988L31.2474 52.8797H58.2988C60.7738 52.8797 62.7801 54.8875 62.7801 57.3642V59.5234ZM37.0248 41.5853C37.0248 43.053 35.8359 44.2428 34.3692 44.2428H29.9171V52.6905L43.7452 41.1723L43.9082 41.0429C45.6152 39.7491 48.0142 39.8424 49.6172 41.2924L63.776 54.0991V36.4364C63.776 35.9777 63.4044 35.6059 62.9461 35.6059H30.7469C30.2886 35.6059 29.9171 35.9777 29.9171 36.4364V36.7741C30.2752 36.6629 30.6557 36.6025 31.0497 36.6025C32.6314 36.6025 33.9865 37.5651 34.566 38.9356C35.9407 39.0364 37.0248 40.1839 37.0248 41.5853ZM64.7718 58.6929C64.7718 59.702 63.9544 60.52 62.9461 60.52H62.2822C62.0072 60.52 61.7843 60.2969 61.7843 60.0217V57.3642C61.7843 55.4378 60.2238 53.8762 58.2988 53.8762H29.4191C29.1441 53.8762 28.9212 53.6531 28.9212 53.3779V36.4364C28.9212 35.4274 29.7386 34.6094 30.7469 34.6094H62.9461C63.9544 34.6094 64.7718 35.4274 64.7718 36.4364V58.6929Z" fill="#0BFF7B"/>
<path d="M31.4111 23.8137C31.4111 23.2635 30.9651 22.8175 30.4149 22.8175C29.8647 22.8175 29.4187 23.2635 29.4187 23.8137C29.4187 24.3639 29.8647 24.8099 30.4149 24.8099V25.8061C29.3145 25.8061 28.4225 24.9141 28.4225 23.8137C28.4225 22.7133 29.3145 21.8213 30.4149 21.8213C31.5153 21.8213 32.4073 22.7133 32.4073 23.8137C32.4073 24.9141 31.5153 25.8061 30.4149 25.8061V24.8099C30.9651 24.8099 31.4111 24.3639 31.4111 23.8137Z" fill="white"/>
<path d="M37.3863 23.8137C37.3863 23.2635 36.9402 22.8175 36.3901 22.8175C35.8399 22.8175 35.3938 23.2635 35.3938 23.8137C35.3938 24.3639 35.8399 24.8099 36.3901 24.8099V25.8061C35.2897 25.8061 34.3976 24.9141 34.3976 23.8137C34.3976 22.7133 35.2897 21.8213 36.3901 21.8213C37.4904 21.8213 38.3825 22.7133 38.3825 23.8137C38.3825 24.9141 37.4904 25.8061 36.3901 25.8061V24.8099C36.9402 24.8099 37.3863 24.3639 37.3863 23.8137Z" fill="white"/>
<path d="M43.3613 23.8137C43.3613 23.2635 42.9153 22.8175 42.3651 22.8175C41.8149 22.8175 41.3689 23.2635 41.3689 23.8137C41.3689 24.3639 41.8149 24.8099 42.3651 24.8099V25.8061C41.2647 25.8061 40.3727 24.9141 40.3727 23.8137C40.3727 22.7133 41.2647 21.8213 42.3651 21.8213C43.4655 21.8213 44.3575 22.7133 44.3575 23.8137C44.3575 24.9141 43.4655 25.8061 42.3651 25.8061V24.8099C42.9153 24.8099 43.3613 24.3639 43.3613 23.8137Z" fill="white"/>
<path d="M89.0041 22.4845C89.0041 20.5582 87.4436 18.9966 85.5187 18.9966H28.4233C26.4983 18.9966 24.9378 20.5582 24.9378 22.4845V28.63H89.0041V22.4845ZM90 29.1283C90 29.4035 89.7771 29.6265 89.5021 29.6265H24.4399C24.1649 29.6265 23.9419 29.4035 23.9419 29.1283V22.4845C23.9419 20.0078 25.9483 18 28.4233 18H85.5187C87.9936 18 90 20.0078 90 22.4845V29.1283Z" fill="white"/>
<path d="M11.9918 72.645V62.6794C11.9918 62.4042 12.2147 62.1812 12.4897 62.1812C12.7647 62.1812 12.9876 62.4042 12.9876 62.6794V72.645C12.9876 72.9202 12.7647 73.1433 12.4897 73.1433C12.2147 73.1433 11.9918 72.9202 11.9918 72.645Z" fill="white"/>
<path d="M57.6349 70.9842V64.3405C57.6349 63.6066 58.2293 63.0117 58.9627 63.0117C59.696 63.0117 60.2905 63.6066 60.2905 64.3405V70.9842C60.2905 71.7181 59.696 72.313 58.9627 72.313C58.2293 72.313 57.6349 71.7181 57.6349 70.9842Z" fill="white"/>
<path d="M25.2697 62.181C25.2697 61.2637 24.5266 60.5201 23.61 60.5201C23.5709 60.5201 23.5322 60.5214 23.4939 60.524C23.264 60.5398 23.0531 60.3958 22.9843 60.1756C22.626 59.0273 21.5547 58.1948 20.2905 58.1948C19.0119 58.1948 17.9306 59.0463 17.5846 60.2145C17.5103 60.4653 17.255 60.6159 16.9998 60.5594C16.8841 60.5337 16.7634 60.5201 16.639 60.5201C15.7224 60.5201 14.9793 61.2637 14.9793 62.181C14.9793 63.0984 15.7224 63.842 16.639 63.842H23.61C24.5266 63.842 25.2697 63.0984 25.2697 62.181ZM26.2656 62.181C26.2656 63.6487 25.0766 64.8385 23.61 64.8385H16.639C15.1724 64.8385 13.9834 63.6487 13.9834 62.181C13.9834 60.7134 15.1724 59.5236 16.639 59.5236C16.6848 59.5236 16.7303 59.5248 16.7755 59.5271C17.356 58.1587 18.7104 57.1982 20.2905 57.1982C21.8721 57.1982 23.2273 58.1609 23.8068 59.5313C25.1815 59.6321 26.2656 60.7796 26.2656 62.181Z" fill="#0BFF7B"/>
<path d="M33.149 61.6384C34.856 60.3446 37.2549 60.4379 38.858 61.8879L60.2473 81.2352C60.3724 81.3483 60.4318 81.517 60.4052 81.6835C60.3786 81.8501 60.2694 81.9917 60.1154 82.0602C59.5595 82.3071 58.9445 82.4442 58.2988 82.4442H14.4813C13.0565 82.4442 11.7867 81.7781 10.9667 80.7421C10.7989 80.5301 10.8307 80.2229 11.0383 80.0498L32.9859 61.7679L33.149 61.6384ZM32.4329 67.7936C31.895 67.4547 31.2372 67.3715 30.6351 67.5614L30.5154 67.6029L25.0263 69.6943L12.0747 80.4829C12.7008 81.0812 13.5482 81.4477 14.4813 81.4477H58.2988C58.5154 81.4477 58.7269 81.4267 58.9322 81.389L45.3381 69.0925L41.3174 67.6068C40.7044 67.3803 40.0243 67.4447 39.4667 67.7768L39.3569 67.8468L37.7756 68.9229C36.7713 69.6063 35.4674 69.6501 34.4223 69.0445L34.3218 68.9839L32.4329 67.7936ZM38.1902 62.6272C36.9433 61.4994 35.0773 61.4268 33.7497 62.4332L33.6229 62.5338L27.3862 67.7288L30.1611 66.6715L30.2483 66.6401C31.1519 66.3258 32.1513 66.4384 32.9636 66.9502L34.8525 68.1404L34.9212 68.1819C35.6362 68.5963 36.5282 68.5665 37.2154 68.0989L38.7967 67.0229L38.8764 66.9703C39.7059 66.4417 40.7367 66.3297 41.6627 66.6719L43.3522 67.296L38.1902 62.6272Z" fill="#0BFF7B"/>
<path d="M61.7842 57.3644C61.7842 55.4381 60.2237 53.8764 58.2987 53.8764H14.4813C12.5564 53.8764 10.9959 55.4381 10.9959 57.3644V77.96C10.9959 79.8864 12.5564 81.448 14.4813 81.448H58.2987C60.2237 81.448 61.7842 79.8864 61.7842 77.96V57.3644ZM62.7801 77.96C62.7801 80.4367 60.7737 82.4445 58.2987 82.4445H14.4813C12.0064 82.4445 10 80.4367 10 77.96V57.3644C10 54.8877 12.0064 52.8799 14.4813 52.8799H58.2987C60.7737 52.8799 62.7801 54.8877 62.7801 57.3644V77.96Z" fill="white"/>
</svg>
