<svg width="200" height="200" viewBox="0 0 200 200" fill="none" xmlns="http://www.w3.org/2000/svg">
<path fill-rule="evenodd" clip-rule="evenodd" d="M182.196 169.64C181.916 168.077 181.12 163.403 180.427 159.275C180.08 157.212 179.76 155.289 179.52 153.852L179.518 153.84C179.28 152.407 179.122 151.46 179.1 151.342C179.026 150.974 179.07 150.944 179.542 150.87C182.5 150.5 191.902 150.387 195.201 150.693C195.437 150.723 195.452 150.915 195.422 152.566C195.393 153.583 195.289 155.412 195.171 156.621C195.053 157.845 194.891 159.894 194.803 161.192C194.714 162.489 194.582 164.214 194.508 165.025C194.434 165.836 194.331 167.134 194.287 167.9C194.242 168.667 194.139 170.068 194.051 170.997C193.977 171.926 193.889 171.914 193.771 172.651C193.594 173.576 193.354 173.5 188 173.5L187.644 173.5C183.959 173.501 183.5 174 183 172.651L182.196 169.64ZM195.068 151.578V151.254C183.066 151.254 179.586 151.283 179.586 151.328C179.586 151.344 179.689 151.907 179.847 152.778L179.847 152.781L179.851 152.799L179.859 152.846C179.987 153.551 180.15 154.446 180.323 155.412C180.736 157.623 181.341 160.926 181.665 162.755C181.99 164.568 182.491 167.429 182.771 169.095L183.567 172.666C192.797 172.666 193.151 172.636 193.225 172.4C193.269 172.253 193.431 171.38 193.594 169.242C193.644 168.57 193.702 167.808 193.761 167.028C193.892 165.308 194.029 163.502 194.11 162.386C194.228 160.764 194.36 159.201 194.405 158.921C194.449 158.626 194.611 156.945 194.773 155.161C194.935 153.377 195.068 151.755 195.068 151.578Z" fill="#003FFF"/>
<path d="M195.068 151.254V151.578C195.068 151.755 194.935 153.377 194.773 155.161C194.611 156.945 194.449 158.626 194.405 158.921C194.36 159.201 194.228 160.764 194.11 162.386C194.029 163.502 193.892 165.308 193.761 167.028C193.702 167.808 193.644 168.57 193.594 169.242C193.431 171.38 193.269 172.253 193.225 172.4C193.151 172.636 192.797 172.666 183.567 172.666L182.771 169.095C182.491 167.429 181.99 164.568 181.665 162.755C181.341 160.926 180.736 157.623 180.323 155.412C180.15 154.446 179.987 153.551 179.859 152.846L179.851 152.799L179.847 152.781L179.847 152.778C179.689 151.907 179.586 151.344 179.586 151.328C179.586 151.283 183.066 151.254 195.068 151.254Z" fill="#003FFF"/>
<path fill-rule="evenodd" clip-rule="evenodd" d="M199.521 173.151L199.61 175.038C199.668 176.07 199.668 177.471 199.61 178.164C199.565 178.857 199.477 179.653 199.344 180.45L194.242 180.568C191.426 180.627 146.735 180.671 94.9079 180.671C43.0953 180.671 0.601241 180.612 0.498028 180.553C0.380071 180.494 0.24737 179.978 0.173647 179.27C0.0999234 178.621 0.0409449 177.162 0.0409449 176.026C0.0262003 174.891 0.0556895 173.814 0.0999234 173.623C0.173647 173.313 0.232625 173.298 4.31689 173.225L4.64127 172.252C4.81821 171.721 5.21631 170.925 5.5112 170.482C5.8061 170.04 6.4696 169.258 6.98567 168.742C7.50173 168.226 8.34217 167.519 8.87298 167.179C9.40378 166.84 10.3622 166.354 11.0109 166.088C11.6597 165.838 12.5591 165.528 13.0015 165.395C13.4438 165.277 14.5791 165.145 15.5081 165.1C16.4812 165.041 17.6903 165.071 18.3538 165.174C18.973 165.263 19.7987 165.44 20.1821 165.572C20.5802 165.705 21.2142 165.97 21.6271 166.147C22.0252 166.339 22.8067 166.84 23.3522 167.238C23.942 167.681 24.6202 168.374 25.0036 168.919C25.3575 169.421 25.8883 170.32 26.1832 170.91C26.4781 171.485 26.773 172.222 26.9499 173.077L31.2848 173.151L30.8277 172.753C30.5623 172.517 30.179 172.016 29.9725 171.603C29.6334 170.939 29.5892 170.703 29.6039 169.391C29.6039 168.123 29.6924 167.666 30.1495 166.192C30.4444 165.233 31.0342 163.537 31.447 162.432C31.8599 161.311 32.6856 159.085 33.2901 157.492C33.8946 155.885 34.3812 154.528 34.3812 154.47C34.3812 154.396 34.101 154.396 33.7472 154.455C33.408 154.514 31.0931 154.558 28.5865 154.573C25.2838 154.573 23.131 154.499 20.6244 154.278C18.7519 154.116 16.8351 153.88 16.3927 153.747C15.9504 153.614 15.3459 153.393 15.0657 153.246C14.7856 153.098 14.299 152.715 13.9894 152.376C13.6945 152.051 13.3553 151.594 13.2374 151.373C13.1194 151.137 12.8983 150.488 12.7213 149.928C12.5591 149.368 12.22 147.274 11.9841 145.284C11.867 144.354 11.6888 142.919 11.4901 141.319L11.4898 141.317L11.4897 141.316C11.263 139.491 11.0097 137.451 10.7898 135.7C10.4764 133.112 10.0535 129.765 9.75097 127.372L9.7508 127.371C9.66904 126.724 9.59609 126.147 9.53649 125.673C9.24159 123.447 8.71079 119.2 8.35692 116.237C7.9883 113.273 7.45749 108.938 7.17735 106.579C6.88245 104.22 6.48435 100.873 6.27792 99.1329C6.0715 97.3931 5.89456 95.2256 5.89456 94.3409C5.89456 93.4562 5.95354 92.4536 6.04201 92.1292C6.13048 91.8048 6.39588 91.2446 6.63179 90.8759C6.86771 90.5073 7.31005 90.0355 7.63443 89.7996C7.94407 89.5784 8.50436 89.2983 8.87298 89.1656C9.24159 89.0476 10.0968 88.8559 10.7898 88.7675C11.645 88.6495 16.4665 88.6053 26.1242 88.5905C33.8651 88.5905 43.8178 88.6348 48.2411 88.6937C52.6645 88.7675 62.8383 88.8412 70.8742 88.8854C78.91 88.9296 86.1791 89.0329 87.0638 89.1066C88.0369 89.1951 88.9658 89.3867 89.4819 89.5784C89.9537 89.7553 90.5287 90.0797 90.7647 90.2861C91.0006 90.4926 91.3397 90.9202 91.5314 91.2446C91.7083 91.5689 92.0327 92.4241 92.2391 93.1614C92.4455 93.8986 92.7109 95.1814 92.8289 96.0366C92.9616 96.8917 93.6546 102.863 94.3918 109.307C94.9275 114.084 95.4551 118.699 95.7402 121.193C95.8396 122.063 95.9095 122.675 95.94 122.946C96.0727 123.992 96.2054 125.172 96.3086 126.263L96.4413 127.045C96.4413 127.221 96.6035 128.799 96.8099 130.554C97.0163 132.294 97.2817 134.653 97.3997 135.788L97.4119 135.893L97.4122 135.895C97.5433 137.017 97.7125 138.465 97.8125 139.179L98.0042 140.506L98.0632 142.276C98.0632 142.6 98.2696 144.458 98.5203 146.404C98.8299 148.852 98.9479 150.385 98.9184 151.417C98.8741 152.774 98.8299 152.951 98.4613 153.452C98.2401 153.747 97.842 154.13 97.5766 154.293C97.326 154.455 96.8099 154.691 96.4413 154.838L95.7778 155.074C95.6893 155.105 95.285 155.163 95.0258 155.163C87.2996 155.384 84.6308 155.384 83.6724 155.31C82.7877 155.251 79.3817 155.177 76.1232 155.177C71.5376 155.177 70.1663 155.207 70.0926 155.354L69.3996 155.207C69.3849 155.192 66.1116 155.133 62.1305 155.074C55.9673 154.986 54.8762 155 54.7877 155.177C54.7435 155.295 54.2421 157.684 53.6818 160.485C53.1216 163.272 52.6645 165.572 52.6792 165.587L52.6 166C52.5263 167.371 52.5613 167.887 52.6645 168.197C52.7677 168.506 52.9888 168.89 53.151 169.037C53.3132 169.199 53.8146 169.421 54.2569 169.539C54.9204 169.715 56.4833 169.76 62.8825 169.76C67.1879 169.76 70.7266 169.804 70.7709 169.848C70.8151 169.907 70.9183 170.659 70.992 171.559L71.1395 173.166H83.6724L199.521 173.151ZM19.2531 89.1803C19.1942 89.0034 18.8698 88.9739 17.4543 88.9886C16.4959 89.0034 14.4611 89.0623 12.9129 89.1213C11.0699 89.195 9.86081 89.2983 9.37423 89.4604C8.97613 89.5784 8.34211 89.947 7.97349 90.2567C7.60488 90.581 7.1183 91.2003 6.86765 91.6426C6.44005 92.4094 6.42531 92.4978 6.44005 94.2672C6.4548 95.6237 6.73494 98.3809 7.51641 104.515C8.04563 108.776 8.68724 113.973 9.016 116.636L9.01654 116.641L9.01678 116.643L9.01705 116.645L9.09408 117.269C9.37423 119.672 9.74285 122.651 9.90504 123.904C10.0432 125.092 10.3107 127.289 10.5136 128.956L10.5138 128.957L10.5538 129.286C10.7602 130.996 11.1583 134.284 11.4532 136.584C11.7334 138.899 12.161 142.349 12.3969 144.251C12.6328 146.168 12.9424 148.218 13.0604 148.822C13.1931 149.442 13.4143 150.194 13.5617 150.518C13.6944 150.842 14.1073 151.432 14.4759 151.83C14.8297 152.228 15.39 152.685 15.7144 152.848C16.0388 153.01 16.776 153.231 17.3363 153.334C17.9114 153.437 19.2974 153.6 20.4327 153.688C21.568 153.777 25.2247 153.865 28.5423 153.88L34.5876 153.909C35.4133 151.86 36.1357 150.031 36.7255 148.527C37.3153 147.038 38.2442 144.679 38.7898 143.293L39.0121 142.749L39.0129 142.747C39.5615 141.405 40.2808 139.646 40.7066 138.575C41.2079 137.366 41.9599 135.67 42.358 134.815L43.1099 133.267C53.5344 133.444 56.7192 133.517 56.9257 133.562C57.1321 133.606 57.6187 133.916 58.002 134.24C58.5623 134.712 58.695 134.903 58.695 135.301C58.695 135.567 58.3706 137.439 57.9725 139.459C57.5744 141.494 56.8372 145.107 56.3359 147.495C56.0622 148.847 55.7744 150.227 55.5515 151.297L55.5505 151.302L55.5502 151.303C55.3774 152.131 55.2437 152.773 55.1858 153.069C55.0531 153.732 54.9941 154.322 55.0678 154.396C55.1268 154.455 63.6492 154.499 74.0147 154.499C92.7551 154.499 92.8288 154.499 93.3449 154.204C93.6251 154.042 94.0674 153.57 94.3033 153.187C94.6867 152.553 94.7604 152.302 94.7899 151.196C94.8194 150.459 94.6867 148.572 94.4655 146.611C94.3406 145.586 94.1921 144.312 94.0573 143.156C93.9535 142.265 93.8578 141.444 93.7872 140.86C93.6398 139.533 93.3744 137.233 93.1975 135.773C93.0353 134.314 92.7699 132.028 92.6077 130.686C92.5226 129.92 92.3982 128.845 92.277 127.797L92.2765 127.794C92.1879 127.028 92.1011 126.277 92.0326 125.673C91.9432 124.893 91.8089 123.745 91.6719 122.572C91.5603 121.619 91.447 120.649 91.3544 119.849C91.2512 118.957 91.1185 117.781 90.9858 116.605C90.8531 115.429 90.7204 114.254 90.6171 113.361C90.5316 112.622 90.398 111.438 90.2415 110.05C90.0202 108.088 89.7531 105.72 89.5113 103.63C89.1132 100.062 88.7151 96.6116 88.6266 95.9628C88.5381 95.3141 88.3612 94.3262 88.2285 93.7511C88.1106 93.1908 87.8894 92.4536 87.7419 92.1292C87.6092 91.8048 87.2996 91.3183 87.0637 91.0529C86.8278 90.7727 86.3707 90.3894 86.0463 90.1977C85.663 89.9765 85.0437 89.8143 84.277 89.7111C83.6282 89.6374 78.3496 89.5342 72.555 89.4899C66.7603 89.431 52.4138 89.4015 40.6771 89.4015C21.8334 89.4015 19.3269 89.3867 19.2531 89.1803ZM53.9473 134.019C52.3843 133.974 49.3764 133.901 47.2679 133.857C43.6113 133.768 43.4196 133.783 43.3311 134.033C43.2869 134.196 42.9478 135.007 42.5791 135.862C42.4338 136.213 42.1813 136.811 41.8771 137.531L41.8759 137.534L41.8744 137.538L41.8737 137.54C41.438 138.571 40.8969 139.853 40.4117 141.022C39.586 143.013 38.082 146.729 37.0646 149.279C36.0473 151.83 34.8382 154.956 34.3664 156.209C34.0768 156.979 33.6539 158.114 33.2443 159.214C32.9865 159.907 32.734 160.585 32.5233 161.149C31.9778 162.609 31.2848 164.57 30.9751 165.498C30.6802 166.427 30.3411 167.666 30.2379 168.226C30.1347 168.801 30.0904 169.524 30.1199 169.848C30.1642 170.173 30.2969 170.674 30.4296 170.954C30.5623 171.234 30.9014 171.735 31.1668 172.06C31.4912 172.443 31.8893 172.723 32.3169 172.856C32.8329 173.018 34.853 173.062 42.181 173.107C49.5681 173.151 51.3375 173.121 51.1015 172.974C50.9393 172.886 50.615 172.605 50.3791 172.355C50.1431 172.119 49.863 171.691 49.7598 171.441C49.6418 171.175 49.5534 170.438 49.5534 169.819C49.5534 169.067 49.745 167.681 50.1284 165.793C50.4528 164.216 51.5144 159.099 52.4875 154.44C53.4607 149.781 54.714 143.839 55.289 141.244C55.755 139.085 56.2311 136.958 56.4461 135.997L56.4492 135.983L56.4497 135.981C56.4914 135.795 56.523 135.654 56.5423 135.567C56.675 135.036 56.7782 134.491 56.7782 134.358C56.7782 134.122 56.5128 134.092 53.9473 134.019ZM18.9435 165.867C18.4569 165.749 17.5575 165.631 16.953 165.587C16.3484 165.543 15.3163 165.587 14.6676 165.69C14.0188 165.808 13.2226 165.97 12.8982 166.074C12.5738 166.162 12.3379 166.28 12.3821 166.309C12.4264 166.339 13.0162 166.427 13.7092 166.501C14.4022 166.59 15.39 166.781 15.9208 166.943C16.4959 167.12 17.1889 167.489 17.6607 167.843C18.221 168.285 18.5601 168.698 18.914 169.435C19.1942 169.981 19.4891 170.792 19.5775 171.249C19.666 171.691 19.7692 172.296 19.8134 172.605L19.9019 173.166C24.9298 173.166 26.3895 173.136 26.3895 173.121C26.3895 173.107 26.2421 172.694 26.0504 172.207C25.8587 171.721 25.4754 170.954 25.21 170.512C24.9446 170.055 24.4875 169.406 24.1926 169.037C23.8977 168.683 23.2047 168.02 22.6297 167.563C22.0546 167.106 21.1994 166.575 20.7129 166.398C20.2263 166.206 19.4301 165.97 18.9435 165.867ZM11.4827 168.108C12.3232 167.238 12.9867 166.531 12.9572 166.545C12.9343 166.557 12.7342 166.613 12.4737 166.685L12.4724 166.685L12.2347 166.752C11.8661 166.855 11.3353 166.943 11.0551 166.958C10.775 166.958 10.2442 167.106 9.87555 167.268C9.50693 167.445 8.88766 167.828 8.5043 168.123C8.1062 168.418 7.39845 169.126 6.91188 169.701C6.42531 170.261 5.80603 171.175 5.52588 171.721C5.24574 172.266 5.00982 172.812 5.00982 172.945C5.00982 173.121 5.30472 173.166 6.77918 173.166H8.54853C8.7697 172.193 9.09409 171.411 9.38898 170.807C9.81657 169.951 10.2884 169.332 11.4827 168.108ZM16.201 167.651C15.6849 167.415 14.933 167.194 14.5201 167.165C14.1073 167.135 13.6502 167.179 13.488 167.283C13.3258 167.371 12.8392 167.725 12.3969 168.049C11.9693 168.388 11.3648 168.993 11.0551 169.406C10.7455 169.804 10.1852 170.748 9.81657 171.5C9.44796 172.252 9.13832 172.93 9.13832 173.018C9.13832 173.107 10.9372 173.166 14.2252 173.166H19.3121C18.9435 171.382 18.7223 170.541 18.5749 170.143C18.4127 169.73 18.0441 169.096 17.7197 168.742C17.3363 168.3 16.8301 167.936 16.201 167.651Z" fill="#15006A"/>
<path d="M45.6609 111.607C45.1006 111.784 44.6877 112.093 43.921 112.86C43.0216 113.774 42.9036 113.995 42.5498 115.101C42.2549 116.045 42.1811 116.605 42.1811 117.711C42.1811 118.596 42.2843 119.525 42.4613 120.218C42.6235 120.822 42.9036 121.618 43.0806 121.987C43.2722 122.356 43.5966 122.887 43.803 123.167C44.0095 123.447 44.2896 123.771 44.4076 123.904C44.5255 124.022 44.9679 124.346 45.366 124.612C45.7788 124.877 46.4718 125.231 46.9142 125.393C47.3565 125.57 48.2264 125.732 48.831 125.791C49.7009 125.85 50.1137 125.806 50.733 125.585C51.1606 125.437 51.7799 125.069 52.119 124.789C52.4434 124.508 52.8562 124.007 53.0479 123.683C53.2396 123.358 53.4903 122.665 53.6082 122.135C53.7409 121.604 53.8441 120.778 53.8441 120.291C53.8441 119.805 53.7704 118.979 53.6819 118.448C53.5935 117.918 53.4313 117.195 53.2986 116.826C53.1806 116.458 52.8268 115.676 52.5319 115.072C52.1927 114.379 51.6767 113.642 51.1164 113.067C50.4676 112.403 49.9958 112.079 49.3765 111.843C48.9194 111.666 48.0495 111.489 47.4597 111.445C46.7225 111.4 46.1769 111.445 45.6609 111.607Z" fill="#15006A"/>
<path d="M52 166C58.9005 166.03 83.9084 166.103 84.7489 166.147C85.5893 166.191 86.2528 166.295 86.2528 166.383C86.2528 166.457 85.9137 167.371 85.5008 168.403C85.088 169.435 84.5867 170.748 84.3802 171.323C84.1886 171.883 83.9379 172.532 83.6725 173.166H87.4298L88.1401 171.499C88.5235 170.585 88.8921 169.922 88.9953 169.922C89.1133 169.922 90.8089 170.379 92.7847 170.939C94.7457 171.5 97.5277 172.281 101.066 173.166H101.882L101.985 172.532C102.03 172.192 102.118 171.868 102.177 171.839C102.226 171.667 102.324 171.196 102.324 170.689C102.324 170.29 102.28 170.261 99.2723 169.288C97.5767 168.742 94.9816 167.931 93.4777 167.474C91.9737 167.017 89.8505 166.398 86.7689 165.572L52.5 165.25L52 166Z" fill="#15006A"/>
<path fill-rule="evenodd" clip-rule="evenodd" d="M182.196 169.64C181.916 168.077 181.12 163.403 180.427 159.275C180.081 157.212 179.76 155.289 179.52 153.852L179.518 153.84C179.28 152.407 179.122 151.46 179.1 151.342C179.026 150.974 179.07 150.944 179.542 150.87C179.822 150.826 180.058 150.723 180.058 150.649C180.058 150.576 179.719 149.617 179.306 148.541L179.092 147.99L179.081 147.962L179.072 147.939C178.664 146.889 178.127 145.508 177.773 144.604C177.345 143.513 176.741 141.92 176.446 141.065C176.121 140.151 175.782 138.795 175.62 137.748C175.473 136.775 175.296 135.094 175.237 134.017C175.163 132.749 175.163 132.071 175.266 132.071C175.34 132.056 176.342 132.97 177.493 134.091C178.628 135.212 179.734 136.362 179.94 136.642C180.161 136.922 180.899 138.559 181.606 140.254C182.299 141.95 183.405 144.943 184.069 146.889C184.717 148.836 185.292 150.472 185.337 150.531C185.396 150.59 185.661 150.693 186.457 150.87L186.354 147.258C186.31 145.267 186.162 142.186 186.03 140.402C185.912 138.618 185.705 135.964 185.587 134.504C185.469 133.044 185.322 131.083 185.278 130.154C185.204 128.989 185.234 128.355 185.351 128.119C185.44 127.943 185.794 127.633 186.133 127.426C186.634 127.132 187.003 127.043 187.873 126.999C188.477 126.984 189.17 127.014 189.421 127.087C189.672 127.161 190.026 127.353 190.202 127.544C190.394 127.721 190.645 128.031 190.748 128.237C190.851 128.444 191.058 129.786 191.176 131.231C191.308 132.661 191.412 133.944 191.412 134.062C191.412 134.179 191.5 134.283 191.588 134.283C191.706 134.283 191.942 133.722 192.178 132.926C192.399 132.174 192.635 131.378 192.724 131.142C192.827 130.891 192.989 130.744 193.181 130.744C193.426 130.744 193.603 130.879 193.681 131.142C193.822 131.611 194.005 132.265 194.183 132.956C194.508 134.209 194.921 135.919 195.083 136.745C195.334 137.954 195.393 138.809 195.393 140.874C195.393 142.319 195.289 144.56 195.171 145.857C195.053 147.155 194.95 148.762 194.95 149.44C194.95 150.472 194.994 150.649 195.201 150.693C195.437 150.723 195.452 150.915 195.422 152.566C195.393 153.583 195.289 155.412 195.171 156.621C195.053 157.845 194.891 159.894 194.803 161.192C194.714 162.489 194.582 164.214 194.508 165.025C194.434 165.836 194.331 167.134 194.287 167.9C194.242 168.667 194.139 170.068 194.051 170.997C193.977 171.926 193.889 171.914 193.771 172.651C193.594 173.576 193.354 173.5 188 173.5L187.644 173.5C183.959 173.501 183.5 174 183 172.651L182.196 169.64ZM190.659 131.643H186.015L186.103 132.779C186.148 133.413 186.236 134.003 186.28 134.106C186.354 134.238 186.973 134.283 188.625 134.283H190.881C190.704 133.206 190.659 132.602 190.659 132.263V131.643ZM193.107 134.445H192.149L190.851 138.352C192.252 138.529 193.137 138.573 193.726 138.573H194.788C194.641 137.6 194.478 136.686 194.331 135.919C194.169 135.153 194.051 134.504 194.051 134.489C194.051 134.46 193.623 134.445 193.107 134.445ZM190.571 137.394C190.748 136.657 190.807 136.052 190.807 135.595L190.807 135.593C190.792 134.755 190.792 134.74 190.394 134.769C190.173 134.784 189.141 134.828 188.109 134.843L186.221 134.887C186.339 135.624 186.384 136.199 186.384 136.627L186.369 137.394H190.571ZM178.171 135.61L177.448 134.946L175.915 135.551C175.915 136.701 175.989 137.438 176.092 137.954C176.195 138.47 176.342 138.854 176.416 138.809C176.429 138.803 176.455 138.791 176.494 138.773C176.562 138.743 176.668 138.696 176.803 138.636L176.804 138.635C177.132 138.49 177.628 138.27 178.156 138.028L179.734 137.32C179.07 136.524 178.554 135.993 178.171 135.61ZM191.721 139.016H190.497V140.24C190.497 140.903 190.394 143.115 190.276 145.135C190.158 147.17 190.07 149.234 190.055 149.75V150.664L194.257 150.59C194.419 148.084 194.537 146.447 194.626 145.356C194.714 144.265 194.817 142.436 194.876 141.301L194.965 139.237C193.387 139.075 192.385 139.016 191.721 139.016ZM195.068 151.578V151.254C183.066 151.254 179.586 151.283 179.586 151.327C179.586 151.344 179.689 151.907 179.847 152.778L179.847 152.781L179.851 152.799L179.859 152.846C179.987 153.551 180.15 154.446 180.323 155.412C180.736 157.623 181.341 160.926 181.665 162.755C181.99 164.568 182.491 167.429 182.771 169.095L183.567 172.666C192.797 172.666 193.151 172.636 193.225 172.4C193.269 172.253 193.431 171.38 193.594 169.242C193.644 168.57 193.702 167.808 193.761 167.028C193.892 165.308 194.029 163.502 194.11 162.386C194.228 160.764 194.36 159.201 194.405 158.921C194.449 158.626 194.611 156.945 194.773 155.161C194.935 153.377 195.068 151.755 195.068 151.578Z" fill="#15006A"/>
<path d="M60.2433 75.1139C60.8184 75.0991 61.069 75.1729 61.3492 75.4383C61.5408 75.6152 61.7915 75.9838 61.8947 76.2492C61.9979 76.5146 62.0864 76.8832 62.0864 77.0602C62.0864 77.2371 61.9537 77.6057 61.7915 77.8711C61.6293 78.1365 61.3049 78.4462 61.0543 78.5641C60.8184 78.6968 60.4055 78.7853 60.1401 78.7853C59.8747 78.7853 59.4766 78.6821 59.2554 78.5346C59.0343 78.3872 58.7246 78.0776 58.5624 77.8269C58.3855 77.591 58.2528 77.1781 58.2528 76.9127C58.2528 76.6473 58.356 76.2345 58.474 75.9838C58.5919 75.7479 58.8868 75.453 59.108 75.3351C59.3292 75.2171 59.8452 75.1139 60.2433 75.1139Z" fill="#04FFE1"/>
<path fill-rule="evenodd" clip-rule="evenodd" d="M29.4418 44.1354C29.9727 44.1354 30.3265 44.2239 30.6951 44.4598C30.9753 44.6515 31.3292 45.0349 31.4619 45.315C31.6093 45.5952 31.7273 46.126 31.7273 46.4946C31.7125 47.1433 31.7273 47.1581 32.4203 47.4677C32.8036 47.6447 33.6883 47.9985 34.3813 48.2639C35.0743 48.5293 36.7552 49.1928 38.1412 49.7531C39.0984 50.1299 40.3933 50.6544 41.5012 51.1032L41.5025 51.1037C41.9982 51.3045 42.4563 51.4901 42.83 51.6405C44.0243 52.1418 45.1006 52.5399 45.2186 52.5399C45.3366 52.5399 45.6609 52.3924 45.9263 52.2155C46.177 52.0386 46.6341 51.8764 46.9142 51.8321C47.1944 51.8026 47.7104 51.8469 48.0643 51.9353C48.4034 52.0238 48.8605 52.2597 49.0964 52.4514C49.3176 52.6431 49.583 53.0559 49.6715 53.3656C49.7747 53.6752 49.8632 54.1028 49.8632 54.3092C49.8632 54.6484 50.1875 54.8253 54.0359 56.5062C56.3213 57.5236 59.3145 58.8653 63.2071 60.6199L63.6199 60.2661C63.8411 60.0744 64.2834 59.8385 64.6078 59.7647C64.9322 59.691 65.3745 59.6615 65.6104 59.7058C65.8316 59.7647 66.2297 59.9564 66.4951 60.1481C66.7605 60.3545 67.0701 60.7674 67.2028 61.136C67.365 61.5636 67.4093 61.9469 67.3356 62.3451C67.2618 62.7432 67.0554 63.1118 66.6868 63.4656C66.2887 63.8785 65.9938 64.0259 65.463 64.0997C64.9322 64.1586 64.6078 64.1144 64.2097 63.9375C63.9148 63.79 63.5167 63.4362 63.325 63.156C63.1038 62.8464 62.9564 62.3451 62.9122 61.9027C62.8827 61.5046 62.7942 61.1213 62.7352 61.0623C62.6762 61.018 60.2581 59.9269 57.3829 58.6589C56.5884 58.3044 55.8288 57.9657 55.1437 57.6602L55.1024 57.6418C53.3296 56.8513 52.0647 56.2873 52.0011 56.2555C51.9127 56.1965 51.9569 56.3292 52.0896 56.5209C52.1645 56.6374 52.2961 56.8484 52.4413 57.0812L52.4419 57.0822C52.5537 57.2615 52.6737 57.4539 52.7826 57.6268C53.0333 58.0396 53.3724 58.7326 53.5493 59.175C53.7263 59.6173 53.9622 60.443 54.0801 61.018C54.1981 61.5931 54.4193 63.4067 54.5814 65.0728C54.7436 66.739 54.9501 68.6558 55.0385 69.3488C55.1417 70.0418 55.3777 71.0591 55.5693 71.6342C55.761 72.2092 56.1444 73.0349 56.4245 73.4772C56.6899 73.9196 57.1618 74.5241 57.9727 75.3203L58.7837 74.9222C59.3292 74.6421 59.8158 74.5094 60.3024 74.5094C60.7152 74.5094 61.1723 74.6273 61.4377 74.7895C61.6736 74.937 61.998 75.2466 62.1454 75.453C62.2781 75.6595 62.4698 76.1903 62.7352 77.3846L65.404 77.2814C67.1439 77.2076 68.5594 77.0749 69.4735 76.8833C70.2402 76.7211 71.5525 76.3819 72.3782 76.1313C73.2186 75.8954 74.5752 75.4235 75.4009 75.0844C76.2413 74.76 77.9812 73.9638 79.2787 73.3298C80.5762 72.6958 82.5962 71.6047 83.7758 70.8969C84.9554 70.1892 86.7395 69.0539 87.7569 68.3609C88.7742 67.6679 90.4404 66.4588 93.3451 64.2619L92.829 63.5246C92.5489 63.1265 92.3277 62.6989 92.3277 62.6105C92.3277 62.5072 92.9912 61.888 93.8022 61.2392C94.6131 60.5904 95.4093 60.0596 95.5715 60.0596C95.7337 60.0596 96.0728 60.2366 96.3382 60.4725C96.5889 60.6937 97.2229 61.4161 97.739 62.0944C98.2403 62.7579 98.6679 63.3477 98.6679 63.4214C98.6826 63.4804 98.2255 63.9227 97.68 64.424C97.1344 64.9106 96.4414 65.4857 96.1613 65.7068C95.8812 65.9133 95.5568 66.1049 95.4536 66.1049C95.3651 66.1049 94.9375 65.81 94.5394 65.4414C94.1118 65.0433 93.7284 64.8222 93.6105 64.8811C93.522 64.9401 92.7405 65.5299 91.8854 66.1934C91.0302 66.8569 89.2461 68.125 87.9043 69.0096C86.5626 69.8943 84.7342 71.0591 83.8495 71.5899C82.9649 72.1207 81.5936 72.8875 80.8269 73.2856C80.0602 73.6984 78.6299 74.3767 77.6568 74.8043C76.6837 75.2319 75.1502 75.8511 74.2655 76.1608C73.3809 76.4852 72.0096 76.898 71.2429 77.0897C70.4762 77.2961 69.1786 77.5468 68.3677 77.6795C67.483 77.8269 66.0233 77.9154 62.5435 77.9006L61.9095 78.5494C61.4672 79.0212 61.1281 79.2277 60.7005 79.3014C60.3613 79.3604 59.8748 79.3456 59.5504 79.2424C59.2555 79.1539 58.8132 78.918 58.5625 78.7116C58.3266 78.5052 58.0169 78.0481 57.8842 77.709C57.7515 77.3551 57.6778 76.898 57.722 76.6473C57.7958 76.264 57.6926 76.0576 56.8964 75.1434C56.395 74.5536 55.761 73.6689 55.5104 73.1529C55.245 72.6368 54.8911 71.6931 54.7289 71.0444C54.5667 70.3956 54.3308 68.8769 54.2128 67.6531C54.1658 67.1712 54.1094 66.6002 54.053 66.0288L54.0524 66.0233C53.9675 65.1633 53.8826 64.3032 53.8295 63.7458C53.741 62.8169 53.5051 61.4161 53.2987 60.6494C53.107 59.8827 52.7384 58.8506 52.473 58.364C52.2076 57.8774 51.603 57.0665 51.1165 56.5504C50.6299 56.0344 50.0991 55.5773 49.9369 55.533C49.7305 55.4741 49.5535 55.5773 49.3471 55.8574C49.1849 56.0786 48.8015 56.3882 48.4919 56.5357C48.197 56.6979 47.6515 56.8158 47.2829 56.8158C46.9142 56.8158 46.4424 56.7274 46.2065 56.6094C45.9853 56.5062 45.5872 56.1671 45.3218 55.8722C45.0712 55.5773 44.8352 55.1644 44.8205 54.9432C44.8058 54.7073 44.791 54.324 44.791 54.0881C44.7763 53.6752 44.732 53.631 44.039 53.513C43.5377 53.4098 42.83 53.4246 41.8273 53.5573C41.0164 53.6605 39.7926 53.8669 39.0996 54.0143C38.4066 54.1618 37.1238 54.5304 36.2244 54.8253C35.325 55.1202 33.4819 55.9017 32.0959 56.5799C30.7099 57.2434 28.6309 58.3788 27.4513 59.0865C26.2718 59.7942 24.3255 61.0918 23.1164 61.947C21.9073 62.8169 19.8873 64.3798 18.6193 65.4267C17.3513 66.4736 15.228 68.4346 13.8715 69.7764C12.5298 71.1181 11.0553 72.681 10.5982 73.2561C10.1411 73.8311 9.77251 74.3324 9.75777 74.4062C9.75777 74.4651 10.1264 74.8927 10.5687 75.3646C11.0258 75.8217 11.3797 76.2787 11.3797 76.3525C11.3649 76.4262 10.6424 77.2666 8.16535 79.8912L7.59031 79.4488C7.28067 79.2129 6.44022 78.4314 4.37598 76.4409L4.65613 76.0281C4.81832 75.8069 5.24591 75.2466 5.61453 74.8043C5.98314 74.3619 6.51395 73.7427 6.7941 73.433C7.08899 73.1381 7.42812 72.8875 7.54607 72.8875C7.66403 72.8875 8.1506 73.1824 8.60769 73.551C9.07951 73.9196 9.46287 74.126 9.46287 74.0375C9.46287 73.9343 9.72828 73.5215 10.0379 73.1086C10.3476 72.7105 11.1733 71.7964 11.8662 71.0886C12.574 70.3661 13.1195 69.7174 13.0753 69.6436C13.0311 69.5699 13.0458 69.5109 13.1048 69.5109C13.1785 69.5257 13.3112 69.5257 13.3997 69.5109C13.5029 69.5109 13.5766 69.393 13.5471 69.2603C13.5324 69.1276 13.6209 68.9949 13.7388 68.9801C13.8568 68.9654 14.2254 68.6705 14.5498 68.3166C14.8742 67.9628 15.2428 67.5647 15.3755 67.4319C15.4934 67.314 15.862 66.9749 16.1864 66.6947C16.4121 66.4905 16.9359 66.0432 17.4829 65.5759C17.6862 65.4022 17.8928 65.2258 18.0885 65.0581C18.811 64.4388 20.1822 63.3772 21.1111 62.6842C22.04 61.9912 23.6767 60.8559 24.7236 60.1776C25.7704 59.4846 27.3629 58.4967 28.2623 57.9806C29.1617 57.4793 30.8131 56.6094 31.9484 56.0638C33.0838 55.5035 34.6762 54.8253 35.4871 54.5304C36.2981 54.2355 37.5956 53.8374 38.3624 53.6457C39.1291 53.4393 40.6625 53.1444 41.7536 52.9822C42.8447 52.82 43.7736 52.6578 43.8031 52.6136C43.8326 52.5694 43.7736 52.5399 43.6557 52.5399C43.5377 52.5399 42.2254 52.0386 40.7215 51.4193C39.8828 51.0821 38.7001 50.5983 37.5213 50.116C36.5864 49.7334 35.6539 49.3519 34.8974 49.0454C33.187 48.3524 31.742 47.7331 31.6535 47.6594C31.5651 47.5857 31.3586 47.6741 31.1375 47.9101C30.9311 48.1165 30.5624 48.3966 30.3265 48.5146C30.0611 48.6473 29.6483 48.721 29.2944 48.6768C28.97 48.6473 28.454 48.4409 28.1443 48.2197C27.8494 47.9985 27.4956 47.6152 27.3776 47.3793C27.2596 47.1433 27.1564 46.6568 27.1564 46.3176C27.1564 45.949 27.2744 45.4919 27.4513 45.2118C27.6135 44.9464 27.9674 44.5925 28.218 44.4303C28.5277 44.2387 28.97 44.1354 29.4418 44.1354ZM30.5771 45.3002C30.297 44.9906 30.0021 44.8284 29.5892 44.7842C29.1469 44.7252 28.8815 44.7842 28.5571 45.0201C28.3212 45.1823 28.041 45.4624 27.9378 45.6541C27.8346 45.8311 27.7609 46.0965 27.7462 46.2292C27.7462 46.3766 27.8494 46.6862 27.9673 46.9369C28.0853 47.1728 28.4097 47.5119 28.6603 47.6741C28.9257 47.8363 29.3238 47.969 29.545 47.969C29.7809 47.969 30.1053 47.8953 30.2822 47.7921C30.4739 47.7036 30.6951 47.5267 30.7983 47.394C30.9015 47.2613 30.99 46.8484 30.99 46.4503C30.99 45.9048 30.9015 45.6689 30.5771 45.3002ZM66.1854 60.8411C65.9937 60.6494 65.5956 60.4725 65.2712 60.4282C64.8289 60.3693 64.5488 60.4282 64.1949 60.6494C63.9295 60.8116 63.6493 61.077 63.5756 61.2392C63.4871 61.4014 63.4282 61.7553 63.4282 62.0207C63.4282 62.2861 63.5609 62.6989 63.7231 62.9348C63.8852 63.1855 64.1654 63.4656 64.3423 63.5688C64.534 63.6573 64.8584 63.7458 65.0796 63.7458C65.3007 63.7458 65.6693 63.6573 65.8905 63.5541C66.1117 63.4361 66.3918 63.1265 66.5098 62.8464C66.6425 62.5367 66.672 62.1386 66.6277 61.7553C66.5688 61.4309 66.3771 61.018 66.1854 60.8411ZM96.8985 61.9027C96.2497 61.2244 95.6599 60.6494 95.601 60.6642C95.542 60.6642 95.0554 61.0033 94.5393 61.4014C94.0085 61.8142 93.4187 62.2861 93.2418 62.4335L92.9174 62.7137C94.5688 64.6747 95.1586 65.2792 95.3061 65.3087C95.4535 65.3382 95.8074 65.1908 96.117 64.9843C96.4266 64.7632 96.9869 64.3356 97.3703 64.0259C97.7537 63.7163 98.078 63.3919 98.078 63.3034C98.078 63.2297 97.5472 62.5957 96.8985 61.9027ZM7.9736 73.8901C7.76718 73.6689 7.56075 73.492 7.53127 73.492C7.48703 73.492 6.91199 74.0965 6.24848 74.8485L5.05417 76.205C7.26586 78.4314 7.9736 79.0802 8.04733 79.0802C8.13579 79.0949 8.71084 78.5052 9.34485 77.7679C9.96413 77.0307 10.4802 76.3819 10.4949 76.323C10.4949 76.264 10.0084 75.7774 9.41858 75.2466C8.82879 74.7305 8.18003 74.1113 7.9736 73.8901ZM61.3492 75.4383C61.069 75.1729 60.8184 75.0991 60.2433 75.1139C59.8452 75.1139 59.3292 75.2171 59.108 75.3351C58.8868 75.453 58.5919 75.7479 58.474 75.9838C58.356 76.2345 58.2528 76.6473 58.2528 76.9127C58.2528 77.1781 58.3855 77.591 58.5624 77.8269C58.7246 78.0776 59.0343 78.3872 59.2554 78.5346C59.4766 78.6821 59.8747 78.7853 60.1401 78.7853C60.4055 78.7853 60.8184 78.6968 61.0543 78.5641C61.3049 78.4462 61.6293 78.1365 61.7915 77.8711C61.9537 77.6057 62.0864 77.2371 62.0864 77.0602C62.0864 76.8832 61.9979 76.5146 61.8947 76.2492C61.7915 75.9838 61.5408 75.6152 61.3492 75.4383Z" fill="#04FFE1"/>
<path fill-rule="evenodd" clip-rule="evenodd" d="M108.473 18.6862C109.269 18.7157 109.933 18.8484 110.537 19.0696C111.098 19.2907 111.658 19.6593 112.056 20.0575C112.395 20.4113 112.867 21.0748 113.103 21.5319C113.324 22.0037 113.619 22.7115 113.752 23.1243C113.884 23.5224 114.091 24.3187 114.209 24.8937C114.327 25.4687 114.563 26.7958 114.725 27.8426C114.785 28.2299 114.879 28.8289 114.991 29.5368C115.18 30.7427 115.42 32.2645 115.624 33.593C115.949 35.7015 116.391 38.5915 116.597 40.0069C116.877 41.9532 116.966 43.0148 116.922 44.3566C116.878 45.9638 116.848 46.1849 116.465 46.819C116.214 47.2613 115.786 47.7184 115.285 48.0428C114.872 48.3229 114.12 48.6915 113.634 48.8537C113.147 49.0159 111.953 49.3255 110.98 49.5172C110.007 49.7089 108.119 50.048 106.777 50.2545L105.957 50.3895L105.955 50.3898L105.95 50.3907L105.948 50.391C104.454 50.6369 102.178 51.0117 100.364 51.3161C97.1345 51.8764 96.0286 51.9943 94.4657 52.0091C92.6373 52.0238 92.5046 52.0091 91.6052 51.5815C91.0302 51.3013 90.3961 50.859 89.9686 50.4019C89.5852 49.9891 89.1134 49.3255 88.9069 48.9274C88.7005 48.5146 88.4204 47.8511 88.3024 47.453C88.1697 47.0401 87.8896 45.7573 87.6979 44.5778C87.4915 43.3982 87.1671 41.3487 86.9606 40.0069C86.7542 38.6652 86.3561 36.0406 86.076 34.1828C85.7958 32.325 85.4567 29.8626 85.324 28.7273C85.1766 27.592 85.1176 26.3092 85.1618 25.8816C85.206 25.4687 85.3682 24.8347 85.5009 24.4956C85.6631 24.1122 86.017 23.6994 86.4298 23.3897C86.7985 23.1096 87.462 22.7557 87.9043 22.5935C88.3467 22.4166 89.3051 22.1364 90.0423 21.9448C90.7795 21.7531 93.3598 21.2075 95.7927 20.7062C98.2256 20.2196 101.646 19.5856 103.386 19.3055C105.126 19.0253 106.718 18.7599 106.925 18.7157C107.131 18.6862 107.824 18.6715 108.473 18.6862ZM110.537 19.8658C109.962 19.5856 109.49 19.4971 108.473 19.4529C107.736 19.4087 106.94 19.4234 106.704 19.4529C106.595 19.4733 106.351 19.5095 106.039 19.5556C105.677 19.6092 105.223 19.6764 104.787 19.7478C103.976 19.8658 102.413 20.1312 101.322 20.3376C100.231 20.544 98.2697 20.9126 96.9722 21.1485C95.6747 21.3845 93.463 21.8121 92.077 22.0922C90.6762 22.3723 89.1133 22.741 88.5972 22.9179C88.0959 23.0801 87.4324 23.375 87.1228 23.5814C86.8279 23.7731 86.4003 24.2154 86.1644 24.5546C85.8253 25.0854 85.7663 25.3508 85.722 26.4271C85.6926 27.1791 85.7958 28.6536 85.9727 30.0543C86.1496 31.3518 86.5625 34.2713 86.8869 36.5419C87.1965 38.8126 87.6388 41.6288 87.8453 42.8084C88.0517 43.988 88.3466 45.4772 88.5088 46.1259C88.671 46.7747 88.9953 47.7036 89.2313 48.1902C89.4672 48.6768 89.9095 49.3698 90.2192 49.7236C90.5288 50.0775 91.0449 50.5493 91.3692 50.741C91.6936 50.9474 92.2834 51.1981 92.6963 51.3161C93.0944 51.4193 93.7284 51.5077 94.097 51.5077C94.4656 51.5077 95.5567 51.4045 96.5299 51.2866C97.503 51.1539 100.717 50.6526 103.681 50.166C106.645 49.6794 109.888 49.1191 110.906 48.9274C111.923 48.721 113.147 48.4261 113.634 48.2639C114.12 48.1017 114.769 47.7921 115.064 47.6004C115.373 47.394 115.772 46.9516 115.949 46.5978C116.258 46.0375 116.288 45.7868 116.273 43.9143C116.258 42.0859 116.111 40.9358 114.975 33.8879C114.268 29.5088 113.53 25.2328 113.324 24.3776C113.118 23.5224 112.808 22.4903 112.616 22.0922C112.439 21.6794 112.056 21.1043 111.776 20.7947C111.496 20.4703 110.95 20.0574 110.537 19.8658Z" fill="#04FFE1"/>
<path fill-rule="evenodd" clip-rule="evenodd" d="M110.169 33.1949C110.169 33.3276 110.08 33.6962 109.977 33.9911L109.8 34.5367C109.284 33.9764 108.856 33.7404 108.503 33.652C108.163 33.5635 107.529 33.534 107.102 33.5783C106.497 33.652 106.158 33.7994 105.48 34.3155C105.023 34.6694 104.463 35.2149 104.241 35.5245C104.02 35.8489 103.725 36.3945 103.593 36.7631C103.46 37.1465 103.342 37.8837 103.342 38.5325C103.342 39.4319 103.401 39.7563 103.696 40.2871C103.888 40.6409 104.241 41.0833 104.463 41.2455C104.772 41.4666 105.082 41.5551 105.642 41.5404C106.099 41.5256 106.645 41.4077 106.999 41.216C107.323 41.0538 107.869 40.6262 108.208 40.2723C108.547 39.9184 108.915 39.4466 109.048 39.196L109.255 38.7536C109.667 40.2133 109.815 40.464 110.021 40.523C110.183 40.5672 110.596 40.4787 110.935 40.346C111.319 40.1691 111.894 39.6973 112.484 39.0485C113 38.4882 113.413 37.8837 113.427 37.7215C113.427 37.5003 113.088 37.751 112.086 38.7241C111.127 39.653 110.67 39.9922 110.434 39.9774C110.228 39.9479 110.066 39.8005 110.007 39.5646C109.948 39.3582 109.903 38.8273 109.889 38.385C109.889 37.9427 110.007 36.6894 110.169 35.6278C110.331 34.5514 110.464 33.5045 110.464 33.2981C110.464 33.0917 110.39 32.9295 110.316 32.9295C110.242 32.9295 110.169 33.0475 110.169 33.1949ZM106.188 34.6104C106.468 34.4187 106.895 34.1976 107.146 34.1238C107.382 34.0501 107.706 33.9764 107.839 33.9764C107.986 33.9616 108.326 34.0649 108.62 34.1828C108.901 34.3008 109.225 34.5809 109.328 34.8168C109.476 35.097 109.505 35.4656 109.431 36.0996C109.358 36.5862 109.24 37.2497 109.151 37.5741C109.078 37.8985 108.709 38.562 108.355 39.0485C107.986 39.5351 107.382 40.1544 106.984 40.4198C106.453 40.7589 106.084 40.8916 105.672 40.8916C105.347 40.8916 104.949 40.8032 104.787 40.6999C104.625 40.582 104.374 40.2576 104.227 39.9627C104.064 39.6236 103.976 39.078 103.976 38.5325C103.976 37.869 104.064 37.4561 104.359 36.8811C104.566 36.4535 104.949 35.849 105.2 35.5393C105.465 35.2297 105.893 34.8168 106.188 34.6104Z" fill="#04FFE1"/>
<path fill-rule="evenodd" clip-rule="evenodd" d="M94.9965 30.0248C93.8169 30.3344 93.1387 30.5704 93.0797 30.7178C93.0207 30.8947 93.0945 30.9242 93.4041 30.8652C93.7727 30.7915 93.7875 30.821 93.7285 31.2339C93.6842 31.4845 93.5515 32.5019 93.4336 33.5193C93.3009 34.5367 93.0355 36.5862 92.8438 38.0901C92.6374 39.5941 92.372 41.5109 92.2393 42.3661C92.1213 43.2212 91.9886 44.0322 91.9444 44.1796C91.9149 44.3123 91.7527 44.4598 91.5905 44.504C91.4283 44.5483 91.2956 44.681 91.2956 44.7989C91.2956 44.9611 91.4136 45.0053 91.7674 44.9464C92.0328 44.9021 92.8438 44.7694 93.581 44.6515C94.3183 44.5188 94.9523 44.3861 95.0112 44.3566C95.085 44.3124 95.1292 44.1649 95.1292 44.0322C95.1292 43.811 95.0555 43.7815 94.6132 43.8848C94.2151 43.9585 94.1266 43.9437 94.2003 43.811C94.2593 43.7078 94.4215 42.6315 94.5689 41.4077C94.7164 40.1986 94.8785 39.1517 94.9375 39.0927C95.0113 39.0338 95.9697 38.7979 97.105 38.5767L99.1397 38.1638C99.6558 38.96 100.128 39.7563 100.526 40.4345C101.175 41.5551 101.219 41.6731 100.998 41.8353C100.85 41.9237 100.747 42.0859 100.732 42.1891C100.732 42.3071 100.894 42.3366 101.278 42.2776C101.587 42.2334 102.207 42.1301 102.649 42.0417C103.283 41.9237 103.401 41.8647 103.165 41.7615C102.914 41.6731 102.914 41.6436 103.121 41.6436C103.268 41.6288 103.386 41.5698 103.386 41.4814C103.386 41.3929 103.077 41.3634 102.605 41.4077L101.838 41.4814C100.024 38.2228 98.8006 35.9521 97.9602 34.3302C97.105 32.7083 96.3235 31.1159 96.2203 30.7915C96.1024 30.4671 96.0139 30.1428 96.0139 30.0543C96.0139 29.956 96.0532 29.956 96.1319 30.0543C96.1908 30.1575 96.3678 30.0838 96.5889 29.8774C96.7954 29.6857 96.9281 29.5382 96.8838 29.553C96.8543 29.553 95.9991 29.7594 94.9965 30.0248ZM94.3329 30.7621C94.3919 30.6736 94.5689 30.5704 94.7458 30.5261C94.908 30.4967 95.1144 30.4524 95.1734 30.4377C95.2471 30.4377 95.2619 30.8653 95.2176 31.4256C95.1734 31.9711 94.9375 33.9469 94.7016 35.8047C94.4657 37.6625 94.1413 40.3018 93.9938 41.6731C93.7874 43.6489 93.6842 44.1354 93.5072 44.1354C93.3893 44.1354 93.0649 44.1797 92.7848 44.2387C92.2982 44.3566 92.2982 44.3566 92.4604 43.988C92.5488 43.7816 92.7848 42.4988 92.9912 41.1128C93.2123 39.7268 93.581 36.8811 93.8169 34.7726C94.0528 32.6641 94.2887 30.8653 94.3329 30.7621ZM95.1439 36.1733C95.2914 34.92 95.483 33.3276 95.5715 32.6346L95.7484 31.3813L97.2524 34.4777C98.2108 36.424 98.7121 37.6036 98.6089 37.6625C98.5204 37.7068 97.6505 37.928 96.6773 38.1491C95.7042 38.3703 94.908 38.5325 94.8932 38.503C94.8932 38.4892 94.919 38.2535 94.96 37.8784L94.9601 37.8768L94.9603 37.8755L94.961 37.8691L94.9621 37.8586L94.9634 37.8464C95.0099 37.4204 95.0749 36.8247 95.1439 36.1733Z" fill="#04FFE1"/>
<path d="M159.835 100.053C158.734 100.082 157.816 99.214 157.784 98.1124L157.638 93.1637C157.606 92.057 158.478 91.1345 159.585 91.1056L164.211 90.9849C165.336 90.9556 166.263 91.8593 166.263 92.9843V97.9356C166.263 99.0197 165.4 99.9064 164.316 99.935L159.835 100.053Z" fill="#04FFE1"/>
<path d="M185.79 90.422C186.915 90.3927 187.842 91.2963 187.842 92.4213V97.3678C187.842 98.4519 186.979 99.3386 185.895 99.3671L181.675 99.4782C180.574 99.5071 179.657 98.6411 179.623 97.5406L179.47 92.5972C179.436 91.4894 180.309 90.565 181.417 90.5361L185.79 90.422Z" fill="#04FFE1"/>
<path d="M177.316 97.6448C177.316 98.7289 176.452 99.6156 175.369 99.6441L170.421 99.7743C169.296 99.8039 168.369 98.9002 168.369 97.775V92.825C168.369 91.7407 169.233 90.8539 170.316 90.8257L175.264 90.6966C176.388 90.6673 177.316 91.5709 177.316 92.6959V97.6448Z" fill="#04FFE1"/>
<path d="M161.065 82.6883C160.266 83.4473 159.003 83.4167 158.242 82.6199L154.988 79.2155C154.223 78.4151 154.254 77.1455 155.057 76.3832L158.243 73.3588C159.059 72.5843 160.353 72.6348 161.106 73.4706L164.258 76.9696C164.984 77.775 164.936 79.0119 164.15 79.7585L161.065 82.6883Z" fill="#04FFE1"/>
<path d="M173.476 58.8986C174.292 58.1241 175.586 58.1746 176.339 59.0105L179.488 62.5059C180.213 63.3113 180.165 64.5482 179.379 65.2947L176.478 68.0502C175.679 68.8084 174.419 68.7788 173.657 67.984L170.402 64.588C169.635 63.7878 169.665 62.5166 170.468 61.7535L173.476 58.8986Z" fill="#04FFE1"/>
<path d="M172.059 69.5614C172.784 70.3668 172.736 71.6037 171.95 72.3502L168.537 75.5918C167.721 76.3667 166.427 76.3163 165.674 75.4803L162.523 71.9824C161.797 71.1768 161.845 69.9397 162.631 69.1932L166.045 65.9524C166.861 65.1778 168.155 65.2284 168.908 66.0642L172.059 69.5614Z" fill="#04FFE1"/>
<path d="M152.794 73.5009C152.313 74.4925 151.12 74.9079 150.127 74.4297L146.318 72.5954C145.32 72.1151 144.903 70.9157 145.386 69.9198L147.102 66.3878C147.593 65.3758 148.822 64.968 149.821 65.4857L153.575 67.4315C154.538 67.9303 154.928 69.1051 154.454 70.0804L152.794 73.5009Z" fill="#04FFE1"/>
<path d="M155.77 48.5372C156.261 47.5252 157.49 47.1175 158.489 47.6352L162.239 49.5788C163.202 50.0776 163.592 51.2525 163.119 52.2278L161.563 55.4333C161.082 56.4238 159.891 56.8395 158.899 56.3634L155.09 54.5367C154.091 54.0574 153.672 52.8568 154.156 51.8598L155.77 48.5372Z" fill="#04FFE1"/>
<path d="M158.013 58.2874C158.976 58.7862 159.365 59.9611 158.892 60.9364L157.047 64.7388C156.555 65.7511 155.326 66.159 154.327 65.6413L150.574 63.6962C149.611 63.1973 149.221 62.0222 149.695 61.0468L151.541 57.2448C152.033 56.2328 153.262 55.8251 154.261 56.3427L158.013 58.2874Z" fill="#04FFE1"/>
<path d="M141.334 73.5149V73.5149C140.62 73.3027 140.214 72.5506 140.428 71.837L141.665 67.7242C141.989 66.6469 143.137 66.0486 144.206 66.4005L144.651 66.547L141.334 73.5149Z" fill="#04FFE1"/>
<path d="M147.173 49.406C147.497 48.3287 148.646 47.7304 149.714 48.0823L152.929 49.141L149.753 55.8234L147.539 55.1693C146.476 54.8553 145.871 53.7368 146.19 52.6754L147.173 49.406Z" fill="#04FFE1"/>
<path d="M145.459 64.8491L144.644 64.5807C143.614 64.2415 143.042 63.1435 143.355 62.1052L144.486 58.3417C144.81 57.2644 145.959 56.6661 147.027 57.018L148.895 57.6331L145.459 64.8491Z" fill="#04FFE1"/>
<path d="M142.811 50.6287C142.999 49.6645 143.945 49.0451 144.904 49.2583V49.2583L142.818 56.4157V56.4157C142.214 56.3008 141.819 55.7167 141.936 55.1131L142.811 50.6287Z" fill="#04FFE1"/>
<path d="M140.058 65.8585V65.8585C139.942 65.8327 139.867 65.7192 139.89 65.6026L141.188 58.9501C141.286 58.4445 141.782 58.1198 142.285 58.2315V58.2315L140.058 65.8585Z" fill="#04FFE1"/>
<path d="M135.521 77.4931L136.278 70.4446C136.314 70.1128 136.616 69.8756 136.947 69.9199V69.9199L135.521 77.4931Z" fill="#04FFE1"/>
<path d="M138.167 52.8611C138.287 51.7426 139.306 50.9432 140.421 51.0925L140.463 51.0981L139.099 58.4088V58.4088C138.266 58.3233 137.661 57.5764 137.75 56.7434L138.167 52.8611Z" fill="#04FFE1"/>
<path d="M137.293 68.084V68.084C136.875 68.0281 136.578 67.6497 136.623 67.2308L137.243 61.4611C137.323 60.7139 138.004 60.1799 138.749 60.2796V60.2796L137.293 68.084Z" fill="#04FFE1"/>
<path d="M136.739 49.8456C136.823 49.0013 137.59 48.3945 138.431 48.5071L140.388 48.7691L134.743 78.7374C134.843 78.7436 134.902 78.7451 134.91 78.741C135.156 78.7928 135.4 78.8432 135.64 78.8931C135.669 78.8991 135.698 78.9052 135.728 78.9112L141.468 48.4361C141.494 48.3012 141.463 48.1619 141.382 48.0507C141.302 47.9395 141.179 47.8662 141.043 47.8479L138.564 47.516C137.162 47.3283 135.884 48.3395 135.744 49.7467L132.881 78.5662C133.019 78.578 133.164 78.5921 133.318 78.6083C133.514 78.6286 133.702 78.6474 133.877 78.664L136.739 49.8456Z" fill="#04FFE1"/>
<path fill-rule="evenodd" clip-rule="evenodd" d="M136.709 79.1169L146.32 46.1942L143.614 45.5925C142.233 45.2856 140.873 46.1838 140.614 47.5738L134.792 78.7402C134.862 78.7439 134.903 78.7444 134.91 78.741C135.156 78.7927 135.399 78.8432 135.64 78.8931C136.002 78.9682 136.358 79.0421 136.709 79.1169ZM141.597 47.7575C141.752 46.9234 142.568 46.3845 143.397 46.5686L145.061 46.9387L135.867 78.4305L141.597 47.7575Z" fill="#04FFE1"/>
<path d="M146.325 46.1793C146.563 45.3648 147.428 44.9096 148.234 45.175L153.449 46.8925L137.976 79.4016C138.309 79.4814 138.638 79.5649 138.963 79.6544L154.839 46.2976L148.547 44.2252C147.204 43.7828 145.761 44.5416 145.365 45.899L135.726 78.9109C136.058 78.9798 136.385 79.0478 136.707 79.1166L146.325 46.1793Z" fill="#04FFE1"/>
<path d="M155.417 45.0834C155.781 44.3173 156.708 44.0057 157.461 44.3961L165.506 48.5653C166.224 48.9374 166.518 49.8114 166.171 50.5415L156.183 71.5355L144.723 82.5551C144.973 82.7628 145.223 82.9842 145.474 83.2205L157.007 72.1299L167.074 50.9711C167.653 49.7543 167.163 48.2975 165.966 47.6775L157.921 43.5082C156.666 42.8575 155.121 43.3769 154.514 44.6538L137.982 79.403C138.315 79.4828 138.644 79.5664 138.969 79.656L155.417 45.0834Z" fill="#04FFE1"/>
<path d="M174.392 55.3229C175.002 54.7338 175.98 54.7681 176.548 55.3985L183.123 62.6975C183.664 63.2982 183.632 64.2198 183.05 64.7811L158.599 88.3671L149.699 88.6539C149.889 88.9656 150.081 89.2883 150.274 89.6226C150.276 89.6269 150.278 89.6313 150.28 89.6357L159.016 89.3541L183.745 65.5008C184.714 64.5653 184.768 63.0294 183.866 62.0282L177.291 54.7291C176.344 53.6785 174.715 53.6214 173.698 54.6032L144.721 82.5539C144.971 82.7616 145.222 82.9829 145.472 83.2191L174.392 55.3229Z" fill="#04FFE1"/>
<path d="M154.226 103.175L189.085 101.987C190.432 101.941 191.5 100.836 191.5 99.4881V89.8062C191.5 88.3921 190.328 87.2595 188.915 87.3077L149.693 88.6448C149.885 88.9593 150.079 89.285 150.274 89.6226L150.275 89.6255L188.949 88.3071C189.797 88.2782 190.5 88.9578 190.5 89.8062V99.4881C190.5 100.297 189.859 100.96 189.051 100.987L154.07 102.18C154.123 102.503 154.176 102.841 154.226 103.175Z" fill="#04FFE1"/>
<path d="M123.35 99.6489C123.645 98.7642 124.029 97.8058 124.205 97.5257C124.382 97.2603 124.53 97.0686 124.545 97.1128C124.559 97.1571 124.353 97.9091 124.088 98.7937C123.822 99.6637 123.498 100.814 123.365 101.345C123.232 101.875 123.159 102.391 123.203 102.495C123.262 102.583 123.763 102.819 124.323 103.011C124.898 103.188 125.356 103.409 125.356 103.483C125.356 103.571 125.09 103.6 124.663 103.541C124.264 103.497 123.689 103.32 123.365 103.173C122.775 102.878 122.775 102.878 122.805 102.082C122.819 101.625 123.055 100.563 123.35 99.6489Z" fill="#0633BB"/>
<path d="M130.074 105.547C130.074 105.528 130.076 105.5 130.079 105.467L130.079 105.465C130.084 105.418 130.089 105.362 130.089 105.311C130.103 105.222 130.207 105.267 130.31 105.385C130.428 105.517 130.487 105.768 130.442 105.96C130.398 106.137 130.207 106.461 130 106.697C129.676 107.051 129.528 107.095 128.747 107.095C128.26 107.095 127.833 107.021 127.788 106.948C127.744 106.859 127.965 106.8 128.304 106.8C128.629 106.8 129.056 106.726 129.263 106.653C129.469 106.579 129.735 106.313 129.853 106.063C129.971 105.827 130.074 105.591 130.074 105.547Z" fill="#0633BB"/>
<path d="M98.0632 142.276C98.0632 141.907 98.2401 141.288 98.5497 140.654C98.8299 140.079 99.4197 138.988 99.862 138.221C100.304 137.439 100.791 136.614 100.953 136.363C101.101 136.127 101.705 135.257 102.295 134.446C102.885 133.635 103.681 132.633 104.064 132.205C104.61 131.601 104.713 131.424 104.492 131.424C104.344 131.424 103.843 131.851 103.371 132.353C102.914 132.854 102.133 133.812 101.646 134.461C101.16 135.11 100.422 136.171 100.024 136.82C99.6114 137.469 98.9921 138.56 98.0042 140.506L98.0632 142.276Z" fill="#0633BB"/>
<path fill-rule="evenodd" clip-rule="evenodd" d="M154.889 112.226C154.904 114.305 154.874 116.178 154.815 116.384C154.771 116.591 154.535 116.841 154.299 116.944C153.975 117.092 153.341 117.092 151.306 116.974C149.891 116.9 147.296 116.694 145.556 116.532C143.816 116.369 141.457 116.089 140.321 115.942C139.186 115.78 138.169 115.647 138.08 115.647C137.947 115.647 137.903 115.839 137.933 116.192C137.962 116.679 138.021 116.753 138.552 116.915C138.761 116.982 139.235 117.128 139.775 117.295C140.071 117.387 140.387 117.484 140.69 117.578C141.545 117.829 143.167 118.434 144.302 118.92C145.438 119.407 147.192 120.247 148.21 120.793C149.227 121.353 150.82 122.282 151.748 122.872C152.677 123.462 154.034 124.361 154.771 124.877C155.508 125.393 156.496 126.13 156.983 126.499C157.469 126.868 158.605 127.826 159.489 128.622C160.374 129.418 161.672 130.672 162.365 131.409C163.058 132.146 163.662 132.706 163.736 132.677C163.795 132.633 163.927 132.721 164.016 132.869C164.193 133.105 164.178 133.105 163.913 132.898C163.751 132.78 164.134 133.208 164.753 133.856C165.387 134.505 166.169 135.405 166.508 135.847C166.847 136.289 167.658 137.454 168.292 138.427C168.941 139.4 169.811 140.934 170.253 141.819C170.681 142.703 171.3 144.104 171.624 144.915C171.949 145.726 172.347 146.788 172.509 147.274C172.671 147.761 172.951 148.631 173.113 149.191C173.276 149.751 173.556 150.887 173.718 151.697C173.88 152.508 174.116 154.175 174.249 155.384C174.426 157.168 174.44 157.934 174.322 159.365C174.234 160.338 173.983 161.798 173.777 162.609C173.57 163.419 173.158 164.614 172.848 165.263C172.538 165.911 171.89 166.973 171.403 167.622C170.916 168.27 170.091 169.185 169.575 169.671C169.059 170.143 168.13 170.866 167.525 171.264C166.921 171.662 165.889 172.178 165.24 172.428C164.591 172.664 163.927 172.93 163.765 173.003C161.531 174.095 158 174 156 173.5L154.904 173.018C154.778 172.961 154.306 172.789 153.764 172.59L153.748 172.585L153.542 172.509L153.282 172.414C152.545 172.148 151.291 171.603 150.48 171.19C149.669 170.777 148.401 170.04 147.679 169.568C146.942 169.081 145.821 168.285 145.172 167.799C144.523 167.297 143.196 166.191 142.223 165.336C141.25 164.466 139.82 163.08 139.053 162.24C138.272 161.385 137.24 160.235 136.738 159.674C136.252 159.099 135.057 157.581 134.099 156.283C133.141 154.986 131.416 152.523 130.28 150.828C129.145 149.117 127.7 146.832 127.081 145.741C126.461 144.635 125.606 143.013 125.193 142.128C124.766 141.229 124.205 139.872 123.94 139.106C123.675 138.324 123.144 137.086 122.775 136.334C122.672 136.12 122.23 135 121.905 134.815C121.846 134.815 121.551 134.667 121.242 134.476C120.947 134.284 120.504 133.901 120.269 133.635C120.047 133.355 119.62 132.647 119.354 132.058C119.074 131.468 118.779 130.996 118.706 130.996C118.617 130.996 117.246 131.556 115.639 132.249L112.734 133.503C109.195 133.694 108.045 133.709 107.898 133.665C107.691 133.591 107.913 133.326 108.93 132.382C109.652 131.733 110.493 130.981 110.817 130.731C111.171 130.45 112.793 129.698 114.872 128.843C116.774 128.077 118.352 127.428 118.367 127.413C118.367 127.409 118.37 127.386 118.375 127.349C118.389 127.245 118.419 127.031 118.44 126.794C118.484 126.278 118.573 126.145 119.074 125.865C119.399 125.688 120.062 125.408 120.549 125.246C121.035 125.098 121.625 124.862 121.876 124.73C122.141 124.597 122.687 124.508 123.276 124.494C123.807 124.494 124.766 124.435 125.414 124.361C126.329 124.258 127.39 123.933 130.133 122.901C132.079 122.179 134.379 121.338 135.249 121.058C136.134 120.763 136.974 120.527 137.136 120.527C137.299 120.527 137.564 120.586 137.726 120.675C137.888 120.748 138.124 121.014 138.242 121.265C138.36 121.5 138.463 121.913 138.463 122.179C138.463 122.444 138.39 122.769 138.287 122.901C138.183 123.019 136.797 123.653 135.22 124.287C133.642 124.921 131.814 125.629 131.165 125.85C130.516 126.086 129.971 126.292 129.941 126.307C129.926 126.322 130.383 127.325 130.973 128.534C131.563 129.728 132.153 130.731 132.271 130.76C132.352 130.78 132.614 130.836 132.929 130.902L132.933 130.902C133.074 130.932 133.226 130.964 133.377 130.996C133.863 131.084 134.822 131.32 135.515 131.527C136.208 131.733 137.667 132.308 138.758 132.78C139.849 133.267 141.604 134.137 142.666 134.712C143.713 135.287 145.408 136.245 146.426 136.864C147.443 137.469 149.035 138.472 149.964 139.076C150.893 139.681 152.456 140.742 153.429 141.435C154.402 142.128 155.626 143.013 156.157 143.426C156.688 143.824 157.484 144.458 157.926 144.841C158.369 145.225 159.165 145.859 159.696 146.257C160.227 146.655 161.863 148.188 163.338 149.677C164.827 151.152 166.036 152.435 166.036 152.523C166.036 152.621 165.938 152.621 165.741 152.523C165.579 152.435 164.93 151.889 164.296 151.299C163.677 150.71 162.247 149.427 161.126 148.454C160.005 147.481 158.708 146.375 158.251 145.991C157.794 145.593 156.275 144.428 154.904 143.396C153.518 142.349 151.896 141.17 151.291 140.772C150.687 140.359 149.227 139.415 148.047 138.663C146.868 137.911 144.509 136.525 142.813 135.582C141.103 134.653 139.112 133.606 138.39 133.267C137.652 132.928 136.311 132.412 135.397 132.117C134.497 131.822 133.495 131.542 133.185 131.483C132.654 131.394 132.625 131.409 132.271 132.117C132.064 132.529 131.298 133.444 130.428 134.314C129.454 135.272 128.467 136.068 127.611 136.599C126.889 137.041 125.813 137.572 125.223 137.779C124.633 137.97 124.146 138.221 124.161 138.324C124.161 138.427 124.353 139.017 124.589 139.651C124.81 140.285 125.326 141.465 125.709 142.276C126.093 143.087 126.904 144.561 127.493 145.549C128.098 146.537 129.292 148.395 130.147 149.677C131.017 150.96 131.961 152.331 132.256 152.744C132.566 153.142 133.377 154.234 134.055 155.177C134.748 156.106 136.001 157.699 136.827 158.716C137.652 159.719 139.437 161.665 140.793 163.036C142.15 164.407 143.978 166.088 144.877 166.796C145.762 167.489 147.133 168.492 147.9 169.008C148.667 169.524 150.097 170.335 151.07 170.807C152.043 171.293 153.473 171.883 154.24 172.134C155.007 172.384 156.098 172.694 156.673 172.827C157.351 172.974 158.428 173.062 159.769 173.062C161.495 173.062 162.025 173.003 163.013 172.723C163.662 172.532 164.65 172.178 165.225 171.912C165.785 171.647 166.655 171.19 167.142 170.88C167.628 170.571 168.351 170.01 168.764 169.642C169.162 169.258 169.884 168.521 170.356 168.005C170.946 167.342 171.491 166.486 172.081 165.277C172.568 164.304 173.084 162.977 173.261 162.328C173.423 161.68 173.615 160.677 173.703 160.117C173.777 159.542 173.851 158.554 173.851 157.905C173.851 157.256 173.718 155.752 173.57 154.587C173.408 153.408 173.143 151.919 172.995 151.27C172.833 150.621 172.494 149.383 172.229 148.542C171.963 147.687 171.388 146.095 170.946 145.003C170.504 143.898 169.781 142.305 169.324 141.465C168.882 140.61 168.085 139.282 167.584 138.516C167.068 137.734 166.183 136.511 165.608 135.788C165.033 135.051 163.603 133.503 162.453 132.338C161.303 131.173 159.489 129.507 158.442 128.652C157.381 127.782 155.995 126.676 155.346 126.175C154.697 125.688 153.562 124.892 152.839 124.405C152.102 123.919 150.849 123.122 150.038 122.621C149.227 122.134 147.664 121.265 146.573 120.704C145.482 120.144 143.889 119.407 143.034 119.082C142.179 118.743 140.719 118.257 139.79 118.006L138.095 117.534C136.031 118.139 135.043 118.375 134.556 118.463C134.07 118.537 132.905 118.64 131.976 118.699C130.929 118.758 129.853 118.728 129.174 118.611C128.57 118.522 127.493 118.316 126.771 118.153C126.063 117.991 125.385 117.77 125.267 117.652C125.134 117.519 124.81 117.431 124.486 117.446C124.191 117.46 123.704 117.505 123.424 117.534C123.144 117.564 121.551 117.814 119.885 118.094C118.219 118.389 115.83 118.846 114.577 119.141C113.324 119.436 111.289 119.967 110.08 120.321C108.856 120.69 107.043 121.309 106.025 121.707C105.008 122.105 103.121 122.96 101.823 123.594C100.526 124.243 98.7856 125.201 97.9452 125.747C96.7656 126.499 96.4412 126.779 96.4412 127.044L96.3086 126.263L97.7536 125.319C98.5351 124.789 100.216 123.874 101.469 123.27C102.723 122.665 104.521 121.869 105.45 121.5C106.379 121.132 108.104 120.527 109.284 120.159C110.463 119.775 112.425 119.2 113.634 118.891C114.857 118.566 116.671 118.139 117.688 117.932C118.706 117.726 120.298 117.431 121.227 117.269C122.156 117.121 123.35 116.944 124.839 116.797L124.692 114.423L122.923 114.01C121.95 113.789 120.49 113.391 119.679 113.14C118.868 112.875 117.113 112.27 115.772 111.784C114.43 111.297 112.808 110.648 112.159 110.339C111.51 110.044 110.817 109.661 110.242 109.189L110.95 108.776C111.305 108.558 112.177 107.961 112.971 107.417L113.162 107.287C113.987 106.697 115.152 105.738 116.818 104.072L116.804 100.976L116.288 100.681C115.993 100.519 115.683 100.194 115.595 99.9438C115.477 99.6342 115.462 98.8232 115.536 97.1424C115.595 95.8448 115.698 94.4441 115.742 94.0165C115.801 93.6036 115.875 93.2203 115.919 93.1761C115.963 93.1171 116.42 93.1466 116.951 93.2203C117.482 93.3088 117.924 93.353 117.954 93.3382C117.968 93.3235 118.116 92.719 118.278 91.9817C118.44 91.2445 118.558 90.6547 118.544 90.64C118.514 90.64 118.072 90.522 117.541 90.3746C117.01 90.2271 116.347 90.0207 116.066 89.9027C115.58 89.6963 115.55 89.6521 115.639 89.136C115.683 88.8411 115.934 88.1334 116.199 87.5583C116.465 86.9833 116.966 86.1281 117.305 85.6415C117.659 85.155 118.573 84.1523 119.325 83.4298C120.092 82.6926 121.242 81.749 121.891 81.3214C122.539 80.8938 123.571 80.3482 124.176 80.0976C124.78 79.8322 125.916 79.4783 126.683 79.2719C127.449 79.0802 128.909 78.8148 129.926 78.6821C131.416 78.4904 132.064 78.4757 133.318 78.6084C134.173 78.6968 134.881 78.7558 134.91 78.7411C140.82 79.9821 145 80.5 150.274 89.6226C150.672 90.4335 151.07 91.2887 151.159 91.5394C151.25 91.7663 151.5 92.5 151.793 93.353C151.852 93.5442 151.929 93.7911 152.01 94.0515C152.129 94.4336 152.256 94.8449 152.353 95.1518C152.515 95.6826 152.839 96.7737 153.075 97.5847C153.297 98.3956 153.65 99.9291 153.857 100.976C154.063 102.038 154.329 103.792 154.461 104.883C154.579 105.989 154.683 107.095 154.683 107.36L154.683 107.373C154.728 108.054 154.889 110.51 154.889 112.226ZM138.891 89.2245C139.068 88.9148 139.171 88.6642 139.142 88.6642C139.112 88.6642 138.699 89.0181 138.228 89.4309C137.741 89.8585 136.502 91.0528 135.441 92.0849L133.524 93.987C128.496 92.9696 125.282 92.2619 123.129 91.7753L122.393 91.6088L122.392 91.6086C120.577 91.198 119.152 90.8759 119.074 90.8759C119.001 90.8759 118.824 91.4804 118.706 92.2029C118.588 92.9401 118.514 93.5299 118.558 93.5299C118.602 93.5299 119.767 93.7363 121.139 93.987C121.625 94.075 122.235 94.1848 122.889 94.3024L122.89 94.3026C124.097 94.5199 125.452 94.7637 126.447 94.9454C127.546 95.1444 129.181 95.4326 130.634 95.6886L130.637 95.6893C131.228 95.7935 131.789 95.8923 132.271 95.9775C133.937 96.2724 135.382 96.5231 135.5 96.5378C135.632 96.5526 135.809 96.1692 136.031 95.4467C136.208 94.8422 136.547 93.8838 136.768 93.3087C137.004 92.7484 137.505 91.7163 137.888 91.0233C138.257 90.3451 138.714 89.5341 138.891 89.2245ZM117.777 94.0165C117.762 94.0017 117.408 93.9428 116.995 93.8838C116.42 93.8101 116.243 93.8395 116.229 94.0017C116.214 94.1049 116.125 94.8274 116.052 95.5942C115.963 96.3756 115.904 97.5994 115.889 98.3219C115.889 99.5457 115.919 99.6784 116.229 99.9143C116.42 100.062 116.597 100.18 116.641 100.18C116.686 100.18 116.804 99.531 116.907 98.7348C117.01 97.9386 117.261 96.5673 117.452 95.6679C117.629 94.7832 117.777 94.0312 117.777 94.0165ZM123.94 95.1813C123.866 95.1076 122.701 94.8717 121.36 94.6505C120.353 94.4846 119.414 94.3188 118.932 94.2338L118.93 94.2335L118.924 94.2325L118.918 94.2313L118.915 94.2307L118.743 94.2005C118.684 94.1901 118.641 94.1826 118.617 94.1787C118.367 94.1197 118.278 94.1934 118.204 94.5178C118.171 94.6526 118.118 94.8452 118.065 95.0377C118.025 95.1822 117.985 95.3266 117.954 95.4467C117.895 95.7416 117.703 96.8917 117.541 98.027L117.491 98.3773L117.43 98.803C117.317 99.5863 117.231 100.183 117.231 100.239C117.231 100.327 117.85 100.504 118.602 100.652C119.354 100.799 120.224 100.917 120.549 100.917H121.139C122.2 98.6758 122.716 97.5699 122.982 96.9949C123.232 96.4346 123.586 95.8153 123.763 95.6384C123.969 95.432 124.043 95.255 123.94 95.1813ZM125.341 95.7416C125.267 95.5794 125.134 95.4467 125.061 95.4467C125.002 95.4467 124.677 95.7416 124.368 96.0807C123.999 96.4788 123.601 97.1718 123.291 97.9533C123.011 98.6463 122.613 99.5752 122.392 100.018C122.171 100.475 121.802 101.005 121.581 101.197C121.242 101.521 121.08 101.566 120.283 101.536C119.782 101.507 118.912 101.389 118.337 101.271C117.777 101.153 117.29 101.064 117.275 101.064C117.246 101.05 117.231 101.404 117.231 101.831C117.231 102.259 117.305 103.173 117.393 103.851C117.467 104.544 117.674 105.606 117.836 106.21C117.998 106.83 118.381 107.817 118.676 108.422C118.986 109.027 119.59 109.926 120.033 110.398C120.475 110.884 121.109 111.445 121.433 111.651C121.758 111.857 122.76 112.3 123.645 112.639L125.267 113.258C125.326 116.31 125.385 117.239 125.459 117.298C125.518 117.342 126.019 117.49 126.565 117.623C127.11 117.755 128.231 117.947 129.071 118.035C129.926 118.124 131.43 118.168 132.566 118.109C133.657 118.065 134.984 117.918 135.515 117.8C136.045 117.667 136.679 117.505 136.915 117.416L137.358 117.284C137.284 112.963 137.343 111.106 137.431 110.265C137.535 109.454 137.77 108.127 137.977 107.316C138.183 106.505 138.655 105.178 139.024 104.367C139.392 103.556 139.731 102.598 139.776 102.229C139.835 101.639 139.805 101.521 139.378 101.094C139.127 100.829 138.773 100.607 138.611 100.607C138.449 100.607 138.169 100.681 137.992 100.784C137.8 100.873 137.358 101.271 136.989 101.684C136.355 102.421 136.311 102.436 135.809 102.288C135.5 102.214 135.22 102.008 135.116 101.787C135.013 101.595 134.925 101.123 134.925 100.755C134.925 100.401 135.028 99.472 135.161 98.6905C135.279 97.9238 135.352 97.2603 135.308 97.2161C135.249 97.1866 135.161 97.2161 135.087 97.2898C135.028 97.3783 134.763 98.2777 134.497 99.2803C134.232 100.298 133.893 101.433 133.745 101.787C133.583 102.156 133.214 102.686 132.934 102.966L132.403 103.483C130.192 103.453 129.042 103.335 128.437 103.202C127.833 103.07 127.14 102.849 126.889 102.701C126.579 102.524 126.373 102.229 126.196 101.713C126.063 101.315 125.857 99.8701 125.724 98.5136C125.591 97.1571 125.429 95.9038 125.341 95.7416ZM126.638 95.6384L126.078 95.5499L126.166 96.1987C126.211 96.5673 126.343 97.7764 126.461 98.9117C126.565 100.047 126.727 101.182 126.786 101.418C126.859 101.669 127.081 101.979 127.272 102.126C127.464 102.273 128.098 102.48 128.658 102.598C129.233 102.716 130.31 102.819 131.047 102.819C132.138 102.819 132.448 102.775 132.654 102.568C132.802 102.421 133.037 102.038 133.17 101.713C133.318 101.389 133.671 100.327 133.952 99.354C134.232 98.3809 134.497 97.4815 134.541 97.334C134.615 97.1423 134.541 97.0539 134.305 97.0096C134.114 96.9654 133.273 96.8032 132.418 96.641C131.563 96.4788 130.044 96.2134 129.027 96.0365C128.009 95.8596 126.933 95.6826 126.638 95.6384ZM135.367 122.636C135.161 122.238 134.895 121.899 134.777 121.884C134.659 121.869 134.453 121.913 134.335 121.987C134.143 122.09 134.158 122.179 134.453 122.533C134.63 122.769 134.822 123.137 134.851 123.358C134.895 123.579 134.969 123.771 135.028 123.771C135.102 123.771 135.279 123.668 135.441 123.55C135.736 123.344 135.736 123.329 135.367 122.636ZM133.701 122.252C133.598 122.193 133.495 122.149 133.45 122.149C133.406 122.149 133.244 122.223 133.096 122.326C132.831 122.503 132.831 122.533 133.067 123.034C133.2 123.314 133.303 123.727 133.303 123.948C133.303 124.169 133.362 124.361 133.45 124.361C133.524 124.361 133.76 124.287 133.966 124.213C134.188 124.125 134.335 123.948 134.335 123.771C134.335 123.609 134.232 123.226 134.099 122.916C133.981 122.606 133.789 122.311 133.701 122.252ZM127.552 125.496C126.432 125.083 126.107 125.039 124.53 125.01C123.557 124.995 122.495 125.01 122.171 125.054C121.591 125.126 121.595 125.128 122.633 125.394L122.687 125.408C123.291 125.555 124.058 125.821 124.382 125.968C124.707 126.13 125.149 126.41 125.37 126.587C125.591 126.779 125.783 126.985 125.783 127.044C125.783 127.103 125.503 127.044 125.149 126.912C124.81 126.779 124.397 126.573 124.235 126.484C124.073 126.381 123.439 126.145 122.834 125.968C121.994 125.717 121.522 125.658 120.917 125.732C120.475 125.776 119.811 125.968 119.443 126.16C119.001 126.396 118.779 126.602 118.779 126.794C118.779 127.03 118.927 127.103 119.59 127.177C120.033 127.236 120.976 127.487 121.684 127.737C122.746 128.106 122.967 128.224 122.864 128.416C122.805 128.548 122.657 128.622 122.539 128.578C122.421 128.534 122.053 128.416 121.728 128.312C121.404 128.224 120.962 128.18 120.726 128.239C120.504 128.298 120.092 128.548 119.811 128.814C119.354 129.241 119.31 129.374 119.31 130.111C119.31 130.701 119.413 131.143 119.738 131.807C119.974 132.294 120.416 132.957 120.74 133.281C121.05 133.606 121.448 133.915 121.625 133.974C121.949 134.078 121.949 134.063 121.861 132.942C121.817 132.308 121.758 131.645 121.714 131.468C121.684 131.291 121.714 131.143 121.802 131.143C121.876 131.143 121.979 131.247 122.023 131.394C122.067 131.542 122.156 132.19 122.23 132.839C122.303 133.488 122.436 134.314 122.539 134.682C122.628 135.036 122.937 135.773 123.218 136.304C123.498 136.82 123.822 137.395 123.955 137.557C124.161 137.838 124.205 137.838 125.68 137.086C126.506 136.658 127.715 135.921 128.363 135.449C129.012 134.962 129.985 134.078 130.546 133.473C131.091 132.883 131.592 132.22 131.666 132.028C131.769 131.718 131.622 131.276 130.885 129.743C130.383 128.681 129.705 127.398 129.381 126.897C128.82 125.983 128.776 125.953 127.552 125.496ZM112.174 131.512C111.982 131.188 111.731 130.893 111.599 130.863C111.451 130.849 111.038 131.114 110.67 131.453C110.051 132.043 110.006 132.131 110.11 132.574C110.227 133.046 110.242 133.06 111.038 133.06C111.481 133.046 111.997 133.016 112.174 132.972C112.424 132.928 112.513 132.795 112.513 132.5C112.513 132.279 112.351 131.836 112.174 131.512Z" fill="#0633BB"/>
<path fill-rule="evenodd" clip-rule="evenodd" d="M124.205 97.5257C124.029 97.8058 123.645 98.7642 123.35 99.6489C123.055 100.563 122.819 101.625 122.805 102.082C122.775 102.878 122.775 102.878 123.365 103.173C123.689 103.32 124.264 103.497 124.663 103.541C125.09 103.6 125.356 103.571 125.356 103.483C125.356 103.409 124.898 103.188 124.323 103.011C123.763 102.819 123.262 102.583 123.203 102.495C123.159 102.391 123.232 101.875 123.365 101.345C123.498 100.814 123.822 99.6637 124.088 98.7937C124.353 97.9091 124.559 97.1571 124.545 97.1128C124.53 97.0686 124.382 97.2603 124.205 97.5257ZM130.074 105.547C130.074 105.591 129.971 105.827 129.853 106.063C129.735 106.313 129.469 106.579 129.263 106.653C129.056 106.726 128.629 106.8 128.304 106.8C127.965 106.8 127.744 106.859 127.788 106.948C127.833 107.021 128.26 107.095 128.747 107.095C129.528 107.095 129.676 107.051 130 106.697C130.207 106.461 130.398 106.137 130.442 105.96C130.487 105.768 130.428 105.517 130.31 105.385C130.207 105.267 130.103 105.222 130.089 105.311C130.089 105.362 130.084 105.418 130.079 105.465L130.079 105.467C130.076 105.5 130.074 105.528 130.074 105.547Z" fill="#0633BB"/>
<path d="M69.3996 155.207C69.3996 155.236 69.2816 155.811 69.1195 156.504C68.8983 157.418 68.8098 158.274 68.8098 159.748C68.8098 161.06 68.8983 162.181 69.0605 163.066C69.2079 163.788 69.4143 164.584 69.5323 164.835C69.665 165.1 69.5913 165.498 69.5913 165.498H70.3285L70.1221 165.012C70.0041 164.746 69.7682 163.744 69.5913 162.771C69.3259 161.326 69.2816 160.662 69.3406 159.158C69.3996 157.949 69.5176 157.006 69.6945 156.43C69.8567 155.944 70.0336 155.457 70.0926 155.354L69.3996 155.207Z" fill="#0633BB"/>
<path fill-rule="evenodd" clip-rule="evenodd" d="M127.11 173.166L127.39 172.384C127.552 171.957 127.803 171.116 127.965 170.512C128.127 169.892 128.408 168.61 128.57 167.636C128.732 166.663 128.938 165.13 129.027 164.245C129.13 163.287 129.174 161.429 129.145 159.748C129.101 158.156 129.027 156.755 128.968 156.607C125.007 155.266 119.738 155.583 115.388 156.725L115.314 159.158H114.872C114.621 159.158 114.268 159.07 114.076 158.967C113.766 158.804 113.751 158.76 113.928 158.598C114.046 158.495 114.135 158.347 114.135 158.274C114.135 158.185 113.987 158.023 113.796 157.905C113.619 157.787 112.955 157.595 112.321 157.463C111.702 157.345 110.64 157.227 109.962 157.212C108.9 157.197 108.635 157.241 107.795 157.64C107.264 157.875 106.364 158.347 104.772 159.261L102.708 158.229C101.572 157.654 99.5524 156.711 95.7777 155.074C95.6405 155.103 95.2979 155.162 95.0258 155.162L98.1221 156.637C99.1063 157.095 100.198 157.612 101.371 158.167L101.392 158.177L101.396 158.179C102.255 158.585 103.157 159.013 104.094 159.453L103.666 160.22C103.43 160.647 103.121 161.399 102.973 161.886C102.811 162.476 102.722 163.316 102.708 164.466C102.708 165.557 102.796 166.516 102.944 167.194C103.076 167.754 103.327 168.551 103.504 168.963C103.681 169.362 103.976 169.907 104.182 170.173C104.374 170.438 104.521 170.689 104.507 170.718C104.477 170.762 104.094 170.851 103.651 170.939C103.209 171.028 102.384 171.19 102.251 171.19L102.182 171.836C102.266 171.789 102.931 171.674 103.666 171.573C104.433 171.47 105.141 171.293 105.259 171.19C105.377 171.072 106.232 170.88 107.175 170.762C108.119 170.63 109.254 170.394 109.697 170.231C110.139 170.069 110.906 169.642 111.378 169.288L112.247 168.639L112.778 169.037C113.073 169.258 113.604 169.583 113.973 169.774C114.341 169.951 115.196 170.217 115.889 170.364C116.582 170.497 117.187 170.703 117.246 170.821C117.29 170.924 117.539 171.466 117.789 172.01L117.79 172.012L117.791 172.016C118.042 172.561 118.249 173.121 118.249 173.166H127.11ZM112.646 157.949C112.115 157.816 111.097 157.669 110.36 157.625C109.52 157.566 108.886 157.595 108.62 157.699C108.384 157.787 107.691 158.126 107.072 158.451C106.438 158.775 105.583 159.232 105.17 159.468C104.536 159.807 104.315 160.028 104.02 160.662C103.814 161.09 103.548 161.901 103.43 162.476C103.312 163.036 103.209 164.039 103.209 164.687C103.209 165.38 103.342 166.368 103.519 167.12C103.681 167.799 104.064 168.831 104.359 169.406L104.905 170.438C106.055 170.364 106.984 170.246 107.706 170.114C108.443 169.996 109.431 169.715 109.918 169.494C110.404 169.258 111.024 168.904 111.289 168.683C111.54 168.477 111.761 168.211 111.761 168.108C111.761 168.005 111.628 167.666 111.481 167.342C111.319 167.017 111.038 166.678 110.847 166.59C110.522 166.427 110.537 166.413 111.245 166.088C111.658 165.911 112.203 165.602 112.469 165.41C112.719 165.218 113.029 164.864 113.147 164.643C113.25 164.422 113.383 164.024 113.442 163.759C113.516 163.346 113.486 163.287 113.28 163.346C113.132 163.39 112.557 163.552 111.982 163.714C111.422 163.877 110.832 164.024 110.699 164.024C110.552 164.024 110.434 163.95 110.434 163.877C110.434 163.788 110.522 163.7 110.626 163.67C110.659 163.659 110.765 163.626 110.916 163.58C111.164 163.504 111.533 163.391 111.908 163.272C112.513 163.066 113.147 162.8 113.339 162.653C113.53 162.505 113.781 162.181 113.899 161.915C114.032 161.65 114.12 161.399 114.12 161.37C114.12 161.326 113.147 161.311 111.953 161.34C109.903 161.385 109.726 161.37 109.063 161.046L108.34 160.706C109.225 159.969 109.844 159.556 110.286 159.306C110.817 159.026 111.525 158.804 112.321 158.686C112.985 158.568 113.56 158.421 113.575 158.347C113.589 158.259 113.176 158.082 112.646 157.949ZM111.613 159.748C111.613 159.66 111.525 159.601 111.437 159.601C111.333 159.601 111.009 159.689 110.729 159.778C110.434 159.881 110.065 160.058 109.918 160.19C109.756 160.308 109.579 160.471 109.52 160.559C109.461 160.633 109.402 160.751 109.402 160.81C109.402 160.869 109.667 160.928 110.006 160.928C110.508 160.928 110.699 160.824 111.112 160.412C111.392 160.117 111.613 159.822 111.613 159.748ZM115.565 162.284C115.536 161.591 115.447 161.046 115.359 161.001C115.27 160.972 115.108 161.001 114.99 161.06C114.872 161.134 114.666 161.473 114.533 161.827C114.4 162.181 114.194 162.933 114.076 163.508C113.958 164.068 113.692 164.85 113.471 165.233C113.088 165.926 113.088 165.941 113.368 166.339C113.516 166.56 113.869 166.943 114.135 167.194C114.415 167.445 115.005 167.769 115.447 167.902C115.889 168.049 116.273 168.152 116.302 168.123C116.332 168.093 116.184 167.047 115.978 165.793C115.786 164.525 115.595 162.948 115.565 162.284Z" fill="#0633BB"/>
<path d="M111.437 159.601C111.525 159.601 111.613 159.66 111.613 159.748C111.613 159.822 111.392 160.117 111.112 160.412C110.699 160.824 110.508 160.928 110.006 160.928C109.667 160.928 109.402 160.869 109.402 160.81C109.402 160.751 109.461 160.633 109.52 160.559C109.579 160.471 109.756 160.308 109.918 160.19C110.065 160.058 110.434 159.881 110.729 159.778C111.009 159.689 111.333 159.601 111.437 159.601Z" fill="#0633BB"/>
</svg>
