<svg width="360" height="226" viewBox="0 0 360 226" fill="none" xmlns="http://www.w3.org/2000/svg">
<g clip-path="url(#clip0_2155_305)">
<path opacity="0.08" d="M6.91631 3.8724e-05V226M13.583 3.8724e-05V226M20.2496 3.8724e-05V226M26.9164 3.8724e-05V226M33.583 3.8724e-05V226M40.2496 3.8724e-05V226M46.9164 3.8724e-05V226M53.583 3.8724e-05V226M60.2498 3.8724e-05V226M66.9164 3.8724e-05V226M73.583 3.8724e-05V226M80.2498 3.8724e-05V226M86.9164 3.8724e-05V226M93.5832 3.8724e-05V226M100.25 3.8724e-05V226M106.916 3.8724e-05V226M113.583 3.8724e-05V226M120.25 3.8724e-05V226M126.916 3.8724e-05V226M133.583 3.8724e-05V226M140.25 3.8724e-05V226M146.916 3.8724e-05V226M153.583 3.8724e-05V226M160.25 3.8724e-05V226M166.917 3.8724e-05V226M173.583 3.8724e-05V226M180.25 106.337H0.249649M180.25 99.6733H0.249649M180.25 93.0099H0.249649M180.25 86.3465H0.249649M180.25 79.6831H0.249649M180.25 73.0198H0.249649M180.25 66.3563H0.249649M180.25 59.6929H0.249649M180.25 53.0296H0.249649M180.25 46.3661H0.249649M180.25 39.7028H0.249649M180.25 33.0394H0.249649M180.25 26.3759H0.249649M180.25 19.7126H0.249649M180.25 13.0492H0.249649M180.25 6.38583H0.249649M180.25 113V9.99377e-06L0.249649 0V113M180.25 113H0.249649M180.25 113V226H0.249649V113M186.667 3.8724e-05V226M193.333 3.8724e-05V226M200 3.8724e-05V226M206.667 3.8724e-05V226M213.333 3.8724e-05V226M220 3.8724e-05V226M226.667 3.8724e-05V226M233.333 3.8724e-05V226M240 3.8724e-05V226M246.667 3.8724e-05V226M253.333 3.8724e-05V226M260 3.8724e-05V226M266.667 3.8724e-05V226M273.334 3.8724e-05V226M280 3.8724e-05V226M286.667 3.8724e-05V226M293.334 3.8724e-05V226M300 3.8724e-05V226M306.666 3.8724e-05V226M313.334 3.8724e-05V226M320 3.8724e-05V226M326.666 3.8724e-05V226M333.334 3.8724e-05V226M340 3.8724e-05V226M346.667 3.8724e-05V226M353.334 3.8724e-05V226M360 106.337H180M360 99.6733H180M360 93.0099H180M360 86.3465H180M360 79.6831H180M360 73.0198H180M360 66.3563H180M360 59.6929H180M360 53.0296H180M360 46.3661H180M360 39.7028H180M360 33.0394H180M360 26.3759H180M360 19.7126H180M360 13.0492H180M360 6.38583H180M360 113V9.99377e-06L180 0M360 113H180M360 113V226H180M180.25 219.337H0.249649M180.25 212.673H0.249649M180.25 206.01H0.249649M180.25 199.346H0.249649M180.25 192.683H0.249649M180.25 186.02H0.249649M180.25 179.356H0.249649M180.25 172.693H0.249649M180.25 166.03H0.249649M180.25 159.366H0.249649M180.25 152.703H0.249649M180.25 146.039H0.249649M180.25 139.376H0.249649M180.25 132.713H0.249649M180.25 126.049H0.249649M180.25 119.386H0.249649M360 219.337H180M360 212.673H180M360 206.01H180M360 199.346H180M360 192.683H180M360 186.02H180M360 179.356H180M360 172.693H180M360 166.03H180M360 159.366H180M360 152.703H180M360 146.039H180M360 139.376H180M360 132.713H180M360 126.049H180M360 119.386H180" stroke="url(#paint0_linear_2155_305)" stroke-width="0.125"/>
</g>
<defs>
<linearGradient id="paint0_linear_2155_305" x1="270" y1="0" x2="270" y2="226" gradientUnits="userSpaceOnUse">
<stop offset="0.114583" stop-color="white" stop-opacity="0"/>
<stop offset="0.598958" stop-color="white" stop-opacity="0.48"/>
<stop offset="1" stop-color="white" stop-opacity="0.16"/>
</linearGradient>
<clipPath id="clip0_2155_305">
<rect width="360" height="226" fill="white"/>
</clipPath>
</defs>
</svg>
