<svg width="26" height="10" viewBox="0 0 26 10" fill="none" xmlns="http://www.w3.org/2000/svg">
<path d="M1.53072 8.62768C1.34889 8.62768 1.16707 8.53244 1.07183 8.35927C0.924645 8.10819 1.01123 7.77918 1.26231 7.62333C4.968 5.45013 5.79053 3.39815 5.69529 2.52368C5.66931 2.28125 5.57407 2.11674 5.43554 2.07345C5.14982 1.97821 5.00264 1.67518 5.08922 1.39812C5.18446 1.1124 5.48749 0.96521 5.76455 1.05179C6.31002 1.22496 6.68232 1.73579 6.76024 2.41112C6.92475 3.88301 5.70395 6.264 1.79912 8.55841C1.7212 8.6017 1.62596 8.62768 1.53072 8.62768Z" fill="url(#paint0_linear_1345_1413)"/>
<path d="M3.8338 8.86147C3.80782 8.86147 3.78185 8.86147 3.75587 8.85281C3.4615 8.80952 3.26236 8.53246 3.30565 8.24674C3.36626 7.81383 3.40955 7.15581 3.44418 6.4545C3.58271 3.8484 3.75587 1.94361 4.67364 1.25095C4.97667 1.02584 5.34032 0.947918 5.72128 1.0345C6.01565 1.10376 6.19747 1.38948 6.12821 1.6752C6.05894 1.96092 5.77322 2.1514 5.48751 2.08214C5.39227 2.06482 5.35763 2.08214 5.323 2.10811C4.72559 2.55833 4.59572 5.03457 4.51779 6.51511C4.4745 7.26837 4.43987 7.91773 4.3706 8.40259C4.32731 8.67099 4.1022 8.86147 3.8338 8.86147Z" fill="url(#paint1_linear_1345_1413)"/>
<path d="M7.41826 8.9134C6.95938 8.9134 6.56976 8.76621 6.26672 8.47183C5.72126 7.91771 5.88576 7.10384 6.00698 6.45448C6.05893 6.2034 6.14551 5.73586 6.0849 5.6233C6.07624 5.6233 6.01564 5.58867 5.82516 5.58867C4.92471 5.65793 4.53509 7.15579 4.37059 8.39391C4.3273 8.68829 4.05889 8.89608 3.76452 8.86145C3.47014 8.82682 3.26234 8.54976 3.30563 8.25538C3.61733 5.87439 4.44851 4.61895 5.78187 4.5064H5.79052C6.31867 4.5064 6.68231 4.65359 6.91609 4.93065C7.31436 5.4155 7.17583 6.07352 7.06327 6.66228C6.98535 7.04324 6.88145 7.56273 7.02864 7.70991C7.27107 7.95234 7.79056 7.7965 8.00701 7.71857C9.06331 7.32896 10.0244 6.29864 10.0677 5.71854C10.0763 5.58867 10.0503 5.48477 9.86852 5.38087C9.60877 5.23368 9.52219 4.90467 9.66938 4.64493C9.81657 4.38518 10.1456 4.2986 10.4053 4.44579C10.9335 4.74883 11.1932 5.22502 11.1499 5.80512C11.0374 6.98263 9.63475 8.27269 8.37931 8.73158C8.03299 8.85279 7.71264 8.9134 7.41826 8.9134Z" fill="url(#paint2_linear_1345_1413)"/>
<path d="M10.6391 8.98255C10.4313 8.98255 10.2235 8.95658 10.0157 8.91329C9.16722 8.73147 8.53517 8.14271 8.27543 7.30287C7.99837 6.41108 8.18019 5.42405 8.72565 4.84396C9.12393 4.41105 9.66939 4.2552 10.2495 4.39373C10.5352 4.463 10.717 4.75738 10.6478 5.04309C10.5872 5.32881 10.2928 5.50198 10.0071 5.43271C9.79926 5.38942 9.65208 5.43271 9.51355 5.57124C9.23649 5.87428 9.14125 6.48035 9.29709 6.98252C9.40099 7.31153 9.65208 7.73578 10.2408 7.86565C11.4357 8.1254 12.492 7.13837 13.0114 6.52364C14.3448 4.95651 14.9249 2.85258 14.6738 2.19456C14.6392 2.09932 14.6045 2.09932 14.5699 2.09066C14.2755 2.05603 14.0677 1.78763 14.1024 1.49325C14.137 1.19887 14.4054 0.999736 14.6998 1.02571C15.1587 1.07766 15.505 1.35472 15.6782 1.80494C16.1457 2.99111 15.2799 5.51929 13.834 7.21629C12.8469 8.36783 11.7387 8.98255 10.6391 8.98255Z" fill="url(#paint3_linear_1345_1413)"/>
<path d="M14.0937 8.92201C14.0418 8.92201 13.9985 8.91336 13.9465 8.9047C12.3534 8.44582 12.2235 6.14275 12.6218 4.14271C12.7344 3.59725 13.3924 0.878589 14.6998 1.02578C14.9942 1.06041 15.202 1.32881 15.1673 1.62319C15.1327 1.90025 14.8989 2.10805 14.6132 2.09939C14.1803 2.33316 13.3924 4.47172 13.5136 6.32457C13.5482 6.8354 13.6868 7.71853 14.2409 7.87438C14.5266 7.9523 14.6911 8.25534 14.6045 8.54106C14.5439 8.77483 14.3275 8.92201 14.0937 8.92201Z" fill="url(#paint4_linear_1345_1413)"/>
<path d="M14.6132 8.99991C14.3881 8.99991 14.163 8.96527 13.9465 8.90467C13.6608 8.82674 13.4963 8.52371 13.5829 8.23799C13.6608 7.95227 13.9638 7.78777 14.2495 7.87435C15.4444 8.22067 16.7431 6.75745 17.4877 5.39812C18.4574 3.63185 18.5007 2.26386 18.3102 2.0907C18.0158 2.0907 17.7561 1.84827 17.7561 1.5539C17.7561 1.25952 17.9812 1.01709 18.2756 1.01709C18.7345 1.01709 19.1154 1.25952 19.3059 1.68377C19.8947 2.97383 18.7518 5.83968 17.3751 7.44144C16.5007 8.4631 15.5396 8.99991 14.6132 8.99991Z" fill="url(#paint5_linear_1345_1413)"/>
<path d="M17.9899 8.95662C17.3232 8.95662 16.7777 8.57566 16.4574 7.88301C16.2236 7.37217 16.0938 6.67086 16.0938 5.857C16.0938 4.16866 16.7345 1.01709 18.2756 1.01709C18.57 1.01709 18.8124 1.25952 18.8124 1.5539C18.8124 1.84827 18.57 2.0907 18.2756 2.0907C17.8081 2.1946 16.9855 4.50633 17.202 6.48904C17.2539 7.00853 17.4358 7.88301 17.9985 7.88301C18.2929 7.88301 18.5353 8.12543 18.5353 8.41981C18.5353 8.71419 18.2929 8.95662 17.9899 8.95662Z" fill="url(#paint6_linear_1345_1413)"/>
<path d="M18.0505 8.9566C18.0418 8.9566 18.0332 8.9566 18.0245 8.9566C17.7301 8.9566 17.4704 8.71417 17.4704 8.4198C17.4704 8.12542 17.6955 7.88299 17.9899 7.88299C18.0072 7.88299 18.0592 7.88299 18.0851 7.88299C18.4661 7.88299 19.3232 7.82238 19.7908 6.23794C20.2237 4.77471 21.4878 4.1773 22.4575 4.4457C23.3406 4.68813 24.0419 5.64053 23.6437 7.21631C23.5744 7.50203 23.28 7.68385 22.9943 7.60593C22.7086 7.53667 22.5354 7.24229 22.6047 6.95657C22.8038 6.17734 22.6393 5.61456 22.1718 5.48468C21.7042 5.35481 21.0635 5.71845 20.8211 6.54964C20.4921 7.64922 19.7475 8.9566 18.0505 8.9566Z" fill="url(#paint7_linear_1345_1413)"/>
<path d="M21.5051 8.95682C21.4964 8.95682 21.4791 8.95682 21.4704 8.95682C21.1761 8.95682 20.9336 8.70573 20.9423 8.41136C20.9423 8.11698 21.1847 7.88321 21.4791 7.88321C21.4878 7.88321 21.4964 7.88321 21.5051 7.88321C22.2843 7.88321 22.5267 7.23385 22.6047 6.95679C22.6739 6.67107 22.9683 6.48925 23.254 6.56717C23.5397 6.63644 23.7129 6.93081 23.6436 7.21653C23.4272 8.06503 22.7519 8.95682 21.5051 8.95682Z" fill="url(#paint8_linear_1345_1413)"/>
<path d="M21.4791 8.95667C21.4704 8.95667 21.4704 8.95667 21.4791 8.95667C20.518 8.94801 19.8167 8.22938 19.7215 7.18175C19.6176 6.03887 20.3016 4.67088 21.7561 4.39382C22.2237 4.30724 22.6306 4.48906 22.9942 4.65356C23.5484 4.90465 23.8601 5.05184 24.3709 4.49772C24.57 4.28126 24.9164 4.27261 25.1328 4.47174C25.3493 4.67088 25.3579 5.01721 25.1588 5.23366C24.1198 6.3419 23.1414 5.89168 22.5527 5.63194C22.3276 5.52804 22.0851 5.41548 21.9639 5.45011C21.1241 5.60596 20.7345 6.41117 20.7951 7.08651C20.8124 7.32028 20.9249 7.8744 21.4877 7.88306C21.7821 7.88306 22.0245 8.13414 22.0159 8.42852C22.0072 8.7229 21.7734 8.95667 21.4791 8.95667Z" fill="url(#paint9_linear_1345_1413)"/>
<defs>
<linearGradient id="paint0_linear_1345_1413" x1="1.79323" y1="8.97972" x2="6.54223" y2="1.57423" gradientUnits="userSpaceOnUse">
<stop offset="0.2456" stop-color="#E843A1"/>
<stop offset="0.945" stop-color="#690AFF"/>
</linearGradient>
<linearGradient id="paint1_linear_1345_1413" x1="5.29945" y1="0.967831" x2="3.4221" y2="8.55012" gradientUnits="userSpaceOnUse">
<stop offset="0.1208" stop-color="#690AFF"/>
<stop offset="1" stop-color="#003FFF"/>
</linearGradient>
<linearGradient id="paint2_linear_1345_1413" x1="3.44347" y1="8.66733" x2="10.2575" y2="4.6851" gradientUnits="userSpaceOnUse">
<stop stop-color="#003FFF"/>
<stop offset="0.5052" stop-color="#690AFF"/>
<stop offset="0.983204" stop-color="#E843A1"/>
</linearGradient>
<linearGradient id="paint3_linear_1345_1413" x1="9.20904" y1="8.64004" x2="15.0698" y2="1.25039" gradientUnits="userSpaceOnUse">
<stop stop-color="#690AFF"/>
<stop offset="0.358053" stop-color="#E843A1"/>
<stop offset="0.413846" stop-color="#E843A1"/>
<stop offset="0.960912" stop-color="#003FFF"/>
</linearGradient>
<linearGradient id="paint4_linear_1345_1413" x1="13.9347" y1="1.04483" x2="13.5336" y2="8.91985" gradientUnits="userSpaceOnUse">
<stop offset="0.0791924" stop-color="#003FFF"/>
<stop offset="0.4965" stop-color="#690AFF"/>
<stop offset="0.9575" stop-color="#E843A1"/>
</linearGradient>
<linearGradient id="paint5_linear_1345_1413" x1="14.3858" y1="9.31861" x2="19.4645" y2="1.58221" gradientUnits="userSpaceOnUse">
<stop stop-color="#E843A1"/>
<stop offset="0.5169" stop-color="#690AFF"/>
<stop offset="0.950311" stop-color="#003FFF"/>
</linearGradient>
<linearGradient id="paint6_linear_1345_1413" x1="17.962" y1="1.0086" x2="17.1234" y2="8.64717" gradientUnits="userSpaceOnUse">
<stop offset="0.0733876" stop-color="#003FFF"/>
<stop offset="0.4537" stop-color="#690AFF"/>
<stop offset="0.894893" stop-color="#E843A1"/>
</linearGradient>
<linearGradient id="paint7_linear_1345_1413" x1="18.1766" y1="9.12907" x2="23.4563" y2="5.14191" gradientUnits="userSpaceOnUse">
<stop offset="0.0863943" stop-color="#E843A1"/>
<stop offset="1" stop-color="#690AFF"/>
</linearGradient>
<linearGradient id="paint8_linear_1345_1413" x1="21.3171" y1="9.12756" x2="22.9481" y2="7.089" gradientUnits="userSpaceOnUse">
<stop stop-color="white"/>
<stop offset="0.0001" stop-color="#003FFF"/>
<stop offset="0.9583" stop-color="#7E18F0"/>
</linearGradient>
<linearGradient id="paint9_linear_1345_1413" x1="19.4031" y1="8.31821" x2="25.3987" y2="3.58385" gradientUnits="userSpaceOnUse">
<stop offset="0.1091" stop-color="#003FFF"/>
<stop offset="0.3559" stop-color="#690AFF"/>
<stop offset="0.8719" stop-color="#E843A1"/>
</linearGradient>
</defs>
</svg>
