<?xml version="1.0" encoding="utf-8"?>
<!-- Generator: Adobe Illustrator 19.1.0, SVG Export Plug-In . SVG Version: 6.00 Build 0)  -->
<!DOCTYPE svg PUBLIC "-//W3C//DTD SVG 1.1//EN" "http://www.w3.org/Graphics/SVG/1.1/DTD/svg11.dtd">
<svg version="1.1" id="Layer_1" xmlns="http://www.w3.org/2000/svg" xmlns:xlink="http://www.w3.org/1999/xlink" x="0px" y="0px"
	 viewBox="0 97 1920 1200" style="enable-background:new 0 97 1920 1200;" xml:space="preserve">
<style type="text/css">
	.st0{fill:none;}
	.st1{fill:none;stroke:#8E94A8;stroke-width:2;stroke-miterlimit:10;}
	.st2{fill:none;stroke:#8E94A8;stroke-width:1.8681;stroke-miterlimit:10;}
	.st3{fill:none;stroke:#8E94A8;stroke-width:2.5753;stroke-miterlimit:10;}
	.st4{fill:none;stroke:#8E94A8;stroke-width:2.0286;stroke-miterlimit:10;}
	.st5{fill:none;stroke:#8E94A8;stroke-width:8.1145;stroke-miterlimit:10;}
	.st6{fill:none;stroke:#8E94A8;stroke-width:2.0251;stroke-miterlimit:10;}
	.st7{fill:none;stroke:#8E94A8;stroke-width:8.1002;stroke-miterlimit:10;}
</style>
<rect y="97" class="st0" width="1920" height="1200"/>
<g>
	<path class="st1" d="M1157.5,723H762.9c-5.8,0-10.4-4.7-10.4-10.4V448.4c0-5.8,4.7-10.4,10.4-10.4h394.5c5.8,0,10.4,4.7,10.4,10.4
		v264.3C1168,718.2,1163.3,723,1157.5,723z"/>
	<line class="st1" x1="753" y1="685.4" x2="1167.6" y2="685.4"/>
	<rect x="769.6" y="455.3" class="st1" width="381.6" height="213.8"/>
	<path class="st1" d="M906.8,761.1c4.3-3.7,8.2-9.9,8.6-15.7l3.5-22h82l3.5,21.8c0.6,5.8,4.5,12.3,9.3,16"/>
	<line class="st1" x1="897.7" y1="761.1" x2="1022.9" y2="761.1"/>
</g>
<g>
	<path class="st2" d="M1262.1,612.4h-33.8c-4.7,0-8.6-3.7-8.6-8.6v-90.4c0-4.7,3.7-8.6,8.6-8.6h33.8c4.7,0,8.6,3.7,8.6,8.6v90.4
		C1270.7,608.5,1266.8,612.4,1262.1,612.4z"/>
	<rect x="1225.1" y="520" class="st2" width="40.5" height="77"/>
	<path class="st2" d="M1241.2,604.4c0,2.2,1.9,4.3,4.1,4.3s4.3-1.9,4.3-4.1l0,0c0-2.2-1.9-4.3-4.1-4.3
		C1243.1,600.3,1241.2,602.2,1241.2,604.4L1241.2,604.4"/>
	<line class="st2" x1="1241.4" y1="514.2" x2="1249.2" y2="514.2"/>
	<path class="st2" d="M1244.2,510.1c0,0.4,0.4,0.7,0.7,0.7s0.7-0.4,0.7-0.7l0,0c0-0.4-0.4-0.7-0.7-0.7
		C1244.6,509.1,1244.2,509.5,1244.2,510.1L1244.2,510.1"/>
	<line class="st2" x1="1253.7" y1="503.2" x2="1261.9" y2="503.2"/>
</g>
<g>
	<path class="st2" d="M1362.3,644.7v91c0,4.3-3.5,7.8-7.8,7.8h-135.8c-4.3,0-7.8-3.5-7.8-7.8v-91c0-4.3,3.5-7.8,7.8-7.8h135.8
		C1358.7,636.9,1362.3,640.2,1362.3,644.7z"/>
	<rect x="1226.4" y="645.6" class="st2" width="119.9" height="88.9"/>
	<path class="st2" d="M1350.7,690.1c0,1.7,1.3,3,3,3s3-1.3,3-3s-1.3-3-3-3S1350.7,688.4,1350.7,690.1"/>
	<path class="st2" d="M1219.2,690.1c0,0.4,0.2,0.6,0.6,0.6s0.6-0.2,0.6-0.6l0,0c0-0.4-0.2-0.6-0.6-0.6
		C1219.3,689.5,1219.2,689.7,1219.2,690.1L1219.2,690.1"/>
</g>
<g>
	<path class="st2" d="M1331.7,599.6h-23c-3.7,0-6.5-3-6.5-6.5v-29.9c0-3.7,3-6.5,6.5-6.5h23c3.7,0,6.5,3,6.5,6.5v29.7
		C1338.4,596.6,1335.4,599.6,1331.7,599.6z"/>
	<path class="st2" d="M1331,595.8h-21.3c-2.2,0-3.7-1.7-3.7-3.7v-28c0-2.2,1.7-3.7,3.7-3.7h21.3c2.2,0,3.7,1.7,3.7,3.7v28
		C1334.7,594,1333,595.8,1331,595.8z"/>
	<line class="st2" x1="1339.4" y1="579.2" x2="1339.4" y2="589.7"/>
	<path class="st2" d="M1339.5,573.6h-1.7v-6.9h1.7c0.7,0,1.3,0.6,1.3,1.3v4.1C1341,573.1,1340.5,573.6,1339.5,573.6z"/>
	<path class="st2" d="M1320.3,611.9c1.7,0,3.5-0.2,5.4-0.4l3-0.4c0.7-0.2,1.5-0.7,1.7-1.5l0.4-2.2c0.4-2.2,0.6-4.3,1.5-6.4l0.9-1.9
		h-12.7l0,0h-12.7l0.9,1.9c0.7,2.1,1.1,4.1,1.5,6.4l0.4,2.2c0.2,0.7,0.7,1.5,1.7,1.5l3.2,0.4
		C1316.8,611.9,1318.4,611.9,1320.3,611.9L1320.3,611.9z"/>
	<path class="st2" d="M1314.9,544.3l-3,0.4c-0.7,0.2-1.5,0.7-1.7,1.5l-0.4,2.2c-0.4,2.2-0.6,4.3-1.5,6.4l-0.9,1.9h12.7l0,0h12.7
		l-0.9-1.9c-0.7-2.1-1.1-4.1-1.5-6.4l-0.4-2.2c-0.2-0.7-0.7-1.5-1.7-1.5l-3.2-0.4c-1.7-0.2-3.5-0.4-5.4-0.4L1314.9,544.3z"/>
</g>
<g>
	<path class="st2" d="M1678,685.1h-272.2c-0.7,0-1.5-0.7-1.5-1.5V531.8c0-0.7,0.7-1.5,1.5-1.5H1678c0.7,0,1.5,0.7,1.5,1.5v151.7
		C1679.5,684.4,1678.7,685.1,1678,685.1z"/>
	<line class="st2" x1="1404.5" y1="678.2" x2="1679.3" y2="678.2"/>
	<rect x="1529.9" y="685.1" class="st2" width="24.1" height="28.6"/>
	<path class="st2" d="M1542,707.2L1542,707.2c-2.4,0-4.3-1.9-4.3-4.3v-6.5c0-2.4,1.9-4.3,4.3-4.3l0,0c2.4,0,4.3,1.9,4.3,4.3v6.5
		C1546.1,705.3,1544.2,707.2,1542,707.2z"/>
	<path class="st2" d="M1592.3,718.4H1492c-0.6,0-1.1-0.6-1.1-0.9v-2.6c0-0.6,0.6-1.1,1.1-1.1h100.3c0.6,0,1.1,0.6,1.1,1.1v2.4
		C1593.2,717.8,1592.6,718.4,1592.3,718.4z"/>
</g>
<g>
	<path class="st3" d="M1815.7,730.7h-86.3c-4.1,0-7.5-3.3-7.5-7.5v-129c0-4.1,3.3-7.5,7.5-7.5h86.5c4.1,0,7.5,3.3,7.5,7.5v129
		C1823.2,727.6,1819.9,730.7,1815.7,730.7z"/>
	<rect x="1730.2" y="601.9" class="st3" width="84.5" height="114.1"/>
	<path class="st3" d="M1772.5,725.5c1.5,0,2.8-1.3,2.8-2.8s-1.3-2.8-2.8-2.8s-2.8,1.3-2.8,2.8S1770.9,725.5,1772.5,725.5"/>
	<path class="st3" d="M1772.5,596c0.3,0,0.5-0.3,0.5-0.5c0-0.3-0.3-0.5-0.5-0.5l0,0c-0.3,0-0.5,0.3-0.5,0.5
		C1772,595.8,1772.2,596,1772.5,596"/>
</g>
<g>
	<g>
		<path class="st4" d="M439.5,742.3h-65.2c-3,0-5.5-2.4-5.5-5.5v-97.2c0-3,2.4-5.5,5.5-5.5h65.2c3,0,5.5,2.4,5.5,5.5v97.2
			C445.1,739.8,442.5,742.3,439.5,742.3z"/>
		<rect x="375.1" y="645.3" class="st4" width="63.7" height="85.8"/>
		<path class="st4" d="M404.9,736c0,1.1,0.9,2.1,2.1,2.1s2.1-0.9,2.1-2.1c0-1.1-0.9-2.1-2.1-2.1S404.9,734.9,404.9,736"/>
		<path class="st4" d="M406.4,640.3c0,0.2,0.2,0.4,0.4,0.4c0.2,0,0.4-0.2,0.4-0.4s-0.2-0.4-0.4-0.4
			C406.5,639.9,406.4,640.1,406.4,640.3"/>
	</g>
	<g>
		<path class="st4" d="M420.4,603.7h-29.7c-2.4,0-4.4-1.9-4.4-4.4v-66.8c0-2.4,1.9-4.4,4.4-4.4h29.7c2.4,0,4.4,1.9,4.4,4.4v66.8
			C424.6,601.7,422.6,603.7,420.4,603.7z"/>
		<line class="st4" x1="386.4" y1="535" x2="424.4" y2="535"/>
		<line class="st4" x1="386.1" y1="596.4" x2="424.2" y2="596.4"/>
		<path class="st4" d="M418.7,532.1c0,0.4,0.4,0.6,0.6,0.6c0.4,0,0.6-0.4,0.6-0.6l0,0c0-0.4-0.4-0.6-0.6-0.6
			C419.1,531.5,418.7,531.8,418.7,532.1L418.7,532.1"/>
		<line class="st4" x1="394.6" y1="531.2" x2="416.3" y2="531.2"/>
		<line class="st4" x1="394.6" y1="531.8" x2="416.3" y2="531.8"/>
		<line class="st4" x1="394.6" y1="532.3" x2="416.3" y2="532.3"/>
		<line class="st4" x1="394.6" y1="532.9" x2="416.3" y2="532.9"/>
		<line class="st4" x1="394.6" y1="598.7" x2="416.3" y2="598.7"/>
		<line class="st4" x1="394.6" y1="599.1" x2="416.3" y2="599.1"/>
		<line class="st4" x1="394.6" y1="599.8" x2="416.3" y2="599.8"/>
		<line class="st4" x1="394.6" y1="600.4" x2="416.3" y2="600.4"/>
	</g>
	<g>
		<path class="st4" d="M485.8,642.8V509c0-4.4,3.6-7.9,7.9-7.9h208.4c4.4,0,7.9,3.6,7.9,7.9v133.8c0,4.4-3.6,7.9-7.9,7.9H494.1
			C489.5,650.9,485.8,647.3,485.8,642.8z"/>
		<rect x="496.9" y="512.7" class="st4" width="202.4" height="126.2"/>
		<line class="st5" x1="509.4" y1="656.3" x2="686.9" y2="656.3"/>
		<path class="st4" d="M485.8,793.6V660c0-4.4,3.6-7.9,7.9-7.9h208.4c4.4,0,7.9,3.6,7.9,7.9v133.6c0,4.4-3.6,7.9-7.9,7.9H494.1
			C489.5,801.5,485.8,798,485.8,793.6z"/>
		<path class="st4" d="M521.1,677.3h-7.9c-0.2,0-0.6-0.2-0.6-0.6v-3.3c0-0.2,0.2-0.6,0.6-0.6h7.9c0.2,0,0.6,0.2,0.6,0.6v3.4
			C521.5,676.9,521.3,677.3,521.1,677.3z"/>
		<path class="st4" d="M521.1,689h-7.9c-0.2,0-0.6-0.2-0.6-0.6v-7.9c0-0.2,0.2-0.6,0.6-0.6h7.9c0.2,0,0.6,0.2,0.6,0.6v7.9
			C521.5,688.8,521.3,689,521.1,689z"/>
		<path class="st4" d="M532.9,689H525c-0.2,0-0.6-0.2-0.6-0.6v-7.9c0-0.2,0.2-0.6,0.6-0.6h7.9c0.2,0,0.6,0.2,0.6,0.6v7.9
			C533.6,688.8,533.2,689,532.9,689z"/>
		<path class="st4" d="M538.9,700.8H531c-0.2,0-0.6-0.2-0.6-0.6v-7.9c0-0.2,0.2-0.6,0.6-0.6h7.9c0.2,0,0.6,0.2,0.6,0.6v7.9
			C539.3,700.6,539.1,700.8,538.9,700.8z"/>
		<path class="st4" d="M541.7,712.5h-7.9c-0.2,0-0.6-0.2-0.6-0.6v-7.9c0-0.2,0.2-0.6,0.6-0.6h7.9c0.2,0,0.6,0.2,0.6,0.6v7.9
			C542.3,712.4,542.1,712.5,541.7,712.5z"/>
		<path class="st4" d="M547.8,724.4h-7.9c-0.2,0-0.6-0.2-0.6-0.6v-7.9c0-0.2,0.2-0.6,0.6-0.6h7.9c0.2,0,0.6,0.2,0.6,0.6v7.9
			C548.4,724.2,548.2,724.4,547.8,724.4z"/>
		<path class="st4" d="M520.7,737.7h-7.9c-0.2,0-0.6-0.2-0.6-0.6V728c0-0.2,0.2-0.6,0.6-0.6h7.9c0.2,0,0.6,0.2,0.6,0.6v9.1
			C521.3,737.3,521.1,737.7,520.7,737.7z"/>
		<path class="st4" d="M532.9,737.7H525c-0.2,0-0.6-0.2-0.6-0.6V728c0-0.2,0.2-0.6,0.6-0.6h7.9c0.2,0,0.6,0.2,0.6,0.6v9.1
			C533.4,737.3,533.2,737.7,532.9,737.7z"/>
		<path class="st4" d="M545,737.7h-7.9c-0.2,0-0.6-0.2-0.6-0.6V728c0-0.2,0.2-0.6,0.6-0.6h7.9c0.2,0,0.6,0.2,0.6,0.6v9.1
			C545.6,737.3,545.4,737.7,545,737.7z"/>
		<path class="st4" d="M647.5,737.7h-7.9c-0.2,0-0.6-0.2-0.6-0.6V728c0-0.2,0.2-0.6,0.6-0.6h7.9c0.2,0,0.6,0.2,0.6,0.6v9.1
			C647.9,737.3,647.7,737.7,647.5,737.7z"/>
		<path class="st4" d="M559.8,737.7h-10.7c-0.2,0-0.6-0.2-0.6-0.6V728c0-0.2,0.2-0.6,0.6-0.6h10.7c0.2,0,0.6,0.2,0.6,0.6v9.1
			C560.3,737.3,560.2,737.7,559.8,737.7z"/>
		<path class="st4" d="M620.2,737.7h-56.1c-0.2,0-0.6-0.2-0.6-0.6V728c0-0.2,0.2-0.6,0.6-0.6h56.1c0.2,0,0.6,0.2,0.6,0.6v9.1
			C620.6,737.3,620.4,737.7,620.2,737.7z"/>
		<path class="st4" d="M635,737.7h-10.7c-0.2,0-0.6-0.2-0.6-0.6V728c0-0.2,0.2-0.6,0.6-0.6H635c0.2,0,0.6,0.2,0.6,0.6v9.1
			C635.5,737.3,635.1,737.7,635,737.7z"/>
		<path class="st4" d="M535.8,724.4h-23.1c-0.2,0-0.6-0.2-0.6-0.6v-7.9c0-0.2,0.2-0.6,0.6-0.6h23.1c0.2,0,0.6,0.2,0.6,0.6v7.9
			C536.4,724.2,536,724.4,535.8,724.4z"/>
		<path class="st4" d="M560,724.4h-7.9c-0.2,0-0.6-0.2-0.6-0.6v-7.9c0-0.2,0.2-0.6,0.6-0.6h7.9c0.2,0,0.6,0.2,0.6,0.6v7.9
			C560.3,724.2,560.2,724.4,560,724.4z"/>
		<path class="st4" d="M571.8,724.4h-7.9c-0.2,0-0.6-0.2-0.6-0.6v-7.9c0-0.2,0.2-0.6,0.6-0.6h7.9c0.2,0,0.6,0.2,0.6,0.6v7.9
			C572.5,724.2,572.3,724.4,571.8,724.4z"/>
		<path class="st4" d="M584,724.4h-7.9c-0.2,0-0.6-0.2-0.6-0.6v-7.9c0-0.2,0.2-0.6,0.6-0.6h7.9c0.2,0,0.6,0.2,0.6,0.6v7.9
			C584.6,724.2,584.4,724.4,584,724.4z"/>
		<path class="st4" d="M596.2,724.4h-7.9c-0.2,0-0.6-0.2-0.6-0.6v-7.9c0-0.2,0.2-0.6,0.6-0.6h7.9c0.2,0,0.6,0.2,0.6,0.6v7.9
			C596.7,724.2,596.3,724.4,596.2,724.4z"/>
		<path class="st4" d="M608.1,724.4h-7.9c-0.2,0-0.6-0.2-0.6-0.6v-7.9c0-0.2,0.2-0.6,0.6-0.6h7.9c0.2,0,0.6,0.2,0.6,0.6v7.9
			C608.9,724.2,608.5,724.4,608.1,724.4z"/>
		<path class="st4" d="M620.2,724.4h-7.9c-0.2,0-0.6-0.2-0.6-0.6v-7.9c0-0.2,0.2-0.6,0.6-0.6h7.9c0.2,0,0.6,0.2,0.6,0.6v7.9
			C620.7,724.2,620.6,724.4,620.2,724.4z"/>
		<path class="st4" d="M632.3,724.4h-7.9c-0.2,0-0.6-0.2-0.6-0.6v-7.9c0-0.2,0.2-0.6,0.6-0.6h7.9c0.2,0,0.6,0.2,0.6,0.6v7.9
			C632.7,724.2,632.5,724.4,632.3,724.4z"/>
		<path class="st4" d="M644.3,724.4h-7.9c-0.2,0-0.6-0.2-0.6-0.6v-7.9c0-0.2,0.2-0.6,0.6-0.6h7.9c0.2,0,0.6,0.2,0.6,0.6v7.9
			C644.9,724.2,644.7,724.4,644.3,724.4z"/>
		<path class="st4" d="M656.4,724.4h-7.9c-0.2,0-0.6-0.2-0.6-0.6v-7.9c0-0.2,0.2-0.6,0.6-0.6h7.9c0.2,0,0.6,0.2,0.6,0.6v7.9
			C656.9,724.2,656.7,724.4,656.4,724.4z"/>
		<path class="st4" d="M683.1,724.4h-22.7c-0.2,0-0.6-0.2-0.6-0.6v-7.9c0-0.2,0.2-0.6,0.6-0.6h22.7c0.2,0,0.6,0.2,0.6,0.6v7.9
			C683.9,724.2,683.7,724.4,683.1,724.4z"/>
		<path class="st4" d="M529.9,712.5H513c-0.2,0-0.6-0.2-0.6-0.6v-7.9c0-0.2,0.2-0.6,0.6-0.6h16.8c0.2,0,0.6,0.2,0.6,0.6v7.9
			C530.2,712.4,530.1,712.5,529.9,712.5z"/>
		<path class="st4" d="M553.9,712.5H546c-0.2,0-0.6-0.2-0.6-0.6v-7.9c0-0.2,0.2-0.6,0.6-0.6h7.9c0.2,0,0.6,0.2,0.6,0.6v7.9
			C554.5,712.4,554.1,712.5,553.9,712.5z"/>
		<path class="st4" d="M565.9,712.5h-8c-0.2,0-0.6-0.2-0.6-0.6v-7.9c0-0.2,0.2-0.6,0.6-0.6h7.9c0.2,0,0.6,0.2,0.6,0.6v7.9
			C566.4,712.4,566.2,712.5,565.9,712.5z"/>
		<path class="st4" d="M577.9,712.5H570c-0.2,0-0.6-0.2-0.6-0.6v-7.9c0-0.2,0.2-0.6,0.6-0.6h7.9c0.2,0,0.6,0.2,0.6,0.6v7.9
			C578.5,712.4,578.1,712.5,577.9,712.5z"/>
		<path class="st4" d="M590.1,712.5H582c-0.2,0-0.6-0.2-0.6-0.6v-7.9c0-0.2,0.2-0.6,0.6-0.6h7.9c0.2,0,0.6,0.2,0.6,0.6v7.9
			C590.5,712.4,590.3,712.5,590.1,712.5z"/>
		<path class="st4" d="M602,712.5h-7.9c-0.2,0-0.6-0.2-0.6-0.6v-7.9c0-0.2,0.2-0.6,0.6-0.6h7.9c0.2,0,0.6,0.2,0.6,0.6v7.9
			C602.6,712.4,602.4,712.5,602,712.5z"/>
		<path class="st4" d="M614.1,712.5h-7.9c-0.2,0-0.6-0.2-0.6-0.6v-7.9c0-0.2,0.2-0.6,0.6-0.6h7.9c0.2,0,0.6,0.2,0.6,0.6v7.9
			C614.6,712.4,614.3,712.5,614.1,712.5z"/>
		<path class="st4" d="M626.1,712.5h-7.9c-0.2,0-0.6-0.2-0.6-0.6v-7.9c0-0.2,0.2-0.6,0.6-0.6h7.9c0.2,0,0.6,0.2,0.6,0.6v7.9
			C626.6,712.4,626.4,712.5,626.1,712.5z"/>
		<path class="st4" d="M638.2,712.5h-7.9c-0.2,0-0.6-0.2-0.6-0.6v-7.9c0-0.2,0.2-0.6,0.6-0.6h7.9c0.2,0,0.6,0.2,0.6,0.6v7.9
			C638.6,712.4,638.4,712.5,638.2,712.5z"/>
		<path class="st4" d="M650.4,712.5h-7.9c-0.2,0-0.6-0.2-0.6-0.6v-7.9c0-0.2,0.2-0.6,0.6-0.6h7.9c0.2,0,0.6,0.2,0.6,0.6v7.9
			C650.8,712.4,650.6,712.5,650.4,712.5z"/>
		<path class="st4" d="M662.3,712.5h-7.9c-0.2,0-0.6-0.2-0.6-0.6v-7.9c0-0.2,0.2-0.6,0.6-0.6h7.9c0.2,0,0.6,0.2,0.6,0.6v7.9
			C662.8,712.4,662.6,712.5,662.3,712.5z"/>
		<path class="st4" d="M683.1,712.5h-16.8c-0.2,0-0.6-0.2-0.6-0.6v-7.9c0-0.2,0.2-0.6,0.6-0.6h16.8c0.2,0,0.6,0.2,0.6,0.6v7.9
			C683.9,712.4,683.7,712.5,683.1,712.5z"/>
		<path class="st4" d="M526.8,700.8H513c-0.2,0-0.6-0.2-0.6-0.6v-7.9c0-0.2,0.2-0.6,0.6-0.6h13.8c0.2,0,0.6,0.2,0.6,0.6v7.9
			C527.3,700.6,527,700.8,526.8,700.8z"/>
		<path class="st4" d="M550.9,700.8h-7.9c-0.2,0-0.6-0.2-0.6-0.6v-7.9c0-0.2,0.2-0.6,0.6-0.6h7.9c0.2,0,0.6,0.2,0.6,0.6v7.9
			C551.5,700.6,551.3,700.8,550.9,700.8z"/>
		<path class="st4" d="M563,700.8h-7.9c-0.2,0-0.6-0.2-0.6-0.6v-7.9c0-0.2,0.2-0.6,0.6-0.6h7.9c0.2,0,0.6,0.2,0.6,0.6v7.9
			C563.3,700.6,563.2,700.8,563,700.8z"/>
		<path class="st4" d="M574.9,700.8H567c-0.2,0-0.6-0.2-0.6-0.6v-7.9c0-0.2,0.2-0.6,0.6-0.6h7.9c0.2,0,0.6,0.2,0.6,0.6v7.9
			C575.5,700.6,575.3,700.8,574.9,700.8z"/>
		<path class="st4" d="M587.1,700.8h-7.9c-0.2,0-0.6-0.2-0.6-0.6v-7.9c0-0.2,0.2-0.6,0.6-0.6h7.9c0.2,0,0.6,0.2,0.6,0.6v7.9
			C587.6,700.6,587.3,700.8,587.1,700.8z"/>
		<path class="st4" d="M599,700.8h-7.9c-0.2,0-0.6-0.2-0.6-0.6v-7.9c0-0.2,0.2-0.6,0.6-0.6h7.9c0.2,0,0.6,0.2,0.6,0.6v7.9
			C599.5,700.6,599.3,700.8,599,700.8z"/>
		<path class="st4" d="M611.1,700.8h-7.9c-0.2,0-0.6-0.2-0.6-0.6v-7.9c0-0.2,0.2-0.6,0.6-0.6h7.9c0.2,0,0.6,0.2,0.6,0.6v7.9
			C611.5,700.6,611.3,700.8,611.1,700.8z"/>
		<path class="st4" d="M623.1,700.8h-7.9c-0.2,0-0.6-0.2-0.6-0.6v-7.9c0-0.2,0.2-0.6,0.6-0.6h7.9c0.2,0,0.6,0.2,0.6,0.6v7.9
			C623.6,700.6,623.5,700.8,623.1,700.8z"/>
		<path class="st4" d="M635.1,700.8h-7.9c-0.2,0-0.6-0.2-0.6-0.6v-7.9c0-0.2,0.2-0.6,0.6-0.6h7.9c0.2,0,0.6,0.2,0.6,0.6v7.9
			C635.8,700.6,635.3,700.8,635.1,700.8z"/>
		<path class="st4" d="M647.3,700.8h-7.9c-0.2,0-0.6-0.2-0.6-0.6v-7.9c0-0.2,0.2-0.6,0.6-0.6h7.9c0.2,0,0.6,0.2,0.6,0.6v7.9
			C647.7,700.6,647.5,700.8,647.3,700.8z"/>
		<path class="st4" d="M659.3,700.8h-7.9c-0.2,0-0.6-0.2-0.6-0.6v-7.9c0-0.2,0.2-0.6,0.6-0.6h7.9c0.2,0,0.6,0.2,0.6,0.6v7.9
			C659.8,700.6,659.5,700.8,659.3,700.8z"/>
		<path class="st4" d="M671.2,700.8h-7.9c-0.2,0-0.6-0.2-0.6-0.6v-7.9c0-0.2,0.2-0.6,0.6-0.6h7.9c0.2,0,0.6,0.2,0.6,0.6v7.9
			C671.8,700.6,671.6,700.8,671.2,700.8z"/>
		<path class="st4" d="M683.3,700.8h-7.9c-0.2,0-0.6-0.2-0.6-0.6v-7.9c0-0.2,0.2-0.6,0.6-0.6h7.9c0.2,0,0.6,0.2,0.6,0.6v7.9
			C683.9,700.6,683.7,700.8,683.3,700.8z"/>
		<path class="st4" d="M545,689h-7.9c-0.2,0-0.6-0.2-0.6-0.6v-7.9c0-0.2,0.2-0.6,0.6-0.6h7.9c0.2,0,0.6,0.2,0.6,0.6v7.9
			C545.6,688.8,545.4,689,545,689z"/>
		<path class="st4" d="M557.1,689h-7.9c-0.2,0-0.6-0.2-0.6-0.6v-7.9c0-0.2,0.2-0.6,0.6-0.6h7.9c0.2,0,0.6,0.2,0.6,0.6v7.9
			C557.6,688.8,557.3,689,557.1,689z"/>
		<path class="st4" d="M569.2,689h-8.1c-0.2,0-0.6-0.2-0.6-0.6v-7.9c0-0.2,0.2-0.6,0.6-0.6h7.9c0.2,0,0.6,0.2,0.6,0.6v7.9
			C569.6,688.8,569.4,689,569.2,689z"/>
		<path class="st4" d="M581.2,689h-7.9c-0.2,0-0.6-0.2-0.6-0.6v-7.9c0-0.2,0.2-0.6,0.6-0.6h7.9c0.2,0,0.6,0.2,0.6,0.6v7.9
			C581.8,688.8,581.6,689,581.2,689z"/>
		<path class="st4" d="M593.4,689h-7.9c-0.2,0-0.6-0.2-0.6-0.6v-7.9c0-0.2,0.2-0.6,0.6-0.6h7.9c0.2,0,0.6,0.2,0.6,0.6v7.9
			C593.7,688.8,593.5,689,593.4,689z"/>
		<path class="st4" d="M605.2,689h-7.9c-0.2,0-0.6-0.2-0.6-0.6v-7.9c0-0.2,0.2-0.6,0.6-0.6h7.9c0.2,0,0.6,0.2,0.6,0.6v7.9
			C605.8,688.8,605.6,689,605.2,689z"/>
		<path class="st4" d="M617.4,689h-7.9c-0.2,0-0.6-0.2-0.6-0.6v-7.9c0-0.2,0.2-0.6,0.6-0.6h7.9c0.2,0,0.6,0.2,0.6,0.6v7.9
			C617.8,688.8,617.6,689,617.4,689z"/>
		<path class="st4" d="M629.3,689h-7.9c-0.2,0-0.6-0.2-0.6-0.6v-7.9c0-0.2,0.2-0.6,0.6-0.6h7.9c0.2,0,0.6,0.2,0.6,0.6v7.9
			C629.9,688.8,629.7,689,629.3,689z"/>
		<path class="st4" d="M641.4,689h-7.9c-0.2,0-0.6-0.2-0.6-0.6v-7.9c0-0.2,0.2-0.6,0.6-0.6h7.9c0.2,0,0.6,0.2,0.6,0.6v7.9
			C641.8,688.8,641.6,689,641.4,689z"/>
		<path class="st4" d="M653.6,689h-7.9c-0.2,0-0.6-0.2-0.6-0.6v-7.9c0-0.2,0.2-0.6,0.6-0.6h7.9c0.2,0,0.6,0.2,0.6,0.6v7.9
			C653.9,688.8,653.7,689,653.6,689z"/>
		<path class="st4" d="M665.3,689h-7.9c-0.2,0-0.6-0.2-0.6-0.6v-7.9c0-0.2,0.2-0.6,0.6-0.6h7.9c0.2,0,0.6,0.2,0.6,0.6v7.9
			C666.1,688.8,665.7,689,665.3,689z"/>
		<path class="st4" d="M683.3,689h-13.8c-0.2,0-0.6-0.2-0.6-0.6v-7.9c0-0.2,0.2-0.6,0.6-0.6h13.8c0.2,0,0.6,0.2,0.6,0.6v7.9
			C683.9,688.8,683.7,689,683.3,689z"/>
		<path class="st4" d="M533.4,677.3h-7.9c-0.2,0-0.6-0.2-0.6-0.6v-3.3c0-0.2,0.2-0.6,0.6-0.6h7.9c0.2,0,0.6,0.2,0.6,0.6v3.4
			C534,676.9,533.8,677.3,533.4,677.3z"/>
		<path class="st4" d="M546,677.3h-7.9c-0.2,0-0.6-0.2-0.6-0.6v-3.3c0-0.2,0.2-0.6,0.6-0.6h7.9c0.2,0,0.6,0.2,0.6,0.6v3.4
			C546.5,676.9,546.3,677.3,546,677.3z"/>
		<path class="st4" d="M558.5,677.3h-7.9c-0.2,0-0.6-0.2-0.6-0.6v-3.3c0-0.2,0.2-0.6,0.6-0.6h7.9c0.2,0,0.6,0.2,0.6,0.6v3.4
			C559,676.9,558.9,677.3,558.5,677.3z"/>
		<path class="st4" d="M570.9,677.3H563c-0.2,0-0.6-0.2-0.6-0.6v-3.3c0-0.2,0.2-0.6,0.6-0.6h7.9c0.2,0,0.6,0.2,0.6,0.6v3.4
			C571.5,676.9,571.1,677.3,570.9,677.3z"/>
		<path class="st4" d="M583.3,677.3h-7.9c-0.2,0-0.6-0.2-0.6-0.6v-3.3c0-0.2,0.2-0.6,0.6-0.6h7.9c0.2,0,0.6,0.2,0.6,0.6v3.4
			C583.8,676.9,583.6,677.3,583.3,677.3z"/>
		<path class="st4" d="M595.8,677.3h-7.9c-0.2,0-0.6-0.2-0.6-0.6v-3.3c0-0.2,0.2-0.6,0.6-0.6h7.9c0.2,0,0.6,0.2,0.6,0.6v3.4
			C596.3,676.9,596.2,677.3,595.8,677.3z"/>
		<path class="st4" d="M608.3,677.3h-7.9c-0.2,0-0.6-0.2-0.6-0.6v-3.3c0-0.2,0.2-0.6,0.6-0.6h7.9c0.2,0,0.6,0.2,0.6,0.6v3.4
			C608.9,676.9,608.7,677.3,608.3,677.3z"/>
		<path class="st4" d="M620.7,677.3h-7.9c-0.2,0-0.6-0.2-0.6-0.6v-3.3c0-0.2,0.2-0.6,0.6-0.6h7.9c0.2,0,0.6,0.2,0.6,0.6v3.4
			C621.3,676.9,621.1,677.3,620.7,677.3z"/>
		<path class="st4" d="M633.3,677.3h-7.9c-0.2,0-0.6-0.2-0.6-0.6v-3.3c0-0.2,0.2-0.6,0.6-0.6h7.9c0.2,0,0.6,0.2,0.6,0.6v3.4
			C633.8,676.9,633.6,677.3,633.3,677.3z"/>
		<path class="st4" d="M645.8,677.3h-7.9c-0.2,0-0.6-0.2-0.6-0.6v-3.3c0-0.2,0.2-0.6,0.6-0.6h7.9c0.2,0,0.6,0.2,0.6,0.6v3.4
			C646.4,676.9,646.2,677.3,645.8,677.3z"/>
		<path class="st4" d="M658.3,677.3h-7.9c-0.2,0-0.6-0.2-0.6-0.6v-3.3c0-0.2,0.2-0.6,0.6-0.6h7.9c0.2,0,0.6,0.2,0.6,0.6v3.4
			C658.9,676.9,658.7,677.3,658.3,677.3z"/>
		<path class="st4" d="M670.8,677.3h-7.9c-0.2,0-0.6-0.2-0.6-0.6v-3.3c0-0.2,0.2-0.6,0.6-0.6h7.9c0.2,0,0.6,0.2,0.6,0.6v3.4
			C671.4,676.9,671.2,677.3,670.8,677.3z"/>
		<path class="st4" d="M683.3,677.3h-7.9c-0.2,0-0.6-0.2-0.6-0.6v-3.3c0-0.2,0.2-0.6,0.6-0.6h7.9c0.2,0,0.6,0.2,0.6,0.6v3.4
			C683.9,676.9,683.7,677.3,683.3,677.3z"/>
		<path class="st4" d="M659.5,737.5h-7.9c-0.2,0-0.6-0.2-0.6-0.6v-3.4c0-0.2,0.2-0.6,0.6-0.6h7.9c0.2,0,0.6,0.2,0.6,0.6v3.4
			C660,737.3,659.8,737.5,659.5,737.5z"/>
		<path class="st4" d="M671.6,737.5h-7.9c-0.2,0-0.6-0.2-0.6-0.6v-3.4c0-0.2,0.2-0.6,0.6-0.6h7.9c0.2,0,0.6,0.2,0.6,0.6v3.4
			C672,737.3,671.8,737.5,671.6,737.5z"/>
		<path class="st4" d="M671.6,731.8h-7.9c-0.2,0-0.6-0.2-0.6-0.6v-3.4c0-0.2,0.2-0.6,0.6-0.6h7.9c0.2,0,0.6,0.2,0.6,0.6v3.4
			C672,731.6,671.8,731.8,671.6,731.8z"/>
		<path class="st4" d="M683.7,737.5h-7.9c-0.2,0-0.6-0.2-0.6-0.6v-3.4c0-0.2,0.2-0.6,0.6-0.6h7.9c0.2,0,0.6,0.2,0.6,0.6v3.4
			C684,737.3,683.9,737.5,683.7,737.5z"/>
		<path class="st4" d="M628.8,791h-61.2c-1.1,0-2.2-0.9-2.2-2.2v-36.4c0-1.1,0.9-2.2,2.2-2.2h61.2c1.1,0,2.2,0.9,2.2,2.2v36.4
			C631,789.9,630.1,791,628.8,791z"/>
		<g>
			<line class="st4" x1="493.6" y1="672" x2="494.1" y2="672"/>
			<line class="st4" x1="496.5" y1="672" x2="504.4" y2="672"/>
			<line class="st4" x1="505.7" y1="672" x2="505.9" y2="672"/>
			<line class="st4" x1="493.6" y1="674.8" x2="494.1" y2="674.8"/>
			<line class="st4" x1="496.5" y1="674.8" x2="504.4" y2="674.8"/>
			<line class="st4" x1="505.7" y1="674.8" x2="505.9" y2="674.8"/>
			<line class="st4" x1="493.6" y1="677.9" x2="494.1" y2="677.9"/>
			<line class="st4" x1="496.5" y1="677.9" x2="504.4" y2="677.9"/>
			<line class="st4" x1="505.7" y1="677.9" x2="505.9" y2="677.9"/>
			<line class="st4" x1="493.6" y1="680.7" x2="494.1" y2="680.7"/>
			<line class="st4" x1="496.5" y1="680.7" x2="504.4" y2="680.7"/>
			<line class="st4" x1="505.7" y1="680.7" x2="505.9" y2="680.7"/>
			<line class="st4" x1="493.6" y1="683.7" x2="494.1" y2="683.7"/>
			<line class="st4" x1="496.5" y1="683.7" x2="504.4" y2="683.7"/>
			<line class="st4" x1="505.7" y1="683.7" x2="505.9" y2="683.7"/>
			<line class="st4" x1="493.6" y1="686.6" x2="494.1" y2="686.6"/>
			<line class="st4" x1="496.5" y1="686.6" x2="504.4" y2="686.6"/>
			<line class="st4" x1="505.7" y1="686.6" x2="505.9" y2="686.6"/>
			<line class="st4" x1="493.6" y1="689.5" x2="494.1" y2="689.5"/>
			<line class="st4" x1="496.5" y1="689.5" x2="504.4" y2="689.5"/>
			<line class="st4" x1="505.7" y1="689.5" x2="505.9" y2="689.5"/>
			<line class="st4" x1="493.6" y1="692.6" x2="494.1" y2="692.6"/>
			<line class="st4" x1="496.5" y1="692.6" x2="504.4" y2="692.6"/>
			<line class="st4" x1="505.7" y1="692.6" x2="505.9" y2="692.6"/>
			<line class="st4" x1="493.6" y1="695.4" x2="494.1" y2="695.4"/>
			<line class="st4" x1="496.5" y1="695.4" x2="504.4" y2="695.4"/>
			<line class="st4" x1="505.7" y1="695.4" x2="505.9" y2="695.4"/>
			<line class="st4" x1="493.6" y1="698.5" x2="494.1" y2="698.5"/>
			<line class="st4" x1="496.5" y1="698.5" x2="504.4" y2="698.5"/>
			<line class="st4" x1="505.7" y1="698.5" x2="505.9" y2="698.5"/>
			<line class="st4" x1="493.6" y1="701.3" x2="494.1" y2="701.3"/>
			<line class="st4" x1="496.5" y1="701.3" x2="504.4" y2="701.3"/>
			<line class="st4" x1="505.7" y1="701.3" x2="505.9" y2="701.3"/>
			<line class="st4" x1="493.6" y1="704.3" x2="494.1" y2="704.3"/>
			<line class="st4" x1="496.5" y1="704.3" x2="504.4" y2="704.3"/>
			<line class="st4" x1="505.7" y1="704.3" x2="505.9" y2="704.3"/>
			<line class="st4" x1="493.6" y1="707.4" x2="494.1" y2="707.4"/>
			<line class="st4" x1="496.5" y1="707.4" x2="504.4" y2="707.4"/>
			<line class="st4" x1="505.7" y1="707.4" x2="505.9" y2="707.4"/>
			<line class="st4" x1="493.6" y1="710" x2="494.1" y2="710"/>
			<line class="st4" x1="496.5" y1="710" x2="504.4" y2="710"/>
			<line class="st4" x1="505.7" y1="710" x2="505.9" y2="710"/>
			<line class="st4" x1="493.6" y1="713.1" x2="494.1" y2="713.1"/>
			<line class="st4" x1="496.5" y1="713.1" x2="504.4" y2="713.1"/>
			<line class="st4" x1="505.7" y1="713.1" x2="505.9" y2="713.1"/>
			<line class="st4" x1="493.6" y1="716.1" x2="494.1" y2="716.1"/>
			<line class="st4" x1="496.5" y1="716.1" x2="504.4" y2="716.1"/>
			<line class="st4" x1="505.7" y1="716.1" x2="505.9" y2="716.1"/>
			<line class="st4" x1="493.6" y1="719" x2="494.1" y2="719"/>
			<line class="st4" x1="496.5" y1="719" x2="504.4" y2="719"/>
			<line class="st4" x1="505.7" y1="719" x2="505.9" y2="719"/>
			<line class="st4" x1="493.6" y1="722" x2="494.1" y2="722"/>
			<line class="st4" x1="496.5" y1="722" x2="504.4" y2="722"/>
			<line class="st4" x1="505.7" y1="722" x2="505.9" y2="722"/>
			<line class="st4" x1="493.6" y1="724.8" x2="494.1" y2="724.8"/>
			<line class="st4" x1="496.5" y1="724.8" x2="504.4" y2="724.8"/>
			<line class="st4" x1="505.7" y1="724.8" x2="505.9" y2="724.8"/>
			<line class="st4" x1="493.6" y1="727.9" x2="494.1" y2="727.9"/>
			<line class="st4" x1="496.5" y1="727.9" x2="504.4" y2="727.9"/>
			<line class="st4" x1="505.7" y1="727.9" x2="505.9" y2="727.9"/>
			<line class="st4" x1="493.6" y1="730.9" x2="494.1" y2="730.9"/>
			<line class="st4" x1="496.5" y1="730.9" x2="504.4" y2="730.9"/>
			<line class="st4" x1="505.7" y1="730.9" x2="505.9" y2="730.9"/>
			<line class="st4" x1="493.6" y1="733.8" x2="494.1" y2="733.8"/>
			<line class="st4" x1="496.5" y1="733.8" x2="504.4" y2="733.8"/>
			<line class="st4" x1="505.7" y1="733.8" x2="505.9" y2="733.8"/>
			<line class="st4" x1="493.6" y1="736.8" x2="494.1" y2="736.8"/>
			<line class="st4" x1="496.5" y1="736.8" x2="504.4" y2="736.8"/>
			<line class="st4" x1="505.7" y1="736.8" x2="505.9" y2="736.8"/>
			<line class="st4" x1="690.7" y1="672" x2="691" y2="672"/>
			<line class="st4" x1="693.6" y1="672" x2="701.5" y2="672"/>
			<line class="st4" x1="702.6" y1="672" x2="703" y2="672"/>
			<line class="st4" x1="690.7" y1="674.8" x2="691" y2="674.8"/>
			<line class="st4" x1="693.6" y1="674.8" x2="701.5" y2="674.8"/>
			<line class="st4" x1="702.6" y1="674.8" x2="703" y2="674.8"/>
			<line class="st4" x1="690.7" y1="677.9" x2="691" y2="677.9"/>
			<line class="st4" x1="693.6" y1="677.9" x2="701.5" y2="677.9"/>
			<line class="st4" x1="702.6" y1="677.9" x2="703" y2="677.9"/>
			<line class="st4" x1="690.7" y1="680.7" x2="691" y2="680.7"/>
			<line class="st4" x1="693.6" y1="680.7" x2="701.5" y2="680.7"/>
			<line class="st4" x1="702.6" y1="680.7" x2="703" y2="680.7"/>
			<line class="st4" x1="690.7" y1="683.7" x2="691" y2="683.7"/>
			<line class="st4" x1="693.6" y1="683.7" x2="701.5" y2="683.7"/>
			<line class="st4" x1="702.6" y1="683.7" x2="703" y2="683.7"/>
			<line class="st4" x1="690.7" y1="686.6" x2="691" y2="686.6"/>
			<line class="st4" x1="693.6" y1="686.6" x2="701.5" y2="686.6"/>
			<line class="st4" x1="702.6" y1="686.6" x2="703" y2="686.6"/>
			<line class="st4" x1="690.7" y1="689.5" x2="691" y2="689.5"/>
			<line class="st4" x1="693.6" y1="689.5" x2="701.5" y2="689.5"/>
			<line class="st4" x1="702.6" y1="689.5" x2="703" y2="689.5"/>
			<line class="st4" x1="690.7" y1="692.6" x2="691" y2="692.6"/>
			<line class="st4" x1="693.6" y1="692.6" x2="701.5" y2="692.6"/>
			<line class="st4" x1="702.6" y1="692.6" x2="703" y2="692.6"/>
			<line class="st4" x1="690.7" y1="695.4" x2="691" y2="695.4"/>
			<line class="st4" x1="693.6" y1="695.4" x2="701.5" y2="695.4"/>
			<line class="st4" x1="702.6" y1="695.4" x2="703" y2="695.4"/>
			<line class="st4" x1="690.7" y1="698.5" x2="691" y2="698.5"/>
			<line class="st4" x1="693.6" y1="698.5" x2="701.5" y2="698.5"/>
			<line class="st4" x1="702.6" y1="698.5" x2="703" y2="698.5"/>
			<line class="st4" x1="690.7" y1="701.3" x2="691" y2="701.3"/>
			<line class="st4" x1="693.6" y1="701.3" x2="701.5" y2="701.3"/>
			<line class="st4" x1="702.6" y1="701.3" x2="703" y2="701.3"/>
			<line class="st4" x1="690.7" y1="704.3" x2="691" y2="704.3"/>
			<line class="st4" x1="693.6" y1="704.3" x2="701.5" y2="704.3"/>
			<line class="st4" x1="702.6" y1="704.3" x2="703" y2="704.3"/>
			<line class="st4" x1="690.7" y1="707.4" x2="691" y2="707.4"/>
			<line class="st4" x1="693.6" y1="707.4" x2="701.5" y2="707.4"/>
			<line class="st4" x1="702.6" y1="707.4" x2="703" y2="707.4"/>
			<line class="st4" x1="690.7" y1="710" x2="691" y2="710"/>
			<line class="st4" x1="693.6" y1="710" x2="701.5" y2="710"/>
			<line class="st4" x1="702.6" y1="710" x2="703" y2="710"/>
			<line class="st4" x1="690.7" y1="713.1" x2="691" y2="713.1"/>
			<line class="st4" x1="693.6" y1="713.1" x2="701.5" y2="713.1"/>
			<line class="st4" x1="702.6" y1="713.1" x2="703" y2="713.1"/>
			<line class="st4" x1="690.7" y1="716.1" x2="691" y2="716.1"/>
			<line class="st4" x1="693.6" y1="716.1" x2="701.5" y2="716.1"/>
			<line class="st4" x1="702.6" y1="716.1" x2="703" y2="716.1"/>
			<line class="st4" x1="690.7" y1="719" x2="691" y2="719"/>
			<line class="st4" x1="693.6" y1="719" x2="701.5" y2="719"/>
			<line class="st4" x1="702.6" y1="719" x2="703" y2="719"/>
			<line class="st4" x1="690.7" y1="722" x2="691" y2="722"/>
			<line class="st4" x1="693.6" y1="722" x2="701.5" y2="722"/>
			<line class="st4" x1="702.6" y1="722" x2="703" y2="722"/>
			<line class="st4" x1="690.7" y1="724.8" x2="691" y2="724.8"/>
			<line class="st4" x1="693.6" y1="724.8" x2="701.5" y2="724.8"/>
			<line class="st4" x1="702.6" y1="724.8" x2="703" y2="724.8"/>
			<line class="st4" x1="690.7" y1="727.9" x2="691" y2="727.9"/>
			<line class="st4" x1="693.6" y1="727.9" x2="701.5" y2="727.9"/>
			<line class="st4" x1="702.6" y1="727.9" x2="703" y2="727.9"/>
			<line class="st4" x1="690.7" y1="730.9" x2="691" y2="730.9"/>
			<line class="st4" x1="693.6" y1="730.9" x2="701.5" y2="730.9"/>
			<line class="st4" x1="702.6" y1="730.9" x2="703" y2="730.9"/>
			<line class="st4" x1="690.7" y1="733.8" x2="691" y2="733.8"/>
			<line class="st4" x1="693.6" y1="733.8" x2="701.5" y2="733.8"/>
			<line class="st4" x1="702.6" y1="733.8" x2="703" y2="733.8"/>
			<line class="st4" x1="690.7" y1="736.8" x2="691" y2="736.8"/>
			<line class="st4" x1="693.6" y1="736.8" x2="701.5" y2="736.8"/>
			<line class="st4" x1="702.6" y1="736.8" x2="703" y2="736.8"/>
		</g>
	</g>
	<g>
		<path class="st4" d="M314.1,760.1H97.4c-2.1,0-3.8-1.7-3.8-3.8V589.6c0-2.1,1.7-3.8,3.8-3.8h216.6c2.1,0,3.8,1.7,3.8,3.8v166.8
			C317.7,758.4,316.1,760.1,314.1,760.1z"/>
		<line class="st4" x1="93.7" y1="604.9" x2="317.7" y2="604.9"/>
		<path class="st4" d="M101.8,596c0,0.6,0.4,0.9,0.9,0.9s0.9-0.4,0.9-0.9s-0.4-0.9-0.9-0.9S101.8,595.5,101.8,596"/>
		<path class="st4" d="M109.4,596c0,0.6,0.4,0.9,0.9,0.9s0.9-0.4,0.9-0.9s-0.4-0.9-0.9-0.9S109.4,595.5,109.4,596"/>
		<path class="st4" d="M117.2,596c0,0.6,0.4,0.9,0.9,0.9s0.9-0.4,0.9-0.9s-0.4-0.9-0.9-0.9S117.2,595.5,117.2,596"/>
		<path class="st4" d="M264.8,599.9H146.3c-0.7,0-1.3-0.6-1.3-1.3v-4.8c0-0.7,0.6-1.3,1.3-1.3h118.5c0.7,0,1.3,0.6,1.3,1.3v4.8
			C266.3,599.3,265.5,599.9,264.8,599.9z"/>
	</g>
</g>
<g>
	<path class="st1" d="M1157.5,1127.6H762.9c-5.8,0-10.4-4.7-10.4-10.4V853c0-5.8,4.7-10.4,10.4-10.4h394.5c5.8,0,10.4,4.7,10.4,10.4
		v264.3C1168,1122.8,1163.3,1127.6,1157.5,1127.6z"/>
	<line class="st1" x1="753" y1="1090" x2="1167.6" y2="1090"/>
	<rect x="769.6" y="859.9" class="st1" width="381.6" height="213.8"/>
	<path class="st1" d="M906.8,1165.7c4.3-3.7,8.2-9.9,8.6-15.7l3.5-22h82l3.5,21.8c0.6,5.8,4.5,12.3,9.3,16"/>
	<line class="st1" x1="897.7" y1="1165.7" x2="1022.9" y2="1165.7"/>
</g>
<g>
	<path class="st2" d="M645.5,948.4V858c0-4.9,3.9-8.6,8.6-8.6H688c4.9,0,8.6,3.9,8.6,8.6v90.4c0,4.9-3.9,8.6-8.6,8.6h-33.8
		C649.4,957,645.5,953.1,645.5,948.4z"/>
	<rect x="650.6" y="864.6" class="st2" width="40.5" height="77"/>
	<path class="st2" d="M675,949L675,949c0-2.2-1.9-4.1-4.3-4.1c-2.2,0-4.1,2.1-4.1,4.3l0,0c0,2.2,2.1,4.1,4.3,4.1S675,951.2,675,949"
		/>
	<line class="st2" x1="667" y1="858.8" x2="674.8" y2="858.8"/>
	<path class="st2" d="M672,854.7L672,854.7c0-0.6-0.4-1-0.7-0.7c-0.3,0-0.7,0.3-0.7,0.7l0,0c0,0.3,0.4,0.7,0.7,0.7
		S672,855.1,672,854.7"/>
	<line class="st2" x1="654.3" y1="847.8" x2="662.5" y2="847.8"/>
</g>
<g>
	<path class="st2" d="M561.7,981.5h135.8c4.3,0,7.8,3.5,7.8,7.8v91c0,4.3-3.5,7.8-7.8,7.8H561.7c-4.3,0-7.8-3.5-7.8-7.8v-91
		C553.9,984.8,557.5,981.5,561.7,981.5z"/>
	<rect x="569.9" y="990.2" class="st2" width="119.9" height="88.9"/>
	<path class="st2" d="M565.5,1034.7c0-1.7-1.3-3-3-3s-3,1.3-3,3c0,1.7,1.3,3,3,3S565.5,1036.4,565.5,1034.7"/>
	<path class="st2" d="M697,1034.7L697,1034.7c0-0.4-0.1-0.6-0.6-0.6c-0.4,0-0.6,0.2-0.6,0.6l0,0c0,0.4,0.2,0.6,0.6,0.6
		S697,1035.1,697,1034.7"/>
</g>
<g>
	<path class="st2" d="M578,937.5v-29.7c0-3.5,2.8-6.5,6.5-6.5h23c3.5,0,6.5,2.8,6.5,6.5v29.9c0,3.5-2.8,6.5-6.5,6.5h-23
		C580.8,944.2,577.8,941.2,578,937.5z"/>
	<path class="st2" d="M581.5,936.7v-28c0-2,1.5-3.7,3.7-3.7h21.3c2,0,3.7,1.5,3.7,3.7v28c0,2-1.5,3.7-3.7,3.7h-21.3
		C583.2,940.4,581.5,938.6,581.5,936.7z"/>
	<line class="st2" x1="576.8" y1="934.3" x2="576.8" y2="923.8"/>
	<path class="st2" d="M575.4,916.7v-4.1c0-0.7,0.6-1.3,1.3-1.3h1.7v6.9h-1.7C575.7,918.2,575.2,917.7,575.4,916.7z"/>
	<path class="st2" d="M595.9,956.5c1.9,0,3.5,0,4.8-0.4l3.2-0.4c1,0,1.5-0.8,1.7-1.5l0.4-2.2c0.4-2.3,0.8-4.3,1.5-6.4l0.9-1.9h-12.7
		l0,0H583l0.9,1.9c0.9,2.1,1.1,4.2,1.5,6.4l0.4,2.2c0.2,0.8,1,1.3,1.7,1.5l3,0.4C592.4,956.3,594.2,956.5,595.9,956.5L595.9,956.5z"
		/>
	<path class="st2" d="M596.5,888.5c-1.9,0-3.7,0.2-5.4,0.4l-3.2,0.4c-1,0-1.5,0.8-1.7,1.5l-0.4,2.2c-0.4,2.3-0.8,4.3-1.5,6.4
		l-0.9,1.9h12.7l0,0h12.7l-0.9-1.9c-0.9-2.1-1.1-4.2-1.5-6.4l-0.4-2.2c-0.2-0.8-1-1.3-1.7-1.5l-3-0.4L596.5,888.5z"/>
</g>
<g>
	<path class="st2" d="M236.7,1008.1V856.4c0-0.8,0.8-1.5,1.5-1.5h272.2c0.8,0,1.5,0.8,1.5,1.5v151.8c0,0.8-0.8,1.5-1.5,1.5H238.2
		C237.5,1009.7,236.7,1009,236.7,1008.1z"/>
	<line class="st2" x1="236.9" y1="1002.8" x2="511.7" y2="1002.8"/>
	<rect x="362.2" y="1009.7" class="st2" width="24.1" height="28.6"/>
	<path class="st2" d="M369.9,1027.5v-6.5c0-2.4,1.9-4.3,4.3-4.3l0,0c2.4,0,4.3,1.9,4.3,4.3v6.5c0,2.4-1.9,4.3-4.3,4.3l0,0
		C372,1031.8,370.1,1029.9,369.9,1027.5z"/>
	<path class="st2" d="M322.8,1041.9v-2.4c0-0.5,0.5-1.1,1.1-1.1l100.3,0c0.5,0,1.1,0.5,1.1,1.1v2.6c0,0.3-0.5,0.9-1.1,0.9l-100.3,0
		C323.6,1043,323,1042.4,322.8,1041.9z"/>
</g>
<g>
	<path class="st3" d="M92.9,947.8v-129c0-4.2,3.4-7.5,7.5-7.5h86.5c4.2,0,7.5,3.4,7.5,7.5v129c0,4.2-3.4,7.5-7.5,7.5h-86.3
		C96.3,955.3,93,952.2,92.9,947.8z"/>
	<rect x="101.5" y="826.5" class="st3" width="84.5" height="114.1"/>
	<path class="st3" d="M143.7,950.1c1.6,0,2.8-1.3,2.8-2.8s-1.3-2.8-2.8-2.8s-2.8,1.3-2.8,2.8S142.2,950.1,143.7,950.1"/>
	<path class="st3" d="M143.7,820.6c0.3,0,0.5-0.2,0.5-0.5c0-0.2-0.2-0.5-0.5-0.5l0,0c-0.2,0-0.5,0.2-0.5,0.5
		C143.2,820.3,143.4,820.6,143.7,820.6"/>
</g>
<g>
	<g>
		<path class="st6" d="M1475.6,990.8v-97c0-3,2.4-5.5,5.5-5.5h65.1c3,0,5.5,2.4,5.5,5.5v97c0,3-2.4,5.5-5.5,5.5H1481
			C1478,996.2,1475.5,993.8,1475.6,990.8z"/>
		<rect x="1481.8" y="899.4" class="st6" width="63.6" height="85.7"/>
		<path class="st6" d="M1515.6,990c0-1.1-0.9-2.1-2.1-2.1s-2.1,1-2.1,2.1c0,1.2,0.9,2.1,2.1,2.1S1515.6,991.1,1515.6,990"/>
		<path class="st6" d="M1514.1,894.5c0-0.2-0.1-0.4-0.4-0.4c-0.2,0-0.4,0.2-0.4,0.4s0.2,0.4,0.4,0.4S1514.1,894.7,1514.1,894.5"/>
	</g>
	<g>
		<path class="st6" d="M1495.7,853.6v-66.7c0-2.4,1.9-4.4,4.4-4.4h29.7c2.4,0,4.4,1.9,4.4,4.4v66.7c0,2.4-1.9,4.4-4.4,4.4h-29.7
			C1497.9,857.9,1495.9,855.9,1495.7,853.6z"/>
		<line class="st6" x1="1496.1" y1="789.3" x2="1534" y2="789.3"/>
		<line class="st6" x1="1496.3" y1="850.6" x2="1534.3" y2="850.6"/>
		<path class="st6" d="M1501.8,786.4L1501.8,786.4c0-0.3-0.4-0.6-0.6-0.6s-0.6,0.2-0.6,0.6l0,0c0,0.2,0.2,0.6,0.6,0.6
			C1501.4,787.1,1501.8,786.9,1501.8,786.4"/>
		<line class="st6" x1="1504.2" y1="785.5" x2="1525.8" y2="785.5"/>
		<line class="st6" x1="1504.2" y1="786.1" x2="1525.8" y2="786.1"/>
		<line class="st6" x1="1504.2" y1="786.6" x2="1525.8" y2="786.6"/>
		<line class="st6" x1="1504.2" y1="787.3" x2="1525.8" y2="787.3"/>
		<line class="st6" x1="1504.2" y1="852.9" x2="1525.8" y2="852.9"/>
		<line class="st6" x1="1504.2" y1="853.3" x2="1525.8" y2="853.3"/>
		<line class="st6" x1="1504.2" y1="854" x2="1525.8" y2="854"/>
		<line class="st6" x1="1504.2" y1="854.6" x2="1525.8" y2="854.6"/>
	</g>
	<g>
		<path class="st6" d="M1210.9,947.5V814c0-4.4,3.5-7.9,7.9-7.9h208.1c4.4,0,7.9,3.5,7.9,7.9v133.6c0,4.4-3.5,7.9-7.9,7.9h-207.8
			C1214.5,955.6,1210.9,952.1,1210.9,947.5z"/>
		<rect x="1221.9" y="817.7" class="st6" width="202" height="126"/>
		<line class="st7" x1="1234.4" y1="961" x2="1411.6" y2="961"/>
		<path class="st6" d="M1210.9,1098.1V964.8c0-4.4,3.5-7.9,7.9-7.9h208.1c4.4,0,7.9,3.5,7.9,7.9v133.4c0,4.4-3.5,7.9-7.9,7.9h-207.8
			C1214.5,1106,1210.9,1102.5,1210.9,1098.1z"/>
		<path class="st6" d="M1246.1,982h-7.9c-0.2,0-0.6-0.2-0.6-0.6V978c0-0.2,0.2-0.6,0.6-0.6h7.9c0.2,0,0.6,0.2,0.6,0.6v3.4
			C1246.5,981.6,1246.3,982,1246.1,982z"/>
		<path class="st6" d="M1246.1,993.7h-7.9c-0.2,0-0.6-0.2-0.6-0.6v-7.9c0-0.2,0.2-0.6,0.6-0.6h7.9c0.2,0,0.6,0.2,0.6,0.6v7.9
			C1246.5,993.5,1246.3,993.7,1246.1,993.7z"/>
		<path class="st6" d="M1257.9,993.7h-7.9c-0.2,0-0.6-0.2-0.6-0.6v-7.9c0-0.2,0.2-0.6,0.6-0.6h7.9c0.2,0,0.6,0.2,0.6,0.6v7.9
			C1258.6,993.5,1258.2,993.7,1257.9,993.7z"/>
		<path class="st6" d="M1263.9,1005.5h-7.9c-0.2,0-0.6-0.2-0.6-0.6V997c0-0.2,0.2-0.6,0.6-0.6h7.9c0.2,0,0.6,0.2,0.6,0.6v7.9
			C1264.3,1005.3,1264.1,1005.5,1263.9,1005.5z"/>
		<path class="st6" d="M1266.7,1017.1h-7.9c-0.2,0-0.6-0.2-0.6-0.6v-7.9c0-0.2,0.2-0.6,0.6-0.6h7.9c0.2,0,0.6,0.2,0.6,0.6v7.9
			C1267.3,1017,1267.1,1017.1,1266.7,1017.1z"/>
		<path class="st6" d="M1272.8,1029h-7.9c-0.2,0-0.6-0.2-0.6-0.6v-7.9c0-0.2,0.2-0.6,0.6-0.6h7.9c0.2,0,0.6,0.2,0.6,0.6v7.9
			C1273.4,1028.8,1273.2,1029,1272.8,1029z"/>
		<path class="st6" d="M1245.7,1042.3h-7.9c-0.2,0-0.6-0.2-0.6-0.6v-9.1c0-0.2,0.2-0.6,0.6-0.6h7.9c0.2,0,0.6,0.2,0.6,0.6v9.1
			C1246.3,1041.9,1246.1,1042.3,1245.7,1042.3z"/>
		<path class="st6" d="M1257.9,1042.3h-7.9c-0.2,0-0.6-0.2-0.6-0.6v-9.1c0-0.2,0.2-0.6,0.6-0.6h7.9c0.2,0,0.6,0.2,0.6,0.6v9.1
			C1258.4,1041.9,1258.2,1042.3,1257.9,1042.3z"/>
		<path class="st6" d="M1269.9,1042.3h-7.9c-0.2,0-0.6-0.2-0.6-0.6v-9.1c0-0.2,0.2-0.6,0.6-0.6h7.9c0.2,0,0.6,0.2,0.6,0.6v9.1
			C1270.5,1041.9,1270.3,1042.3,1269.9,1042.3z"/>
		<path class="st6" d="M1372.3,1042.3h-7.9c-0.2,0-0.6-0.2-0.6-0.6v-9.1c0-0.2,0.2-0.6,0.6-0.6h7.9c0.2,0,0.6,0.2,0.6,0.6v9.1
			C1372.7,1041.9,1372.5,1042.3,1372.3,1042.3z"/>
		<path class="st6" d="M1284.7,1042.3h-10.6c-0.2,0-0.6-0.2-0.6-0.6v-9.1c0-0.2,0.2-0.6,0.6-0.6h10.6c0.2,0,0.6,0.2,0.6,0.6v9.1
			C1285.2,1041.9,1285.1,1042.3,1284.7,1042.3z"/>
		<path class="st6" d="M1345.1,1042.3h-56c-0.2,0-0.6-0.2-0.6-0.6v-9.1c0-0.2,0.2-0.6,0.6-0.6h56c0.2,0,0.6,0.2,0.6,0.6v9.1
			C1345.5,1041.9,1345.3,1042.3,1345.1,1042.3z"/>
		<path class="st6" d="M1359.8,1042.3h-10.6c-0.2,0-0.6-0.2-0.6-0.6v-9.1c0-0.2,0.2-0.6,0.6-0.6h10.6c0.2,0,0.6,0.2,0.6,0.6v9.1
			C1360.3,1041.9,1359.9,1042.3,1359.8,1042.3z"/>
		<path class="st6" d="M1260.8,1029h-23.1c-0.2,0-0.6-0.2-0.6-0.6v-7.9c0-0.2,0.2-0.6,0.6-0.6h23.1c0.2,0,0.6,0.2,0.6,0.6v7.9
			C1261.4,1028.8,1261,1029,1260.8,1029z"/>
		<path class="st6" d="M1284.9,1029h-7.9c-0.2,0-0.6-0.2-0.6-0.6v-7.9c0-0.2,0.2-0.6,0.6-0.6h7.9c0.2,0,0.6,0.2,0.6,0.6v7.9
			C1285.2,1028.8,1285.1,1029,1284.9,1029z"/>
		<path class="st6" d="M1296.8,1029h-7.9c-0.2,0-0.6-0.2-0.6-0.6v-7.9c0-0.2,0.2-0.6,0.6-0.6h7.9c0.2,0,0.6,0.2,0.6,0.6v7.9
			C1297.4,1028.8,1297.2,1029,1296.8,1029z"/>
		<path class="st6" d="M1308.9,1029h-7.9c-0.2,0-0.6-0.2-0.6-0.6v-7.9c0-0.2,0.2-0.6,0.6-0.6h7.9c0.2,0,0.6,0.2,0.6,0.6v7.9
			C1309.5,1028.8,1309.3,1029,1308.9,1029z"/>
		<path class="st6" d="M1321.1,1029h-7.9c-0.2,0-0.6-0.2-0.6-0.6v-7.9c0-0.2,0.2-0.6,0.6-0.6h7.9c0.2,0,0.6,0.2,0.6,0.6v7.9
			C1321.6,1028.8,1321.2,1029,1321.1,1029z"/>
		<path class="st6" d="M1332.9,1029h-7.9c-0.2,0-0.6-0.2-0.6-0.6v-7.9c0-0.2,0.2-0.6,0.6-0.6h7.9c0.2,0,0.6,0.2,0.6,0.6v7.9
			C1333.7,1028.8,1333.3,1029,1332.9,1029z"/>
		<path class="st6" d="M1345.1,1029h-7.9c-0.2,0-0.6-0.2-0.6-0.6v-7.9c0-0.2,0.2-0.6,0.6-0.6h7.9c0.2,0,0.6,0.2,0.6,0.6v7.9
			C1345.6,1028.8,1345.5,1029,1345.1,1029z"/>
		<path class="st6" d="M1357.1,1029h-7.9c-0.2,0-0.6-0.2-0.6-0.6v-7.9c0-0.2,0.2-0.6,0.6-0.6h7.9c0.2,0,0.6,0.2,0.6,0.6v7.9
			C1357.5,1028.8,1357.3,1029,1357.1,1029z"/>
		<path class="st6" d="M1369.1,1029h-7.9c-0.2,0-0.6-0.2-0.6-0.6v-7.9c0-0.2,0.2-0.6,0.6-0.6h7.9c0.2,0,0.6,0.2,0.6,0.6v7.9
			C1369.7,1028.8,1369.5,1029,1369.1,1029z"/>
		<path class="st6" d="M1381.2,1029h-7.9c-0.2,0-0.6-0.2-0.6-0.6v-7.9c0-0.2,0.2-0.6,0.6-0.6h7.9c0.2,0,0.6,0.2,0.6,0.6v7.9
			C1381.7,1028.8,1381.5,1029,1381.2,1029z"/>
		<path class="st6" d="M1407.8,1029h-22.7c-0.2,0-0.6-0.2-0.6-0.6v-7.9c0-0.2,0.2-0.6,0.6-0.6h22.7c0.2,0,0.6,0.2,0.6,0.6v7.9
			C1408.6,1028.8,1408.4,1029,1407.8,1029z"/>
		<path class="st6" d="M1254.8,1017.1H1238c-0.2,0-0.6-0.2-0.6-0.6v-7.9c0-0.2,0.2-0.6,0.6-0.6h16.8c0.2,0,0.6,0.2,0.6,0.6v7.9
			C1255.1,1017,1255,1017.1,1254.8,1017.1z"/>
		<path class="st6" d="M1278.8,1017.1h-7.9c-0.2,0-0.6-0.2-0.6-0.6v-7.9c0-0.2,0.2-0.6,0.6-0.6h7.9c0.2,0,0.6,0.2,0.6,0.6v7.9
			C1279.4,1017,1279,1017.1,1278.8,1017.1z"/>
		<path class="st6" d="M1290.8,1017.1h-8c-0.2,0-0.6-0.2-0.6-0.6v-7.9c0-0.2,0.2-0.6,0.6-0.6h7.9c0.2,0,0.6,0.2,0.6,0.6v7.9
			C1291.3,1017,1291.1,1017.1,1290.8,1017.1z"/>
		<path class="st6" d="M1302.8,1017.1h-7.9c-0.2,0-0.6-0.2-0.6-0.6v-7.9c0-0.2,0.2-0.6,0.6-0.6h7.9c0.2,0,0.6,0.2,0.6,0.6v7.9
			C1303.4,1017,1303,1017.1,1302.8,1017.1z"/>
		<path class="st6" d="M1315,1017.1h-8.1c-0.2,0-0.6-0.2-0.6-0.6v-7.9c0-0.2,0.2-0.6,0.6-0.6h7.9c0.2,0,0.6,0.2,0.6,0.6v7.9
			C1315.4,1017,1315.2,1017.1,1315,1017.1z"/>
		<path class="st6" d="M1326.8,1017.1h-7.9c-0.2,0-0.6-0.2-0.6-0.6v-7.9c0-0.2,0.2-0.6,0.6-0.6h7.9c0.2,0,0.6,0.2,0.6,0.6v7.9
			C1327.4,1017,1327.2,1017.1,1326.8,1017.1z"/>
		<path class="st6" d="M1339,1017.1h-7.9c-0.2,0-0.6-0.2-0.6-0.6v-7.9c0-0.2,0.2-0.6,0.6-0.6h7.9c0.2,0,0.6,0.2,0.6,0.6v7.9
			C1339.4,1017,1339.2,1017.1,1339,1017.1z"/>
		<path class="st6" d="M1350.9,1017.1h-7.9c-0.2,0-0.6-0.2-0.6-0.6v-7.9c0-0.2,0.2-0.6,0.6-0.6h7.9c0.2,0,0.6,0.2,0.6,0.6v7.9
			C1351.4,1017,1351.2,1017.1,1350.9,1017.1z"/>
		<path class="st6" d="M1363,1017.1h-7.9c-0.2,0-0.6-0.2-0.6-0.6v-7.9c0-0.2,0.2-0.6,0.6-0.6h7.9c0.2,0,0.6,0.2,0.6,0.6v7.9
			C1363.4,1017,1363.2,1017.1,1363,1017.1z"/>
		<path class="st6" d="M1375.1,1017.1h-7.9c-0.2,0-0.6-0.2-0.6-0.6v-7.9c0-0.2,0.2-0.6,0.6-0.6h7.9c0.2,0,0.6,0.2,0.6,0.6v7.9
			C1375.5,1017,1375.3,1017.1,1375.1,1017.1z"/>
		<path class="st6" d="M1387.1,1017.1h-7.9c-0.2,0-0.6-0.2-0.6-0.6v-7.9c0-0.2,0.2-0.6,0.6-0.6h7.9c0.2,0,0.6,0.2,0.6,0.6v7.9
			C1387.6,1017,1387.4,1017.1,1387.1,1017.1z"/>
		<path class="st6" d="M1407.8,1017.1H1391c-0.2,0-0.6-0.2-0.6-0.6v-7.9c0-0.2,0.2-0.6,0.6-0.6h16.8c0.2,0,0.6,0.2,0.6,0.6v7.9
			C1408.6,1017,1408.4,1017.1,1407.8,1017.1z"/>
		<path class="st6" d="M1251.8,1005.5H1238c-0.2,0-0.6-0.2-0.6-0.6V997c0-0.2,0.2-0.6,0.6-0.6h13.8c0.2,0,0.6,0.2,0.6,0.6v7.9
			C1252.3,1005.3,1252,1005.5,1251.8,1005.5z"/>
		<path class="st6" d="M1275.8,1005.5h-7.9c-0.2,0-0.6-0.2-0.6-0.6V997c0-0.2,0.2-0.6,0.6-0.6h7.9c0.2,0,0.6,0.2,0.6,0.6v7.9
			C1276.4,1005.3,1276.2,1005.5,1275.8,1005.5z"/>
		<path class="st6" d="M1288,1005.5h-7.9c-0.2,0-0.6-0.2-0.6-0.6V997c0-0.2,0.2-0.6,0.6-0.6h7.9c0.2,0,0.6,0.2,0.6,0.6v7.9
			C1288.3,1005.3,1288.2,1005.5,1288,1005.5z"/>
		<path class="st6" d="M1299.8,1005.5h-7.9c-0.2,0-0.6-0.2-0.6-0.6V997c0-0.2,0.2-0.6,0.6-0.6h7.9c0.2,0,0.6,0.2,0.6,0.6v7.9
			C1300.4,1005.3,1300.2,1005.5,1299.8,1005.5z"/>
		<path class="st6" d="M1312,1005.5h-7.9c-0.2,0-0.6-0.2-0.6-0.6V997c0-0.2,0.2-0.6,0.6-0.6h7.9c0.2,0,0.6,0.2,0.6,0.6v7.9
			C1312.5,1005.3,1312.2,1005.5,1312,1005.5z"/>
		<path class="st6" d="M1323.9,1005.5h-7.9c-0.2,0-0.6-0.2-0.6-0.6V997c0-0.2,0.2-0.6,0.6-0.6h7.9c0.2,0,0.6,0.2,0.6,0.6v7.9
			C1324.4,1005.3,1324.2,1005.5,1323.9,1005.5z"/>
		<path class="st6" d="M1335.9,1005.5h-7.9c-0.2,0-0.6-0.2-0.6-0.6V997c0-0.2,0.2-0.6,0.6-0.6h7.9c0.2,0,0.6,0.2,0.6,0.6v7.9
			C1336.4,1005.3,1336.1,1005.5,1335.9,1005.5z"/>
		<path class="st6" d="M1347.9,1005.5h-7.9c-0.2,0-0.6-0.2-0.6-0.6V997c0-0.2,0.2-0.6,0.6-0.6h7.9c0.2,0,0.6,0.2,0.6,0.6v7.9
			C1348.4,1005.3,1348.3,1005.5,1347.9,1005.5z"/>
		<path class="st6" d="M1359.9,1005.5h-7.9c-0.2,0-0.6-0.2-0.6-0.6V997c0-0.2,0.2-0.6,0.6-0.6h7.9c0.2,0,0.6,0.2,0.6,0.6v7.9
			C1360.6,1005.3,1360.1,1005.5,1359.9,1005.5z"/>
		<path class="st6" d="M1372.1,1005.5h-7.9c-0.2,0-0.6-0.2-0.6-0.6V997c0-0.2,0.2-0.6,0.6-0.6h7.9c0.2,0,0.6,0.2,0.6,0.6v7.9
			C1372.5,1005.3,1372.3,1005.5,1372.1,1005.5z"/>
		<path class="st6" d="M1384,1005.5h-7.9c-0.2,0-0.6-0.2-0.6-0.6V997c0-0.2,0.2-0.6,0.6-0.6h7.9c0.2,0,0.6,0.2,0.6,0.6v7.9
			C1384.5,1005.3,1384.2,1005.5,1384,1005.5z"/>
		<path class="st6" d="M1395.9,1005.5h-7.9c-0.2,0-0.6-0.2-0.6-0.6V997c0-0.2,0.2-0.6,0.6-0.6h7.9c0.2,0,0.6,0.2,0.6,0.6v7.9
			C1396.5,1005.3,1396.3,1005.5,1395.9,1005.5z"/>
		<path class="st6" d="M1408,1005.5h-7.9c-0.2,0-0.6-0.2-0.6-0.6V997c0-0.2,0.2-0.6,0.6-0.6h7.9c0.2,0,0.6,0.2,0.6,0.6v7.9
			C1408.6,1005.3,1408.4,1005.5,1408,1005.5z"/>
		<path class="st6" d="M1269.9,993.7h-7.9c-0.2,0-0.6-0.2-0.6-0.6v-7.9c0-0.2,0.2-0.6,0.6-0.6h7.9c0.2,0,0.6,0.2,0.6,0.6v7.9
			C1270.5,993.5,1270.3,993.7,1269.9,993.7z"/>
		<path class="st6" d="M1282.1,993.7h-7.9c-0.2,0-0.6-0.2-0.6-0.6v-7.9c0-0.2,0.2-0.6,0.6-0.6h7.9c0.2,0,0.6,0.2,0.6,0.6v7.9
			C1282.6,993.5,1282.3,993.7,1282.1,993.7z"/>
		<path class="st6" d="M1294.1,993.7h-8.1c-0.2,0-0.6-0.2-0.6-0.6v-7.9c0-0.2,0.2-0.6,0.6-0.6h7.9c0.2,0,0.6,0.2,0.6,0.6v7.9
			C1294.5,993.5,1294.3,993.7,1294.1,993.7z"/>
		<path class="st6" d="M1306.1,993.7h-7.9c-0.2,0-0.6-0.2-0.6-0.6v-7.9c0-0.2,0.2-0.6,0.6-0.6h7.9c0.2,0,0.6,0.2,0.6,0.6v7.9
			C1306.7,993.5,1306.5,993.7,1306.1,993.7z"/>
		<path class="st6" d="M1318.2,993.7h-7.9c-0.2,0-0.6-0.2-0.6-0.6v-7.9c0-0.2,0.2-0.6,0.6-0.6h7.9c0.2,0,0.6,0.2,0.6,0.6v7.9
			C1318.5,993.5,1318.3,993.7,1318.2,993.7z"/>
		<path class="st6" d="M1330.1,993.7h-7.9c-0.2,0-0.6-0.2-0.6-0.6v-7.9c0-0.2,0.2-0.6,0.6-0.6h7.9c0.2,0,0.6,0.2,0.6,0.6v7.9
			C1330.7,993.5,1330.5,993.7,1330.1,993.7z"/>
		<path class="st6" d="M1342.2,993.7h-7.9c-0.2,0-0.6-0.2-0.6-0.6v-7.9c0-0.2,0.2-0.6,0.6-0.6h7.9c0.2,0,0.6,0.2,0.6,0.6v7.9
			C1342.6,993.5,1342.4,993.7,1342.2,993.7z"/>
		<path class="st6" d="M1354.1,993.7h-7.9c-0.2,0-0.6-0.2-0.6-0.6v-7.9c0-0.2,0.2-0.6,0.6-0.6h7.9c0.2,0,0.6,0.2,0.6,0.6v7.9
			C1354.7,993.5,1354.5,993.7,1354.1,993.7z"/>
		<path class="st6" d="M1366.2,993.7h-7.9c-0.2,0-0.6-0.2-0.6-0.6v-7.9c0-0.2,0.2-0.6,0.6-0.6h7.9c0.2,0,0.6,0.2,0.6,0.6v7.9
			C1366.6,993.5,1366.4,993.7,1366.2,993.7z"/>
		<path class="st6" d="M1378.4,993.7h-7.9c-0.2,0-0.6-0.2-0.6-0.6v-7.9c0-0.2,0.2-0.6,0.6-0.6h7.9c0.2,0,0.6,0.2,0.6,0.6v7.9
			C1378.7,993.5,1378.5,993.7,1378.4,993.7z"/>
		<path class="st6" d="M1390,993.7h-7.9c-0.2,0-0.6-0.2-0.6-0.6v-7.9c0-0.2,0.2-0.6,0.6-0.6h7.9c0.2,0,0.6,0.2,0.6,0.6v7.9
			C1390.8,993.5,1390.4,993.7,1390,993.7z"/>
		<path class="st6" d="M1408,993.7h-13.8c-0.2,0-0.6-0.2-0.6-0.6v-7.9c0-0.2,0.2-0.6,0.6-0.6h13.8c0.2,0,0.6,0.2,0.6,0.6v7.9
			C1408.6,993.5,1408.4,993.7,1408,993.7z"/>
		<path class="st6" d="M1258.4,982h-7.9c-0.2,0-0.6-0.2-0.6-0.6V978c0-0.2,0.2-0.6,0.6-0.6h7.9c0.2,0,0.6,0.2,0.6,0.6v3.4
			C1259,981.6,1258.8,982,1258.4,982z"/>
		<path class="st6" d="M1270.9,982h-7.9c-0.2,0-0.6-0.2-0.6-0.6V978c0-0.2,0.2-0.6,0.6-0.6h7.9c0.2,0,0.6,0.2,0.6,0.6v3.4
			C1271.4,981.6,1271.2,982,1270.9,982z"/>
		<path class="st6" d="M1283.4,982h-7.9c-0.2,0-0.6-0.2-0.6-0.6V978c0-0.2,0.2-0.6,0.6-0.6h7.9c0.2,0,0.6,0.2,0.6,0.6v3.4
			C1283.9,981.6,1283.8,982,1283.4,982z"/>
		<path class="st6" d="M1295.9,982h-7.9c-0.2,0-0.6-0.2-0.6-0.6V978c0-0.2,0.2-0.6,0.6-0.6h7.9c0.2,0,0.6,0.2,0.6,0.6v3.4
			C1296.5,981.6,1296.1,982,1295.9,982z"/>
		<path class="st6" d="M1308.2,982h-7.9c-0.2,0-0.6-0.2-0.6-0.6V978c0-0.2,0.2-0.6,0.6-0.6h7.9c0.2,0,0.6,0.2,0.6,0.6v3.4
			C1308.7,981.6,1308.5,982,1308.2,982z"/>
		<path class="st6" d="M1320.7,982h-7.9c-0.2,0-0.6-0.2-0.6-0.6V978c0-0.2,0.2-0.6,0.6-0.6h7.9c0.2,0,0.6,0.2,0.6,0.6v3.4
			C1321.2,981.6,1321.1,982,1320.7,982z"/>
		<path class="st6" d="M1333.1,982h-7.9c-0.2,0-0.6-0.2-0.6-0.6V978c0-0.2,0.2-0.6,0.6-0.6h7.9c0.2,0,0.6,0.2,0.6,0.6v3.4
			C1333.7,981.6,1333.5,982,1333.1,982z"/>
		<path class="st6" d="M1345.6,982h-7.9c-0.2,0-0.6-0.2-0.6-0.6V978c0-0.2,0.2-0.6,0.6-0.6h7.9c0.2,0,0.6,0.2,0.6,0.6v3.4
			C1346.2,981.6,1346,982,1345.6,982z"/>
		<path class="st6" d="M1358.1,982h-7.9c-0.2,0-0.6-0.2-0.6-0.6V978c0-0.2,0.2-0.6,0.6-0.6h7.9c0.2,0,0.6,0.2,0.6,0.6v3.4
			C1358.6,981.6,1358.4,982,1358.1,982z"/>
		<path class="st6" d="M1370.6,982h-7.9c-0.2,0-0.6-0.2-0.6-0.6V978c0-0.2,0.2-0.6,0.6-0.6h7.9c0.2,0,0.6,0.2,0.6,0.6v3.4
			C1371.2,981.6,1371,982,1370.6,982z"/>
		<path class="st6" d="M1383,982h-7.9c-0.2,0-0.6-0.2-0.6-0.6V978c0-0.2,0.2-0.6,0.6-0.6h7.9c0.2,0,0.6,0.2,0.6,0.6v3.4
			C1383.6,981.6,1383.4,982,1383,982z"/>
		<path class="st6" d="M1395.6,982h-7.9c-0.2,0-0.6-0.2-0.6-0.6V978c0-0.2,0.2-0.6,0.6-0.6h7.9c0.2,0,0.6,0.2,0.6,0.6v3.4
			C1396.1,981.6,1395.9,982,1395.6,982z"/>
		<path class="st6" d="M1408,982h-7.9c-0.2,0-0.6-0.2-0.6-0.6V978c0-0.2,0.2-0.6,0.6-0.6h7.9c0.2,0,0.6,0.2,0.6,0.6v3.4
			C1408.6,981.6,1408.4,982,1408,982z"/>
		<path class="st6" d="M1384.2,1042.1h-7.9c-0.2,0-0.6-0.2-0.6-0.6v-3.4c0-0.2,0.2-0.6,0.6-0.6h7.9c0.2,0,0.6,0.2,0.6,0.6v3.4
			C1384.8,1041.9,1384.5,1042.1,1384.2,1042.1z"/>
		<path class="st6" d="M1396.3,1042.1h-7.9c-0.2,0-0.6-0.2-0.6-0.6v-3.4c0-0.2,0.2-0.6,0.6-0.6h7.9c0.2,0,0.6,0.2,0.6,0.6v3.4
			C1396.7,1041.9,1396.5,1042.1,1396.3,1042.1z"/>
		<path class="st6" d="M1396.3,1036.4h-7.9c-0.2,0-0.6-0.2-0.6-0.6v-3.4c0-0.2,0.2-0.6,0.6-0.6h7.9c0.2,0,0.6,0.2,0.6,0.6v3.4
			C1396.7,1036.2,1396.5,1036.4,1396.3,1036.4z"/>
		<path class="st6" d="M1408.4,1042.1h-7.9c-0.2,0-0.6-0.2-0.6-0.6v-3.4c0-0.2,0.2-0.6,0.6-0.6h7.9c0.2,0,0.6,0.2,0.6,0.6v3.4
			C1408.7,1041.9,1408.6,1042.1,1408.4,1042.1z"/>
		<path class="st6" d="M1353.6,1095.5h-61.1c-1.1,0-2.2-0.9-2.2-2.2v-36.3c0-1.1,0.9-2.2,2.2-2.2h61.1c1.1,0,2.2,0.9,2.2,2.2v36.3
			C1355.8,1094.4,1354.9,1095.5,1353.6,1095.5z"/>
		<g>
			<line class="st6" x1="1218.7" y1="976.7" x2="1219.1" y2="976.7"/>
			<line class="st6" x1="1221.5" y1="976.7" x2="1229.4" y2="976.7"/>
			<line class="st6" x1="1230.7" y1="976.7" x2="1230.9" y2="976.7"/>
			<line class="st6" x1="1218.7" y1="979.5" x2="1219.1" y2="979.5"/>
			<line class="st6" x1="1221.5" y1="979.5" x2="1229.4" y2="979.5"/>
			<line class="st6" x1="1230.7" y1="979.5" x2="1230.9" y2="979.5"/>
			<line class="st6" x1="1218.7" y1="982.6" x2="1219.1" y2="982.6"/>
			<line class="st6" x1="1221.5" y1="982.6" x2="1229.4" y2="982.6"/>
			<line class="st6" x1="1230.7" y1="982.6" x2="1230.9" y2="982.6"/>
			<line class="st6" x1="1218.7" y1="985.4" x2="1219.1" y2="985.4"/>
			<line class="st6" x1="1221.5" y1="985.4" x2="1229.4" y2="985.4"/>
			<line class="st6" x1="1230.7" y1="985.4" x2="1230.9" y2="985.4"/>
			<line class="st6" x1="1218.7" y1="988.3" x2="1219.1" y2="988.3"/>
			<line class="st6" x1="1221.5" y1="988.3" x2="1229.4" y2="988.3"/>
			<line class="st6" x1="1230.7" y1="988.3" x2="1230.9" y2="988.3"/>
			<line class="st6" x1="1218.7" y1="991.3" x2="1219.1" y2="991.3"/>
			<line class="st6" x1="1221.5" y1="991.3" x2="1229.4" y2="991.3"/>
			<line class="st6" x1="1230.7" y1="991.3" x2="1230.9" y2="991.3"/>
			<line class="st6" x1="1218.7" y1="994.2" x2="1219.1" y2="994.2"/>
			<line class="st6" x1="1221.5" y1="994.2" x2="1229.4" y2="994.2"/>
			<line class="st6" x1="1230.7" y1="994.2" x2="1230.9" y2="994.2"/>
			<line class="st6" x1="1218.7" y1="997.3" x2="1219.1" y2="997.3"/>
			<line class="st6" x1="1221.5" y1="997.3" x2="1229.4" y2="997.3"/>
			<line class="st6" x1="1230.7" y1="997.3" x2="1230.9" y2="997.3"/>
			<line class="st6" x1="1218.7" y1="1000.1" x2="1219.1" y2="1000.1"/>
			<line class="st6" x1="1221.5" y1="1000.1" x2="1229.4" y2="1000.1"/>
			<line class="st6" x1="1230.7" y1="1000.1" x2="1230.9" y2="1000.1"/>
			<line class="st6" x1="1218.7" y1="1003.1" x2="1219.1" y2="1003.1"/>
			<line class="st6" x1="1221.5" y1="1003.1" x2="1229.4" y2="1003.1"/>
			<line class="st6" x1="1230.7" y1="1003.1" x2="1230.9" y2="1003.1"/>
			<line class="st6" x1="1218.7" y1="1006" x2="1219.1" y2="1006"/>
			<line class="st6" x1="1221.5" y1="1006" x2="1229.4" y2="1006"/>
			<line class="st6" x1="1230.7" y1="1006" x2="1230.9" y2="1006"/>
			<line class="st6" x1="1218.7" y1="1009" x2="1219.1" y2="1009"/>
			<line class="st6" x1="1221.5" y1="1009" x2="1229.4" y2="1009"/>
			<line class="st6" x1="1230.7" y1="1009" x2="1230.9" y2="1009"/>
			<line class="st6" x1="1218.7" y1="1012" x2="1219.1" y2="1012"/>
			<line class="st6" x1="1221.5" y1="1012" x2="1229.4" y2="1012"/>
			<line class="st6" x1="1230.7" y1="1012" x2="1230.9" y2="1012"/>
			<line class="st6" x1="1218.7" y1="1014.7" x2="1219.1" y2="1014.7"/>
			<line class="st6" x1="1221.5" y1="1014.7" x2="1229.4" y2="1014.7"/>
			<line class="st6" x1="1230.7" y1="1014.7" x2="1230.9" y2="1014.7"/>
			<line class="st6" x1="1218.7" y1="1017.7" x2="1219.1" y2="1017.7"/>
			<line class="st6" x1="1221.5" y1="1017.7" x2="1229.4" y2="1017.7"/>
			<line class="st6" x1="1230.7" y1="1017.7" x2="1230.9" y2="1017.7"/>
			<line class="st6" x1="1218.7" y1="1020.7" x2="1219.1" y2="1020.7"/>
			<line class="st6" x1="1221.5" y1="1020.7" x2="1229.4" y2="1020.7"/>
			<line class="st6" x1="1230.7" y1="1020.7" x2="1230.9" y2="1020.7"/>
			<line class="st6" x1="1218.7" y1="1023.6" x2="1219.1" y2="1023.6"/>
			<line class="st6" x1="1221.5" y1="1023.6" x2="1229.4" y2="1023.6"/>
			<line class="st6" x1="1230.7" y1="1023.6" x2="1230.9" y2="1023.6"/>
			<line class="st6" x1="1218.7" y1="1026.6" x2="1219.1" y2="1026.6"/>
			<line class="st6" x1="1221.5" y1="1026.6" x2="1229.4" y2="1026.6"/>
			<line class="st6" x1="1230.7" y1="1026.6" x2="1230.9" y2="1026.6"/>
			<line class="st6" x1="1218.7" y1="1029.5" x2="1219.1" y2="1029.5"/>
			<line class="st6" x1="1221.5" y1="1029.5" x2="1229.4" y2="1029.5"/>
			<line class="st6" x1="1230.7" y1="1029.5" x2="1230.9" y2="1029.5"/>
			<line class="st6" x1="1218.7" y1="1032.5" x2="1219.1" y2="1032.5"/>
			<line class="st6" x1="1221.5" y1="1032.5" x2="1229.4" y2="1032.5"/>
			<line class="st6" x1="1230.7" y1="1032.5" x2="1230.9" y2="1032.5"/>
			<line class="st6" x1="1218.7" y1="1035.5" x2="1219.1" y2="1035.5"/>
			<line class="st6" x1="1221.5" y1="1035.5" x2="1229.4" y2="1035.5"/>
			<line class="st6" x1="1230.7" y1="1035.5" x2="1230.9" y2="1035.5"/>
			<line class="st6" x1="1218.7" y1="1038.4" x2="1219.1" y2="1038.4"/>
			<line class="st6" x1="1221.5" y1="1038.4" x2="1229.4" y2="1038.4"/>
			<line class="st6" x1="1230.7" y1="1038.4" x2="1230.9" y2="1038.4"/>
			<line class="st6" x1="1218.7" y1="1041.4" x2="1219.1" y2="1041.4"/>
			<line class="st6" x1="1221.5" y1="1041.4" x2="1229.4" y2="1041.4"/>
			<line class="st6" x1="1230.7" y1="1041.4" x2="1230.9" y2="1041.4"/>
			<line class="st6" x1="1415.4" y1="976.7" x2="1415.7" y2="976.7"/>
			<line class="st6" x1="1418.3" y1="976.7" x2="1426.2" y2="976.7"/>
			<line class="st6" x1="1427.3" y1="976.7" x2="1427.7" y2="976.7"/>
			<line class="st6" x1="1415.4" y1="979.5" x2="1415.7" y2="979.5"/>
			<line class="st6" x1="1418.3" y1="979.5" x2="1426.2" y2="979.5"/>
			<line class="st6" x1="1427.3" y1="979.5" x2="1427.7" y2="979.5"/>
			<line class="st6" x1="1415.4" y1="982.6" x2="1415.7" y2="982.6"/>
			<line class="st6" x1="1418.3" y1="982.6" x2="1426.2" y2="982.6"/>
			<line class="st6" x1="1427.3" y1="982.6" x2="1427.7" y2="982.6"/>
			<line class="st6" x1="1415.4" y1="985.4" x2="1415.7" y2="985.4"/>
			<line class="st6" x1="1418.3" y1="985.4" x2="1426.2" y2="985.4"/>
			<line class="st6" x1="1427.3" y1="985.4" x2="1427.7" y2="985.4"/>
			<line class="st6" x1="1415.4" y1="988.3" x2="1415.7" y2="988.3"/>
			<line class="st6" x1="1418.3" y1="988.3" x2="1426.2" y2="988.3"/>
			<line class="st6" x1="1427.3" y1="988.3" x2="1427.7" y2="988.3"/>
			<line class="st6" x1="1415.4" y1="991.3" x2="1415.7" y2="991.3"/>
			<line class="st6" x1="1418.3" y1="991.3" x2="1426.2" y2="991.3"/>
			<line class="st6" x1="1427.3" y1="991.3" x2="1427.7" y2="991.3"/>
			<line class="st6" x1="1415.4" y1="994.2" x2="1415.7" y2="994.2"/>
			<line class="st6" x1="1418.3" y1="994.2" x2="1426.2" y2="994.2"/>
			<line class="st6" x1="1427.3" y1="994.2" x2="1427.7" y2="994.2"/>
			<line class="st6" x1="1415.4" y1="997.3" x2="1415.7" y2="997.3"/>
			<line class="st6" x1="1418.3" y1="997.3" x2="1426.2" y2="997.3"/>
			<line class="st6" x1="1427.3" y1="997.3" x2="1427.7" y2="997.3"/>
			<line class="st6" x1="1415.4" y1="1000.1" x2="1415.7" y2="1000.1"/>
			<line class="st6" x1="1418.3" y1="1000.1" x2="1426.2" y2="1000.1"/>
			<line class="st6" x1="1427.3" y1="1000.1" x2="1427.7" y2="1000.1"/>
			<line class="st6" x1="1415.4" y1="1003.1" x2="1415.7" y2="1003.1"/>
			<line class="st6" x1="1418.3" y1="1003.1" x2="1426.2" y2="1003.1"/>
			<line class="st6" x1="1427.3" y1="1003.1" x2="1427.7" y2="1003.1"/>
			<line class="st6" x1="1415.4" y1="1006" x2="1415.7" y2="1006"/>
			<line class="st6" x1="1418.3" y1="1006" x2="1426.2" y2="1006"/>
			<line class="st6" x1="1427.3" y1="1006" x2="1427.7" y2="1006"/>
			<line class="st6" x1="1415.4" y1="1009" x2="1415.7" y2="1009"/>
			<line class="st6" x1="1418.3" y1="1009" x2="1426.2" y2="1009"/>
			<line class="st6" x1="1427.3" y1="1009" x2="1427.7" y2="1009"/>
			<line class="st6" x1="1415.4" y1="1012" x2="1415.7" y2="1012"/>
			<line class="st6" x1="1418.3" y1="1012" x2="1426.2" y2="1012"/>
			<line class="st6" x1="1427.3" y1="1012" x2="1427.7" y2="1012"/>
			<line class="st6" x1="1415.4" y1="1014.7" x2="1415.7" y2="1014.7"/>
			<line class="st6" x1="1418.3" y1="1014.7" x2="1426.2" y2="1014.7"/>
			<line class="st6" x1="1427.3" y1="1014.7" x2="1427.7" y2="1014.7"/>
			<line class="st6" x1="1415.4" y1="1017.7" x2="1415.7" y2="1017.7"/>
			<line class="st6" x1="1418.3" y1="1017.7" x2="1426.2" y2="1017.7"/>
			<line class="st6" x1="1427.3" y1="1017.7" x2="1427.7" y2="1017.7"/>
			<line class="st6" x1="1415.4" y1="1020.7" x2="1415.7" y2="1020.7"/>
			<line class="st6" x1="1418.3" y1="1020.7" x2="1426.2" y2="1020.7"/>
			<line class="st6" x1="1427.3" y1="1020.7" x2="1427.7" y2="1020.7"/>
			<line class="st6" x1="1415.4" y1="1023.6" x2="1415.7" y2="1023.6"/>
			<line class="st6" x1="1418.3" y1="1023.6" x2="1426.2" y2="1023.6"/>
			<line class="st6" x1="1427.3" y1="1023.6" x2="1427.7" y2="1023.6"/>
			<line class="st6" x1="1415.4" y1="1026.6" x2="1415.7" y2="1026.6"/>
			<line class="st6" x1="1418.3" y1="1026.6" x2="1426.2" y2="1026.6"/>
			<line class="st6" x1="1427.3" y1="1026.6" x2="1427.7" y2="1026.6"/>
			<line class="st6" x1="1415.4" y1="1029.5" x2="1415.7" y2="1029.5"/>
			<line class="st6" x1="1418.3" y1="1029.5" x2="1426.2" y2="1029.5"/>
			<line class="st6" x1="1427.3" y1="1029.5" x2="1427.7" y2="1029.5"/>
			<line class="st6" x1="1415.4" y1="1032.5" x2="1415.7" y2="1032.5"/>
			<line class="st6" x1="1418.3" y1="1032.5" x2="1426.2" y2="1032.5"/>
			<line class="st6" x1="1427.3" y1="1032.5" x2="1427.7" y2="1032.5"/>
			<line class="st6" x1="1415.4" y1="1035.5" x2="1415.7" y2="1035.5"/>
			<line class="st6" x1="1418.3" y1="1035.5" x2="1426.2" y2="1035.5"/>
			<line class="st6" x1="1427.3" y1="1035.5" x2="1427.7" y2="1035.5"/>
			<line class="st6" x1="1415.4" y1="1038.4" x2="1415.7" y2="1038.4"/>
			<line class="st6" x1="1418.3" y1="1038.4" x2="1426.2" y2="1038.4"/>
			<line class="st6" x1="1427.3" y1="1038.4" x2="1427.7" y2="1038.4"/>
			<line class="st6" x1="1415.4" y1="1041.4" x2="1415.7" y2="1041.4"/>
			<line class="st6" x1="1418.3" y1="1041.4" x2="1426.2" y2="1041.4"/>
			<line class="st6" x1="1427.3" y1="1041.4" x2="1427.7" y2="1041.4"/>
		</g>
	</g>
	<g>
		<path class="st6" d="M1822.8,974.1h-216.4c-2.1,0-3.7-1.7-3.7-3.7V803.9c0-2.1,1.7-3.7,3.7-3.7h216.2c2.1,0,3.7,1.7,3.7,3.7v166.5
			C1826.3,972.3,1824.8,974.1,1822.8,974.1z"/>
		<line class="st6" x1="1602.7" y1="819.2" x2="1826.3" y2="819.2"/>
		<path class="st6" d="M1610.8,810.2c0,0.6,0.4,0.9,0.9,0.9c0.5,0,0.9-0.4,0.9-0.9c0-0.5-0.4-0.9-0.9-0.9
			C1611.3,809.3,1610.8,809.7,1610.8,810.2"/>
		<path class="st6" d="M1618.4,810.2c0,0.6,0.4,0.9,0.9,0.9c0.5,0,0.9-0.4,0.9-0.9c0-0.5-0.4-0.9-0.9-0.9
			C1618.8,809.3,1618.4,809.7,1618.4,810.2"/>
		<path class="st6" d="M1626.2,810.2c0,0.6,0.4,0.9,0.9,0.9c0.5,0,0.9-0.4,0.9-0.9c0-0.5-0.4-0.9-0.9-0.9
			C1626.6,809.3,1626.2,809.7,1626.2,810.2"/>
		<path class="st6" d="M1773.6,814.1h-118.3c-0.7,0-1.3-0.6-1.3-1.3V808c0-0.7,0.6-1.3,1.3-1.3h118.3c0.7,0,1.3,0.6,1.3,1.3v4.8
			C1775.1,813.5,1774.3,814.1,1773.6,814.1z"/>
	</g>
</g>
</svg>
