<svg width="800" height="123" viewBox="0 0 800 123" fill="none" xmlns="http://www.w3.org/2000/svg">
<g clip-path="url(#clip0)">
<path fill-rule="evenodd" clip-rule="evenodd" d="M309.219 1C306.861 1 304.919 2.90226 304.919 5.29981V127.234C304.919 129.591 306.821 131.533 309.219 131.533H491.335C493.743 131.533 495.67 129.539 495.589 127.298L495.589 127.289V5.29981C495.589 2.94215 493.686 1 491.289 1H309.219ZM303.919 5.29981C303.919 2.34372 306.315 0 309.219 0H491.289C494.245 0 496.589 2.39614 496.589 5.29981V127.271C496.686 130.103 494.277 132.533 491.335 132.533H309.219C306.263 132.533 303.919 130.137 303.919 127.234V5.29981Z" fill="#8D94A8"/>
<path fill-rule="evenodd" clip-rule="evenodd" d="M495.996 115.18H304.65V114.18H495.996V115.18Z" fill="#8D94A8"/>
<path fill-rule="evenodd" clip-rule="evenodd" d="M311.811 7.98425H488.927V107.657H311.811V7.98425ZM312.811 8.98425V106.657H487.927V8.98425H312.811Z" fill="#8D94A8"/>
<path fill-rule="evenodd" clip-rule="evenodd" d="M524.011 31.7966C522.014 31.7966 520.509 33.3803 520.509 35.2987V77.0201C520.509 79.0166 522.092 80.5222 524.011 80.5222H539.61C541.521 80.5222 543.112 78.9313 543.112 77.0201V35.2987C543.112 33.3022 541.528 31.7966 539.61 31.7966H524.011ZM519.574 35.2987C519.574 32.8787 521.484 30.8625 524.011 30.8625H539.61C542.03 30.8625 544.046 32.7722 544.046 35.2987V77.0201C544.046 79.4472 542.037 81.4562 539.61 81.4562H524.011C521.591 81.4562 519.574 79.5466 519.574 77.0201V35.2987Z" fill="#8D94A8"/>
<path fill-rule="evenodd" clip-rule="evenodd" d="M522.067 37.8777H541.692V74.3488H522.067V37.8777ZM523.001 38.8117V73.4148H540.758V38.8117H523.001Z" fill="#8D94A8"/>
<path fill-rule="evenodd" clip-rule="evenodd" d="M529.497 77.297C529.497 76.0094 530.598 74.9377 531.949 74.9377C533.25 74.9377 534.308 76.1449 534.308 77.3893C534.308 78.6905 533.101 79.7486 531.856 79.7486C530.555 79.7486 529.497 78.5415 529.497 77.297ZM531.949 75.8718C531.084 75.8718 530.431 76.5539 530.431 77.297C530.431 78.0833 531.127 78.8145 531.856 78.8145C532.643 78.8145 533.374 78.1188 533.374 77.3893C533.374 76.603 532.678 75.8718 531.949 75.8718Z" fill="#8D94A8"/>
<path fill-rule="evenodd" clip-rule="evenodd" d="M533.656 36.135H530.056V35.2009H533.656V36.135Z" fill="#8D94A8"/>
<path fill-rule="evenodd" clip-rule="evenodd" d="M531.848 33.0079C531.758 32.9601 531.652 32.9327 531.536 32.9395C531.355 32.9501 531.217 33.0394 531.128 33.1281C530.956 33.3003 530.882 33.5469 530.882 33.7757C530.882 34.03 531.008 34.2286 531.144 34.352C531.274 34.4698 531.462 34.5658 531.672 34.5658C531.921 34.5658 532.114 34.4205 532.216 34.3194C532.317 34.2182 532.462 34.0249 532.462 33.7757C532.462 33.5214 532.335 33.3228 532.2 33.1994C532.107 33.1157 531.986 33.043 531.848 33.0079ZM531.815 33.7561C531.812 33.761 531.807 33.7676 531.801 33.7757C531.797 33.7797 531.793 33.784 531.789 33.7886C531.771 33.8067 531.732 33.8383 531.672 33.8572C531.648 33.8647 531.621 33.8702 531.59 33.872C531.579 33.8727 531.567 33.8727 531.556 33.8723C531.543 33.8537 531.528 33.8219 531.528 33.7757C531.528 33.7109 531.548 33.6725 531.551 33.6661C531.553 33.6628 531.554 33.6605 531.555 33.6591C531.557 33.6581 531.559 33.6567 531.562 33.655C531.569 33.6516 531.607 33.6317 531.672 33.6317C531.713 33.6317 531.738 33.6411 531.748 33.6454C531.759 33.6502 531.767 33.6555 531.773 33.6608C531.781 33.6681 531.809 33.699 531.815 33.7561ZM531.819 33.7463C531.819 33.7463 531.819 33.7474 531.818 33.7495C531.819 33.7473 531.819 33.7463 531.819 33.7463ZM531.557 33.6571C531.557 33.6571 531.557 33.6573 531.556 33.6577L531.557 33.6571ZM531.554 33.6601C531.553 33.6604 531.553 33.6605 531.553 33.6605L531.554 33.6601Z" fill="#8D94A8"/>
<path fill-rule="evenodd" clip-rule="evenodd" d="M539.518 31.0582H535.733V30.1241H539.518V31.0582Z" fill="#8D94A8"/>
<path fill-rule="evenodd" clip-rule="evenodd" d="M519.58 92.7635C517.853 92.7635 516.447 94.1697 516.447 95.8963V137.895C516.447 139.621 517.853 141.028 519.58 141.028H582.254C583.981 141.028 585.387 139.621 585.387 137.895V95.8963C585.387 94.0891 583.947 92.7635 582.254 92.7635H519.58ZM515.513 95.8963C515.513 93.6539 517.337 91.8295 519.58 91.8295H582.254C584.439 91.8295 586.321 93.5499 586.321 95.8963V137.895C586.321 140.137 584.497 141.962 582.254 141.962H519.58C517.337 141.962 515.513 140.137 515.513 137.895V95.8963Z" fill="#8D94A8"/>
<path fill-rule="evenodd" clip-rule="evenodd" d="M522.667 95.8447H578.937V137.808H522.667V95.8447ZM523.601 96.7788V136.874H578.003V96.7788H523.601Z" fill="#8D94A8"/>
<path fill-rule="evenodd" clip-rule="evenodd" d="M580.034 116.849C580.034 115.807 580.843 114.998 581.885 114.998C582.928 114.998 583.737 115.807 583.737 116.849C583.737 117.892 582.928 118.701 581.885 118.701C580.843 118.701 580.034 117.892 580.034 116.849ZM581.885 115.932C581.359 115.932 580.968 116.323 580.968 116.849C580.968 117.376 581.359 117.767 581.885 117.767C582.412 117.767 582.803 117.376 582.803 116.849C582.803 116.323 582.412 115.932 581.885 115.932Z" fill="#8D94A8"/>
<path fill-rule="evenodd" clip-rule="evenodd" d="M519.511 116.334C519.688 116.132 519.932 116.105 520.088 116.105C520.252 116.105 520.461 116.147 520.626 116.311C520.79 116.476 520.832 116.685 520.832 116.849C520.832 117.014 520.79 117.223 520.626 117.387C520.461 117.552 520.252 117.593 520.088 117.593C519.923 117.593 519.714 117.552 519.55 117.387C519.385 117.223 519.344 117.014 519.344 116.849C519.344 116.749 519.348 116.52 519.511 116.334ZM520.275 116.838C520.27 116.816 520.255 116.772 520.21 116.727C520.155 116.672 520.102 116.662 520.088 116.66C520.088 116.66 520.088 116.66 520.088 116.66M520.088 116.66C520.074 116.662 520.02 116.672 519.965 116.727C519.91 116.782 519.9 116.835 519.898 116.849C519.9 116.863 519.91 116.917 519.965 116.972C520.012 117.019 520.058 117.033 520.079 117.038C520.081 117.037 520.084 117.036 520.087 117.035C520.087 117.035 520.087 117.035 520.088 117.035C520.118 117.026 520.169 117.001 520.214 116.949C520.248 116.911 520.264 116.873 520.272 116.849C520.273 116.845 520.274 116.841 520.275 116.838" fill="#8D94A8"/>
<path fill-rule="evenodd" clip-rule="evenodd" d="M561.117 55.7496C559.75 55.7496 558.584 56.8421 558.584 58.2825V72.0819C558.584 73.4487 559.676 74.6148 561.117 74.6148H571.732C573.187 74.6148 574.342 73.4401 574.265 72.0148L574.265 72.0022V58.2825C574.265 56.9157 573.172 55.7496 571.732 55.7496H561.117ZM557.65 58.2825C557.65 56.3076 559.253 54.8156 561.117 54.8156H571.732C573.707 54.8156 575.199 56.4186 575.199 58.2825V71.9775C575.299 73.9613 573.688 75.5488 571.732 75.5488H561.117C559.142 75.5488 557.65 73.9457 557.65 72.0819V58.2825Z" fill="#8D94A8"/>
<path fill-rule="evenodd" clip-rule="evenodd" d="M561.578 57.4572C560.897 57.4572 560.338 57.9569 560.338 58.6978V71.6204C560.338 72.3023 560.837 72.861 561.578 72.861H571.409C572.066 72.861 572.649 72.2475 572.649 71.6204V58.6978C572.649 58.0159 572.15 57.4572 571.409 57.4572H561.578ZM559.404 58.6978C559.404 57.4081 560.414 56.5232 561.578 56.5232H571.409C572.699 56.5232 573.583 57.5336 573.583 58.6978V71.6204C573.583 72.7471 572.598 73.7951 571.409 73.7951H561.578C560.289 73.7951 559.404 72.7846 559.404 71.6204V58.6978Z" fill="#8D94A8"/>
<path fill-rule="evenodd" clip-rule="evenodd" d="M574.819 70.5127V65.6667H575.753V70.5127H574.819Z" fill="#8D94A8"/>
<path fill-rule="evenodd" clip-rule="evenodd" d="M574.08 59.4308H575.332C575.913 59.4308 576.399 59.9168 576.399 60.4978V62.3478C576.449 62.6459 576.413 62.9698 576.187 63.2216C575.957 63.4772 575.626 63.5493 575.332 63.5493H574.08V59.4308ZM575.014 60.3648V62.6153H575.332C575.41 62.6153 575.458 62.6052 575.483 62.5967C575.483 62.5966 575.484 62.5965 575.484 62.5964C575.486 62.5766 575.485 62.5397 575.474 62.4816L575.465 62.4362V60.4978C575.465 60.4714 575.453 60.4372 575.423 60.4069C575.392 60.3766 575.358 60.3648 575.332 60.3648H575.014Z" fill="#8D94A8"/>
<path fill-rule="evenodd" clip-rule="evenodd" d="M559.964 74.384H573.162L572.435 75.9198C572.133 76.6279 572.018 77.3234 571.889 78.1025C571.854 78.3164 571.818 78.5367 571.776 78.7652L571.589 79.7955L571.585 79.8103C571.432 80.4203 570.862 80.7281 570.476 80.8384L570.443 80.8477L569.018 81.0377L569.012 81.0384C568.963 81.0435 568.914 81.0487 568.865 81.0539C568.047 81.1403 567.239 81.2256 566.471 81.2256C566.453 81.2256 566.436 81.2256 566.418 81.2256C565.601 81.2257 564.818 81.2257 564.158 81.0325L562.746 80.856C561.987 80.8388 561.655 80.2101 561.545 79.8253L561.538 79.8032L561.349 78.7617C561.167 77.7156 560.989 76.8275 560.683 75.9022L559.964 74.384ZM561.439 75.3181L561.551 75.5535L561.56 75.5803C561.894 76.5832 562.083 77.5337 562.269 78.5999L562.449 79.5886C562.482 79.6946 562.53 79.7839 562.585 79.8415C562.633 79.8919 562.688 79.9223 562.778 79.9223H562.807L564.354 80.1156L564.393 80.1276C564.911 80.2871 565.57 80.2915 566.471 80.2915C567.188 80.2915 567.95 80.2112 568.784 80.1232C568.825 80.1188 568.866 80.1145 568.907 80.1101L570.249 79.9313C570.485 79.8563 570.639 79.7155 570.676 79.5943L570.857 78.5982C570.892 78.4038 570.925 78.2058 570.958 78.0052C571.088 77.2082 571.226 76.3693 571.58 75.544L571.583 75.536L571.686 75.3181H561.439Z" fill="#8D94A8"/>
<path fill-rule="evenodd" clip-rule="evenodd" d="M566.174 48.9081H566.194C567.101 48.9081 567.956 49.0036 568.74 49.0959L568.744 49.0963L570.195 49.2777C570.954 49.2948 571.286 49.9235 571.396 50.3083L571.403 50.3304L571.592 51.3719C571.774 52.418 571.952 53.3061 572.258 54.2315L572.978 55.7496H559.779L560.506 54.2138C560.808 53.5057 560.923 52.8102 561.052 52.0311C561.087 51.8172 561.123 51.597 561.165 51.3684C561.165 51.3684 561.165 51.3684 561.165 51.3684L561.352 50.3381L561.356 50.3233C561.509 49.7134 562.079 49.4056 562.465 49.2953L562.498 49.2859L563.928 49.0952L566.174 48.9081ZM566.213 49.8421L564.029 50.0242L562.692 50.2023C562.456 50.2773 562.302 50.4181 562.265 50.5393L562.084 51.5355C562.049 51.7299 562.016 51.9278 561.983 52.1284C561.853 52.9254 561.715 53.7643 561.362 54.5896L561.358 54.5977L561.255 54.8155H571.502L571.39 54.5801L571.381 54.5533C571.047 53.5505 570.858 52.5999 570.672 51.5337C570.672 51.5331 570.672 51.5326 570.672 51.532L570.492 50.5451C570.459 50.439 570.411 50.3497 570.356 50.2921C570.308 50.2417 570.253 50.2113 570.163 50.2113H570.134L568.631 50.0235C568.631 50.0235 568.63 50.0234 568.63 50.0233C567.851 49.9318 567.052 49.8435 566.213 49.8421Z" fill="#8D94A8"/>
<path fill-rule="evenodd" clip-rule="evenodd" d="M605.783 43.6462C605.719 43.7132 605.705 43.7759 605.705 43.7907V113.849C605.705 113.877 605.722 113.935 605.786 113.997C605.853 114.061 605.916 114.075 605.931 114.075H731.556C731.57 114.075 731.629 114.062 731.694 113.998C731.752 113.939 731.782 113.869 731.782 113.803V43.7907C731.782 43.7628 731.765 43.7049 731.701 43.6435C731.634 43.5795 731.571 43.5654 731.556 43.5654H605.931C605.903 43.5654 605.845 43.5821 605.783 43.6462ZM605.108 43.0005C605.301 42.7993 605.589 42.6313 605.931 42.6313H731.556C731.865 42.6313 732.148 42.7788 732.347 42.9686C732.548 43.1611 732.716 43.4493 732.716 43.7907V113.803C732.716 114.153 732.561 114.452 732.354 114.659C732.153 114.86 731.866 115.009 731.556 115.009H605.931C605.622 115.009 605.339 114.861 605.14 114.672C604.939 114.479 604.771 114.191 604.771 113.849V43.7907C604.771 43.4824 604.919 43.1989 605.108 43.0005Z" fill="#8D94A8"/>
<path fill-rule="evenodd" clip-rule="evenodd" d="M732.156 111.824H605.331V110.89H732.156V111.824Z" fill="#8D94A8"/>
<path fill-rule="evenodd" clip-rule="evenodd" d="M662.738 114.075H674.795V128.208H662.738V114.075ZM663.672 115.009V127.274H673.861V115.009H663.672Z" fill="#8D94A8"/>
<path fill-rule="evenodd" clip-rule="evenodd" d="M668.79 118.239C667.94 118.239 667.272 118.907 667.272 119.757V122.757C667.272 123.607 667.94 124.274 668.79 124.274C669.523 124.274 670.224 123.628 670.307 122.736V119.757C670.307 118.907 669.639 118.239 668.79 118.239ZM666.338 119.757C666.338 118.391 667.424 117.305 668.79 117.305C670.155 117.305 671.241 118.391 671.241 119.757V122.776L671.24 122.796C671.13 124.11 670.082 125.208 668.79 125.208C667.424 125.208 666.338 124.122 666.338 122.757V119.757Z" fill="#8D94A8"/>
<path fill-rule="evenodd" clip-rule="evenodd" d="M755.279 69.772C753.701 69.772 752.461 71.0473 752.461 72.5896V132.126C752.461 133.703 753.736 134.943 755.279 134.943H795.108C796.693 134.943 797.935 133.795 798.018 132.111V72.5896C798.018 71.0124 796.743 69.772 795.2 69.772H755.279ZM751.173 72.5896C751.173 70.3474 752.979 68.4844 755.279 68.4844H795.2C797.442 68.4844 799.305 70.2901 799.305 72.5896V132.14L799.305 132.155C799.197 134.525 797.395 136.231 795.108 136.231H755.279C753.036 136.231 751.173 134.425 751.173 132.126V72.5896Z" fill="#8D94A8"/>
<path fill-rule="evenodd" clip-rule="evenodd" d="M755.004 75.4995H795.29V129.447H755.004V75.4995ZM756.292 76.7872V128.159H794.003V76.7872H756.292Z" fill="#8D94A8"/>
<path fill-rule="evenodd" clip-rule="evenodd" d="M774.518 72.6156C774.65 72.4654 774.873 72.3149 775.17 72.3149C775.403 72.3149 775.606 72.417 775.744 72.5377C775.894 72.6691 776.045 72.8919 776.045 73.1895C776.045 73.4225 775.943 73.6255 775.822 73.7635C775.691 73.9136 775.468 74.0641 775.17 74.0641C774.955 74.0641 774.725 73.9895 774.548 73.8121C774.37 73.6347 774.296 73.4051 774.296 73.1895C774.296 72.9565 774.398 72.7535 774.518 72.6156ZM775.55 73.3622C775.565 73.3271 775.583 73.2685 775.583 73.1895C775.583 73.1124 775.555 72.9982 775.458 72.9016C775.362 72.805 775.247 72.7765 775.17 72.7765C775.011 72.7765 774.904 72.8577 774.853 72.9156C774.827 72.9454 774.806 72.9792 774.79 73.0169C774.775 73.052 774.757 73.1106 774.757 73.1895C774.757 73.3487 774.838 73.4562 774.896 73.5068C774.926 73.5329 774.96 73.5539 774.998 73.5697C775.033 73.5843 775.091 73.6026 775.17 73.6026C775.329 73.6026 775.437 73.5213 775.487 73.4635C775.514 73.4336 775.535 73.3999 775.55 73.3622Z" fill="#8D94A8"/>
<path fill-rule="evenodd" clip-rule="evenodd" d="M129.872 91.5112C128.727 91.5112 127.841 92.432 127.841 93.5425V138.402C127.841 139.547 128.762 140.433 129.872 140.433H159.963C161.084 140.433 162.031 139.495 161.995 138.419L161.994 138.411V93.5425C161.994 92.3978 161.074 91.5112 159.963 91.5112H129.872ZM126.826 93.5425C126.826 91.8838 128.155 90.4969 129.872 90.4969H159.963C161.622 90.4969 163.009 91.8257 163.009 93.5425V138.394C163.06 140.083 161.609 141.448 159.963 141.448H129.872C128.213 141.448 126.826 140.119 126.826 138.402V93.5425Z" fill="#8D94A8"/>
<path fill-rule="evenodd" clip-rule="evenodd" d="M129.734 95.666H160.147V136.279H129.734V95.666ZM130.748 96.6803V135.264H159.133V96.6803H130.748Z" fill="#8D94A8"/>
<path fill-rule="evenodd" clip-rule="evenodd" d="M144.338 93.414C144.48 93.2435 144.68 93.1738 144.871 93.1738C145.083 93.1738 145.251 93.2742 145.357 93.38C145.463 93.4858 145.563 93.6544 145.563 93.8656C145.563 94.0767 145.463 94.2453 145.357 94.3511C145.251 94.4569 145.083 94.5573 144.871 94.5573C144.66 94.5573 144.492 94.4569 144.386 94.3511C144.28 94.2453 144.18 94.0766 144.18 93.8656C144.18 93.7441 144.209 93.5682 144.338 93.414ZM145.117 94.0633C145.188 93.9783 145.194 93.8948 145.194 93.8656C145.194 93.7468 145.14 93.6705 145.103 93.6339C145.067 93.5973 144.99 93.543 144.871 93.543C144.753 93.543 144.676 93.5973 144.64 93.6339C144.603 93.6704 144.549 93.7468 144.549 93.8656C144.549 93.9844 144.603 94.0607 144.64 94.0973C144.676 94.1339 144.753 94.1881 144.871 94.1881C144.924 94.1881 145.032 94.1646 145.117 94.0633Z" fill="#8D94A8"/>
<path fill-rule="evenodd" clip-rule="evenodd" d="M137.441 42.5901C136.575 42.5901 135.917 43.2785 135.917 44.1137V74.9432C135.917 75.8094 136.606 76.4668 137.441 76.4668H151.148C151.857 76.4668 152.589 75.7949 152.672 74.9208V44.1137C152.672 43.2474 151.983 42.5901 151.148 42.5901H137.441ZM134.903 44.1137C134.903 42.7335 136 41.5758 137.441 41.5758H151.148C152.528 41.5758 153.686 42.6723 153.686 44.1137V74.9643L153.684 74.9853C153.573 76.3169 152.465 77.4811 151.148 77.4811H137.441C136.061 77.4811 134.903 76.3846 134.903 74.9432V44.1137Z" fill="#8D94A8"/>
<path fill-rule="evenodd" clip-rule="evenodd" d="M152.994 45.7746H135.456V44.7603H152.994V45.7746Z" fill="#8D94A8"/>
<path fill-rule="evenodd" clip-rule="evenodd" d="M152.902 74.112H135.318V73.0977H152.902V74.112Z" fill="#8D94A8"/>
<path fill-rule="evenodd" clip-rule="evenodd" d="M150.331 43.2224C150.396 43.1901 150.506 43.145 150.64 43.145C150.82 43.145 150.998 43.2196 151.13 43.3254C151.279 43.4439 151.425 43.6482 151.425 43.9291C151.425 44.1087 151.35 44.2868 151.244 44.419C151.126 44.5672 150.921 44.7132 150.64 44.7132C150.461 44.7132 150.283 44.6385 150.151 44.5328C150.002 44.4142 149.856 44.2099 149.856 43.9291C149.856 43.6477 150.028 43.4519 150.128 43.3617C150.188 43.3074 150.258 43.2592 150.331 43.2224ZM150.833 44.0811C150.845 44.0596 150.871 44.0069 150.871 43.9291C150.871 43.8329 150.817 43.767 150.784 43.7408C150.769 43.7287 150.754 43.7207 150.739 43.7148C150.727 43.7103 150.694 43.6988 150.64 43.6988C150.544 43.6988 150.478 43.7525 150.452 43.7853C150.44 43.8004 150.432 43.8153 150.426 43.8307C150.422 43.8425 150.41 43.8757 150.41 43.9291C150.41 44.0253 150.464 44.0911 150.497 44.1174C150.512 44.1295 150.527 44.1375 150.542 44.1434C150.554 44.1479 150.587 44.1593 150.64 44.1593C150.69 44.1593 150.726 44.1506 150.744 44.1452C150.764 44.1393 150.778 44.1331 150.785 44.1296C150.798 44.123 150.804 44.1181 150.807 44.1157C150.809 44.1135 150.82 44.1035 150.833 44.0811Z" fill="#8D94A8"/>
<path fill-rule="evenodd" clip-rule="evenodd" d="M149.256 44.0209H139.241V43.0066H149.256V44.0209Z" fill="#8D94A8"/>
<path fill-rule="evenodd" clip-rule="evenodd" d="M149.256 44.2977H139.241V43.2834H149.256V44.2977Z" fill="#8D94A8"/>
<path fill-rule="evenodd" clip-rule="evenodd" d="M149.256 44.5285H139.241V43.5142H149.256V44.5285Z" fill="#8D94A8"/>
<path fill-rule="evenodd" clip-rule="evenodd" d="M149.256 44.8054H139.241V43.7911H149.256V44.8054Z" fill="#8D94A8"/>
<path fill-rule="evenodd" clip-rule="evenodd" d="M149.256 75.1735H139.241V74.1592H149.256V75.1735Z" fill="#8D94A8"/>
<path fill-rule="evenodd" clip-rule="evenodd" d="M149.256 75.3581H139.241V74.3438H149.256V75.3581Z" fill="#8D94A8"/>
<path fill-rule="evenodd" clip-rule="evenodd" d="M149.256 75.6812H139.241V74.6669H149.256V75.6812Z" fill="#8D94A8"/>
<path fill-rule="evenodd" clip-rule="evenodd" d="M149.256 75.958H139.241V74.9437H149.256V75.958Z" fill="#8D94A8"/>
<path fill-rule="evenodd" clip-rule="evenodd" d="M184.978 30.129C183.269 30.129 181.839 31.5215 181.839 33.2679V95.0194C181.839 96.8079 183.306 98.2385 185.14 98.1587L185.151 98.1582H281.159C282.867 98.1582 284.297 96.7658 284.297 95.0194V33.2679C284.297 31.5593 282.905 30.129 281.159 30.129H184.978ZM180.824 33.2679C180.824 30.953 182.717 29.1147 184.978 29.1147H281.159C283.473 29.1147 285.312 31.0075 285.312 33.2679V95.0194C285.312 97.3343 283.419 99.1725 281.159 99.1725H185.173C182.766 99.271 180.824 97.3808 180.824 95.0194V33.2679Z" fill="#8D94A8"/>
<path fill-rule="evenodd" clip-rule="evenodd" d="M185.947 34.4684H280.373V93.7266H185.947V34.4684ZM186.962 35.4827V92.7123H279.359V35.4827H186.962Z" fill="#8D94A8"/>
<path fill-rule="evenodd" clip-rule="evenodd" d="M274.143 103.279H192.224V99.2213H274.143V103.279Z" fill="#8D94A8"/>
<path fill-rule="evenodd" clip-rule="evenodd" d="M184.978 99.8186C183.269 99.8186 181.839 101.211 181.839 102.957V164.617C181.839 166.343 183.294 167.756 185.162 167.756H281.158C282.867 167.756 284.297 166.363 284.297 164.617V102.957C284.297 101.249 282.905 99.8186 281.158 99.8186H184.978ZM180.824 102.957C180.824 100.643 182.717 98.8043 184.978 98.8043H281.158C283.473 98.8043 285.312 100.697 285.312 102.957V164.617C285.312 166.932 283.419 168.77 281.158 168.77H185.162C182.784 168.77 180.824 166.952 180.824 164.617V102.957Z" fill="#8D94A8"/>
<path fill-rule="evenodd" clip-rule="evenodd" d="M194.207 109.372V110.435H197.393V109.372H194.207ZM193.374 108.652C193.492 108.504 193.696 108.358 193.977 108.358H197.623C197.803 108.358 197.981 108.432 198.113 108.538C198.261 108.657 198.407 108.861 198.407 109.142V111.024L198.177 111.14C198.175 111.141 198.174 111.143 198.173 111.144C198.166 111.152 198.156 111.164 198.141 111.181C198.117 111.208 198.067 111.263 198.005 111.312C197.948 111.356 197.814 111.449 197.623 111.449H193.977C193.798 111.449 193.62 111.374 193.487 111.269C193.339 111.15 193.193 110.946 193.193 110.665V109.142C193.193 108.962 193.268 108.784 193.374 108.652ZM198.195 111.12C198.2 111.115 198.2 111.115 198.195 111.12V111.12Z" fill="#8D94A8"/>
<path fill-rule="evenodd" clip-rule="evenodd" d="M194.207 112.649V115.834H197.393V112.649H194.207ZM193.374 111.929C193.492 111.781 193.696 111.635 193.977 111.635H197.623C197.803 111.635 197.981 111.709 198.113 111.815C198.261 111.934 198.407 112.138 198.407 112.419V116.184L198.354 116.292C198.296 116.408 198.221 116.531 198.12 116.631C198.019 116.732 197.851 116.849 197.623 116.849H193.977C193.798 116.849 193.62 116.774 193.487 116.668C193.339 116.55 193.193 116.346 193.193 116.065V112.419C193.193 112.239 193.268 112.061 193.374 111.929Z" fill="#8D94A8"/>
<path fill-rule="evenodd" clip-rule="evenodd" d="M199.653 112.649V115.834H202.839V112.649H199.653ZM198.82 111.929C198.938 111.781 199.142 111.635 199.423 111.635H203.069C203.249 111.635 203.427 111.709 203.559 111.815C203.707 111.934 203.853 112.138 203.853 112.419V116.018C203.893 116.295 203.769 116.528 203.594 116.668C203.431 116.798 203.233 116.849 203.069 116.849H199.423C199.244 116.849 199.066 116.774 198.933 116.668C198.785 116.55 198.639 116.346 198.639 116.065V112.419C198.639 112.239 198.714 112.061 198.82 111.929Z" fill="#8D94A8"/>
<path fill-rule="evenodd" clip-rule="evenodd" d="M202.423 118.095V121.28H205.608V118.095H202.423ZM201.589 117.375C201.707 117.227 201.911 117.081 202.192 117.081H205.838C206.018 117.081 206.196 117.155 206.328 117.261C206.476 117.38 206.622 117.584 206.622 117.865V121.63L206.569 121.737C206.511 121.854 206.436 121.977 206.335 122.077C206.234 122.178 206.066 122.295 205.838 122.295H202.192C202.013 122.295 201.835 122.22 201.702 122.114C201.554 121.996 201.408 121.791 201.408 121.511V117.865C201.408 117.685 201.483 117.507 201.589 117.375Z" fill="#8D94A8"/>
<path fill-rule="evenodd" clip-rule="evenodd" d="M203.715 123.495V126.68H206.9V123.495H203.715ZM202.881 122.775C202.999 122.626 203.204 122.48 203.485 122.48H207.131C207.31 122.48 207.488 122.555 207.621 122.661C207.769 122.779 207.915 122.984 207.915 123.264V126.91C207.915 127.07 207.887 127.329 207.672 127.517C207.474 127.691 207.232 127.694 207.131 127.694H203.485C203.305 127.694 203.127 127.62 202.995 127.514C202.847 127.396 202.701 127.191 202.701 126.91V123.264C202.701 123.085 202.775 122.907 202.881 122.775Z" fill="#8D94A8"/>
<path fill-rule="evenodd" clip-rule="evenodd" d="M194.115 123.495V126.68H201.408V123.495H194.115ZM201.397 126.83C201.397 126.83 201.397 126.83 201.397 126.829L201.397 126.83ZM193.281 122.775C193.4 122.626 193.604 122.48 193.885 122.48H201.639C201.818 122.48 201.996 122.555 202.128 122.661C202.277 122.779 202.423 122.984 202.423 123.264V127.008L202.386 127.099C202.342 127.209 202.281 127.353 202.185 127.465C202.127 127.533 202.049 127.599 201.944 127.644C201.843 127.687 201.749 127.694 201.685 127.694H193.885C193.705 127.694 193.527 127.62 193.395 127.514C193.247 127.396 193.101 127.191 193.101 126.91V123.264C193.101 123.085 193.176 122.907 193.281 122.775Z" fill="#8D94A8"/>
<path fill-rule="evenodd" clip-rule="evenodd" d="M209.345 123.495V126.68H212.531V123.495H209.345ZM208.511 122.775C208.63 122.626 208.834 122.48 209.115 122.48H212.761C212.941 122.48 213.119 122.555 213.251 122.661C213.399 122.779 213.545 122.984 213.545 123.264V126.91C213.545 127.185 213.424 127.412 213.225 127.551C213.056 127.669 212.874 127.694 212.761 127.694H209.115C208.936 127.694 208.757 127.62 208.625 127.514C208.477 127.396 208.331 127.191 208.331 126.91V123.264C208.331 123.085 208.406 122.907 208.511 122.775Z" fill="#8D94A8"/>
<path fill-rule="evenodd" clip-rule="evenodd" d="M214.837 123.495V126.68H218.023V123.495H214.837ZM218.022 126.933C218.022 126.933 218.022 126.931 218.023 126.927C218.022 126.931 218.022 126.933 218.022 126.933ZM218.299 126.68C218.307 126.68 218.307 126.68 218.299 126.68H218.299ZM214.004 122.774C214.122 122.626 214.326 122.48 214.607 122.48H218.253C218.433 122.48 218.611 122.555 218.743 122.661C218.891 122.779 219.037 122.984 219.037 123.264V126.91C219.037 127.072 219.009 127.311 218.825 127.494C218.638 127.682 218.405 127.694 218.299 127.694H214.607C214.428 127.694 214.25 127.62 214.117 127.514C213.969 127.396 213.823 127.191 213.823 126.91V123.264C213.823 123.085 213.898 122.907 214.004 122.774Z" fill="#8D94A8"/>
<path fill-rule="evenodd" clip-rule="evenodd" d="M220.422 123.495V126.68H223.607V123.495H220.422ZM219.588 122.775C219.707 122.626 219.911 122.48 220.192 122.48H223.838C224.017 122.48 224.195 122.555 224.328 122.661C224.476 122.779 224.622 122.984 224.622 123.264V126.91C224.622 127.185 224.5 127.412 224.302 127.551C224.132 127.669 223.95 127.694 223.838 127.694H220.192C220.012 127.694 219.834 127.62 219.702 127.514C219.554 127.396 219.408 127.191 219.408 126.91V123.264C219.408 123.085 219.482 122.907 219.588 122.775Z" fill="#8D94A8"/>
<path fill-rule="evenodd" clip-rule="evenodd" d="M225.96 123.495V126.68H229.146V123.495H225.96ZM229.144 126.934C229.144 126.934 229.145 126.932 229.145 126.929C229.145 126.933 229.145 126.934 229.144 126.934ZM225.126 122.775C225.245 122.626 225.449 122.48 225.73 122.48H229.376C229.556 122.48 229.734 122.555 229.866 122.661C230.014 122.779 230.16 122.984 230.16 123.264V126.91C230.16 127.077 230.129 127.291 229.98 127.465C229.814 127.659 229.598 127.694 229.468 127.694H225.73C225.55 127.694 225.372 127.62 225.24 127.514C225.092 127.396 224.946 127.191 224.946 126.91V123.264C224.946 123.085 225.02 122.907 225.126 122.775Z" fill="#8D94A8"/>
<path fill-rule="evenodd" clip-rule="evenodd" d="M231.544 123.495V126.68H234.73V123.495H231.544ZM230.711 122.775C230.829 122.626 231.033 122.48 231.314 122.48H234.96C235.14 122.48 235.318 122.555 235.45 122.661C235.598 122.779 235.744 122.984 235.744 123.264V126.91C235.744 127.07 235.717 127.329 235.502 127.517C235.304 127.691 235.062 127.694 234.96 127.694H231.314C231.135 127.694 230.957 127.62 230.824 127.514C230.676 127.396 230.53 127.191 230.53 126.91V123.264C230.53 123.085 230.605 122.907 230.711 122.775Z" fill="#8D94A8"/>
<path fill-rule="evenodd" clip-rule="evenodd" d="M237.129 123.495V126.68H240.314V123.495H237.129ZM236.295 122.774C236.414 122.626 236.618 122.48 236.899 122.48H240.545C240.724 122.48 240.902 122.555 241.035 122.661C241.183 122.779 241.329 122.984 241.329 123.264V126.961L241.319 127.01C241.277 127.218 241.18 127.405 241.012 127.536C240.849 127.662 240.672 127.694 240.545 127.694H236.899C236.719 127.694 236.541 127.62 236.409 127.514C236.261 127.396 236.115 127.191 236.115 126.91V123.264C236.115 123.085 236.189 122.907 236.295 122.774Z" fill="#8D94A8"/>
<path fill-rule="evenodd" clip-rule="evenodd" d="M242.667 123.495V126.68H245.853V123.495H242.667ZM246.084 126.68C246.085 126.68 246.086 126.68 246.086 126.68L246.084 126.68ZM241.833 122.774C241.952 122.626 242.156 122.48 242.437 122.48H246.083C246.263 122.48 246.441 122.555 246.573 122.661C246.721 122.779 246.867 122.984 246.867 123.264V126.961L246.857 127.01C246.826 127.168 246.76 127.368 246.59 127.517C246.408 127.676 246.201 127.694 246.083 127.694H242.437C242.257 127.694 242.079 127.62 241.947 127.514C241.799 127.396 241.653 127.191 241.653 126.91V123.264C241.653 123.085 241.728 122.907 241.833 122.774Z" fill="#8D94A8"/>
<path fill-rule="evenodd" clip-rule="evenodd" d="M248.252 123.495V126.68H251.437V123.495H248.252ZM247.418 122.775C247.536 122.626 247.741 122.48 248.021 122.48H251.667C251.847 122.48 252.025 122.555 252.157 122.661C252.306 122.779 252.451 122.984 252.451 123.264V127.008L252.415 127.099C252.355 127.248 252.272 127.401 252.14 127.517C251.986 127.651 251.815 127.694 251.667 127.694H248.021C247.842 127.694 247.664 127.62 247.531 127.514C247.383 127.396 247.237 127.191 247.237 126.91V123.264C247.237 123.085 247.312 122.907 247.418 122.775Z" fill="#8D94A8"/>
<path fill-rule="evenodd" clip-rule="evenodd" d="M253.882 123.495V126.68H257.068V123.495H253.882ZM253.048 122.775C253.167 122.626 253.371 122.48 253.652 122.48H257.298C257.478 122.48 257.656 122.555 257.788 122.661C257.936 122.779 258.082 122.984 258.082 123.264V127.008L258.046 127.099C257.986 127.248 257.903 127.401 257.77 127.517C257.617 127.651 257.446 127.694 257.298 127.694H253.652C253.472 127.694 253.294 127.62 253.162 127.514C253.014 127.396 252.868 127.191 252.868 126.91V123.264C252.868 123.085 252.942 122.907 253.048 122.775Z" fill="#8D94A8"/>
<path fill-rule="evenodd" clip-rule="evenodd" d="M259.374 123.495V126.68H262.56V123.495H259.374ZM262.791 126.68C262.792 126.68 262.793 126.68 262.793 126.68L262.791 126.68ZM258.54 122.774C258.659 122.626 258.863 122.48 259.144 122.48H262.79C262.97 122.48 263.148 122.555 263.28 122.661C263.428 122.779 263.574 122.984 263.574 123.264V126.961L263.564 127.01C263.533 127.168 263.467 127.368 263.297 127.517C263.115 127.676 262.908 127.694 262.79 127.694H259.144C258.964 127.694 258.786 127.62 258.654 127.514C258.506 127.396 258.36 127.191 258.36 126.91V123.264C258.36 123.085 258.435 122.907 258.54 122.774Z" fill="#8D94A8"/>
<path fill-rule="evenodd" clip-rule="evenodd" d="M264.866 123.495V126.68H272.159V123.495H264.866ZM272.202 127.115C272.202 127.115 272.201 127.114 272.201 127.112C272.201 127.114 272.202 127.115 272.202 127.115ZM264.032 122.775C264.151 122.626 264.355 122.48 264.636 122.48H272.39C272.569 122.48 272.747 122.555 272.88 122.661C273.028 122.779 273.174 122.984 273.174 123.264V126.826C273.193 126.891 273.208 126.968 273.208 127.051C273.208 127.208 273.152 127.384 273.001 127.517C272.874 127.628 272.73 127.662 272.649 127.676C272.559 127.692 272.468 127.694 272.39 127.694H264.636C264.456 127.694 264.278 127.62 264.146 127.514C263.998 127.396 263.852 127.191 263.852 126.91V123.264C263.852 123.085 263.927 122.907 264.032 122.775Z" fill="#8D94A8"/>
<path fill-rule="evenodd" clip-rule="evenodd" d="M194.115 118.095V121.28H200.024V118.095H194.115ZM193.281 117.375C193.4 117.227 193.604 117.081 193.885 117.081H200.254C200.434 117.081 200.612 117.155 200.744 117.261C200.892 117.379 201.038 117.584 201.038 117.865V121.573L201.023 121.634C200.934 121.989 200.631 122.295 200.254 122.295H193.885C193.705 122.295 193.527 122.22 193.395 122.114C193.247 121.996 193.101 121.791 193.101 121.511V117.865C193.101 117.685 193.176 117.507 193.281 117.375Z" fill="#8D94A8"/>
<path fill-rule="evenodd" clip-rule="evenodd" d="M207.961 118.095V121.28H211.146V118.095H207.961ZM207.127 117.375C207.245 117.227 207.45 117.081 207.731 117.081H211.377C211.556 117.081 211.734 117.155 211.866 117.261C212.015 117.38 212.161 117.584 212.161 117.865V121.511C212.161 121.681 212.118 121.902 211.943 122.077C211.768 122.252 211.547 122.295 211.377 122.295H207.731C207.551 122.295 207.373 122.22 207.241 122.114C207.092 121.996 206.947 121.791 206.947 121.511V117.865C206.947 117.685 207.021 117.507 207.127 117.375Z" fill="#8D94A8"/>
<path fill-rule="evenodd" clip-rule="evenodd" d="M213.545 118.095V121.28H216.731V118.095H213.545ZM216.7 121.384C216.7 121.385 216.7 121.385 216.701 121.384C216.701 121.384 216.701 121.384 216.7 121.384ZM212.711 117.375C212.83 117.227 213.034 117.081 213.315 117.081H216.961C217.141 117.081 217.319 117.155 217.451 117.261C217.599 117.38 217.745 117.584 217.745 117.865V121.68L217.644 121.815C217.621 121.845 217.602 121.871 217.583 121.898C217.575 121.908 217.567 121.919 217.559 121.931C217.534 121.965 217.5 122.01 217.464 122.052C217.387 122.14 217.224 122.295 216.961 122.295H213.315C213.135 122.295 212.957 122.22 212.825 122.114C212.677 121.996 212.531 121.791 212.531 121.511V117.865C212.531 117.685 212.605 117.507 212.711 117.375Z" fill="#8D94A8"/>
<path fill-rule="evenodd" clip-rule="evenodd" d="M219.037 118.095V121.28H222.223V118.095H219.037ZM218.203 117.375C218.322 117.227 218.526 117.081 218.807 117.081H222.453C222.633 117.081 222.811 117.155 222.943 117.261C223.091 117.38 223.237 117.584 223.237 117.865V121.511C223.237 121.681 223.194 121.902 223.019 122.077C222.845 122.252 222.624 122.295 222.453 122.295H218.807C218.627 122.295 218.449 122.22 218.317 122.114C218.169 121.996 218.023 121.791 218.023 121.511V117.865C218.023 117.685 218.098 117.507 218.203 117.375Z" fill="#8D94A8"/>
<path fill-rule="evenodd" clip-rule="evenodd" d="M224.668 118.095V121.28H227.853V118.095H224.668ZM223.834 117.375C223.953 117.226 224.157 117.081 224.438 117.081H228.084C228.263 117.081 228.441 117.155 228.573 117.261C228.722 117.379 228.868 117.584 228.868 117.865V121.573L228.853 121.634C228.764 121.989 228.461 122.295 228.084 122.295H224.438C224.258 122.295 224.08 122.22 223.948 122.114C223.8 121.996 223.654 121.791 223.654 121.511V117.865C223.654 117.685 223.728 117.507 223.834 117.375Z" fill="#8D94A8"/>
<path fill-rule="evenodd" clip-rule="evenodd" d="M230.16 118.095V121.28H233.345V118.095H230.16ZM229.326 117.375C229.445 117.227 229.649 117.081 229.93 117.081H233.576C233.755 117.081 233.933 117.155 234.066 117.261C234.214 117.38 234.36 117.584 234.36 117.865V121.573L234.345 121.634C234.309 121.777 234.242 121.943 234.107 122.077C233.96 122.224 233.77 122.295 233.576 122.295H229.93C229.75 122.295 229.572 122.22 229.44 122.114C229.292 121.996 229.146 121.791 229.146 121.511V117.865C229.146 117.685 229.22 117.507 229.326 117.375Z" fill="#8D94A8"/>
<path fill-rule="evenodd" clip-rule="evenodd" d="M235.744 118.095V121.28H238.93V118.095H235.744ZM234.91 117.375C235.029 117.226 235.233 117.081 235.514 117.081H239.16C239.34 117.081 239.518 117.155 239.65 117.261C239.798 117.379 239.944 117.584 239.944 117.865V121.63L239.891 121.737C239.833 121.854 239.758 121.977 239.657 122.077C239.556 122.178 239.388 122.295 239.16 122.295H235.514C235.334 122.295 235.156 122.22 235.024 122.114C234.876 121.996 234.73 121.791 234.73 121.511V117.865C234.73 117.685 234.805 117.507 234.91 117.375Z" fill="#8D94A8"/>
<path fill-rule="evenodd" clip-rule="evenodd" d="M241.283 118.095V121.28H244.468V118.095H241.283ZM240.449 117.375C240.567 117.226 240.772 117.081 241.052 117.081H244.698C244.878 117.081 245.056 117.155 245.188 117.261C245.336 117.379 245.482 117.584 245.482 117.865V121.573L245.466 121.637C245.445 121.723 245.4 121.905 245.27 122.052C245.102 122.244 244.881 122.295 244.698 122.295H241.052C240.873 122.295 240.695 122.22 240.563 122.114C240.414 121.996 240.268 121.791 240.268 121.511V117.865C240.268 117.685 240.343 117.507 240.449 117.375Z" fill="#8D94A8"/>
<path fill-rule="evenodd" clip-rule="evenodd" d="M246.821 118.095V121.28H250.006V118.095H246.821ZM245.987 117.375C246.106 117.226 246.31 117.081 246.591 117.081H250.237C250.416 117.081 250.594 117.155 250.726 117.261C250.875 117.379 251.021 117.584 251.021 117.865V121.465C251.067 121.789 250.875 122.02 250.725 122.128C250.583 122.232 250.399 122.295 250.237 122.295H246.591C246.411 122.295 246.233 122.22 246.101 122.114C245.953 121.996 245.807 121.791 245.807 121.511V117.865C245.807 117.685 245.881 117.507 245.987 117.375Z" fill="#8D94A8"/>
<path fill-rule="evenodd" clip-rule="evenodd" d="M252.451 118.095V121.28H255.637V118.095H252.451ZM251.617 117.375C251.736 117.226 251.94 117.081 252.221 117.081H255.867C256.047 117.081 256.225 117.155 256.357 117.261C256.505 117.379 256.651 117.584 256.651 117.865V121.63L256.598 121.737C256.54 121.854 256.465 121.977 256.364 122.077C256.263 122.178 256.095 122.295 255.867 122.295H252.221C252.042 122.295 251.863 122.22 251.731 122.114C251.583 121.996 251.437 121.791 251.437 121.511V117.865C251.437 117.685 251.512 117.507 251.617 117.375Z" fill="#8D94A8"/>
<path fill-rule="evenodd" clip-rule="evenodd" d="M257.99 118.095V121.28H261.175V118.095H257.99ZM257.156 117.375C257.274 117.226 257.479 117.081 257.759 117.081H261.405C261.585 117.081 261.763 117.155 261.895 117.261C262.043 117.379 262.189 117.584 262.189 117.865V121.573L262.174 121.634C262.085 121.989 261.783 122.295 261.405 122.295H257.759C257.58 122.295 257.402 122.22 257.27 122.114C257.121 121.996 256.975 121.791 256.975 121.511V117.865C256.975 117.685 257.05 117.507 257.156 117.375Z" fill="#8D94A8"/>
<path fill-rule="evenodd" clip-rule="evenodd" d="M263.482 118.095V121.28H266.667V118.095H263.482ZM262.648 117.375C262.766 117.227 262.971 117.081 263.252 117.081H266.898C267.077 117.081 267.255 117.155 267.387 117.261C267.536 117.38 267.682 117.584 267.682 117.865V121.511C267.682 121.681 267.639 121.902 267.464 122.077C267.289 122.252 267.068 122.295 266.898 122.295H263.252C263.072 122.295 262.894 122.22 262.762 122.114C262.613 121.996 262.467 121.791 262.467 121.511V117.865C262.467 117.685 262.542 117.507 262.648 117.375Z" fill="#8D94A8"/>
<path fill-rule="evenodd" clip-rule="evenodd" d="M269.066 118.095V121.28H272.252V118.095H269.066ZM268.232 117.375C268.351 117.226 268.555 117.081 268.836 117.081H272.482C272.662 117.081 272.84 117.155 272.972 117.261C273.12 117.379 273.266 117.584 273.266 117.865V121.511C273.266 121.681 273.223 121.902 273.048 122.077C272.873 122.252 272.652 122.295 272.482 122.295H268.836C268.656 122.295 268.478 122.22 268.346 122.114C268.198 121.996 268.052 121.791 268.052 121.511V117.865C268.052 117.685 268.126 117.507 268.232 117.375Z" fill="#8D94A8"/>
<path fill-rule="evenodd" clip-rule="evenodd" d="M205.238 112.649V115.834H208.423V112.649H205.238ZM204.404 111.929C204.522 111.781 204.727 111.635 205.008 111.635H208.654C208.833 111.635 209.011 111.709 209.143 111.815C209.292 111.934 209.438 112.138 209.438 112.419V116.065C209.438 116.235 209.395 116.456 209.22 116.631C209.045 116.806 208.824 116.849 208.654 116.849H205.008C204.828 116.849 204.65 116.774 204.518 116.668C204.369 116.55 204.223 116.346 204.223 116.065V112.419C204.223 112.239 204.298 112.061 204.404 111.929Z" fill="#8D94A8"/>
<path fill-rule="evenodd" clip-rule="evenodd" d="M210.822 112.649V115.834H214.008V112.649H210.822ZM209.988 111.929C210.107 111.781 210.311 111.635 210.592 111.635H214.238C214.418 111.635 214.596 111.709 214.728 111.815C214.876 111.934 215.022 112.138 215.022 112.419V116.127L215.007 116.188C214.918 116.543 214.615 116.849 214.238 116.849H210.592C210.412 116.849 210.234 116.774 210.102 116.668C209.954 116.55 209.808 116.346 209.808 116.065V112.419C209.808 112.239 209.883 112.061 209.988 111.929Z" fill="#8D94A8"/>
<path fill-rule="evenodd" clip-rule="evenodd" d="M216.314 112.649V115.834H219.5V112.649H216.314ZM215.48 111.929C215.599 111.781 215.803 111.635 216.084 111.635H219.73C219.91 111.635 220.088 111.709 220.22 111.815C220.368 111.934 220.514 112.138 220.514 112.419V116.065C220.514 116.385 220.32 116.849 219.822 116.849H216.084C215.904 116.849 215.726 116.774 215.594 116.668C215.446 116.55 215.3 116.346 215.3 116.065V112.419C215.3 112.239 215.375 112.061 215.48 111.929Z" fill="#8D94A8"/>
<path fill-rule="evenodd" clip-rule="evenodd" d="M221.945 112.649V115.834H225.13V112.649H221.945ZM221.111 111.929C221.23 111.781 221.434 111.635 221.715 111.635H225.361C225.54 111.635 225.718 111.709 225.851 111.815C225.999 111.934 226.145 112.138 226.145 112.419V116.065C226.145 116.235 226.102 116.456 225.927 116.631C225.752 116.806 225.531 116.849 225.361 116.849H221.715C221.535 116.849 221.357 116.774 221.225 116.668C221.077 116.55 220.931 116.346 220.931 116.065V112.419C220.931 112.239 221.005 112.061 221.111 111.929Z" fill="#8D94A8"/>
<path fill-rule="evenodd" clip-rule="evenodd" d="M227.575 112.649V115.834H230.761V112.649H227.575ZM226.742 111.929C226.86 111.781 227.064 111.635 227.345 111.635H230.991C231.171 111.635 231.349 111.709 231.481 111.815C231.629 111.934 231.775 112.138 231.775 112.419V116.234L231.674 116.369C231.599 116.468 231.525 116.56 231.454 116.631C231.419 116.666 231.372 116.709 231.316 116.746C231.273 116.775 231.155 116.849 230.991 116.849H227.345C227.166 116.849 226.988 116.774 226.855 116.668C226.707 116.55 226.561 116.346 226.561 116.065V112.419C226.561 112.239 226.636 112.061 226.742 111.929Z" fill="#8D94A8"/>
<path fill-rule="evenodd" clip-rule="evenodd" d="M233.021 112.649V115.834H236.207V112.649H233.021ZM232.187 111.929C232.306 111.781 232.51 111.635 232.791 111.635H236.437C236.617 111.635 236.795 111.709 236.927 111.815C237.075 111.934 237.221 112.138 237.221 112.419V116.065C237.221 116.235 237.178 116.456 237.004 116.631C236.829 116.806 236.608 116.849 236.437 116.849H232.791C232.612 116.849 232.433 116.774 232.301 116.668C232.153 116.55 232.007 116.346 232.007 116.065V112.419C232.007 112.239 232.082 112.061 232.187 111.929Z" fill="#8D94A8"/>
<path fill-rule="evenodd" clip-rule="evenodd" d="M238.652 112.649V115.834H241.837V112.649H238.652ZM237.818 111.929C237.937 111.781 238.141 111.635 238.422 111.635H242.068C242.247 111.635 242.425 111.709 242.558 111.815C242.706 111.934 242.852 112.138 242.852 112.419V116.184L242.798 116.292C242.74 116.408 242.665 116.531 242.565 116.631C242.463 116.732 242.296 116.849 242.068 116.849H238.422C238.242 116.849 238.064 116.774 237.932 116.668C237.784 116.55 237.638 116.346 237.638 116.065V112.419C237.638 112.239 237.712 112.061 237.818 111.929Z" fill="#8D94A8"/>
<path fill-rule="evenodd" clip-rule="evenodd" d="M244.144 112.649V115.834H247.33V112.649H244.144ZM243.31 111.929C243.429 111.781 243.633 111.635 243.914 111.635H247.56C247.739 111.635 247.918 111.709 248.05 111.815C248.198 111.934 248.344 112.138 248.344 112.419V116.065C248.344 116.235 248.301 116.456 248.126 116.631C247.951 116.806 247.73 116.849 247.56 116.849H243.914C243.734 116.849 243.556 116.774 243.424 116.668C243.276 116.55 243.13 116.346 243.13 116.065V112.419C243.13 112.239 243.204 112.061 243.31 111.929Z" fill="#8D94A8"/>
<path fill-rule="evenodd" clip-rule="evenodd" d="M249.728 112.649V115.834H252.914V112.649H249.728ZM248.895 111.929C249.013 111.781 249.217 111.635 249.498 111.635H253.144C253.324 111.635 253.502 111.709 253.634 111.815C253.782 111.934 253.928 112.138 253.928 112.419V116.184L253.875 116.292C253.817 116.408 253.742 116.531 253.641 116.631C253.54 116.732 253.372 116.849 253.144 116.849H249.498C249.319 116.849 249.141 116.774 249.008 116.668C248.86 116.55 248.714 116.346 248.714 116.065V112.419C248.714 112.239 248.789 112.061 248.895 111.929Z" fill="#8D94A8"/>
<path fill-rule="evenodd" clip-rule="evenodd" d="M255.359 112.649V115.834H258.545V112.649H255.359ZM254.525 111.929C254.644 111.781 254.848 111.635 255.129 111.635H258.775C258.954 111.635 259.132 111.709 259.265 111.815C259.413 111.934 259.559 112.138 259.559 112.419V116.234L259.457 116.369C259.383 116.468 259.308 116.56 259.237 116.631C259.202 116.666 259.155 116.709 259.099 116.746C259.057 116.775 258.939 116.849 258.775 116.849H255.129C254.949 116.849 254.771 116.774 254.639 116.668C254.491 116.55 254.345 116.346 254.345 116.065V112.419C254.345 112.239 254.419 112.061 254.525 111.929Z" fill="#8D94A8"/>
<path fill-rule="evenodd" clip-rule="evenodd" d="M260.759 112.649V115.834H263.944V112.649H260.759ZM259.925 111.929C260.043 111.781 260.248 111.635 260.529 111.635H264.175C264.354 111.635 264.532 111.709 264.664 111.815C264.813 111.934 264.959 112.138 264.959 112.419V115.977C264.984 116.071 264.993 116.177 264.97 116.289C264.934 116.462 264.834 116.588 264.734 116.668C264.552 116.814 264.328 116.849 264.175 116.849H260.529C260.349 116.849 260.171 116.774 260.039 116.668C259.89 116.55 259.744 116.346 259.744 116.065V112.419C259.744 112.239 259.819 112.061 259.925 111.929Z" fill="#8D94A8"/>
<path fill-rule="evenodd" clip-rule="evenodd" d="M266.343 112.649V115.834H272.252V112.649H266.343ZM265.509 111.929C265.628 111.781 265.832 111.635 266.113 111.635H272.482C272.662 111.635 272.84 111.709 272.972 111.815C273.12 111.934 273.266 112.138 273.266 112.419V116.065C273.266 116.235 273.223 116.456 273.048 116.631C272.873 116.806 272.652 116.849 272.482 116.849H266.113C265.933 116.849 265.755 116.774 265.623 116.668C265.475 116.55 265.329 116.346 265.329 116.065V112.419C265.329 112.239 265.404 112.061 265.509 111.929Z" fill="#8D94A8"/>
<path fill-rule="evenodd" clip-rule="evenodd" d="M199.884 109.372V110.435H203.07V109.372H199.884ZM199.05 108.652C199.169 108.504 199.373 108.358 199.654 108.358H203.3C203.48 108.358 203.658 108.432 203.79 108.538C203.938 108.657 204.084 108.861 204.084 109.142V110.711C204.084 110.84 204.036 110.945 204.016 110.988C203.985 111.051 203.943 111.118 203.887 111.181C203.775 111.307 203.577 111.449 203.3 111.449H199.654C199.474 111.449 199.296 111.374 199.164 111.269C199.016 111.15 198.87 110.946 198.87 110.665V109.142C198.87 108.962 198.945 108.784 199.05 108.652Z" fill="#8D94A8"/>
<path fill-rule="evenodd" clip-rule="evenodd" d="M205.699 109.372V110.435H208.885V109.372H205.699ZM204.865 108.652C204.984 108.504 205.188 108.358 205.469 108.358H209.115C209.295 108.358 209.473 108.432 209.605 108.538C209.753 108.657 209.899 108.861 209.899 109.142V110.921L209.768 111.052C209.766 111.055 209.763 111.06 209.759 111.065C209.741 111.089 209.708 111.134 209.667 111.181C209.602 111.254 209.415 111.449 209.115 111.449H205.469C205.289 111.449 205.111 111.374 204.979 111.269C204.831 111.15 204.685 110.946 204.685 110.665V109.142C204.685 108.962 204.76 108.784 204.865 108.652Z" fill="#8D94A8"/>
<path fill-rule="evenodd" clip-rule="evenodd" d="M211.468 109.372V110.435H214.654V109.372H211.468ZM210.634 108.652C210.753 108.504 210.957 108.358 211.238 108.358H214.884C215.064 108.358 215.242 108.432 215.374 108.538C215.522 108.657 215.668 108.861 215.668 109.142V110.921L215.556 111.034C215.54 111.061 215.512 111.107 215.475 111.155C215.374 111.285 215.183 111.449 214.884 111.449H211.238C211.058 111.449 210.88 111.374 210.748 111.269C210.6 111.15 210.454 110.946 210.454 110.665V109.142C210.454 108.962 210.529 108.784 210.634 108.652Z" fill="#8D94A8"/>
<path fill-rule="evenodd" clip-rule="evenodd" d="M217.191 109.372V110.435H220.377V109.372H217.191ZM216.357 108.652C216.476 108.504 216.68 108.358 216.961 108.358H220.607C220.787 108.358 220.965 108.432 221.097 108.538C221.245 108.657 221.391 108.861 221.391 109.142V110.711C221.391 110.851 221.334 110.953 221.321 110.978L221.32 110.979C221.297 111.021 221.271 111.056 221.252 111.08C221.212 111.131 221.165 111.179 221.119 111.221C221.074 111.262 221.015 111.308 220.949 111.348C220.9 111.377 220.772 111.449 220.607 111.449H216.961C216.781 111.449 216.603 111.374 216.471 111.269C216.323 111.15 216.177 110.946 216.177 110.665V109.142C216.177 108.962 216.252 108.784 216.357 108.652Z" fill="#8D94A8"/>
<path fill-rule="evenodd" clip-rule="evenodd" d="M222.914 109.372V110.435H226.1V109.372H222.914ZM222.08 108.652C222.199 108.504 222.403 108.358 222.684 108.358H226.33C226.51 108.358 226.688 108.432 226.82 108.538C226.968 108.657 227.114 108.861 227.114 109.142V110.921L226.983 111.052C226.981 111.055 226.977 111.06 226.974 111.065C226.956 111.089 226.923 111.135 226.882 111.181C226.817 111.254 226.629 111.449 226.33 111.449H222.684C222.504 111.449 222.326 111.374 222.194 111.269C222.046 111.15 221.9 110.946 221.9 110.665V109.142C221.9 108.962 221.974 108.784 222.08 108.652Z" fill="#8D94A8"/>
<path fill-rule="evenodd" clip-rule="evenodd" d="M228.683 109.372V110.435H231.869V109.372H228.683ZM227.849 108.652C227.968 108.504 228.172 108.358 228.453 108.358H232.099C232.278 108.358 232.457 108.432 232.589 108.538C232.737 108.657 232.883 108.861 232.883 109.142V110.921L232.77 111.034C232.755 111.061 232.727 111.107 232.69 111.155C232.589 111.285 232.398 111.449 232.099 111.449H228.453C228.273 111.449 228.095 111.374 227.963 111.269C227.815 111.15 227.669 110.946 227.669 110.665V109.142C227.669 108.962 227.743 108.784 227.849 108.652Z" fill="#8D94A8"/>
<path fill-rule="evenodd" clip-rule="evenodd" d="M234.452 109.372V110.435H237.638V109.372H234.452ZM233.618 108.652C233.737 108.504 233.941 108.358 234.222 108.358H237.868C238.048 108.358 238.226 108.432 238.358 108.538C238.506 108.657 238.652 108.861 238.652 109.142V110.711C238.652 110.84 238.604 110.945 238.584 110.988C238.553 111.051 238.511 111.118 238.455 111.181C238.343 111.307 238.145 111.449 237.868 111.449H234.222C234.042 111.449 233.864 111.374 233.732 111.269C233.584 111.15 233.438 110.946 233.438 110.665V109.142C233.438 108.962 233.512 108.784 233.618 108.652Z" fill="#8D94A8"/>
<path fill-rule="evenodd" clip-rule="evenodd" d="M240.175 109.372V110.435H243.361V109.372H240.175ZM239.341 108.652C239.46 108.504 239.664 108.358 239.945 108.358H243.591C243.77 108.358 243.949 108.432 244.081 108.538C244.229 108.657 244.375 108.861 244.375 109.142V110.711C244.375 110.84 244.327 110.945 244.307 110.988C244.276 111.051 244.233 111.118 244.178 111.181C244.066 111.307 243.868 111.449 243.591 111.449H239.945C239.765 111.449 239.587 111.374 239.455 111.269C239.307 111.15 239.161 110.946 239.161 110.665V109.142C239.161 108.962 239.235 108.784 239.341 108.652Z" fill="#8D94A8"/>
<path fill-rule="evenodd" clip-rule="evenodd" d="M245.99 109.372V110.435H249.176V109.372H245.99ZM245.156 108.652C245.275 108.504 245.479 108.358 245.76 108.358H249.406C249.586 108.358 249.764 108.432 249.896 108.538C250.044 108.657 250.19 108.861 250.19 109.142V110.921L250.059 111.052C250.057 111.055 250.054 111.06 250.05 111.065C250.032 111.089 249.999 111.135 249.958 111.181C249.893 111.254 249.705 111.449 249.406 111.449H245.76C245.58 111.449 245.402 111.374 245.27 111.269C245.122 111.15 244.976 110.946 244.976 110.665V109.142C244.976 108.962 245.05 108.784 245.156 108.652Z" fill="#8D94A8"/>
<path fill-rule="evenodd" clip-rule="evenodd" d="M251.759 109.372V110.435H254.945V109.372H251.759ZM250.925 108.652C251.044 108.504 251.248 108.358 251.529 108.358H255.175C255.355 108.358 255.533 108.432 255.665 108.538C255.813 108.657 255.959 108.861 255.959 109.142V110.711C255.959 110.84 255.911 110.945 255.891 110.988C255.86 111.051 255.818 111.118 255.762 111.181C255.65 111.307 255.452 111.449 255.175 111.449H251.529C251.349 111.449 251.171 111.374 251.039 111.269C250.891 111.15 250.745 110.946 250.745 110.665V109.142C250.745 108.962 250.819 108.784 250.925 108.652Z" fill="#8D94A8"/>
<path fill-rule="evenodd" clip-rule="evenodd" d="M257.528 109.372V110.435H260.714V109.372H257.528ZM256.694 108.652C256.813 108.504 257.017 108.358 257.298 108.358H260.944C261.124 108.358 261.302 108.432 261.434 108.538C261.582 108.657 261.728 108.861 261.728 109.142V110.711C261.728 110.84 261.68 110.945 261.66 110.988C261.629 111.051 261.587 111.118 261.531 111.181C261.419 111.307 261.221 111.449 260.944 111.449H257.298C257.118 111.449 256.94 111.374 256.808 111.269C256.66 111.15 256.514 110.946 256.514 110.665V109.142C256.514 108.962 256.588 108.784 256.694 108.652Z" fill="#8D94A8"/>
<path fill-rule="evenodd" clip-rule="evenodd" d="M263.297 109.372V110.435H266.483V109.372H263.297ZM262.463 108.652C262.582 108.504 262.786 108.358 263.067 108.358H266.713C266.893 108.358 267.071 108.432 267.203 108.538C267.351 108.657 267.497 108.861 267.497 109.142V110.711C267.497 110.84 267.449 110.945 267.429 110.988C267.398 111.051 267.356 111.118 267.3 111.181C267.188 111.307 266.99 111.449 266.713 111.449H263.067C262.887 111.449 262.709 111.374 262.577 111.269C262.429 111.15 262.283 110.946 262.283 110.665V109.142C262.283 108.962 262.357 108.784 262.463 108.652Z" fill="#8D94A8"/>
<path fill-rule="evenodd" clip-rule="evenodd" d="M269.066 109.372V110.435H272.252V109.372H269.066ZM268.232 108.652C268.351 108.504 268.555 108.358 268.836 108.358H272.482C272.662 108.358 272.84 108.432 272.972 108.538C273.12 108.657 273.266 108.861 273.266 109.142V110.711C273.266 110.84 273.218 110.945 273.198 110.988C273.167 111.051 273.125 111.118 273.069 111.181C272.957 111.307 272.759 111.449 272.482 111.449H268.836C268.656 111.449 268.478 111.374 268.346 111.269C268.198 111.15 268.052 110.946 268.052 110.665V109.142C268.052 108.962 268.126 108.784 268.232 108.652Z" fill="#8D94A8"/>
<path fill-rule="evenodd" clip-rule="evenodd" d="M185.162 109.003H184.931V107.989H185.162V109.003Z" fill="#8D94A8"/>
<path fill-rule="evenodd" clip-rule="evenodd" d="M189.916 109.003H186.27V107.989H189.916V109.003Z" fill="#8D94A8"/>
<path fill-rule="evenodd" clip-rule="evenodd" d="M190.608 109.003H190.516V107.989H190.608V109.003Z" fill="#8D94A8"/>
<path fill-rule="evenodd" clip-rule="evenodd" d="M185.162 110.295H184.931V109.281H185.162V110.295Z" fill="#8D94A8"/>
<path fill-rule="evenodd" clip-rule="evenodd" d="M189.916 110.295H186.27V109.281H189.916V110.295Z" fill="#8D94A8"/>
<path fill-rule="evenodd" clip-rule="evenodd" d="M190.608 110.295H190.516V109.281H190.608V110.295Z" fill="#8D94A8"/>
<path fill-rule="evenodd" clip-rule="evenodd" d="M185.162 111.726H184.931V110.712H185.162V111.726Z" fill="#8D94A8"/>
<path fill-rule="evenodd" clip-rule="evenodd" d="M189.916 111.726H186.27V110.712H189.916V111.726Z" fill="#8D94A8"/>
<path fill-rule="evenodd" clip-rule="evenodd" d="M190.608 111.726H190.516V110.712H190.608V111.726Z" fill="#8D94A8"/>
<path fill-rule="evenodd" clip-rule="evenodd" d="M185.162 113.018H184.931V112.004H185.162V113.018Z" fill="#8D94A8"/>
<path fill-rule="evenodd" clip-rule="evenodd" d="M189.916 113.018H186.27V112.004H189.916V113.018Z" fill="#8D94A8"/>
<path fill-rule="evenodd" clip-rule="evenodd" d="M190.608 113.018H190.516V112.004H190.608V113.018Z" fill="#8D94A8"/>
<path fill-rule="evenodd" clip-rule="evenodd" d="M185.162 114.403H184.931V113.388H185.162V114.403Z" fill="#8D94A8"/>
<path fill-rule="evenodd" clip-rule="evenodd" d="M189.916 114.403H186.27V113.388H189.916V114.403Z" fill="#8D94A8"/>
<path fill-rule="evenodd" clip-rule="evenodd" d="M190.608 114.403H190.516V113.388H190.608V114.403Z" fill="#8D94A8"/>
<path fill-rule="evenodd" clip-rule="evenodd" d="M185.162 115.741H184.931V114.727H185.162V115.741Z" fill="#8D94A8"/>
<path fill-rule="evenodd" clip-rule="evenodd" d="M189.916 115.741H186.27V114.727H189.916V115.741Z" fill="#8D94A8"/>
<path fill-rule="evenodd" clip-rule="evenodd" d="M190.608 115.741H190.516V114.727H190.608V115.741Z" fill="#8D94A8"/>
<path fill-rule="evenodd" clip-rule="evenodd" d="M185.162 117.08H184.931V116.065H185.162V117.08Z" fill="#8D94A8"/>
<path fill-rule="evenodd" clip-rule="evenodd" d="M189.916 117.08H186.27V116.065H189.916V117.08Z" fill="#8D94A8"/>
<path fill-rule="evenodd" clip-rule="evenodd" d="M190.608 117.08H190.516V116.065H190.608V117.08Z" fill="#8D94A8"/>
<path fill-rule="evenodd" clip-rule="evenodd" d="M185.162 118.51H184.931V117.496H185.162V118.51Z" fill="#8D94A8"/>
<path fill-rule="evenodd" clip-rule="evenodd" d="M189.916 118.51H186.27V117.496H189.916V118.51Z" fill="#8D94A8"/>
<path fill-rule="evenodd" clip-rule="evenodd" d="M190.608 118.51H190.516V117.496H190.608V118.51Z" fill="#8D94A8"/>
<path fill-rule="evenodd" clip-rule="evenodd" d="M185.162 119.803H184.931V118.788H185.162V119.803Z" fill="#8D94A8"/>
<path fill-rule="evenodd" clip-rule="evenodd" d="M189.916 119.803H186.27V118.788H189.916V119.803Z" fill="#8D94A8"/>
<path fill-rule="evenodd" clip-rule="evenodd" d="M190.608 119.803H190.516V118.788H190.608V119.803Z" fill="#8D94A8"/>
<path fill-rule="evenodd" clip-rule="evenodd" d="M185.162 121.233H184.931V120.219H185.162V121.233Z" fill="#8D94A8"/>
<path fill-rule="evenodd" clip-rule="evenodd" d="M189.916 121.233H186.27V120.219H189.916V121.233Z" fill="#8D94A8"/>
<path fill-rule="evenodd" clip-rule="evenodd" d="M190.608 121.233H190.516V120.219H190.608V121.233Z" fill="#8D94A8"/>
<path fill-rule="evenodd" clip-rule="evenodd" d="M185.162 122.526H184.931V121.511H185.162V122.526Z" fill="#8D94A8"/>
<path fill-rule="evenodd" clip-rule="evenodd" d="M189.916 122.526H186.27V121.511H189.916V122.526Z" fill="#8D94A8"/>
<path fill-rule="evenodd" clip-rule="evenodd" d="M190.608 122.526H190.516V121.511H190.608V122.526Z" fill="#8D94A8"/>
<path fill-rule="evenodd" clip-rule="evenodd" d="M185.162 123.91H184.931V122.896H185.162V123.91Z" fill="#8D94A8"/>
<path fill-rule="evenodd" clip-rule="evenodd" d="M189.916 123.91H186.27V122.896H189.916V123.91Z" fill="#8D94A8"/>
<path fill-rule="evenodd" clip-rule="evenodd" d="M190.608 123.91H190.516V122.896H190.608V123.91Z" fill="#8D94A8"/>
<path fill-rule="evenodd" clip-rule="evenodd" d="M276.036 109.003H275.897V107.989H276.036V109.003Z" fill="#8D94A8"/>
<path fill-rule="evenodd" clip-rule="evenodd" d="M280.882 109.003H277.236V107.989H280.882V109.003Z" fill="#8D94A8"/>
<path fill-rule="evenodd" clip-rule="evenodd" d="M281.574 109.003H281.389V107.989H281.574V109.003Z" fill="#8D94A8"/>
<path fill-rule="evenodd" clip-rule="evenodd" d="M276.036 110.295H275.897V109.281H276.036V110.295Z" fill="#8D94A8"/>
<path fill-rule="evenodd" clip-rule="evenodd" d="M280.882 110.295H277.236V109.281H280.882V110.295Z" fill="#8D94A8"/>
<path fill-rule="evenodd" clip-rule="evenodd" d="M281.574 110.295H281.389V109.281H281.574V110.295Z" fill="#8D94A8"/>
<path fill-rule="evenodd" clip-rule="evenodd" d="M276.036 111.726H275.897V110.712H276.036V111.726Z" fill="#8D94A8"/>
<path fill-rule="evenodd" clip-rule="evenodd" d="M280.882 111.726H277.236V110.712H280.882V111.726Z" fill="#8D94A8"/>
<path fill-rule="evenodd" clip-rule="evenodd" d="M281.574 111.726H281.389V110.712H281.574V111.726Z" fill="#8D94A8"/>
<path fill-rule="evenodd" clip-rule="evenodd" d="M276.036 113.018H275.897V112.004H276.036V113.018Z" fill="#8D94A8"/>
<path fill-rule="evenodd" clip-rule="evenodd" d="M280.882 113.018H277.236V112.004H280.882V113.018Z" fill="#8D94A8"/>
<path fill-rule="evenodd" clip-rule="evenodd" d="M281.574 113.018H281.389V112.004H281.574V113.018Z" fill="#8D94A8"/>
<path fill-rule="evenodd" clip-rule="evenodd" d="M276.036 114.403H275.897V113.388H276.036V114.403Z" fill="#8D94A8"/>
<path fill-rule="evenodd" clip-rule="evenodd" d="M280.882 114.403H277.236V113.388H280.882V114.403Z" fill="#8D94A8"/>
<path fill-rule="evenodd" clip-rule="evenodd" d="M281.574 114.403H281.389V113.388H281.574V114.403Z" fill="#8D94A8"/>
<path fill-rule="evenodd" clip-rule="evenodd" d="M276.036 115.741H275.897V114.727H276.036V115.741Z" fill="#8D94A8"/>
<path fill-rule="evenodd" clip-rule="evenodd" d="M280.882 115.741H277.236V114.727H280.882V115.741Z" fill="#8D94A8"/>
<path fill-rule="evenodd" clip-rule="evenodd" d="M281.574 115.741H281.389V114.727H281.574V115.741Z" fill="#8D94A8"/>
<path fill-rule="evenodd" clip-rule="evenodd" d="M276.036 117.08H275.897V116.065H276.036V117.08Z" fill="#8D94A8"/>
<path fill-rule="evenodd" clip-rule="evenodd" d="M280.882 117.08H277.236V116.065H280.882V117.08Z" fill="#8D94A8"/>
<path fill-rule="evenodd" clip-rule="evenodd" d="M281.574 117.08H281.389V116.065H281.574V117.08Z" fill="#8D94A8"/>
<path fill-rule="evenodd" clip-rule="evenodd" d="M276.036 118.51H275.897V117.496H276.036V118.51Z" fill="#8D94A8"/>
<path fill-rule="evenodd" clip-rule="evenodd" d="M280.882 118.51H277.236V117.496H280.882V118.51Z" fill="#8D94A8"/>
<path fill-rule="evenodd" clip-rule="evenodd" d="M281.574 118.51H281.389V117.496H281.574V118.51Z" fill="#8D94A8"/>
<path fill-rule="evenodd" clip-rule="evenodd" d="M276.036 119.803H275.897V118.788H276.036V119.803Z" fill="#8D94A8"/>
<path fill-rule="evenodd" clip-rule="evenodd" d="M280.882 119.803H277.236V118.788H280.882V119.803Z" fill="#8D94A8"/>
<path fill-rule="evenodd" clip-rule="evenodd" d="M281.574 119.803H281.389V118.788H281.574V119.803Z" fill="#8D94A8"/>
<path fill-rule="evenodd" clip-rule="evenodd" d="M276.036 121.233H275.897V120.219H276.036V121.233Z" fill="#8D94A8"/>
<path fill-rule="evenodd" clip-rule="evenodd" d="M280.882 121.233H277.236V120.219H280.882V121.233Z" fill="#8D94A8"/>
<path fill-rule="evenodd" clip-rule="evenodd" d="M281.574 121.233H281.389V120.219H281.574V121.233Z" fill="#8D94A8"/>
<path fill-rule="evenodd" clip-rule="evenodd" d="M276.036 122.526H275.897V121.511H276.036V122.526Z" fill="#8D94A8"/>
<path fill-rule="evenodd" clip-rule="evenodd" d="M280.882 122.526H277.236V121.511H280.882V122.526Z" fill="#8D94A8"/>
<path fill-rule="evenodd" clip-rule="evenodd" d="M281.574 122.526H281.389V121.511H281.574V122.526Z" fill="#8D94A8"/>
<path fill-rule="evenodd" clip-rule="evenodd" d="M276.036 123.91H275.897V122.896H276.036V123.91Z" fill="#8D94A8"/>
<path fill-rule="evenodd" clip-rule="evenodd" d="M280.882 123.91H277.236V122.896H280.882V123.91Z" fill="#8D94A8"/>
<path fill-rule="evenodd" clip-rule="evenodd" d="M281.574 123.91H281.389V122.896H281.574V123.91Z" fill="#8D94A8"/>
<path fill-rule="evenodd" clip-rule="evenodd" d="M2.07697 69.2199C1.38787 69.2199 0.83034 69.7774 0.83034 70.4665V147.402C0.83034 148.091 1.38787 148.649 2.07697 148.649H102.088C102.706 148.649 103.249 148.115 103.289 147.435V70.4665C103.289 69.7774 102.731 69.2199 102.042 69.2199H2.07697ZM-0.18396 70.4665C-0.18396 69.2172 0.827688 68.2056 2.07697 68.2056H102.042C103.292 68.2056 104.303 69.2172 104.303 70.4665V147.461L104.303 147.473C104.245 148.634 103.313 149.663 102.088 149.663H2.07697C0.827688 149.663 -0.18396 148.651 -0.18396 147.402V70.4665Z" fill="#8D94A8"/>
<path fill-rule="evenodd" clip-rule="evenodd" d="M103.75 78.0349H0.369421V77.0206H103.75V78.0349Z" fill="#8D94A8"/>
<path fill-rule="evenodd" clip-rule="evenodd" d="M3.60052 73.4202C3.60052 72.9094 4.01216 72.4977 4.52304 72.4977C5.03391 72.4977 5.44556 72.9094 5.44556 73.4202C5.44556 73.931 5.03391 74.3427 4.52304 74.3427C4.30906 74.3427 4.07277 74.2779 3.88482 74.1044C3.69022 73.9247 3.60052 73.6775 3.60052 73.4202ZM4.61468 73.4252C4.61195 73.4723 4.57072 73.512 4.52304 73.512C4.47369 73.512 4.43126 73.4695 4.43126 73.4202C4.43126 73.3721 4.47173 73.3304 4.51959 73.3285C4.52041 73.3287 4.52157 73.3289 4.52304 73.3293C4.53163 73.3316 4.55063 73.3386 4.57282 73.3591C4.59145 73.3763 4.60388 73.3959 4.61055 73.4125C4.61175 73.4155 4.61266 73.4181 4.61332 73.4202C4.61397 73.4223 4.6144 73.424 4.61468 73.4252Z" fill="#8D94A8"/>
<path fill-rule="evenodd" clip-rule="evenodd" d="M7.10812 73.4202C7.10812 72.9094 7.51977 72.4977 8.03064 72.4977C8.54152 72.4977 8.95316 72.9094 8.95316 73.4202C8.95316 73.931 8.54152 74.3427 8.03064 74.3427C7.81666 74.3427 7.58037 74.2779 7.39243 74.1044C7.19782 73.9248 7.10812 73.6775 7.10812 73.4202ZM8.12228 73.4252C8.11955 73.4723 8.07833 73.512 8.03064 73.512C7.98129 73.512 7.93886 73.4695 7.93886 73.4202C7.93886 73.3721 7.97933 73.3304 8.02719 73.3285C8.02802 73.3287 8.02918 73.3289 8.03064 73.3293C8.03924 73.3316 8.05823 73.3386 8.08042 73.3591C8.09905 73.3763 8.11149 73.3959 8.11815 73.4125C8.11936 73.4155 8.12026 73.4181 8.12093 73.4202C8.12157 73.4223 8.122 73.424 8.12228 73.4252Z" fill="#8D94A8"/>
<path fill-rule="evenodd" clip-rule="evenodd" d="M10.708 73.4202C10.708 72.9094 11.1197 72.4977 11.6305 72.4977C12.1414 72.4977 12.553 72.9094 12.553 73.4202C12.553 73.931 12.1414 74.3427 11.6305 74.3427C11.4165 74.3427 11.1803 74.2779 10.9923 74.1044C10.7977 73.9248 10.708 73.6775 10.708 73.4202ZM11.7222 73.4252C11.7194 73.4723 11.6782 73.512 11.6305 73.512C11.5812 73.512 11.5387 73.4695 11.5387 73.4202C11.5387 73.3721 11.5792 73.3304 11.6271 73.3285C11.6279 73.3287 11.6291 73.3289 11.6305 73.3293C11.6391 73.3316 11.6581 73.3386 11.6803 73.3591C11.6989 73.3763 11.7114 73.3959 11.718 73.4125C11.7192 73.4155 11.7201 73.4181 11.7208 73.4202C11.7215 73.4223 11.7219 73.424 11.7222 73.4252Z" fill="#8D94A8"/>
<path fill-rule="evenodd" clip-rule="evenodd" d="M24.5828 72.3424C24.5593 72.366 24.5525 72.3902 24.5525 72.405V74.6203C24.5525 74.6351 24.5593 74.6593 24.5828 74.6828C24.6063 74.7063 24.6305 74.7131 24.6453 74.7131H79.3355C79.3456 74.7131 79.3662 74.7105 79.3924 74.7002C79.4061 74.6948 79.4182 74.6885 79.4283 74.6822V72.405C79.4283 72.3902 79.4216 72.366 79.398 72.3425C79.3745 72.3189 79.3503 72.3122 79.3355 72.3122H24.6453C24.6305 72.3122 24.6063 72.3189 24.5828 72.3424ZM23.5382 72.405C23.5382 71.8018 24.0422 71.2979 24.6453 71.2979H79.3355C79.9386 71.2979 80.4426 71.8018 80.4426 72.405V74.5632C80.5121 74.9307 80.3316 75.2365 80.1315 75.4175C79.9215 75.6075 79.6286 75.7274 79.3355 75.7274H24.6453C24.0421 75.7274 23.5382 75.2234 23.5382 74.6203V72.405Z" fill="#8D94A8"/>
</g>
<defs>
<clipPath id="clip0">
<rect width="800" height="123" fill="white"/>
</clipPath>
</defs>
</svg>
