<svg width="200" height="201" viewBox="0 0 200 201" fill="none" xmlns="http://www.w3.org/2000/svg">
<g opacity="0.16">
<path d="M119.285 1.15061C122.013 1.13586 123.532 1.19484 124.741 1.37177C125.64 1.48973 127.056 1.75513 127.867 1.96155C128.678 2.15322 129.872 2.58081 130.521 2.90519C131.169 3.21482 132.039 3.76036 132.437 4.09948C132.85 4.42386 133.366 4.98414 133.617 5.32326C133.868 5.66238 134.222 6.29639 134.413 6.73872C134.605 7.18105 134.885 8.10995 135.032 8.80293C135.18 9.49592 135.372 11.221 135.445 12.6365C135.511 13.6893 135.601 15.3214 135.68 16.7377C135.707 17.2255 135.732 17.6877 135.755 18.0919C135.829 19.6695 136.035 21.8959 136.197 23.0313C136.359 24.1666 136.964 26.9827 137.539 29.2976C138.114 31.6125 138.704 34.2222 138.851 35.1216C138.999 36.021 139.235 38.4686 139.382 40.577C139.574 43.5112 139.603 44.8677 139.5 46.3568C139.426 47.4184 139.338 48.3326 139.294 48.3768C139.249 48.4211 138.895 48.3473 138.483 48.2294C138.085 48.1114 136.92 47.787 135.902 47.5069C134.885 47.2268 132.836 46.7697 131.332 46.4748C129.828 46.1947 127.424 45.826 125.994 45.6639C124.549 45.5017 121.895 45.2952 120.096 45.2215C117.796 45.1036 115.511 45.1183 112.533 45.2215C110.188 45.31 107.269 45.4722 106.045 45.6049C104.836 45.7228 102.772 45.9587 101.474 46.1209C100.177 46.2831 98.319 46.5485 97.3458 46.696C96.3727 46.8582 94.854 47.1235 93.9546 47.2857C93.07 47.4479 92.2885 47.5806 92.2295 47.5806C92.0676 47.6004 91.8896 47.6221 91.6967 47.6455C92 44.9999 92.5 34.9999 91.6967 30.9999C90.5 30.9999 87.8786 31.0883 86.5 31.2499C85 31.9999 87.5 41.4999 78.5 49.2499C78.1695 49.2872 78.2081 49.2252 77.8833 49.2615C77.7022 49.2816 77.3625 49.3231 76.9501 49.3734L76.9489 49.3736C76.455 49.4339 75.8571 49.5069 75.303 49.5711C74.2856 49.7038 73.342 49.8365 73.2093 49.866C72.9734 49.925 72.9292 49.7923 72.8554 48.8044C72.8112 48.1704 72.649 47.3889 72.5016 47.0646C72.3689 46.7402 71.9855 46.1799 71.6611 45.8113C71.3368 45.4427 70.6438 44.8234 70.1277 44.4401C69.6117 44.0567 69.0809 43.6586 68.9482 43.5554C68.7565 43.408 68.7123 42.656 68.6385 38.1442C68.5648 34.3254 68.4616 32.1728 68.2404 30.1823C68.0635 28.6783 67.7981 26.7616 67.6359 25.9064C67.4737 25.0512 67.2378 23.9012 67.1051 23.3261C66.9724 22.7659 66.6038 21.4389 66.2795 20.3773C65.9551 19.3304 65.4243 17.8265 65.0999 17.0598C64.7755 16.2931 64.2742 15.202 63.9793 14.627C63.6992 14.0667 63.1094 13.0346 62.6818 12.3416C61.9741 11.2063 61.8856 10.9556 61.6792 9.61387C61.5465 8.80293 61.4433 7.94776 61.4433 7.25478L64.5838 6.91566C66.2942 6.72398 71.6611 6.07523 76.4826 5.48545C81.304 4.88093 87.1427 4.15846 89.4576 3.87832C91.7725 3.58343 95.09 3.18533 96.8298 2.97891C98.5696 2.77249 101.592 2.44811 103.538 2.24169C105.485 2.03527 108.345 1.76987 109.879 1.63717C111.427 1.50447 113.314 1.35703 114.081 1.29805C114.847 1.22433 117.192 1.16535 119.285 1.15061Z" fill="#04FFE1"/>
<path d="M138.109 24.8349C138.61 24.8497 140.055 24.9086 141.309 24.9824C142.562 25.0561 144.818 25.2183 146.322 25.3362C147.826 25.4689 149.742 25.6753 150.598 25.7933C151.453 25.9113 152.514 26.1177 152.957 26.2504C153.399 26.3831 154.107 26.6632 154.505 26.8991C154.918 27.1203 155.566 27.6363 155.965 28.0197C156.363 28.4178 156.938 29.1403 157.262 29.6268C157.572 30.1134 158.043 31.0128 158.294 31.6173C158.545 32.2218 158.899 33.254 159.09 33.9027C159.282 34.5515 159.592 35.9079 159.798 36.9253C160.004 37.9427 160.476 40.921 160.845 43.5603C161.214 46.1995 161.685 49.4433 161.892 50.785C162.098 52.1267 162.467 54.1467 162.703 55.282C162.939 56.4174 163.366 58.2162 163.661 59.263C163.956 60.3099 164.325 61.4305 164.472 61.7401C164.634 62.035 164.723 62.3151 164.678 62.3593C164.634 62.4036 163.853 62.0645 162.953 61.6074C162.039 61.1503 160.697 60.5605 159.96 60.2951C159.223 60.0297 157.94 59.6611 157.085 59.4694C155.92 59.204 155.08 59.1156 153.694 59.1156C152.102 59.1156 151.659 59.1746 150.45 59.5284C149.683 59.7643 148.356 60.2804 147.501 60.6785C146.646 61.0913 145.26 61.8433 144.405 62.3593C143.55 62.8754 142.267 63.5831 141.53 63.9517C140.793 64.3203 139.672 64.8069 139.023 65.0133C138.271 65.2787 137.387 65.4409 136.59 65.4999C135.779 65.5441 135.131 65.4999 134.747 65.3819C134.423 65.2787 133.936 65.0428 133.686 64.8511C133.42 64.6595 133.096 64.2761 132.963 64.0255C132.772 63.6568 132.742 63.2882 132.801 62.5068C132.86 61.6811 132.993 61.2388 133.494 60.2951C133.818 59.6464 134.792 58.1572 135.617 56.9776C136.458 55.7981 137.49 54.2499 137.903 53.5127C138.33 52.746 138.905 51.419 139.244 50.3869C139.731 48.8977 139.864 48.2047 140.011 46.5534C140.144 44.9905 140.144 43.7519 140.011 41.2012C139.908 39.3729 139.701 36.9548 139.554 35.8195C139.392 34.6842 139.126 33.1655 138.964 32.4283C138.802 31.7058 138.33 29.8038 137.917 28.2261C137.519 26.6485 137.18 25.233 137.18 25.1003C137.18 24.8791 137.313 24.8349 138.109 24.8349Z" fill="#04FFE1"/>
</g>
<path d="M103.799 6.36996C103.917 5.94237 103.961 5.45581 103.902 5.23464C103.814 4.88078 103.843 4.83654 104.079 4.93975C104.226 4.99873 104.403 5.16092 104.462 5.29362C104.536 5.44106 105.037 5.76544 105.598 6.03084C106.143 6.28149 106.615 6.5174 106.659 6.54689C106.703 6.57638 106.63 6.70908 106.497 6.84178C106.364 6.98922 106.187 7.50527 106.084 7.99184C105.996 8.4784 105.952 8.99445 105.996 9.12715C106.04 9.28934 105.996 9.39255 105.893 9.39255C105.789 9.39255 105.568 9.21562 105.391 8.99445C105.229 8.75854 104.713 8.37519 104.241 8.13928C103.548 7.77067 103.416 7.65272 103.504 7.40206C103.548 7.23987 103.681 6.76805 103.799 6.36996Z" fill="#15006A"/>
<path d="M87.9929 16.1012C88.0519 15.8506 88.1256 15.2903 88.1846 14.8185L88.273 13.9928L88.7596 14.4941C89.0397 14.7742 89.659 15.1723 91.0007 15.8064L90.7796 16.3961C90.6616 16.7205 90.5142 17.2218 90.4404 17.502C90.3667 17.7821 90.293 18.2097 90.234 18.9027L89.6 18.3129C89.2462 17.9885 88.966 17.7084 88.966 17.6789C88.966 17.6641 89.1429 17.7821 89.3789 17.959C89.7622 18.2392 89.7917 18.2539 89.9686 17.9885C90.0718 17.8411 90.1456 17.5757 90.1456 17.384C90.1456 17.2071 90.2193 16.8827 90.293 16.6468C90.3815 16.4256 90.411 16.1307 90.3667 15.9833C90.3225 15.8506 90.2488 15.7474 90.1898 15.7621C90.1161 15.7769 89.7917 15.6442 89.4526 15.4672C89.0987 15.2903 88.7743 15.1871 88.7154 15.2313C88.6416 15.2756 88.5679 15.7179 88.5237 16.2192L88.5228 16.2298C88.45 17.0892 88.4488 17.1027 88.1698 16.8237C87.9781 16.6173 87.9339 16.4256 87.9929 16.1012Z" fill="#15006A"/>
<path d="M96.2645 22.3381C96.1023 22.0727 95.9548 21.7926 95.9253 21.7336C95.8811 21.6746 95.9254 21.6156 95.9843 21.6156C96.0581 21.6156 96.6478 22.4266 97.2818 23.4292C97.9306 24.4171 98.4909 25.3607 98.5204 25.5229C98.5695 25.7293 98.54 25.7785 98.4319 25.6703C98.3582 25.5966 97.9011 24.9184 97.4293 24.1812C96.9427 23.4439 96.4267 22.6183 96.2645 22.3381Z" fill="#15006A"/>
<path d="M95.5715 23.267C95.1734 22.5298 95.0702 22.1907 95.2029 22.1464C95.2782 22.1213 95.4071 22.0962 95.4892 22.0802C95.5035 22.0774 95.5163 22.0749 95.5273 22.0727C95.6157 22.0727 95.6305 22.1612 95.542 22.3234C95.4388 22.515 95.5125 22.7657 95.7779 23.2375C95.9843 23.6061 96.4267 24.2549 96.7658 24.6825C97.1049 25.11 97.5915 25.5524 97.8569 25.6556C98.2402 25.8178 98.2845 25.8768 98.078 25.9505C97.8864 26.0242 97.5767 25.803 96.9722 25.1838C96.4856 24.712 95.8811 23.8568 95.5715 23.267Z" fill="#15006A"/>
<path d="M100.054 28.634C99.9506 28.5013 99.9063 28.3391 99.9506 28.2653C99.9948 28.1769 100.186 28.1179 100.363 28.1179C100.555 28.1179 100.924 28.398 101.307 28.8109C101.661 29.1942 101.897 29.5481 101.853 29.5923C101.794 29.6218 101.72 29.5776 101.69 29.4744C101.661 29.3712 101.543 29.2975 101.425 29.2975C101.307 29.2975 101.174 29.1795 101.16 29.0321C101.13 28.8846 100.938 28.6487 100.717 28.4865C100.496 28.3243 100.26 28.2359 100.201 28.2948C100.142 28.3538 100.172 28.575 100.275 28.7814C100.378 28.9731 100.644 29.2385 100.865 29.3564C101.086 29.4744 101.322 29.5334 101.396 29.4744C101.454 29.4154 101.484 29.4744 101.425 29.6218C101.351 29.8577 101.307 29.8577 100.938 29.6661C100.717 29.5334 100.467 29.4449 100.393 29.4449C100.304 29.4449 100.083 29.268 99.8768 29.0468C99.6704 28.8256 99.6262 28.7372 99.7589 28.8551C99.9063 28.9731 100.083 29.0173 100.127 28.9583C100.186 28.8994 100.157 28.7519 100.054 28.634Z" fill="#15006A"/>
<path d="M60.878 46.3272C60.5536 46.1208 60.5094 46.0028 60.5094 45.2951C60.5094 44.838 60.5536 44.4842 60.6126 44.4842C60.6716 44.4842 60.8338 44.5431 60.9517 44.6021C61.1434 44.7201 61.1286 44.7496 60.9075 44.8233C60.7011 44.897 60.6716 45.0297 60.7453 45.3983C60.8043 45.6637 60.937 45.9733 61.0402 46.106C61.1434 46.224 61.2318 46.3714 61.2466 46.4304C61.2466 46.4894 61.0844 46.4452 60.878 46.3272Z" fill="#15006A"/>
<path d="M67.6899 45.5457C67.4245 45.5163 66.8789 45.3098 66.4808 45.0739C66.068 44.8233 65.8616 44.6316 65.9943 44.6316C66.1417 44.6316 66.5693 44.7938 66.9527 45.0149C67.5572 45.3541 67.7194 45.3836 68.0585 45.2361C68.4418 45.0739 68.4713 45.0887 68.4713 45.472C68.4713 45.6932 68.3976 45.9733 68.3239 46.106C68.2059 46.2682 68.1764 46.2387 68.1764 45.9586C68.1764 45.649 68.088 45.5752 67.6899 45.5457Z" fill="#15006A"/>
<path d="M67.336 49.6004C67.6899 49.394 67.9848 49.0696 68.1322 48.7158C68.2649 48.4061 68.3976 48.1702 68.4271 48.1702C68.4566 48.1702 68.4418 48.4061 68.3976 48.7158C68.3386 49.1286 68.1617 49.394 67.7046 49.7921C67.3655 50.0723 67.0411 50.3082 66.9822 50.3082C66.9232 50.3082 66.8347 50.3377 66.7905 50.3819C66.7462 50.4114 67.0559 50.5736 67.4687 50.721C68.2354 50.9717 68.2649 50.9717 69.238 50.6473C69.7836 50.4556 70.2259 50.3377 70.2259 50.3819C70.2407 50.4114 69.9163 50.6473 69.5329 50.8832C69.1496 51.1191 68.604 51.3403 68.3239 51.3845C68.0437 51.414 67.6456 51.414 67.4392 51.3698C67.2328 51.3108 66.82 51.0454 66.5103 50.7505C66.2154 50.4704 65.9943 50.1607 66.0385 50.087C66.0827 49.9985 66.2597 49.9248 66.4366 49.9248C66.6283 49.9248 67.0264 49.7774 67.336 49.6004Z" fill="#15006A"/>
<path d="M59.7722 95.308C59.5657 95.1311 59.3888 94.7919 59.3593 94.5708C59.3446 94.3496 59.3888 94.1727 59.4773 94.1727C59.551 94.1727 59.6247 94.3201 59.6247 94.4971C59.6247 94.674 59.8016 95.0131 60.0228 95.2343C60.244 95.4702 60.3619 95.6471 60.2882 95.6324C60.1997 95.6324 59.9638 95.4849 59.7722 95.308Z" fill="#15006A"/>
<path d="M104.049 6.88602C104.167 6.60588 104.3 6.25201 104.359 6.10457C104.462 5.85391 104.492 5.85391 104.86 6.07508C105.082 6.20778 105.421 6.42894 105.612 6.56164C105.922 6.79755 105.952 6.88602 105.863 7.66747C105.804 8.18352 105.701 8.5079 105.598 8.5079C105.494 8.52265 105.332 8.43418 105.244 8.33097C105.141 8.22776 104.801 8.00659 104.462 7.8444C104.123 7.68222 103.843 7.52003 103.843 7.47579C103.843 7.43156 103.946 7.16616 104.049 6.88602Z" fill="#15006A"/>
<path fill-rule="evenodd" clip-rule="evenodd" d="M119.266 0.634421C121.212 0.66391 123.63 0.781865 124.647 0.89982C125.665 1.03252 127.124 1.29792 127.891 1.50434C128.658 1.71076 129.882 2.16784 130.619 2.5217C131.621 3.02301 132.182 3.42111 132.948 4.18781C133.641 4.86606 134.113 5.51481 134.452 6.22254C134.732 6.78282 135.086 7.81493 135.249 8.50791C135.411 9.2009 135.617 10.6606 135.691 11.7517C135.779 12.8428 135.956 15.4378 136.074 17.502C136.192 19.5662 136.413 21.999 136.811 24.5498L137.327 24.6383C137.608 24.6825 138.537 24.7267 139.392 24.7267C140.247 24.7267 142.635 24.8594 144.7 25.0216C146.764 25.1691 149.256 25.405 150.229 25.5377C151.202 25.6704 152.367 25.8768 152.809 25.9947C153.251 26.1274 154.003 26.4223 154.475 26.6582C154.932 26.8941 155.728 27.4692 156.23 27.9557C156.805 28.4865 157.409 29.268 157.822 29.9757C158.176 30.6245 158.633 31.5681 158.825 32.0989C159.016 32.6297 159.326 33.5881 159.518 34.2368C159.709 34.8856 160.004 36.1094 160.166 36.9646C160.329 37.8197 160.565 39.132 160.697 39.8839C160.815 40.6212 161.154 42.8476 161.435 44.8233C161.497 45.2614 161.562 45.7165 161.626 46.1686C161.85 47.74 162.069 49.2755 162.172 49.9396C162.304 50.7948 162.54 52.2545 162.703 53.1834C162.865 54.1122 163.13 55.4392 163.292 56.1322C163.454 56.8252 163.705 57.8868 163.867 58.4913C164.03 59.0958 164.501 60.5998 164.914 61.8088C165.415 63.2685 165.681 64.2711 165.681 64.7577C165.696 65.2 165.578 65.7013 165.43 66.011C165.283 66.2911 164.752 67.0873 164.265 67.7803C163.764 68.4733 162.703 69.8297 161.892 70.8029C161.081 71.776 160.373 72.6017 160.329 72.6459C160.28 72.6828 160.066 72.9454 159.809 73.262L159.65 73.4569C159.326 73.8697 158.898 74.5922 158.707 75.0787C158.382 75.8602 158.353 76.1846 158.368 77.8064C158.368 79.3251 158.441 79.8854 158.766 81.0502C158.987 81.8169 159.208 82.6573 159.356 83.3356L158.191 82.5247C157.557 82.0823 156.702 81.3451 156.289 80.8733C155.876 80.4162 155.301 79.561 154.991 78.9565C154.696 78.3667 154.357 77.3641 154.225 76.7449C154.092 76.1108 153.989 74.9166 153.989 74.0909C153.989 73.162 154.092 71.9972 154.283 71.0978C154.446 70.2868 154.814 68.8861 155.094 68.0014C155.389 67.1168 155.95 65.6866 156.362 64.8314C156.775 63.9762 157.395 62.7672 157.763 62.1479C158.117 61.5139 158.412 60.9536 158.412 60.8947C158.412 60.8209 157.675 60.585 156.761 60.3491C155.846 60.1132 154.564 59.892 153.915 59.8626C153.045 59.8036 152.367 59.8773 151.335 60.0985C150.568 60.2754 149.241 60.703 148.386 61.0421C147.531 61.396 145.673 62.3544 144.257 63.18C142.842 64.0057 141.146 64.9051 140.497 65.2C139.849 65.4802 138.846 65.8193 138.286 65.952C137.608 66.0994 136.767 66.1584 135.853 66.1289C134.629 66.0847 134.32 66.0257 133.494 65.6129C132.963 65.3622 132.196 64.8314 131.798 64.4333C131.268 63.932 130.958 63.4602 130.722 62.8409C130.53 62.3544 130.25 61.396 130.103 60.703C129.955 60.01 129.749 58.7862 129.66 57.9753C129.557 57.1643 129.469 55.1738 129.439 53.552C129.424 51.8711 129.292 49.7774 129.144 48.6863C129.012 47.6395 128.849 46.7253 128.805 46.6516C128.746 46.5926 127.935 46.4157 127.006 46.2682C126.078 46.1061 124.117 45.8996 122.657 45.7964C121.197 45.708 118.469 45.6195 116.612 45.6342C114.754 45.6342 111.495 45.7374 109.387 45.8701C107.278 46.0028 104.153 46.283 102.457 46.4747C100.761 46.6811 97.7388 47.1087 95.7483 47.4478C93.0501 47.8901 92.0917 48.1113 91.959 48.2882C91.8558 48.4357 91.7084 49.0402 91.6199 49.6447C91.5314 50.2492 91.266 51.414 91.0301 52.225C90.809 53.0359 90.3814 54.2302 90.1012 54.879C89.8211 55.5277 89.3493 56.4566 89.0544 56.9432C88.7595 57.4297 88.1255 58.2702 87.6389 58.8304C87.1524 59.376 86.7543 59.8478 86.7543 59.892C86.7543 59.9289 87.1326 60.5384 87.6339 61.3459C87.7345 61.508 87.8401 61.678 87.9486 61.853C88.1801 62.2132 88.3973 62.5519 88.5826 62.8408L88.5901 62.8525C88.9316 63.385 89.1628 63.7455 89.1723 63.7551C89.1723 63.7698 90.116 63.4897 91.2513 63.1063C93.1091 62.5018 93.4924 62.4281 95.0848 62.3691C96.0874 62.3249 97.2375 62.3544 97.7388 62.4576C98.2254 62.546 99.2133 62.9146 99.9505 63.2685C100.894 63.7403 101.572 64.2121 102.324 64.9346C102.914 65.4802 103.917 66.6745 104.58 67.5591C105.465 68.7387 105.775 69.2842 105.745 69.5496C105.716 69.7855 105.391 70.1541 104.816 70.6259C104.33 71.0093 103.533 71.5548 103.047 71.8202C102.56 72.0856 101.808 72.4395 100.614 72.8671L100.068 72.3215C99.7588 72.0267 99.169 71.5991 98.7709 71.3484C98.3581 71.1125 97.5766 70.7734 97.0016 70.5965C96.3823 70.4048 95.365 70.2278 94.4951 70.1836C93.6841 70.1394 92.8437 70.1394 92.6078 70.1836C92.3276 70.2573 92.2244 70.3605 92.2687 70.5522C92.2982 70.6849 92.652 71.894 93.0649 73.2357C93.4777 74.5774 94.0822 76.7006 94.4066 77.9539C94.731 79.2072 95.0553 80.4015 95.1291 80.6079C95.2175 80.8143 96.0874 81.7432 97.0901 82.6721C98.0779 83.601 98.9331 84.353 98.9774 84.3235C99.0216 84.294 99.1838 84.4562 99.3165 84.6921C99.4639 84.9132 99.5819 85.0607 99.5819 85.0017C99.5819 84.928 99.6703 84.9722 99.7883 85.0754C99.9062 85.1639 99.9652 85.2966 99.9357 85.3703C99.9062 85.4293 99.9947 85.562 100.127 85.6652C100.334 85.8126 100.349 85.8126 100.245 85.621C100.127 85.4293 100.142 85.4293 100.408 85.621C100.555 85.7389 100.968 86.1075 101.307 86.4319C101.646 86.7563 101.882 87.0954 101.823 87.1691C101.764 87.2429 101.794 87.2723 101.867 87.2134C101.956 87.1544 102.56 87.6262 103.209 88.2455C103.561 88.5739 103.979 88.9687 104.358 89.3264L104.361 89.3288L104.368 89.3356L104.37 89.3376C104.701 89.65 105.001 89.9332 105.199 90.118C105.627 90.5308 106.04 90.8405 106.099 90.8257C106.158 90.7962 106.217 90.8257 106.217 90.8995C106.217 90.9584 106.364 91.1648 106.526 91.3713C106.689 91.5777 106.777 91.6367 106.718 91.5187C106.615 91.327 106.63 91.327 106.866 91.5187C106.998 91.6367 107.116 91.8431 107.116 91.961C107.126 92.0987 107.151 92.1134 107.19 92.0053C107.219 91.8873 107.912 92.4623 108.797 93.3323C109.638 94.158 110.345 94.8804 110.345 94.9541C110.345 95.0131 110.257 95.0131 110.154 94.9541C110.05 94.9099 110.036 94.9247 110.095 94.9984C110.168 95.0721 110.301 95.1311 110.389 95.1311C110.493 95.1311 110.581 95.2785 110.596 95.4702C110.625 95.6471 110.743 95.7946 110.861 95.7946C110.979 95.7946 111.082 95.8978 111.082 96.0157C111.082 96.1337 111.215 96.3106 111.377 96.3844C111.54 96.4581 111.672 96.635 111.672 96.753C111.672 96.8709 111.716 96.9741 111.775 96.9741C111.849 96.9741 112.056 97.1806 112.262 97.446C112.468 97.7114 112.527 97.8735 112.409 97.8146C112.292 97.7408 112.321 97.8146 112.483 97.962C112.645 98.1094 112.852 98.3748 112.94 98.5223C113.029 98.6845 113.412 99.3922 113.781 100.115C114.164 100.822 114.739 102.179 115.049 103.137C115.358 104.081 115.697 105.26 115.771 105.747C115.86 106.234 115.978 107.221 116.037 107.959C116.081 108.711 116.051 109.92 115.948 110.76C115.86 111.571 115.653 112.765 115.506 113.414C115.358 114.063 115.093 115.021 114.901 115.552C114.724 116.083 114.282 117.1 113.913 117.837C113.56 118.575 112.867 119.725 112.395 120.418C111.923 121.111 111.348 121.877 111.127 122.128C110.906 122.364 110.537 122.806 110.331 123.086C110.124 123.367 109.682 123.853 109.372 124.163C109.063 124.472 108.561 124.915 108.281 125.121C108.001 125.328 107.573 125.726 107.323 125.991C107.087 126.242 106.836 126.463 106.762 126.463C106.703 126.463 106.394 126.728 106.069 127.053C105.745 127.377 105.317 127.672 105.111 127.716C104.905 127.76 104.772 127.864 104.816 127.937C104.86 128.011 104.846 128.085 104.772 128.085C104.713 128.07 104.492 128.232 104.285 128.409C104.079 128.601 103.769 128.837 103.622 128.94C103.586 128.959 103.541 128.985 103.489 129.014L103.389 129.07C103.218 129.167 103.007 129.287 102.826 129.382C102.545 129.515 102.28 129.677 102.236 129.736C102.192 129.795 101.956 129.957 101.72 130.09C101.484 130.223 101.101 130.429 100.865 130.532C100.643 130.65 100.437 130.812 100.393 130.886C100.349 130.96 100.142 131.034 99.9062 131.034C99.6851 131.034 99.4049 130.93 99.287 130.827C99.169 130.709 98.9184 130.591 98.7267 130.532C98.4908 130.473 98.2106 130.591 97.6356 131.078C96.9426 131.638 96.8689 131.771 96.8099 132.361C96.7804 132.729 96.8689 133.496 97.0016 134.056C97.1343 134.616 97.2817 135.84 97.3407 136.754C97.3997 137.654 97.3997 138.406 97.326 138.406C97.267 138.406 97.0458 138.317 96.8099 138.199C96.5888 138.096 95.822 137.226 95.0848 136.268C94.8043 135.909 94.4639 135.469 94.1117 135.013L94.1094 135.01L94.1031 135.002L94.1013 134.999L94.0996 134.997C93.53 134.26 92.9308 133.485 92.5046 132.95C91.8116 132.08 91.1039 131.093 90.5878 130.149L94.3476 126.463L93.9643 126.065C93.7431 125.829 93.4924 125.504 93.404 125.328C93.2713 125.062 93.3008 124.826 93.5219 124.222C93.6694 123.794 94.1559 122.57 94.613 121.524C95.0553 120.477 95.881 118.545 96.4561 117.248C97.0163 115.95 97.7241 114.372 98.019 113.753C98.3139 113.119 98.5498 112.5 98.5498 112.382C98.5498 112.264 98.0337 111.777 97.3997 111.32C96.7804 110.863 95.5419 109.92 93.0649 107.959L93.1533 106.042C93.2123 104.995 93.3155 103.299 93.404 102.282C93.5072 101.147 93.6694 100.218 93.8168 99.8493C93.9643 99.5249 94.5983 98.596 95.2175 97.7851C95.8368 96.9741 96.3381 96.1927 96.3381 96.06C96.3381 95.9125 96.4413 95.7503 96.574 95.6914C96.7067 95.6176 96.7804 95.4407 96.7509 95.2785C96.7067 95.0279 96.6477 95.0574 96.4118 95.4997C96.2496 95.7798 96.1464 96.06 96.1612 96.1337C96.1759 96.1927 96.1169 96.2074 96.0432 96.1632C95.9695 96.119 95.6451 96.4433 95.3355 96.8709C95.0259 97.2838 94.4213 98.0357 93.9938 98.5223C93.5662 99.0089 93.1681 99.6429 93.0943 99.923C93.0206 100.203 92.8584 101.471 92.7257 102.724C92.593 103.978 92.2834 106.676 92.0475 108.696C91.8116 110.731 91.4725 113.045 91.3103 113.856C91.1481 114.667 90.6763 116.363 90.2634 117.616C89.8064 118.987 89.0691 120.757 88.4204 122.04C87.8306 123.219 86.9312 124.753 86.4299 125.446C85.9138 126.153 85.2356 127.008 84.9112 127.362C84.5721 127.716 83.9823 128.276 83.5842 128.616C83.1714 128.94 82.5079 129.412 82.1098 129.662C81.6969 129.913 80.9155 130.252 80.3405 130.414C79.7654 130.591 78.9987 130.739 78.6006 130.739C78.2173 130.739 77.023 130.518 75.9466 130.237C74.8851 129.957 72.9388 129.353 71.6413 128.91C70.3438 128.468 68.3385 127.701 67.1737 127.215C66.0237 126.714 64.2838 125.917 63.3107 125.431C62.3376 124.944 61.158 124.31 60.6862 124.015C60.58 123.947 60.4631 123.872 60.3426 123.794L60.3363 123.79C59.9402 123.536 59.5036 123.255 59.256 123.086C58.9406 122.886 58.2766 122.406 57.7522 122.027L57.7079 121.995C57.1771 121.597 55.9238 120.536 54.9212 119.621C53.9186 118.722 52.9897 117.823 52.8717 117.616C52.6948 117.321 52.68 117.13 52.8127 116.658C52.9012 116.333 53.0044 115.921 53.0486 115.744C53.1224 115.464 53.0191 115.331 52.5473 115.036C52.2229 114.83 51.8838 114.667 51.8101 114.667C51.7364 114.667 50.6453 115.272 49.4068 115.994C48.183 116.732 47.0772 117.321 46.974 117.321C46.8855 117.321 46.6938 117.218 46.5759 117.1C46.3842 116.909 46.5021 116.584 47.6227 114.269C48.3157 112.824 49.2151 111.026 50.4094 108.888L50.9254 108.947C51.2056 108.991 52.1492 109.33 53.0191 109.713C53.9038 110.082 54.6263 110.377 54.6558 110.362C54.6813 110.336 54.8173 110.035 54.9874 109.657L55.0686 109.477C55.3193 108.858 55.4815 108.652 55.6436 108.711C55.7616 108.755 57.2213 109.153 58.8874 109.595C60.5535 110.038 63.237 110.745 64.8589 111.143C66.4808 111.556 68.7956 112.117 70.0194 112.382C71.2284 112.662 72.2311 112.869 72.2458 112.854C72.2458 112.839 72.2016 111.999 72.1279 110.981C72.0541 109.964 72.0246 107.546 72.0541 105.6C72.0984 103.58 72.2311 101.338 72.3638 100.365C72.4965 99.4364 72.7029 98.2127 72.8208 97.6376C72.9535 97.0626 73.2484 95.9715 73.4843 95.2048C73.7202 94.4381 74.1183 93.3618 74.8113 91.8136L72.8798 89.7936C71.8182 88.6731 70.0931 86.771 69.061 85.5472C68.0289 84.3382 66.6724 82.6721 66.0384 81.8612C65.4044 81.0502 64.3871 79.679 63.7678 78.7943C63.1485 77.9244 62.5735 77.2167 62.4998 77.2167C62.4261 77.2314 61.6151 77.6 59.1086 78.9123V91.1059L58.7695 91.386C58.5925 91.5335 58.4451 91.7399 58.4451 91.8136C58.4451 91.8873 58.7547 92.2264 59.1381 92.5508C59.5362 92.8899 59.8753 93.1553 59.9195 93.1406C59.9637 93.1406 60.008 93.2291 60.0227 93.3323C60.0295 93.3727 60.0518 93.4754 60.0809 93.6097L60.0814 93.6119C60.1158 93.7708 60.1599 93.9739 60.1997 94.1727C60.2881 94.5413 60.4503 95.1016 60.5683 95.426C60.6862 95.7503 60.7894 96.1779 60.8042 96.3844C60.8042 96.5908 60.701 96.8709 60.5535 97.0036C60.4061 97.1511 59.6983 97.4312 58.9611 97.6229C58.0175 97.8883 57.4277 97.962 56.8969 97.9178C56.4841 97.8735 55.9238 97.7408 55.6436 97.6229C55.3635 97.5049 54.9359 97.2248 54.7148 97.0036C54.4936 96.7825 54.2429 96.3696 54.1692 96.0895C54.0807 95.8093 54.0218 95.3375 54.0218 95.0574C54.0365 94.7772 54.1397 94.2759 54.2577 93.9515C54.3756 93.6272 54.5231 93.2438 54.5821 93.1111C54.6705 92.8752 54.6115 92.8605 54.066 92.9637C53.5647 93.0521 53.3878 93.0079 53.1224 92.772C52.9454 92.6098 51.7511 90.3539 50.4684 87.7589C48.8023 84.3824 48.0355 82.6868 47.7996 81.7874C47.549 80.7996 47.4753 80.1213 47.4753 78.6174C47.4753 77.084 47.549 76.45 47.8144 75.4473C47.9913 74.7544 48.3747 73.6928 48.6548 73.0882C48.935 72.4837 49.451 71.5548 49.7901 71.024C50.1145 70.4932 50.5863 69.8297 50.8222 69.5496L50.9091 69.4524C51.1924 69.1354 51.7138 68.5518 52.164 68.0752C52.6653 67.5444 53.5942 66.6745 54.2429 66.1437C54.8917 65.6129 55.9238 64.8167 56.5283 64.3743C57.1328 63.932 58.563 62.9441 59.6983 62.1922C60.8337 61.4255 61.8658 60.703 61.9837 60.585C62.1017 60.4671 62.1164 60.4081 62.0132 60.4671C61.8805 60.5261 61.851 60.3786 61.91 59.8626C61.9288 59.6086 61.9656 59.2286 62.0013 58.8604L62.0014 58.8594C62.0216 58.6508 62.0415 58.446 62.0574 58.2702C62.1017 57.6509 62.0574 57.1791 61.8658 56.6778C61.6888 56.1765 61.5561 55.9848 61.394 56.0438C61.276 56.0733 60.7747 56.2502 60.2881 56.4271C59.6246 56.663 59.2413 56.722 58.74 56.6483C58.3714 56.5893 57.7079 56.4271 57.2655 56.2797C56.8232 56.1322 56.0712 55.9111 55.5994 55.7784C55.0686 55.6309 54.6705 55.4245 54.5378 55.2181C54.4199 55.0264 54.3167 54.7315 54.3167 54.5546C54.3167 54.3629 54.2429 54.186 54.1692 54.1417C54.0955 54.0975 53.9628 54.186 53.8891 54.3334C53.7564 54.5546 53.7121 54.5546 53.5205 54.3629C53.3583 54.2155 53.2698 53.8026 53.2403 53.0359C53.2256 52.4314 53.2551 51.7532 53.314 51.532C53.3878 51.2813 53.373 51.1191 53.2845 51.1191C53.2108 51.1191 52.8864 51.2961 52.5768 51.5025C52.2819 51.7089 51.8691 51.9153 51.6627 51.9448C51.4562 51.9891 51.2793 52.0038 51.2646 51.9743C51.2351 51.9448 51.3088 51.6647 51.4268 51.3403C51.53 51.0159 51.7511 49.9838 51.8986 49.0549C52.0313 48.126 52.1492 47.2266 52.1345 47.0644C52.1345 46.9148 52.0843 46.2255 52.0302 45.4829L52.0165 45.2951C51.9281 43.9976 51.9576 43.688 52.2524 42.7149C52.4294 42.1103 52.7095 41.3141 52.8717 40.9455C53.0486 40.5769 53.432 39.9134 53.7269 39.4711C54.0365 39.0288 54.5821 38.38 54.9654 38.0409C55.334 37.687 55.909 37.2742 56.2334 37.112C56.5578 36.9498 57.1033 36.7729 57.4425 36.7286C57.8651 36.6598 58.3468 36.7139 58.8874 36.8908C59.3297 37.0235 59.831 37.2299 59.9932 37.3184C60.1554 37.4216 60.4208 37.5543 60.583 37.6133C60.8484 37.7165 60.8632 37.7018 60.6567 37.4511C60.5388 37.3037 60.3176 37.0383 60.1407 36.8613C59.9785 36.6697 59.8753 36.4927 59.9195 36.4485C59.9637 36.4043 60.2734 36.5665 60.6125 36.8171C60.9664 37.053 61.3645 37.5101 61.5266 37.8197C61.6741 38.1146 61.851 38.6012 61.9247 38.8813C61.9985 39.2647 61.9837 39.3679 61.8658 39.2942C61.7478 39.2204 61.6888 39.2794 61.6888 39.4416C61.6741 39.5743 61.7626 39.766 61.8658 39.8397C61.969 39.9282 62.3081 40.1051 63.1633 40.5032L63.0748 39.589C63.0306 39.073 62.8684 37.5986 62.7062 36.3011C62.6434 35.7486 62.4684 34.258 62.2289 32.2185C61.9059 29.4677 61.4656 25.7184 61.0253 21.9253C60.2586 15.3198 59.4919 8.81755 59.3297 7.47581C59.1528 6.13407 58.9759 4.37949 58.8432 2.09411L59.3002 1.9909C59.5656 1.91718 59.9343 1.93193 60.1407 2.02039C60.4208 2.13835 60.524 2.30054 60.583 2.72812C60.5978 2.87557 60.6346 3.20731 60.6807 3.622L60.6811 3.626C60.7271 4.03988 60.7822 4.53585 60.8337 5.0135C61.0106 6.5764 61.0548 6.73859 61.3202 6.73859C61.4824 6.73859 62.6767 6.60589 63.9742 6.4437C65.2717 6.28151 68.5302 5.88342 71.199 5.55904L72.4164 5.41101C74.7297 5.12967 77.043 4.84835 77.9076 4.7481C78.925 4.63015 83.3631 4.09935 87.7864 3.56855C89.7088 3.33786 91.7843 3.08768 93.6802 2.85916L93.6828 2.85884C96.1482 2.56168 98.3094 2.30117 99.4344 2.16784C101.425 1.93193 104.344 1.60755 105.922 1.44536C107.5 1.28317 110.021 1.04726 111.525 0.929309C113.029 0.796609 114.577 0.66391 114.99 0.634421C115.388 0.604933 117.319 0.604933 119.266 0.634421ZM49.9523 23.9895C49.9818 24.0337 50.6895 25.7146 51.5152 27.7493C52.3409 29.7693 53.0929 31.7156 53.1961 32.0547C53.2845 32.3938 53.3288 32.7182 53.2845 32.7624C53.2403 32.8066 53.1076 32.8066 52.9897 32.7624C52.8717 32.7182 52.4883 31.8925 52.1197 30.8751C51.8232 30.0473 51.33 28.5983 50.9177 27.387L50.6895 26.7172C50.2472 25.4197 49.8933 24.2549 49.8933 24.1369C49.8786 24.019 49.9081 23.9453 49.9523 23.9895ZM42.4917 34.7529C42.5528 34.8412 42.6707 35.0021 42.8114 35.1941C42.9759 35.4186 43.1721 35.6862 43.3468 35.9324C43.686 36.3748 44.4527 37.2152 45.0424 37.7755C45.647 38.3505 46.8118 39.2499 47.6522 39.766C48.6253 40.3705 49.1119 40.7539 48.9792 40.8276C48.876 40.8718 48.5811 40.8571 48.3452 40.7833C48.1093 40.7096 47.549 40.4295 47.1214 40.1641C46.6938 39.9134 45.9418 39.3236 45.4405 38.8813C44.9392 38.439 44.1578 37.6133 43.7007 37.0383C43.2436 36.4632 42.7128 35.726 42.5359 35.3722C42.3737 35.033 42.2263 34.6644 42.241 34.5612C42.241 34.4727 42.359 34.5465 42.4917 34.7529ZM40.5307 50.6031C41.2679 50.6326 42.0641 50.721 42.3 50.8095C42.3587 50.8268 42.4295 50.8481 42.5081 50.8717C42.7652 50.9491 43.1053 51.0514 43.3763 51.1191C43.8629 51.2371 43.9808 51.3256 43.9071 51.5172C43.8334 51.7679 43.7302 51.7532 42.5506 51.3698C41.7102 51.1044 40.7813 50.9275 39.8672 50.8685C38.8646 50.7948 38.5697 50.7358 38.8351 50.6473C39.0415 50.5883 39.8082 50.5589 40.5307 50.6031ZM44.9982 58.0637C45.4553 58.049 45.6175 58.108 45.6175 58.2702C45.6175 58.3881 45.5143 58.5208 45.3963 58.565C45.2784 58.6093 44.2905 58.7125 43.2289 58.801C42.1525 58.8894 40.9877 59.0221 40.6486 59.0958C40.2948 59.1696 39.764 59.3318 39.4691 59.4645C39.1594 59.5824 38.5992 59.9215 38.2158 60.2017C37.8177 60.4818 37.5081 60.6293 37.5081 60.5555C37.5081 60.4818 37.7882 60.1869 38.1421 59.9215C38.4812 59.6561 38.9235 59.3318 39.1299 59.1991C39.3364 59.0664 39.9556 58.8304 40.5307 58.6535C41.1057 58.4913 42.1968 58.2849 42.9635 58.2112L43.3776 58.1791C44.0342 58.1281 44.7065 58.0759 44.9982 58.0637ZM69.5034 88.8647L70.5649 89.5872C71.5086 90.2065 71.656 90.3687 71.7592 90.87C71.8182 91.1943 71.9067 92.2707 71.9509 93.288C72.0394 94.8509 71.9952 95.3817 71.715 96.8267C71.5381 97.7556 71.3464 99.2595 71.1842 101.766L71.022 101.029C70.9336 100.616 70.6829 99.0383 70.4765 97.4902C70.389 96.7832 70.2767 95.9095 70.1653 95.0417L70.1632 95.0258C70.0314 93.999 69.9006 92.981 69.813 92.2559C69.6361 90.9142 69.5034 89.6019 69.5034 89.3513V88.8647ZM117.423 129.397C117.511 129.397 117.57 129.441 117.57 129.471C117.57 129.515 117.511 129.677 117.423 129.839C117.349 130.002 116.936 130.459 116.523 130.842C116.11 131.225 115.403 132.066 114.946 132.714C114.488 133.363 113.81 134.528 113.427 135.295C113.058 136.076 112.572 137.197 112.35 137.801C112.129 138.421 111.761 139.644 111.54 140.529C111.304 141.428 110.965 142.918 110.788 143.846C110.596 144.923 110.404 146.84 110.095 152.472L110.08 148.978C110.065 146.073 110.109 145.173 110.345 143.743C110.507 142.785 110.802 141.34 111.009 140.529C111.2 139.718 111.569 138.435 111.82 137.654C112.085 136.887 112.542 135.722 112.837 135.074C113.147 134.425 113.648 133.496 113.958 133.009C114.267 132.523 115.137 131.52 115.904 130.768C116.656 130.016 117.349 129.397 117.423 129.397ZM74.9293 130.93C75.062 130.989 75.5338 131.137 75.9614 131.255C76.389 131.373 76.7723 131.55 76.8313 131.653C76.8903 131.756 77.2441 133.894 77.6275 136.401C77.8178 137.606 78.035 138.986 78.2358 140.262C78.4549 141.654 78.6544 142.922 78.7776 143.699C79.0282 145.203 79.3673 147.4 79.5295 148.565C79.6917 149.744 79.8539 150.894 79.8981 151.115C79.9719 151.499 79.8981 151.558 78.6449 152.177C77.9224 152.546 77.3031 152.826 77.2736 152.811C77.2441 152.782 77.1115 151.882 76.9788 150.776C76.8461 149.685 76.4037 146.073 75.9909 142.741C75.5928 139.423 75.1652 135.944 75.0325 135C74.9145 134.071 74.7818 132.744 74.7376 132.066C74.6786 130.93 74.6934 130.842 74.9293 130.93ZM59.89 135.295C60.0227 135.295 60.5388 135.708 61.0253 136.224C61.5119 136.725 62.3523 137.713 62.8831 138.391C63.4287 139.084 64.2101 140.219 64.6525 140.898C65.08 141.591 65.8468 143.021 66.3481 144.068C66.8641 145.129 67.6013 146.987 68.0142 148.196C68.4123 149.42 68.8841 151.012 69.0758 151.735C69.2527 152.472 69.5328 153.902 69.7098 154.934C69.8867 155.952 70.0636 156.836 70.0931 156.881C70.1374 156.939 71.3022 156.438 72.6734 155.775C74.0594 155.126 76.1531 154.123 77.3179 153.548C78.4974 152.973 80.9892 151.779 82.847 150.894C84.7195 149.995 87.2998 148.771 88.5973 148.167C89.8948 147.562 91.6641 146.84 92.5046 146.545C93.5367 146.206 94.4508 146.014 95.2323 145.955C95.881 145.911 96.9869 145.955 97.6651 146.043C98.3581 146.132 99.7588 146.441 100.761 146.736C101.779 147.017 102.663 147.311 102.722 147.356C102.781 147.415 102.988 148.093 103.18 148.86C103.371 149.641 103.696 150.54 103.917 150.894C104.123 151.233 104.551 151.794 104.86 152.133C105.155 152.457 105.804 153.017 106.291 153.371C106.777 153.71 107.573 154.168 108.06 154.389C108.546 154.61 109.549 154.934 110.272 155.126C111.009 155.318 112.66 155.583 113.958 155.701C115.255 155.834 117.717 156.011 119.413 156.084C121.123 156.173 123.011 156.335 123.615 156.468C124.234 156.586 125.06 156.792 125.458 156.925C125.871 157.057 126.697 157.411 127.301 157.721C127.921 158.031 128.894 158.606 129.483 159.018C130.073 159.431 130.987 160.286 131.518 160.92C132.049 161.54 132.993 162.719 133.612 163.53C134.231 164.341 135.219 165.58 135.809 166.258C136.399 166.951 136.885 167.6 136.885 167.703C136.885 167.806 136.974 167.865 137.062 167.85C137.151 167.821 137.313 167.954 137.401 168.13C137.475 168.293 137.77 168.647 138.035 168.897C138.301 169.148 138.551 169.31 138.61 169.251C138.669 169.192 138.669 169.222 138.61 169.325C138.551 169.428 138.64 169.561 138.846 169.634C139.023 169.708 139.878 170.386 140.719 171.153C141.574 171.905 142.93 173.07 143.727 173.719C144.194 174.091 144.85 174.626 145.482 175.142L145.49 175.148L145.491 175.15C145.932 175.509 146.361 175.859 146.705 176.137L146.846 176.255L147.045 176.421L147.197 176.548L147.694 176.962L147.695 176.964L147.704 176.971C148.442 177.586 149.283 178.287 149.89 178.805C150.995 179.734 152.116 180.87 153.207 182.197C154.121 183.288 155.198 184.703 155.61 185.352C156.023 186.001 157.026 187.858 157.852 189.48C158.677 191.102 159.695 192.96 160.122 193.609C160.535 194.257 161.376 195.29 161.98 195.894C162.585 196.513 163.499 197.251 164.03 197.56C164.546 197.87 165.607 198.327 166.374 198.563C167.155 198.814 168.541 199.123 169.47 199.241C170.886 199.433 171.593 199.433 173.599 199.3C174.94 199.212 176.297 199.138 176.621 199.138C176.975 199.138 177.152 199.197 177.064 199.285C176.99 199.359 176.223 199.521 175.368 199.654C174.528 199.772 172.891 199.875 171.756 199.875C170.576 199.875 169.161 199.787 168.438 199.654C167.76 199.536 166.787 199.33 166.3 199.212C165.814 199.094 165.017 198.799 164.531 198.563C164.044 198.342 163.219 197.826 162.703 197.428C162.186 197.029 161.405 196.277 160.963 195.747C160.52 195.231 159.886 194.361 159.532 193.83C159.179 193.314 158.176 191.515 157.306 189.849C156.436 188.198 155.36 186.266 154.917 185.573C154.475 184.895 153.664 183.789 153.104 183.14C152.558 182.491 151.423 181.297 150.583 180.471C149.742 179.646 148.209 178.275 147.191 177.449C146.916 177.224 146.572 176.944 146.19 176.632C145.143 175.776 143.805 174.683 142.768 173.851C141.367 172.716 139.524 171.124 138.684 170.313C137.844 169.502 136.605 168.219 135.941 167.437C135.263 166.671 134.054 165.182 133.243 164.12C132.432 163.073 131.4 161.82 130.973 161.348C130.398 160.714 130.117 160.508 129.97 160.611C129.793 160.714 129.778 161.068 129.852 162.646C129.911 163.707 130.088 165.462 130.25 166.553C130.412 167.659 130.692 169.148 130.855 169.87C131.017 170.608 131.385 172.126 131.68 173.261C131.961 174.397 132.418 176.358 132.698 177.611C133.022 179.056 133.184 180.059 133.125 180.339C133.066 180.589 132.816 181.002 132.565 181.282C132.3 181.548 130.707 182.845 128.997 184.158C127.301 185.47 125.709 186.738 125.458 186.974C125.193 187.224 124.883 187.637 124.751 187.903C124.588 188.212 124.426 189.215 124.279 190.807C124.161 192.149 123.969 193.697 123.851 194.243C123.748 194.788 123.541 195.614 123.409 196.086C123.291 196.543 123.114 196.97 123.025 197C122.952 197.044 122.745 196.926 122.583 196.749C122.421 196.558 122.288 196.366 122.288 196.307C122.288 196.248 121.861 195.186 121.315 193.948C120.784 192.709 119.634 190.232 118.75 188.448C117.88 186.664 116.582 184.246 115.874 183.066C115.167 181.902 114.179 180.368 112.793 178.422L112.66 179.086C112.601 179.454 112.586 180.354 112.631 181.076C112.69 181.813 112.822 183.037 112.94 183.804C113.058 184.585 113.279 186.443 113.442 187.932C113.604 189.436 113.692 190.704 113.663 190.734C113.619 190.778 113.589 190.719 113.589 190.586C113.589 190.468 113.486 190.306 113.368 190.218C113.206 190.114 113.102 189.613 113.014 188.522C112.926 187.681 112.704 185.794 112.498 184.364C112.292 182.919 112.115 181.076 112.115 180.265C112.115 179.454 112.188 178.496 112.262 178.127C112.409 177.508 112.439 177.478 112.719 177.655C112.881 177.759 113.368 178.304 113.795 178.864C114.238 179.439 114.916 180.398 115.314 181.002C115.727 181.622 116.612 183.081 117.29 184.246C117.968 185.426 118.941 187.283 119.472 188.374C119.988 189.48 120.917 191.5 121.507 192.872C122.097 194.257 122.657 195.452 122.731 195.525C122.819 195.629 122.922 195.555 123.011 195.304C123.084 195.113 123.261 194.375 123.379 193.682C123.512 193.004 123.659 191.574 123.704 190.512C123.763 189.466 123.851 188.374 123.925 188.08C123.999 187.799 124.279 187.298 124.544 186.974C124.824 186.649 126.004 185.662 127.169 184.777C128.333 183.892 129.896 182.683 130.619 182.108C131.356 181.518 132.123 180.87 132.683 180.265L132.344 178.673C132.152 177.818 131.607 175.576 131.135 173.704C130.663 171.846 130.147 169.62 129.985 168.764C129.823 167.924 129.601 166.494 129.513 165.594C129.424 164.71 129.351 163.029 129.366 159.77L128.599 159.195C128.171 158.886 127.463 158.443 127.006 158.222C126.564 158.001 125.842 157.691 125.385 157.544C124.942 157.382 124.013 157.161 123.32 157.043C122.642 156.925 120.209 156.733 117.939 156.6C115.668 156.482 113.22 156.32 112.483 156.232C111.761 156.158 110.773 155.996 110.316 155.878C109.844 155.745 108.945 155.45 108.325 155.214C107.691 154.964 106.748 154.492 106.217 154.138C105.701 153.799 104.89 153.15 104.433 152.708C103.99 152.251 103.445 151.558 103.238 151.145C103.032 150.747 102.693 149.818 102.472 149.081C102.265 148.358 102.074 147.739 102.059 147.724C102.029 147.71 101.086 147.459 99.9505 147.164C98.8152 146.884 97.3997 146.604 96.7804 146.559C96.1464 146.5 95.2175 146.545 94.5688 146.648C93.9643 146.751 93.1091 146.958 92.652 147.105C92.2097 147.252 90.5583 147.975 88.9659 148.727C87.3883 149.479 85.56 150.334 84.9112 150.629C84.2625 150.939 81.52 152.251 78.7923 153.563L78.4921 153.708L78.4857 153.711L78.4793 153.714C75.846 154.988 72.9178 156.404 70.1669 157.78L70.2406 159.328C70.2848 160.183 70.2995 162.41 70.2848 164.267C70.2553 166.966 70.1963 167.983 69.9604 169.207C69.7982 170.062 69.4591 171.374 69.2085 172.126C68.9726 172.878 68.5302 173.969 68.2353 174.559C67.9404 175.149 67.2917 176.21 66.8051 176.903C66.3038 177.611 65.8173 178.201 65.7141 178.201C65.6108 178.201 65.5224 178.157 65.5371 178.098C65.5371 178.039 65.8615 177.552 66.2596 177.021C66.6577 176.505 67.277 175.473 67.6603 174.736C68.0289 174.013 68.5007 172.922 68.6924 172.303C68.8988 171.699 69.1937 170.578 69.3559 169.797C69.5181 169.03 69.7245 167.378 69.813 166.11C69.9309 164.4 69.9309 163.132 69.813 161.024C69.7098 159.49 69.6066 158.178 69.5771 158.119C69.5328 158.06 68.3975 158.547 67.041 159.195C65.6846 159.859 62.7504 161.26 60.5093 162.306C58.2829 163.368 54.1397 165.373 51.2941 166.789C48.4631 168.189 45.4258 169.797 44.5559 170.342C43.686 170.902 42.4327 171.743 41.7544 172.229C41.091 172.716 39.6755 173.984 38.6139 175.031C37.051 176.594 36.4022 177.39 35.149 179.233C34.2938 180.486 33.2912 181.902 32.9078 182.374C32.5245 182.831 31.7283 183.553 31.1385 183.966C30.5487 184.379 29.7083 184.91 29.2512 185.131C28.8089 185.352 27.1575 186.06 25.5651 186.679C23.9875 187.313 21.8643 188.242 20.8469 188.758C19.8443 189.274 18.016 190.35 16.7922 191.161C15.5832 191.957 14.0498 193.063 13.401 193.623C12.7523 194.169 11.8381 194.98 11.381 195.437C10.9092 195.894 10.4964 196.248 10.4521 196.233C10.4079 196.204 10.3784 196.233 10.3784 196.263C10.3784 196.307 10.3047 196.44 10.2015 196.543C10.0983 196.661 9.96558 196.72 9.9066 196.69C9.84763 196.661 9.78865 196.705 9.78865 196.779C9.78865 196.867 9.06617 197.767 8.16677 198.769C7.28211 199.787 6.48591 200.612 6.39744 200.612C6.32372 200.612 6.25 200.568 6.25 200.509C6.25 200.45 6.35321 200.303 6.48591 200.17C6.63335 200.052 7.25262 199.285 7.88663 198.474C8.50589 197.663 9.74442 196.307 10.6291 195.437C11.5137 194.582 12.9292 193.329 13.7696 192.65C14.6248 191.987 16.114 190.911 17.0871 190.262C18.0602 189.628 19.7558 188.64 20.8469 188.094C21.9528 187.534 24.0317 186.605 25.4914 186.03C26.9511 185.44 28.6762 184.688 29.3249 184.349C30.1654 183.907 30.8436 183.406 31.684 182.55C32.4065 181.843 33.3649 180.648 34.1169 179.528C34.7951 178.525 35.5766 177.39 35.8714 177.021C36.1663 176.667 36.5055 176.269 36.6234 176.166C36.8151 176.004 36.8151 175.989 36.6234 176.063C36.5055 176.122 37.11 175.488 37.9504 174.647C38.8056 173.807 40.0294 172.716 40.6781 172.229C41.3269 171.728 42.2558 171.065 42.7423 170.74C43.2289 170.416 44.3347 169.723 45.1751 169.207C46.0303 168.705 48.1535 167.57 49.8933 166.7C51.6479 165.83 53.2993 165.019 53.5794 164.901C53.8743 164.783 56.8822 163.353 60.2881 161.731L60.8755 161.452C64.0804 159.925 67.1753 158.452 67.9257 158.104C68.7072 157.721 69.4001 157.338 69.4444 157.234C69.4886 157.131 69.3559 156.084 69.1495 154.905C68.9283 153.74 68.5302 151.941 68.2353 150.924C67.9552 149.921 67.3359 148.093 66.8494 146.869C66.3628 145.66 65.5076 143.832 64.9326 142.814C64.3428 141.812 63.5024 140.455 63.0453 139.821C62.5882 139.173 61.6299 137.978 60.9221 137.167C60.1997 136.342 59.6246 135.59 59.6246 135.486C59.6246 135.383 59.7426 135.295 59.89 135.295ZM92.3276 157.632H92.7847C93.1828 157.632 93.2418 157.691 93.2418 158.001C93.2418 158.207 93.1681 158.871 93.0943 159.476C92.9911 160.301 93.0059 161.097 93.1681 162.542C93.3008 163.619 93.5514 165.137 93.7431 165.934C93.9348 166.715 94.4066 168.16 94.7899 169.133C95.1733 170.106 95.5124 171.006 95.5567 171.124C95.6009 171.256 95.5272 171.227 95.3797 171.05C95.247 170.888 94.8784 170.224 94.5688 169.575C94.2739 168.927 93.8021 167.777 93.5367 166.995C93.286 166.228 92.9322 164.975 92.7847 164.194C92.6078 163.309 92.4603 161.849 92.4161 160.213L92.3276 157.632ZM80.311 164.223C80.5174 164.253 80.6304 164.39 80.6501 164.636C80.6796 164.842 80.5911 166.007 80.4732 167.216C80.3552 168.44 80.134 170.268 79.9719 171.271C79.8097 172.288 79.5443 173.733 79.3821 174.485C79.2199 175.237 78.9545 176.358 78.7923 176.992C78.6154 177.611 78.2468 178.864 77.9519 179.749C77.6717 180.648 77.0082 182.241 76.4922 183.288C75.9466 184.408 75.2389 185.603 74.7671 186.163C74.3395 186.694 73.6613 187.372 73.2632 187.681C72.8651 187.976 72.4522 188.227 72.349 188.227C72.2458 188.227 72.5997 187.814 73.1452 187.313C73.676 186.797 74.3985 185.986 74.7376 185.499C75.0915 185.013 75.6518 184.054 75.9909 183.361C76.3447 182.683 76.8166 181.577 77.0525 180.929C77.2884 180.28 77.6865 179.027 77.9224 178.127C78.1583 177.242 78.5122 175.68 78.7186 174.662C78.925 173.66 79.1904 172.229 79.3084 171.492C79.4263 170.77 79.618 169.148 79.7507 167.88C79.8686 166.627 79.9866 165.285 79.9866 164.887C80.0013 164.253 80.0308 164.179 80.311 164.223ZM63.93 16.1013C63.6056 15.3788 63.0011 14.1845 62.5883 13.4473C61.9985 12.3857 61.8363 12.2087 61.8363 12.5331C61.8363 12.7543 61.9395 13.6832 62.0575 14.5973C62.0982 14.908 62.1636 15.4193 62.2439 16.0474L62.2445 16.0518L62.246 16.0639L62.2466 16.0689L62.247 16.0713L62.248 16.0795L62.2487 16.0851L62.2489 16.0863L62.2493 16.09C62.4009 17.2755 62.604 18.8635 62.7947 20.3034C62.9038 21.1708 63.06 22.4255 63.237 23.8476L63.2378 23.8544L63.2385 23.8595L63.24 23.8719L63.2412 23.8815C63.5176 26.1023 63.8441 28.7256 64.1217 30.9194C64.564 34.5317 65.0506 38.3358 65.198 39.3826C65.3307 40.4295 65.5224 41.3731 65.5961 41.4763C65.6698 41.5795 66.2596 41.9629 66.8936 42.3315L68.0289 43.0097C68.0289 38.38 67.9257 35.6523 67.8078 33.9419C67.6898 32.2463 67.5129 30.2559 67.4392 29.5186C67.3507 28.7962 67.1148 27.2627 66.9084 26.1274C66.702 24.9921 66.3481 23.3407 66.1122 22.4413C65.8763 21.5567 65.4192 20.0528 65.0948 19.1239C64.7852 18.195 64.2544 16.8385 63.93 16.1013ZM61.7773 40.3557C61.8511 40.341 62.3229 40.5769 62.8094 40.8718C63.296 41.1519 63.8268 41.4321 63.989 41.4763C64.1512 41.5206 64.7704 41.8302 65.3897 42.1546C65.9942 42.4789 67.3507 43.3341 68.4123 44.0418C69.4592 44.7496 70.6682 45.6932 71.0958 46.1503C71.5823 46.6663 71.9362 47.2266 72.0542 47.61C72.1574 47.9491 72.2311 48.7011 72.2311 49.2613C72.2163 50.0575 72.1279 50.4999 71.8183 51.1486C71.5676 51.7089 71.1695 52.2102 70.6977 52.6231C70.2848 52.9622 69.9605 53.3161 69.9605 53.3898C69.9605 53.4782 70.2848 53.9206 70.6977 54.3924C71.258 55.0559 71.4644 55.4098 71.5823 56.0143C71.6561 56.4419 71.7298 57.0759 71.7298 57.415C71.7298 57.9753 71.6856 58.049 71.3169 58.108C71.0958 58.1522 70.5945 58.4029 70.1964 58.6683C69.6803 59.0074 69.4592 59.0958 69.3854 58.9631C69.3265 58.8599 68.7072 58.7125 67.8962 58.624C67.1148 58.5356 65.832 58.3734 65.0211 58.2554C64.2102 58.1522 63.355 57.99 63.1338 57.9015C62.9127 57.8131 62.6915 57.6361 62.6473 57.4887C62.603 57.3413 62.4408 56.8842 61.9985 55.6752L62.3524 55.2033C62.5588 54.9379 62.78 54.4809 62.8389 54.1712C62.8979 53.8616 63.0159 53.6109 63.1043 53.6109C63.2026 53.6208 63.2026 53.5716 63.1043 53.4635C62.9864 53.3603 62.5883 53.3603 61.7331 53.5077C60.583 53.6847 60.5093 53.6847 60.1112 53.375C59.8901 53.2128 59.6836 52.918 59.6541 52.7115C59.6247 52.5199 59.7131 52.2692 59.8606 52.1365C60.008 52.0185 60.4356 51.9153 60.8779 51.9006C61.1297 51.8916 61.3595 51.8826 61.5039 51.877C61.5963 51.8733 61.6536 51.8711 61.6594 51.8711C61.6741 51.8564 61.6446 51.7679 61.5857 51.6647C61.5267 51.5615 61.4824 51.3845 61.4824 51.2666C61.4824 51.1339 61.3645 51.0307 61.2171 51.0012C61.0106 50.9717 60.9811 51.0159 61.1138 51.2518C61.2465 51.532 61.2023 51.5467 60.701 51.532C60.3914 51.5172 59.9638 51.591 59.7426 51.6794C59.5214 51.7679 59.2855 52.0038 59.2118 52.1807C59.1234 52.4019 59.1528 52.682 59.3003 53.0212C59.433 53.3161 59.5215 53.7141 59.5215 53.9058C59.5067 54.127 59.5509 54.2007 59.6099 54.0828C59.6836 53.9501 59.8753 53.9206 60.3029 53.9795C60.642 54.0385 61.1876 53.9943 61.5857 53.8911C61.969 53.7731 62.3229 53.7289 62.3671 53.7584C62.4113 53.8026 62.3376 54.0975 62.2049 54.4219C62.087 54.7463 61.8363 55.1738 61.6446 55.3508C61.4677 55.5277 60.9369 55.8226 60.4503 55.9995C59.8016 56.2354 59.3593 56.2944 58.8285 56.2354C58.4156 56.1912 57.7669 56.0143 57.3835 55.8521C56.779 55.5719 56.6758 55.4687 56.5726 54.9822C56.5283 54.6725 56.4841 53.6699 56.4841 52.7263C56.4841 51.7974 56.5726 50.4851 56.661 49.8216C56.7495 49.1581 56.8675 48.5979 56.9117 48.5979C56.9412 48.5979 57.3245 48.9075 57.7521 49.2613C58.2239 49.6742 58.9759 50.1018 59.6689 50.3672C60.3029 50.6178 60.9664 50.8242 61.1433 50.8242C61.3498 50.8242 61.4235 50.7653 61.335 50.6916C61.2465 50.6326 60.8484 50.4409 60.4503 50.2935C60.0375 50.146 59.3445 49.8216 58.9022 49.5562C58.4451 49.2908 57.8701 48.8485 57.6047 48.5536C57.2656 48.1703 57.1329 47.8754 57.1329 47.5363C57.1329 47.2709 57.2803 46.4599 57.472 45.7227C57.6637 45.0002 57.9291 44.1893 58.0618 43.9239C58.2682 43.511 58.2829 43.4373 58.0912 43.4373C57.9585 43.4373 57.6342 43.7912 57.3688 44.2188C57.0886 44.6464 56.6758 45.3688 56.4399 45.8407C56.204 46.2977 55.9975 46.6663 55.9828 46.6516C55.9681 46.6369 56.145 46.0471 56.3956 45.3541C56.6316 44.6759 56.9854 43.8944 57.1771 43.629C57.354 43.3636 57.7226 43.054 57.988 42.9213C58.2387 42.8033 58.5926 42.7001 58.7547 42.7001C58.9169 42.7001 59.1381 42.5527 59.256 42.3757C59.374 42.1841 59.4477 41.8744 59.4035 41.668C59.3593 41.4763 59.3003 41.2699 59.2708 41.2257C59.2413 41.1962 58.9464 41.0635 58.6073 40.9308C58.2829 40.8128 58.0028 40.6654 58.0028 40.6064C58.0028 40.5474 58.2534 40.5917 58.5631 40.7244C58.8727 40.8571 59.2708 41.0487 59.4477 41.1667C59.7279 41.3436 59.7426 41.4173 59.5952 41.609C59.4772 41.7565 59.4625 41.8302 59.5657 41.8302C59.6541 41.8302 59.949 41.5943 60.2292 41.3289C60.5093 41.0487 60.9369 40.7244 61.1876 40.5917C61.4235 40.459 61.6889 40.3557 61.7773 40.3557ZM60.878 46.3272C60.5536 46.1208 60.5094 46.0028 60.5094 45.2951C60.5094 44.838 60.5536 44.4842 60.6126 44.4842C60.6716 44.4842 60.8338 44.5431 60.9517 44.6021C61.1434 44.7201 61.1286 44.7496 60.9075 44.8233C60.7011 44.897 60.6716 45.0297 60.7453 45.3983C60.8043 45.6637 60.937 45.9733 61.0402 46.106C61.1434 46.224 61.2318 46.3714 61.2466 46.4304C61.2466 46.4894 61.0844 46.4452 60.878 46.3272ZM67.6899 45.5457C67.4245 45.5163 66.8789 45.3098 66.4808 45.0739C66.068 44.8233 65.8616 44.6316 65.9943 44.6316C66.1417 44.6316 66.5693 44.7938 66.9527 45.0149C67.5572 45.3541 67.7194 45.3836 68.0585 45.2361C68.4418 45.0739 68.4713 45.0887 68.4713 45.472C68.4713 45.6932 68.3976 45.9733 68.3239 46.106C68.2059 46.2682 68.1764 46.2387 68.1764 45.9586C68.1764 45.649 68.088 45.5752 67.6899 45.5457ZM67.336 49.6004C67.6899 49.394 67.9848 49.0696 68.1322 48.7158C68.2649 48.4061 68.3976 48.1702 68.4271 48.1702C68.4566 48.1702 68.4418 48.4061 68.3976 48.7158C68.3386 49.1286 68.1617 49.394 67.7046 49.7921C67.3655 50.0723 67.0411 50.3082 66.9822 50.3082C66.9232 50.3082 66.8347 50.3377 66.7905 50.3819C66.7462 50.4114 67.0559 50.5736 67.4687 50.721C68.2354 50.9717 68.2649 50.9717 69.238 50.6473C69.7836 50.4556 70.2259 50.3377 70.2259 50.3819C70.2407 50.4114 69.9163 50.6473 69.5329 50.8832C69.1496 51.1191 68.604 51.3403 68.3239 51.3845C68.0437 51.414 67.6456 51.414 67.4392 51.3698C67.2328 51.3108 66.82 51.0454 66.5103 50.7505C66.2154 50.4704 65.9943 50.1607 66.0385 50.087C66.0827 49.9985 66.2597 49.9248 66.4366 49.9248C66.6283 49.9248 67.0264 49.7774 67.336 49.6004ZM64.1364 58.6977C63.4877 58.5798 62.8684 58.4913 62.78 58.4913C62.6915 58.4913 62.5735 58.6977 62.5146 58.9631C62.4703 59.2285 62.4261 59.7004 62.4261 60.0247V60.6145L63.4624 61.0319C66.8408 62.3928 68.0522 62.8808 68.2943 62.9884L68.7809 63.1948C68.7662 61.8825 68.8104 61.0126 68.8694 60.3933L68.9578 59.2875C66.1269 58.9926 64.7852 58.801 64.1364 58.6977ZM73.16 53.7731C73.3861 53.7633 73.5679 53.896 73.7055 54.1712C73.8087 54.3924 74.1331 55.3655 74.428 56.3386C74.7081 57.3118 74.9735 58.3586 75.0325 58.6683C75.0768 58.9779 75.062 59.2285 75.003 59.2285C74.9441 59.2285 74.5755 59.1253 74.1921 59.0074C73.8087 58.8747 73.4991 58.8157 73.4991 58.8452C73.4991 58.8894 73.16 58.7272 72.0247 58.0342L72.0542 56.0143L72.0543 56.0089C72.0984 54.009 72.0987 53.9942 72.467 53.8911C72.6587 53.8468 72.9831 53.7879 73.16 53.7731ZM77.2589 49.9838C77.5391 49.8069 77.5391 49.8069 77.2442 49.7921C77.0672 49.7921 76.9051 49.8069 76.8756 49.8511C76.8313 49.8806 76.0204 49.9838 75.0473 50.0723C74.0741 50.1608 73.1158 50.264 72.9388 50.3082C72.7472 50.3377 72.6144 50.4851 72.6144 50.6326C72.6144 50.78 72.467 51.1486 72.3048 51.473C72.1279 51.7974 71.6856 52.3872 71.3022 52.7705L70.624 53.4782C71.081 54.3187 71.2875 54.5841 71.3907 54.5988C71.5086 54.6283 71.6118 54.4366 71.6561 54.0975L71.7298 53.5372L73.7203 53.3013C76.2268 50.8685 77.0967 50.0723 77.2589 49.9838ZM104.285 13.8896C104.33 13.9043 104.728 14.5531 105.17 15.3051C105.473 15.8308 106.082 16.8626 106.719 17.9441C107.012 18.4399 107.31 18.9461 107.588 19.4187C108.488 20.9227 109.431 22.6478 109.697 23.2523C109.962 23.8568 110.213 24.7562 110.272 25.2428C110.345 25.8768 110.301 26.4076 110.124 27.0858C109.991 27.6166 109.667 28.4423 109.402 28.9289C109.122 29.4154 108.546 30.1379 108.119 30.536C107.677 30.9194 106.939 31.4354 106.482 31.6713C106.01 31.9072 105.214 32.2021 104.713 32.3348C104.079 32.497 103.474 32.556 102.826 32.497C102.206 32.438 101.587 32.2611 101.056 31.9957C100.614 31.7745 99.8178 31.1848 99.3018 30.6982C98.7857 30.2116 98.078 29.4449 97.7389 29.0026C97.3997 28.5603 96.3529 27.0711 95.424 25.6851C94.4951 24.2991 93.5072 22.8542 93.2123 22.4413C92.9174 22.0432 92.6078 21.5272 92.3572 20.8932L93.2123 20.7457C93.6694 20.6573 94.6131 20.4214 95.306 20.2149C95.999 19.9938 97.0901 19.5809 97.7389 19.2566C98.3876 18.9469 99.3165 18.4309 99.8031 18.1065C100.29 17.7969 101.189 17.1039 101.794 16.5878C102.398 16.0718 103.194 15.2461 103.548 14.7448C103.902 14.2435 104.241 13.8601 104.285 13.8896ZM96.2645 22.3381C96.1023 22.0727 95.9548 21.7926 95.9253 21.7336C95.8811 21.6746 95.9254 21.6156 95.9843 21.6156C96.0581 21.6156 96.6478 22.4266 97.2818 23.4292C97.9306 24.4171 98.4909 25.3607 98.5204 25.5229C98.5695 25.7293 98.54 25.7785 98.4319 25.6703C98.3582 25.5966 97.9011 24.9184 97.4293 24.1812C96.9427 23.4439 96.4267 22.6183 96.2645 22.3381ZM95.5715 23.267C95.1734 22.5298 95.0702 22.1907 95.2029 22.1464C95.2782 22.1213 95.4071 22.0962 95.4892 22.0802L95.5273 22.0727C95.6157 22.0727 95.6305 22.1612 95.542 22.3234C95.4388 22.515 95.5125 22.7657 95.7779 23.2375C95.9843 23.6061 96.4267 24.2549 96.7658 24.6825C97.1049 25.11 97.5915 25.5524 97.8569 25.6556C98.2402 25.8178 98.2845 25.8768 98.078 25.9505C97.8864 26.0242 97.5767 25.803 96.9722 25.1838C96.4856 24.712 95.8811 23.8568 95.5715 23.267ZM100.054 28.634C99.9506 28.5013 99.9063 28.3391 99.9506 28.2653C99.9948 28.1769 100.186 28.1179 100.363 28.1179C100.555 28.1179 100.924 28.398 101.307 28.8109C101.661 29.1942 101.897 29.5481 101.853 29.5923C101.794 29.6218 101.72 29.5776 101.69 29.4744C101.661 29.3712 101.543 29.2975 101.425 29.2975C101.307 29.2975 101.174 29.1795 101.16 29.0321C101.13 28.8846 100.938 28.6487 100.717 28.4865C100.496 28.3243 100.26 28.2359 100.201 28.2948C100.142 28.3538 100.172 28.575 100.275 28.7814C100.378 28.9731 100.644 29.2385 100.865 29.3564C101.086 29.4744 101.322 29.5334 101.396 29.4744C101.454 29.4154 101.484 29.4744 101.425 29.6218C101.351 29.8577 101.307 29.8577 100.938 29.6661C100.717 29.5334 100.467 29.4449 100.393 29.4449C100.304 29.4449 100.083 29.268 99.8768 29.0468C99.6704 28.8256 99.6262 28.7372 99.7589 28.8551C99.9063 28.9731 100.083 29.0173 100.127 28.9583C100.186 28.8994 100.157 28.7519 100.054 28.634ZM110.625 12.4447C110.183 12.2235 109.593 12.0466 109.313 12.0466C109.033 12.0466 108.532 12.1793 108.207 12.3267C107.883 12.4741 107.426 12.7543 107.175 12.9607C106.939 13.1524 106.556 13.639 106.335 14.0076C106.099 14.3909 105.922 14.8627 105.922 15.0692C105.922 15.2756 106.246 15.9833 106.644 16.6615C107.043 17.325 107.765 18.5636 108.252 19.4187C108.738 20.2739 109.195 20.9522 109.254 20.9522C109.328 20.9374 109.667 20.4803 110.021 19.9201C110.375 19.3598 110.802 18.6078 110.979 18.2392C111.23 17.7084 111.304 17.3103 111.304 16.3077C111.304 15.1871 111.259 14.9807 110.906 14.4351C110.67 14.096 110.272 13.7127 110.021 13.58C109.711 13.4325 109.372 13.3736 109.092 13.4325C108.856 13.4768 108.399 13.7127 108.104 13.9633C107.795 14.1992 107.544 14.4941 107.544 14.5973C107.559 14.6858 107.78 14.9954 108.06 15.2608C108.443 15.6 108.576 15.8654 108.576 16.2192C108.591 16.4994 108.473 16.7795 108.325 16.9269C108.178 17.0449 107.883 17.2366 107.662 17.325C107.396 17.4283 107.249 17.443 107.249 17.3545C107.249 17.2808 107.485 17.0744 107.765 16.9122C108.134 16.7058 108.281 16.5141 108.281 16.2487C108.281 15.998 108.075 15.7179 107.618 15.3346C107.087 14.8922 106.969 14.7153 107.043 14.4794C107.087 14.3172 107.308 13.9928 107.529 13.7569C107.736 13.521 108.193 13.2114 108.546 13.0639C109.092 12.8133 109.239 12.8133 109.785 12.9755C110.168 13.0787 110.581 13.3736 110.92 13.7569C111.215 14.0813 111.54 14.6121 111.628 14.9365C111.731 15.2461 111.82 15.9391 111.82 16.4699C111.82 17.0007 111.717 17.7231 111.599 18.0917C111.466 18.4604 111.068 19.1828 110.714 19.7136C110.345 20.2444 109.991 20.8784 109.918 21.1143C109.839 21.4092 109.869 21.827 110.006 22.3676C110.124 22.8099 110.301 23.267 110.39 23.3702C110.507 23.498 110.738 23.5275 111.083 23.4587C111.363 23.3997 111.776 23.267 112.011 23.1638C112.277 23.0164 112.483 22.751 112.631 22.2939C112.822 21.7041 112.822 21.6157 112.631 21.483C112.513 21.4092 112.247 21.365 112.041 21.4092C111.834 21.4535 111.613 21.6451 111.525 21.8516C111.451 22.058 111.407 22.2939 111.451 22.3676C111.495 22.4561 111.466 22.5151 111.377 22.5151C111.304 22.5151 111.23 22.3824 111.23 22.2202C111.23 21.999 111.141 21.94 110.906 21.9695C110.611 21.999 110.566 21.94 110.625 21.5567C110.64 21.3208 110.773 20.9079 110.891 20.672C111.024 20.4361 111.333 19.9348 111.569 19.5662C111.82 19.1976 112.188 18.5046 112.38 18.018C112.645 17.3693 112.749 16.8532 112.749 16.1013C112.749 15.3788 112.66 14.8627 112.454 14.4057C112.292 14.037 111.997 13.5505 111.79 13.2998C111.599 13.0639 111.068 12.6806 110.625 12.4447ZM91.8411 22.3676C92.1802 22.3676 92.4309 22.5298 92.9469 23.0901C93.3155 23.4734 94.3034 24.8299 95.1586 26.0979C96.0138 27.3512 96.692 28.4423 96.6773 28.516C96.6625 28.575 96.2054 28.7077 95.6452 28.8109C95.0996 28.9141 94.1855 29.0911 93.6104 29.209C93.0354 29.3417 92.4751 29.4449 92.3572 29.4449C92.1655 29.4302 92.1655 29.4154 92.3572 29.2532C92.5341 29.1058 92.5636 28.8404 92.4899 27.8968C92.4456 27.248 92.4014 26.8057 92.3866 26.9089C92.3719 26.9973 92.0033 27.4102 91.5905 27.823C91.1629 28.2211 90.7795 28.5603 90.7353 28.5603C90.691 28.5603 90.5731 28.3833 90.4699 28.1622C90.3667 27.941 90.3224 27.7198 90.3667 27.6756C90.4109 27.6314 90.5583 27.7198 90.691 27.8525C90.8385 28 91.0302 28.1032 91.1039 28.1032C91.1776 28.1032 91.1039 27.9705 90.927 27.823C90.6173 27.5576 90.6173 27.5134 90.8237 27.3512C90.9564 27.248 91.3693 26.9826 91.7526 26.7614C92.1212 26.5403 92.652 26.2454 92.9322 26.0979C93.2123 25.9505 93.5515 25.6704 93.6842 25.4639C93.8169 25.2575 93.9348 24.9774 93.9201 24.8447C93.9053 24.6972 93.8169 24.5793 93.7284 24.5793C93.6252 24.5793 93.5367 24.7415 93.5367 24.9479C93.5367 25.169 93.404 25.405 93.2123 25.5377C93.0207 25.6704 92.7405 25.7588 92.5783 25.7293C92.4161 25.6998 92.2539 25.5524 92.2245 25.3902C92.195 25.1838 92.3719 24.9184 92.8142 24.5498C93.1681 24.2402 93.3598 23.9895 93.2418 23.9895C93.1239 24.0042 92.9174 23.8568 92.7995 23.6799C92.6226 23.4292 92.4161 23.3555 91.7674 23.3555C91.1186 23.3407 90.8532 23.4145 90.4699 23.6946C90.2045 23.901 89.8064 24.4318 89.6 24.8742C89.3788 25.3165 89.2019 25.6998 89.2019 25.7293C89.1871 25.7588 89.0102 25.7441 88.789 25.6998C88.4499 25.6261 88.3762 25.5377 88.3762 25.169C88.3762 24.9331 88.4646 24.5498 88.5826 24.3286C88.7006 24.0927 89.0102 23.6946 89.2903 23.4292C89.5557 23.1638 90.1455 22.8247 90.5878 22.6625C91.0302 22.5003 91.6052 22.3824 91.8411 22.3676ZM92.5783 23.8863C92.3719 23.7831 92.0328 23.6946 91.8116 23.6946C91.5757 23.6946 91.1924 23.8126 90.9417 23.9305C90.691 24.0632 90.2782 24.4761 90.0275 24.8594C89.7769 25.228 89.5557 25.5819 89.5557 25.6556C89.5557 25.7146 89.7032 25.7588 89.8949 25.7736H90.2192C89.7032 26.0537 89.5557 26.2454 89.5557 26.3928C89.5557 26.5993 89.6294 26.5698 89.9833 26.2454C90.234 26.0095 90.3962 25.8031 90.3667 25.7588C90.3372 25.7146 90.5731 25.5524 90.9122 25.3902C91.2513 25.228 91.6199 24.9921 91.7526 24.8742C91.8706 24.7562 92.0033 24.653 92.0475 24.6383C92.0918 24.6383 92.3277 24.535 92.5488 24.4171C92.77 24.2991 92.9617 24.1812 92.9617 24.1369C92.9617 24.0927 92.7848 23.9748 92.5783 23.8863ZM91.5757 25.4639C91.6937 25.4639 91.7674 25.6409 91.7674 25.9063C91.7674 26.2749 91.6199 26.4518 90.2192 27.5134L89.9538 27.189C89.7032 26.8794 89.7032 26.8499 89.9538 26.5845C90.1013 26.4371 90.4846 26.1127 90.7943 25.8915C91.1186 25.6556 91.4578 25.4639 91.5757 25.4639ZM89.3198 26.3928C89.2756 26.1274 89.1576 26.0537 88.8627 26.0537C88.6268 26.0537 88.2287 26.1864 87.9781 26.3486C87.7127 26.5108 87.3146 26.9236 87.0934 27.2627C86.769 27.7346 86.6806 28.0589 86.6806 28.634C86.6806 29.1353 86.7985 29.6513 87.0492 30.1674L87.4178 30.9488C88.4499 30.8161 88.9512 30.7719 89.1871 30.7719C89.4378 30.7719 89.7327 30.7129 89.8506 30.6392C90.0423 30.5213 90.0423 30.4623 89.8211 30.1232C89.6737 29.9167 89.4083 29.5629 89.2314 29.3564C89.0397 29.15 88.8038 28.693 88.7153 28.3243C88.5973 27.941 88.5826 27.7051 88.6711 27.7493C88.7448 27.7935 88.8185 27.7346 88.8185 27.6461C88.8038 27.5429 88.9365 27.2922 89.0839 27.0858C89.2461 26.8794 89.3346 26.5698 89.3198 26.3928ZM92.2392 27.6756C92.2982 27.6756 92.3572 27.8525 92.3572 28.0884C92.3572 28.3096 92.3129 28.6192 92.2834 28.7814C92.2392 28.9436 92.0475 29.1648 91.8411 29.268C91.5167 29.4302 91.443 29.4007 91.1776 29.1205C91.0302 28.9289 90.8975 28.7372 90.8827 28.6782C90.8827 28.6045 91.0007 28.5308 91.1481 28.4865C91.2808 28.457 91.561 28.2506 91.7526 28.0442C91.9443 27.8378 92.1655 27.6756 92.2392 27.6756ZM89.9981 28.0295C89.7916 27.6461 89.5557 27.307 89.4673 27.2775C89.3788 27.248 89.2314 27.4397 89.1281 27.7051C89.0102 28.0295 88.9954 28.3096 89.0986 28.5603C89.1724 28.7667 89.423 29.15 89.6589 29.4154C90.057 29.8872 90.1013 29.8872 90.5878 29.7251C90.868 29.6218 91.1186 29.5186 91.1481 29.5039C91.1629 29.4744 91.0007 29.2827 90.7795 29.091C90.5436 28.8846 90.2045 28.4128 89.9981 28.0295ZM96.5298 29.0173C97.0016 29.0026 97.1491 29.091 97.6651 29.7103C97.9895 30.0937 98.2549 30.477 98.2549 30.5507C98.2549 30.6392 98.0927 30.7867 97.8863 30.8899C97.8432 30.9083 97.8008 30.9268 97.7602 30.9445C97.6063 31.0114 97.479 31.0668 97.444 31.0668C97.3997 31.0668 97.3702 30.9636 97.3702 30.8456C97.3702 30.7277 97.444 30.6245 97.5177 30.6245C97.5914 30.6245 97.6356 30.5655 97.5914 30.477C97.5472 30.4033 97.4145 30.3296 97.2965 30.3296C97.1786 30.3296 96.9721 30.2264 96.8542 30.1084C96.7362 29.9905 96.4708 29.8872 96.2644 29.8872C96.058 29.8872 95.1438 30.0199 94.2444 30.1674C93.3303 30.3148 92.0623 30.4918 91.443 30.536C90.4846 30.6097 90.293 30.595 90.293 30.4033C90.293 30.2853 90.4404 30.1084 90.6321 30.0199C90.809 29.9315 91.5905 29.784 92.3572 29.7103C93.1239 29.6366 94.2592 29.4449 94.8637 29.2975C95.4682 29.15 96.2202 29.0173 96.5298 29.0173ZM96.9279 31.3322C96.9279 31.2585 96.81 31.2142 96.6773 31.2142C96.5298 31.2142 96.2497 31.3027 96.058 31.4059C95.8663 31.5091 95.6746 31.7303 95.6452 31.8777C95.6157 32.0547 95.7189 32.3053 95.8958 32.4675C96.1612 32.7182 96.2792 32.7329 96.6035 32.6002C96.8247 32.5117 96.9869 32.3643 96.9721 32.2758C96.9427 32.1726 97.0459 32.1136 97.1786 32.1431C97.326 32.1579 97.444 32.0694 97.4734 31.922C97.5029 31.7745 97.4145 31.6123 97.2965 31.5534C97.1343 31.4649 96.8837 31.5976 96.5151 31.9515L95.9695 32.4675C96.7068 31.6713 96.9279 31.3912 96.9279 31.3322ZM97.96 31.0668C98.1222 31.0668 98.2549 31.111 98.2549 31.1847C98.2549 31.2437 98.1959 31.3912 98.1222 31.5091C98.0485 31.6271 97.9158 31.6861 97.8273 31.6271C97.7389 31.5534 97.6651 31.4059 97.6651 31.288C97.6651 31.17 97.7978 31.0668 97.96 31.0668ZM116.523 27.8673C116.597 27.7198 116.685 27.3217 116.7 26.9826C116.73 26.6287 116.774 26.3486 116.818 26.3486C116.862 26.3338 117.01 26.4518 117.128 26.5845C117.246 26.7172 117.659 26.9826 118.057 27.1743C118.44 27.3659 118.75 27.6019 118.75 27.6756C118.75 27.764 118.646 27.9262 118.528 28.0442C118.41 28.1621 118.263 28.516 118.13 29.3712L117.26 28.8256C116.789 28.516 116.391 28.2359 116.391 28.1916C116.391 28.1474 116.449 28 116.523 27.8673ZM111.289 34.2958C111.466 34.2958 111.82 34.3548 112.085 34.4138C112.351 34.4727 112.572 34.6054 112.572 34.7087C112.572 34.8119 112.174 35.3132 111.702 35.8145C111.2 36.3453 110.463 36.9351 109.962 37.2005C109.49 37.4511 108.871 37.7313 108.591 37.805C108.296 37.8934 107.883 37.9966 107.264 38.1293L107.352 37.4364C107.396 37.053 107.529 36.5812 107.647 36.4043C107.75 36.2273 107.957 36.0651 108.104 36.0651C108.252 36.0651 108.768 35.8292 109.254 35.5343C109.741 35.2395 110.316 34.8414 110.552 34.6497C110.773 34.458 111.112 34.2958 111.289 34.2958ZM109.298 33.4849L108.502 32.7329L107.868 33.0868C107.529 33.2637 107.249 33.4996 107.249 33.5733C107.249 33.6618 107.382 33.9862 107.544 34.3106C107.706 34.6349 107.853 35.0625 107.883 35.2689C107.898 35.5638 107.971 35.6228 108.207 35.5491C108.37 35.4901 108.827 35.2837 109.225 35.0625C109.623 34.8561 109.977 34.576 110.021 34.458C110.065 34.3253 109.77 33.9419 109.298 33.4849ZM113.501 34.6054C113.589 34.6054 113.884 34.7381 114.149 34.9003C114.415 35.0478 114.695 35.3722 114.783 35.5933C114.901 35.903 114.887 36.1389 114.724 36.5812C114.577 36.9645 114.105 37.5543 113.412 38.2031C112.66 38.9255 111.952 39.4269 111.083 39.8544C110.404 40.2083 109.343 40.6211 108.738 40.7833C108.119 40.9455 107.514 41.093 107.367 41.093C107.219 41.0782 106.939 40.8423 106.733 40.5327C106.527 40.223 106.32 39.707 106.261 39.3679C106.158 38.7928 106.173 38.7339 106.527 38.6601C106.718 38.6159 107.337 38.5127 107.883 38.439C108.429 38.3505 109.225 38.1293 109.652 37.9377C110.08 37.746 110.758 37.3331 111.171 37.0088C111.569 36.6844 112.218 36.0209 112.616 35.5196C112.999 35.0035 113.397 34.5907 113.501 34.6054ZM141.161 25.3165C139.908 25.2428 138.463 25.1838 137.962 25.169C137.165 25.169 137.033 25.2133 137.033 25.4344C137.033 25.5671 137.372 26.9826 137.77 28.5603C138.183 30.1379 138.654 32.0399 138.817 32.7624C138.979 33.4996 139.244 35.0183 139.406 36.1536C139.554 37.2889 139.76 39.707 139.864 41.5353C139.996 44.0861 139.996 45.3246 139.864 46.8875C139.716 48.5389 139.583 49.2319 139.097 50.721C138.758 51.7531 138.183 53.0801 137.755 53.8468C137.342 54.5841 136.31 56.1322 135.47 57.3118C134.644 58.4913 133.671 59.9805 133.347 60.6293C132.845 61.5729 132.713 62.0152 132.654 62.8409C132.595 63.6224 132.624 63.991 132.816 64.3596C132.948 64.6102 133.273 64.9936 133.538 65.1853C133.789 65.3769 134.275 65.6129 134.6 65.7161C134.983 65.834 135.632 65.8783 136.443 65.834C137.239 65.775 138.124 65.6128 138.876 65.3475C139.524 65.141 140.645 64.6545 141.382 64.2859C142.119 63.9173 143.402 63.2095 144.257 62.6935C145.113 62.1774 146.498 61.4255 147.354 61.0126C148.209 60.6145 149.536 60.0985 150.303 59.8625C151.512 59.5087 151.954 59.4497 153.546 59.4497C154.932 59.4497 155.773 59.5382 156.938 59.8036C157.793 59.9953 159.075 60.3639 159.813 60.6293C160.55 60.8947 161.892 61.4844 162.806 61.9415C163.705 62.3986 164.487 62.7377 164.531 62.6935C164.575 62.6492 164.487 62.3691 164.324 62.0742C164.177 61.7646 163.808 60.644 163.513 59.5971C163.219 58.5503 162.791 56.7515 162.555 55.6162C162.319 54.4809 161.951 52.4609 161.744 51.1191C161.538 49.7774 161.066 46.5336 160.697 43.8944C160.329 41.2552 159.857 38.2768 159.65 37.2594C159.444 36.2421 159.134 34.8856 158.943 34.2368C158.751 33.5881 158.397 32.556 158.147 31.9515C157.896 31.3469 157.424 30.4475 157.114 29.961C156.79 29.4744 156.215 28.7519 155.817 28.3538C155.419 27.9705 154.77 27.4544 154.357 27.2333C153.959 26.9973 153.251 26.7172 152.809 26.5845C152.367 26.4518 151.305 26.2454 150.45 26.1274C149.595 26.0095 147.678 25.8031 146.174 25.6704C144.67 25.5524 142.414 25.3902 141.161 25.3165ZM81.4021 96.2664C81.4316 96.4138 81.2399 97.0773 80.9745 97.7408C80.5764 98.7434 80.3258 99.1268 79.5443 99.923C78.8218 100.66 78.3648 100.985 77.7307 101.221C77.2589 101.397 76.5512 101.53 76.1531 101.53C75.7403 101.53 75.4011 101.486 75.4011 101.427C75.4011 101.368 75.4749 101.235 75.5928 101.147C75.696 101.058 76.2121 100.881 76.7429 100.778C77.2884 100.675 78.0404 100.38 78.5122 100.1C78.9545 99.8198 79.4706 99.4512 79.6623 99.2742C79.8539 99.0973 80.2373 98.4633 80.5322 97.844L80.6016 97.6942L80.6022 97.6929L80.6027 97.692C80.8623 97.1321 81.1281 96.5588 81.1957 96.3696C81.3284 96.0747 81.3579 96.06 81.4021 96.2664ZM58.9907 92.831C58.5778 92.3886 58.1355 92.02 58.0175 92.0053C57.8848 91.9905 57.3983 92.1085 56.9117 92.2559C56.4251 92.4034 55.7321 92.5951 55.393 92.6835L54.7738 92.831C54.3609 94.615 54.3167 95.1753 54.3904 95.5587C54.4641 95.9568 54.6853 96.3401 55.0392 96.694C55.3635 97.0184 55.8354 97.2985 56.2482 97.4017C56.6021 97.5049 57.1034 97.6081 57.354 97.6229C57.5899 97.6524 58.0028 97.5786 58.2682 97.4607C58.5336 97.3575 58.7547 97.1805 58.7547 97.0773C58.7547 96.9446 58.7842 96.9446 58.858 97.0921C58.9464 97.2395 59.1086 97.2395 59.5657 97.1363C59.8901 97.0478 60.2292 96.9004 60.3324 96.7972C60.4503 96.6645 60.4946 96.3549 60.4503 95.9273C60.4209 95.5734 60.2439 94.9099 60.067 94.4528C59.8753 93.981 59.4477 93.3175 58.9907 92.831ZM59.3593 94.5708C59.3888 94.7919 59.5657 95.1311 59.7722 95.308C59.9638 95.4849 60.1997 95.6324 60.2882 95.6324C60.3619 95.6471 60.244 95.4702 60.0228 95.2343C59.8016 95.0131 59.6247 94.674 59.6247 94.4971C59.6247 94.3201 59.551 94.1727 59.4773 94.1727C59.3888 94.1727 59.3446 94.3496 59.3593 94.5708ZM50.7485 109.359C50.8075 109.359 51.3088 109.536 51.8544 109.757C52.8128 110.141 52.8422 110.17 52.6211 110.45C52.5031 110.613 52.2377 110.996 52.0313 111.306C51.7217 111.777 51.6774 112.028 51.6774 113.989L49.4216 115.36C48.183 116.112 47.1509 116.658 47.1362 116.569C47.1214 116.496 47.9029 114.83 48.876 112.883C49.8491 110.937 50.7043 109.345 50.7485 109.359ZM54.2872 110.524C54.184 110.45 53.9628 110.392 53.7859 110.392C53.6089 110.392 53.2256 110.657 52.8717 111.04C52.5326 111.409 52.1935 111.881 52.1198 112.072C52.0313 112.279 51.9576 112.795 51.9576 113.222C51.9576 113.842 52.0313 114.063 52.2967 114.314C52.4736 114.49 52.7685 114.667 52.9307 114.712C53.1961 114.8 53.2698 114.608 53.8449 112.736C54.3019 111.173 54.4199 110.627 54.2872 110.524ZM93.4777 127.849L93.5072 128.512C93.5367 128.881 93.5809 129.338 93.6252 129.515C93.6547 129.692 93.9053 130.09 94.1707 130.385C94.4361 130.665 95.0259 131.122 95.4977 131.373C95.9695 131.638 96.3676 131.963 96.4119 132.125C96.4561 132.287 96.4856 132.655 96.4856 132.936C96.5003 133.231 96.633 134.351 96.7952 135.442C96.9427 136.548 97.0754 137.551 97.0754 137.698C97.0754 137.846 97.0164 137.949 96.9427 137.949C96.8542 137.949 96.4413 137.477 96.0285 136.887C95.6009 136.297 94.5246 134.823 93.6252 133.599C92.711 132.39 91.8411 131.152 91.6494 130.842C91.4725 130.532 91.3693 130.178 91.3988 130.031C91.443 129.884 91.9148 129.338 92.4751 128.807L93.4777 127.849ZM95.9843 128.203C95.3355 127.569 94.7163 127.053 94.6278 127.053C94.5246 127.053 94.3034 127.215 94.1265 127.436C93.9053 127.701 93.8168 128.011 93.8168 128.394C93.8316 128.704 93.9348 129.146 94.0528 129.368C94.156 129.589 94.4509 129.957 94.672 130.164C94.9079 130.385 95.3945 130.694 95.7631 130.871C96.117 131.034 96.5151 131.166 96.6478 131.166C96.7657 131.166 97.0311 131.019 97.2375 130.827C97.4292 130.636 97.6799 130.503 97.7831 130.532C97.8863 130.562 98.019 130.473 98.078 130.355C98.1517 130.178 98.0485 130.002 97.6799 129.736C97.385 129.515 96.633 128.822 95.9843 128.203ZM119.089 1.15047C121.816 1.13572 123.335 1.1947 124.544 1.37163C125.444 1.48959 126.859 1.75499 127.67 1.96141C128.481 2.15309 129.675 2.58067 130.324 2.90505C130.973 3.21468 131.843 3.76022 132.241 4.09934C132.654 4.42372 133.17 4.98401 133.42 5.32313C133.671 5.66225 134.025 6.29625 134.216 6.73858C134.408 7.18092 134.688 8.10981 134.836 8.8028C134.983 9.49578 135.175 11.2209 135.249 12.6363C135.314 13.6892 135.405 15.3212 135.483 16.7376C135.51 17.2254 135.536 17.6876 135.558 18.0917C135.632 19.6694 135.838 21.8958 136.001 23.0311C136.163 24.1664 136.767 26.9826 137.342 29.2975C137.917 31.6123 138.507 34.2221 138.654 35.1215C138.802 36.0209 139.038 38.4685 139.185 40.5769C139.377 43.511 139.406 44.8675 139.303 46.3567C139.23 47.4183 139.141 48.3325 139.097 48.3767C139.053 48.4209 138.699 48.3472 138.286 48.2292C137.888 48.1113 136.723 47.7869 135.706 47.5068C134.688 47.2266 132.639 46.7695 131.135 46.4747C129.631 46.1945 127.228 45.8259 125.797 45.6637C124.352 45.5015 121.698 45.2951 119.9 45.2214C117.6 45.1034 115.314 45.1182 112.336 45.2214C109.991 45.3099 107.072 45.472 105.848 45.6047C104.639 45.7227 102.575 45.9586 101.278 46.1208C99.98 46.283 98.1222 46.5484 97.1491 46.6958C96.176 46.858 94.6573 47.1234 93.7579 47.2856C92.8732 47.4478 92.0918 47.5805 92.0328 47.5805C91.9591 47.5805 91.9443 47.3298 91.9886 47.035C92.0328 46.7253 92.136 45.6047 92.2097 44.5579C92.2606 43.8797 92.2392 36.5812 92.1212 32.5412C92.0623 32.0989 92.0033 31.5681 92.0033 31.3764C91.9886 31.0373 92.0623 31.0078 93.1681 30.8309C93.8169 30.7424 94.6425 30.5507 95.0111 30.418C95.3798 30.2853 95.8811 30.1821 96.117 30.1821C96.3676 30.1821 96.6773 30.3001 96.8247 30.4475C96.9722 30.5802 97.0901 30.7424 97.0754 30.8161C97.0754 30.8751 96.9427 30.9194 96.7805 30.9194C96.6183 30.9194 96.5151 30.8604 96.5593 30.7719C96.6035 30.6982 96.4561 30.7277 96.2349 30.8604C95.999 31.0078 95.7041 31.0668 95.5714 31.0078C95.4092 30.9636 95.3355 30.9783 95.3798 31.0668C95.424 31.1553 95.365 31.3322 95.2471 31.4796C95.1144 31.6418 95.0701 31.8777 95.1291 32.1431C95.2028 32.4085 95.3945 32.6444 95.6746 32.7919C95.94 32.9246 96.3234 32.9836 96.633 32.9246C96.9132 32.8804 97.2523 32.7477 97.3702 32.615C97.4882 32.4823 97.6799 32.379 97.7831 32.3938C97.8716 32.3938 97.96 32.2758 97.96 32.1431C97.96 31.9957 98.1222 31.7008 98.3286 31.4796C98.535 31.2437 98.7267 31.0668 98.771 31.0668C98.8152 31.0668 99.1543 31.3027 99.5524 31.6123C99.9358 31.9072 100.614 32.3053 101.056 32.5117C101.572 32.7477 102.251 32.9098 102.899 32.9541C103.587 32.9934 104.226 32.9393 104.816 32.7919C105.125 32.7077 105.451 32.6176 105.69 32.5517C105.828 32.5137 105.936 32.4837 105.996 32.4675C106.246 32.3938 106.379 32.5707 106.925 33.8535C107.264 34.6792 107.544 35.4459 107.544 35.5638C107.544 35.6818 107.485 35.8145 107.396 35.8587C107.323 35.9029 107.116 36.419 106.939 37.0088C106.777 37.5838 106.468 38.2326 106.276 38.439C106.04 38.6896 105.922 38.9845 105.922 39.3679C105.922 39.6628 105.996 40.0903 106.099 40.3263C106.187 40.5474 106.438 40.9013 106.644 41.1372C106.851 41.3584 107.161 41.5353 107.323 41.5353C107.485 41.5353 108.089 41.4321 108.65 41.3141C109.225 41.1962 110.345 40.7686 111.156 40.3557C111.967 39.9576 112.999 39.3089 113.442 38.9108C113.884 38.5127 114.474 37.8639 114.739 37.4659C115.063 36.9645 115.211 36.5664 115.211 36.1978C115.211 35.8882 115.093 35.4459 114.96 35.1952C114.813 34.9593 114.459 34.6202 114.179 34.4727C113.899 34.3106 113.486 34.1779 113.265 34.1631C113.029 34.1631 112.822 34.2368 112.778 34.3106C112.734 34.399 112.586 34.4138 112.454 34.3695C112.218 34.2811 112.218 34.2516 112.41 34.1484C112.542 34.0746 112.174 34.0157 111.451 34.0157C110.36 34.0157 110.242 33.9862 109.873 33.6176C109.667 33.3817 109.18 32.7624 108.134 31.2142L108.886 30.3738C109.298 29.902 109.8 29.2237 109.977 28.8551C110.154 28.4865 110.419 27.7346 110.566 27.1595C110.743 26.4223 110.788 25.862 110.714 25.169C110.67 24.6383 110.596 24.078 110.552 23.9158C110.507 23.7241 110.522 23.6946 110.596 23.8126C110.684 23.96 110.861 23.96 111.377 23.8421C111.761 23.7536 112.203 23.5177 112.424 23.2818C112.645 23.0606 112.896 22.633 112.985 22.3381C113.117 21.8811 113.103 21.7041 112.926 21.4092C112.778 21.1635 112.572 21.0406 112.306 21.0406C112.07 21.0259 111.82 21.1143 111.731 21.2176C111.643 21.3208 111.422 21.4535 111.245 21.5272C111.083 21.5862 110.935 21.5862 110.935 21.5272C110.935 21.4535 111.2 20.9816 111.525 20.4508C111.849 19.9201 112.336 19.0649 112.601 18.5341C113.044 17.6494 113.073 17.4725 113.073 16.1013C113.058 14.907 112.999 14.4941 112.734 13.9338C112.557 13.5357 112.159 12.9755 111.864 12.6806C111.554 12.3857 111.038 12.0171 110.714 11.8696C110.375 11.7222 109.77 11.6042 109.313 11.6042C108.841 11.6042 108.252 11.7222 107.912 11.8844C107.588 12.0318 107.057 12.4152 106.748 12.7248C106.423 13.0492 106.04 13.5947 105.878 13.9633C105.73 14.3319 105.642 14.73 105.686 14.848C105.73 14.9659 105.657 14.907 105.509 14.7005C105.446 14.603 105.328 14.4263 105.123 14.1223C104.895 13.7832 104.561 13.2856 104.079 12.5626L103.121 12.5921C102.59 12.6068 101.572 12.7985 100.835 13.0049C100.113 13.2114 98.8447 13.7127 98.0337 14.1108C97.1343 14.5678 95.9695 15.3198 95.0111 16.0718C94.156 16.75 93.2123 17.5904 92.9027 17.9443C92.5931 18.3129 92.1655 18.9027 91.9443 19.2713C91.561 19.9348 91.561 19.9348 91.8116 20.5983C91.9591 20.9669 92.1065 21.4092 92.136 21.6009C92.195 21.8663 92.136 21.94 91.8116 21.9843C91.6485 22.0148 91.4008 22.0525 91.1709 22.0874C91.0683 22.103 90.9692 22.1181 90.8827 22.1317C90.6026 22.1759 90.057 22.4119 89.6737 22.6625C89.2608 22.9132 88.8185 23.3702 88.6121 23.7388C88.4057 24.078 88.2287 24.6383 88.1992 24.9921C88.155 25.5377 88.0813 25.6851 87.58 26.0242C87.2704 26.2454 86.828 26.7172 86.5921 27.0858C86.2382 27.6314 86.1645 27.9115 86.1645 28.634C86.1645 29.3565 86.2382 29.6366 87.0492 30.9194L86.5331 30.9931C86.2088 31.0373 85.9876 31.1553 85.9434 31.3322C85.9139 31.4649 85.8107 32.0104 85.7369 32.5412C85.6916 32.8132 85.6153 33.2942 85.5279 33.8454L85.5273 33.8492C85.4442 34.3728 85.3512 34.9594 85.2651 35.4901C85.1029 36.5812 84.7933 38.1441 84.6164 38.955C84.4247 39.766 84.0266 41.093 83.7464 41.9039C83.4516 42.7148 82.906 43.9091 82.5079 44.5432C82.0508 45.3246 81.2399 46.2977 80.1193 47.4478C78.4827 49.1139 78.3942 49.1729 77.6865 49.2613C77.5054 49.2815 77.1657 49.3229 76.7534 49.3733L76.7522 49.3734C76.2583 49.4337 75.6604 49.5067 75.1062 49.571C74.0889 49.7037 73.1452 49.8364 73.0126 49.8659C72.7766 49.9248 72.7324 49.7921 72.6587 48.8043C72.6144 48.1703 72.4523 47.3888 72.3048 47.0644C72.1721 46.7401 71.7888 46.1798 71.4644 45.8112C71.14 45.4426 70.447 44.8233 69.931 44.4399C69.4149 44.0566 68.8841 43.6585 68.7514 43.5553C68.5597 43.4078 68.5155 42.6559 68.4418 38.1441C68.3681 34.3253 68.2649 32.1726 68.0437 30.1821C67.8668 28.6782 67.6014 26.7614 67.4392 25.9063C67.277 25.0511 67.0411 23.901 66.9084 23.326C66.7757 22.7657 66.4071 21.4387 66.0827 20.3771C65.7583 19.3303 65.2275 17.8264 64.9031 17.0596C64.5788 16.2929 64.0775 15.2019 63.7826 14.6268C63.5024 14.0665 62.9127 13.0344 62.4851 12.3414C61.7773 11.2061 61.6889 10.9555 61.4824 9.61374C61.3497 8.8028 61.2465 7.94762 61.2465 7.25464L64.3871 6.91552C66.0974 6.72384 71.4644 6.07509 76.2858 5.48531C81.1072 4.88079 86.946 4.15832 89.2608 3.87818C91.5757 3.58329 94.8932 3.18519 96.633 2.97877C98.3729 2.77235 101.395 2.44797 103.342 2.24155C105.288 2.03513 108.148 1.76973 109.682 1.63703C111.23 1.50433 113.117 1.35689 113.884 1.29791C114.651 1.22419 116.995 1.16521 119.089 1.15047ZM91.4725 47.3593C91.6347 46.224 91.7674 44.9855 91.7674 44.6021C91.9387 42.7738 91.8411 36.4043 91.7674 32.615C91.7526 32.2169 91.7084 31.7598 91.6494 31.5976C91.561 31.3617 91.384 31.3322 89.9243 31.3617C89.0397 31.3764 87.8749 31.4354 87.3441 31.4796C86.4004 31.5828 86.4004 31.5828 86.2972 32.0989C86.2382 32.379 86.0761 33.4849 85.9434 34.5317C85.8107 35.5786 85.5305 37.2742 85.3241 38.2915C85.1177 39.3089 84.7196 40.7981 84.4394 41.609C84.1593 42.42 83.717 43.4816 83.481 43.9681C83.2304 44.4547 82.8323 45.1477 82.5816 45.5163C82.3457 45.8849 81.5053 46.8138 80.7239 47.5805C79.9424 48.3472 78.4827 49.6447 77.4653 50.4704C76.448 51.2813 75.2832 52.3429 74.8556 52.8295L74.1036 53.6994C74.7524 55.6457 75.1652 56.9874 75.4601 57.9458C75.7845 58.9779 75.9319 59.7004 75.8435 59.7446C75.7697 59.7888 75.3422 59.7593 74.9293 59.6709C74.5017 59.5971 74.1331 59.5382 74.1184 59.5677C74.1036 59.5824 74.1773 59.8773 74.2658 60.2164L74.4427 60.8504C73.3074 62.0152 72.7029 62.487 72.3785 62.6492C71.8772 62.8999 71.715 62.9294 71.2432 62.7819C70.9336 62.6935 70.3733 62.3396 70.0047 62.0005C69.6213 61.6466 69.2675 61.2338 69.1938 61.0716C69.12 60.8947 69.0758 61.396 69.0758 62.3691L69.0611 63.9467C68.3238 63.5044 67.4687 63.0916 66.702 62.7524C65.9352 62.4281 64.5788 61.8825 63.6794 61.5582L62.0575 60.9684C60.008 62.4133 58.3714 63.5781 57.1181 64.507C55.7911 65.4802 54.0955 66.9251 53.0929 67.913C52.1198 68.8566 51.0582 70.0214 50.7043 70.508C50.3504 70.9945 49.7459 72.0561 49.3626 72.8671C48.9792 73.678 48.5074 74.9313 48.301 75.6685C48.0356 76.6416 47.9471 77.3936 47.9324 78.4699C47.9176 79.5463 48.0061 80.2688 48.2273 81.1239C48.4042 81.7727 48.7875 82.8638 49.0824 83.5568C49.3626 84.2497 50.4537 86.5056 51.5005 88.5698L53.3878 92.3297C54.1692 92.2559 54.9507 92.1085 55.6437 91.9463C56.3367 91.7841 57.1918 91.5482 57.5604 91.4155C57.9291 91.2828 58.3124 91.1059 58.4304 91.0174C58.5926 90.8847 58.622 89.8084 58.5778 84.6921L58.5188 78.5289C61.1433 77.1872 62.8684 76.3615 64.048 75.816C65.2275 75.2704 66.3333 74.7691 66.525 74.6954C66.7413 74.6069 66.8396 74.6168 66.8199 74.7249C66.7904 74.8133 65.9795 75.3146 65.0064 75.8454C64.0332 76.3762 63.2075 76.8333 63.1633 76.8628C63.1191 76.8923 63.5172 77.4968 64.0332 78.2045C64.5493 78.9123 65.4634 80.0918 66.0532 80.829C66.643 81.5663 67.7783 82.9227 68.5745 83.8664C69.3707 84.81 70.8451 86.5204 71.8625 87.6852C72.8798 88.85 74.0741 90.1917 74.5165 90.6635C74.9588 91.1354 75.4011 91.5335 75.4749 91.5187C75.5633 91.5187 76.7134 91.1648 78.0551 90.7373C79.3969 90.2949 80.7976 89.7936 81.1957 89.6167C81.579 89.4545 82.0951 89.2776 82.331 89.2333C82.5816 89.1891 82.7438 89.1154 82.6996 89.0564C82.6701 88.9827 82.9355 88.8352 83.2894 88.7173C83.6432 88.5993 83.9086 88.4666 83.8792 88.4224C83.8497 88.3782 84.1151 88.2455 84.4837 88.1275C84.8375 88.0096 85.1324 87.8621 85.1324 87.8031C85.1324 87.7294 85.3094 87.6262 85.5453 87.5377C85.7664 87.464 86.1498 87.2723 86.3857 87.1249C86.5668 87.029 86.9632 86.787 87.3806 86.5322L87.3832 86.5306C87.5428 86.4332 87.7054 86.3339 87.8601 86.2402C88.4352 85.8864 89.2903 85.3261 89.7769 84.987C90.2635 84.6478 91.0597 84.0581 91.5462 83.6747C92.0328 83.2914 92.6373 82.8048 92.8732 82.5984C93.1239 82.3772 93.5957 81.9791 93.9496 81.699C94.4804 81.2714 94.5541 81.1387 94.4803 80.7996C94.4361 80.5636 94.0675 79.1629 93.6547 77.659C93.3224 76.4037 92.8463 74.676 92.5094 73.4531L92.3277 72.7934C91.9886 71.6138 91.6789 70.6112 91.6347 70.5522C91.5904 70.4932 90.7795 70.6554 89.8506 70.9061C88.3319 71.3337 87.9486 71.3779 86.1645 71.3779C84.3805 71.3779 84.0413 71.3337 82.9208 70.9651C82.2278 70.7291 81.1072 70.2721 80.4142 69.933C79.7212 69.5938 78.8366 69.122 78.4237 68.8861C78.0256 68.6502 77.2294 68.0899 76.6544 67.6328C76.0941 67.1758 74.9735 66.0994 74.1774 65.259C73.3812 64.4186 72.7471 63.6813 72.7471 63.6224C72.7471 63.5486 72.9978 63.357 73.3074 63.18C73.6023 63.0031 74.2216 62.5018 74.6639 62.0742L75.4749 61.3075C78.1583 62.6492 79.4853 63.1653 80.3405 63.4012C81.1514 63.6224 82.2425 63.8583 82.7733 63.9467C83.3041 64.0205 84.7933 64.0942 86.0908 64.0942C87.9633 64.1089 88.4499 64.0794 88.4352 63.9173C88.4352 63.814 87.8601 62.8557 87.1524 61.8088C86.4594 60.762 85.1767 58.9926 84.3215 57.9015C83.4516 56.8105 82.4784 55.6309 82.1393 55.2771C81.7707 54.9084 81.6085 54.6578 81.7412 54.6578C81.8592 54.6725 82.5227 55.2181 83.1862 55.8816C83.8644 56.5451 84.7638 57.5182 85.1767 58.049C85.6042 58.5798 86.0466 59.0811 86.1645 59.1843C86.2825 59.2875 86.4152 59.376 86.4594 59.376C86.5036 59.376 86.946 58.8747 87.462 58.2407C87.9633 57.6067 88.6711 56.5303 89.0249 55.8373C89.3935 55.1443 89.8359 54.1565 90.0423 53.6257C90.234 53.0949 90.5731 51.9448 90.7795 51.0454C90.9859 50.146 91.2956 48.4946 91.4725 47.3593Z" fill="#15006A"/>
<path d="M62.5895 41.6428C62.3127 41.5807 62.228 41.619 61.8579 41.9875C61.6189 42.2255 61.4569 42.4329 61.4876 42.4638C61.5183 42.4946 61.6336 42.5487 61.7259 42.5797C61.8874 42.6185 61.8951 42.5954 61.8185 42.4414C61.7496 42.295 61.8036 42.2105 62.0347 42.0571C62.2042 41.9497 62.4352 41.8579 62.5584 41.8428C62.6738 41.8353 62.7969 41.8048 62.8355 41.7818C62.8663 41.7511 62.7587 41.6893 62.5895 41.6428Z" fill="#15006A"/>
</svg>
