<svg width="64" height="64" viewBox="0 0 64 64" fill="none" xmlns="http://www.w3.org/2000/svg">
<g clip-path="url(#clip0_3626_55354)">
<path d="M45.4783 58.0623C45.274 57.8212 45.2862 57.5229 45.274 57.241C45.2576 56.8364 45.2903 56.4278 45.2576 56.0232C45.1759 54.8995 45.2045 53.7676 45.1432 52.6439C45.0574 51.0706 45.0819 49.4974 45.1146 47.9242C45.131 47.1764 45.1064 46.4204 45.1677 45.6726C45.2454 44.7369 45.2495 43.8052 45.2781 42.8694C45.2862 42.5017 45.3843 42.138 45.368 41.7661C45.3598 41.5904 45.4293 41.5332 45.5927 41.5332C45.7357 41.5332 45.8461 41.6354 45.8134 41.7825C45.7031 42.2647 45.8256 42.7591 45.7357 43.2331C45.6213 43.8297 45.6826 44.4222 45.654 45.0147C45.6377 45.3457 45.6622 45.6767 45.6418 46.0036C45.4946 48.5412 45.5723 51.0829 45.6009 53.6246C45.6132 54.593 45.6009 55.5656 45.6704 56.534C45.699 56.9059 45.7521 57.2777 45.7562 57.6537C45.7562 57.8008 45.7562 57.9438 45.6499 58.0582H45.4742L45.4783 58.0623Z" fill="#344A8C"/>
<path d="M13.7074 36.6385C13.7237 36.4546 13.8667 36.4015 13.9403 36.2952C14.2059 35.9193 14.5491 35.6087 14.8352 35.2491C14.9292 35.1306 14.9782 35.0407 14.8434 34.9263C14.7943 34.8854 14.778 34.8201 14.7535 34.7588C14.7208 34.6607 14.7249 34.5626 14.8148 34.5136C14.9169 34.4605 15.0313 34.4686 15.1131 34.5708C15.1417 34.6076 15.1621 34.6525 15.1907 34.6811C15.2479 34.7424 15.3133 34.7424 15.3664 34.6729C15.5217 34.4605 15.6974 34.2684 15.8813 34.0804C16.4084 33.541 16.8824 32.9526 17.43 32.4296C17.8182 32.0577 18.1819 31.6613 18.5782 31.3017C18.8479 31.0566 19.1381 30.8236 19.4118 30.5826C19.6489 30.3742 19.894 30.178 20.1433 29.986C20.5601 29.6672 20.9932 29.3689 21.4509 29.0992C21.737 28.9317 22.0271 28.7682 22.3254 28.6211C22.6073 28.4822 22.9056 28.38 23.1999 28.2697C23.9436 27.9837 24.7077 27.9959 25.48 28.0041C25.6721 28.0041 25.8641 28.0041 26.0521 28.0123C26.3177 28.0245 26.567 28.1103 26.8244 28.1553C27.1186 28.2084 27.4006 28.3147 27.6907 28.3596C27.8256 28.38 27.94 28.4454 28.0666 28.4822C28.4671 28.6007 28.8635 28.7355 29.2517 28.8949C29.6194 29.042 29.9954 29.1605 30.3591 29.3158C30.5225 29.3853 30.6819 29.4629 30.8494 29.5242C30.9311 29.5569 31.017 29.6182 30.9884 29.7367C30.9598 29.8511 30.8086 29.9328 30.6941 29.9165C30.4449 29.8756 30.2365 29.7408 30.0076 29.6509C29.6562 29.5079 29.2966 29.3894 28.9452 29.2463C28.606 29.1074 28.2464 29.0216 27.9032 28.8867C27.658 28.7887 27.3842 28.7723 27.1391 28.6783C26.7754 28.5435 26.379 28.5598 26.0194 28.425C25.9663 28.4046 25.905 28.4086 25.8478 28.4086C25.5699 28.4086 25.292 28.4168 25.0142 28.4005C24.626 28.38 24.2623 28.4945 23.8904 28.5517C23.5308 28.6089 23.1999 28.7192 22.873 28.8581C22.3826 29.0665 21.9045 29.3076 21.4509 29.5978C21.0259 29.8675 20.6255 30.1739 20.2291 30.4804C19.6407 30.934 19.1054 31.4489 18.5537 31.9433C18.1247 32.3274 17.7119 32.7279 17.3319 33.1569C16.9437 33.5942 16.5228 34.0069 16.1387 34.4482C15.9834 34.628 15.8608 34.8405 15.6565 34.9835C15.5176 35.0775 15.5585 35.196 15.6361 35.3104C15.8486 35.6251 16.0693 35.9356 16.2736 36.2584C16.6005 36.7774 16.9233 37.3004 17.2379 37.8317C17.4259 38.1463 17.6098 38.461 17.7896 38.7797C18.0102 39.1638 18.1941 39.5724 18.3944 39.9688C18.5619 40.3039 18.7335 40.643 18.9011 40.9781C19.1708 41.5053 19.3792 42.0569 19.6203 42.5963C19.7551 42.8987 19.8613 43.2133 20.0207 43.5075C20.082 43.6179 20.0248 43.7854 20.1842 43.8385C20.3926 43.6546 20.4089 43.3645 20.5887 43.1643C20.6459 43.0989 20.6827 43.0417 20.7726 43.0417C20.8543 43.0417 20.8993 42.9845 20.8666 42.915C20.7399 42.6658 20.8094 42.4002 20.7808 42.1468C20.6786 41.2192 20.6663 40.2916 20.6786 39.3599C20.6827 38.9186 20.6418 38.4773 20.7195 38.0401C20.7808 37.7009 20.7399 37.3577 20.7971 37.0226C20.8421 36.7774 20.8747 36.5363 20.8952 36.2911C20.9034 36.1604 20.9851 36.0664 21.1404 36.0827C21.2916 36.0991 21.3733 36.2012 21.3365 36.332C21.2507 36.6262 21.3242 36.9449 21.1935 37.231C21.1608 37.3045 21.173 37.4026 21.173 37.4884C21.169 37.7826 21.2017 38.085 21.1567 38.3751C21.0423 39.0862 21.0791 39.7972 21.1118 40.5041C21.1404 41.0966 21.1036 41.7014 21.1976 42.2817C21.2548 42.6331 21.1976 42.9968 21.3324 43.3359C21.3569 43.4054 21.3692 43.483 21.3651 43.5566C21.3406 43.9284 21.4019 44.3003 21.4713 44.6558C21.5367 44.9827 21.5081 45.3178 21.6103 45.6406C21.6838 45.8776 21.7124 46.1391 21.7206 46.3884C21.7329 46.7316 21.8269 47.0504 21.8882 47.3814C21.9004 47.4386 21.9249 47.4958 21.9208 47.553C21.9004 47.8635 21.9576 48.17 22.0271 48.4601C22.1006 48.7584 22.072 49.0649 22.166 49.3591C22.2396 49.5961 22.2641 49.8577 22.2763 50.1069C22.2968 50.5319 22.3867 50.9446 22.448 51.3614C22.4521 51.4023 22.4684 51.4431 22.4684 51.4799C22.4602 51.8436 22.5256 52.2032 22.5706 52.5628C22.6523 53.2656 22.6237 53.9726 22.6891 54.6713C22.7463 55.2802 22.7136 55.885 22.7299 56.4897C22.734 56.6409 22.6605 56.7799 22.6564 56.9311C22.6564 57.025 22.5746 57.0455 22.4929 57.0496C22.3744 57.0536 22.309 56.9842 22.2845 56.882C22.2682 56.8207 22.2763 56.7553 22.2763 56.69C22.2763 55.791 22.3172 54.892 22.2559 53.9971C22.2191 53.4781 22.2191 52.951 22.0966 52.4402C22.0843 52.383 22.072 52.3258 22.0802 52.2686C22.117 51.8804 22.0475 51.4881 21.974 51.1203C21.9127 50.7934 21.9249 50.4583 21.8391 50.1355C21.7656 49.8658 21.7288 49.5716 21.7206 49.2815C21.7124 48.9587 21.6144 48.6522 21.5653 48.3376C21.5572 48.2803 21.5286 48.2231 21.5326 48.1659C21.549 47.8676 21.4959 47.5693 21.4264 47.2955C21.3488 46.9932 21.3651 46.6867 21.2834 46.3843C21.2098 46.1023 21.1812 45.7959 21.1608 45.4976C21.1363 45.1584 21.0668 44.8192 21.0096 44.4801C20.9769 44.2962 20.9606 44.1123 20.9646 43.9284C20.9687 43.7977 20.932 43.6833 20.8666 43.5648C20.5969 43.9897 20.3926 44.4433 20.0943 44.8479C19.9145 45.093 19.7265 45.33 19.5549 45.5752C19.3628 45.849 19.1422 46.0983 18.9133 46.3312C18.5129 46.7357 18.1124 47.1484 17.6425 47.4835C17.4504 47.6225 17.2625 47.7777 17.0663 47.9044C16.6127 48.1986 16.1591 48.4928 15.6647 48.7217C15.203 48.9342 14.733 49.0935 14.2182 49.0813C14.1242 49.0813 14.0343 49.069 13.9525 49.02C13.8626 48.9668 13.8218 48.8933 13.8422 48.7871C13.8626 48.6767 13.9362 48.6113 14.0424 48.5991C14.1119 48.5909 14.1895 48.5827 14.2468 48.6073C14.3612 48.6522 14.4715 48.6073 14.5777 48.6073C15.0926 48.6195 15.4767 48.313 15.8976 48.1087C16.3798 47.8758 16.8211 47.5734 17.2461 47.2506C17.5608 47.0095 17.8468 46.7357 18.1492 46.4742C18.4883 46.18 18.7907 45.8408 19.0809 45.5017C19.3424 45.1952 19.5876 44.8642 19.8 44.5169C19.9267 44.3085 19.8123 44.145 19.7428 43.9652C19.657 43.7527 19.5876 43.5361 19.5017 43.3237C19.4364 43.1643 19.3546 43.0131 19.2893 42.8578C19.0809 42.3838 18.8888 41.9016 18.6641 41.4317C18.4189 40.9127 18.141 40.4101 17.8795 39.8952C17.7446 39.6296 17.618 39.364 17.4749 39.1025C17.2502 38.698 17.0254 38.2893 16.7884 37.893C16.5187 37.4394 16.2164 37.0062 15.9548 36.5486C15.775 36.2339 15.538 35.9601 15.3746 35.6373C15.301 35.4902 15.2316 35.482 15.109 35.6087C14.8556 35.8743 14.6064 36.1399 14.3775 36.4301C14.2754 36.5608 14.1569 36.6834 14.0384 36.7978C13.8545 36.9776 13.8381 37.0103 13.9771 37.231C14.1609 37.5211 14.304 37.8357 14.4592 38.134C14.827 38.841 15.1866 39.552 15.5789 40.2426C15.6198 40.3161 15.6484 40.3979 15.6933 40.4755C15.7587 40.5899 15.7056 40.737 15.5871 40.782C15.4808 40.8188 15.3909 40.8188 15.3174 40.6839C15.0191 40.1731 14.7739 39.6337 14.4797 39.1229C14.1609 38.5631 13.8994 37.9788 13.5848 37.4189C13.4091 37.1084 13.2701 36.7815 13.1149 36.4587C12.9146 36.0459 12.7062 35.6332 12.5101 35.2205C12.3344 34.8487 12.1668 34.4727 11.9911 34.0968C11.7868 33.6636 11.558 33.2387 11.3823 32.7932C11.2392 32.4296 11.0554 32.0863 10.9164 31.7226C10.7571 31.3058 10.5405 30.9135 10.377 30.5008C10.3076 30.321 10.2177 30.1739 10.091 30.0227C9.98066 29.8879 10.0419 29.6917 10.0746 29.5201C10.1237 29.2545 10.2463 29.0052 10.2258 28.7274C10.2136 28.5803 10.3076 28.4618 10.3362 28.3187C10.4015 27.9796 10.422 27.6241 10.5773 27.3013C10.6386 27.1705 10.614 27.007 10.6712 26.864C10.7652 26.6229 10.8347 26.3696 10.9123 26.1203C11.0308 25.7444 11.1943 25.3848 11.3455 25.0211C11.4395 24.8004 11.5784 24.5961 11.6683 24.3755C11.7786 24.1017 11.9789 23.8606 11.9993 23.5541C12.0034 23.4642 12.0442 23.3416 11.9462 23.3008C11.8277 23.2476 11.6846 23.2436 11.5621 23.3171C10.8796 23.7216 10.2953 24.2488 9.76408 24.8372C9.429 25.205 9.18791 25.634 8.90596 26.0386C8.70981 26.3165 8.63217 26.6556 8.42377 26.9212C8.39517 26.958 8.40334 27.0193 8.39108 27.0724C8.35022 27.2481 8.19903 27.3299 8.03149 27.2604C7.9375 27.2195 7.90073 27.1541 7.9375 27.052C8.056 26.7578 8.17859 26.4676 8.3257 26.1898C8.61583 25.6422 8.93865 25.1233 9.34728 24.6533C9.38814 24.6084 9.39631 24.5593 9.3718 24.5103C9.24921 24.261 9.31867 23.9709 9.21243 23.7216C9.11436 23.4846 9.14705 23.2272 9.04489 22.9943C8.98768 22.8635 8.97134 22.7082 8.96316 22.5734C8.93456 22.1566 8.76702 21.7766 8.72207 21.3639C8.6853 21.0083 8.56271 20.661 8.49733 20.3055C8.45646 20.0726 8.36248 19.8478 8.37882 19.6067C8.387 19.4515 8.30527 19.3166 8.26849 19.1777C8.17859 18.8589 8.19085 18.5157 8.0274 18.2174C7.97428 18.1152 7.98654 17.9845 7.88438 17.8946C7.73727 17.7638 7.6106 17.7802 7.53704 17.96C7.34499 18.434 7.32864 18.9243 7.42671 19.4188C7.44715 19.525 7.4594 19.6353 7.4594 19.7457C7.4594 20.1788 7.50435 20.6161 7.57382 21.0369C7.65963 21.5845 7.59834 22.1443 7.73727 22.6837C7.77405 22.8308 7.7577 22.982 7.76179 23.1332C7.76179 23.2558 7.72501 23.3621 7.58608 23.3702C7.44306 23.3784 7.38176 23.2803 7.3409 23.1537C7.251 22.8472 7.30004 22.5325 7.25918 22.2261C7.19788 21.7847 7.19379 21.3352 7.1039 20.8939C7.09164 20.8326 7.07529 20.7672 7.07529 20.706C7.05486 19.8969 6.93227 19.0919 6.99357 18.2828C7.014 17.9845 7.14476 17.727 7.32456 17.4982C7.42671 17.3715 7.70458 17.3593 7.86803 17.396C8.31344 17.4982 8.37065 17.8701 8.49733 18.2133C8.61992 18.5484 8.61174 18.9121 8.7425 19.2471C8.81197 19.4269 8.80789 19.6394 8.86101 19.8356C8.96316 20.2115 8.99177 20.5997 9.11436 20.9757C9.17565 21.1677 9.16748 21.372 9.21652 21.5723C9.31459 21.9605 9.35954 22.3568 9.47395 22.745C9.48213 22.7777 9.49847 22.8145 9.49847 22.8472C9.48621 23.17 9.61289 23.4642 9.67827 23.7666C9.69461 23.8442 9.6987 23.926 9.71096 24.0077C9.71505 24.0526 9.69461 24.1139 9.74365 24.1344C9.79677 24.1589 9.84581 24.1139 9.8785 24.0772C10.0052 23.9423 10.1605 23.8442 10.2912 23.7135C10.614 23.3866 10.9859 23.125 11.3945 22.933C11.6683 22.8022 11.9789 22.7532 12.2526 22.9984C12.461 23.1863 12.5264 23.4683 12.4284 23.7339C12.2445 24.2365 11.987 24.7024 11.7582 25.1805C11.5661 25.5809 11.4027 25.9936 11.276 26.4186C11.1698 26.7741 11.0758 27.1296 10.9777 27.4892C10.8674 27.8938 10.8388 28.3187 10.6998 28.711C10.6059 28.9685 10.6631 29.2382 10.5568 29.4874C10.4792 29.6713 10.5691 29.8675 10.6467 30.0391C10.8347 30.4518 11.0104 30.8686 11.1861 31.2813C11.3373 31.6409 11.5089 31.9882 11.6683 32.3478C11.8522 32.7687 12.0728 33.1692 12.2486 33.5901C12.4856 34.1499 12.7757 34.6811 13.0168 35.2369C13.2048 35.6659 13.4336 36.0745 13.6256 36.5036C13.6379 36.5322 13.6665 36.5567 13.7196 36.6221L13.7074 36.6385Z" fill="#344A8C"/>
<path d="M33.2399 27.297C33.1132 27.297 32.9866 27.297 32.8558 27.297C32.3859 27.297 31.9527 27.158 31.5359 26.9537C31.4297 26.9006 31.3847 26.9415 31.397 27.0355C31.4297 27.3991 31.3357 27.7506 31.2703 28.0979C31.1968 28.4779 31.2008 28.862 31.1028 29.2339C31.0783 29.332 31.0088 29.4096 30.9066 29.3973C30.8126 29.3851 30.7064 29.3401 30.6982 29.2216C30.6901 29.0337 30.6655 28.8375 30.7513 28.6577C30.7636 28.6332 30.784 28.6046 30.78 28.576C30.7554 28.2532 30.8453 27.9467 30.8985 27.6361C30.972 27.1866 30.9271 26.7249 31.0578 26.2836C31.0578 26.2795 31.0578 26.2713 31.0578 26.2672C31.0333 25.8627 31.1273 25.4663 31.1641 25.0659C31.1722 24.9637 31.1355 24.8942 31.066 24.8207C30.8331 24.5714 30.6778 24.269 30.5143 23.9748C30.3999 23.7664 30.3386 23.5417 30.261 23.321C30.2038 23.1657 30.1752 22.9859 30.1466 22.8184C30.0935 22.467 30.0322 22.1115 30.0526 21.7519C30.0689 21.474 30.0322 21.192 30.0648 20.9183C30.1139 20.5178 30.0935 20.1133 30.212 19.721C30.2446 19.6066 30.2242 19.4799 30.2324 19.3573C30.2487 18.9037 30.3386 18.4583 30.3958 18.0129C30.4081 17.9271 30.4122 17.8413 30.4081 17.7514C30.3999 17.3509 30.5143 16.9627 30.5389 16.5663C30.5511 16.3743 30.6042 16.1741 30.6124 15.9738C30.6124 15.8758 30.592 15.8185 30.4898 15.7573C30.31 15.6469 30.1752 15.4794 30.0444 15.3078C29.8891 15.0994 29.8278 14.8542 29.7053 14.6376C29.693 14.6172 29.6807 14.5927 29.6807 14.5722C29.7053 14.2085 29.5541 13.8571 29.644 13.473C29.7093 13.2074 29.7379 12.9295 29.8524 12.6803C30.0648 12.2144 30.3591 11.8099 30.7677 11.4911C30.8739 11.4094 30.9802 11.4094 31.0578 11.5157C31.1355 11.6219 31.115 11.7322 31.017 11.8262C30.7759 12.051 30.5429 12.2798 30.3918 12.5781C30.212 12.9336 30.0403 13.2891 30.0608 13.7018C30.0648 13.7999 30.0608 13.898 30.0608 13.9961C30.0526 14.5068 30.2569 14.9277 30.5961 15.2955C30.7268 15.4385 30.9107 15.5284 31.0905 15.5488C31.352 15.5775 31.6136 15.5693 31.8833 15.5202C32.1284 15.4753 32.3695 15.3895 32.6229 15.3772C32.8068 15.3691 32.9825 15.2996 33.1623 15.2628C33.3053 15.2342 33.4483 15.2301 33.5872 15.2056C34.3677 15.0708 35.1523 15.0748 35.9369 15.1239C36.4068 15.1525 36.8808 15.1852 37.3385 15.3568C37.5305 15.4303 37.7389 15.4876 37.9351 15.5611C38.3968 15.7368 38.7156 16.0515 38.879 16.5214C39.0343 16.9709 38.9648 17.404 38.8218 17.8413C38.7646 18.0088 38.7646 18.1886 38.7033 18.3602C38.5889 18.6871 38.6011 19.0426 38.6134 19.39C38.6134 19.4513 38.593 19.533 38.6788 19.5493C38.7523 19.5616 38.7646 19.484 38.7932 19.439C39.0629 19.0345 39.2713 18.5891 39.5206 18.1723C39.5859 18.0619 39.6758 17.9557 39.8107 18.0252C39.9292 18.0864 39.9782 18.2009 39.9128 18.348C39.8761 18.4297 39.827 18.4951 39.7739 18.5645C39.6636 18.7198 39.6881 18.7975 39.8638 18.8628C39.9169 18.8833 39.9701 18.9037 40.0313 18.9119C40.4768 18.9527 40.8159 19.345 40.8445 19.7904C40.8772 20.3094 40.677 20.7221 40.3705 21.1144C40.064 21.5149 39.6554 21.7519 39.1896 21.8867C38.9975 21.9439 38.785 21.9153 38.5848 21.9031C38.4826 21.8949 38.4745 21.8172 38.4745 21.7355C38.4745 21.617 38.5317 21.5189 38.6543 21.523C38.9199 21.5353 39.1569 21.4495 39.3857 21.3391C39.7576 21.1634 40.064 20.9101 40.2438 20.5301C40.3337 20.338 40.4236 20.1459 40.4236 19.9253C40.4236 19.5289 40.2234 19.3491 39.8311 19.3164C39.4879 19.2878 39.2549 19.3777 39.1364 19.7169C39.067 19.9089 38.8749 19.9743 38.7074 20.0397C38.5807 20.0887 38.4745 19.9825 38.3927 19.8967C38.1353 19.6311 38.0781 19.3042 38.1598 18.9527C38.1762 18.8792 38.1966 18.8097 38.1966 18.7321C38.1925 18.4746 38.3151 18.2458 38.3641 18.0006C38.4622 17.5307 38.5766 17.0649 38.4336 16.5704C38.3396 16.2394 38.0863 16.1291 37.8411 15.9983C37.5183 15.8226 37.1505 15.7777 36.795 15.6878C36.5294 15.6183 36.2638 15.6633 36.0104 15.5938C35.5814 15.4712 35.1441 15.4916 34.7191 15.5284C34.3391 15.5611 33.9591 15.5815 33.5872 15.6347C33.2563 15.6837 32.9212 15.745 32.5902 15.8104C32.4145 15.8472 32.2224 15.8758 32.0467 15.9534C31.8628 16.0351 31.6585 15.9902 31.4624 15.9943C31.0088 15.9983 31.0251 15.9943 30.9965 16.456C30.9679 16.8646 30.8944 17.2733 30.8412 17.6819C30.8331 17.7555 30.8249 17.8331 30.829 17.9066C30.8535 18.303 30.7513 18.6912 30.6941 19.0753C30.6492 19.3695 30.6574 19.6597 30.6165 19.9498C30.5389 20.5055 30.5184 21.0654 30.5103 21.6252C30.5021 22.1033 30.5389 22.5814 30.6451 23.035C30.7554 23.5049 30.9516 23.9544 31.254 24.3548C31.4991 24.6858 31.7934 24.9596 32.1366 25.168C32.7659 25.5521 33.4606 25.687 34.192 25.6175C34.4209 25.5971 34.6579 25.6052 34.8703 25.5113C35.1564 25.3846 35.4465 25.2579 35.708 25.0781C36.2107 24.739 36.6111 24.2895 37.0238 23.8563C37.0851 23.795 37.126 23.7174 37.175 23.6479C37.2404 23.5539 37.3344 23.558 37.4243 23.5784C37.5224 23.5989 37.5591 23.6724 37.5714 23.7705C37.6123 24.0688 37.4692 24.3181 37.3671 24.5796C37.2649 24.8411 37.1137 25.0781 36.9462 25.3029C36.6642 25.6829 36.3782 26.0507 35.9982 26.349C35.61 26.6554 35.1932 26.8883 34.7437 27.0804C34.5761 27.154 34.3759 27.158 34.2124 27.2234C33.8815 27.3501 33.5464 27.2765 33.2195 27.3092L33.2399 27.297Z" fill="#344A8C"/>
<path d="M52.9521 55.6521C52.9276 55.2271 52.9603 54.6468 52.993 54.0707C53.1197 52.0398 53.0502 50.0089 53.0298 47.978C53.0216 47.3078 52.9767 46.6295 52.9399 45.9553C52.9317 45.7673 52.8827 45.5834 52.8786 45.3914C52.8786 45.3055 52.8459 45.2933 52.756 45.3219C52.5435 45.3873 52.3269 45.4486 52.1063 45.4731C51.8652 45.4976 51.6363 45.5875 51.4034 45.6243C51.1133 45.6692 50.8518 45.8163 50.5576 45.8368C50.435 45.8449 50.3328 45.9226 50.2143 45.9512C49.7607 46.0738 49.3276 46.2617 48.8822 46.4088C48.6697 46.4783 48.4695 46.605 48.2611 46.699C48.0894 46.7725 47.9178 46.8543 47.7462 46.936C47.4193 47.0953 47.0801 47.2343 46.7736 47.4386C46.6347 47.5326 46.4917 47.6143 46.3405 47.6838C46.2179 47.741 46.1157 47.6838 46.0381 47.5816C45.9482 47.4672 46.034 47.3814 46.1076 47.3324C46.3037 47.1975 46.508 47.0627 46.7246 46.9605C47.0229 46.8134 47.3089 46.6377 47.6154 46.5028C48.1712 46.2658 48.7228 46.0125 49.2949 45.8082C49.6177 45.6897 49.9405 45.5671 50.2715 45.4772C50.5412 45.4036 50.7946 45.2606 51.0847 45.2606C51.2073 45.2606 51.3094 45.187 51.4239 45.1503C51.7794 45.0358 52.1635 45.0563 52.5108 44.9092C52.5558 44.8887 52.613 44.8847 52.6661 44.8887C52.8418 44.9051 52.8949 44.8234 52.8745 44.664C52.8091 44.1532 52.756 43.6383 52.7029 43.1235C52.6661 42.7598 52.6497 42.3838 52.5844 42.0283C52.5231 41.6933 52.5435 41.3418 52.4291 41.0149C52.376 40.8596 52.3474 40.6839 52.3392 40.5246C52.3228 40.2058 52.2248 39.9075 52.1512 39.6011C52.1063 39.4172 52.1185 39.2251 52.0491 39.0412C51.9469 38.7552 51.8979 38.4569 51.8243 38.1627C51.7262 37.7786 51.5996 37.4067 51.477 37.0349C51.3503 36.6507 51.2318 36.2625 51.052 35.8989C50.9131 35.6169 50.7987 35.3227 50.672 35.0326C50.5698 34.8037 50.4391 34.5872 50.3369 34.3583C50.1285 33.8843 49.8261 33.4593 49.5401 33.0303C49.3439 32.732 49.1233 32.45 48.9108 32.164C48.4531 31.5592 47.9096 31.0362 47.3416 30.5335C47.0719 30.2965 46.7859 30.0677 46.4713 29.8797C46.2302 29.7326 45.9932 29.5774 45.7439 29.4466C45.4905 29.3158 45.2372 29.1932 44.9716 29.0829C44.5343 28.9031 44.0808 28.7969 43.6272 28.6743C42.9366 28.4904 42.2378 28.4945 41.535 28.5108C41.253 28.5149 40.9629 28.5435 40.6973 28.6048C40.2069 28.7233 39.7125 28.8541 39.2589 29.0952C39.1445 29.1565 39.0464 29.136 38.9933 29.0298C38.9443 28.9276 38.932 28.8173 39.0546 28.7233C39.2303 28.5885 39.4387 28.5476 39.6349 28.474C40.0231 28.3269 40.4317 28.2411 40.8444 28.1594C41.249 28.0818 41.6617 28.0246 42.054 28.0368C42.4544 28.0532 42.863 28.0695 43.2717 28.1553C43.5986 28.2248 43.9255 28.3188 44.2606 28.3637C44.3464 28.376 44.4077 28.4332 44.4853 28.4495C44.8776 28.5476 45.2372 28.7233 45.6009 28.8949C46.0463 29.1033 46.4713 29.3567 46.8799 29.6305C47.3212 29.9247 47.7094 30.2843 48.1058 30.6316C48.5185 30.9953 48.8781 31.4121 49.2132 31.8534C49.3521 32.0332 49.5156 32.1967 49.6381 32.3928C49.7934 32.6421 49.9773 32.8668 50.1244 33.1202C50.2633 33.3613 50.4309 33.5901 50.5616 33.8394C50.6965 34.0927 50.8395 34.3379 50.9498 34.6035C51.0438 34.8201 51.1623 35.0203 51.2481 35.241C51.334 35.4575 51.4484 35.6619 51.5138 35.8907C51.5628 36.0623 51.669 36.2217 51.7222 36.3974C51.8284 36.7529 51.9755 37.0921 52.0736 37.4557C52.143 37.7132 52.2329 37.9706 52.2983 38.2281C52.3474 38.4201 52.3841 38.6203 52.4454 38.8042C52.5599 39.1434 52.5312 39.5112 52.6947 39.834C52.7029 39.8544 52.711 39.8789 52.711 39.9034C52.711 40.3815 52.9358 40.8351 52.899 41.3173C53.0461 41.5584 52.944 41.8526 53.0584 42.106C53.0747 42.1427 53.0829 42.1836 53.0829 42.2245C53.0666 42.5718 53.1646 42.911 53.1728 43.2583C53.181 43.7241 53.324 44.1818 53.279 44.6517C53.2709 44.7416 53.3322 44.7743 53.4139 44.7702C53.5242 44.7702 53.6305 44.7702 53.7367 44.7294C53.8552 44.6844 53.986 44.6681 54.1045 44.7416C54.2475 44.8315 54.2311 44.995 54.084 45.089C53.9655 45.1666 53.843 45.187 53.7081 45.187C53.3935 45.187 53.3689 45.2156 53.373 45.5262C53.373 45.751 53.3689 45.9798 53.3812 46.2045C53.5447 49.351 53.4221 52.5015 53.4343 55.6521C53.4343 56.028 53.3649 56.408 53.373 56.7921C53.373 56.9433 53.275 56.9515 53.1605 56.9556C53.042 56.9556 52.9521 56.9352 52.9521 56.7881C52.9521 56.4571 52.9521 56.1261 52.9521 55.6439V55.6521Z" fill="#344A8C"/>
<path d="M3.42626 18.7767C3.55294 18.8217 3.53251 18.7481 3.54068 18.7032C3.59789 18.2986 3.66736 17.8818 3.94114 17.5672C4.25987 17.1994 4.63581 17.0728 5.02401 17.5549C5.18338 17.7511 5.2651 17.984 5.33457 18.2374C5.41221 18.5316 5.4735 18.834 5.5634 19.1282C5.67782 19.5 5.7718 19.876 5.87396 20.2478C5.9516 20.5379 6.04967 20.8281 6.10688 21.1223C6.17226 21.4492 6.30302 21.7516 6.3684 22.0785C6.42561 22.3604 6.53186 22.6342 6.6095 22.9162C6.65036 23.0551 6.68714 23.194 6.70757 23.333C6.72391 23.4392 6.76886 23.476 6.86693 23.4678C6.89962 23.4678 6.9364 23.4678 6.96909 23.4678C7.08351 23.4842 7.16115 23.5577 7.18158 23.664C7.19792 23.7661 7.12846 23.8192 7.03447 23.8683C6.80972 23.9909 6.5482 23.95 6.31528 24.0399C6.06193 24.1421 5.79223 24.2074 5.53071 24.281C5.16294 24.3872 4.84421 24.5916 4.48053 24.6937C4.43967 24.706 4.40289 24.7428 4.36203 24.7632C4.22309 24.8245 4.11276 24.7754 4.03104 24.661C3.95748 24.5548 4.03921 24.4853 4.11276 24.4281C4.18223 24.375 4.16588 24.3382 4.14954 24.2606C4.1005 24.0154 3.96566 23.807 3.91253 23.5618C3.87167 23.3738 3.75725 23.2063 3.70005 23.0224C3.58972 22.6751 3.4467 22.34 3.3568 21.9845C3.29959 21.7679 3.18109 21.5677 3.13614 21.3429C3.0871 21.0937 2.95225 20.8567 2.98903 20.5911C3.00537 20.4521 2.92773 20.3295 2.92773 20.1988C2.92773 19.7534 3.02172 19.3202 3.20152 18.9116C3.24647 18.8094 3.36088 18.7849 3.43444 18.7686L3.42626 18.7767ZM4.52548 17.7266C4.42741 17.7347 4.36611 17.7266 4.32525 17.7797C4.16997 17.984 4.05555 18.2088 4.03104 18.4703C3.96974 19.0301 4.0719 19.5777 4.22718 20.1089C4.33751 20.4848 4.45193 20.8608 4.57043 21.2367C4.75023 21.8088 4.9382 22.3768 5.14251 22.9407C5.24058 23.2145 5.33457 23.4883 5.42855 23.7661C5.44899 23.8274 5.48985 23.8601 5.54297 23.8315C5.7432 23.7253 5.96795 23.7048 6.17226 23.6313C6.26216 23.5986 6.36023 23.5455 6.29485 23.427C6.14774 23.1614 6.16 22.8467 6.04967 22.5688C6.0129 22.4749 5.9516 22.385 5.94751 22.2787C5.92708 21.9763 5.82493 21.6821 5.73911 21.4002C5.64513 21.0978 5.60426 20.7872 5.48576 20.493C5.4449 20.3868 5.39995 20.2805 5.39178 20.162C5.36317 19.876 5.26101 19.6022 5.17929 19.3325C5.08939 19.0383 5.06079 18.7277 4.94228 18.4417C4.86873 18.2619 4.82378 18.0698 4.74205 17.8941C4.70119 17.8042 4.61538 17.7225 4.53365 17.7388L4.52548 17.7266ZM4.67667 24.1257C4.86464 24.1053 5.11391 23.9745 5.01584 23.8111C4.90551 23.6272 4.8483 23.4229 4.78292 23.2226C4.70936 22.9897 4.61946 22.7609 4.53774 22.5321C4.46827 22.3318 4.42332 22.1275 4.33751 21.9355C4.23127 21.6944 4.17814 21.441 4.09642 21.1918C4.01061 20.9425 3.9534 20.6851 3.88393 20.4276C3.78994 20.0762 3.6551 19.7329 3.63058 19.3611C3.63058 19.3243 3.64284 19.2712 3.58563 19.2671C3.54477 19.2671 3.50799 19.2957 3.49164 19.3325C3.46304 19.402 3.414 19.4714 3.40175 19.5327C3.34454 19.9373 3.33228 20.3541 3.40583 20.7545C3.43852 20.9221 3.52025 21.0896 3.5652 21.2571C3.62649 21.5064 3.72048 21.7434 3.79812 21.9886C3.86758 22.2052 3.94522 22.4217 4.03104 22.6342C4.11685 22.8426 4.17406 23.0551 4.23944 23.2676C4.30891 23.5005 4.46419 23.7007 4.4887 23.9541C4.50096 24.0726 4.57452 24.1257 4.67667 24.1216V24.1257Z" fill="#344A8C"/>
<path d="M5.28137 30.974C5.453 30.974 5.54698 31.068 5.58376 31.3499C5.62462 31.6441 5.78399 31.8975 5.83711 32.1876C5.90249 32.5472 6.0496 32.8864 6.16402 33.2296C6.28252 33.577 6.38059 33.9284 6.49501 34.2757C6.57673 34.5209 6.6748 34.7661 6.71567 35.0317C6.75244 35.2646 6.87912 35.4812 6.94041 35.71C7.0344 36.086 7.20194 36.4415 7.27549 36.8256C7.31635 37.034 7.4226 37.2301 7.47981 37.4385C7.58605 37.8226 7.7495 38.1863 7.83531 38.5827C7.88435 38.8074 7.99877 39.024 8.05189 39.2488C8.1377 39.6206 8.30115 39.972 8.38697 40.348C8.436 40.5686 8.54225 40.777 8.59945 40.9977C8.69753 41.3777 8.8242 41.7537 8.94679 42.1255C9.05303 42.4443 9.15519 42.7671 9.26144 43.0899C9.34316 43.3392 9.43715 43.5843 9.49435 43.8459C9.54339 44.0665 9.63738 44.279 9.70684 44.4997C9.809 44.8347 9.94794 45.1535 10.0664 45.4804C10.1645 45.7582 10.3157 46.0239 10.471 46.2772C10.6671 46.6 10.8674 46.9269 11.1248 47.2089C11.3945 47.5072 11.6887 47.7891 12.0238 48.0098C12.1218 48.0752 12.2485 48.0997 12.3343 48.1896C12.3915 48.2468 12.461 48.2958 12.4038 48.398C12.3548 48.4879 12.2935 48.5369 12.1872 48.5369C12.0606 48.5369 11.9625 48.4675 11.8685 48.4103C11.4966 48.1855 11.1902 47.8831 10.8837 47.5767C10.708 47.4009 10.5731 47.1966 10.4219 47.0005C10.2421 46.7635 10.1032 46.4979 9.97245 46.2282C9.78448 45.8481 9.60468 45.4681 9.46166 45.0636C9.35542 44.7653 9.24918 44.4629 9.14293 44.1646C9.06121 43.9398 8.97131 43.711 8.93044 43.4781C8.90593 43.3392 8.84463 43.2166 8.79968 43.0899C8.65666 42.6608 8.52999 42.2277 8.39105 41.7986C8.27664 41.4431 8.15405 41.0835 8.06823 40.7157C8.0192 40.5114 7.92113 40.3071 7.86392 40.0987C7.75767 39.7187 7.60648 39.355 7.52067 38.9668C7.47163 38.7461 7.35722 38.5377 7.30409 38.3171C7.2142 37.9575 7.07118 37.6142 6.9731 37.2587C6.90364 37.0136 6.79331 36.7765 6.74018 36.5273C6.65846 36.1595 6.49909 35.8122 6.41328 35.4485C6.36016 35.2238 6.25391 35.0072 6.19671 34.7824C6.10681 34.4065 5.95561 34.0469 5.84937 33.671C5.78808 33.4626 5.70635 33.2501 5.64914 33.0417C5.5429 32.6576 5.3917 32.2857 5.29772 31.8975C5.24051 31.6646 5.15061 31.4398 5.0934 31.2069C5.05254 31.0435 5.11383 30.9658 5.28137 30.9658V30.974Z" fill="#344A8C"/>
<path d="M36.4272 10.9965C35.8551 10.9434 35.328 11.0292 34.8131 11.0905C34.4249 11.1355 34.0245 11.1436 33.6322 11.2295C33.0928 11.352 32.533 11.3766 31.9772 11.3398C31.7606 11.3275 31.5073 11.0619 31.4705 10.8208C31.446 10.6533 31.6258 10.3958 31.8138 10.3223C31.9772 10.2569 32.2183 10.3632 32.2796 10.5266C32.3205 10.6369 32.2306 10.7595 32.0957 10.784C32.0508 10.7922 31.9731 10.7636 31.9772 10.8413C31.9772 10.9025 32.0385 10.9434 32.0998 10.9434C32.3286 10.9434 32.5616 10.9884 32.7863 10.8985C32.8231 10.8821 32.8639 10.8699 32.9048 10.8699C33.2113 10.8699 33.5096 10.7881 33.812 10.7677C34.3268 10.7309 34.8335 10.6329 35.3484 10.5961C36.0186 10.543 36.6928 10.543 37.363 10.5961C37.6041 10.6165 37.8533 10.6696 38.0985 10.7473C38.3069 10.8167 38.5276 10.8658 38.7401 10.9312C38.9771 11.0047 39.1732 11.1396 39.3857 11.254C39.827 11.4991 40.1989 11.8342 40.5339 12.2102C40.7832 12.488 40.9998 12.7945 41.1591 13.1255C41.294 13.4115 41.4166 13.7058 41.4942 14.0204C41.6209 14.5353 41.7149 15.0542 41.674 15.5855C41.6454 15.9737 41.6127 16.3619 41.4983 16.7378C41.4534 16.8849 41.4452 17.0402 41.4084 17.1914C41.3144 17.5469 41.1959 17.8901 41.0652 18.2334C40.9957 18.4213 40.9385 18.6134 40.8568 18.7973C40.775 18.9853 40.6851 19.0506 40.5585 18.9934C40.4318 18.9362 40.3827 18.7483 40.4522 18.6011C40.6034 18.2865 40.6892 17.9473 40.8241 17.6286C40.9303 17.3753 40.9834 17.1137 41.0529 16.8563C41.1142 16.6315 41.2 16.4027 41.1918 16.1535C41.1755 15.6917 41.1877 15.2259 41.1918 14.7641C41.1918 14.3146 41.012 13.9223 40.8363 13.5219C40.7301 13.2767 40.6116 13.0438 40.4522 12.8354C40.2356 12.5493 40.0068 12.2796 39.7289 12.0385C39.402 11.7525 39.0384 11.5318 38.6502 11.3725C38.4254 11.2826 38.1802 11.2049 37.9391 11.1396C37.6449 11.0578 37.3466 11.0783 37.0524 11.0047C36.8399 10.9516 36.6029 10.9924 36.4231 10.9924L36.4272 10.9965Z" fill="#344A8C"/>
<path d="M1.13787 22.2907C1.15013 22.2008 1.09292 22.0455 1.17873 21.9066C1.30132 21.7063 1.62414 21.6124 1.8448 21.7309C2.07772 21.8575 2.29021 22.021 2.4414 22.2498C2.74379 22.7034 2.96036 23.2019 3.21371 23.6841C3.41394 24.0601 3.61417 24.4319 3.80214 24.8119C3.87978 24.9631 3.85526 25.0816 3.71224 25.147C3.58148 25.2083 3.49567 25.147 3.43029 25.0244C3.16876 24.5218 2.87863 24.0274 2.64163 23.5125C2.44957 23.0916 2.20848 22.7034 1.94696 22.3234C1.8734 22.2212 1.76307 22.1681 1.64866 22.1272C1.58328 22.1027 1.53015 22.1313 1.52607 22.2049C1.52198 22.3029 1.50972 22.4051 1.53424 22.4991C1.65274 22.9077 1.76716 23.3123 1.95104 23.6964C2.10224 24.011 2.26569 24.3175 2.44549 24.6158C2.69475 25.0326 2.93993 25.4535 3.14833 25.8948C3.34447 26.3116 3.52427 26.7366 3.65095 27.1861C3.69998 27.37 3.78988 27.5498 3.83892 27.7336C3.92881 28.0892 4.06366 28.4283 4.18217 28.7716C4.35379 29.2824 4.5908 29.7686 4.88092 30.2222C4.95448 30.3407 4.95039 30.4224 4.84415 30.5042C4.73382 30.59 4.62349 30.5859 4.54176 30.4756C4.44369 30.3489 4.3497 30.214 4.27615 30.0751C4.17399 29.8871 4.08818 29.6951 4.00645 29.4989C3.86752 29.172 3.7531 28.841 3.63869 28.506C3.51201 28.1341 3.40168 27.7582 3.27501 27.3904C3.1279 26.9654 2.98488 26.5364 2.78465 26.1318C2.64571 25.8499 2.48635 25.5761 2.33107 25.3023C2.04911 24.8119 1.73447 24.3338 1.53015 23.8067C1.34627 23.3368 1.09292 22.875 1.13378 22.2825L1.13787 22.2907Z" fill="#344A8C"/>
<path d="M34.4576 31.1906C34.2942 31.1906 34.1348 31.1824 33.9714 31.1906C33.5668 31.2151 33.1868 31.0966 32.7986 31.0272C32.3246 30.9373 31.8996 30.7248 31.4828 30.4959C31.3684 30.4346 31.2662 30.3447 31.16 30.263C31.0619 30.1854 30.9679 30.1037 31.0578 29.9606C31.1232 29.8544 31.2826 29.8258 31.4133 29.8993C31.4665 29.932 31.5196 29.9688 31.5686 30.0097C31.9119 30.308 32.3328 30.4633 32.7577 30.5736C33.0274 30.6471 33.3298 30.6635 33.5995 30.7248C34.0163 30.8188 34.429 30.8147 34.8377 30.7779C35.1932 30.7452 35.5568 30.737 35.9042 30.6226C36.084 30.5613 36.276 30.5818 36.464 30.5409C36.7541 30.4755 37.0279 30.357 37.314 30.2835C37.5837 30.214 37.8288 30.0996 38.0781 29.9892C38.168 29.9484 38.2702 29.9443 38.356 30.0178C38.4336 30.0832 38.4295 30.169 38.4173 30.2589C38.3968 30.3815 38.2702 30.402 38.1925 30.4265C37.8043 30.5532 37.4447 30.7697 37.0279 30.8228C36.9012 30.8392 36.7787 30.8964 36.6561 30.9332C36.3496 31.019 36.0268 31.0272 35.7326 31.113C35.3035 31.2397 34.8826 31.1538 34.4576 31.1947V31.1906Z" fill="#344A8C"/>
<path d="M23.5553 47.1109C23.7106 47.0864 23.8209 47.1886 23.9394 47.2499C24.4624 47.5277 25.0018 47.7647 25.5371 48.0181C25.8967 48.1856 26.2604 48.3368 26.6282 48.4921C27.0899 48.6882 27.5599 48.868 28.0257 49.056C28.4466 49.2276 28.8797 49.3747 29.3088 49.5259C29.4927 49.5913 29.6725 49.6649 29.8564 49.7303C29.9789 49.7752 30.0362 49.8814 29.9953 50.0122C29.9544 50.1307 29.8604 50.1511 29.7419 50.1144C29.3987 50.0122 29.0595 49.8937 28.7245 49.7629C28.5283 49.6894 28.324 49.6281 28.1319 49.5464C27.8459 49.4279 27.5599 49.3175 27.2697 49.2031C26.9551 49.0805 26.6404 48.9539 26.334 48.8149C25.7905 48.5697 25.2429 48.3409 24.7035 48.0835C24.2826 47.8832 23.8699 47.6748 23.449 47.4787C23.3632 47.4378 23.2733 47.3765 23.3101 47.2703C23.3469 47.1641 23.4245 47.0823 23.5594 47.1028L23.5553 47.1109Z" fill="#344A8C"/>
<path d="M32.7903 13.9104C33.1744 13.9472 33.6198 13.8777 34.0407 13.8042C34.7068 13.6898 35.3688 13.7224 36.0267 13.751C36.4026 13.7674 36.799 13.8532 37.1422 14.0657C37.1667 14.082 37.1913 14.0943 37.2199 14.1025C37.3915 14.1556 37.4487 14.2414 37.4078 14.3844C37.3792 14.4907 37.2403 14.5438 37.1014 14.4866C36.7744 14.3599 36.4394 14.2782 36.1002 14.1924C35.6385 14.078 35.1685 14.078 34.7272 14.1474C34.29 14.2128 33.8446 14.2046 33.4073 14.2904C32.9783 14.3763 32.5288 14.3436 32.0915 14.3068C31.5481 14.2618 31.164 13.9145 31.025 13.3915C30.9596 13.1463 31.0822 12.9379 31.2252 12.754C31.2906 12.6723 31.405 12.709 31.4949 12.7744C31.5848 12.8398 31.5889 12.9215 31.544 13.0033C31.2988 13.4323 31.6625 13.7388 31.9976 13.8328C32.2427 13.9022 32.4879 13.8941 32.7944 13.9022L32.7903 13.9104Z" fill="#344A8C"/>
<path d="M38.3151 27.6154C38.3151 27.3008 38.2824 26.9861 38.3233 26.6796C38.3968 26.1239 38.3928 25.5641 38.4336 25.0083C38.4663 24.5589 38.5644 24.1134 38.6134 23.6599C38.6379 23.4351 38.6911 23.1981 38.7401 22.9693C38.7891 22.7241 38.8055 22.4708 38.8668 22.2215C38.8995 22.0826 38.9934 21.9681 39.0915 21.9804C39.21 21.9967 39.2917 22.1684 39.2836 22.2991C39.2713 22.532 39.2182 22.7568 39.1732 22.9775C39.1119 23.2798 39.1201 23.5945 38.9975 23.8846C38.9853 23.9132 38.9812 23.9541 38.9853 23.9868C39.018 24.3831 38.9526 24.7754 38.8831 25.1555C38.7932 25.6826 38.8586 26.2097 38.785 26.7246C38.687 27.4111 38.7115 28.0976 38.7033 28.7841C38.7033 28.9108 38.6461 28.9598 38.5235 28.9598C38.3928 28.9598 38.311 28.923 38.311 28.7759C38.311 28.3877 38.311 27.9995 38.311 27.6113L38.3151 27.6154Z" fill="#344A8C"/>
<path d="M34.5394 32.5971C34.0858 32.4132 33.5709 32.5358 33.0887 32.3315C32.7414 32.1885 32.39 32.0495 32.0508 31.8861C31.777 31.7553 31.5482 31.5387 31.3234 31.3385C31.2499 31.2731 31.2254 31.1751 31.2989 31.0892C31.3725 30.9993 31.4624 30.938 31.585 31.0075C31.6217 31.0279 31.6544 31.0525 31.683 31.077C32.0835 31.4447 32.5493 31.7144 33.056 31.8779C33.3789 31.9801 33.7139 32.0904 34.0654 32.0863C34.3759 32.0863 34.6906 32.0822 35.0011 32.0863C35.2872 32.0904 35.5528 31.9882 35.8306 31.9351C36.3047 31.8493 36.7296 31.6409 37.1628 31.4447C37.269 31.3957 37.363 31.4447 37.4325 31.5428C37.5019 31.6409 37.4652 31.7104 37.3998 31.788C37.2772 31.9351 37.081 31.931 36.9258 32.0127C36.4967 32.2334 36.0309 32.3723 35.5569 32.45C35.23 32.5031 34.8949 32.5317 34.5394 32.5889V32.5971Z" fill="#344A8C"/>
<path d="M32.3491 16.9995C32.1652 16.9995 31.9772 16.9954 31.7933 16.9995C31.6381 17.0076 31.5155 16.9627 31.4705 16.8033C31.4419 16.7012 31.6013 16.5255 31.7525 16.5214C32.1202 16.5132 32.4962 16.4723 32.8558 16.5786C32.9743 16.6154 33.0969 16.599 33.2195 16.6072C33.5096 16.6235 33.6894 16.8033 33.6935 17.0934C33.7016 17.4449 33.7262 17.8004 33.6036 18.1395C33.4973 18.4378 33.342 18.7116 33.1909 18.9895C33.0642 19.2142 32.8844 19.4104 32.8108 19.6678C32.7495 19.8681 32.7577 20.0805 32.9212 20.2195C33.0151 20.3012 33.056 20.3993 33.1091 20.5055C33.1582 20.6036 33.1459 20.6894 33.056 20.7507C32.962 20.812 32.8394 20.8283 32.77 20.7384C32.6065 20.5259 32.439 20.3094 32.3246 20.0683C32.251 19.9171 32.2674 19.7209 32.3532 19.5452C32.5125 19.2224 32.7209 18.9241 32.9048 18.6136C33.0642 18.3439 33.1949 18.066 33.2195 17.7473C33.2317 17.6042 33.3012 17.4735 33.3094 17.3264C33.3216 17.118 33.2399 17.024 32.9988 17.0036C32.7863 16.9872 32.5697 17.0036 32.3572 17.0036C32.3572 17.0036 32.3572 16.9995 32.3572 16.9954L32.3491 16.9995Z" fill="#344A8C"/>
<path d="M19.4486 41.0269C19.3342 41.0351 19.2484 40.9615 19.2361 40.8512C19.1911 40.4957 19.0154 40.1811 18.9255 39.8378C18.8642 39.609 18.7457 39.3924 18.6395 39.1758C18.472 38.8367 18.3044 38.4975 18.1164 38.1665C17.9857 37.9336 17.8181 37.717 17.6833 37.4841C17.4504 37.0755 17.0949 36.7649 16.8415 36.3767C16.7557 36.2419 16.7802 36.1479 16.8906 36.0457C17.0091 35.9354 17.0826 36.0212 17.148 36.0988C17.6179 36.6301 18.0388 37.198 18.4107 37.8069C18.5864 38.097 18.7539 38.3872 18.8928 38.6936C19.0481 39.0328 19.2238 39.3679 19.3423 39.7275C19.4527 40.0585 19.5303 40.3976 19.6488 40.7245C19.7101 40.8921 19.6243 41.0269 19.4486 41.0269Z" fill="#344A8C"/>
<path d="M33.8774 21.515C34.1839 21.515 34.3923 21.515 34.6007 21.515C34.8213 21.5191 34.9848 21.7152 34.9562 21.9318C34.8826 22.4998 34.2493 22.9248 33.8038 22.9575C33.1051 23.0106 32.578 22.5447 32.3164 21.9849C32.2347 21.8051 32.3083 21.6253 32.4758 21.6294C32.9784 21.6376 33.4647 21.4374 33.8733 21.515H33.8774ZM33.6241 22.5284C33.9387 22.5284 34.1961 22.3976 34.4127 22.1361C34.4577 22.083 34.5516 22.0421 34.4985 21.9522C34.4577 21.8787 34.3718 21.9155 34.3065 21.9114C33.8692 21.8828 33.4443 22.0707 33.0029 22.0135C32.9621 22.0094 32.9008 22.0013 32.8803 22.0544C32.864 22.0952 32.9008 22.132 32.9294 22.1606C33.1337 22.3568 33.3625 22.5121 33.62 22.5325L33.6241 22.5284Z" fill="#344A8C"/>
<path d="M41.4779 48.7293C41.4574 48.8559 41.3349 48.9336 41.2163 48.9703C40.8322 49.1011 40.489 49.3013 40.1376 49.4934C39.7289 49.7141 39.3448 49.9756 38.9607 50.2412C38.5725 50.5109 38.2129 50.8133 37.8697 51.1361C37.7879 51.2137 37.6899 51.275 37.5959 51.3404C37.4896 51.4099 37.4406 51.3118 37.3793 51.2546C37.3098 51.1892 37.2731 51.1116 37.3548 51.0298C37.4896 50.8991 37.6163 50.7601 37.7634 50.6416C38.0985 50.3679 38.4377 50.1063 38.7768 49.8407C38.9566 49.6977 39.1569 49.5833 39.3571 49.4689C39.6717 49.2891 39.9782 49.097 40.2928 48.9254C40.5748 48.7701 40.8649 48.6353 41.1673 48.5168C41.3185 48.4555 41.482 48.5495 41.482 48.7293H41.4779Z" fill="#344A8C"/>
<path d="M38.3109 51.9987C38.3109 51.9414 38.3232 51.8883 38.364 51.8393C38.5806 51.6023 38.7849 51.3489 39.0138 51.1242C39.2712 50.8708 39.5409 50.6297 39.8228 50.405C40.0639 50.2129 40.3091 50.025 40.5829 49.8738C40.6319 49.8452 40.6646 49.792 40.7096 49.7594C40.8199 49.6776 40.9793 49.694 41.0528 49.792C41.155 49.9187 41.0855 50.0127 40.9874 50.0863C40.7096 50.2906 40.4276 50.4826 40.1457 50.6788C39.9577 50.8095 39.8065 50.9893 39.6349 51.1446C39.2916 51.4552 38.9811 51.7943 38.6705 52.1376C38.6133 52.1989 38.5438 52.252 38.458 52.2152C38.3681 52.1785 38.3027 52.1131 38.3068 52.0027L38.3109 51.9987Z" fill="#344A8C"/>
<path d="M45.3843 40.8793C45.3843 41.0101 45.3721 41.0918 45.2617 41.1C45.1555 41.1082 45.0574 41.1123 44.9961 40.9897C44.894 40.7894 44.8368 40.5729 44.7183 40.3767C44.4567 39.9395 44.1789 39.5104 43.8152 39.1467C43.7784 39.11 43.7457 39.0691 43.7049 39.0364C43.5986 38.9424 43.6395 38.8607 43.7171 38.779C43.7988 38.6973 43.8887 38.6605 43.9909 38.7422C44.1993 38.9016 44.3709 39.0977 44.5221 39.3061C44.6897 39.5349 44.8449 39.7719 44.9961 40.009C45.1759 40.2909 45.3271 40.5851 45.3761 40.8753L45.3843 40.8793Z" fill="#344A8C"/>
<path d="M4.88095 25.4091C5.02398 25.3968 5.1057 25.5194 5.1956 25.6093C5.5838 25.9975 5.87393 26.4552 6.12319 26.9373C6.17223 27.0313 6.16814 27.1457 6.22944 27.2438C6.28256 27.3378 6.17631 27.4032 6.10685 27.444C6.02512 27.4931 5.92296 27.489 5.86167 27.395C5.74316 27.2234 5.69413 27.0191 5.58789 26.8433C5.44486 26.6063 5.30184 26.3653 5.1057 26.1609C4.96268 26.0097 4.81966 25.8626 4.68481 25.7074C4.63169 25.6461 4.63986 25.5643 4.67255 25.4908C4.70933 25.405 4.79514 25.4172 4.88095 25.4131V25.4091Z" fill="#344A8C"/>
<path d="M35.6386 16.6887C35.9533 16.6724 36.272 16.6683 36.558 16.8031C36.7583 16.8971 37.0075 16.8522 37.1669 17.0483C37.2364 17.1341 37.2486 17.2118 37.2159 17.3017C37.1833 17.3916 37.0974 17.3834 37.0239 17.3875C36.8441 17.3998 36.6929 17.2976 36.5294 17.2486C36.0922 17.1178 35.6591 17.0442 35.2096 17.1587C35.0788 17.1913 34.9113 17.1219 34.8745 17.0116C34.8336 16.8726 34.9113 16.7459 35.0788 16.7092C35.2627 16.6683 35.4466 16.6969 35.6305 16.6887H35.6386Z" fill="#344A8C"/>
<path d="M49.3357 55.2926C49.3276 55.1741 49.3848 55.0719 49.4216 54.9616C49.5523 54.6061 49.7076 54.2628 49.9078 53.9441C49.961 53.8583 50.0427 53.7847 50.1162 53.7194C50.1694 53.6703 50.2347 53.6867 50.2879 53.7316C50.3859 53.8134 50.4104 53.9155 50.3614 54.0258C50.3083 54.1403 50.2225 54.2424 50.1775 54.3568C50.104 54.5448 49.9855 54.7123 49.916 54.9044C49.8547 55.076 49.8098 55.2558 49.7362 55.4193C49.6872 55.5296 49.585 55.5827 49.4665 55.5541C49.3194 55.5214 49.3398 55.3988 49.3357 55.2885V55.2926Z" fill="#344A8C"/>
<path d="M25.0672 55.7051C25.0672 55.8603 24.9079 55.9462 24.7689 55.8808C24.2827 55.6479 23.9394 55.2637 23.633 54.8347C23.5553 54.7284 23.5757 54.663 23.6616 54.5854C23.7515 54.4996 23.8495 54.4955 23.9435 54.565C24.013 54.6222 24.0784 54.6957 24.1274 54.7734C24.3113 55.0799 24.5932 55.2719 24.8752 55.4681C24.9651 55.5293 25.0754 55.5702 25.0713 55.7091L25.0672 55.7051Z" fill="#344A8C"/>
<path d="M44.5099 41.4804C44.3873 41.4927 44.326 41.4232 44.2769 41.3415C44.1012 41.0513 43.9092 40.7775 43.6313 40.5773C43.521 40.4997 43.4433 40.4057 43.5332 40.2749C43.6149 40.1564 43.7089 40.136 43.852 40.23C44.0685 40.373 44.2361 40.5446 44.3832 40.7571C44.4772 40.892 44.5998 41.0064 44.6815 41.1535C44.7183 41.223 44.7714 41.2843 44.7142 41.3578C44.661 41.4232 44.6079 41.5008 44.5139 41.4804H44.5099Z" fill="#344A8C"/>
<path d="M35.561 12.7946C35.798 12.7946 36.0309 12.7824 36.2597 12.8845C36.3987 12.9499 36.4068 13.048 36.3987 13.1665C36.3864 13.3013 36.272 13.3014 36.1862 13.2809C35.847 13.2074 35.4997 13.2033 35.1564 13.1992C35.042 13.1992 34.9807 13.1175 34.9807 13.003C34.9807 12.8805 35.042 12.8028 35.1646 12.7946C35.2954 12.7865 35.4302 12.7946 35.5651 12.7946H35.561Z" fill="#344A8C"/>
<path d="M19.5672 31.8125C19.5672 31.7267 19.5794 31.6736 19.6285 31.6327C19.8328 31.4611 20.0289 31.2772 20.2414 31.1138C20.3436 31.0361 20.4743 31.0443 20.5683 31.1546C20.6623 31.269 20.5928 31.3671 20.5111 31.4407C20.3068 31.6205 20.0943 31.788 19.8859 31.9637C19.8246 32.0127 19.7633 32.0414 19.702 31.9923C19.6366 31.9392 19.5508 31.8942 19.5631 31.8125H19.5672Z" fill="#344A8C"/>
<path d="M32.4757 17.8907C32.3817 18.0583 32.4226 18.2626 32.3899 18.4505C32.3654 18.6017 32.2264 18.6916 32.1038 18.663C31.9649 18.6263 31.8832 18.4873 31.9445 18.3361C32.0139 18.1727 32.0058 18.0092 32.018 17.8417C32.0303 17.6905 32.1324 17.6088 32.2755 17.6251C32.4226 17.6415 32.4553 17.7477 32.4716 17.8907H32.4757Z" fill="#344A8C"/>
<path d="M38.9648 20.3335C38.9648 20.26 38.977 20.1946 39.0383 20.1496C39.2018 20.0271 39.3571 19.8881 39.5369 19.786C39.6635 19.7165 39.8025 19.741 39.8801 19.8718C39.9496 19.9903 39.9087 20.1129 39.7943 20.1456C39.5532 20.215 39.447 20.4806 39.1977 20.5256C39.0261 20.5583 38.9607 20.5092 38.9648 20.3335Z" fill="#344A8C"/>
<path d="M35.9165 18.4704C35.9165 18.6257 35.9329 18.781 35.843 18.924C35.7858 19.0139 35.7163 19.0629 35.6182 19.0425C35.5242 19.0221 35.4466 18.9526 35.4384 18.8545C35.418 18.6093 35.4507 18.3723 35.5488 18.1476C35.5814 18.074 35.6509 18.0086 35.7408 18.025C35.8348 18.0454 35.9084 18.1108 35.9165 18.213C35.9247 18.2988 35.9165 18.3846 35.9165 18.4704Z" fill="#344A8C"/>
<path d="M24.5974 56.326C24.5647 56.4036 24.5075 56.4731 24.438 56.5303C24.3726 56.5834 24.3195 56.5426 24.2664 56.5099C24.0702 56.3914 23.9313 56.2116 23.7964 56.0318C23.7433 55.9623 23.7719 55.901 23.8128 55.8438C23.8659 55.7703 23.9395 55.7008 24.0334 55.7498C24.2664 55.8724 24.438 56.0686 24.5851 56.281C24.5933 56.2892 24.5933 56.3015 24.6014 56.326H24.5974Z" fill="#344A8C"/>
<path d="M39.3245 16.7051C39.3245 16.5947 39.3367 16.4844 39.3735 16.3823C39.4266 16.2474 39.5329 16.2065 39.6677 16.2433C39.7821 16.276 39.8312 16.4109 39.778 16.5416C39.7576 16.5947 39.7454 16.652 39.7413 16.7092C39.729 16.889 39.6391 16.9993 39.5124 16.9993C39.3817 16.9993 39.3245 16.9053 39.3245 16.7051Z" fill="#344A8C"/>
<path d="M38.0291 14.298C38.1517 14.3511 38.2866 14.4288 38.3806 14.5677C38.4296 14.6413 38.3765 14.6903 38.3356 14.7352C38.2784 14.8006 38.2048 14.866 38.1109 14.8251C38.0005 14.7761 37.8943 14.7148 37.8003 14.6453C37.7349 14.5963 37.739 14.5023 37.7799 14.4369C37.8289 14.3634 37.8861 14.2817 38.0291 14.298Z" fill="#344A8C"/>
<path d="M21.1731 34.5459C21.1772 34.3947 21.3652 34.2067 21.5041 34.2271C21.6185 34.2435 21.7084 34.3252 21.7207 34.4437C21.737 34.5908 21.549 34.8074 21.4305 34.8033C21.3039 34.8033 21.1731 34.6684 21.1772 34.5499L21.1731 34.5459Z" fill="#344A8C"/>
<path d="M63.9958 45.3379C63.8487 45.3828 63.8038 45.5217 63.7507 45.6362C63.5464 46.0693 63.3012 46.4902 63.2195 46.9724C63.2031 47.0664 63.15 47.2012 63.0315 47.1849C62.913 47.1685 62.8721 47.0459 62.8885 46.9233C62.9211 46.6904 62.9824 46.4575 63.0805 46.2532C63.2358 45.9263 63.3584 45.5871 63.5668 45.2888C63.7139 45.0722 63.7548 45.0477 63.9999 45.1703V45.346L63.9958 45.3379Z" fill="#1ABFF1"/>
<path d="M59.1578 33.7658C59.1578 33.7658 59.2354 33.7658 59.2518 33.8271C59.2763 33.9088 59.2763 33.9865 59.2109 34.0518C59.1169 34.1458 59.0107 34.2276 58.9289 34.3338C58.7328 34.5872 58.6225 34.8569 58.598 35.1838C58.5653 35.67 58.7287 36.0623 59.0679 36.3974C59.2681 36.5935 59.3131 36.8469 59.2558 37.1043C59.215 37.28 59.0515 37.3863 58.8963 37.4843C58.6838 37.6233 58.4835 37.7663 58.5326 38.0728C58.5448 38.1586 58.5653 38.2444 58.6306 38.2853C58.7941 38.3915 58.9371 38.5264 59.121 38.5999C59.4193 38.7143 59.6073 39.221 59.4561 39.503C59.3621 39.6828 59.2477 39.8462 59.1128 40.0015C59.0188 40.1078 58.8963 40.1486 58.7818 40.2099C58.7083 40.2508 58.6919 40.1813 58.6674 40.1445C58.6184 40.0751 58.598 39.9933 58.6715 39.9239C58.7491 39.8544 58.8268 39.7849 58.9085 39.7196C59.027 39.6256 59.1006 39.4989 59.1496 39.364C59.2232 39.1475 59.1128 38.9963 58.9453 38.8778C58.8431 38.8042 58.7328 38.7388 58.6184 38.6816C58.3446 38.5345 58.1812 38.273 58.1812 37.9992C58.1812 37.7418 58.3037 37.4598 58.5734 37.3168C58.6552 37.2719 58.7246 37.2146 58.79 37.1493C59.0229 36.9082 59.027 36.8469 58.7941 36.5935C58.696 36.4873 58.5898 36.3892 58.5121 36.2666C57.985 35.4085 58.2588 34.3706 58.9862 33.8067C59.027 33.7781 59.0638 33.7617 59.1496 33.7617L59.1578 33.7658Z" fill="#1ABFF1"/>
<path d="M51.3693 28.02C52.207 27.9791 52.7586 28.4082 53.2204 28.9925C53.2817 29.0701 53.3225 29.1723 53.3184 29.2826C53.3184 29.3562 53.2857 29.4011 53.2204 29.4338C53.155 29.4665 53.1059 29.4257 53.0692 29.3848C53.0283 29.3398 52.9956 29.2785 52.9629 29.2254C52.681 28.7882 52.2805 28.5308 51.782 28.3796C51.4224 28.2733 51.0914 28.3387 50.7522 28.4286C50.6092 28.4654 50.5847 28.3469 50.5561 28.2651C50.4131 27.8197 50.7236 27.3416 51.1895 27.2803C51.2916 27.2681 51.3979 27.2558 51.4919 27.2109C51.5327 27.1945 51.5858 27.1741 51.6267 27.1864C52.0026 27.2926 52.4072 27.2436 52.7709 27.4193C52.8975 27.4806 53.0406 27.5092 53.1713 27.5705C53.4165 27.6808 53.5963 27.8647 53.7843 28.0445C53.8537 28.1139 53.915 28.1998 53.8292 28.306C53.7598 28.3918 53.6821 28.4245 53.6004 28.3264C53.392 28.0731 53.1264 27.9055 52.8362 27.7707C52.7177 27.7176 52.587 27.6808 52.4603 27.6522C52.1048 27.5746 51.7411 27.5296 51.3774 27.5664C51.1895 27.5868 51.0178 27.6604 50.9034 27.8197C50.8217 27.9382 50.8503 28.0036 50.9933 28.0118C51.1323 28.02 51.2712 28.0118 51.3693 28.0118V28.02Z" fill="#1ABFF1"/>
<path d="M60.0976 34.4845C60.0976 34.5417 60.0649 34.5785 60.0322 34.6234C59.8156 34.9381 59.6563 35.2813 59.7257 35.6654C59.7829 35.9842 59.9995 36.2253 60.2937 36.3356C60.6697 36.4786 60.7759 36.9608 60.4899 37.2959C60.3591 37.4512 60.1957 37.5697 60.069 37.7331C59.9709 37.8557 59.9627 37.9579 60.0772 38.0641C60.1303 38.1131 60.1875 38.1663 60.2488 38.2071C60.4694 38.3583 60.5593 38.6525 60.5021 38.9141C60.4613 39.1143 60.4081 39.3023 60.3019 39.4821C60.257 39.5556 60.2202 39.6292 60.1139 39.576C60.0118 39.527 59.9546 39.4412 60.0159 39.3349C60.0772 39.2287 60.1017 39.1102 60.1548 38.9999C60.2529 38.8078 60.212 38.5667 59.9791 38.4033C59.8647 38.3256 59.7502 38.2398 59.6726 38.1254C59.5623 37.966 59.5909 37.7372 59.738 37.586C59.8688 37.4552 60.0118 37.3367 60.1384 37.2019C60.3428 36.9853 60.3918 36.732 60.0445 36.5849C59.5255 36.3601 59.3294 35.9474 59.3702 35.4203C59.3907 35.1465 59.456 34.8645 59.644 34.6357C59.7135 34.554 59.7257 34.4314 59.8197 34.3619C59.8851 34.3129 59.9464 34.3129 60.0159 34.3374C60.0812 34.3619 60.0935 34.4191 60.0894 34.4804L60.0976 34.4845Z" fill="#1ABFF1"/>
<path d="M10.4081 52.6117C10.355 52.906 10.4817 53.2002 10.6533 53.4903C10.7718 53.6824 10.972 53.7723 11.1437 53.8908C11.4624 54.1073 11.777 54.3198 11.9241 54.6998C11.9528 54.7734 11.9732 54.8388 11.9732 54.9164C11.9732 55.1657 11.965 55.415 11.9732 55.6642C11.9814 55.889 11.8792 56.0728 11.7975 56.269C11.7525 56.3793 11.6667 56.4038 11.5605 56.3957C11.4338 56.3834 11.397 56.3385 11.4624 56.2159C11.5891 55.9789 11.6545 55.7255 11.6912 55.4599C11.7607 54.9736 11.5646 54.6099 11.1723 54.3362C11.0252 54.234 10.8903 54.1196 10.7391 54.0256C10.3223 53.76 10.1752 53.3555 10.118 52.8937C10.0894 52.669 10.0976 52.4442 10.118 52.2195C10.1262 52.1214 10.1466 52.0478 10.2651 52.0519C10.3918 52.0519 10.3959 52.1377 10.3959 52.2317C10.3959 52.342 10.3959 52.4524 10.3959 52.6158L10.4081 52.6117Z" fill="#1ABFF1"/>
<path d="M56.4893 56.9555C56.4444 56.9473 56.3953 56.9473 56.3545 56.9309C56.236 56.8819 56.2196 56.7961 56.3177 56.7103C56.4199 56.6204 56.5302 56.5427 56.6201 56.4324C56.7304 56.3017 56.7754 56.1709 56.7672 56.0074C56.7631 55.8848 56.7672 55.7623 56.7672 55.6438C56.7754 55.3618 56.7304 55.0839 56.6855 54.802C56.5751 54.1155 56.7917 53.527 57.2984 53.053C57.3883 52.9713 57.4946 52.91 57.609 52.8651C57.703 52.8324 57.7806 52.8651 57.8337 52.9468C57.895 53.0408 57.8092 53.0816 57.7683 53.1348C57.7561 53.147 57.7438 53.1593 57.7275 53.1675C57.4128 53.3186 57.2249 53.5924 57.0982 53.8948C57.0083 54.1155 56.9347 54.3647 56.9919 54.614C57.0165 54.7243 57.0492 54.8265 57.0369 54.9368C57.0165 55.133 57.1104 55.3087 57.1268 55.4966C57.1717 56.0115 57.1023 56.4978 56.6936 56.8737C56.6324 56.9269 56.5711 56.9555 56.4893 56.9555Z" fill="#1ABFF1"/>
<path d="M44.1365 14.1639C44.1528 13.6286 44.4103 13.2567 44.8638 12.9788C45.1989 12.7745 45.5422 12.562 45.7506 12.2024C45.7914 12.133 45.8078 12.0676 45.8159 11.99C45.8241 11.8755 45.8527 11.7693 45.9794 11.7284C46.0448 11.708 46.1102 11.7284 46.151 11.7856C46.2205 11.8837 46.2041 11.9818 46.151 12.0799C46.0693 12.231 46.0203 12.4108 45.9099 12.5334C45.7506 12.7091 45.5626 12.8603 45.3746 13.0074C45.0968 13.224 44.7494 13.367 44.5819 13.7103C44.4716 13.9391 44.4225 14.1639 44.4961 14.4254C44.5492 14.6174 44.5737 14.8136 44.68 14.9934C44.7208 15.0669 44.7412 15.1895 44.6064 15.2181C44.4961 15.2386 44.3694 15.2631 44.349 15.0833C44.3367 14.9525 44.2631 14.8381 44.2223 14.7155C44.1651 14.5357 44.1406 14.3559 44.1406 14.168L44.1365 14.1639Z" fill="#1ABFF1"/>
<path d="M11.5196 52.497C11.5319 52.8035 11.634 53.0773 11.8179 53.3224C12.1285 53.7392 12.5126 54.1029 12.7455 54.581C12.7823 54.6546 12.8109 54.7281 12.8068 54.8099C12.8068 55.0183 12.8068 55.2267 12.8068 55.4351C12.8068 55.4637 12.8068 55.4923 12.8068 55.5209C12.7945 55.623 12.7332 55.6925 12.6392 55.7211C12.5779 55.7415 12.5044 55.7497 12.4635 55.6925C12.4022 55.6108 12.4186 55.5086 12.4717 55.431C12.5657 55.2839 12.5616 55.1204 12.5207 54.9774C12.4554 54.7526 12.3736 54.5279 12.2184 54.344C12.0998 54.1969 11.9773 54.0498 11.8506 53.9068C11.5768 53.5881 11.3684 53.2325 11.2622 52.828C11.2172 52.6605 11.2417 52.4807 11.254 52.309C11.2622 52.2273 11.3153 52.166 11.4011 52.166C11.4992 52.166 11.5155 52.2477 11.5237 52.3254C11.5278 52.3826 11.5237 52.4398 11.5237 52.497H11.5196Z" fill="#1ABFF1"/>
<path d="M58.0544 53.6211C58.177 53.6293 58.2465 53.7886 58.1852 53.8949C58.1443 53.9562 58.0994 54.0175 58.0544 54.0747C57.8869 54.2872 57.8665 54.5364 57.8746 54.7939C57.8828 55.1943 57.8624 55.5948 57.8828 55.9911C57.9032 56.3507 57.7561 56.6409 57.5682 56.9187C57.4987 57.0209 57.3802 57.074 57.2658 57.1108C57.18 57.1435 57.1268 57.0658 57.0819 57.0086C57.0288 56.9392 57.0819 56.8942 57.1228 56.8452C57.1881 56.7635 57.2821 56.7267 57.3475 56.6368C57.6335 56.2608 57.6417 55.8522 57.5518 55.4109C57.4905 55.1085 57.4783 54.8102 57.5682 54.4915C57.6458 54.2218 57.7234 53.9684 57.8951 53.7478C57.94 53.6906 57.9891 53.6293 58.0544 53.6211Z" fill="#1ABFF1"/>
<path d="M53.4247 16.6973C53.4165 16.5706 53.4247 16.4521 53.5391 16.3745C53.6004 16.3336 53.6739 16.3295 53.7393 16.354C53.8129 16.3826 53.8047 16.4562 53.8006 16.5175C53.7884 16.8362 53.9191 16.9874 54.2256 17.0732C54.7772 17.2244 55.2145 17.5391 55.4392 18.0744C55.5046 18.2256 55.5455 18.4013 55.5455 18.577C55.5455 18.6751 55.5046 18.7364 55.4147 18.7772C55.288 18.8344 55.1981 18.8017 55.2063 18.6628C55.2186 18.4585 55.1409 18.2746 55.0796 18.0948C55.0061 17.8823 54.814 17.7393 54.622 17.6208C54.4136 17.49 54.1806 17.4042 53.9477 17.3225C53.7638 17.2571 53.6249 17.1304 53.4941 16.9874C53.4124 16.8975 53.4328 16.7954 53.4288 16.6932L53.4247 16.6973Z" fill="#1ABFF1"/>
<path d="M18.928 20.6031C18.9362 20.3334 18.8136 20.1372 18.691 19.9574C18.499 19.6796 18.3192 19.3894 18.2293 19.0748C18.1353 18.756 18.1394 18.4087 18.3968 18.1268C18.4949 18.0205 18.6543 17.9674 18.7115 18.0409C18.7932 18.1472 18.736 18.2371 18.6583 18.3311C18.4663 18.564 18.5031 18.8378 18.6011 19.087C18.7033 19.3486 18.8545 19.5897 19.0016 19.8307C19.21 20.1658 19.2304 20.5254 19.2018 20.9014C19.1936 21.0035 19.1242 21.0812 19.0711 21.1629C19.0138 21.2487 18.9362 21.261 18.8463 21.1997C18.7564 21.1424 18.736 21.0689 18.7891 20.979C18.8627 20.8564 18.9526 20.7379 18.9321 20.6112L18.928 20.6031Z" fill="#1ABFF1"/>
<path d="M44.9006 14.5635C44.8884 14.1059 45.1131 13.8198 45.3951 13.5665C45.6157 13.3703 45.8854 13.2396 46.0979 13.0352C46.241 12.8963 46.3513 12.7533 46.3717 12.5531C46.3799 12.4713 46.4167 12.3978 46.4657 12.3324C46.5229 12.2589 46.5965 12.2629 46.67 12.2834C46.7395 12.3038 46.7436 12.3651 46.7436 12.4223C46.7436 12.5408 46.7231 12.6471 46.67 12.7656C46.5106 13.1047 46.2491 13.3376 45.9672 13.5542C45.8364 13.6564 45.6975 13.7504 45.5626 13.8484C45.3461 14.0037 45.2725 14.2407 45.1908 14.4736C45.1458 14.6003 45.2275 14.7106 45.297 14.8087C45.3828 14.9313 45.3379 15.0171 45.2357 15.0866C45.1172 15.1683 45.0723 15.058 45.0191 14.9885C44.9129 14.8496 44.8802 14.6861 44.8966 14.5635H44.9006Z" fill="#1ABFF1"/>
<path d="M19.3326 18.1154C19.4757 18.1154 19.541 18.2421 19.4552 18.3647C19.2223 18.6916 19.3204 19.0103 19.4471 19.3454C19.6228 19.8071 19.9129 20.2362 19.8761 20.7674C19.8639 20.9349 19.8067 21.082 19.7372 21.2251C19.6922 21.3109 19.6146 21.3926 19.4961 21.315C19.398 21.2496 19.3858 21.1842 19.4389 21.0534C19.5124 20.8859 19.5656 20.7061 19.5288 20.4936C19.4675 20.1299 19.2591 19.8398 19.1406 19.5088C18.9976 19.1043 18.9036 18.6834 19.1365 18.2707C19.1814 18.1889 19.2346 18.1113 19.3367 18.1154H19.3326Z" fill="#1ABFF1"/>
<path d="M23.9339 11.536C23.8521 11.7649 24.0483 11.9079 24.1913 12.0509C24.3098 12.1694 24.4447 12.2838 24.5999 12.3696C24.8165 12.4841 24.8982 12.717 25.0413 12.8927C25.1802 13.0643 25.2047 13.2931 25.3028 13.4893C25.3396 13.5628 25.3355 13.6487 25.3028 13.7263C25.2783 13.7876 25.2251 13.8285 25.1557 13.8285C25.0821 13.8285 25.0658 13.7794 25.0413 13.7222C24.9391 13.4403 24.886 13.1297 24.6571 12.9049C24.461 12.7129 24.2444 12.5413 24.0401 12.3574C23.7786 12.1204 23.5293 11.8589 23.5498 11.4584C23.5538 11.3808 23.5661 11.3113 23.607 11.2418C23.656 11.1601 23.7132 11.107 23.8195 11.1397C23.9216 11.1683 23.9298 11.2418 23.9298 11.3317C23.9298 11.3889 23.9298 11.4461 23.9298 11.536H23.9339Z" fill="#1ABFF1"/>
<path d="M61.7689 27.5215C61.7689 27.8525 61.3889 28.1999 61.0334 28.1958C60.7106 28.1958 60.4531 27.9056 60.4531 27.542C60.4531 27.1905 60.6452 26.8596 61.1274 26.9045C61.4216 26.9331 61.7689 27.2396 61.7648 27.5215H61.7689ZM61.0824 27.8484C61.2581 27.8484 61.3889 27.7054 61.3889 27.5215C61.3889 27.3663 61.2254 27.1905 61.0742 27.1905C60.9312 27.1905 60.7596 27.3785 60.7637 27.5297C60.7719 27.7095 60.9149 27.8525 61.0824 27.8484Z" fill="#1ABFF1"/>
<path d="M13.3667 15.7368C13.3258 15.9983 13.1991 16.1985 12.9662 16.3538C12.6965 16.5336 12.4513 16.4887 12.1939 16.3456C12.0631 16.2721 11.8792 15.9493 11.916 15.8062C11.9651 15.6183 12.0223 15.4344 12.1939 15.3036C12.292 15.2301 12.39 15.2096 12.5004 15.226C12.6148 15.2464 12.6475 15.3445 12.5657 15.4262C12.4963 15.4957 12.4105 15.5447 12.341 15.6142C12.2348 15.7204 12.2143 15.843 12.3165 15.9697C12.4636 16.1536 12.5944 16.1904 12.7455 16.1005C12.864 16.0269 12.9785 15.9493 12.9989 15.7899C13.0112 15.7 13.0112 15.6224 12.9417 15.5488C12.8518 15.4507 12.86 15.3486 12.9703 15.2668C12.9989 15.2464 13.0316 15.2219 13.0643 15.2546C13.2032 15.3854 13.4116 15.4712 13.3667 15.7286V15.7368Z" fill="#1ABFF1"/>
<path d="M16.1453 57.0451C16.1453 56.7427 16.4681 56.3954 16.7501 56.3994C17.0443 56.3994 17.363 56.755 17.359 57.0859C17.359 57.4496 17.1179 57.6785 16.7378 57.6785C16.3701 57.6785 16.1412 57.4333 16.1412 57.0451H16.1453ZM16.7256 57.3311C16.9422 57.3311 17.0525 57.2453 17.0484 57.0819C17.0484 56.9225 16.8931 56.7754 16.7338 56.7754C16.5785 56.7754 16.4927 56.8939 16.4927 57.09C16.4927 57.278 16.5458 57.3311 16.7215 57.3311H16.7256Z" fill="#1ABFF1"/>
<path d="M56.4854 18.266C56.4813 18.36 56.4854 18.4213 56.4731 18.4744C56.4527 18.5725 56.3791 18.6215 56.2851 18.6215C56.1993 18.6215 56.1503 18.552 56.1421 18.4703C56.1339 18.3682 56.138 18.2619 56.1339 18.1598C56.1217 17.7756 55.9501 17.5591 55.5823 17.4365C55.2799 17.3343 54.9898 17.2158 54.7569 16.9829C54.6302 16.8562 54.5893 16.5783 54.6792 16.4394C54.7119 16.3904 54.7446 16.3373 54.8141 16.3536C54.8754 16.3659 54.8999 16.419 54.8999 16.4721C54.9081 16.7827 55.1491 16.8848 55.3698 17.0115C55.566 17.1259 55.7989 17.1423 55.9909 17.2608C56.2116 17.3956 56.3505 17.5958 56.3791 17.8614C56.3955 18.0126 56.5426 18.1352 56.4854 18.2701V18.266Z" fill="#1ABFF1"/>
<path d="M62.3289 46.8293C62.382 46.2899 62.5536 45.7873 62.8151 45.3133C62.8805 45.1988 62.9336 45.0763 63.0072 44.9659C63.0644 44.876 63.1298 44.7698 63.2687 44.8515C63.3954 44.9291 63.3831 45.0354 63.3096 45.1335C63.1625 45.3296 63.0562 45.5462 62.9663 45.7668C62.856 46.0365 62.7334 46.3062 62.713 46.6005C62.7007 46.7639 62.619 46.9069 62.5863 47.0663C62.57 47.1358 62.5005 47.2134 62.4024 47.193C62.3125 47.1725 62.337 47.0826 62.3329 47.0173C62.3329 46.9519 62.3329 46.8906 62.3329 46.8252L62.3289 46.8293Z" fill="#1ABFF1"/>
<path d="M55.6477 48.2799C55.6477 48.6599 55.235 48.9255 54.8836 48.7743C54.7446 48.713 54.6547 48.4719 54.7242 48.2676C54.7651 48.1491 54.8182 48.0388 54.8958 47.9325C55.0102 47.7732 55.1614 47.7282 55.3331 47.7936C55.5129 47.8631 55.6354 47.9979 55.6477 48.2104C55.6477 48.2349 55.6477 48.2554 55.6477 48.2799Z" fill="#1ABFF1"/>
<path d="M24.7019 14.0527C24.6938 14.1467 24.7101 14.253 24.5916 14.2693C24.4854 14.2857 24.4241 14.208 24.3914 14.114C24.3505 13.9996 24.3015 13.8893 24.3178 13.7626C24.3342 13.6319 24.2524 13.5215 24.1911 13.4275C23.9991 13.1333 23.8029 12.8391 23.4924 12.6471C23.3984 12.5899 23.3453 12.5204 23.3984 12.4223C23.4556 12.312 23.5659 12.3202 23.6558 12.3651C23.7784 12.4264 23.8847 12.5122 23.9868 12.6103C24.3587 12.974 24.6202 13.3949 24.6856 13.922C24.6897 13.9669 24.6978 14.0119 24.7019 14.0527Z" fill="#1ABFF1"/>
<path d="M42.3874 7.82131C42.0769 7.84174 41.9012 7.59656 41.8848 7.29826C41.8685 7.01222 42.1136 6.78338 42.3997 6.7793C42.6898 6.7793 42.9636 7.03265 42.9554 7.30643C42.9472 7.53935 42.7307 7.84991 42.3915 7.82131H42.3874ZM42.1954 7.33912C42.2076 7.42902 42.2771 7.51075 42.3956 7.53118C42.4937 7.54752 42.5877 7.40859 42.5754 7.28191C42.5672 7.1675 42.5141 7.08168 42.3915 7.06534C42.2975 7.05308 42.1913 7.1961 42.1954 7.33912Z" fill="#1ABFF1"/>
<path d="M30.4719 7.06545C30.1613 7.08588 29.9856 6.8407 29.9693 6.5424C29.9529 6.25636 30.1981 6.02752 30.4842 6.02344C30.7743 6.02344 31.0481 6.27679 31.0399 6.55057C31.0317 6.78349 30.8151 7.09405 30.476 7.06545H30.4719ZM30.2798 6.58326C30.2921 6.67316 30.3616 6.75489 30.4801 6.77532C30.5781 6.79166 30.6721 6.65273 30.6599 6.52605C30.6517 6.41164 30.5986 6.32582 30.476 6.30948C30.382 6.29722 30.2758 6.44024 30.2798 6.58326Z" fill="#1ABFF1"/>
<path d="M16.7011 26.2466C16.7256 26.5531 16.6194 26.6021 16.3047 26.7165C16.1045 26.7901 15.8879 26.6716 15.7776 26.455C15.7122 26.3243 15.655 26.1935 15.7449 26.0464C15.7939 25.9606 15.8389 25.8788 15.9533 25.9074C16.0718 25.9361 16.0514 26.0341 16.0473 26.1199C16.0473 26.3079 16.1086 26.3774 16.2557 26.3529C16.3211 26.3406 16.3619 26.3038 16.3783 26.2466C16.3987 26.1771 16.3251 26.1894 16.2925 26.1608C16.2271 26.0995 16.1331 26.0546 16.1494 25.9401C16.1617 25.8707 16.2026 25.8216 16.2679 25.8053C16.366 25.7849 16.4559 25.7767 16.5376 25.8666C16.6929 26.03 16.697 26.026 16.697 26.2425L16.7011 26.2466Z" fill="#1ABFF1"/>
<path d="M40.6713 23.5739C40.753 23.5617 40.8143 23.6189 40.8633 23.6802C41.0472 23.9008 41.2107 24.1378 41.3455 24.3912C41.4068 24.5056 41.4722 24.6241 41.5294 24.7426C41.5621 24.8121 41.5825 24.8897 41.5171 24.951C41.4763 24.9919 41.4272 25.0368 41.3659 25.0001C41.2965 24.9633 41.1902 24.9633 41.1821 24.8448C41.1698 24.6772 41.0595 24.5506 40.9696 24.4198C40.8347 24.2155 40.6876 24.0153 40.5568 23.8069C40.4751 23.6761 40.5242 23.578 40.6672 23.5739H40.6713Z" fill="#1ABFF1"/>
<path d="M47.381 19.5039C47.1195 19.5039 47.0214 19.4099 47.0255 19.1484C47.0255 18.9359 47.1931 18.7479 47.3769 18.752C47.6099 18.7602 47.757 18.9073 47.757 19.1361C47.757 19.3854 47.6344 19.5039 47.381 19.5039Z" fill="#1ABFF1"/>
<path d="M17.5592 49.9959C17.3303 49.9959 17.1914 49.8774 17.1914 49.6813C17.1914 49.4606 17.3671 49.2726 17.5673 49.2686C17.7594 49.2686 17.9229 49.4565 17.9188 49.6854C17.9188 49.9019 17.8044 49.9959 17.5592 49.9959Z" fill="#1ABFF1"/>
<path d="M42.122 24.5265C42.122 24.596 42.1179 24.6613 42.0443 24.6777C41.9708 24.694 41.8891 24.7022 41.8441 24.6205C41.791 24.5265 41.7419 24.4284 41.6888 24.3304C41.5826 24.126 41.4723 23.9258 41.3783 23.7174C41.3415 23.6398 41.3292 23.5376 41.4314 23.4886C41.5581 23.4273 41.6561 23.5049 41.7052 23.603C41.8482 23.8768 41.9749 24.1587 42.1056 24.4366C42.1179 24.4652 42.1179 24.5061 42.122 24.5265Z" fill="#1ABFF1"/>
<path d="M24.8328 19.504C25.0412 19.504 25.1515 19.6184 25.1474 19.8227C25.1474 19.9739 24.9921 20.1251 24.8491 20.121C24.7388 20.121 24.5018 19.8799 24.4977 19.7696C24.4977 19.6266 24.6489 19.4999 24.8287 19.504H24.8328Z" fill="#1ABFF1"/>
<path d="M7.16766 46.846C7.17583 46.9849 7.11045 47.0299 7.0369 47.0707C6.93065 47.132 6.85301 47.0626 6.78355 47.0135C6.62827 46.9073 6.59149 46.6417 6.68956 46.4864C6.77129 46.3597 6.92248 46.3352 7.00421 46.466C7.08593 46.5926 7.12271 46.7438 7.16357 46.846H7.16766Z" fill="#1ABFF1"/>
<path d="M40.8388 10.4045C40.8388 10.5925 40.6181 10.8091 40.4792 10.7519C40.3975 10.7151 40.3362 10.6579 40.3362 10.5557C40.3362 10.4168 40.3975 10.3024 40.5078 10.237C40.5895 10.188 40.6999 10.188 40.7898 10.2452C40.8429 10.2778 40.8347 10.3473 40.8347 10.4045H40.8388Z" fill="#1ABFF1"/>
<path d="M52.4031 38.7959C52.301 38.7959 52.1293 38.6284 52.1212 38.5263C52.113 38.4159 52.2642 38.3056 52.4235 38.3097C52.5829 38.3097 52.6932 38.3996 52.6892 38.5222C52.6892 38.6529 52.5339 38.8 52.4031 38.7959Z" fill="#1ABFF1"/>
<path d="M26.4428 25.936C26.455 26.0831 26.3242 26.0953 26.2221 26.1198C26.1322 26.1403 25.9769 25.9768 25.9933 25.8787C26.0137 25.7562 26.0832 25.6826 26.218 25.6867C26.3447 25.6867 26.4428 25.7888 26.4387 25.936H26.4428Z" fill="#1ABFF1"/>
</g>
<defs>
<clipPath id="clip0_3626_55354">
<rect width="64" height="64" fill="white"/>
</clipPath>
</defs>
</svg>
