<svg width="200" height="200" viewBox="0 0 200 200" fill="none" xmlns="http://www.w3.org/2000/svg">
<path fill-rule="evenodd" clip-rule="evenodd" d="M4.42848 71.1127C4.0852 70.8931 3.77208 70.6613 3.73277 70.5978C3.61096 70.4005 3.82168 70.4702 4.47476 70.8431C5.36804 71.3531 6.76779 72.7891 7.19209 73.6306C8.2649 75.7592 8.17108 77.181 6.64917 81.8524C5.88011 84.2129 5.68173 85.2723 5.75315 86.6347C5.79486 87.4286 5.86948 87.7347 6.17059 88.3462C6.59718 89.2129 7.5748 90.1803 8.1376 90.2929C8.3385 90.333 9.38948 90.3659 10.473 90.3659C12.2979 90.3659 12.4655 90.3835 12.7465 90.6045C13.4455 91.1544 13.5895 92.0917 13.0892 92.8354C12.9248 93.0799 12.5111 93.5742 12.17 93.9337C11.2747 94.8776 11.1038 95.3404 11.0297 97.0231C10.9958 97.7926 10.9152 98.6022 10.8506 98.8222C10.7004 99.3334 10.1384 99.9212 8.9886 100.77C8.04253 101.468 7.48589 102.164 7.21883 102.984C6.88858 103.996 7.43356 106.41 8.32924 107.901C8.9165 108.879 10.116 110.029 11.0009 110.464C12.2547 111.08 14.1771 111.34 15.2559 111.041C15.8507 110.875 15.928 111.001 15.377 111.238C14.7966 111.487 13.3485 111.486 12.3597 111.235C9.78956 110.584 8.05224 108.841 7.16261 106.022C6.3436 103.425 6.77739 102.066 8.92987 100.487C9.90383 99.7717 10.4016 99.2529 10.582 98.7651C10.6284 98.6394 10.7047 97.8166 10.7513 96.9367C10.8509 95.0597 10.9697 94.7485 12.0153 93.6244C13.0138 92.5512 13.2421 91.9512 12.9206 91.2456C12.7981 90.9768 12.7601 90.9704 10.8178 90.8947C9.64888 90.8489 8.61104 90.7495 8.28056 90.6514C6.48565 90.1183 5.36096 88.392 5.36484 86.1761C5.36701 84.9076 5.68561 83.5478 6.5877 80.9569C7.27346 78.9874 7.67445 77.2578 7.67445 76.2696C7.67445 74.398 6.40063 72.3742 4.42848 71.1127ZM194.873 77.8761C195.402 77.2092 195.668 76.6496 195.879 75.7673C196.054 75.0305 196.288 74.9543 196.19 75.6656C196.035 76.7952 195.676 77.4593 194.696 78.4242C193.91 79.1976 193.444 79.5232 191.669 80.5383C189.353 81.8631 188.417 82.6182 187.66 83.7713C187.019 84.7492 186.628 86.0272 186.63 87.1436C186.632 88.6279 187.001 89.6264 188.383 91.8934C189.266 93.3406 189.416 93.8026 189.342 94.8467C189.226 96.491 188.542 97.258 186.312 98.2447C184.718 98.9499 184.188 99.2242 184.015 99.4334C183.937 99.5274 183.751 100.142 183.603 100.799C183.454 101.456 183.205 102.245 183.05 102.552C182.692 103.258 181.776 104.121 180.999 104.485C180.321 104.803 180.263 104.8 177.914 104.355C177.112 104.203 176.182 104.079 175.847 104.079C175.172 104.079 173.558 104.454 173.271 104.678C173.109 104.804 173.105 104.798 173.239 104.628C173.42 104.396 174.231 104.113 175.135 103.966C175.88 103.845 176.924 103.949 179.011 104.355L180.365 104.617L180.897 104.351C181.625 103.987 182.384 103.222 182.699 102.536C182.843 102.222 183.068 101.502 183.198 100.936C183.221 100.838 183.242 100.746 183.262 100.659L183.262 100.656C183.436 99.8925 183.518 99.5354 183.727 99.2849C183.911 99.0645 184.194 98.9267 184.726 98.6677L184.726 98.6674L184.727 98.6668L184.804 98.6295C184.85 98.607 184.898 98.5835 184.948 98.5591C185.652 98.2134 186.577 97.7677 187.004 97.5687C188.396 96.9192 188.932 96.0701 188.94 94.503C188.944 93.5599 188.804 93.2153 187.779 91.643C186.33 89.4205 185.965 88.2852 186.171 86.6488C186.461 84.3589 187.411 82.8555 189.428 81.4924C189.805 81.2375 190.782 80.6529 191.599 80.1931C193.674 79.0256 194.331 78.561 194.873 77.8761ZM22.2985 100.319C22.5335 99.4993 23.264 98.7761 24.0437 98.591C25.3795 98.274 26.1522 98.686 27.1642 100.255C27.804 101.247 28.7581 102.44 29.3224 102.953C29.8169 103.404 31.0097 104.012 32.0149 104.325C32.724 104.547 33.1186 104.593 34.3004 104.591C35.6528 104.589 35.7958 104.566 36.9859 104.157C37.6772 103.919 39.3485 103.191 40.6998 102.539C43.3971 101.238 44.6199 100.784 46.3743 100.428C49.0464 99.8876 51.9163 100.315 54.5842 101.651C57.2423 102.983 59.1153 105.073 59.998 107.694C60.2457 108.429 60.5984 110.189 60.8124 111.756C60.8998 112.397 61.0146 112.808 61.137 112.917C61.2411 113.011 62.1234 113.404 63.0976 113.791C64.7099 114.432 65.278 114.709 64.9774 114.705C64.5832 114.701 60.9977 113.273 60.8088 113.045C60.7428 112.966 60.6102 112.291 60.5143 111.547C60.1412 108.647 59.6447 107.097 58.5742 105.488C57.5073 103.884 55.6694 102.414 53.7742 101.648C51.7856 100.845 49.2813 100.448 47.4604 100.649C45.2168 100.896 43.8297 101.386 40.2238 103.206C36.491 105.091 34.5517 105.456 31.9999 104.755C29.5897 104.092 28.0638 102.87 26.807 100.593C26.1988 99.492 26.0504 99.3039 25.6071 99.0736C25.0081 98.7622 24.3475 98.8054 23.6192 99.2034C22.6434 99.7368 22.3153 101.192 22.9685 102.09C23.4102 102.698 24.0475 103.255 25.1159 103.967C26.6726 105.005 27.1011 105.561 27.1011 106.543C27.1011 107.643 26.5507 108.193 25.4478 108.193C24.7473 108.193 24.789 108.007 25.5051 107.938C26.4818 107.844 26.895 107.196 26.6559 106.132C26.5156 105.508 26.0073 104.991 24.5794 104.022C22.5044 102.614 21.9148 101.657 22.2985 100.319Z" fill="#95FAFF"/>
<path d="M134.862 114.454C134.748 114.592 133.143 115.392 132.773 115.392C132.568 115.392 131.219 115.108 129.775 114.761C124.772 113.558 123.901 113.459 122.312 113.905C120.373 114.45 119.098 115.289 116.748 117.566C115.742 118.541 114.518 119.607 114.029 119.934C112.633 120.867 111.711 121.08 107.965 121.335C105.352 121.512 104.33 121.824 103.502 122.694C103.024 123.197 103.242 123.286 103.753 122.796C104.61 121.976 105.305 121.794 108.874 121.456C111.707 121.188 112.301 121.083 113.127 120.705C114.111 120.254 115.02 119.541 116.884 117.757C119.244 115.499 120.21 114.863 122.127 114.308C123.504 113.909 124.348 113.931 126.52 114.425L127.045 114.544C131.609 115.582 132.586 115.804 133.411 115.544C133.635 115.474 133.849 115.368 134.12 115.233L134.122 115.231C134.159 115.213 134.196 115.195 134.235 115.176L135.249 114.673C135.065 114.583 135.033 114.592 134.862 114.454Z" fill="#95FAFF"/>
<path fill-rule="evenodd" clip-rule="evenodd" d="M22.5936 106.916C22.4646 107.323 21.3615 108.305 20.6287 108.666C20.0289 108.961 19.8097 109.012 19.3402 108.967C18.6336 108.899 17.3572 108.176 16.4846 107.349C15.9976 106.888 15.9207 106.842 16.1211 107.135C16.677 107.948 18.3547 109.041 19.2573 109.18C19.7123 109.25 20.7704 108.885 21.4313 108.43C21.9474 108.075 22.6447 107.289 22.6447 107.062C22.6447 106.992 22.6901 106.935 22.7456 106.935C23.0298 106.935 23.0698 108.445 22.8089 109.324C22.5997 110.028 22.4596 110.288 21.5216 111.715L20.8207 112.781L20.9952 113.201C21.6171 114.696 24.0036 116.88 26.2522 118.012C27.2654 118.522 28.8886 119.023 29.8502 119.124C30.4541 119.187 30.4959 119.174 30.7073 118.862C30.8881 118.595 30.9402 118.268 30.9867 117.11L31.0438 115.687L32.1363 116.732C33.346 117.889 33.8205 118.672 34.1505 120.057C34.4104 121.147 34.5117 121.376 34.5214 120.893C34.5291 120.512 34.5327 120.509 34.9577 120.588C35.5562 120.699 37.4022 121.399 38.3574 121.877C40.862 123.13 42.1927 124.504 42.7561 126.42C42.8778 126.833 42.9798 126.925 43.8237 127.377C45.1075 128.065 46.584 129.051 46.8655 129.409C47.053 129.648 47.0994 129.667 47.0994 129.505C47.0994 129.093 46.1976 128.439 43.6628 127.013C43.2368 126.773 43.1129 126.628 42.9927 126.226C42.4156 124.297 41.0979 122.945 38.5801 121.697C37.3439 121.084 36.3497 120.734 35.2547 120.527L34.5518 120.394L34.4096 119.864C34.3313 119.573 34.0978 118.961 33.8908 118.504C33.4874 117.615 32.6967 116.737 31.3833 115.72L30.701 115.192L30.7381 116.703C30.7779 118.324 30.6235 119.048 30.2382 119.048C29.8321 119.048 27.5662 118.32 26.6659 117.9C24.012 116.662 21.059 113.861 21.3182 112.829C21.3528 112.691 21.6741 112.17 22.0323 111.671C22.9689 110.365 23.232 109.728 23.2959 108.61C23.3325 107.969 23.298 107.535 23.1855 107.221C23.0065 106.721 22.7049 106.565 22.5936 106.916ZM16.0308 108.478C16.0165 109.245 16.297 110.386 16.6748 111.096C16.8605 111.445 17.5551 112.248 18.4144 113.106C19.6923 114.382 19.9173 114.669 20.5227 115.791C22.2101 118.921 23.5757 120.89 25.2676 122.633C26.7485 124.158 27.5016 124.748 28.7894 125.392L29.7868 125.89L28.6883 126.405C28.0841 126.689 27.2455 127.11 26.8247 127.341L26.0596 127.761L26.306 128.024C26.4415 128.168 26.8161 128.399 27.1383 128.538C27.6692 128.766 27.8583 128.785 29.1555 128.732C30.3193 128.686 30.7682 128.614 31.5581 128.351C32.0923 128.173 32.5741 128.025 32.6287 128.023C32.6833 128.021 32.865 128.405 33.0326 128.876C33.4949 130.177 33.8577 130.82 34.2976 131.119C34.517 131.268 34.7542 131.39 34.8246 131.39C34.9629 131.39 35.1006 130.149 35.1006 128.903C35.1006 128.196 35.1117 128.166 35.3577 128.22C35.4992 128.252 36.6433 128.512 37.9003 128.8C41.1026 129.532 42.6266 129.792 44.014 129.846C45.2131 129.892 45.2133 129.892 44.2945 129.793C43.2078 129.677 40.5433 129.096 37.2147 128.249C35.8948 127.914 34.4162 127.576 33.9289 127.499L33.043 127.359L32.365 127.72C30.8011 128.554 28.32 128.805 27.1299 128.251C26.8 128.098 26.53 127.94 26.53 127.901C26.53 127.862 27.4428 127.39 28.5584 126.851C30.2851 126.016 30.5442 125.859 30.301 125.79C30.1439 125.746 29.6811 125.542 29.2726 125.337C26.3029 123.846 23.8124 121.041 20.9694 115.986C20.1742 114.572 19.9493 114.276 18.6453 112.935C16.7917 111.027 16.5295 110.579 16.1942 108.743C16.0308 106.952 16.0414 107.91 16.0308 108.478ZM159.203 116.006C159.203 116.03 159.293 116.12 159.403 116.206C159.584 116.348 159.588 116.344 159.446 116.163C159.297 115.972 159.203 115.912 159.203 116.006ZM160.003 116.477C160.15 116.634 160.297 116.763 160.328 116.763C160.36 116.763 160.265 116.634 160.117 116.477C159.969 116.32 159.823 116.191 159.791 116.191C159.76 116.191 159.855 116.32 160.003 116.477ZM39.4712 125.579C39.1205 125.93 39.423 126.528 39.9147 126.456C40.176 126.418 40.4393 125.824 40.2685 125.658C40.094 125.489 39.6096 125.441 39.4712 125.579ZM32.9294 127.623C32.9294 127.677 33.0626 128.148 33.2254 128.67C33.5663 129.763 33.9044 130.393 34.4048 130.868L34.7578 131.204L34.7792 129.926C34.791 129.223 34.8038 128.506 34.8078 128.333C34.8143 128.044 34.7646 128.008 34.1864 127.877C33.8407 127.799 33.4164 127.688 33.2436 127.63C33.0708 127.572 32.9294 127.569 32.9294 127.623ZM44.9853 129.904C45.1275 129.932 46.6473 129.99 46.7566 129.962C46.8658 129.933 46.4366 129.903 46.1852 129.904C45.9338 129.906 44.8432 129.877 44.9853 129.904Z" fill="#61ADFF"/>
<path fill-rule="evenodd" clip-rule="evenodd" d="M181.826 80.9624C181.098 81.5095 180.327 82.3021 179.861 82.981C179.13 84.0479 178.596 85.3101 177.489 88.588C176.317 92.0575 175.777 93.2656 174.641 94.9536C172.758 97.7519 170.498 99.786 167.373 101.494C164.865 102.865 162.565 103.654 159.349 104.248C156.689 104.739 155.608 104.594 154.886 103.647C154.63 103.311 154.576 103.125 154.582 102.601C154.593 101.536 155.629 99.2155 157.052 97.0654C157.296 96.6964 157.43 96.4194 157.349 96.4497C157.269 96.4798 156.663 96.7028 156.003 96.945C153.401 97.9002 150.413 99.6578 148.362 101.44C147.774 101.952 147.199 102.42 147.085 102.481C146.874 102.594 146.179 102.674 142.633 102.994C134.836 103.698 129.254 105.332 128.503 107.13C128.28 107.663 128.313 108.053 128.64 108.755C129.521 110.648 131.823 112.844 134.148 114.009C134.862 114.42 135.189 114.65 135.77 114.875C138.32 115.862 140.016 116.351 142.29 116.758C144.525 117.157 145.583 117.211 147.95 117.05L150.118 116.903L151.146 117.497C153.034 118.587 154.835 119.186 157.39 119.572C158.749 119.778 159.352 119.729 160.448 119.323C161.19 119.048 162.06 118.464 162.06 118.24C162.06 117.943 160.083 116.176 159.684 116.118C159.599 116.105 159.293 115.911 159.004 115.686C158.716 115.461 158.421 115.277 158.349 115.277C158.278 115.277 158.048 115.101 157.839 114.885L157.46 114.494L157.96 114.367C162.55 113.206 166.108 110.95 171.994 105.467C174.79 102.863 178.118 98.8204 178.876 97.1075L179.028 96.7647L180.229 96.7639C181.986 96.7628 183.614 96.3308 184.886 95.5284C185.153 95.3598 185.371 95.1845 185.371 95.1386C185.372 95.0067 184.598 94.6525 183.566 94.3122C182.131 93.8391 181.335 93.1319 181 92.0336C180.917 91.7581 180.863 91.0004 180.87 90.1939C180.883 88.7909 181.105 87.1786 181.878 82.8812C182.093 81.6875 182.258 80.7002 182.245 80.6874C182.233 80.6746 182.044 80.7983 181.826 80.9624ZM178.015 88.6024C179.193 85.1213 179.663 84.1093 180.884 82.4242C181.31 81.837 181.669 81.3682 181.683 81.3822C181.697 81.3963 181.509 82.6133 181.265 84.0868C180.425 89.1569 180.305 90.6454 180.634 91.9085C181.033 93.44 181.55 93.917 183.486 94.5383C184.178 94.7602 184.814 94.9863 184.901 95.0405C185.014 95.1117 184.855 95.2357 184.329 95.4852C182.99 96.1208 182.414 96.2275 180.374 96.2184C179.354 96.2138 178.416 96.1771 178.289 96.1369C177.959 96.0321 178.003 96.2459 178.344 96.4011C178.501 96.4728 178.629 96.6013 178.629 96.6869C178.629 97.6044 174.27 103.073 171.633 105.465C165.872 110.689 163.163 112.469 158.86 113.859C158.2 114.072 157.559 114.247 157.435 114.248C157.31 114.248 156.889 113.931 156.495 113.541C155.352 112.408 155.53 112.867 156.705 114.084C157.736 115.15 159.639 116.679 160.89 117.445C161.483 117.807 161.785 118.16 161.667 118.35C161.634 118.404 161.208 118.646 160.719 118.889C159.636 119.428 158.669 119.517 157.082 119.225C152.415 118.366 150.064 117.012 147.695 113.82C147.357 113.364 147.054 112.992 147.021 112.992C146.989 112.992 147.131 113.31 147.338 113.698C147.563 114.119 148.112 114.809 148.697 115.405L149.679 116.406L148.938 116.485C147.826 116.604 143.875 116.46 142.576 116.252C135.602 115.139 130.947 112.596 129.189 108.938C128.443 107.387 128.734 106.63 130.396 105.8C132.834 104.583 137.471 103.68 144.233 103.105C145.396 103.006 146.532 102.877 146.757 102.817C146.983 102.757 147.524 102.412 147.959 102.05C149.344 100.9 149.751 100.59 150.804 99.8873C152.413 98.8128 153.56 98.1882 154.86 97.6801C155.52 97.422 156.227 97.1371 156.432 97.0469C156.636 96.9566 156.803 96.9023 156.803 96.9263C156.803 96.9503 156.603 97.2992 156.359 97.7015C155.127 99.7295 154.095 102.302 154.228 103.014C154.322 103.511 155.009 104.28 155.603 104.551C156.189 104.818 157.556 104.83 159.132 104.582C165.216 103.627 170.743 100.677 174.227 96.5247C175.771 94.684 176.403 93.3625 178.015 88.6024ZM159.403 116.206C159.293 116.12 159.203 116.03 159.203 116.006C159.203 115.912 159.297 115.972 159.446 116.163C159.588 116.344 159.584 116.348 159.403 116.206ZM160.328 116.763C160.297 116.763 160.15 116.634 160.003 116.477C159.855 116.32 159.76 116.191 159.791 116.191C159.823 116.191 159.969 116.32 160.117 116.477C160.265 116.634 160.36 116.763 160.328 116.763Z" fill="#61ADFF"/>
<path d="M138.217 109.034C137.605 109.561 137.944 110.721 138.732 110.799C139.012 110.827 139.174 110.755 139.449 110.48C139.765 110.163 139.798 110.071 139.74 109.645C139.627 108.8 138.851 108.489 138.217 109.034Z" fill="#61ADFF"/>
<path d="M91.3223 114.933C91.8542 115.605 92.4445 116.053 93.1441 116.314C93.9317 116.609 95.0158 116.711 95.6198 116.548C96.2273 116.383 96.8525 115.958 96.9065 115.673C96.9464 115.463 96.9353 115.461 96.7359 115.635C95.4439 116.763 93.2727 116.504 91.7216 115.037C91.0052 114.36 90.8323 114.315 91.3223 114.933Z" fill="#5DFF9E"/>
<path fill-rule="evenodd" clip-rule="evenodd" d="M92.1803 100.082C90.4649 99.9571 89.0998 99.7004 88.9615 99.4767C88.9126 99.3975 89.0182 99.3842 89.2771 99.4374C89.5785 99.4991 94.1784 100.079 94.3669 100.079C94.3899 100.079 94.4086 100.136 94.4086 100.206C94.4086 100.279 94.3013 100.306 94.1515 100.269C94.0101 100.235 93.123 100.15 92.1803 100.082ZM85.0952 102.222C84.305 102.272 83.4383 102.168 83.4383 102.023C83.4383 101.968 83.6044 101.971 83.8088 102.03C84.0127 102.088 84.5399 102.146 84.9802 102.157L85.7809 102.179L85.0952 102.222ZM122.384 136.19C122.353 136.19 122.234 136.087 122.12 135.961C122.007 135.835 121.939 135.733 121.971 135.733C122.002 135.733 122.121 135.835 122.234 135.961C122.348 136.087 122.416 136.19 122.384 136.19Z" fill="#5DFF9E"/>
<path fill-rule="evenodd" clip-rule="evenodd" d="M122.384 136.19C122.353 136.19 122.234 136.087 122.12 135.961C122.007 135.835 121.939 135.733 121.971 135.733C122.002 135.733 122.121 135.835 122.234 135.961C122.348 136.087 122.416 136.19 122.384 136.19ZM93.1441 116.314C92.4445 116.053 91.8542 115.605 91.3223 114.933C90.8323 114.315 91.0052 114.36 91.7216 115.037C93.2727 116.504 95.4439 116.763 96.7359 115.635C96.9353 115.461 96.9464 115.463 96.9065 115.673C96.8525 115.958 96.2273 116.383 95.6198 116.548C95.0158 116.711 93.9317 116.609 93.1441 116.314Z" fill="#5DFF9E"/>
<path fill-rule="evenodd" clip-rule="evenodd" d="M94.439 85.1066C94.2357 85.2305 93.8884 85.5838 93.6673 85.8916C93.2888 86.4183 93.2341 86.4519 92.7365 86.4618C92.103 86.4746 91.9171 86.3851 91.0791 85.6635C90.725 85.3585 90.3751 85.109 90.3017 85.109C90.2282 85.109 89.496 85.7548 88.6743 86.5442C87.8528 87.3335 87.0713 88.0499 86.9378 88.1362C86.7321 88.269 86.4687 88.2688 85.2095 88.1341C81.9709 87.7879 82.1849 87.7847 81.6329 88.1879C80.986 88.6603 80.5972 89.2964 80.1343 90.6393C79.925 91.2468 79.6699 91.7862 79.5675 91.8382C79.4653 91.8904 78.9701 91.9941 78.4673 92.0689C77.9645 92.1437 77.2911 92.2558 76.9708 92.3182L76.3884 92.4314L76.3149 94.045C76.2588 95.2784 76.1991 95.7055 76.0609 95.8581C75.9616 95.9679 75.4771 96.292 74.9843 96.5782C74.245 97.0079 74.0651 97.1695 73.9548 97.5036C73.8011 97.9694 73.8739 98.4395 74.2106 99.1534C74.4187 99.5949 74.4295 99.6996 74.2999 100.01C74.0072 100.712 73.7379 101.862 73.7315 102.437C73.7279 102.76 73.8545 103.472 74.0129 104.018L74.3007 105.012L74.0197 105.345C73.7011 105.724 73.5463 106.499 73.6639 107.126C73.7401 107.532 74.1409 108.011 74.7536 108.427C75.0049 108.598 75.009 108.626 74.8643 109.191L74.714 109.778L70.934 111.665C68.8551 112.702 66.717 113.818 66.1828 114.144C65.6486 114.47 64.9801 114.868 64.6972 115.027C63.6861 115.598 61.2395 117.234 59.9796 118.181C56.3339 120.922 54.0377 123.577 53.1997 126.019C52.8808 126.949 52.9081 129.711 53.249 130.99C53.5978 132.299 54.6283 134.296 55.3884 135.136C56.8355 136.735 59.4695 137.825 63.0689 138.314C63.8702 138.423 64.5396 138.522 64.5564 138.534C64.5732 138.546 64.2807 139.434 63.9061 140.507C63.3951 141.972 63.2592 142.486 63.3614 142.569C63.6075 142.769 65.4333 143.363 67.0506 143.768C68.6895 144.179 71.9108 144.76 73.8678 144.996C74.4805 145.071 74.9819 145.172 74.9819 145.221C74.9819 145.271 74.7213 146.486 74.4027 147.921C73.0809 153.876 72.2655 158.392 71.6719 163.044C71.2271 166.529 71.1005 168.513 71.0983 172.029L71.0966 174.9L71.6108 174.846L71.6244 170.916C71.6354 167.744 71.6856 166.546 71.8846 164.701C72.2077 161.707 72.7079 158.244 73.2136 155.502C73.6103 153.351 75.3349 145.475 75.4969 145.075C75.5431 144.96 75.5267 144.875 75.4587 144.875C74.9754 144.875 70.2013 143.984 68.7365 143.621C66.6568 143.105 64.3848 142.446 64.0263 142.254C63.7262 142.093 63.733 142.06 64.4968 139.904C66.7502 133.544 68.002 129.478 68.2968 127.562C68.4179 126.775 68.1737 127.36 67.8434 128.648C67.4988 129.992 66.6306 132.807 65.5966 135.933C65.0382 137.621 64.8671 138.018 64.6987 138.018C64.2464 138.018 60.912 137.408 59.7223 137.108C57.6143 136.575 56.5668 135.94 55.4232 134.501C53.1028 131.581 52.6215 127.146 54.3207 124.342C56.5078 120.733 61.1787 117.038 68.4335 113.176C70.7494 111.943 74.2507 110.274 76.6961 109.238C78.4886 108.478 79.3592 107.907 79.6817 107.278C79.9484 106.759 80.2429 105.036 80.3362 103.45L80.41 102.193L82.067 101.37C82.9783 100.917 84.2125 100.388 84.8095 100.194L85.8952 99.8402L86.0951 100.086C86.4036 100.466 86.3425 100.536 85.7009 100.536C85.3737 100.536 85.1555 100.579 85.2152 100.631C85.3564 100.755 86.5402 101.015 86.6162 100.939C86.7638 100.791 86.3696 99.9533 86.0001 99.6289L85.5935 99.2719L85.7823 98.7035C86.0023 98.0408 86.5082 97.4856 86.9536 97.418C87.5979 97.3203 93.5198 97.3427 95.6656 97.4509C98.7157 97.6049 100.88 97.7846 101.494 97.9349C102.259 98.1221 103.414 99.3126 103.979 100.496C104.365 101.303 104.407 101.484 104.406 102.307C104.403 103.405 104.155 103.969 103.41 104.563C101.782 105.863 100.107 106.176 94.7514 106.183C92.1488 106.186 91.5089 106.151 90.1989 105.933C86.8695 105.381 85.9712 105.036 85.3296 104.067C85.1598 103.81 85.0376 103.589 85.0581 103.575C85.0785 103.562 85.363 103.382 85.6903 103.177C86.3381 102.771 86.4669 102.543 86.35 102.011C86.2947 101.759 86.3289 101.602 86.4741 101.442C86.7926 101.09 86.589 101.067 86.1827 101.409L85.8129 101.72L84.7441 101.357C84.1562 101.157 83.5834 100.994 83.471 100.996C83.3587 100.997 83.718 101.151 84.2695 101.337C85.5176 101.76 86.1808 102.093 86.1808 102.298C86.1808 102.656 84.7709 103.569 83.8672 103.796C83.4973 103.889 83.4942 103.898 83.2734 105.634C82.9492 108.181 82.3408 109.769 80.4763 112.935C79.921 113.878 79.2266 115.06 78.933 115.563C77.9886 117.18 76.919 118.481 74.5248 120.921C72.0518 123.442 70.7863 124.624 68.7625 126.305C68.0815 126.871 67.3895 127.452 67.2249 127.597L66.9256 127.861L67.2113 127.722C67.614 127.527 68.1864 127.094 68.9825 126.382C70.3266 125.182 70.591 125.099 74.6962 124.599C76.4269 124.389 77.4222 124.268 77.9533 124.198C78.6788 124.102 78.5376 124.101 78.221 124.093C78.2041 124.092 78.1868 124.092 78.1691 124.091C77.088 124.061 71.5312 124.72 70.919 124.95C70.7967 124.996 71.798 123.957 73.1441 122.641C75.9888 119.86 77.4187 118.292 78.1636 117.138C78.4563 116.685 78.7362 116.312 78.7856 116.31C78.8349 116.308 78.8221 116.405 78.757 116.527C78.692 116.649 78.6387 116.796 78.6387 116.856C78.6387 116.915 79.0303 117.137 79.509 117.349C80.3597 117.726 80.3874 117.751 80.739 118.473C81.0945 119.202 81.1042 119.211 81.5543 119.2C81.8048 119.194 82.1999 119.151 82.4322 119.105C83.0368 118.984 83.3072 119.086 83.9525 119.675C84.3651 120.053 84.5874 120.179 84.7524 120.132C84.8781 120.096 85.3666 120.04 85.838 120.007C86.8708 119.935 87.3861 120.145 87.6948 120.763C87.9247 121.223 87.9555 122.135 87.7667 122.885C87.6303 123.427 87.1759 123.909 86.6863 124.032C86.5603 124.063 86.4533 124.122 86.42 124.173C86.4131 124.183 86.4094 124.194 86.4094 124.203C86.4094 124.234 86.3906 124.261 86.3609 124.28C86.3357 124.295 86.3026 124.305 86.2665 124.305C86.0606 124.305 86.2102 127.796 86.454 128.678C87.169 131.266 89.1992 133.328 91.9517 134.261C93.5514 134.804 96.2298 134.522 98.3511 133.589C101.2 132.335 102.663 130.229 103.08 126.781C103.139 126.289 103.206 125.869 103.227 125.847C103.378 125.696 110.063 127.598 111.291 128.141L111.893 128.406C111.948 128.436 112.008 128.469 112.072 128.506C113.301 129.212 116.132 131.212 117.042 132.083L118.153 133.014C118.764 133.525 119.7 134.338 120.235 134.818C120.769 135.299 121.797 136.182 122.52 136.781C123.243 137.379 124.317 138.332 124.908 138.899C125.903 139.853 125.975 139.952 125.898 140.259C125.732 140.923 124.097 144.145 123.358 145.265C122.749 146.189 122.11 146.904 120.128 148.874C118.769 150.225 116.915 152.017 116.009 152.856L114.361 154.381L113.586 153.542C112.863 152.76 112.786 152.624 112.458 151.56C111.295 147.795 109.681 143.077 109.488 142.882C109.43 142.824 109.359 142.799 109.331 142.827C109.303 142.855 109.69 144.086 110.191 145.562C112.414 152.112 113.612 157.312 114.863 165.844C115.181 168.008 115.889 173.801 115.891 174.254V174.496H116.292L116.096 172.684C115.396 166.217 114.006 157.591 113.08 153.975C112.985 153.607 112.929 153.285 112.954 153.26C112.979 153.235 113.308 153.568 113.684 154.001L114.369 154.789L115.137 154.117C115.56 153.748 115.934 153.445 115.969 153.445C116.004 153.445 116.336 153.726 116.707 154.069C117.928 155.2 119.687 155.973 121.56 156.202C122.901 156.366 125.379 156.165 126.687 155.786C129.93 154.846 132.778 152.366 134.443 149.033C136.671 144.572 138.771 139.164 141.149 131.763C141.918 129.37 141.866 129.462 143.521 127.631C144.041 127.056 144.549 126.415 144.649 126.205C144.816 125.854 144.815 125.792 144.635 125.412C144.527 125.186 144.111 124.615 143.709 124.144L142.978 123.287L143.603 122.292C144.412 121.002 144.625 120.452 144.472 120.048C144.364 119.765 144.33 119.752 144 119.867C143.606 120.004 142.708 121.006 141.201 122.991C140.12 124.415 139.617 124.932 139.204 125.042C138.137 125.327 137.982 125.503 137.539 126.933C137.373 127.468 137.162 127.75 136.126 128.819C134.534 130.462 133.084 132.064 131.784 133.619C130.19 135.523 127.555 138.749 126.977 139.504C126.385 140.276 126.227 140.438 126.32 140.178C126.366 140.049 125.673 139.29 123.972 137.607C122.645 136.293 121.655 135.334 121.772 135.475C122.033 135.792 121.835 135.82 121.551 135.507C121.439 135.383 121.294 135.313 121.23 135.353C121.166 135.393 121.146 135.373 121.185 135.309C121.225 135.245 121.092 135.043 120.889 134.861C120.135 134.181 118.557 132.9 117.949 132.473C117.603 132.231 117.3 132.017 117.275 131.998C116.35 131.166 114.037 129.257 112.185 128.283L111.667 128.022C110.712 127.539 107.854 126.624 105.779 126.136C102.486 125.362 102.755 125.467 102.262 124.761C101.689 123.941 101.357 122.84 101.402 121.906L101.437 121.187L101.959 121.055C102.254 120.98 102.998 120.573 103.673 120.117C105.391 118.955 105.484 118.917 106.878 118.814C107.552 118.764 108.205 118.669 108.329 118.603C108.472 118.526 108.607 118.261 108.696 117.88C108.774 117.548 108.935 116.96 109.053 116.572L109.268 115.866L110.527 115.447C112.044 114.942 112.465 114.635 112.461 114.039C112.46 113.809 112.407 113.399 112.345 113.129C112.236 112.656 112.25 112.612 112.733 111.929C113.293 111.139 113.608 110.564 113.604 110.341C113.603 110.259 113.192 109.887 112.691 109.514L111.781 108.837L112.05 108.486C112.198 108.293 112.673 107.893 113.106 107.598C114.245 106.82 114.359 106.412 113.897 104.771C113.678 103.991 113.786 103.545 114.342 102.929C114.675 102.56 114.749 102.389 114.749 101.99C114.749 101.349 114.531 101.061 113.756 100.681C113.404 100.509 112.964 100.225 112.776 100.05C112.469 99.7634 112.443 99.6842 112.51 99.2484C112.55 98.9823 112.69 98.4167 112.82 97.9914C113.053 97.2285 113.053 97.2122 112.839 96.7915C112.699 96.514 112.377 96.2054 111.92 95.9079C111.533 95.6565 111.19 95.3869 111.158 95.3089C111.127 95.2308 111.159 94.6079 111.231 93.9246C111.352 92.7616 111.346 92.6574 111.135 92.2955C110.803 91.7276 110.498 91.6183 109.354 91.6562L108.358 91.6891L108.137 91.1702C108.015 90.8847 107.781 90.137 107.616 89.5085C107.451 88.88 107.223 88.2372 107.109 88.0801C106.751 87.5876 104.385 87.0462 103.674 87.294C103.479 87.3621 103.239 87.387 103.141 87.3494C103.043 87.3118 102.86 87.336 102.734 87.4035C102.606 87.472 102.313 87.4934 102.068 87.452C101.708 87.3912 101.533 87.2555 101.076 86.6826C100.378 85.8063 99.6691 85.3374 99.0429 85.338C98.575 85.3384 97.8369 85.6883 97.8369 85.9098C97.8369 85.975 97.5051 85.8493 97.0997 85.6304C96.4801 85.2958 95.2611 84.8793 94.9064 84.8809C94.8526 84.8811 94.6423 84.9827 94.439 85.1066ZM104.746 102.079C104.743 101.271 104.699 101.078 104.363 100.422C104.068 99.8466 104.035 99.7263 104.215 99.8887C104.571 100.21 105.237 101.647 105.492 102.646C105.765 103.714 105.781 104.467 105.553 105.553C105.224 107.118 104.819 107.666 103.505 108.33C101.995 109.093 100.33 109.469 97.7797 109.624L96.637 109.693L96.3513 109.086C95.9973 108.334 95.2526 107.567 94.7864 107.474C93.9146 107.299 92.8312 108.06 92.4541 109.11C92.4391 109.152 92.4265 109.191 92.4147 109.226C92.3806 109.331 92.3544 109.411 92.3026 109.468C92.1299 109.66 91.673 109.594 89.6907 109.311C89.4867 109.282 89.2666 109.25 89.029 109.217C85.654 108.738 84.7613 108.406 83.9368 107.325C83.6405 106.936 83.6131 106.821 83.625 106.012C83.6471 104.519 83.7462 104.102 84.1254 103.906C84.5074 103.709 84.9238 103.682 84.9238 103.855C84.9238 104.136 85.9908 105.093 86.6112 105.368C88.1084 106.033 91.6778 106.593 94.4247 106.593C96.537 106.593 99.3463 106.402 100.465 106.182C102.25 105.832 104.21 104.526 104.594 103.431C104.679 103.19 104.747 102.582 104.746 102.079ZM92.6302 109.506C92.9035 108.852 93.2606 108.419 93.82 108.065C94.4368 107.673 94.4144 107.675 94.973 107.96C95.5414 108.25 95.803 108.687 96.3553 110.271C96.9436 111.958 96.9432 111.963 96.2656 111.965C95.873 111.966 95.7702 111.998 95.8942 112.078C95.9885 112.139 96.3559 112.189 96.7107 112.19L97.3558 112.192L97.0956 111.169C96.9524 110.607 96.8635 110.118 96.898 110.084C96.9325 110.049 97.2904 110.021 97.6934 110.021C98.9956 110.021 101.196 109.78 101.465 109.609C101.718 109.447 101.722 109.452 101.731 109.99C101.743 110.807 101.894 111.724 102.04 111.87C102.227 112.057 102.419 111.865 103.329 110.583C104.332 109.168 104.717 108.833 105.244 108.919C105.735 108.999 106.038 109.264 106.307 109.849C106.63 110.553 106.588 111.268 106.193 111.803C105.72 112.444 105.065 113.037 104.408 113.418L103.836 113.75L103.697 115.076C103.392 117.973 103.093 118.714 101.904 119.519C101.228 119.976 101.153 120.068 101.043 120.568C100.708 122.09 101.122 123.753 102.192 125.186C102.579 125.704 102.636 125.86 102.636 126.393C102.636 128.201 101.762 130.65 100.715 131.777C99.4935 133.091 95.7779 134.451 93.7679 134.321C92.1793 134.218 90.3606 133.472 89.2346 132.464C88.0308 131.385 87.0121 129.616 86.7082 128.076C86.6152 127.605 86.5032 126.569 86.4594 125.774L86.3798 124.33L86.7135 124.256C87.2342 124.142 87.7519 123.778 87.9563 123.383C88.0591 123.184 88.1711 122.652 88.2052 122.201C88.2936 121.034 88.06 120.334 87.249 119.334C86.1167 117.939 85.4978 116.314 85.2741 114.15C85.2133 113.561 85.1481 113.067 85.1293 113.052C85.1105 113.037 84.8638 112.938 84.581 112.831C83.372 112.376 82.6363 111.543 82.6402 110.632C82.6427 110.059 83.0743 109.29 83.4216 109.24C83.8528 109.179 84.8494 109.749 85.7232 110.558C86.6998 111.462 86.7363 111.445 86.9229 110.002C87.027 109.197 87.117 109.162 88.5517 109.379C89.2275 109.481 90.2947 109.618 90.9232 109.684C91.5517 109.75 92.1541 109.83 92.2617 109.861C92.404 109.903 92.5047 109.806 92.6302 109.506ZM141.714 122.762C142.246 122.071 142.987 121.184 143.361 120.791C143.734 120.398 144.083 120.077 144.136 120.077C144.27 120.077 144.256 120.275 144.101 120.57C144 120.764 141.219 125.026 141.079 125.203C141.061 125.225 140.748 125.209 140.383 125.166L139.718 125.089L140.233 124.554C140.516 124.26 141.182 123.454 141.714 122.762ZM141.436 125.103C141.531 125.023 141.85 124.631 142.143 124.232C142.437 123.832 142.715 123.505 142.761 123.505C143.015 123.505 142.943 124.021 142.575 124.829C142.351 125.32 142.147 125.743 142.123 125.767C142.098 125.792 141.894 125.745 141.67 125.664C141.23 125.505 141.158 125.333 141.436 125.103ZM142.404 125.883C142.404 125.811 142.566 125.401 142.764 124.971C142.961 124.542 143.158 124.191 143.199 124.191C143.241 124.191 143.423 124.345 143.604 124.534C143.93 124.874 143.931 124.878 143.739 125.28C143.633 125.502 143.547 125.73 143.547 125.787C143.547 125.844 143.496 126.023 143.434 126.186L143.321 126.483L142.863 126.249C142.61 126.12 142.404 125.955 142.404 125.883ZM143.658 126.644C143.539 126.501 143.551 126.343 143.72 125.784C143.942 125.05 144.082 124.987 144.335 125.507C144.479 125.804 144.47 125.881 144.233 126.327C143.947 126.866 143.875 126.906 143.658 126.644ZM137.944 126.45C138.187 125.673 138.325 125.522 138.969 125.329C139.13 125.281 139.339 125.258 139.433 125.278C139.527 125.298 139.849 125.348 140.147 125.388C140.446 125.429 140.69 125.502 140.69 125.551C140.69 125.723 140.284 125.989 139.434 126.374C138.963 126.587 138.353 126.933 138.079 127.142C137.804 127.351 137.607 127.454 137.642 127.371C137.676 127.287 137.812 126.873 137.944 126.45ZM137.682 127.65C137.97 127.413 138.829 126.905 139.591 126.522C140.352 126.138 141.053 125.819 141.147 125.814C141.439 125.796 143.488 126.866 143.522 127.055C143.54 127.153 143.141 127.676 142.635 128.218C142.128 128.759 141.635 129.392 141.538 129.623C141.441 129.855 141.085 130.978 140.748 132.118C139.911 134.949 139.148 137.132 137.889 140.307C136.017 145.028 133.866 149.576 132.899 150.86C131.558 152.641 129.91 154.031 128.062 154.94C126.417 155.749 125.883 155.866 123.538 155.929C121.745 155.978 121.425 155.957 120.567 155.738C119.25 155.402 117.611 154.574 116.838 153.855L116.211 153.272L119.283 150.187C123.34 146.114 124.195 145.03 125.679 142.078C126.579 140.288 126.616 140.239 131.361 134.539C133.338 132.163 136.85 128.336 137.682 127.65ZM122.384 136.19C122.353 136.19 122.234 136.087 122.12 135.961C122.007 135.835 121.939 135.733 121.971 135.733C122.002 135.733 122.121 135.835 122.234 135.961C122.348 136.087 122.416 136.19 122.384 136.19Z" fill="#5DFF9E"/>
<path fill-rule="evenodd" clip-rule="evenodd" d="M122.384 136.19C122.353 136.19 122.234 136.087 122.12 135.961C122.007 135.835 121.939 135.733 121.971 135.733C122.002 135.733 122.121 135.835 122.234 135.961C122.348 136.087 122.416 136.19 122.384 136.19Z" fill="#5DFF9E"/>
<path fill-rule="evenodd" clip-rule="evenodd" d="M93.1441 116.314C92.4445 116.053 91.8542 115.605 91.3223 114.933C90.8323 114.315 91.0052 114.36 91.7216 115.037C93.2727 116.504 95.4439 116.763 96.7359 115.635C96.9353 115.461 96.9464 115.463 96.9065 115.673C96.8525 115.958 96.2273 116.383 95.6198 116.548C95.0158 116.711 93.9317 116.609 93.1441 116.314Z" fill="#5DFF9E"/>
<path d="M86.3609 124.28C86.3906 124.261 86.4094 124.234 86.4094 124.203C86.4094 124.194 86.4131 124.183 86.42 124.173C86.3722 124.145 86.3079 124.116 86.2317 124.091C85.4634 123.926 82.5 123.5 78.6387 124.032C78.4728 124.052 78.3324 124.073 78.221 124.093C78.5376 124.101 78.6788 124.102 77.9533 124.198C78.0187 124.212 78.1831 124.216 78.4616 124.203C80.7552 123.809 84.5942 123.867 86.0904 124.203C86.2059 124.243 86.295 124.267 86.3609 124.28Z" fill="#5DFF9E"/>
<path d="M53.1034 64.885C49.7515 65.4962 48.1611 66.0703 44.014 68.1661C42.2227 69.0714 40.2866 70.0096 39.7114 70.2512C37.8982 71.0125 35.5623 71.4758 33.2431 71.5341C32.5672 71.5512 32.0282 71.6067 32.0452 71.6578C32.1291 71.9095 33.7675 73.1638 34.472 73.5156C36.0526 74.3047 39.3752 75.0284 42.5735 75.2801C48.9993 75.7855 60.0366 74.4925 68.5259 72.2397C70.3779 71.7482 74.7538 70.3522 74.7538 70.2529C74.7538 70.1777 67.3814 67.3104 65.0976 66.4973C61.815 65.3285 59.0855 64.7758 56.2414 64.7041C54.6998 64.6652 54.1274 64.6982 53.1034 64.885Z" fill="#61ADFF"/>
<path fill-rule="evenodd" clip-rule="evenodd" d="M44.1734 55.6083C43.7442 55.8783 43.338 56.5065 43.2527 57.0325C43.1783 57.4908 43.4155 58.0127 43.8557 58.359C44.5465 58.9023 46.0202 58.4942 46.4551 57.6389C46.6559 57.2443 46.6656 57.1354 46.542 56.6676C46.3343 55.8814 45.8845 55.4855 45.136 55.4301C44.674 55.3959 44.4431 55.4387 44.1734 55.6083ZM43.8997 56.2727C43.8997 56.1044 44.2005 55.807 44.4711 55.7075C45.1421 55.4607 46.1852 56.0459 46.1852 56.6692C46.1852 56.9231 45.5736 57.1368 45.2382 57C45.0991 56.9434 44.831 56.7915 44.6425 56.6625C44.4539 56.5334 44.2096 56.4275 44.0997 56.4272C43.9898 56.4267 43.8997 56.3572 43.8997 56.2727ZM44.0652 58.09C43.5969 57.7831 43.4988 57.3259 43.7371 56.5617C43.7719 56.4501 43.9339 56.4929 44.3641 56.727C45.0766 57.1149 45.2259 57.3548 45.0375 57.8094C44.8641 58.2284 44.4561 58.3461 44.0652 58.09Z" fill="#61ADFF"/>
<path d="M148.452 87.3237C148.24 87.3237 147.932 87.2677 147.416 87.1728C146.983 87.094 146.365 86.9705 146.046 86.8848C144.808 86.5512 142.934 85.3878 141.868 84.2908C139.932 82.2979 138.731 78.9279 138.735 75.4951C138.737 73.3159 139.084 71.4006 140.353 66.5805C141.153 63.5408 141.372 62.4209 141.371 61.3696C141.371 57.9711 139.097 54.6594 134.798 51.7923C132.855 50.4975 129.871 49.3068 127.54 48.8977C126.124 48.6497 123.264 48.5686 121.655 48.7308C118.069 49.0942 115.437 49.9799 112.857 51.6894C111.567 52.5442 111.138 52.9453 107.76 56.4604C103.722 60.6634 98.1168 64.0368 93.6109 65.0115C94.0989 65.1944 94.748 65.4229 95.6107 65.7052C98.1168 66.5268 98.2802 66.664 98.359 66.7291C98.6379 66.9599 98.7373 67.3862 98.7373 67.6821C98.7373 69.506 97.0849 70.9835 93.8258 72.0749C92.3779 72.5594 89.6147 73.0668 87.9109 73.1616C85.67 73.2862 81.2921 72.6634 77.5016 71.6806L75.4413 71.1469L73.23 71.9366C68.3517 73.6781 66.2581 74.2141 60.7867 75.126C53.9542 76.263 48.5067 76.6813 44.1312 76.4047C38.9865 76.079 35.2509 75.1774 33.0271 73.725C31.9461 73.0188 30.6273 71.6349 30.2068 70.7653C29.2252 68.7357 29.2675 66.3885 30.3314 63.7877C31.3564 61.2828 33.3436 58.5287 36.2382 55.6033C42.481 49.2931 52.0458 43.2811 61.8254 39.5203C62.1317 39.3992 63.2093 38.8998 63.9395 38.557C64.0846 38.4096 64.3178 38.221 64.6914 37.9182C65.2148 37.4931 66.049 36.8314 67.4786 35.7047C70.0406 33.6843 72.8072 31.9393 76.4492 30.0458C79.6374 28.3877 81.8761 27.5192 85.3192 26.6038C86.6322 26.2542 87.0287 26.149 87.4138 26.3833C87.7109 26.5639 87.7783 26.8667 87.8046 26.981L88.0332 28.0094C88.256 29.0116 88.416 29.3087 88.8137 29.7498C89.3359 30.3269 89.9484 30.6515 92.0214 30.9337C92.4705 30.9943 95.213 31.0857 100.171 31.1417L107.515 31.224L108.805 31.6045C111.378 32.3633 113.935 33.474 116.848 35.1002C118.901 36.2475 119.275 36.412 121.281 37.0657C127.706 39.1581 134.143 42.5749 139.404 46.6876C141.628 48.4257 144.604 51.0872 145.577 52.2014C145.589 52.1671 145.599 52.1316 145.61 52.0974C146.44 49.5113 148.212 46.7962 150.474 44.6467C153.73 41.5498 157.301 39.798 162.053 38.9649C163.482 38.7147 167.153 38.6895 169.197 38.9146C171.113 39.1261 174.035 39.8003 174.93 40.3522C175.146 40.4859 175.265 40.7236 175.238 40.9739C175.193 41.423 174.944 41.6241 172.757 42.424C171.218 42.9874 169.607 43.737 168.839 44.2467C167.953 44.8341 166.582 46.2682 165.844 47.3778C165.526 47.8555 164.571 49.6393 163.757 51.2734C162.909 52.9773 161.874 54.8788 161.451 55.513C158.99 59.2018 155.927 61.0668 151.521 61.5604L151.448 61.5684C151.96 62.3615 152.562 63.6757 152.865 64.6036C153.263 65.8183 153.508 67.657 153.421 68.7895C153.242 71.1241 152.478 73.045 150.697 75.6379C150.065 76.559 149.466 77.5189 149.304 77.8389C148.528 79.3644 148.102 80.9517 148.102 82.307C148.102 83.1058 148.466 84.821 148.852 85.8369C149.103 86.4974 149.227 86.8288 148.913 87.1408L148.899 87.1545C148.77 87.2745 148.655 87.3259 148.45 87.3259L148.452 87.3237ZM123.69 47.3915C125.168 47.3915 126.783 47.4887 127.757 47.6589C130.242 48.0943 133.424 49.3639 135.496 50.7455C140.161 53.8572 142.628 57.53 142.629 61.3685C142.629 62.5615 142.412 63.6997 141.569 66.8994C140.332 71.596 139.994 73.4439 139.992 75.4951C139.988 78.6125 141.053 81.6465 142.77 83.4143C143.671 84.3422 145.354 85.397 146.373 85.6712C146.626 85.7398 147.111 85.8381 147.552 85.9192C147.165 84.7582 146.847 83.1618 146.847 82.3047C146.847 80.7551 147.322 78.9656 148.186 77.2675C148.395 76.855 149.044 75.8265 149.664 74.9249C151.329 72.5011 152.009 70.811 152.171 68.6923C152.246 67.7164 152.022 66.0571 151.674 64.9944C151.29 63.8208 150.529 62.3375 150.175 61.9455L148.946 60.5834L151.384 60.3103C155.389 59.8612 158.172 58.1665 160.409 54.8148C160.801 54.2274 161.82 52.3488 162.635 50.7124C163.496 48.9822 164.446 47.211 164.801 46.6807C165.629 45.4352 167.131 43.873 168.148 43.1977C169.001 42.6309 170.682 41.8446 172.329 41.2424C172.612 41.1384 172.853 41.047 173.059 40.9682C171.959 40.6482 170.373 40.3065 169.063 40.1614C167.143 39.9488 163.59 39.9694 162.274 40.2002C157.72 40.9979 154.451 42.5989 151.344 45.554C149.23 47.5629 147.578 50.0873 146.811 52.4768C146.671 52.9156 146.522 53.3692 146.48 53.4881C146.393 53.7326 146.193 53.9063 145.946 53.9498C145.473 54.0332 145.168 53.6652 144.705 53.1087C143.917 52.1579 140.795 49.3651 138.633 47.6749C133.501 43.6639 127.226 40.3282 120.958 38.2793C120.518 38.2256 119.4 37.9719 118.487 37.7559C118.307 37.7193 117.866 37.6142 116.61 37.2999C111.878 36.1149 106.473 35.3081 101.39 35.0282C98.5464 34.8716 90.8283 34.8705 88.4857 35.0259C82.716 35.4087 76.6171 36.4315 70.8474 37.9822C67.2695 38.9444 64.7886 39.7294 62.2825 40.6928C52.6606 44.393 43.2592 50.2975 37.1353 56.4878C31.6695 62.0107 29.6663 66.7577 31.3393 70.2167C31.4512 70.4487 31.6684 70.7481 31.9392 71.0635C32.1723 70.9927 32.5609 70.9527 33.2705 70.9344C35.5023 70.8784 37.7775 70.4282 39.511 69.7002C40.0676 69.466 42.0205 68.5198 43.7735 67.6341C47.9742 65.5109 49.6198 64.9178 53.0331 64.2962C54.1028 64.1008 54.713 64.0653 56.3003 64.1053C59.2131 64.1785 62.0048 64.743 65.352 65.9349C66.6227 66.3874 69.2179 67.3816 71.0531 68.0958C72.1479 68.5209 73.1386 68.9117 73.8437 69.1951C74.2219 69.3471 74.5168 69.4682 74.7202 69.554C74.9476 69.6499 75.1476 69.7345 75.2756 69.8728L75.383 69.8351L77.8182 70.4659C81.4395 71.4041 85.7488 72.0246 87.8423 71.908C89.4559 71.8189 92.0659 71.3401 93.4281 70.8841C95.2747 70.2659 97.4768 69.21 97.4814 67.6878C97.1374 67.553 96.3215 67.2627 95.2199 66.9016C94.0634 66.5222 93.1058 66.1783 92.451 65.9097C91.5997 65.5589 91.082 65.3086 91.082 64.7796C91.082 64.391 91.3917 64.0733 91.7779 64.0562C91.8694 64.0459 92.2739 63.9831 92.8167 63.8882C97.1706 63.1329 102.813 59.7983 106.856 55.5907C110.322 51.9842 110.769 51.5683 112.165 50.6426C114.927 48.812 117.727 47.8669 121.53 47.4807C122.128 47.4201 122.889 47.3915 123.691 47.3915H123.69ZM33.587 72.1823C34.019 72.5057 34.4955 72.8313 34.7972 72.9822C36.3102 73.7375 39.5465 74.4369 42.6673 74.6826C48.981 75.1797 60.0473 73.8804 68.4088 71.6612C69.6155 71.3412 71.6885 70.6978 73.0769 70.2407C70.852 69.354 66.6318 67.7233 64.9303 67.1176C61.7146 65.9726 59.0429 65.4309 56.2694 65.3601C54.7713 65.3224 54.2376 65.3532 53.2606 65.5315C49.9557 66.1337 48.4553 66.6765 44.3414 68.7552C42.5359 69.6671 40.5875 70.611 39.999 70.859C38.2003 71.6143 35.8782 72.092 33.587 72.1811V72.1823ZM91.8545 65.3098C91.8442 65.3098 91.8362 65.3109 91.8305 65.3109C91.8385 65.3109 91.8465 65.3109 91.8545 65.3098ZM91.8054 64.0551C91.8054 64.0551 91.7939 64.0551 91.7871 64.0551C91.7951 64.0551 91.802 64.0551 91.8099 64.0551H91.8054ZM86.6482 27.5626C86.3785 27.622 85.9842 27.7272 85.6437 27.8174C82.3 28.7065 80.1265 29.5498 77.0297 31.16C73.4609 33.0158 70.7549 34.7219 68.258 36.6909C67.7814 37.0668 67.2935 37.4519 66.8398 37.8108C67.9506 37.4748 69.1573 37.1343 70.5206 36.7674C76.3692 35.195 82.5526 34.1597 88.4023 33.7711C90.7746 33.6135 98.5841 33.6146 101.458 33.7723C106.063 34.0248 110.93 34.7048 115.34 35.7035C112.879 34.3871 110.669 33.4592 108.452 32.8067L107.328 32.4753L100.159 32.3953C96.7935 32.3576 92.5996 32.2776 91.8534 32.1759C89.6627 31.8776 88.6982 31.4925 87.8812 30.5886C87.2972 29.9418 87.0664 29.4459 86.8059 28.2791L86.6459 27.5615L86.6482 27.5626Z" fill="#61ADFF"/>
<path d="M31.393 34.3782C31.2323 34.2104 31.1008 34.0375 31.1008 33.9938C31.1008 33.9501 31.169 33.9144 31.2523 33.9144C31.4581 33.9144 31.8587 34.3577 32.0073 34.7503C32.1677 35.1734 32.1749 39.8982 32.015 39.7995C31.9469 39.7573 31.8998 39.0053 31.8984 37.9358C31.8955 35.6151 31.7766 34.7786 31.393 34.3782Z" fill="#F4FFD5"/>
<path d="M30.2437 38.5241C30.6029 37.1452 30.3797 36.4532 29.2281 35.3738C28.7386 34.9149 28.592 34.7184 28.7381 34.7167C28.8528 34.7153 29.2413 34.9955 29.6016 35.3391C30.2827 35.9887 30.758 36.7705 30.758 37.2412C30.758 37.6049 30.3362 39.0671 30.1888 39.2145C30.0357 39.3677 30.0408 39.3031 30.2437 38.5241Z" fill="#F4FFD5"/>
<path fill-rule="evenodd" clip-rule="evenodd" d="M28.4725 26.2742C26.9807 26.5207 25.4446 27.6312 24.8943 28.8609C24.6341 29.4424 23.7872 32.9978 23.7872 33.5086C23.7872 34.0238 24.5025 34.7143 25.0361 34.7143C25.1927 34.7143 25.319 34.8207 25.3928 35.0149C25.6003 35.5608 25.973 35.9769 27.0289 36.8418C27.6029 37.3121 28.1607 37.8337 28.2685 38.0012L28.2689 38.0018C28.3151 38.0735 28.3515 38.1301 28.3756 38.1914C28.4653 38.4202 28.3837 38.7163 27.9975 40.1162L27.9968 40.1188C27.6775 41.2762 27.6643 41.4029 27.7842 42.1754C27.966 43.3471 28.0941 43.3453 28.038 42.1716C27.9994 41.3644 28.0462 40.9496 28.2802 40.028C28.7018 38.367 28.712 38.3004 28.5921 37.9853C28.5321 37.8273 27.994 37.3088 27.3965 36.8332C26.4897 36.1112 25.6156 35.1593 25.6156 34.8937C25.6156 34.8578 25.9113 34.8286 26.2727 34.8286C27.3703 34.8286 29.9522 34.2565 31.8998 33.582C32.4336 33.3971 32.8809 33.2566 32.8939 33.2696C32.9069 33.2825 33.0711 34.148 33.2589 35.193C33.8285 38.3631 33.8343 38.3745 35.4604 39.5725C36.0992 40.0431 36.6907 40.5266 36.7749 40.6468C36.8591 40.7671 37.0554 41.3416 37.2112 41.9236C37.3669 42.5057 37.5507 43.0372 37.6196 43.1049C37.7101 43.1936 37.7285 43.1482 37.6861 42.942C37.3407 41.2651 37.2303 40.7983 37.1376 40.6226C37.0781 40.5097 36.5528 40.0638 35.9704 39.6319C34.1558 38.2857 34.0727 38.1326 33.5549 35.1785C33.3958 34.271 33.2423 33.4225 33.2139 33.2929C33.1713 33.0999 33.2798 33.0016 33.8135 32.7491C34.1718 32.5795 34.4766 32.4526 34.4908 32.4667C34.505 32.4809 34.6006 32.9025 34.7033 33.4034C34.9257 34.4886 35.2347 35.0865 35.8141 35.5521C36.3998 36.0229 36.4527 35.8838 35.9194 35.2748C35.3237 34.5946 35.2381 34.4095 34.9848 33.2543L34.7662 32.2574L35.2086 31.8516C35.5592 31.5299 35.6679 31.3328 35.7326 30.9015C35.876 29.9451 35.3339 29.1366 34.5124 29.0813C34.2007 29.0604 34.1215 28.977 33.8315 28.3639C33.2729 27.183 32.4617 26.5564 31.1238 26.2722C30.4259 26.124 29.3767 26.1248 28.4725 26.2742ZM26.1931 30.1719C25.9413 29.2657 26.0667 28.8951 26.9248 28.0091C27.2711 27.6515 27.5889 27.3933 27.6309 27.4352C27.6728 27.4772 27.4716 27.7633 27.1837 28.0712C26.5609 28.7368 26.347 29.3636 26.5243 30.0023C26.6786 30.5578 26.6753 30.6004 26.4781 30.6004C26.3835 30.6004 26.2607 30.4158 26.1931 30.1719ZM25.1495 33.343C25.0928 33.343 25.1873 33.1392 25.3597 32.8902C25.6635 32.4508 25.8442 32.3182 25.8442 32.5343C25.8442 32.6809 25.2754 33.343 25.1495 33.343Z" fill="#F4FFD5"/>
<path fill-rule="evenodd" clip-rule="evenodd" d="M172.687 55.4396C171.828 55.6269 170.954 56.1287 170.337 56.7886C170.053 57.092 169.769 57.3403 169.707 57.3403C169.473 57.3403 168.617 57.834 168.256 58.178C167.75 58.6583 167.5 59.4934 167.671 60.129C167.808 60.6356 168.085 61.0878 168.592 61.6318L168.917 61.9806L168.466 62.3174C167.915 62.7286 167.544 63.3541 167.544 63.8727C167.544 64.0859 167.719 64.6237 167.931 65.0679C168.594 66.4506 168.57 66.797 167.732 67.9516C167.181 68.7105 167.042 68.9969 167.226 68.9941C167.43 68.991 168.551 67.3159 168.692 66.8026C168.814 66.3599 168.706 65.9481 168.111 64.5845C167.925 64.1591 167.876 63.8915 167.931 63.5975C168.011 63.1723 168.826 62.1398 169.082 62.1398C169.163 62.1398 169.466 62.2445 169.755 62.3725L170.281 62.605L170.215 63.8295C170.161 64.8229 170.194 65.2674 170.389 66.1862C170.76 67.9292 170.725 68.3633 170.119 69.5436C169.643 70.4717 169.603 70.6183 169.533 71.7103C169.469 72.7017 169.484 72.8816 169.627 72.8816C169.761 72.8816 169.81 72.633 169.864 71.6773C169.932 70.4738 169.966 70.3589 170.565 69.3139C170.997 68.5605 171.046 67.8153 170.755 66.4355C170.595 65.6818 170.516 64.8845 170.516 64.0509C170.516 62.9131 170.534 62.804 170.716 62.8553C170.826 62.8865 171.455 63.0557 172.115 63.2314C172.775 63.4071 173.38 63.5997 173.458 63.6593C173.537 63.7189 173.601 63.9464 173.601 64.1648C173.601 64.4979 173.483 64.6844 172.866 65.3234C172.012 66.2075 171.887 66.4759 171.887 67.4192C171.887 68.2387 172.064 68.8978 172.373 69.2293C172.699 69.5793 172.746 69.4209 172.482 68.8594C172.164 68.1811 172.071 67.3722 172.233 66.6969C172.346 66.2269 172.478 66.0382 173.039 65.551C173.754 64.9285 173.873 64.7136 173.849 64.0817L173.833 63.6808L174.689 63.7901C175.159 63.8501 175.544 63.9454 175.544 64.0018C175.544 64.2353 175.156 65.4289 174.942 65.8537C174.815 66.1052 174.489 66.5588 174.217 66.862C173.542 67.6139 173.502 67.9355 173.884 69.4837C174.272 71.0543 174.256 72.0282 173.833 72.4776C173.553 72.7763 173.559 72.9343 173.848 72.8236C174.467 72.5861 174.572 71.1517 174.109 69.2656C173.948 68.6111 173.848 67.9749 173.887 67.852C173.926 67.729 174.188 67.3461 174.469 67.0011C175.096 66.2311 175.541 65.3032 175.543 64.7614C175.544 64.121 175.713 64.0028 176.73 63.932L177.631 63.8693L177.552 64.8438C177.471 65.8366 177.077 67.3951 176.679 68.2966C176.415 68.8939 176.398 69.0743 176.622 68.8882C176.867 68.6848 177.483 67.1317 177.66 66.2686C177.746 65.8519 177.832 65.1156 177.851 64.6324L177.886 63.754L178.401 63.6259C179.476 63.358 180.271 62.5424 179.99 61.9959C179.917 61.855 179.763 61.636 179.648 61.5091C179.496 61.3413 179.419 61.0144 179.367 60.3093C179.211 58.2147 178.386 56.6612 177.039 55.9281C175.958 55.34 174.1 55.1314 172.687 55.4396ZM171.515 58.013C172.064 57.5165 172.23 57.4194 172.779 57.2716C173.402 57.104 174.172 57.0685 174.172 57.2077C174.172 57.2605 173.813 57.3678 173.375 57.4462C172.802 57.5486 172.383 57.7142 171.889 58.0334C171.165 58.5015 170.986 58.4918 171.515 58.013ZM168.736 59.5989C168.704 59.566 168.895 59.3786 169.162 59.1824C169.709 58.7798 169.73 58.7708 169.653 58.9687C169.582 59.1512 168.816 59.6782 168.736 59.5989Z" fill="#F4FFD5"/>
<g opacity="0.48">
<path d="M142.57 41.2173C142.263 40.6228 142.403 40.1029 142.95 39.806C143.444 39.5381 143.763 39.5924 144.187 40.0164C144.679 40.5084 144.703 40.9509 144.261 41.3649C144.088 41.5267 143.827 41.6953 143.681 41.7394C143.309 41.8522 142.767 41.5975 142.57 41.2173Z" fill="#FEF8EE"/>
<path fill-rule="evenodd" clip-rule="evenodd" d="M137.556 89.507C136.623 89.8394 136.131 90.7196 136.346 91.6717C136.54 92.5314 137.235 93.1078 138.078 93.1081C138.767 93.1084 139.918 92.6933 140.322 92.2987C141.321 91.3219 140.928 89.8331 139.572 89.4566C138.986 89.2937 138.092 89.3161 137.556 89.507ZM136.877 92.0391C136.454 91.1463 136.738 90.198 137.538 89.8369C137.769 89.7322 138.213 89.6879 138.831 89.7074C139.718 89.7355 139.792 89.7579 140.136 90.1013C140.439 90.405 140.5 90.5525 140.5 90.9913C140.5 91.6706 140.225 92.0475 139.435 92.4512C138.35 93.0062 137.252 92.8293 136.877 92.0391Z" fill="#FEF8EE"/>
<path fill-rule="evenodd" clip-rule="evenodd" d="M121.201 79.2133C120.789 79.3927 120.264 79.9836 120.164 80.3797C120.001 81.0286 120.409 81.8827 121.112 82.364C122.126 83.0593 124.004 82.0151 124.006 80.755C124.007 79.5845 122.389 78.6956 121.201 79.2133ZM121.154 82.0672C120.242 81.3001 120.236 80.2647 121.139 79.6559C121.594 79.3493 122.364 79.3084 122.859 79.5645C123.982 80.145 123.899 81.5536 122.709 82.1299C122.045 82.4511 121.588 82.4326 121.154 82.0672Z" fill="#FEF8EE"/>
<path fill-rule="evenodd" clip-rule="evenodd" d="M129.266 64.8525C128.079 65.2712 127.046 66.8382 127.311 67.8171C127.544 68.6817 128.576 69.5694 129.344 69.5666C129.519 69.566 129.923 69.4445 130.24 69.2965C131.652 68.6391 132.551 66.5628 131.892 65.4814C131.407 64.6868 130.411 64.4481 129.266 64.8525ZM127.669 67.8138C127.391 66.9728 128.038 65.8004 129.06 65.2908C129.787 64.9287 130.887 64.8832 131.278 65.1993C131.879 65.6867 131.942 66.5339 131.452 67.568C130.86 68.8163 129.725 69.5354 128.894 69.1881C128.421 68.9907 127.843 68.3418 127.669 67.8138Z" fill="#FEF8EE"/>
<path fill-rule="evenodd" clip-rule="evenodd" d="M142.347 25.273C141.305 25.7656 140.696 26.7174 140.694 27.8575C140.691 28.9796 141.507 30.2284 142.411 30.4878C144.406 31.06 146.341 29.0629 145.835 26.9535C145.44 25.3083 143.871 24.5524 142.347 25.273ZM141.034 27.8825C141.032 26.46 141.69 25.6163 143.013 25.3451C143.997 25.1435 144.804 25.4681 145.237 26.24C145.963 27.5315 145.462 29.4016 144.22 30.0352C143.565 30.3694 142.667 30.3678 142.123 30.0315C141.891 29.8884 141.561 29.5169 141.372 29.188C141.098 28.7093 141.035 28.4672 141.034 27.8825Z" fill="#FEF8EE"/>
<path fill-rule="evenodd" clip-rule="evenodd" d="M182.572 40.5212C182.01 40.7851 181.176 41.6721 181.08 42.1066C181.042 42.2831 180.988 42.4974 180.961 42.5826C180.788 43.1345 181.564 44.4016 182.307 44.7809C183.299 45.2872 184.787 44.8278 185.517 43.7899C186.202 42.8151 186.003 41.4054 185.081 40.7023C184.715 40.4229 184.527 40.3682 183.839 40.3399C183.231 40.3148 182.915 40.3601 182.572 40.5212ZM181.372 42.7804C181.372 41.795 181.971 41.0399 183.026 40.6953C183.621 40.5012 184.403 40.572 184.785 40.8542C185.521 41.3992 185.747 42.1231 185.481 43.0811C185.105 44.4339 183.267 45.1699 182.234 44.3816C181.628 43.9197 181.373 43.4452 181.372 42.7804Z" fill="#FEF8EE"/>
<path fill-rule="evenodd" clip-rule="evenodd" d="M8.18872 54.2398C6.66819 54.933 6.07967 56.5191 6.92942 57.6333C7.31864 58.1435 8.12016 58.6654 8.8458 58.8809C9.31467 59.0202 9.46391 59.0199 9.94124 58.8781C11.0252 58.5562 11.8914 57.6485 12.0753 56.6416C12.2283 55.8044 11.4285 54.5892 10.4576 54.1835C9.91941 53.9587 8.74136 53.9879 8.18872 54.2398ZM7.15557 55.4526C7.47074 54.9147 7.85219 54.6264 8.52915 54.4143C9.74743 54.0325 10.9681 54.4808 11.4611 55.491C12.3277 57.2667 10.2268 59.3658 8.46595 58.4834C7.01478 57.7562 6.50134 56.5688 7.15557 55.4526Z" fill="#FEF8EE"/>
<path fill-rule="evenodd" clip-rule="evenodd" d="M11.2124 50.4885C10.6884 51.0125 10.6193 51.7849 11.0506 52.2974C11.4281 52.746 11.6973 52.8224 12.1235 52.602C12.7061 52.3006 12.9689 51.5641 12.6883 51.0192C12.2988 50.2631 11.6655 50.0354 11.2124 50.4885ZM11.2884 52.3281C10.8388 51.8312 10.8451 50.973 11.3011 50.6268C12.175 49.9632 13.0753 51.46 12.2678 52.2338C11.8926 52.5933 11.5577 52.6255 11.2884 52.3281Z" fill="#FEF8EE"/>
<path fill-rule="evenodd" clip-rule="evenodd" d="M24.3834 85.7446C23.5787 86.3082 23.6269 87.6156 24.4652 87.9628C24.875 88.1326 25.2033 88.067 25.7338 87.7095C26.5208 87.1792 26.6016 86.5347 25.9614 85.8944C25.7005 85.6335 25.5311 85.5662 25.1355 85.5662C24.862 85.5662 24.5234 85.6464 24.3834 85.7446ZM24.8278 87.7374C24.1411 87.7374 23.907 86.8773 24.4259 86.2607C24.8082 85.8063 25.3792 85.7766 25.7922 86.1896C26.4181 86.8156 25.8438 87.7374 24.8278 87.7374Z" fill="#FEF8EE"/>
<path fill-rule="evenodd" clip-rule="evenodd" d="M33.5577 93.847C32.6135 94.1898 31.996 95.2746 32.2366 96.1677C32.4112 96.8163 32.9827 97.5152 33.5715 97.8002C34.0387 98.0264 34.1406 98.0378 34.5648 97.9106C35.5171 97.6253 36.2539 96.4853 36.0683 95.5842C35.9051 94.7924 35.0327 93.8564 34.348 93.7384C34.1647 93.7069 33.8091 93.7557 33.5577 93.847ZM32.8139 96.6488C32.3671 95.7729 32.6798 94.6701 33.4987 94.2344C34.0262 93.9537 34.413 93.9671 34.8808 94.2824C35.7753 94.8852 36.0542 95.971 35.5467 96.8741C34.8822 98.0563 33.4727 97.9401 32.8139 96.6488Z" fill="#FEF8EE"/>
<path fill-rule="evenodd" clip-rule="evenodd" d="M37.1821 89.7442C36.8602 89.9697 36.586 90.4936 36.586 90.8831C36.586 91.0625 36.7203 91.3177 36.92 91.5173C37.3454 91.9426 37.9742 91.9712 38.5388 91.5906C39.2017 91.1439 39.2695 90.4105 38.7006 89.8417C38.3715 89.5127 37.5848 89.4621 37.1821 89.7442ZM37.2412 91.3949C36.6516 90.931 36.8912 90.1395 37.6879 89.9196C38.3053 89.7491 38.7572 90.0845 38.7572 90.7131C38.7572 91.0419 38.6917 91.1822 38.471 91.3269C37.9841 91.646 37.5883 91.6678 37.2412 91.3949Z" fill="#FEF8EE"/>
<path fill-rule="evenodd" clip-rule="evenodd" d="M46.5279 103.802C44.7181 104.124 44.3549 104.31 44.3591 104.916C44.3677 106.157 45.7701 107.341 47.5881 107.642C48.7744 107.839 50.1547 107.377 51.0638 106.481C51.5847 105.967 51.7353 105.448 51.5024 104.969C51.26 104.47 50.9087 104.23 50.1068 104.018C49.4535 103.845 47.0887 103.702 46.5279 103.802ZM44.7293 105.064C44.6636 104.481 44.6846 104.462 45.6432 104.245C46.6289 104.022 49.8443 104.079 50.4226 104.33C50.928 104.55 51.3274 105.039 51.3274 105.439C51.3274 106.231 49.7921 107.254 48.4398 107.362C46.6972 107.502 44.877 106.375 44.7293 105.064Z" fill="#FEF8EE"/>
<path fill-rule="evenodd" clip-rule="evenodd" d="M75.3646 86.1438C74.9005 86.4411 74.5931 87.0775 74.6869 87.5466C74.7885 88.0548 75.2094 88.6226 75.635 88.8259C75.9658 88.9837 76.0446 88.9834 76.4308 88.822C77.0251 88.5737 77.2498 88.3427 77.3847 87.8413C77.5332 87.2902 77.3747 86.5518 77.029 86.1839C76.6934 85.8266 75.8898 85.8073 75.3646 86.1438ZM75.0965 87.3059C75.0965 86.8656 75.3645 86.4852 75.7821 86.3325C76.5871 86.0383 77.1025 86.4667 77.088 87.418C77.0784 88.0464 76.7638 88.4793 76.2316 88.5962C75.6035 88.7341 75.0965 88.1577 75.0965 87.3059Z" fill="#FEF8EE"/>
<path fill-rule="evenodd" clip-rule="evenodd" d="M11.1752 116.302C10.4101 116.549 9.61716 117.362 9.61716 117.899C9.61716 118.174 10.0824 118.922 10.5535 119.404C11.8851 120.766 13.7692 121.395 15.2711 120.978C16.0873 120.752 16.8133 119.769 16.8158 118.887C16.8179 118.156 15.5977 117.051 14.2151 116.532C13.4835 116.257 11.7247 116.124 11.1752 116.302ZM9.95998 117.943C9.95998 117.284 10.557 116.728 11.473 116.535C12.16 116.39 13.5416 116.507 14.2289 116.768C15.47 117.24 16.4736 118.17 16.4736 118.848C16.4736 119.558 15.7876 120.455 15.0119 120.761C14.5271 120.951 13.5227 120.85 12.6718 120.525C11.5174 120.083 9.95998 118.6 9.95998 117.943Z" fill="#FEF8EE"/>
<path fill-rule="evenodd" clip-rule="evenodd" d="M172.585 108.488C172.246 108.579 171.709 108.794 171.393 108.966C170.669 109.359 168.402 111.517 168.108 112.093C167.813 112.672 167.813 113.402 168.108 113.559C168.658 113.854 170.482 113.494 171.694 112.852C172.61 112.368 173.979 111.028 174.299 110.305C174.587 109.656 174.54 108.691 174.21 108.45C173.958 108.265 173.36 108.279 172.585 108.488ZM169.65 110.634C170.848 109.429 171.49 109.011 172.603 108.712C173.354 108.509 173.859 108.496 174.035 108.672C174.248 108.885 174.2 109.862 173.954 110.34C173.13 111.938 170.956 113.23 169.034 113.263C168.034 113.28 167.965 113.192 168.297 112.323C168.442 111.942 168.824 111.465 169.65 110.634Z" fill="#FEF8EE"/>
<path fill-rule="evenodd" clip-rule="evenodd" d="M122.275 107.999C122.249 107.98 122.367 107.856 122.536 107.723C122.979 107.375 123.423 106.423 123.487 105.683C123.599 104.404 122.568 103.18 120.965 102.687C120.273 102.475 120.108 102.462 119.576 102.581C118.864 102.741 118.054 103.248 117.547 103.851L117.185 104.283C117.123 104.355 116.979 104.655 116.893 105.274C116.893 106.663 117.436 107.593 118.574 108.15C119.121 108.418 119.354 108.463 120.14 108.456C120.684 108.451 121.265 108.373 121.553 108.266L122.042 108.083L122.275 107.999ZM117.723 107.007C116.6 105.331 117.189 103.683 119.165 102.977C120.842 102.378 122.819 103.569 123.024 105.303C123.107 106.003 122.832 107.018 122.466 107.361C121.918 107.875 121.132 108.131 120.092 108.132C118.888 108.133 118.286 107.848 117.723 107.007Z" fill="#FEF8EE"/>
</g>
</svg>
