<svg width="50" height="20" viewBox="0 0 50 20" fill="none" xmlns="http://www.w3.org/2000/svg">
<path d="M37.5477 15.1866L34.2755 11.0434L33.9441 14.9356C33.8935 15.5316 32.2392 15.5333 32.2902 14.9356L33.2791 3.31618C33.3315 2.7002 34.9791 2.76119 34.9331 3.31618L34.3298 10.4074L37.8501 6.34079C38.212 5.92246 40.1187 6.0318 39.5464 6.67145L35.9988 10.636L38.863 14.1503C39.403 14.8123 38.7374 15.4549 38.1237 15.4549C38.0135 15.4579 37.9041 15.4352 37.8041 15.3886C37.7042 15.342 37.6164 15.2729 37.5477 15.1866V15.1866ZM29.1342 14.9356L29.8486 6.54345C29.9016 5.9198 31.5255 5.88146 31.4692 6.54345L30.7549 14.9356C30.7302 15.2263 30.3072 15.3743 29.8996 15.3743C29.4969 15.3746 29.1109 15.2299 29.1342 14.9356ZM20.5111 12.0507L21.2547 3.31752C21.3037 2.74153 22.957 2.75086 22.9087 3.31752L22.5977 6.97011C23.2574 6.41368 24.0972 6.11661 24.96 6.13446C27.5016 6.13446 28.2689 8.37441 28.0836 10.5487C27.8709 13.0507 26.3783 15.3519 23.6837 15.3669H23.6647C23.2337 15.3774 22.8053 15.2976 22.407 15.1324C22.0088 14.9673 21.6495 14.7206 21.3524 14.4082C21.0554 14.0957 20.827 13.7246 20.6821 13.3185C20.5372 12.9125 20.4789 12.4806 20.5111 12.0507V12.0507ZM24.4697 7.72809C23.9368 7.77082 23.4353 7.9971 23.0506 8.36832C22.666 8.73954 22.422 9.23271 22.3604 9.76372L22.1694 12.0063C22.157 12.2324 22.1892 12.4586 22.2643 12.6722C22.3394 12.8858 22.4559 13.0824 22.6071 13.2509C22.7582 13.4194 22.9411 13.5565 23.1453 13.6542C23.3495 13.752 23.571 13.8085 23.797 13.8206C25.4276 13.8206 26.2853 12.044 26.4183 10.6497C26.6126 8.61641 25.785 7.72676 24.5583 7.72643C24.529 7.72643 24.4993 7.72709 24.4697 7.72809ZM41.7266 15.0613C39.714 14.2803 39.246 12.2517 39.6204 10.2134C39.8983 8.70241 40.594 7.2101 42.144 6.51012C44.1233 5.6188 46.7585 6.15213 46.6625 8.60074C46.6139 9.83072 45.9999 10.621 44.3293 11.1427L41.3453 12.076C41.612 13.976 44.2333 14.1606 45.4589 12.7527C45.9006 12.2353 46.8499 13.055 46.3295 13.739C45.9175 14.2131 45.4119 14.597 44.8445 14.8666C44.2771 15.1361 43.6601 15.2856 43.0323 15.3056C42.5858 15.3061 42.1431 15.2237 41.7266 15.0626V15.0613ZM41.1867 10.5767L44.0763 9.61006C44.6219 9.42739 45.0819 9.22273 45.1486 8.72207C45.2536 7.93809 44.6352 7.48877 43.8573 7.48877C42.7466 7.48977 41.3106 8.40641 41.1867 10.5767ZM10.0046 12.641C9.79313 12.4178 9.67611 12.1214 9.67803 11.8139C9.67996 11.5064 9.80068 11.2116 10.015 10.991C10.1795 10.822 10.3932 10.7093 10.6256 10.669L11.0629 8.06575C11.0042 8.02807 10.9496 7.9844 10.8999 7.93542C10.8088 7.84565 10.7365 7.73852 10.6874 7.62035C10.6383 7.50218 10.6134 7.37537 10.6142 7.24741C10.6149 7.11946 10.6413 6.99295 10.6917 6.87536C10.7422 6.75777 10.8157 6.65149 10.9079 6.56278C11.0957 6.38119 11.347 6.28026 11.6082 6.28157C11.8694 6.28288 12.1197 6.38632 12.3056 6.56978C12.3968 6.65964 12.4691 6.76686 12.5182 6.88511C12.5673 7.00336 12.5922 7.13025 12.5914 7.25829C12.5907 7.38633 12.5643 7.51292 12.5138 7.63059C12.4634 7.74826 12.3898 7.85463 12.2976 7.94342C12.1479 8.08869 11.9561 8.18296 11.7496 8.21275L11.3409 10.7884C11.5235 10.8888 11.6754 11.0369 11.7803 11.217L14.7505 10.5654C14.7786 10.368 14.8722 10.1857 15.0161 10.0478C15.16 9.90979 15.3461 9.8241 15.5445 9.80438C15.7298 9.79364 15.9126 9.85155 16.0578 9.96705C16.2362 10.1188 16.3519 10.3313 16.3827 10.5635C16.4135 10.7957 16.3571 11.031 16.2245 11.224C16.1561 11.3301 16.0647 11.4194 15.9571 11.4853C15.8495 11.5512 15.7284 11.592 15.6028 11.6047C15.4553 11.6166 15.3073 11.586 15.1766 11.5164C15.0459 11.4469 14.9378 11.3414 14.8652 11.2124L11.9336 11.9637C11.9028 12.2218 11.7877 12.4625 11.6059 12.6483C11.5019 12.7556 11.3773 12.8408 11.2396 12.8987C11.1018 12.9566 10.9538 12.9862 10.8044 12.9855C10.655 12.9848 10.5072 12.9539 10.37 12.8947C10.2328 12.8355 10.109 12.7492 10.006 12.641H10.0046ZM29.7492 4.14117C29.7795 3.83455 29.9214 3.54973 30.1478 3.34076C30.3742 3.13179 30.6695 3.01321 30.9775 3.00752C31.1227 3.00505 31.2668 3.03346 31.4001 3.09088C31.5335 3.1483 31.6532 3.23341 31.7512 3.34057C31.8491 3.44773 31.9232 3.5745 31.9685 3.71246C32.0138 3.85043 32.0293 3.99645 32.0138 4.14083C31.9834 4.44748 31.8414 4.73226 31.6148 4.94116C31.3883 5.15007 31.093 5.26855 30.7849 5.27414C30.6398 5.27652 30.4958 5.24804 30.3625 5.1906C30.2293 5.13316 30.1097 5.04807 30.0118 4.94095C29.9139 4.83384 29.8399 4.70715 29.7946 4.56927C29.7493 4.43139 29.7339 4.28547 29.7492 4.14117V4.14117Z" fill="#E72429"/>
<path fill-rule="evenodd" clip-rule="evenodd" d="M5.47272 8.45406C2.86911 8.96505 1.25046 11.483 1.76078 13.839C2.05345 15.1916 2.84743 16.0166 4.10707 16.0319C5.41838 16.0476 6.9507 15.2653 7.71035 13.428C8.18934 12.2693 8.57698 9.49871 8.77698 8.02407L9.38199 3.54783L7.51968 3.5935C7.43304 3.59208 7.35009 3.55824 7.28718 3.49866C7.22427 3.43907 7.18599 3.35807 7.17988 3.27164C7.17377 3.18521 7.20028 3.09963 7.25418 3.03179C7.30808 2.96394 7.38544 2.91877 7.47102 2.90518L13.3469 2.00886C14.2499 1.8712 14.4882 3.3825 13.5412 3.41283L10.7353 3.50316L10.1353 8.21773C9.9226 9.7477 9.63528 12.473 9.08829 13.8866C7.97798 16.7532 5.90505 17.9865 3.99275 17.9999C1.8088 18.0165 0.0184928 16.4792 0.000159819 13.865C-0.0201731 10.989 1.90012 8.0734 5.48172 7.86174C5.83638 7.90307 5.85204 8.47606 5.47238 8.45473L5.47272 8.45406ZM15.8699 15.3953C20.5931 15.3953 21.2214 5.94878 16.5418 5.94878C14.0452 5.94878 12.6296 8.36873 12.4846 10.7587L14.1426 10.3947C14.3039 8.77372 15.1759 7.21409 16.6725 7.21409C19.6634 7.21409 19.2198 13.9776 16.2372 13.9779C15.0798 13.9779 14.4132 13.0333 14.1952 11.85L12.5879 12.262L12.5749 12.303C12.8939 14.0113 13.9645 15.3953 15.8695 15.3953H15.8699Z" fill="#050405"/>
</svg>
