<svg width="70" height="28" viewBox="0 0 70 28" fill="none" xmlns="http://www.w3.org/2000/svg">
<path d="M56.3216 21.7799L51.4132 15.565L50.9162 21.4034C50.8402 22.2974 48.3587 22.2999 48.4352 21.4034L49.9187 3.97424C49.9972 3.05026 52.4687 3.14176 52.3997 3.97424L51.4947 14.611L56.7751 8.51115C57.3181 7.88366 60.178 8.04766 59.3195 9.00714L53.9981 14.954L58.2945 20.2254C59.1045 21.2184 58.106 22.1824 57.1856 22.1824C57.0202 22.1868 56.8561 22.1527 56.7062 22.0829C56.5562 22.013 56.4246 21.9093 56.3216 21.7799V21.7799ZM43.7013 21.4034L44.7728 8.81515C44.8523 7.87966 47.2883 7.82217 47.2038 8.81515L46.1323 21.4034C46.0953 21.8394 45.4608 22.0614 44.8493 22.0614C44.2453 22.0619 43.6663 21.8449 43.7013 21.4034ZM30.7666 17.076L31.8821 3.97624C31.9556 3.11226 34.4355 3.12626 34.363 3.97624L33.8965 9.45513C34.886 8.62048 36.1457 8.17488 37.44 8.20166C41.2524 8.20166 42.4034 11.5616 42.1254 14.823C41.8064 18.5759 39.5674 22.0279 35.5255 22.0504H35.497C34.8505 22.0661 34.2079 21.9463 33.6105 21.6986C33.0132 21.4509 32.4743 21.0808 32.0287 20.6122C31.583 20.1436 31.2405 19.5868 31.0231 18.9778C30.8057 18.3687 30.7184 17.7209 30.7666 17.076V17.076ZM36.7045 10.5921C35.9052 10.6562 35.1529 10.9956 34.5759 11.5524C33.9989 12.1093 33.633 12.849 33.5405 13.6455L33.254 17.0095C33.2354 17.3485 33.2838 17.6879 33.3965 18.0083C33.5091 18.3286 33.6838 18.6236 33.9106 18.8763C34.1373 19.1291 34.4117 19.3347 34.718 19.4813C35.0242 19.6279 35.3564 19.7128 35.6955 19.7309C38.1414 19.7309 39.4279 17.066 39.6274 14.9745C39.9189 11.9246 38.6774 10.5901 36.8375 10.5896C36.7935 10.5896 36.749 10.5906 36.7045 10.5921ZM62.5899 21.5919C59.571 20.4204 58.869 17.3775 59.4305 14.32C59.8475 12.0536 60.891 9.81512 63.2159 8.76515C66.1849 7.42817 70.1378 8.22816 69.9938 11.9011C69.9208 13.746 68.9998 14.9315 66.4939 15.714L62.018 17.114C62.418 19.9639 66.3499 20.2409 68.1883 18.129C68.8508 17.353 70.2748 18.5824 69.4943 19.6084C68.8762 20.3196 68.1178 20.8954 67.2667 21.2998C66.4156 21.7042 65.4902 21.9284 64.5484 21.9584C63.8787 21.9591 63.2146 21.8356 62.5899 21.5939V21.5919ZM61.78 14.865L66.1144 13.4151C66.9329 13.1411 67.6228 12.8341 67.7228 12.0831C67.8803 10.9071 66.9529 10.2331 65.7859 10.2331C64.1199 10.2346 61.966 11.6096 61.78 14.865ZM15.0069 17.9615C14.6897 17.6266 14.5141 17.1821 14.517 16.7209C14.5199 16.2596 14.701 15.8173 15.0224 15.4865C15.2692 15.233 15.5898 15.064 15.9384 15.0035L16.5944 11.0986C16.5063 11.0421 16.4244 10.9766 16.3499 10.9031C16.2131 10.7684 16.1047 10.6077 16.0311 10.4305C15.9575 10.2532 15.9201 10.063 15.9212 9.87109C15.9223 9.67916 15.9619 9.48939 16.0376 9.31301C16.1133 9.13662 16.2236 8.9772 16.3619 8.84414C16.6435 8.57176 17.0205 8.42036 17.4123 8.42232C17.804 8.42429 18.1795 8.57945 18.4584 8.85465C18.5952 8.98943 18.7036 9.15026 18.7773 9.32764C18.8509 9.50502 18.8883 9.69535 18.8871 9.88741C18.886 10.0795 18.8464 10.2693 18.7707 10.4459C18.695 10.6224 18.5847 10.7819 18.4464 10.9151C18.2218 11.133 17.9341 11.2744 17.6244 11.3191L17.0114 15.1825C17.2853 15.3331 17.5131 15.5554 17.6704 15.8255L22.1258 14.848C22.1679 14.5519 22.3082 14.2785 22.5241 14.0716C22.74 13.8647 23.0191 13.7361 23.3168 13.7065C23.5947 13.6904 23.8688 13.7773 24.0867 13.9505C24.3542 14.1782 24.5279 14.497 24.574 14.8452C24.6202 15.1935 24.5357 15.5465 24.3367 15.836C24.2341 15.9951 24.0971 16.129 23.9356 16.2279C23.7742 16.3267 23.5926 16.3879 23.4043 16.407C23.1829 16.4248 22.961 16.3789 22.7649 16.2746C22.5688 16.1703 22.4067 16.012 22.2978 15.8185L17.9004 16.9455C17.8543 17.3326 17.6815 17.6937 17.4089 17.9725C17.2529 18.1334 17.0659 18.2611 16.8593 18.348C16.6527 18.4349 16.4307 18.4792 16.2066 18.4782C15.9824 18.4771 15.7608 18.4309 15.555 18.3421C15.3492 18.2533 15.1635 18.1238 15.0089 17.9615H15.0069ZM44.6238 5.21172C44.6693 4.75179 44.882 4.32457 45.2217 4.01111C45.5613 3.69766 46.0042 3.51979 46.4663 3.51125C46.6841 3.50754 46.9001 3.55016 47.1002 3.63629C47.3003 3.72241 47.4797 3.85008 47.6267 4.01082C47.7737 4.17157 47.8848 4.36171 47.9528 4.56866C48.0207 4.77561 48.0439 4.99464 48.0207 5.21122C47.975 5.67118 47.762 6.09836 47.4222 6.41171C47.0824 6.72507 46.6394 6.9028 46.1773 6.91118C45.9596 6.91474 45.7437 6.87203 45.5438 6.78587C45.3439 6.69971 45.1646 6.57207 45.0177 6.4114C44.8708 6.25073 44.7598 6.0607 44.6919 5.85388C44.624 5.64706 44.6008 5.42818 44.6238 5.21172V5.21172Z" fill="#E72429"/>
<path fill-rule="evenodd" clip-rule="evenodd" d="M8.20909 11.6811C4.30367 12.4476 1.87569 16.2245 2.64118 19.7584C3.08017 21.7874 4.27114 23.0249 6.16061 23.0479C8.12757 23.0714 10.426 21.8979 11.5655 19.1419C12.284 17.404 12.8655 13.2481 13.1655 11.0361L14.073 4.32175L11.2795 4.39024C11.1496 4.38812 11.0251 4.33736 10.9308 4.24799C10.8364 4.15861 10.779 4.03711 10.7698 3.90746C10.7607 3.77781 10.8004 3.64944 10.8813 3.54768C10.9621 3.44591 11.0782 3.37815 11.2065 3.35776L20.0203 2.01329C21.3748 1.8068 21.7323 4.07375 20.3118 4.11925L16.1029 4.25475L15.2029 11.3266C14.8839 13.6216 14.4529 17.7095 13.6324 19.8299C11.967 24.1298 8.85757 25.9798 5.98913 25.9998C2.7132 26.0248 0.0277392 23.7188 0.000239728 19.7974C-0.0302597 15.4835 2.85018 11.1101 8.22258 10.7926C8.75456 10.8546 8.77806 11.7141 8.20857 11.6821L8.20909 11.6811ZM23.8048 22.0929C30.8896 22.0929 31.8321 7.92317 24.8128 7.92317C21.0678 7.92317 18.9444 11.5531 18.7269 15.138L21.2138 14.592C21.4558 12.1606 22.7638 9.82113 25.0087 9.82113C29.4951 9.82113 28.8296 19.9664 24.3557 19.9669C22.6198 19.9669 21.6198 18.55 21.2928 16.775L18.8818 17.393L18.8624 17.4545C19.3409 20.0169 20.9468 22.0929 23.8042 22.0929H23.8048Z" fill="#050405"/>
</svg>
