<svg width="51" height="20" viewBox="0 0 51 20" fill="none" xmlns="http://www.w3.org/2000/svg">
<mask id="mask0_5105_3194" style="mask-type:luminance" maskUnits="userSpaceOnUse" x="0" y="0" width="51" height="20">
<path d="M50.5 0H0.5V20H50.5V0Z" fill="white"/>
</mask>
<g mask="url(#mask0_5105_3194)">
<path d="M38.0477 15.1868L34.7755 11.0436L34.4441 14.9358C34.3935 15.5318 32.7392 15.5335 32.7902 14.9358L33.7791 3.31636C33.8315 2.70038 35.4791 2.76137 35.4331 3.31636L34.8298 10.4076L38.3501 6.34097C38.712 5.92264 40.6187 6.03198 40.0464 6.67163L36.4988 10.6362L39.363 14.1505C39.903 14.8125 39.2374 15.4551 38.6237 15.4551C38.5135 15.4581 38.4041 15.4354 38.3041 15.3888C38.2042 15.3422 38.1164 15.2731 38.0477 15.1868ZM29.6342 14.9358L30.3486 6.54363C30.4016 5.91998 32.0255 5.88164 31.9692 6.54363L31.2549 14.9358C31.2302 15.2265 30.8072 15.3745 30.3996 15.3745C29.9969 15.3748 29.6109 15.2301 29.6342 14.9358ZM21.0111 12.0509L21.7547 3.3177C21.8037 2.74171 23.457 2.75104 23.4087 3.3177L23.0977 6.97029C23.7574 6.41386 24.5972 6.11679 25.46 6.13464C28.0016 6.13464 28.7689 8.37459 28.5836 10.5489C28.3709 13.0509 26.8783 15.3521 24.1837 15.3671H24.1647C23.7337 15.3776 23.3053 15.2978 22.907 15.1326C22.5088 14.9675 22.1495 14.7208 21.8524 14.4084C21.5554 14.0959 21.327 13.7248 21.1821 13.3187C21.0372 12.9127 20.9789 12.4808 21.0111 12.0509ZM24.9697 7.72827C24.4368 7.771 23.9353 7.99729 23.5506 8.36851C23.166 8.73972 22.922 9.23289 22.8604 9.7639L22.6694 12.0065C22.657 12.2326 22.6892 12.4588 22.7643 12.6724C22.8394 12.886 22.9559 13.0826 23.1071 13.2511C23.2582 13.4196 23.4411 13.5567 23.6453 13.6544C23.8495 13.7522 24.071 13.8087 24.297 13.8208C25.9276 13.8208 26.7853 12.0442 26.9183 10.6499C27.1126 8.61659 26.285 7.72694 25.0583 7.72661C25.029 7.72661 24.9993 7.72727 24.9697 7.72827ZM42.2266 15.0615C40.214 14.2805 39.746 12.2519 40.1204 10.2136C40.3983 8.70259 41.094 7.21028 42.644 6.5103C44.6233 5.61898 47.2585 6.15231 47.1625 8.60092C47.1139 9.8309 46.4999 10.6212 44.8293 11.1429L41.8453 12.0762C42.112 13.9762 44.7333 14.1608 45.9589 12.7529C46.4006 12.2355 47.3499 13.0552 46.8295 13.7392C46.4175 14.2133 45.9119 14.5972 45.3445 14.8668C44.7771 15.1363 44.1601 15.2858 43.5323 15.3058C43.0858 15.3063 42.6431 15.2239 42.2266 15.0628V15.0615ZM41.6867 10.5769L44.5763 9.61024C45.1219 9.42757 45.5819 9.22291 45.6486 8.72225C45.7536 7.93827 45.1352 7.48895 44.3573 7.48895C43.2466 7.48995 41.8106 8.40659 41.6867 10.5769ZM10.5046 12.6412C10.2931 12.418 10.1761 12.1216 10.178 11.8141C10.1799 11.5066 10.3007 11.2118 10.515 10.9912C10.6795 10.8222 10.8932 10.7095 11.1256 10.6692L11.5629 8.06593C11.5042 8.02825 11.4496 7.98458 11.3999 7.9356C11.3088 7.84583 11.2365 7.7387 11.1874 7.62053C11.1383 7.50236 11.1134 7.37555 11.1142 7.24759C11.1149 7.11964 11.1413 6.99313 11.1917 6.87554C11.2422 6.75795 11.3157 6.65167 11.4079 6.56296C11.5957 6.38137 11.847 6.28044 12.1082 6.28175C12.3694 6.28306 12.6197 6.3865 12.8056 6.56996C12.8968 6.65982 12.9691 6.76704 13.0182 6.88529C13.0673 7.00354 13.0922 7.13043 13.0914 7.25847C13.0907 7.38651 13.0643 7.5131 13.0138 7.63077C12.9634 7.74844 12.8898 7.85481 12.7976 7.9436C12.6479 8.08887 12.4561 8.18314 12.2496 8.21293L11.8409 10.7886C12.0235 10.889 12.1754 11.0371 12.2803 11.2172L15.2505 10.5656C15.2786 10.3682 15.3722 10.1859 15.5161 10.048C15.66 9.90997 15.8461 9.82428 16.0445 9.80456C16.2298 9.79382 16.4126 9.85173 16.5578 9.96723C16.7362 10.119 16.8519 10.3315 16.8827 10.5637C16.9135 10.7959 16.8571 11.0312 16.7245 11.2242C16.6561 11.3303 16.5647 11.4196 16.4571 11.4855C16.3495 11.5514 16.2284 11.5922 16.1028 11.6049C15.9553 11.6168 15.8073 11.5862 15.6766 11.5166C15.5459 11.4471 15.4378 11.3416 15.3652 11.2126L12.4336 11.9639C12.4028 12.222 12.2877 12.4627 12.1059 12.6485C12.0019 12.7558 11.8773 12.841 11.7396 12.8989C11.6018 12.9568 11.4538 12.9864 11.3044 12.9857C11.155 12.985 11.0072 12.9541 10.87 12.8949C10.7328 12.8357 10.609 12.7494 10.506 12.6412H10.5046ZM30.2492 4.14135C30.2795 3.83473 30.4214 3.54991 30.6478 3.34094C30.8742 3.13197 31.1695 3.01339 31.4775 3.0077C31.6227 3.00523 31.7668 3.03364 31.9001 3.09106C32.0335 3.14848 32.1532 3.23359 32.2512 3.34075C32.3491 3.44791 32.4232 3.57468 32.4685 3.71264C32.5138 3.85061 32.5293 3.99663 32.5138 4.14101C32.4834 4.44766 32.3414 4.73244 32.1148 4.94134C31.8883 5.15025 31.593 5.26873 31.2849 5.27432C31.1398 5.2767 30.9958 5.24822 30.8625 5.19078C30.7293 5.13334 30.6097 5.04825 30.5118 4.94113C30.4139 4.83402 30.3399 4.70733 30.2946 4.56945C30.2493 4.43157 30.2339 4.28565 30.2492 4.14135Z" fill="white"/>
<path fill-rule="evenodd" clip-rule="evenodd" d="M5.97272 8.45406C3.36911 8.96505 1.75046 11.483 2.26078 13.839C2.55345 15.1916 3.34743 16.0166 4.60707 16.0319C5.91838 16.0476 7.4507 15.2653 8.21035 13.428C8.68934 12.2693 9.07698 9.49871 9.27698 8.02407L9.88199 3.54783L8.01968 3.5935C7.93304 3.59208 7.85009 3.55824 7.78718 3.49866C7.72427 3.43907 7.68599 3.35807 7.67988 3.27164C7.67377 3.18521 7.70028 3.09963 7.75418 3.03179C7.80808 2.96394 7.88544 2.91877 7.97102 2.90518L13.8469 2.00886C14.7499 1.8712 14.9882 3.3825 14.0412 3.41283L11.2353 3.50316L10.6353 8.21773C10.4226 9.7477 10.1353 12.473 9.58829 13.8866C8.47798 16.7532 6.40505 17.9865 4.49275 17.9999C2.3088 18.0165 0.518493 16.4792 0.50016 13.865C0.479827 10.989 2.40012 8.0734 5.98172 7.86174C6.33638 7.90307 6.35238 8.47539 5.97272 8.45406ZM16.3699 15.3953C21.0931 15.3953 21.7214 5.94878 17.0418 5.94878C14.5452 5.94878 13.1296 8.36873 12.9846 10.7587L14.6426 10.3947C14.8039 8.77372 15.6759 7.21409 17.1725 7.21409C20.1634 7.21409 19.7198 13.9776 16.7372 13.9779C15.5798 13.9779 14.9132 13.0333 14.6952 11.85L13.0879 12.262L13.0749 12.303C13.3939 14.0113 14.4649 15.3953 16.3699 15.3953Z" fill="white"/>
</g>
</svg>
