<svg width="68" height="23" viewBox="0 0 68 23" fill="none" xmlns="http://www.w3.org/2000/svg">
<g clip-path="url(#clip0)">
<path d="M53.976 18.9561L49.272 13.0001L48.7957 18.5953C48.7229 19.4521 46.3447 19.4545 46.4181 18.5953L47.8397 1.89205C47.915 1.00655 50.2835 1.09423 50.2174 1.89205L49.3501 12.0858L54.4106 6.24C54.9309 5.63865 57.6718 5.79582 56.849 6.71534L51.7493 12.4145L55.8667 17.4664C56.643 18.418 55.6861 19.3419 54.804 19.3419C54.6455 19.3461 54.4882 19.3134 54.3445 19.2465C54.2009 19.1795 54.0747 19.0802 53.976 18.9561V18.9561ZM41.8813 18.5953L42.9082 6.53134C42.9844 5.63482 45.3189 5.57971 45.2379 6.53134L44.211 18.5953C44.1756 19.0131 43.5675 19.2259 42.9815 19.2259C42.4026 19.2264 41.8478 19.0184 41.8813 18.5953ZM29.4853 14.4481L30.5543 1.89396C30.6247 1.06596 33.0014 1.07938 32.9319 1.89396L32.4849 7.14467C33.4332 6.34478 34.6404 5.91773 35.8807 5.9434C39.5344 5.9434 40.6374 9.1634 40.371 12.289C40.0653 15.8856 37.9196 19.1938 34.046 19.2154H34.0187C33.3991 19.2305 32.7832 19.1156 32.2107 18.8782C31.6383 18.6409 31.1218 18.2862 30.6948 17.8371C30.2677 17.388 29.9394 16.8544 29.7311 16.2707C29.5228 15.687 29.439 15.0662 29.4853 14.4481V14.4481ZM35.1759 8.2343C34.4099 8.29572 33.6889 8.621 33.1359 9.15464C32.583 9.68828 32.2323 10.3972 32.1437 11.1606L31.8691 14.3844C31.8513 14.7093 31.8977 15.0346 32.0056 15.3416C32.1136 15.6486 32.281 15.9313 32.4983 16.1735C32.7156 16.4157 32.9786 16.6128 33.2721 16.7533C33.5656 16.8938 33.8839 16.9751 34.2089 16.9925C36.553 16.9925 37.7859 14.4385 37.9771 12.4342C38.2564 9.51127 37.0666 8.23238 35.3033 8.2319C35.2611 8.2319 35.2185 8.23286 35.1759 8.2343ZM59.9833 18.776C57.0901 17.6533 56.4173 14.7371 56.9554 11.807C57.355 9.6349 58.3551 7.48967 60.5832 6.48342C63.4285 5.20213 67.2168 5.9688 67.0788 9.48875C67.0088 11.2569 66.1262 12.393 63.7246 13.1429L59.4351 14.4845C59.8184 17.2158 63.5866 17.4813 65.3485 15.4573C65.9834 14.7136 67.3481 15.8919 66.6001 16.8751C66.0077 17.5567 65.2809 18.1085 64.4653 18.4961C63.6496 18.8836 62.7627 19.0985 61.8602 19.1272C61.2183 19.1279 60.5819 19.0095 59.9833 18.7779V18.776ZM59.207 12.3293L63.3609 10.9397C64.1453 10.6771 64.8066 10.3829 64.9024 9.66317C65.0533 8.53617 64.1645 7.89025 63.0461 7.89025C61.4495 7.89169 59.3853 9.2094 59.207 12.3293ZM14.3819 15.2967C14.0779 14.9758 13.9097 14.5498 13.9124 14.1078C13.9152 13.6658 14.0888 13.2419 14.3968 12.9249C14.6333 12.6819 14.9405 12.5199 15.2746 12.462L15.9033 8.71969C15.8189 8.66553 15.7404 8.60274 15.669 8.53234C15.5379 8.40329 15.434 8.24928 15.3634 8.07941C15.2929 7.90954 15.2571 7.72725 15.2582 7.54331C15.2592 7.35937 15.2972 7.1775 15.3697 7.00847C15.4422 6.83943 15.5479 6.68664 15.6805 6.55913C15.9503 6.29809 16.3116 6.15299 16.6871 6.15487C17.0626 6.15676 17.4224 6.30546 17.6896 6.56919C17.8207 6.69836 17.9247 6.85249 17.9952 7.02249C18.0658 7.19248 18.1016 7.37488 18.1006 7.55894C18.0995 7.743 18.0616 7.92498 17.989 8.09413C17.9164 8.26329 17.8107 8.4162 17.6781 8.54384C17.4629 8.75267 17.1872 8.88817 16.8904 8.931L16.3029 12.6335C16.5654 12.7779 16.7837 12.9909 16.9345 13.2497L21.2043 12.313C21.2447 12.0292 21.3791 11.7672 21.5861 11.5689C21.793 11.3706 22.0605 11.2474 22.3457 11.219C22.612 11.2036 22.8748 11.2868 23.0836 11.4529C23.34 11.6711 23.5064 11.9766 23.5506 12.3103C23.5949 12.644 23.5138 12.9823 23.3232 13.2598C23.2249 13.4123 23.0935 13.5406 22.9388 13.6353C22.7841 13.7301 22.61 13.7887 22.4295 13.807C22.2174 13.8241 22.0048 13.7801 21.8168 13.6801C21.6289 13.5802 21.4736 13.4285 21.3691 13.243L17.1549 14.3231C17.1107 14.6941 16.9451 15.0401 16.6839 15.3073C16.5343 15.4615 16.3552 15.5839 16.1572 15.6672C15.9592 15.7505 15.7464 15.7929 15.5316 15.7919C15.3168 15.7909 15.1044 15.7466 14.9072 15.6615C14.71 15.5764 14.5319 15.4523 14.3839 15.2967H14.3819ZM42.7654 3.07798C42.809 2.63721 43.0129 2.22778 43.3383 1.92738C43.6638 1.62698 44.0883 1.45652 44.5311 1.44834C44.7398 1.44478 44.9469 1.48563 45.1386 1.56816C45.3304 1.6507 45.5024 1.77305 45.6432 1.9271C45.7841 2.08115 45.8906 2.26338 45.9557 2.46171C46.0208 2.66004 46.043 2.86994 46.0208 3.0775C45.977 3.51831 45.7729 3.9277 45.4473 4.228C45.1216 4.5283 44.697 4.69863 44.2541 4.70667C44.0456 4.71008 43.8386 4.66915 43.647 4.58658C43.4555 4.504 43.2836 4.38168 43.1429 4.2277C43.0021 4.07372 42.8957 3.8916 42.8306 3.6934C42.7655 3.49519 42.7433 3.28543 42.7654 3.07798V3.07798Z" fill="#E72429"/>
<path fill-rule="evenodd" clip-rule="evenodd" d="M7.8672 9.2779C4.12443 10.0125 1.79758 13.6321 2.53118 17.0188C2.95189 18.9633 4.09326 20.1492 5.90403 20.1713C7.78908 20.1938 9.99183 19.0692 11.0839 16.428C11.7724 14.7624 12.3297 10.7796 12.6172 8.65978L13.4869 2.22505L10.8098 2.2907C10.6852 2.28866 10.566 2.24002 10.4755 2.15436C10.3851 2.06871 10.3301 1.95227 10.3213 1.82802C10.3125 1.70377 10.3506 1.58075 10.4281 1.48322C10.5056 1.3857 10.6168 1.32076 10.7398 1.30122L19.1865 0.0127394C20.4846 -0.185156 20.8272 1.98738 19.4659 2.03099L15.4323 2.16084L14.5697 8.93818C14.264 11.1376 13.851 15.0552 13.0647 17.0874C11.4686 21.2082 8.48868 22.9811 5.7397 23.0003C2.6002 23.0242 0.0265839 20.8143 0.000229744 17.0562C-0.0289994 12.922 2.73148 8.7307 7.88013 8.42643C8.38996 8.48584 8.41248 9.30953 7.86671 9.27886L7.8672 9.2779ZM22.8134 19.2561C29.6032 19.2561 30.5064 5.67649 23.7794 5.67649C20.1904 5.67649 18.1554 9.15524 17.947 12.5909L20.3303 12.0676C20.5623 9.73743 21.8157 7.49541 23.9672 7.49541C28.2668 7.49541 27.629 17.2182 23.3414 17.2187C21.6777 17.2187 20.7194 15.8607 20.406 14.1597L18.0955 14.7519L18.0768 14.8108C18.5354 17.2666 20.0744 19.2561 22.8129 19.2561H22.8134Z" fill="#050405"/>
</g>
<defs>
<clipPath id="clip0">
<rect width="67.0833" height="23" fill="white"/>
</clipPath>
</defs>
</svg>
