<svg xmlns="http://www.w3.org/2000/svg" width="180" height="72" viewBox="0 0 180 72"><g transform="translate(-146 -3138)"><rect width="180" height="72" rx="8" transform="translate(146 3138)" fill="#fff"/><g transform="translate(166 3150)"><path d="M83.611,36.93,73.794,24.5,72.8,36.177c-.152,1.788-5.115,1.793-4.962,0L70.805,1.318c.157-1.848,5.1-1.665,4.962,0l-1.81,21.274,10.561-12.2c1.086-1.255,6.806-.927,5.089.992L78.964,23.278l8.593,10.543c1.62,1.986-.377,3.914-2.218,3.914A2.136,2.136,0,0,1,83.611,36.93ZM58.37,36.177,60.513,11c.159-1.871,5.031-1.986,4.862,0L63.232,36.177c-.074.872-1.343,1.316-2.566,1.316C59.458,37.494,58.3,37.06,58.37,36.177ZM32.5,27.522l2.231-26.2c.147-1.728,5.107-1.7,4.962,0L38.76,12.28a10.65,10.65,0,0,1,7.087-2.507c7.625,0,9.927,6.72,9.371,13.243-.638,7.506-5.116,14.41-13.2,14.455h-.057A9.261,9.261,0,0,1,32.5,27.522ZM44.376,14.554a6.928,6.928,0,0,0-6.328,6.107l-.573,6.728a5.167,5.167,0,0,0,4.883,5.443c4.892,0,7.465-5.33,7.864-9.513.583-6.1-1.9-8.769-5.58-8.77C44.554,14.549,44.465,14.551,44.376,14.554Zm51.772,22c-6.038-2.343-7.442-8.429-6.319-14.544C90.663,17.477,92.75,13,97.4,10.9c5.938-2.674,13.844-1.074,13.556,6.272-.146,3.69-1.988,6.061-7,7.626l-8.952,2.8c.8,5.7,8.664,6.254,12.341,2.03,1.325-1.552,4.173.907,2.612,2.959a13.683,13.683,0,0,1-9.892,4.7A10.821,10.821,0,0,1,96.148,36.558ZM94.528,23.1l8.669-2.9c1.637-.548,3.017-1.162,3.217-2.664.315-2.352-1.54-3.7-3.874-3.7C99.208,13.839,94.9,16.589,94.528,23.1ZM.98,29.293a3.575,3.575,0,0,1,.031-4.95,3.357,3.357,0,0,1,1.832-.966l1.312-7.81a3.02,3.02,0,0,1-.489-.391,2.873,2.873,0,0,1,.024-4.118,3,3,0,0,1,4.193.021A2.876,2.876,0,0,1,7.859,15.2a2.97,2.97,0,0,1-1.644.808L4.989,23.735a3.447,3.447,0,0,1,1.318,1.286l8.911-1.955A2.673,2.673,0,0,1,17.6,20.783a2.264,2.264,0,0,1,1.54.488,2.84,2.84,0,0,1,.5,3.771,2.521,2.521,0,0,1-1.865,1.142,2.325,2.325,0,0,1-2.213-1.177L6.767,27.261a3.536,3.536,0,0,1-.983,2.054,3.328,3.328,0,0,1-4.8-.022Zm59.235-25.5A3.773,3.773,0,0,1,63.9.392a3.074,3.074,0,0,1,3.109,3.4,3.774,3.774,0,0,1-3.687,3.4A3.074,3.074,0,0,1,60.215,3.793Z" transform="translate(29.034 2.631)" fill="#e72429" stroke="rgba(0,0,0,0)" stroke-width="1"/><path d="M1022.577,51.766c-7.811,1.533-12.667,9.087-11.136,16.155.878,4.058,3.26,6.533,7.039,6.579,3.934.047,8.531-2.3,10.81-7.812,1.437-3.476,2.6-11.788,3.2-16.212l1.815-13.429-5.587.137a1.039,1.039,0,0,1-.146-2.065L1046.2,32.43c2.709-.413,3.424,4.121.583,4.212l-8.418.271-1.8,14.144c-.638,4.59-1.5,12.766-3.141,17.007-3.331,8.6-9.55,12.3-15.287,12.34-6.552.05-11.923-4.562-11.978-12.405-.061-8.628,5.7-17.375,16.445-18.01,1.064.124,1.111,1.843-.028,1.779Zm31.192,20.824c14.17,0,16.055-28.34,2.016-28.34-7.49,0-11.737,7.26-12.172,14.43l4.974-1.092c.484-4.863,3.1-9.542,7.59-9.542,8.973,0,7.642,20.291-1.306,20.292-3.472,0-5.472-2.834-6.126-6.384l-4.822,1.236-.039.123C1044.841,68.438,1048.053,72.59,1053.768,72.59Z" transform="translate(-1006.159 -32.403)" fill="#050405" fill-rule="evenodd"/></g></g></svg>