<svg width="138" height="24" viewBox="0 0 138 24" fill="none" xmlns="http://www.w3.org/2000/svg">
<path d="M10.5835 4L2.5835 12L10.5835 20L18.5835 12L10.5835 4Z" fill="#E1FC01"/>
<path d="M16.2491 11.9999L10.5856 6.33496L12.3494 10.1071L9.69089 8.7194L10.5856 10.7989L4.92065 11.9999L10.5856 13.1995L9.69089 15.279L12.3494 13.8913L10.5856 17.6648L16.2491 11.9999Z" fill="black"/>
<path d="M32.2238 7.0498H29.7772L25.3358 11.1536V7.0498H23.3164V16.9478H25.3358V13.4125L26.9132 11.9581L30.2692 16.9478H32.6028L28.3378 10.655L32.2238 7.0498Z" fill="white"/>
<path d="M36.7665 7.0498L32.6411 16.9495H34.7221L35.6047 14.7039H40.1473L41.0433 16.9495H43.1757L39.0503 7.0498H36.7665ZM36.2879 12.9421L37.8769 8.97788L39.4659 12.9421H36.2861H36.2879Z" fill="white"/>
<path d="M48.5111 7.04951H44.1331V16.9476H46.1261V13.5917H48.3583C49.6863 13.5917 50.6753 13.3208 51.3235 12.7806C51.9717 12.2404 52.2943 11.4143 52.2943 10.3056C52.2943 8.13323 51.0327 7.04785 48.5095 7.04785L48.5111 7.04951ZM49.8227 11.4791C49.5117 11.7334 49.0197 11.8597 48.3467 11.8597H46.1261V8.78145H48.3715C49.0447 8.78145 49.5317 8.90113 49.8343 9.14215C50.1367 9.38315 50.2879 9.76545 50.2879 10.2924C50.2879 10.8192 50.1317 11.2231 49.8209 11.4775L49.8227 11.4791Z" fill="white"/>
<path d="M58.6038 13.2598H61.0886V14.8688C60.4404 15.2195 59.6078 15.3957 58.5904 15.3957C57.5134 15.3957 56.6972 15.1098 56.1438 14.5364C55.5886 13.9629 55.311 13.1169 55.311 11.9999C55.311 10.883 55.5736 10.0702 56.099 9.48348C56.6242 8.89674 57.3672 8.60254 58.3262 8.60254C58.9744 8.60254 59.498 8.72554 59.897 8.96988C60.2958 9.2142 60.585 9.5965 60.7612 10.1134L62.779 9.8508C62.5182 8.8718 62.0094 8.1172 61.2532 7.5903C60.497 7.0634 59.5378 6.80078 58.376 6.80078C57.3156 6.80078 56.3982 7.01852 55.6202 7.45234C54.8424 7.88616 54.249 8.49616 53.8418 9.28236C53.4346 10.0685 53.23 10.9877 53.23 12.0415C53.23 13.6588 53.7038 14.9237 54.6496 15.8328C55.5954 16.7437 56.91 17.1991 58.5922 17.1991C59.4248 17.1991 60.2194 17.0811 60.9774 16.8451C61.7352 16.6091 62.3952 16.275 62.9586 15.8395V11.5412H58.6054V13.2598H58.6038Z" fill="white"/>
<path d="M67.6874 7.0498L63.562 16.9495H65.643L66.5256 14.7039H71.0666L71.9624 16.9495H74.095L69.9696 7.0498H67.6858H67.6874ZM67.2086 12.9421L68.7976 8.97788L70.3868 12.9421H67.207H67.2086Z" fill="white"/>
<path d="M80.6073 14.5643L77.4027 7.0498H75.0557V16.9478H76.9107V10.2527L79.7863 16.9478H81.3387L84.2141 10.1962V16.9478H86.0941V7.0498H83.7987L80.6073 14.5643Z" fill="white"/>
<path d="M90.0187 12.7609H95.2793V10.9458H90.0187V8.86652H95.5437V7.0498H87.9993V16.9478H95.5703L95.8213 15.1328H90.0187V12.7609Z" fill="white"/>
<path d="M104.717 12.1579C104.203 11.6725 103.397 11.3334 102.295 11.139L100.44 10.8198C99.8266 10.7184 99.4026 10.5838 99.1716 10.4176C98.9406 10.2514 98.8242 9.99208 98.8242 9.64138C98.8242 9.27238 99.0138 8.98982 99.3926 8.79534C99.7716 8.60088 100.319 8.50448 101.033 8.50448C101.665 8.50448 102.157 8.60918 102.509 8.81696C102.863 9.02472 103.128 9.3638 103.304 9.83584L105.26 9.58652C105.049 8.6258 104.608 7.92106 103.935 7.47228C103.262 7.0235 102.311 6.80078 101.085 6.80078C100.194 6.80078 99.426 6.9188 98.7826 7.15482C98.1394 7.39084 97.6492 7.72492 97.3134 8.1604C96.9776 8.59422 96.808 9.10782 96.808 9.69954C96.808 10.5772 97.0922 11.2586 97.659 11.744C98.2276 12.2293 99.125 12.5651 100.353 12.7496L101.868 12.9856C102.406 13.0687 102.798 13.2067 103.048 13.4011C103.295 13.5956 103.42 13.8632 103.42 14.2056C103.42 14.6311 103.232 14.9519 102.858 15.1696C102.484 15.3874 101.927 15.4954 101.186 15.4954C100.362 15.4954 99.7434 15.3458 99.3312 15.045C98.919 14.7441 98.6714 14.2704 98.5866 13.6239H96.5554C96.622 14.4366 96.8314 15.1065 97.1804 15.6334C97.5294 16.1603 98.0348 16.5525 98.6946 16.8118C99.3544 17.0711 100.186 17.1991 101.186 17.1991C102.566 17.1991 103.628 16.9332 104.372 16.4013C105.117 15.8694 105.489 15.1231 105.489 14.1624C105.489 13.3114 105.233 12.6449 104.72 12.1595L104.717 12.1579Z" fill="white"/>
</svg>
