<svg width="548" height="96" viewBox="0 0 548 96" fill="none" xmlns="http://www.w3.org/2000/svg">
<path d="M48.3335 8L8.3335 48L48.3335 88L88.3335 48L48.3335 8Z" fill="#141416"/>
<path d="M76.6605 47.9999L48.3426 19.6753L57.1617 38.536L43.8693 31.5975L48.3426 41.9951L20.0181 47.9999L48.3426 53.9979L43.8693 64.3955L57.1617 57.4571L48.3426 76.3244L76.6605 47.9999Z" fill="#E1FC01"/>
<path d="M156.537 23.2466H144.304L122.097 43.7657V23.2466H112V72.7368H122.097V55.0599L129.984 47.7881L146.764 72.7368H158.432L137.107 41.2725L156.537 23.2466Z" fill="#141416"/>
<path d="M179.25 23.2466L158.623 72.7451H169.028L173.441 61.5173H196.154L200.634 72.7451H211.296L190.669 23.2466H179.25ZM176.857 52.708L184.802 32.887L192.747 52.708H176.848H176.857Z" fill="#141416"/>
<path d="M237.973 23.2466H216.083V72.7368H226.048V55.9575H237.209C243.849 55.9575 248.794 54.6028 252.035 51.9019C255.276 49.2009 256.889 45.0705 256.889 39.5272C256.889 28.6652 250.581 23.2383 237.965 23.2383L237.973 23.2466ZM244.531 45.3946C242.976 46.6661 240.516 47.2977 237.151 47.2977H226.048V31.9063H237.275C240.641 31.9063 243.076 32.5047 244.589 33.7098C246.101 34.9148 246.857 36.8263 246.857 39.4608C246.857 42.0952 246.076 44.1147 244.522 45.3863L244.531 45.3946Z" fill="#141416"/>
<path d="M288.436 54.3036H300.86V62.3484C297.619 64.102 293.456 64.9829 288.369 64.9829C282.984 64.9829 278.903 63.5535 276.136 60.6863C273.36 57.8191 271.972 53.5889 271.972 48.0041C271.972 42.4194 273.285 38.3554 275.912 35.4218C278.538 32.4881 282.253 31.0171 287.048 31.0171C290.289 31.0171 292.907 31.6321 294.902 32.8538C296.896 34.0754 298.342 35.9869 299.223 38.5715L309.312 37.2584C308.008 32.3634 305.464 28.5904 301.683 25.9559C297.902 23.3214 293.106 22.0083 287.297 22.0083C281.995 22.0083 277.408 23.097 273.518 25.2661C269.629 27.4352 266.662 30.4852 264.626 34.4162C262.59 38.3471 261.567 42.9429 261.567 48.2119C261.567 56.2982 263.936 62.6227 268.665 67.1686C273.394 71.7229 279.967 74 288.378 74C292.541 74 296.514 73.4099 300.304 72.2298C304.093 71.0497 307.393 69.3792 310.21 67.2018V45.7104H288.444V54.3036H288.436Z" fill="#141416"/>
<path d="M333.854 23.2466L313.227 72.7451H323.632L328.045 61.5173H350.75L355.229 72.7451H365.892L345.265 23.2466H333.846H333.854ZM331.46 52.708L339.405 32.887L347.351 52.708H331.452H331.46Z" fill="#141416"/>
<path d="M398.453 60.8192L382.43 23.2466H370.695V72.7368H379.97V39.2613L394.348 72.7368H402.11L416.487 38.9787V72.7368H425.887V23.2466H414.41L398.453 60.8192Z" fill="#141416"/>
<path d="M445.508 51.8021H471.811V42.7268H445.508V32.3302H473.133V23.2466H435.411V72.7368H473.266L474.521 63.6615H445.508V51.8021Z" fill="#141416"/>
<path d="M519 48.7854C516.432 46.3586 512.401 44.6633 506.891 43.6909L497.616 42.0953C494.55 41.5883 492.43 40.9151 491.275 40.0841C490.12 39.253 489.538 37.9565 489.538 36.203C489.538 34.358 490.486 32.9452 492.38 31.9728C494.275 31.0005 497.01 30.5185 500.583 30.5185C503.741 30.5185 506.201 31.042 507.963 32.0809C509.733 33.1197 511.055 34.8151 511.935 37.1753L521.717 35.9287C520.662 31.1251 518.459 27.6014 515.094 25.3575C511.728 23.1136 506.974 22 500.841 22C496.386 22 492.547 22.5901 489.33 23.7702C486.114 24.9503 483.663 26.6207 481.984 28.7981C480.305 30.9672 479.457 33.5352 479.457 36.4938C479.457 40.8819 480.878 44.2893 483.712 46.716C486.555 49.1427 491.042 50.8215 497.184 51.744L504.755 52.9241C507.448 53.3396 509.409 54.0294 510.656 55.0018C511.894 55.9741 512.517 57.3121 512.517 59.0241C512.517 61.1517 511.578 62.7556 509.708 63.8443C507.838 64.933 505.054 65.4732 501.348 65.4732C497.226 65.4732 494.134 64.7253 492.073 63.221C490.012 61.7168 488.774 59.3483 488.35 56.1154H478.194C478.527 60.1793 479.574 63.5285 481.319 66.163C483.064 68.7975 485.591 70.7588 488.89 72.0553C492.189 73.3518 496.345 73.9917 501.348 73.9917C508.246 73.9917 513.556 72.662 517.279 70.0026C521.002 67.3431 522.864 63.6116 522.864 58.8081C522.864 54.553 521.584 51.2204 519.016 48.7937L519 48.7854Z" fill="#141416"/>
</svg>
