<svg width="121" height="20" viewBox="0 0 121 20" fill="none" xmlns="http://www.w3.org/2000/svg">
<g clip-path="url(#clip0_405_165)">
<path fill-rule="evenodd" clip-rule="evenodd" d="M12.5236 10.8615C12.5038 10.8347 12.4841 10.8079 12.4644 10.7813L14.5843 9.21777C16.3603 11.6259 17.7523 13.3654 20.4609 13.3654C22.389 13.3654 23.9146 11.8266 23.9146 9.99948H26.5488C26.5488 13.3237 23.8012 15.9995 20.4609 15.9995C16.3115 15.9995 14.192 13.1247 12.5236 10.8615Z" fill="url(#paint0_linear_405_165)"/>
<path fill-rule="evenodd" clip-rule="evenodd" d="M6.58779 6.63414C4.65973 6.63414 3.13414 8.17291 3.13414 9.99998H0.5C0.5 6.67585 3.24757 4 6.58779 4C10.7372 4 12.8567 6.87483 14.5252 9.13797C14.545 9.16482 14.5647 9.19158 14.5843 9.21825L12.4643 10.7817C10.6884 8.37361 9.29643 6.63414 6.58779 6.63414Z" fill="url(#paint1_linear_405_165)"/>
<path fill-rule="evenodd" clip-rule="evenodd" d="M12.5243 9.13797C14.1929 6.87483 16.3124 4 20.4621 4C23.8025 4 26.5502 6.67585 26.5502 9.99998H23.9159C23.9159 8.17291 22.3902 6.63414 20.4621 6.63414C17.7533 6.63414 16.3613 8.37361 14.5852 10.7817C14.5655 10.8084 14.5457 10.8351 14.5259 10.862C12.8573 13.1251 10.7378 16 6.58814 16C3.24773 16 0.5 13.3241 0.5 9.99998H3.13429C3.13429 11.8271 4.65997 13.3658 6.58814 13.3658C9.29694 13.3658 10.6889 11.6263 12.465 9.21825C12.4847 9.19158 12.5045 9.16482 12.5243 9.13797Z" fill="url(#paint2_linear_405_165)"/>
<path d="M33.4248 15.9739V4H34.9943V14.4121H39.899V15.9739H33.4248ZM41.4741 6.49891V4.83297H43.0437V6.49891H41.4741ZM41.4741 15.9739V7.33189H43.0437V15.9739H41.4741ZM62.6794 6.49891V4.83297H64.2489V6.49891H62.6794ZM62.6794 15.9739V7.33189H64.2489V15.9739H62.6794ZM51.8532 10.4815C51.8042 10.1431 51.7306 9.77875 51.608 9.41431C51.4854 9.04989 51.2892 8.7115 51.0685 8.39913C50.8233 8.08677 50.529 7.82647 50.1366 7.64425C49.7442 7.46204 49.2783 7.35792 48.7143 7.35792C47.9786 7.35792 47.3655 7.5141 46.8505 7.8525C46.6053 8.00868 46.4091 8.19089 46.2129 8.39913V7.35792H44.6433V16H46.2129V11.705H46.2374C46.2374 11.1844 46.2864 10.7679 46.4091 10.4035C46.5071 10.0391 46.6543 9.75271 46.8505 9.54447C47.0467 9.33623 47.2674 9.18004 47.5126 9.07592C47.7579 8.9718 48.0276 8.91974 48.3219 8.91974C48.7633 8.91974 49.1066 9.02386 49.3764 9.20607C49.6461 9.38828 49.8423 9.64859 50.0139 9.93493C50.1611 10.2473 50.2592 10.5596 50.3083 10.9241C50.3573 11.2885 50.3818 11.6269 50.3818 11.9653V16H51.9759V11.3926C51.9268 11.1323 51.9022 10.8199 51.8532 10.4815ZM91.4866 10.4815C91.4378 10.1431 91.3641 9.77875 91.2415 9.41431C91.1189 9.04989 90.9226 8.7115 90.7023 8.39913C90.4572 8.08677 90.1623 7.82647 89.7706 7.64425C89.3781 7.46204 88.9118 7.35792 88.3478 7.35792C87.6123 7.35792 86.9995 7.5141 86.4843 7.8525C86.2392 8.00868 86.0427 8.19089 85.8465 8.39913V7.35792H84.277V16H85.8465V11.705H85.8711C85.8711 11.1844 85.9201 10.7679 86.0427 10.4035C86.1408 10.0391 86.2881 9.75271 86.4843 9.54447C86.6806 9.33623 86.9009 9.18004 87.1461 9.07592C87.3912 8.9718 87.6612 8.91974 87.9552 8.91974C88.3966 8.91974 88.7403 9.02386 89.0103 9.20607C89.2795 9.38828 89.4758 9.64859 89.6232 9.93493C89.7706 10.2473 89.8683 10.5596 89.9172 10.9241C89.9661 11.2885 89.9909 11.6269 89.9909 11.9653V16H91.5852V11.3926C91.5603 11.1323 91.5363 10.8199 91.4866 10.4815ZM60.4666 12.0955H61.2513C61.3004 11.1063 61.2023 10.2733 60.9081 9.54447C60.6137 8.84165 60.1723 8.26898 59.6083 7.90455C59.0198 7.5141 58.3086 7.33189 57.4993 7.33189C56.7146 7.33189 56.0034 7.5141 55.4148 7.87853C54.8263 8.24295 54.3603 8.73753 54.017 9.41431C53.6737 10.0651 53.5265 10.846 53.5265 11.731C53.5265 12.564 53.6982 13.3189 54.0415 13.9696C54.3849 14.6204 54.8508 15.115 55.4638 15.4534C56.0769 15.8178 56.7881 16 57.5973 16C58.3821 16 59.0933 15.7918 59.7555 15.4013C60.393 15.0109 60.8835 14.4382 61.2023 13.7093L59.6573 13.2147C59.4611 13.6312 59.1669 13.9696 58.8236 14.1779C58.4557 14.4121 58.0388 14.5163 57.5483 14.5163C56.7881 14.5163 56.2241 14.282 55.8317 13.7875C55.5129 13.371 55.3167 12.8243 55.2676 12.1475H59.7555H60.4666V12.0955ZM55.7582 9.49241C56.1505 8.99783 56.7391 8.73753 57.5238 8.73753C58.235 8.73753 58.7745 8.97181 59.1178 9.41431C59.3631 9.72668 59.5347 10.1953 59.6083 10.7679H55.2186C55.3167 10.2473 55.5129 9.8308 55.7582 9.49241ZM69.6007 15.9739C68.7669 15.9739 68.0558 15.7918 67.4672 15.4013C66.8787 15.0369 66.4372 14.5163 66.1184 13.8655C65.7996 13.2147 65.6524 12.4598 65.6524 11.6529C65.6524 10.8199 65.8241 10.0651 66.1429 9.41431C66.4617 8.76356 66.9032 8.24295 67.4917 7.87853C68.0803 7.5141 68.7915 7.33189 69.6007 7.33189C70.4835 7.33189 71.2437 7.56616 71.8814 8.00868C72.519 8.45119 72.9358 9.07592 73.132 9.8308L71.5626 10.2733C71.4154 9.80478 71.1457 9.46638 70.8023 9.20607C70.459 8.94577 70.0421 8.81562 69.5762 8.81562C69.0612 8.81562 68.6443 8.94577 68.301 9.18004C67.9576 9.41431 67.7124 9.75271 67.5652 10.1953C67.3936 10.6117 67.32 11.1063 67.32 11.6529C67.32 12.4859 67.5162 13.1887 67.9086 13.7093C68.2764 14.2299 68.8405 14.4902 69.6007 14.4902C70.1157 14.4902 70.5081 14.3601 70.8268 14.1258C71.1457 13.8915 71.3909 13.5531 71.538 13.1107L73.132 13.5011C72.8623 14.308 72.4209 14.9067 71.8078 15.3493C71.2192 15.7657 70.459 15.9739 69.6007 15.9739ZM78.7046 15.9739C77.8953 15.9739 77.1841 15.7918 76.5956 15.4273C76.007 15.0629 75.541 14.5423 75.2223 13.8915C74.9034 13.2408 74.7318 12.4859 74.7318 11.6529C74.7318 10.7939 74.9034 10.0391 75.2223 9.38828C75.5656 8.73753 76.007 8.24295 76.6201 7.87853C77.2086 7.5141 77.9198 7.33189 78.7046 7.33189C79.5138 7.33189 80.225 7.5141 80.8136 7.87853C81.4021 8.24295 81.868 8.76356 82.2114 9.41431C82.5302 10.0651 82.7019 10.8199 82.7019 11.6529C82.7019 12.5119 82.5302 13.2668 82.2114 13.9176C81.8925 14.5683 81.4266 15.0629 80.8136 15.4534C80.2005 15.7918 79.5138 15.9739 78.7046 15.9739ZM78.7046 14.4902C79.4893 14.4902 80.0534 14.2299 80.4457 13.7093C80.8381 13.1887 81.0343 12.5119 81.0343 11.6529C81.0343 10.7939 80.8381 10.1172 80.4457 9.59653C80.0534 9.07592 79.4893 8.81562 78.7046 8.81562C78.165 8.81562 77.7482 8.94577 77.4048 9.18004C77.0615 9.41431 76.8163 9.75271 76.6446 10.1692C76.4729 10.5857 76.3994 11.0803 76.3994 11.6269C76.3994 12.4859 76.5956 13.1627 76.9879 13.6833C77.3558 14.2299 77.9444 14.4902 78.7046 14.4902ZM96.6672 15.9739C95.6858 15.9739 94.8766 15.7657 94.2389 15.3232C93.6261 14.8807 93.2335 14.256 93.0869 13.475L94.7052 13.2147C94.8029 13.6312 95.0489 13.9696 95.3918 14.2299C95.7595 14.4642 96.2009 14.5944 96.7409 14.5944C97.2312 14.5944 97.6238 14.4902 97.8929 14.282C98.1629 14.0737 98.3103 13.8134 98.3103 13.4491C98.3103 13.2408 98.2606 13.0846 98.1629 12.9545C98.0652 12.8243 97.8689 12.6942 97.5501 12.59C97.2312 12.4859 96.7649 12.3297 96.1272 12.1475C95.4406 11.9653 94.8766 11.7571 94.4601 11.5488C94.0426 11.3406 93.7486 11.0803 93.5772 10.8199C93.4058 10.5337 93.3072 10.1953 93.3072 9.80478C93.3072 9.3102 93.4298 8.86768 93.6998 8.50326C93.9698 8.13883 94.3375 7.8525 94.8029 7.64425C95.2692 7.43601 95.8332 7.33189 96.4709 7.33189C97.0838 7.33189 97.6478 7.43601 98.1381 7.61822C98.6292 7.82647 99.0209 8.08677 99.3158 8.45119C99.6098 8.81562 99.8061 9.2321 99.8549 9.72668L98.2366 10.013C98.1878 9.62256 97.9915 9.3102 97.6966 9.07592C97.3778 8.84165 96.9861 8.7115 96.4958 8.7115C96.0295 8.68547 95.6369 8.76355 95.3429 8.94577C95.0489 9.12799 94.9015 9.36226 94.9015 9.67462C94.9015 9.85683 94.9503 10.013 95.0729 10.1431C95.1955 10.2733 95.4166 10.4035 95.7355 10.5076C96.0543 10.6117 96.5446 10.7679 97.1823 10.9241C97.8689 11.1063 98.4081 11.2885 98.8006 11.5228C99.1932 11.731 99.4872 11.9913 99.6586 12.2777C99.8309 12.564 99.9286 12.9284 99.9286 13.3449C99.9286 14.1518 99.6346 14.8026 99.0458 15.2451C98.5066 15.7397 97.6966 15.9739 96.6672 15.9739Z" fill="white"/>
</g>
<defs>
<linearGradient id="paint0_linear_405_165" x1="12.4642" y1="12.6193" x2="26.5488" y2="12.6193" gradientUnits="userSpaceOnUse">
<stop stop-color="#003FFF"/>
<stop offset="0.6883" stop-color="#690AFF"/>
</linearGradient>
<linearGradient id="paint1_linear_405_165" x1="0.5" y1="7.39086" x2="14.5952" y2="7.39086" gradientUnits="userSpaceOnUse">
<stop offset="0.2862" stop-color="#E843A1"/>
<stop offset="1" stop-color="#003FFF"/>
</linearGradient>
<linearGradient id="paint2_linear_405_165" x1="0.5" y1="9.99998" x2="26.5604" y2="9.99998" gradientUnits="userSpaceOnUse">
<stop offset="0.16" stop-color="#E843A1"/>
<stop offset="0.84" stop-color="#690AFF"/>
</linearGradient>
<clipPath id="clip0_405_165">
<rect width="120" height="20" fill="white" transform="translate(0.5)"/>
</clipPath>
</defs>
</svg>
