<svg width="120" height="20" viewBox="0 0 120 20" fill="none" xmlns="http://www.w3.org/2000/svg">
<path fill-rule="evenodd" clip-rule="evenodd" d="M14.0275 11.0057C14.0044 10.9744 13.9814 10.9432 13.9584 10.9121L16.4317 9.08801C18.5037 11.8975 20.1277 13.9269 23.2877 13.9269C25.5371 13.9269 27.317 12.1316 27.317 10H30.3902C30.3902 13.8782 27.1847 17 23.2877 17C18.4467 17 15.974 13.6461 14.0275 11.0057Z" fill="url(#paint0_linear)"/>
<path fill-rule="evenodd" clip-rule="evenodd" d="M7.10242 6.07316C4.85302 6.07316 3.07316 7.8684 3.07316 9.99998H0C0 6.12182 3.2055 3 7.10242 3C11.9434 3 14.4161 6.35397 16.3627 8.9943C16.3858 9.02562 16.4088 9.05684 16.4317 9.08796L13.9584 10.912C11.8865 8.10255 10.2625 6.07316 7.10242 6.07316Z" fill="url(#paint1_linear)"/>
<path fill-rule="evenodd" clip-rule="evenodd" d="M14.0283 8.9943C15.975 6.35397 18.4478 3 23.2891 3C27.1862 3 30.3919 6.12182 30.3919 9.99998H27.3186C27.3186 7.8684 25.5386 6.07316 23.2891 6.07316C20.1288 6.07316 18.5048 8.10255 16.4327 10.912C16.4097 10.9431 16.3867 10.9743 16.3636 11.0057C14.4169 13.646 11.9441 17 7.10283 17C3.20568 17 0 13.8781 0 9.99998H3.07334C3.07334 12.1316 4.8533 13.9268 7.10283 13.9268C10.2631 13.9268 11.8871 11.8974 13.9592 9.08796C13.9822 9.05684 14.0052 9.02562 14.0283 8.9943Z" fill="url(#paint2_linear)"/>
<path d="M38.4122 16.9696V3H40.2433V15.1475H45.9654V16.9696H38.4122ZM47.8031 5.9154V3.9718H49.6342V5.9154H47.8031ZM47.8031 16.9696V6.8872H49.6342V16.9696H47.8031ZM72.5426 5.9154V3.9718H74.3737V5.9154H72.5426ZM72.5426 16.9696V6.8872H74.3737V16.9696H72.5426ZM59.912 10.5618C59.8548 10.167 59.769 9.74187 59.6259 9.3167C59.4829 8.89154 59.254 8.49675 58.9965 8.13232C58.7104 7.7679 58.3671 7.46421 57.9093 7.25163C57.4515 7.03905 56.9079 6.91757 56.2499 6.91757C55.3916 6.91757 54.6763 7.09978 54.0755 7.49458C53.7894 7.67679 53.5605 7.88937 53.3316 8.13232V6.91757H51.5005V17H53.3316V11.9892H53.3602C53.3602 11.3818 53.4174 10.8959 53.5605 10.4707C53.6749 10.0456 53.8466 9.7115 54.0755 9.46855C54.3044 9.2256 54.5619 9.04338 54.848 8.92191C55.1341 8.80043 55.4488 8.7397 55.7921 8.7397C56.3071 8.7397 56.7076 8.86117 57.0224 9.07375C57.3371 9.28633 57.566 9.59002 57.7662 9.92408C57.9379 10.2885 58.0523 10.6529 58.1096 11.0781C58.1668 11.5033 58.1954 11.898 58.1954 12.2928V17H60.0551V11.6247C59.9979 11.321 59.9692 10.9566 59.912 10.5618ZM106.151 10.5618C106.094 10.167 106.008 9.74187 105.865 9.3167C105.722 8.89154 105.493 8.49675 105.236 8.13232C104.95 7.7679 104.606 7.46421 104.149 7.25163C103.691 7.03905 103.147 6.91757 102.489 6.91757C101.631 6.91757 100.916 7.09978 100.315 7.49458C100.029 7.67679 99.7998 7.88937 99.5709 8.13232V6.91757H97.7398V17H99.5709V11.9892H99.5995C99.5995 11.3818 99.6567 10.8959 99.7998 10.4707C99.9142 10.0456 100.086 9.7115 100.315 9.46855C100.544 9.2256 100.801 9.04338 101.087 8.92191C101.373 8.80043 101.688 8.7397 102.031 8.7397C102.546 8.7397 102.947 8.86117 103.262 9.07375C103.576 9.28633 103.805 9.59002 103.977 9.92408C104.149 10.2885 104.263 10.6529 104.32 11.0781C104.377 11.5033 104.406 11.898 104.406 12.2928V17H106.266V11.6247C106.237 11.321 106.209 10.9566 106.151 10.5618ZM69.961 12.4447H70.8765C70.9337 11.2907 70.8193 10.3189 70.476 9.46855C70.1326 8.64859 69.6176 7.98048 68.9596 7.55531C68.273 7.09978 67.4433 6.8872 66.4991 6.8872C65.5836 6.8872 64.7539 7.09978 64.0672 7.52495C63.3806 7.95011 62.837 8.52712 62.4364 9.3167C62.0359 10.0759 61.8642 10.987 61.8642 12.0195C61.8642 12.9913 62.0645 13.872 62.465 14.6312C62.8656 15.3905 63.4092 15.9675 64.1244 16.3623C64.8397 16.7874 65.6694 17 66.6135 17C67.5291 17 68.3588 16.7571 69.1313 16.3015C69.8751 15.846 70.4473 15.1779 70.8193 14.3275L69.0168 13.7505C68.7879 14.2364 68.4446 14.6312 68.0441 14.8742C67.6149 15.1475 67.1285 15.269 66.5563 15.269C65.6694 15.269 65.0114 14.9957 64.5536 14.4187C64.1817 13.9328 63.9528 13.295 63.8955 12.5054H69.1313H69.961V12.4447ZM64.4678 9.40781C64.9255 8.8308 65.6122 8.52712 66.5277 8.52712C67.3574 8.52712 67.9868 8.80044 68.3874 9.3167C68.6735 9.68113 68.8738 10.2278 68.9596 10.8959H63.8383C63.9528 10.2885 64.1817 9.8026 64.4678 9.40781ZM80.6174 16.9696C79.6447 16.9696 78.815 16.7571 78.1283 16.3015C77.4417 15.8764 76.9267 15.269 76.5547 14.5098C76.1828 13.7505 76.0111 12.8698 76.0111 11.9284C76.0111 10.9566 76.2114 10.0759 76.5833 9.3167C76.9553 8.55749 77.4703 7.95011 78.1569 7.52495C78.8436 7.09978 79.6733 6.8872 80.6174 6.8872C81.6474 6.8872 82.5343 7.16052 83.2782 7.67679C84.0221 8.19306 84.5084 8.92191 84.7373 9.8026L82.9063 10.3189C82.7346 9.77224 82.4199 9.37744 82.0193 9.07375C81.6188 8.77007 81.1324 8.61822 80.5888 8.61822C79.988 8.61822 79.5016 8.77007 79.1011 9.04338C78.7005 9.3167 78.4144 9.7115 78.2427 10.2278C78.0425 10.7137 77.9566 11.2907 77.9566 11.9284C77.9566 12.9002 78.1855 13.7202 78.6433 14.3275C79.0724 14.9349 79.7305 15.2386 80.6174 15.2386C81.2182 15.2386 81.676 15.0868 82.0479 14.8134C82.4199 14.5401 82.706 14.1453 82.8776 13.6291L84.7373 14.0846C84.4226 15.026 83.9076 15.7245 83.1924 16.2408C82.5057 16.7267 81.6188 16.9696 80.6174 16.9696ZM91.2386 16.9696C90.2944 16.9696 89.4647 16.7571 88.7781 16.3319C88.0914 15.9067 87.5478 15.2993 87.1759 14.5401C86.8039 13.7809 86.6037 12.9002 86.6037 11.9284C86.6037 10.9262 86.8039 10.0456 87.1759 9.28633C87.5764 8.52712 88.0914 7.95011 88.8067 7.52495C89.4933 7.09978 90.323 6.8872 91.2386 6.8872C92.1827 6.8872 93.0124 7.09978 93.6991 7.52495C94.3857 7.95011 94.9293 8.55749 95.3299 9.3167C95.7018 10.0759 95.9021 10.9566 95.9021 11.9284C95.9021 12.9306 95.7018 13.8113 95.3299 14.5705C94.9579 15.3297 94.4143 15.9067 93.6991 16.3623C92.9838 16.7571 92.1827 16.9696 91.2386 16.9696ZM91.2386 15.2386C92.1541 15.2386 92.8122 14.9349 93.2699 14.3275C93.7277 13.7202 93.9566 12.9306 93.9566 11.9284C93.9566 10.9262 93.7277 10.1367 93.2699 9.52928C92.8122 8.92191 92.1541 8.61822 91.2386 8.61822C90.6091 8.61822 90.1228 8.77007 89.7222 9.04338C89.3217 9.3167 89.0356 9.7115 88.8353 10.1974C88.635 10.6833 88.5492 11.2603 88.5492 11.898C88.5492 12.9002 88.7781 13.6898 89.2358 14.2972C89.665 14.9349 90.3517 15.2386 91.2386 15.2386ZM112.195 16.9696C111.05 16.9696 110.106 16.7267 109.362 16.2104C108.647 15.6941 108.189 14.9653 108.018 14.0542L109.906 13.7505C110.02 14.2364 110.307 14.6312 110.707 14.9349C111.136 15.2082 111.651 15.3601 112.281 15.3601C112.853 15.3601 113.311 15.2386 113.625 14.9957C113.94 14.7527 114.112 14.449 114.112 14.0239C114.112 13.7809 114.054 13.5987 113.94 13.4469C113.826 13.295 113.597 13.1432 113.225 13.0217C112.853 12.9002 112.309 12.718 111.565 12.5054C110.764 12.2928 110.106 12.0499 109.62 11.8069C109.133 11.564 108.79 11.2603 108.59 10.9566C108.39 10.6226 108.275 10.2278 108.275 9.77224C108.275 9.19523 108.418 8.67896 108.733 8.2538C109.048 7.82863 109.477 7.49458 110.02 7.25163C110.564 7.00868 111.222 6.8872 111.966 6.8872C112.681 6.8872 113.339 7.00868 113.911 7.22126C114.484 7.46421 114.941 7.7679 115.285 8.19306C115.628 8.61822 115.857 9.10412 115.914 9.68113L114.026 10.0152C113.969 9.55965 113.74 9.19523 113.396 8.92191C113.024 8.64859 112.567 8.49675 111.995 8.49675C111.451 8.46638 110.993 8.55748 110.65 8.77007C110.307 8.98265 110.135 9.25597 110.135 9.62039C110.135 9.83297 110.192 10.0152 110.335 10.167C110.478 10.3189 110.736 10.4707 111.108 10.5922C111.48 10.7137 112.052 10.8959 112.796 11.0781C113.597 11.2907 114.226 11.5033 114.684 11.7766C115.142 12.0195 115.485 12.3232 115.685 12.6573C115.886 12.9913 116 13.4165 116 13.9024C116 14.8438 115.657 15.603 114.97 16.1193C114.341 16.6963 113.396 16.9696 112.195 16.9696Z" fill="black"/>
<defs>
<linearGradient id="paint0_linear" x1="13.9582" y1="13.0564" x2="30.3902" y2="13.0564" gradientUnits="userSpaceOnUse">
<stop stop-color="#003FFF"/>
<stop offset="0.6883" stop-color="#690AFF"/>
</linearGradient>
<linearGradient id="paint1_linear" x1="0" y1="6.956" x2="16.4444" y2="6.956" gradientUnits="userSpaceOnUse">
<stop offset="0.2862" stop-color="#E843A1"/>
<stop offset="1" stop-color="#003FFF"/>
</linearGradient>
<linearGradient id="paint2_linear" x1="0" y1="9.99998" x2="30.4038" y2="9.99998" gradientUnits="userSpaceOnUse">
<stop offset="0.16" stop-color="#E843A1"/>
<stop offset="0.84" stop-color="#690AFF"/>
</linearGradient>
</defs>
</svg>
