<svg width="369" height="72" viewBox="0 0 369 72" fill="none" xmlns="http://www.w3.org/2000/svg">
<path d="M16 54.22L27.44 16.78H37.996L49.436 54.22H42.156L31.964 21.2H33.316L23.28 54.22H16ZM22.864 46.42V39.816H42.624V46.42H22.864Z" fill="black"/>
<path d="M73.2321 54.22V40.96C73.2321 40.3187 73.1974 39.504 73.1281 38.516C73.0588 37.5107 72.8421 36.5053 72.4781 35.5C72.1141 34.4947 71.5161 33.654 70.6841 32.978C69.8694 32.302 68.7081 31.964 67.2001 31.964C66.5934 31.964 65.9434 32.0593 65.2501 32.25C64.5568 32.4407 63.9068 32.8133 63.3001 33.368C62.6934 33.9053 62.1908 34.7027 61.7921 35.76C61.4108 36.8173 61.2201 38.2213 61.2201 39.972L57.1641 38.048C57.1641 35.8293 57.6148 33.7493 58.5161 31.808C59.4174 29.8667 60.7694 28.298 62.5721 27.102C64.3921 25.906 66.6801 25.308 69.4361 25.308C71.6374 25.308 73.4314 25.6807 74.8181 26.426C76.2048 27.1713 77.2794 28.116 78.0421 29.26C78.8221 30.404 79.3768 31.6 79.7061 32.848C80.0354 34.0787 80.2348 35.2053 80.3041 36.228C80.3734 37.2507 80.4081 37.996 80.4081 38.464V54.22H73.2321ZM54.0441 54.22V26.14H60.3361V35.448H61.2201V54.22H54.0441Z" fill="black"/>
<path d="M94.9547 55C92.944 55 91.2367 54.6187 89.8327 53.856C88.446 53.076 87.3887 52.0447 86.6607 50.762C85.95 49.462 85.5947 48.032 85.5947 46.472C85.5947 45.172 85.794 43.9847 86.1927 42.91C86.5914 41.8353 87.2327 40.8907 88.1167 40.076C89.018 39.244 90.2227 38.5507 91.7307 37.996C92.7707 37.6147 94.01 37.2767 95.4487 36.982C96.8874 36.6873 98.5167 36.41 100.337 36.15C102.157 35.8727 104.159 35.5693 106.343 35.24L103.795 36.644C103.795 34.98 103.396 33.758 102.599 32.978C101.801 32.198 100.467 31.808 98.5947 31.808C97.5547 31.808 96.4714 32.0593 95.3447 32.562C94.218 33.0647 93.4294 33.9573 92.9787 35.24L86.5827 33.212C87.2934 30.8893 88.628 29 90.5867 27.544C92.5454 26.088 95.2147 25.36 98.5947 25.36C101.073 25.36 103.275 25.7413 105.199 26.504C107.123 27.2667 108.579 28.584 109.567 30.456C110.121 31.496 110.451 32.536 110.555 33.576C110.659 34.616 110.711 35.7773 110.711 37.06V54.22H104.523V48.448L105.407 49.644C104.037 51.5333 102.555 52.9027 100.961 53.752C99.3834 54.584 97.3814 55 94.9547 55ZM96.4627 49.436C97.7627 49.436 98.8547 49.2107 99.7387 48.76C100.64 48.292 101.351 47.7633 101.871 47.174C102.408 46.5847 102.772 46.0907 102.963 45.692C103.327 44.9293 103.535 44.0453 103.587 43.04C103.656 42.0173 103.691 41.168 103.691 40.492L105.771 41.012C103.673 41.3587 101.975 41.6533 100.675 41.896C99.3747 42.1213 98.326 42.3293 97.5287 42.52C96.7314 42.7107 96.0294 42.9187 95.4227 43.144C94.7294 43.4213 94.166 43.7247 93.7327 44.054C93.3167 44.366 93.0047 44.7127 92.7967 45.094C92.606 45.4753 92.5107 45.9 92.5107 46.368C92.5107 47.0093 92.6667 47.564 92.9787 48.032C93.308 48.4827 93.7674 48.8293 94.3567 49.072C94.946 49.3147 95.648 49.436 96.4627 49.436Z" fill="black"/>
<path d="M151.271 54.22V37.632C151.271 35.7773 150.829 34.3387 149.945 33.316C149.078 32.276 147.874 31.756 146.331 31.756C145.343 31.756 144.485 31.99 143.757 32.458C143.029 32.9087 142.457 33.55 142.041 34.382C141.642 35.1967 141.443 36.1413 141.443 37.216L138.479 35.24C138.479 33.316 138.93 31.6173 139.831 30.144C140.75 28.6707 141.972 27.5267 143.497 26.712C145.04 25.88 146.747 25.464 148.619 25.464C151.826 25.464 154.244 26.4173 155.873 28.324C157.52 30.2133 158.343 32.692 158.343 35.76V54.22H151.271ZM117.419 54.22V26.14H123.659V35.448H124.543V54.22H117.419ZM134.371 54.22V37.632C134.371 35.7773 133.929 34.3387 133.045 33.316C132.178 32.276 130.974 31.756 129.431 31.756C127.958 31.756 126.77 32.2673 125.869 33.29C124.985 34.2953 124.543 35.604 124.543 37.216L121.579 35.136C121.579 33.2987 122.038 31.652 122.957 30.196C123.876 28.74 125.106 27.5873 126.649 26.738C128.209 25.8887 129.951 25.464 131.875 25.464C134.076 25.464 135.879 25.932 137.283 26.868C138.704 27.804 139.753 29.052 140.429 30.612C141.105 32.172 141.443 33.888 141.443 35.76V54.22H134.371Z" fill="black"/>
<path d="M177.232 55C174.407 55 171.928 54.3673 169.796 53.102C167.664 51.8367 166 50.0947 164.804 47.876C163.625 45.64 163.036 43.0747 163.036 40.18C163.036 37.2507 163.643 34.6767 164.856 32.458C166.069 30.222 167.742 28.48 169.874 27.232C172.006 25.984 174.459 25.36 177.232 25.36C180.057 25.36 182.536 25.9927 184.668 27.258C186.817 28.5233 188.49 30.274 189.686 32.51C190.882 34.7287 191.48 37.2853 191.48 40.18C191.48 43.092 190.873 45.666 189.66 47.902C188.464 50.1207 186.791 51.8627 184.642 53.128C182.51 54.376 180.04 55 177.232 55ZM177.232 48.396C179.503 48.396 181.193 47.6333 182.302 46.108C183.429 44.5653 183.992 42.5893 183.992 40.18C183.992 37.684 183.42 35.6907 182.276 34.2C181.149 32.7093 179.468 31.964 177.232 31.964C175.689 31.964 174.424 32.3107 173.436 33.004C172.448 33.6973 171.711 34.6593 171.226 35.89C170.758 37.1207 170.524 38.5507 170.524 40.18C170.524 42.6933 171.087 44.6953 172.214 46.186C173.358 47.6593 175.031 48.396 177.232 48.396Z" fill="black"/>
<path d="M207.65 55.052C205.448 55.052 203.654 54.6793 202.268 53.934C200.881 53.1887 199.798 52.244 199.018 51.1C198.255 49.956 197.709 48.7687 197.38 47.538C197.05 46.29 196.851 45.1547 196.782 44.132C196.712 43.1093 196.678 42.364 196.678 41.896V26.14H203.854V39.4C203.854 40.0413 203.888 40.8647 203.958 41.87C204.027 42.858 204.244 43.8547 204.608 44.86C204.972 45.8653 205.561 46.706 206.376 47.382C207.208 48.058 208.378 48.396 209.886 48.396C210.492 48.396 211.142 48.3007 211.836 48.11C212.529 47.9193 213.179 47.5553 213.786 47.018C214.392 46.4633 214.886 45.6573 215.268 44.6C215.666 43.5253 215.866 42.1213 215.866 40.388L219.922 42.312C219.922 44.5307 219.471 46.6107 218.57 48.552C217.668 50.4933 216.308 52.062 214.488 53.258C212.685 54.454 210.406 55.052 207.65 55.052ZM216.75 54.22V44.912H215.866V26.14H222.99V54.22H216.75Z" fill="black"/>
<path d="M230.776 54.22V16H237.848V54.22H230.776Z" fill="black"/>
<path d="M245.848 54.22V16.78H259.966C260.33 16.78 260.72 16.7973 261.136 16.832C261.57 16.8493 262.02 16.9013 262.488 16.988C264.36 17.2827 265.964 17.9587 267.298 19.016C268.65 20.056 269.682 21.3733 270.392 22.968C271.103 24.5453 271.458 26.2873 271.458 28.194C271.458 30.95 270.722 33.3507 269.248 35.396C267.775 37.4413 265.721 38.7413 263.086 39.296L262.228 39.634H248.838V54.22H245.848ZM268.91 54.22L261.526 38.984L264.308 37.58L272.42 54.22H268.91ZM248.838 36.696H259.914C260.226 36.696 260.582 36.6787 260.98 36.644C261.396 36.6093 261.812 36.5573 262.228 36.488C263.58 36.2107 264.707 35.6647 265.608 34.85C266.51 34.018 267.186 33.0213 267.636 31.86C268.087 30.6987 268.312 29.4767 268.312 28.194C268.312 26.9113 268.087 25.698 267.636 24.554C267.186 23.3927 266.51 22.4047 265.608 21.59C264.707 20.758 263.58 20.2033 262.228 19.926C261.812 19.8393 261.396 19.7787 260.98 19.744C260.582 19.7093 260.226 19.692 259.914 19.692H248.838V36.696Z" fill="#7D7D7D"/>
<path d="M289.663 55C286.872 55 284.506 54.3673 282.565 53.102C280.624 51.8367 279.142 50.086 278.119 47.85C277.096 45.614 276.585 43.04 276.585 40.128C276.585 37.1987 277.105 34.6247 278.145 32.406C279.185 30.17 280.676 28.4367 282.617 27.206C284.576 25.9753 286.924 25.36 289.663 25.36C292.454 25.36 294.82 25.9927 296.761 27.258C298.72 28.506 300.202 30.2393 301.207 32.458C302.23 34.6767 302.741 37.2333 302.741 40.128C302.741 43.092 302.23 45.692 301.207 47.928C300.184 50.1467 298.694 51.88 296.735 53.128C294.776 54.376 292.419 55 289.663 55ZM289.663 52.088C292.974 52.088 295.444 50.9787 297.073 48.76C298.72 46.5413 299.543 43.664 299.543 40.128C299.543 36.5227 298.72 33.6453 297.073 31.496C295.426 29.3467 292.956 28.272 289.663 28.272C287.427 28.272 285.581 28.7833 284.125 29.806C282.669 30.8113 281.577 32.2067 280.849 33.992C280.138 35.76 279.783 37.8053 279.783 40.128C279.783 43.7333 280.615 46.628 282.279 48.812C283.96 50.996 286.422 52.088 289.663 52.088Z" fill="#7D7D7D"/>
<path d="M319.252 54.87C317.709 54.87 316.322 54.6447 315.092 54.194C313.878 53.7433 312.821 53.1107 311.92 52.296C311.018 51.464 310.273 50.4933 309.684 49.384C309.094 48.2573 308.652 47.0267 308.358 45.692C308.08 44.3573 307.942 42.962 307.942 41.506V26.14H310.958V40.752C310.958 42.52 311.131 44.0973 311.478 45.484C311.842 46.8707 312.379 48.0493 313.09 49.02C313.818 49.9907 314.719 50.7273 315.794 51.23C316.886 51.7327 318.168 51.984 319.642 51.984C321.167 51.984 322.484 51.724 323.594 51.204C324.72 50.6667 325.639 49.9213 326.35 48.968C327.078 48.0147 327.615 46.888 327.962 45.588C328.326 44.2707 328.508 42.8407 328.508 41.298L330.874 41.584C330.874 44.6173 330.354 47.122 329.314 49.098C328.291 51.0567 326.904 52.5127 325.154 53.466C323.403 54.402 321.436 54.87 319.252 54.87ZM328.794 54.22V47.902H328.508V26.14H331.524V54.22H328.794Z" fill="#7D7D7D"/>
<path d="M341.69 54.22V23.514C341.69 22.786 341.725 22.0927 341.794 21.434C341.881 20.7753 342.045 20.1513 342.288 19.562C342.548 18.9727 342.912 18.418 343.38 17.898C343.865 17.378 344.403 16.9793 344.992 16.702C345.599 16.4247 346.24 16.2427 346.916 16.156C347.592 16.052 348.303 16 349.048 16H352.662V18.6H349.308C347.765 18.6 346.604 18.9727 345.824 19.718C345.061 20.4633 344.68 21.694 344.68 23.41V54.22H341.69ZM336.698 28.87V26.14H352.662V28.87H336.698Z" fill="#7D7D7D"/>
</svg>
