<svg width="173" height="36" viewBox="0 0 173 36" fill="none" xmlns="http://www.w3.org/2000/svg">
<path d="M8.5 27.1101L14.22 8.39014H19.498L25.218 27.1101H21.578L16.482 10.6001H17.158L12.14 27.1101H8.5ZM11.932 23.2101V19.9081H21.812V23.2101H11.932Z" fill="#A4FFCA"/>
<path d="M36.116 27.1098V20.4798C36.116 20.1592 36.0986 19.7518 36.064 19.2578C36.0293 18.7552 35.921 18.2525 35.739 17.7498C35.557 17.2472 35.258 16.8268 34.842 16.4888C34.4346 16.1508 33.854 15.9818 33.1 15.9818C32.7966 15.9818 32.4716 16.0295 32.125 16.1248C31.7783 16.2202 31.4533 16.4065 31.15 16.6838C30.8466 16.9525 30.5953 17.3512 30.396 17.8798C30.2053 18.4085 30.11 19.1105 30.11 19.9858L28.082 19.0238C28.082 17.9145 28.3073 16.8745 28.758 15.9038C29.2086 14.9332 29.8846 14.1488 30.786 13.5508C31.696 12.9528 32.84 12.6538 34.218 12.6538C35.3186 12.6538 36.2156 12.8402 36.909 13.2128C37.6023 13.5855 38.1396 14.0578 38.521 14.6298C38.911 15.2018 39.1883 15.7998 39.353 16.4238C39.5176 17.0392 39.6173 17.6025 39.652 18.1138C39.6866 18.6252 39.704 18.9978 39.704 19.2318V27.1098H36.116ZM26.522 27.1098V13.0698H29.668V17.7238H30.11V27.1098H26.522Z" fill="#A4FFCA"/>
<path d="M45.9774 27.5002C44.972 27.5002 44.1184 27.3095 43.4164 26.9282C42.723 26.5382 42.1944 26.0225 41.8304 25.3812C41.475 24.7312 41.2974 24.0162 41.2974 23.2362C41.2974 22.5862 41.397 21.9925 41.5964 21.4552C41.7957 20.9178 42.1164 20.4455 42.5584 20.0382C43.009 19.6222 43.6114 19.2755 44.3654 18.9982C44.8854 18.8075 45.505 18.6385 46.2244 18.4912C46.9437 18.3438 47.7584 18.2052 48.6684 18.0752C49.5784 17.9365 50.5795 17.7848 51.6715 17.6202L50.3974 18.3222C50.3974 17.4902 50.198 16.8792 49.7994 16.4892C49.4007 16.0992 48.7334 15.9042 47.7974 15.9042C47.2774 15.9042 46.7357 16.0298 46.1724 16.2812C45.609 16.5325 45.2147 16.9788 44.9894 17.6202L41.7914 16.6062C42.1467 15.4448 42.814 14.5002 43.7934 13.7722C44.7727 13.0442 46.1074 12.6802 47.7974 12.6802C49.0367 12.6802 50.1374 12.8708 51.0995 13.2522C52.0615 13.6335 52.7895 14.2922 53.2835 15.2282C53.5605 15.7482 53.7255 16.2682 53.7775 16.7882C53.8295 17.3082 53.8555 17.8888 53.8555 18.5302V27.1102H50.7615V24.2242L51.2035 24.8222C50.5185 25.7668 49.7777 26.4515 48.9804 26.8762C48.1917 27.2922 47.1907 27.5002 45.9774 27.5002ZM46.7314 24.7182C47.3814 24.7182 47.9274 24.6055 48.3694 24.3802C48.82 24.1462 49.1754 23.8818 49.4354 23.5872C49.704 23.2925 49.886 23.0455 49.9814 22.8462C50.1634 22.4648 50.2674 22.0228 50.2934 21.5202C50.328 21.0088 50.3454 20.5842 50.3454 20.2462L51.3855 20.5062C50.3367 20.6795 49.4874 20.8268 48.8374 20.9482C48.1874 21.0608 47.663 21.1648 47.2644 21.2602C46.8657 21.3555 46.5147 21.4595 46.2114 21.5722C45.8647 21.7108 45.583 21.8625 45.3664 22.0272C45.1584 22.1832 45.0024 22.3565 44.8984 22.5472C44.803 22.7378 44.7554 22.9502 44.7554 23.1842C44.7554 23.5048 44.8334 23.7822 44.9894 24.0162C45.154 24.2415 45.3837 24.4148 45.6784 24.5362C45.973 24.6575 46.324 24.7182 46.7314 24.7182Z" fill="#A4FFCA"/>
<path d="M72.1355 27.1099V18.8159C72.1355 17.8886 71.9145 17.1693 71.4725 16.6579C71.039 16.1379 70.437 15.8779 69.6655 15.8779C69.1715 15.8779 68.7425 15.9949 68.3785 16.2289C68.0145 16.4543 67.7285 16.7749 67.5205 17.1909C67.321 17.5983 67.2215 18.0706 67.2215 18.6079L65.7395 17.6199C65.7395 16.6579 65.965 15.8086 66.4155 15.0719C66.875 14.3353 67.486 13.7633 68.2485 13.3559C69.02 12.9399 69.8735 12.7319 70.8095 12.7319C72.413 12.7319 73.622 13.2086 74.4365 14.1619C75.26 15.1066 75.6715 16.3459 75.6715 17.8799V27.1099H72.1355ZM55.2095 27.1099V13.0699H58.3295V17.7239H58.7715V27.1099H55.2095ZM63.6855 27.1099V18.8159C63.6855 17.8886 63.4645 17.1693 63.0225 16.6579C62.589 16.1379 61.987 15.8779 61.2155 15.8779C60.479 15.8779 59.885 16.1336 59.4345 16.6449C58.9925 17.1476 58.7715 17.8019 58.7715 18.6079L57.2895 17.5679C57.2895 16.6493 57.519 15.8259 57.9785 15.0979C58.438 14.3699 59.053 13.7936 59.8245 13.3689C60.6045 12.9443 61.4755 12.7319 62.4375 12.7319C63.538 12.7319 64.4395 12.9659 65.1415 13.4339C65.852 13.9019 66.3765 14.5259 66.7145 15.3059C67.0525 16.0859 67.2215 16.9439 67.2215 17.8799V27.1099H63.6855Z" fill="#A4FFCA"/>
<path d="M84.1161 27.5002C82.7036 27.5002 81.4641 27.1838 80.3981 26.5512C79.3321 25.9185 78.5001 25.0475 77.9021 23.9382C77.3126 22.8202 77.0181 21.5375 77.0181 20.0902C77.0181 18.6255 77.3216 17.3385 77.9281 16.2292C78.5346 15.1112 79.3711 14.2402 80.4371 13.6162C81.5031 12.9922 82.7296 12.6802 84.1161 12.6802C85.5286 12.6802 86.7681 12.9965 87.8341 13.6292C88.9086 14.2618 89.7451 15.1372 90.3431 16.2552C90.9411 17.3645 91.2401 18.6428 91.2401 20.0902C91.2401 21.5462 90.9366 22.8332 90.3301 23.9512C89.7321 25.0605 88.8956 25.9315 87.8211 26.5642C86.7551 27.1882 85.5201 27.5002 84.1161 27.5002ZM84.1161 24.1982C85.2516 24.1982 86.0966 23.8168 86.6511 23.0542C87.2146 22.2828 87.4961 21.2948 87.4961 20.0902C87.4961 18.8422 87.2101 17.8455 86.6381 17.1002C86.0746 16.3548 85.2341 15.9822 84.1161 15.9822C83.3446 15.9822 82.7121 16.1555 82.2181 16.5022C81.7241 16.8488 81.3556 17.3298 81.1131 17.9452C80.8791 18.5605 80.7621 19.2755 80.7621 20.0902C80.7621 21.3468 81.0436 22.3478 81.6071 23.0932C82.1791 23.8298 83.0156 24.1982 84.1161 24.1982Z" fill="#A4FFCA"/>
<path d="M98.3251 27.5258C97.2241 27.5258 96.3271 27.3395 95.6341 26.9668C94.9406 26.5942 94.3991 26.1218 94.0091 25.5498C93.6276 24.9778 93.3546 24.3842 93.1901 23.7688C93.0251 23.1448 92.9256 22.5772 92.8911 22.0658C92.8561 21.5545 92.8391 21.1818 92.8391 20.9478V13.0698H96.4271V19.6998C96.4271 20.0205 96.4441 20.4322 96.4791 20.9348C96.5136 21.4288 96.6221 21.9272 96.8041 22.4298C96.9861 22.9325 97.2806 23.3528 97.6881 23.6908C98.1041 24.0288 98.6891 24.1978 99.4431 24.1978C99.7461 24.1978 100.071 24.1502 100.418 24.0548C100.765 23.9595 101.09 23.7775 101.393 23.5088C101.696 23.2315 101.943 22.8285 102.134 22.2998C102.333 21.7625 102.433 21.0605 102.433 20.1938L104.461 21.1558C104.461 22.2652 104.236 23.3052 103.785 24.2758C103.334 25.2465 102.654 26.0308 101.744 26.6288C100.843 27.2268 99.7031 27.5258 98.3251 27.5258ZM102.875 27.1098V22.4558H102.433V13.0698H105.995V27.1098H102.875Z" fill="#A4FFCA"/>
<path d="M107.888 27.11V8H111.424V27.11H107.888Z" fill="#A4FFCA"/>
<g opacity="0.8">
<path d="M115.424 27.1101V8.39014H122.483C122.665 8.39014 122.86 8.39879 123.068 8.41614C123.285 8.42479 123.51 8.45079 123.744 8.49414C124.68 8.64149 125.482 8.97949 126.149 9.50814C126.825 10.0281 127.341 10.6868 127.696 11.4841C128.052 12.2728 128.229 13.1438 128.229 14.0971C128.229 15.4751 127.861 16.6755 127.124 17.6981C126.388 18.7208 125.361 19.3708 124.043 19.6481L123.614 19.8171H116.919V27.1101H115.424ZM126.955 27.1101L123.263 19.4921L124.654 18.7901L128.71 27.1101H126.955ZM116.919 18.3481H122.457C122.613 18.3481 122.791 18.3395 122.99 18.3221C123.198 18.3048 123.406 18.2788 123.614 18.2441C124.29 18.1055 124.854 17.8325 125.304 17.4251C125.755 17.0091 126.093 16.5108 126.318 15.9301C126.544 15.3495 126.656 14.7385 126.656 14.0971C126.656 13.4558 126.544 12.8491 126.318 12.2771C126.093 11.6965 125.755 11.2025 125.304 10.7951C124.854 10.3791 124.29 10.1018 123.614 9.96314C123.406 9.91979 123.198 9.88949 122.99 9.87214C122.791 9.85479 122.613 9.84614 122.457 9.84614H116.919V18.3481Z" fill="#A4FFCA"/>
<path d="M135.331 27.5002C133.936 27.5002 132.753 27.1838 131.782 26.5512C130.812 25.9185 130.071 25.0432 129.559 23.9252C129.048 22.8072 128.792 21.5202 128.792 20.0642C128.792 18.5995 129.052 17.3125 129.572 16.2032C130.092 15.0852 130.838 14.2185 131.808 13.6032C132.788 12.9878 133.962 12.6802 135.331 12.6802C136.727 12.6802 137.91 12.9965 138.88 13.6292C139.86 14.2532 140.601 15.1198 141.103 16.2292C141.615 17.3385 141.87 18.6168 141.87 20.0642C141.87 21.5462 141.615 22.8462 141.103 23.9642C140.592 25.0735 139.847 25.9402 138.867 26.5642C137.888 27.1882 136.709 27.5002 135.331 27.5002ZM135.331 26.0442C136.987 26.0442 138.222 25.4895 139.036 24.3802C139.86 23.2708 140.271 21.8322 140.271 20.0642C140.271 18.2615 139.86 16.8228 139.036 15.7482C138.213 14.6735 136.978 14.1362 135.331 14.1362C134.213 14.1362 133.29 14.3918 132.562 14.9032C131.834 15.4058 131.288 16.1035 130.924 16.9962C130.569 17.8802 130.391 18.9028 130.391 20.0642C130.391 21.8668 130.807 23.3142 131.639 24.4062C132.48 25.4982 133.711 26.0442 135.331 26.0442Z" fill="#A4FFCA"/>
<path d="M149.126 27.4348C148.354 27.4348 147.661 27.3222 147.046 27.0968C146.439 26.8715 145.91 26.5552 145.46 26.1478C145.009 25.7318 144.636 25.2465 144.342 24.6918C144.047 24.1285 143.826 23.5132 143.679 22.8458C143.54 22.1785 143.471 21.4808 143.471 20.7528V13.0698H144.979V20.3758C144.979 21.2598 145.065 22.0485 145.239 22.7418C145.421 23.4352 145.689 24.0245 146.045 24.5098C146.409 24.9952 146.859 25.3635 147.397 25.6148C147.943 25.8662 148.584 25.9918 149.321 25.9918C150.083 25.9918 150.742 25.8618 151.297 25.6018C151.86 25.3332 152.319 24.9605 152.675 24.4838C153.039 24.0072 153.307 23.4438 153.481 22.7938C153.663 22.1352 153.754 21.4202 153.754 20.6488L154.937 20.7918C154.937 22.3085 154.677 23.5608 154.157 24.5488C153.645 25.5282 152.952 26.2562 152.077 26.7328C151.201 27.2008 150.218 27.4348 149.126 27.4348ZM153.897 27.1098V23.9508H153.754V13.0698H155.262V27.1098H153.897Z" fill="#A4FFCA"/>
<path d="M159.345 27.11V11.757C159.345 11.393 159.363 11.0464 159.397 10.717C159.441 10.3877 159.523 10.0757 159.644 9.781C159.774 9.48635 159.956 9.209 160.19 8.949C160.433 8.689 160.702 8.48965 160.996 8.351C161.3 8.21235 161.62 8.12135 161.958 8.078C162.296 8.026 162.652 8 163.024 8H164.831V9.3H163.154C162.383 9.3 161.802 9.48635 161.412 9.859C161.031 10.2317 160.84 10.847 160.84 11.705V27.11H159.345ZM156.849 14.435V13.07H164.831V14.435H156.849Z" fill="#A4FFCA"/>
</g>
</svg>
