<svg width="345" height="72" viewBox="0 0 345 72" fill="none" xmlns="http://www.w3.org/2000/svg">
<path d="M16 54.22L27.44 16.78H37.996L49.436 54.22H42.156L31.964 21.2H33.316L23.28 54.22H16ZM22.864 46.42V39.816H42.624V46.42H22.864Z" fill="#2F4B9B"/>
<path d="M71.2321 54.22V40.96C71.2321 40.3187 71.1974 39.504 71.1281 38.516C71.0588 37.5107 70.8421 36.5053 70.4781 35.5C70.1141 34.4947 69.5161 33.654 68.6841 32.978C67.8694 32.302 66.7081 31.964 65.2001 31.964C64.5934 31.964 63.9434 32.0593 63.2501 32.25C62.5568 32.4407 61.9068 32.8133 61.3001 33.368C60.6934 33.9053 60.1908 34.7027 59.7921 35.76C59.4108 36.8173 59.2201 38.2213 59.2201 39.972L55.1641 38.048C55.1641 35.8293 55.6148 33.7493 56.5161 31.808C57.4174 29.8667 58.7694 28.298 60.5721 27.102C62.3921 25.906 64.6801 25.308 67.4361 25.308C69.6374 25.308 71.4314 25.6807 72.8181 26.426C74.2048 27.1713 75.2794 28.116 76.0421 29.26C76.8221 30.404 77.3768 31.6 77.7061 32.848C78.0354 34.0787 78.2348 35.2053 78.3041 36.228C78.3734 37.2507 78.4081 37.996 78.4081 38.464V54.22H71.2321ZM52.0441 54.22V26.14H58.3361V35.448H59.2201V54.22H52.0441Z" fill="#2F4B9B"/>
<path d="M90.9547 55C88.944 55 87.2367 54.6187 85.8327 53.856C84.446 53.076 83.3887 52.0447 82.6607 50.762C81.95 49.462 81.5947 48.032 81.5947 46.472C81.5947 45.172 81.794 43.9847 82.1927 42.91C82.5914 41.8353 83.2327 40.8907 84.1167 40.076C85.018 39.244 86.2227 38.5507 87.7307 37.996C88.7707 37.6147 90.01 37.2767 91.4487 36.982C92.8874 36.6873 94.5167 36.41 96.3367 36.15C98.1567 35.8727 100.159 35.5693 102.343 35.24L99.7947 36.644C99.7947 34.98 99.396 33.758 98.5987 32.978C97.8014 32.198 96.4667 31.808 94.5947 31.808C93.5547 31.808 92.4714 32.0593 91.3447 32.562C90.218 33.0647 89.4294 33.9573 88.9787 35.24L82.5827 33.212C83.2934 30.8893 84.628 29 86.5867 27.544C88.5454 26.088 91.2147 25.36 94.5947 25.36C97.0734 25.36 99.2747 25.7413 101.199 26.504C103.123 27.2667 104.579 28.584 105.567 30.456C106.121 31.496 106.451 32.536 106.555 33.576C106.659 34.616 106.711 35.7773 106.711 37.06V54.22H100.523V48.448L101.407 49.644C100.037 51.5333 98.5554 52.9027 96.9607 53.752C95.3834 54.584 93.3814 55 90.9547 55ZM92.4627 49.436C93.7627 49.436 94.8547 49.2107 95.7387 48.76C96.64 48.292 97.3507 47.7633 97.8707 47.174C98.408 46.5847 98.772 46.0907 98.9627 45.692C99.3267 44.9293 99.5347 44.0453 99.5867 43.04C99.656 42.0173 99.6907 41.168 99.6907 40.492L101.771 41.012C99.6734 41.3587 97.9747 41.6533 96.6747 41.896C95.3747 42.1213 94.326 42.3293 93.5287 42.52C92.7314 42.7107 92.0294 42.9187 91.4227 43.144C90.7294 43.4213 90.166 43.7247 89.7327 44.054C89.3167 44.366 89.0047 44.7127 88.7967 45.094C88.606 45.4753 88.5107 45.9 88.5107 46.368C88.5107 47.0093 88.6667 47.564 88.9787 48.032C89.308 48.4827 89.7674 48.8293 90.3567 49.072C90.946 49.3147 91.648 49.436 92.4627 49.436Z" fill="#2F4B9B"/>
<path d="M143.271 54.22V37.632C143.271 35.7773 142.829 34.3387 141.945 33.316C141.078 32.276 139.874 31.756 138.331 31.756C137.343 31.756 136.485 31.99 135.757 32.458C135.029 32.9087 134.457 33.55 134.041 34.382C133.642 35.1967 133.443 36.1413 133.443 37.216L130.479 35.24C130.479 33.316 130.93 31.6173 131.831 30.144C132.75 28.6707 133.972 27.5267 135.497 26.712C137.04 25.88 138.747 25.464 140.619 25.464C143.826 25.464 146.244 26.4173 147.873 28.324C149.52 30.2133 150.343 32.692 150.343 35.76V54.22H143.271ZM109.419 54.22V26.14H115.659V35.448H116.543V54.22H109.419ZM126.371 54.22V37.632C126.371 35.7773 125.929 34.3387 125.045 33.316C124.178 32.276 122.974 31.756 121.431 31.756C119.958 31.756 118.77 32.2673 117.869 33.29C116.985 34.2953 116.543 35.604 116.543 37.216L113.579 35.136C113.579 33.2987 114.038 31.652 114.957 30.196C115.876 28.74 117.106 27.5873 118.649 26.738C120.209 25.8887 121.951 25.464 123.875 25.464C126.076 25.464 127.879 25.932 129.283 26.868C130.704 27.804 131.753 29.052 132.429 30.612C133.105 32.172 133.443 33.888 133.443 35.76V54.22H126.371Z" fill="#2F4B9B"/>
<path d="M167.232 55C164.407 55 161.928 54.3673 159.796 53.102C157.664 51.8367 156 50.0947 154.804 47.876C153.625 45.64 153.036 43.0747 153.036 40.18C153.036 37.2507 153.643 34.6767 154.856 32.458C156.069 30.222 157.742 28.48 159.874 27.232C162.006 25.984 164.459 25.36 167.232 25.36C170.057 25.36 172.536 25.9927 174.668 27.258C176.817 28.5233 178.49 30.274 179.686 32.51C180.882 34.7287 181.48 37.2853 181.48 40.18C181.48 43.092 180.873 45.666 179.66 47.902C178.464 50.1207 176.791 51.8627 174.642 53.128C172.51 54.376 170.04 55 167.232 55ZM167.232 48.396C169.503 48.396 171.193 47.6333 172.302 46.108C173.429 44.5653 173.992 42.5893 173.992 40.18C173.992 37.684 173.42 35.6907 172.276 34.2C171.149 32.7093 169.468 31.964 167.232 31.964C165.689 31.964 164.424 32.3107 163.436 33.004C162.448 33.6973 161.711 34.6593 161.226 35.89C160.758 37.1207 160.524 38.5507 160.524 40.18C160.524 42.6933 161.087 44.6953 162.214 46.186C163.358 47.6593 165.031 48.396 167.232 48.396Z" fill="#2F4B9B"/>
<path d="M195.65 55.052C193.448 55.052 191.654 54.6793 190.268 53.934C188.881 53.1887 187.798 52.244 187.018 51.1C186.255 49.956 185.709 48.7687 185.38 47.538C185.05 46.29 184.851 45.1547 184.782 44.132C184.712 43.1093 184.678 42.364 184.678 41.896V26.14H191.854V39.4C191.854 40.0413 191.888 40.8647 191.958 41.87C192.027 42.858 192.244 43.8547 192.608 44.86C192.972 45.8653 193.561 46.706 194.376 47.382C195.208 48.058 196.378 48.396 197.886 48.396C198.492 48.396 199.142 48.3007 199.836 48.11C200.529 47.9193 201.179 47.5553 201.786 47.018C202.392 46.4633 202.886 45.6573 203.268 44.6C203.666 43.5253 203.866 42.1213 203.866 40.388L207.922 42.312C207.922 44.5307 207.471 46.6107 206.57 48.552C205.668 50.4933 204.308 52.062 202.488 53.258C200.685 54.454 198.406 55.052 195.65 55.052ZM204.75 54.22V44.912H203.866V26.14H210.99V54.22H204.75Z" fill="#2F4B9B"/>
<path d="M214.776 54.22V16H221.848V54.22H214.776Z" fill="#2F4B9B"/>
<g opacity="0.8">
<path d="M229.848 54.22V16.78H243.966C244.33 16.78 244.72 16.7973 245.136 16.832C245.57 16.8493 246.02 16.9013 246.488 16.988C248.36 17.2827 249.964 17.9587 251.298 19.016C252.65 20.056 253.682 21.3733 254.392 22.968C255.103 24.5453 255.458 26.2873 255.458 28.194C255.458 30.95 254.722 33.3507 253.248 35.396C251.775 37.4413 249.721 38.7413 247.086 39.296L246.228 39.634H232.838V54.22H229.848ZM252.91 54.22L245.526 38.984L248.308 37.58L256.42 54.22H252.91ZM232.838 36.696H243.914C244.226 36.696 244.582 36.6787 244.98 36.644C245.396 36.6093 245.812 36.5573 246.228 36.488C247.58 36.2107 248.707 35.6647 249.608 34.85C250.51 34.018 251.186 33.0213 251.636 31.86C252.087 30.6987 252.312 29.4767 252.312 28.194C252.312 26.9113 252.087 25.698 251.636 24.554C251.186 23.3927 250.51 22.4047 249.608 21.59C248.707 20.758 247.58 20.2033 246.228 19.926C245.812 19.8393 245.396 19.7787 244.98 19.744C244.582 19.7093 244.226 19.692 243.914 19.692H232.838V36.696Z" fill="#2F4B9B"/>
<path d="M269.663 55C266.872 55 264.506 54.3673 262.565 53.102C260.624 51.8367 259.142 50.086 258.119 47.85C257.096 45.614 256.585 43.04 256.585 40.128C256.585 37.1987 257.105 34.6247 258.145 32.406C259.185 30.17 260.676 28.4367 262.617 27.206C264.576 25.9753 266.924 25.36 269.663 25.36C272.454 25.36 274.82 25.9927 276.761 27.258C278.72 28.506 280.202 30.2393 281.207 32.458C282.23 34.6767 282.741 37.2333 282.741 40.128C282.741 43.092 282.23 45.692 281.207 47.928C280.184 50.1467 278.694 51.88 276.735 53.128C274.776 54.376 272.419 55 269.663 55ZM269.663 52.088C272.974 52.088 275.444 50.9787 277.073 48.76C278.72 46.5413 279.543 43.664 279.543 40.128C279.543 36.5227 278.72 33.6453 277.073 31.496C275.426 29.3467 272.956 28.272 269.663 28.272C267.427 28.272 265.581 28.7833 264.125 29.806C262.669 30.8113 261.577 32.2067 260.849 33.992C260.138 35.76 259.783 37.8053 259.783 40.128C259.783 43.7333 260.615 46.628 262.279 48.812C263.96 50.996 266.422 52.088 269.663 52.088Z" fill="#2F4B9B"/>
<path d="M297.252 54.87C295.709 54.87 294.322 54.6447 293.092 54.194C291.878 53.7433 290.821 53.1107 289.92 52.296C289.018 51.464 288.273 50.4933 287.684 49.384C287.094 48.2573 286.652 47.0267 286.358 45.692C286.08 44.3573 285.942 42.962 285.942 41.506V26.14H288.958V40.752C288.958 42.52 289.131 44.0973 289.478 45.484C289.842 46.8707 290.379 48.0493 291.09 49.02C291.818 49.9907 292.719 50.7273 293.794 51.23C294.886 51.7327 296.168 51.984 297.642 51.984C299.167 51.984 300.484 51.724 301.594 51.204C302.72 50.6667 303.639 49.9213 304.35 48.968C305.078 48.0147 305.615 46.888 305.962 45.588C306.326 44.2707 306.508 42.8407 306.508 41.298L308.874 41.584C308.874 44.6173 308.354 47.122 307.314 49.098C306.291 51.0567 304.904 52.5127 303.154 53.466C301.403 54.402 299.436 54.87 297.252 54.87ZM306.794 54.22V47.902H306.508V26.14H309.524V54.22H306.794Z" fill="#2F4B9B"/>
<path d="M317.69 54.22V23.514C317.69 22.786 317.725 22.0927 317.794 21.434C317.881 20.7753 318.045 20.1513 318.288 19.562C318.548 18.9727 318.912 18.418 319.38 17.898C319.865 17.378 320.403 16.9793 320.992 16.702C321.599 16.4247 322.24 16.2427 322.916 16.156C323.592 16.052 324.303 16 325.048 16H328.662V18.6H325.308C323.765 18.6 322.604 18.9727 321.824 19.718C321.061 20.4633 320.68 21.694 320.68 23.41V54.22H317.69ZM312.698 28.87V26.14H328.662V28.87H312.698Z" fill="#2F4B9B"/>
</g>
</svg>
