<svg width="77" height="16" viewBox="0 0 77 16" fill="none" xmlns="http://www.w3.org/2000/svg">
<path d="M2.46167 2.69824H5.05047V12.2153H10.4555V13.3019H2.46167V2.69824Z" fill="white"/>
<path d="M12.1345 2.69824H14.7321V9.50738C14.7321 9.92218 14.7933 10.3107 14.9157 10.6729C15.044 11.0293 15.2248 11.3448 15.458 11.6194C15.697 11.8881 15.9827 12.1014 16.3151 12.2591C16.6533 12.411 17.0323 12.4869 17.4521 12.4869C17.8719 12.4869 18.248 12.411 18.5803 12.2591C18.9185 12.1014 19.2042 11.8881 19.4374 11.6194C19.6765 11.3448 19.8572 11.0293 19.9797 10.6729C20.1079 10.3107 20.1721 9.92218 20.1721 9.50738V2.69824H21.8076V9.50738C21.8076 10.0566 21.7143 10.5765 21.5277 11.0673C21.3411 11.5522 21.0496 11.9787 20.6531 12.3467C20.2566 12.7148 19.7493 13.0069 19.1313 13.2231C18.5132 13.4334 17.7698 13.5385 16.9011 13.5385C16.1198 13.5385 15.4317 13.4334 14.837 13.2231C14.2481 13.0069 13.7525 12.7148 13.3502 12.3467C12.9479 11.9787 12.6447 11.5493 12.4406 11.0585C12.2366 10.5678 12.1345 10.0449 12.1345 9.48988V2.69824Z" fill="white"/>
<path d="M24.4141 2.69824H26.067L32.1018 9.44603V2.69824H33.7373V13.4684H32.609L26.0583 6.01958V13.3019H24.4141V2.69824Z" fill="white"/>
<path d="M41.3374 2.46143L46.2964 13.3017H43.6376L42.317 10.4011H38.2064L36.8157 13.3017H35.0491L40.2179 2.46143H41.3374ZM38.6874 9.41078H41.8797L40.3141 5.98433L38.6874 9.41078Z" fill="white"/>
<path d="M47.6082 2.69824H50.2144V6.67683L54.9024 2.69824H56.9224L51.6314 7.17633L58.3394 13.3019H55.1999L50.2144 8.76248V13.3019H47.6082V2.69824Z" fill="white"/>
<path d="M59.2056 2.69824H61.8031V13.3019H59.2056V2.69824Z" fill="white"/>
<path d="M64.5229 2.69824H66.1759L72.2104 9.44603V2.69824H73.8459V13.4684H72.7179L66.1669 6.01958V13.3019H64.5229V2.69824Z" fill="white"/>
</svg>
