<svg width="153" height="32" viewBox="0 0 153 32" fill="none" xmlns="http://www.w3.org/2000/svg">
<path d="M4.9231 5.39632H10.1007V24.4304H20.9107V26.6037H4.9231V5.39632Z" fill="#0C1113"/>
<path d="M24.2692 5.39632H29.4643V19.0146C29.4643 19.8442 29.5867 20.6212 29.8316 21.3457C30.0882 22.0584 30.4497 22.6894 30.9161 23.2386C31.3942 23.7761 31.9656 24.2026 32.6303 24.518C33.3067 24.8218 34.0647 24.9737 34.9043 24.9737C35.7439 24.9737 36.4961 24.8218 37.1607 24.518C37.8371 24.2026 38.4085 23.7761 38.875 23.2386C39.3531 22.6894 39.7146 22.0584 39.9595 21.3457C40.216 20.6212 40.3443 19.8442 40.3443 19.0146V5.39632H43.6153V19.0146C43.6153 20.113 43.4287 21.1529 43.0555 22.1344C42.6824 23.1042 42.0993 23.9572 41.3063 24.6933C40.5134 25.4294 39.4988 26.0137 38.2627 26.446C37.0266 26.8666 35.5398 27.0769 33.8023 27.0769C32.2397 27.0769 30.8636 26.8666 29.6742 26.446C28.4964 26.0137 27.5052 25.4294 26.7006 24.6933C25.8959 23.9572 25.2895 23.0984 24.8814 22.1169C24.4733 21.1354 24.2692 20.0896 24.2692 18.9796V5.39632Z" fill="#0C1113"/>
<path d="M48.8279 5.39632H52.1338L64.2033 18.8919V5.39632H67.4743V26.9367H65.2178L52.1164 12.039V26.6037H48.8279V5.39632Z" fill="#0C1113"/>
<path d="M82.6748 4.9231L92.5927 26.6037H87.2752L84.6339 20.8024H76.4127L73.6314 26.6037H70.0981L80.4358 4.9231H82.6748ZM77.3747 18.8218H83.7593L80.6282 11.9689L77.3747 18.8218Z" fill="#0C1113"/>
<path d="M95.2165 5.39632H100.429V13.3535L109.805 5.39632H113.845L103.263 14.3525L116.679 26.6037H110.4L100.429 17.5248V26.6037H95.2165V5.39632Z" fill="#0C1113"/>
<path d="M118.411 5.39632H123.606V26.6037H118.411V5.39632Z" fill="#0C1113"/>
<path d="M129.046 5.39632H132.352L144.421 18.8919V5.39632H147.692V26.9367H145.436L132.334 12.039V26.6037H129.046V5.39632Z" fill="#0C1113"/>
</svg>
