<svg width="24" height="24" viewBox="0 0 24 24" fill="none" xmlns="http://www.w3.org/2000/svg">
<path fill-rule="evenodd" clip-rule="evenodd" d="M19 20V4C19 2.89543 18.1046 2 17 2H7C5.89543 2 5 2.89543 5 4V20C5 21.1046 5.89543 22 7 22H17C18.1046 22 19 21.1046 19 20ZM9.25 4.0498C9.25 3.49752 9.69772 3.0498 10.25 3.0498H13.75C14.3023 3.0498 14.75 3.49752 14.75 4.0498C14.75 4.60209 14.3023 5.0498 13.75 5.0498H10.25C9.69772 5.0498 9.25 4.60209 9.25 4.0498ZM9 19.7002C8.72386 19.7002 8.5 19.9241 8.5 20.2002C8.5 20.4763 8.72386 20.7002 9 20.7002H15C15.2761 20.7002 15.5 20.4763 15.5 20.2002C15.5 19.9241 15.2761 19.7002 15 19.7002H9Z" fill="white"/>
<path opacity="0.08" fill-rule="evenodd" clip-rule="evenodd" d="M9.25 4.0498C9.25 3.49752 9.69772 3.0498 10.25 3.0498H13.75C14.3023 3.0498 14.75 3.49752 14.75 4.0498C14.75 4.60209 14.3023 5.0498 13.75 5.0498H10.25C9.69772 5.0498 9.25 4.60209 9.25 4.0498Z" fill="white"/>
<path opacity="0.64" fill-rule="evenodd" clip-rule="evenodd" d="M8.5 20.2002C8.5 19.9241 8.72386 19.7002 9 19.7002H15C15.2761 19.7002 15.5 19.9241 15.5 20.2002C15.5 20.4763 15.2761 20.7002 15 20.7002H9C8.72386 20.7002 8.5 20.4763 8.5 20.2002Z" fill="white"/>
</svg>
