<svg width="346" height="58" viewBox="0 0 346 58" fill="none" xmlns="http://www.w3.org/2000/svg">
<g clip-path="url(#clip0_3006_49156)">
<path d="M25.0782 0.237364C36.0756 -1.17702 51.4726 3.58508 57.0663 18.9636C58.2196 22.1349 57.1443 22.9252 55.6789 24.2005C51.2318 26.9818 31.2927 39.2941 31.2927 39.2941C30.0817 40.0979 30.1868 41.1494 30.1868 42.0415C30.1868 42.9335 30.1868 46.868 30.1868 46.868C30.1868 48.686 31.408 49.1236 32.7377 48.3095C34.0674 47.4955 54.8342 34.4472 54.8342 34.4472C55.9265 33.8977 56.8661 33.701 57.5513 34.2674C58.2637 34.8576 58.0568 35.7056 57.7243 36.7095C57.2528 38.09 55.4584 45.3146 47.402 51.6979C36.7676 60.1266 23.7485 57.3114 22.7885 56.9485C21.0212 56.2837 20.7295 56.087 20.8041 54.0112C20.8787 51.9354 20.8041 24.3294 20.8041 24.3294C20.8041 22.6233 20.353 22.5521 19.7152 22.1078C19.0775 21.6634 16.1331 19.8353 14.7186 18.9568C13.7043 18.3259 12.4289 18.7702 12.4289 21.0326C12.4289 24.5906 12.4289 48.5232 12.4289 48.5232C12.4289 50.7143 10.5462 51.0128 9.31148 49.6662C3.8535 43.7238 -0.607186 37.0758 0.512226 26.1135C0.949814 21.8229 2.88674 14.1268 9.54554 7.90286C11.0042 6.54274 12.7715 6.54274 13.935 7.31269C15.2478 8.18099 37.8395 22.3927 37.8395 22.3927C38.9216 23.0575 39.5526 22.9218 40.4515 22.257C41.3504 21.5922 44.8782 19.3095 44.8782 19.3095C45.8145 18.6346 45.5635 17.4169 44.8104 16.9692C43.9352 16.4468 23.4873 3.64274 23.4873 3.64274C21.7166 2.45561 22.1169 0.576545 25.0782 0.237364Z" fill="url(#paint0_linear_3006_49156)"/>
<path d="M25.0782 0.237364C36.0756 -1.17702 51.4726 3.58508 57.0663 18.9636C58.2196 22.1349 57.1443 22.9252 55.6789 24.2005C51.2318 26.9818 31.2927 39.2941 31.2927 39.2941C30.0817 40.0979 30.1868 41.1494 30.1868 42.0415C30.1868 42.9335 30.1868 46.868 30.1868 46.868C30.1868 48.686 31.408 49.1236 32.7377 48.3095C34.0674 47.4955 54.8342 34.4472 54.8342 34.4472C55.9265 33.8977 56.8661 33.701 57.5513 34.2674C58.2637 34.8576 58.0568 35.7056 57.7243 36.7095C57.2528 38.09 55.4584 45.3146 47.402 51.6979C36.7676 60.1266 23.7485 57.3114 22.7885 56.9485C21.0212 56.2837 20.7295 56.087 20.8041 54.0112C20.8787 51.9354 20.8041 24.3294 20.8041 24.3294C20.8041 22.6233 20.353 22.5521 19.7152 22.1078C19.0775 21.6634 16.1331 19.8353 14.7186 18.9568C13.7043 18.3259 12.4289 18.7702 12.4289 21.0326C12.4289 24.5906 12.4289 48.5232 12.4289 48.5232C12.4289 50.7143 10.5462 51.0128 9.31148 49.6662C3.8535 43.7238 -0.607186 37.0758 0.512226 26.1135C0.949814 21.8229 2.88674 14.1268 9.54554 7.90286C11.0042 6.54274 12.7715 6.54274 13.935 7.31269C15.2478 8.18099 37.8395 22.3927 37.8395 22.3927C38.9216 23.0575 39.5526 22.9218 40.4515 22.257C41.3504 21.5922 44.8782 19.3095 44.8782 19.3095C45.8145 18.6346 45.5635 17.4169 44.8104 16.9692C43.9352 16.4468 23.4873 3.64274 23.4873 3.64274C21.7166 2.45561 22.1169 0.576545 25.0782 0.237364Z" fill="url(#paint1_linear_3006_49156)"/>
<path d="M25.0782 0.237364C36.0756 -1.17702 51.4726 3.58508 57.0663 18.9636C58.2196 22.1349 57.1443 22.9252 55.6789 24.2005C51.2318 26.9818 31.2927 39.2941 31.2927 39.2941C30.0817 40.0979 30.1868 41.1494 30.1868 42.0415C30.1868 42.9335 30.1868 46.868 30.1868 46.868C30.1868 48.686 31.408 49.1236 32.7377 48.3095C34.0674 47.4955 54.8342 34.4472 54.8342 34.4472C55.9265 33.8977 56.8661 33.701 57.5513 34.2674C58.2637 34.8576 58.0568 35.7056 57.7243 36.7095C57.2528 38.09 55.4584 45.3146 47.402 51.6979C36.7676 60.1266 23.7485 57.3114 22.7885 56.9485C21.0212 56.2837 20.7295 56.087 20.8041 54.0112C20.8787 51.9354 20.8041 24.3294 20.8041 24.3294C20.8041 22.6233 20.353 22.5521 19.7152 22.1078C19.0775 21.6634 16.1331 19.8353 14.7186 18.9568C13.7043 18.3259 12.4289 18.7702 12.4289 21.0326C12.4289 24.5906 12.4289 48.5232 12.4289 48.5232C12.4289 50.7143 10.5462 51.0128 9.31148 49.6662C3.8535 43.7238 -0.607186 37.0758 0.512226 26.1135C0.949814 21.8229 2.88674 14.1268 9.54554 7.90286C11.0042 6.54274 12.7715 6.54274 13.935 7.31269C15.2478 8.18099 37.8395 22.3927 37.8395 22.3927C38.9216 23.0575 39.5526 22.9218 40.4515 22.257C41.3504 21.5922 44.8782 19.3095 44.8782 19.3095C45.8145 18.6346 45.5635 17.4169 44.8104 16.9692C43.9352 16.4468 23.4873 3.64274 23.4873 3.64274C21.7166 2.45561 22.1169 0.576545 25.0782 0.237364Z" fill="url(#paint2_linear_3006_49156)"/>
<path d="M25.0782 0.237364C36.0756 -1.17702 51.4726 3.58508 57.0663 18.9636C58.2196 22.1349 57.1443 22.9252 55.6789 24.2005C51.2318 26.9818 31.2927 39.2941 31.2927 39.2941C30.0817 40.0979 30.1868 41.1494 30.1868 42.0415C30.1868 42.9335 30.1868 46.868 30.1868 46.868C30.1868 48.686 31.408 49.1236 32.7377 48.3095C34.0674 47.4955 54.8342 34.4472 54.8342 34.4472C55.9265 33.8977 56.8661 33.701 57.5513 34.2674C58.2637 34.8576 58.0568 35.7056 57.7243 36.7095C57.2528 38.09 55.4584 45.3146 47.402 51.6979C36.7676 60.1266 23.7485 57.3114 22.7885 56.9485C21.0212 56.2837 20.7295 56.087 20.8041 54.0112C20.8787 51.9354 20.8041 24.3294 20.8041 24.3294C20.8041 22.6233 20.353 22.5521 19.7152 22.1078C19.0775 21.6634 16.1331 19.8353 14.7186 18.9568C13.7043 18.3259 12.4289 18.7702 12.4289 21.0326C12.4289 24.5906 12.4289 48.5232 12.4289 48.5232C12.4289 50.7143 10.5462 51.0128 9.31148 49.6662C3.8535 43.7238 -0.607186 37.0758 0.512226 26.1135C0.949814 21.8229 2.88674 14.1268 9.54554 7.90286C11.0042 6.54274 12.7715 6.54274 13.935 7.31269C15.2478 8.18099 37.8395 22.3927 37.8395 22.3927C38.9216 23.0575 39.5526 22.9218 40.4515 22.257C41.3504 21.5922 44.8782 19.3095 44.8782 19.3095C45.8145 18.6346 45.5635 17.4169 44.8104 16.9692C43.9352 16.4468 23.4873 3.64274 23.4873 3.64274C21.7166 2.45561 22.1169 0.576545 25.0782 0.237364Z" fill="url(#paint3_linear_3006_49156)"/>
<path d="M25.0782 0.237364C36.0756 -1.17702 51.4726 3.58508 57.0663 18.9636C58.2196 22.1349 57.1443 22.9252 55.6789 24.2005C51.2318 26.9818 31.2927 39.2941 31.2927 39.2941C30.0817 40.0979 30.1868 41.1494 30.1868 42.0415C30.1868 42.9335 30.1868 46.868 30.1868 46.868C30.1868 48.686 31.408 49.1236 32.7377 48.3095C34.0674 47.4955 54.8342 34.4472 54.8342 34.4472C55.9265 33.8977 56.8661 33.701 57.5513 34.2674C58.2637 34.8576 58.0568 35.7056 57.7243 36.7095C57.2528 38.09 55.4584 45.3146 47.402 51.6979C36.7676 60.1266 23.7485 57.3114 22.7885 56.9485C21.0212 56.2837 20.7295 56.087 20.8041 54.0112C20.8787 51.9354 20.8041 24.3294 20.8041 24.3294C20.8041 22.6233 20.353 22.5521 19.7152 22.1078C19.0775 21.6634 16.1331 19.8353 14.7186 18.9568C13.7043 18.3259 12.4289 18.7702 12.4289 21.0326C12.4289 24.5906 12.4289 48.5232 12.4289 48.5232C12.4289 50.7143 10.5462 51.0128 9.31148 49.6662C3.8535 43.7238 -0.607186 37.0758 0.512226 26.1135C0.949814 21.8229 2.88674 14.1268 9.54554 7.90286C11.0042 6.54274 12.7715 6.54274 13.935 7.31269C15.2478 8.18099 37.8395 22.3927 37.8395 22.3927C38.9216 23.0575 39.5526 22.9218 40.4515 22.257C41.3504 21.5922 44.8782 19.3095 44.8782 19.3095C45.8145 18.6346 45.5635 17.4169 44.8104 16.9692C43.9352 16.4468 23.4873 3.64274 23.4873 3.64274C21.7166 2.45561 22.1169 0.576545 25.0782 0.237364Z" fill="url(#paint4_linear_3006_49156)"/>
<path d="M25.0782 0.237364C36.0756 -1.17702 51.4726 3.58508 57.0663 18.9636C58.2196 22.1349 57.1443 22.9252 55.6789 24.2005C51.2318 26.9818 31.2927 39.2941 31.2927 39.2941C30.0817 40.0979 30.1868 41.1494 30.1868 42.0415C30.1868 42.9335 30.1868 46.868 30.1868 46.868C30.1868 48.686 31.408 49.1236 32.7377 48.3095C34.0674 47.4955 54.8342 34.4472 54.8342 34.4472C55.9265 33.8977 56.8661 33.701 57.5513 34.2674C58.2637 34.8576 58.0568 35.7056 57.7243 36.7095C57.2528 38.09 55.4584 45.3146 47.402 51.6979C36.7676 60.1266 23.7485 57.3114 22.7885 56.9485C21.0212 56.2837 20.7295 56.087 20.8041 54.0112C20.8787 51.9354 20.8041 24.3294 20.8041 24.3294C20.8041 22.6233 20.353 22.5521 19.7152 22.1078C19.0775 21.6634 16.1331 19.8353 14.7186 18.9568C13.7043 18.3259 12.4289 18.7702 12.4289 21.0326C12.4289 24.5906 12.4289 48.5232 12.4289 48.5232C12.4289 50.7143 10.5462 51.0128 9.31148 49.6662C3.8535 43.7238 -0.607186 37.0758 0.512226 26.1135C0.949814 21.8229 2.88674 14.1268 9.54554 7.90286C11.0042 6.54274 12.7715 6.54274 13.935 7.31269C15.2478 8.18099 37.8395 22.3927 37.8395 22.3927C38.9216 23.0575 39.5526 22.9218 40.4515 22.257C41.3504 21.5922 44.8782 19.3095 44.8782 19.3095C45.8145 18.6346 45.5635 17.4169 44.8104 16.9692C43.9352 16.4468 23.4873 3.64274 23.4873 3.64274C21.7166 2.45561 22.1169 0.576545 25.0782 0.237364Z" fill="url(#paint5_linear_3006_49156)" fill-opacity="0.2"/>
<path d="M316.926 26.0288C315.24 26.0288 313.69 26.0898 312.15 25.9914C311.685 25.9609 311.139 25.5743 310.817 25.1944C307.278 21.0224 303.778 16.8166 300.263 12.6209C299.785 12.0477 299.3 11.4779 298.588 10.6299C298.588 15.9008 298.588 20.8732 298.588 25.9372C296.356 25.9372 294.317 25.9372 292.187 25.9372C292.187 17.5051 292.187 9.09344 292.187 0.481623C293.93 0.481623 295.65 0.430746 297.363 0.522324C297.726 0.542675 298.109 1.0277 298.398 1.37028C302.01 5.66431 305.61 9.97192 309.212 14.2727C309.592 14.7272 309.985 15.175 310.599 15.8906C310.599 10.5994 310.599 5.64735 310.599 0.576593C312.77 0.576593 314.802 0.576593 316.926 0.576593C316.926 9.0256 316.926 17.4441 316.926 26.0288Z" fill="#051826"/>
<path d="M321.108 0.28833C326.135 0.471488 331.159 0.186576 336.02 0.949734C342.533 1.97067 346.092 6.98716 345.898 13.5673C345.688 20.6256 341.546 25.269 334.433 25.8287C330.053 26.1746 325.623 25.8931 321.108 25.8931C321.108 17.5459 321.108 9.13418 321.108 0.28833ZM327.492 20.4798C329.3 20.4798 331.027 20.5408 332.747 20.4662C336.315 20.3102 338.5 18.4074 339.182 14.9749C340.006 10.8097 338.008 6.94307 334.395 6.25792C332.177 5.83734 329.857 5.93909 327.496 5.80003C327.492 10.8029 327.492 15.5345 327.492 20.4798Z" fill="#051826"/>
<path d="M224.866 16.6266C227.19 19.1738 229.439 21.6057 231.633 24.0852C232.044 24.5464 232.234 25.2011 232.658 26.0253C230.185 26.0253 228.126 26.0592 226.07 25.9947C225.687 25.9812 225.236 25.6318 224.958 25.3164C222.943 23.0405 220.884 20.7985 219.011 18.414C218.004 17.1319 216.898 16.7046 215.188 17.1252C215.188 19.998 215.188 22.9455 215.188 25.9574C212.956 25.9574 210.921 25.9574 208.811 25.9574C208.811 17.4711 208.811 9.06281 208.811 0.590065C209.092 0.54258 209.313 0.471352 209.533 0.471352C213.947 0.495095 218.363 0.386557 222.766 0.593457C229.188 0.891937 232.848 6.92936 230.08 12.4275C229.015 14.5474 227.166 15.7616 224.866 16.6266ZM215.236 12.2206C217.366 12.2206 219.422 12.3393 221.457 12.1867C223.265 12.051 224.279 10.8062 224.296 9.13404C224.313 7.42457 223.353 6.16621 221.542 6.02375C219.466 5.85755 217.366 5.98644 215.236 5.98644C215.236 8.10971 215.236 10.1245 215.236 12.2206Z" fill="#051826"/>
<path d="M199.418 15.6938C197.281 15.6938 195.334 15.6938 193.312 15.6938C193.312 14.0861 193.312 12.6107 193.312 11.0233C197.254 11.0233 201.216 11.0233 205.405 11.0233C205.405 11.6847 205.405 12.4072 205.405 13.1296C205.405 16.0194 205.432 18.9093 205.382 21.7957C205.371 22.2807 205.175 22.9896 204.822 23.2033C199.591 26.3746 194.035 27.5889 188.204 25.1231C182.664 22.7827 179.927 17.3863 180.68 11.4744C181.694 3.51382 188.587 -0.471562 195.792 0.135573C198.95 0.400134 201.793 1.48551 204.405 3.54434C203.451 5.10458 202.515 6.63089 201.511 8.27592C199.405 6.69534 197.111 5.96949 194.618 5.91183C190.904 5.82364 188.014 8.0351 187.359 11.4269C186.596 15.3818 188.16 18.6956 191.467 19.9641C193.845 20.8731 196.26 20.7374 198.601 19.7979C198.96 19.6521 199.333 19.1094 199.384 18.7091C199.5 17.7934 199.418 16.8572 199.418 15.6938Z" fill="#051826"/>
<path d="M260.881 13.3128C260.853 20.802 255.117 26.412 247.529 26.3713C240.073 26.3306 234.34 20.6052 234.371 13.2314C234.398 5.79658 240.246 0.0067597 247.682 0.0542451C255.195 0.10173 260.904 5.83729 260.881 13.3128ZM247.556 6.09506C243.533 6.12559 240.551 9.22231 240.599 13.3196C240.646 17.4169 243.686 20.4662 247.688 20.439C251.712 20.4119 254.629 17.3491 254.598 13.1907C254.564 9.01541 251.634 6.06454 247.556 6.09506Z" fill="#051826"/>
<path d="M82.599 0.461161C85.16 0.461161 87.677 0.440811 90.1974 0.467945C92.5889 0.49508 95.021 0.311922 97.3616 0.674846C102.915 1.53637 106.005 6.8649 104.455 12.5292C103.305 16.7351 99.8481 19.1941 94.9227 19.2755C92.962 19.3095 91.0013 19.2823 88.8711 19.2823C88.8711 21.5786 88.8711 23.7426 88.8711 25.9676C86.7001 25.9676 84.6987 25.9676 82.5956 25.9676C82.599 17.5084 82.599 9.06619 82.599 0.461161ZM88.9321 13.7265C90.8691 13.7265 92.7347 13.7808 94.597 13.713C96.6493 13.635 98.057 12.1731 98.2063 10.121C98.3522 8.08596 97.1581 6.29508 95.1432 6.0814C93.1181 5.86432 91.0522 6.03391 88.9321 6.03391C88.9321 8.59473 88.9321 11.0877 88.9321 13.7265Z" fill="#051826"/>
<path d="M264.534 0.529133C264.927 0.501999 265.202 0.464689 265.477 0.464689C267.163 0.457905 268.852 0.461297 270.769 0.461297C270.769 1.02095 270.769 1.50598 270.769 1.9944C270.769 5.90855 270.769 9.8227 270.769 13.7335C270.769 14.2456 270.765 14.7612 270.803 15.27C271.054 18.7126 273.062 20.5883 276.44 20.5408C279.822 20.4933 281.902 18.5838 281.987 15.1682C282.095 10.8369 282.027 6.50212 282.034 2.17077C282.034 1.66539 282.034 1.1634 282.034 0.55966C284.174 0.55966 286.206 0.55966 288.415 0.55966C288.415 1.11931 288.418 1.61791 288.415 2.11989C288.384 6.63779 288.445 11.1591 288.306 15.6736C288.096 22.4369 282.767 26.585 276.088 26.4121C271.345 26.2866 267.407 24.6551 265.47 20.0422C264.802 18.4549 264.51 16.6233 264.459 14.8901C264.324 10.3281 264.412 5.75931 264.419 1.19393C264.419 1.01077 264.48 0.834397 264.534 0.529133Z" fill="#051826"/>
<path d="M130.422 26.0151C131.002 24.5193 131.517 23.1965 132.036 21.8635C134.669 15.0968 137.318 8.34035 139.916 1.56011C140.232 0.73251 140.632 0.403504 141.534 0.437422C143.315 0.505259 145.103 0.410288 146.88 0.491691C147.318 0.512042 147.986 0.868183 148.125 1.23111C151.253 9.30023 157.6 26.0117 157.6 26.0117H156.969H151.833H151.138L150.724 24.8347L149.214 21.5006H145.652L139.604 21.3412L138.715 21.3208L136.68 26.0083H132.565C132.565 26.0151 131.27 26.0151 130.422 26.0151ZM140.262 16.6198C142.898 16.6198 145.296 16.6198 147.847 16.6198C146.612 13.3365 145.432 10.1923 144.123 6.71228C142.762 10.2025 141.545 13.3331 140.262 16.6198Z" fill="#051826"/>
<path d="M154.102 0.464569C156.589 0.464569 158.695 0.4103 160.798 0.512055C161.209 0.532406 161.711 1.0751 161.969 1.49907C163.726 4.35159 165.429 7.23802 167.271 10.3212C168.488 8.29287 169.598 6.42059 170.734 4.56527C171.558 3.21872 172.121 1.38036 173.336 0.701996C174.557 0.01685 176.436 0.488312 178.031 0.464569C178.729 0.454394 179.428 0.461177 180.446 0.461177C180.09 1.08866 179.876 1.51264 179.621 1.90948C176.769 6.34597 173.892 10.7655 171.08 15.2223C170.71 15.8091 170.497 16.5892 170.48 17.288C170.412 20.1269 170.452 22.9692 170.452 25.9235C168.366 25.9235 166.331 25.9235 164.089 25.9235C164.089 23.5967 164.004 21.2326 164.116 18.8753C164.204 17.0302 163.746 15.4801 162.695 13.9301C160.049 10.0295 157.566 6.02375 155.022 2.05533C154.754 1.63474 154.523 1.19381 154.102 0.464569Z" fill="#051826"/>
<path d="M115.489 20.5137C119.339 20.5137 123.04 20.568 126.738 20.4832C128.03 20.4526 128.495 20.8088 128.38 22.1112C128.268 23.3526 128.356 24.6076 128.356 25.9406H116.89C112.643 25.9406 109.197 22.4979 109.197 18.248V0.569824H115.493V20.5137H115.489Z" fill="#051826"/>
<path d="M130.73 31.5032C134.92 31.6829 139.072 31.5676 143.132 32.1137C147.182 32.6598 149.241 36.4722 147.979 40.1896C147.345 42.0551 145.924 43.1337 143.807 43.8562C144.811 44.175 145.53 44.3717 146.226 44.6329C148.926 45.6538 150.296 47.655 150.3 50.5346C150.306 53.4143 148.943 55.4494 146.229 56.4228C145.225 56.7824 144.146 57.1181 143.095 57.1385C139.014 57.2199 134.93 57.1724 130.734 57.1724C130.73 48.7166 130.73 40.2676 130.73 31.5032ZM133.315 54.7201C136.88 54.7201 140.313 54.961 143.688 54.6489C146.677 54.3708 148.088 51.949 147.44 49.0694C146.969 46.9698 145.405 45.8438 143.464 45.6369C140.133 45.2841 136.768 45.2705 133.315 45.1077C133.315 48.547 133.315 51.6845 133.315 54.7201ZM133.291 43.11C136.249 42.9573 139.116 42.9912 141.928 42.6114C144.357 42.2824 145.68 40.5084 145.632 38.3784C145.581 36.1194 144.37 34.471 141.88 34.2166C139.068 33.9283 136.205 34.1488 133.291 34.1488C133.291 36.9979 133.291 39.8742 133.291 43.11Z" fill="#051826"/>
<path d="M155.076 53.2955C157.382 53.9366 159.55 54.6828 161.775 55.1136C164.028 55.5477 166.273 55.1916 168.329 54.0994C169.998 53.2141 170.931 51.8201 170.836 49.9037C170.744 48.0416 169.452 47.0817 167.851 46.5899C165.751 45.9421 163.594 45.4842 161.47 44.9144C160.432 44.6362 159.377 44.3717 158.39 43.9545C155.903 42.903 154.313 41.1461 154.35 38.3105C154.387 35.4207 155.924 33.467 158.509 32.3782C162.176 30.835 165.941 31.1504 169.682 32.134C170.754 32.4155 171.775 32.8802 172.922 33.2974C172.661 34.1352 172.444 34.8305 172.193 35.6344C169.208 34.3116 166.195 33.4636 163.017 33.7723C161.653 33.9045 160.266 34.3285 159.007 34.8814C157.613 35.4953 156.955 36.7842 156.986 38.3003C157.02 39.8572 157.885 41.007 159.316 41.4954C161.348 42.1907 163.458 42.6554 165.527 43.2422C166.833 43.6119 168.163 43.9375 169.411 44.4497C171.606 45.3451 173.285 46.7663 173.502 49.3169C173.736 52.0813 172.61 54.2317 170.3 55.7275C167.345 57.6405 164.038 57.844 160.673 57.3827C159.292 57.1927 157.922 56.7857 156.599 56.3278C154.323 55.5511 154.34 55.5002 155.076 53.2955Z" fill="#051826"/>
<path d="M126.833 57.1723L124.156 57.1858L121.429 51.0467H117.267H108.817H107.681L105.075 57.1384L102.531 57.1723L102.959 55.958C102.959 55.958 109.658 40.5761 112.915 32.8496C113.403 31.693 114.105 31.6964 115.075 31.6421C116.086 31.5878 116.554 31.9609 116.928 32.8835C120.052 40.6168 123.227 48.3264 126.388 56.0462C126.527 56.382 126.833 57.1723 126.833 57.1723ZM114.913 34.2436C112.694 39.3144 110.601 44.1036 108.474 48.9709C112.735 48.9709 116.772 48.9709 120.978 48.9709C118.966 44.0799 117.006 39.3246 114.913 34.2436Z" fill="#051826"/>
<path d="M85.0922 49.0387C85.0922 52.3118 87.7483 54.9676 91.0217 54.9676H92.538C94.9634 54.9676 97.3922 54.9676 99.882 54.9676V57.1384H90.289C86.042 57.1384 82.5956 53.6957 82.5956 49.4457V31.771H85.0922C85.0922 35.6818 85.0922 39.5349 85.0922 43.3913V49.0387V49.0387Z" fill="#051826"/>
</g>
<defs>
<linearGradient id="paint0_linear_3006_49156" x1="3.7314" y1="45.111" x2="53.2537" y2="11.3578" gradientUnits="userSpaceOnUse">
<stop stop-color="#00C1FF" stop-opacity="0"/>
<stop offset="0.667426" stop-color="#00C1FF" stop-opacity="0.3"/>
<stop offset="1" stop-color="#00C1FF"/>
</linearGradient>
<linearGradient id="paint1_linear_3006_49156" x1="3.39218" y1="12.0408" x2="52.9143" y2="47.1508" gradientUnits="userSpaceOnUse">
<stop stop-color="#B450FF" stop-opacity="0"/>
<stop offset="0.477908" stop-color="#B450FF" stop-opacity="0.3"/>
<stop offset="1" stop-color="#B450FF"/>
</linearGradient>
<linearGradient id="paint2_linear_3006_49156" x1="4.07061" y1="44.7718" x2="53.2537" y2="11.3578" gradientUnits="userSpaceOnUse">
<stop stop-color="#FF00FF"/>
<stop offset="0.565873" stop-color="#FF00FF" stop-opacity="0.3"/>
<stop offset="1" stop-color="#FF00FF" stop-opacity="0"/>
</linearGradient>
<linearGradient id="paint3_linear_3006_49156" x1="46.9814" y1="3.22213" x2="34.9409" y2="21.3695" gradientUnits="userSpaceOnUse">
<stop stop-color="#00C1FF"/>
<stop offset="0.476093" stop-color="#00C1FF" stop-opacity="0.72"/>
<stop offset="1" stop-color="#00C1FF" stop-opacity="0"/>
</linearGradient>
<linearGradient id="paint4_linear_3006_49156" x1="35.6177" y1="37.3098" x2="45.6231" y2="53.4219" gradientUnits="userSpaceOnUse">
<stop stop-color="#B450FF" stop-opacity="0"/>
<stop offset="0.442955" stop-color="#B450FF" stop-opacity="0.72"/>
<stop offset="1" stop-color="#B450FF"/>
</linearGradient>
<linearGradient id="paint5_linear_3006_49156" x1="21.201" y1="22.7251" x2="5.08901" y2="13.905" gradientUnits="userSpaceOnUse">
<stop stop-color="#FF00FF" stop-opacity="0"/>
<stop offset="0.489717" stop-color="#FF00FF" stop-opacity="0.72"/>
<stop offset="1" stop-color="#FF00FF"/>
</linearGradient>
<clipPath id="clip0_3006_49156">
<rect width="346" height="58" fill="white"/>
</clipPath>
</defs>
</svg>
