<svg width="81" height="24" viewBox="0 0 81 24" fill="none" xmlns="http://www.w3.org/2000/svg">
<path d="M71.8266 11.6274C71.5256 11.6274 71.2489 11.6383 70.9741 11.6207C70.8911 11.6153 70.7936 11.5464 70.7361 11.4787C70.1046 10.7355 69.4796 9.98626 68.8524 9.23881C68.7671 9.13671 68.6804 9.03519 68.5534 8.88414C68.5534 9.82311 68.5534 10.7089 68.5534 11.6111C68.1549 11.6111 67.7909 11.6111 67.4106 11.6111C67.4106 10.1089 67.4106 8.61041 67.4106 7.07624C67.7219 7.07624 68.0289 7.06719 68.3346 7.08349C68.3994 7.08711 68.4679 7.17354 68.5194 7.23456C69.1641 7.99951 69.8066 8.76691 70.4496 9.53309C70.5174 9.61406 70.5876 9.69381 70.6974 9.82131C70.6974 8.87869 70.6974 7.99651 70.6974 7.09316C71.0849 7.09316 71.4474 7.09316 71.8266 7.09316C71.8266 8.59831 71.8266 10.098 71.8266 11.6274Z" fill="white"/>
<path d="M72.5737 7.04199C73.4712 7.07462 74.3677 7.02387 75.2355 7.15982C76.398 7.34169 77.0332 8.23537 76.9987 9.40759C76.961 10.665 76.2217 11.4922 74.9522 11.5919C74.1705 11.6535 73.3797 11.6034 72.5737 11.6034C72.5737 10.1164 72.5737 8.61784 72.5737 7.04199ZM73.7127 10.639C74.0355 10.639 74.3437 10.6499 74.6505 10.6366C75.2875 10.6088 75.6775 10.2698 75.7992 9.65834C75.9462 8.91634 75.5897 8.22752 74.9447 8.10544C74.549 8.03052 74.1347 8.04864 73.7132 8.02387C73.7127 8.91514 73.7127 9.75804 73.7127 10.639Z" fill="white"/>
<path d="M55.3946 9.95259C55.8093 10.4064 56.2108 10.8396 56.6026 11.2813C56.6758 11.3635 56.7096 11.4801 56.7853 11.6269C56.3441 11.6269 55.9763 11.633 55.6096 11.6215C55.5411 11.6191 55.4606 11.5569 55.4108 11.5007C55.0513 11.0952 54.6838 10.6958 54.3496 10.271C54.1696 10.0426 53.9723 9.96649 53.6671 10.0414C53.6671 10.5532 53.6671 11.0783 53.6671 11.6149C53.2688 11.6149 52.9053 11.6149 52.5288 11.6149C52.5288 10.1031 52.5288 8.60514 52.5288 7.09577C52.5791 7.08729 52.6183 7.07462 52.6578 7.07462C53.4456 7.07884 54.2338 7.05952 55.0198 7.09637C56.1658 7.14954 56.8193 8.22509 56.3251 9.20457C56.1351 9.58222 55.8056 9.79852 55.3946 9.95259ZM53.6756 9.16769C54.0558 9.16769 54.4228 9.18884 54.7861 9.16167C55.1088 9.13749 55.2898 8.91572 55.2928 8.61784C55.2958 8.31329 55.1246 8.08914 54.8011 8.06374C54.4306 8.03414 54.0558 8.05712 53.6756 8.05712C53.6756 8.43537 53.6756 8.79427 53.6756 9.16769Z" fill="white"/>
<path d="M50.8527 9.78631C50.4712 9.78631 50.1237 9.78631 49.7629 9.78631C49.7629 9.49988 49.7629 9.23706 49.7629 8.95426C50.4664 8.95426 51.1737 8.95426 51.9214 8.95426C51.9214 9.07209 51.9214 9.20079 51.9214 9.32951C51.9214 9.84431 51.9262 10.3591 51.9172 10.8733C51.9154 10.9597 51.8802 11.086 51.8172 11.1241C50.8837 11.6891 49.8919 11.9054 48.8509 11.4661C47.8622 11.0492 47.3737 10.0878 47.5079 9.03464C47.6892 7.61649 48.9194 6.90651 50.2054 7.01466C50.7692 7.06179 51.2764 7.25514 51.7427 7.62191C51.5727 7.89986 51.4054 8.17179 51.2262 8.46484C50.8502 8.18326 50.4409 8.05396 49.9959 8.04369C49.3329 8.02796 48.8172 8.42194 48.7002 9.02616C48.5639 9.73071 48.8432 10.3211 49.4334 10.547C49.8579 10.709 50.2889 10.6848 50.7067 10.5174C50.7709 10.4915 50.8377 10.3948 50.8467 10.3235C50.8667 10.1603 50.8527 9.99356 50.8527 9.78631Z" fill="white"/>
<path d="M61.8231 9.36203C61.8181 10.6962 60.7943 11.6956 59.4398 11.6884C58.1088 11.6811 57.0856 10.6612 57.0911 9.34753C57.0961 8.02303 58.1398 6.9916 59.4671 7.00005C60.8088 7.0085 61.8278 8.03028 61.8231 9.36203ZM59.4446 8.0762C58.7266 8.08165 58.1943 8.6333 58.2028 9.36323C58.2113 10.0932 58.7538 10.6364 59.4683 10.6315C60.1863 10.6267 60.7071 10.0811 60.7016 9.34028C60.6956 8.59645 60.1723 8.07078 59.4446 8.0762Z" fill="white"/>
<path d="M30.0005 7.07264C30.4577 7.07264 30.907 7.06901 31.357 7.07386C31.7838 7.07869 32.218 7.04606 32.6357 7.11071C33.6267 7.26419 34.1785 8.21284 33.9017 9.22191C33.6965 9.97119 33.0795 10.4093 32.2002 10.4238C31.8502 10.4298 31.5005 10.425 31.1203 10.425C31.1203 10.834 31.1203 11.2195 31.1203 11.6159C30.7328 11.6159 30.3755 11.6159 30 11.6159C30.0005 10.1096 30.0005 8.60559 30.0005 7.07264ZM31.1318 9.43581C31.4773 9.43581 31.8105 9.44549 32.1427 9.43341C32.509 9.41951 32.7605 9.15909 32.787 8.79351C32.813 8.43096 32.6 8.11194 32.2402 8.07386C31.8787 8.03519 31.51 8.06541 31.1318 8.06541C31.1318 8.52161 31.1318 8.96574 31.1318 9.43581Z" fill="white"/>
<path d="M62.4754 7.08452C62.5457 7.07967 62.5947 7.07302 62.6439 7.07302C62.9447 7.07182 63.2462 7.07242 63.5884 7.07242C63.5884 7.17212 63.5884 7.25852 63.5884 7.34554C63.5884 8.04282 63.5884 8.74012 63.5884 9.43682C63.5884 9.52804 63.5877 9.61989 63.5944 9.71054C63.6392 10.3238 63.9977 10.658 64.6007 10.6495C65.2044 10.6411 65.5757 10.3009 65.5907 9.69239C65.6102 8.92079 65.5979 8.14857 65.5992 7.37697C65.5992 7.28692 65.5992 7.19749 65.5992 7.08994C65.9812 7.08994 66.3439 7.08994 66.7382 7.08994C66.7382 7.18964 66.7387 7.27847 66.7382 7.36789C66.7327 8.17274 66.7434 8.97819 66.7187 9.78244C66.6812 10.9873 65.7299 11.7263 64.5377 11.6955C63.6914 11.6731 62.9884 11.3825 62.6427 10.5607C62.5234 10.2779 62.4712 9.95162 62.4622 9.64287C62.4379 8.83014 62.4537 8.01624 62.4549 7.20294C62.4544 7.17092 62.4652 7.13889 62.4754 7.08452Z" fill="white"/>
<path d="M38.5374 11.6249C38.6409 11.3584 38.7329 11.1227 38.8256 10.8853C39.2954 9.67982 39.7684 8.47617 40.2321 7.26829C40.2884 7.12087 40.3599 7.06224 40.5209 7.06829C40.8389 7.08037 41.1579 7.06347 41.4751 7.07797C41.5534 7.08159 41.6726 7.14504 41.6974 7.20969C42.2556 8.64717 43.3886 11.6243 43.3886 11.6243H42.2344L42.1606 11.4146L41.8911 10.8206H41.2554L40.1759 10.7922L40.0171 10.7886L39.6539 11.6236H38.9194C38.9194 11.6236 38.6881 11.6249 38.5374 11.6249ZM40.2934 9.95112C40.7639 9.95112 41.1919 9.95112 41.6471 9.95112C41.4269 9.36622 41.2161 8.80609 40.9824 8.18614C40.7401 8.80789 40.5221 9.36562 40.2934 9.95112Z" fill="white"/>
<path d="M42.7634 7.0731C43.2072 7.0731 43.5832 7.06342 43.9587 7.08155C44.0319 7.08517 44.1214 7.18185 44.1677 7.25737C44.4812 7.76555 44.7852 8.27975 45.1139 8.829C45.3314 8.46767 45.5292 8.13412 45.7322 7.80362C45.8792 7.56372 45.9797 7.23622 46.1964 7.1154C46.4144 6.99332 46.7499 7.07732 47.0344 7.0731C47.1592 7.07127 47.2839 7.07247 47.4657 7.07247C47.4019 7.18427 47.3639 7.2598 47.3184 7.3305C46.8092 8.12085 46.2959 8.90817 45.7939 9.70215C45.7279 9.80667 45.6897 9.94565 45.6867 10.0701C45.6747 10.5759 45.6819 11.0822 45.6819 11.6085C45.3094 11.6085 44.9462 11.6085 44.5459 11.6085C44.5459 11.194 44.5309 10.7728 44.5509 10.3529C44.5667 10.0242 44.4849 9.74805 44.2972 9.47192C43.8249 8.77705 43.3817 8.06345 42.9274 7.35647C42.8797 7.28155 42.8384 7.203 42.7634 7.0731Z" fill="white"/>
<path d="M35.8713 10.6447C36.5585 10.6447 37.2193 10.6544 37.879 10.6393C38.1098 10.6338 38.1928 10.6973 38.1723 10.9293C38.1523 11.1505 38.168 11.374 38.168 11.6115H36.1215C35.3633 11.6115 34.7483 10.9982 34.7483 10.2411V7.0918H35.872L35.8713 10.6447Z" fill="white"/>
<path d="M38.5918 12.6025C39.3395 12.6346 40.0808 12.614 40.8055 12.7113C41.5283 12.8086 41.896 13.4878 41.6708 14.15C41.5575 14.4823 41.3038 14.6745 40.926 14.8032C41.105 14.86 41.2335 14.895 41.3575 14.9415C41.8395 15.1234 42.0843 15.4799 42.0848 15.9929C42.086 16.5059 41.8425 16.8685 41.3583 17.0419C41.179 17.1059 40.9865 17.1658 40.7988 17.1694C40.0703 17.1839 39.3413 17.1754 38.5925 17.1754C38.5918 15.6691 38.5918 14.1639 38.5918 12.6025ZM39.0533 16.7386C39.6895 16.7386 40.3023 16.7815 40.9048 16.7259C41.4383 16.6763 41.69 16.2449 41.5743 15.7319C41.4903 15.3579 41.211 15.1573 40.8648 15.1204C40.2703 15.0576 39.6695 15.0551 39.0533 15.0261C39.0533 15.6388 39.0533 16.1978 39.0533 16.7386ZM39.0495 14.6702C39.5775 14.6431 40.0893 14.6491 40.591 14.5814C41.0245 14.5228 41.2608 14.2068 41.2523 13.8273C41.2433 13.4249 41.027 13.1312 40.5825 13.0859C40.0808 13.0346 39.5695 13.0738 39.0495 13.0738C39.0495 13.5814 39.0495 14.0938 39.0495 14.6702Z" fill="white"/>
<path d="M42.9372 16.4848C43.349 16.599 43.736 16.7319 44.133 16.8087C44.5352 16.886 44.936 16.8226 45.303 16.628C45.6007 16.4703 45.7672 16.222 45.7502 15.8806C45.734 15.5488 45.5032 15.3778 45.2175 15.2902C44.8427 15.1748 44.4577 15.0932 44.0787 14.9917C43.8932 14.9422 43.705 14.8951 43.5287 14.8207C43.085 14.6334 42.801 14.3204 42.8077 13.8153C42.8145 13.3005 43.0887 12.9524 43.55 12.7585C44.2045 12.4835 44.8767 12.5397 45.5445 12.715C45.7357 12.7651 45.918 12.8479 46.1227 12.9222C46.076 13.0715 46.0372 13.1953 45.9925 13.3385C45.4597 13.1029 44.922 12.9518 44.3547 13.0068C44.1112 13.0304 43.8637 13.1059 43.639 13.2044C43.3902 13.3138 43.2727 13.5434 43.2782 13.8135C43.2842 14.0908 43.4387 14.2956 43.6942 14.3827C44.0567 14.5065 44.4335 14.5893 44.8027 14.6938C45.036 14.7597 45.2732 14.8177 45.496 14.909C45.8877 15.0685 46.1875 15.3216 46.2262 15.776C46.268 16.2685 46.067 16.6516 45.6547 16.918C45.1272 17.2588 44.537 17.2951 43.9362 17.2129C43.69 17.1791 43.4452 17.1066 43.2092 17.025C42.803 16.8866 42.806 16.8776 42.9372 16.4848Z" fill="white"/>
<path d="M37.8968 17.1755L37.4191 17.1779L36.9321 16.0843H34.4776L34.0126 17.1695L33.5586 17.1755L33.6348 16.9592C33.6348 16.9592 34.8306 14.219 35.4118 12.8425C35.4991 12.6365 35.6243 12.6371 35.7976 12.6274C35.9781 12.6177 36.0616 12.6842 36.1281 12.8485C36.6858 14.2262 37.2526 15.5997 37.8168 16.9749C37.8423 17.0347 37.8968 17.1755 37.8968 17.1755ZM35.7691 13.0915C35.3731 13.9948 34.9996 14.848 34.6198 15.7151C35.3803 15.7151 36.1008 15.7151 36.8516 15.7151C36.4921 14.8431 36.1426 13.996 35.7691 13.0915Z" fill="white"/>
<path d="M30.4462 15.7266C30.4462 16.3097 30.9202 16.7828 31.5045 16.7828H31.7752C32.2082 16.7828 32.6417 16.7828 33.086 16.7828V17.1695H31.3737C30.6152 17.1695 30.0005 16.5562 30.0005 15.7991V12.6504H30.4462C30.4462 13.3471 30.4462 14.0335 30.4462 14.7205V15.7266Z" fill="white"/>
<path d="M10.5765 2.08204C14.389 1.59168 19.7268 3.24267 21.666 8.57428C22.0658 9.67375 21.693 9.94773 21.185 10.3899C19.6433 11.3541 12.7309 15.6227 12.7309 15.6227C12.3111 15.9014 12.3475 16.2659 12.3475 16.5752C12.3475 16.8844 12.3475 18.2485 12.3475 18.2485C12.3475 18.8788 12.7709 19.0305 13.2319 18.7483C13.6929 18.4661 20.8922 13.9423 20.8922 13.9423C21.2709 13.7518 21.5966 13.6836 21.8342 13.88C22.0811 14.0846 22.0094 14.3786 21.8941 14.7267C21.7307 15.2053 21.1086 17.71 18.3156 19.923C14.6289 22.8452 10.1155 21.8691 9.78275 21.7433C9.17005 21.5128 9.06892 21.4447 9.0948 20.725C9.12067 20.0053 9.0948 10.4346 9.0948 10.4346C9.0948 9.84308 8.9384 9.81837 8.7173 9.66435C8.49622 9.5103 7.47547 8.87648 6.9851 8.57193C6.63347 8.3532 6.1913 8.50725 6.1913 9.29158C6.1913 10.5251 6.1913 18.8224 6.1913 18.8224C6.1913 19.582 5.53865 19.6855 5.11057 19.2187C3.21842 17.1585 1.67203 14.8536 2.0601 11.0531C2.2118 9.56555 2.88327 6.8974 5.19172 4.7396C5.6974 4.26808 6.31007 4.26808 6.71345 4.535C7.16855 4.83603 15.0005 9.76313 15.0005 9.76313C15.3757 9.9936 15.5944 9.94655 15.906 9.71607C16.2177 9.4856 17.4407 8.6942 17.4407 8.6942C17.7653 8.4602 17.6782 8.03805 17.4172 7.88282C17.1138 7.70172 10.025 3.26265 10.025 3.26265C9.41112 2.85108 9.5499 2.19963 10.5765 2.08204Z" fill="url(#paint0_linear_5105_3210)"/>
<path d="M10.5765 2.08204C14.389 1.59168 19.7268 3.24267 21.666 8.57428C22.0658 9.67375 21.693 9.94773 21.185 10.3899C19.6433 11.3541 12.7309 15.6227 12.7309 15.6227C12.3111 15.9014 12.3475 16.2659 12.3475 16.5752C12.3475 16.8844 12.3475 18.2485 12.3475 18.2485C12.3475 18.8788 12.7709 19.0305 13.2319 18.7483C13.6929 18.4661 20.8922 13.9423 20.8922 13.9423C21.2709 13.7518 21.5966 13.6836 21.8342 13.88C22.0811 14.0846 22.0094 14.3786 21.8941 14.7267C21.7307 15.2053 21.1086 17.71 18.3156 19.923C14.6289 22.8452 10.1155 21.8691 9.78275 21.7433C9.17005 21.5128 9.06892 21.4447 9.0948 20.725C9.12067 20.0053 9.0948 10.4346 9.0948 10.4346C9.0948 9.84308 8.9384 9.81837 8.7173 9.66435C8.49622 9.5103 7.47547 8.87648 6.9851 8.57193C6.63347 8.3532 6.1913 8.50725 6.1913 9.29158C6.1913 10.5251 6.1913 18.8224 6.1913 18.8224C6.1913 19.582 5.53865 19.6855 5.11057 19.2187C3.21842 17.1585 1.67203 14.8536 2.0601 11.0531C2.2118 9.56555 2.88327 6.8974 5.19172 4.7396C5.6974 4.26808 6.31007 4.26808 6.71345 4.535C7.16855 4.83603 15.0005 9.76313 15.0005 9.76313C15.3757 9.9936 15.5944 9.94655 15.906 9.71607C16.2177 9.4856 17.4407 8.6942 17.4407 8.6942C17.7653 8.4602 17.6782 8.03805 17.4172 7.88282C17.1138 7.70172 10.025 3.26265 10.025 3.26265C9.41112 2.85108 9.5499 2.19963 10.5765 2.08204Z" fill="url(#paint1_linear_5105_3210)"/>
<path d="M10.5765 2.08204C14.389 1.59168 19.7268 3.24267 21.666 8.57428C22.0658 9.67375 21.693 9.94773 21.185 10.3899C19.6433 11.3541 12.7309 15.6227 12.7309 15.6227C12.3111 15.9014 12.3475 16.2659 12.3475 16.5752C12.3475 16.8844 12.3475 18.2485 12.3475 18.2485C12.3475 18.8788 12.7709 19.0305 13.2319 18.7483C13.6929 18.4661 20.8922 13.9423 20.8922 13.9423C21.2709 13.7518 21.5966 13.6836 21.8342 13.88C22.0811 14.0846 22.0094 14.3786 21.8941 14.7267C21.7307 15.2053 21.1086 17.71 18.3156 19.923C14.6289 22.8452 10.1155 21.8691 9.78275 21.7433C9.17005 21.5128 9.06892 21.4447 9.0948 20.725C9.12067 20.0053 9.0948 10.4346 9.0948 10.4346C9.0948 9.84308 8.9384 9.81837 8.7173 9.66435C8.49622 9.5103 7.47547 8.87648 6.9851 8.57193C6.63347 8.3532 6.1913 8.50725 6.1913 9.29158C6.1913 10.5251 6.1913 18.8224 6.1913 18.8224C6.1913 19.582 5.53865 19.6855 5.11057 19.2187C3.21842 17.1585 1.67203 14.8536 2.0601 11.0531C2.2118 9.56555 2.88327 6.8974 5.19172 4.7396C5.6974 4.26808 6.31007 4.26808 6.71345 4.535C7.16855 4.83603 15.0005 9.76313 15.0005 9.76313C15.3757 9.9936 15.5944 9.94655 15.906 9.71607C16.2177 9.4856 17.4407 8.6942 17.4407 8.6942C17.7653 8.4602 17.6782 8.03805 17.4172 7.88282C17.1138 7.70172 10.025 3.26265 10.025 3.26265C9.41112 2.85108 9.5499 2.19963 10.5765 2.08204Z" fill="url(#paint2_linear_5105_3210)"/>
<path d="M10.5765 2.08204C14.389 1.59168 19.7268 3.24267 21.666 8.57428C22.0658 9.67375 21.693 9.94773 21.185 10.3899C19.6433 11.3541 12.7309 15.6227 12.7309 15.6227C12.3111 15.9014 12.3475 16.2659 12.3475 16.5752C12.3475 16.8844 12.3475 18.2485 12.3475 18.2485C12.3475 18.8788 12.7709 19.0305 13.2319 18.7483C13.6929 18.4661 20.8922 13.9423 20.8922 13.9423C21.2709 13.7518 21.5966 13.6836 21.8342 13.88C22.0811 14.0846 22.0094 14.3786 21.8941 14.7267C21.7307 15.2053 21.1086 17.71 18.3156 19.923C14.6289 22.8452 10.1155 21.8691 9.78275 21.7433C9.17005 21.5128 9.06892 21.4447 9.0948 20.725C9.12067 20.0053 9.0948 10.4346 9.0948 10.4346C9.0948 9.84308 8.9384 9.81837 8.7173 9.66435C8.49622 9.5103 7.47547 8.87648 6.9851 8.57193C6.63347 8.3532 6.1913 8.50725 6.1913 9.29158C6.1913 10.5251 6.1913 18.8224 6.1913 18.8224C6.1913 19.582 5.53865 19.6855 5.11057 19.2187C3.21842 17.1585 1.67203 14.8536 2.0601 11.0531C2.2118 9.56555 2.88327 6.8974 5.19172 4.7396C5.6974 4.26808 6.31007 4.26808 6.71345 4.535C7.16855 4.83603 15.0005 9.76313 15.0005 9.76313C15.3757 9.9936 15.5944 9.94655 15.906 9.71607C16.2177 9.4856 17.4407 8.6942 17.4407 8.6942C17.7653 8.4602 17.6782 8.03805 17.4172 7.88282C17.1138 7.70172 10.025 3.26265 10.025 3.26265C9.41112 2.85108 9.5499 2.19963 10.5765 2.08204Z" fill="url(#paint3_linear_5105_3210)"/>
<path d="M10.5765 2.08204C14.389 1.59168 19.7268 3.24267 21.666 8.57428C22.0658 9.67375 21.693 9.94773 21.185 10.3899C19.6433 11.3541 12.7309 15.6227 12.7309 15.6227C12.3111 15.9014 12.3475 16.2659 12.3475 16.5752C12.3475 16.8844 12.3475 18.2485 12.3475 18.2485C12.3475 18.8788 12.7709 19.0305 13.2319 18.7483C13.6929 18.4661 20.8922 13.9423 20.8922 13.9423C21.2709 13.7518 21.5966 13.6836 21.8342 13.88C22.0811 14.0846 22.0094 14.3786 21.8941 14.7267C21.7307 15.2053 21.1086 17.71 18.3156 19.923C14.6289 22.8452 10.1155 21.8691 9.78275 21.7433C9.17005 21.5128 9.06892 21.4447 9.0948 20.725C9.12067 20.0053 9.0948 10.4346 9.0948 10.4346C9.0948 9.84308 8.9384 9.81837 8.7173 9.66435C8.49622 9.5103 7.47547 8.87648 6.9851 8.57193C6.63347 8.3532 6.1913 8.50725 6.1913 9.29158C6.1913 10.5251 6.1913 18.8224 6.1913 18.8224C6.1913 19.582 5.53865 19.6855 5.11057 19.2187C3.21842 17.1585 1.67203 14.8536 2.0601 11.0531C2.2118 9.56555 2.88327 6.8974 5.19172 4.7396C5.6974 4.26808 6.31007 4.26808 6.71345 4.535C7.16855 4.83603 15.0005 9.76313 15.0005 9.76313C15.3757 9.9936 15.5944 9.94655 15.906 9.71607C16.2177 9.4856 17.4407 8.6942 17.4407 8.6942C17.7653 8.4602 17.6782 8.03805 17.4172 7.88282C17.1138 7.70172 10.025 3.26265 10.025 3.26265C9.41112 2.85108 9.5499 2.19963 10.5765 2.08204Z" fill="url(#paint4_linear_5105_3210)"/>
<path d="M10.5765 2.08204C14.389 1.59168 19.7268 3.24267 21.666 8.57428C22.0658 9.67375 21.693 9.94773 21.185 10.3899C19.6433 11.3541 12.7309 15.6227 12.7309 15.6227C12.3111 15.9014 12.3475 16.2659 12.3475 16.5752C12.3475 16.8844 12.3475 18.2485 12.3475 18.2485C12.3475 18.8788 12.7709 19.0305 13.2319 18.7483C13.6929 18.4661 20.8922 13.9423 20.8922 13.9423C21.2709 13.7518 21.5966 13.6836 21.8342 13.88C22.0811 14.0846 22.0094 14.3786 21.8941 14.7267C21.7307 15.2053 21.1086 17.71 18.3156 19.923C14.6289 22.8452 10.1155 21.8691 9.78275 21.7433C9.17005 21.5128 9.06892 21.4447 9.0948 20.725C9.12067 20.0053 9.0948 10.4346 9.0948 10.4346C9.0948 9.84308 8.9384 9.81837 8.7173 9.66435C8.49622 9.5103 7.47547 8.87648 6.9851 8.57193C6.63347 8.3532 6.1913 8.50725 6.1913 9.29158C6.1913 10.5251 6.1913 18.8224 6.1913 18.8224C6.1913 19.582 5.53865 19.6855 5.11057 19.2187C3.21842 17.1585 1.67203 14.8536 2.0601 11.0531C2.2118 9.56555 2.88327 6.8974 5.19172 4.7396C5.6974 4.26808 6.31007 4.26808 6.71345 4.535C7.16855 4.83603 15.0005 9.76313 15.0005 9.76313C15.3757 9.9936 15.5944 9.94655 15.906 9.71607C16.2177 9.4856 17.4407 8.6942 17.4407 8.6942C17.7653 8.4602 17.6782 8.03805 17.4172 7.88282C17.1138 7.70172 10.025 3.26265 10.025 3.26265C9.41112 2.85108 9.5499 2.19963 10.5765 2.08204Z" fill="white"/>
<defs>
<linearGradient id="paint0_linear_5105_3210" x1="17.0136" y1="3.57485" x2="7.09193" y2="20.7606" gradientUnits="userSpaceOnUse">
<stop stop-color="#00C1FF"/>
<stop offset="0.318716" stop-color="#00C1FF" stop-opacity="0.4"/>
<stop offset="0.685945" stop-color="#00C1FF" stop-opacity="0"/>
</linearGradient>
<linearGradient id="paint1_linear_5105_3210" x1="17.0254" y1="20.438" x2="7.10035" y2="3.24637" gradientUnits="userSpaceOnUse">
<stop stop-color="#B450FF"/>
<stop offset="0.32819" stop-color="#B450FF" stop-opacity="0.56"/>
<stop offset="0.692508" stop-color="#B450FF" stop-opacity="0"/>
</linearGradient>
<linearGradient id="paint2_linear_5105_3210" x1="2.00012" y1="11.9996" x2="22" y2="12" gradientUnits="userSpaceOnUse">
<stop stop-color="#FF00FF"/>
<stop offset="0.43564" stop-color="#FF00FF" stop-opacity="0.5"/>
<stop offset="0.91218" stop-color="#06C3FF" stop-opacity="0"/>
</linearGradient>
<linearGradient id="paint3_linear_5105_3210" x1="16.5" y1="2.5" x2="12.375" y2="9.75" gradientUnits="userSpaceOnUse">
<stop offset="0.454345" stop-color="#00C1FF"/>
<stop offset="0.658002" stop-color="#00C1FF" stop-opacity="0.37"/>
<stop offset="0.844322" stop-color="#00C1FF" stop-opacity="0"/>
</linearGradient>
<linearGradient id="paint4_linear_5105_3210" x1="8.75" y1="3" x2="17.375" y2="20.75" gradientUnits="userSpaceOnUse">
<stop offset="0.650698" stop-color="#B450FF" stop-opacity="0.19"/>
<stop offset="0.739024" stop-color="#B450FF" stop-opacity="0.64"/>
<stop offset="0.870798" stop-color="#B450FF"/>
</linearGradient>
</defs>
</svg>
