<svg width="324" height="96" viewBox="0 0 324 96" fill="none" xmlns="http://www.w3.org/2000/svg">
<path d="M287.307 46.5093C286.103 46.5093 284.996 46.5528 283.897 46.4827C283.565 46.4609 283.175 46.1854 282.945 45.9147C280.419 42.9418 277.919 39.9448 275.41 36.955C275.069 36.5466 274.722 36.1405 274.214 35.5363C274.214 39.2922 274.214 42.8355 274.214 46.444C272.62 46.444 271.164 46.444 269.643 46.444C269.643 40.4354 269.643 34.4414 269.643 28.3047C270.888 28.3047 272.116 28.2685 273.339 28.3337C273.598 28.3482 273.872 28.6939 274.078 28.938C276.657 31.9978 279.227 35.0674 281.799 38.1321C282.07 38.456 282.351 38.775 282.79 39.285C282.79 35.5145 282.79 31.9858 282.79 28.3724C284.34 28.3724 285.79 28.3724 287.307 28.3724C287.307 34.393 287.307 40.3919 287.307 46.5093Z" fill="#05010D"/>
<path d="M290.295 28.167C293.885 28.2975 297.471 28.0945 300.942 28.6383C305.592 29.3658 308.133 32.9405 307.995 37.6294C307.844 42.6591 304.887 45.9679 299.809 46.3667C296.682 46.6132 293.519 46.4126 290.295 46.4126C290.295 40.4645 290.295 34.4704 290.295 28.167ZM294.851 42.5551C296.142 42.5551 297.375 42.5986 298.602 42.5455C301.15 42.4343 302.71 41.0784 303.197 38.6324C303.785 35.6644 302.359 32.9091 299.779 32.4208C298.196 32.1211 296.539 32.1936 294.853 32.0945C294.851 35.6596 294.851 39.0312 294.851 42.5551Z" fill="#05010D"/>
<path d="M221.578 39.8094C223.237 41.6246 224.843 43.3575 226.41 45.1243C226.703 45.453 226.838 45.9195 227.141 46.5068C225.376 46.5068 223.905 46.531 222.438 46.4851C222.164 46.4754 221.842 46.2265 221.643 46.0017C220.205 44.3799 218.735 42.7823 217.398 41.0832C216.678 40.1696 215.889 39.865 214.668 40.1647C214.668 42.2119 214.668 44.3122 214.668 46.4585C213.075 46.4585 211.621 46.4585 210.115 46.4585C210.115 40.4113 210.115 34.4196 210.115 28.3821C210.316 28.3482 210.473 28.2975 210.631 28.2975C213.782 28.3144 216.935 28.2371 220.079 28.3845C224.663 28.5972 227.277 32.8994 225.3 36.8173C224.54 38.3279 223.222 39.1931 221.578 39.8094ZM214.702 36.6698C216.223 36.6698 217.691 36.7544 219.144 36.6457C220.435 36.549 221.159 35.6619 221.171 34.4704C221.183 33.2522 220.498 32.3556 219.204 32.254C217.722 32.1356 216.223 32.2275 214.702 32.2275C214.702 33.7405 214.702 35.1761 214.702 36.6698Z" fill="#05010D"/>
<path d="M203.411 39.1448C201.885 39.1448 200.495 39.1448 199.052 39.1448C199.052 37.9991 199.052 36.9478 199.052 35.8166C201.866 35.8166 204.695 35.8166 207.686 35.8166C207.686 36.2879 207.686 36.8027 207.686 37.3176C207.686 39.3768 207.705 41.4361 207.669 43.4929C207.662 43.8385 207.521 44.3437 207.269 44.4959C203.535 46.7558 199.568 47.6211 195.404 45.8639C191.449 44.1962 189.495 40.3508 190.032 36.1381C190.757 30.4655 195.678 27.6256 200.822 28.0582C203.077 28.2467 205.106 29.0201 206.971 30.4872C206.291 31.599 205.622 32.6867 204.905 33.8589C203.401 32.7326 201.764 32.2154 199.984 32.1743C197.332 32.1114 195.269 33.6873 194.801 36.1042C194.256 38.9224 195.373 41.2838 197.734 42.1877C199.432 42.8355 201.156 42.7388 202.827 42.0693C203.084 41.9654 203.351 41.5787 203.387 41.2935C203.467 40.6409 203.411 39.9738 203.411 39.1448Z" fill="#05010D"/>
<path d="M247.292 37.4481C247.272 42.7847 243.177 46.7824 237.759 46.7534C232.435 46.7244 228.342 42.6446 228.364 37.3901C228.384 32.0921 232.559 27.9664 237.868 28.0002C243.235 28.034 247.311 32.1211 247.292 37.4481ZM237.778 32.3048C234.906 32.3266 232.777 34.5332 232.811 37.4529C232.845 40.3726 235.015 42.5455 237.873 42.5261C240.745 42.5068 242.828 40.3243 242.806 37.3611C242.782 34.3858 240.689 32.2831 237.778 32.3048Z" fill="#05010D"/>
<path d="M120.002 28.2902C121.831 28.2902 123.628 28.2757 125.428 28.2951C127.135 28.3144 128.872 28.1839 130.543 28.4425C134.507 29.0564 136.714 32.851 135.607 36.8873C134.786 39.8844 132.318 41.6367 128.801 41.6947C127.401 41.7188 126.002 41.6995 124.481 41.6995C124.481 43.3358 124.481 44.8778 124.481 46.4633C122.931 46.4633 121.502 46.4633 120 46.4633C120.002 40.4379 120.002 34.422 120.002 28.2902ZM124.527 37.7429C125.909 37.7429 127.242 37.7816 128.571 37.7333C130.036 37.6777 131.042 36.636 131.148 35.1737C131.252 33.7235 130.4 32.4474 128.961 32.2951C127.515 32.1404 126.04 32.2613 124.527 32.2613C124.527 34.0861 124.527 35.8626 124.527 37.7429Z" fill="#05010D"/>
<path d="M249.902 28.3386C250.183 28.3192 250.379 28.2926 250.576 28.2926C251.779 28.2878 252.985 28.2902 254.354 28.2902C254.354 28.689 254.354 29.0346 254.354 29.3827C254.354 32.1718 254.354 34.961 254.354 37.7478C254.354 38.1127 254.351 38.4801 254.378 38.8427C254.557 41.2959 255.991 42.6324 258.403 42.5986C260.818 42.5648 262.303 41.204 262.363 38.7701C262.441 35.6837 262.392 32.5948 262.397 29.5084C262.397 29.1482 262.397 28.7905 262.397 28.3603C263.925 28.3603 265.376 28.3603 266.953 28.3603C266.953 28.7591 266.955 29.1144 266.953 29.4721C266.931 32.6915 266.974 35.9133 266.875 39.1303C266.725 43.9497 262.92 46.9056 258.151 46.7824C254.766 46.6929 251.954 45.5304 250.571 42.2433C250.094 41.1122 249.885 39.807 249.849 38.572C249.752 35.3211 249.815 32.0655 249.82 28.8123C249.818 28.6842 249.861 28.5561 249.902 28.3386Z" fill="#05010D"/>
<path d="M154.149 46.4996C154.563 45.4337 154.931 44.4911 155.302 43.5412C157.181 38.7194 159.073 33.9048 160.928 29.0733C161.153 28.4836 161.439 28.2491 162.083 28.2733C163.355 28.3216 164.631 28.254 165.9 28.312C166.213 28.3265 166.69 28.5803 166.789 28.8389C169.022 34.5888 173.554 46.4972 173.554 46.4972H168.937L168.642 45.6585L167.564 43.2826H165.021L160.703 43.169L160.068 43.1545L158.615 46.4947H155.677C155.68 46.4996 154.752 46.4996 154.149 46.4996ZM161.173 39.8046C163.055 39.8046 164.767 39.8046 166.588 39.8046C165.707 37.465 164.864 35.2245 163.929 32.7447C162.96 35.2317 162.088 37.4626 161.173 39.8046Z" fill="#05010D"/>
<path d="M171.054 28.2927C172.829 28.2927 174.333 28.254 175.835 28.3265C176.128 28.341 176.486 28.7277 176.671 29.0298C177.925 31.0625 179.141 33.1193 180.456 35.3163C181.326 33.871 182.117 32.5368 182.929 31.2148C183.517 30.2552 183.919 28.9452 184.786 28.4619C185.658 27.9736 187 28.3096 188.138 28.2927C188.637 28.2854 189.136 28.2902 189.863 28.2902C189.608 28.7374 189.456 29.0395 189.274 29.3223C187.237 32.4837 185.184 35.633 183.176 38.8089C182.912 39.227 182.759 39.7829 182.747 40.2808C182.699 42.3038 182.728 44.3292 182.728 46.4344C181.238 46.4344 179.785 46.4344 178.184 46.4344C178.184 44.7763 178.124 43.0917 178.204 41.4119C178.267 40.0971 177.94 38.9925 177.189 37.888C175.3 35.1085 173.527 32.2541 171.71 29.4262C171.519 29.1265 171.354 28.8123 171.054 28.2927Z" fill="#05010D"/>
<path d="M143.485 42.5793C146.234 42.5793 148.877 42.6179 151.516 42.5575C152.439 42.5358 152.771 42.7895 152.689 43.7177C152.609 44.6023 152.672 45.4965 152.672 46.4464H144.486C141.453 46.4464 138.993 43.9932 138.993 40.9647V28.3676H143.488V42.5793H143.485Z" fill="#05010D"/>
<path d="M154.367 50.4102C157.358 50.5383 160.323 50.4561 163.222 50.8453C166.113 51.2344 167.584 53.9511 166.683 56.6C166.23 57.9294 165.215 58.698 163.704 59.2128C164.42 59.44 164.934 59.5801 165.43 59.7662C167.358 60.4938 168.337 61.9198 168.339 63.9718C168.344 66.0238 167.37 67.4739 165.433 68.1676C164.716 68.4238 163.946 68.6631 163.195 68.6776C160.281 68.7356 157.365 68.7017 154.37 68.7017C154.367 62.6763 154.367 56.6556 154.367 50.4102ZM156.213 66.9543C158.758 66.9543 161.209 67.1259 163.619 66.9035C165.753 66.7053 166.76 64.9796 166.297 62.9276C165.961 61.4315 164.844 60.6291 163.459 60.4817C161.081 60.2303 158.678 60.2206 156.213 60.1046C156.213 62.5554 156.213 64.7911 156.213 66.9543ZM156.198 58.681C158.31 58.5723 160.357 58.5964 162.364 58.3257C164.098 58.0913 165.043 56.8272 165.009 55.3094C164.973 53.6997 164.108 52.525 162.33 52.3438C160.323 52.1383 158.278 52.2954 156.198 52.2954C156.198 54.3257 156.198 56.3753 156.198 58.681Z" fill="#05010D"/>
<path d="M171.749 65.9392C173.396 66.396 174.944 66.9277 176.532 67.2347C178.141 67.544 179.744 67.2903 181.212 66.512C182.403 65.8812 183.069 64.8878 183.001 63.5222C182.936 62.1953 182.013 61.5113 180.87 61.1609C179.371 60.6992 177.831 60.3729 176.315 59.9669C175.573 59.7687 174.82 59.5802 174.115 59.2829C172.34 58.5336 171.204 57.2816 171.231 55.2611C171.258 53.2018 172.355 51.8096 174.2 51.0338C176.818 49.9341 179.507 50.1589 182.178 50.8598C182.943 51.0604 183.672 51.3915 184.491 51.6888C184.304 52.2858 184.149 52.7813 183.97 53.3541C181.839 52.4115 179.688 51.8072 177.419 52.0272C176.445 52.1214 175.455 52.4236 174.556 52.8175C173.561 53.255 173.091 54.1734 173.113 55.2538C173.137 56.3632 173.755 57.1825 174.777 57.5306C176.227 58.0261 177.734 58.3572 179.211 58.7753C180.144 59.0388 181.093 59.2708 181.984 59.6358C183.551 60.2738 184.75 61.2865 184.905 63.1041C185.072 65.0739 184.268 66.6063 182.619 67.6721C180.509 69.0353 178.148 69.1803 175.745 68.8516C174.76 68.7163 173.781 68.4262 172.837 68.0999C171.212 67.5465 171.224 67.5102 171.749 65.9392Z" fill="#05010D"/>
<path d="M151.587 68.7018L149.676 68.7115L147.728 64.3368H137.91L136.05 68.6776L134.234 68.7018L134.539 67.8365C134.539 67.8365 139.322 56.8756 141.647 51.3698C141.996 50.5456 142.497 50.548 143.19 50.5093C143.912 50.4707 144.246 50.7365 144.512 51.3939C146.743 56.9046 149.01 62.3984 151.267 67.8994C151.369 68.1386 151.587 68.7018 151.587 68.7018ZM143.076 52.3656C141.492 55.9789 139.998 59.3917 138.479 62.86C141.521 62.86 144.403 62.86 147.406 62.86C145.968 59.3723 144.57 55.9838 143.076 52.3656Z" fill="#05010D"/>
<path d="M121.785 62.9059C121.785 65.2383 123.681 67.1307 126.018 67.1307H127.101C128.833 67.1307 130.567 67.1307 132.344 67.1307V68.6776H125.495C122.461 68.6776 120.002 66.2244 120.002 63.1959V50.6012H121.785C121.785 53.3879 121.785 56.1336 121.785 58.8817V62.9059Z" fill="#05010D"/>
<path d="M42.3061 8.32815C57.5562 6.36673 78.9072 12.9707 86.6639 34.2971C88.2633 38.695 86.7721 39.7909 84.74 41.5595C78.5732 45.4165 50.9237 62.4908 50.9237 62.4908C49.2444 63.6056 49.3902 65.0637 49.3902 66.3008C49.3902 67.5378 49.3902 72.9941 49.3902 72.9941C49.3902 75.5152 51.0836 76.122 52.9275 74.9931C54.7715 73.8642 83.5688 55.7693 83.5688 55.7693C85.0834 55.0073 86.3864 54.7345 87.3366 55.52C88.3244 56.3384 88.0375 57.5143 87.5765 58.9066C86.9227 60.821 84.4343 70.8398 73.2625 79.6921C58.5158 91.3807 40.4622 87.4766 39.131 86.9733C36.6802 86.0514 36.2757 85.7786 36.3792 82.9C36.4827 80.0213 36.3792 41.7383 36.3792 41.7383C36.3792 39.3723 35.7536 39.2735 34.8692 38.6574C33.9849 38.0412 29.9019 35.5059 27.9404 34.2877C26.5339 33.4128 24.7652 34.029 24.7652 37.1663C24.7652 42.1004 24.7652 75.2895 24.7652 75.2895C24.7652 78.328 22.1546 78.7419 20.4423 76.8746C12.8737 68.6338 6.68811 59.4146 8.2404 44.2124C8.8472 38.2622 11.5331 27.5896 20.7669 18.9584C22.7896 17.0723 25.2403 17.0723 26.8538 18.14C28.6742 19.3441 60.0022 39.0525 60.0022 39.0525C61.5027 39.9744 62.3777 39.7862 63.6242 38.8643C64.8707 37.9424 69.7628 34.7768 69.7628 34.7768C71.0611 33.8408 70.713 32.1522 69.6687 31.5313C68.4551 30.8069 40.1 13.0506 40.1 13.0506C37.6445 11.4043 38.1996 8.79852 42.3061 8.32815Z" fill="url(#paint0_linear_468_53842)"/>
<path d="M42.3061 8.32815C57.5562 6.36673 78.9072 12.9707 86.6639 34.2971C88.2633 38.695 86.7721 39.7909 84.74 41.5595C78.5732 45.4165 50.9237 62.4908 50.9237 62.4908C49.2444 63.6056 49.3902 65.0637 49.3902 66.3008C49.3902 67.5378 49.3902 72.9941 49.3902 72.9941C49.3902 75.5152 51.0836 76.122 52.9275 74.9931C54.7715 73.8642 83.5688 55.7693 83.5688 55.7693C85.0834 55.0073 86.3864 54.7345 87.3366 55.52C88.3244 56.3384 88.0375 57.5143 87.5765 58.9066C86.9227 60.821 84.4343 70.8398 73.2625 79.6921C58.5158 91.3807 40.4622 87.4766 39.131 86.9733C36.6802 86.0514 36.2757 85.7786 36.3792 82.9C36.4827 80.0213 36.3792 41.7383 36.3792 41.7383C36.3792 39.3723 35.7536 39.2735 34.8692 38.6574C33.9849 38.0412 29.9019 35.5059 27.9404 34.2877C26.5339 33.4128 24.7652 34.029 24.7652 37.1663C24.7652 42.1004 24.7652 75.2895 24.7652 75.2895C24.7652 78.328 22.1546 78.7419 20.4423 76.8746C12.8737 68.6338 6.68811 59.4146 8.2404 44.2124C8.8472 38.2622 11.5331 27.5896 20.7669 18.9584C22.7896 17.0723 25.2403 17.0723 26.8538 18.14C28.6742 19.3441 60.0022 39.0525 60.0022 39.0525C61.5027 39.9744 62.3777 39.7862 63.6242 38.8643C64.8707 37.9424 69.7628 34.7768 69.7628 34.7768C71.0611 33.8408 70.713 32.1522 69.6687 31.5313C68.4551 30.8069 40.1 13.0506 40.1 13.0506C37.6445 11.4043 38.1996 8.79852 42.3061 8.32815Z" fill="url(#paint1_linear_468_53842)"/>
<path d="M42.3061 8.32815C57.5562 6.36673 78.9072 12.9707 86.6639 34.2971C88.2633 38.695 86.7721 39.7909 84.74 41.5595C78.5732 45.4165 50.9237 62.4908 50.9237 62.4908C49.2444 63.6056 49.3902 65.0637 49.3902 66.3008C49.3902 67.5378 49.3902 72.9941 49.3902 72.9941C49.3902 75.5152 51.0836 76.122 52.9275 74.9931C54.7715 73.8642 83.5688 55.7693 83.5688 55.7693C85.0834 55.0073 86.3864 54.7345 87.3366 55.52C88.3244 56.3384 88.0375 57.5143 87.5765 58.9066C86.9227 60.821 84.4343 70.8398 73.2625 79.6921C58.5158 91.3807 40.4622 87.4766 39.131 86.9733C36.6802 86.0514 36.2757 85.7786 36.3792 82.9C36.4827 80.0213 36.3792 41.7383 36.3792 41.7383C36.3792 39.3723 35.7536 39.2735 34.8692 38.6574C33.9849 38.0412 29.9019 35.5059 27.9404 34.2877C26.5339 33.4128 24.7652 34.029 24.7652 37.1663C24.7652 42.1004 24.7652 75.2895 24.7652 75.2895C24.7652 78.328 22.1546 78.7419 20.4423 76.8746C12.8737 68.6338 6.68811 59.4146 8.2404 44.2124C8.8472 38.2622 11.5331 27.5896 20.7669 18.9584C22.7896 17.0723 25.2403 17.0723 26.8538 18.14C28.6742 19.3441 60.0022 39.0525 60.0022 39.0525C61.5027 39.9744 62.3777 39.7862 63.6242 38.8643C64.8707 37.9424 69.7628 34.7768 69.7628 34.7768C71.0611 33.8408 70.713 32.1522 69.6687 31.5313C68.4551 30.8069 40.1 13.0506 40.1 13.0506C37.6445 11.4043 38.1996 8.79852 42.3061 8.32815Z" fill="url(#paint2_linear_468_53842)"/>
<path d="M42.3061 8.32815C57.5562 6.36673 78.9072 12.9707 86.6639 34.2971C88.2633 38.695 86.7721 39.7909 84.74 41.5595C78.5732 45.4165 50.9237 62.4908 50.9237 62.4908C49.2444 63.6056 49.3902 65.0637 49.3902 66.3008C49.3902 67.5378 49.3902 72.9941 49.3902 72.9941C49.3902 75.5152 51.0836 76.122 52.9275 74.9931C54.7715 73.8642 83.5688 55.7693 83.5688 55.7693C85.0834 55.0073 86.3864 54.7345 87.3366 55.52C88.3244 56.3384 88.0375 57.5143 87.5765 58.9066C86.9227 60.821 84.4343 70.8398 73.2625 79.6921C58.5158 91.3807 40.4622 87.4766 39.131 86.9733C36.6802 86.0514 36.2757 85.7786 36.3792 82.9C36.4827 80.0213 36.3792 41.7383 36.3792 41.7383C36.3792 39.3723 35.7536 39.2735 34.8692 38.6574C33.9849 38.0412 29.9019 35.5059 27.9404 34.2877C26.5339 33.4128 24.7652 34.029 24.7652 37.1663C24.7652 42.1004 24.7652 75.2895 24.7652 75.2895C24.7652 78.328 22.1546 78.7419 20.4423 76.8746C12.8737 68.6338 6.68811 59.4146 8.2404 44.2124C8.8472 38.2622 11.5331 27.5896 20.7669 18.9584C22.7896 17.0723 25.2403 17.0723 26.8538 18.14C28.6742 19.3441 60.0022 39.0525 60.0022 39.0525C61.5027 39.9744 62.3777 39.7862 63.6242 38.8643C64.8707 37.9424 69.7628 34.7768 69.7628 34.7768C71.0611 33.8408 70.713 32.1522 69.6687 31.5313C68.4551 30.8069 40.1 13.0506 40.1 13.0506C37.6445 11.4043 38.1996 8.79852 42.3061 8.32815Z" fill="url(#paint3_linear_468_53842)"/>
<path d="M42.3061 8.32815C57.5562 6.36673 78.9072 12.9707 86.6639 34.2971C88.2633 38.695 86.7721 39.7909 84.74 41.5595C78.5732 45.4165 50.9237 62.4908 50.9237 62.4908C49.2444 63.6056 49.3902 65.0637 49.3902 66.3008C49.3902 67.5378 49.3902 72.9941 49.3902 72.9941C49.3902 75.5152 51.0836 76.122 52.9275 74.9931C54.7715 73.8642 83.5688 55.7693 83.5688 55.7693C85.0834 55.0073 86.3864 54.7345 87.3366 55.52C88.3244 56.3384 88.0375 57.5143 87.5765 58.9066C86.9227 60.821 84.4343 70.8398 73.2625 79.6921C58.5158 91.3807 40.4622 87.4766 39.131 86.9733C36.6802 86.0514 36.2757 85.7786 36.3792 82.9C36.4827 80.0213 36.3792 41.7383 36.3792 41.7383C36.3792 39.3723 35.7536 39.2735 34.8692 38.6574C33.9849 38.0412 29.9019 35.5059 27.9404 34.2877C26.5339 33.4128 24.7652 34.029 24.7652 37.1663C24.7652 42.1004 24.7652 75.2895 24.7652 75.2895C24.7652 78.328 22.1546 78.7419 20.4423 76.8746C12.8737 68.6338 6.68811 59.4146 8.2404 44.2124C8.8472 38.2622 11.5331 27.5896 20.7669 18.9584C22.7896 17.0723 25.2403 17.0723 26.8538 18.14C28.6742 19.3441 60.0022 39.0525 60.0022 39.0525C61.5027 39.9744 62.3777 39.7862 63.6242 38.8643C64.8707 37.9424 69.7628 34.7768 69.7628 34.7768C71.0611 33.8408 70.713 32.1522 69.6687 31.5313C68.4551 30.8069 40.1 13.0506 40.1 13.0506C37.6445 11.4043 38.1996 8.79852 42.3061 8.32815Z" fill="url(#paint4_linear_468_53842)"/>
<defs>
<linearGradient id="paint0_linear_468_53842" x1="68.0544" y1="14.2994" x2="28.3677" y2="83.0426" gradientUnits="userSpaceOnUse">
<stop stop-color="#00C1FF"/>
<stop offset="0.318716" stop-color="#00C1FF" stop-opacity="0.4"/>
<stop offset="0.685945" stop-color="#00C1FF" stop-opacity="0"/>
</linearGradient>
<linearGradient id="paint1_linear_468_53842" x1="68.1016" y1="81.7519" x2="28.4014" y2="12.9855" gradientUnits="userSpaceOnUse">
<stop stop-color="#B450FF"/>
<stop offset="0.32819" stop-color="#B450FF" stop-opacity="0.56"/>
<stop offset="0.692508" stop-color="#B450FF" stop-opacity="0"/>
</linearGradient>
<linearGradient id="paint2_linear_468_53842" x1="8.0005" y1="47.9985" x2="88" y2="48" gradientUnits="userSpaceOnUse">
<stop stop-color="#FF00FF"/>
<stop offset="0.43564" stop-color="#FF00FF" stop-opacity="0.5"/>
<stop offset="0.91218" stop-color="#06C3FF" stop-opacity="0"/>
</linearGradient>
<linearGradient id="paint3_linear_468_53842" x1="66" y1="10" x2="49.5" y2="39" gradientUnits="userSpaceOnUse">
<stop offset="0.454345" stop-color="#00C1FF"/>
<stop offset="0.658002" stop-color="#00C1FF" stop-opacity="0.37"/>
<stop offset="0.844322" stop-color="#00C1FF" stop-opacity="0"/>
</linearGradient>
<linearGradient id="paint4_linear_468_53842" x1="35" y1="12" x2="69.5" y2="83" gradientUnits="userSpaceOnUse">
<stop offset="0.650698" stop-color="#B450FF" stop-opacity="0.19"/>
<stop offset="0.739024" stop-color="#B450FF" stop-opacity="0.64"/>
<stop offset="0.870798" stop-color="#B450FF"/>
</linearGradient>
</defs>
</svg>
