<svg width="20" height="20" viewBox="0 0 20 20" fill="none" xmlns="http://www.w3.org/2000/svg">
<path d="M17.6159 11.4441L8.51507 20L5.84478 16.7847C8.56957 14.7684 13.5069 10.485 13.6377 10.3542C13.8012 10.1907 14.2371 9.86376 13.6377 9.26431C13.0382 8.66485 10.9674 6.97548 10.8039 6.86649C10.6404 6.75749 10.5314 6.92098 10.5314 6.75749L13.3107 4.35967C14.7458 5.63124 17.7031 8.23978 18.0519 8.50136C18.4878 8.82834 19.4143 9.91826 17.6159 11.4441Z" fill="url(#paint0_linear)"/>
<path d="M3.06547 8.33787L12.7113 0L15.3816 3.21526C12.6568 5.23161 7.17447 9.297 7.04368 9.42779C6.88019 9.59128 6.44422 9.91826 7.04368 10.5177C7.64313 11.1172 9.71398 12.8065 9.87746 12.9155C10.041 13.0245 10.1499 12.861 10.1499 13.0245L7.37065 15.4223C5.93559 14.1508 2.97828 11.5422 2.62951 11.2807C2.19354 10.9537 1.26711 9.86376 3.06547 8.33787Z" fill="#99CA3C"/>
<defs>
<linearGradient id="paint0_linear" x1="23.5559" y1="15.8038" x2="12.2631" y2="4.35967" gradientUnits="userSpaceOnUse">
<stop offset="0.748983" stop-color="#99CA3C"/>
<stop offset="1" stop-color="#5D8E01"/>
</linearGradient>
</defs>
</svg>
