<svg width="20" height="20" viewBox="0 0 20 20" fill="none" xmlns="http://www.w3.org/2000/svg">
<path d="M17.6159 11.444L8.51508 19.9999L5.84479 16.7846C8.56958 14.7683 13.5069 10.4849 13.6377 10.3541C13.8012 10.1906 14.2371 9.86371 13.6377 9.26426C13.0382 8.6648 10.9674 6.97543 10.8039 6.86644C10.6404 6.75744 10.5314 6.92093 10.5314 6.75744L13.3107 4.35962C14.7458 5.63119 17.7031 8.23973 18.0519 8.50131C18.4878 8.82829 19.4143 9.91821 17.6159 11.444Z" fill="white"/>
<path d="M17.6159 11.444L8.51508 19.9999L5.84479 16.7846C8.56958 14.7683 13.5069 10.4849 13.6377 10.3541C13.8012 10.1906 14.2371 9.86371 13.6377 9.26426C13.0382 8.6648 10.9674 6.97543 10.8039 6.86644C10.6404 6.75744 10.5314 6.92093 10.5314 6.75744L13.3107 4.35962C14.7458 5.63119 17.7031 8.23973 18.0519 8.50131C18.4878 8.82829 19.4143 9.91821 17.6159 11.444Z" fill="url(#paint0_linear_5105_3264)"/>
<path d="M3.06547 8.33787L12.7113 0L15.3816 3.21526C12.6568 5.23161 7.17447 9.297 7.04368 9.42779C6.88019 9.59128 6.44422 9.91826 7.04368 10.5177C7.64313 11.1172 9.71398 12.8065 9.87746 12.9155C10.041 13.0245 10.1499 12.861 10.1499 13.0245L7.37065 15.4223C5.93559 14.1508 2.97828 11.5422 2.62951 11.2807C2.19354 10.9537 1.26711 9.86376 3.06547 8.33787Z" fill="white"/>
<defs>
<linearGradient id="paint0_linear_5105_3264" x1="23.5559" y1="15.8037" x2="12.2631" y2="4.35962" gradientUnits="userSpaceOnUse">
<stop offset="0.748983" stop-opacity="0"/>
<stop offset="1" stop-opacity="0.72"/>
</linearGradient>
</defs>
</svg>
