<svg width="420" height="128" viewBox="0 0 420 128" fill="none" xmlns="http://www.w3.org/2000/svg">
<path fill-rule="evenodd" clip-rule="evenodd" d="M32.1389 35.9693C38.1106 25.6461 49.295 18.6667 62.1206 18.6667C81.24 18.6667 96.7394 34.166 96.7394 53.2855C96.7394 72.4049 81.24 87.9042 62.1206 87.9042H40.3333C35.1787 87.9042 31 83.7256 31 78.5709C31 73.4163 35.1787 69.2376 40.3333 69.2376H62.1206C70.9307 69.2376 78.0727 62.0956 78.0727 53.2855C78.0727 44.4753 70.9307 37.3333 62.1206 37.3333C56.2278 37.3333 51.0692 40.5237 48.2969 45.3162C45.7158 49.7781 40.0063 51.3028 35.5444 48.7217C31.0825 46.1406 29.5578 40.4312 32.1389 35.9693Z" fill="#4336FF"/>
<path fill-rule="evenodd" clip-rule="evenodd" d="M31.0002 78.571C31.0002 73.4163 35.1789 69.2376 40.3335 69.2376L55.2579 69.2376C59.9776 69.2376 64.3395 71.7532 66.7033 75.8383L77.9793 95.3256C80.5609 99.7871 79.0369 105.497 74.5753 108.078C70.1138 110.66 64.4041 109.136 61.8225 104.674L52.1187 87.9043H40.3335C35.1789 87.9043 31.0002 83.7256 31.0002 78.571Z" fill="#02AFF9"/>
<g clip-path="url(#clip0_3157_127819)">
<path d="M344.039 95.1608V31.9999H352V95.1608H344.039Z" fill="white"/>
<path d="M315.189 96.0453C311.002 96.0453 307.227 95.1017 303.866 93.2145C300.504 91.2684 297.85 88.6441 295.904 85.3416C293.958 82.039 292.985 78.2942 292.985 74.1071C292.985 69.9789 293.929 66.2636 295.816 62.961C297.762 59.6585 300.357 57.0637 303.6 55.1765C306.903 53.2304 310.589 52.2573 314.658 52.2573C318.55 52.2573 321.971 53.1419 324.919 54.9111C327.927 56.6803 330.256 59.1278 331.908 62.2534C333.618 65.379 334.473 68.9174 334.473 72.8686C334.473 73.4584 334.444 74.1071 334.385 74.8148C334.326 75.4635 334.208 76.2301 334.031 77.1147H298.558V70.4802H329.785L326.865 73.0455C326.865 70.2148 326.364 67.8264 325.362 65.8802C324.359 63.8751 322.944 62.3418 321.116 61.2803C319.287 60.1598 317.076 59.5995 314.481 59.5995C311.768 59.5995 309.38 60.1893 307.316 61.3688C305.252 62.5482 303.659 64.1995 302.539 66.3225C301.418 68.4456 300.858 70.952 300.858 73.8417C300.858 76.7904 301.448 79.3852 302.627 81.6262C303.807 83.8082 305.487 85.5185 307.67 86.7569C309.852 87.9364 312.358 88.5261 315.189 88.5261C317.548 88.5261 319.7 88.1133 321.646 87.2877C323.651 86.4621 325.362 85.2236 326.777 83.5723L331.908 88.7915C329.903 91.1505 327.426 92.9492 324.477 94.1876C321.587 95.4261 318.491 96.0453 315.189 96.0453Z" fill="white"/>
<path d="M280.096 95.1608L260.458 73.6648L279.919 53.142H289.561L267.889 75.7879L268.242 71.1879L290.358 95.1608H280.096ZM253.204 95.1608V31.9999H261.166V95.1608H253.204Z" fill="white"/>
<path d="M233.579 95.1607V70.6571C233.579 67.4725 232.576 64.8482 230.571 62.7841C228.566 60.72 225.971 59.688 222.787 59.688C220.664 59.688 218.777 60.1598 217.125 61.1034C215.474 62.047 214.177 63.3444 213.233 64.9956C212.29 66.6469 211.818 68.5341 211.818 70.6571L208.545 68.7994C208.545 65.6149 209.252 62.7841 210.668 60.3072C212.083 57.8303 214.059 55.8842 216.595 54.4688C219.13 52.9945 221.991 52.2573 225.175 52.2573C228.36 52.2573 231.161 53.0535 233.579 54.6458C236.056 56.238 238.002 58.3316 239.417 60.9265C240.833 63.4623 241.54 66.1751 241.54 69.0648V95.1607H233.579ZM203.856 95.1607V53.1419H211.818V95.1607H203.856Z" fill="white"/>
<path d="M183.277 95.1607V53.1419H191.239V95.1607H183.277ZM187.258 44.7382C185.784 44.7382 184.575 44.2664 183.631 43.3228C182.688 42.3203 182.216 41.0818 182.216 39.6075C182.216 38.1921 182.688 37.0126 183.631 36.069C184.575 35.0665 185.784 34.5652 187.258 34.5652C188.733 34.5652 189.941 35.0665 190.885 36.069C191.829 37.0126 192.3 38.1921 192.3 39.6075C192.3 41.0818 191.829 42.3203 190.885 43.3228C189.941 44.2664 188.733 44.7382 187.258 44.7382Z" fill="white"/>
<path d="M133.573 68.4457V61.4573H150.204C153.801 61.4573 156.573 60.5432 158.519 58.715C160.465 56.8868 161.438 54.4099 161.438 51.2843C161.438 48.3356 160.465 45.8882 158.519 43.9421C156.632 41.996 153.889 41.0229 150.292 41.0229H133.573V33.7691H150.557C154.45 33.7691 157.841 34.5358 160.73 36.0691C163.62 37.5435 165.832 39.578 167.365 42.1729C168.957 44.7677 169.753 47.7459 169.753 51.1074C169.753 54.5868 168.957 57.624 167.365 60.2188C165.832 62.8137 163.62 64.8483 160.73 66.3226C157.841 67.738 154.45 68.4457 150.557 68.4457H133.573ZM128 95.1607V33.7691H136.315V95.1607H128ZM163.384 95.1607L141.092 67.6495L148.965 64.9072L173.911 95.1607H163.384Z" fill="white"/>
</g>
<defs>
<clipPath id="clip0_3157_127819">
<rect width="256" height="128" fill="white" transform="translate(128)"/>
</clipPath>
</defs>
</svg>
