<svg width="80" height="80" viewBox="0 0 80 80" fill="none" xmlns="http://www.w3.org/2000/svg">
<path opacity="0.24" d="M42.1395 51.7794C42.0425 50.8204 41.7271 49.8963 41.2175 49.0781C40.7078 48.2599 40.0175 47.5694 39.1995 47.0594C38.1995 46.5294 37.1095 46.6394 36.1295 46.2894C34.5495 45.7194 34.8995 45.8494 33.8695 44.1594C33.1248 42.8847 32.1042 41.7929 30.8826 40.964C29.6609 40.1352 28.2692 39.5903 26.8095 39.3694C26.4091 39.0551 25.9443 38.8329 25.4482 38.7189C24.9521 38.6048 24.437 38.6016 23.9395 38.7094C19.2695 39.5994 9.26953 41.7094 9.26953 48.0094C9.26965 48.6159 9.42963 49.2116 9.73335 49.7366C10.037 50.2615 10.4738 50.6971 10.9995 50.9994C12.3741 51.632 13.8972 51.8708 15.3995 51.6894C15.2195 52.1494 15.0495 52.6094 14.8995 53.0794C14.2795 54.9994 13.5495 57.3394 14.2695 59.3194C15.2695 62.1494 17.0095 62.3994 18.8895 61.9794C18.1195 64.4894 17.8895 67.0494 19.8895 69.0694C22.6395 71.8494 26.4295 69.9294 29.5995 67.9594C29.9834 68.3268 30.4447 68.6036 30.9495 68.7694C31.9574 69.0573 33.0266 69.0512 34.0311 68.7518C35.0356 68.4524 35.9337 67.8722 36.6195 67.0795C40.1295 63.5394 42.9395 56.8294 42.1395 51.7794Z" fill="#04FFE1"/>
<path d="M34.6809 28.6405C41.6809 20.4005 53.2109 15.0605 63.2109 15.2305C63.4722 15.2427 63.7196 15.352 63.9045 15.5369C64.0895 15.7219 64.1988 15.9692 64.2109 16.2305C64.4409 26.2305 59.0409 37.7205 50.7709 44.7805L48.1409 46.9105L38.7909 54.4605C38.6015 54.638 38.3505 54.7348 38.0909 54.7305C37.9529 54.7327 37.8159 54.7063 37.6885 54.653C37.5611 54.5996 37.4462 54.5205 37.3509 54.4205L25.1509 41.9205C24.9674 41.7257 24.8652 41.4682 24.8652 41.2005C24.8652 40.9329 24.9674 40.6753 25.1509 40.4805L31.5409 32.5405" stroke="#15006A" stroke-width="1.5" stroke-linecap="round" stroke-linejoin="round"/>
<path d="M48.7398 25.4005C47.5123 25.3915 46.3197 25.808 45.3647 26.5791C44.4097 27.3503 43.7514 28.4285 43.5017 29.6303C43.252 30.8321 43.4264 32.0833 43.9952 33.171C44.564 34.2587 45.4921 35.1158 46.6215 35.5964C47.751 36.077 49.0121 36.1515 50.1902 35.8072C51.3684 35.4629 52.3909 34.721 53.0838 33.7078C53.7767 32.6946 54.0971 31.4726 53.9907 30.2498C53.8842 29.0269 53.3573 27.8787 52.4998 27.0005C51.5006 26.0072 50.1487 25.4499 48.7398 25.4505V25.4005Z" stroke="#15006A" stroke-width="1.5" stroke-linecap="round" stroke-linejoin="round"/>
<path d="M42.5091 51.68L27.7891 37" stroke="#15006A" stroke-width="1.5" stroke-linecap="round" stroke-linejoin="round"/>
<path d="M23.56 46.2109C20.0084 48.7393 15.8438 50.269 11.5 50.6409L11.67 52.6409C16.3541 52.2372 20.8438 50.5829 24.67 47.8509L23.56 46.2109ZM31.07 54.0909C27.7393 58.0619 25.2216 62.6488 23.66 67.5909L25.58 68.1709C27.0838 63.5124 29.4593 59.1823 32.58 55.4109L31.07 54.0909ZM27.07 49.8509L18.07 59.1609L19.51 60.5509L28.51 51.2409L27.07 49.8509Z" fill="#003FFF"/>
<path d="M57.2109 17.8496L61.6409 22.2696" stroke="#15006A" stroke-width="1.5" stroke-linecap="round" stroke-linejoin="round"/>
<path d="M52.8505 46.2598V50.9698L46.8305 56.9898L43.4805 53.6498" stroke="#15006A" stroke-width="1.5" stroke-linecap="round" stroke-linejoin="round"/>
<path d="M33.1792 26.6504H28.4692L22.4492 32.6704L25.7992 36.0204" stroke="#15006A" stroke-width="1.5" stroke-linecap="round" stroke-linejoin="round"/>
</svg>
