<svg width="80" height="80" viewBox="0 0 80 80" fill="none" xmlns="http://www.w3.org/2000/svg">
<path opacity="0.24" d="M53.7695 47.1131C53.0388 45.5069 52.0463 44.0333 50.8325 42.7524C50.179 42.074 49.4586 41.4636 48.682 40.9305L48.3535 40.7214C49.3988 38.2922 49.0703 34.8474 48.2638 32.3783C47.8797 31.0797 47.1619 29.9045 46.1819 28.9699C45.2018 28.0353 43.9939 27.374 42.6786 27.0519C39.9208 26.3649 36.924 26.6736 34.1164 26.7234C32.7425 26.7234 31.2591 26.6238 30.0743 27.4203C29.5839 27.7835 29.1809 28.2519 28.895 28.7911C28.609 29.3303 28.4473 29.9267 28.4216 30.5365C28.3614 31.8819 28.7502 33.2093 29.5267 34.3098C30.363 35.5842 31.5876 36.6494 32.1053 38.113C32.3869 39.009 32.5869 39.9287 32.7027 40.8608C32.7178 41.5118 32.8458 42.1552 33.081 42.7624C28.103 47.591 24.2401 54.6398 24.937 61.6787C25.2457 64.765 27.0079 69.7132 31.0998 68.0704C31.7668 67.8016 32.4737 67.0748 33.2005 67.0151C33.9273 66.9554 34.8134 67.7518 35.3908 68.1401C37.0008 69.2635 38.9234 69.8521 40.8865 69.8227C42.8777 69.7629 44.5503 68.8271 46.3822 68.1302C47.2036 67.7766 48.0992 67.6295 48.9906 67.7021C49.9798 67.8925 50.9982 67.8687 51.9774 67.6324C55.3724 66.5472 55.8005 62.4055 55.8602 59.3988C55.9001 55.277 55.5416 50.996 53.7695 47.1131Z" fill="#04FFE1"/>
<path d="M44.3693 35.3068C44.3693 35.3068 46.1514 31.1552 42.2387 30.0899C38.326 29.0246 36.2652 32.0811 30.3613 30.0899C30.3613 30.0899 30.7197 35.1873 34.8215 35.3068C36.753 35.3665 38.9931 35.3665 40.7951 35.3566" stroke="#15006A" stroke-width="1.5" stroke-linecap="round" stroke-linejoin="round"/>
<path d="M34.8218 35.3047C34.8218 35.3047 33.5574 45.4598 37.5696 45.2607C40.885 45.1114 43.9414 43.5781 44.7777 38.0327" stroke="#15006A" stroke-width="1.5" stroke-linecap="round" stroke-linejoin="round"/>
<path d="M49.5581 69.9207C49.5581 69.9207 56.0096 50.3174 44.7793 45.2598" stroke="#15006A" stroke-width="1.5" stroke-linecap="round" stroke-linejoin="round"/>
<path d="M37.5704 45.2598C37.5704 45.2598 24.4584 45.9169 28.2715 69.0645" stroke="#15006A" stroke-width="1.5" stroke-linecap="round" stroke-linejoin="round"/>
<path opacity="0.8" d="M61.5444 39.5065C69.8975 27.5594 72.496 16.4684 67.518 11.5203C62.54 6.5722 51.4292 9.22048 39.5418 17.5138C27.6743 9.22048 16.5833 6.50251 11.5456 11.5203C6.50785 16.5381 9.17605 27.5394 17.5789 39.5165C9.28556 51.384 6.56759 62.4948 11.6054 67.5126C12.5392 68.38 13.6364 69.053 14.8328 69.4923C16.0293 69.9316 17.3012 70.1284 18.5745 70.0713C20.3309 70.045 22.077 69.7975 23.7715 69.3345L23.0248 66.4473C20.038 67.2338 15.9063 67.6819 13.6165 65.4019C10.1617 61.9472 12.0733 52.7778 19.361 42.0552C20.7748 43.907 22.3478 45.7788 23.9806 47.6405L26.2107 45.6493C24.3788 43.6581 22.6962 41.5375 21.183 39.4965C26.403 32.5606 32.5733 26.3939 39.5119 21.1776C42.9825 23.7776 46.26 26.6258 49.3185 29.6999C52.3839 32.7566 55.2285 36.0271 57.8308 39.4866C56.3839 41.4778 54.7943 43.4358 53.0619 45.3606L55.2921 47.3518C56.8651 45.5896 58.2789 43.8174 59.6528 42.0652C66.9405 52.7778 68.8521 61.9771 65.3974 65.4119C63.5256 67.2737 59.9913 67.5922 55.4414 66.3079L54.6648 69.1553C56.5565 69.7176 58.516 70.0191 60.4891 70.0514C61.7772 70.1211 63.0663 69.9306 64.2791 69.4909C65.4919 69.0513 66.6036 68.3717 67.5479 67.4927C72.5657 62.4948 69.8377 51.374 61.5444 39.5065ZM27.6245 27.5594C24.6832 30.4914 21.9424 33.618 19.4208 36.918C12.4914 26.743 9.94266 17.3844 13.6563 13.631C17.121 10.1663 26.2904 12.0778 37.0129 19.3756C33.7037 21.9008 30.5671 24.6448 27.6245 27.5892V27.5594ZM51.469 27.5594C48.5265 24.6278 45.3935 21.8939 42.0905 19.3756C52.8031 12.0878 62.0023 10.1862 65.4371 13.6409C69.1407 17.3844 66.5821 26.743 59.6727 36.9478C57.1383 33.6466 54.3843 30.5199 51.4292 27.5892L51.469 27.5594Z" fill="#003FFF"/>
<path d="M31.7269 58.7119C31.7269 58.7119 30.1738 67.4134 40.3986 67.3935C43.4849 67.3935 46.0137 67.1347 46.9396 57.1289" stroke="#15006A" stroke-width="1.5" stroke-linecap="round" stroke-linejoin="round"/>
</svg>
