<svg width="80" height="80" viewBox="0 0 80 80" fill="none" xmlns="http://www.w3.org/2000/svg">
<path opacity="0.24" d="M58.3364 34.0248C58.0404 32.1048 57.6164 18.8248 43.7364 17.0328C38.7364 16.3848 26.7924 17.1768 22.7204 25.5928C19.6004 32.0488 19.8484 40.3048 24.2724 45.3208C39.8244 62.9528 60.3204 46.7928 58.3364 34.0248Z" fill="#04FFE1"/>
<path d="M20.0719 59.0956C46.4719 51.4476 55.9519 64.1196 63.7119 55.5436C68.2798 50.4956 73.8718 21.3036 66.1119 14.7036C60.4479 9.90358 15.9119 10.0476 12.9199 16.8876C3.57594 38.2396 19.8399 69.2633 22.2319 68.5993C24.6239 67.9353 23.8879 58.1036 23.8879 58.1036" stroke="#15006A" stroke-width="1.5" stroke-linecap="round" stroke-linejoin="round"/>
<g opacity="0.8">
<path d="M43.7269 32.2238C44.1957 32.2304 44.6524 32.3741 45.0404 32.6372C45.4285 32.9004 45.7309 33.2714 45.9105 33.7045C46.09 34.1376 46.1388 34.6138 46.0507 35.0744C45.9627 35.5349 45.7416 35.9595 45.4149 36.2958L39.3029 42.3998L33.1909 36.2958C32.8167 35.835 32.6266 35.2518 32.6573 34.6589C32.6879 34.0661 32.9372 33.5056 33.357 33.0858C33.7767 32.6661 34.3372 32.4168 34.9301 32.3861C35.5229 32.3554 36.1061 32.5456 36.5669 32.9198L36.9269 33.2878L38.1749 34.5278L39.3029 35.6638L42.0469 32.9198C42.494 32.4764 43.0973 32.2264 43.7269 32.2238ZM43.7269 30.6238C42.6709 30.6262 41.6586 31.046 40.9109 31.7918L39.3029 33.3998L38.0629 32.1518L37.6949 31.7918C36.9247 31.2141 35.9718 30.9336 35.0114 31.0019C34.0509 31.0701 33.1473 31.4826 32.4665 32.1634C31.7857 32.8442 31.3733 33.7478 31.305 34.7082C31.2367 35.6687 31.5172 36.6215 32.0949 37.3918L39.1269 44.4238C39.1538 44.4519 39.1861 44.4742 39.2219 44.4895C39.2576 44.5048 39.2961 44.5126 39.3349 44.5126C39.3738 44.5126 39.4123 44.5048 39.448 44.4895C39.4838 44.4742 39.5161 44.4519 39.5429 44.4238L46.5749 37.3918C47.124 36.8318 47.4963 36.1226 47.6455 35.3526C47.7947 34.5826 47.7143 33.7858 47.4142 33.0612C47.1141 32.3366 46.6077 31.7161 45.9577 31.2771C45.3079 30.838 44.5432 30.5997 43.7589 30.5918L43.7269 30.6238Z" fill="#003FFF"/>
</g>
<path d="M25.0234 37.584H28.7034" stroke="#15006A" stroke-width="1.5" stroke-linecap="round" stroke-linejoin="round"/>
<path d="M49.959 37.584H53.647" stroke="#15006A" stroke-width="1.5" stroke-linecap="round" stroke-linejoin="round"/>
<path d="M39.3359 26.9515V23.2715" stroke="#15006A" stroke-width="1.5" stroke-linecap="round" stroke-linejoin="round"/>
<path d="M27.6152 26.6641L30.2152 29.2641" stroke="#15006A" stroke-width="1.5" stroke-linecap="round" stroke-linejoin="round"/>
<path d="M48.4473 29.2641L51.0553 26.6641" stroke="#15006A" stroke-width="1.5" stroke-linecap="round" stroke-linejoin="round"/>
</svg>
