<svg width="60" height="32" viewBox="0 0 60 32" fill="none" xmlns="http://www.w3.org/2000/svg">
<mask id="mask0_405_201" style="mask-type:luminance" maskUnits="userSpaceOnUse" x="0" y="2" width="52" height="28">
<path d="M51.8626 2H0V30H51.8626V2Z" fill="white"/>
</mask>
<g mask="url(#mask0_405_201)">
<path d="M6.68585 5.84982C5.16407 5.77142 3.69359 6.16486 2.36524 7.06973C-0.337603 8.91167 -0.521505 12.463 0.797314 14.4807C1.5593 15.6464 2.6356 16.4113 3.87382 16.9923C4.94793 17.4957 6.07918 17.8533 7.17161 18.309C7.79291 18.5684 8.40323 18.849 8.93441 19.2695C9.90452 20.0381 9.95212 21.3599 9.03259 22.1666C8.54098 22.5981 7.95851 22.8325 7.30202 22.8729C5.47693 22.9857 3.85624 22.4501 2.42899 21.3218C2.20479 21.1445 2.0817 21.1408 1.91025 21.3891C1.32265 22.2435 0.717453 23.0868 0.107865 23.9265C-0.0350074 24.1235 -0.049661 24.254 0.167944 24.4041C0.83175 24.8621 1.50508 25.3017 2.24655 25.6284C3.84525 26.3325 5.53627 26.5172 7.25733 26.4996C8.75862 26.4842 10.1404 26.0725 11.3808 25.1969C14.5335 22.971 14.1445 19.0336 12.3773 17.1176C11.6629 16.3432 10.7793 15.8054 9.84074 15.3468C8.68605 14.7826 7.43976 14.4507 6.27334 13.9173C5.66083 13.6374 5.0549 13.3429 4.56548 12.8696C3.76027 12.0915 3.7566 10.9573 4.54789 10.1638C5.00435 9.70663 5.56264 9.43261 6.20154 9.37619C7.65591 9.24724 8.99155 9.56449 10.1433 10.5067C10.498 10.7968 10.5016 10.7946 10.7786 10.4063C11.3098 9.6612 11.8395 8.9146 12.3699 8.16801C12.5883 7.86126 12.5448 7.6014 12.2395 7.38844C10.5946 6.23374 8.74027 5.82564 6.68585 5.84982ZM38.2936 15.8062C38.2936 19.0776 38.2936 22.349 38.2936 25.6204C38.2936 26.1179 38.3082 26.131 38.813 26.1318C39.6922 26.1333 40.5707 26.134 41.4499 26.1318C41.8983 26.1303 41.9262 26.1032 41.9262 25.649C41.9276 23.903 41.9239 22.1577 41.9298 20.4125C41.9298 20.2132 41.8294 19.9004 42.0045 19.8388C42.2112 19.7663 42.3328 20.0725 42.4735 20.2279C44.1586 22.0932 45.8402 23.9623 47.5165 25.8358C47.7011 26.0424 47.8983 26.1406 48.1818 26.1377C49.305 26.1252 50.4281 26.134 51.5506 26.1303C51.6539 26.1303 51.7982 26.1809 51.8503 26.0615C51.9016 25.9435 51.7697 25.8717 51.6993 25.7941C49.661 23.5572 47.6257 21.3174 45.5749 19.0915C45.3185 18.813 45.328 18.6423 45.5676 18.3625C47.3523 16.2758 49.1218 14.176 50.8942 12.0783C50.9615 11.9985 51.089 11.9201 51.0363 11.805C50.982 11.6878 50.8392 11.7405 50.7352 11.7405C49.6369 11.7369 48.5379 11.7457 47.4396 11.7332C47.1575 11.7303 46.9626 11.8189 46.7816 12.0387C45.3177 13.8213 43.8458 15.5973 42.3717 17.3719C42.2676 17.4972 42.1797 17.7405 42.0112 17.6811C41.839 17.6202 41.9298 17.3763 41.9291 17.2151C41.9247 13.5166 41.9262 9.818 41.9254 6.11871C41.9254 5.70743 41.7251 5.50131 41.3246 5.50033C40.5187 5.49959 39.7135 5.50033 38.9075 5.50033C38.4977 5.50033 38.2923 5.7006 38.2914 6.10113C38.2914 9.3359 38.2914 12.5707 38.2914 15.8054L38.2936 15.8062ZM30.6166 26.4967C30.7389 26.4967 30.8613 26.504 30.9821 26.4952C31.2012 26.4784 31.4195 26.4563 31.6379 26.4285C33.3883 26.2094 34.9181 25.5237 36.1951 24.2913C36.4208 24.0737 36.434 23.9169 36.2003 23.692C35.5672 23.0824 34.9452 22.4618 34.3364 21.8273C34.1055 21.587 33.9795 21.5724 33.7451 21.8478C32.0035 23.8891 29.1234 23.8099 27.4726 21.6925C25.7442 19.4754 26.5223 16.1088 29.0376 14.9167C30.5983 14.1767 32.353 14.535 33.6088 15.8736C33.8374 16.1175 33.9773 16.1468 34.2154 15.8926C34.7921 15.2794 35.3811 14.6764 35.9929 14.0976C36.2728 13.8331 36.2383 13.6697 35.9753 13.4265C34.2338 11.8138 32.1573 11.2262 29.8355 11.4284C25.3933 11.816 22.371 15.8457 23.1007 20.2074C23.7279 23.9572 26.8118 26.5069 30.6166 26.4967ZM18.2783 26.1333C18.6812 26.1333 19.0834 26.1333 19.4865 26.1333C19.885 26.1328 20.0845 25.9271 20.0851 25.5163C20.0858 22.9784 20.066 20.4396 20.0938 17.9016C20.1136 16.0816 20.5078 14.3423 21.4501 12.7597C21.5856 12.5319 21.5262 12.4241 21.3276 12.2915C20.5569 11.7757 19.7971 11.2446 19.03 10.7229C18.649 10.4642 18.6299 10.465 18.3867 10.8621C17.254 12.7135 16.6854 14.7526 16.5403 16.895C16.3403 19.8425 16.4942 22.7988 16.4539 25.7508C16.4502 26.038 16.574 26.1413 16.8503 26.1355C17.3257 26.1245 17.802 26.1325 18.2783 26.1333ZM21.6742 10.2451C23.0216 10.2495 24.0518 9.23259 24.051 7.89985C24.051 6.58396 23.0267 5.567 21.7021 5.56627C20.3825 5.56554 19.3451 6.58103 19.3282 7.88959C19.3121 9.16884 20.3796 10.2408 21.6742 10.2451ZM24.6335 10.2862C24.5917 10.0664 24.4671 9.90299 24.2049 9.91398C23.9514 9.92423 23.7938 10.0744 23.7983 10.3294C23.8027 10.599 23.9602 10.7588 24.2386 10.7434C24.4994 10.7294 24.6159 10.5602 24.6335 10.2862ZM24.4555 11.5801C24.1917 11.5918 24.0416 11.742 24.0416 11.9911C24.0416 12.2417 24.2071 12.3912 24.454 12.4146C24.6775 12.4359 24.9097 12.1977 24.8885 11.9743C24.8643 11.7207 24.7149 11.5845 24.4555 11.5801ZM26.255 10.7243C26.2374 10.4635 26.0952 10.3235 25.8307 10.3338C25.5691 10.3441 25.4116 10.4986 25.4233 10.7536C25.4351 11.0013 25.6073 11.1669 25.8564 11.1625C26.1091 11.1581 26.2476 10.9903 26.255 10.7243Z" fill="white"/>
</g>
</svg>
