<svg width="1092" height="229" viewBox="0 0 1092 229" fill="none" xmlns="http://www.w3.org/2000/svg">
<rect x="60.5" y="64.5" width="117" height="53" rx="7.5" stroke="white" stroke-opacity="0.24"/>
<path d="M85.12 97V85.48H89.776C89.888 85.48 90.0267 85.4853 90.192 85.496C90.3573 85.5013 90.5147 85.5173 90.664 85.544C91.304 85.6453 91.8373 85.864 92.264 86.2C92.696 86.536 93.0187 86.96 93.232 87.472C93.4453 87.984 93.552 88.5493 93.552 89.168C93.552 90.0853 93.3173 90.8773 92.848 91.544C92.3787 92.2053 91.6747 92.6187 90.736 92.784L90.056 92.864H86.792V97H85.12ZM91.856 97L89.584 92.312L91.272 91.88L93.768 97H91.856ZM86.792 91.28H89.712C89.8187 91.28 89.936 91.2747 90.064 91.264C90.1973 91.2533 90.3227 91.2347 90.44 91.208C90.7813 91.128 91.056 90.9813 91.264 90.768C91.472 90.5493 91.6213 90.2987 91.712 90.016C91.8027 89.7333 91.848 89.4507 91.848 89.168C91.848 88.8853 91.8027 88.6053 91.712 88.328C91.6213 88.0453 91.472 87.7973 91.264 87.584C91.056 87.3653 90.7813 87.216 90.44 87.136C90.3227 87.104 90.1973 87.0827 90.064 87.072C89.936 87.0613 89.8187 87.056 89.712 87.056H86.792V91.28ZM99.0383 97.24C98.1796 97.24 97.4249 97.0533 96.7743 96.68C96.1289 96.3013 95.6249 95.776 95.2623 95.104C94.9049 94.4267 94.7263 93.6427 94.7263 92.752C94.7263 91.808 94.9023 90.9893 95.2543 90.296C95.6116 89.6027 96.1076 89.0667 96.7423 88.688C97.3769 88.3093 98.1156 88.12 98.9583 88.12C99.8383 88.12 100.588 88.3253 101.206 88.736C101.825 89.1413 102.286 89.72 102.59 90.472C102.9 91.224 103.022 92.1173 102.958 93.152H101.286V92.544C101.276 91.5413 101.084 90.8 100.71 90.32C100.342 89.84 99.7796 89.6 99.0223 89.6C98.1849 89.6 97.5556 89.864 97.1343 90.392C96.7129 90.92 96.5023 91.6827 96.5023 92.68C96.5023 93.6293 96.7129 94.3653 97.1343 94.888C97.5556 95.4053 98.1636 95.664 98.9583 95.664C99.4809 95.664 99.9316 95.5467 100.31 95.312C100.694 95.072 100.993 94.7307 101.206 94.288L102.846 94.808C102.51 95.5813 102.001 96.1813 101.318 96.608C100.636 97.0293 99.8756 97.24 99.0383 97.24ZM95.9583 93.152V91.848H102.126V93.152H95.9583ZM107.737 97.232C106.686 97.232 105.83 97 105.169 96.536C104.508 96.072 104.102 95.4187 103.953 94.576L105.665 94.312C105.772 94.76 106.017 95.1147 106.401 95.376C106.79 95.632 107.273 95.76 107.849 95.76C108.372 95.76 108.78 95.6533 109.073 95.44C109.372 95.2267 109.521 94.9333 109.521 94.56C109.521 94.3413 109.468 94.1653 109.361 94.032C109.26 93.8933 109.044 93.7627 108.713 93.64C108.382 93.5173 107.878 93.3653 107.201 93.184C106.46 92.992 105.87 92.7867 105.433 92.568C105.001 92.344 104.692 92.0853 104.505 91.792C104.324 91.4933 104.233 91.1333 104.233 90.712C104.233 90.1893 104.372 89.7333 104.649 89.344C104.926 88.9547 105.316 88.6533 105.817 88.44C106.324 88.2267 106.916 88.12 107.593 88.12C108.254 88.12 108.844 88.224 109.361 88.432C109.878 88.64 110.297 88.936 110.617 89.32C110.937 89.6987 111.129 90.144 111.193 90.656L109.481 90.968C109.422 90.552 109.228 90.224 108.897 89.984C108.566 89.744 108.137 89.6133 107.609 89.592C107.102 89.5707 106.692 89.656 106.377 89.848C106.062 90.0347 105.905 90.2933 105.905 90.624C105.905 90.816 105.964 90.9787 106.081 91.112C106.204 91.2453 106.438 91.3733 106.785 91.496C107.132 91.6187 107.644 91.7653 108.321 91.936C109.046 92.1227 109.622 92.3307 110.049 92.56C110.476 92.784 110.78 93.0533 110.961 93.368C111.148 93.6773 111.241 94.0533 111.241 94.496C111.241 95.3493 110.929 96.0187 110.305 96.504C109.686 96.9893 108.83 97.232 107.737 97.232ZM116.523 97.24C115.665 97.24 114.91 97.0533 114.259 96.68C113.614 96.3013 113.11 95.776 112.747 95.104C112.39 94.4267 112.211 93.6427 112.211 92.752C112.211 91.808 112.387 90.9893 112.739 90.296C113.097 89.6027 113.593 89.0667 114.227 88.688C114.862 88.3093 115.601 88.12 116.443 88.12C117.323 88.12 118.073 88.3253 118.691 88.736C119.31 89.1413 119.771 89.72 120.075 90.472C120.385 91.224 120.507 92.1173 120.443 93.152H118.771V92.544C118.761 91.5413 118.569 90.8 118.195 90.32C117.827 89.84 117.265 89.6 116.507 89.6C115.67 89.6 115.041 89.864 114.619 90.392C114.198 90.92 113.987 91.6827 113.987 92.68C113.987 93.6293 114.198 94.3653 114.619 94.888C115.041 95.4053 115.649 95.664 116.443 95.664C116.966 95.664 117.417 95.5467 117.795 95.312C118.179 95.072 118.478 94.7307 118.691 94.288L120.331 94.808C119.995 95.5813 119.486 96.1813 118.803 96.608C118.121 97.0293 117.361 97.24 116.523 97.24ZM113.443 93.152V91.848H119.611V93.152H113.443ZM124.202 97.24C123.562 97.24 123.026 97.1227 122.594 96.888C122.162 96.648 121.834 96.3333 121.61 95.944C121.391 95.5493 121.282 95.1173 121.282 94.648C121.282 94.2107 121.359 93.8267 121.514 93.496C121.669 93.1653 121.898 92.8853 122.202 92.656C122.506 92.4213 122.879 92.232 123.322 92.088C123.706 91.976 124.141 91.8773 124.626 91.792C125.111 91.7067 125.621 91.6267 126.154 91.552C126.693 91.4773 127.226 91.4027 127.754 91.328L127.146 91.664C127.157 90.9867 127.013 90.4853 126.714 90.16C126.421 89.8293 125.914 89.664 125.194 89.664C124.741 89.664 124.325 89.7707 123.946 89.984C123.567 90.192 123.303 90.5387 123.154 91.024L121.594 90.544C121.807 89.8027 122.213 89.2133 122.81 88.776C123.413 88.3387 124.213 88.12 125.21 88.12C125.983 88.12 126.655 88.2533 127.226 88.52C127.802 88.7813 128.223 89.1973 128.49 89.768C128.629 90.0507 128.714 90.3493 128.746 90.664C128.778 90.9787 128.794 91.3173 128.794 91.68V97H127.314V95.024L127.602 95.28C127.245 95.9413 126.789 96.4347 126.234 96.76C125.685 97.08 125.007 97.24 124.202 97.24ZM124.498 95.872C124.973 95.872 125.381 95.7893 125.722 95.624C126.063 95.4533 126.338 95.2373 126.546 94.976C126.754 94.7147 126.89 94.4427 126.954 94.16C127.045 93.904 127.095 93.616 127.106 93.296C127.122 92.976 127.13 92.72 127.13 92.528L127.674 92.728C127.146 92.808 126.666 92.88 126.234 92.944C125.802 93.008 125.41 93.072 125.058 93.136C124.711 93.1947 124.402 93.2667 124.13 93.352C123.901 93.432 123.695 93.528 123.514 93.64C123.338 93.752 123.197 93.888 123.09 94.048C122.989 94.208 122.938 94.4027 122.938 94.632C122.938 94.856 122.994 95.064 123.106 95.256C123.218 95.4427 123.389 95.592 123.618 95.704C123.847 95.816 124.141 95.872 124.498 95.872ZM130.551 97V88.36H132.039V90.456L131.831 90.184C131.938 89.9067 132.077 89.6533 132.247 89.424C132.418 89.1893 132.615 88.9973 132.839 88.848C133.058 88.688 133.301 88.5653 133.567 88.48C133.839 88.3893 134.117 88.336 134.399 88.32C134.682 88.2987 134.954 88.312 135.215 88.36V89.928C134.933 89.8533 134.618 89.832 134.271 89.864C133.93 89.896 133.615 90.0053 133.327 90.192C133.055 90.368 132.839 90.5813 132.679 90.832C132.525 91.0827 132.413 91.3627 132.343 91.672C132.274 91.976 132.239 92.2987 132.239 92.64V97H130.551ZM139.959 97.24C139.073 97.24 138.321 97.0427 137.703 96.648C137.084 96.2533 136.609 95.712 136.279 95.024C135.953 94.336 135.788 93.5547 135.783 92.68C135.788 91.7893 135.959 91.0027 136.295 90.32C136.631 89.632 137.111 89.0933 137.735 88.704C138.359 88.3147 139.108 88.12 139.983 88.12C140.927 88.12 141.732 88.3547 142.399 88.824C143.071 89.2933 143.513 89.936 143.727 90.752L142.063 91.232C141.897 90.7467 141.625 90.3707 141.247 90.104C140.873 89.832 140.444 89.696 139.959 89.696C139.409 89.696 138.959 89.8267 138.607 90.088C138.255 90.344 137.993 90.696 137.823 91.144C137.652 91.592 137.564 92.104 137.559 92.68C137.564 93.5707 137.767 94.2907 138.167 94.84C138.572 95.3893 139.169 95.664 139.959 95.664C140.497 95.664 140.932 95.5413 141.263 95.296C141.599 95.0453 141.855 94.688 142.031 94.224L143.727 94.624C143.444 95.4667 142.977 96.1147 142.327 96.568C141.676 97.016 140.887 97.24 139.959 97.24ZM151.1 97V92.752C151.1 92.416 151.071 92.072 151.012 91.72C150.959 91.3627 150.852 91.032 150.692 90.728C150.538 90.424 150.316 90.1787 150.028 89.992C149.746 89.8053 149.375 89.712 148.916 89.712C148.618 89.712 148.335 89.7627 148.068 89.864C147.802 89.96 147.567 90.1173 147.364 90.336C147.167 90.5547 147.01 90.8427 146.892 91.2C146.78 91.5573 146.724 91.992 146.724 92.504L145.684 92.112C145.684 91.328 145.831 90.6373 146.124 90.04C146.418 89.4373 146.839 88.968 147.388 88.632C147.938 88.296 148.602 88.128 149.38 88.128C149.978 88.128 150.479 88.224 150.884 88.416C151.29 88.608 151.618 88.8613 151.868 89.176C152.124 89.4853 152.319 89.824 152.452 90.192C152.586 90.56 152.676 90.92 152.724 91.272C152.772 91.624 152.796 91.9333 152.796 92.2V97H151.1ZM145.028 97V85.48H146.524V91.696H146.724V97H145.028Z" fill="white"/>
<g clip-path="url(#clip0_2019_1085)">
<path d="M200.7 83L199.29 84.41L204.87 90H192.7V92H204.87L199.29 97.59L200.7 99L208.7 91L200.7 83Z" fill="#1CE185"/>
</g>
<rect x="223.4" y="64" width="109" height="54" rx="8" fill="#29604D"/>
<path d="M248.68 97V85.48H250.352V97H248.68ZM255.867 97.24C255.061 97.24 254.365 97.04 253.779 96.64C253.197 96.24 252.747 95.696 252.427 95.008C252.112 94.3147 251.955 93.536 251.955 92.672C251.955 91.8027 252.115 91.0267 252.435 90.344C252.755 89.656 253.208 89.1147 253.795 88.72C254.387 88.32 255.088 88.12 255.899 88.12C256.715 88.12 257.4 88.32 257.955 88.72C258.515 89.1147 258.936 89.656 259.219 90.344C259.507 91.032 259.651 91.808 259.651 92.672C259.651 93.536 259.507 94.312 259.219 95C258.931 95.688 258.507 96.2347 257.947 96.64C257.387 97.04 256.693 97.24 255.867 97.24ZM256.099 95.728C256.648 95.728 257.096 95.5973 257.443 95.336C257.789 95.0747 258.043 94.7147 258.203 94.256C258.363 93.7973 258.443 93.2693 258.443 92.672C258.443 92.0747 258.36 91.5467 258.195 91.088C258.035 90.6293 257.784 90.272 257.443 90.016C257.107 89.76 256.677 89.632 256.155 89.632C255.6 89.632 255.144 89.768 254.787 90.04C254.429 90.312 254.163 90.6773 253.987 91.136C253.816 91.5947 253.731 92.1067 253.731 92.672C253.731 93.2427 253.816 93.76 253.987 94.224C254.163 94.6827 254.424 95.048 254.771 95.32C255.123 95.592 255.565 95.728 256.099 95.728ZM258.443 97V90.784H258.251V85.48H259.931V97H258.443ZM265.681 97.24C264.822 97.24 264.068 97.0533 263.417 96.68C262.772 96.3013 262.268 95.776 261.905 95.104C261.548 94.4267 261.369 93.6427 261.369 92.752C261.369 91.808 261.545 90.9893 261.897 90.296C262.254 89.6027 262.75 89.0667 263.385 88.688C264.02 88.3093 264.758 88.12 265.601 88.12C266.481 88.12 267.23 88.3253 267.849 88.736C268.468 89.1413 268.929 89.72 269.233 90.472C269.542 91.224 269.665 92.1173 269.601 93.152H267.929V92.544C267.918 91.5413 267.726 90.8 267.353 90.32C266.985 89.84 266.422 89.6 265.665 89.6C264.828 89.6 264.198 89.864 263.777 90.392C263.356 90.92 263.145 91.6827 263.145 92.68C263.145 93.6293 263.356 94.3653 263.777 94.888C264.198 95.4053 264.806 95.664 265.601 95.664C266.124 95.664 266.574 95.5467 266.953 95.312C267.337 95.072 267.636 94.7307 267.849 94.288L269.489 94.808C269.153 95.5813 268.644 96.1813 267.961 96.608C267.278 97.0293 266.518 97.24 265.681 97.24ZM262.601 93.152V91.848H268.769V93.152H262.601ZM273.36 97.24C272.72 97.24 272.184 97.1227 271.752 96.888C271.32 96.648 270.992 96.3333 270.768 95.944C270.549 95.5493 270.44 95.1173 270.44 94.648C270.44 94.2107 270.517 93.8267 270.672 93.496C270.826 93.1653 271.056 92.8853 271.36 92.656C271.664 92.4213 272.037 92.232 272.48 92.088C272.864 91.976 273.298 91.8773 273.784 91.792C274.269 91.7067 274.778 91.6267 275.312 91.552C275.85 91.4773 276.384 91.4027 276.912 91.328L276.304 91.664C276.314 90.9867 276.17 90.4853 275.872 90.16C275.578 89.8293 275.072 89.664 274.352 89.664C273.898 89.664 273.482 89.7707 273.104 89.984C272.725 90.192 272.461 90.5387 272.312 91.024L270.752 90.544C270.965 89.8027 271.37 89.2133 271.968 88.776C272.57 88.3387 273.37 88.12 274.368 88.12C275.141 88.12 275.813 88.2533 276.384 88.52C276.96 88.7813 277.381 89.1973 277.648 89.768C277.786 90.0507 277.872 90.3493 277.904 90.664C277.936 90.9787 277.952 91.3173 277.952 91.68V97H276.472V95.024L276.76 95.28C276.402 95.9413 275.946 96.4347 275.392 96.76C274.842 97.08 274.165 97.24 273.36 97.24ZM273.656 95.872C274.13 95.872 274.538 95.7893 274.88 95.624C275.221 95.4533 275.496 95.2373 275.704 94.976C275.912 94.7147 276.048 94.4427 276.112 94.16C276.202 93.904 276.253 93.616 276.264 93.296C276.28 92.976 276.288 92.72 276.288 92.528L276.832 92.728C276.304 92.808 275.824 92.88 275.392 92.944C274.96 93.008 274.568 93.072 274.216 93.136C273.869 93.1947 273.56 93.2667 273.288 93.352C273.058 93.432 272.853 93.528 272.672 93.64C272.496 93.752 272.354 93.888 272.248 94.048C272.146 94.208 272.096 94.4027 272.096 94.632C272.096 94.856 272.152 95.064 272.264 95.256C272.376 95.4427 272.546 95.592 272.776 95.704C273.005 95.816 273.298 95.872 273.656 95.872ZM284.653 97C284.109 97.1067 283.576 97.152 283.053 97.136C282.53 97.12 282.064 97.0187 281.653 96.832C281.242 96.6453 280.933 96.352 280.725 95.952C280.538 95.5947 280.437 95.232 280.421 94.864C280.41 94.4907 280.405 94.0693 280.405 93.6V85.96H282.085V93.52C282.085 93.8667 282.088 94.168 282.093 94.424C282.104 94.68 282.16 94.896 282.261 95.072C282.453 95.4027 282.757 95.592 283.173 95.64C283.594 95.6827 284.088 95.664 284.653 95.584V97ZM278.749 89.704V88.36H284.653V89.704H278.749ZM286.315 86.944V85.32H287.987V86.944H286.315ZM286.315 97V88.36H287.987V97H286.315ZM293.821 97.24C292.957 97.24 292.208 97.0453 291.573 96.656C290.938 96.2667 290.448 95.7307 290.101 95.048C289.76 94.36 289.589 93.568 289.589 92.672C289.589 91.7707 289.765 90.9787 290.117 90.296C290.469 89.608 290.962 89.0747 291.597 88.696C292.232 88.312 292.973 88.12 293.821 88.12C294.685 88.12 295.434 88.3147 296.069 88.704C296.704 89.0933 297.194 89.6293 297.541 90.312C297.888 90.9947 298.061 91.7813 298.061 92.672C298.061 93.5733 297.885 94.368 297.533 95.056C297.186 95.7387 296.696 96.2747 296.061 96.664C295.426 97.048 294.68 97.24 293.821 97.24ZM293.821 95.664C294.648 95.664 295.264 95.3867 295.669 94.832C296.08 94.272 296.285 93.552 296.285 92.672C296.285 91.7707 296.077 91.0507 295.661 90.512C295.25 89.968 294.637 89.696 293.821 89.696C293.261 89.696 292.8 89.824 292.437 90.08C292.074 90.3307 291.805 90.68 291.629 91.128C291.453 91.5707 291.365 92.0853 291.365 92.672C291.365 93.5787 291.573 94.304 291.989 94.848C292.405 95.392 293.016 95.664 293.821 95.664ZM305.563 97V92.752C305.563 92.416 305.534 92.072 305.475 91.72C305.422 91.3627 305.315 91.032 305.155 90.728C305 90.424 304.779 90.1787 304.491 89.992C304.208 89.8053 303.838 89.712 303.379 89.712C303.08 89.712 302.798 89.7627 302.531 89.864C302.264 89.96 302.03 90.1173 301.827 90.336C301.63 90.5547 301.472 90.8427 301.355 91.2C301.243 91.5573 301.187 91.992 301.187 92.504L300.147 92.112C300.147 91.328 300.294 90.6373 300.587 90.04C300.88 89.4373 301.302 88.968 301.851 88.632C302.4 88.296 303.064 88.128 303.843 88.128C304.44 88.128 304.942 88.224 305.347 88.416C305.752 88.608 306.08 88.8613 306.331 89.176C306.587 89.4853 306.782 89.824 306.915 90.192C307.048 90.56 307.139 90.92 307.187 91.272C307.235 91.624 307.259 91.9333 307.259 92.2V97H305.563ZM299.491 97V88.36H300.987V90.856H301.187V97H299.491Z" fill="white"/>
<g clip-path="url(#clip1_2019_1085)">
<path d="M355.1 83L353.69 84.41L359.27 90H347.1V92H359.27L353.69 97.59L355.1 99L363.1 91L355.1 83Z" fill="#1CE185"/>
</g>
<rect x="377.8" y="64" width="136" height="54" rx="8" fill="#205230"/>
<path d="M402.92 97V85.48H407.576C407.688 85.48 407.826 85.4853 407.992 85.496C408.157 85.5013 408.314 85.5173 408.464 85.544C409.104 85.6453 409.637 85.864 410.064 86.2C410.496 86.536 410.818 86.96 411.032 87.472C411.245 87.984 411.352 88.5493 411.352 89.168C411.352 89.792 411.245 90.36 411.032 90.872C410.818 91.384 410.496 91.808 410.064 92.144C409.637 92.48 409.104 92.6987 408.464 92.8C408.314 92.8213 408.154 92.8373 407.984 92.848C407.818 92.8587 407.682 92.864 407.576 92.864H404.592V97H402.92ZM404.592 91.28H407.512C407.618 91.28 407.736 91.2747 407.864 91.264C407.997 91.2533 408.122 91.2347 408.24 91.208C408.581 91.128 408.856 90.9813 409.064 90.768C409.272 90.5493 409.421 90.2987 409.512 90.016C409.602 89.7333 409.648 89.4507 409.648 89.168C409.648 88.8853 409.602 88.6053 409.512 88.328C409.421 88.0453 409.272 87.7973 409.064 87.584C408.856 87.3653 408.581 87.216 408.24 87.136C408.122 87.104 407.997 87.0827 407.864 87.072C407.736 87.0613 407.618 87.056 407.512 87.056H404.592V91.28ZM412.631 97V88.36H414.119V90.456L413.911 90.184C414.018 89.9067 414.156 89.6533 414.327 89.424C414.498 89.1893 414.695 88.9973 414.919 88.848C415.138 88.688 415.38 88.5653 415.647 88.48C415.919 88.3893 416.196 88.336 416.479 88.32C416.762 88.2987 417.034 88.312 417.295 88.36V89.928C417.012 89.8533 416.698 89.832 416.351 89.864C416.01 89.896 415.695 90.0053 415.407 90.192C415.135 90.368 414.919 90.5813 414.759 90.832C414.604 91.0827 414.492 91.3627 414.423 91.672C414.354 91.976 414.319 92.2987 414.319 92.64V97H412.631ZM422.094 97.24C421.23 97.24 420.481 97.0453 419.846 96.656C419.212 96.2667 418.721 95.7307 418.374 95.048C418.033 94.36 417.862 93.568 417.862 92.672C417.862 91.7707 418.038 90.9787 418.39 90.296C418.742 89.608 419.236 89.0747 419.87 88.696C420.505 88.312 421.246 88.12 422.094 88.12C422.958 88.12 423.708 88.3147 424.342 88.704C424.977 89.0933 425.468 89.6293 425.814 90.312C426.161 90.9947 426.334 91.7813 426.334 92.672C426.334 93.5733 426.158 94.368 425.806 95.056C425.46 95.7387 424.969 96.2747 424.334 96.664C423.7 97.048 422.953 97.24 422.094 97.24ZM422.094 95.664C422.921 95.664 423.537 95.3867 423.942 94.832C424.353 94.272 424.558 93.552 424.558 92.672C424.558 91.7707 424.35 91.0507 423.934 90.512C423.524 89.968 422.91 89.696 422.094 89.696C421.534 89.696 421.073 89.824 420.71 90.08C420.348 90.3307 420.078 90.68 419.902 91.128C419.726 91.5707 419.638 92.0853 419.638 92.672C419.638 93.5787 419.846 94.304 420.262 94.848C420.678 95.392 421.289 95.664 422.094 95.664ZM432.716 97C432.172 97.1067 431.639 97.152 431.116 97.136C430.594 97.12 430.127 97.0187 429.716 96.832C429.306 96.6453 428.996 96.352 428.788 95.952C428.602 95.5947 428.5 95.232 428.484 94.864C428.474 94.4907 428.468 94.0693 428.468 93.6V85.96H430.148V93.52C430.148 93.8667 430.151 94.168 430.156 94.424C430.167 94.68 430.223 94.896 430.324 95.072C430.516 95.4027 430.82 95.592 431.236 95.64C431.658 95.6827 432.151 95.664 432.716 95.584V97ZM426.812 89.704V88.36H432.716V89.704H426.812ZM437.579 97.24C436.715 97.24 435.966 97.0453 435.331 96.656C434.697 96.2667 434.206 95.7307 433.859 95.048C433.518 94.36 433.347 93.568 433.347 92.672C433.347 91.7707 433.523 90.9787 433.875 90.296C434.227 89.608 434.721 89.0747 435.355 88.696C435.99 88.312 436.731 88.12 437.579 88.12C438.443 88.12 439.193 88.3147 439.827 88.704C440.462 89.0933 440.953 89.6293 441.299 90.312C441.646 90.9947 441.819 91.7813 441.819 92.672C441.819 93.5733 441.643 94.368 441.291 95.056C440.945 95.7387 440.454 96.2747 439.819 96.664C439.185 97.048 438.438 97.24 437.579 97.24ZM437.579 95.664C438.406 95.664 439.022 95.3867 439.427 94.832C439.838 94.272 440.043 93.552 440.043 92.672C440.043 91.7707 439.835 91.0507 439.419 90.512C439.009 89.968 438.395 89.696 437.579 89.696C437.019 89.696 436.558 89.824 436.195 90.08C435.833 90.3307 435.563 90.68 435.387 91.128C435.211 91.5707 435.123 92.0853 435.123 92.672C435.123 93.5787 435.331 94.304 435.747 94.848C436.163 95.392 436.774 95.664 437.579 95.664ZM448.201 97C447.657 97.1067 447.124 97.152 446.601 97.136C446.079 97.12 445.612 97.0187 445.201 96.832C444.791 96.6453 444.481 96.352 444.273 95.952C444.087 95.5947 443.985 95.232 443.969 94.864C443.959 94.4907 443.953 94.0693 443.953 93.6V85.96H445.633V93.52C445.633 93.8667 445.636 94.168 445.641 94.424C445.652 94.68 445.708 94.896 445.809 95.072C446.001 95.4027 446.305 95.592 446.721 95.64C447.143 95.6827 447.636 95.664 448.201 95.584V97ZM442.297 89.704V88.36H448.201V89.704H442.297ZM450.637 100.84L452.309 96.288L452.333 97.632L448.565 88.36H450.309L453.125 95.52H452.613L455.301 88.36H456.997L452.229 100.84H450.637ZM461.986 97.24C461.159 97.24 460.466 97.04 459.906 96.64C459.346 96.2347 458.922 95.688 458.634 95C458.346 94.312 458.202 93.536 458.202 92.672C458.202 91.808 458.343 91.032 458.626 90.344C458.914 89.656 459.335 89.1147 459.89 88.72C460.45 88.32 461.138 88.12 461.954 88.12C462.764 88.12 463.463 88.32 464.05 88.72C464.642 89.1147 465.098 89.656 465.418 90.344C465.738 91.0267 465.898 91.8027 465.898 92.672C465.898 93.536 465.738 94.3147 465.418 95.008C465.103 95.696 464.652 96.24 464.066 96.64C463.484 97.04 462.791 97.24 461.986 97.24ZM457.922 100.84V88.36H459.41V94.576H459.602V100.84H457.922ZM461.754 95.728C462.287 95.728 462.727 95.592 463.074 95.32C463.426 95.048 463.687 94.6827 463.858 94.224C464.034 93.76 464.122 93.2427 464.122 92.672C464.122 92.1067 464.034 91.5947 463.858 91.136C463.687 90.6773 463.423 90.312 463.066 90.04C462.708 89.768 462.252 89.632 461.698 89.632C461.175 89.632 460.743 89.76 460.402 90.016C460.066 90.272 459.815 90.6293 459.65 91.088C459.49 91.5467 459.41 92.0747 459.41 92.672C459.41 93.2693 459.49 93.7973 459.65 94.256C459.81 94.7147 460.063 95.0747 460.41 95.336C460.756 95.5973 461.204 95.728 461.754 95.728ZM467.504 86.944V85.32H469.176V86.944H467.504ZM467.504 97V88.36H469.176V97H467.504ZM477.323 97V92.752C477.323 92.416 477.293 92.072 477.235 91.72C477.181 91.3627 477.075 91.032 476.915 90.728C476.76 90.424 476.539 90.1787 476.251 89.992C475.968 89.8053 475.597 89.712 475.139 89.712C474.84 89.712 474.557 89.7627 474.291 89.864C474.024 89.96 473.789 90.1173 473.587 90.336C473.389 90.5547 473.232 90.8427 473.115 91.2C473.003 91.5573 472.947 91.992 472.947 92.504L471.907 92.112C471.907 91.328 472.053 90.6373 472.347 90.04C472.64 89.4373 473.061 88.968 473.611 88.632C474.16 88.296 474.824 88.128 475.603 88.128C476.2 88.128 476.701 88.224 477.107 88.416C477.512 88.608 477.84 88.8613 478.091 89.176C478.347 89.4853 478.541 89.824 478.675 90.192C478.808 90.56 478.899 90.92 478.947 91.272C478.995 91.624 479.019 91.9333 479.019 92.2V97H477.323ZM471.251 97V88.36H472.747V90.856H472.947V97H471.251ZM484.342 101.08C483.878 101.08 483.428 101.008 482.99 100.864C482.558 100.72 482.164 100.507 481.806 100.224C481.449 99.9467 481.153 99.6027 480.918 99.192L482.462 98.408C482.649 98.776 482.916 99.0453 483.262 99.216C483.609 99.3867 483.974 99.472 484.358 99.472C484.833 99.472 485.238 99.3867 485.574 99.216C485.91 99.0507 486.164 98.8 486.334 98.464C486.51 98.128 486.596 97.712 486.59 97.216V94.8H486.79V88.36H488.27V97.232C488.27 97.4613 488.262 97.68 488.246 97.888C488.23 98.096 488.201 98.304 488.158 98.512C488.036 99.0933 487.801 99.5733 487.454 99.952C487.113 100.331 486.676 100.613 486.142 100.8C485.614 100.987 485.014 101.08 484.342 101.08ZM484.214 97.24C483.409 97.24 482.713 97.04 482.126 96.64C481.545 96.24 481.094 95.696 480.774 95.008C480.46 94.3147 480.302 93.536 480.302 92.672C480.302 91.8027 480.462 91.0267 480.782 90.344C481.102 89.656 481.556 89.1147 482.142 88.72C482.734 88.32 483.436 88.12 484.246 88.12C485.062 88.12 485.748 88.32 486.302 88.72C486.862 89.1147 487.284 89.656 487.566 90.344C487.854 91.032 487.998 91.808 487.998 92.672C487.998 93.536 487.854 94.312 487.566 95C487.278 95.688 486.854 96.2347 486.294 96.64C485.734 97.04 485.041 97.24 484.214 97.24ZM484.446 95.728C484.996 95.728 485.444 95.5973 485.79 95.336C486.137 95.0747 486.39 94.7147 486.55 94.256C486.71 93.7973 486.79 93.2693 486.79 92.672C486.79 92.0747 486.708 91.5467 486.542 91.088C486.382 90.6293 486.132 90.272 485.79 90.016C485.454 89.76 485.025 89.632 484.502 89.632C483.948 89.632 483.492 89.768 483.134 90.04C482.777 90.312 482.51 90.6773 482.334 91.136C482.164 91.5947 482.078 92.1067 482.078 92.672C482.078 93.2427 482.164 93.76 482.334 94.224C482.51 94.6827 482.772 95.048 483.118 95.32C483.47 95.592 483.913 95.728 484.446 95.728Z" fill="white"/>
<g clip-path="url(#clip2_2019_1085)">
<path d="M536.5 83L535.09 84.41L540.67 90H528.5V92H540.67L535.09 97.59L536.5 99L544.5 91L536.5 83Z" fill="#1CE185"/>
</g>
<rect x="559.7" y="64.5" width="103" height="53" rx="7.5" stroke="#56FD44"/>
<path d="M587.192 97V87.056H583.36V85.48H592.696V87.056H588.864V97H587.192ZM596.207 97.24C595.349 97.24 594.594 97.0533 593.943 96.68C593.298 96.3013 592.794 95.776 592.431 95.104C592.074 94.4267 591.895 93.6427 591.895 92.752C591.895 91.808 592.071 90.9893 592.423 90.296C592.781 89.6027 593.277 89.0667 593.911 88.688C594.546 88.3093 595.285 88.12 596.127 88.12C597.007 88.12 597.757 88.3253 598.375 88.736C598.994 89.1413 599.455 89.72 599.759 90.472C600.069 91.224 600.191 92.1173 600.127 93.152H598.455V92.544C598.445 91.5413 598.253 90.8 597.879 90.32C597.511 89.84 596.949 89.6 596.191 89.6C595.354 89.6 594.725 89.864 594.303 90.392C593.882 90.92 593.671 91.6827 593.671 92.68C593.671 93.6293 593.882 94.3653 594.303 94.888C594.725 95.4053 595.333 95.664 596.127 95.664C596.65 95.664 597.101 95.5467 597.479 95.312C597.863 95.072 598.162 94.7307 598.375 94.288L600.015 94.808C599.679 95.5813 599.17 96.1813 598.487 96.608C597.805 97.0293 597.045 97.24 596.207 97.24ZM593.127 93.152V91.848H599.295V93.152H593.127ZM604.906 97.232C603.855 97.232 602.999 97 602.338 96.536C601.677 96.072 601.271 95.4187 601.122 94.576L602.834 94.312C602.941 94.76 603.186 95.1147 603.57 95.376C603.959 95.632 604.442 95.76 605.018 95.76C605.541 95.76 605.949 95.6533 606.242 95.44C606.541 95.2267 606.69 94.9333 606.69 94.56C606.69 94.3413 606.637 94.1653 606.53 94.032C606.429 93.8933 606.213 93.7627 605.882 93.64C605.551 93.5173 605.047 93.3653 604.37 93.184C603.629 92.992 603.039 92.7867 602.602 92.568C602.17 92.344 601.861 92.0853 601.674 91.792C601.493 91.4933 601.402 91.1333 601.402 90.712C601.402 90.1893 601.541 89.7333 601.818 89.344C602.095 88.9547 602.485 88.6533 602.986 88.44C603.493 88.2267 604.085 88.12 604.762 88.12C605.423 88.12 606.013 88.224 606.53 88.432C607.047 88.64 607.466 88.936 607.786 89.32C608.106 89.6987 608.298 90.144 608.362 90.656L606.65 90.968C606.591 90.552 606.397 90.224 606.066 89.984C605.735 89.744 605.306 89.6133 604.778 89.592C604.271 89.5707 603.861 89.656 603.546 89.848C603.231 90.0347 603.074 90.2933 603.074 90.624C603.074 90.816 603.133 90.9787 603.25 91.112C603.373 91.2453 603.607 91.3733 603.954 91.496C604.301 91.6187 604.813 91.7653 605.49 91.936C606.215 92.1227 606.791 92.3307 607.218 92.56C607.645 92.784 607.949 93.0533 608.13 93.368C608.317 93.6773 608.41 94.0533 608.41 94.496C608.41 95.3493 608.098 96.0187 607.474 96.504C606.855 96.9893 605.999 97.232 604.906 97.232ZM614.804 97C614.26 97.1067 613.727 97.152 613.204 97.136C612.682 97.12 612.215 97.0187 611.804 96.832C611.394 96.6453 611.084 96.352 610.876 95.952C610.69 95.5947 610.588 95.232 610.572 94.864C610.562 94.4907 610.556 94.0693 610.556 93.6V85.96H612.236V93.52C612.236 93.8667 612.239 94.168 612.244 94.424C612.255 94.68 612.311 94.896 612.412 95.072C612.604 95.4027 612.908 95.592 613.324 95.64C613.746 95.6827 614.239 95.664 614.804 95.584V97ZM608.9 89.704V88.36H614.804V89.704H608.9ZM616.466 86.944V85.32H618.138V86.944H616.466ZM616.466 97V88.36H618.138V97H616.466ZM626.284 97V92.752C626.284 92.416 626.255 92.072 626.196 91.72C626.143 91.3627 626.036 91.032 625.876 90.728C625.722 90.424 625.5 90.1787 625.212 89.992C624.93 89.8053 624.559 89.712 624.1 89.712C623.802 89.712 623.519 89.7627 623.252 89.864C622.986 89.96 622.751 90.1173 622.548 90.336C622.351 90.5547 622.194 90.8427 622.076 91.2C621.964 91.5573 621.908 91.992 621.908 92.504L620.868 92.112C620.868 91.328 621.015 90.6373 621.308 90.04C621.602 89.4373 622.023 88.968 622.572 88.632C623.122 88.296 623.786 88.128 624.564 88.128C625.162 88.128 625.663 88.224 626.068 88.416C626.474 88.608 626.802 88.8613 627.052 89.176C627.308 89.4853 627.503 89.824 627.636 90.192C627.77 90.56 627.86 90.92 627.908 91.272C627.956 91.624 627.98 91.9333 627.98 92.2V97H626.284ZM620.212 97V88.36H621.708V90.856H621.908V97H620.212ZM633.304 101.08C632.84 101.08 632.389 101.008 631.952 100.864C631.52 100.72 631.125 100.507 630.768 100.224C630.411 99.9467 630.115 99.6027 629.88 99.192L631.424 98.408C631.611 98.776 631.877 99.0453 632.224 99.216C632.571 99.3867 632.936 99.472 633.32 99.472C633.795 99.472 634.2 99.3867 634.536 99.216C634.872 99.0507 635.125 98.8 635.296 98.464C635.472 98.128 635.557 97.712 635.552 97.216V94.8H635.752V88.36H637.232V97.232C637.232 97.4613 637.224 97.68 637.208 97.888C637.192 98.096 637.163 98.304 637.12 98.512C636.997 99.0933 636.763 99.5733 636.416 99.952C636.075 100.331 635.637 100.613 635.104 100.8C634.576 100.987 633.976 101.08 633.304 101.08ZM633.176 97.24C632.371 97.24 631.675 97.04 631.088 96.64C630.507 96.24 630.056 95.696 629.736 95.008C629.421 94.3147 629.264 93.536 629.264 92.672C629.264 91.8027 629.424 91.0267 629.744 90.344C630.064 89.656 630.517 89.1147 631.104 88.72C631.696 88.32 632.397 88.12 633.208 88.12C634.024 88.12 634.709 88.32 635.264 88.72C635.824 89.1147 636.245 89.656 636.528 90.344C636.816 91.032 636.96 91.808 636.96 92.672C636.96 93.536 636.816 94.312 636.528 95C636.24 95.688 635.816 96.2347 635.256 96.64C634.696 97.04 634.003 97.24 633.176 97.24ZM633.408 95.728C633.957 95.728 634.405 95.5973 634.752 95.336C635.099 95.0747 635.352 94.7147 635.512 94.256C635.672 93.7973 635.752 93.2693 635.752 92.672C635.752 92.0747 635.669 91.5467 635.504 91.088C635.344 90.6293 635.093 90.272 634.752 90.016C634.416 89.76 633.987 89.632 633.464 89.632C632.909 89.632 632.453 89.768 632.096 90.04C631.739 90.312 631.472 90.6773 631.296 91.136C631.125 91.5947 631.04 92.1067 631.04 92.672C631.04 93.2427 631.125 93.76 631.296 94.224C631.472 94.6827 631.733 95.048 632.08 95.32C632.432 95.592 632.875 95.728 633.408 95.728Z" fill="#56FD44"/>
<g clip-path="url(#clip3_2019_1085)">
<path d="M685.9 83L684.49 84.41L690.07 90H677.9V92H690.07L684.49 97.59L685.9 99L693.9 91L685.9 83Z" fill="#1CE185"/>
</g>
<rect x="709.1" y="64.5" width="111" height="53" rx="7.5" stroke="#56FD44" stroke-dasharray="4 4"/>
<path d="M733.88 97V85.48H735.552V97H733.88ZM742.578 97C742.034 97.1067 741.501 97.152 740.978 97.136C740.455 97.12 739.989 97.0187 739.578 96.832C739.167 96.6453 738.858 96.352 738.65 95.952C738.463 95.5947 738.362 95.232 738.346 94.864C738.335 94.4907 738.33 94.0693 738.33 93.6V85.96H740.01V93.52C740.01 93.8667 740.013 94.168 740.018 94.424C740.029 94.68 740.085 94.896 740.186 95.072C740.378 95.4027 740.682 95.592 741.098 95.64C741.519 95.6827 742.013 95.664 742.578 95.584V97ZM736.674 89.704V88.36H742.578V89.704H736.674ZM747.521 97.24C746.662 97.24 745.908 97.0533 745.257 96.68C744.612 96.3013 744.108 95.776 743.745 95.104C743.388 94.4267 743.209 93.6427 743.209 92.752C743.209 91.808 743.385 90.9893 743.737 90.296C744.094 89.6027 744.59 89.0667 745.225 88.688C745.86 88.3093 746.598 88.12 747.441 88.12C748.321 88.12 749.07 88.3253 749.689 88.736C750.308 89.1413 750.769 89.72 751.073 90.472C751.382 91.224 751.505 92.1173 751.441 93.152H749.769V92.544C749.758 91.5413 749.566 90.8 749.193 90.32C748.825 89.84 748.262 89.6 747.505 89.6C746.668 89.6 746.038 89.864 745.617 90.392C745.196 90.92 744.985 91.6827 744.985 92.68C744.985 93.6293 745.196 94.3653 745.617 94.888C746.038 95.4053 746.646 95.664 747.441 95.664C747.964 95.664 748.414 95.5467 748.793 95.312C749.177 95.072 749.476 94.7307 749.689 94.288L751.329 94.808C750.993 95.5813 750.484 96.1813 749.801 96.608C749.118 97.0293 748.358 97.24 747.521 97.24ZM744.441 93.152V91.848H750.609V93.152H744.441ZM752.916 97V88.36H754.404V90.456L754.196 90.184C754.303 89.9067 754.441 89.6533 754.612 89.424C754.783 89.1893 754.98 88.9973 755.204 88.848C755.423 88.688 755.665 88.5653 755.932 88.48C756.204 88.3893 756.481 88.336 756.764 88.32C757.047 88.2987 757.319 88.312 757.58 88.36V89.928C757.297 89.8533 756.983 89.832 756.636 89.864C756.295 89.896 755.98 90.0053 755.692 90.192C755.42 90.368 755.204 90.5813 755.044 90.832C754.889 91.0827 754.777 91.3627 754.708 91.672C754.639 91.976 754.604 92.2987 754.604 92.64V97H752.916ZM760.973 97.24C760.333 97.24 759.797 97.1227 759.365 96.888C758.933 96.648 758.605 96.3333 758.381 95.944C758.163 95.5493 758.053 95.1173 758.053 94.648C758.053 94.2107 758.131 93.8267 758.285 93.496C758.44 93.1653 758.669 92.8853 758.973 92.656C759.277 92.4213 759.651 92.232 760.093 92.088C760.477 91.976 760.912 91.8773 761.397 91.792C761.883 91.7067 762.392 91.6267 762.925 91.552C763.464 91.4773 763.997 91.4027 764.525 91.328L763.917 91.664C763.928 90.9867 763.784 90.4853 763.485 90.16C763.192 89.8293 762.685 89.664 761.965 89.664C761.512 89.664 761.096 89.7707 760.717 89.984C760.339 90.192 760.075 90.5387 759.925 91.024L758.365 90.544C758.579 89.8027 758.984 89.2133 759.581 88.776C760.184 88.3387 760.984 88.12 761.981 88.12C762.755 88.12 763.427 88.2533 763.997 88.52C764.573 88.7813 764.995 89.1973 765.261 89.768C765.4 90.0507 765.485 90.3493 765.517 90.664C765.549 90.9787 765.565 91.3173 765.565 91.68V97H764.085V95.024L764.373 95.28C764.016 95.9413 763.56 96.4347 763.005 96.76C762.456 97.08 761.779 97.24 760.973 97.24ZM761.269 95.872C761.744 95.872 762.152 95.7893 762.493 95.624C762.835 95.4533 763.109 95.2373 763.317 94.976C763.525 94.7147 763.661 94.4427 763.725 94.16C763.816 93.904 763.867 93.616 763.877 93.296C763.893 92.976 763.901 92.72 763.901 92.528L764.445 92.728C763.917 92.808 763.437 92.88 763.005 92.944C762.573 93.008 762.181 93.072 761.829 93.136C761.483 93.1947 761.173 93.2667 760.901 93.352C760.672 93.432 760.467 93.528 760.285 93.64C760.109 93.752 759.968 93.888 759.861 94.048C759.76 94.208 759.709 94.4027 759.709 94.632C759.709 94.856 759.765 95.064 759.877 95.256C759.989 95.4427 760.16 95.592 760.389 95.704C760.619 95.816 760.912 95.872 761.269 95.872ZM772.267 97C771.723 97.1067 771.189 97.152 770.667 97.136C770.144 97.12 769.677 97.0187 769.267 96.832C768.856 96.6453 768.547 96.352 768.339 95.952C768.152 95.5947 768.051 95.232 768.035 94.864C768.024 94.4907 768.019 94.0693 768.019 93.6V85.96H769.699V93.52C769.699 93.8667 769.701 94.168 769.707 94.424C769.717 94.68 769.773 94.896 769.875 95.072C770.067 95.4027 770.371 95.592 770.787 95.64C771.208 95.6827 771.701 95.664 772.267 95.584V97ZM766.363 89.704V88.36H772.267V89.704H766.363ZM773.928 86.944V85.32H775.6V86.944H773.928ZM773.928 97V88.36H775.6V97H773.928ZM781.435 97.24C780.571 97.24 779.821 97.0453 779.187 96.656C778.552 96.2667 778.061 95.7307 777.715 95.048C777.373 94.36 777.203 93.568 777.203 92.672C777.203 91.7707 777.379 90.9787 777.731 90.296C778.083 89.608 778.576 89.0747 779.211 88.696C779.845 88.312 780.587 88.12 781.435 88.12C782.299 88.12 783.048 88.3147 783.683 88.704C784.317 89.0933 784.808 89.6293 785.155 90.312C785.501 90.9947 785.675 91.7813 785.675 92.672C785.675 93.5733 785.499 94.368 785.147 95.056C784.8 95.7387 784.309 96.2747 783.675 96.664C783.04 97.048 782.293 97.24 781.435 97.24ZM781.435 95.664C782.261 95.664 782.877 95.3867 783.283 94.832C783.693 94.272 783.899 93.552 783.899 92.672C783.899 91.7707 783.691 91.0507 783.275 90.512C782.864 89.968 782.251 89.696 781.435 89.696C780.875 89.696 780.413 89.824 780.051 90.08C779.688 90.3307 779.419 90.68 779.243 91.128C779.067 91.5707 778.979 92.0853 778.979 92.672C778.979 93.5787 779.187 94.304 779.603 94.848C780.019 95.392 780.629 95.664 781.435 95.664ZM793.177 97V92.752C793.177 92.416 793.147 92.072 793.089 91.72C793.035 91.3627 792.929 91.032 792.769 90.728C792.614 90.424 792.393 90.1787 792.105 89.992C791.822 89.8053 791.451 89.712 790.993 89.712C790.694 89.712 790.411 89.7627 790.145 89.864C789.878 89.96 789.643 90.1173 789.441 90.336C789.243 90.5547 789.086 90.8427 788.969 91.2C788.857 91.5573 788.801 91.992 788.801 92.504L787.761 92.112C787.761 91.328 787.907 90.6373 788.201 90.04C788.494 89.4373 788.915 88.968 789.465 88.632C790.014 88.296 790.678 88.128 791.457 88.128C792.054 88.128 792.555 88.224 792.961 88.416C793.366 88.608 793.694 88.8613 793.945 89.176C794.201 89.4853 794.395 89.824 794.529 90.192C794.662 90.56 794.753 90.92 794.801 91.272C794.849 91.624 794.873 91.9333 794.873 92.2V97H793.177ZM787.105 97V88.36H788.601V90.856H788.801V97H787.105Z" fill="#56FD44"/>
<g clip-path="url(#clip4_2019_1085)">
<path d="M843.3 83L841.89 84.41L847.47 90H835.3V92H847.47L841.89 97.59L843.3 99L851.3 91L843.3 83Z" fill="#1CE185"/>
</g>
<rect x="866" y="64" width="166" height="54" rx="8" fill="#1CE185"/>
<rect x="866.5" y="64.5" width="165" height="53" rx="7.5" stroke="white" stroke-opacity="0.24"/>
<path d="M891.28 97V85.48H892.952V97H891.28ZM905.386 97L905.394 91.616C905.394 90.992 905.234 90.5067 904.914 90.16C904.594 89.808 904.173 89.632 903.65 89.632C903.33 89.632 903.037 89.7067 902.77 89.856C902.509 90 902.296 90.2187 902.13 90.512C901.97 90.8 901.89 91.1627 901.89 91.6L901.082 91.192C901.072 90.584 901.2 90.0507 901.466 89.592C901.738 89.1333 902.106 88.7787 902.57 88.528C903.034 88.272 903.554 88.144 904.13 88.144C905.064 88.144 905.786 88.424 906.298 88.984C906.81 89.544 907.066 90.288 907.066 91.216L907.058 97H905.386ZM895.026 97V88.36H896.514V90.856H896.706V97H895.026ZM900.21 97L900.218 91.648C900.218 91.0187 900.058 90.5253 899.738 90.168C899.424 89.8107 899 89.632 898.466 89.632C897.938 89.632 897.512 89.8133 897.186 90.176C896.866 90.5387 896.706 91.0133 896.706 91.6L895.906 91.088C895.906 90.5227 896.042 90.0187 896.314 89.576C896.586 89.1333 896.954 88.784 897.418 88.528C897.882 88.272 898.408 88.144 898.994 88.144C899.608 88.144 900.13 88.2747 900.562 88.536C900.994 88.792 901.322 89.152 901.546 89.616C901.776 90.08 901.89 90.6187 901.89 91.232L901.882 97H900.21ZM912.88 97.24C912.053 97.24 911.36 97.04 910.8 96.64C910.24 96.2347 909.816 95.688 909.528 95C909.24 94.312 909.096 93.536 909.096 92.672C909.096 91.808 909.237 91.032 909.52 90.344C909.808 89.656 910.229 89.1147 910.784 88.72C911.344 88.32 912.032 88.12 912.848 88.12C913.658 88.12 914.357 88.32 914.944 88.72C915.536 89.1147 915.992 89.656 916.312 90.344C916.632 91.0267 916.792 91.8027 916.792 92.672C916.792 93.536 916.632 94.3147 916.312 95.008C915.997 95.696 915.546 96.24 914.96 96.64C914.378 97.04 913.685 97.24 912.88 97.24ZM908.816 100.84V88.36H910.304V94.576H910.496V100.84H908.816ZM912.648 95.728C913.181 95.728 913.621 95.592 913.968 95.32C914.32 95.048 914.581 94.6827 914.752 94.224C914.928 93.76 915.016 93.2427 915.016 92.672C915.016 92.1067 914.928 91.5947 914.752 91.136C914.581 90.6773 914.317 90.312 913.96 90.04C913.602 89.768 913.146 89.632 912.592 89.632C912.069 89.632 911.637 89.76 911.296 90.016C910.96 90.272 910.709 90.6293 910.544 91.088C910.384 91.5467 910.304 92.0747 910.304 92.672C910.304 93.2693 910.384 93.7973 910.544 94.256C910.704 94.7147 910.957 95.0747 911.304 95.336C911.65 95.5973 912.098 95.728 912.648 95.728ZM918.398 97V85.24H920.07V97H918.398ZM925.984 97.24C925.126 97.24 924.371 97.0533 923.72 96.68C923.075 96.3013 922.571 95.776 922.208 95.104C921.851 94.4267 921.672 93.6427 921.672 92.752C921.672 91.808 921.848 90.9893 922.2 90.296C922.558 89.6027 923.054 89.0667 923.688 88.688C924.323 88.3093 925.062 88.12 925.904 88.12C926.784 88.12 927.534 88.3253 928.152 88.736C928.771 89.1413 929.232 89.72 929.536 90.472C929.846 91.224 929.968 92.1173 929.905 93.152H928.232V92.544C928.222 91.5413 928.03 90.8 927.656 90.32C927.288 89.84 926.726 89.6 925.968 89.6C925.131 89.6 924.502 89.864 924.08 90.392C923.659 90.92 923.448 91.6827 923.448 92.68C923.448 93.6293 923.659 94.3653 924.08 94.888C924.502 95.4053 925.11 95.664 925.904 95.664C926.427 95.664 926.878 95.5467 927.256 95.312C927.64 95.072 927.939 94.7307 928.152 94.288L929.792 94.808C929.456 95.5813 928.947 96.1813 928.264 96.608C927.582 97.0293 926.822 97.24 925.984 97.24ZM922.904 93.152V91.848H929.072V93.152H922.904ZM941.497 97L941.505 91.616C941.505 90.992 941.345 90.5067 941.025 90.16C940.705 89.808 940.284 89.632 939.761 89.632C939.441 89.632 939.148 89.7067 938.881 89.856C938.62 90 938.406 90.2187 938.241 90.512C938.081 90.8 938.001 91.1627 938.001 91.6L937.193 91.192C937.182 90.584 937.31 90.0507 937.577 89.592C937.849 89.1333 938.217 88.7787 938.681 88.528C939.145 88.272 939.665 88.144 940.241 88.144C941.174 88.144 941.897 88.424 942.409 88.984C942.921 89.544 943.177 90.288 943.177 91.216L943.169 97H941.497ZM931.137 97V88.36H932.625V90.856H932.817V97H931.137ZM936.321 97L936.329 91.648C936.329 91.0187 936.169 90.5253 935.849 90.168C935.534 89.8107 935.11 89.632 934.577 89.632C934.049 89.632 933.622 89.8133 933.297 90.176C932.977 90.5387 932.817 91.0133 932.817 91.6L932.017 91.088C932.017 90.5227 932.153 90.0187 932.425 89.576C932.697 89.1333 933.065 88.784 933.529 88.528C933.993 88.272 934.518 88.144 935.105 88.144C935.718 88.144 936.241 88.2747 936.673 88.536C937.105 88.792 937.433 89.152 937.657 89.616C937.886 90.08 938.001 90.6187 938.001 91.232L937.993 97H936.321ZM948.657 97.24C947.798 97.24 947.044 97.0533 946.393 96.68C945.748 96.3013 945.244 95.776 944.881 95.104C944.524 94.4267 944.345 93.6427 944.345 92.752C944.345 91.808 944.521 90.9893 944.873 90.296C945.23 89.6027 945.726 89.0667 946.361 88.688C946.996 88.3093 947.734 88.12 948.577 88.12C949.457 88.12 950.206 88.3253 950.825 88.736C951.444 89.1413 951.905 89.72 952.209 90.472C952.518 91.224 952.641 92.1173 952.577 93.152H950.905V92.544C950.894 91.5413 950.702 90.8 950.329 90.32C949.961 89.84 949.398 89.6 948.641 89.6C947.804 89.6 947.174 89.864 946.753 90.392C946.332 90.92 946.121 91.6827 946.121 92.68C946.121 93.6293 946.332 94.3653 946.753 94.888C947.174 95.4053 947.782 95.664 948.577 95.664C949.1 95.664 949.55 95.5467 949.929 95.312C950.313 95.072 950.612 94.7307 950.825 94.288L952.465 94.808C952.129 95.5813 951.62 96.1813 950.937 96.608C950.254 97.0293 949.494 97.24 948.657 97.24ZM945.577 93.152V91.848H951.745V93.152H945.577ZM959.881 97V92.752C959.881 92.416 959.852 92.072 959.793 91.72C959.74 91.3627 959.633 91.032 959.473 90.728C959.319 90.424 959.097 90.1787 958.809 89.992C958.527 89.8053 958.156 89.712 957.697 89.712C957.399 89.712 957.116 89.7627 956.849 89.864C956.583 89.96 956.348 90.1173 956.145 90.336C955.948 90.5547 955.791 90.8427 955.673 91.2C955.561 91.5573 955.505 91.992 955.505 92.504L954.465 92.112C954.465 91.328 954.612 90.6373 954.905 90.04C955.199 89.4373 955.62 88.968 956.169 88.632C956.719 88.296 957.383 88.128 958.161 88.128C958.759 88.128 959.26 88.224 959.665 88.416C960.071 88.608 960.399 88.8613 960.649 89.176C960.905 89.4853 961.1 89.824 961.233 90.192C961.367 90.56 961.457 90.92 961.505 91.272C961.553 91.624 961.577 91.9333 961.577 92.2V97H959.881ZM953.809 97V88.36H955.305V90.856H955.505V97H953.809ZM968.285 97C967.741 97.1067 967.208 97.152 966.685 97.136C966.163 97.12 965.696 97.0187 965.285 96.832C964.875 96.6453 964.565 96.352 964.357 95.952C964.171 95.5947 964.069 95.232 964.053 94.864C964.043 94.4907 964.037 94.0693 964.037 93.6V85.96H965.717V93.52C965.717 93.8667 965.72 94.168 965.725 94.424C965.736 94.68 965.792 94.896 965.893 95.072C966.085 95.4027 966.389 95.592 966.805 95.64C967.227 95.6827 967.72 95.664 968.285 95.584V97ZM962.381 89.704V88.36H968.285V89.704H962.381ZM972.227 97.24C971.587 97.24 971.051 97.1227 970.619 96.888C970.187 96.648 969.859 96.3333 969.635 95.944C969.416 95.5493 969.307 95.1173 969.307 94.648C969.307 94.2107 969.384 93.8267 969.539 93.496C969.694 93.1653 969.923 92.8853 970.227 92.656C970.531 92.4213 970.904 92.232 971.347 92.088C971.731 91.976 972.166 91.8773 972.651 91.792C973.136 91.7067 973.646 91.6267 974.179 91.552C974.718 91.4773 975.251 91.4027 975.779 91.328L975.171 91.664C975.182 90.9867 975.038 90.4853 974.739 90.16C974.446 89.8293 973.939 89.664 973.219 89.664C972.766 89.664 972.35 89.7707 971.971 89.984C971.592 90.192 971.328 90.5387 971.179 91.024L969.619 90.544C969.832 89.8027 970.238 89.2133 970.835 88.776C971.438 88.3387 972.238 88.12 973.235 88.12C974.008 88.12 974.68 88.2533 975.251 88.52C975.827 88.7813 976.248 89.1973 976.515 89.768C976.654 90.0507 976.739 90.3493 976.771 90.664C976.803 90.9787 976.819 91.3173 976.819 91.68V97H975.339V95.024L975.627 95.28C975.27 95.9413 974.814 96.4347 974.259 96.76C973.71 97.08 973.032 97.24 972.227 97.24ZM972.523 95.872C972.998 95.872 973.406 95.7893 973.747 95.624C974.088 95.4533 974.363 95.2373 974.571 94.976C974.779 94.7147 974.915 94.4427 974.979 94.16C975.07 93.904 975.12 93.616 975.131 93.296C975.147 92.976 975.155 92.72 975.155 92.528L975.699 92.728C975.171 92.808 974.691 92.88 974.259 92.944C973.827 93.008 973.435 93.072 973.083 93.136C972.736 93.1947 972.427 93.2667 972.155 93.352C971.926 93.432 971.72 93.528 971.539 93.64C971.363 93.752 971.222 93.888 971.115 94.048C971.014 94.208 970.963 94.4027 970.963 94.632C970.963 94.856 971.019 95.064 971.131 95.256C971.243 95.4427 971.414 95.592 971.643 95.704C971.872 95.816 972.166 95.872 972.523 95.872ZM983.52 97C982.976 97.1067 982.443 97.152 981.92 97.136C981.398 97.12 980.931 97.0187 980.52 96.832C980.11 96.6453 979.8 96.352 979.592 95.952C979.406 95.5947 979.304 95.232 979.288 94.864C979.278 94.4907 979.272 94.0693 979.272 93.6V85.96H980.952V93.52C980.952 93.8667 980.955 94.168 980.96 94.424C980.971 94.68 981.027 94.896 981.128 95.072C981.32 95.4027 981.624 95.592 982.04 95.64C982.462 95.6827 982.955 95.664 983.52 95.584V97ZM977.616 89.704V88.36H983.52V89.704H977.616ZM985.182 86.944V85.32H986.854V86.944H985.182ZM985.182 97V88.36H986.854V97H985.182ZM992.688 97.24C991.824 97.24 991.075 97.0453 990.44 96.656C989.806 96.2667 989.315 95.7307 988.968 95.048C988.627 94.36 988.456 93.568 988.456 92.672C988.456 91.7707 988.632 90.9787 988.984 90.296C989.336 89.608 989.83 89.0747 990.464 88.696C991.099 88.312 991.84 88.12 992.688 88.12C993.552 88.12 994.302 88.3147 994.936 88.704C995.571 89.0933 996.062 89.6293 996.408 90.312C996.755 90.9947 996.928 91.7813 996.928 92.672C996.928 93.5733 996.752 94.368 996.4 95.056C996.054 95.7387 995.563 96.2747 994.928 96.664C994.294 97.048 993.547 97.24 992.688 97.24ZM992.688 95.664C993.515 95.664 994.131 95.3867 994.536 94.832C994.947 94.272 995.152 93.552 995.152 92.672C995.152 91.7707 994.944 91.0507 994.528 90.512C994.118 89.968 993.504 89.696 992.688 89.696C992.128 89.696 991.667 89.824 991.304 90.08C990.942 90.3307 990.672 90.68 990.496 91.128C990.32 91.5707 990.232 92.0853 990.232 92.672C990.232 93.5787 990.44 94.304 990.856 94.848C991.272 95.392 991.883 95.664 992.688 95.664ZM1004.43 97V92.752C1004.43 92.416 1004.4 92.072 1004.34 91.72C1004.29 91.3627 1004.18 91.032 1004.02 90.728C1003.87 90.424 1003.65 90.1787 1003.36 89.992C1003.08 89.8053 1002.7 89.712 1002.25 89.712C1001.95 89.712 1001.66 89.7627 1001.4 89.864C1001.13 89.96 1000.9 90.1173 1000.69 90.336C1000.5 90.5547 1000.34 90.8427 1000.22 91.2C1000.11 91.5573 1000.05 91.992 1000.05 92.504L999.014 92.112C999.014 91.328 999.161 90.6373 999.454 90.04C999.748 89.4373 1000.17 88.968 1000.72 88.632C1001.27 88.296 1001.93 88.128 1002.71 88.128C1003.31 88.128 1003.81 88.224 1004.21 88.416C1004.62 88.608 1004.95 88.8613 1005.2 89.176C1005.45 89.4853 1005.65 89.824 1005.78 90.192C1005.92 90.56 1006.01 90.92 1006.05 91.272C1006.1 91.624 1006.13 91.9333 1006.13 92.2V97H1004.43ZM998.358 97V88.36H999.854V90.856H1000.05V97H998.358Z" fill="black"/>
<path d="M277 142C258 229.283 764.5 181.269 764.5 146.86C764.5 192.269 95.5 226.769 114.5 142M277 142L272 146.86M277 142L282 146.86M114.5 142L109.5 146.86M114.5 142L119.5 146.86" stroke="white" stroke-opacity="0.24"/>
<path d="M330.238 46.15C329.518 46.15 328.905 45.9933 328.398 45.68C327.891 45.3633 327.503 44.9233 327.233 44.36C326.966 43.7967 326.833 43.1433 326.833 42.4C326.833 41.6567 326.966 41.0033 327.233 40.44C327.503 39.8767 327.891 39.4383 328.398 39.125C328.905 38.8083 329.518 38.65 330.238 38.65C331.068 38.65 331.755 38.86 332.298 39.28C332.845 39.7 333.225 40.265 333.438 40.975L332.378 41.26C332.238 40.7567 331.988 40.3617 331.628 40.075C331.271 39.7883 330.808 39.645 330.238 39.645C329.728 39.645 329.303 39.76 328.963 39.99C328.623 40.22 328.366 40.5417 328.193 40.955C328.023 41.3683 327.938 41.85 327.938 42.4C327.935 42.95 328.018 43.4317 328.188 43.845C328.361 44.2583 328.618 44.58 328.958 44.81C329.301 45.04 329.728 45.155 330.238 45.155C330.808 45.155 331.271 45.0117 331.628 44.725C331.988 44.435 332.238 44.04 332.378 43.54L333.438 43.825C333.225 44.535 332.845 45.1 332.298 45.52C331.755 45.94 331.068 46.15 330.238 46.15ZM334.338 46V40.6H335.268V41.91L335.138 41.74C335.204 41.5667 335.291 41.4083 335.398 41.265C335.504 41.1183 335.628 40.9983 335.768 40.905C335.904 40.805 336.056 40.7283 336.223 40.675C336.393 40.6183 336.566 40.585 336.743 40.575C336.919 40.5617 337.089 40.57 337.253 40.6V41.58C337.076 41.5333 336.879 41.52 336.663 41.54C336.449 41.56 336.253 41.6283 336.073 41.745C335.903 41.855 335.768 41.9883 335.668 42.145C335.571 42.3017 335.501 42.4767 335.458 42.67C335.414 42.86 335.393 43.0617 335.393 43.275V46H334.338ZM339.374 46.15C338.974 46.15 338.639 46.0767 338.369 45.93C338.099 45.78 337.894 45.5833 337.754 45.34C337.617 45.0933 337.549 44.8233 337.549 44.53C337.549 44.2567 337.597 44.0167 337.694 43.81C337.79 43.6033 337.934 43.4283 338.124 43.285C338.314 43.1383 338.547 43.02 338.824 42.93C339.064 42.86 339.335 42.7983 339.639 42.745C339.942 42.6917 340.26 42.6417 340.594 42.595C340.93 42.5483 341.264 42.5017 341.594 42.455L341.214 42.665C341.22 42.2417 341.13 41.9283 340.944 41.725C340.76 41.5183 340.444 41.415 339.994 41.415C339.71 41.415 339.45 41.4817 339.214 41.615C338.977 41.745 338.812 41.9617 338.719 42.265L337.744 41.965C337.877 41.5017 338.13 41.1333 338.504 40.86C338.88 40.5867 339.38 40.45 340.004 40.45C340.487 40.45 340.907 40.5333 341.264 40.7C341.624 40.8633 341.887 41.1233 342.054 41.48C342.14 41.6567 342.194 41.8433 342.214 42.04C342.234 42.2367 342.244 42.4483 342.244 42.675V46H341.319V44.765L341.499 44.925C341.275 45.3383 340.99 45.6467 340.644 45.85C340.3 46.05 339.877 46.15 339.374 46.15ZM339.559 45.295C339.855 45.295 340.11 45.2433 340.324 45.14C340.537 45.0333 340.709 44.8983 340.839 44.735C340.969 44.5717 341.054 44.4017 341.094 44.225C341.15 44.065 341.182 43.885 341.189 43.685C341.199 43.485 341.204 43.325 341.204 43.205L341.544 43.33C341.214 43.38 340.914 43.425 340.644 43.465C340.374 43.505 340.129 43.545 339.909 43.585C339.692 43.6217 339.499 43.6667 339.329 43.72C339.185 43.77 339.057 43.83 338.944 43.9C338.834 43.97 338.745 44.055 338.679 44.155C338.615 44.255 338.584 44.3767 338.584 44.52C338.584 44.66 338.619 44.79 338.689 44.91C338.759 45.0267 338.865 45.12 339.009 45.19C339.152 45.26 339.335 45.295 339.559 45.295ZM343.837 46V40.41C343.837 40.2733 343.842 40.1283 343.852 39.975C343.862 39.8183 343.89 39.665 343.937 39.515C343.987 39.3617 344.069 39.2217 344.182 39.095C344.319 38.945 344.469 38.8383 344.632 38.775C344.795 38.7117 344.957 38.675 345.117 38.665C345.28 38.655 345.43 38.65 345.567 38.65H346.247V39.51H345.617C345.37 39.51 345.185 39.5717 345.062 39.695C344.942 39.815 344.882 39.9867 344.882 40.21V46H343.837ZM342.942 41.44V40.6H346.247V41.44H342.942ZM349.933 46C349.593 46.0667 349.26 46.095 348.933 46.085C348.606 46.075 348.315 46.0117 348.058 45.895C347.801 45.7783 347.608 45.595 347.478 45.345C347.361 45.1217 347.298 44.895 347.288 44.665C347.281 44.4317 347.278 44.1683 347.278 43.875V39.1H348.328V43.825C348.328 44.0417 348.33 44.23 348.333 44.39C348.34 44.55 348.375 44.685 348.438 44.795C348.558 45.0017 348.748 45.12 349.008 45.15C349.271 45.1767 349.58 45.165 349.933 45.115V46ZM346.243 41.44V40.6H349.933V41.44H346.243ZM350.972 39.715V38.7H352.017V39.715H350.972ZM350.972 46V40.6H352.017V46H350.972ZM357.108 46V43.345C357.108 43.135 357.09 42.92 357.053 42.7C357.02 42.4767 356.953 42.27 356.853 42.08C356.756 41.89 356.618 41.7367 356.438 41.62C356.261 41.5033 356.03 41.445 355.743 41.445C355.556 41.445 355.38 41.4767 355.213 41.54C355.046 41.6 354.9 41.6983 354.773 41.835C354.65 41.9717 354.551 42.1517 354.478 42.375C354.408 42.5983 354.373 42.87 354.373 43.19L353.723 42.945C353.723 42.455 353.815 42.0233 353.998 41.65C354.181 41.2733 354.445 40.98 354.788 40.77C355.131 40.56 355.546 40.455 356.033 40.455C356.406 40.455 356.72 40.515 356.973 40.635C357.226 40.755 357.431 40.9133 357.588 41.11C357.748 41.3033 357.87 41.515 357.953 41.745C358.036 41.975 358.093 42.2 358.123 42.42C358.153 42.64 358.168 42.8333 358.168 43V46H357.108ZM353.313 46V40.6H354.248V42.16H354.373V46H353.313ZM361.495 48.55C361.205 48.55 360.924 48.505 360.65 48.415C360.38 48.325 360.134 48.1917 359.91 48.015C359.687 47.8417 359.502 47.6267 359.355 47.37L360.32 46.88C360.437 47.11 360.604 47.2783 360.82 47.385C361.037 47.4917 361.265 47.545 361.505 47.545C361.802 47.545 362.055 47.4917 362.265 47.385C362.475 47.2817 362.634 47.125 362.74 46.915C362.85 46.705 362.904 46.445 362.9 46.135V44.625H363.025V40.6H363.95V46.145C363.95 46.2883 363.945 46.425 363.935 46.555C363.925 46.685 363.907 46.815 363.88 46.945C363.804 47.3083 363.657 47.6083 363.44 47.845C363.227 48.0817 362.954 48.2583 362.62 48.375C362.29 48.4917 361.915 48.55 361.495 48.55ZM361.415 46.15C360.912 46.15 360.477 46.025 360.11 45.775C359.747 45.525 359.465 45.185 359.265 44.755C359.069 44.3217 358.97 43.835 358.97 43.295C358.97 42.7517 359.07 42.2667 359.27 41.84C359.47 41.41 359.754 41.0717 360.12 40.825C360.49 40.575 360.929 40.45 361.435 40.45C361.945 40.45 362.374 40.575 362.72 40.825C363.07 41.0717 363.334 41.41 363.51 41.84C363.69 42.27 363.78 42.755 363.78 43.295C363.78 43.835 363.69 44.32 363.51 44.75C363.33 45.18 363.065 45.5217 362.715 45.775C362.365 46.025 361.932 46.15 361.415 46.15ZM361.56 45.205C361.904 45.205 362.184 45.1233 362.4 44.96C362.617 44.7967 362.775 44.5717 362.875 44.285C362.975 43.9983 363.025 43.6683 363.025 43.295C363.025 42.9217 362.974 42.5917 362.87 42.305C362.77 42.0183 362.614 41.795 362.4 41.635C362.19 41.475 361.922 41.395 361.595 41.395C361.249 41.395 360.964 41.48 360.74 41.65C360.517 41.82 360.35 42.0483 360.24 42.335C360.134 42.6217 360.08 42.9417 360.08 43.295C360.08 43.6517 360.134 43.975 360.24 44.265C360.35 44.5517 360.514 44.78 360.73 44.95C360.95 45.12 361.227 45.205 361.56 45.205ZM369.566 46.15C369.05 46.15 368.583 46.0617 368.166 45.885C367.753 45.705 367.411 45.45 367.141 45.12C366.875 44.7867 366.701 44.3917 366.621 43.935L367.711 43.77C367.821 44.21 368.051 44.5533 368.401 44.8C368.751 45.0433 369.16 45.165 369.626 45.165C369.916 45.165 370.183 45.12 370.426 45.03C370.67 44.9367 370.865 44.805 371.011 44.635C371.161 44.4617 371.236 44.255 371.236 44.015C371.236 43.885 371.213 43.77 371.166 43.67C371.123 43.57 371.061 43.4833 370.981 43.41C370.905 43.3333 370.81 43.2683 370.696 43.215C370.586 43.1583 370.465 43.11 370.331 43.07L368.486 42.525C368.306 42.4717 368.123 42.4033 367.936 42.32C367.75 42.2333 367.578 42.1217 367.421 41.985C367.268 41.845 367.143 41.6733 367.046 41.47C366.95 41.2633 366.901 41.0133 366.901 40.72C366.901 40.2767 367.015 39.9017 367.241 39.595C367.471 39.285 367.781 39.0517 368.171 38.895C368.561 38.735 368.998 38.655 369.481 38.655C369.968 38.6617 370.403 38.7483 370.786 38.915C371.173 39.0817 371.493 39.3217 371.746 39.635C372.003 39.945 372.18 40.3217 372.276 40.765L371.156 40.955C371.106 40.685 371 40.4533 370.836 40.26C370.673 40.0633 370.473 39.9133 370.236 39.81C370 39.7033 369.743 39.6483 369.466 39.645C369.2 39.6383 368.955 39.6783 368.731 39.765C368.511 39.8517 368.335 39.9733 368.201 40.13C368.071 40.2867 368.006 40.4667 368.006 40.67C368.006 40.87 368.065 41.0317 368.181 41.155C368.298 41.2783 368.441 41.3767 368.611 41.45C368.785 41.52 368.956 41.5783 369.126 41.625L370.456 42C370.623 42.0467 370.811 42.11 371.021 42.19C371.235 42.2667 371.44 42.375 371.636 42.515C371.836 42.655 372.001 42.8417 372.131 43.075C372.261 43.305 372.326 43.595 372.326 43.945C372.326 44.3083 372.253 44.6283 372.106 44.905C371.96 45.1783 371.758 45.4083 371.501 45.595C371.248 45.7783 370.955 45.9167 370.621 46.01C370.288 46.1033 369.936 46.15 369.566 46.15ZM375.537 46.15C374.997 46.15 374.529 46.0283 374.132 45.785C373.735 45.5417 373.429 45.2067 373.212 44.78C372.999 44.35 372.892 43.855 372.892 43.295C372.892 42.7317 373.002 42.2367 373.222 41.81C373.442 41.38 373.75 41.0467 374.147 40.81C374.544 40.57 375.007 40.45 375.537 40.45C376.077 40.45 376.545 40.5717 376.942 40.815C377.339 41.0583 377.645 41.3933 377.862 41.82C378.079 42.2467 378.187 42.7383 378.187 43.295C378.187 43.8583 378.077 44.355 377.857 44.785C377.64 45.2117 377.334 45.5467 376.937 45.79C376.54 46.03 376.074 46.15 375.537 46.15ZM375.537 45.165C376.054 45.165 376.439 44.9917 376.692 44.645C376.949 44.295 377.077 43.845 377.077 43.295C377.077 42.7317 376.947 42.2817 376.687 41.945C376.43 41.605 376.047 41.435 375.537 41.435C375.187 41.435 374.899 41.515 374.672 41.675C374.445 41.8317 374.277 42.05 374.167 42.33C374.057 42.6067 374.002 42.9283 374.002 43.295C374.002 43.8617 374.132 44.315 374.392 44.655C374.652 44.995 375.034 45.165 375.537 45.165ZM379.186 46V38.65H380.231V46H379.186ZM383.567 46.145C383.194 46.145 382.881 46.085 382.627 45.965C382.374 45.845 382.167 45.6883 382.007 45.495C381.851 45.2983 381.731 45.085 381.647 44.855C381.564 44.625 381.507 44.4 381.477 44.18C381.447 43.96 381.432 43.7667 381.432 43.6V40.6H382.492V43.255C382.492 43.465 382.509 43.6817 382.542 43.905C382.579 44.125 382.646 44.33 382.742 44.52C382.842 44.71 382.981 44.8633 383.157 44.98C383.337 45.0967 383.571 45.155 383.857 45.155C384.044 45.155 384.221 45.125 384.387 45.065C384.554 45.0017 384.699 44.9017 384.822 44.765C384.949 44.6283 385.047 44.4483 385.117 44.225C385.191 44.0017 385.227 43.73 385.227 43.41L385.877 43.655C385.877 44.145 385.786 44.5783 385.602 44.955C385.419 45.3283 385.156 45.62 384.812 45.83C384.469 46.04 384.054 46.145 383.567 46.145ZM385.352 46V44.44H385.227V40.6H386.282V46H385.352ZM390.575 46C390.235 46.0667 389.901 46.095 389.575 46.085C389.248 46.075 388.956 46.0117 388.7 45.895C388.443 45.7783 388.25 45.595 388.12 45.345C388.003 45.1217 387.94 44.895 387.93 44.665C387.923 44.4317 387.92 44.1683 387.92 43.875V39.1H388.97V43.825C388.97 44.0417 388.971 44.23 388.975 44.39C388.981 44.55 389.016 44.685 389.08 44.795C389.2 45.0017 389.39 45.12 389.65 45.15C389.913 45.1767 390.221 45.165 390.575 45.115V46ZM386.885 41.44V40.6H390.575V41.44H386.885ZM391.613 39.715V38.7H392.658V39.715H391.613ZM391.613 46V40.6H392.658V46H391.613ZM396.305 46.15C395.765 46.15 395.296 46.0283 394.9 45.785C394.503 45.5417 394.196 45.2067 393.98 44.78C393.766 44.35 393.66 43.855 393.66 43.295C393.66 42.7317 393.77 42.2367 393.99 41.81C394.21 41.38 394.518 41.0467 394.915 40.81C395.311 40.57 395.775 40.45 396.305 40.45C396.845 40.45 397.313 40.5717 397.71 40.815C398.106 41.0583 398.413 41.3933 398.63 41.82C398.846 42.2467 398.955 42.7383 398.955 43.295C398.955 43.8583 398.845 44.355 398.625 44.785C398.408 45.2117 398.101 45.5467 397.705 45.79C397.308 46.03 396.841 46.15 396.305 46.15ZM396.305 45.165C396.821 45.165 397.206 44.9917 397.46 44.645C397.716 44.295 397.845 43.845 397.845 43.295C397.845 42.7317 397.715 42.2817 397.455 41.945C397.198 41.605 396.815 41.435 396.305 41.435C395.955 41.435 395.666 41.515 395.44 41.675C395.213 41.8317 395.045 42.05 394.935 42.33C394.825 42.6067 394.77 42.9283 394.77 43.295C394.77 43.8617 394.9 44.315 395.16 44.655C395.42 44.995 395.801 45.165 396.305 45.165ZM403.643 46V43.345C403.643 43.135 403.625 42.92 403.588 42.7C403.555 42.4767 403.488 42.27 403.388 42.08C403.292 41.89 403.153 41.7367 402.973 41.62C402.797 41.5033 402.565 41.445 402.278 41.445C402.092 41.445 401.915 41.4767 401.748 41.54C401.582 41.6 401.435 41.6983 401.308 41.835C401.185 41.9717 401.087 42.1517 401.013 42.375C400.943 42.5983 400.908 42.87 400.908 43.19L400.258 42.945C400.258 42.455 400.35 42.0233 400.533 41.65C400.717 41.2733 400.98 40.98 401.323 40.77C401.667 40.56 402.082 40.455 402.568 40.455C402.942 40.455 403.255 40.515 403.508 40.635C403.762 40.755 403.967 40.9133 404.123 41.11C404.283 41.3033 404.405 41.515 404.488 41.745C404.572 41.975 404.628 42.2 404.658 42.42C404.688 42.64 404.703 42.8333 404.703 43V46H403.643ZM399.848 46V40.6H400.783V42.16H400.908V46H399.848ZM407.871 46.145C407.214 46.145 406.679 46 406.266 45.71C405.852 45.42 405.599 45.0117 405.506 44.485L406.576 44.32C406.642 44.6 406.796 44.8217 407.036 44.985C407.279 45.145 407.581 45.225 407.941 45.225C408.267 45.225 408.522 45.1583 408.706 45.025C408.892 44.8917 408.986 44.7083 408.986 44.475C408.986 44.3383 408.952 44.2283 408.886 44.145C408.822 44.0583 408.687 43.9767 408.481 43.9C408.274 43.8233 407.959 43.7283 407.536 43.615C407.072 43.495 406.704 43.3667 406.431 43.23C406.161 43.09 405.967 42.9283 405.851 42.745C405.737 42.5583 405.681 42.3333 405.681 42.07C405.681 41.7433 405.767 41.4583 405.941 41.215C406.114 40.9717 406.357 40.7833 406.671 40.65C406.987 40.5167 407.357 40.45 407.781 40.45C408.194 40.45 408.562 40.515 408.886 40.645C409.209 40.775 409.471 40.96 409.671 41.2C409.871 41.4367 409.991 41.715 410.031 42.035L408.961 42.23C408.924 41.97 408.802 41.765 408.596 41.615C408.389 41.465 408.121 41.3833 407.791 41.37C407.474 41.3567 407.217 41.41 407.021 41.53C406.824 41.6467 406.726 41.8083 406.726 42.015C406.726 42.135 406.762 42.2367 406.836 42.32C406.912 42.4033 407.059 42.4833 407.276 42.56C407.492 42.6367 407.812 42.7283 408.236 42.835C408.689 42.9517 409.049 43.0817 409.316 43.225C409.582 43.365 409.772 43.5333 409.886 43.73C410.002 43.9233 410.061 44.1583 410.061 44.435C410.061 44.9683 409.866 45.3867 409.476 45.69C409.089 45.9933 408.554 46.145 407.871 46.145Z" fill="white" fill-opacity="0.64"/>
<path d="M637.81 46V39.785H635.415V38.8H641.25V39.785H638.855V46H637.81ZM643.445 46.15C642.908 46.15 642.436 46.0333 642.03 45.8C641.626 45.5633 641.311 45.235 641.085 44.815C640.861 44.3917 640.75 43.9017 640.75 43.345C640.75 42.755 640.86 42.2433 641.08 41.81C641.303 41.3767 641.613 41.0417 642.01 40.805C642.406 40.5683 642.868 40.45 643.395 40.45C643.945 40.45 644.413 40.5783 644.8 40.835C645.186 41.0883 645.475 41.45 645.665 41.92C645.858 42.39 645.935 42.9483 645.895 43.595H644.85V43.215C644.843 42.5883 644.723 42.125 644.49 41.825C644.26 41.525 643.908 41.375 643.435 41.375C642.911 41.375 642.518 41.54 642.255 41.87C641.991 42.2 641.86 42.6767 641.86 43.3C641.86 43.8933 641.991 44.3533 642.255 44.68C642.518 45.0033 642.898 45.165 643.395 45.165C643.721 45.165 644.003 45.0917 644.24 44.945C644.48 44.795 644.666 44.5817 644.8 44.305L645.825 44.63C645.615 45.1133 645.296 45.4883 644.87 45.755C644.443 46.0183 643.968 46.15 643.445 46.15ZM641.52 43.595V42.78H645.375V43.595H641.52ZM648.882 46.145C648.225 46.145 647.69 46 647.277 45.71C646.863 45.42 646.61 45.0117 646.517 44.485L647.587 44.32C647.653 44.6 647.807 44.8217 648.047 44.985C648.29 45.145 648.592 45.225 648.952 45.225C649.278 45.225 649.533 45.1583 649.717 45.025C649.903 44.8917 649.997 44.7083 649.997 44.475C649.997 44.3383 649.963 44.2283 649.897 44.145C649.833 44.0583 649.698 43.9767 649.492 43.9C649.285 43.8233 648.97 43.7283 648.547 43.615C648.083 43.495 647.715 43.3667 647.442 43.23C647.172 43.09 646.978 42.9283 646.862 42.745C646.748 42.5583 646.692 42.3333 646.692 42.07C646.692 41.7433 646.778 41.4583 646.952 41.215C647.125 40.9717 647.368 40.7833 647.682 40.65C647.998 40.5167 648.368 40.45 648.792 40.45C649.205 40.45 649.573 40.515 649.897 40.645C650.22 40.775 650.482 40.96 650.682 41.2C650.882 41.4367 651.002 41.715 651.042 42.035L649.972 42.23C649.935 41.97 649.813 41.765 649.607 41.615C649.4 41.465 649.132 41.3833 648.802 41.37C648.485 41.3567 648.228 41.41 648.032 41.53C647.835 41.6467 647.737 41.8083 647.737 42.015C647.737 42.135 647.773 42.2367 647.847 42.32C647.923 42.4033 648.07 42.4833 648.287 42.56C648.503 42.6367 648.823 42.7283 649.247 42.835C649.7 42.9517 650.06 43.0817 650.327 43.225C650.593 43.365 650.783 43.5333 650.897 43.73C651.013 43.9233 651.072 44.1583 651.072 44.435C651.072 44.9683 650.877 45.3867 650.487 45.69C650.1 45.9933 649.565 46.145 648.882 46.145ZM655.068 46C654.728 46.0667 654.395 46.095 654.068 46.085C653.741 46.075 653.45 46.0117 653.193 45.895C652.936 45.7783 652.743 45.595 652.613 45.345C652.496 45.1217 652.433 44.895 652.423 44.665C652.416 44.4317 652.413 44.1683 652.413 43.875V39.1H653.463V43.825C653.463 44.0417 653.465 44.23 653.468 44.39C653.475 44.55 653.51 44.685 653.573 44.795C653.693 45.0017 653.883 45.12 654.143 45.15C654.406 45.1767 654.715 45.165 655.068 45.115V46ZM651.378 41.44V40.6H655.068V41.44H651.378ZM656.106 39.715V38.7H657.151V39.715H656.106ZM656.106 46V40.6H657.151V46H656.106ZM662.243 46V43.345C662.243 43.135 662.225 42.92 662.188 42.7C662.155 42.4767 662.088 42.27 661.988 42.08C661.891 41.89 661.753 41.7367 661.573 41.62C661.396 41.5033 661.165 41.445 660.878 41.445C660.691 41.445 660.515 41.4767 660.348 41.54C660.181 41.6 660.035 41.6983 659.908 41.835C659.785 41.9717 659.686 42.1517 659.613 42.375C659.543 42.5983 659.508 42.87 659.508 43.19L658.858 42.945C658.858 42.455 658.95 42.0233 659.133 41.65C659.316 41.2733 659.58 40.98 659.923 40.77C660.266 40.56 660.681 40.455 661.168 40.455C661.541 40.455 661.855 40.515 662.108 40.635C662.361 40.755 662.566 40.9133 662.723 41.11C662.883 41.3033 663.005 41.515 663.088 41.745C663.171 41.975 663.228 42.2 663.258 42.42C663.288 42.64 663.303 42.8333 663.303 43V46H662.243ZM658.448 46V40.6H659.383V42.16H659.508V46H658.448ZM666.63 48.55C666.34 48.55 666.059 48.505 665.785 48.415C665.515 48.325 665.269 48.1917 665.045 48.015C664.822 47.8417 664.637 47.6267 664.49 47.37L665.455 46.88C665.572 47.11 665.739 47.2783 665.955 47.385C666.172 47.4917 666.4 47.545 666.64 47.545C666.937 47.545 667.19 47.4917 667.4 47.385C667.61 47.2817 667.769 47.125 667.875 46.915C667.985 46.705 668.039 46.445 668.035 46.135V44.625H668.16V40.6H669.085V46.145C669.085 46.2883 669.08 46.425 669.07 46.555C669.06 46.685 669.042 46.815 669.015 46.945C668.939 47.3083 668.792 47.6083 668.575 47.845C668.362 48.0817 668.089 48.2583 667.755 48.375C667.425 48.4917 667.05 48.55 666.63 48.55ZM666.55 46.15C666.047 46.15 665.612 46.025 665.245 45.775C664.882 45.525 664.6 45.185 664.4 44.755C664.204 44.3217 664.105 43.835 664.105 43.295C664.105 42.7517 664.205 42.2667 664.405 41.84C664.605 41.41 664.889 41.0717 665.255 40.825C665.625 40.575 666.064 40.45 666.57 40.45C667.08 40.45 667.509 40.575 667.855 40.825C668.205 41.0717 668.469 41.41 668.645 41.84C668.825 42.27 668.915 42.755 668.915 43.295C668.915 43.835 668.825 44.32 668.645 44.75C668.465 45.18 668.2 45.5217 667.85 45.775C667.5 46.025 667.067 46.15 666.55 46.15ZM666.695 45.205C667.039 45.205 667.319 45.1233 667.535 44.96C667.752 44.7967 667.91 44.5717 668.01 44.285C668.11 43.9983 668.16 43.6683 668.16 43.295C668.16 42.9217 668.109 42.5917 668.005 42.305C667.905 42.0183 667.749 41.795 667.535 41.635C667.325 41.475 667.057 41.395 666.73 41.395C666.384 41.395 666.099 41.48 665.875 41.65C665.652 41.82 665.485 42.0483 665.375 42.335C665.269 42.6217 665.215 42.9417 665.215 43.295C665.215 43.6517 665.269 43.975 665.375 44.265C665.485 44.5517 665.649 44.78 665.865 44.95C666.085 45.12 666.362 45.205 666.695 45.205ZM673.616 46.15C673.216 46.15 672.881 46.0767 672.611 45.93C672.341 45.78 672.136 45.5833 671.996 45.34C671.86 45.0933 671.791 44.8233 671.791 44.53C671.791 44.2567 671.84 44.0167 671.936 43.81C672.033 43.6033 672.176 43.4283 672.366 43.285C672.556 43.1383 672.79 43.02 673.066 42.93C673.306 42.86 673.578 42.7983 673.881 42.745C674.185 42.6917 674.503 42.6417 674.836 42.595C675.173 42.5483 675.506 42.5017 675.836 42.455L675.456 42.665C675.463 42.2417 675.373 41.9283 675.186 41.725C675.003 41.5183 674.686 41.415 674.236 41.415C673.953 41.415 673.693 41.4817 673.456 41.615C673.22 41.745 673.055 41.9617 672.961 42.265L671.986 41.965C672.12 41.5017 672.373 41.1333 672.746 40.86C673.123 40.5867 673.623 40.45 674.246 40.45C674.73 40.45 675.15 40.5333 675.506 40.7C675.866 40.8633 676.13 41.1233 676.296 41.48C676.383 41.6567 676.436 41.8433 676.456 42.04C676.476 42.2367 676.486 42.4483 676.486 42.675V46H675.561V44.765L675.741 44.925C675.518 45.3383 675.233 45.6467 674.886 45.85C674.543 46.05 674.12 46.15 673.616 46.15ZM673.801 45.295C674.098 45.295 674.353 45.2433 674.566 45.14C674.78 45.0333 674.951 44.8983 675.081 44.735C675.211 44.5717 675.296 44.4017 675.336 44.225C675.393 44.065 675.425 43.885 675.431 43.685C675.441 43.485 675.446 43.325 675.446 43.205L675.786 43.33C675.456 43.38 675.156 43.425 674.886 43.465C674.616 43.505 674.371 43.545 674.151 43.585C673.935 43.6217 673.741 43.6667 673.571 43.72C673.428 43.77 673.3 43.83 673.186 43.9C673.076 43.97 672.988 44.055 672.921 44.155C672.858 44.255 672.826 44.3767 672.826 44.52C672.826 44.66 672.861 44.79 672.931 44.91C673.001 45.0267 673.108 45.12 673.251 45.19C673.395 45.26 673.578 45.295 673.801 45.295ZM681.375 46V43.345C681.375 43.135 681.356 42.92 681.32 42.7C681.286 42.4767 681.22 42.27 681.12 42.08C681.023 41.89 680.885 41.7367 680.705 41.62C680.528 41.5033 680.296 41.445 680.01 41.445C679.823 41.445 679.646 41.4767 679.48 41.54C679.313 41.6 679.166 41.6983 679.04 41.835C678.916 41.9717 678.818 42.1517 678.745 42.375C678.675 42.5983 678.64 42.87 678.64 43.19L677.99 42.945C677.99 42.455 678.081 42.0233 678.265 41.65C678.448 41.2733 678.711 40.98 679.055 40.77C679.398 40.56 679.813 40.455 680.3 40.455C680.673 40.455 680.986 40.515 681.24 40.635C681.493 40.755 681.698 40.9133 681.855 41.11C682.015 41.3033 682.136 41.515 682.22 41.745C682.303 41.975 682.36 42.2 682.39 42.42C682.42 42.64 682.435 42.8333 682.435 43V46H681.375ZM677.58 46V40.6H678.515V42.16H678.64V46H677.58ZM685.614 46.15C685.11 46.15 684.675 46.025 684.309 45.775C683.945 45.525 683.664 45.185 683.464 44.755C683.267 44.3217 683.169 43.835 683.169 43.295C683.169 42.7517 683.269 42.2667 683.469 41.84C683.669 41.41 683.952 41.0717 684.319 40.825C684.689 40.575 685.127 40.45 685.634 40.45C686.144 40.45 686.572 40.575 686.919 40.825C687.269 41.0717 687.532 41.41 687.709 41.84C687.889 42.27 687.979 42.755 687.979 43.295C687.979 43.835 687.889 44.32 687.709 44.75C687.529 45.18 687.264 45.5217 686.914 45.775C686.564 46.025 686.13 46.15 685.614 46.15ZM685.759 45.205C686.102 45.205 686.382 45.1233 686.599 44.96C686.815 44.7967 686.974 44.5717 687.074 44.285C687.174 43.9983 687.224 43.6683 687.224 43.295C687.224 42.9217 687.172 42.5917 687.069 42.305C686.969 42.0183 686.812 41.795 686.599 41.635C686.389 41.475 686.12 41.395 685.794 41.395C685.447 41.395 685.162 41.48 684.939 41.65C684.715 41.82 684.549 42.0483 684.439 42.335C684.332 42.6217 684.279 42.9417 684.279 43.295C684.279 43.6517 684.332 43.975 684.439 44.265C684.549 44.5517 684.712 44.78 684.929 44.95C685.149 45.12 685.425 45.205 685.759 45.205ZM687.224 46V42.115H687.104V38.8H688.154V46H687.224ZM691.154 46V38.8H694.064C694.134 38.8 694.221 38.8033 694.324 38.81C694.428 38.8133 694.526 38.8233 694.619 38.84C695.019 38.9033 695.353 39.04 695.619 39.25C695.889 39.46 696.091 39.725 696.224 40.045C696.358 40.365 696.424 40.7183 696.424 41.105C696.424 41.6783 696.278 42.1733 695.984 42.59C695.691 43.0033 695.251 43.2617 694.664 43.365L694.239 43.415H692.199V46H691.154ZM695.364 46L693.944 43.07L694.999 42.8L696.559 46H695.364ZM692.199 42.425H694.024C694.091 42.425 694.164 42.4217 694.244 42.415C694.328 42.4083 694.406 42.3967 694.479 42.38C694.693 42.33 694.864 42.2383 694.994 42.105C695.124 41.9683 695.218 41.8117 695.274 41.635C695.331 41.4583 695.359 41.2817 695.359 41.105C695.359 40.9283 695.331 40.7533 695.274 40.58C695.218 40.4033 695.124 40.2483 694.994 40.115C694.864 39.9783 694.693 39.885 694.479 39.835C694.406 39.815 694.328 39.8017 694.244 39.795C694.164 39.7883 694.091 39.785 694.024 39.785H692.199V42.425ZM699.853 46.15C699.317 46.15 698.845 46.0333 698.438 45.8C698.035 45.5633 697.72 45.235 697.493 44.815C697.27 44.3917 697.158 43.9017 697.158 43.345C697.158 42.755 697.268 42.2433 697.488 41.81C697.712 41.3767 698.022 41.0417 698.418 40.805C698.815 40.5683 699.277 40.45 699.803 40.45C700.353 40.45 700.822 40.5783 701.208 40.835C701.595 41.0883 701.883 41.45 702.073 41.92C702.267 42.39 702.343 42.9483 702.303 43.595H701.258V43.215C701.252 42.5883 701.132 42.125 700.898 41.825C700.668 41.525 700.317 41.375 699.843 41.375C699.32 41.375 698.927 41.54 698.663 41.87C698.4 42.2 698.268 42.6767 698.268 43.3C698.268 43.8933 698.4 44.3533 698.663 44.68C698.927 45.0033 699.307 45.165 699.803 45.165C700.13 45.165 700.412 45.0917 700.648 44.945C700.888 44.795 701.075 44.5817 701.208 44.305L702.233 44.63C702.023 45.1133 701.705 45.4883 701.278 45.755C700.852 46.0183 700.377 46.15 699.853 46.15ZM697.928 43.595V42.78H701.783V43.595H697.928ZM703.72 46V40.41C703.72 40.2733 703.725 40.1283 703.735 39.975C703.745 39.8183 703.774 39.665 703.82 39.515C703.87 39.3617 703.952 39.2217 704.065 39.095C704.202 38.945 704.352 38.8383 704.515 38.775C704.679 38.7117 704.84 38.675 705 38.665C705.164 38.655 705.314 38.65 705.45 38.65H706.13V39.51H705.5C705.254 39.51 705.069 39.5717 704.945 39.695C704.825 39.815 704.765 39.9867 704.765 40.21V46H703.72ZM702.825 41.44V40.6H706.13V41.44H702.825ZM707.18 39.715V38.7H708.225V39.715H707.18ZM707.18 46V40.6H708.225V46H707.18ZM713.319 46V43.345C713.319 43.135 713.301 42.92 713.264 42.7C713.231 42.4767 713.164 42.27 713.064 42.08C712.967 41.89 712.829 41.7367 712.649 41.62C712.472 41.5033 712.241 41.445 711.954 41.445C711.767 41.445 711.591 41.4767 711.424 41.54C711.257 41.6 711.111 41.6983 710.984 41.835C710.861 41.9717 710.762 42.1517 710.689 42.375C710.619 42.5983 710.584 42.87 710.584 43.19L709.934 42.945C709.934 42.455 710.026 42.0233 710.209 41.65C710.392 41.2733 710.656 40.98 710.999 40.77C711.342 40.56 711.757 40.455 712.244 40.455C712.617 40.455 712.931 40.515 713.184 40.635C713.437 40.755 713.642 40.9133 713.799 41.11C713.959 41.3033 714.081 41.515 714.164 41.745C714.247 41.975 714.304 42.2 714.334 42.42C714.364 42.64 714.379 42.8333 714.379 43V46H713.319ZM709.524 46V40.6H710.459V42.16H710.584V46H709.524ZM717.808 46.15C717.271 46.15 716.8 46.0333 716.393 45.8C715.99 45.5633 715.675 45.235 715.448 44.815C715.225 44.3917 715.113 43.9017 715.113 43.345C715.113 42.755 715.223 42.2433 715.443 41.81C715.666 41.3767 715.976 41.0417 716.373 40.805C716.77 40.5683 717.231 40.45 717.758 40.45C718.308 40.45 718.776 40.5783 719.163 40.835C719.55 41.0883 719.838 41.45 720.028 41.92C720.221 42.39 720.298 42.9483 720.258 43.595H719.213V43.215C719.206 42.5883 719.086 42.125 718.853 41.825C718.623 41.525 718.271 41.375 717.798 41.375C717.275 41.375 716.881 41.54 716.618 41.87C716.355 42.2 716.223 42.6767 716.223 43.3C716.223 43.8933 716.355 44.3533 716.618 44.68C716.881 45.0033 717.261 45.165 717.758 45.165C718.085 45.165 718.366 45.0917 718.603 44.945C718.843 44.795 719.03 44.5817 719.163 44.305L720.188 44.63C719.978 45.1133 719.66 45.4883 719.233 45.755C718.806 46.0183 718.331 46.15 717.808 46.15ZM715.883 43.595V42.78H719.738V43.595H715.883ZM727.503 46L727.508 42.635C727.508 42.245 727.408 41.9417 727.208 41.725C727.008 41.505 726.745 41.395 726.418 41.395C726.218 41.395 726.035 41.4417 725.868 41.535C725.705 41.625 725.572 41.7617 725.468 41.945C725.368 42.125 725.318 42.3517 725.318 42.625L724.813 42.37C724.807 41.99 724.887 41.6567 725.053 41.37C725.223 41.0833 725.453 40.8617 725.743 40.705C726.033 40.545 726.358 40.465 726.718 40.465C727.302 40.465 727.753 40.64 728.073 40.99C728.393 41.34 728.553 41.805 728.553 42.385L728.548 46H727.503ZM721.028 46V40.6H721.958V42.16H722.078V46H721.028ZM724.268 46L724.273 42.655C724.273 42.2617 724.173 41.9533 723.973 41.73C723.777 41.5067 723.512 41.395 723.178 41.395C722.848 41.395 722.582 41.5083 722.378 41.735C722.178 41.9617 722.078 42.2583 722.078 42.625L721.578 42.305C721.578 41.9517 721.663 41.6367 721.833 41.36C722.003 41.0833 722.233 40.865 722.523 40.705C722.813 40.545 723.142 40.465 723.508 40.465C723.892 40.465 724.218 40.5467 724.488 40.71C724.758 40.87 724.963 41.095 725.103 41.385C725.247 41.675 725.318 42.0117 725.318 42.395L725.313 46H724.268ZM731.978 46.15C731.442 46.15 730.97 46.0333 730.563 45.8C730.16 45.5633 729.845 45.235 729.618 44.815C729.395 44.3917 729.283 43.9017 729.283 43.345C729.283 42.755 729.393 42.2433 729.613 41.81C729.837 41.3767 730.147 41.0417 730.543 40.805C730.94 40.5683 731.402 40.45 731.928 40.45C732.478 40.45 732.947 40.5783 733.333 40.835C733.72 41.0883 734.008 41.45 734.198 41.92C734.392 42.39 734.468 42.9483 734.428 43.595H733.383V43.215C733.377 42.5883 733.257 42.125 733.023 41.825C732.793 41.525 732.442 41.375 731.968 41.375C731.445 41.375 731.052 41.54 730.788 41.87C730.525 42.2 730.393 42.6767 730.393 43.3C730.393 43.8933 730.525 44.3533 730.788 44.68C731.052 45.0033 731.432 45.165 731.928 45.165C732.255 45.165 732.537 45.0917 732.773 44.945C733.013 44.795 733.2 44.5817 733.333 44.305L734.358 44.63C734.148 45.1133 733.83 45.4883 733.403 45.755C732.977 46.0183 732.502 46.15 731.978 46.15ZM730.053 43.595V42.78H733.908V43.595H730.053ZM738.994 46V43.345C738.994 43.135 738.975 42.92 738.939 42.7C738.905 42.4767 738.839 42.27 738.739 42.08C738.642 41.89 738.504 41.7367 738.324 41.62C738.147 41.5033 737.915 41.445 737.629 41.445C737.442 41.445 737.265 41.4767 737.099 41.54C736.932 41.6 736.785 41.6983 736.659 41.835C736.535 41.9717 736.437 42.1517 736.364 42.375C736.294 42.5983 736.259 42.87 736.259 43.19L735.609 42.945C735.609 42.455 735.7 42.0233 735.884 41.65C736.067 41.2733 736.33 40.98 736.674 40.77C737.017 40.56 737.432 40.455 737.919 40.455C738.292 40.455 738.605 40.515 738.859 40.635C739.112 40.755 739.317 40.9133 739.474 41.11C739.634 41.3033 739.755 41.515 739.839 41.745C739.922 41.975 739.979 42.2 740.009 42.42C740.039 42.64 740.054 42.8333 740.054 43V46H738.994ZM735.199 46V40.6H736.134V42.16H736.259V46H735.199ZM744.246 46C743.906 46.0667 743.573 46.095 743.246 46.085C742.919 46.075 742.628 46.0117 742.371 45.895C742.114 45.7783 741.921 45.595 741.791 45.345C741.674 45.1217 741.611 44.895 741.601 44.665C741.594 44.4317 741.591 44.1683 741.591 43.875V39.1H742.641V43.825C742.641 44.0417 742.643 44.23 742.646 44.39C742.653 44.55 742.688 44.685 742.751 44.795C742.871 45.0017 743.061 45.12 743.321 45.15C743.584 45.1767 743.893 45.165 744.246 45.115V46ZM740.556 41.44V40.6H744.246V41.44H740.556Z" fill="white" fill-opacity="0.64"/>
<defs>
<clipPath id="clip0_2019_1085">
<rect width="24" height="24" fill="white" transform="translate(188.7 79)"/>
</clipPath>
<clipPath id="clip1_2019_1085">
<rect width="24" height="24" fill="white" transform="translate(343.1 79)"/>
</clipPath>
<clipPath id="clip2_2019_1085">
<rect width="24" height="24" fill="white" transform="translate(524.5 79)"/>
</clipPath>
<clipPath id="clip3_2019_1085">
<rect width="24" height="24" fill="white" transform="translate(673.9 79)"/>
</clipPath>
<clipPath id="clip4_2019_1085">
<rect width="24" height="24" fill="white" transform="translate(831.3 79)"/>
</clipPath>
</defs>
</svg>
