<svg width="1290" height="360" viewBox="0 0 1290 360" fill="none" xmlns="http://www.w3.org/2000/svg">
<circle opacity="0.1" cx="134.86" cy="138.99" r="72.9885" stroke="white" stroke-width="3.743"/>
<circle cx="134.86" cy="138.99" r="45.9854" fill="#43FB93"/>
<circle cx="189.402" cy="94.0745" r="12.8331" fill="#9CFC28"/>
<g clip-path="url(#clip0_2019_891)">
<path d="M254.081 130.517L252.671 131.927L258.251 137.517H246.081V139.517H258.251L252.671 145.107L254.081 146.517L262.081 138.517L254.081 130.517Z" fill="#43FB93"/>
</g>
<path opacity="0.1" d="M375.908 173.733C375.908 194.808 358.824 211.892 337.75 211.892C316.675 211.892 299.591 194.808 299.591 173.733C299.591 152.659 316.675 135.575 337.75 135.575C358.824 135.575 375.908 152.659 375.908 173.733Z" stroke="white" stroke-width="3.743"/>
<ellipse cx="337.749" cy="173.734" rx="24.5899" ry="24.5899" fill="#43FB93"/>
<path opacity="0.1" d="M377.725 142.318C356.65 142.318 339.566 125.234 339.566 104.159C339.566 83.0849 356.65 66.0007 377.725 66.0007C398.799 66.0007 415.883 83.0849 415.883 104.159C415.883 125.234 398.799 142.318 377.725 142.318Z" stroke="white" stroke-width="3.743"/>
<ellipse cx="377.725" cy="104.158" rx="24.5899" ry="24.5899" transform="rotate(90 377.725 104.158)" fill="#43FB93"/>
<path opacity="0.1" d="M417.81 135.661C438.885 135.661 455.969 152.746 455.969 173.82C455.969 194.894 438.885 211.979 417.81 211.979C396.736 211.979 379.652 194.894 379.652 173.82C379.652 152.746 396.736 135.661 417.81 135.661Z" stroke="white" stroke-width="3.743"/>
<ellipse cx="417.81" cy="173.82" rx="24.5899" ry="24.5899" transform="rotate(-90 417.81 173.82)" fill="#43FB93"/>
<circle cx="377.605" cy="173.953" r="6.86231" transform="rotate(39.2715 377.605 173.953)" fill="#9CFC28"/>
<ellipse cx="397.629" cy="138.688" rx="6.86231" ry="6.86231" transform="rotate(98.9932 397.629 138.688)" fill="#9CFC28"/>
<ellipse cx="356.468" cy="138.98" rx="6.86231" ry="6.86231" transform="rotate(98.9932 356.468 138.98)" fill="#9CFC28"/>
<g clip-path="url(#clip1_2019_891)">
<path d="M502.202 130.517L500.792 131.927L506.372 137.517H494.202V139.517H506.372L500.792 145.107L502.202 146.517L510.202 138.517L502.202 130.517Z" fill="#43FB93"/>
</g>
<path opacity="0.1" d="M593.928 88.9792C593.928 101.741 583.582 112.087 570.82 112.087C558.058 112.087 547.712 101.741 547.712 88.9792C547.712 76.2172 558.058 65.8715 570.82 65.8715C583.582 65.8715 593.928 76.2172 593.928 88.9792Z" stroke="white" stroke-width="3.743"/>
<ellipse cx="570.82" cy="88.9798" rx="15.3444" ry="15.3444" fill="#43FB93"/>
<path opacity="0.1" d="M620.778 65.9269C633.54 65.9269 643.886 76.2725 643.886 89.0346C643.886 101.797 633.54 112.142 620.778 112.142C608.016 112.142 597.67 101.797 597.67 89.0346C597.67 76.2725 608.016 65.9269 620.778 65.9269Z" stroke="white" stroke-width="3.743"/>
<ellipse cx="620.778" cy="89.0341" rx="15.3444" ry="15.3444" transform="rotate(-90 620.778 89.0341)" fill="#43FB93"/>
<circle cx="595.692" cy="89.1166" r="4.28215" transform="rotate(39.2715 595.692 89.1166)" fill="#9CFC28"/>
<path opacity="0.1" d="M593.928 138.961C593.928 151.723 583.582 162.068 570.82 162.068C558.058 162.068 547.712 151.723 547.712 138.961C547.712 126.199 558.058 115.853 570.82 115.853C583.582 115.853 593.928 126.199 593.928 138.961Z" stroke="white" stroke-width="3.743"/>
<ellipse cx="570.82" cy="138.961" rx="15.3444" ry="15.3444" fill="#43FB93"/>
<path opacity="0.1" d="M620.778 115.907C633.54 115.907 643.886 126.253 643.886 139.015C643.886 151.777 633.54 162.123 620.778 162.123C608.016 162.123 597.67 151.777 597.67 139.015C597.67 126.253 608.016 115.907 620.778 115.907Z" stroke="white" stroke-width="3.743"/>
<ellipse cx="620.778" cy="139.014" rx="15.3444" ry="15.3444" transform="rotate(-90 620.778 139.014)" fill="#43FB93"/>
<circle cx="595.691" cy="139.099" r="4.28215" transform="rotate(39.2715 595.691 139.099)" fill="#9CFC28"/>
<path opacity="0.1" d="M593.929 188.943C593.929 201.705 583.583 212.051 570.821 212.051C558.059 212.051 547.713 201.705 547.713 188.943C547.713 176.181 558.059 165.835 570.821 165.835C583.583 165.835 593.929 176.181 593.929 188.943Z" stroke="white" stroke-width="3.743"/>
<ellipse cx="570.821" cy="188.943" rx="15.3444" ry="15.3444" fill="#43FB93"/>
<path opacity="0.1" d="M620.779 165.889C633.541 165.889 643.887 176.235 643.887 188.997C643.887 201.759 633.541 212.105 620.779 212.105C608.017 212.105 597.671 201.759 597.671 188.997C597.671 176.235 608.017 165.889 620.779 165.889Z" stroke="white" stroke-width="3.743"/>
<ellipse cx="620.779" cy="188.997" rx="15.3444" ry="15.3444" transform="rotate(-90 620.779 188.997)" fill="#43FB93"/>
<circle cx="595.692" cy="189.08" r="4.28215" transform="rotate(39.2715 595.692 189.08)" fill="#9CFC28"/>
<path opacity="0.1" d="M693.887 88.9792C693.887 101.741 683.541 112.087 670.779 112.087C658.017 112.087 647.671 101.741 647.671 88.9792C647.671 76.2172 658.017 65.8715 670.779 65.8715C683.541 65.8715 693.887 76.2172 693.887 88.9792Z" stroke="white" stroke-width="3.743"/>
<ellipse cx="670.779" cy="88.9798" rx="15.3444" ry="15.3444" fill="#43FB93"/>
<path opacity="0.1" d="M720.738 65.9269C733.5 65.9269 743.846 76.2725 743.846 89.0346C743.846 101.797 733.5 112.142 720.738 112.142C707.976 112.142 697.63 101.797 697.63 89.0346C697.63 76.2725 707.976 65.9269 720.738 65.9269Z" stroke="white" stroke-width="3.743"/>
<ellipse cx="720.737" cy="89.0341" rx="15.3444" ry="15.3444" transform="rotate(-90 720.737 89.0341)" fill="#43FB93"/>
<circle cx="695.65" cy="89.1166" r="4.28215" transform="rotate(39.2715 695.65 89.1166)" fill="#9CFC28"/>
<circle cx="645.761" cy="89.1166" r="4.28215" transform="rotate(39.2715 645.761 89.1166)" fill="#9CFC28"/>
<path opacity="0.1" d="M693.887 138.96C693.887 151.723 683.541 162.068 670.779 162.068C658.017 162.068 647.671 151.723 647.671 138.96C647.671 126.198 658.017 115.853 670.779 115.853C683.541 115.853 693.887 126.198 693.887 138.96Z" stroke="white" stroke-width="3.743"/>
<ellipse cx="670.779" cy="138.961" rx="15.3444" ry="15.3444" fill="#43FB93"/>
<path opacity="0.1" d="M720.738 115.907C733.5 115.907 743.846 126.253 743.846 139.015C743.846 151.777 733.5 162.123 720.738 162.123C707.976 162.123 697.63 151.777 697.63 139.015C697.63 126.253 707.976 115.907 720.738 115.907Z" stroke="white" stroke-width="3.743"/>
<ellipse cx="720.737" cy="139.014" rx="15.3444" ry="15.3444" transform="rotate(-90 720.737 139.014)" fill="#43FB93"/>
<circle cx="695.65" cy="139.099" r="4.28215" transform="rotate(39.2715 695.65 139.099)" fill="#9CFC28"/>
<circle cx="645.761" cy="139.099" r="4.28215" transform="rotate(39.2715 645.761 139.099)" fill="#9CFC28"/>
<path opacity="0.1" d="M693.881 188.945C693.881 201.707 683.535 212.052 670.773 212.052C658.011 212.052 647.665 201.707 647.665 188.945C647.665 176.183 658.011 165.837 670.773 165.837C683.535 165.837 693.881 176.183 693.881 188.945Z" stroke="white" stroke-width="3.743"/>
<ellipse cx="670.773" cy="188.945" rx="15.3444" ry="15.3444" fill="#43FB93"/>
<path opacity="0.1" d="M720.731 165.893C733.493 165.893 743.839 176.238 743.839 189C743.839 201.762 733.493 212.108 720.731 212.108C707.969 212.108 697.623 201.762 697.623 189C697.623 176.238 707.969 165.893 720.731 165.893Z" stroke="white" stroke-width="3.743"/>
<ellipse cx="720.731" cy="189" rx="15.3444" ry="15.3444" transform="rotate(-90 720.731 189)" fill="#43FB93"/>
<circle cx="695.644" cy="189.083" r="4.28215" transform="rotate(39.2715 695.644 189.083)" fill="#9CFC28"/>
<circle cx="720.028" cy="163.92" r="4.28215" transform="rotate(39.2715 720.028 163.92)" fill="#9CFC28"/>
<circle cx="720.028" cy="113.937" r="4.28215" transform="rotate(39.2715 720.028 113.937)" fill="#9CFC28"/>
<circle cx="670.513" cy="163.92" r="4.28215" transform="rotate(39.2715 670.513 163.92)" fill="#9CFC28"/>
<circle cx="670.513" cy="113.937" r="4.28215" transform="rotate(39.2715 670.513 113.937)" fill="#9CFC28"/>
<circle cx="621.003" cy="163.92" r="4.28215" transform="rotate(39.2715 621.003 163.92)" fill="#9CFC28"/>
<circle cx="621.003" cy="113.937" r="4.28215" transform="rotate(39.2715 621.003 113.937)" fill="#9CFC28"/>
<circle cx="571.487" cy="163.92" r="4.28215" transform="rotate(39.2715 571.487 163.92)" fill="#9CFC28"/>
<circle cx="571.487" cy="113.937" r="4.28215" transform="rotate(39.2715 571.487 113.937)" fill="#9CFC28"/>
<circle cx="645.754" cy="189.083" r="4.28215" transform="rotate(39.2715 645.754 189.083)" fill="#9CFC28"/>
<g clip-path="url(#clip2_2019_891)">
<path d="M790.078 130.517L788.668 131.927L794.248 137.517H782.078V139.517H794.248L788.668 145.107L790.078 146.517L798.078 138.517L790.078 130.517Z" fill="#43FB93"/>
</g>
<rect x="887.102" y="66.6481" width="98.4533" height="121.44" rx="8.56046" fill="#0F0F10"/>
<rect x="887.102" y="66.6481" width="98.4533" height="121.44" rx="8.56046" stroke="#43FB93" stroke-width="3.743" stroke-linecap="round" stroke-dasharray="18.71 18.71"/>
<rect x="839.565" y="81.9946" width="102.196" height="125.183" rx="10.432" fill="#0F0F10"/>
<rect x="835.588" y="89.8908" width="98.4533" height="121.44" rx="8.56046" fill="#0F0F10"/>
<rect x="835.588" y="89.8908" width="98.4533" height="121.44" rx="8.56046" stroke="#43FB93" stroke-width="3.743" stroke-linecap="round" stroke-dasharray="18.71 18.71"/>
<path opacity="0.1" d="M884.16 162.768C884.16 170.145 878.181 176.124 870.804 176.124C863.428 176.124 857.449 170.145 857.449 162.768C857.449 155.392 863.428 149.413 870.804 149.413C878.181 149.413 884.16 155.392 884.16 162.768Z" stroke="white" stroke-width="1.31005" stroke-linecap="round"/>
<circle cx="870.805" cy="162.768" r="8.60648" fill="#43FB93"/>
<path opacity="0.1" d="M884.795 151.776C877.419 151.776 871.44 145.797 871.44 138.421C871.44 131.045 877.419 125.065 884.795 125.065C892.171 125.065 898.151 131.045 898.151 138.421C898.151 145.797 892.171 151.776 884.795 151.776Z" stroke="white" stroke-width="1.31005" stroke-linecap="round"/>
<circle cx="884.796" cy="138.42" r="8.60648" transform="rotate(90 884.796 138.42)" fill="#43FB93"/>
<path opacity="0.1" d="M898.826 149.446C906.202 149.446 912.182 155.426 912.182 162.802C912.182 170.178 906.202 176.157 898.826 176.157C891.45 176.157 885.47 170.178 885.47 162.802C885.47 155.426 891.45 149.446 898.826 149.446Z" stroke="white" stroke-width="1.31005" stroke-linecap="round"/>
<circle cx="898.825" cy="162.802" r="8.60648" transform="rotate(-90 898.825 162.802)" fill="#43FB93"/>
<circle cx="884.754" cy="162.847" r="2.40181" transform="rotate(39.2715 884.754 162.847)" fill="#9CFC28"/>
<ellipse cx="891.762" cy="150.505" rx="2.40181" ry="2.40181" transform="rotate(98.9932 891.762 150.505)" fill="#9CFC28"/>
<ellipse cx="877.356" cy="150.607" rx="2.40181" ry="2.40181" transform="rotate(98.9932 877.356 150.607)" fill="#9CFC28"/>
<g clip-path="url(#clip3_2019_891)">
<path d="M1031.79 130.517L1030.38 131.927L1035.96 137.517H1023.79V139.517H1035.96L1030.38 145.107L1031.79 146.517L1039.79 138.517L1031.79 130.517Z" fill="#43FB93"/>
</g>
<path d="M1127.08 64.4191H1211.31C1221.23 64.4191 1229.28 72.463 1229.28 82.3855V189.603H1127.08V64.4191Z" fill="#205230"/>
<rect x="1081.42" y="82.3863" width="102.196" height="125.183" rx="20.9608" fill="#0F0F10"/>
<path d="M1075.43 88.3765H1159.66C1169.58 88.3765 1177.62 96.4204 1177.62 106.343V213.56H1075.43V88.3765Z" fill="#29604D"/>
<path opacity="0.1" d="M1109.76 133.586C1114.04 133.586 1117.51 130.118 1117.51 125.839C1117.51 121.561 1114.04 118.092 1109.76 118.092C1105.48 118.092 1102.01 121.561 1102.01 125.839C1102.01 130.118 1105.48 133.586 1109.76 133.586Z" stroke="white" stroke-width="1.25483"/>
<ellipse cx="5.14417" cy="5.14417" rx="5.14417" ry="5.14417" transform="matrix(-4.37114e-08 1 1 4.37114e-08 1104.62 120.695)" fill="#43FB93"/>
<path opacity="0.1" d="M1102.03 142.587C1102.03 146.866 1105.5 150.334 1109.78 150.334C1114.06 150.334 1117.52 146.866 1117.52 142.587C1117.52 138.309 1114.06 134.84 1109.78 134.84C1105.5 134.84 1102.03 138.309 1102.03 142.587Z" stroke="white" stroke-width="1.25483"/>
<ellipse cx="5.14417" cy="5.14417" rx="5.14417" ry="5.14417" transform="matrix(-1 -8.74228e-08 -8.74228e-08 1 1114.92 137.443)" fill="#43FB93"/>
<circle cx="1.43558" cy="1.43558" r="1.43558" transform="matrix(0.632996 0.774155 0.774155 -0.632996 1107.79 133.974)" fill="#9CFC28"/>
<path opacity="0.1" d="M1126.51 133.586C1130.79 133.586 1134.26 130.118 1134.26 125.839C1134.26 121.561 1130.79 118.092 1126.51 118.092C1122.24 118.092 1118.77 121.561 1118.77 125.839C1118.77 130.118 1122.24 133.586 1126.51 133.586Z" stroke="white" stroke-width="1.25483"/>
<ellipse cx="5.14417" cy="5.14417" rx="5.14417" ry="5.14417" transform="matrix(-4.37114e-08 1 1 4.37114e-08 1121.37 120.695)" fill="#43FB93"/>
<path opacity="0.1" d="M1118.79 142.587C1118.79 146.866 1122.25 150.334 1126.53 150.334C1130.81 150.334 1134.28 146.866 1134.28 142.587C1134.28 138.309 1130.81 134.84 1126.53 134.84C1122.25 134.84 1118.79 138.309 1118.79 142.587Z" stroke="white" stroke-width="1.25483"/>
<ellipse cx="5.14417" cy="5.14417" rx="5.14417" ry="5.14417" transform="matrix(-1 -8.74228e-08 -8.74228e-08 1 1131.68 137.443)" fill="#43FB93"/>
<circle cx="1.43558" cy="1.43558" r="1.43558" transform="matrix(0.632996 0.774155 0.774155 -0.632996 1124.54 133.974)" fill="#9CFC28"/>
<path opacity="0.1" d="M1143.27 133.585C1147.55 133.585 1151.02 130.117 1151.02 125.838C1151.02 121.56 1147.55 118.091 1143.27 118.091C1138.99 118.091 1135.52 121.56 1135.52 125.838C1135.52 130.117 1138.99 133.585 1143.27 133.585Z" stroke="white" stroke-width="1.25483"/>
<ellipse cx="5.14417" cy="5.14417" rx="5.14417" ry="5.14417" transform="matrix(-4.37114e-08 1 1 4.37114e-08 1138.13 120.694)" fill="#43FB93"/>
<path opacity="0.1" d="M1135.54 142.586C1135.54 146.865 1139.01 150.333 1143.29 150.333C1147.57 150.333 1151.04 146.865 1151.04 142.586C1151.04 138.308 1147.57 134.839 1143.29 134.839C1139.01 134.839 1135.54 138.308 1135.54 142.586Z" stroke="white" stroke-width="1.25483"/>
<ellipse cx="5.14417" cy="5.14417" rx="5.14417" ry="5.14417" transform="matrix(-1 -8.74228e-08 -8.74228e-08 1 1148.43 137.442)" fill="#43FB93"/>
<circle cx="1.43558" cy="1.43558" r="1.43558" transform="matrix(0.632996 0.774155 0.774155 -0.632996 1141.3 133.974)" fill="#9CFC28"/>
<path opacity="0.1" d="M1109.76 167.097C1114.04 167.097 1117.51 163.628 1117.51 159.35C1117.51 155.071 1114.04 151.603 1109.76 151.603C1105.48 151.603 1102.01 155.071 1102.01 159.35C1102.01 163.628 1105.48 167.097 1109.76 167.097Z" stroke="white" stroke-width="1.25483"/>
<ellipse cx="5.14417" cy="5.14417" rx="5.14417" ry="5.14417" transform="matrix(-4.37114e-08 1 1 4.37114e-08 1104.62 154.206)" fill="#43FB93"/>
<path opacity="0.1" d="M1102.03 176.098C1102.03 180.377 1105.5 183.845 1109.78 183.845C1114.06 183.845 1117.52 180.377 1117.52 176.098C1117.52 171.82 1114.06 168.352 1109.78 168.352C1105.5 168.352 1102.03 171.82 1102.03 176.098Z" stroke="white" stroke-width="1.25483"/>
<ellipse cx="5.14417" cy="5.14417" rx="5.14417" ry="5.14417" transform="matrix(-1 -8.74228e-08 -8.74228e-08 1 1114.92 170.954)" fill="#43FB93"/>
<circle cx="1.43558" cy="1.43558" r="1.43558" transform="matrix(0.632996 0.774155 0.774155 -0.632996 1107.79 167.485)" fill="#9CFC28"/>
<circle cx="1.43558" cy="1.43558" r="1.43558" transform="matrix(0.632996 0.774155 0.774155 -0.632996 1107.79 150.759)" fill="#9CFC28"/>
<path opacity="0.1" d="M1126.51 167.097C1130.79 167.097 1134.26 163.628 1134.26 159.35C1134.26 155.071 1130.79 151.603 1126.51 151.603C1122.24 151.603 1118.77 155.071 1118.77 159.35C1118.77 163.628 1122.24 167.097 1126.51 167.097Z" stroke="white" stroke-width="1.25483"/>
<ellipse cx="5.14417" cy="5.14417" rx="5.14417" ry="5.14417" transform="matrix(-4.37114e-08 1 1 4.37114e-08 1121.37 154.206)" fill="#43FB93"/>
<path opacity="0.1" d="M1118.79 176.098C1118.79 180.377 1122.25 183.845 1126.53 183.845C1130.81 183.845 1134.28 180.377 1134.28 176.098C1134.28 171.82 1130.81 168.352 1126.53 168.352C1122.25 168.352 1118.79 171.82 1118.79 176.098Z" stroke="white" stroke-width="1.25483"/>
<ellipse cx="5.14417" cy="5.14417" rx="5.14417" ry="5.14417" transform="matrix(-1 -8.74228e-08 -8.74228e-08 1 1131.68 170.954)" fill="#43FB93"/>
<circle cx="1.43558" cy="1.43558" r="1.43558" transform="matrix(0.632996 0.774155 0.774155 -0.632996 1124.54 167.485)" fill="#9CFC28"/>
<circle cx="1.43558" cy="1.43558" r="1.43558" transform="matrix(0.632996 0.774155 0.774155 -0.632996 1124.54 150.759)" fill="#9CFC28"/>
<path opacity="0.1" d="M1143.27 167.095C1147.55 167.095 1151.02 163.626 1151.02 159.348C1151.02 155.069 1147.55 151.601 1143.27 151.601C1138.99 151.601 1135.53 155.069 1135.53 159.348C1135.53 163.626 1138.99 167.095 1143.27 167.095Z" stroke="white" stroke-width="1.25483"/>
<ellipse cx="5.14417" cy="5.14417" rx="5.14417" ry="5.14417" transform="matrix(-4.37114e-08 1 1 4.37114e-08 1138.13 154.204)" fill="#43FB93"/>
<path opacity="0.1" d="M1135.54 176.096C1135.54 180.374 1139.01 183.843 1143.29 183.843C1147.57 183.843 1151.04 180.374 1151.04 176.096C1151.04 171.817 1147.57 168.349 1143.29 168.349C1139.01 168.349 1135.54 171.817 1135.54 176.096Z" stroke="white" stroke-width="1.25483"/>
<ellipse cx="5.14417" cy="5.14417" rx="5.14417" ry="5.14417" transform="matrix(-1 -8.74228e-08 -8.74228e-08 1 1148.43 170.952)" fill="#43FB93"/>
<circle cx="1.43558" cy="1.43558" r="1.43558" transform="matrix(0.632996 0.774155 0.774155 -0.632996 1141.3 167.483)" fill="#9CFC28"/>
<circle cx="1.43558" cy="1.43558" r="1.43558" transform="matrix(0.632996 0.774155 0.774155 -0.632996 1132.86 175.658)" fill="#9CFC28"/>
<circle cx="1.43558" cy="1.43558" r="1.43558" transform="matrix(0.632996 0.774155 0.774155 -0.632996 1116.11 175.658)" fill="#9CFC28"/>
<circle cx="1.43558" cy="1.43558" r="1.43558" transform="matrix(0.632996 0.774155 0.774155 -0.632996 1132.86 159.057)" fill="#9CFC28"/>
<circle cx="1.43558" cy="1.43558" r="1.43558" transform="matrix(0.632996 0.774155 0.774155 -0.632996 1116.11 159.057)" fill="#9CFC28"/>
<circle cx="1.43558" cy="1.43558" r="1.43558" transform="matrix(0.632996 0.774155 0.774155 -0.632996 1132.86 142.46)" fill="#9CFC28"/>
<circle cx="1.43558" cy="1.43558" r="1.43558" transform="matrix(0.632996 0.774155 0.774155 -0.632996 1116.11 142.46)" fill="#9CFC28"/>
<circle cx="1.43558" cy="1.43558" r="1.43558" transform="matrix(0.632996 0.774155 0.774155 -0.632996 1132.86 125.859)" fill="#9CFC28"/>
<circle cx="1.43558" cy="1.43558" r="1.43558" transform="matrix(0.632996 0.774155 0.774155 -0.632996 1116.11 125.859)" fill="#9CFC28"/>
<circle cx="1.43558" cy="1.43558" r="1.43558" transform="matrix(0.632996 0.774155 0.774155 -0.632996 1141.3 150.758)" fill="#9CFC28"/>
<path d="M548.299 294.979H546.139L551.521 282.919H554.257L559.639 294.979H557.443L553.645 286.429L552.943 284.719H552.799L552.097 286.429L548.299 294.979ZM556.849 291.847H548.803V290.101H556.849V291.847ZM566.407 294.979H564.355C563.395 294.979 562.633 294.745 562.069 294.277C561.517 293.809 561.241 293.035 561.241 291.955V284.071H563.167V291.847C563.167 292.399 563.299 292.771 563.563 292.963C563.827 293.143 564.235 293.233 564.787 293.233H566.407V294.979ZM566.407 287.653H559.729V286.033H566.407V287.653ZM572.195 295.159C571.211 295.159 570.341 294.967 569.585 294.583C568.841 294.187 568.259 293.641 567.839 292.945C567.431 292.237 567.227 291.427 567.227 290.515C567.227 289.579 567.431 288.763 567.839 288.067C568.259 287.371 568.841 286.831 569.585 286.447C570.341 286.051 571.211 285.853 572.195 285.853C573.203 285.853 574.079 286.051 574.823 286.447C575.567 286.831 576.143 287.371 576.551 288.067C576.971 288.763 577.181 289.579 577.181 290.515C577.181 291.427 576.971 292.237 576.551 292.945C576.143 293.641 575.567 294.187 574.823 294.583C574.079 294.967 573.203 295.159 572.195 295.159ZM572.195 293.431C573.287 293.431 574.073 293.185 574.553 292.693C575.033 292.189 575.273 291.463 575.273 290.515C575.273 289.567 575.033 288.841 574.553 288.337C574.073 287.821 573.287 287.563 572.195 287.563C571.115 287.563 570.335 287.821 569.855 288.337C569.375 288.841 569.135 289.567 569.135 290.515C569.135 291.463 569.375 292.189 569.855 292.693C570.335 293.185 571.115 293.431 572.195 293.431ZM594.413 294.979H592.487V290.119C592.487 289.231 592.301 288.589 591.929 288.193C591.557 287.797 590.933 287.599 590.057 287.599C589.109 287.599 588.437 287.845 588.041 288.337C587.657 288.817 587.465 289.555 587.465 290.551L587.123 290.569L587.015 288.805H587.411C587.495 288.289 587.669 287.809 587.933 287.365C588.197 286.921 588.575 286.561 589.067 286.285C589.559 285.997 590.177 285.853 590.921 285.853C591.701 285.853 592.349 286.015 592.865 286.339C593.381 286.663 593.765 287.107 594.017 287.671C594.281 288.235 594.413 288.877 594.413 289.597V294.979ZM580.535 294.979H578.591V286.033H580.373V288.841L580.535 288.931V294.979ZM587.465 294.979H585.539V290.119C585.539 289.231 585.353 288.589 584.981 288.193C584.609 287.797 583.991 287.599 583.127 287.599C582.167 287.599 581.495 287.845 581.111 288.337C580.727 288.817 580.535 289.555 580.535 290.551L580.193 290.569L580.103 288.733H580.481C580.565 288.229 580.733 287.761 580.985 287.329C581.237 286.897 581.603 286.543 582.083 286.267C582.563 285.991 583.175 285.853 583.919 285.853C584.699 285.853 585.341 286.021 585.845 286.357C586.349 286.681 586.727 287.125 586.979 287.689C587.231 288.253 587.357 288.889 587.357 289.597H587.465V294.979ZM598.096 294.979H596.152V286.033H598.096V294.979ZM598.096 284.989H596.152V282.919H598.096V284.989ZM604.414 295.159C603.43 295.159 602.572 294.967 601.84 294.583C601.108 294.187 600.538 293.641 600.13 292.945C599.734 292.237 599.536 291.427 599.536 290.515C599.536 289.579 599.734 288.763 600.13 288.067C600.538 287.371 601.108 286.831 601.84 286.447C602.572 286.051 603.43 285.853 604.414 285.853C605.314 285.853 606.112 286.009 606.808 286.321C607.504 286.633 608.05 287.071 608.446 287.635C608.854 288.187 609.058 288.841 609.058 289.597V289.777H607.132V289.669C607.132 288.973 606.892 288.457 606.412 288.121C605.932 287.773 605.254 287.599 604.378 287.599C603.37 287.599 602.632 287.845 602.164 288.337C601.696 288.817 601.462 289.543 601.462 290.515C601.462 291.475 601.696 292.201 602.164 292.693C602.632 293.173 603.37 293.413 604.378 293.413C605.254 293.413 605.932 293.245 606.412 292.909C606.892 292.561 607.132 292.039 607.132 291.343V291.217H609.058V291.415C609.058 292.159 608.854 292.813 608.446 293.377C608.05 293.941 607.504 294.379 606.808 294.691C606.112 295.003 605.314 295.159 604.414 295.159ZM619.17 294.979H614.31V293.233H619.17C620.106 293.233 620.868 293.095 621.456 292.819C622.056 292.531 622.5 292.075 622.788 291.451C623.076 290.815 623.22 289.981 623.22 288.949C623.22 287.905 623.076 287.071 622.788 286.447C622.5 285.823 622.056 285.373 621.456 285.097C620.868 284.809 620.106 284.665 619.17 284.665H614.31V282.919H619.17C620.43 282.919 621.51 283.165 622.41 283.657C623.322 284.137 624.024 284.827 624.516 285.727C625.02 286.627 625.272 287.701 625.272 288.949C625.272 290.197 625.02 291.271 624.516 292.171C624.024 293.071 623.322 293.767 622.41 294.259C621.51 294.739 620.43 294.979 619.17 294.979ZM615.606 294.979H613.68V282.919H615.606V294.979ZM631.22 295.159C630.248 295.159 629.396 294.979 628.664 294.619C627.932 294.259 627.362 293.731 626.954 293.035C626.558 292.339 626.36 291.499 626.36 290.515C626.36 289.579 626.558 288.763 626.954 288.067C627.362 287.371 627.926 286.831 628.646 286.447C629.366 286.051 630.212 285.853 631.184 285.853C632.108 285.853 632.918 286.021 633.614 286.357C634.322 286.681 634.868 287.161 635.252 287.797C635.648 288.421 635.846 289.189 635.846 290.101C635.846 290.257 635.84 290.407 635.828 290.551C635.816 290.683 635.798 290.815 635.774 290.947H627.602V289.867H634.496L633.992 290.533C634.004 290.413 634.01 290.299 634.01 290.191C634.01 290.071 634.01 289.951 634.01 289.831C634.01 289.003 633.77 288.391 633.29 287.995C632.822 287.587 632.108 287.383 631.148 287.383C630.08 287.383 629.318 287.629 628.862 288.121C628.406 288.613 628.178 289.321 628.178 290.245V290.713C628.178 291.649 628.406 292.363 628.862 292.855C629.318 293.347 630.086 293.593 631.166 293.593C632.102 293.593 632.774 293.449 633.182 293.161C633.602 292.861 633.812 292.447 633.812 291.919V291.775H635.756V291.937C635.756 292.573 635.558 293.137 635.162 293.629C634.778 294.109 634.244 294.487 633.56 294.763C632.888 295.027 632.108 295.159 631.22 295.159ZM641.532 295.159C640.092 295.159 638.976 294.883 638.184 294.331C637.404 293.779 637.014 292.987 637.014 291.955V291.901H638.958V292.045C638.958 292.633 639.15 293.041 639.534 293.269C639.93 293.485 640.596 293.593 641.532 293.593C642.408 293.593 643.002 293.503 643.314 293.323C643.638 293.131 643.8 292.837 643.8 292.441C643.8 292.069 643.674 291.805 643.422 291.649C643.182 291.493 642.738 291.373 642.09 291.289L639.642 290.965C638.79 290.857 638.124 290.617 637.644 290.245C637.164 289.861 636.924 289.291 636.924 288.535C636.924 288.007 637.08 287.545 637.392 287.149C637.704 286.741 638.172 286.423 638.796 286.195C639.42 285.967 640.188 285.853 641.1 285.853C642.012 285.853 642.792 285.973 643.44 286.213C644.1 286.453 644.604 286.813 644.952 287.293C645.312 287.773 645.492 288.367 645.492 289.075V289.129H643.566V289.021C643.566 288.673 643.494 288.379 643.35 288.139C643.206 287.899 642.948 287.719 642.576 287.599C642.216 287.467 641.706 287.401 641.046 287.401C640.218 287.401 639.642 287.497 639.318 287.689C638.994 287.881 638.832 288.187 638.832 288.607C638.832 288.955 638.952 289.207 639.192 289.363C639.432 289.519 639.882 289.645 640.542 289.741L642.612 290.029C643.668 290.161 644.448 290.419 644.952 290.803C645.456 291.187 645.708 291.751 645.708 292.495C645.708 293.047 645.534 293.527 645.186 293.935C644.838 294.331 644.352 294.637 643.728 294.853C643.104 295.057 642.372 295.159 641.532 295.159ZM649.055 294.979H647.111V286.033H649.055V294.979ZM649.055 284.989H647.111V282.919H649.055V284.989ZM655.553 298.219C654.665 298.219 653.885 298.081 653.213 297.805C652.541 297.541 652.013 297.157 651.629 296.653C651.257 296.149 651.071 295.537 651.071 294.817H652.997C652.997 295.249 653.087 295.597 653.267 295.861C653.447 296.125 653.729 296.311 654.113 296.419C654.509 296.539 655.025 296.599 655.661 296.599C656.345 296.599 656.885 296.521 657.281 296.365C657.689 296.221 657.983 295.963 658.163 295.591C658.343 295.219 658.433 294.703 658.433 294.043V288.805L658.577 288.679V286.033H660.359V293.935C660.359 294.931 660.161 295.741 659.765 296.365C659.369 297.001 658.811 297.469 658.091 297.769C657.371 298.069 656.525 298.219 655.553 298.219ZM654.743 294.169C653.855 294.169 653.093 293.995 652.457 293.647C651.833 293.299 651.347 292.813 650.999 292.189C650.663 291.565 650.495 290.839 650.495 290.011C650.495 289.183 650.669 288.457 651.017 287.833C651.377 287.209 651.881 286.723 652.529 286.375C653.189 286.027 653.969 285.853 654.869 285.853C655.805 285.853 656.597 286.063 657.245 286.483C657.905 286.891 658.313 287.485 658.469 288.265H658.883L658.775 289.831H658.433C658.433 289.327 658.313 288.907 658.073 288.571C657.833 288.223 657.491 287.965 657.047 287.797C656.603 287.629 656.063 287.545 655.427 287.545C654.815 287.545 654.281 287.623 653.825 287.779C653.381 287.935 653.039 288.193 652.799 288.553C652.571 288.901 652.457 289.387 652.457 290.011C652.457 290.623 652.571 291.109 652.799 291.469C653.027 291.829 653.357 292.093 653.789 292.261C654.233 292.417 654.761 292.495 655.373 292.495C656.357 292.495 657.113 292.291 657.641 291.883C658.169 291.475 658.433 290.875 658.433 290.083H658.775V291.847H658.307C658.151 292.531 657.773 293.089 657.173 293.521C656.573 293.953 655.763 294.169 654.743 294.169ZM671.5 294.979H669.556V290.119C669.556 289.279 669.352 288.649 668.944 288.229C668.548 287.809 667.882 287.599 666.946 287.599C665.974 287.599 665.254 287.851 664.786 288.355C664.33 288.847 664.102 289.579 664.102 290.551L663.76 290.569L663.67 288.805H664.066C664.162 288.301 664.354 287.827 664.642 287.383C664.942 286.927 665.35 286.561 665.866 286.285C666.394 285.997 667.036 285.853 667.792 285.853C668.62 285.853 669.31 286.021 669.862 286.357C670.414 286.693 670.822 287.143 671.086 287.707C671.362 288.271 671.5 288.901 671.5 289.597V294.979ZM664.102 294.979H662.158V286.033H663.94V288.841L664.102 288.931V294.979ZM681.366 295.159C680.178 295.159 679.176 294.991 678.36 294.655C677.556 294.319 676.95 293.845 676.542 293.233C676.134 292.609 675.93 291.877 675.93 291.037V290.929H677.874V291.217C677.874 291.697 677.982 292.099 678.198 292.423C678.414 292.735 678.774 292.975 679.278 293.143C679.782 293.299 680.478 293.377 681.366 293.377C682.134 293.377 682.746 293.323 683.202 293.215C683.658 293.095 683.982 292.915 684.174 292.675C684.378 292.423 684.48 292.111 684.48 291.739C684.48 291.211 684.312 290.827 683.976 290.587C683.64 290.347 683.094 290.155 682.338 290.011L679.386 289.525C678.714 289.393 678.114 289.201 677.586 288.949C677.058 288.685 676.644 288.337 676.344 287.905C676.056 287.461 675.912 286.909 675.912 286.249C675.912 285.817 676.008 285.391 676.2 284.971C676.392 284.551 676.692 284.173 677.1 283.837C677.508 283.501 678.036 283.237 678.684 283.045C679.344 282.841 680.148 282.739 681.096 282.739C682.272 282.739 683.238 282.919 683.994 283.279C684.75 283.639 685.308 284.131 685.668 284.755C686.04 285.367 686.226 286.069 686.226 286.861V286.969H684.3V286.735C684.3 286.243 684.192 285.835 683.976 285.511C683.76 285.175 683.406 284.929 682.914 284.773C682.422 284.605 681.756 284.521 680.916 284.521C680.184 284.521 679.59 284.581 679.134 284.701C678.69 284.821 678.366 285.001 678.162 285.241C677.958 285.469 677.856 285.769 677.856 286.141C677.856 286.477 677.928 286.753 678.072 286.969C678.216 287.185 678.438 287.359 678.738 287.491C679.038 287.611 679.422 287.725 679.89 287.833L682.824 288.337C683.628 288.481 684.294 288.697 684.822 288.985C685.362 289.273 685.764 289.639 686.028 290.083C686.292 290.527 686.424 291.043 686.424 291.631C686.424 292.243 686.25 292.819 685.902 293.359C685.554 293.899 685.008 294.337 684.264 294.673C683.52 294.997 682.554 295.159 681.366 295.159ZM689.244 298.039H687.966V296.275H689.712C690.108 296.275 690.402 296.209 690.594 296.077C690.798 295.957 690.966 295.747 691.098 295.447L691.656 294.241L691.44 295.231L686.904 286.033H689.082L691.368 290.785L692.25 292.927H692.394L693.24 290.767L695.346 286.033H697.488L692.826 295.951C692.586 296.479 692.304 296.893 691.98 297.193C691.656 297.505 691.272 297.721 690.828 297.841C690.384 297.973 689.856 298.039 689.244 298.039ZM702.669 295.159C701.229 295.159 700.113 294.883 699.321 294.331C698.541 293.779 698.151 292.987 698.151 291.955V291.901H700.095V292.045C700.095 292.633 700.287 293.041 700.671 293.269C701.067 293.485 701.733 293.593 702.669 293.593C703.545 293.593 704.139 293.503 704.451 293.323C704.775 293.131 704.937 292.837 704.937 292.441C704.937 292.069 704.811 291.805 704.559 291.649C704.319 291.493 703.875 291.373 703.227 291.289L700.779 290.965C699.927 290.857 699.261 290.617 698.781 290.245C698.301 289.861 698.061 289.291 698.061 288.535C698.061 288.007 698.217 287.545 698.529 287.149C698.841 286.741 699.309 286.423 699.933 286.195C700.557 285.967 701.325 285.853 702.237 285.853C703.149 285.853 703.929 285.973 704.577 286.213C705.237 286.453 705.741 286.813 706.089 287.293C706.449 287.773 706.629 288.367 706.629 289.075V289.129H704.703V289.021C704.703 288.673 704.631 288.379 704.487 288.139C704.343 287.899 704.085 287.719 703.713 287.599C703.353 287.467 702.843 287.401 702.183 287.401C701.355 287.401 700.779 287.497 700.455 287.689C700.131 287.881 699.969 288.187 699.969 288.607C699.969 288.955 700.089 289.207 700.329 289.363C700.569 289.519 701.019 289.645 701.679 289.741L703.749 290.029C704.805 290.161 705.585 290.419 706.089 290.803C706.593 291.187 706.845 291.751 706.845 292.495C706.845 293.047 706.671 293.527 706.323 293.935C705.975 294.331 705.489 294.637 704.865 294.853C704.241 295.057 703.509 295.159 702.669 295.159ZM714.116 294.979H712.064C711.104 294.979 710.342 294.745 709.778 294.277C709.226 293.809 708.95 293.035 708.95 291.955V284.071H710.876V291.847C710.876 292.399 711.008 292.771 711.272 292.963C711.536 293.143 711.944 293.233 712.496 293.233H714.116V294.979ZM714.116 287.653H707.438V286.033H714.116V287.653ZM719.832 295.159C718.86 295.159 718.008 294.979 717.276 294.619C716.544 294.259 715.974 293.731 715.566 293.035C715.17 292.339 714.972 291.499 714.972 290.515C714.972 289.579 715.17 288.763 715.566 288.067C715.974 287.371 716.538 286.831 717.258 286.447C717.978 286.051 718.824 285.853 719.796 285.853C720.72 285.853 721.53 286.021 722.226 286.357C722.934 286.681 723.48 287.161 723.864 287.797C724.26 288.421 724.458 289.189 724.458 290.101C724.458 290.257 724.452 290.407 724.44 290.551C724.428 290.683 724.41 290.815 724.386 290.947H716.214V289.867H723.108L722.604 290.533C722.616 290.413 722.622 290.299 722.622 290.191C722.622 290.071 722.622 289.951 722.622 289.831C722.622 289.003 722.382 288.391 721.902 287.995C721.434 287.587 720.72 287.383 719.76 287.383C718.692 287.383 717.93 287.629 717.474 288.121C717.018 288.613 716.79 289.321 716.79 290.245V290.713C716.79 291.649 717.018 292.363 717.474 292.855C717.93 293.347 718.698 293.593 719.778 293.593C720.714 293.593 721.386 293.449 721.794 293.161C722.214 292.861 722.424 292.447 722.424 291.919V291.775H724.368V291.937C724.368 292.573 724.17 293.137 723.774 293.629C723.39 294.109 722.856 294.487 722.172 294.763C721.5 295.027 720.72 295.159 719.832 295.159ZM741.736 294.979H739.81V290.119C739.81 289.231 739.624 288.589 739.252 288.193C738.88 287.797 738.256 287.599 737.38 287.599C736.432 287.599 735.76 287.845 735.364 288.337C734.98 288.817 734.788 289.555 734.788 290.551L734.446 290.569L734.338 288.805H734.734C734.818 288.289 734.992 287.809 735.256 287.365C735.52 286.921 735.898 286.561 736.39 286.285C736.882 285.997 737.5 285.853 738.244 285.853C739.024 285.853 739.672 286.015 740.188 286.339C740.704 286.663 741.088 287.107 741.34 287.671C741.604 288.235 741.736 288.877 741.736 289.597V294.979ZM727.858 294.979H725.914V286.033H727.696V288.841L727.858 288.931V294.979ZM734.788 294.979H732.862V290.119C732.862 289.231 732.676 288.589 732.304 288.193C731.932 287.797 731.314 287.599 730.45 287.599C729.49 287.599 728.818 287.845 728.434 288.337C728.05 288.817 727.858 289.555 727.858 290.551L727.516 290.569L727.426 288.733H727.804C727.888 288.229 728.056 287.761 728.308 287.329C728.56 286.897 728.926 286.543 729.406 286.267C729.886 285.991 730.498 285.853 731.242 285.853C732.022 285.853 732.664 286.021 733.168 286.357C733.672 286.681 734.05 287.125 734.302 287.689C734.554 288.253 734.68 288.889 734.68 289.597H734.788V294.979Z" fill="#CFCFCF"/>
<defs>
<clipPath id="clip0_2019_891">
<rect width="24" height="24" fill="white" transform="translate(241.72 126.99)"/>
</clipPath>
<clipPath id="clip1_2019_891">
<rect width="24" height="24" fill="white" transform="translate(489.841 126.99)"/>
</clipPath>
<clipPath id="clip2_2019_891">
<rect width="24" height="24" fill="white" transform="translate(777.717 126.99)"/>
</clipPath>
<clipPath id="clip3_2019_891">
<rect width="24" height="24" fill="white" transform="translate(1019.43 126.99)"/>
</clipPath>
</defs>
</svg>
