<svg width="60" height="32" viewBox="0 0 60 32" fill="none" xmlns="http://www.w3.org/2000/svg">
<g clip-path="url(#clip0_3770_42459)">
<path d="M7.64081 4.39979C5.90164 4.31019 4.22109 4.75984 2.70298 5.79397C-0.385989 7.89905 -0.596163 11.9577 0.911059 14.2637C1.7819 15.5959 3.01196 16.4701 4.42707 17.1341C5.65462 17.7094 6.94748 18.118 8.19597 18.6388C8.90603 18.9353 9.60354 19.256 10.2106 19.7366C11.3193 20.615 11.3737 22.1256 10.3228 23.0475C9.76096 23.5407 9.09528 23.8086 8.34501 23.8547C6.25919 23.9836 4.40698 23.3715 2.77583 22.082C2.5196 21.8794 2.37893 21.8752 2.18299 22.159C1.51144 23.1354 0.819789 24.0992 0.123117 25.0588C-0.0401654 25.284 -0.0569123 25.4331 0.191779 25.6047C0.950415 26.1281 1.71994 26.6305 2.56733 27.0039C4.39442 27.8086 6.32701 28.0196 8.29394 27.9995C10.0097 27.9819 11.5889 27.5114 13.0065 26.5107C16.6096 23.9669 16.165 19.467 14.1453 17.2773C13.3289 16.3922 12.3191 15.7776 11.2464 15.2535C9.92676 14.6087 8.50243 14.2294 7.16938 13.6198C6.46936 13.2999 5.77687 12.9633 5.21753 12.4224C4.29729 11.5331 4.2931 10.2369 5.19743 9.33008C5.7191 8.80757 6.35715 8.49441 7.08732 8.42993C8.74945 8.28256 10.2759 8.64513 11.5922 9.72195C11.9975 10.0535 12.0017 10.051 12.3182 9.60724C12.9253 8.75566 13.5307 7.9024 14.1369 7.04915C14.3865 6.69858 14.3368 6.4016 13.9879 6.15821C12.108 4.83856 9.98872 4.37299 7.64081 4.40062V4.39979ZM43.7639 15.7785C43.7639 19.5172 43.7639 23.256 43.7639 26.9947C43.7639 27.5633 43.7806 27.5783 44.3576 27.5792C45.3624 27.5809 46.3664 27.5817 47.3712 27.5792C47.8836 27.5775 47.9155 27.5465 47.9155 27.0274C47.9171 25.032 47.9129 23.0374 47.9196 21.0429C47.9196 20.8151 47.8049 20.4576 48.005 20.3872C48.2412 20.3043 48.3802 20.6543 48.541 20.8319C50.4668 22.9637 52.3886 25.0998 54.3044 27.2409C54.5154 27.477 54.7407 27.5892 55.0647 27.5859C56.3484 27.5717 57.632 27.5817 58.9148 27.5775C59.0329 27.5775 59.1978 27.6353 59.2573 27.4988C59.3159 27.364 59.1652 27.2819 59.0848 27.1932C56.7553 24.6368 54.4292 22.077 52.0854 19.5331C51.7924 19.2149 51.8033 19.0198 52.0771 18.7C54.1168 16.3152 56.139 13.9154 58.1646 11.5181C58.2416 11.4268 58.3873 11.3372 58.327 11.2057C58.265 11.0718 58.1018 11.132 57.9829 11.132C56.7277 11.1279 55.4717 11.1379 54.2165 11.1237C53.8941 11.1203 53.6714 11.2216 53.4645 11.4728C51.7915 13.5101 50.1093 15.5398 48.4246 17.5679C48.3057 17.7111 48.2052 17.9891 48.0126 17.9212C47.8158 17.8517 47.9196 17.5729 47.9188 17.3887C47.9138 13.1618 47.9155 8.93485 47.9146 4.70709C47.9146 4.23706 47.6857 4.00149 47.228 4.00037C46.3069 3.99953 45.3867 4.00037 44.4656 4.00037C43.9972 4.00037 43.7625 4.22925 43.7614 4.687C43.7614 8.38388 43.7614 12.0808 43.7614 15.7776L43.7639 15.7785ZM34.9902 27.9962C35.13 27.9962 35.2699 28.0046 35.408 27.9945C35.6584 27.9753 35.9079 27.9501 36.1574 27.9183C38.1579 27.6679 39.9062 26.8842 41.3657 25.4758C41.6236 25.2271 41.6387 25.0479 41.3716 24.7908C40.6481 24.0942 39.9372 23.3849 39.2414 22.6598C38.9776 22.3851 38.8336 22.3684 38.5657 22.6832C36.5753 25.0161 33.2837 24.9256 31.3971 22.5057C29.4218 19.9719 30.3111 16.1243 33.1857 14.7619C34.9693 13.9162 36.9747 14.3257 38.4099 15.8555C38.6712 16.1343 38.8311 16.1678 39.1032 15.8773C39.7622 15.1764 40.4354 14.4873 41.1346 13.8258C41.4545 13.5235 41.4151 13.3368 41.1145 13.0588C39.1242 11.2158 36.7511 10.5442 34.0976 10.7753C29.0208 11.2183 25.5667 15.8237 26.4007 20.8084C27.1175 25.0939 30.6419 28.0079 34.9902 27.9962ZM20.8893 27.5809C21.3498 27.5809 21.8095 27.5809 22.2701 27.5809C22.7256 27.5803 22.9536 27.3453 22.9542 26.8758C22.955 23.9753 22.9324 21.0738 22.9642 18.1733C22.9868 16.0933 23.4373 14.1055 24.5142 12.2968C24.6691 12.0364 24.6012 11.9133 24.3743 11.7617C23.4934 11.1722 22.6251 10.5652 21.7484 9.96897C21.313 9.67339 21.2912 9.67423 21.0132 10.1281C19.7187 12.244 19.0689 14.5744 18.9031 17.0228C18.6745 20.3914 18.8504 23.7701 18.8043 27.1438C18.8001 27.472 18.9416 27.5901 19.2573 27.5834C19.8007 27.5708 20.345 27.58 20.8893 27.5809ZM24.7704 9.42302C26.3103 9.42805 27.4876 8.26581 27.4867 6.74268C27.4867 5.23881 26.3161 4.07657 24.8022 4.07573C23.2941 4.0749 22.1085 5.23546 22.0892 6.73096C22.0708 8.19296 23.2908 9.418 24.7704 9.42302ZM28.1524 9.46991C28.1047 9.21871 27.9623 9.03198 27.6626 9.04454C27.3729 9.05626 27.1928 9.22792 27.1979 9.51932C27.2029 9.82746 27.3829 10.01 27.7011 9.99242C27.9992 9.97651 28.1315 9.78308 28.1516 9.46991H28.1524ZM27.949 10.9487C27.6475 10.9621 27.4759 11.1337 27.4759 11.4184C27.4759 11.7048 27.6651 11.8756 27.9473 11.9024C28.2027 11.9267 28.4681 11.6545 28.4438 11.3992C28.4162 11.1094 28.2454 10.9545 27.949 10.9495V10.9487ZM30.0055 9.97065C29.9854 9.67255 29.8229 9.51262 29.5206 9.52434C29.2217 9.53606 29.0417 9.71274 29.0551 10.0041C29.0685 10.2872 29.2653 10.4764 29.55 10.4714C29.8388 10.4664 29.9971 10.2746 30.0055 9.97065Z" fill="#222663"/>
</g>
<defs>
<clipPath id="clip0_3770_42459">
<rect width="59.2715" height="32" fill="white"/>
</clipPath>
</defs>
</svg>
