<svg width="1440" height="1440" viewBox="0 0 1440 1440" fill="none" xmlns="http://www.w3.org/2000/svg">
<g clip-path="url(#clip0_5039_468)">
<g filter="url(#filter0_f_5039_468)">
<path d="M362.466 740.726C228.923 647.984 11.5842 664.456 -80.3931 684.285L47.7155 1271.61H797.861L1473.08 1292.69L1662.67 829.732C1666.75 824.822 1634.53 787.895 1473.08 679.459C1271.26 543.912 968.533 631.301 873.643 741.256C778.757 851.21 529.396 856.652 362.466 740.726Z" fill="#029A38"/>
</g>
<path opacity="0.01" d="M581.689 1264.39C583.823 1260.68 588.48 1259.33 592.251 1261.25L592.612 1261.45L720.5 1334.98L848.388 1261.45L848.749 1261.25C852.52 1259.33 857.177 1260.68 859.311 1264.39C861.513 1268.22 860.192 1273.11 856.362 1275.32L724.487 1351.14C722.018 1352.56 718.982 1352.56 716.513 1351.14L584.638 1275.32L584.285 1275.1C580.728 1272.81 579.556 1268.1 581.689 1264.39ZM185 884.843C185 880.425 188.582 876.843 193 876.843C197.418 876.843 201 880.425 201 884.843V1026.66L320.717 953.837C324.491 951.54 329.414 952.74 331.71 956.514C334.006 960.289 332.808 965.21 329.033 967.507L208.711 1040.7L328.862 1109.79C332.693 1111.99 334.013 1116.88 331.811 1120.71C329.608 1124.54 324.718 1125.86 320.888 1123.66L189.013 1047.83C186.531 1046.4 185 1043.76 185 1040.9V884.843ZM1240 884.843C1240 880.425 1243.58 876.843 1248 876.843C1252.42 876.843 1256 880.425 1256 884.843V1040.9C1256 1043.76 1254.47 1046.4 1251.99 1047.83L1120.11 1123.66L1119.75 1123.86C1115.98 1125.78 1111.32 1124.42 1109.19 1120.71C1106.99 1116.88 1108.31 1111.99 1112.14 1109.79L1232.29 1040.7L1111.97 967.507L1111.62 967.284C1108.12 964.904 1107.07 960.171 1109.29 956.514C1111.51 952.858 1116.2 951.618 1119.93 953.632L1120.28 953.837L1240 1026.66V884.843ZM712.5 563.948C712.5 559.53 716.082 555.948 720.5 555.948C724.918 555.948 728.5 559.53 728.5 563.948V715.502L856.533 793.389L856.879 793.612C860.379 795.992 861.434 800.725 859.21 804.382C856.985 808.038 852.297 809.277 848.574 807.263L848.217 807.058L720.5 729.364L592.783 807.058L592.426 807.263C588.703 809.277 584.015 808.038 581.79 804.382C579.494 800.607 580.692 795.686 584.467 793.389L712.5 715.502V563.948ZM185 572.74V416.687C185 413.895 186.456 411.305 188.842 409.853L320.717 329.629C324.491 327.332 329.414 328.531 331.71 332.305C334.006 336.08 332.808 341.002 329.033 343.299L201 421.184V572.74C201 577.158 197.418 580.74 193 580.74C188.582 580.74 185 577.158 185 572.74ZM1240 572.74V421.184L1111.97 343.299L1111.62 343.075C1108.12 340.695 1107.07 335.962 1109.29 332.305C1111.51 328.649 1116.2 327.41 1119.93 329.424L1120.28 329.629L1252.16 409.853C1254.54 411.305 1256 413.895 1256 416.687V572.74C1256 577.158 1252.42 580.74 1248 580.74C1243.58 580.74 1240 577.158 1240 572.74ZM712.5 251.843V110.022L592.783 182.85C589.009 185.147 584.086 183.948 581.79 180.174C579.494 176.399 580.693 171.478 584.467 169.181L716.342 88.9567L716.584 88.8161C719.097 87.4051 722.184 87.4516 724.658 88.9567L856.533 169.181C860.308 171.478 861.506 176.399 859.21 180.174C856.914 183.948 851.991 185.147 848.217 182.85L728.5 110.022V251.843C728.5 256.262 724.918 259.843 720.5 259.843C716.082 259.843 712.5 256.262 712.5 251.843Z" fill="url(#paint0_linear_5039_468)"/>
</g>
<defs>
<filter id="filter0_f_5039_468" x="-284.393" y="406.392" width="2151.39" height="1090.29" filterUnits="userSpaceOnUse" color-interpolation-filters="sRGB">
<feFlood flood-opacity="0" result="BackgroundImageFix"/>
<feBlend mode="normal" in="SourceGraphic" in2="BackgroundImageFix" result="shape"/>
<feGaussianBlur stdDeviation="102" result="effect1_foregroundBlur_5039_468"/>
</filter>
<linearGradient id="paint0_linear_5039_468" x1="720.5" y1="87.7917" x2="720.5" y2="1352.21" gradientUnits="userSpaceOnUse">
<stop stop-color="#41FF90" stop-opacity="0.16"/>
<stop offset="0.490359" stop-color="#41FF90"/>
<stop offset="1" stop-color="#279956" stop-opacity="0.32"/>
</linearGradient>
<clipPath id="clip0_5039_468">
<rect width="1440" height="1440" fill="white"/>
</clipPath>
</defs>
</svg>
