<svg width="70" height="20" viewBox="0 0 70 20" fill="none" xmlns="http://www.w3.org/2000/svg">
<path d="M29.1614 10.6988C29.1543 11.1829 29.1213 11.6663 29.0622 12.1468C28.9767 12.8899 28.8619 13.6286 28.8101 14.3739C28.7808 14.786 27.3959 14.6846 27.4252 14.2725C27.4814 13.5114 27.5895 12.7571 27.6819 12.0004C27.7366 11.5588 27.7666 11.1145 27.7719 10.6695C27.3986 11.1892 27.0563 11.7306 26.7473 12.2909C26.3375 13.043 25.9749 13.8177 25.6214 14.5946C25.252 15.1486 25.3377 15.2251 24.2251 14.7298C24.1058 14.6779 24.1622 14.4775 24.1531 14.3468C24.1539 14.259 24.1638 14.1716 24.1824 14.0857C24.2162 13.8807 24.2994 13.5587 24.349 13.3651C24.6575 12.1851 24.9526 11.0028 25.2205 9.81386C25.5222 8.41091 25.9411 6.53057 26.1551 5.11186C26.2564 4.43629 26.3487 3.77647 26.4591 3.11217C26.5469 2.70682 27.9025 3.00857 27.8103 3.41392C27.7111 4.04896 27.6188 4.68625 27.5219 5.32353C27.3148 6.69946 26.905 8.53926 26.6213 9.90168C26.7091 9.78008 26.7969 9.65622 26.8892 9.53911C27.1932 9.17206 27.585 8.77797 28.1143 8.84103C28.2891 8.86318 28.456 8.9273 28.6007 9.02793C28.7284 9.14735 28.8411 9.28196 28.9362 9.42878C28.9835 9.56164 29.0466 9.69 29.0825 9.82737C29.1425 10.1138 29.169 10.4062 29.1614 10.6988Z" fill="white"/>
<path d="M36.2077 8.55966C35.9954 9.11308 35.8185 9.67945 35.6784 10.2553C35.3829 11.4392 35.1477 12.6372 34.9735 13.8449C34.87 14.651 34.915 14.2503 34.8384 15.0474C34.7957 15.4572 33.4152 15.3198 33.4558 14.9077C33.5413 14.0633 33.4919 14.4867 33.6021 13.6422C33.6382 13.3877 33.6787 13.1333 33.7216 12.881C33.2684 13.3409 32.7339 13.7128 32.1452 13.9777C31.9975 14.0292 31.8471 14.0729 31.6948 14.1084C31.5574 14.1084 31.42 14.1331 31.2849 14.1241C31.0571 14.1075 30.8358 14.04 30.6374 13.9265C30.4391 13.8132 30.2687 13.6567 30.1387 13.4688C30.0782 13.3669 30.0233 13.2616 29.9743 13.1535C29.9473 13.0522 29.9135 12.9532 29.8955 12.8495C29.8009 12.3001 29.9856 11.7551 30.1725 11.2484C30.231 11.1178 30.2829 10.9849 30.3458 10.8588C30.7165 10.1247 31.2257 9.46933 31.8456 8.92898C31.974 8.82539 32.0956 8.7173 32.2285 8.62046C32.6982 8.25007 33.2893 8.06856 33.8859 8.11154C33.976 8.12505 34.0661 8.13405 34.1539 8.15432C34.3751 8.20783 34.5849 8.30091 34.7731 8.42906C34.8317 8.26241 34.897 8.09803 34.9691 7.93589C35.1515 7.56657 36.3922 8.19035 36.2077 8.55966ZM34.3273 9.93559C34.2892 9.91282 34.2598 9.87792 34.2439 9.83649C34.2072 9.76565 34.1558 9.70347 34.0931 9.65409C34.0418 9.60235 33.9808 9.56137 33.9135 9.53353C33.8463 9.50569 33.7741 9.49156 33.7013 9.49195C33.2981 9.4807 33.0099 9.76444 32.7171 10.0099C32.1599 10.5054 31.7232 11.1215 31.4403 11.8114C31.366 12.0771 31.1521 12.487 31.3007 12.7527H31.3233C31.3368 12.7527 31.348 12.7752 31.3638 12.7752C31.3795 12.7752 31.3638 12.7572 31.3638 12.755C31.381 12.7537 31.3983 12.7537 31.4155 12.755C31.4643 12.757 31.5127 12.7452 31.5551 12.7212C32.1461 12.4207 32.6762 12.0129 33.118 11.5187C33.4736 11.1464 33.7726 10.7237 34.0053 10.2643C34.0343 10.2226 34.075 10.1902 34.1222 10.171C34.1693 10.1518 34.2209 10.1467 34.2709 10.1562C34.2935 10.0842 34.3093 10.0099 34.3273 9.93559Z" fill="white"/>
<path d="M41.1529 9.51665L41.0515 10.0188C41.0337 10.1076 40.9915 10.1897 40.9299 10.2561C40.8684 10.3225 40.7897 10.3705 40.7024 10.3949C39.1261 10.8453 37.9663 12.9193 37.6826 14.6308C37.6173 15.0383 36.2504 14.8559 36.309 14.4349C36.408 13.739 37.3786 8.67669 37.5993 8.02363C37.7817 7.65206 39.0293 8.26234 38.8469 8.6339C38.732 9.13157 38.6757 9.44459 38.5811 9.94901C38.9549 9.32974 39.9998 8.9897 40.6281 8.92665C40.7045 8.91972 40.7816 8.93083 40.853 8.95908C40.9244 8.98733 40.9882 9.03195 41.0392 9.08933C41.0903 9.14672 41.1272 9.21527 41.1469 9.28948C41.1666 9.3637 41.1687 9.44151 41.1529 9.51665Z" fill="white"/>
<path d="M45.634 13.8629C45.3515 14.0712 45.0499 14.2521 44.7334 14.4034C43.9339 14.7659 43.0962 15.079 42.2044 15.0587C41.8783 15.0507 41.5575 14.974 41.2631 14.8335C41.0385 14.7266 40.8392 14.5731 40.6786 14.3833C40.5178 14.1934 40.3993 13.9716 40.3308 13.7323C40.299 13.5724 40.2772 13.4108 40.2655 13.2482C40.279 13.1018 40.2835 12.9554 40.3084 12.7978C40.4348 12.1667 40.6718 11.5629 41.0087 11.0143C41.0053 10.9558 41.0053 10.8971 41.0087 10.8386C41.0087 10.7193 41.1212 10.6337 41.2833 10.5797L41.3644 10.4536C41.4883 10.2937 41.6032 10.1293 41.7338 9.97392C42.2185 9.3638 42.8342 8.87047 43.5353 8.53045C43.6997 8.45614 43.8731 8.41109 44.042 8.35255C44.2252 8.31551 44.4114 8.29516 44.5983 8.29175C44.8808 8.30919 45.1516 8.41132 45.3753 8.58484C45.5991 8.75835 45.7654 8.99521 45.8525 9.26457C45.8908 9.37492 45.9089 9.48977 45.9359 9.60236C45.9566 9.7061 45.9618 9.81234 45.9516 9.91762C45.9114 10.4479 45.7192 10.9554 45.3976 11.3791C45.0213 11.89 44.5338 12.3088 43.9721 12.6041C43.4025 12.8675 42.8462 13.041 42.227 12.8451C42.1255 12.8063 42.0262 12.762 41.9297 12.7122L41.8487 12.6604C41.7949 12.8173 41.7549 12.9785 41.7292 13.1424V13.3472C41.7404 13.3819 41.7556 13.4152 41.7744 13.4464C41.8689 13.586 42.2089 13.5724 42.3463 13.5769C42.9696 13.5134 43.5754 13.3332 44.1321 13.0455C44.365 12.9333 44.5868 12.799 44.7942 12.6447C45.1409 12.4127 45.9899 13.6107 45.634 13.8629ZM42.8034 10.9873C42.7134 11.0954 42.6323 11.2125 42.5513 11.3228C42.5692 11.3814 42.7381 11.5728 42.7472 11.4939C42.9596 11.4727 43.165 11.405 43.3484 11.2958C43.6989 11.1002 44.002 10.8295 44.2356 10.5031C44.4072 10.2885 44.4881 10.0153 44.4608 9.74197C44.4473 9.72171 44.3437 9.60911 44.3595 9.70144C44.3595 9.72396 44.3933 9.74649 44.3798 9.76675C44.3663 9.78702 44.3122 9.80277 44.2807 9.8208C43.698 10.0791 43.1898 10.4803 42.8034 10.9873Z" fill="white"/>
<path d="M53.115 5.29435L53.1038 5.28084C52.6986 5.19854 52.2848 5.16678 51.8719 5.18626C51.1108 5.18626 50.3519 5.21103 49.5929 5.28084C49.5615 5.66366 49.5165 6.04424 49.4669 6.42706C49.3138 7.65661 49.1021 8.87939 48.8859 10.1C48.6923 11.1786 48.4918 12.255 48.2981 13.3315C48.2276 13.7218 48.1653 14.1128 48.1113 14.5047C48.0549 14.9123 46.6812 14.7299 46.7376 14.3134C46.7939 13.8967 46.8569 13.4936 46.9312 13.086C47.1249 12.0096 47.3253 10.9354 47.5189 9.85898C47.7307 8.65871 47.9401 7.45843 48.091 6.25591C48.1248 5.98344 48.1586 5.71095 48.1877 5.43622C47.6 5.50603 47.0145 5.58485 46.4336 5.70645C45.9659 5.78551 45.5068 5.90841 45.0621 6.07351C44.6748 6.21763 44.1883 4.91378 44.5734 4.76965C45.0844 4.57877 45.6122 4.43628 46.1498 4.34404C47.1182 4.15923 48.0952 4.02319 49.0773 3.93645C50.0013 3.84115 50.9296 3.7953 51.8584 3.79908C52.395 3.77818 52.932 3.82432 53.4572 3.93645L53.6825 4.02202C54.0473 4.18416 53.4933 5.45874 53.115 5.29435Z" fill="white"/>
<path d="M54.3084 9.51665L54.2071 10.0188C54.1888 10.1074 54.1465 10.1893 54.0851 10.2556C54.0236 10.3219 53.9451 10.37 53.8581 10.3949C52.293 10.8453 51.1197 12.9193 50.8382 14.6308C50.7707 15.0383 49.406 14.8559 49.4645 14.4349C49.5637 13.739 50.5342 8.67669 50.7549 8.02363C50.9351 7.65206 52.1826 8.26234 52.0025 8.6339C51.8877 9.13157 51.8313 9.44459 51.7345 9.94901C52.1106 9.32974 53.1555 8.9897 53.7837 8.92665C53.8602 8.91972 53.9372 8.93083 54.0087 8.95908C54.0801 8.98733 54.1438 9.03195 54.1949 9.08933C54.246 9.14672 54.2827 9.21527 54.3025 9.28948C54.3222 9.3637 54.3242 9.44151 54.3084 9.51665Z" fill="white"/>
<path d="M56.4455 8.45813C56.3974 8.98708 56.3222 9.5132 56.2203 10.0344C56.0702 10.8406 55.9118 11.6461 55.7452 12.4507C55.6355 12.8901 55.5603 13.3374 55.52 13.7884C55.4953 14.2005 54.1103 14.1239 54.1328 13.7096C54.1295 13.6056 54.1363 13.5015 54.153 13.3988C54.1982 12.9821 54.3107 12.5723 54.3783 12.1625C54.548 11.3698 54.704 10.5757 54.8467 9.78001C54.9278 9.32962 54.9998 8.89951 55.0516 8.45589C55.0562 8.04379 56.4455 8.04379 56.4455 8.45813ZM57.2157 3.80794C57.1927 4.28153 57.1393 4.75315 57.0558 5.21989C56.986 5.67027 56.9005 6.12065 56.8171 6.57104C56.7405 6.97863 55.3758 6.72191 55.4524 6.31657C55.5291 5.91122 55.6169 5.44508 55.6777 5.00821C55.7474 4.61412 55.7947 4.2164 55.8195 3.81694C55.8285 3.39359 57.2157 3.39359 57.2157 3.80794Z" fill="white"/>
<path d="M62.5302 10.359C62.4582 10.5054 62.3726 10.6428 62.2937 10.7846C61.715 11.6854 60.9314 12.3227 60.0599 12.9216C59.471 13.3133 58.8315 13.6233 58.1592 13.8427C58.0962 13.8585 58.0331 13.872 57.9679 13.8832C57.7899 15.034 57.6187 16.1869 57.5039 17.3466C57.4634 17.7971 57.4409 18.261 57.4207 18.718C57.4026 19.1324 56.0132 19.0716 56.0311 18.6572C56.0514 18.1731 56.0763 17.6912 56.1213 17.2094C56.2564 15.8582 56.4591 14.5071 56.6708 13.1762C56.8824 11.8453 57.1369 10.5324 57.3869 9.215C57.5085 8.59797 57.6323 7.9787 57.8012 7.37068C57.9206 6.97433 59.2515 7.37068 59.132 7.77151C59.0375 8.12057 58.9587 8.47187 58.8844 8.82541C59.0796 8.48561 59.3058 8.16448 59.5599 7.86609C59.9085 7.49657 60.3541 7.23277 60.8458 7.10495C60.9516 7.08243 61.0574 7.07793 61.1655 7.06442C61.4398 7.04338 61.715 7.09105 61.9663 7.20311C62.2175 7.31516 62.4369 7.48808 62.6045 7.70621C62.6818 7.8351 62.7501 7.96901 62.8094 8.10706C62.8505 8.25059 62.8828 8.39648 62.9063 8.54392C62.9601 9.17264 62.8293 9.80338 62.5302 10.359ZM61.5371 8.65877C61.5799 8.51014 61.4155 8.45384 61.2962 8.4516C61.0303 8.47177 60.7817 8.5916 60.6003 8.78713C60.2877 9.1571 60.0292 9.56956 59.8325 10.0122C59.5509 10.6292 59.2965 11.2575 59.0623 11.8926L59.2874 11.7687C59.9914 11.3329 60.6033 10.7638 61.089 10.0933C61.3412 9.64961 61.5867 9.18797 61.5371 8.65877Z" fill="white"/>
<path d="M24.277 9.76658L24.2386 9.69902C23.9696 9.1875 23.5274 8.78839 22.9911 8.57307C22.7435 8.4357 22.2165 8.30284 20.5141 8.3096C19.2778 8.35013 18.9377 8.13169 18.8859 8.03036C18.8859 7.98583 18.8897 7.94138 18.8971 7.8975C19.0412 7.42885 19.2864 6.99757 19.6155 6.63417C20.4284 5.82799 20.8158 5.53523 20.9982 5.43165L21.0297 5.41139C21.7193 4.90941 22.4777 4.50968 23.2816 4.22462C23.205 4.44981 22.9371 4.90019 22.0903 5.87753C21.6715 6.23559 21.4711 6.42699 21.5184 6.71749C21.5463 6.91542 21.6516 7.09416 21.8112 7.21449C21.9707 7.33482 22.1716 7.3869 22.3696 7.35928L22.4732 7.34577C22.6645 7.31425 22.8921 7.19264 23.3739 6.70397L23.4009 6.67471C24.8534 4.89795 24.9773 4.22688 24.9075 3.83954L24.8669 3.59634L24.8331 3.53329C24.7636 3.3806 24.6649 3.24292 24.5426 3.12795C24.2859 2.76538 23.642 2.76538 23.2884 2.76538H23.2299L23.1712 2.78115C22.6995 2.89094 22.245 3.06443 21.8201 3.29684C21.0501 3.65942 20.3215 4.10412 19.647 4.62321L19.6245 4.64123C17.9963 5.99238 17.2802 7.11833 17.4379 8.09566C17.4959 8.39762 17.638 8.67707 17.8477 8.90184C18.1833 9.30269 18.7665 9.54814 19.6245 9.65623H19.6673C20.3789 9.6765 21.0905 9.68325 21.7818 9.67426C22.4011 9.71253 22.7772 9.85215 22.9078 10.0864L22.9348 10.253C22.9111 10.4172 22.8452 10.5724 22.7435 10.7034C22.4919 11.064 22.1749 11.3741 21.8089 11.6177L20.9262 12.2437C19.7789 12.8974 18.5799 13.4555 17.341 13.9124C16.5484 14.2029 16.3165 14.3627 16.1971 14.5272L16.0912 14.6758L16.1566 15.0789L16.2962 15.1847C16.4652 15.3196 16.6745 15.3942 16.8907 15.3964C16.9387 15.3998 16.9869 15.3998 17.0349 15.3964L17.1407 15.3784L17.2532 15.3491C17.2877 15.3525 17.3224 15.3525 17.3568 15.3491H17.3997L18.4401 14.946H18.4671C22.7253 13.2143 24.6013 11.7325 24.367 10.2823L24.277 9.76658Z" fill="white"/>
<path d="M1.55449 12.7257C1.3397 12.7602 1.12861 12.8148 0.923953 12.8885C0.421907 11.9277 0.117183 10.8762 0.0277235 9.79593C-0.0617495 8.71562 0.0658664 7.62833 0.403032 6.59808C0.740197 5.56784 1.28009 4.61549 1.99094 3.79708C2.70179 2.97868 3.56922 2.31079 4.54212 1.83276C5.51504 1.35472 6.57378 1.07618 7.65598 1.01357C8.73818 0.950947 9.82196 1.1055 10.8435 1.46814C11.8651 1.83077 12.8037 2.39415 13.6043 3.12509C14.4047 3.85605 15.0508 4.73978 15.5047 5.72425L15.3311 5.74452L10.4169 4.8406C10.4001 4.83783 10.3828 4.83926 10.3667 4.84476C10.3505 4.85026 10.336 4.85967 10.3243 4.87212C10.3129 4.8848 10.3051 4.90025 10.3015 4.91693C10.2979 4.93361 10.2988 4.95094 10.3041 4.96716L10.5635 5.87108C10.5693 5.89177 10.5817 5.90999 10.5988 5.92303C10.6159 5.93606 10.6368 5.94321 10.6583 5.94337L13.4696 5.95912L12.9552 6.0179L10.5117 6.42482C9.53356 6.65085 8.5439 6.82375 7.54705 6.94276C7.58333 6.88663 7.61504 6.82767 7.64186 6.76643C7.70941 6.71441 7.79521 6.66015 7.89902 6.59462C8.2143 6.51782 8.26226 6.31223 8.26226 6.19918V6.13591C8.25712 6.05267 8.22457 5.9735 8.16971 5.91071L8.15169 5.88819C8.14247 5.876 8.13051 5.86616 8.11679 5.85947C8.10304 5.85279 8.08793 5.84942 8.07264 5.84968H8.04112C7.91199 5.85187 7.78405 5.87467 7.66212 5.91724L7.52701 5.98277C7.43693 5.85622 7.22007 5.77266 6.82306 5.70939H6.78928C6.4654 5.73056 6.14625 5.79829 5.84168 5.91048C5.26876 6.0734 4.7162 6.30088 4.19463 6.58854C2.96733 7.31388 2.37059 7.97391 2.37059 8.60445C2.37702 8.79257 2.43641 8.97507 2.54195 9.13094C2.71107 9.41109 3.05989 9.62816 3.6204 9.79076C4.11221 9.88579 4.60403 9.96708 5.07333 10.0371C5.59667 10.1524 5.88784 10.3422 5.93964 10.6001C5.93226 10.6124 5.92837 10.6265 5.92837 10.6408V10.7064C5.92837 10.7471 5.90811 10.864 5.714 11.0838C5.48193 11.3229 5.2069 11.5161 4.90331 11.6533L4.26038 11.9584C3.3807 12.289 2.47511 12.546 1.55291 12.7268L1.55449 12.7257ZM15.676 6.13545C15.4533 6.26241 15.2119 6.35317 14.9608 6.40432H14.9406C14.6336 6.44509 14.3246 6.49012 14.0154 6.53764L11.008 7.42828C10.6898 8.12434 10.4169 8.74812 10.1958 9.28588L10.1777 9.3174C10.1597 9.34668 10.0784 9.50723 9.62038 10.6395C9.48527 10.9219 9.38123 11.1637 9.30894 11.3601C9.29319 11.4052 9.23216 11.5454 8.95247 12.185L8.50209 13.2359C8.4975 13.2423 8.49372 13.249 8.49082 13.2562C8.28815 13.5229 8.18614 13.5703 8.10507 13.5794H8.0803C8.06693 13.5821 8.05315 13.5821 8.03977 13.5794C7.90466 13.5274 7.84341 13.4595 7.84341 13.367C7.84341 13.0914 8.06859 12.4631 8.54284 11.3714C9.0171 10.2796 9.55058 8.94921 10.1539 7.45754V7.43953C10.1957 7.36669 10.2333 7.29151 10.2665 7.21434C9.03917 7.43953 8.30122 7.57465 8.06882 7.59717L7.67857 7.65369C7.65084 7.65462 7.62321 7.65003 7.59727 7.64018L7.43963 7.65369C7.30092 7.6567 7.1632 7.62973 7.03587 7.57465C6.85999 7.75998 6.65012 7.95882 6.39971 8.18041C6.01035 8.4655 5.86848 8.50424 5.77818 8.50424H5.74012C5.4807 8.47271 5.33184 8.32566 5.33184 8.10655C5.33184 8.00252 5.3904 7.93247 5.76737 7.70436C6.09225 7.44945 6.39425 7.16667 6.66994 6.85922C6.71174 6.69851 6.79319 6.55086 6.90683 6.42978C6.89034 6.43082 6.87378 6.43082 6.85729 6.42978C6.18887 6.50909 5.53969 6.7057 4.93956 7.01054C4.53488 7.20497 4.15214 7.4421 3.79784 7.71787C3.50931 7.95027 3.27776 8.2456 3.12092 8.58125C3.10065 8.66029 3.09615 8.69205 3.0939 8.7033C3.0939 8.9285 3.54427 9.12374 4.31443 9.2253C5.53722 9.41514 5.83064 9.56871 5.94572 9.66599C6.26328 9.85437 6.5033 10.1498 6.62265 10.4992V10.8564C6.62265 11.8022 5.19898 12.5739 2.14134 13.2767L1.3901 13.4213H1.36758C1.34665 13.425 1.32524 13.425 1.3043 13.4213H1.23404C2.3142 15.1238 3.98884 16.3638 5.9324 16.9002C7.87596 17.4366 9.94955 17.2313 11.7501 16.324C13.5507 15.4167 14.9495 13.8722 15.6747 11.9908C16.3998 10.1095 16.3994 8.02578 15.6737 6.14469L15.676 6.13545Z" fill="white"/>
</svg>
