<svg width="50" height="16" viewBox="0 0 50 16" fill="none" xmlns="http://www.w3.org/2000/svg">
<path d="M23.0827 8.51165C23.0774 8.86993 23.053 9.22766 23.0093 9.58331C22.946 10.1333 22.861 10.68 22.8227 11.2316C22.801 11.5366 21.776 11.4616 21.7977 11.1566C21.8393 10.5933 21.9193 10.035 21.9877 9.47498C22.0282 9.14814 22.0504 8.8193 22.0543 8.48998C21.778 8.87457 21.5247 9.27528 21.296 9.68998C20.9927 10.2466 20.7243 10.82 20.4627 11.395C20.1893 11.805 20.2527 11.8616 19.4293 11.495C19.341 11.4566 19.3827 11.3083 19.376 11.2116C19.3766 11.1466 19.3839 11.0819 19.3977 11.0183C19.4227 10.8666 19.4843 10.6283 19.521 10.485C19.7493 9.61165 19.9677 8.73665 20.166 7.85665C20.3893 6.81831 20.6993 5.42665 20.8577 4.37665C20.9327 3.87665 21.001 3.38831 21.0827 2.89665C21.1477 2.59665 22.151 2.81998 22.0827 3.11998C22.0093 3.58998 21.941 4.06165 21.8693 4.53331C21.716 5.55165 21.4127 6.91331 21.2027 7.92165C21.2677 7.83165 21.3327 7.73998 21.401 7.65331C21.626 7.38165 21.916 7.08998 22.3077 7.13665C22.4371 7.15304 22.5606 7.2005 22.6677 7.27498C22.7622 7.36336 22.8456 7.46299 22.916 7.57165C22.951 7.66998 22.9977 7.76498 23.0243 7.86665C23.0687 8.07866 23.0883 8.29511 23.0827 8.51165V8.51165Z" fill="#1882FF"/>
<path d="M28.2977 6.9283C28.1406 7.33789 28.0097 7.75707 27.906 8.1833C27.6873 9.05947 27.5132 9.94617 27.3843 10.84C27.3077 11.4366 27.341 11.14 27.2843 11.73C27.2527 12.0333 26.231 11.9316 26.261 11.6266C26.3243 11.0016 26.2877 11.315 26.3693 10.69C26.396 10.5016 26.426 10.3133 26.4577 10.1266C26.1223 10.467 25.7267 10.7422 25.291 10.9383C25.1817 10.9764 25.0704 11.0087 24.9577 11.035C24.856 11.035 24.7543 11.0533 24.6543 11.0466C24.4857 11.0343 24.3219 10.9844 24.1751 10.9004C24.0283 10.8165 23.9022 10.7007 23.806 10.5616C23.7612 10.4862 23.7206 10.4083 23.6843 10.3283C23.6643 10.2533 23.6393 10.18 23.626 10.1033C23.556 9.69664 23.6927 9.2933 23.831 8.9183C23.8743 8.82164 23.9127 8.7233 23.9593 8.62997C24.2336 8.08661 24.6105 7.60156 25.0693 7.20164C25.1643 7.12497 25.2543 7.04497 25.3527 6.9733C25.7003 6.69917 26.1378 6.56483 26.5793 6.59664C26.646 6.60664 26.7127 6.6133 26.7777 6.6283C26.9414 6.66791 27.0967 6.7368 27.236 6.83164C27.2793 6.7083 27.3277 6.58664 27.381 6.46664C27.516 6.1933 28.4343 6.65497 28.2977 6.9283ZM26.906 7.94664C26.8778 7.92979 26.8561 7.90396 26.8443 7.8733C26.8171 7.82087 26.7791 7.77485 26.7327 7.7383C26.6947 7.70001 26.6496 7.66968 26.5998 7.64907C26.55 7.62847 26.4966 7.61801 26.4427 7.6183C26.1443 7.60997 25.931 7.81997 25.7143 8.00164C25.3019 8.36836 24.9787 8.82439 24.7693 9.33497C24.7143 9.53164 24.556 9.83497 24.666 10.0316H24.6827C24.6927 10.0316 24.701 10.0483 24.7127 10.0483C24.7243 10.0483 24.7127 10.035 24.7127 10.0333C24.7254 10.0324 24.7382 10.0324 24.751 10.0333C24.7871 10.0348 24.8229 10.0261 24.8543 10.0083C25.2917 9.78593 25.684 9.48413 26.011 9.1183C26.2742 8.84276 26.4955 8.52996 26.6677 8.18997C26.6892 8.15906 26.7193 8.13506 26.7542 8.12086C26.7891 8.10666 26.8273 8.10288 26.8643 8.10997C26.881 8.05664 26.8927 8.00164 26.906 7.94664Z" fill="#1882FF"/>
<path d="M31.9577 7.63665L31.8827 8.00832C31.8695 8.07403 31.8383 8.1348 31.7927 8.18392C31.7472 8.23304 31.6889 8.2686 31.6243 8.28665C30.4577 8.61999 29.5993 10.155 29.3893 11.4217C29.341 11.7233 28.3293 11.5883 28.3727 11.2767C28.446 10.7617 29.1643 7.01499 29.3277 6.53165C29.4627 6.25665 30.386 6.70832 30.251 6.98332C30.166 7.35165 30.1243 7.58332 30.0543 7.95665C30.331 7.49832 31.1043 7.24665 31.5693 7.19999C31.6259 7.19486 31.6829 7.20308 31.7358 7.22399C31.7886 7.2449 31.8358 7.27792 31.8736 7.32039C31.9114 7.36286 31.9387 7.4136 31.9533 7.46852C31.9679 7.52345 31.9694 7.58104 31.9577 7.63665V7.63665Z" fill="#1882FF"/>
<path d="M35.2743 10.8533C35.0652 11.0074 34.842 11.1413 34.6077 11.2533C34.016 11.5216 33.396 11.7533 32.736 11.7383C32.4946 11.7324 32.2572 11.6756 32.0393 11.5716C31.8731 11.4925 31.7256 11.3789 31.6067 11.2384C31.4877 11.0979 31.4 10.9337 31.3493 10.7566C31.3258 10.6383 31.3096 10.5187 31.301 10.3983C31.311 10.29 31.3143 10.1816 31.3327 10.065C31.4263 9.59786 31.6017 9.15098 31.851 8.74498C31.8485 8.70168 31.8485 8.65828 31.851 8.61498C31.851 8.52665 31.9343 8.46331 32.0543 8.42331L32.1143 8.32998C32.206 8.21165 32.291 8.08998 32.3877 7.97498C32.7464 7.52342 33.2021 7.1583 33.721 6.90665C33.8427 6.85165 33.971 6.81831 34.096 6.77498C34.2316 6.74757 34.3694 6.73251 34.5077 6.72998C34.7168 6.74289 34.9172 6.81848 35.0828 6.9469C35.2484 7.07532 35.3715 7.25062 35.436 7.44998C35.4643 7.53165 35.4777 7.61665 35.4977 7.69998C35.513 7.77676 35.5169 7.85539 35.5093 7.93331C35.4796 8.32581 35.3373 8.7014 35.0993 9.01498C34.8208 9.3931 34.46 9.7031 34.0443 9.92165C33.6227 10.1166 33.211 10.245 32.7527 10.1C32.6776 10.0713 32.6041 10.0385 32.5327 10.0016L32.4727 9.96331C32.4329 10.0794 32.4033 10.1987 32.3843 10.32V10.4716C32.3926 10.4973 32.4038 10.5219 32.4177 10.545C32.4877 10.6483 32.7393 10.6383 32.841 10.6416C33.3023 10.5946 33.7507 10.4612 34.1627 10.2483C34.3351 10.1653 34.4992 10.0659 34.6527 9.95165C34.9093 9.77998 35.5377 10.6666 35.2743 10.8533ZM33.1793 8.72498C33.1127 8.80498 33.0527 8.89165 32.9927 8.97331C33.006 9.01665 33.131 9.15831 33.1377 9.09998C33.2949 9.08425 33.4469 9.03418 33.5827 8.95331C33.8421 8.80856 34.0664 8.60822 34.2393 8.36665C34.3663 8.20785 34.4262 8.00565 34.406 7.80331C34.396 7.78831 34.3193 7.70498 34.331 7.77331C34.331 7.78998 34.356 7.80665 34.346 7.82165C34.336 7.83665 34.296 7.84831 34.2727 7.86165C33.8414 8.05284 33.4653 8.34979 33.1793 8.72498V8.72498Z" fill="#1882FF"/>
<path d="M40.811 4.51166L40.8027 4.50166C40.5028 4.44075 40.1966 4.41724 39.891 4.43166C39.3277 4.43166 38.766 4.44999 38.2043 4.50166C38.181 4.78499 38.1477 5.06666 38.111 5.34999C37.9977 6.25999 37.841 7.16499 37.681 8.06832C37.5377 8.86666 37.3893 9.66332 37.246 10.46C37.1938 10.7489 37.1477 11.0383 37.1077 11.3283C37.066 11.63 36.0493 11.495 36.091 11.1867C36.1327 10.8783 36.1793 10.58 36.2343 10.2783C36.3777 9.48166 36.526 8.68666 36.6693 7.88999C36.826 7.00166 36.981 6.11332 37.0927 5.22332C37.1177 5.02166 37.1427 4.81999 37.1643 4.61666C36.7293 4.66832 36.296 4.72666 35.866 4.81666C35.5199 4.87517 35.1801 4.96613 34.851 5.08832C34.5643 5.19499 34.2043 4.22999 34.4893 4.12332C34.8675 3.98205 35.2581 3.87659 35.656 3.80832C36.3727 3.67154 37.0958 3.57086 37.8227 3.50666C38.5065 3.43613 39.1936 3.40219 39.881 3.40499C40.2781 3.38952 40.6756 3.42367 41.0643 3.50666L41.231 3.56999C41.501 3.68999 41.091 4.63332 40.811 4.51166Z" fill="#1882FF"/>
<path d="M41.6943 7.63665L41.6193 8.00832C41.6058 8.07388 41.5745 8.13447 41.529 8.18354C41.4835 8.2326 41.4254 8.26826 41.361 8.28665C40.2027 8.61999 39.3343 10.155 39.126 11.4217C39.076 11.7233 38.066 11.5883 38.1093 11.2767C38.1827 10.7617 38.901 7.01499 39.0643 6.53165C39.1977 6.25665 40.121 6.70832 39.9877 6.98332C39.9027 7.35165 39.861 7.58332 39.7893 7.95665C40.0677 7.49832 40.841 7.24665 41.306 7.19999C41.3626 7.19486 41.4196 7.20308 41.4725 7.22399C41.5253 7.2449 41.5725 7.27792 41.6103 7.32039C41.6481 7.36286 41.6753 7.4136 41.6899 7.46852C41.7045 7.52345 41.706 7.58104 41.6943 7.63665V7.63665Z" fill="#1882FF"/>
<path d="M43.276 6.8533C43.2404 7.24478 43.1847 7.63417 43.1093 8.01997C42.9982 8.61664 42.881 9.21275 42.7577 9.8083C42.6765 10.1335 42.6208 10.4645 42.591 10.7983C42.5727 11.1033 41.5477 11.0466 41.5643 10.74C41.5619 10.663 41.5669 10.586 41.5793 10.51C41.6127 10.2016 41.696 9.8983 41.746 9.59497C41.8716 9.0083 41.9871 8.42053 42.0927 7.83164C42.1527 7.4983 42.206 7.17997 42.2443 6.85164C42.2477 6.54664 43.276 6.54664 43.276 6.8533ZM43.846 3.41164C43.829 3.76215 43.7895 4.1112 43.7277 4.45664C43.676 4.78997 43.6127 5.1233 43.551 5.45664C43.4943 5.7583 42.4843 5.5683 42.541 5.2683C42.5977 4.9683 42.6627 4.6233 42.7077 4.29997C42.7593 4.0083 42.7943 3.71394 42.8127 3.4183C42.8193 3.10497 43.846 3.10497 43.846 3.41164V3.41164Z" fill="#1882FF"/>
<path d="M47.7793 8.25998C47.726 8.36831 47.6627 8.46998 47.6043 8.57498C47.176 9.24164 46.596 9.71331 45.951 10.1566C45.5152 10.4465 45.0419 10.6759 44.5443 10.8383C44.4977 10.85 44.451 10.86 44.4027 10.8683C44.271 11.72 44.1443 12.5733 44.0593 13.4316C44.0293 13.765 44.0127 14.1083 43.9977 14.4466C43.9843 14.7533 42.956 14.7083 42.9693 14.4016C42.9843 14.0433 43.0027 13.6866 43.036 13.33C43.136 12.33 43.286 11.33 43.4427 10.345C43.5993 9.35998 43.7877 8.38831 43.9727 7.41331C44.0627 6.95664 44.1543 6.49831 44.2793 6.04831C44.3677 5.75497 45.3527 6.04831 45.2643 6.34497C45.1943 6.60331 45.136 6.86331 45.081 7.12497C45.2255 6.87348 45.3929 6.63581 45.581 6.41497C45.839 6.14148 46.1688 5.94624 46.5327 5.85164C46.611 5.83497 46.6893 5.83164 46.7693 5.82164C46.9723 5.80607 47.176 5.84135 47.362 5.92429C47.5479 6.00722 47.7103 6.1352 47.8343 6.29664C47.8915 6.39203 47.9421 6.49114 47.986 6.59331C48.0164 6.69954 48.0403 6.80752 48.0577 6.91664C48.0975 7.38196 48.0007 7.84878 47.7793 8.25998ZM47.0443 7.00164C47.076 6.89164 46.9543 6.84997 46.866 6.84831C46.6692 6.86324 46.4852 6.95193 46.351 7.09664C46.1196 7.37046 45.9283 7.67573 45.7827 8.00331C45.5743 8.45998 45.386 8.92497 45.2127 9.39498L45.3793 9.30331C45.9003 8.98077 46.3532 8.55955 46.7127 8.06331C46.8993 7.73497 47.081 7.39331 47.0443 7.00164V7.00164Z" fill="#1882FF"/>
<path d="M19.4677 7.82165L19.4393 7.77165C19.2402 7.39307 18.9129 7.09768 18.516 6.93832C18.3327 6.83665 17.9427 6.73832 16.6827 6.74332C15.7677 6.77332 15.516 6.61165 15.4777 6.53665C15.4777 6.5037 15.4805 6.4708 15.486 6.43832C15.5926 6.09147 15.7741 5.77227 16.0177 5.50332C16.6193 4.90665 16.906 4.68998 17.041 4.61332L17.0643 4.59832C17.5747 4.2268 18.136 3.93096 18.731 3.71998V3.71998C18.6743 3.88665 18.476 4.21998 17.8493 4.94332C17.5393 5.20832 17.391 5.34998 17.426 5.56498C17.4467 5.71147 17.5246 5.84376 17.6427 5.93282C17.7608 6.02188 17.9095 6.06042 18.056 6.03998L18.1327 6.02998C18.2743 6.00665 18.4427 5.91665 18.7993 5.55498L18.8193 5.53332C19.8943 4.21832 19.986 3.72165 19.9343 3.43498L19.9043 3.25498L19.8793 3.20832C19.8278 3.09531 19.7548 2.99341 19.6643 2.90832C19.4743 2.63998 18.9977 2.63998 18.736 2.63998H18.6927L18.6493 2.65165C18.3002 2.73291 17.9638 2.86131 17.6493 3.03332C17.0794 3.30167 16.5402 3.6308 16.041 4.01498L16.0243 4.02832C14.8193 5.02832 14.2893 5.86165 14.406 6.58498C14.4489 6.80847 14.5541 7.01529 14.7093 7.18165C14.9577 7.47832 15.3893 7.65998 16.0243 7.73998H16.056C16.5827 7.75498 17.1093 7.75998 17.621 7.75332C18.0793 7.78165 18.3577 7.88498 18.4543 8.05832L18.4743 8.18165C18.4568 8.30316 18.408 8.41803 18.3327 8.51498C18.1465 8.78186 17.9119 9.01139 17.641 9.19165L16.9877 9.65498C16.1386 10.1388 15.2512 10.5518 14.3343 10.89C13.7477 11.105 13.576 11.2233 13.4877 11.345L13.4093 11.455L13.4577 11.7533L13.561 11.8316C13.6861 11.9315 13.841 11.9867 14.001 11.9883C14.0365 11.9908 14.0722 11.9908 14.1077 11.9883L14.186 11.975L14.2693 11.9533C14.2948 11.9558 14.3205 11.9558 14.346 11.9533H14.3777L15.1477 11.655H15.1677C18.3193 10.3733 19.7077 9.27665 19.5343 8.20332L19.4677 7.82165Z" fill="#1882FF"/>
<path d="M2.6505 10.0117C2.49153 10.0372 2.3353 10.0776 2.18383 10.1322C1.81226 9.42109 1.58673 8.64287 1.52052 7.84332C1.4543 7.04377 1.54875 6.23905 1.79829 5.47655C2.04783 4.71406 2.44741 4.00921 2.97352 3.4035C3.49963 2.79779 4.14162 2.30348 4.86168 1.94968C5.58175 1.59588 6.36533 1.38973 7.16628 1.34339C7.96723 1.29704 8.76935 1.41143 9.52542 1.67982C10.2815 1.94821 10.9762 2.36517 11.5687 2.90615C12.1611 3.44714 12.6393 4.1012 12.9752 4.82982L12.8467 4.84482L9.20966 4.17582C9.19721 4.17377 9.18444 4.17483 9.17249 4.1789C9.16054 4.18297 9.14978 4.18993 9.14116 4.19915C9.13272 4.20853 9.12689 4.21997 9.12425 4.23231C9.12162 4.24466 9.12228 4.25748 9.12616 4.26949L9.31816 4.93849C9.32249 4.9538 9.33167 4.96729 9.34433 4.97694C9.35698 4.98658 9.37242 4.99187 9.38833 4.99199L11.469 5.00365L11.0883 5.04715L9.27983 5.34832C8.5559 5.51561 7.82344 5.64357 7.08566 5.73165C7.11251 5.69011 7.13598 5.64647 7.15583 5.60115C7.20583 5.56265 7.26933 5.52249 7.34616 5.47399C7.5795 5.41715 7.615 5.26499 7.615 5.18132V5.13449C7.61119 5.07289 7.5871 5.01429 7.5465 4.96782L7.53316 4.95115C7.52634 4.94213 7.51749 4.93485 7.50733 4.9299C7.49716 4.92495 7.48597 4.92246 7.47466 4.92265H7.45133C7.35576 4.92427 7.26107 4.94115 7.17083 4.97265L7.07083 5.02115C7.00416 4.92749 6.84366 4.86565 6.54983 4.81882H6.52483C6.28512 4.83449 6.04891 4.88462 5.8235 4.96765C5.39947 5.08823 4.99052 5.25659 4.6045 5.46949C3.69616 6.00632 3.2545 6.49482 3.2545 6.96149C3.25926 7.10072 3.30322 7.23579 3.38133 7.35115C3.5065 7.55849 3.76466 7.71915 4.1795 7.83949C4.5435 7.90982 4.9075 7.96999 5.25483 8.02182C5.64216 8.10715 5.85766 8.24765 5.896 8.43849C5.89054 8.4476 5.88766 8.45803 5.88766 8.46865V8.51715C5.88766 8.54732 5.87266 8.63382 5.729 8.79649C5.55724 8.97341 5.35369 9.11641 5.129 9.21799L4.65316 9.44382C4.0021 9.6885 3.33186 9.87871 2.64933 10.0125L2.6505 10.0117ZM13.102 5.13415C12.9372 5.22812 12.7585 5.29529 12.5727 5.33315H12.5577C12.3305 5.36332 12.1018 5.39665 11.873 5.43182L9.64716 6.09099C9.41166 6.60615 9.20966 7.06782 9.046 7.46582L9.03266 7.48915C9.01933 7.51082 8.95916 7.62965 8.62016 8.46765C8.52016 8.67665 8.44316 8.85565 8.38966 9.00099C8.378 9.03432 8.33283 9.13815 8.12583 9.61149L7.7925 10.3893C7.7891 10.394 7.7863 10.399 7.78416 10.4043C7.63416 10.6017 7.55866 10.6368 7.49866 10.6435H7.48033C7.47043 10.6455 7.46023 10.6455 7.45033 10.6435C7.35033 10.605 7.305 10.5548 7.305 10.4863C7.305 10.2823 7.47166 9.81732 7.82266 9.00932C8.17366 8.20132 8.5685 7.21665 9.015 6.11265V6.09932C9.04596 6.04541 9.07378 5.98977 9.09833 5.93265C8.19 6.09932 7.64383 6.19932 7.47183 6.21599L7.183 6.25782C7.16248 6.25851 7.14203 6.25511 7.12283 6.24782L7.00616 6.25782C6.9035 6.26005 6.80157 6.24009 6.70733 6.19932C6.57716 6.33649 6.42183 6.48365 6.2365 6.64765C5.94833 6.85865 5.84333 6.88732 5.7765 6.88732H5.74833C5.55633 6.86399 5.44616 6.75515 5.44616 6.59299C5.44616 6.51599 5.4895 6.46415 5.7685 6.29532C6.00895 6.10666 6.23246 5.89737 6.4365 5.66982C6.46744 5.55088 6.52772 5.4416 6.61183 5.35199C6.59962 5.35276 6.58737 5.35276 6.57516 5.35199C6.08046 5.41069 5.59999 5.5562 5.15583 5.78182C4.85632 5.92572 4.57305 6.10122 4.31083 6.30532C4.09728 6.47732 3.92591 6.6959 3.80983 6.94432C3.79483 7.00282 3.7915 7.02632 3.78983 7.03465C3.78983 7.20132 4.12316 7.34582 4.69316 7.42099C5.59816 7.56149 5.81533 7.67515 5.9005 7.74715C6.13553 7.88657 6.31317 8.10521 6.4015 8.36382V8.62815C6.4015 9.32815 5.34783 9.89932 3.08483 10.4195L2.52883 10.5265H2.51216C2.49667 10.5292 2.48083 10.5292 2.46533 10.5265H2.41333C3.21277 11.7865 4.45219 12.7043 5.89064 13.1013C7.32909 13.4983 8.86378 13.3463 10.1964 12.6748C11.529 12.0033 12.5643 10.8602 13.101 9.4678C13.6377 8.07542 13.6374 6.53321 13.1003 5.14099L13.102 5.13415Z" fill="#1882FF"/>
</svg>
