<svg width="56" height="16" viewBox="0 0 56 16" fill="none" xmlns="http://www.w3.org/2000/svg">
<path d="M25.9213 8.62131C25.9149 9.05162 25.8856 9.48126 25.8332 9.9084C25.7571 10.569 25.655 11.2256 25.609 11.888C25.583 12.2543 24.3519 12.1643 24.378 11.798C24.428 11.1214 24.524 10.4509 24.6062 9.77829C24.6548 9.38575 24.6815 8.99081 24.6862 8.59529C24.3543 9.05719 24.0501 9.53845 23.7754 10.0365C23.4112 10.705 23.0888 11.3937 22.7746 12.0843C22.4463 12.5767 22.5224 12.6447 21.5335 12.2044C21.4274 12.1583 21.4775 11.9802 21.4695 11.864C21.4702 11.7859 21.479 11.7082 21.4955 11.6319C21.5256 11.4497 21.5996 11.1635 21.6436 10.9914C21.9178 9.94244 22.1801 8.89154 22.4183 7.83464C22.6865 6.58757 23.0588 4.91616 23.249 3.65509C23.3391 3.05458 23.4211 2.46807 23.5193 1.87758C23.5973 1.51727 24.8023 1.78549 24.7203 2.1458C24.6321 2.71028 24.5501 3.27677 24.464 3.84324C24.2799 5.06629 23.9156 6.70167 23.6634 7.91271C23.7415 7.80462 23.8195 7.69452 23.9015 7.59043C24.1718 7.26416 24.5201 6.91386 24.9905 6.96991C25.1459 6.98959 25.2943 7.04659 25.4229 7.13605C25.5364 7.24219 25.6365 7.36185 25.7211 7.49235C25.7631 7.61045 25.8192 7.72455 25.8512 7.84665C25.9045 8.10128 25.928 8.36124 25.9213 8.62131Z" fill="#1882FF"/>
<path d="M32.1846 6.71963C31.996 7.21156 31.8387 7.715 31.7142 8.22692C31.4515 9.27922 31.2424 10.3442 31.0876 11.4177C30.9956 12.1342 31.0356 11.778 30.9675 12.4866C30.9296 12.8509 29.7025 12.7287 29.7385 12.3624C29.8145 11.6118 29.7706 11.9882 29.8686 11.2375C29.9007 11.0112 29.9367 10.7851 29.9748 10.5609C29.5719 10.9697 29.0968 11.3002 28.5735 11.5357C28.4422 11.5815 28.3086 11.6203 28.1732 11.6519C28.0511 11.6519 27.9289 11.6738 27.8088 11.6658C27.6063 11.651 27.4096 11.5911 27.2333 11.4902C27.057 11.3894 26.9055 11.2504 26.79 11.0833C26.7362 10.9927 26.6874 10.8992 26.6438 10.8031C26.6198 10.713 26.5898 10.625 26.5738 10.5329C26.4897 10.0445 26.6539 9.56005 26.82 9.10967C26.872 8.99358 26.9182 8.87547 26.9741 8.76338C27.3036 8.11079 27.7562 7.52823 28.3073 7.04792C28.4214 6.95584 28.5294 6.85976 28.6476 6.77368C29.0651 6.44444 29.5905 6.2831 30.1208 6.3213C30.2009 6.33331 30.281 6.34131 30.3591 6.35933C30.5557 6.4069 30.7422 6.48964 30.9095 6.60354C30.9615 6.45541 31.0196 6.30929 31.0837 6.16517C31.2458 5.83688 32.3487 6.39136 32.1846 6.71963ZM30.5132 7.94268C30.4793 7.92244 30.4532 7.89142 30.4391 7.8546C30.4064 7.79163 30.3608 7.73636 30.305 7.69246C30.2594 7.64647 30.2052 7.61005 30.1454 7.58529C30.0856 7.56055 30.0215 7.54799 29.9567 7.54834C29.5984 7.53833 29.3422 7.79055 29.0819 8.00874C28.5866 8.44918 28.1984 8.99688 27.9469 9.6101C27.8809 9.8463 27.6908 10.2106 27.8229 10.4468H27.8429C27.8549 10.4468 27.8649 10.4668 27.879 10.4668C27.8929 10.4668 27.879 10.4508 27.879 10.4488C27.8942 10.4477 27.9096 10.4477 27.925 10.4488C27.9683 10.4506 28.0113 10.4402 28.049 10.4188C28.5744 10.1517 29.0455 9.78924 29.4383 9.34987C29.7544 9.01894 30.0202 8.64326 30.227 8.23493C30.2528 8.1978 30.2889 8.16898 30.3309 8.15192C30.3728 8.13487 30.4187 8.13033 30.4631 8.13884C30.4831 8.07479 30.4972 8.00874 30.5132 7.94268Z" fill="#1882FF"/>
<path d="M36.5804 7.57039L36.4903 8.01677C36.4745 8.09569 36.437 8.16868 36.3822 8.22767C36.3276 8.28667 36.2576 8.32937 36.18 8.35105C34.7789 8.7514 33.7479 10.595 33.4957 12.1163C33.4377 12.4785 32.2226 12.3164 32.2747 11.9422C32.3628 11.3236 33.2255 6.82376 33.4217 6.24326C33.5838 5.91298 34.6927 6.45544 34.5306 6.78572C34.4285 7.2281 34.3784 7.50634 34.2944 7.95471C34.6267 7.40425 35.5554 7.10199 36.1139 7.04595C36.1819 7.03979 36.2504 7.04966 36.3139 7.07477C36.3773 7.09989 36.434 7.13955 36.4794 7.19055C36.5248 7.24156 36.5576 7.3025 36.5751 7.36846C36.5926 7.43443 36.5944 7.5036 36.5804 7.57039Z" fill="#1882FF"/>
<path d="M40.5637 11.4336C40.3125 11.6187 40.0445 11.7795 39.7631 11.9141C39.0524 12.2363 38.3078 12.5146 37.5151 12.4965C37.2252 12.4895 36.9401 12.4212 36.6784 12.2963C36.4788 12.2013 36.3016 12.0649 36.1588 11.8962C36.0159 11.7274 35.9106 11.5302 35.8497 11.3175C35.8214 11.1754 35.802 11.0318 35.7917 10.8872C35.8037 10.7571 35.8076 10.6269 35.8297 10.4869C35.9421 9.92583 36.1528 9.38912 36.4522 8.9015C36.4492 8.8495 36.4492 8.79738 36.4522 8.74537C36.4522 8.63929 36.5523 8.56321 36.6964 8.51517L36.7684 8.40308C36.8786 8.26096 36.9807 8.11484 37.0968 7.97672C37.5276 7.43438 38.0749 6.99587 38.6981 6.69363C38.8443 6.62757 38.9984 6.58753 39.1485 6.53549C39.3114 6.50257 39.4769 6.48448 39.643 6.48145C39.8941 6.49695 40.1348 6.58774 40.3337 6.74197C40.5326 6.89621 40.6804 7.10675 40.7579 7.34618C40.7919 7.44427 40.808 7.54636 40.832 7.64644C40.8504 7.73865 40.855 7.83309 40.8459 7.92667C40.8102 8.39807 40.6393 8.84916 40.3535 9.22578C40.019 9.67991 39.5857 10.0522 39.0864 10.3147C38.5801 10.5489 38.0856 10.7031 37.5352 10.5289C37.445 10.4944 37.3567 10.4551 37.271 10.4107L37.1989 10.3647C37.1511 10.5042 37.1155 10.6475 37.0927 10.7931V10.9752C37.1027 11.0061 37.1161 11.0356 37.1328 11.0634C37.2169 11.1874 37.5191 11.1754 37.6412 11.1794C38.1953 11.1229 38.7338 10.9627 39.2286 10.707C39.4357 10.6073 39.6328 10.488 39.8171 10.3507C40.1253 10.1446 40.88 11.2094 40.5637 11.4336ZM38.0475 8.87748C37.9675 8.97357 37.8955 9.07766 37.8234 9.17573C37.8394 9.22779 37.9895 9.39792 37.9976 9.32787C38.1864 9.30898 38.3689 9.24884 38.532 9.15171C38.8436 8.97787 39.113 8.73725 39.3206 8.44712C39.4731 8.2564 39.5451 8.01355 39.5208 7.77054C39.5088 7.75252 39.4167 7.65244 39.4308 7.73451C39.4308 7.75453 39.4608 7.77455 39.4488 7.79257C39.4368 7.81058 39.3887 7.82458 39.3607 7.84061C38.8427 8.07023 38.391 8.42687 38.0475 8.87748Z" fill="#1882FF"/>
<path d="M47.2134 3.81719L47.2034 3.80518C46.8433 3.73202 46.4755 3.70379 46.1085 3.72111C45.4319 3.72111 44.7573 3.74312 44.0827 3.80518C44.0547 4.14546 44.0147 4.48375 43.9706 4.82404C43.8346 5.91697 43.6464 7.0039 43.4542 8.08881C43.2821 9.04764 43.1039 10.0044 42.9318 10.9613C42.8691 11.3083 42.8137 11.6558 42.7657 12.0041C42.7156 12.3665 41.4945 12.2043 41.5446 11.8341C41.5947 11.4637 41.6506 11.1054 41.7167 10.743C41.8889 9.78627 42.067 8.83145 42.2391 7.87464C42.4273 6.80773 42.6135 5.74082 42.7476 4.67191C42.7777 4.42971 42.8077 4.1875 42.8336 3.94329C42.3112 4.00534 41.7908 4.07541 41.2744 4.1835C40.8587 4.25377 40.4506 4.36302 40.0553 4.50977C39.711 4.63788 39.2786 3.4789 39.6209 3.35078C40.0751 3.18111 40.5442 3.05445 41.0221 2.97246C41.8829 2.80818 42.7514 2.68727 43.6244 2.61016C44.4457 2.52545 45.2709 2.48469 46.0965 2.48805C46.5734 2.46947 47.0508 2.51049 47.5176 2.61016L47.7178 2.68622C48.0421 2.83034 47.5497 3.9633 47.2134 3.81719Z" fill="#1882FF"/>
<path d="M48.2742 7.57039L48.1842 8.01677C48.168 8.09551 48.1304 8.16828 48.0757 8.22722C48.0211 8.28614 47.9513 8.32897 47.8739 8.35105C46.4828 8.7514 45.4398 10.595 45.1897 12.1163C45.1296 12.4785 43.9166 12.3164 43.9686 11.9422C44.0567 11.3236 44.9194 6.82376 45.1156 6.24326C45.2758 5.91298 46.3847 6.45544 46.2246 6.78572C46.1225 7.2281 46.0724 7.50634 45.9863 7.95471C46.3207 7.40425 47.2494 7.10199 47.8079 7.04595C47.8759 7.03979 47.9443 7.04966 48.0079 7.07477C48.0713 7.09989 48.128 7.13955 48.1734 7.19055C48.2188 7.24156 48.2514 7.3025 48.269 7.36846C48.2865 7.43443 48.2883 7.5036 48.2742 7.57039Z" fill="#1882FF"/>
<path d="M50.1739 6.62952C50.1311 7.0997 50.0642 7.56736 49.9737 8.03072C49.8402 8.74733 49.6995 9.46327 49.5514 10.1785C49.4539 10.5691 49.387 10.9667 49.3512 11.3676C49.3292 11.7339 48.0982 11.6658 48.1181 11.2975C48.1152 11.2051 48.1212 11.1126 48.1361 11.0213C48.1762 10.6509 48.2763 10.2866 48.3363 9.92233C48.4872 9.21772 48.6259 8.5118 48.7527 7.80453C48.8248 7.40418 48.8888 7.02186 48.9348 6.62753C48.9389 6.26122 50.1739 6.26122 50.1739 6.62952ZM50.8585 2.49601C50.8381 2.91698 50.7906 3.3362 50.7164 3.75108C50.6543 4.15142 50.5783 4.55175 50.5042 4.9521C50.4361 5.3144 49.223 5.08621 49.2911 4.7259C49.3592 4.36559 49.4373 3.95124 49.4913 3.56291C49.5533 3.21261 49.5954 2.85908 49.6175 2.50401C49.6254 2.12769 50.8585 2.12769 50.8585 2.49601Z" fill="#1882FF"/>
<path d="M55.5825 8.31904C55.5184 8.44915 55.4424 8.57125 55.3723 8.69736C54.8579 9.49803 54.1613 10.0645 53.3866 10.5969C52.8632 10.9451 52.2948 11.2206 51.6972 11.4157C51.6412 11.4297 51.5851 11.4417 51.5271 11.4517C51.3689 12.4746 51.2167 13.4994 51.1147 14.5303C51.0786 14.9307 51.0587 15.343 51.0407 15.7493C51.0246 16.1177 49.7896 16.0636 49.8055 15.6953C49.8236 15.2649 49.8457 14.8365 49.8857 14.4082C50.0058 13.2072 50.1859 12.0062 50.3741 10.8232C50.5622 9.64016 50.7885 8.47317 51.0106 7.30217C51.1187 6.7537 51.2288 6.20323 51.3789 5.66277C51.4851 5.31047 52.6681 5.66277 52.5619 6.01907C52.4778 6.32934 52.4078 6.64161 52.3417 6.95587C52.5153 6.65382 52.7163 6.36837 52.9423 6.10314C53.2521 5.77467 53.6482 5.54019 54.0853 5.42657C54.1793 5.40655 54.2733 5.40255 54.3694 5.39054C54.6132 5.37184 54.8579 5.41421 55.0813 5.51382C55.3045 5.61342 55.4996 5.76713 55.6485 5.96102C55.7172 6.07559 55.778 6.19462 55.8307 6.31733C55.8672 6.44492 55.8959 6.5746 55.9168 6.70566C55.9646 7.26452 55.8484 7.82518 55.5825 8.31904ZM54.6997 6.80774C54.7378 6.67563 54.5916 6.62559 54.4856 6.62359C54.2492 6.64152 54.0282 6.74804 53.867 6.92184C53.5891 7.25071 53.3594 7.61734 53.1845 8.01077C52.9342 8.55924 52.7081 9.11771 52.4999 9.6822L52.7 9.5721C53.3257 9.18472 53.8697 8.67883 54.3014 8.08283C54.5256 7.68849 54.7438 7.27815 54.6997 6.80774Z" fill="#1882FF"/>
<path d="M21.5796 7.79251L21.5455 7.73246C21.3064 7.27778 20.9133 6.92301 20.4366 6.73162C20.2164 6.60951 19.748 6.49141 18.2347 6.49742C17.1358 6.53345 16.8335 6.33928 16.7875 6.2492C16.7875 6.20963 16.7909 6.17011 16.7975 6.1311C16.9255 5.71453 17.1435 5.33116 17.4361 5.00815C18.1586 4.29153 18.5029 4.03131 18.6651 3.93924L18.6931 3.92122C19.3061 3.47502 19.9802 3.11971 20.6948 2.86632C20.6267 3.06649 20.3885 3.46683 19.6359 4.33558C19.2635 4.65385 19.0854 4.82398 19.1275 5.0822C19.1523 5.25814 19.2459 5.41702 19.3877 5.52399C19.5296 5.63095 19.7082 5.67724 19.8841 5.65269L19.9762 5.64068C20.1463 5.61266 20.3485 5.50457 20.7768 5.07019L20.8008 5.04418C22.0919 3.46483 22.2021 2.86832 22.14 2.52403L22.104 2.30784L22.0739 2.2518C22.0121 2.11608 21.9244 1.99369 21.8157 1.8915C21.5875 1.56921 21.0151 1.56921 20.7008 1.56921H20.6488L20.5967 1.58323C20.1774 1.68082 19.7734 1.83504 19.3956 2.04162C18.7112 2.36392 18.0636 2.75921 17.464 3.22062L17.444 3.23664C15.9968 4.43766 15.3602 5.43851 15.5004 6.30725C15.5519 6.57566 15.6782 6.82406 15.8646 7.02386C16.163 7.38017 16.6813 7.59835 17.444 7.69443H17.4821C18.1146 7.71244 18.7471 7.71845 19.3617 7.71045C19.9121 7.74447 20.2465 7.86857 20.3625 8.07676L20.3865 8.22488C20.3655 8.37082 20.3069 8.50878 20.2164 8.62522C19.9928 8.94575 19.711 9.22142 19.3857 9.43791L18.6011 9.99438C17.5813 10.5755 16.5155 11.0715 15.4143 11.4777C14.7097 11.7359 14.5035 11.878 14.3975 12.0241L14.3033 12.1562L14.3614 12.5145L14.4855 12.6086C14.6358 12.7285 14.8218 12.7948 15.014 12.7968C15.0566 12.7998 15.0995 12.7998 15.1421 12.7968L15.2361 12.7808L15.3362 12.7547C15.3668 12.7577 15.3977 12.7577 15.4283 12.7547H15.4664L16.3912 12.3965H16.4152C20.2003 10.8571 21.8678 9.54 21.6596 8.25091L21.5796 7.79251Z" fill="#1882FF"/>
<path d="M1.38177 10.4229C1.19085 10.4535 1.00321 10.502 0.821293 10.5676C0.375029 9.71356 0.104163 8.7789 0.0246431 7.81862C-0.0548885 6.85835 0.0585481 5.89186 0.358251 4.97608C0.657954 4.06031 1.13786 3.21377 1.76973 2.4863C2.4016 1.75883 3.17264 1.16515 4.03745 0.740231C4.90227 0.315309 5.84337 0.0677187 6.80533 0.0120633C7.76728 -0.0436041 8.73065 0.0937808 9.63871 0.416123C10.5468 0.738465 11.3811 1.23924 12.0927 1.88897C12.8042 2.53871 13.3785 3.32425 13.782 4.19934L13.6276 4.21736L9.25947 3.41387C9.24452 3.41141 9.22918 3.41269 9.21483 3.41757C9.20048 3.42246 9.18755 3.43082 9.1772 3.44189C9.16706 3.45316 9.16006 3.4669 9.15689 3.48172C9.15373 3.49655 9.15452 3.51195 9.15918 3.52637L9.38978 4.32986C9.39498 4.34825 9.40601 4.36445 9.42121 4.37604C9.43641 4.38762 9.45495 4.39397 9.47406 4.39411L11.973 4.40812L11.5158 4.46036L9.34375 4.82207C8.47429 5.02299 7.59459 5.17667 6.7085 5.28246C6.74075 5.23257 6.76893 5.18016 6.79278 5.12573C6.85283 5.07949 6.92909 5.03125 7.02137 4.97301C7.30161 4.90474 7.34425 4.72199 7.34425 4.6215V4.56526C7.33967 4.49128 7.31074 4.4209 7.26198 4.36508L7.24596 4.34506C7.23777 4.33423 7.22714 4.32549 7.21493 4.31954C7.20272 4.3136 7.18928 4.31061 7.1757 4.31083H7.14768C7.0329 4.31278 6.91917 4.33305 6.81079 4.37088L6.69069 4.42913C6.61062 4.31665 6.41785 4.24238 6.06496 4.18613H6.03493C5.74703 4.20495 5.46334 4.26516 5.19262 4.36488C4.68335 4.5097 4.19219 4.7119 3.72857 4.9676C2.63763 5.61235 2.10719 6.19904 2.10719 6.75953C2.11291 6.92674 2.16571 7.08897 2.25952 7.22752C2.40985 7.47654 2.71991 7.66949 3.21814 7.81402C3.65531 7.89849 4.09248 7.97076 4.50963 8.03301C4.97482 8.13549 5.23364 8.30423 5.27969 8.53344C5.27313 8.54438 5.26968 8.5569 5.26968 8.56966V8.62791C5.26968 8.66414 5.25166 8.76803 5.07912 8.9634C4.87283 9.17589 4.62837 9.34763 4.35851 9.46963L3.78701 9.74086C3.00508 10.0347 2.2001 10.2632 1.38037 10.4239L1.38177 10.4229ZM13.9343 4.56485C13.7363 4.67771 13.5217 4.75838 13.2986 4.80385H13.2805C13.0077 4.84009 12.733 4.88012 12.4582 4.92236L9.78492 5.71404C9.50208 6.33275 9.25947 6.88723 9.06291 7.36524L9.04689 7.39326C9.03088 7.41928 8.95861 7.562 8.55147 8.56846C8.43137 8.81947 8.33889 9.03445 8.27463 9.20901C8.26063 9.24904 8.20638 9.37374 7.95777 9.94224L7.55743 10.8764C7.55335 10.882 7.54998 10.8881 7.54741 10.8944C7.36726 11.1315 7.27658 11.1737 7.20452 11.1817H7.18251C7.17062 11.1841 7.15837 11.1841 7.14648 11.1817C7.02637 11.1355 6.97193 11.0752 6.97193 10.9929C6.97193 10.7479 7.17209 10.1894 7.59365 9.21902C8.01521 8.24859 8.48942 7.06598 9.02568 5.74005V5.72404C9.06286 5.65929 9.09628 5.59247 9.12576 5.52387C8.03484 5.72404 7.37887 5.84414 7.1723 5.86416L6.82541 5.9144C6.80076 5.91523 6.7762 5.91115 6.75314 5.90239L6.61302 5.9144C6.48972 5.91708 6.3673 5.89311 6.25412 5.84414C6.09778 6.00889 5.91122 6.18563 5.68864 6.3826C5.34254 6.63601 5.21643 6.67045 5.13617 6.67045H5.10234C4.87174 6.64243 4.73942 6.51171 4.73942 6.31695C4.73942 6.22447 4.79148 6.16221 5.12656 5.95944C5.41535 5.73286 5.68379 5.48149 5.92884 5.2082C5.966 5.06535 6.0384 4.9341 6.13942 4.82648C6.12476 4.82741 6.11004 4.82741 6.09538 4.82648C5.50123 4.89698 4.92418 5.07174 4.39073 5.34272C4.03101 5.51554 3.6908 5.72632 3.37587 5.97145C3.11939 6.17803 2.91357 6.44055 2.77416 6.7389C2.75614 6.80916 2.75214 6.83739 2.75013 6.84739C2.75013 7.04757 3.15047 7.22111 3.83505 7.3114C4.92198 7.48014 5.1828 7.61665 5.2851 7.70312C5.56737 7.87057 5.78072 8.13316 5.88681 8.44376V8.76122C5.88681 9.60194 4.62133 10.2879 1.90341 10.9127L1.23565 11.0412H1.21562C1.19702 11.0444 1.178 11.0444 1.15938 11.0412H1.09693C2.05707 12.5545 3.54564 13.6568 5.27325 14.1336C7.00086 14.6104 8.84406 14.4278 10.4446 13.6213C12.045 12.8149 13.2885 11.442 13.9331 9.76966C14.5776 8.09738 14.5773 6.24515 13.9322 4.57306L13.9343 4.56485Z" fill="#1882FF"/>
</svg>
