<svg width="104" height="20" viewBox="0 0 104 20" fill="none" xmlns="http://www.w3.org/2000/svg">
<path d="M14 14.8708C14 16.0433 13.0404 17 11.8708 17H2.12917C0.959583 17 0 16.0404 0 14.8708V5.12917C0 3.95958 0.959583 3 2.12917 3H11.8708C13.0404 3 14 3.95958 14 5.12917V14.8708Z" fill="#B00000"/>
<path fill-rule="evenodd" clip-rule="evenodd" d="M6.18327 7.24364L6.46619 7.73363H8.06161V8.22655H6.18327L5.90036 7.73655H4.65202C4.54702 8.05447 4.24661 8.28489 3.89077 8.28489C3.45327 8.28489 3.09452 7.92905 3.09452 7.48864C3.09452 7.04822 3.45036 6.69238 3.89077 6.69238C4.24661 6.69238 4.54702 6.9228 4.65202 7.24364H6.18327ZM3.58744 7.48864C3.58744 7.6578 3.72452 7.79197 3.89077 7.79197C4.05994 7.79197 4.19411 7.6578 4.19411 7.48864C4.19411 7.31947 4.05994 7.1853 3.89077 7.1853C3.72161 7.1853 3.58744 7.31947 3.58744 7.48864ZM9.33911 12.5112C9.33911 12.0707 9.69494 11.712 10.1353 11.712C10.5757 11.712 10.9345 12.0707 10.9345 12.5112C10.9345 12.9516 10.5757 13.3074 10.1353 13.3074C9.69786 13.3074 9.33911 12.9516 9.33911 12.5112ZM9.83202 12.5112C9.83202 12.6774 9.96911 12.8145 10.1353 12.8145C10.3045 12.8145 10.4387 12.6803 10.4387 12.5112C10.4387 12.3449 10.3045 12.2049 10.1353 12.2049C9.96911 12.2049 9.83202 12.3449 9.83202 12.5112ZM6.15702 9.0403C6.04911 8.7253 5.75161 8.4978 5.40161 8.4978C4.96411 8.4978 4.60827 8.85655 4.60827 9.29405C4.60827 9.73447 5.40161 10.4957 5.40161 10.4957C5.40161 10.4957 5.95869 9.96489 6.14244 9.53322H7.57452V11.7703H6.70244V11.7732L6.41661 12.2632H4.65202C4.54702 11.9453 4.24952 11.7149 3.89369 11.7149C3.45619 11.7149 3.09744 12.0737 3.09744 12.5141C3.09744 12.9545 3.45327 13.3103 3.89369 13.3103C4.24952 13.3103 4.55286 13.077 4.65494 12.7562H6.70244L6.98827 12.2662H8.07036V9.0403H6.15702ZM5.39869 9.59739C5.23244 9.59739 5.09536 9.46322 5.09536 9.29405C5.09536 9.1278 5.22952 8.99072 5.39869 8.99072C5.56786 8.99072 5.70494 9.1278 5.70494 9.29405C5.70786 9.46322 5.56786 9.59739 5.39869 9.59739ZM3.58744 12.5112C3.58744 12.6774 3.72452 12.8145 3.89077 12.8145C4.05994 12.8145 4.19411 12.6774 4.19411 12.5112C4.19411 12.3449 4.05994 12.2049 3.89077 12.2049C3.72161 12.2049 3.58744 12.3449 3.58744 12.5112ZM6.19494 10.5482L6.19786 10.5453H7.28869V11.0382H6.48077L6.19786 11.5282V11.5312H4.60536V11.5282L4.60244 11.5312L4.32244 11.0412H3.34244C3.23744 11.3591 2.93994 11.5895 2.58411 11.5895C2.14661 11.5895 1.79077 11.2307 1.79077 10.7932C1.79077 10.3528 2.14661 9.99697 2.58411 9.99697C2.93994 9.99697 3.24036 10.2274 3.34244 10.5453H4.60827L4.89411 11.0353H5.91494L6.19494 10.5482ZM2.28077 10.7932C2.28077 10.9595 2.41786 11.0966 2.58119 11.0966C2.75036 11.0966 2.88744 10.9624 2.88744 10.7932C2.88744 10.627 2.75036 10.487 2.58119 10.487C2.41494 10.487 2.28077 10.6241 2.28077 10.7932ZM12.1041 11.712H11.9349V11.4612H12.0866V10.8807H11.9349V9.73739C11.9349 9.73739 11.8591 9.4953 11.7686 9.34072C11.3486 8.64072 10.7186 7.86489 10.7186 7.86489C10.7186 7.86489 10.5699 7.64614 10.2257 7.64614H8.79952C8.79952 7.64614 8.54869 7.64613 8.55744 7.92322V11.7149V12.3537H9.06202C9.06202 12.3537 9.14952 11.4232 10.1382 11.4232C11.127 11.4232 11.1941 12.3478 11.1941 12.3537C11.1941 12.3624 12.0895 12.3537 12.0895 12.3537C12.0895 12.3537 12.2149 12.342 12.2149 12.2078V11.8257C12.212 11.8199 12.2178 11.712 12.1041 11.712ZM9.68036 10.1632H9.27786C9.21661 10.1632 9.16702 10.1137 9.16702 10.0524C9.16702 9.99114 9.21952 9.94155 9.27786 9.94155H9.68036C9.74161 9.94155 9.79119 9.99114 9.79119 10.0524C9.79119 10.1137 9.74452 10.1632 9.68036 10.1632ZM9.29536 9.55363H10.9607C11.2145 9.55363 11.0395 9.29697 11.0395 9.29697L10.3337 8.29947H9.27202C9.13494 8.29947 9.16994 8.39864 9.16994 8.39864V9.45738C9.16702 9.5653 9.29536 9.55363 9.29536 9.55363Z" fill="white"/>
<path d="M19.6895 13.7926L19.8172 12.0452L19.9487 9.44041L20.032 6.8824H19.6193L19.2341 6.88602L18.8676 6.88964L17.5 6.93475C17.5311 6.36021 17.551 5.92387 17.5549 5.62505C18.6897 5.63114 19.8788 5.6347 21.1214 5.6347L23.2493 5.63108L24.3872 5.625C24.3443 6.19159 24.3264 6.628 24.3264 6.9347C23.6118 6.89879 22.9265 6.8824 22.2704 6.8824H21.8151L21.7462 7.97119L21.5731 12.1799L21.5627 12.882C21.5586 13.174 21.5559 13.479 21.5559 13.7926L20.6556 13.7816C20.5585 13.7817 20.2356 13.7834 19.6895 13.7926Z" fill="white"/>
<path d="M24.8396 13.7927L25.0127 10.9516L25.0602 9.29862C25.067 8.96204 25.0714 8.61762 25.0714 8.27495C25.0714 8.21405 25.067 8.02657 25.0602 7.70534C25.4263 7.71444 25.6991 7.71872 25.8714 7.71872C26.0729 7.71872 26.3399 7.71444 26.6703 7.70534L26.64 8.55195C26.7922 8.33459 26.9193 8.17212 27.0261 8.06741C27.1313 7.96216 27.2524 7.8715 27.3849 7.79601C27.5172 7.71872 27.6633 7.66264 27.8242 7.62558C27.9878 7.58233 28.1536 7.56348 28.323 7.56348C28.4829 7.56348 28.6427 7.58233 28.8083 7.62558C28.8083 7.99199 28.8255 8.4667 28.8643 9.03445C28.6286 8.96933 28.4194 8.93896 28.2291 8.93896C27.9994 8.93896 27.7946 8.9736 27.6213 9.04421C27.4453 9.11235 27.2875 9.21825 27.1463 9.36187C27.0062 9.50254 26.8918 9.67658 26.8028 9.88533C26.7251 10.051 26.6703 10.2689 26.6353 10.5366C26.604 10.7433 26.5775 11.0989 26.5566 11.6022C26.536 12.1055 26.5253 12.5997 26.5253 13.0843C26.5253 13.2721 26.5302 13.5115 26.5435 13.7927C26.2416 13.7835 25.9668 13.7817 25.7178 13.7817C25.4749 13.7817 25.1814 13.7835 24.8396 13.7927Z" fill="white"/>
<path d="M35.6673 13.7924C35.3198 13.7833 35.053 13.7815 34.8671 13.7815C34.6335 13.7815 34.3704 13.7832 34.074 13.7924L34.0847 12.7978C33.9747 12.9657 33.8779 13.0997 33.7927 13.2032C33.7087 13.3049 33.6028 13.4041 33.4682 13.5021C33.3329 13.6012 33.1872 13.6797 33.0302 13.737C32.8729 13.7924 32.6931 13.8405 32.4887 13.8807C32.2843 13.919 32.0683 13.9342 31.8392 13.9342C31.3991 13.9342 31.0122 13.8709 30.6845 13.7433C30.3588 13.614 30.0995 13.4176 29.9092 13.1517C29.7162 12.8899 29.6204 12.5107 29.6204 12.02V11.8966L29.717 10.3489L29.8031 8.31728C29.8089 8.15426 29.8128 7.95088 29.8128 7.70508C30.1864 7.71418 30.4808 7.71846 30.692 7.71846C30.9182 7.71846 31.19 7.71418 31.5098 7.70508L31.3112 10.4329C31.3006 10.6483 31.2903 10.8243 31.2845 10.9692C31.2797 11.1139 31.2741 11.2234 31.2741 11.2838C31.2741 11.5722 31.3195 11.8096 31.4039 12.0013C31.4891 12.1876 31.6357 12.3347 31.8467 12.4321C32.0579 12.5319 32.2843 12.5837 32.5254 12.5837C32.7538 12.5837 32.9705 12.5393 33.174 12.4499C33.3623 12.3695 33.5194 12.2597 33.6519 12.1168C33.7852 11.9763 33.8951 11.7779 33.9852 11.5387C34.0524 11.3608 34.1043 11.1182 34.1403 10.8077C34.1689 10.5861 34.1954 10.2113 34.2172 9.67451C34.2502 9.02695 34.2718 8.3727 34.2842 7.70508C34.6741 7.71418 34.9752 7.71846 35.1797 7.71846C35.4125 7.71846 35.6756 7.71418 35.968 7.70508C35.9207 8.27469 35.8717 8.98918 35.8205 9.84675C35.7702 10.7006 35.7343 11.4049 35.7144 11.9648C35.6937 12.519 35.6805 13.129 35.6673 13.7924Z" fill="white"/>
<path d="M41.8555 12.4102C41.8356 12.5704 41.8053 12.7578 41.7656 12.9659C41.726 13.1741 41.6852 13.431 41.6415 13.7372C41.0776 13.8676 40.5191 13.9343 39.972 13.9343C39.6509 13.9343 39.3436 13.907 39.0472 13.8437C38.7518 13.7851 38.4763 13.6799 38.2197 13.5259C37.9663 13.3701 37.7437 13.1717 37.5486 12.9175C37.3549 12.6666 37.2117 12.363 37.1114 12.0057C37.0179 11.6504 36.9692 11.279 36.9692 10.9022C36.9692 10.3977 37.0479 9.91882 37.2061 9.45567C37.3707 8.99071 37.6017 8.61208 37.9103 8.31936C38.2198 8.02658 38.5616 7.82764 38.9392 7.72289C39.315 7.61577 39.7344 7.56348 40.1963 7.56348C40.4529 7.56348 40.717 7.57565 40.9876 7.60733C41.2631 7.63896 41.5829 7.69559 41.953 7.79113L42.046 9.09968C41.4562 8.89516 40.944 8.79528 40.5059 8.79528C40.2389 8.79528 39.9852 8.84155 39.7459 8.93353C39.5082 9.02354 39.3038 9.17084 39.1334 9.3656C38.9613 9.56278 38.839 9.79406 38.7662 10.0509C38.6933 10.3118 38.6562 10.5785 38.6562 10.8507C38.6562 11.2273 38.7157 11.5567 38.8314 11.8316C38.9448 12.1073 39.1484 12.3246 39.4305 12.4774C39.7145 12.6278 40.04 12.7043 40.4026 12.7043C40.5786 12.7043 40.7946 12.6813 41.0471 12.6356C41.2997 12.5893 41.5725 12.5137 41.8555 12.4102Z" fill="white"/>
<path fill-rule="evenodd" clip-rule="evenodd" d="M43.1809 12.2376L43.0625 13.7926C43.4087 13.7833 43.6975 13.7816 43.9253 13.7816C44.125 13.7816 44.4009 13.7835 44.7502 13.7926L44.7573 12.9854L44.8164 10.6687L44.9561 7.56527L45.0796 5.625C44.7442 5.63103 44.4768 5.63465 44.2709 5.63465C44.0974 5.63465 43.8053 5.63109 43.3919 5.625C43.3919 5.87568 43.3889 6.23052 43.3795 6.69493L43.3169 9.25107L43.1809 12.2376ZM46.1533 8.90236L44.9453 10.3861C45.1018 10.6361 45.1959 10.7822 45.2235 10.8193L46.2315 12.2776C46.3532 12.4481 46.4892 12.6507 46.6326 12.8784C46.7759 13.1061 46.9651 13.414 47.1921 13.7925C47.5679 13.7833 47.8829 13.7816 48.1341 13.7816C48.387 13.7816 48.6922 13.7834 49.0475 13.7925C47.7348 11.9922 46.9355 10.8615 46.6459 10.3941L46.9964 9.96615L48.9488 7.7052C48.5494 7.7143 48.222 7.71858 47.9623 7.71858C47.7715 7.71858 47.4703 7.7143 47.0627 7.7052C46.8459 8.00034 46.6659 8.24439 46.5219 8.4312C46.3792 8.61747 46.2557 8.77447 46.1533 8.90236Z" fill="white"/>
<path d="M51.9138 13.8101C52.0318 12.6062 52.1268 11.2703 52.1968 9.79396C52.2702 8.32414 52.31 6.93583 52.3196 5.64258C52.7254 5.64625 53.0615 5.64987 53.3277 5.64987C53.512 5.64987 53.801 5.64625 54.2009 5.64258C54.1478 6.35893 54.1008 7.17879 54.0564 8.09533L53.937 10.4945C53.8997 11.179 53.8733 11.86 53.8565 12.5418L54.879 12.5528C55.834 12.5528 56.4628 12.5508 56.7651 12.5454C57.0638 12.5395 57.3599 12.5243 57.6515 12.5138C57.6165 12.9015 57.5852 13.3326 57.5576 13.8102C56.5194 13.8016 55.6305 13.7969 54.8947 13.7969L53.0276 13.8042L51.9138 13.8101Z" fill="white"/>
<path d="M58.8185 9.05748C58.8739 8.77084 58.91 8.56692 58.9245 8.45317C58.9377 8.3363 58.9607 8.16226 58.9968 7.92671C59.5327 7.79893 60.006 7.70765 60.4179 7.65591C60.8299 7.60537 61.2262 7.57861 61.608 7.57861C62.0415 7.57861 62.4402 7.63036 62.8026 7.73199C63.1689 7.83302 63.4519 7.99545 63.6579 8.21954C63.8626 8.44347 63.9637 8.763 63.9637 9.18109C63.9637 9.40935 63.9337 9.99119 63.8709 10.9228C63.8083 11.853 63.7711 12.8151 63.7614 13.8101C63.4591 13.8016 63.182 13.7969 62.9291 13.7969C62.6894 13.7969 62.4064 13.8016 62.0812 13.8101C62.1341 13.3283 62.1765 12.7663 62.2078 12.133L62.2872 10.6417C62.1366 10.7452 62.0223 10.8121 61.9415 10.8521C61.8619 10.8906 61.7717 10.9308 61.6753 10.9642C61.5766 10.9978 61.402 11.0493 61.1551 11.1183C60.9033 11.1899 60.707 11.2504 60.5552 11.2996C60.4059 11.3555 60.2685 11.4129 60.1493 11.4767C60.0278 11.5448 59.9278 11.6187 59.8435 11.7007C59.7603 11.7841 59.699 11.8662 59.6652 11.9545C59.6254 12.0451 59.6061 12.1408 59.6061 12.2509C59.6061 12.4133 59.653 12.559 59.7519 12.6812C59.8481 12.7987 59.9663 12.8858 60.1155 12.9356C60.2637 12.9836 60.4349 13.0044 60.6311 13.0044C60.7576 13.0044 60.8913 12.9977 61.0333 12.9795C61.1707 12.9589 61.3585 12.9069 61.5982 12.8278C61.5115 13.0541 61.4187 13.3933 61.3067 13.8455C61.0236 13.8923 60.8032 13.9245 60.6347 13.9343C60.4721 13.946 60.3167 13.9515 60.1722 13.9515C59.6784 13.9515 59.2677 13.8825 58.9497 13.7504C58.6305 13.6129 58.3945 13.397 58.2415 13.101C58.0885 12.8085 58.0139 12.5137 58.0139 12.2114C58.0139 12.0404 58.0427 11.8697 58.1018 11.7007C58.1607 11.5339 58.2486 11.3824 58.3631 11.2442C58.4738 11.1005 58.6269 10.9666 58.8075 10.8371C58.9906 10.7087 59.2518 10.5827 59.5928 10.4597C59.9409 10.3393 60.3949 10.218 60.9573 10.0946C61.1092 10.0618 61.2645 10.0216 61.4295 9.97792C61.5884 9.93029 61.7184 9.88528 61.8148 9.84203C61.9112 9.79401 61.9968 9.74286 62.0678 9.67166C62.1377 9.59985 62.1906 9.53039 62.2233 9.45436C62.2569 9.37893 62.2762 9.29681 62.2762 9.21821C62.2762 9.06121 62.2233 8.93217 62.1232 8.82626C62.0221 8.71734 61.892 8.64257 61.7318 8.59871C61.5691 8.55853 61.3958 8.53534 61.1995 8.53534C60.483 8.53529 59.6894 8.70818 58.8185 9.05748Z" fill="white"/>
<path fill-rule="evenodd" clip-rule="evenodd" d="M67.9734 15.5151C67.3241 15.5151 66.5544 15.3665 65.6632 15.0731L65.7404 16.3718C66.2837 16.5022 66.7823 16.5897 67.2399 16.6397C67.6999 16.6877 68.1058 16.7084 68.4647 16.7084C68.8032 16.7084 69.1175 16.6834 69.4102 16.628C69.7052 16.5727 69.9498 16.5022 70.1509 16.4183C70.3497 16.33 70.5292 16.2168 70.687 16.0791C70.8435 15.9368 70.9735 15.7779 71.0784 15.5991C71.1771 15.4151 71.2542 15.2107 71.3023 14.9886C71.3517 14.7603 71.3794 14.528 71.3915 14.2843L71.4397 12.1378L71.5637 9.76166L71.6985 7.86651C71.0554 7.75266 70.54 7.67175 70.1486 7.63825C69.7547 7.59687 69.4066 7.57861 69.0971 7.57861C68.5419 7.57861 68.0361 7.64187 67.5807 7.75628C67.1242 7.87929 66.6979 8.09834 66.2956 8.4154C65.8934 8.73795 65.5899 9.14267 65.3851 9.63509C65.1766 10.1317 65.0742 10.6569 65.0742 11.212C65.0742 11.6003 65.1345 11.9698 65.261 12.3271C65.3873 12.6861 65.5717 12.9819 65.8162 13.215C66.0572 13.4505 66.3353 13.6251 66.6485 13.7354C66.9603 13.8437 67.2891 13.9004 67.6372 13.9004C67.889 13.9004 68.1322 13.8692 68.3586 13.811C68.5876 13.7536 68.7852 13.6783 68.9598 13.5863C69.1331 13.4926 69.279 13.3837 69.4018 13.2667C69.5259 13.1511 69.663 12.9838 69.8149 12.7751C69.7992 13.31 69.7776 13.7122 69.7509 13.9782C69.7222 14.2425 69.6667 14.476 69.5848 14.6769C69.5029 14.8758 69.386 15.0348 69.2355 15.1535C69.0838 15.2697 68.9007 15.3616 68.6803 15.4218C68.4575 15.4815 68.2214 15.5151 67.9734 15.5151ZM69.0344 8.81295C69.327 8.81295 69.645 8.84831 69.9895 8.91886C69.9713 9.42707 69.9545 9.86522 69.9292 10.2365C69.9064 10.6054 69.8714 10.9145 69.8257 11.1585C69.7824 11.4033 69.7051 11.6255 69.5932 11.8202C69.486 12.0188 69.3595 12.1841 69.2198 12.3112C69.0764 12.444 68.9175 12.5455 68.7428 12.6047C68.5658 12.671 68.3778 12.7027 68.1744 12.7027C67.8937 12.7027 67.6324 12.6377 67.3999 12.5037C67.1615 12.3716 66.988 12.18 66.8809 11.9219C66.7676 11.6619 66.7122 11.3827 66.7122 11.0839C66.7122 10.6784 66.8038 10.292 66.9844 9.92558C67.1662 9.56455 67.4264 9.28887 67.7589 9.09597C68.0985 8.90669 68.5212 8.81295 69.0344 8.81295Z" fill="white"/>
<path fill-rule="evenodd" clip-rule="evenodd" d="M73.1247 9.85547C73.0416 11.7324 72.9597 13.0507 72.8909 13.8102C73.3101 13.8016 73.5894 13.7969 73.7306 13.7969C73.9184 13.7969 74.1726 13.8016 74.4966 13.8102L74.523 12.7934C74.6254 12.9619 74.7159 13.0964 74.7892 13.1944C74.8686 13.2881 74.965 13.3836 75.0806 13.481C75.1975 13.5747 75.3288 13.6587 75.477 13.7325C75.625 13.8042 75.7866 13.8579 75.9635 13.8961C76.1393 13.9344 76.3298 13.9516 76.5357 13.9516C76.9619 13.9516 77.3535 13.8743 77.7159 13.7202C78.0808 13.563 78.388 13.3186 78.6445 12.9838C78.8963 12.6544 79.0877 12.2697 79.2166 11.8425C79.3454 11.4165 79.4117 10.9709 79.4117 10.5176C79.4117 9.86703 79.2828 9.31195 79.0263 8.8579C78.7686 8.39782 78.4278 8.07341 78.0014 7.87502C77.5774 7.67592 77.0548 7.57862 76.4368 7.57862C76.2128 7.57862 75.9851 7.592 75.7563 7.61875C75.5274 7.64375 75.2179 7.69418 74.835 7.76906C74.8746 6.91286 74.924 6.20369 74.9926 5.64258C74.9773 5.64277 74.9621 5.64296 74.9468 5.64315C74.6714 5.64662 74.4132 5.64987 74.17 5.64987C73.9475 5.64987 73.6906 5.64715 73.3962 5.64403C73.3511 5.64355 73.3052 5.64307 73.2584 5.64258C73.2547 6.57437 73.2089 7.97961 73.1247 9.85547ZM74.676 10.0142L74.7252 8.99069C75.0144 8.9066 75.2599 8.85123 75.454 8.82136C75.6516 8.78973 75.8393 8.77761 76.0225 8.77761C76.5778 8.77761 77.0064 8.94185 77.2932 9.27174C77.5761 9.6058 77.7232 10.0429 77.7232 10.5882C77.7232 10.9665 77.6569 11.3289 77.5303 11.671C77.4003 12.0135 77.2184 12.2777 76.98 12.4536C76.7368 12.6313 76.4549 12.7232 76.1284 12.7232C75.8297 12.7232 75.56 12.6422 75.3179 12.4883C75.0805 12.3314 74.9059 12.111 74.8096 11.8261C74.7084 11.5406 74.659 11.1506 74.659 10.657C74.659 10.4488 74.6638 10.2321 74.676 10.0142Z" fill="white"/>
<path fill-rule="evenodd" clip-rule="evenodd" d="M85.5841 13.7201C85.6805 13.1095 85.754 12.686 85.8046 12.4504C85.3673 12.5953 84.9879 12.6975 84.6726 12.7579C84.3521 12.8153 84.0582 12.8469 83.7837 12.8469C83.5524 12.8469 83.3152 12.8102 83.0766 12.7348C82.8334 12.6606 82.6263 12.5493 82.454 12.3916C82.2807 12.2363 82.1468 12.0452 82.0554 11.823C81.965 11.6004 81.9204 11.3556 81.9204 11.0873C81.9204 10.9978 81.9252 10.8811 81.9337 10.7307L86.2731 10.7256C86.3129 10.5267 86.3333 10.3356 86.3333 10.1493C86.3333 9.74709 86.2671 9.38677 86.1322 9.06121C86.0022 8.73987 85.8131 8.45986 85.5662 8.22919C85.3179 7.99978 85.0132 7.83302 84.6508 7.73199C84.2859 7.6285 83.904 7.57861 83.5017 7.57861C83.0765 7.57861 82.6658 7.64187 82.2769 7.76055C81.8855 7.88159 81.5386 8.09045 81.2303 8.38438C80.9256 8.67469 80.6847 9.05271 80.5172 9.51455C80.3451 9.97589 80.2607 10.4487 80.2607 10.9411C80.2607 11.3824 80.3343 11.8047 80.4811 12.2063C80.6292 12.6105 80.8568 12.9506 81.1628 13.2265C81.47 13.504 81.8276 13.6922 82.2372 13.7968C82.6453 13.902 83.1078 13.9514 83.6271 13.9514C83.921 13.9514 84.2171 13.9362 84.5086 13.9046C84.8013 13.8741 85.1602 13.8108 85.5841 13.7201ZM84.7543 10.0411L81.9805 10.0313C82.0178 9.84199 82.0553 9.68987 82.0974 9.57415C82.1395 9.46101 82.1961 9.34474 82.2769 9.22184C82.3575 9.10124 82.466 8.98684 82.5972 8.88707C82.7237 8.78966 82.8694 8.71478 83.0247 8.66127C83.1789 8.61073 83.3415 8.58524 83.5077 8.58524C83.6476 8.58524 83.7835 8.59862 83.9039 8.62899C84.0292 8.6655 84.14 8.7082 84.2352 8.77085C84.3302 8.8311 84.4122 8.90472 84.4832 8.99062C84.5532 9.08249 84.611 9.18599 84.6519 9.30039C84.6929 9.42329 84.7193 9.52432 84.7338 9.61258C84.7458 9.70818 84.7543 9.84988 84.7543 10.0411Z" fill="white"/>
</svg>
