<svg width="104" height="20" viewBox="0 0 104 20" fill="none" xmlns="http://www.w3.org/2000/svg">
<path d="M14 14.8708C14 16.0433 13.0404 17 11.8708 17H2.12917C0.959583 17 0 16.0404 0 14.8708V5.12917C0 3.95958 0.959583 3 2.12917 3H11.8708C13.0404 3 14 3.95958 14 5.12917V14.8708Z" fill="#B00000"/>
<path fill-rule="evenodd" clip-rule="evenodd" d="M6.18333 7.24376L6.46625 7.73375H8.06167V8.22667H6.18333L5.90042 7.73667H4.65208C4.54708 8.05459 4.24667 8.28501 3.89083 8.28501C3.45333 8.28501 3.09458 7.92917 3.09458 7.48876C3.09458 7.04834 3.45042 6.6925 3.89083 6.6925C4.24667 6.6925 4.54708 6.92292 4.65208 7.24376H6.18333ZM3.5875 7.48876C3.5875 7.65792 3.72458 7.79209 3.89083 7.79209C4.06 7.79209 4.19417 7.65792 4.19417 7.48876C4.19417 7.31959 4.06 7.18542 3.89083 7.18542C3.72167 7.18542 3.5875 7.31959 3.5875 7.48876ZM9.33917 12.5113C9.33917 12.0708 9.695 11.7121 10.1354 11.7121C10.5758 11.7121 10.9346 12.0708 10.9346 12.5113C10.9346 12.9517 10.5758 13.3075 10.1354 13.3075C9.69792 13.3075 9.33917 12.9517 9.33917 12.5113ZM9.83208 12.5113C9.83208 12.6775 9.96917 12.8146 10.1354 12.8146C10.3046 12.8146 10.4388 12.6804 10.4388 12.5113C10.4388 12.345 10.3046 12.205 10.1354 12.205C9.96917 12.205 9.83208 12.345 9.83208 12.5113ZM6.15708 9.04042C6.04917 8.72542 5.75167 8.49792 5.40167 8.49792C4.96417 8.49792 4.60833 8.85667 4.60833 9.29417C4.60833 9.73459 5.40167 10.4958 5.40167 10.4958C5.40167 10.4958 5.95875 9.96501 6.1425 9.53334H7.57458V11.7704H6.7025V11.7733L6.41667 12.2633H4.65208C4.54708 11.9454 4.24958 11.715 3.89375 11.715C3.45625 11.715 3.0975 12.0738 3.0975 12.5142C3.0975 12.9546 3.45333 13.3104 3.89375 13.3104C4.24958 13.3104 4.55292 13.0771 4.655 12.7563H6.7025L6.98833 12.2663H8.07042V9.04042H6.15708ZM5.39875 9.59751C5.2325 9.59751 5.09542 9.46334 5.09542 9.29417C5.09542 9.12792 5.22958 8.99084 5.39875 8.99084C5.56792 8.99084 5.705 9.12792 5.705 9.29417C5.70792 9.46334 5.56792 9.59751 5.39875 9.59751ZM3.5875 12.5113C3.5875 12.6775 3.72458 12.8146 3.89083 12.8146C4.06 12.8146 4.19417 12.6775 4.19417 12.5113C4.19417 12.345 4.06 12.205 3.89083 12.205C3.72167 12.205 3.5875 12.345 3.5875 12.5113ZM6.195 10.5483L6.19792 10.5454H7.28875V11.0383H6.48083L6.19792 11.5283V11.5313H4.60542V11.5283L4.6025 11.5313L4.3225 11.0413H3.3425C3.2375 11.3592 2.94 11.5896 2.58417 11.5896C2.14667 11.5896 1.79083 11.2308 1.79083 10.7933C1.79083 10.3529 2.14667 9.99709 2.58417 9.99709C2.94 9.99709 3.24042 10.2275 3.3425 10.5454H4.60833L4.89417 11.0354H5.915L6.195 10.5483ZM2.28083 10.7933C2.28083 10.9596 2.41792 11.0967 2.58125 11.0967C2.75042 11.0967 2.8875 10.9625 2.8875 10.7933C2.8875 10.6271 2.75042 10.4871 2.58125 10.4871C2.415 10.4871 2.28083 10.6242 2.28083 10.7933ZM12.1042 11.7121H11.935V11.4613H12.0867V10.8808H11.935V9.73751C11.935 9.73751 11.8592 9.49542 11.7687 9.34084C11.3487 8.64084 10.7187 7.86501 10.7187 7.86501C10.7187 7.86501 10.57 7.64626 10.2258 7.64626H8.79958C8.79958 7.64626 8.54875 7.64625 8.5575 7.92334V11.715V12.3538H9.06208C9.06208 12.3538 9.14958 11.4233 10.1383 11.4233C11.1271 11.4233 11.1942 12.3479 11.1942 12.3538C11.1942 12.3625 12.0896 12.3538 12.0896 12.3538C12.0896 12.3538 12.215 12.3421 12.215 12.2079V11.8258C12.2121 11.82 12.2179 11.7121 12.1042 11.7121ZM9.68042 10.1633H9.27792C9.21667 10.1633 9.16708 10.1138 9.16708 10.0525C9.16708 9.99126 9.21958 9.94167 9.27792 9.94167H9.68042C9.74167 9.94167 9.79125 9.99126 9.79125 10.0525C9.79125 10.1138 9.74458 10.1633 9.68042 10.1633ZM9.29542 9.55375H10.9608C11.2146 9.55375 11.0396 9.29709 11.0396 9.29709L10.3338 8.29959H9.27208C9.135 8.29959 9.17 8.39876 9.17 8.39876V9.4575C9.16708 9.56542 9.29542 9.55375 9.29542 9.55375Z" fill="white"/>
<path d="M19.6895 13.7926L19.8172 12.0452L19.9487 9.44041L20.032 6.8824H19.6193L19.2341 6.88602L18.8676 6.88964L17.5 6.93475C17.5311 6.36021 17.551 5.92387 17.5549 5.62505C18.6897 5.63114 19.8788 5.6347 21.1214 5.6347L23.2493 5.63108L24.3872 5.625C24.3443 6.19159 24.3264 6.628 24.3264 6.9347C23.6118 6.89879 22.9265 6.8824 22.2704 6.8824H21.8151L21.7462 7.97119L21.5731 12.1799L21.5627 12.882C21.5586 13.174 21.5559 13.479 21.5559 13.7926L20.6556 13.7816C20.5585 13.7817 20.2356 13.7834 19.6895 13.7926Z" fill="#232323"/>
<path d="M24.8395 13.7927L25.0126 10.9516L25.0601 9.29862C25.0669 8.96204 25.0713 8.61762 25.0713 8.27495C25.0713 8.21405 25.0669 8.02657 25.0601 7.70534C25.4262 7.71444 25.699 7.71872 25.8713 7.71872C26.0728 7.71872 26.3398 7.71444 26.6702 7.70534L26.6399 8.55195C26.7921 8.33459 26.9192 8.17212 27.026 8.06741C27.1312 7.96216 27.2523 7.8715 27.3848 7.79601C27.5171 7.71872 27.6632 7.66264 27.8241 7.62558C27.9877 7.58233 28.1535 7.56348 28.3229 7.56348C28.4828 7.56348 28.6426 7.58233 28.8082 7.62558C28.8082 7.99199 28.8254 8.4667 28.8642 9.03445C28.6285 8.96933 28.4193 8.93896 28.229 8.93896C27.9993 8.93896 27.7945 8.9736 27.6212 9.04421C27.4452 9.11235 27.2874 9.21825 27.1462 9.36187C27.0061 9.50254 26.8917 9.67658 26.8027 9.88533C26.725 10.051 26.6702 10.2689 26.6352 10.5366C26.6039 10.7433 26.5774 11.0989 26.5565 11.6022C26.5359 12.1055 26.5252 12.5997 26.5252 13.0843C26.5252 13.2721 26.5301 13.5115 26.5434 13.7927C26.2415 13.7835 25.9667 13.7817 25.7177 13.7817C25.4748 13.7817 25.1813 13.7835 24.8395 13.7927Z" fill="#232323"/>
<path d="M35.6672 13.7926C35.3197 13.7835 35.0529 13.7817 34.867 13.7817C34.6334 13.7817 34.3703 13.7834 34.0739 13.7926L34.0846 12.798C33.9746 12.9659 33.8778 13.0999 33.7926 13.2034C33.7086 13.3051 33.6027 13.4043 33.4681 13.5023C33.3328 13.6014 33.1871 13.6799 33.0301 13.7372C32.8728 13.7926 32.693 13.8407 32.4886 13.8809C32.2842 13.9192 32.0682 13.9344 31.8391 13.9344C31.399 13.9344 31.0121 13.8711 30.6844 13.7435C30.3587 13.6142 30.0994 13.4178 29.9091 13.1519C29.7161 12.8901 29.6203 12.5109 29.6203 12.0202V11.8968L29.7169 10.3491L29.803 8.31752C29.8088 8.1545 29.8127 7.95112 29.8127 7.70532C30.1863 7.71442 30.4807 7.7187 30.6919 7.7187C30.9181 7.7187 31.1899 7.71442 31.5097 7.70532L31.3111 10.4331C31.3005 10.6485 31.2902 10.8245 31.2844 10.9694C31.2796 11.1141 31.274 11.2236 31.274 11.284C31.274 11.5724 31.3194 11.8098 31.4038 12.0015C31.489 12.1878 31.6356 12.3349 31.8466 12.4323C32.0578 12.5321 32.2842 12.5839 32.5253 12.5839C32.7537 12.5839 32.9704 12.5395 33.1739 12.4501C33.3622 12.3697 33.5193 12.2599 33.6518 12.117C33.7851 11.9765 33.895 11.7781 33.9851 11.5389C34.0523 11.361 34.1042 11.1184 34.1402 10.8079C34.1688 10.5863 34.1953 10.2115 34.2171 9.67475C34.2501 9.02719 34.2717 8.37294 34.2841 7.70532C34.674 7.71442 34.9751 7.7187 35.1796 7.7187C35.4124 7.7187 35.6755 7.71442 35.9679 7.70532C35.9206 8.27493 35.8716 8.98942 35.8204 9.84699C35.7701 10.7008 35.7342 11.4051 35.7143 11.965C35.6936 12.5192 35.6804 13.1292 35.6672 13.7926Z" fill="#232323"/>
<path d="M41.8556 12.4103C41.8357 12.5705 41.8054 12.7579 41.7657 12.966C41.7261 13.1742 41.6853 13.4311 41.6416 13.7373C41.0777 13.8677 40.5192 13.9344 39.9721 13.9344C39.651 13.9344 39.3437 13.9071 39.0473 13.8438C38.7519 13.7852 38.4764 13.68 38.2198 13.526C37.9664 13.3702 37.7438 13.1718 37.5487 12.9176C37.355 12.6667 37.2118 12.3631 37.1115 12.0058C37.018 11.6505 36.9693 11.2791 36.9693 10.9023C36.9693 10.3978 37.048 9.91888 37.2062 9.45573C37.3708 8.99077 37.6018 8.61214 37.9104 8.31942C38.2199 8.02664 38.5617 7.8277 38.9393 7.72295C39.3151 7.61583 39.7345 7.56354 40.1964 7.56354C40.453 7.56354 40.7171 7.57571 40.9877 7.60739C41.2632 7.63902 41.583 7.69565 41.9531 7.79119L42.0461 9.09974C41.4563 8.89522 40.9441 8.79534 40.506 8.79534C40.239 8.79534 39.9853 8.84161 39.746 8.93359C39.5083 9.0236 39.3039 9.1709 39.1335 9.36566C38.9614 9.56284 38.8391 9.79412 38.7663 10.051C38.6934 10.3119 38.6563 10.5786 38.6563 10.8508C38.6563 11.2274 38.7158 11.5568 38.8315 11.8317C38.9449 12.1074 39.1485 12.3247 39.4306 12.4775C39.7146 12.6279 40.0401 12.7044 40.4027 12.7044C40.5787 12.7044 40.7947 12.6814 41.0472 12.6357C41.2998 12.5894 41.5726 12.5138 41.8556 12.4103Z" fill="#232323"/>
<path fill-rule="evenodd" clip-rule="evenodd" d="M43.1809 12.2377L43.0625 13.7927C43.4087 13.7834 43.6975 13.7817 43.9253 13.7817C44.125 13.7817 44.4009 13.7836 44.7502 13.7927L44.7573 12.9855L44.8164 10.6688L44.9561 7.56533L45.0796 5.62506C44.7442 5.63109 44.4768 5.63471 44.2709 5.63471C44.0974 5.63471 43.8053 5.63115 43.3919 5.62506C43.3919 5.87574 43.3889 6.23058 43.3795 6.69499L43.3169 9.25113L43.1809 12.2377ZM46.1533 8.90242L44.9453 10.3862C45.1018 10.6362 45.1959 10.7823 45.2235 10.8194L46.2315 12.2777C46.3532 12.4482 46.4892 12.6508 46.6326 12.8785C46.7759 13.1062 46.9651 13.4141 47.1921 13.7926C47.5679 13.7834 47.8829 13.7817 48.1341 13.7817C48.387 13.7817 48.6922 13.7835 49.0475 13.7926C47.7348 11.9923 46.9355 10.8616 46.6459 10.3942L46.9964 9.96621L48.9488 7.70526C48.5494 7.71436 48.222 7.71864 47.9623 7.71864C47.7715 7.71864 47.4703 7.71436 47.0627 7.70526C46.8459 8.0004 46.6659 8.24445 46.5219 8.43126C46.3792 8.61753 46.2557 8.77453 46.1533 8.90242Z" fill="#232323"/>
<path d="M51.9137 13.8102C52.0317 12.6063 52.1267 11.2704 52.1967 9.79402C52.2701 8.3242 52.3099 6.93589 52.3195 5.64264C52.7253 5.64631 53.0614 5.64993 53.3276 5.64993C53.5119 5.64993 53.8009 5.64631 54.2008 5.64264C54.1477 6.35899 54.1007 7.17885 54.0563 8.09539L53.9369 10.4946C53.8996 11.1791 53.8732 11.8601 53.8564 12.5419L54.8789 12.5529C55.8339 12.5529 56.4627 12.5509 56.765 12.5455C57.0637 12.5396 57.3598 12.5244 57.6514 12.5139C57.6164 12.9016 57.5851 13.3327 57.5575 13.8103C56.5193 13.8017 55.6304 13.797 54.8946 13.797L53.0275 13.8043L51.9137 13.8102Z" fill="#232323"/>
<path d="M58.8185 9.05754C58.8739 8.7709 58.91 8.56698 58.9245 8.45323C58.9377 8.33636 58.9607 8.16232 58.9968 7.92677C59.5327 7.79899 60.006 7.70771 60.4179 7.65597C60.8299 7.60543 61.2262 7.57867 61.608 7.57867C62.0415 7.57867 62.4402 7.63042 62.8026 7.73205C63.1689 7.83308 63.4519 7.99551 63.6579 8.2196C63.8626 8.44353 63.9637 8.76306 63.9637 9.18115C63.9637 9.40941 63.9337 9.99125 63.8709 10.9229C63.8083 11.8531 63.7711 12.8152 63.7614 13.8102C63.4591 13.8017 63.182 13.797 62.9291 13.797C62.6894 13.797 62.4064 13.8017 62.0812 13.8102C62.1341 13.3284 62.1765 12.7664 62.2078 12.1331L62.2872 10.6418C62.1366 10.7453 62.0223 10.8122 61.9415 10.8522C61.8619 10.8907 61.7717 10.9309 61.6753 10.9643C61.5766 10.9979 61.402 11.0494 61.1551 11.1184C60.9033 11.19 60.707 11.2505 60.5552 11.2997C60.4059 11.3556 60.2685 11.413 60.1493 11.4768C60.0278 11.5449 59.9278 11.6188 59.8435 11.7008C59.7603 11.7842 59.699 11.8663 59.6652 11.9546C59.6254 12.0452 59.6061 12.1409 59.6061 12.251C59.6061 12.4134 59.653 12.5591 59.7519 12.6813C59.8481 12.7988 59.9663 12.8859 60.1155 12.9357C60.2637 12.9837 60.4349 13.0045 60.6311 13.0045C60.7576 13.0045 60.8913 12.9978 61.0333 12.9796C61.1707 12.959 61.3585 12.907 61.5982 12.8279C61.5115 13.0542 61.4187 13.3934 61.3067 13.8456C61.0236 13.8924 60.8032 13.9246 60.6347 13.9344C60.4721 13.9461 60.3167 13.9516 60.1722 13.9516C59.6784 13.9516 59.2677 13.8826 58.9497 13.7505C58.6305 13.613 58.3945 13.3971 58.2415 13.1011C58.0885 12.8086 58.0139 12.5138 58.0139 12.2115C58.0139 12.0405 58.0427 11.8698 58.1018 11.7008C58.1607 11.534 58.2486 11.3825 58.3631 11.2443C58.4738 11.1006 58.6269 10.9667 58.8075 10.8372C58.9906 10.7088 59.2518 10.5828 59.5928 10.4598C59.9409 10.3394 60.3949 10.2181 60.9573 10.0947C61.1092 10.0619 61.2645 10.0217 61.4295 9.97798C61.5884 9.93035 61.7184 9.88534 61.8148 9.84209C61.9112 9.79407 61.9968 9.74292 62.0678 9.67172C62.1377 9.59991 62.1906 9.53045 62.2233 9.45442C62.2569 9.37899 62.2762 9.29687 62.2762 9.21827C62.2762 9.06127 62.2233 8.93223 62.1232 8.82632C62.0221 8.7174 61.892 8.64263 61.7318 8.59877C61.5691 8.55859 61.3958 8.5354 61.1995 8.5354C60.483 8.53535 59.6894 8.70824 58.8185 9.05754Z" fill="#232323"/>
<path fill-rule="evenodd" clip-rule="evenodd" d="M67.9734 15.515C67.3241 15.515 66.5544 15.3664 65.6632 15.073L65.7404 16.3717C66.2837 16.5021 66.7823 16.5896 67.2399 16.6396C67.6999 16.6876 68.1058 16.7083 68.4647 16.7083C68.8032 16.7083 69.1175 16.6833 69.4102 16.6279C69.7052 16.5726 69.9498 16.5021 70.1509 16.4182C70.3497 16.3299 70.5292 16.2167 70.687 16.079C70.8435 15.9367 70.9735 15.7778 71.0784 15.599C71.1771 15.415 71.2542 15.2106 71.3023 14.9885C71.3517 14.7602 71.3794 14.5279 71.3915 14.2842L71.4397 12.1377L71.5637 9.7616L71.6985 7.86645C71.0554 7.7526 70.54 7.67169 70.1486 7.63819C69.7547 7.59681 69.4066 7.57855 69.0971 7.57855C68.5419 7.57855 68.0361 7.64181 67.5807 7.75622C67.1242 7.87923 66.6979 8.09828 66.2956 8.41534C65.8934 8.73789 65.5899 9.14261 65.3851 9.63503C65.1766 10.1316 65.0742 10.6568 65.0742 11.2119C65.0742 11.6002 65.1345 11.9697 65.261 12.327C65.3873 12.686 65.5717 12.9818 65.8162 13.2149C66.0572 13.4504 66.3353 13.625 66.6485 13.7353C66.9603 13.8436 67.2891 13.9003 67.6372 13.9003C67.889 13.9003 68.1322 13.8691 68.3586 13.8109C68.5876 13.7535 68.7852 13.6782 68.9598 13.5862C69.1331 13.4925 69.279 13.3836 69.4018 13.2666C69.5259 13.151 69.663 12.9837 69.8149 12.775C69.7992 13.3099 69.7776 13.7121 69.7509 13.9781C69.7222 14.2424 69.6667 14.4759 69.5848 14.6768C69.5029 14.8757 69.386 15.0347 69.2355 15.1534C69.0838 15.2696 68.9007 15.3615 68.6803 15.4217C68.4575 15.4814 68.2214 15.515 67.9734 15.515ZM69.0344 8.81289C69.327 8.81289 69.645 8.84825 69.9895 8.9188C69.9713 9.42701 69.9545 9.86516 69.9292 10.2364C69.9064 10.6053 69.8714 10.9144 69.8257 11.1584C69.7824 11.4032 69.7051 11.6254 69.5932 11.8201C69.486 12.0187 69.3595 12.184 69.2198 12.3111C69.0764 12.4439 68.9175 12.5454 68.7428 12.6046C68.5658 12.6709 68.3778 12.7026 68.1744 12.7026C67.8937 12.7026 67.6324 12.6376 67.3999 12.5036C67.1615 12.3715 66.988 12.1799 66.8809 11.9218C66.7676 11.6618 66.7122 11.3826 66.7122 11.0838C66.7122 10.6783 66.8038 10.2919 66.9844 9.92552C67.1662 9.56449 67.4264 9.28881 67.7589 9.09591C68.0985 8.90663 68.5212 8.81289 69.0344 8.81289Z" fill="#232323"/>
<path fill-rule="evenodd" clip-rule="evenodd" d="M73.1246 9.85547C73.0415 11.7324 72.9596 13.0507 72.8908 13.8102C73.31 13.8016 73.5893 13.7969 73.7305 13.7969C73.9183 13.7969 74.1725 13.8016 74.4965 13.8102L74.5229 12.7934C74.6253 12.9619 74.7158 13.0964 74.7891 13.1944C74.8685 13.2881 74.9649 13.3836 75.0805 13.481C75.1974 13.5747 75.3287 13.6587 75.4769 13.7325C75.6249 13.8042 75.7865 13.8579 75.9634 13.8961C76.1392 13.9344 76.3297 13.9516 76.5356 13.9516C76.9618 13.9516 77.3534 13.8743 77.7158 13.7202C78.0807 13.563 78.3879 13.3186 78.6444 12.9838C78.8962 12.6544 79.0876 12.2697 79.2165 11.8425C79.3453 11.4165 79.4116 10.9709 79.4116 10.5176C79.4116 9.86703 79.2827 9.31195 79.0262 8.8579C78.7685 8.39782 78.4277 8.07341 78.0013 7.87502C77.5773 7.67592 77.0547 7.57862 76.4367 7.57862C76.2127 7.57862 75.985 7.592 75.7562 7.61875C75.5273 7.64375 75.2178 7.69418 74.8349 7.76906C74.8745 6.91286 74.9239 6.20369 74.9925 5.64258C74.9772 5.64277 74.962 5.64296 74.9467 5.64315C74.6713 5.64662 74.4131 5.64987 74.1699 5.64987C73.9474 5.64987 73.6905 5.64715 73.3961 5.64403C73.351 5.64355 73.3051 5.64307 73.2583 5.64258C73.2546 6.57437 73.2088 7.97961 73.1246 9.85547ZM74.6759 10.0142L74.7251 8.99069C75.0143 8.9066 75.2598 8.85123 75.4539 8.82136C75.6515 8.78973 75.8392 8.77761 76.0224 8.77761C76.5777 8.77761 77.0063 8.94185 77.2931 9.27174C77.576 9.6058 77.7231 10.0429 77.7231 10.5882C77.7231 10.9665 77.6568 11.3289 77.5302 11.671C77.4002 12.0135 77.2183 12.2777 76.9799 12.4536C76.7367 12.6313 76.4548 12.7232 76.1283 12.7232C75.8296 12.7232 75.5599 12.6422 75.3178 12.4883C75.0804 12.3314 74.9058 12.111 74.8095 11.8261C74.7083 11.5406 74.6589 11.1506 74.6589 10.657C74.6589 10.4488 74.6637 10.2321 74.6759 10.0142Z" fill="#232323"/>
<path fill-rule="evenodd" clip-rule="evenodd" d="M85.5841 13.7202C85.6805 13.1096 85.754 12.6861 85.8046 12.4505C85.3673 12.5954 84.9879 12.6976 84.6726 12.758C84.3521 12.8154 84.0582 12.847 83.7837 12.847C83.5524 12.847 83.3152 12.8103 83.0766 12.7349C82.8334 12.6607 82.6263 12.5494 82.454 12.3917C82.2807 12.2364 82.1468 12.0453 82.0554 11.8231C81.965 11.6005 81.9204 11.3557 81.9204 11.0874C81.9204 10.9979 81.9252 10.8812 81.9337 10.7308L86.2731 10.7257C86.3129 10.5268 86.3333 10.3357 86.3333 10.1494C86.3333 9.74715 86.2671 9.38683 86.1322 9.06127C86.0022 8.73993 85.8131 8.45992 85.5662 8.22925C85.3179 7.99984 85.0132 7.83308 84.6508 7.73205C84.2859 7.62856 83.904 7.57867 83.5017 7.57867C83.0765 7.57867 82.6658 7.64193 82.2769 7.76061C81.8855 7.88165 81.5386 8.09051 81.2303 8.38444C80.9256 8.67475 80.6847 9.05277 80.5172 9.51461C80.3451 9.97595 80.2607 10.4488 80.2607 10.9412C80.2607 11.3825 80.3343 11.8048 80.4811 12.2064C80.6292 12.6106 80.8568 12.9507 81.1628 13.2266C81.47 13.5041 81.8276 13.6923 82.2372 13.7969C82.6453 13.9021 83.1078 13.9515 83.6271 13.9515C83.921 13.9515 84.2171 13.9363 84.5086 13.9047C84.8013 13.8742 85.1602 13.8109 85.5841 13.7202ZM84.7543 10.0412L81.9805 10.0314C82.0178 9.84205 82.0553 9.68993 82.0974 9.57421C82.1395 9.46107 82.1961 9.3448 82.2769 9.2219C82.3575 9.1013 82.466 8.9869 82.5972 8.88713C82.7237 8.78972 82.8694 8.71484 83.0247 8.66133C83.1789 8.61079 83.3415 8.5853 83.5077 8.5853C83.6476 8.5853 83.7835 8.59868 83.9039 8.62905C84.0292 8.66556 84.14 8.70826 84.2352 8.77091C84.3302 8.83116 84.4122 8.90478 84.4832 8.99068C84.5532 9.08255 84.611 9.18605 84.6519 9.30045C84.6929 9.42335 84.7193 9.52438 84.7338 9.61264C84.7458 9.70824 84.7543 9.84994 84.7543 10.0412Z" fill="#232323"/>
</svg>
