<svg width="148" height="24" viewBox="0 0 148 24" fill="none" xmlns="http://www.w3.org/2000/svg">
<path d="M24 20.35C24 22.36 22.355 24 20.35 24H3.65C1.645 24 0 22.355 0 20.35V3.65C0 1.645 1.645 0 3.65 0H20.35C22.355 0 24 1.645 24 3.65V20.35Z" fill="#B00000"/>
<path fill-rule="evenodd" clip-rule="evenodd" d="M10.6 7.27502L11.085 8.11502H13.82V8.96002H10.6L10.115 8.12002H7.97501C7.79501 8.66502 7.28001 9.06002 6.67001 9.06002C5.92001 9.06002 5.30501 8.45002 5.30501 7.69502C5.30501 6.94002 5.91501 6.33002 6.67001 6.33002C7.28001 6.33002 7.79501 6.72502 7.97501 7.27502H10.6ZM6.15001 7.69502C6.15001 7.98502 6.38501 8.21502 6.67001 8.21502C6.96001 8.21502 7.19001 7.98502 7.19001 7.69502C7.19001 7.40502 6.96001 7.17502 6.67001 7.17502C6.38001 7.17502 6.15001 7.40502 6.15001 7.69502ZM16.01 16.305C16.01 15.55 16.62 14.935 17.375 14.935C18.13 14.935 18.745 15.55 18.745 16.305C18.745 17.06 18.13 17.67 17.375 17.67C16.625 17.67 16.01 17.06 16.01 16.305ZM16.855 16.305C16.855 16.59 17.09 16.825 17.375 16.825C17.665 16.825 17.895 16.595 17.895 16.305C17.895 16.02 17.665 15.78 17.375 15.78C17.09 15.78 16.855 16.02 16.855 16.305ZM10.555 10.355C10.37 9.81502 9.86001 9.42502 9.26001 9.42502C8.51001 9.42502 7.90001 10.04 7.90001 10.79C7.90001 11.545 9.26001 12.85 9.26001 12.85C9.26001 12.85 10.215 11.94 10.53 11.2H12.985V15.035H11.49V15.04L11 15.88H7.97501C7.79501 15.335 7.28501 14.94 6.67501 14.94C5.92501 14.94 5.31001 15.555 5.31001 16.31C5.31001 17.065 5.92001 17.675 6.67501 17.675C7.28501 17.675 7.80501 17.275 7.98001 16.725H11.49L11.98 15.885H13.835V10.355H10.555ZM9.25501 11.31C8.97001 11.31 8.73501 11.08 8.73501 10.79C8.73501 10.505 8.96501 10.27 9.25501 10.27C9.54501 10.27 9.78001 10.505 9.78001 10.79C9.78501 11.08 9.54501 11.31 9.25501 11.31ZM6.15001 16.305C6.15001 16.59 6.38501 16.825 6.67001 16.825C6.96001 16.825 7.19001 16.59 7.19001 16.305C7.19001 16.02 6.96001 15.78 6.67001 15.78C6.38001 15.78 6.15001 16.02 6.15001 16.305ZM10.62 12.94L10.625 12.935H12.495V13.78H11.11L10.625 14.62V14.625H7.89501V14.62L7.89001 14.625L7.41001 13.785H5.73001C5.55001 14.33 5.04001 14.725 4.43001 14.725C3.68001 14.725 3.07001 14.11 3.07001 13.36C3.07001 12.605 3.68001 11.995 4.43001 11.995C5.04001 11.995 5.55501 12.39 5.73001 12.935H7.90001L8.39001 13.775H10.14L10.62 12.94ZM3.91001 13.36C3.91001 13.645 4.14501 13.88 4.42501 13.88C4.71501 13.88 4.95001 13.65 4.95001 13.36C4.95001 13.075 4.71501 12.835 4.42501 12.835C4.14001 12.835 3.91001 13.07 3.91001 13.36ZM20.75 14.935H20.46V14.505H20.72V13.51H20.46V11.55C20.46 11.55 20.33 11.135 20.175 10.87C19.455 9.67002 18.375 8.34002 18.375 8.34002C18.375 8.34002 18.12 7.96502 17.53 7.96502H15.085C15.085 7.96502 14.655 7.96502 14.67 8.44002V14.94V16.035H15.535C15.535 16.035 15.685 14.44 17.38 14.44C19.075 14.44 19.19 16.025 19.19 16.035C19.19 16.05 20.725 16.035 20.725 16.035C20.725 16.035 20.94 16.015 20.94 15.785V15.13C20.935 15.12 20.945 14.935 20.75 14.935ZM16.595 12.28H15.905C15.8 12.28 15.715 12.195 15.715 12.09C15.715 11.985 15.805 11.9 15.905 11.9H16.595C16.7 11.9 16.785 11.985 16.785 12.09C16.785 12.195 16.705 12.28 16.595 12.28ZM15.935 11.235H18.79C19.225 11.235 18.925 10.795 18.925 10.795L17.715 9.08502H15.895C15.66 9.08502 15.72 9.25502 15.72 9.25502V11.07C15.715 11.255 15.935 11.235 15.935 11.235Z" fill="white"/>
<path d="M33.7534 18.5017L33.9723 15.506L34.1978 11.0407L34.3406 6.65555H33.6331L32.9728 6.66175L32.3445 6.66795L30 6.74529C30.0534 5.76036 30.0874 5.01234 30.0941 4.50009C32.0395 4.51052 34.0779 4.51663 36.208 4.51663L39.856 4.51043L41.8067 4.5C41.7331 5.4713 41.7024 6.21942 41.7024 6.7452C40.4773 6.68365 39.3026 6.65555 38.1779 6.65555H37.3973L37.2791 8.52204L36.9824 15.7369L36.9646 16.9405C36.9576 17.4412 36.9529 17.9641 36.9529 18.5016L35.4096 18.4828C35.2431 18.4829 34.6896 18.4859 33.7534 18.5017Z" fill="#232323"/>
<path d="M42.582 18.5017L42.8787 13.6313L42.9601 10.7976C42.9718 10.2206 42.9794 9.63016 42.9794 9.04273C42.9794 8.93833 42.9718 8.61694 42.9601 8.06626C43.5878 8.08186 44.0554 8.08919 44.3508 8.08919C44.6962 8.08919 45.1539 8.08186 45.7203 8.06626L45.6683 9.51758C45.9292 9.14498 46.1471 8.86644 46.3303 8.68695C46.5105 8.50652 46.7182 8.35109 46.9453 8.22169C47.1722 8.08919 47.4226 7.99306 47.6984 7.92953C47.9789 7.85539 48.2631 7.82306 48.5535 7.82306C48.8277 7.82306 49.1016 7.85539 49.3854 7.92953C49.3854 8.55765 49.4149 9.37145 49.4814 10.3447C49.0774 10.2331 48.7187 10.181 48.3925 10.181C47.9987 10.181 47.6477 10.2404 47.3506 10.3615C47.0489 10.4783 46.7783 10.6598 46.5363 10.906C46.2962 11.1472 46.1001 11.4455 45.9474 11.8034C45.8143 12.0874 45.7203 12.4609 45.6603 12.9198C45.6066 13.2742 45.5613 13.8837 45.5255 14.7466C45.49 15.6095 45.4718 16.4566 45.4718 17.2873C45.4718 17.6093 45.4801 18.0197 45.503 18.5017C44.9853 18.486 44.5144 18.4829 44.0875 18.4829C43.671 18.4829 43.1679 18.4859 42.582 18.5017Z" fill="#232323"/>
<path d="M61.1437 18.5017C60.548 18.486 60.0906 18.4829 59.7719 18.4829C59.3716 18.4829 58.9205 18.4859 58.4124 18.5017L58.4307 16.7966C58.2422 17.0845 58.0763 17.3142 57.9302 17.4915C57.7862 17.6659 57.6047 17.8359 57.3738 18.0039C57.142 18.1739 56.8922 18.3085 56.623 18.4066C56.3534 18.5017 56.0451 18.584 55.6947 18.653C55.3443 18.7186 54.9741 18.7447 54.5812 18.7447C53.8268 18.7447 53.1635 18.6363 52.6018 18.4174C52.0434 18.1958 51.599 17.8591 51.2728 17.4032C50.942 16.9544 50.7776 16.3044 50.7776 15.4633V15.2517L50.9433 12.5985L51.0909 9.11577C51.1009 8.8363 51.1075 8.48766 51.1075 8.06628C51.7479 8.08188 52.2526 8.08921 52.6146 8.08921C53.0025 8.08921 53.4684 8.08188 54.0165 8.06628L53.6761 12.7425C53.6579 13.1117 53.6403 13.4135 53.6304 13.6619C53.6221 13.9099 53.6125 14.0977 53.6125 14.2011C53.6125 14.6955 53.6904 15.1025 53.835 15.4311C53.9811 15.7504 54.2325 16.0028 54.5942 16.1698C54.9561 16.3408 55.3443 16.4295 55.7577 16.4295C56.1491 16.4295 56.5207 16.3535 56.8695 16.2002C57.1923 16.0623 57.4616 15.8742 57.6888 15.6292C57.9174 15.3883 58.1058 15.0482 58.2601 14.6382C58.3753 14.3332 58.4644 13.9172 58.5261 13.3851C58.5751 13.0051 58.6204 12.3625 58.6578 11.4424C58.7144 10.3323 58.7515 9.21078 58.7727 8.06628C59.4411 8.08188 59.9574 8.08921 60.3078 8.08921C60.7069 8.08921 61.158 8.08188 61.6593 8.06628C61.5782 9.04276 61.4941 10.2676 61.4063 11.7377C61.3202 13.2013 61.2587 14.4087 61.2245 15.3685C61.1891 16.3187 61.1663 17.3643 61.1437 18.5017Z" fill="#232323"/>
<path d="M71.7525 16.132C71.7184 16.4065 71.6664 16.7278 71.5982 17.0846C71.5304 17.4414 71.4604 17.8819 71.3856 18.4067C70.4188 18.6303 69.4614 18.7447 68.5235 18.7447C67.9731 18.7447 67.4462 18.6978 66.9382 18.5894C66.4318 18.4889 65.9595 18.3086 65.5197 18.0445C65.0852 17.7774 64.7037 17.4374 64.3692 17.0016C64.0371 16.5715 63.7916 16.0511 63.6198 15.4386C63.4595 14.8293 63.376 14.1928 63.376 13.5468C63.376 12.682 63.5108 11.8609 63.782 11.0669C64.0641 10.2699 64.4603 9.62079 64.9892 9.11897C65.5198 8.61706 66.1057 8.27604 66.7531 8.09645C67.3972 7.91283 68.1163 7.82318 68.9081 7.82318C69.3479 7.82318 69.8007 7.84404 70.2647 7.89836C70.7369 7.95258 71.2851 8.04966 71.9196 8.21345L72.079 10.4567C71.0679 10.1061 70.1899 9.93485 69.4388 9.93485C68.9811 9.93485 68.5462 10.0142 68.1359 10.1718C67.7285 10.3261 67.3782 10.5787 67.086 10.9125C66.791 11.2506 66.5813 11.647 66.4564 12.0875C66.3316 12.5347 66.268 12.9919 66.268 13.4585C66.268 14.1041 66.37 14.6687 66.5683 15.14C66.7627 15.6126 67.1118 15.9851 67.5953 16.2472C68.0822 16.505 68.6402 16.6361 69.2617 16.6361C69.5635 16.6361 69.9337 16.5967 70.3666 16.5183C70.7997 16.4389 71.2673 16.3093 71.7525 16.132Z" fill="#232323"/>
<path fill-rule="evenodd" clip-rule="evenodd" d="M74.0245 15.8361L73.8214 18.5017C74.4149 18.4859 74.91 18.4829 75.3005 18.483C75.6428 18.483 76.1158 18.4861 76.7146 18.5018L76.7268 17.118L76.8282 13.1465L77.0676 7.82629L77.2793 4.50012C76.7043 4.51046 76.246 4.51666 75.893 4.51666C75.5955 4.51666 75.0948 4.51055 74.3861 4.50012C74.3861 4.92986 74.381 5.53815 74.3649 6.33428L74.2576 10.7162L74.0245 15.8361ZM79.12 10.1185L77.0491 12.662C77.3174 13.0907 77.4787 13.3412 77.5259 13.4048L79.254 15.9047C79.4627 16.1969 79.6958 16.5443 79.9416 16.9346C80.1873 17.3249 80.5116 17.8527 80.9007 18.5017C81.5449 18.4859 82.085 18.4829 82.5155 18.4829C82.9491 18.4829 83.4723 18.486 84.0814 18.5017C81.831 15.4154 80.4609 13.4771 79.9644 12.6758L80.5652 11.9421L83.9122 8.0662C83.2276 8.0818 82.6663 8.08913 82.2212 8.08913C81.8939 8.08913 81.3776 8.0818 80.6788 8.0662C80.3073 8.57215 79.9987 8.99052 79.7519 9.31078C79.5071 9.6301 79.2955 9.89924 79.12 10.1185Z" fill="#232323"/>
<path d="M88.9948 18.5317C89.1972 16.468 89.3601 14.1778 89.48 11.6469C89.6059 9.12718 89.6741 6.74722 89.6906 4.53021C90.3862 4.53651 90.9624 4.54271 91.4187 4.54271C91.7347 4.54271 92.2301 4.53651 92.9157 4.53021C92.8246 5.75825 92.7441 7.16371 92.668 8.73494L92.4633 12.8478C92.3993 14.0213 92.3541 15.1887 92.3252 16.3575L94.0782 16.3763C95.7152 16.3763 96.7932 16.373 97.3115 16.3637C97.8235 16.3536 98.3311 16.3275 98.8309 16.3094C98.771 16.9741 98.7173 17.7132 98.67 18.5319C96.8902 18.5172 95.3665 18.5091 94.1049 18.5091L90.9044 18.5216L88.9948 18.5317Z" fill="#232323"/>
<path d="M100.832 10.3844C100.927 9.893 100.989 9.54342 101.013 9.34843C101.036 9.14808 101.075 8.84971 101.137 8.44591C102.056 8.22686 102.867 8.07039 103.573 7.98168C104.28 7.89504 104.959 7.84918 105.614 7.84918C106.357 7.84918 107.04 7.93789 107.662 8.11212C108.289 8.28531 108.775 8.56375 109.128 8.94791C109.479 9.33179 109.652 9.87956 109.652 10.5963C109.652 10.9876 109.601 11.985 109.493 13.5822C109.386 15.1767 109.322 16.8261 109.305 18.5318C108.787 18.5172 108.312 18.5091 107.879 18.5091C107.468 18.5091 106.982 18.5172 106.425 18.5318C106.516 17.7058 106.588 16.7425 106.642 15.6567L106.778 13.1002C106.52 13.2776 106.324 13.3924 106.185 13.461C106.049 13.5269 105.894 13.5959 105.729 13.6531C105.56 13.7106 105.26 13.7991 104.837 13.9172C104.406 14.04 104.069 14.1438 103.809 14.2282C103.553 14.3239 103.317 14.4223 103.113 14.5317C102.905 14.6485 102.733 14.7751 102.589 14.9157C102.446 15.0586 102.341 15.1995 102.283 15.3508C102.215 15.5061 102.182 15.6701 102.182 15.8589C102.182 16.1373 102.262 16.387 102.432 16.5966C102.597 16.798 102.799 16.9474 103.055 17.0327C103.309 17.115 103.603 17.1505 103.939 17.1505C104.156 17.1505 104.385 17.1392 104.629 17.108C104.864 17.0725 105.186 16.9834 105.597 16.8479C105.448 17.2359 105.289 17.8173 105.097 18.5924C104.612 18.6728 104.234 18.728 103.945 18.7447C103.666 18.7648 103.4 18.7742 103.152 18.7742C102.306 18.7742 101.602 18.656 101.057 18.4294C100.509 18.1938 100.105 17.8236 99.8425 17.3162C99.5802 16.8148 99.4523 16.3094 99.4523 15.7912C99.4523 15.498 99.5017 15.2055 99.603 14.9157C99.704 14.6298 99.8547 14.3701 100.051 14.1331C100.241 13.8868 100.503 13.6572 100.813 13.4353C101.127 13.215 101.574 12.9992 102.159 12.7883C102.756 12.5818 103.534 12.374 104.498 12.1624C104.759 12.1062 105.025 12.0373 105.308 11.9623C105.58 11.8806 105.803 11.8035 105.968 11.7293C106.133 11.647 106.28 11.5593 106.402 11.4373C106.522 11.3141 106.612 11.1951 106.668 11.0647C106.726 10.9354 106.759 10.7947 106.759 10.6599C106.759 10.3908 106.668 10.1696 106.497 9.988C106.324 9.80128 106.1 9.6731 105.826 9.59792C105.547 9.52904 105.25 9.48929 104.913 9.48929C103.685 9.4892 102.325 9.78559 100.832 10.3844Z" fill="#232323"/>
<path fill-rule="evenodd" clip-rule="evenodd" d="M116.526 21.4544C115.413 21.4544 114.093 21.1996 112.565 20.6966L112.698 22.9229C113.629 23.1466 114.484 23.2964 115.268 23.3822C116.057 23.4645 116.753 23.5 117.368 23.5C117.948 23.5 118.487 23.4571 118.989 23.3621C119.495 23.2674 119.914 23.1466 120.259 23.0027C120.599 22.8514 120.907 22.6572 121.178 22.4213C121.446 22.1773 121.669 21.9048 121.849 21.5983C122.018 21.283 122.15 20.9326 122.232 20.5517C122.317 20.1605 122.365 19.7621 122.385 19.3444L122.468 15.6646L122.681 11.5914L122.912 8.34254C121.809 8.14736 120.926 8.00866 120.255 7.95124C119.579 7.88029 118.983 7.849 118.452 7.849C117.5 7.849 116.633 7.95744 115.853 8.15357C115.07 8.36444 114.339 8.73996 113.65 9.2835C112.96 9.83643 112.44 10.5302 112.089 11.3744C111.731 12.2257 111.556 13.126 111.556 14.0776C111.556 14.7433 111.659 15.3766 111.876 15.9891C112.093 16.6046 112.408 17.1117 112.828 17.5114C113.241 17.915 113.718 18.2143 114.254 18.4034C114.789 18.5892 115.353 18.6862 115.949 18.6862C116.381 18.6862 116.798 18.6328 117.186 18.533C117.579 18.4346 117.917 18.3055 118.217 18.1478C118.514 17.9872 118.764 17.8004 118.975 17.5999C119.187 17.4018 119.422 17.115 119.683 16.7572C119.656 17.6742 119.619 18.3637 119.573 18.8196C119.524 19.2727 119.429 19.673 119.288 20.0175C119.148 20.3585 118.947 20.6309 118.689 20.8345C118.429 21.0336 118.115 21.1913 117.738 21.2944C117.356 21.3968 116.951 21.4544 116.526 21.4544ZM118.345 9.96499C118.846 9.96499 119.391 10.0256 119.982 10.1465C119.951 11.0178 119.922 11.7689 119.879 12.4054C119.84 13.0377 119.78 13.5675 119.701 13.9859C119.627 14.4056 119.494 14.7865 119.303 15.1202C119.119 15.4606 118.902 15.744 118.662 15.962C118.417 16.1896 118.144 16.3636 117.845 16.465C117.541 16.5788 117.219 16.633 116.87 16.633C116.389 16.633 115.941 16.5216 115.543 16.292C115.134 16.0654 114.837 15.7371 114.653 15.2946C114.459 14.8488 114.364 14.3702 114.364 13.858C114.364 13.1628 114.521 12.5005 114.83 11.8724C115.142 11.2534 115.588 10.7809 116.158 10.4502C116.74 10.1257 117.465 9.96499 118.345 9.96499Z" fill="#232323"/>
<path fill-rule="evenodd" clip-rule="evenodd" d="M125.356 11.7522C125.214 14.9698 125.074 17.2297 124.956 18.5317C125.674 18.517 126.153 18.509 126.395 18.509C126.717 18.509 127.153 18.5171 127.708 18.5317L127.754 16.7886C127.929 17.0775 128.084 17.3081 128.21 17.4761C128.346 17.6368 128.511 17.8005 128.709 17.9675C128.91 18.1281 129.135 18.272 129.389 18.3986C129.643 18.5215 129.92 18.6135 130.223 18.6791C130.524 18.7447 130.851 18.7742 131.204 18.7742C131.934 18.7742 132.606 18.6417 133.227 18.3775C133.853 18.1081 134.379 17.6891 134.819 17.1151C135.251 16.5504 135.579 15.891 135.8 15.1587C136.021 14.4283 136.134 13.6645 136.134 12.8873C136.134 11.7721 135.913 10.8205 135.473 10.0421C135.032 9.25342 134.447 8.69728 133.717 8.3572C132.99 8.01589 132.094 7.84909 131.034 7.84909C130.65 7.84909 130.26 7.87201 129.868 7.91787C129.475 7.96073 128.945 8.04718 128.288 8.17555C128.356 6.70778 128.441 5.49206 128.559 4.53015C128.532 4.53048 128.506 4.53081 128.48 4.53114C128.008 4.53708 127.565 4.54265 127.148 4.54265C126.767 4.54265 126.327 4.53798 125.822 4.53264C125.745 4.53182 125.666 4.53099 125.586 4.53015C125.579 6.1275 125.501 8.5365 125.356 11.7522ZM128.016 12.0244L128.1 10.2697C128.596 10.1256 129.017 10.0307 129.349 9.97945C129.688 9.92523 130.01 9.90446 130.324 9.90446C131.276 9.90446 132.011 10.186 132.502 10.7515C132.987 11.3242 133.24 12.0734 133.24 13.0083C133.24 13.6569 133.126 14.2781 132.909 14.8645C132.686 15.4517 132.374 15.9045 131.965 16.2061C131.549 16.5108 131.065 16.6683 130.506 16.6683C129.994 16.6683 129.531 16.5295 129.116 16.2657C128.709 15.9966 128.41 15.6188 128.245 15.1304C128.071 14.6411 127.987 13.9724 127.987 13.1262C127.987 12.7694 127.995 12.3979 128.016 12.0244Z" fill="#232323"/>
<path fill-rule="evenodd" clip-rule="evenodd" d="M146.716 18.3774C146.881 17.3308 147.007 16.6048 147.093 16.2008C146.344 16.4492 145.694 16.6246 145.153 16.728C144.603 16.8264 144.1 16.8806 143.629 16.8806C143.233 16.8806 142.826 16.8177 142.417 16.6885C142 16.5612 141.645 16.3705 141.35 16.1C141.053 15.8339 140.823 15.5062 140.666 15.1253C140.511 14.7437 140.435 14.324 140.435 13.8641C140.435 13.7107 140.443 13.5107 140.458 13.2529L147.897 13.2442C147.965 12.9031 148 12.5755 148 12.2561C148 11.5666 147.886 10.9489 147.655 10.3908C147.432 9.8399 147.108 9.35989 146.685 8.96445C146.259 8.57118 145.737 8.28531 145.116 8.11212C144.49 7.9347 143.835 7.84918 143.146 7.84918C142.417 7.84918 141.713 7.95763 141.046 8.16108C140.375 8.36857 139.78 8.72661 139.252 9.23049C138.73 9.72817 138.317 10.3762 138.029 11.1679C137.734 11.9588 137.59 12.7694 137.59 13.6136C137.59 14.37 137.716 15.0939 137.968 15.7825C138.221 16.4753 138.612 17.0583 139.136 17.5313C139.663 18.007 140.276 18.3296 140.978 18.509C141.678 18.6894 142.471 18.7741 143.361 18.7741C143.864 18.7741 144.372 18.748 144.872 18.6937C145.374 18.6416 145.989 18.5331 146.716 18.3774ZM145.293 12.0706L140.538 12.0539C140.602 11.7292 140.666 11.4685 140.738 11.2701C140.811 11.0761 140.908 10.8768 141.046 10.6661C141.184 10.4594 141.37 10.2633 141.595 10.0922C141.812 9.92523 142.062 9.79686 142.328 9.70515C142.592 9.6185 142.871 9.57481 143.156 9.57481C143.396 9.57481 143.629 9.59774 143.835 9.6498C144.05 9.71238 144.24 9.78559 144.403 9.893C144.566 9.99627 144.707 10.1225 144.828 10.2697C144.948 10.4272 145.047 10.6047 145.118 10.8008C145.188 11.0115 145.233 11.1847 145.258 11.336C145.279 11.4998 145.293 11.7428 145.293 12.0706Z" fill="#232323"/>
</svg>
