<svg width="124" height="24" viewBox="0 0 124 24" fill="none" xmlns="http://www.w3.org/2000/svg">
<path d="M20 18.9583C20 20.6333 18.6292 22 16.9583 22H3.04167C1.37083 22 0 20.6292 0 18.9583V5.04167C0 3.37083 1.37083 2 3.04167 2H16.9583C18.6292 2 20 3.37083 20 5.04167V18.9583Z" fill="#B00000"/>
<path fill-rule="evenodd" clip-rule="evenodd" d="M8.83335 8.06252L9.23752 8.76252H11.5167V9.46669H8.83335L8.42918 8.76669H6.64585C6.49585 9.22086 6.06668 9.55002 5.55835 9.55002C4.93335 9.55002 4.42085 9.04169 4.42085 8.41252C4.42085 7.78336 4.92918 7.27502 5.55835 7.27502C6.06668 7.27502 6.49585 7.60419 6.64585 8.06252H8.83335ZM5.12502 8.41252C5.12502 8.65419 5.32085 8.84586 5.55835 8.84586C5.80002 8.84586 5.99168 8.65419 5.99168 8.41252C5.99168 8.17086 5.80002 7.97919 5.55835 7.97919C5.31668 7.97919 5.12502 8.17086 5.12502 8.41252ZM13.3417 15.5875C13.3417 14.9584 13.85 14.4459 14.4792 14.4459C15.1083 14.4459 15.6209 14.9584 15.6209 15.5875C15.6209 16.2167 15.1083 16.725 14.4792 16.725C13.8542 16.725 13.3417 16.2167 13.3417 15.5875ZM14.0458 15.5875C14.0458 15.825 14.2417 16.0209 14.4792 16.0209C14.7208 16.0209 14.9125 15.8292 14.9125 15.5875C14.9125 15.35 14.7208 15.15 14.4792 15.15C14.2417 15.15 14.0458 15.35 14.0458 15.5875ZM8.79585 10.6292C8.64168 10.1792 8.21668 9.85419 7.71668 9.85419C7.09168 9.85419 6.58335 10.3667 6.58335 10.9917C6.58335 11.6209 7.71668 12.7084 7.71668 12.7084C7.71668 12.7084 8.51252 11.95 8.77502 11.3334H10.8208V14.5292H9.57502V14.5334L9.16668 15.2334H6.64585C6.49585 14.7792 6.07085 14.45 5.56252 14.45C4.93752 14.45 4.42502 14.9625 4.42502 15.5917C4.42502 16.2209 4.93335 16.7292 5.56252 16.7292C6.07085 16.7292 6.50418 16.3959 6.65002 15.9375H9.57502L9.98335 15.2375H11.5292V10.6292H8.79585ZM7.71252 11.425C7.47502 11.425 7.27918 11.2334 7.27918 10.9917C7.27918 10.7542 7.47085 10.5584 7.71252 10.5584C7.95418 10.5584 8.15002 10.7542 8.15002 10.9917C8.15418 11.2334 7.95418 11.425 7.71252 11.425ZM5.12502 15.5875C5.12502 15.825 5.32085 16.0209 5.55835 16.0209C5.80002 16.0209 5.99168 15.825 5.99168 15.5875C5.99168 15.35 5.80002 15.15 5.55835 15.15C5.31668 15.15 5.12502 15.35 5.12502 15.5875ZM8.85002 12.7834L8.85418 12.7792H10.4125V13.4834H9.25835L8.85418 14.1834V14.1875H6.57918V14.1834L6.57502 14.1875L6.17502 13.4875H4.77502C4.62502 13.9417 4.20002 14.2709 3.69168 14.2709C3.06668 14.2709 2.55835 13.7584 2.55835 13.1334C2.55835 12.5042 3.06668 11.9959 3.69168 11.9959C4.20002 11.9959 4.62918 12.325 4.77502 12.7792H6.58335L6.99168 13.4792H8.45002L8.85002 12.7834ZM3.25835 13.1334C3.25835 13.3709 3.45418 13.5667 3.68752 13.5667C3.92918 13.5667 4.12502 13.375 4.12502 13.1334C4.12502 12.8959 3.92918 12.6959 3.68752 12.6959C3.45002 12.6959 3.25835 12.8917 3.25835 13.1334ZM17.2917 14.4459H17.05V14.0875H17.2667V13.2584H17.05V11.625C17.05 11.625 16.9417 11.2792 16.8125 11.0584C16.2125 10.0584 15.3125 8.95002 15.3125 8.95002C15.3125 8.95002 15.1 8.63752 14.6084 8.63752H12.5708C12.5708 8.63752 12.2125 8.63752 12.225 9.03336V14.45V15.3625H12.9458C12.9458 15.3625 13.0708 14.0334 14.4833 14.0334C15.8958 14.0334 15.9917 15.3542 15.9917 15.3625C15.9917 15.375 17.2708 15.3625 17.2708 15.3625C17.2708 15.3625 17.45 15.3459 17.45 15.1542V14.6084C17.4458 14.6 17.4542 14.4459 17.2917 14.4459ZM13.8292 12.2334H13.2542C13.1667 12.2334 13.0958 12.1625 13.0958 12.075C13.0958 11.9875 13.1708 11.9167 13.2542 11.9167H13.8292C13.9167 11.9167 13.9875 11.9875 13.9875 12.075C13.9875 12.1625 13.9208 12.2334 13.8292 12.2334ZM13.2792 11.3625H15.6584C16.0209 11.3625 15.7708 10.9959 15.7708 10.9959L14.7625 9.57086H13.2458C13.05 9.57086 13.1 9.71252 13.1 9.71252V11.225C13.0958 11.3792 13.2792 11.3625 13.2792 11.3625Z" fill="white"/>
<path d="M28.1278 17.4181L28.3102 14.9217L28.4982 11.2006L28.6171 7.54629H28.0276L27.4773 7.55146L26.9537 7.55663L25 7.62108C25.0445 6.8003 25.0728 6.17695 25.0784 5.75008C26.6996 5.75877 28.3982 5.76386 30.1734 5.76386L33.2133 5.75869L34.8389 5.75C34.7776 6.55942 34.752 7.18285 34.752 7.621C33.7311 7.56971 32.7522 7.54629 31.8149 7.54629H31.1644L31.0659 9.1017L30.8187 15.1141L30.8038 16.1171C30.798 16.5343 30.7941 16.97 30.7941 17.418L29.508 17.4023C29.3692 17.4024 28.908 17.4049 28.1278 17.4181Z" fill="#232323"/>
<path d="M35.485 17.4181L35.7322 13.3595L35.8001 10.998C35.8098 10.5172 35.8162 10.0251 35.8162 9.53562C35.8162 9.44862 35.8098 9.1808 35.8001 8.72189C36.3232 8.73489 36.7128 8.741 36.959 8.741C37.2469 8.741 37.6283 8.73489 38.1002 8.72189L38.0569 9.93133C38.2743 9.62082 38.456 9.38871 38.6086 9.23914C38.7588 9.08878 38.9318 8.95925 39.1211 8.85142C39.3102 8.741 39.5188 8.66089 39.7487 8.60795C39.9824 8.54616 40.2192 8.51923 40.4612 8.51923C40.6897 8.51923 40.918 8.54616 41.1545 8.60795C41.1545 9.13138 41.1791 9.80955 41.2346 10.6206C40.8979 10.5276 40.5989 10.4842 40.3271 10.4842C39.999 10.4842 39.7064 10.5337 39.4589 10.6346C39.2074 10.7319 38.9819 10.8832 38.7802 11.0884C38.5802 11.2893 38.4168 11.5379 38.2895 11.8362C38.1786 12.0728 38.1002 12.3841 38.0502 12.7665C38.0055 13.0619 37.9677 13.5698 37.9379 14.2888C37.9084 15.0079 37.8932 15.7139 37.8932 16.4061C37.8932 16.6744 37.9001 17.0164 37.9191 17.4181C37.4878 17.405 37.0953 17.4024 36.7396 17.4024C36.3925 17.4024 35.9732 17.4049 35.485 17.4181Z" fill="#232323"/>
<path d="M50.9531 17.4181C50.4566 17.405 50.0755 17.4024 49.8099 17.4024C49.4763 17.4024 49.1004 17.4049 48.677 17.4181L48.6922 15.9972C48.5351 16.2371 48.3969 16.4285 48.2752 16.5763C48.1551 16.7216 48.0039 16.8633 47.8115 17.0033C47.6183 17.1449 47.4102 17.2571 47.1858 17.3388C46.9612 17.4181 46.7042 17.4867 46.4122 17.5442C46.1203 17.5988 45.8117 17.6206 45.4843 17.6206C44.8556 17.6206 44.3029 17.5302 43.8348 17.3479C43.3695 17.1632 42.9991 16.8826 42.7273 16.5027C42.4516 16.1287 42.3147 15.587 42.3147 14.8861V14.7098L42.4527 12.4988L42.5757 9.5965C42.584 9.3636 42.5895 9.07307 42.5895 8.72192C43.1233 8.73492 43.5439 8.74103 43.8455 8.74103C44.1687 8.74103 44.557 8.73492 45.0138 8.72192L44.7301 12.6187C44.7149 12.9264 44.7003 13.178 44.692 13.3849C44.6851 13.5916 44.6771 13.7481 44.6771 13.8343C44.6771 14.2463 44.742 14.5854 44.8625 14.8593C44.9843 15.1254 45.1937 15.3357 45.4951 15.4748C45.7968 15.6173 46.1202 15.6913 46.4647 15.6913C46.7909 15.6913 47.1006 15.6279 47.3912 15.5002C47.6602 15.3853 47.8846 15.2285 48.074 15.0244C48.2645 14.8236 48.4215 14.5402 48.5501 14.1985C48.6461 13.9444 48.7203 13.5977 48.7717 13.1542C48.8125 12.8376 48.8504 12.3021 48.8815 11.5354C48.9287 10.6103 48.9596 9.67567 48.9773 8.72192C49.5342 8.73492 49.9644 8.74103 50.2565 8.74103C50.5891 8.74103 50.965 8.73492 51.3828 8.72192C51.3152 9.53565 51.2451 10.5564 51.1719 11.7814C51.1002 13.0011 51.0489 14.0073 51.0204 14.8071C50.9909 15.5989 50.9719 16.4703 50.9531 17.4181Z" fill="#232323"/>
<path d="M59.7938 15.4433C59.7653 15.672 59.722 15.9398 59.6652 16.2371C59.6086 16.5345 59.5504 16.9015 59.488 17.3389C58.6824 17.5252 57.8845 17.6206 57.103 17.6206C56.6442 17.6206 56.2052 17.5815 55.7818 17.4911C55.3598 17.4074 54.9663 17.2571 54.5998 17.0371C54.2377 16.8145 53.9198 16.5311 53.641 16.168C53.3643 15.8095 53.1597 15.3759 53.0165 14.8654C52.8829 14.3577 52.8133 13.8273 52.8133 13.289C52.8133 12.5683 52.9257 11.8841 53.1517 11.2224C53.3868 10.5582 53.7169 10.0173 54.1577 9.59911C54.5998 9.18086 55.0881 8.89667 55.6276 8.74701C56.1644 8.594 56.7636 8.51929 57.4235 8.51929C57.79 8.51929 58.1672 8.53667 58.5539 8.58194C58.9475 8.62712 59.4042 8.70802 59.933 8.84451L60.0658 10.7139C59.2232 10.4217 58.4916 10.279 57.8657 10.279C57.4843 10.279 57.1219 10.3451 56.7799 10.4765C56.4405 10.6051 56.1485 10.8155 55.905 11.0938C55.6592 11.3754 55.4844 11.7058 55.3804 12.0729C55.2763 12.4456 55.2233 12.8265 55.2233 13.2153C55.2233 13.7534 55.3083 14.2239 55.4736 14.6166C55.6356 15.0105 55.9265 15.3209 56.3294 15.5393C56.7351 15.7541 57.2001 15.8634 57.7181 15.8634C57.9696 15.8634 58.2781 15.8305 58.6388 15.7652C58.9998 15.6991 59.3894 15.5911 59.7938 15.4433Z" fill="#232323"/>
<path fill-rule="evenodd" clip-rule="evenodd" d="M61.6871 15.1967L61.5178 17.4181C62.0124 17.405 62.425 17.4024 62.7504 17.4025C63.0357 17.4025 63.4298 17.4051 63.9288 17.4182L63.939 16.2651L64.0235 12.9554L64.223 8.52193L64.3994 5.75012C63.9203 5.75874 63.5384 5.7639 63.2441 5.7639C62.9963 5.7639 62.579 5.75881 61.9884 5.75012C61.9884 6.10824 61.9842 6.61514 61.9707 7.27859L61.8813 10.9302L61.6871 15.1967ZM65.9333 10.4321L64.2076 12.5517C64.4312 12.909 64.5656 13.1177 64.605 13.1707L66.045 15.2539C66.2189 15.4975 66.4132 15.787 66.618 16.1122C66.8228 16.4374 67.093 16.8773 67.4173 17.4181C67.9541 17.4049 68.4042 17.4024 68.763 17.4024C69.1243 17.4024 69.5603 17.405 70.0678 17.4181C68.1925 14.8461 67.0507 13.2309 66.637 12.5632L67.1377 11.9518L69.9268 8.72185C69.3563 8.73485 68.8886 8.74096 68.5176 8.74096C68.245 8.74096 67.8147 8.73485 67.2324 8.72185C66.9227 9.14348 66.6656 9.49212 66.4599 9.759C66.256 10.0251 66.0796 10.2494 65.9333 10.4321Z" fill="#232323"/>
<path d="M74.1624 17.4431C74.331 15.7233 74.4667 13.8149 74.5667 11.7058C74.6716 9.60601 74.7284 7.62271 74.7422 5.77521C75.3218 5.78045 75.802 5.78562 76.1823 5.78562C76.4456 5.78562 76.8584 5.78045 77.4297 5.77521C77.3538 6.79857 77.2868 7.96979 77.2233 9.27914L77.0528 12.7066C76.9994 13.6844 76.9617 14.6573 76.9377 15.6313L78.3985 15.647C79.7627 15.647 80.661 15.6442 81.0929 15.6364C81.5196 15.628 81.9426 15.6063 82.3591 15.5912C82.3091 16.1451 82.2644 16.761 82.225 17.4433C80.7418 17.4311 79.472 17.4243 78.4208 17.4243L75.7536 17.4347L74.1624 17.4431Z" fill="#232323"/>
<path d="M84.0264 10.6537C84.1056 10.2442 84.1572 9.95288 84.1779 9.79038C84.1966 9.62343 84.2295 9.37479 84.2811 9.03829C85.0466 8.85575 85.7229 8.72536 86.3112 8.65143C86.8999 8.57923 87.4659 8.54102 88.0114 8.54102C88.6306 8.54102 89.2003 8.61494 89.718 8.76013C90.2413 8.90446 90.6456 9.13649 90.9398 9.45662C91.2323 9.77652 91.3767 10.233 91.3767 10.8303C91.3767 11.1564 91.3339 11.9875 91.2442 13.3185C91.1547 14.6473 91.1015 16.0218 91.0877 17.4432C90.6558 17.431 90.26 17.4243 89.8988 17.4243C89.5563 17.4243 89.1519 17.431 88.6874 17.4432C88.763 16.7549 88.8235 15.9521 88.8682 15.0473L88.9816 12.9169C88.7666 13.0647 88.6033 13.1603 88.4879 13.2175C88.3741 13.2725 88.2453 13.33 88.1076 13.3776C87.9666 13.4256 87.7171 13.4993 87.3643 13.5977C87.0047 13.7 86.7243 13.7865 86.5074 13.8568C86.2941 13.9366 86.0978 14.0186 85.9276 14.1098C85.754 14.2071 85.6111 14.3126 85.4907 14.4297C85.3718 14.5489 85.2843 14.6662 85.2359 14.7923C85.1791 14.9218 85.1515 15.0584 85.1515 15.2158C85.1515 15.4478 85.2185 15.6559 85.3598 15.8305C85.4973 15.9984 85.6662 16.1228 85.8792 16.1939C86.0909 16.2625 86.3355 16.2921 86.6158 16.2921C86.7966 16.2921 86.9876 16.2827 87.1905 16.2567C87.3867 16.2271 87.6549 16.1529 87.9974 16.04C87.8735 16.3632 87.741 16.8477 87.5809 17.4937C87.1766 17.5607 86.8617 17.6067 86.621 17.6206C86.3886 17.6374 86.1667 17.6452 85.9603 17.6452C85.2549 17.6452 84.6681 17.5467 84.2138 17.3579C83.7579 17.1615 83.4207 16.853 83.2021 16.4302C82.9835 16.0123 82.877 15.5912 82.877 15.1594C82.877 14.915 82.9181 14.6713 83.0025 14.4297C83.0867 14.1915 83.2122 13.9751 83.3759 13.7777C83.534 13.5723 83.7526 13.381 84.0107 13.1961C84.2723 13.0126 84.6454 12.8327 85.1325 12.6569C85.6298 12.4849 86.2784 12.3117 87.0818 12.1354C87.2988 12.0885 87.5206 12.0311 87.7563 11.9686C87.9835 11.9005 88.1692 11.8363 88.3069 11.7745C88.4446 11.7059 88.5668 11.6328 88.6682 11.5311C88.7681 11.4285 88.8437 11.3293 88.8904 11.2207C88.9384 11.1129 88.966 10.9956 88.966 10.8833C88.966 10.659 88.8904 10.4747 88.7474 10.3234C88.603 10.1678 88.4171 10.0609 88.1883 9.9983C87.9559 9.9409 87.7083 9.90777 87.4279 9.90777C86.4042 9.90769 85.2705 10.1547 84.0264 10.6537Z" fill="#232323"/>
<path fill-rule="evenodd" clip-rule="evenodd" d="M97.1047 19.8787C96.1772 19.8787 95.0776 19.6664 93.8045 19.2472L93.9148 21.1024C94.6909 21.2888 95.4031 21.4137 96.057 21.4851C96.7141 21.5537 97.2939 21.5833 97.8067 21.5833C98.2902 21.5833 98.7392 21.5476 99.1574 21.4684C99.5788 21.3895 99.9282 21.2888 100.216 21.1689C100.5 21.0428 100.756 20.881 100.981 20.6844C101.205 20.4811 101.391 20.254 101.541 19.9986C101.682 19.7358 101.792 19.4438 101.86 19.1264C101.931 18.8004 101.971 18.4684 101.988 18.1203L102.057 15.0539L102.234 11.6595L102.426 8.95212C101.508 8.78947 100.771 8.67388 100.212 8.62603C99.6495 8.56691 99.1522 8.54083 98.71 8.54083C97.9169 8.54083 97.1943 8.6312 96.5438 8.79464C95.8916 8.97037 95.2826 9.2833 94.7079 9.73625C94.1333 10.197 93.6998 10.7752 93.4072 11.4787C93.1094 12.1881 92.9631 12.9384 92.9631 13.7313C92.9631 14.2861 93.0492 14.8138 93.23 15.3243C93.4104 15.8372 93.6737 16.2598 94.0231 16.5928C94.3673 16.9292 94.7647 17.1786 95.2121 17.3361C95.6575 17.491 96.1273 17.5719 96.6246 17.5719C96.9843 17.5719 97.3317 17.5273 97.6551 17.4441C97.9822 17.3621 98.2645 17.2545 98.514 17.1231C98.7616 16.9893 98.9699 16.8337 99.1454 16.6666C99.3226 16.5015 99.5185 16.2625 99.7355 15.9643C99.7131 16.7285 99.6822 17.3031 99.6441 17.683C99.6031 18.0606 99.5238 18.3942 99.4068 18.6812C99.2898 18.9654 99.1227 19.1924 98.9078 19.362C98.6911 19.528 98.4295 19.6594 98.1146 19.7453C97.7964 19.8307 97.4591 19.8787 97.1047 19.8787ZM98.6205 10.3041C99.0386 10.3041 99.4928 10.3546 99.9849 10.4554C99.9589 11.1815 99.9349 11.8074 99.8988 12.3378C99.8663 12.8647 99.8163 13.3063 99.7509 13.6549C99.6891 14.0046 99.5786 14.322 99.4189 14.6001C99.2657 14.8838 99.0849 15.12 98.8854 15.3016C98.6806 15.4913 98.4535 15.6363 98.204 15.7208C97.9511 15.8156 97.6826 15.8608 97.392 15.8608C96.991 15.8608 96.6176 15.768 96.2856 15.5766C95.945 15.3878 95.6971 15.1142 95.544 14.7455C95.3822 14.3739 95.303 13.9751 95.303 13.5483C95.303 12.969 95.4339 12.417 95.6919 11.8936C95.9517 11.3779 96.3234 10.984 96.7984 10.7085C97.2836 10.438 97.8874 10.3041 98.6205 10.3041Z" fill="#232323"/>
<path fill-rule="evenodd" clip-rule="evenodd" d="M104.464 11.7936C104.345 14.4748 104.228 16.3581 104.13 17.4431C104.729 17.4308 105.128 17.4242 105.329 17.4242C105.597 17.4242 105.961 17.4309 106.423 17.4431L106.461 15.9905C106.608 16.2313 106.737 16.4234 106.842 16.5635C106.955 16.6974 107.093 16.8338 107.258 16.973C107.425 17.1068 107.612 17.2267 107.824 17.3322C108.036 17.4346 108.266 17.5113 108.519 17.5659C108.77 17.6206 109.042 17.6452 109.337 17.6452C109.945 17.6452 110.505 17.5348 111.023 17.3146C111.544 17.0901 111.983 16.7409 112.349 16.2626C112.709 15.792 112.982 15.2425 113.166 14.6322C113.35 14.0236 113.445 13.3871 113.445 12.7395C113.445 11.8101 113.261 11.0171 112.895 10.3685C112.526 9.7112 112.04 9.24776 111.43 8.96435C110.825 8.67993 110.078 8.54093 109.195 8.54093C108.875 8.54093 108.55 8.56003 108.223 8.59825C107.896 8.63396 107.454 8.706 106.907 8.81298C106.964 7.58984 107.034 6.57674 107.132 5.77515C107.11 5.77542 107.088 5.7757 107.067 5.77597C106.673 5.78092 106.304 5.78556 105.957 5.78556C105.639 5.78556 105.272 5.78167 104.852 5.77722C104.787 5.77654 104.722 5.77584 104.655 5.77515C104.649 7.10627 104.584 9.11377 104.464 11.7936ZM106.68 12.0203L106.75 10.5581C107.163 10.438 107.514 10.3589 107.791 10.3162C108.073 10.271 108.342 10.2537 108.603 10.2537C109.397 10.2537 110.009 10.4884 110.419 10.9596C110.823 11.4369 111.033 12.0612 111.033 12.8403C111.033 13.3808 110.938 13.8985 110.757 14.3871C110.572 14.8764 110.312 15.2538 109.971 15.5051C109.624 15.759 109.221 15.8903 108.755 15.8903C108.328 15.8903 107.943 15.7746 107.597 15.5547C107.258 15.3305 107.008 15.0157 106.871 14.6087C106.726 14.2009 106.656 13.6436 106.656 12.9385C106.656 12.6412 106.662 12.3316 106.68 12.0203Z" fill="#232323"/>
<path fill-rule="evenodd" clip-rule="evenodd" d="M122.263 17.3146C122.401 16.4423 122.506 15.8374 122.578 15.5007C121.953 15.7077 121.411 15.8538 120.961 15.94C120.503 16.022 120.083 16.0672 119.691 16.0672C119.361 16.0672 119.022 16.0148 118.681 15.9071C118.333 15.801 118.038 15.6421 117.791 15.4167C117.544 15.1949 117.353 14.9219 117.222 14.6045C117.093 14.2864 117.029 13.9367 117.029 13.5535C117.029 13.4256 117.036 13.2589 117.048 13.0441L123.247 13.0368C123.304 12.7526 123.333 12.4796 123.333 12.2135C123.333 11.6388 123.239 11.1241 123.046 10.659C122.86 10.1999 122.59 9.79994 122.237 9.47041C121.883 9.14268 121.447 8.90446 120.93 8.76013C120.408 8.61228 119.863 8.54102 119.288 8.54102C118.681 8.54102 118.094 8.63139 117.538 8.80093C116.979 8.97384 116.484 9.2722 116.043 9.6921C115.608 10.1068 115.264 10.6469 115.025 11.3066C114.779 11.9657 114.658 12.6412 114.658 13.3447C114.658 13.975 114.763 14.5783 114.973 15.1521C115.185 15.7295 115.51 16.2153 115.947 16.6094C116.386 17.0059 116.897 17.2747 117.482 17.4242C118.065 17.5745 118.725 17.6451 119.467 17.6451C119.887 17.6451 120.31 17.6233 120.727 17.5782C121.145 17.5347 121.657 17.4442 122.263 17.3146ZM121.078 12.0589L117.115 12.0449C117.168 11.7744 117.222 11.5571 117.282 11.3917C117.342 11.2301 117.423 11.064 117.538 10.8884C117.653 10.7162 117.809 10.5527 117.996 10.4102C118.177 10.271 118.385 10.1641 118.607 10.0876C118.827 10.0154 119.059 9.97902 119.297 9.97902C119.496 9.97902 119.691 9.99813 119.863 10.0415C120.042 10.0937 120.2 10.1547 120.336 10.2442C120.472 10.3302 120.589 10.4354 120.69 10.5581C120.79 10.6894 120.873 10.8372 120.931 11.0007C120.99 11.1762 121.028 11.3206 121.048 11.4466C121.065 11.5832 121.078 11.7857 121.078 12.0589Z" fill="#232323"/>
</svg>
