<svg width="60" height="20" viewBox="0 0 60 20" fill="none" xmlns="http://www.w3.org/2000/svg">
<path d="M0.644295 6.06345C0.245918 5.63851 -0.0993422 5.87754 0.21936 6.35559C1.29055 8.02877 3.45949 11.407 3.56572 11.5345C3.67196 11.6407 3.77819 11.9063 3.56572 12.225C2.5565 13.7565 0.463697 16.9312 0.166242 17.3773C-0.205576 17.9351 0.086567 18.2272 0.644294 17.6695L5.92942 12.3844C6.03566 12.2781 6.48715 11.9329 5.92942 11.3751L0.644295 6.06345Z" fill="#109BD4"/>
<path d="M0.864901 18.0224C0.439966 18.4208 0.67899 18.766 1.15704 18.4473C2.83022 17.3761 6.20846 15.2072 6.33594 15.101C6.44217 14.9947 6.70776 14.8885 7.02646 15.101C8.55799 16.1102 11.7326 18.203 12.1788 18.5004C12.7365 18.8723 13.0287 18.5801 12.4709 18.0224L7.18581 12.7373C7.07957 12.631 6.73431 12.1795 6.17659 12.7373L0.864901 18.0224Z" fill="#D4372D"/>
<path d="M7.25772 11.0076L12.4097 5.85565C12.7284 5.53222 12.4893 5.53222 12.4097 5.53222L10.7631 5.53222C10.3912 5.53222 10.3381 5.55878 10.2584 5.63845L6.9652 8.2943C6.58276 8.613 6.19675 8.45365 5.95598 8.2943C5.7152 8.13495 1.41685 5.25045 0.947789 4.93713C0.361469 4.54549 0.0543489 4.85321 0.64067 5.44067L6.19676 11.0076C6.30844 11.1195 6.6714 11.5951 7.25772 11.0076Z" fill="#3DAD4B"/>
<path d="M12.8012 6.06345C13.1995 5.63851 13.5448 5.87754 13.2261 6.35559C12.1549 8.02877 9.98598 11.407 9.87974 11.5345C9.77351 11.6407 9.66728 11.9063 9.87974 12.225C10.889 13.7565 12.9818 16.9312 13.2792 17.3773C13.651 17.9351 13.3589 18.2272 12.8012 17.6695L7.51604 12.3844C7.40981 12.2781 6.95831 11.9329 7.51604 11.3751L12.8012 6.06345Z" fill="#F5DE16"/>
<rect x="10.7896" y="4.97461" width="0.424935" height="0.424935" fill="#3DAD4B"/>
<rect x="11.427" y="4.3902" width="0.424935" height="0.424935" fill="#3DAD4B"/>
<rect x="11.3739" y="4.97461" width="0.424935" height="0.424935" fill="#3DAD4B"/>
<rect x="12.0113" y="4.3902" width="0.424935" height="0.424935" fill="#3DAD4B"/>
<rect x="12.5956" y="3.80597" width="0.424935" height="0.424935" fill="#3DAD4B"/>
<rect x="13.233" y="3.16864" width="0.424934" height="0.424935" fill="#3DAD4B"/>
<rect x="13.1799" y="3.80597" width="0.424934" height="0.424935" fill="#3DAD4B"/>
<rect x="13.7642" y="2.58423" width="0.424935" height="0.424935" fill="#3DAD4B"/>
<rect x="14.2953" y="2" width="0.424935" height="0.424935" fill="#3DAD4B"/>
<rect x="11.9582" y="4.97461" width="0.424935" height="0.424935" fill="#3DAD4B"/>
<rect x="12.5956" y="4.3902" width="0.424935" height="0.424935" fill="#3DAD4B"/>
<path fill-rule="evenodd" clip-rule="evenodd" d="M19.2964 7.87582C19.1634 7.89162 18.9037 7.92426 18.7193 7.9482C18.5099 7.97536 18.3621 8.04323 18.326 8.12891C18.2943 8.20435 18.2205 8.51998 18.1621 8.83029C18.1038 9.14061 18.0018 9.64839 17.9354 9.9587C17.8692 10.269 17.7626 10.7587 17.6987 11.0468C17.6348 11.335 17.5206 11.8609 17.4448 12.2155C17.3691 12.5702 17.2804 12.9873 17.2475 13.1424C17.2146 13.2976 17.1272 13.5405 17.0533 13.6823C16.9794 13.8241 16.7976 14.0327 16.6493 14.1457C16.501 14.2589 16.2889 14.3514 16.1781 14.3514C16.0672 14.3514 15.9106 14.2786 15.8299 14.1894C15.6991 14.0448 15.6929 13.9734 15.772 13.5245C15.8209 13.2478 15.9157 12.7676 15.9826 12.4573C16.0497 12.147 16.1433 11.6936 16.1906 11.4498C16.2379 11.206 16.3165 10.8543 16.3652 10.6681C16.4495 10.3461 16.4698 10.3286 16.7863 10.3054C17.0194 10.2884 17.1264 10.2411 17.1442 10.1475C17.1621 10.0529 17.0915 9.99707 16.9031 9.95661C16.7566 9.92517 16.6149 9.88681 16.5883 9.87133C16.5617 9.85585 16.6096 9.51218 16.6949 9.10756C16.7802 8.70303 16.8339 8.35596 16.8144 8.33637C16.7948 8.31687 16.4809 8.32565 16.1167 8.35604C15.5012 8.40738 15.449 8.426 15.3735 8.62081C15.3288 8.73599 15.2517 9.04485 15.2022 9.30705C15.1286 9.69643 15.0709 9.80733 14.8875 9.91155C14.764 9.98183 14.6627 10.1028 14.6624 10.1804C14.6622 10.2579 14.7141 10.3214 14.7781 10.3214C14.842 10.3214 14.9112 10.3489 14.932 10.3826C14.9528 10.4162 14.9349 10.6066 14.8923 10.8057C14.8495 11.0048 14.7622 11.4126 14.698 11.7118C14.6338 12.011 14.5234 12.5187 14.4524 12.8402C14.3816 13.1616 14.3057 13.6356 14.2838 13.8936C14.2602 14.1724 14.284 14.4592 14.3425 14.6005C14.3967 14.7313 14.5522 14.9318 14.6881 15.0462C14.9128 15.2353 14.9864 15.2513 15.5038 15.2229C15.9504 15.1985 16.1456 15.1449 16.4134 14.9731C16.6009 14.8528 16.7732 14.7544 16.7962 14.7544C16.8193 14.7544 16.8381 14.8549 16.8381 14.9776V15.2007L17.5389 15.196L18.2398 15.1911L18.3445 14.7914C18.402 14.5716 18.4841 14.2104 18.5268 13.9887C18.5696 13.7671 18.6586 13.3318 18.7247 13.0215C18.7908 12.7112 18.8856 12.2617 18.9354 12.0226C18.9852 11.7834 19.0844 11.4933 19.1559 11.3778C19.2274 11.2623 19.3581 11.0861 19.4463 10.9864C19.5407 10.8796 19.6995 10.805 19.8325 10.805C19.9866 10.805 20.1019 10.8713 20.1951 11.0136C20.3135 11.1944 20.3201 11.2936 20.2445 11.7592C20.1965 12.0545 20.0958 12.55 20.0208 12.8603C19.9458 13.1706 19.8667 13.6557 19.845 13.9383C19.8145 14.3362 19.8386 14.5132 19.9519 14.7235C20.0323 14.8728 20.2134 15.0496 20.3542 15.1165C20.4951 15.1833 20.793 15.238 21.0161 15.238C21.2393 15.238 21.5146 15.2027 21.628 15.1597C21.7414 15.1166 21.997 14.9311 22.1962 14.7475L22.5583 14.4137L22.9134 14.8058L23.2684 15.1977H24.1035C24.8116 15.1977 24.9955 15.1696 25.3142 15.0126C25.521 14.9108 25.858 14.6796 26.0633 14.4989C26.2686 14.3182 26.4569 14.1906 26.4817 14.2155C26.5065 14.2402 26.5002 14.4532 26.4678 14.6888C26.4354 14.9244 26.4227 15.1327 26.4394 15.1516C26.4562 15.1706 26.7553 15.1887 27.1042 15.1919C27.7088 15.1975 27.7422 15.1883 27.8162 14.9962C27.8589 14.8854 27.9437 14.5408 28.0048 14.2305C28.0659 13.9202 28.1682 13.4306 28.2322 13.1424C28.2963 12.8543 28.3889 12.419 28.4382 12.1752C28.4873 11.9314 28.5985 11.5806 28.685 11.3957C28.7716 11.2108 28.9242 11.0023 29.0241 10.9323C29.1241 10.8623 29.3044 10.805 29.4249 10.805C29.5455 10.805 29.6704 10.8476 29.7026 10.8996C29.7348 10.9517 29.7571 11.1677 29.7523 11.3797C29.7474 11.5917 29.6907 11.9934 29.626 12.2724C29.5615 12.5515 29.4451 13.088 29.3676 13.4648C29.2899 13.8416 29.1775 14.348 29.1176 14.59C29.0578 14.8321 29.0088 15.0685 29.0088 15.1154C29.0088 15.1691 29.2616 15.199 29.6904 15.196C30.0652 15.1935 30.4003 15.1631 30.4349 15.1284C30.4695 15.0938 30.5463 14.8051 30.6054 14.4868C30.6646 14.1685 30.7432 13.763 30.7799 13.5857C30.8168 13.4084 30.9028 13.0094 30.971 12.6991C31.0393 12.3888 31.135 11.9751 31.1836 11.7797C31.2323 11.5843 31.3825 11.2851 31.5174 11.1148C31.6959 10.8896 31.8235 10.805 31.9853 10.805C32.1077 10.805 32.2713 10.8752 32.349 10.961C32.4591 11.0826 32.4815 11.2114 32.4509 11.5453C32.4293 11.7809 32.3516 12.2276 32.2782 12.5379C32.2049 12.8482 32.1085 13.3197 32.064 13.5857C32.0196 13.8517 32.0046 14.218 32.0306 14.3998C32.0624 14.6221 32.1578 14.8068 32.3218 14.964C32.5518 15.1844 32.605 15.1977 33.2486 15.1977C33.6241 15.1977 33.9581 15.1615 33.9908 15.1171C34.0235 15.0728 34.2014 14.8952 34.3861 14.7225L34.7219 14.4086L35.1336 14.7786C35.4481 15.0614 35.6323 15.1618 35.9144 15.2041C36.1175 15.2346 36.5907 15.2403 36.966 15.2169C37.3414 15.1935 37.6885 15.1342 37.7374 15.0853C37.7864 15.0363 37.876 14.9962 37.9364 14.9962C37.9969 14.9962 38.2345 14.91 38.4644 14.8045C38.6942 14.6991 39.0809 14.4633 39.3235 14.2806C39.5661 14.0979 39.8095 13.9484 39.8643 13.9484C39.9191 13.9484 40.0094 14.1001 40.065 14.2854C40.1206 14.4708 40.3017 14.7652 40.4676 14.9396L40.7692 15.2567L41.3169 15.2236C41.7386 15.1982 41.9437 15.14 42.2088 14.9704C42.4984 14.7852 42.5607 14.77 42.6008 14.8744C42.627 14.9427 42.6237 15.0797 42.5934 15.1788C42.5632 15.2779 42.4858 15.6128 42.4215 15.9231C42.3572 16.2335 42.2561 16.7412 42.197 17.0515C42.1378 17.3619 42.0644 17.6734 42.0338 17.7439C41.9833 17.8601 42.0253 17.8614 42.4855 17.7572C42.7647 17.694 43.0937 17.623 43.2169 17.5994C43.34 17.5759 43.4799 17.4834 43.5277 17.394C43.5756 17.3047 43.6678 16.9553 43.7327 16.6177C43.7976 16.28 43.8899 15.7919 43.9379 15.533C43.9881 15.2619 44.0746 15.0434 44.1418 15.0175C44.206 14.9929 44.2878 15.0201 44.3236 15.078C44.3594 15.1359 44.5899 15.1999 44.8358 15.2203C45.0818 15.2407 45.4461 15.233 45.6454 15.2031C45.9169 15.1624 46.1072 15.0594 46.4039 14.7926C46.6219 14.5966 46.9282 14.2213 47.0847 13.9587C47.2412 13.6959 47.4145 13.3051 47.4699 13.09C47.5252 12.8751 47.5862 12.3546 47.6054 11.9334C47.6311 11.3667 47.6052 11.0525 47.5055 10.7244C47.4203 10.4441 47.2928 10.2228 47.1586 10.1226C47.0182 10.0177 46.7789 9.95338 46.4517 9.93251C46.0735 9.90841 45.8668 9.94097 45.5731 10.0709C45.3618 10.1644 45.1706 10.2408 45.148 10.2408C45.1254 10.2408 45.1296 10.0762 45.1571 9.87496L45.2073 9.50919L44.5088 9.53241L43.8102 9.5557L43.7433 9.7975C43.7066 9.93049 43.6206 10.2932 43.5524 10.6035C43.4842 10.9138 43.3954 11.3309 43.3551 11.5304C43.3148 11.7299 43.2292 12.147 43.165 12.4573C43.1008 12.7676 43.0051 13.1643 42.9523 13.3387C42.8995 13.5131 42.8025 13.738 42.7367 13.8383C42.6709 13.9388 42.487 14.0977 42.328 14.1915C42.1475 14.298 41.9686 14.3444 41.852 14.3152C41.7492 14.2894 41.6117 14.1868 41.5465 14.0871C41.4811 13.9874 41.3692 13.6775 41.2976 13.3983C41.181 12.9429 41.1802 12.8723 41.2901 12.7142C41.3575 12.6172 41.5431 12.3928 41.7024 12.2155C41.8618 12.0382 42.1176 11.7057 42.2708 11.4767C42.4241 11.2476 42.5908 10.881 42.6413 10.6621C42.6919 10.4432 42.7084 10.1318 42.678 9.97007C42.6477 9.8083 42.5452 9.60358 42.4502 9.51508C42.3533 9.42472 42.166 9.3542 42.023 9.3542C41.8789 9.3542 41.7108 9.41811 41.6353 9.50162C41.5619 9.5827 41.5019 9.75954 41.5019 9.8947C41.5019 10.0299 41.5473 10.1777 41.6026 10.2232C41.6581 10.2687 41.7941 10.3185 41.9049 10.3338C42.0533 10.3544 42.1128 10.4173 42.1309 10.5727C42.1446 10.6908 42.0619 10.9511 41.9433 11.1637C41.8265 11.3727 41.6524 11.6362 41.556 11.7492C41.4597 11.8623 41.3307 12.0068 41.2693 12.0702C41.2079 12.1337 41.1269 12.1548 41.0892 12.1172C41.0516 12.0795 40.9871 11.8324 40.9458 11.568C40.9046 11.3034 40.8265 10.8442 40.7722 10.5473C40.6823 10.0554 40.6548 10.0054 40.463 9.98312C40.3473 9.96966 40.0223 9.97103 39.7408 9.98611C39.2317 10.0133 39.2294 10.0146 39.2821 10.2279C39.3113 10.3458 39.3854 10.7143 39.4469 11.0468C39.5083 11.3793 39.6145 11.9902 39.6827 12.4044C39.7698 12.9325 39.7824 13.2032 39.725 13.3105C39.68 13.3945 39.4539 13.6002 39.2225 13.7673C38.9911 13.9346 38.6567 14.1399 38.4794 14.2237C38.279 14.3183 37.9057 14.3904 37.4932 14.4141C36.9677 14.4442 36.7876 14.4247 36.6284 14.3204C36.5179 14.2479 36.3702 14.078 36.3002 13.9428C36.2303 13.8076 36.1842 13.5678 36.1978 13.4101C36.2215 13.1354 36.243 13.117 36.7062 12.9743C36.9721 12.8923 37.2804 12.7799 37.3913 12.7243C37.5021 12.6689 37.7227 12.5244 37.8816 12.4032C38.0404 12.2821 38.2671 11.9965 38.3853 11.7687C38.5531 11.4451 38.6003 11.2403 38.6003 10.8345C38.6003 10.4429 38.564 10.2758 38.4534 10.157C38.3726 10.0703 38.1065 9.95919 37.8621 9.9101C37.5331 9.84401 37.3045 9.84489 36.9813 9.91357C36.7413 9.96459 36.4016 10.105 36.2263 10.2257C36.051 10.3463 35.7568 10.63 35.5724 10.8562C35.3881 11.0824 35.1444 11.517 35.031 11.8221C34.9175 12.1271 34.7689 12.7169 34.7006 13.1325C34.5897 13.8074 34.5486 13.913 34.317 14.1199C34.1743 14.2472 33.9803 14.3514 33.8858 14.3514C33.7913 14.3514 33.6312 14.2743 33.5302 14.1801C33.3838 14.0438 33.3545 13.9492 33.3867 13.7166C33.409 13.556 33.4872 13.1888 33.5606 12.9006C33.6339 12.6125 33.7257 12.2135 33.7646 12.014C33.8034 11.8145 33.8374 11.389 33.84 11.0682C33.8444 10.5344 33.8249 10.4629 33.6095 10.2219C33.3839 9.96966 33.3495 9.95878 32.7833 9.96031C32.3322 9.96152 32.1354 9.99949 31.9507 10.1211C31.8177 10.2086 31.6428 10.3621 31.562 10.4621C31.4812 10.562 31.3724 10.6424 31.3202 10.6407C31.268 10.639 31.1527 10.5222 31.064 10.381C30.9752 10.2399 30.812 10.0763 30.7013 10.0175C30.573 9.94927 30.3242 9.92251 30.016 9.94379C29.7133 9.96475 29.4266 10.0416 29.2503 10.149C29.0953 10.2435 28.9447 10.3209 28.9156 10.3211C28.8865 10.3212 28.8817 10.2489 28.9048 10.1602C28.9313 10.0587 28.9062 9.99618 28.8369 9.99126C28.7763 9.98707 28.4643 9.98457 28.1435 9.98578C27.8228 9.98707 27.5284 10.0078 27.4894 10.0319C27.4504 10.056 27.3954 10.1945 27.3672 10.3396C27.339 10.4848 27.2616 10.8664 27.1951 11.1879C27.1287 11.5093 27.0181 12.0351 26.9493 12.3566C26.8805 12.678 26.8042 13.0382 26.7797 13.1571C26.7553 13.2761 26.5668 13.5306 26.3608 13.7228C26.1548 13.9151 25.8796 14.1405 25.7494 14.2238C25.6028 14.3174 25.3059 14.39 24.9702 14.4139C24.4687 14.4498 24.4123 14.437 24.2198 14.2446C24.0418 14.0666 24.0116 13.9655 24.0116 13.5491C24.0116 13.1611 24.0372 13.0618 24.1375 13.0618C24.2067 13.0618 24.4516 13.0011 24.6815 12.9269C24.9115 12.8527 25.2297 12.711 25.3886 12.6119C25.5474 12.5129 25.8267 12.2623 26.0093 12.0549C26.2501 11.7812 26.356 11.5788 26.3953 11.3169C26.4251 11.1185 26.4315 10.7973 26.4096 10.6031C26.3878 10.409 26.3162 10.1965 26.2507 10.1309C26.185 10.0654 25.9727 9.96902 25.7788 9.91679C25.5749 9.8619 25.2554 9.84393 25.0211 9.87423C24.7983 9.90309 24.4632 10 24.2763 10.0896C24.0894 10.1792 23.7577 10.4481 23.5393 10.6871C23.3209 10.9261 23.0691 11.277 22.9797 11.4671C22.8904 11.657 22.7631 12.012 22.6969 12.2558C22.6306 12.4996 22.551 12.9167 22.52 13.1826C22.4889 13.4485 22.4147 13.7605 22.3551 13.8759C22.2954 13.9913 22.1553 14.1455 22.0438 14.2186C21.9323 14.2916 21.7763 14.3503 21.6971 14.3489C21.618 14.3475 21.4951 14.3019 21.424 14.2478C21.3528 14.1936 21.2729 14.0769 21.2464 13.9884C21.2199 13.8999 21.2486 13.5736 21.3102 13.2633C21.3718 12.953 21.5001 12.3184 21.5952 11.8529C21.7369 11.16 21.7519 10.9521 21.678 10.7055C21.6284 10.5398 21.5071 10.3104 21.4084 10.1957C21.2629 10.0266 21.1349 9.97869 20.7306 9.94202C20.295 9.90252 20.18 9.9242 19.8165 10.1143C19.5878 10.2338 19.387 10.3179 19.3703 10.3012C19.3535 10.2845 19.3952 9.98296 19.4628 9.63114C19.5304 9.27932 19.6171 8.82828 19.6554 8.62879C19.6937 8.42931 19.7505 8.16631 19.7814 8.04444C19.8284 7.85986 19.8128 7.8248 19.688 7.83488C19.6056 7.84149 19.4294 7.85994 19.2964 7.87582ZM57.7148 8.37998C57.3006 8.42544 57.2794 8.43954 57.177 8.73889C57.1183 8.91033 57.0471 9.21927 57.0188 9.42545C56.9771 9.72835 56.9218 9.82636 56.7304 9.93622C56.6001 10.0109 56.4936 10.1282 56.4936 10.1967C56.4936 10.2676 56.5631 10.3214 56.6548 10.3214C56.7434 10.3214 56.8144 10.3486 56.8124 10.3819C56.8105 10.4151 56.7729 10.6055 56.7288 10.805C56.6846 11.0045 56.5984 11.4035 56.5372 11.6916C56.4759 11.9798 56.3638 12.5057 56.2879 12.8603C56.212 13.215 56.1332 13.7162 56.1128 13.9742C56.0911 14.2487 56.1168 14.5425 56.1746 14.6822C56.2291 14.8136 56.3642 14.9924 56.475 15.0796C56.6135 15.1885 56.8008 15.238 57.074 15.238C57.2926 15.238 57.5383 15.2023 57.6201 15.1585C57.7019 15.1147 57.8445 14.9563 57.9372 14.8064C58.0298 14.6565 58.1056 14.4929 58.1056 14.4427C58.1056 14.3925 58.0387 14.3514 57.9569 14.3514C57.8751 14.3514 57.7452 14.2819 57.6682 14.1968C57.5467 14.0625 57.5393 13.9801 57.6117 13.5721C57.6575 13.3136 57.7512 12.8392 57.8197 12.5178C57.8883 12.1963 57.9956 11.6886 58.0581 11.3894C58.1207 11.0902 58.2047 10.7365 58.2449 10.6035C58.3064 10.3997 58.3676 10.3553 58.6341 10.3214C58.851 10.2938 58.9587 10.2368 58.9772 10.1401C58.9966 10.0377 58.9513 9.999 58.812 9.999C58.7064 9.999 58.5582 9.9537 58.4829 9.89825C58.3721 9.81693 58.3607 9.75083 58.4236 9.5557C58.4665 9.42271 58.5513 9.08725 58.6121 8.81014L58.7226 8.30639L58.4342 8.31953C58.2757 8.32678 57.9519 8.35394 57.7148 8.37998ZM49.9688 9.935C49.6837 9.99852 49.4968 10.128 49.0597 10.5651C48.6682 10.9567 48.4384 11.272 48.2632 11.6585C48.0968 12.0256 47.9962 12.4076 47.9529 12.837C47.9177 13.1865 47.9174 13.7337 47.9524 14.053C48.0111 14.5883 48.0393 14.6537 48.3147 14.8919C48.5108 15.0616 48.7376 15.169 48.9749 15.2046C49.1738 15.2344 49.5671 15.2403 49.849 15.2176C50.2248 15.1875 50.4838 15.1074 50.8208 14.9172C51.0736 14.7746 51.3925 14.5529 51.5294 14.4245C51.6664 14.2961 51.8096 14.1908 51.8477 14.1906C51.8858 14.1904 51.8966 14.3081 51.8717 14.4522C51.8468 14.5963 51.8038 14.8229 51.7761 14.9559L51.7258 15.1977H52.4373H53.1487L53.2526 14.7947C53.3098 14.5731 53.3897 14.2104 53.4301 13.9887C53.4707 13.7671 53.5617 13.3318 53.6324 13.0215C53.7033 12.7112 53.802 12.213 53.8519 11.9145C53.9163 11.5289 54.008 11.2922 54.1686 11.0975C54.2929 10.9467 54.4903 10.7993 54.6073 10.7699C54.7535 10.7333 54.8674 10.7595 54.9717 10.8539C55.0551 10.9294 55.1234 11.0508 55.1234 11.1238C55.1234 11.1967 55.1669 11.2999 55.2201 11.3531C55.2733 11.4063 55.4135 11.4498 55.5315 11.4498C55.656 11.4498 55.8355 11.3605 55.9587 11.2374C56.1208 11.0752 56.1705 10.9462 56.1685 10.6933C56.1668 10.4903 56.1071 10.2913 56.0145 10.1804C55.8938 10.0356 55.7799 9.999 55.4502 9.999C55.1957 9.999 54.9531 10.0528 54.8183 10.139C54.698 10.216 54.5515 10.3248 54.493 10.3808C54.4344 10.4368 54.3549 10.4826 54.3164 10.4826C54.2778 10.4826 54.2244 10.4471 54.1975 10.4037C54.1707 10.3603 54.1879 10.2514 54.2359 10.1619C54.2949 10.0517 54.296 9.99666 54.2396 9.99167C54.1937 9.98764 54.0474 9.98433 53.9144 9.98433C53.7814 9.98433 53.4806 9.98764 53.2459 9.99167L52.8192 9.999L52.717 10.5028C52.6607 10.7799 52.5633 11.2423 52.5005 11.5304C52.4378 11.8186 52.3262 12.3263 52.2528 12.6588C52.1543 13.1046 52.0456 13.3546 51.8386 13.6109C51.6843 13.802 51.4117 14.0507 51.2328 14.1636C51.0212 14.2972 50.7455 14.3837 50.4435 14.411C50.1882 14.4342 49.8926 14.4314 49.7867 14.4048C49.6713 14.3759 49.5393 14.2413 49.4572 14.0691C49.3818 13.911 49.3201 13.6605 49.3201 13.5123C49.3201 13.3641 49.3655 13.208 49.4209 13.1656C49.4763 13.123 49.73 13.0246 49.9848 12.9467C50.2395 12.8689 50.584 12.7142 50.7505 12.6029C50.9168 12.4917 51.1551 12.3047 51.2797 12.1874C51.4044 12.0701 51.5767 11.8153 51.6625 11.6212C51.7585 11.4043 51.8177 11.0933 51.8161 10.8149C51.8142 10.4949 51.7695 10.3092 51.6641 10.1829C51.582 10.0844 51.3565 9.96749 51.1631 9.92283C50.9695 9.87826 50.7024 9.84473 50.5694 9.84844C50.4365 9.85207 50.1661 9.891 49.9688 9.935ZM25.6881 10.4181C25.7413 10.4713 25.7848 10.6497 25.7848 10.8144C25.7848 10.9792 25.7161 11.2742 25.6322 11.47C25.5483 11.6657 25.3822 11.9311 25.2631 12.0596C25.1439 12.1881 24.9496 12.3572 24.8313 12.4352C24.7129 12.5133 24.4982 12.5774 24.3541 12.5777C24.1575 12.5781 24.0927 12.5431 24.0942 12.4372C24.0952 12.3596 24.1643 12.0925 24.2476 11.8436C24.3309 11.5948 24.4576 11.2779 24.5293 11.1395C24.6008 11.001 24.7713 10.7604 24.908 10.6046C25.0769 10.4122 25.2264 10.3214 25.374 10.3214C25.4936 10.3214 25.6349 10.3649 25.6881 10.4181ZM37.8311 10.9739C37.8279 11.5402 37.808 11.6108 37.5661 11.9162C37.4222 12.0978 37.1837 12.3211 37.0361 12.4123C36.8885 12.5036 36.6542 12.5782 36.5153 12.5782C36.3449 12.5782 36.2629 12.539 36.2629 12.4576C36.2629 12.3913 36.341 12.1103 36.4366 11.833C36.5322 11.5557 36.6999 11.1838 36.8092 11.0065C36.9187 10.8292 37.0842 10.6008 37.177 10.499C37.2964 10.3681 37.4175 10.3208 37.5903 10.3378L37.8346 10.3617L37.8311 10.9739ZM51.0617 10.4625C51.1207 10.54 51.17 10.6838 51.1714 10.7818C51.1728 10.8799 51.096 11.1686 51.0007 11.4233C50.8985 11.6965 50.7084 11.9989 50.5372 12.1609C50.3776 12.3118 50.1631 12.4675 50.0605 12.5068C49.9578 12.5461 49.7855 12.5782 49.6776 12.5782C49.5239 12.5782 49.4813 12.5361 49.4813 12.3839C49.4813 12.277 49.5609 11.9777 49.6582 11.7189C49.7555 11.4601 49.9238 11.1049 50.0323 10.9296C50.1408 10.7543 50.306 10.5469 50.3995 10.4688C50.493 10.3907 50.6561 10.3256 50.7621 10.3241C50.868 10.3226 51.0028 10.3849 51.0617 10.4625ZM45.988 10.6251C46.0395 10.6578 46.1437 10.8401 46.2198 11.0304C46.3092 11.2538 46.3416 11.482 46.3113 11.6749C46.2855 11.8393 46.2267 12.2189 46.1805 12.5185C46.1343 12.8182 46.0656 13.1265 46.0276 13.2036C45.9896 13.2808 45.8946 13.4772 45.8164 13.6401C45.7383 13.8031 45.5688 14.0373 45.44 14.1607C45.248 14.3447 45.1321 14.3856 44.7947 14.3884C44.4946 14.3908 44.3601 14.3551 44.2964 14.2558C44.2337 14.1579 44.2348 14.011 44.3004 13.7319C44.3505 13.5185 44.4516 13.0538 44.525 12.6991C44.5983 12.3445 44.7138 11.8095 44.7814 11.5101C44.8761 11.0917 44.9599 10.9193 45.1438 10.7645C45.2903 10.6413 45.4823 10.5637 45.6389 10.5644C45.7795 10.5651 45.9367 10.5925 45.988 10.6251Z" fill="black"/>
</svg>
