<svg width="60" height="20" viewBox="0 0 60 20" fill="none" xmlns="http://www.w3.org/2000/svg">
<g clip-path="url(#clip0_405_218)">
<path d="M0.644295 6.06339C0.245918 5.63845 -0.099342 5.87748 0.21936 6.35553C1.29055 8.02871 3.45949 11.4069 3.56572 11.5344C3.67196 11.6406 3.77819 11.9062 3.56572 12.2249C2.5565 13.7564 0.463697 16.9311 0.166242 17.3772C-0.205576 17.935 0.0865672 18.2271 0.644294 17.6694L5.92942 12.3843C6.03566 12.278 6.48715 11.9328 5.92942 11.375L0.644295 6.06339Z" fill="#109BD4"/>
<path d="M0.864901 18.0222C0.439966 18.4206 0.67899 18.7658 1.15704 18.4471C2.83022 17.3759 6.20846 15.207 6.33594 15.1008C6.44217 14.9945 6.70776 14.8883 7.02646 15.1008C8.55799 16.11 11.7326 18.2028 12.1788 18.5002C12.7365 18.8721 13.0287 18.5799 12.4709 18.0222L7.18581 12.7371C7.07957 12.6308 6.73431 12.1793 6.17659 12.7371L0.864901 18.0222Z" fill="#D4372D"/>
<path d="M7.25782 11.0078L12.4098 5.85583C12.7285 5.5324 12.4894 5.5324 12.4098 5.5324H10.7632C10.3913 5.5324 10.3382 5.55896 10.2585 5.63863L6.9653 8.29448C6.58286 8.61318 6.19685 8.45383 5.95608 8.29448C5.7153 8.13513 1.41695 5.25063 0.947893 4.93731C0.361573 4.54567 0.0544526 4.85339 0.640774 5.44085L6.19686 11.0078C6.30854 11.1197 6.6715 11.5953 7.25782 11.0078Z" fill="#3DAD4B"/>
<path d="M12.8013 6.06339C13.1996 5.63845 13.5449 5.87748 13.2262 6.35553C12.155 8.02871 9.98608 11.4069 9.87984 11.5344C9.77361 11.6406 9.66738 11.9062 9.87984 12.2249C10.8891 13.7564 12.9819 16.9311 13.2793 17.3772C13.6511 17.935 13.359 18.2271 12.8013 17.6694L7.51614 12.3843C7.40991 12.278 6.95841 11.9328 7.51614 11.375L12.8013 6.06339Z" fill="#F5DE16"/>
<path d="M11.2145 4.97461H10.7896V5.39954H11.2145V4.97461Z" fill="#3DAD4B"/>
<path d="M11.8519 4.39014H11.427V4.81507H11.8519V4.39014Z" fill="#3DAD4B"/>
<path d="M11.7987 4.97461H11.3738V5.39954H11.7987V4.97461Z" fill="#3DAD4B"/>
<path d="M12.4362 4.39014H12.0112V4.81507H12.4362V4.39014Z" fill="#3DAD4B"/>
<path d="M13.0206 3.80615H12.5957V4.23109H13.0206V3.80615Z" fill="#3DAD4B"/>
<path d="M13.6578 3.16846H13.2329V3.59339H13.6578V3.16846Z" fill="#3DAD4B"/>
<path d="M13.6049 3.80615H13.1799V4.23109H13.6049V3.80615Z" fill="#3DAD4B"/>
<path d="M14.1891 2.58447H13.7642V3.00941H14.1891V2.58447Z" fill="#3DAD4B"/>
<path d="M14.7203 2H14.2954V2.42494H14.7203V2Z" fill="#3DAD4B"/>
<path d="M12.3832 4.97461H11.9583V5.39954H12.3832V4.97461Z" fill="#3DAD4B"/>
<path d="M13.0206 4.39014H12.5957V4.81507H13.0206V4.39014Z" fill="#3DAD4B"/>
<path fill-rule="evenodd" clip-rule="evenodd" d="M19.2965 7.876C19.1635 7.8918 18.9038 7.92444 18.7194 7.94838C18.51 7.97554 18.3622 8.04341 18.3261 8.12909C18.2944 8.20453 18.2206 8.52016 18.1622 8.83047C18.1039 9.14079 18.0019 9.64857 17.9355 9.95888C17.8693 10.2692 17.7627 10.7589 17.6988 11.047C17.6349 11.3352 17.5207 11.8611 17.4449 12.2157C17.3692 12.5704 17.2805 12.9875 17.2476 13.1426C17.2147 13.2978 17.1273 13.5407 17.0534 13.6825C16.9795 13.8243 16.7977 14.0329 16.6494 14.1459C16.5011 14.2591 16.289 14.3516 16.1782 14.3516C16.0673 14.3516 15.9107 14.2788 15.83 14.1896C15.6992 14.045 15.693 13.9736 15.7721 13.5247C15.821 13.248 15.9158 12.7678 15.9827 12.4575C16.0498 12.1472 16.1434 11.6938 16.1907 11.45C16.238 11.2062 16.3166 10.8545 16.3653 10.6683C16.4496 10.3463 16.4699 10.3288 16.7864 10.3056C17.0195 10.2886 17.1265 10.2413 17.1443 10.1477C17.1622 10.0531 17.0916 9.99725 16.9032 9.95679C16.7567 9.92535 16.615 9.88699 16.5884 9.87151C16.5618 9.85603 16.6097 9.51236 16.695 9.10774C16.7803 8.70321 16.834 8.35614 16.8145 8.33655C16.7949 8.31705 16.481 8.32583 16.1168 8.35622C15.5013 8.40756 15.4491 8.42618 15.3736 8.62099C15.3289 8.73617 15.2518 9.04503 15.2023 9.30723C15.1287 9.69661 15.071 9.80751 14.8876 9.91173C14.7641 9.98201 14.6628 10.103 14.6625 10.1806C14.6623 10.2581 14.7142 10.3216 14.7782 10.3216C14.8421 10.3216 14.9113 10.3491 14.9321 10.3828C14.9529 10.4164 14.935 10.6068 14.8924 10.8059C14.8496 11.005 14.7623 11.4128 14.6981 11.712C14.6339 12.0112 14.5235 12.5189 14.4525 12.8404C14.3817 13.1618 14.3058 13.6358 14.2839 13.8938C14.2603 14.1726 14.2841 14.4594 14.3426 14.6007C14.3968 14.7315 14.5523 14.932 14.6882 15.0464C14.9129 15.2355 14.9865 15.2515 15.5039 15.2231C15.9505 15.1987 16.1457 15.1451 16.4135 14.9733C16.601 14.853 16.7733 14.7546 16.7963 14.7546C16.8194 14.7546 16.8382 14.8551 16.8382 14.9778V15.2009L17.539 15.1962L18.2399 15.1913L18.3446 14.7916C18.4021 14.5718 18.4842 14.2106 18.5269 13.9889C18.5697 13.7673 18.6587 13.332 18.7248 13.0217C18.7909 12.7114 18.8857 12.2619 18.9355 12.0228C18.9853 11.7836 19.0845 11.4935 19.156 11.378C19.2275 11.2625 19.3582 11.0863 19.4464 10.9866C19.5408 10.8798 19.6996 10.8052 19.8326 10.8052C19.9867 10.8052 20.102 10.8715 20.1952 11.0138C20.3136 11.1946 20.3202 11.2938 20.2446 11.7594C20.1966 12.0547 20.0959 12.5502 20.0209 12.8605C19.9459 13.1708 19.8668 13.6559 19.8451 13.9385C19.8146 14.3364 19.8387 14.5134 19.952 14.7237C20.0324 14.873 20.2135 15.0498 20.3543 15.1167C20.4952 15.1835 20.7931 15.2382 21.0162 15.2382C21.2394 15.2382 21.5147 15.2029 21.6281 15.1599C21.7415 15.1168 21.9971 14.9313 22.1963 14.7477L22.5584 14.4139L22.9135 14.806L23.2685 15.1979H24.1036C24.8117 15.1979 24.9956 15.1698 25.3143 15.0128C25.5211 14.911 25.8581 14.6798 26.0634 14.4991C26.2687 14.3184 26.457 14.1908 26.4818 14.2157C26.5066 14.2404 26.5003 14.4534 26.4679 14.689C26.4355 14.9246 26.4228 15.1329 26.4395 15.1518C26.4563 15.1708 26.7554 15.1889 27.1043 15.1921C27.7089 15.1977 27.7423 15.1885 27.8163 14.9964C27.859 14.8856 27.9438 14.541 28.0049 14.2307C28.066 13.9204 28.1683 13.4308 28.2323 13.1426C28.2964 12.8545 28.389 12.4192 28.4383 12.1754C28.4874 11.9316 28.5986 11.5808 28.6851 11.3959C28.7717 11.211 28.9243 11.0025 29.0242 10.9325C29.1242 10.8625 29.3045 10.8052 29.425 10.8052C29.5456 10.8052 29.6705 10.8478 29.7027 10.8998C29.7349 10.9519 29.7572 11.1679 29.7524 11.3799C29.7475 11.5919 29.6908 11.9936 29.6261 12.2726C29.5616 12.5517 29.4452 13.0882 29.3677 13.465C29.29 13.8418 29.1776 14.3482 29.1177 14.5902C29.0579 14.8323 29.0089 15.0687 29.0089 15.1156C29.0089 15.1693 29.2617 15.1992 29.6905 15.1962C30.0653 15.1937 30.4004 15.1633 30.435 15.1286C30.4696 15.094 30.5464 14.8053 30.6055 14.487C30.6647 14.1687 30.7433 13.7632 30.78 13.5859C30.8169 13.4086 30.9029 13.0096 30.9711 12.6993C31.0394 12.389 31.1351 11.9753 31.1837 11.7799C31.2324 11.5845 31.3826 11.2853 31.5175 11.115C31.696 10.8898 31.8236 10.8052 31.9854 10.8052C32.1078 10.8052 32.2714 10.8754 32.3491 10.9612C32.4592 11.0828 32.4816 11.2116 32.451 11.5455C32.4294 11.7811 32.3517 12.2278 32.2783 12.5381C32.205 12.8484 32.1086 13.3199 32.0641 13.5859C32.0197 13.8519 32.0047 14.2182 32.0307 14.4C32.0625 14.6223 32.1579 14.807 32.3219 14.9642C32.5519 15.1846 32.6051 15.1979 33.2487 15.1979C33.6242 15.1979 33.9582 15.1617 33.9909 15.1173C34.0236 15.073 34.2015 14.8954 34.3862 14.7227L34.722 14.4088L35.1337 14.7788C35.4482 15.0616 35.6324 15.162 35.9145 15.2043C36.1176 15.2348 36.5908 15.2405 36.9661 15.2171C37.3415 15.1937 37.6886 15.1344 37.7375 15.0855C37.7865 15.0365 37.8761 14.9964 37.9365 14.9964C37.997 14.9964 38.2346 14.9102 38.4645 14.8047C38.6943 14.6993 39.081 14.4635 39.3236 14.2808C39.5662 14.0981 39.8096 13.9486 39.8644 13.9486C39.9192 13.9486 40.0095 14.1003 40.0651 14.2856C40.1207 14.471 40.3018 14.7654 40.4677 14.9398L40.7693 15.2569L41.317 15.2238C41.7387 15.1984 41.9438 15.1402 42.2089 14.9706C42.4985 14.7854 42.5608 14.7702 42.6009 14.8746C42.6271 14.9429 42.6238 15.0799 42.5935 15.179C42.5633 15.2781 42.4859 15.613 42.4216 15.9233C42.3573 16.2337 42.2562 16.7414 42.1971 17.0517C42.1379 17.3621 42.0645 17.6736 42.0339 17.7441C41.9834 17.8603 42.0254 17.8616 42.4856 17.7574C42.7648 17.6942 43.0938 17.6232 43.217 17.5996C43.3401 17.5761 43.48 17.4836 43.5278 17.3942C43.5757 17.3049 43.6679 16.9555 43.7328 16.6179C43.7977 16.2802 43.89 15.7921 43.938 15.5332C43.9882 15.2621 44.0747 15.0436 44.1419 15.0177C44.2061 14.9931 44.2879 15.0203 44.3237 15.0782C44.3595 15.1361 44.59 15.2001 44.8359 15.2205C45.0819 15.2409 45.4462 15.2332 45.6455 15.2033C45.917 15.1626 46.1073 15.0596 46.404 14.7928C46.622 14.5968 46.9283 14.2215 47.0848 13.9589C47.2413 13.6961 47.4146 13.3053 47.47 13.0902C47.5253 12.8753 47.5863 12.3548 47.6055 11.9336C47.6312 11.3669 47.6053 11.0527 47.5056 10.7246C47.4204 10.4443 47.2929 10.223 47.1587 10.1228C47.0183 10.0179 46.779 9.95356 46.4518 9.93269C46.0736 9.90859 45.8669 9.94115 45.5732 10.0711C45.3619 10.1646 45.1707 10.241 45.1481 10.241C45.1255 10.241 45.1297 10.0764 45.1572 9.87514L45.2074 9.50937L44.5089 9.53259L43.8103 9.55588L43.7434 9.79768C43.7067 9.93067 43.6207 10.2934 43.5525 10.6037C43.4843 10.914 43.3955 11.3311 43.3552 11.5306C43.3149 11.7301 43.2293 12.1472 43.1651 12.4575C43.1009 12.7678 43.0052 13.1645 42.9524 13.3389C42.8996 13.5133 42.8026 13.7382 42.7368 13.8385C42.671 13.939 42.4871 14.0979 42.3281 14.1917C42.1476 14.2982 41.9687 14.3446 41.8521 14.3154C41.7493 14.2896 41.6118 14.187 41.5466 14.0873C41.4812 13.9876 41.3693 13.6777 41.2977 13.3985C41.1811 12.9431 41.1803 12.8725 41.2902 12.7144C41.3576 12.6174 41.5432 12.393 41.7025 12.2157C41.8619 12.0384 42.1177 11.7059 42.2709 11.4769C42.4242 11.2478 42.5909 10.8812 42.6414 10.6623C42.692 10.4434 42.7085 10.132 42.6781 9.97025C42.6478 9.80848 42.5453 9.60376 42.4503 9.51526C42.3534 9.4249 42.1661 9.35438 42.0231 9.35438C41.879 9.35438 41.7109 9.41829 41.6354 9.5018C41.562 9.58288 41.502 9.75972 41.502 9.89488C41.502 10.0301 41.5474 10.1779 41.6027 10.2234C41.6582 10.2689 41.7942 10.3187 41.905 10.334C42.0534 10.3546 42.1129 10.4175 42.131 10.5729C42.1447 10.691 42.062 10.9513 41.9434 11.1639C41.8266 11.3729 41.6525 11.6364 41.5561 11.7494C41.4598 11.8625 41.3308 12.007 41.2694 12.0704C41.208 12.1339 41.127 12.155 41.0893 12.1174C41.0517 12.0797 40.9872 11.8326 40.9459 11.5682C40.9047 11.3036 40.8266 10.8444 40.7723 10.5475C40.6824 10.0556 40.6549 10.0056 40.4631 9.9833C40.3474 9.96984 40.0224 9.97121 39.7409 9.98629C39.2318 10.0135 39.2295 10.0148 39.2822 10.2281C39.3114 10.346 39.3855 10.7145 39.447 11.047C39.5084 11.3795 39.6146 11.9904 39.6828 12.4046C39.7699 12.9327 39.7825 13.2034 39.7251 13.3107C39.6801 13.3947 39.454 13.6004 39.2226 13.7675C38.9912 13.9348 38.6568 14.1401 38.4795 14.2239C38.2791 14.3185 37.9058 14.3906 37.4933 14.4143C36.9678 14.4444 36.7877 14.4249 36.6285 14.3206C36.518 14.2481 36.3703 14.0782 36.3003 13.943C36.2304 13.8078 36.1843 13.568 36.1979 13.4103C36.2216 13.1356 36.2431 13.1172 36.7063 12.9745C36.9722 12.8925 37.2805 12.7801 37.3914 12.7245C37.5022 12.6691 37.7228 12.5246 37.8817 12.4034C38.0405 12.2823 38.2672 11.9967 38.3854 11.7689C38.5532 11.4453 38.6004 11.2405 38.6004 10.8347C38.6004 10.4431 38.5641 10.276 38.4535 10.1572C38.3727 10.0705 38.1066 9.95937 37.8622 9.91028C37.5332 9.84419 37.3046 9.84507 36.9814 9.91375C36.7414 9.96477 36.4017 10.1052 36.2264 10.2259C36.0511 10.3465 35.7569 10.6302 35.5725 10.8564C35.3882 11.0826 35.1445 11.5172 35.0311 11.8223C34.9176 12.1273 34.769 12.7171 34.7007 13.1327C34.5898 13.8076 34.5487 13.9132 34.3171 14.1201C34.1744 14.2474 33.9804 14.3516 33.8859 14.3516C33.7914 14.3516 33.6313 14.2745 33.5303 14.1803C33.3839 14.044 33.3546 13.9494 33.3868 13.7168C33.4091 13.5562 33.4873 13.189 33.5607 12.9008C33.634 12.6127 33.7258 12.2137 33.7647 12.0142C33.8035 11.8147 33.8375 11.3892 33.8401 11.0684C33.8445 10.5346 33.825 10.4631 33.6096 10.2221C33.384 9.96984 33.3496 9.95896 32.7834 9.96049C32.3323 9.9617 32.1355 9.99967 31.9508 10.1213C31.8178 10.2088 31.6429 10.3623 31.5621 10.4623C31.4813 10.5622 31.3725 10.6426 31.3203 10.6409C31.2681 10.6392 31.1528 10.5224 31.0641 10.3812C30.9753 10.2401 30.8121 10.0765 30.7014 10.0177C30.5731 9.94945 30.3243 9.92269 30.0161 9.94397C29.7134 9.96493 29.4267 10.0418 29.2504 10.1492C29.0954 10.2437 28.9448 10.3211 28.9157 10.3213C28.8866 10.3214 28.8818 10.2491 28.9049 10.1604C28.9314 10.0589 28.9063 9.99636 28.837 9.99144C28.7764 9.98725 28.4644 9.98475 28.1436 9.98596C27.8229 9.98725 27.5285 10.008 27.4895 10.0321C27.4505 10.0562 27.3955 10.1947 27.3673 10.3398C27.3391 10.485 27.2617 10.8666 27.1952 11.1881C27.1288 11.5095 27.0182 12.0353 26.9494 12.3568C26.8806 12.6782 26.8043 13.0384 26.7798 13.1573C26.7554 13.2763 26.5669 13.5308 26.3609 13.723C26.1549 13.9153 25.8797 14.1407 25.7495 14.224C25.6029 14.3176 25.306 14.3902 24.9703 14.4141C24.4688 14.45 24.4124 14.4372 24.2199 14.2448C24.0419 14.0668 24.0117 13.9657 24.0117 13.5493C24.0117 13.1613 24.0373 13.062 24.1376 13.062C24.2068 13.062 24.4517 13.0013 24.6816 12.9271C24.9116 12.8529 25.2298 12.7112 25.3887 12.6121C25.5475 12.5131 25.8268 12.2625 26.0094 12.0551C26.2502 11.7814 26.3561 11.579 26.3954 11.3171C26.4252 11.1187 26.4316 10.7975 26.4097 10.6033C26.3879 10.4092 26.3163 10.1967 26.2508 10.1311C26.1851 10.0656 25.9728 9.9692 25.7789 9.91697C25.575 9.86208 25.2555 9.84411 25.0212 9.87441C24.7984 9.90327 24.4633 10.0002 24.2764 10.0898C24.0895 10.1794 23.7578 10.4483 23.5394 10.6873C23.321 10.9263 23.0692 11.2772 22.9798 11.4673C22.8905 11.6572 22.7632 12.0122 22.697 12.256C22.6307 12.4998 22.5511 12.9169 22.5201 13.1828C22.489 13.4487 22.4148 13.7607 22.3552 13.8761C22.2955 13.9915 22.1554 14.1457 22.0439 14.2188C21.9324 14.2918 21.7764 14.3505 21.6972 14.3491C21.6181 14.3477 21.4952 14.3021 21.4241 14.248C21.3529 14.1938 21.273 14.0771 21.2465 13.9886C21.22 13.9001 21.2487 13.5738 21.3103 13.2635C21.3719 12.9532 21.5002 12.3186 21.5953 11.8531C21.737 11.1602 21.752 10.9523 21.6781 10.7057C21.6285 10.54 21.5072 10.3106 21.4085 10.1959C21.263 10.0268 21.135 9.97887 20.7307 9.9422C20.2951 9.9027 20.1801 9.92438 19.8166 10.1145C19.5879 10.234 19.3871 10.3181 19.3704 10.3014C19.3536 10.2847 19.3953 9.98314 19.4629 9.63132C19.5305 9.2795 19.6172 8.82846 19.6555 8.62897C19.6938 8.42949 19.7506 8.16649 19.7815 8.04462C19.8285 7.86004 19.8129 7.82498 19.6881 7.83506C19.6057 7.84167 19.4295 7.86012 19.2965 7.876ZM57.7149 8.38016C57.3007 8.42562 57.2795 8.43972 57.1771 8.73907C57.1184 8.91051 57.0472 9.21945 57.0189 9.42563C56.9772 9.72853 56.9219 9.82654 56.7305 9.9364C56.6002 10.0111 56.4937 10.1284 56.4937 10.1969C56.4937 10.2678 56.5632 10.3216 56.6549 10.3216C56.7435 10.3216 56.8145 10.3488 56.8125 10.3821C56.8106 10.4153 56.773 10.6057 56.7289 10.8052C56.6847 11.0047 56.5985 11.4037 56.5373 11.6918C56.476 11.98 56.3639 12.5059 56.288 12.8605C56.2121 13.2152 56.1333 13.7164 56.1129 13.9744C56.0912 14.2489 56.1169 14.5427 56.1747 14.6824C56.2292 14.8138 56.3643 14.9926 56.4751 15.0798C56.6136 15.1887 56.8009 15.2382 57.0741 15.2382C57.2927 15.2382 57.5384 15.2025 57.6202 15.1587C57.702 15.1149 57.8446 14.9565 57.9373 14.8066C58.0299 14.6567 58.1057 14.4931 58.1057 14.4429C58.1057 14.3927 58.0388 14.3516 57.957 14.3516C57.8752 14.3516 57.7453 14.2821 57.6683 14.197C57.5468 14.0627 57.5394 13.9803 57.6118 13.5723C57.6576 13.3138 57.7513 12.8394 57.8198 12.518C57.8884 12.1965 57.9957 11.6888 58.0582 11.3896C58.1208 11.0904 58.2048 10.7367 58.245 10.6037C58.3065 10.3999 58.3677 10.3555 58.6342 10.3216C58.8511 10.294 58.9588 10.237 58.9773 10.1403C58.9967 10.0379 58.9514 9.99918 58.8121 9.99918C58.7065 9.99918 58.5583 9.95388 58.483 9.89843C58.3722 9.81711 58.3608 9.75101 58.4237 9.55588C58.4666 9.42289 58.5514 9.08743 58.6122 8.81032L58.7227 8.30657L58.4343 8.31971C58.2758 8.32696 57.952 8.35412 57.7149 8.38016ZM49.9689 9.93518C49.6838 9.9987 49.4969 10.1282 49.0598 10.5653C48.6683 10.9569 48.4385 11.2722 48.2633 11.6587C48.0969 12.0258 47.9963 12.4078 47.953 12.8372C47.9178 13.1867 47.9175 13.7339 47.9525 14.0532C48.0112 14.5885 48.0394 14.6539 48.3148 14.8921C48.5109 15.0618 48.7377 15.1692 48.975 15.2048C49.1739 15.2346 49.5672 15.2405 49.8491 15.2178C50.2249 15.1877 50.4839 15.1076 50.8209 14.9174C51.0737 14.7748 51.3926 14.5531 51.5295 14.4247C51.6665 14.2963 51.8097 14.191 51.8478 14.1908C51.8859 14.1906 51.8967 14.3083 51.8718 14.4524C51.8469 14.5965 51.8039 14.8231 51.7762 14.9561L51.7259 15.1979H52.4374H53.1488L53.2527 14.7949C53.3099 14.5733 53.3898 14.2106 53.4302 13.9889C53.4708 13.7673 53.5618 13.332 53.6325 13.0217C53.7034 12.7114 53.8021 12.2132 53.852 11.9147C53.9164 11.5291 54.0081 11.2924 54.1687 11.0977C54.293 10.9469 54.4904 10.7995 54.6074 10.7701C54.7536 10.7335 54.8675 10.7597 54.9718 10.8541C55.0552 10.9296 55.1235 11.051 55.1235 11.124C55.1235 11.1969 55.167 11.3001 55.2202 11.3533C55.2734 11.4065 55.4136 11.45 55.5316 11.45C55.6561 11.45 55.8356 11.3607 55.9588 11.2376C56.1209 11.0754 56.1706 10.9464 56.1686 10.6935C56.1669 10.4905 56.1072 10.2915 56.0146 10.1806C55.8939 10.0358 55.78 9.99918 55.4503 9.99918C55.1958 9.99918 54.9532 10.053 54.8184 10.1392C54.6981 10.2162 54.5516 10.325 54.4931 10.381C54.4345 10.437 54.355 10.4828 54.3165 10.4828C54.2779 10.4828 54.2245 10.4473 54.1976 10.4039C54.1708 10.3605 54.188 10.2516 54.236 10.1621C54.295 10.0519 54.2961 9.99684 54.2397 9.99185C54.1938 9.98782 54.0475 9.98451 53.9145 9.98451C53.7815 9.98451 53.4807 9.98782 53.246 9.99185L52.8193 9.99918L52.7171 10.503C52.6608 10.7801 52.5634 11.2425 52.5006 11.5306C52.4379 11.8188 52.3263 12.3265 52.2529 12.659C52.1544 13.1048 52.0457 13.3548 51.8387 13.6111C51.6844 13.8022 51.4118 14.0509 51.2329 14.1638C51.0213 14.2974 50.7456 14.3839 50.4436 14.4112C50.1883 14.4344 49.8927 14.4316 49.7868 14.405C49.6714 14.3761 49.5394 14.2415 49.4573 14.0693C49.3819 13.9112 49.3202 13.6607 49.3202 13.5125C49.3202 13.3643 49.3656 13.2082 49.421 13.1658C49.4764 13.1232 49.7301 13.0248 49.9849 12.9469C50.2396 12.8691 50.5841 12.7144 50.7506 12.6031C50.9169 12.4919 51.1552 12.3049 51.2798 12.1876C51.4045 12.0703 51.5768 11.8155 51.6626 11.6214C51.7586 11.4045 51.8178 11.0935 51.8162 10.8151C51.8143 10.4951 51.7696 10.3094 51.6642 10.1831C51.5821 10.0846 51.3566 9.96767 51.1632 9.92301C50.9696 9.87844 50.7025 9.84491 50.5695 9.84862C50.4366 9.85225 50.1662 9.89118 49.9689 9.93518ZM25.6882 10.4183C25.7414 10.4715 25.7849 10.6499 25.7849 10.8146C25.7849 10.9794 25.7162 11.2744 25.6323 11.4702C25.5484 11.6659 25.3823 11.9313 25.2632 12.0598C25.144 12.1883 24.9497 12.3574 24.8314 12.4354C24.713 12.5135 24.4983 12.5776 24.3542 12.5779C24.1576 12.5783 24.0928 12.5433 24.0943 12.4374C24.0953 12.3598 24.1644 12.0927 24.2477 11.8438C24.331 11.595 24.4577 11.2781 24.5294 11.1397C24.6009 11.0012 24.7714 10.7606 24.9081 10.6048C25.077 10.4124 25.2265 10.3216 25.3741 10.3216C25.4937 10.3216 25.635 10.3651 25.6882 10.4183ZM37.8312 10.9741C37.828 11.5404 37.8081 11.611 37.5662 11.9164C37.4223 12.098 37.1838 12.3213 37.0362 12.4125C36.8886 12.5038 36.6543 12.5784 36.5154 12.5784C36.345 12.5784 36.263 12.5392 36.263 12.4578C36.263 12.3915 36.3411 12.1105 36.4367 11.8332C36.5323 11.5559 36.7 11.184 36.8093 11.0067C36.9188 10.8294 37.0843 10.601 37.1771 10.4992C37.2965 10.3683 37.4176 10.321 37.5904 10.338L37.8347 10.3619L37.8312 10.9741ZM51.0618 10.4627C51.1208 10.5402 51.1701 10.684 51.1715 10.782C51.1729 10.8801 51.0961 11.1688 51.0008 11.4235C50.8986 11.6967 50.7085 11.9991 50.5373 12.1611C50.3777 12.312 50.1632 12.4677 50.0606 12.507C49.9579 12.5463 49.7856 12.5784 49.6777 12.5784C49.524 12.5784 49.4814 12.5363 49.4814 12.3841C49.4814 12.2772 49.561 11.9779 49.6583 11.7191C49.7556 11.4603 49.9239 11.1051 50.0324 10.9298C50.1409 10.7545 50.3061 10.5471 50.3996 10.469C50.4931 10.3909 50.6562 10.3258 50.7622 10.3243C50.8681 10.3228 51.0029 10.3851 51.0618 10.4627ZM45.9881 10.6253C46.0396 10.658 46.1438 10.8403 46.2199 11.0306C46.3093 11.254 46.3417 11.4822 46.3114 11.6751C46.2856 11.8395 46.2268 12.2191 46.1806 12.5187C46.1344 12.8184 46.0657 13.1267 46.0277 13.2038C45.9897 13.281 45.8947 13.4774 45.8165 13.6403C45.7384 13.8033 45.5689 14.0375 45.4401 14.1609C45.2481 14.3449 45.1322 14.3858 44.7948 14.3886C44.4947 14.391 44.3602 14.3553 44.2965 14.256C44.2338 14.1581 44.2349 14.0112 44.3005 13.7321C44.3506 13.5187 44.4517 13.054 44.5251 12.6993C44.5984 12.3447 44.7139 11.8097 44.7815 11.5103C44.8762 11.0919 44.96 10.9195 45.1439 10.7647C45.2904 10.6415 45.4824 10.5639 45.639 10.5646C45.7796 10.5653 45.9368 10.5927 45.9881 10.6253Z" fill="white"/>
</g>
<defs>
<clipPath id="clip0_405_218">
<rect width="60" height="20" fill="white"/>
</clipPath>
</defs>
</svg>
