<svg width="72" height="24" viewBox="0 0 72 24" fill="none" xmlns="http://www.w3.org/2000/svg">
<path d="M0.773154 4.87613C0.295102 4.3662 -0.119211 4.65303 0.263231 5.2267C1.54866 7.23451 4.15139 11.2884 4.27887 11.4414C4.40635 11.5689 4.53383 11.8876 4.27887 12.27C3.0678 14.1078 0.556436 17.9174 0.199491 18.4528C-0.246691 19.1221 0.10388 19.4726 0.773153 18.8034L7.11531 12.4612C7.24279 12.3337 7.78458 11.9194 7.11531 11.2501L0.773154 4.87613Z" fill="#109BD4"/>
<path d="M1.0379 19.2268C0.527977 19.7049 0.814806 20.1192 1.38847 19.7368C3.39629 18.4513 7.45017 15.8486 7.60314 15.7211C7.73062 15.5937 8.04933 15.4662 8.43177 15.7211C10.2696 16.9322 14.0792 19.4436 14.6146 19.8005C15.2838 20.2467 15.6344 19.8961 14.9651 19.2268L8.62299 12.8847C8.49551 12.7572 8.0812 12.2154 7.41192 12.8847L1.0379 19.2268Z" fill="#D4372D"/>
<path d="M8.70927 10.8091L14.8916 4.62675C15.2741 4.23863 14.9872 4.23863 14.8916 4.23863L12.9157 4.23863C12.4695 4.23863 12.4058 4.2705 12.3101 4.36611L8.35825 7.55312C7.89932 7.93556 7.43612 7.74434 7.14718 7.55312C6.85825 7.3619 1.70023 3.9005 1.13736 3.52452C0.433777 3.05455 0.0652323 3.42381 0.768817 4.12877L7.43612 10.8091C7.57014 10.9434 8.00569 11.5141 8.70927 10.8091Z" fill="#3DAD4B"/>
<path d="M15.3614 4.87613C15.8395 4.3662 16.2538 4.65303 15.8713 5.2267C14.5859 7.23451 11.9832 11.2884 11.8557 11.4414C11.7282 11.5689 11.6007 11.8876 11.8557 12.27C13.0667 14.1078 15.5781 17.9174 15.9351 18.4528C16.3812 19.1221 16.0307 19.4726 15.3614 18.8034L9.01924 12.4612C8.89176 12.3337 8.34997 11.9194 9.01924 11.2501L15.3614 4.87613Z" fill="#F5DE16"/>
<rect x="12.9475" y="3.56952" width="0.509922" height="0.509922" fill="#3DAD4B"/>
<rect x="13.7124" y="2.86823" width="0.509922" height="0.509922" fill="#3DAD4B"/>
<rect x="13.6487" y="3.56952" width="0.509922" height="0.509922" fill="#3DAD4B"/>
<rect x="14.4136" y="2.86823" width="0.509922" height="0.509922" fill="#3DAD4B"/>
<rect x="15.1147" y="2.16718" width="0.509922" height="0.509922" fill="#3DAD4B"/>
<rect x="15.8796" y="1.4024" width="0.509922" height="0.509922" fill="#3DAD4B"/>
<rect x="15.8159" y="2.16718" width="0.509922" height="0.509922" fill="#3DAD4B"/>
<rect x="16.517" y="0.701111" width="0.509922" height="0.509922" fill="#3DAD4B"/>
<rect x="17.1544" width="0.509922" height="0.509922" fill="#3DAD4B"/>
<rect x="14.3498" y="3.56952" width="0.509922" height="0.509922" fill="#3DAD4B"/>
<rect x="15.1147" y="2.86823" width="0.509922" height="0.509922" fill="#3DAD4B"/>
<path fill-rule="evenodd" clip-rule="evenodd" d="M23.1558 7.05101C22.9962 7.06997 22.6844 7.10914 22.4631 7.13787C22.2119 7.17046 22.0346 7.2519 21.9912 7.35471C21.9531 7.44525 21.8646 7.824 21.7946 8.19638C21.7246 8.56875 21.6021 9.17809 21.5225 9.55047C21.443 9.92284 21.3152 10.5104 21.2385 10.8562C21.1618 11.202 21.0247 11.8331 20.9338 12.2586C20.843 12.6842 20.7365 13.1847 20.697 13.3709C20.6576 13.5571 20.5527 13.8486 20.464 14.0188C20.3753 14.1889 20.1571 14.4392 19.9792 14.5749C19.8012 14.7107 19.5467 14.8217 19.4137 14.8217C19.2806 14.8217 19.0927 14.7343 18.9959 14.6273C18.8389 14.4538 18.8315 14.3681 18.9265 13.8294C18.9851 13.4974 19.0988 12.9212 19.1792 12.5488C19.2597 12.1764 19.3719 11.6324 19.4287 11.3398C19.4855 11.0472 19.5798 10.6251 19.6382 10.4018C19.7394 10.0153 19.7638 9.99432 20.1436 9.96656C20.4233 9.94605 20.5517 9.88938 20.573 9.77699C20.5945 9.66353 20.5098 9.59651 20.2837 9.54795C20.1079 9.51023 19.9379 9.46419 19.9059 9.44562C19.874 9.42705 19.9316 9.01463 20.0339 8.5291C20.1362 8.04366 20.2007 7.62718 20.1773 7.60367C20.1538 7.58027 19.7771 7.59081 19.3401 7.62727C18.6015 7.68888 18.5388 7.71123 18.4482 7.945C18.3946 8.08321 18.3021 8.45385 18.2426 8.76848C18.1543 9.23574 18.0851 9.36883 17.865 9.49389C17.7169 9.57823 17.5953 9.7234 17.5949 9.81645C17.5946 9.90949 17.657 9.98571 17.7337 9.98571C17.8104 9.98571 17.8935 10.0187 17.9184 10.0591C17.9434 10.0995 17.9219 10.3279 17.8707 10.5669C17.8195 10.8058 17.7146 11.2951 17.6376 11.6541C17.5606 12.0132 17.4281 12.6225 17.3429 13.0082C17.2579 13.394 17.1668 13.9628 17.1406 14.2724C17.1123 14.6069 17.1408 14.9511 17.211 15.1206C17.276 15.2776 17.4627 15.5182 17.6258 15.6555C17.8954 15.8824 17.9837 15.9015 18.6046 15.8675C19.1405 15.8382 19.3748 15.7739 19.6961 15.5677C19.9211 15.4234 20.1278 15.3053 20.1555 15.3053C20.1831 15.3053 20.2058 15.4259 20.2058 15.5732V15.8409L21.0468 15.8352L21.8877 15.8294L22.0134 15.3497C22.0824 15.086 22.1809 14.6525 22.2322 14.3865C22.2835 14.1205 22.3904 13.5982 22.4697 13.2259C22.549 12.8535 22.6628 12.3141 22.7225 12.0271C22.7822 11.7401 22.9013 11.3919 22.9871 11.2533C23.0729 11.1147 23.2297 10.9034 23.3356 10.7837C23.4488 10.6555 23.6395 10.566 23.799 10.566C23.984 10.566 24.1223 10.6456 24.2341 10.8163C24.3763 11.0333 24.3842 11.1524 24.2934 11.711C24.2358 12.0654 24.115 12.66 24.025 13.0324C23.9349 13.4048 23.8401 13.9868 23.814 14.326C23.7775 14.8035 23.8064 15.0159 23.9423 15.2682C24.0388 15.4473 24.256 15.6595 24.4251 15.7398C24.5942 15.82 24.9516 15.8857 25.2194 15.8857C25.4872 15.8857 25.8176 15.8433 25.9536 15.7917C26.0897 15.7399 26.3965 15.5174 26.6355 15.297L27.07 14.8965L27.4961 15.367L27.9221 15.8373H28.9242C29.774 15.8373 29.9947 15.8036 30.3771 15.6151C30.6252 15.493 31.0297 15.2156 31.276 14.9987C31.5224 14.7819 31.7483 14.6288 31.778 14.6586C31.8078 14.6883 31.8003 14.9439 31.7614 15.2266C31.7225 15.5093 31.7072 15.7593 31.7273 15.782C31.7474 15.8047 32.1064 15.8265 32.5251 15.8303C33.2506 15.837 33.2906 15.826 33.3794 15.5955C33.4307 15.4625 33.5325 15.049 33.6058 14.6767C33.6792 14.3043 33.8019 13.7167 33.8787 13.3709C33.9556 13.0252 34.0667 12.5029 34.1258 12.2103C34.1848 11.9177 34.3182 11.4968 34.4221 11.2749C34.5259 11.053 34.709 10.8028 34.829 10.7188C34.9489 10.6348 35.1654 10.566 35.31 10.566C35.4547 10.566 35.6045 10.6171 35.6432 10.6796C35.6817 10.7421 35.7085 11.0013 35.7027 11.2557C35.6969 11.51 35.6288 11.9921 35.5513 12.3269C35.4738 12.6618 35.3341 13.3056 35.2411 13.7578C35.148 14.21 35.013 14.8176 34.9412 15.108C34.8694 15.3985 34.8106 15.6823 34.8106 15.7386C34.8106 15.803 35.114 15.8389 35.6285 15.8353C36.0783 15.8322 36.4804 15.7957 36.5219 15.7541C36.5635 15.7126 36.6555 15.3661 36.7265 14.9842C36.7975 14.6023 36.8918 14.1157 36.9359 13.9029C36.9801 13.6901 37.0833 13.2113 37.1653 12.839C37.2472 12.4666 37.362 11.9701 37.4204 11.7357C37.4788 11.5012 37.659 11.1422 37.8209 10.9377C38.0351 10.6675 38.1882 10.566 38.3824 10.566C38.5293 10.566 38.7256 10.6503 38.8188 10.7532C38.9509 10.8991 38.9778 11.0537 38.9411 11.4544C38.9152 11.7371 38.822 12.2732 38.7339 12.6455C38.6459 13.0179 38.5302 13.5837 38.4769 13.9029C38.4236 14.2221 38.4055 14.6617 38.4367 14.8798C38.4749 15.1465 38.5894 15.3682 38.7862 15.5568C39.0622 15.8213 39.1261 15.8373 39.8983 15.8373C40.3489 15.8373 40.7497 15.7938 40.789 15.7406C40.8283 15.6874 41.0417 15.4743 41.2633 15.267L41.6663 14.8903L42.1603 15.3344C42.5377 15.6737 42.7588 15.7942 43.0973 15.8449C43.3411 15.8815 43.9089 15.8884 44.3592 15.8603C44.8097 15.8322 45.2262 15.7611 45.2849 15.7024C45.3438 15.6436 45.4512 15.5955 45.5238 15.5955C45.5963 15.5955 45.8814 15.492 46.1573 15.3654C46.4331 15.2389 46.8971 14.956 47.1882 14.7367C47.4794 14.5176 47.7714 14.3381 47.8372 14.3381C47.903 14.3381 48.0113 14.5202 48.078 14.7425C48.1447 14.965 48.362 15.3182 48.5612 15.5275L48.9231 15.908L49.5803 15.8684C50.0864 15.8379 50.3325 15.7681 50.6506 15.5646C50.9981 15.3423 51.0729 15.324 51.121 15.4494C51.1524 15.5313 51.1484 15.6957 51.1121 15.8146C51.0758 15.9334 50.983 16.3354 50.9058 16.7078C50.8287 17.0802 50.7074 17.6895 50.6364 18.0619C50.5654 18.4343 50.4773 18.8081 50.4405 18.8927C50.38 19.0322 50.4304 19.0337 50.9827 18.9087C51.3176 18.8328 51.7125 18.7476 51.8603 18.7193C52.008 18.6911 52.1759 18.5801 52.2333 18.4728C52.2907 18.3657 52.4014 17.9464 52.4792 17.5412C52.5572 17.1361 52.6679 16.5503 52.7255 16.2397C52.7857 15.9143 52.8895 15.6521 52.9702 15.621C53.0473 15.5915 53.1454 15.6241 53.1884 15.6936C53.2313 15.7631 53.5079 15.8399 53.803 15.8644C54.0981 15.8889 54.5353 15.8796 54.7745 15.8437C55.1004 15.7948 55.3286 15.6713 55.6847 15.3511C55.9463 15.116 56.3138 14.6656 56.5016 14.3504C56.6895 14.0351 56.8974 13.5661 56.9639 13.3081C57.0303 13.0501 57.1034 12.4255 57.1265 11.9201C57.1574 11.2401 57.1263 10.8631 57.0066 10.4693C56.9044 10.1329 56.7514 9.86742 56.5903 9.7471C56.4218 9.62126 56.1347 9.54408 55.7421 9.51903C55.2882 9.49011 55.0402 9.52919 54.6877 9.6851C54.4342 9.7973 54.2047 9.88899 54.1776 9.88899C54.1506 9.88899 54.1555 9.69148 54.1886 9.44997L54.2487 9.01106L53.4106 9.03891L52.5723 9.06686L52.492 9.35703C52.4479 9.51661 52.3448 9.95186 52.263 10.3242C52.181 10.6966 52.0745 11.1971 52.0261 11.4365C51.9777 11.6759 51.8751 12.1764 51.798 12.5488C51.7209 12.9212 51.6061 13.3971 51.5428 13.6064C51.4794 13.8157 51.363 14.0856 51.284 14.206C51.2051 14.3265 50.9844 14.5173 50.7936 14.6298C50.577 14.7576 50.3624 14.8133 50.2224 14.7782C50.0991 14.7473 49.9341 14.6241 49.8558 14.5045C49.7773 14.385 49.6431 14.013 49.5572 13.6779C49.4172 13.1315 49.4163 13.0468 49.5481 12.8571C49.6291 12.7407 49.8517 12.4714 50.0429 12.2586C50.2342 12.0459 50.5411 11.6469 50.725 11.372C50.909 11.0971 51.109 10.6572 51.1696 10.3945C51.2303 10.1319 51.2501 9.75812 51.2136 9.5641C51.1773 9.36998 51.0542 9.12432 50.9402 9.01812C50.8239 8.90969 50.5992 8.82506 50.4277 8.82506C50.2547 8.82506 50.053 8.90176 49.9624 9.00196C49.8743 9.09927 49.8023 9.31147 49.8023 9.47367C49.8023 9.63587 49.8567 9.81326 49.9232 9.8679C49.9897 9.92246 50.1529 9.98223 50.2859 10.0006C50.464 10.0253 50.5354 10.1008 50.5571 10.2873C50.5735 10.429 50.4743 10.7414 50.3319 10.9964C50.1919 11.2472 49.9829 11.5634 49.8673 11.6991C49.7517 11.8348 49.5969 12.0081 49.5232 12.0843C49.4495 12.1605 49.3522 12.1858 49.3071 12.1406C49.2619 12.0955 49.1845 11.7989 49.135 11.4816C49.0856 11.1642 48.9918 10.613 48.9267 10.2568C48.8187 9.66653 48.7858 9.60647 48.5557 9.57977C48.4168 9.56362 48.0268 9.56526 47.689 9.58335C47.0781 9.61604 47.0752 9.61749 47.1385 9.87351C47.1736 10.015 47.2625 10.4572 47.3363 10.8562C47.41 11.2552 47.5374 11.9883 47.6193 12.4854C47.7238 13.1191 47.7389 13.4439 47.6701 13.5726C47.616 13.6735 47.3447 13.9202 47.067 14.1208C46.7893 14.3215 46.3881 14.5679 46.1753 14.6684C45.9348 14.782 45.4869 14.8685 44.9919 14.8969C44.3613 14.9331 44.1451 14.9097 43.9541 14.7845C43.8215 14.6976 43.6443 14.4937 43.5603 14.3314C43.4764 14.1692 43.421 13.8814 43.4374 13.6921C43.4658 13.3625 43.4917 13.3404 44.0474 13.1692C44.3666 13.0708 44.7365 12.9359 44.8695 12.8692C45.0025 12.8027 45.2673 12.6293 45.4579 12.4839C45.6485 12.3385 45.9205 11.9959 46.0624 11.7224C46.2638 11.3342 46.3203 11.0884 46.3203 10.6014C46.3203 10.1316 46.2768 9.93096 46.1441 9.7884C46.0471 9.68442 45.7278 9.55105 45.4346 9.49214C45.0398 9.41283 44.7655 9.4139 44.3776 9.4963C44.0896 9.55753 43.6819 9.72602 43.4716 9.87081C43.2613 10.0156 42.9082 10.3561 42.6869 10.6275C42.4657 10.8988 42.1733 11.4205 42.0373 11.7865C41.9011 12.1525 41.7227 12.8602 41.6407 13.359C41.5076 14.1689 41.4584 14.2957 41.1804 14.5439C41.0092 14.6967 40.7764 14.8217 40.663 14.8217C40.5496 14.8217 40.3575 14.7292 40.2362 14.6161C40.0606 14.4526 40.0255 14.339 40.0641 14.06C40.0909 13.8672 40.1847 13.4265 40.2727 13.0808C40.3607 12.735 40.4709 12.2562 40.5175 12.0168C40.5641 11.7775 40.6049 11.2668 40.608 10.8819C40.6133 10.2412 40.5899 10.1555 40.3314 9.86636C40.0607 9.56362 40.0194 9.55056 39.34 9.5524C38.7987 9.55385 38.5625 9.59941 38.3409 9.74536C38.1813 9.8504 37.9714 10.0346 37.8744 10.1545C37.7775 10.2744 37.6469 10.3709 37.5842 10.3688C37.5217 10.3668 37.3833 10.2266 37.2768 10.0573C37.1703 9.88792 36.9744 9.69158 36.8415 9.62098C36.6876 9.53915 36.3891 9.50704 36.0192 9.53257C35.656 9.55772 35.3119 9.64989 35.1004 9.77882C34.9144 9.89228 34.7337 9.98513 34.6988 9.98532C34.6639 9.98552 34.6581 9.89866 34.6858 9.79227C34.7176 9.6705 34.6875 9.59544 34.6043 9.58954C34.5316 9.58451 34.1571 9.58151 33.7722 9.58296C33.3873 9.58451 33.0341 9.60937 32.9873 9.63829C32.9405 9.66721 32.8745 9.83338 32.8407 10.0076C32.8068 10.1818 32.714 10.6397 32.6342 11.0255C32.5545 11.4112 32.4218 12.0422 32.3392 12.4279C32.2566 12.8136 32.1651 13.2459 32.1357 13.3885C32.1064 13.5313 31.8801 13.8367 31.6329 14.0674C31.3858 14.2981 31.0556 14.5686 30.8993 14.6685C30.7234 14.7809 30.3671 14.868 29.9643 14.8967C29.3625 14.9398 29.2948 14.9245 29.0637 14.6935C28.8502 14.4799 28.8139 14.3586 28.8139 13.8589C28.8139 13.3934 28.8447 13.2742 28.965 13.2742C29.0481 13.2742 29.3419 13.2014 29.6179 13.1123C29.8938 13.0232 30.2757 12.8532 30.4663 12.7343C30.6569 12.6155 30.9921 12.3147 31.2111 12.0659C31.5001 11.7375 31.6272 11.4946 31.6744 11.1803C31.7101 10.9422 31.7179 10.5567 31.6915 10.3237C31.6653 10.0908 31.5794 9.83579 31.5008 9.75716C31.4221 9.67852 31.1673 9.56285 30.9346 9.50017C30.6899 9.43431 30.3065 9.41274 30.0253 9.4491C29.758 9.48373 29.3558 9.60008 29.1315 9.70754C28.9072 9.81509 28.5092 10.1378 28.2471 10.4245C27.9851 10.7113 27.683 11.1324 27.5757 11.3605C27.4685 11.5885 27.3157 12.0144 27.2363 12.307C27.1568 12.5996 27.0612 13.1001 27.024 13.4192C26.9868 13.7383 26.8977 14.1127 26.8261 14.2511C26.7545 14.3896 26.5864 14.5746 26.4526 14.6623C26.3188 14.75 26.1316 14.8204 26.0366 14.8186C25.9416 14.817 25.7941 14.7624 25.7088 14.6974C25.6234 14.6324 25.5275 14.4923 25.4957 14.3861C25.4639 14.2799 25.4983 13.8884 25.5723 13.516C25.6462 13.1436 25.8002 12.3821 25.9143 11.8235C26.0844 10.992 26.1023 10.7425 26.0137 10.4466C25.9541 10.2478 25.8085 9.97256 25.6901 9.83492C25.5155 9.632 25.3619 9.57445 24.8768 9.53045C24.354 9.48305 24.216 9.50907 23.7798 9.73714C23.5054 9.88057 23.2645 9.98155 23.2443 9.96143C23.2242 9.94141 23.2742 9.57958 23.3554 9.15739C23.4365 8.73521 23.5405 8.19396 23.5865 7.95458C23.6325 7.71519 23.7006 7.39959 23.7377 7.25335C23.7941 7.03186 23.7753 6.98979 23.6256 7.00188C23.5268 7.00981 23.3153 7.03196 23.1558 7.05101ZM69.2577 7.656C68.7607 7.71055 68.7354 7.72748 68.6124 8.0867C68.542 8.29242 68.4566 8.66315 68.4226 8.91056C68.3726 9.27404 68.3062 9.39165 68.0765 9.52348C67.9202 9.61314 67.7923 9.75387 67.7923 9.83608C67.7923 9.9212 67.8757 9.98571 67.9858 9.98571C68.0922 9.98571 68.1773 10.0183 68.175 10.0582C68.1726 10.0982 68.1275 10.3266 68.0746 10.566C68.0216 10.8054 67.9182 11.2842 67.8447 11.63C67.7711 11.9757 67.6366 12.6068 67.5455 13.0324C67.4545 13.458 67.3599 14.0595 67.3354 14.3691C67.3093 14.6984 67.3402 15.051 67.4096 15.2187C67.4749 15.3763 67.6371 15.591 67.7701 15.6955C67.9362 15.8262 68.161 15.8857 68.4888 15.8857C68.7511 15.8857 69.046 15.8427 69.1441 15.7902C69.2423 15.7377 69.4135 15.5475 69.5247 15.3677C69.6358 15.1878 69.7267 14.9915 69.7267 14.9312C69.7267 14.871 69.6465 14.8217 69.5483 14.8217C69.4501 14.8217 69.2943 14.7383 69.2018 14.6361C69.0561 14.475 69.0472 14.3761 69.134 13.8865C69.1891 13.5764 69.3015 13.0071 69.3837 12.6213C69.466 12.2356 69.5947 11.6263 69.6698 11.2673C69.7449 10.9082 69.8457 10.4838 69.894 10.3242C69.9678 10.0797 70.0412 10.0264 70.3609 9.98571C70.6212 9.95253 70.7505 9.88415 70.7727 9.76809C70.796 9.64525 70.7416 9.59883 70.5744 9.59883C70.4477 9.59883 70.2699 9.54447 70.1795 9.47793C70.0466 9.38033 70.0329 9.30102 70.1084 9.06686C70.1598 8.90727 70.2616 8.50472 70.3345 8.1722L70.4671 7.56769L70.1211 7.58346C69.9308 7.59216 69.5423 7.62476 69.2577 7.656ZM59.9626 9.52203C59.6205 9.59825 59.3962 9.75368 58.8717 10.2782C58.4018 10.7481 58.1262 11.1264 57.9159 11.5902C57.7162 12.0308 57.5955 12.4891 57.5435 13.0045C57.5012 13.4238 57.501 14.0805 57.5429 14.4636C57.6134 15.106 57.6472 15.1844 57.9777 15.4703C58.213 15.6739 58.4851 15.8028 58.7699 15.8455C59.0085 15.8813 59.4805 15.8884 59.8188 15.8612C60.2698 15.825 60.5806 15.7289 60.985 15.5007C61.2883 15.3295 61.671 15.0634 61.8353 14.9094C61.9997 14.7553 62.1716 14.629 62.2173 14.6288C62.263 14.6285 62.276 14.7697 62.2461 14.9426C62.2162 15.1156 62.1645 15.3876 62.1314 15.5471L62.071 15.8373H62.9248H63.7784L63.9031 15.3537C63.9718 15.0877 64.0676 14.6525 64.1162 14.3865C64.1648 14.1205 64.274 13.5982 64.3589 13.2259C64.444 12.8535 64.5624 12.2556 64.6223 11.8974C64.6996 11.4347 64.8097 11.1507 65.0023 10.917C65.1516 10.7361 65.3884 10.5592 65.5288 10.524C65.7042 10.48 65.8409 10.5114 65.966 10.6246C66.0662 10.7153 66.1481 10.861 66.1481 10.9486C66.1481 11.0361 66.2003 11.1599 66.2641 11.2237C66.328 11.2876 66.4962 11.3398 66.6379 11.3398C66.7872 11.3398 67.0026 11.2326 67.1505 11.0848C67.345 10.8902 67.4047 10.7355 67.4022 10.432C67.4002 10.1884 67.3286 9.94963 67.2174 9.81645C67.0725 9.64274 66.936 9.59883 66.5403 9.59883C66.2348 9.59883 65.9438 9.66334 65.782 9.76683C65.6376 9.8592 65.4618 9.98977 65.3916 10.057C65.3213 10.1242 65.2259 10.1792 65.1797 10.1792C65.1334 10.1792 65.0693 10.1365 65.037 10.0845C65.0048 10.0323 65.0255 9.90176 65.0831 9.7943C65.1539 9.66208 65.1552 9.59602 65.0875 9.59002C65.0325 9.58519 64.8569 9.58122 64.6973 9.58122C64.5377 9.58122 64.1767 9.58519 63.8951 9.59002L63.3831 9.59883L63.2604 10.2033C63.1929 10.5359 63.076 11.0907 63.0007 11.4365C62.9253 11.7823 62.7915 12.3916 62.7034 12.7906C62.5852 13.3256 62.4547 13.6255 62.2063 13.9331C62.0212 14.1624 61.6941 14.4609 61.4794 14.5964C61.2255 14.7566 60.8946 14.8604 60.5322 14.8932C60.2259 14.9211 59.8712 14.9177 59.7441 14.8858C59.6056 14.851 59.4472 14.6896 59.3486 14.4829C59.2582 14.2933 59.1842 13.9927 59.1842 13.8148C59.1842 13.6369 59.2386 13.4497 59.3051 13.3987C59.3716 13.3476 59.676 13.2295 59.9817 13.1361C60.2874 13.0428 60.7009 12.8571 60.9006 12.7235C61.1002 12.59 61.3861 12.3656 61.5357 12.2249C61.6853 12.0842 61.8921 11.7784 61.9951 11.5454C62.1103 11.2852 62.1813 10.912 62.1793 10.5779C62.177 10.1939 62.1234 9.97101 61.9969 9.81945C61.8985 9.70135 61.6278 9.56101 61.3957 9.50743C61.1635 9.45394 60.8429 9.4137 60.6834 9.41815C60.5238 9.4225 60.1994 9.46922 59.9626 9.52203ZM30.8257 10.1018C30.8895 10.1656 30.9418 10.3797 30.9418 10.5773C30.9418 10.775 30.8594 11.129 30.7587 11.364C30.658 11.5989 30.4586 11.9173 30.3157 12.0716C30.1727 12.2258 29.9395 12.4287 29.7976 12.5223C29.6555 12.616 29.3979 12.6929 29.225 12.6932C28.989 12.6937 28.9112 12.6517 28.913 12.5246C28.9143 12.4316 28.9972 12.111 29.0971 11.8124C29.1971 11.5138 29.3492 11.1335 29.4351 10.9674C29.521 10.8013 29.7256 10.5125 29.8896 10.3255C30.0924 10.0947 30.2717 9.98571 30.4489 9.98571C30.5923 9.98571 30.7619 10.0379 30.8257 10.1018ZM45.3973 10.7687C45.3935 11.4483 45.3697 11.5329 45.0793 11.8995C44.9067 12.1174 44.6205 12.3853 44.4434 12.4948C44.2662 12.6043 43.985 12.6939 43.8184 12.6939C43.6139 12.6939 43.5154 12.6469 43.5154 12.5492C43.5154 12.4696 43.6093 12.1323 43.724 11.7996C43.8387 11.4669 44.0399 11.0206 44.1711 10.8078C44.3025 10.595 44.501 10.3209 44.6125 10.1988C44.7557 10.0417 44.901 9.98503 45.1083 10.0053L45.4015 10.0341L45.3973 10.7687ZM61.2741 10.155C61.3448 10.248 61.404 10.4206 61.4057 10.5382C61.4074 10.6559 61.3152 11.0023 61.2008 11.308C61.0782 11.6359 60.8501 11.9988 60.6447 12.1931C60.4532 12.3742 60.1957 12.561 60.0726 12.6082C59.9494 12.6553 59.7427 12.6939 59.6131 12.6939C59.4287 12.6939 59.3776 12.6433 59.3776 12.4607C59.3776 12.3324 59.4731 11.9733 59.5898 11.6627C59.7066 11.3522 59.9086 10.9259 60.0388 10.7156C60.169 10.5052 60.3673 10.2563 60.4795 10.1626C60.5916 10.0689 60.7873 9.99074 60.9145 9.9889C61.0416 9.98716 61.2034 10.0619 61.2741 10.155ZM55.1857 10.3502C55.2474 10.3894 55.3725 10.6082 55.4638 10.8365C55.5711 11.1046 55.61 11.3784 55.5736 11.6099C55.5427 11.8072 55.4721 12.2627 55.4166 12.6222C55.3612 12.9818 55.2787 13.3518 55.2332 13.4443C55.1876 13.537 55.0736 13.7727 54.9797 13.9682C54.8859 14.1637 54.6826 14.4448 54.5281 14.5929C54.2976 14.8137 54.1585 14.8628 53.7537 14.8661C53.3935 14.869 53.2321 14.8261 53.1557 14.7069C53.0804 14.5895 53.0818 14.4132 53.1605 14.0782C53.2207 13.8222 53.342 13.2645 53.43 12.839C53.518 12.4134 53.6566 11.7714 53.7378 11.4121C53.8513 10.9101 53.9519 10.7032 54.1726 10.5175C54.3484 10.3696 54.5787 10.2765 54.7667 10.2773C54.9354 10.2782 55.1241 10.311 55.1857 10.3502Z" fill="black"/>
</svg>
