<svg width="24" height="24" viewBox="0 0 24 24" fill="none" xmlns="http://www.w3.org/2000/svg">
<path opacity="0.36" d="M6.93333 2H15.7333C17.2865 2 18.5677 3.22333 18.6612 4.75401C18.1369 4.43445 17.5223 4.25 16.8667 4.25H6.46667C5.50403 4.25 4.62975 4.64765 4 5.2868V4.93333C4 3.32 5.32 2 6.93333 2Z" fill="#A4FFCA"/>
<path opacity="0.56" d="M6.46667 4.25H16.8667C18.7733 4.25 20.3333 5.81 20.3333 7.71667V7.75614C19.6755 7.2808 18.8689 7 18 7H6C4.80856 7 3.73444 7.52792 3 8.3614V7.71667C3 5.81 4.56 4.25 6.46667 4.25Z" fill="#A4FFCA"/>
<path fill-rule="evenodd" clip-rule="evenodd" d="M6 7H18C20.2 7 22 8.8 22 11V18C22 20.2 20.2 22 18 22H6C3.8 22 2 20.2 2 18V11C2 8.8 3.8 7 6 7ZM11.9242 13.9576H12.0957C13.2958 13.9233 14.2444 12.9404 14.233 11.7288C14.233 10.5058 13.2386 9.5 12.0042 9.5C10.7698 9.5 9.77547 10.4944 9.77547 11.7288C9.77547 12.9404 10.7241 13.9119 11.9242 13.9576ZM9.44921 18.7563C8.1836 17.8826 8.1836 16.4591 9.44921 15.5854C10.8956 14.6037 13.2461 14.6037 14.683 15.5854C15.9486 16.4591 15.9486 17.8826 14.683 18.7563C13.2461 19.7479 10.8861 19.7479 9.44921 18.7563Z" fill="#A4FFCA"/>
<g opacity="0.16">
<path d="M12.0956 13.9576C12.0499 13.9576 11.9812 13.9576 11.9241 13.9576C10.724 13.9119 9.77539 12.9404 9.77539 11.7288C9.77539 10.4944 10.7697 9.5 12.0041 9.5C13.2385 9.5 14.2329 10.5058 14.2329 11.7288C14.2443 12.9404 13.2957 13.9233 12.0956 13.9576Z" fill="#A4FFCA"/>
<path d="M9.44921 15.5854C8.1836 16.4591 8.1836 17.8826 9.44921 18.7563C10.8861 19.7479 13.2461 19.7479 14.683 18.7563C15.9486 17.8826 15.9486 16.4591 14.683 15.5854C13.2461 14.6037 10.8956 14.6037 9.44921 15.5854Z" fill="#A4FFCA"/>
</g>
</svg>
