<svg width="24" height="24" viewBox="0 0 24 24" fill="none" xmlns="http://www.w3.org/2000/svg">
<path opacity="0.6" d="M4 2H20C21.1046 2 22 2.89543 22 4V16.9999C22 18.1045 21.1046 18.9999 20 18.9999H18.5V13.5C18.5 12.9477 18.0523 12.5 17.5 12.5H12.5C11.9477 12.5 11.5 12.9477 11.5 13.5V18.9999H4C2.89543 18.9999 2 18.1045 2 16.9999V4C2 2.89543 2.89543 2 4 2Z" fill="#A4FFCA"/>
<g opacity="0.4">
<path fill-rule="evenodd" clip-rule="evenodd" d="M6.75 19V21.25H5.25V19H6.75Z" fill="#A4FFCA"/>
<path fill-rule="evenodd" clip-rule="evenodd" d="M3.75 22C3.75 21.5858 4.08579 21.25 4.5 21.25H7.5C7.91421 21.25 8.25 21.5858 8.25 22C8.25 22.4142 7.91421 22.75 7.5 22.75H4.5C4.08579 22.75 3.75 22.4142 3.75 22Z" fill="#A4FFCA"/>
</g>
<path fill-rule="evenodd" clip-rule="evenodd" d="M18.5 21.5V13.5C18.5 12.9477 18.0523 12.5 17.5 12.5H12.5C11.9477 12.5 11.5 12.9477 11.5 13.5V21.5C11.5 22.0523 11.9477 22.5 12.5 22.5H17.5C18.0523 22.5 18.5 22.0523 18.5 21.5ZM13.5 21.65C13.3619 21.65 13.25 21.7619 13.25 21.9C13.25 22.0381 13.3619 22.15 13.5 22.15H16.5C16.638 22.15 16.75 22.0381 16.75 21.9C16.75 21.7619 16.638 21.65 16.5 21.65H13.5ZM13.7 13.425C13.7 13.1903 13.8903 13 14.125 13H15.875C16.1097 13 16.3 13.1903 16.3 13.425C16.3 13.6597 16.1097 13.85 15.875 13.85H14.125C13.8903 13.85 13.7 13.6597 13.7 13.425Z" fill="#A4FFCA"/>
<path opacity="0.6" fill-rule="evenodd" clip-rule="evenodd" d="M13.25 21.8999C13.25 21.7618 13.3619 21.6499 13.5 21.6499H16.5C16.6381 21.6499 16.75 21.7618 16.75 21.8999C16.75 22.038 16.6381 22.1499 16.5 22.1499H13.5C13.3619 22.1499 13.25 22.038 13.25 21.8999Z" fill="#A4FFCA"/>
<path opacity="0.16" fill-rule="evenodd" clip-rule="evenodd" d="M13.7002 13.425C13.7002 13.1903 13.8905 13 14.1252 13H15.8752C16.1099 13 16.3002 13.1903 16.3002 13.425C16.3002 13.6597 16.1099 13.85 15.8752 13.85H14.1252C13.8905 13.85 13.7002 13.6597 13.7002 13.425Z" fill="#A4FFCA"/>
</svg>
