<svg width="112" height="36" viewBox="0 0 112 36" fill="none" xmlns="http://www.w3.org/2000/svg">
<path d="M27.1136 13.7613C26.3233 13.4107 25.4943 13.1515 24.6431 12.9888C23.4517 15.0565 22.128 17.3172 21.1544 18.881C21.206 18.805 21.2504 18.7435 21.2849 18.7005C21.4618 18.4808 22.6039 17.2577 24.6485 18.1436C24.6485 18.1436 26.3486 19.1179 25.9376 21.0454C25.5266 22.9729 23.6365 23.0957 23.512 23.0957C23.3875 23.0957 18.6974 23.0597 18.6974 23.0597C18.6974 23.0597 19.9074 20.9026 20.7007 19.5978C20.4013 20.0615 20.1561 20.4184 19.9868 20.6288C19.5521 21.1687 17.0924 23.8153 12.7329 23.0122C11.1622 25.7383 9.82227 28.1252 9.82227 28.1252H23.8296C24.1906 28.1252 29.6565 27.724 30.8425 22.1515C32.0285 16.5791 28.0776 14.181 27.1136 13.7613Z" fill="#0049FC"/>
<path d="M16.0908 17.2997C15.9139 17.5194 14.7718 18.7425 12.7272 17.8566C12.7272 17.8566 11.0271 16.8823 11.4381 14.9548C11.8491 13.0273 13.7389 12.9045 13.8635 12.9045C13.988 12.9045 18.6781 12.9405 18.6781 12.9405C18.6781 12.9405 17.4681 15.0976 16.6748 16.4022C16.9741 15.9387 17.2193 15.5818 17.3887 15.3715C17.8234 14.8316 20.283 12.1849 24.6426 12.9881C26.2133 10.2619 27.5532 7.875 27.5532 7.875H13.5453C13.1843 7.875 7.71846 8.2762 6.53246 13.8487C5.34647 19.4212 9.29764 21.8192 10.2616 22.2389C11.0517 22.5897 11.8806 22.8492 12.7316 23.0122C13.923 20.9444 15.2467 18.6838 16.2202 17.12C16.1702 17.1944 16.1254 17.2567 16.0908 17.2997Z" fill="#00CBFE"/>
<path opacity="0.5" d="M19.9712 20.6282C20.1406 20.4178 20.3858 20.0609 20.6851 19.5972C20.8635 19.3038 21.0203 19.0545 21.1381 18.8816C22.1117 17.3186 23.4353 15.0572 24.6267 12.9894C20.2672 12.1863 17.8075 14.8329 17.3728 15.3728C17.2034 15.5832 16.9583 15.9401 16.6589 16.4035C16.4805 16.6972 16.3237 16.9465 16.2059 17.1194C15.2324 18.6824 13.9087 20.9438 12.7173 23.0115C17.0768 23.8147 19.5365 21.1681 19.9712 20.6282Z" fill="#00CBFE"/>
<path opacity="0.5" d="M19.9712 20.6282C20.1406 20.4178 20.3858 20.0609 20.6851 19.5972C20.8635 19.3038 21.0203 19.0545 21.1381 18.8816C22.1117 17.3186 23.4353 15.0572 24.6267 12.9894C20.2672 12.1863 17.8075 14.8329 17.3728 15.3728C17.2034 15.5832 16.9583 15.9401 16.6589 16.4035C16.4805 16.6972 16.3237 16.9465 16.2059 17.1194C15.2324 18.6824 13.9087 20.9438 12.7173 23.0115C17.0768 23.8147 19.5365 21.1681 19.9712 20.6282Z" fill="#0049FC"/>
<path d="M38.9375 12.9825H40.7199C40.9219 12.982 41.1229 13.0099 41.317 13.0654C41.5054 13.1191 41.6845 13.2011 41.8483 13.3085C42.0103 13.4154 42.1572 13.5436 42.285 13.6895C42.412 13.8342 42.5147 13.9984 42.5894 14.1757C43.017 15.2145 43.4483 16.244 43.8834 17.2641C44.3185 18.2841 44.7536 19.3136 45.1887 20.3524C45.2633 20.5216 45.3152 20.7 45.3433 20.8828C45.3661 21.0451 45.381 21.1886 45.3878 21.3135C45.407 21.0689 45.4553 20.8276 45.5318 20.5945C45.6233 20.309 45.7304 20.0287 45.8526 19.7549L48.2085 14.1641C48.2746 13.9978 48.3722 13.8458 48.4961 13.7166C48.6307 13.5711 48.7831 13.4431 48.9496 13.3355C49.1205 13.2244 49.3048 13.1352 49.498 13.0702C49.6848 13.0054 49.881 12.9719 50.0787 12.9709H51.8611L50.6 15.965L52.0054 19.302C52.1532 19.6485 52.2971 19.9891 52.4369 20.324C52.5683 20.6233 52.6469 20.943 52.6693 21.269C52.6765 21.2101 52.6858 21.1416 52.6968 21.0635C52.7077 20.9855 52.728 20.8889 52.7578 20.7708C52.7949 20.6287 52.8392 20.4886 52.8904 20.351C52.9494 20.189 53.0306 19.99 53.1342 19.7542L55.49 14.1634C55.5556 13.9982 55.6511 13.8465 55.7718 13.7159C55.9037 13.5697 56.0545 13.4415 56.2201 13.3348C56.3911 13.2237 56.5753 13.1345 56.7686 13.0695C56.9552 13.0047 57.1513 12.9712 57.3489 12.9702H59.1313L54.2355 24.5843H51.0943L49.4017 20.2969C49.3421 20.1413 49.2905 19.9826 49.2471 19.8217C49.2025 19.6599 49.18 19.4928 49.1803 19.3249C49.179 19.1632 49.2053 19.0025 49.2581 18.8497C49.118 19.2475 48.8579 19.9216 48.4779 20.8718C48.0979 21.822 47.5914 23.0595 46.9584 24.5843H43.8165L38.9375 12.9825Z" fill="white"/>
<path d="M59.1249 18.7832C59.1203 17.9874 59.2801 17.1992 59.5944 16.468C60.2037 15.0346 61.3468 13.8937 62.7823 13.2861C63.5154 12.9761 64.3035 12.8164 65.0996 12.8164C65.8958 12.8164 66.6838 12.9761 67.4169 13.2861C68.8515 13.8942 69.9936 15.035 70.6023 16.468C70.9127 17.2003 71.0726 17.9875 71.0726 18.7828C71.0726 19.5781 70.9127 20.3653 70.6023 21.0977C69.9935 22.5307 68.8515 23.6716 67.4169 24.2799C66.6838 24.5899 65.8958 24.7496 65.0996 24.7496C64.3035 24.7496 63.5154 24.5899 62.7823 24.2799C61.3469 23.672 60.2038 22.5311 59.5944 21.0977C59.2801 20.3667 59.1203 19.5787 59.1249 18.7832ZM62.0004 18.7941C61.9986 19.2044 62.0817 19.6107 62.2445 19.9874C62.3997 20.3533 62.625 20.6855 62.9077 20.9652C63.1918 21.244 63.5257 21.467 63.8922 21.6226C64.27 21.783 64.6763 21.8657 65.0868 21.8657C65.4973 21.8657 65.9034 21.783 66.2812 21.6226C66.6477 21.467 66.9818 21.244 67.2658 20.9652C67.5485 20.6854 67.774 20.3532 67.9297 19.9874C68.0901 19.6089 68.1727 19.2022 68.1727 18.7912C68.1727 18.3803 68.0901 17.9735 67.9297 17.5951C67.6124 16.8565 67.0218 16.2688 66.2812 15.9544C65.9034 15.794 65.4973 15.7113 65.0868 15.7113C64.6763 15.7113 64.27 15.794 63.8922 15.9544C63.1517 16.2686 62.5613 16.8564 62.2445 17.5951C62.0806 17.9735 61.9975 18.3819 62.0004 18.7941Z" fill="white"/>
<path d="M75.1605 12.9823C75.1751 13.0051 75.2194 13.0751 75.2932 13.1922C75.3711 13.3233 75.4166 13.4711 75.4258 13.6233C75.4334 13.7191 75.4389 13.8109 75.4426 13.8996C75.4464 13.9882 75.4481 14.0649 75.4481 14.1314C75.611 13.9401 75.7949 13.7678 75.9965 13.6178C76.4331 13.2906 76.9318 13.0556 77.4622 12.9272C77.7339 12.8609 78.0125 12.8274 78.2921 12.8276C78.6294 12.8301 78.9653 12.8709 79.2933 12.9491C79.653 13.0333 80.0059 13.1442 80.3491 13.2809C80.3125 13.4795 80.2776 13.6801 80.2442 13.8828C80.2108 14.0855 80.1758 14.2867 80.139 14.4864C80.1068 14.6725 80.0392 14.8507 79.9398 15.0113C79.8449 15.1612 79.723 15.2923 79.5802 15.3978C79.4333 15.5064 79.2686 15.5887 79.0935 15.6409C78.9124 15.6962 78.7241 15.7241 78.5348 15.7238C78.5088 15.7256 78.4828 15.7238 78.4573 15.7183C78.3949 15.7122 78.3321 15.7103 78.2695 15.7129C77.9878 15.7121 77.7072 15.7473 77.4345 15.8176C77.179 15.8823 76.9321 15.9769 76.6989 16.0994C76.4905 16.2084 76.2972 16.344 76.1237 16.5027C75.975 16.6364 75.8514 16.7954 75.7587 16.9725C75.6672 17.2283 75.615 17.4964 75.6037 17.7678V24.5855H72.7056V12.9823H75.1605Z" fill="white"/>
<path d="M84.6372 24.5841H81.739V9H84.6372V24.5841ZM88.553 14.1098C88.6397 13.9349 88.7557 13.776 88.8958 13.64C89.1886 13.3573 89.5513 13.1572 89.9467 13.06C90.153 13.0084 90.3648 12.9824 90.5775 12.9827H92.5474L89.2509 18.2089C89.1671 18.3233 89.0625 18.4209 88.9424 18.4965C88.8763 18.54 88.806 18.5769 88.7326 18.6067C88.803 18.6381 88.8716 18.6732 88.9383 18.7118C89.0619 18.7825 89.1692 18.8784 89.2533 18.9933L92.8374 24.5845H90.8688C90.4473 24.5926 90.03 24.4996 89.652 24.3133C89.2937 24.1288 89.006 23.832 88.8331 23.4683L86.1231 19.2911C86.0579 19.1894 85.982 19.0949 85.8965 19.0094C85.8193 18.9313 85.7361 18.8592 85.6477 18.794C85.5666 18.7351 85.498 18.6895 85.442 18.657C85.4126 18.637 85.3809 18.6203 85.3478 18.6074C85.3807 18.5961 85.4123 18.5813 85.442 18.5632C85.511 18.5252 85.5775 18.4827 85.6408 18.4359C85.7288 18.3722 85.812 18.3022 85.8897 18.2263C85.9819 18.1371 86.0602 18.0346 86.1221 17.9223L88.553 14.1098Z" fill="white"/>
<path d="M104.75 24.5841H102.394C102.338 24.4953 102.288 24.4029 102.245 24.3075C102.143 24.0727 102.081 23.8227 102.062 23.5676C101.908 23.7176 101.741 23.8544 101.564 23.9764C101.354 24.1222 101.132 24.2497 100.901 24.3574C100.648 24.4751 100.385 24.5694 100.115 24.6392C99.8374 24.7126 99.5511 24.7498 99.2636 24.7498H99.2293C98.4413 24.7561 97.6609 24.596 96.9392 24.2801C96.2457 23.9772 95.6181 23.5417 95.092 22.9982C94.5638 22.4497 94.1436 21.807 93.8532 21.1034C93.2481 19.6213 93.2481 17.9615 93.8532 16.4794C94.1431 15.7726 94.5654 15.1275 95.0975 14.5789C95.6292 14.0345 96.2623 13.5992 96.9612 13.2973C97.687 12.9821 98.4708 12.8221 99.2622 12.8276C99.7231 12.8282 100.181 12.9048 100.617 13.0542C101.073 13.2105 101.492 13.4567 101.851 13.778V9H104.75V24.5841ZM99.2742 21.8769C99.7826 21.8791 100.284 21.7577 100.735 21.5232C101.176 21.3017 101.556 20.9756 101.841 20.5734V17.0153C101.555 16.613 101.176 16.2868 100.735 16.0652C100.284 15.8308 99.7825 15.7094 99.2742 15.7115C98.8688 15.7085 98.4674 15.7914 98.0964 15.9546C97.7403 16.1107 97.4188 16.336 97.1507 16.6174C96.8819 16.9026 96.6699 17.2363 96.5262 17.6008C96.2232 18.3676 96.2232 19.2207 96.5262 19.9876C96.6699 20.352 96.8819 20.6857 97.1507 20.9709C97.4187 21.2525 97.7402 21.4778 98.0964 21.6338C98.4674 21.7971 98.8688 21.88 99.2742 21.8769Z" fill="white"/>
</svg>
