<svg width="112" height="36" viewBox="0 0 112 36" fill="none" xmlns="http://www.w3.org/2000/svg">
<path d="M27.1136 13.7611C26.3233 13.4105 25.4943 13.1513 24.6431 12.9886C23.4517 15.0563 22.128 17.317 21.1544 18.8808C21.206 18.8048 21.2504 18.7433 21.2849 18.7003C21.4618 18.4806 22.6039 17.2575 24.6485 18.1434C24.6485 18.1434 26.3486 19.1177 25.9376 21.0452C25.5266 22.9727 23.6365 23.0955 23.512 23.0955C23.3875 23.0955 18.6974 23.0595 18.6974 23.0595C18.6974 23.0595 19.9074 20.9024 20.7007 19.5976C20.4013 20.0613 20.1561 20.4182 19.9868 20.6286C19.5521 21.1685 17.0924 23.8151 12.7329 23.012C11.1622 25.7381 9.82227 28.125 9.82227 28.125H23.8296C24.1906 28.125 29.6565 27.7238 30.8425 22.1513C32.0285 16.5789 28.0776 14.1808 27.1136 13.7611Z" fill="#0049FC"/>
<path d="M16.0908 17.2997C15.9139 17.5194 14.7718 18.7425 12.7272 17.8566C12.7272 17.8566 11.0271 16.8823 11.4381 14.9548C11.8491 13.0273 13.7389 12.9045 13.8635 12.9045C13.988 12.9045 18.6781 12.9405 18.6781 12.9405C18.6781 12.9405 17.4681 15.0976 16.6748 16.4022C16.9741 15.9387 17.2193 15.5818 17.3887 15.3715C17.8234 14.8316 20.283 12.1849 24.6426 12.9881C26.2133 10.2619 27.5532 7.875 27.5532 7.875H13.5453C13.1843 7.875 7.71846 8.2762 6.53246 13.8487C5.34647 19.4212 9.29764 21.8192 10.2616 22.2389C11.0517 22.5897 11.8806 22.8492 12.7316 23.0122C13.923 20.9444 15.2467 18.6838 16.2202 17.12C16.1702 17.1944 16.1254 17.2567 16.0908 17.2997Z" fill="#00CBFE"/>
<path opacity="0.5" d="M19.9712 20.6281C20.1406 20.4177 20.3858 20.0608 20.6851 19.5971C20.8635 19.3037 21.0203 19.0544 21.1381 18.8815C22.1117 17.3185 23.4353 15.0571 24.6267 12.9893C20.2672 12.1862 17.8075 14.8328 17.3728 15.3727C17.2034 15.5831 16.9583 15.94 16.6589 16.4034C16.4805 16.6971 16.3237 16.9464 16.2059 17.1193C15.2324 18.6823 13.9087 20.9437 12.7173 23.0114C17.0768 23.8146 19.5365 21.168 19.9712 20.6281Z" fill="#00CBFE"/>
<path opacity="0.5" d="M19.9712 20.6281C20.1406 20.4177 20.3858 20.0608 20.6851 19.5971C20.8635 19.3037 21.0203 19.0544 21.1381 18.8815C22.1117 17.3185 23.4353 15.0571 24.6267 12.9893C20.2672 12.1862 17.8075 14.8328 17.3728 15.3727C17.2034 15.5831 16.9583 15.94 16.6589 16.4034C16.4805 16.6971 16.3237 16.9464 16.2059 17.1193C15.2324 18.6823 13.9087 20.9437 12.7173 23.0114C17.0768 23.8146 19.5365 21.168 19.9712 20.6281Z" fill="#0049FC"/>
<path d="M38.9375 12.9823H40.7199C40.9219 12.9818 41.1229 13.0097 41.317 13.0652C41.5054 13.1189 41.6845 13.2009 41.8483 13.3083C42.0103 13.4152 42.1572 13.5434 42.285 13.6893C42.412 13.834 42.5147 13.9982 42.5894 14.1755C43.017 15.2143 43.4483 16.2438 43.8834 17.2639C44.3185 18.2839 44.7536 19.3134 45.1887 20.3522C45.2633 20.5214 45.3152 20.6998 45.3433 20.8826C45.3661 21.0449 45.381 21.1884 45.3878 21.3133C45.407 21.0687 45.4553 20.8274 45.5318 20.5943C45.6233 20.3088 45.7304 20.0285 45.8526 19.7547L48.2085 14.1639C48.2746 13.9976 48.3722 13.8456 48.4961 13.7164C48.6307 13.5709 48.7831 13.4429 48.9496 13.3353C49.1205 13.2242 49.3048 13.135 49.498 13.07C49.6848 13.0052 49.881 12.9717 50.0787 12.9707H51.8611L50.6 15.9648L52.0054 19.3018C52.1532 19.6483 52.2971 19.9889 52.4369 20.3238C52.5683 20.6231 52.6469 20.9428 52.6693 21.2688C52.6765 21.2099 52.6858 21.1414 52.6968 21.0633C52.7077 20.9853 52.728 20.8887 52.7578 20.7706C52.7949 20.6285 52.8392 20.4884 52.8904 20.3508C52.9494 20.1888 53.0306 19.9898 53.1342 19.754L55.49 14.1632C55.5556 13.998 55.6511 13.8463 55.7718 13.7157C55.9037 13.5695 56.0545 13.4413 56.2201 13.3346C56.3911 13.2235 56.5753 13.1343 56.7686 13.0693C56.9552 13.0045 57.1513 12.971 57.3489 12.97H59.1313L54.2355 24.5841H51.0943L49.4017 20.2967C49.3421 20.1411 49.2905 19.9824 49.2471 19.8215C49.2025 19.6597 49.18 19.4926 49.1803 19.3247C49.179 19.163 49.2053 19.0023 49.2581 18.8495C49.118 19.2473 48.8579 19.9214 48.4779 20.8716C48.0979 21.8218 47.5914 23.0593 46.9584 24.5841H43.8165L38.9375 12.9823Z" fill="#1C1C1E"/>
<path d="M59.1248 18.7834C59.1202 17.9876 59.2801 17.1994 59.5944 16.4682C60.2037 15.0348 61.3467 13.8939 62.7822 13.2863C63.5153 12.9763 64.3034 12.8166 65.0995 12.8166C65.8957 12.8166 66.6837 12.9763 67.4168 13.2863C68.8514 13.8944 69.9935 15.0352 70.6022 16.4682C70.9126 17.2005 71.0725 17.9877 71.0725 18.783C71.0725 19.5783 70.9126 20.3655 70.6022 21.0979C69.9934 22.5309 68.8514 23.6718 67.4168 24.2801C66.6837 24.5901 65.8957 24.7498 65.0995 24.7498C64.3034 24.7498 63.5153 24.5901 62.7822 24.2801C61.3468 23.6722 60.2038 22.5313 59.5944 21.0979C59.2801 20.3669 59.1202 19.5789 59.1248 18.7834ZM62.0003 18.7943C61.9985 19.2046 62.0816 19.6109 62.2444 19.9876C62.3996 20.3535 62.6249 20.6857 62.9076 20.9654C63.1917 21.2442 63.5256 21.4672 63.8921 21.6228C64.2699 21.7832 64.6762 21.8659 65.0867 21.8659C65.4972 21.8659 65.9034 21.7832 66.2812 21.6228C66.6477 21.4672 66.9817 21.2442 67.2657 20.9654C67.5484 20.6856 67.7739 20.3534 67.9296 19.9876C68.09 19.6091 68.1727 19.2024 68.1727 18.7914C68.1727 18.3805 68.09 17.9737 67.9296 17.5953C67.6123 16.8567 67.0218 16.269 66.2812 15.9546C65.9034 15.7942 65.4972 15.7115 65.0867 15.7115C64.6762 15.7115 64.2699 15.7942 63.8921 15.9546C63.1516 16.2688 62.5612 16.8566 62.2444 17.5953C62.0805 17.9737 61.9974 18.3821 62.0003 18.7943Z" fill="#1C1C1E"/>
<path d="M75.1604 12.9823C75.175 13.0051 75.2193 13.0751 75.2931 13.1922C75.371 13.3233 75.4165 13.4711 75.4257 13.6233C75.4333 13.7191 75.4388 13.8109 75.4425 13.8996C75.4463 13.9882 75.448 14.0649 75.448 14.1314C75.6109 13.9401 75.7948 13.7678 75.9964 13.6178C76.433 13.2906 76.9317 13.0556 77.4621 12.9272C77.7338 12.8609 78.0124 12.8274 78.292 12.8276C78.6293 12.8301 78.9652 12.8709 79.2932 12.9491C79.6529 13.0333 80.0058 13.1442 80.349 13.2809C80.3124 13.4795 80.2775 13.6801 80.2441 13.8828C80.2107 14.0855 80.1757 14.2867 80.1389 14.4864C80.1067 14.6725 80.0391 14.8507 79.9397 15.0113C79.8448 15.1612 79.7229 15.2923 79.5801 15.3978C79.4332 15.5064 79.2685 15.5887 79.0934 15.6409C78.9123 15.6962 78.724 15.7241 78.5347 15.7238C78.5087 15.7256 78.4827 15.7238 78.4572 15.7183C78.3948 15.7122 78.332 15.7103 78.2694 15.7129C77.9877 15.7121 77.7071 15.7473 77.4344 15.8176C77.1789 15.8823 76.932 15.9769 76.6988 16.0994C76.4904 16.2084 76.2971 16.344 76.1236 16.5027C75.9749 16.6364 75.8513 16.7954 75.7586 16.9725C75.6671 17.2283 75.6149 17.4964 75.6036 17.7678V24.5855H72.7055V12.9823H75.1604Z" fill="#1C1C1E"/>
<path d="M84.6371 24.5841H81.7389V9H84.6371V24.5841ZM88.5529 14.1098C88.6396 13.9349 88.7556 13.776 88.8957 13.64C89.1885 13.3573 89.5512 13.1572 89.9466 13.06C90.1529 13.0084 90.3647 12.9824 90.5774 12.9827H92.5473L89.2508 18.2089C89.167 18.3233 89.0624 18.4209 88.9423 18.4965C88.8762 18.54 88.8059 18.5769 88.7325 18.6067C88.8029 18.6381 88.8715 18.6732 88.9382 18.7118C89.0618 18.7825 89.1691 18.8784 89.2532 18.9933L92.8373 24.5845H90.8687C90.4472 24.5926 90.0299 24.4996 89.6519 24.3133C89.2936 24.1288 89.0059 23.832 88.833 23.4683L86.123 19.2911C86.0578 19.1894 85.9819 19.0949 85.8964 19.0094C85.8192 18.9313 85.736 18.8592 85.6476 18.794C85.5665 18.7351 85.4979 18.6895 85.4419 18.657C85.4125 18.637 85.3808 18.6203 85.3477 18.6074C85.3806 18.5961 85.4122 18.5813 85.4419 18.5632C85.5109 18.5252 85.5774 18.4827 85.6407 18.4359C85.7287 18.3722 85.8119 18.3022 85.8896 18.2263C85.9818 18.1371 86.0601 18.0346 86.122 17.9223L88.5529 14.1098Z" fill="#1C1C1E"/>
<path d="M104.75 24.5841H102.394C102.338 24.4953 102.288 24.4029 102.245 24.3075C102.143 24.0727 102.081 23.8227 102.062 23.5676C101.908 23.7176 101.741 23.8544 101.564 23.9764C101.354 24.1222 101.132 24.2497 100.901 24.3574C100.648 24.4751 100.385 24.5694 100.115 24.6392C99.8374 24.7126 99.5511 24.7498 99.2636 24.7498H99.2293C98.4413 24.7561 97.6609 24.596 96.9392 24.2801C96.2457 23.9772 95.6181 23.5417 95.092 22.9982C94.5638 22.4497 94.1436 21.807 93.8532 21.1034C93.2481 19.6213 93.2481 17.9615 93.8532 16.4794C94.1431 15.7726 94.5654 15.1275 95.0975 14.5789C95.6292 14.0345 96.2623 13.5992 96.9612 13.2973C97.687 12.9821 98.4708 12.8221 99.2622 12.8276C99.7231 12.8282 100.181 12.9048 100.617 13.0542C101.073 13.2105 101.492 13.4567 101.851 13.778V9H104.75V24.5841ZM99.2742 21.8769C99.7826 21.8791 100.284 21.7577 100.735 21.5232C101.176 21.3017 101.556 20.9756 101.841 20.5734V17.0153C101.555 16.613 101.176 16.2868 100.735 16.0652C100.284 15.8308 99.7825 15.7094 99.2742 15.7115C98.8688 15.7085 98.4674 15.7914 98.0964 15.9546C97.7403 16.1107 97.4188 16.336 97.1507 16.6174C96.8819 16.9026 96.6699 17.2363 96.5262 17.6008C96.2232 18.3676 96.2232 19.2207 96.5262 19.9876C96.6699 20.352 96.8819 20.6857 97.1507 20.9709C97.4187 21.2525 97.7402 21.4778 98.0964 21.6338C98.4674 21.7971 98.8688 21.88 99.2742 21.8769Z" fill="#1C1C1E"/>
</svg>
